<svg width="629" height="355" viewBox="0 0 629 355" fill="none" xmlns="http://www.w3.org/2000/svg">
<g clip-path="url(#clip0_1059_7198)">
<g filter="url(#filter0_d_1059_7198)">
<rect x="36" y="51" width="430" height="254" rx="4" fill="white"/>
</g>
<path d="M36 55C36 52.7909 37.7909 51 40 51H462C464.209 51 466 52.7909 466 55V85H36V55Z" fill="#3C3A3E"/>
<path d="M36 85H142V305H40C37.7909 305 36 303.209 36 301V85Z" fill="#EDEDED"/>
<path fill-rule="evenodd" clip-rule="evenodd" d="M61.2968 70.7082C61.2968 73.1945 59.8548 74.4391 56.9709 74.4418H51C51 72.0479 54.6847 72.0584 56.2746 72.0629C56.3396 72.0631 56.4012 72.0633 56.4588 72.0633C57.6511 72.0633 58.246 71.5239 58.2435 70.4452C58.2435 69.3612 57.6499 68.8272 56.4588 68.8272H53.0912V66.473H56.4316C57.6227 66.473 58.2124 65.9512 58.2124 64.9156C58.2124 63.8801 57.6149 63.3785 56.4316 63.3785C56.2422 63.3785 56.0276 63.3841 55.7957 63.3902L55.7956 63.3902C53.9467 63.4387 51 63.516 51 61H56.4976C58.0805 61 59.1836 61.2036 59.807 61.6108C60.2754 61.9132 60.6574 62.341 60.9133 62.8497C61.1692 63.3584 61.2896 63.9293 61.2619 64.503C61.2859 65.1828 61.1139 65.8545 60.7681 66.4314C60.4223 67.0082 59.9186 67.4637 59.322 67.7391C60.6334 68.3216 61.2877 69.3194 61.2852 70.7324L61.2968 70.7082ZM100.341 64.6609C101.477 64.8694 102.5 65.5033 103.22 66.4434C103.939 67.3836 104.304 68.5652 104.247 69.7664C104.19 70.9675 103.714 72.1055 102.908 72.9665C102.103 73.8275 101.024 74.3523 99.8737 74.4422C98.7235 74.5322 97.5813 74.1811 96.6618 73.455C95.7423 72.7288 95.1088 71.6776 94.8803 70.4988C94.6517 69.32 94.8439 68.0948 95.4207 67.0533C95.9975 66.0118 96.9193 65.2258 98.0127 64.8429C98.762 64.5811 99.5622 64.5185 100.341 64.6609ZM72.1039 71.6952C72.1039 73.5398 70.9089 74.4607 68.519 74.458H62.7305V64.6123H68.1621C69.4502 64.6123 70.3541 64.7701 70.8779 65.0775C71.2605 65.2842 71.5789 65.6001 71.796 65.9883C72.0131 66.3764 72.1199 66.8209 72.1039 67.2699C72.1107 67.7334 71.9901 68.1892 71.7564 68.5835C71.5226 68.9777 71.1855 69.2939 70.7848 69.4947C71.1946 69.6738 71.5419 69.9796 71.7799 70.371C72.0179 70.7623 72.135 71.2202 72.1155 71.6831L72.1039 71.6952ZM69.4346 67.5612C69.4346 66.9423 69.0195 66.6308 68.1854 66.6308H65.2251V68.5199H68.1854C69.0195 68.5199 69.4346 68.2003 69.4346 67.5612ZM69.4346 71.4809C69.4346 70.8377 69.0234 70.5181 68.2009 70.5181H65.2251V72.4436H68.2203C69.0428 72.4436 69.454 72.12 69.454 71.4809H69.4346ZM93.6752 74.458H91.1922V70.5545H87.6073V74.458H85.1165V64.6123H87.6073V68.3864H91.1922V64.6123H93.6752V74.458ZM114.99 74.458H111.638L107.821 69.6808V74.458H105.33V64.6123H107.821V69.341L111.836 64.6123H115.014L110.626 69.43L115.014 74.458H114.99ZM100.209 66.918C99.8684 66.8063 99.5097 66.7687 99.1549 66.8077C98.8001 66.8468 98.4568 66.9615 98.1464 67.1448C97.836 67.3282 97.5651 67.5762 97.3506 67.8734C97.136 68.1706 96.9825 68.5106 96.8995 68.8724C96.8165 69.2342 96.8058 69.6099 96.8681 69.9761C96.9304 70.3424 97.0643 70.6913 97.2615 71.0013C97.4587 71.3112 97.7151 71.5755 98.0145 71.7777C98.3139 71.9799 98.6501 72.1157 99.0021 72.1766C99.3872 72.2573 99.7848 72.2476 100.166 72.1483C100.722 72.002 101.216 71.6683 101.571 71.1992C101.926 70.73 102.122 70.1516 102.129 69.554C102.136 68.9564 101.954 68.3732 101.61 67.895C101.266 67.4168 100.78 67.0705 100.228 66.9099L100.209 66.918ZM79.7547 66.7684C80.3441 67.0675 80.8187 67.5662 81.1012 68.1828C81.3837 68.7995 81.4574 69.4979 81.3101 70.1638C81.1629 70.8298 80.8035 71.424 80.2906 71.8496C79.7777 72.2751 79.1415 72.5068 78.486 72.5068C77.8306 72.5068 77.1944 72.2751 76.6815 71.8496C76.1686 71.424 75.8092 70.8298 75.6619 70.1638C75.5147 69.4979 75.5884 68.7995 75.8709 68.1828C76.1534 67.5662 76.628 67.0675 77.2174 66.7684V64.135C75.9633 64.4581 74.866 65.2487 74.1327 66.3575C73.3993 67.4663 73.0806 68.8167 73.2367 70.1537C73.3928 71.4907 74.0129 72.7219 74.98 73.6148C75.9471 74.5078 77.1942 75.0009 78.486 75.0009C79.7779 75.0009 81.025 74.5078 81.9921 73.6148C82.9592 72.7219 83.5793 71.4907 83.7354 70.1537C83.8915 68.8167 83.5728 67.4663 82.8394 66.3575C82.1061 65.2487 81.0088 64.4581 79.7547 64.135V66.7684ZM77.6042 70.9019C77.9735 71.1544 78.4236 71.2447 78.8564 71.1532C79.1835 71.0895 79.4849 70.9258 79.7224 70.683C79.9599 70.4401 80.1227 70.1291 80.1901 69.7894C80.2575 69.4498 80.2265 69.0969 80.1009 68.7757C79.9753 68.4545 79.7609 68.1796 79.485 67.9859C79.3176 67.8677 79.1309 67.7827 78.934 67.7351V63.9651H78.1581V67.7351C77.727 67.8354 77.3514 68.1091 77.1128 68.4966C76.8742 68.8842 76.792 69.3542 76.884 69.8046C76.976 70.255 77.2348 70.6494 77.6042 70.9019Z" fill="white"/>
<path fill-rule="evenodd" clip-rule="evenodd" d="M142 167.5V245V245.5L142 274H140V245.5L36 245.5V245L140 245L140 167.5L36 167.5V167L140 167V85H142V167V167.5ZM46 107C46 105.895 46.8954 105 48 105H124C125.105 105 126 105.895 126 107C126 108.105 125.105 109 124 109H48C46.8954 109 46 108.105 46 107ZM48 183C46.8954 183 46 183.895 46 185C46 186.105 46.8954 187 48 187H124C125.105 187 126 186.105 126 185C126 183.895 125.105 183 124 183H48ZM46 121C46 119.895 46.8954 119 48 119H104C105.105 119 106 119.895 106 121C106 122.105 105.105 123 104 123H48C46.8954 123 46 122.105 46 121ZM48 197C46.8954 197 46 197.895 46 199C46 200.105 46.8954 201 48 201H104C105.105 201 106 200.105 106 199C106 197.895 105.105 197 104 197H48ZM46 135C46 133.895 46.8954 133 48 133H113C114.105 133 115 133.895 115 135C115 136.105 114.105 137 113 137H48C46.8954 137 46 136.105 46 135ZM48 211C46.8954 211 46 211.895 46 213C46 214.105 46.8954 215 48 215H113C114.105 215 115 214.105 115 213C115 211.895 114.105 211 113 211H48ZM46 149C46 147.895 46.8954 147 48 147H91C92.1046 147 93 147.895 93 149C93 150.105 92.1046 151 91 151H48C46.8954 151 46 150.105 46 149ZM48 225C46.8954 225 46 225.895 46 227C46 228.105 46.8954 229 48 229H91C92.1046 229 93 228.105 93 227C93 225.895 92.1046 225 91 225H48ZM46 263C46 261.895 46.8954 261 48 261H104C105.105 261 106 261.895 106 263C106 264.105 105.105 265 104 265H48C46.8954 265 46 264.105 46 263ZM142 281L36 281V281.5L142 281.5V281Z" fill="#CBCBCB"/>
<path d="M178.09 114H180.037L176.44 109.253L179.888 105.273H177.94L174.838 108.861H174.442V105.273H172.861V114H174.442V110.186H175.217L178.09 114Z" fill="#3C3A3E"/>
<path d="M182.926 114.132C183.953 114.132 184.567 113.65 184.848 113.101H184.899V114H186.382V109.619C186.382 107.889 184.972 107.369 183.723 107.369C182.347 107.369 181.29 107.983 180.949 109.176L182.389 109.381C182.543 108.933 182.977 108.55 183.732 108.55C184.447 108.55 184.84 108.916 184.84 109.56V109.585C184.84 110.028 184.375 110.05 183.22 110.173C181.95 110.31 180.736 110.689 180.736 112.163C180.736 113.45 181.678 114.132 182.926 114.132ZM183.327 112.998C182.683 112.998 182.223 112.704 182.223 112.138C182.223 111.545 182.739 111.298 183.429 111.2C183.834 111.145 184.644 111.043 184.844 110.881V111.652C184.844 112.381 184.256 112.998 183.327 112.998Z" fill="#3C3A3E"/>
<path d="M191.7 112.206L189.808 107.454H187.933V114H189.42V109.589L191.163 114H192.242L194.044 109.543V114H195.519V107.454H193.644L191.7 112.206Z" fill="#3C3A3E"/>
<path d="M197.074 114H198.548V108.72H201.114V114H202.601V107.454H197.074V114Z" fill="#3C3A3E"/>
<path d="M206.071 114.132C207.098 114.132 207.711 113.65 207.993 113.101H208.044V114H209.527V109.619C209.527 107.889 208.116 107.369 206.868 107.369C205.491 107.369 204.434 107.983 204.093 109.176L205.534 109.381C205.687 108.933 206.122 108.55 206.876 108.55C207.592 108.55 207.984 108.916 207.984 109.56V109.585C207.984 110.028 207.52 110.05 206.365 110.173C205.095 110.31 203.88 110.689 203.88 112.163C203.88 113.45 204.822 114.132 206.071 114.132ZM206.471 112.998C205.828 112.998 205.368 112.704 205.368 112.138C205.368 111.545 205.883 111.298 206.574 111.2C206.978 111.145 207.788 111.043 207.988 110.881V111.652C207.988 112.381 207.4 112.998 206.471 112.998Z" fill="#3C3A3E"/>
<path d="M212.565 107.454H211.078V114H212.565V111.354H215.101V114H216.583V107.454H215.101V110.088H212.565V107.454Z" fill="#3C3A3E"/>
<path d="M219.631 111.912V107.454H218.144V114H219.734L222.346 109.538V114H223.837V107.454H222.252L219.631 111.912Z" fill="#3C3A3E"/>
<path d="M229.291 114H230.735V107.454H227.893C226.291 107.454 225.298 108.277 225.302 109.534C225.298 110.361 225.75 110.987 226.53 111.307L225.064 114H226.581L227.923 111.537H229.291V114ZM229.291 110.412H227.842C227.164 110.412 226.789 110.058 226.794 109.568C226.789 109.078 227.186 108.707 227.893 108.707H229.291V110.412Z" fill="#3C3A3E"/>
<path d="M240.916 113.062L239.297 110.446L240.916 107.829H239.527L237.805 110.386V110.506L239.527 113.062H240.916ZM238.316 113.062L236.697 110.446L238.316 107.829H236.927L235.206 110.386V110.506L236.927 113.062H238.316Z" fill="#3C3A3E"/>
<path d="M245.552 114.119C247.419 114.119 248.778 113.05 248.774 111.575C248.778 110.484 248.096 109.7 246.873 109.525V109.457C247.819 109.253 248.454 108.55 248.45 107.57C248.454 106.24 247.321 105.153 245.578 105.153C243.882 105.153 242.569 106.163 242.535 107.625H244.057C244.082 106.892 244.764 106.436 245.569 106.436C246.383 106.436 246.924 106.93 246.92 107.663C246.924 108.426 246.294 108.933 245.39 108.933H244.619V110.152H245.39C246.494 110.152 247.15 110.706 247.146 111.494C247.15 112.266 246.481 112.794 245.548 112.794C244.67 112.794 243.993 112.338 243.954 111.626H242.352C242.395 113.101 243.711 114.119 245.552 114.119Z" fill="#3C3A3E"/>
<path d="M250.254 114H253.424C254.958 114 255.836 113.305 255.836 112.223C255.836 111.307 255.124 110.668 254.097 110.578C254.971 110.416 255.516 109.952 255.516 109.214C255.516 108.111 254.549 107.454 253.002 107.454H250.254V114ZM251.698 112.785V111.162H253.424C253.991 111.162 254.336 111.49 254.336 112.031C254.336 112.5 253.991 112.785 253.424 112.785H251.698ZM251.698 110.165V108.69H253.002C253.646 108.69 254.038 108.963 254.038 109.41C254.038 109.879 253.658 110.165 253.032 110.165H251.698Z" fill="#3C3A3E"/>
<path d="M259.964 114.128C261.882 114.128 263.101 112.777 263.101 110.753C263.101 108.724 261.882 107.369 259.964 107.369C258.047 107.369 256.828 108.724 256.828 110.753C256.828 112.777 258.047 114.128 259.964 114.128ZM259.973 112.892C258.912 112.892 258.392 111.946 258.392 110.748C258.392 109.551 258.912 108.592 259.973 108.592C261.017 108.592 261.537 109.551 261.537 110.748C261.537 111.946 261.017 112.892 259.973 112.892Z" fill="#3C3A3E"/>
<path d="M265.897 107.454H264.41V114H265.897V111.354H268.433V114H269.916V107.454H268.433V110.088H265.897V107.454Z" fill="#3C3A3E"/>
<path d="M271.476 114H273.019V111.533H273.773L275.567 114H277.434L274.983 110.668L277.408 107.454H275.55L273.581 110.097H273.019V107.454H271.476V114Z" fill="#3C3A3E"/>
<path d="M279.796 111.912V107.454H278.308V114H279.898L282.51 109.538V114H284.001V107.454H282.416L279.796 111.912Z" fill="#3C3A3E"/>
<path d="M288.562 114H290.037V108.72H292.602V114H294.089V107.454H288.562V114Z" fill="#3C3A3E"/>
<path d="M298.531 114.128C300.448 114.128 301.667 112.777 301.667 110.753C301.667 108.724 300.448 107.369 298.531 107.369C296.613 107.369 295.394 108.724 295.394 110.753C295.394 112.777 296.613 114.128 298.531 114.128ZM298.539 112.892C297.478 112.892 296.958 111.946 296.958 110.748C296.958 109.551 297.478 108.592 298.539 108.592C299.583 108.592 300.103 109.551 300.103 110.748C300.103 111.946 299.583 112.892 298.539 112.892Z" fill="#3C3A3E"/>
<path d="M307.142 114L307.862 111.848H311.143L311.868 114H313.555L310.478 105.273H308.527L305.454 114H307.142ZM308.288 110.578L309.468 107.062H309.537L310.717 110.578H308.288Z" fill="#3C3A3E"/>
<path d="M314.705 114H316.286V111.051H317.956C319.972 111.051 321.054 109.841 321.054 108.162C321.054 106.496 319.984 105.273 317.977 105.273H314.705V114ZM316.286 109.751V106.594H317.734C318.919 106.594 319.443 107.233 319.443 108.162C319.443 109.091 318.919 109.751 317.743 109.751H316.286Z" fill="#3C3A3E"/>
<path d="M324.008 105.273H322.427V114H324.008V105.273Z" fill="#3C3A3E"/>
<path d="M328.158 113.062H329.547L331.269 110.506V110.386L329.547 107.829H328.158L329.777 110.446L328.158 113.062ZM325.533 113.062H326.922L328.644 110.506V110.386L326.922 107.829H325.533L327.152 110.446L325.533 113.062Z" fill="#3C3A3E"/>
<path fill-rule="evenodd" clip-rule="evenodd" d="M436 124H172V123H436V124ZM172 145C172 143.895 172.895 143 174 143H238C239.105 143 240 143.895 240 145C240 146.105 239.105 147 238 147H174C172.895 147 172 146.105 172 145ZM172 169C172 167.895 172.895 167 174 167H238C239.105 167 240 167.895 240 169C240 170.105 239.105 171 238 171H174C172.895 171 172 170.105 172 169ZM174 191C172.895 191 172 191.895 172 193C172 194.105 172.895 195 174 195H238C239.105 195 240 194.105 240 193C240 191.895 239.105 191 238 191H174ZM172 217C172 215.895 172.895 215 174 215H238C239.105 215 240 215.895 240 217C240 218.105 239.105 219 238 219H174C172.895 219 172 218.105 172 217ZM174 239C172.895 239 172 239.895 172 241C172 242.105 172.895 243 174 243H238C239.105 243 240 242.105 240 241C240 239.895 239.105 239 238 239H174ZM283 145C283 143.895 283.895 143 285 143H314C315.105 143 316 143.895 316 145C316 146.105 315.105 147 314 147H285C283.895 147 283 146.105 283 145ZM285 167C283.895 167 283 167.895 283 169C283 170.105 283.895 171 285 171H314C315.105 171 316 170.105 316 169C316 167.895 315.105 167 314 167H285ZM283 193C283 191.895 283.895 191 285 191H314C315.105 191 316 191.895 316 193C316 194.105 315.105 195 314 195H285C283.895 195 283 194.105 283 193ZM285 215C283.895 215 283 215.895 283 217C283 218.105 283.895 219 285 219H314C315.105 219 316 218.105 316 217C316 215.895 315.105 215 314 215H285ZM283 241C283 239.895 283.895 239 285 239H314C315.105 239 316 239.895 316 241C316 242.105 315.105 243 314 243H285C283.895 243 283 242.105 283 241ZM330 143C328.895 143 328 143.895 328 145C328 146.105 328.895 147 330 147H434C435.105 147 436 146.105 436 145C436 143.895 435.105 143 434 143H330ZM328 169C328 167.895 328.895 167 330 167H434C435.105 167 436 167.895 436 169C436 170.105 435.105 171 434 171H330C328.895 171 328 170.105 328 169ZM330 191C328.895 191 328 191.895 328 193C328 194.105 328.895 195 330 195H434C435.105 195 436 194.105 436 193C436 191.895 435.105 191 434 191H330ZM328 217C328 215.895 328.895 215 330 215H434C435.105 215 436 215.895 436 217C436 218.105 435.105 219 434 219H330C328.895 219 328 218.105 328 217ZM330 239C328.895 239 328 239.895 328 241C328 242.105 328.895 243 330 243H434C435.105 243 436 242.105 436 241C436 239.895 435.105 239 434 239H330ZM172 157H436V156.5H172V157ZM436 181H172V180.5H436V181ZM172 205H436V204.5H172V205ZM436 229H172V228.5H436V229ZM172 253H436V252.5H172V253Z" fill="#E6E6E6"/>
<g filter="url(#filter1_d_1059_7198)">
<rect x="293" y="176" width="289" height="156" rx="9" fill="white"/>
</g>
<path d="M316.861 206H318.442V203.051H320.112C322.128 203.051 323.21 201.841 323.21 200.162C323.21 198.495 322.141 197.272 320.134 197.272H316.861V206ZM318.442 201.751V198.593H319.891C321.075 198.593 321.599 199.233 321.599 200.162C321.599 201.091 321.075 201.751 319.899 201.751H318.442Z" fill="#3C3A3E"/>
<path d="M327.319 206.128C328.845 206.128 329.893 205.382 330.166 204.244L328.726 204.082C328.517 204.636 328.005 204.926 327.341 204.926C326.343 204.926 325.683 204.27 325.67 203.149H330.23V202.676C330.23 200.379 328.849 199.369 327.238 199.369C325.363 199.369 324.14 200.745 324.14 202.765C324.14 204.819 325.346 206.128 327.319 206.128ZM325.674 202.109C325.721 201.274 326.339 200.571 327.26 200.571C328.146 200.571 328.743 201.218 328.751 202.109H325.674Z" fill="#3C3A3E"/>
<path d="M333.418 206.132C334.445 206.132 335.059 205.65 335.34 205.101H335.391V206H336.874V201.619C336.874 199.889 335.464 199.369 334.215 199.369C332.839 199.369 331.782 199.983 331.441 201.176L332.881 201.38C333.035 200.933 333.47 200.549 334.224 200.549C334.94 200.549 335.332 200.916 335.332 201.559V201.585C335.332 202.028 334.867 202.049 333.712 202.173C332.443 202.309 331.228 202.689 331.228 204.163C331.228 205.45 332.17 206.132 333.418 206.132ZM333.819 204.998C333.175 204.998 332.715 204.704 332.715 204.138C332.715 203.545 333.231 203.298 333.921 203.2C334.326 203.145 335.136 203.042 335.336 202.88V203.652C335.336 204.38 334.748 204.998 333.819 204.998Z" fill="#3C3A3E"/>
<path d="M338.425 206H339.968V203.532H340.722L342.516 206H344.383L341.933 202.667L344.357 199.454H342.499L340.531 202.096H339.968V199.454H338.425V206Z" fill="#3C3A3E"/>
<path d="M350.784 199.454H349.31V204.734H346.745V199.454H345.258V206H350.277V208.105H351.786V204.849H350.784V199.454Z" fill="#3C3A3E"/>
<path d="M354.538 203.912V199.454H353.05V206H354.64L357.252 201.538V206H358.744V199.454H357.158L354.538 203.912Z" fill="#3C3A3E"/>
<path d="M364.197 206H365.642V199.454H362.799C361.197 199.454 360.204 200.277 360.208 201.534C360.204 202.361 360.656 202.987 361.436 203.307L359.97 206H361.487L362.829 203.537H364.197V206ZM364.197 202.412H362.748C362.071 202.412 361.696 202.058 361.7 201.568C361.696 201.078 362.092 200.707 362.799 200.707H364.197V202.412Z" fill="#3C3A3E"/>
<path d="M371.659 199.454H370.172V206H371.659V203.353H374.194V206H375.677V199.454H374.194V202.088H371.659V199.454Z" fill="#3C3A3E"/>
<path d="M379.121 206.132C380.148 206.132 380.762 205.65 381.043 205.101H381.095V206H382.577V201.619C382.577 199.889 381.167 199.369 379.918 199.369C378.542 199.369 377.485 199.983 377.144 201.176L378.585 201.38C378.738 200.933 379.173 200.549 379.927 200.549C380.643 200.549 381.035 200.916 381.035 201.559V201.585C381.035 202.028 380.57 202.049 379.416 202.173C378.146 202.309 376.931 202.689 376.931 204.163C376.931 205.45 377.873 206.132 379.121 206.132ZM379.522 204.998C378.879 204.998 378.418 204.704 378.418 204.138C378.418 203.545 378.934 203.298 379.624 203.2C380.029 203.145 380.839 203.042 381.039 202.88V203.652C381.039 204.38 380.451 204.998 379.522 204.998Z" fill="#3C3A3E"/>
<path d="M389.96 206.128C391.878 206.128 393.097 204.777 393.097 202.753C393.097 200.724 391.878 199.369 389.96 199.369C388.043 199.369 386.824 200.724 386.824 202.753C386.824 204.777 388.043 206.128 389.96 206.128ZM389.969 204.892C388.908 204.892 388.388 203.946 388.388 202.748C388.388 201.551 388.908 200.592 389.969 200.592C391.013 200.592 391.533 201.551 391.533 202.748C391.533 203.946 391.013 204.892 389.969 204.892Z" fill="#3C3A3E"/>
<path d="M393.696 200.72H395.814V206H397.306V200.72H399.424V199.454H393.696V200.72Z" fill="#3C3A3E"/>
<path d="M400.652 206H403.822C405.357 206 406.234 205.305 406.234 204.223C406.234 203.307 405.523 202.667 404.496 202.578C405.369 202.416 405.915 201.951 405.915 201.214C405.915 200.111 404.947 199.454 403.401 199.454H400.652V206ZM402.097 204.785V203.162H403.822C404.389 203.162 404.734 203.49 404.734 204.031C404.734 204.5 404.389 204.785 403.822 204.785H402.097ZM402.097 202.165V200.69H403.401C404.044 200.69 404.436 200.963 404.436 201.41C404.436 201.879 404.057 202.165 403.43 202.165H402.097Z" fill="#3C3A3E"/>
<path d="M410.405 206.128C411.931 206.128 412.979 205.382 413.252 204.244L411.811 204.082C411.603 204.636 411.091 204.926 410.427 204.926C409.429 204.926 408.769 204.27 408.756 203.149H413.316V202.676C413.316 200.379 411.935 199.369 410.324 199.369C408.449 199.369 407.226 200.745 407.226 202.765C407.226 204.819 408.432 206.128 410.405 206.128ZM408.76 202.109C408.807 201.274 409.425 200.571 410.346 200.571C411.232 200.571 411.829 201.218 411.837 202.109H408.76Z" fill="#3C3A3E"/>
<path d="M414.075 200.72H416.193V206H417.685V200.72H419.803V199.454H414.075V200.72Z" fill="#3C3A3E"/>
<path d="M422.518 201.585V199.454H421.031V206H424.005C425.672 206 426.63 205.079 426.635 203.792C426.63 202.471 425.672 201.585 424.005 201.585H422.518ZM427.449 206H428.991V199.454H427.449V206ZM422.518 202.851H424.005C424.674 202.851 425.156 203.247 425.156 203.814C425.156 204.355 424.674 204.734 424.005 204.734H422.518V202.851Z" fill="#3C3A3E"/>
<path d="M317.094 248.08H317.509C318.44 248.08 318.784 247.54 319.06 246.926L321.065 242.182H319.98L318.727 245.296L317.279 242.182H316.176L318.256 246.461L318.179 246.657C318.06 246.983 317.878 247.194 317.426 247.194H317.094V248.08Z" fill="#858585"/>
<path d="M322.862 248.086C323.958 248.086 324.657 247.435 324.731 246.509H323.748C323.66 246.978 323.322 247.248 322.87 247.248C322.228 247.248 321.813 246.711 321.813 245.819C321.813 244.938 322.237 244.409 322.87 244.409C323.364 244.409 323.668 244.728 323.748 245.148H324.731C324.66 244.202 323.921 243.58 322.856 243.58C321.578 243.58 320.771 244.503 320.771 245.836C320.771 247.157 321.558 248.086 322.862 248.086Z" fill="#858585"/>
<path d="M325.266 244.48H326.678V248H327.673V244.48H329.085V243.637H325.266V244.48Z" fill="#858585"/>
<path d="M330.98 248.088C331.664 248.088 332.073 247.767 332.261 247.401H332.295V248H333.284V245.08C333.284 243.926 332.343 243.58 331.511 243.58C330.593 243.58 329.889 243.989 329.661 244.784L330.622 244.921C330.724 244.623 331.014 244.367 331.516 244.367C331.994 244.367 332.255 244.611 332.255 245.04V245.057C332.255 245.353 331.945 245.367 331.176 245.449C330.329 245.54 329.519 245.793 329.519 246.776C329.519 247.634 330.147 248.088 330.98 248.088ZM331.247 247.333C330.818 247.333 330.511 247.137 330.511 246.759C330.511 246.364 330.855 246.199 331.315 246.134C331.585 246.097 332.124 246.029 332.258 245.921V246.435C332.258 246.921 331.866 247.333 331.247 247.333Z" fill="#858585"/>
<path d="M335.309 243.637H334.318V248H335.309V246.236H336.999V248H337.988V243.637H336.999V245.392H335.309V243.637Z" fill="#858585"/>
<path d="M340.932 248.086C342.21 248.086 343.023 247.185 343.023 245.836C343.023 244.483 342.21 243.58 340.932 243.58C339.654 243.58 338.841 244.483 338.841 245.836C338.841 247.185 339.654 248.086 340.932 248.086ZM340.938 247.262C340.23 247.262 339.884 246.631 339.884 245.833C339.884 245.034 340.23 244.395 340.938 244.395C341.634 244.395 341.98 245.034 341.98 245.833C341.98 246.631 341.634 247.262 340.938 247.262Z" fill="#858585"/>
<path d="M343.896 248H346.009C347.032 248 347.617 247.537 347.617 246.816C347.617 246.205 347.143 245.779 346.458 245.719C347.041 245.611 347.404 245.301 347.404 244.81C347.404 244.074 346.759 243.637 345.728 243.637H343.896V248ZM344.859 247.191V246.108H346.009C346.387 246.108 346.617 246.327 346.617 246.688C346.617 247 346.387 247.191 346.009 247.191H344.859ZM344.859 245.444V244.461H345.728C346.157 244.461 346.418 244.642 346.418 244.941C346.418 245.253 346.166 245.444 345.748 245.444H344.859Z" fill="#858585"/>
<path d="M349.458 246.608V243.637H348.466V248H349.526L351.267 245.026V248H352.261V243.637H351.205L349.458 246.608Z" fill="#858585"/>
<path d="M352.829 244.48H354.241V248H355.235V244.48H356.647V243.637H352.829V244.48Z" fill="#858585"/>
<path d="M359.218 248.086C360.235 248.086 360.934 247.588 361.116 246.83L360.156 246.722C360.016 247.091 359.676 247.284 359.232 247.284C358.568 247.284 358.127 246.847 358.119 246.1H361.159V245.784C361.159 244.253 360.238 243.58 359.164 243.58C357.914 243.58 357.099 244.498 357.099 245.844C357.099 247.213 357.903 248.086 359.218 248.086ZM358.122 245.407C358.153 244.85 358.565 244.381 359.178 244.381C359.769 244.381 360.167 244.813 360.173 245.407H358.122Z" fill="#858585"/>
<path d="M364.013 249.637H365.041V247.313H365.084C365.246 247.631 365.584 248.077 366.334 248.077C367.362 248.077 368.132 247.262 368.132 245.824C368.132 244.37 367.34 243.58 366.331 243.58C365.561 243.58 365.24 244.043 365.084 244.358H365.024V243.637H364.013V249.637ZM365.021 245.819C365.021 244.972 365.385 244.424 366.047 244.424C366.732 244.424 367.084 245.006 367.084 245.819C367.084 246.637 366.726 247.233 366.047 247.233C365.391 247.233 365.021 246.665 365.021 245.819Z" fill="#858585"/>
<path d="M370.945 248.086C371.962 248.086 372.661 247.588 372.842 246.83L371.882 246.722C371.743 247.091 371.402 247.284 370.959 247.284C370.294 247.284 369.854 246.847 369.845 246.1H372.885V245.784C372.885 244.253 371.965 243.58 370.891 243.58C369.641 243.58 368.825 244.498 368.825 245.844C368.825 247.213 369.629 248.086 370.945 248.086ZM369.848 245.407C369.879 244.85 370.291 244.381 370.905 244.381C371.496 244.381 371.894 244.813 371.899 245.407H369.848Z" fill="#858585"/>
<path d="M375.011 248.088C375.695 248.088 376.105 247.767 376.292 247.401H376.326V248H377.315V245.08C377.315 243.926 376.374 243.58 375.542 243.58C374.624 243.58 373.92 243.989 373.693 244.784L374.653 244.921C374.755 244.623 375.045 244.367 375.548 244.367C376.025 244.367 376.286 244.611 376.286 245.04V245.057C376.286 245.353 375.977 245.367 375.207 245.449C374.36 245.54 373.551 245.793 373.551 246.776C373.551 247.634 374.178 248.088 375.011 248.088ZM375.278 247.333C374.849 247.333 374.542 247.137 374.542 246.759C374.542 246.364 374.886 246.199 375.346 246.134C375.616 246.097 376.156 246.029 376.289 245.921V246.435C376.289 246.921 375.897 247.333 375.278 247.333Z" fill="#858585"/>
<path d="M378.349 248H379.377V246.355H379.88L381.076 248H382.32L380.687 245.779L382.303 243.637H381.065L379.752 245.398H379.377V243.637H378.349V248Z" fill="#858585"/>
<path d="M386.588 243.637H385.605V247.157H383.895V243.637H382.904V248H386.25V249.404H387.256V247.233H386.588V243.637Z" fill="#858585"/>
<path d="M389.09 246.608V243.637H388.099V248H389.159L390.9 245.026V248H391.894V243.637H390.837L389.09 246.608Z" fill="#858585"/>
<path d="M393.72 243.637H392.689V248H393.72V246.27H394.544C394.703 247.361 395.456 248.086 396.573 248.086C397.831 248.086 398.629 247.162 398.632 245.827C398.629 244.492 397.831 243.58 396.573 243.58C395.442 243.58 394.683 244.313 394.538 245.424H393.72V243.637ZM396.573 247.233C395.823 247.233 395.502 246.62 395.502 245.827C395.502 245.034 395.823 244.424 396.573 244.424C397.32 244.424 397.638 245.04 397.638 245.827C397.638 246.617 397.32 247.233 396.573 247.233Z" fill="#858585"/>
<path d="M402.52 243.637H401.529V248H402.52V246.236H404.21V248H405.199V243.637H404.21V245.392H402.52V243.637Z" fill="#858585"/>
<path d="M407.495 248.088C408.18 248.088 408.589 247.767 408.776 247.401H408.811V248H409.799V245.08C409.799 243.926 408.859 243.58 408.026 243.58C407.109 243.58 406.404 243.989 406.177 244.784L407.137 244.921C407.239 244.623 407.529 244.367 408.032 244.367C408.509 244.367 408.771 244.611 408.771 245.04V245.057C408.771 245.353 408.461 245.367 407.691 245.449C406.845 245.54 406.035 245.793 406.035 246.776C406.035 247.634 406.663 248.088 407.495 248.088ZM407.762 247.333C407.333 247.333 407.026 247.137 407.026 246.759C407.026 246.364 407.37 246.199 407.83 246.134C408.1 246.097 408.64 246.029 408.774 245.921V246.435C408.774 246.921 408.382 247.333 407.762 247.333Z" fill="#858585"/>
<path d="M412.431 249.267H413.443V248H416.298V249.267H417.292V247.154H416.616V243.637H413.462L413.337 245.165C413.255 246.142 413.147 246.867 412.778 247.154H412.431V249.267ZM413.835 247.154C414.11 246.748 414.212 246.088 414.286 245.165L414.355 244.466H415.633V247.154H413.835Z" fill="#858585"/>
<path d="M419.992 248.086C421.009 248.086 421.708 247.588 421.889 246.83L420.929 246.722C420.79 247.091 420.449 247.284 420.006 247.284C419.341 247.284 418.901 246.847 418.892 246.1H421.932V245.784C421.932 244.253 421.011 243.58 419.938 243.58C418.688 243.58 417.872 244.498 417.872 245.844C417.872 247.213 418.676 248.086 419.992 248.086ZM418.895 245.407C418.926 244.85 419.338 244.381 419.952 244.381C420.543 244.381 420.94 244.813 420.946 245.407H418.895Z" fill="#858585"/>
<path d="M423.793 246.608V243.637H422.802V248H423.862L425.603 245.026V248H426.597V243.637H425.541L423.793 246.608ZM425.259 242.137C425.257 242.415 425.097 242.662 424.697 242.662C424.291 242.662 424.137 242.409 424.137 242.137H423.373C423.37 242.801 423.884 243.25 424.697 243.25C425.515 243.25 426.029 242.801 426.029 242.137H425.259Z" fill="#858585"/>
<path d="M429.557 248.086C430.654 248.086 431.352 247.435 431.426 246.509H430.443C430.355 246.978 430.017 247.248 429.565 247.248C428.923 247.248 428.509 246.711 428.509 245.819C428.509 244.938 428.932 244.409 429.565 244.409C430.06 244.409 430.364 244.728 430.443 245.148H431.426C431.355 244.202 430.617 243.58 429.551 243.58C428.273 243.58 427.466 244.503 427.466 245.836C427.466 247.157 428.253 248.086 429.557 248.086Z" fill="#858585"/>
<path d="M431.962 244.48H433.374V248H434.368V244.48H435.78V243.637H431.962V244.48Z" fill="#858585"/>
<path d="M436.599 248H438.712C439.735 248 440.32 247.537 440.32 246.816C440.32 246.205 439.846 245.779 439.161 245.719C439.744 245.611 440.107 245.301 440.107 244.81C440.107 244.074 439.462 243.637 438.431 243.637H436.599V248ZM437.562 247.191V246.108H438.712C439.09 246.108 439.32 246.327 439.32 246.688C439.32 247 439.09 247.191 438.712 247.191H437.562ZM437.562 245.444V244.461H438.431C438.86 244.461 439.122 244.642 439.122 244.941C439.122 245.253 438.869 245.444 438.451 245.444H437.562Z" fill="#858585"/>
<path d="M442.161 246.608V243.637H441.169V248H442.229L443.97 245.026V248H444.965V243.637H443.908L442.161 246.608Z" fill="#858585"/>
<path d="M447.953 248.086C448.97 248.086 449.668 247.588 449.85 246.83L448.89 246.722C448.751 247.091 448.41 247.284 447.967 247.284C447.302 247.284 446.862 246.847 446.853 246.1H449.893V245.784C449.893 244.253 448.972 243.58 447.899 243.58C446.649 243.58 445.833 244.498 445.833 245.844C445.833 247.213 446.637 248.086 447.953 248.086ZM446.856 245.407C446.887 244.85 447.299 244.381 447.913 244.381C448.504 244.381 448.901 244.813 448.907 245.407H446.856Z" fill="#858585"/>
<path d="M452.747 248H453.776V246.355H454.279L455.475 248H456.719L455.085 245.779L456.702 243.637H455.463L454.151 245.398H453.776V243.637H452.747V248Z" fill="#858585"/>
<path d="M457.001 248H457.319C458.257 248 458.68 247.341 458.748 245.887L458.816 244.48H460.069V248H461.063V243.637H457.882L457.805 245.569C457.757 246.793 457.597 247.154 457.146 247.154H456.995L457.001 248Z" fill="#858585"/>
<path d="M463.09 246.608V243.637H462.099V248H463.159L464.9 245.026V248H465.894V243.637H464.837L463.09 246.608Z" fill="#858585"/>
<path d="M468.882 248.086C469.899 248.086 470.598 247.588 470.78 246.83L469.82 246.722C469.681 247.091 469.34 247.284 468.896 247.284C468.232 247.284 467.791 246.847 467.783 246.1H470.823V245.784C470.823 244.253 469.902 243.58 468.828 243.58C467.578 243.58 466.763 244.498 466.763 245.844C466.763 247.213 467.567 248.086 468.882 248.086ZM467.786 245.407C467.817 244.85 468.229 244.381 468.842 244.381C469.433 244.381 469.831 244.813 469.837 245.407H467.786Z" fill="#858585"/>
<path d="M472.684 243.637H471.693V248H472.684V246.236H474.374V248H475.363V243.637H474.374V245.392H472.684V243.637Z" fill="#858585"/>
<path d="M475.915 244.48H477.327V248H478.321V244.48H479.733V243.637H475.915V244.48Z" fill="#858585"/>
<path d="M482.276 248.086C483.554 248.086 484.367 247.185 484.367 245.836C484.367 244.483 483.554 243.58 482.276 243.58C480.997 243.58 480.185 244.483 480.185 245.836C480.185 247.185 480.997 248.086 482.276 248.086ZM482.281 247.262C481.574 247.262 481.227 246.631 481.227 245.833C481.227 245.034 481.574 244.395 482.281 244.395C482.977 244.395 483.324 245.034 483.324 245.833C483.324 246.631 482.977 247.262 482.281 247.262Z" fill="#858585"/>
<path d="M485.239 248H487.353C488.376 248 488.961 247.537 488.961 246.816C488.961 246.205 488.487 245.779 487.802 245.719C488.384 245.611 488.748 245.301 488.748 244.81C488.748 244.074 488.103 243.637 487.072 243.637H485.239V248ZM486.203 247.191V246.108H487.353C487.731 246.108 487.961 246.327 487.961 246.688C487.961 247 487.731 247.191 487.353 247.191H486.203ZM486.203 245.444V244.461H487.072C487.501 244.461 487.762 244.642 487.762 244.941C487.762 245.253 487.509 245.444 487.092 245.444H486.203Z" fill="#858585"/>
<path d="M490.443 248.063C490.779 248.063 491.065 247.784 491.068 247.438C491.065 247.097 490.779 246.819 490.443 246.819C490.097 246.819 489.815 247.097 489.818 247.438C489.815 247.784 490.097 248.063 490.443 248.063ZM490.443 244.946C490.779 244.946 491.065 244.668 491.068 244.321C491.065 243.98 490.779 243.702 490.443 243.702C490.097 243.702 489.815 243.98 489.818 244.321C489.815 244.668 490.097 244.946 490.443 244.946Z" fill="#858585"/>
<path fill-rule="evenodd" clip-rule="evenodd" d="M318 219C316.895 219 316 219.895 316 221C316 222.105 316.895 223 318 223H456C457.105 223 458 222.105 458 221C458 219.895 457.105 219 456 219H318ZM480 219C478.895 219 478 219.895 478 221C478 222.105 478.895 223 480 223H557C558.105 223 559 222.105 559 221C559 219.895 558.105 219 557 219H480ZM316 263C316 261.895 316.895 261 318 261H411C412.105 261 413 261.895 413 263C413 264.105 412.105 265 411 265H318C316.895 265 316 264.105 316 263ZM425 261C423.895 261 423 261.895 423 263C423 264.105 423.895 265 425 265H557C558.105 265 559 264.105 559 263C559 261.895 558.105 261 557 261H425ZM316 273C316 271.895 316.895 271 318 271H385C386.105 271 387 271.895 387 273C387 274.105 386.105 275 385 275H318C316.895 275 316 274.105 316 273ZM425 271C423.895 271 423 271.895 423 273C423 274.105 423.895 275 425 275H509C510.105 275 511 274.105 511 273C511 271.895 510.105 271 509 271H425Z" fill="#E6E6E6"/>
<rect x="316" y="291" width="90" height="27" rx="3" fill="#F4774C"/>
<path d="M424.807 306H425.685V303.955H426.878C428.228 303.955 428.895 303.139 428.895 302.065C428.895 300.994 428.233 300.182 426.881 300.182H424.807V306ZM425.685 303.21V300.935H426.787C427.657 300.935 428.012 301.406 428.012 302.065C428.012 302.725 427.657 303.21 426.799 303.21H425.685Z" fill="#858585"/>
<path d="M431.682 306.088C432.634 306.088 433.307 305.619 433.5 304.909L432.696 304.764C432.543 305.176 432.174 305.386 431.691 305.386C430.963 305.386 430.475 304.915 430.452 304.074H433.554V303.773C433.554 302.196 432.611 301.58 431.622 301.58C430.407 301.58 429.605 302.506 429.605 303.847C429.605 305.202 430.395 306.088 431.682 306.088ZM430.455 303.438C430.489 302.818 430.938 302.281 431.628 302.281C432.287 302.281 432.719 302.77 432.722 303.438H430.455Z" fill="#858585"/>
<path d="M434.071 307.259H434.912V306H437.954V307.259H438.784V305.264H438.113V301.636H435.147L435.011 303.264C434.92 304.364 434.787 304.938 434.426 305.264H434.071V307.259ZM435.335 305.264C435.625 304.858 435.733 304.182 435.818 303.264L435.909 302.364H437.284V305.264H435.335Z" fill="#858585"/>
<path d="M440.884 306.097C441.605 306.097 442.012 305.73 442.174 305.403H442.208V306H443.037V303.102C443.037 301.832 442.037 301.58 441.344 301.58C440.554 301.58 439.827 301.898 439.543 302.693L440.341 302.875C440.466 302.565 440.784 302.267 441.355 302.267C441.904 302.267 442.185 302.554 442.185 303.048V303.068C442.185 303.378 441.867 303.372 441.083 303.463C440.256 303.56 439.409 303.776 439.409 304.767C439.409 305.625 440.054 306.097 440.884 306.097ZM441.068 305.415C440.588 305.415 440.242 305.199 440.242 304.778C440.242 304.324 440.645 304.162 441.137 304.097C441.412 304.06 442.066 303.986 442.188 303.864V304.426C442.188 304.943 441.776 305.415 441.068 305.415Z" fill="#858585"/>
<path d="M444.169 306H445.018V304.256H445.569L446.885 306H447.939L446.228 303.759L447.919 301.636H446.867L445.427 303.466H445.018V301.636H444.169V306Z" fill="#858585"/>
<path d="M448.354 302.369H449.783V306H450.613V302.369H452.036V301.636H448.354V302.369Z" fill="#858585"/>
<path d="M453.767 304.81V301.636H452.934V306H453.858L455.772 302.824V306H456.605V301.636H455.69L453.767 304.81Z" fill="#858585"/>
<path d="M457.747 307.636H458.596V305.321H458.647C458.801 305.6 459.113 306.085 459.909 306.085C460.966 306.085 461.733 305.239 461.733 303.827C461.733 302.412 460.954 301.58 459.9 301.58C459.091 301.58 458.798 302.074 458.647 302.344H458.576V301.636H457.747V307.636ZM458.579 303.818C458.579 302.906 458.977 302.301 459.718 302.301C460.488 302.301 460.875 302.952 460.875 303.818C460.875 304.693 460.477 305.361 459.718 305.361C458.988 305.361 458.579 304.736 458.579 303.818Z" fill="#858585"/>
<path d="M464.522 306.088C465.752 306.088 466.556 305.188 466.556 303.838C466.556 302.48 465.752 301.58 464.522 301.58C463.292 301.58 462.488 302.48 462.488 303.838C462.488 305.188 463.292 306.088 464.522 306.088ZM464.525 305.375C463.721 305.375 463.346 304.673 463.346 303.835C463.346 303 463.721 302.29 464.525 302.29C465.323 302.29 465.698 303 465.698 303.835C465.698 304.673 465.323 305.375 464.525 305.375Z" fill="#858585"/>
<path d="M467.505 306H469.59C470.544 306 471.104 305.517 471.104 304.824C471.104 304.176 470.607 303.778 470.024 303.71C470.561 303.608 470.917 303.313 470.917 302.801C470.917 302.085 470.297 301.636 469.314 301.636H467.505V306ZM468.303 305.29V304.077H469.59C470.01 304.077 470.263 304.324 470.263 304.73C470.263 305.077 470.01 305.29 469.59 305.29H468.303ZM468.303 303.455V302.355H469.314C469.797 302.355 470.09 302.557 470.09 302.892C470.09 303.242 469.8 303.455 469.323 303.455H468.303Z" fill="#858585"/>
<path d="M473.306 306.097C474.027 306.097 474.434 305.73 474.595 305.403H474.63V306H475.459V303.102C475.459 301.832 474.459 301.58 473.766 301.58C472.976 301.58 472.249 301.898 471.965 302.693L472.763 302.875C472.888 302.565 473.206 302.267 473.777 302.267C474.326 302.267 474.607 302.554 474.607 303.048V303.068C474.607 303.378 474.289 303.372 473.505 303.463C472.678 303.56 471.831 303.776 471.831 304.767C471.831 305.625 472.476 306.097 473.306 306.097ZM473.49 305.415C473.01 305.415 472.664 305.199 472.664 304.778C472.664 304.324 473.067 304.162 473.559 304.097C473.834 304.06 474.488 303.986 474.61 303.864V304.426C474.61 304.943 474.198 305.415 473.49 305.415Z" fill="#858585"/>
<path d="M476.049 302.369H477.478V306H478.308V302.369H479.731V301.636H476.049V302.369Z" fill="#858585"/>
<path d="M481.462 303.136V301.636H480.63V306H482.536C483.604 306 484.201 305.381 484.201 304.56C484.201 303.722 483.604 303.136 482.536 303.136H481.462ZM481.462 303.869H482.536C483.024 303.869 483.374 304.165 483.374 304.585C483.374 304.983 483.024 305.267 482.536 305.267H481.462V303.869Z" fill="#858585"/>
<path d="M489.108 306.088C490.14 306.088 490.807 305.469 490.901 304.619H490.074C489.966 305.091 489.6 305.369 489.114 305.369C488.395 305.369 487.932 304.77 487.932 303.818C487.932 302.884 488.404 302.296 489.114 302.296C489.654 302.296 489.983 302.636 490.074 303.046H490.901C490.81 302.165 490.091 301.58 489.1 301.58C487.87 301.58 487.074 302.506 487.074 303.838C487.074 305.153 487.841 306.088 489.108 306.088Z" fill="#858585"/>
<path d="M495.366 301.636H494.539V305.267H492.639V301.636H491.806V306H495.17V307.406H496.011V305.304H495.366V301.636Z" fill="#858585"/>
<path d="M498.784 306.088C499.735 306.088 500.409 305.619 500.602 304.909L499.798 304.764C499.644 305.176 499.275 305.386 498.792 305.386C498.065 305.386 497.576 304.915 497.554 304.074H500.656V303.773C500.656 302.196 499.713 301.58 498.724 301.58C497.508 301.58 496.707 302.506 496.707 303.847C496.707 305.202 497.497 306.088 498.784 306.088ZM497.556 303.438C497.591 302.818 498.039 302.281 498.73 302.281C499.389 302.281 499.821 302.77 499.823 303.438H497.556Z" fill="#858585"/>
<path d="M502.431 301.636H501.598V306H502.431V304.188H504.32V306H505.149V301.636H504.32V303.452H502.431V301.636Z" fill="#858585"/>
<path d="M507.556 306.097C508.277 306.097 508.684 305.73 508.845 305.403H508.88V306H509.709V303.102C509.709 301.832 508.709 301.58 508.016 301.58C507.226 301.58 506.499 301.898 506.215 302.693L507.013 302.875C507.138 302.565 507.456 302.267 508.027 302.267C508.576 302.267 508.857 302.554 508.857 303.048V303.068C508.857 303.378 508.539 303.372 507.755 303.463C506.928 303.56 506.081 303.776 506.081 304.767C506.081 305.625 506.726 306.097 507.556 306.097ZM507.74 305.415C507.26 305.415 506.914 305.199 506.914 304.778C506.914 304.324 507.317 304.162 507.809 304.097C508.084 304.06 508.738 303.986 508.86 303.864V304.426C508.86 304.943 508.448 305.415 507.74 305.415Z" fill="#858585"/>
<path d="M510.841 307.636H511.69V305.321H511.741C511.894 305.6 512.207 306.085 513.002 306.085C514.059 306.085 514.826 305.239 514.826 303.827C514.826 302.412 514.048 301.58 512.994 301.58C512.184 301.58 511.892 302.074 511.741 302.344H511.67V301.636H510.841V307.636ZM511.673 303.818C511.673 302.906 512.071 302.301 512.812 302.301C513.582 302.301 513.968 302.952 513.968 303.818C513.968 304.693 513.571 305.361 512.812 305.361C512.082 305.361 511.673 304.736 511.673 303.818Z" fill="#858585"/>
<path d="M516.61 304.81V301.636H515.778V306H516.701L518.616 302.824V306H519.448V301.636H518.534L516.61 304.81Z" fill="#858585"/>
<path d="M521.423 304.81V301.636H520.591V306H521.514L523.429 302.824V306H524.261V301.636H523.346L521.423 304.81ZM522.983 300.159C522.983 300.446 522.823 300.699 522.426 300.699C522.022 300.699 521.872 300.443 521.872 300.159H521.176C521.176 300.798 521.662 301.239 522.426 301.239C523.196 301.239 523.681 300.798 523.681 300.159H522.983Z" fill="#858585"/>
<path d="M336.409 299.074C336.21 297.83 335.236 297.103 334.006 297.103C332.5 297.103 331.389 298.23 331.389 300.091C331.389 301.952 332.494 303.08 334.006 303.08C335.284 303.08 336.219 302.279 336.409 301.128L335.523 301.125C335.372 301.87 334.747 302.279 334.011 302.279C333.014 302.279 332.261 301.514 332.261 300.091C332.261 298.679 333.011 297.904 334.014 297.904C334.756 297.904 335.378 298.321 335.523 299.074H336.409Z" fill="white"/>
<path d="M339.229 303.088C340.459 303.088 341.263 302.188 341.263 300.838C341.263 299.48 340.459 298.58 339.229 298.58C337.999 298.58 337.195 299.48 337.195 300.838C337.195 302.188 337.999 303.088 339.229 303.088ZM339.232 302.375C338.428 302.375 338.053 301.674 338.053 300.835C338.053 300 338.428 299.29 339.232 299.29C340.03 299.29 340.405 300 340.405 300.835C340.405 301.674 340.03 302.375 339.232 302.375Z" fill="white"/>
<path d="M341.953 301.847C341.979 302.608 342.692 303.088 343.66 303.088C344.655 303.088 345.374 302.588 345.374 301.787C345.374 301.219 345.013 300.799 344.507 300.764V300.719C344.964 300.588 345.28 300.282 345.28 299.801C345.28 299.085 344.666 298.58 343.695 298.58C342.763 298.58 342.078 299.077 342.061 299.81H342.919C342.936 299.483 343.274 299.256 343.737 299.256C344.195 299.256 344.462 299.495 344.462 299.85C344.462 300.182 344.223 300.426 343.743 300.426H343.033V301.094H343.743C344.226 301.094 344.535 301.361 344.535 301.756C344.535 302.202 344.141 302.404 343.652 302.404C343.172 302.404 342.848 302.205 342.822 301.847H341.953Z" fill="white"/>
<path d="M345.825 304.259H346.665V303H349.708V304.259H350.538V302.264H349.867V298.637H346.901L346.765 300.264C346.674 301.364 346.54 301.938 346.18 302.264H345.825V304.259ZM347.089 302.264C347.379 301.858 347.486 301.182 347.572 300.264L347.663 299.364H349.038V302.264H347.089Z" fill="white"/>
<path d="M352.638 303.097C353.359 303.097 353.766 302.73 353.928 302.404H353.962V303H354.791V300.103C354.791 298.833 353.791 298.58 353.098 298.58C352.308 298.58 351.581 298.898 351.297 299.693L352.095 299.875C352.22 299.566 352.538 299.267 353.109 299.267C353.658 299.267 353.939 299.554 353.939 300.049V300.068C353.939 300.378 353.621 300.372 352.837 300.463C352.01 300.56 351.163 300.776 351.163 301.767C351.163 302.625 351.808 303.097 352.638 303.097ZM352.822 302.415C352.342 302.415 351.996 302.199 351.996 301.779C351.996 301.324 352.399 301.162 352.891 301.097C353.166 301.06 353.82 300.986 353.942 300.864V301.426C353.942 301.943 353.53 302.415 352.822 302.415Z" fill="white"/>
<path d="M355.381 299.37H356.81V303H357.64V299.37H359.063V298.637H355.381V299.37Z" fill="white"/>
<path d="M360.794 300.137V298.637H359.962V303H361.868C362.936 303 363.533 302.381 363.533 301.56C363.533 300.722 362.936 300.137 361.868 300.137H360.794ZM360.794 300.87H361.868C362.356 300.87 362.706 301.165 362.706 301.585C362.706 301.983 362.356 302.267 361.868 302.267H360.794V300.87Z" fill="white"/>
<path d="M367.435 298.637H366.602V303H367.435V301.188H369.324V303H370.153V298.637H369.324V300.452H367.435V298.637Z" fill="white"/>
<path d="M373.128 303.088C374.358 303.088 375.162 302.188 375.162 300.838C375.162 299.48 374.358 298.58 373.128 298.58C371.898 298.58 371.094 299.48 371.094 300.838C371.094 302.188 371.898 303.088 373.128 303.088ZM373.131 302.375C372.327 302.375 371.952 301.674 371.952 300.835C371.952 300 372.327 299.29 373.131 299.29C373.929 299.29 374.304 300 374.304 300.835C374.304 301.674 373.929 302.375 373.131 302.375Z" fill="white"/>
<path d="M376.11 303H378.195C379.15 303 379.709 302.517 379.709 301.824C379.709 301.176 379.212 300.779 378.63 300.71C379.167 300.608 379.522 300.313 379.522 299.801C379.522 299.085 378.903 298.637 377.92 298.637H376.11V303ZM376.908 302.29V301.077H378.195C378.616 301.077 378.869 301.324 378.869 301.73C378.869 302.077 378.616 302.29 378.195 302.29H376.908ZM376.908 300.455V299.355H377.92C378.403 299.355 378.695 299.557 378.695 299.892C378.695 300.242 378.405 300.455 377.928 300.455H376.908Z" fill="white"/>
<path d="M381.474 300.137V298.637H380.641V303H382.548C383.616 303 384.212 302.381 384.212 301.56C384.212 300.722 383.616 300.137 382.548 300.137H381.474ZM384.832 303H385.681V298.637H384.832V303ZM381.474 300.87H382.548C383.036 300.87 383.386 301.165 383.386 301.585C383.386 301.983 383.036 302.267 382.548 302.267H381.474V300.87Z" fill="white"/>
<path d="M387.653 301.81V298.637H386.821V303H387.744L389.659 299.824V303H390.491V298.637H389.577L387.653 301.81ZM389.213 297.159C389.213 297.446 389.054 297.699 388.656 297.699C388.253 297.699 388.102 297.443 388.102 297.159H387.406C387.406 297.799 387.892 298.239 388.656 298.239C389.426 298.239 389.912 297.799 389.912 297.159H389.213Z" fill="white"/>
<path d="M344.343 312.088C345.374 312.088 346.042 311.469 346.135 310.62H345.309C345.201 311.091 344.834 311.37 344.348 311.37C343.63 311.37 343.167 310.77 343.167 309.818C343.167 308.884 343.638 308.296 344.348 308.296C344.888 308.296 345.218 308.637 345.309 309.046H346.135C346.044 308.165 345.326 307.58 344.334 307.58C343.104 307.58 342.309 308.506 342.309 309.838C342.309 311.154 343.076 312.088 344.343 312.088Z" fill="white"/>
<path d="M350.6 307.637H349.774V311.267H347.873V307.637H347.041V312H350.404V313.407H351.245V311.304H350.6V307.637Z" fill="white"/>
<path d="M354.018 312.088C354.97 312.088 355.643 311.62 355.836 310.909L355.032 310.764C354.879 311.176 354.51 311.387 354.027 311.387C353.299 311.387 352.811 310.915 352.788 310.074H355.89V309.773C355.89 308.196 354.947 307.58 353.958 307.58C352.742 307.58 351.941 308.506 351.941 309.847C351.941 311.202 352.731 312.088 354.018 312.088ZM352.791 309.438C352.825 308.818 353.274 308.282 353.964 308.282C354.623 308.282 355.055 308.77 355.058 309.438H352.791Z" fill="white"/>
<path d="M357.665 307.637H356.833V312H357.665V310.188H359.554V312H360.384V307.637H359.554V309.452H357.665V307.637Z" fill="white"/>
<path d="M362.79 312.097C363.512 312.097 363.918 311.73 364.08 311.404H364.114V312H364.943V309.103C364.943 307.833 363.943 307.58 363.25 307.58C362.461 307.58 361.733 307.898 361.449 308.693L362.247 308.875C362.372 308.566 362.691 308.267 363.262 308.267C363.81 308.267 364.091 308.554 364.091 309.049V309.068C364.091 309.378 363.773 309.372 362.989 309.463C362.162 309.56 361.316 309.776 361.316 310.767C361.316 311.625 361.961 312.097 362.79 312.097ZM362.975 311.415C362.495 311.415 362.148 311.199 362.148 310.779C362.148 310.324 362.551 310.162 363.043 310.097C363.318 310.06 363.972 309.986 364.094 309.864V310.426C364.094 310.943 363.682 311.415 362.975 311.415Z" fill="white"/>
<path d="M366.075 313.637H366.924V311.321H366.975C367.129 311.6 367.441 312.085 368.237 312.085C369.294 312.085 370.061 311.239 370.061 309.827C370.061 308.412 369.282 307.58 368.228 307.58C367.419 307.58 367.126 308.074 366.975 308.344H366.904V307.637H366.075V313.637ZM366.907 309.818C366.907 308.907 367.305 308.301 368.046 308.301C368.816 308.301 369.203 308.952 369.203 309.818C369.203 310.693 368.805 311.361 368.046 311.361C367.316 311.361 366.907 310.736 366.907 309.818Z" fill="white"/>
<path d="M371.845 310.81V307.637H371.012V312H371.936L373.85 308.824V312H374.683V307.637H373.768L371.845 310.81Z" fill="white"/>
<path d="M376.657 310.81V307.637H375.825V312H376.748L378.663 308.824V312H379.495V307.637H378.581L376.657 310.81ZM378.217 306.159C378.217 306.446 378.058 306.699 377.66 306.699C377.257 306.699 377.106 306.443 377.106 306.159H376.41C376.41 306.799 376.896 307.239 377.66 307.239C378.43 307.239 378.916 306.799 378.916 306.159H378.217Z" fill="white"/>
<g filter="url(#filter2_d_1059_7198)">
<rect x="293" y="22" width="289" height="135" rx="9" fill="white"/>
</g>
<path d="M316.861 51.9996H318.442V48.2922H322.486V51.9996H324.071V43.2723H322.486V46.9669H318.442V43.2723H316.861V51.9996Z" fill="#3C3A3E"/>
<path d="M327.606 52.1317C328.633 52.1317 329.246 51.6501 329.528 51.1004H329.579V51.9996H331.062V47.6189C331.062 45.8888 329.651 45.3689 328.403 45.3689C327.026 45.3689 325.97 45.9825 325.629 47.1757L327.069 47.3802C327.222 46.9328 327.657 46.5493 328.411 46.5493C329.127 46.5493 329.519 46.9157 329.519 47.5592V47.5848C329.519 48.028 329.055 48.0493 327.9 48.1729C326.63 48.3092 325.416 48.6885 325.416 50.1629C325.416 51.4498 326.357 52.1317 327.606 52.1317ZM328.006 50.9981C327.363 50.9981 326.903 50.7041 326.903 50.1373C326.903 49.545 327.418 49.2979 328.109 49.1998C328.514 49.1444 329.323 49.0422 329.523 48.8802V49.6515C329.523 50.3802 328.935 50.9981 328.006 50.9981Z" fill="#3C3A3E"/>
<path d="M335.468 52.1274C337.113 52.1274 338.161 51.1515 338.272 49.7623H336.798C336.666 50.4655 336.158 50.8703 335.481 50.8703C334.518 50.8703 333.896 50.0649 333.896 48.7268C333.896 47.4058 334.531 46.6132 335.481 46.6132C336.222 46.6132 336.678 47.0905 336.798 47.7211H338.272C338.166 46.3021 337.058 45.3689 335.46 45.3689C333.542 45.3689 332.332 46.7538 332.332 48.7524C332.332 50.7339 333.512 52.1274 335.468 52.1274Z" fill="#3C3A3E"/>
<path d="M339.075 46.7197H341.193V51.9996H342.685V46.7197H344.803V45.4541H339.075V46.7197Z" fill="#3C3A3E"/>
<path d="M346.031 54.4541H347.574V50.9683H347.637C347.88 51.4456 348.387 52.1146 349.512 52.1146C351.055 52.1146 352.21 50.8916 352.21 48.7354C352.21 46.5535 351.021 45.3689 349.508 45.3689C348.353 45.3689 347.872 46.0635 347.637 46.5365H347.548V45.4541H346.031V54.4541ZM347.544 48.7268C347.544 47.4569 348.089 46.6345 349.082 46.6345C350.109 46.6345 350.637 47.5081 350.637 48.7268C350.637 49.9541 350.101 50.849 349.082 50.849C348.098 50.849 347.544 49.9967 347.544 48.7268Z" fill="#3C3A3E"/>
<path d="M356.386 52.1274C358.304 52.1274 359.522 50.7765 359.522 48.7524C359.522 46.724 358.304 45.3689 356.386 45.3689C354.468 45.3689 353.25 46.724 353.25 48.7524C353.25 50.7765 354.468 52.1274 356.386 52.1274ZM356.395 50.8916C355.333 50.8916 354.814 49.9456 354.814 48.7481C354.814 47.5507 355.333 46.5919 356.395 46.5919C357.439 46.5919 357.958 47.5507 357.958 48.7481C357.958 49.9456 357.439 50.8916 356.395 50.8916Z" fill="#3C3A3E"/>
<path d="M362.319 49.9115V45.4541H360.832V51.9996H362.421L365.033 47.5379V51.9996H366.525V45.4541H364.94L362.319 49.9115ZM364.518 43.2041C364.514 43.6217 364.275 43.9925 363.674 43.9925C363.065 43.9925 362.835 43.6132 362.835 43.2041H361.688C361.684 44.2013 362.455 44.8746 363.674 44.8746C364.901 44.8746 365.673 44.2013 365.673 43.2041H364.518Z" fill="#3C3A3E"/>
<path d="M368.109 51.9996H369.652V49.5322H370.406L372.2 51.9996H374.066L371.616 48.6672L374.041 45.4541H372.183L370.214 48.0961H369.652V45.4541H368.109V51.9996Z" fill="#3C3A3E"/>
<path d="M376.428 49.9115V45.4541H374.941V51.9996H376.531L379.143 47.5379V51.9996H380.634V45.4541H379.049L376.428 49.9115Z" fill="#3C3A3E"/>
<path d="M385.195 51.9996H386.738V49.5322H387.492L389.286 51.9996H391.152L388.702 48.6672L391.127 45.4541H389.269L387.3 48.0961H386.738V45.4541H385.195V51.9996Z" fill="#3C3A3E"/>
<path d="M393.911 52.1317C394.938 52.1317 395.551 51.6501 395.832 51.1004H395.884V51.9996H397.367V47.6189C397.367 45.8888 395.956 45.3689 394.707 45.3689C393.331 45.3689 392.274 45.9825 391.933 47.1757L393.374 47.3802C393.527 46.9328 393.962 46.5493 394.716 46.5493C395.432 46.5493 395.824 46.9157 395.824 47.5592V47.5848C395.824 48.028 395.359 48.0493 394.205 48.1729C392.935 48.3092 391.72 48.6885 391.72 50.1629C391.72 51.4498 392.662 52.1317 393.911 52.1317ZM394.311 50.9981C393.668 50.9981 393.207 50.7041 393.207 50.1373C393.207 49.545 393.723 49.2979 394.413 49.1998C394.818 49.1444 395.628 49.0422 395.828 48.8802V49.6515C395.828 50.3802 395.24 50.9981 394.311 50.9981Z" fill="#3C3A3E"/>
<path d="M402.685 50.2055L400.793 45.4541H398.918V51.9996H400.405V47.589L402.148 51.9996H403.226L405.028 47.5422V51.9996H406.503V45.4541H404.628L402.685 50.2055Z" fill="#3C3A3E"/>
<path d="M408.058 51.9996H409.533V46.7197H412.098V51.9996H413.585V45.4541H408.058V51.9996Z" fill="#3C3A3E"/>
<path d="M417.055 52.1317C418.082 52.1317 418.696 51.6501 418.977 51.1004H419.028V51.9996H420.511V47.6189C420.511 45.8888 419.101 45.3689 417.852 45.3689C416.476 45.3689 415.419 45.9825 415.078 47.1757L416.518 47.3802C416.672 46.9328 417.106 46.5493 417.86 46.5493C418.576 46.5493 418.968 46.9157 418.968 47.5592V47.5848C418.968 48.028 418.504 48.0493 417.349 48.1729C416.079 48.3092 414.865 48.6885 414.865 50.1629C414.865 51.4498 415.807 52.1317 417.055 52.1317ZM417.456 50.9981C416.812 50.9981 416.352 50.7041 416.352 50.1373C416.352 49.545 416.868 49.2979 417.558 49.1998C417.963 49.1444 418.772 49.0422 418.973 48.8802V49.6515C418.973 50.3802 418.385 50.9981 417.456 50.9981Z" fill="#3C3A3E"/>
<path d="M423.549 45.4541H422.062V51.9996H423.549V49.3532H426.085V51.9996H427.568V45.4541H426.085V48.0876H423.549V45.4541Z" fill="#3C3A3E"/>
<path d="M430.616 49.9115V45.4541H429.129V51.9996H430.718L433.33 47.5379V51.9996H434.822V45.4541H433.237L430.616 49.9115Z" fill="#3C3A3E"/>
<path d="M437.893 49.9115V45.4541H436.406V51.9996H437.995L440.608 47.5379V51.9996H442.099V45.4541H440.514L437.893 49.9115Z" fill="#3C3A3E"/>
<path d="M319.119 90.1836C317.592 90.1836 316.479 91.2383 316.479 92.8363C316.479 94.4055 317.579 95.4315 319.119 95.4315H319.212V96.2688H320.353V95.4315H320.443C321.977 95.4315 323.076 94.3928 323.076 92.8331C323.076 91.2383 321.977 90.1836 320.443 90.1836H320.353V89.3398H319.212V90.1836H319.119ZM319.119 91.1871H319.212V94.4279H319.119C318.196 94.4279 317.601 93.859 317.601 92.8363C317.601 91.772 318.186 91.1871 319.119 91.1871ZM320.353 91.1871H320.446C321.376 91.1871 321.951 91.7752 321.951 92.8331C321.951 93.8494 321.376 94.4279 320.446 94.4279H320.353V91.1871Z" fill="#838383"/>
<path d="M325.269 94.4343V91.0913H324.153V96.0004H325.345L327.304 92.6541V96.0004H328.423V91.0913H327.234L325.269 94.4343Z" fill="#838383"/>
<path d="M329.272 96.0004H329.63C330.685 96.0004 331.161 95.2589 331.238 93.6225L331.315 92.0405H332.724V96.0004H333.843V91.0913H330.263L330.177 93.2646C330.123 94.642 329.944 95.0479 329.435 95.0479H329.266L329.272 96.0004Z" fill="#838383"/>
<path d="M336.123 92.6893V91.0913H335.008V96.0004H337.238C338.488 96.0004 339.207 95.31 339.21 94.3448C339.207 93.354 338.488 92.6893 337.238 92.6893H336.123ZM336.123 93.6385H337.238C337.74 93.6385 338.101 93.9357 338.101 94.3608C338.101 94.7667 337.74 95.0511 337.238 95.0511H336.123V93.6385Z" fill="#838383"/>
<path d="M339.424 92.0405H341.012V96.0004H342.131V92.0405H343.719V91.0913H339.424V92.0405Z" fill="#838383"/>
<path d="M344.64 97.8413H345.797V95.2269H345.845C346.028 95.5849 346.408 96.0866 347.252 96.0866C348.409 96.0866 349.275 95.1694 349.275 93.5522C349.275 91.9158 348.383 91.0273 347.248 91.0273C346.382 91.0273 346.021 91.5483 345.845 91.9031H345.778V91.0913H344.64V97.8413ZM345.775 93.5458C345.775 92.5934 346.184 91.9766 346.929 91.9766C347.699 91.9766 348.095 92.6317 348.095 93.5458C348.095 94.4663 347.693 95.1374 346.929 95.1374C346.191 95.1374 345.775 94.4982 345.775 93.5458Z" fill="#838383"/>
<path d="M352.498 96.0004H353.604V92.0405H355.528V96.0004H356.643V91.0913H352.498V96.0004Z" fill="#838383"/>
<path d="M359.974 96.0962C361.412 96.0962 362.326 95.0831 362.326 93.565C362.326 92.0437 361.412 91.0273 359.974 91.0273C358.536 91.0273 357.622 92.0437 357.622 93.565C357.622 95.0831 358.536 96.0962 359.974 96.0962ZM359.981 95.1694C359.185 95.1694 358.795 94.4599 358.795 93.5618C358.795 92.6637 359.185 91.9446 359.981 91.9446C360.764 91.9446 361.153 92.6637 361.153 93.5618C361.153 94.4599 360.764 95.1694 359.981 95.1694Z" fill="#838383"/>
<path d="M368.443 96.0004H369.526V91.0913H367.395C366.193 91.0913 365.448 91.7081 365.451 92.6509C365.448 93.271 365.787 93.7408 366.372 93.9805L365.272 96.0004H366.41L367.417 94.1531H368.443V96.0004ZM368.443 93.3093H367.356C366.848 93.3093 366.567 93.044 366.57 92.6765C366.567 92.3089 366.864 92.0309 367.395 92.0309H368.443V93.3093Z" fill="#838383"/>
<path d="M370.42 94.6548C370.448 95.5657 371.282 96.0962 372.417 96.0962C373.58 96.0962 374.421 95.5433 374.421 94.6388C374.421 93.9773 373.97 93.5234 373.389 93.4883V93.4371C373.951 93.2869 374.309 92.9354 374.309 92.4048C374.309 91.5771 373.593 91.0273 372.443 91.0273C371.369 91.0273 370.56 91.5835 370.544 92.44H371.685C371.698 92.1108 372.037 91.8807 372.497 91.8807C372.957 91.8807 373.235 92.1268 373.235 92.4911C373.235 92.8267 372.98 93.076 372.5 93.076H371.749V93.8974H372.5C372.983 93.8974 373.299 94.169 373.299 94.5653C373.299 95.0128 372.906 95.2301 372.411 95.2301C371.922 95.2301 371.589 95.0192 371.567 94.6548H370.42Z" fill="#838383"/>
<path d="M376.447 92.6893V91.0913H375.332V96.0004H377.563C378.812 96.0004 379.531 95.31 379.535 94.3448C379.531 93.354 378.812 92.6893 377.563 92.6893H376.447ZM380.145 96.0004H381.302V91.0913H380.145V96.0004ZM376.447 93.6385H377.563C378.064 93.6385 378.426 93.9357 378.426 94.3608C378.426 94.7667 378.064 95.0511 377.563 95.0511H376.447V93.6385Z" fill="#838383"/>
<path d="M382.495 96.0004H383.652V94.1499H384.218L385.563 96.0004H386.963L385.125 93.5011L386.944 91.0913H385.55L384.074 93.0728H383.652V91.0913H382.495V96.0004Z" fill="#838383"/>
<path d="M388.391 97.8413C389.292 97.8413 389.813 97.3778 390.091 96.5948L392.063 91.0977L390.826 91.0913L389.692 94.7987H389.64L388.509 91.0913H387.282L389.062 96.1026L388.963 96.3679C388.749 96.9272 388.41 96.9656 387.905 96.8185L387.637 97.7198C387.793 97.7837 388.074 97.8413 388.391 97.8413Z" fill="#838383"/>
<path d="M316.221 78.5784H317.358V76.9996H321.529V78.572H322.667V76.0312H321.938V70.4541H317.755L317.582 73.2219C317.477 74.9861 317.103 75.6796 316.659 76.0312H316.221V78.5784ZM318.039 76.0312C318.388 75.4591 318.64 74.561 318.72 73.2219L318.822 71.4481H320.801V76.0312H318.039Z" fill="#838383"/>
<path d="M324.697 75.4335V72.0905H323.582V76.9996H324.774L326.733 73.6533V76.9996H327.852V72.0905H326.663L324.697 75.4335Z" fill="#838383"/>
<path d="M329.04 76.9996H330.197V75.1491H330.763L332.108 76.9996H333.508L331.67 74.5003L333.489 72.0905H332.095L330.619 74.072H330.197V72.0905H329.04V76.9996Z" fill="#838383"/>
<path d="M333.896 73.0397H335.484V76.9996H336.603V73.0397H338.191V72.0905H333.896V73.0397Z" fill="#838383"/>
<path d="M341.051 77.0954C342.49 77.0954 343.404 76.0823 343.404 74.5642C343.404 73.0429 342.49 72.0265 341.051 72.0265C339.613 72.0265 338.699 73.0429 338.699 74.5642C338.699 76.0823 339.613 77.0954 341.051 77.0954ZM341.058 76.1686C340.262 76.1686 339.872 75.4591 339.872 74.561C339.872 73.6629 340.262 72.9438 341.058 72.9438C341.841 72.9438 342.231 73.6629 342.231 74.561C342.231 75.4591 341.841 76.1686 341.058 76.1686Z" fill="#838383"/>
<path d="M344.386 78.8405H345.543V76.2261H345.591C345.773 76.5841 346.153 77.0858 346.997 77.0858C348.154 77.0858 349.02 76.1686 349.02 74.5514C349.02 72.915 348.128 72.0265 346.994 72.0265C346.127 72.0265 345.766 72.5475 345.591 72.9023H345.523V72.0905H344.386V78.8405ZM345.52 74.545C345.52 73.5926 345.929 72.9758 346.674 72.9758C347.444 72.9758 347.841 73.6309 347.841 74.545C347.841 75.4655 347.438 76.1366 346.674 76.1366C345.936 76.1366 345.52 75.4974 345.52 74.545Z" fill="#838383"/>
<path d="M316.646 118H319.295C320.794 118 321.529 117.236 321.529 116.216C321.529 115.226 320.826 114.644 320.129 114.609V114.545C320.768 114.395 321.273 113.947 321.273 113.151C321.273 112.177 320.57 111.454 319.151 111.454H316.646V118ZM317.831 117.009V115.091H319.138C319.87 115.091 320.324 115.539 320.324 116.124C320.324 116.645 319.966 117.009 319.106 117.009H317.831ZM317.831 114.238V112.432H319.03C319.726 112.432 320.088 112.8 320.088 113.305C320.088 113.88 319.621 114.238 319.004 114.238H317.831Z" fill="#838383"/>
<path d="M323.625 114.689V113.091H322.509V118H324.74C325.99 118 326.709 117.309 326.712 116.344C326.709 115.354 325.99 114.689 324.74 114.689H323.625ZM327.323 118H328.48V113.091H327.323V118ZM323.625 115.638H324.74C325.242 115.638 325.603 115.935 325.603 116.36C325.603 116.766 325.242 117.051 324.74 117.051H323.625V115.638Z" fill="#838383"/>
<path d="M333.607 111.275C333.37 111.454 332.996 111.451 332.488 111.451C332.344 111.451 332.194 111.451 332.031 111.454C330.34 111.477 329.471 112.602 329.471 114.909V115.35C329.471 117.146 330.379 118.096 331.807 118.096C333.236 118.096 334.137 117.143 334.137 115.628C334.137 114.158 333.281 113.311 332.063 113.311C331.315 113.311 330.75 113.634 330.443 114.235H330.388C330.503 113.011 330.964 112.458 332.063 112.432C333.038 112.41 333.584 112.394 334.01 112.023L333.607 111.275ZM331.814 117.169C331.088 117.169 330.644 116.587 330.644 115.66C330.654 114.746 331.092 114.222 331.807 114.222C332.523 114.222 332.964 114.746 332.964 115.66C332.964 116.59 332.527 117.169 331.814 117.169Z" fill="#838383"/>
<path d="M335.122 119.841H336.279V117.226H336.327C336.509 117.584 336.889 118.086 337.733 118.086C338.89 118.086 339.756 117.169 339.756 115.552C339.756 113.915 338.864 113.027 337.73 113.027C336.864 113.027 336.502 113.548 336.327 113.903H336.259V113.091H335.122V119.841ZM336.256 115.545C336.256 114.593 336.665 113.976 337.41 113.976C338.18 113.976 338.577 114.631 338.577 115.545C338.577 116.466 338.174 117.137 337.41 117.137C336.672 117.137 336.256 116.498 336.256 115.545Z" fill="#838383"/>
<path d="M342.159 118.099C342.93 118.099 343.39 117.738 343.601 117.325H343.639V118H344.751V114.714C344.751 113.417 343.693 113.027 342.757 113.027C341.725 113.027 340.932 113.487 340.676 114.382L341.757 114.535C341.872 114.2 342.198 113.912 342.763 113.912C343.3 113.912 343.594 114.187 343.594 114.67V114.689C343.594 115.021 343.246 115.037 342.38 115.13C341.427 115.232 340.517 115.517 340.517 116.622C340.517 117.588 341.223 118.099 342.159 118.099ZM342.46 117.249C341.977 117.249 341.632 117.028 341.632 116.603C341.632 116.159 342.019 115.974 342.536 115.9C342.84 115.858 343.447 115.782 343.598 115.66V116.239C343.598 116.785 343.157 117.249 342.46 117.249Z" fill="#838383"/>
<path d="M345.365 114.04H346.953V118H348.072V114.04H349.66V113.091H345.365V114.04Z" fill="#838383"/>
<path d="M351.697 114.689V113.091H350.582V118H352.812C354.062 118 354.781 117.309 354.784 116.344C354.781 115.354 354.062 114.689 352.812 114.689H351.697ZM351.697 115.638H352.812C353.314 115.638 353.675 115.935 353.675 116.36C353.675 116.766 353.314 117.051 352.812 117.051H351.697V115.638Z" fill="#838383"/>
<path d="M358.008 119.841H359.165V117.226H359.213C359.396 117.584 359.776 118.086 360.62 118.086C361.777 118.086 362.643 117.169 362.643 115.552C362.643 113.915 361.751 113.027 360.616 113.027C359.75 113.027 359.389 113.548 359.213 113.903H359.146V113.091H358.008V119.841ZM359.143 115.545C359.143 114.593 359.552 113.976 360.297 113.976C361.067 113.976 361.463 114.631 361.463 115.545C361.463 116.466 361.061 117.137 360.297 117.137C359.559 117.137 359.143 116.498 359.143 115.545Z" fill="#838383"/>
<path d="M365.775 118.096C367.213 118.096 368.127 117.083 368.127 115.564C368.127 114.043 367.213 113.027 365.775 113.027C364.337 113.027 363.422 114.043 363.422 115.564C363.422 117.083 364.337 118.096 365.775 118.096ZM365.781 117.169C364.985 117.169 364.595 116.459 364.595 115.561C364.595 114.663 364.985 113.944 365.781 113.944C366.564 113.944 366.954 114.663 366.954 115.561C366.954 116.459 366.564 117.169 365.781 117.169Z" fill="#838383"/>
<path d="M368.77 118H369.128C370.183 118 370.659 117.258 370.736 115.622L370.812 114.04H372.222V118H373.341V113.091H369.761L369.675 115.264C369.62 116.642 369.441 117.047 368.933 117.047H368.764L368.77 118Z" fill="#838383"/>
<path d="M375.621 116.434V113.091H374.506V118H375.698L377.657 114.654V118H378.775V113.091H377.586L375.621 116.434Z" fill="#838383"/>
<path d="M379.964 118H381.12V116.149H381.686L383.032 118H384.432L382.594 115.501L384.412 113.091H383.019L381.542 115.072H381.12V113.091H379.964V118Z" fill="#838383"/>
<path d="M330.486 137L331.026 135.386H333.487L334.031 137H335.296L332.989 130.454H331.525L329.221 137H330.486ZM331.346 134.433L332.231 131.796H332.282L333.168 134.433H331.346Z" fill="#838383"/>
<path d="M336.211 138.84C337.112 138.84 337.633 138.377 337.911 137.594L339.883 132.097L338.647 132.09L337.512 135.798H337.461L336.329 132.09H335.102L336.882 137.102L336.783 137.367C336.569 137.926 336.23 137.965 335.725 137.818L335.457 138.719C335.614 138.783 335.895 138.84 336.211 138.84Z" fill="#838383"/>
<path d="M339.856 138.425H340.994V137H344.206V138.425H345.325V136.047H344.564V132.09H341.016L340.876 133.81C340.783 134.909 340.662 135.724 340.246 136.047H339.856V138.425ZM341.435 136.047C341.745 135.59 341.86 134.849 341.943 133.81L342.02 133.024H343.458V136.047H341.435Z" fill="#838383"/>
<path d="M347.304 135.434V132.09H346.188V137H347.381L349.34 133.653V137H350.458V132.09H349.269L347.304 135.434Z" fill="#838383"/>
<path d="M353.788 137.095C355.226 137.095 356.14 136.082 356.14 134.564C356.14 133.043 355.226 132.027 353.788 132.027C352.35 132.027 351.435 133.043 351.435 134.564C351.435 136.082 352.35 137.095 353.788 137.095ZM353.794 136.169C352.998 136.169 352.608 135.459 352.608 134.561C352.608 133.663 352.998 132.944 353.794 132.944C354.577 132.944 354.967 133.663 354.967 134.561C354.967 135.459 354.577 136.169 353.794 136.169Z" fill="#838383"/>
<path d="M357.122 138.84H358.279V136.226H358.327C358.509 136.584 358.889 137.086 359.733 137.086C360.89 137.086 361.756 136.169 361.756 134.551C361.756 132.915 360.865 132.027 359.73 132.027C358.864 132.027 358.503 132.547 358.327 132.902H358.26V132.09H357.122V138.84ZM358.257 134.545C358.257 133.593 358.666 132.976 359.41 132.976C360.181 132.976 360.577 133.631 360.577 134.545C360.577 135.465 360.174 136.137 359.41 136.137C358.672 136.137 358.257 135.497 358.257 134.545Z" fill="#838383"/>
<path d="M364.888 137.095C366.327 137.095 367.241 136.082 367.241 134.564C367.241 133.043 366.327 132.027 364.888 132.027C363.45 132.027 362.536 133.043 362.536 134.564C362.536 136.082 363.45 137.095 364.888 137.095ZM364.895 136.169C364.099 136.169 363.709 135.459 363.709 134.561C363.709 133.663 364.099 132.944 364.895 132.944C365.678 132.944 366.068 133.663 366.068 134.561C366.068 135.459 365.678 136.169 364.895 136.169Z" fill="#838383"/>
<path d="M367.884 137H368.242C369.296 137 369.773 136.258 369.849 134.622L369.926 133.04H371.335V137H372.454V132.09H368.875L368.788 134.264C368.734 135.641 368.555 136.047 368.047 136.047H367.877L367.884 137Z" fill="#838383"/>
<path d="M374.734 135.434V132.09H373.619V137H374.811L376.77 133.653V137H377.889V132.09H376.7L374.734 135.434Z" fill="#838383"/>
<path d="M379.077 137H380.234V135.149H380.8L382.145 137H383.545L381.707 134.5L383.526 132.09H382.132L380.656 134.072H380.234V132.09H379.077V137Z" fill="#838383"/>
<path d="M422.818 130.454V137H430.329V130.454H429.169V136.015H427.165V130.454H426.005V136.015H423.985V130.454H422.818Z" fill="#838383"/>
<path d="M433.157 137.099C433.927 137.099 434.387 136.738 434.598 136.325H434.636V137H435.749V133.714C435.749 132.417 434.691 132.027 433.754 132.027C432.722 132.027 431.929 132.487 431.674 133.382L432.754 133.535C432.869 133.2 433.195 132.912 433.761 132.912C434.298 132.912 434.592 133.187 434.592 133.67V133.689C434.592 134.021 434.243 134.037 433.377 134.13C432.425 134.232 431.514 134.517 431.514 135.622C431.514 136.588 432.22 137.099 433.157 137.099ZM433.457 136.249C432.975 136.249 432.629 136.028 432.629 135.603C432.629 135.159 433.016 134.974 433.534 134.9C433.837 134.858 434.445 134.782 434.595 134.66V135.239C434.595 135.785 434.154 136.249 433.457 136.249Z" fill="#838383"/>
<path d="M440.846 130.275C440.61 130.454 440.236 130.451 439.728 130.451C439.584 130.451 439.434 130.451 439.271 130.454C437.58 130.477 436.711 131.602 436.711 133.909V134.35C436.711 136.146 437.618 137.096 439.047 137.096C440.476 137.096 441.377 136.143 441.377 134.628C441.377 133.158 440.52 132.311 439.303 132.311C438.555 132.311 437.989 132.634 437.682 133.235H437.628C437.743 132.011 438.203 131.458 439.303 131.432C440.277 131.41 440.824 131.394 441.249 131.023L440.846 130.275ZM439.053 136.169C438.328 136.169 437.884 135.587 437.884 134.66C437.893 133.746 438.331 133.222 439.047 133.222C439.763 133.222 440.204 133.746 440.204 134.66C440.204 135.59 439.766 136.169 439.053 136.169Z" fill="#838383"/>
<path d="M442.022 137H442.38C443.435 137 443.911 136.258 443.988 134.622L444.065 133.04H445.474V137H446.593V132.091H443.013L442.927 134.264C442.873 135.642 442.694 136.047 442.185 136.047H442.016L442.022 137Z" fill="#838383"/>
<path d="M449.899 137.096C451.337 137.096 452.251 136.083 452.251 134.564C452.251 133.043 451.337 132.027 449.899 132.027C448.461 132.027 447.547 133.043 447.547 134.564C447.547 136.083 448.461 137.096 449.899 137.096ZM449.905 136.169C449.11 136.169 448.72 135.459 448.72 134.561C448.72 133.663 449.11 132.944 449.905 132.944C450.688 132.944 451.078 133.663 451.078 134.561C451.078 135.459 450.688 136.169 449.905 136.169Z" fill="#838383"/>
<path d="M454.349 132.091H453.233V137H454.349V135.015H456.25V137H457.363V132.091H456.25V134.066H454.349V132.091Z" fill="#838383"/>
<path d="M460.766 138.841H461.922V136.226H461.97C462.153 136.584 462.533 137.086 463.377 137.086C464.534 137.086 465.4 136.169 465.4 134.552C465.4 132.915 464.508 132.027 463.373 132.027C462.507 132.027 462.146 132.548 461.97 132.903H461.903V132.091H460.766V138.841ZM461.9 134.545C461.9 133.593 462.309 132.976 463.054 132.976C463.824 132.976 464.22 133.631 464.22 134.545C464.22 135.466 463.818 136.137 463.054 136.137C462.316 136.137 461.9 135.498 461.9 134.545Z" fill="#838383"/>
<path d="M468.532 137.096C469.97 137.096 470.884 136.083 470.884 134.564C470.884 133.043 469.97 132.027 468.532 132.027C467.094 132.027 466.18 133.043 466.18 134.564C466.18 136.083 467.094 137.096 468.532 137.096ZM468.538 136.169C467.742 136.169 467.353 135.459 467.353 134.561C467.353 133.663 467.742 132.944 468.538 132.944C469.321 132.944 469.711 133.663 469.711 134.561C469.711 135.459 469.321 136.169 468.538 136.169Z" fill="#838383"/>
<path d="M471.527 137H471.885C472.94 137 473.416 136.258 473.493 134.622L473.57 133.04H474.979V137H476.098V132.091H472.518L472.432 134.264C472.377 135.642 472.199 136.047 471.69 136.047H471.521L471.527 137Z" fill="#838383"/>
<path d="M478.378 135.434V132.091H477.263V137H478.455L480.414 133.654V137H481.532V132.091H480.344L478.378 135.434Z" fill="#838383"/>
<path d="M482.721 137H483.878V135.149H484.443L485.789 137H487.189L485.351 134.501L487.169 132.091H485.776L484.299 134.072H483.878V132.091H482.721V137Z" fill="#838383"/>
<path d="M489.257 137.099C490.028 137.099 490.488 136.738 490.699 136.325H490.737V137H491.849V133.714C491.849 132.417 490.791 132.027 489.855 132.027C488.823 132.027 488.03 132.487 487.774 133.382L488.855 133.535C488.97 133.2 489.296 132.912 489.861 132.912C490.398 132.912 490.692 133.187 490.692 133.67V133.689C490.692 134.021 490.344 134.037 489.478 134.13C488.525 134.232 487.615 134.517 487.615 135.622C487.615 136.588 488.321 137.099 489.257 137.099ZM489.558 136.249C489.075 136.249 488.73 136.028 488.73 135.603C488.73 135.159 489.117 134.974 489.634 134.9C489.938 134.858 490.545 134.782 490.695 134.66V135.239C490.695 135.785 490.254 136.249 489.558 136.249Z" fill="#838383"/>
<path fill-rule="evenodd" clip-rule="evenodd" d="M409 74C409 72.8954 409.895 72 411 72H509C510.105 72 511 72.8954 511 74C511 75.1046 510.105 76 509 76H411C409.895 76 409 75.1046 409 74ZM409 93C409 91.8954 409.895 91 411 91H557C558.105 91 559 91.8954 559 93C559 94.1046 558.105 95 557 95H411C409.895 95 409 94.1046 409 93ZM411 113C409.895 113 409 113.895 409 115C409 116.105 409.895 117 411 117H557C558.105 117 559 116.105 559 115C559 113.895 558.105 113 557 113H411Z" fill="#E6E6E6"/>
<circle cx="319" cy="134" r="2.5" stroke="#838383"/>
<path fill-rule="evenodd" clip-rule="evenodd" d="M414 134C414 135.105 413.105 136 412 136C410.895 136 410 135.105 410 134C410 132.895 410.895 132 412 132C413.105 132 414 132.895 414 134ZM415 134C415 135.657 413.657 137 412 137C410.343 137 409 135.657 409 134C409 132.343 410.343 131 412 131C413.657 131 415 132.343 415 134ZM412 135C412.552 135 413 134.552 413 134C413 133.448 412.552 133 412 133C411.448 133 411 133.448 411 134C411 134.552 411.448 135 412 135Z" fill="#838383"/>
</g>
<defs>
<filter id="filter0_d_1059_7198" x="11" y="26" width="480" height="304" filterUnits="userSpaceOnUse" color-interpolation-filters="sRGB">
<feFlood flood-opacity="0" result="BackgroundImageFix"/>
<feColorMatrix in="SourceAlpha" type="matrix" values="0 0 0 0 0 0 0 0 0 0 0 0 0 0 0 0 0 0 127 0" result="hardAlpha"/>
<feOffset/>
<feGaussianBlur stdDeviation="12.5"/>
<feComposite in2="hardAlpha" operator="out"/>
<feColorMatrix type="matrix" values="0 0 0 0 0 0 0 0 0 0 0 0 0 0 0 0 0 0 0.15 0"/>
<feBlend mode="normal" in2="BackgroundImageFix" result="effect1_dropShadow_1059_7198"/>
<feBlend mode="normal" in="SourceGraphic" in2="effect1_dropShadow_1059_7198" result="shape"/>
</filter>
<filter id="filter1_d_1059_7198" x="268" y="151" width="339" height="206" filterUnits="userSpaceOnUse" color-interpolation-filters="sRGB">
<feFlood flood-opacity="0" result="BackgroundImageFix"/>
<feColorMatrix in="SourceAlpha" type="matrix" values="0 0 0 0 0 0 0 0 0 0 0 0 0 0 0 0 0 0 127 0" result="hardAlpha"/>
<feOffset/>
<feGaussianBlur stdDeviation="12.5"/>
<feComposite in2="hardAlpha" operator="out"/>
<feColorMatrix type="matrix" values="0 0 0 0 0 0 0 0 0 0 0 0 0 0 0 0 0 0 0.15 0"/>
<feBlend mode="normal" in2="BackgroundImageFix" result="effect1_dropShadow_1059_7198"/>
<feBlend mode="normal" in="SourceGraphic" in2="effect1_dropShadow_1059_7198" result="shape"/>
</filter>
<filter id="filter2_d_1059_7198" x="268" y="-3" width="339" height="185" filterUnits="userSpaceOnUse" color-interpolation-filters="sRGB">
<feFlood flood-opacity="0" result="BackgroundImageFix"/>
<feColorMatrix in="SourceAlpha" type="matrix" values="0 0 0 0 0 0 0 0 0 0 0 0 0 0 0 0 0 0 127 0" result="hardAlpha"/>
<feOffset/>
<feGaussianBlur stdDeviation="12.5"/>
<feComposite in2="hardAlpha" operator="out"/>
<feColorMatrix type="matrix" values="0 0 0 0 0 0 0 0 0 0 0 0 0 0 0 0 0 0 0.15 0"/>
<feBlend mode="normal" in2="BackgroundImageFix" result="effect1_dropShadow_1059_7198"/>
<feBlend mode="normal" in="SourceGraphic" in2="effect1_dropShadow_1059_7198" result="shape"/>
</filter>
<clipPath id="clip0_1059_7198">
<rect width="629" height="355" fill="white"/>
</clipPath>
</defs>
</svg>
