<svg width="469" height="300" viewBox="0 0 469 300" fill="none" xmlns="http://www.w3.org/2000/svg">
<path d="M15 0H465V300H15V0Z" fill="#F5F5F5"/>
<g filter="url(#filter0_d_1059_7693)">
<rect x="107" y="27" width="337" height="200" rx="4" fill="white"/>
</g>
<path d="M107 31C107 28.7909 108.791 27 111 27H440C442.209 27 444 28.7909 444 31V51H107V31Z" fill="#3C3A3E"/>
<path d="M107 51H197V227H111C108.791 227 107 225.209 107 223V51Z" fill="#EDEDED"/>
<path fill-rule="evenodd" clip-rule="evenodd" d="M198 189V120.5V120V51H196V120L107 120V120.5L196 120.5L196 189L107 189V189.5L196 189.5V227H198L198 189.5V189ZM116.5 66C115.672 66 115 66.6716 115 67.5C115 68.3284 115.672 69 116.5 69H185.5C186.328 69 187 68.3284 187 67.5C187 66.6716 186.328 66 185.5 66H116.5ZM115 136.5C115 135.672 115.672 135 116.5 135H185.5C186.328 135 187 135.672 187 136.5C187 137.328 186.328 138 185.5 138H116.5C115.672 138 115 137.328 115 136.5ZM116.5 78C115.672 78 115 78.6716 115 79.5C115 80.3284 115.672 81 116.5 81H167.5C168.328 81 169 80.3284 169 79.5C169 78.6716 168.328 78 167.5 78H116.5ZM115 148.5C115 147.672 115.672 147 116.5 147H167.5C168.328 147 169 147.672 169 148.5C169 149.328 168.328 150 167.5 150H116.5C115.672 150 115 149.328 115 148.5ZM116.5 90C115.672 90 115 90.6716 115 91.5C115 92.3284 115.672 93 116.5 93H175.5C176.328 93 177 92.3284 177 91.5C177 90.6716 176.328 90 175.5 90H116.5ZM115 160.5C115 159.672 115.672 159 116.5 159H175.5C176.328 159 177 159.672 177 160.5C177 161.328 176.328 162 175.5 162H116.5C115.672 162 115 161.328 115 160.5ZM116.5 204C115.672 204 115 204.672 115 205.5C115 206.328 115.672 207 116.5 207H175.5C176.328 207 177 206.328 177 205.5C177 204.672 176.328 204 175.5 204H116.5ZM115 103.5C115 102.672 115.672 102 116.5 102H155.5C156.328 102 157 102.672 157 103.5C157 104.328 156.328 105 155.5 105H116.5C115.672 105 115 104.328 115 103.5ZM116.5 171C115.672 171 115 171.672 115 172.5C115 173.328 115.672 174 116.5 174H155.5C156.328 174 157 173.328 157 172.5C157 171.672 156.328 171 155.5 171H116.5Z" fill="#CBCBCB"/>
<path d="M216.568 75.0002H218.029L215.331 71.4398L217.917 68.4547H216.456L214.129 71.1458H213.832V68.4547H212.646V75.0002H213.832V72.1397H214.414L216.568 75.0002Z" fill="#3C3A3E"/>
<path d="M220.195 75.0993C220.966 75.0993 221.426 74.7381 221.637 74.3258H221.675V75.0002H222.787V71.7147C222.787 70.4171 221.73 70.0272 220.793 70.0272C219.761 70.0272 218.968 70.4874 218.713 71.3823L219.793 71.5357C219.908 71.2001 220.234 70.9125 220.8 70.9125C221.336 70.9125 221.631 71.1873 221.631 71.6699V71.6891C221.631 72.0215 221.282 72.0375 220.416 72.1301C219.464 72.2324 218.553 72.5169 218.553 73.6227C218.553 74.5879 219.259 75.0993 220.195 75.0993ZM220.496 74.2491C220.013 74.2491 219.668 74.0286 219.668 73.6035C219.668 73.1593 220.055 72.9739 220.573 72.9004C220.876 72.8588 221.483 72.7821 221.634 72.6607V73.2392C221.634 73.7857 221.193 74.2491 220.496 74.2491Z" fill="#3C3A3E"/>
<path d="M226.776 73.6547L225.357 70.0911H223.951V75.0002H225.066V71.6923L226.373 75.0002H227.182L228.534 71.6571V75.0002H229.64V70.0911H228.233L226.776 73.6547Z" fill="#3C3A3E"/>
<path d="M230.806 75.0002H231.912V71.0403H233.836V75.0002H234.952V70.0911H230.806V75.0002Z" fill="#3C3A3E"/>
<path d="M237.554 75.0993C238.324 75.0993 238.784 74.7381 238.995 74.3258H239.034V75.0002H240.146V71.7147C240.146 70.4171 239.088 70.0272 238.152 70.0272C237.119 70.0272 236.327 70.4874 236.071 71.3823L237.151 71.5357C237.266 71.2001 237.592 70.9125 238.158 70.9125C238.695 70.9125 238.989 71.1873 238.989 71.6699V71.6891C238.989 72.0215 238.641 72.0375 237.774 72.1301C236.822 72.2324 235.911 72.5169 235.911 73.6227C235.911 74.5879 236.617 75.0993 237.554 75.0993ZM237.854 74.2491C237.372 74.2491 237.027 74.0286 237.027 73.6035C237.027 73.1593 237.413 72.9739 237.931 72.9004C238.235 72.8588 238.842 72.7821 238.992 72.6607V73.2392C238.992 73.7857 238.551 74.2491 237.854 74.2491Z" fill="#3C3A3E"/>
<path d="M242.425 70.0911H241.309V75.0002H242.425V73.0154H244.326V75.0002H245.438V70.0911H244.326V72.0662H242.425V70.0911Z" fill="#3C3A3E"/>
<path d="M247.724 73.4341V70.0911H246.609V75.0002H247.801L249.76 71.6539V75.0002H250.879V70.0911H249.69L247.724 73.4341Z" fill="#3C3A3E"/>
<path d="M253.182 73.4341V70.0911H252.067V75.0002H253.259L255.218 71.6539V75.0002H256.337V70.0911H255.148L253.182 73.4341Z" fill="#3C3A3E"/>
<path d="M263.995 74.2971L262.781 72.3347L263.995 70.3723H262.953L261.662 72.29V72.3794L262.953 74.2971H263.995ZM262.046 74.2971L260.831 72.3347L262.046 70.3723H261.004L259.713 72.29V72.3794L261.004 74.2971H262.046Z" fill="#3C3A3E"/>
<path d="M267.473 75.0897C268.873 75.0897 269.892 74.2875 269.889 73.1816C269.892 72.3635 269.381 71.7754 268.463 71.6444V71.5932C269.173 71.4398 269.649 70.9125 269.646 70.1774C269.649 69.1802 268.799 68.3652 267.492 68.3652C266.22 68.3652 265.235 69.1227 265.21 70.2189H266.351C266.37 69.6692 266.881 69.3272 267.485 69.3272C268.096 69.3272 268.502 69.698 268.499 70.2477C268.502 70.8198 268.029 71.2001 267.351 71.2001H266.773V72.1142H267.351C268.179 72.1142 268.671 72.5297 268.668 73.1209C268.671 73.6994 268.169 74.0957 267.469 74.0957C266.811 74.0957 266.303 73.7537 266.274 73.22H265.072C265.104 74.3258 266.092 75.0897 267.473 75.0897Z" fill="#3C3A3E"/>
<path d="M270.999 75.0002H273.377C274.527 75.0002 275.185 74.4792 275.185 73.6674C275.185 72.9803 274.652 72.5009 273.881 72.4338C274.537 72.3123 274.946 71.964 274.946 71.411C274.946 70.5833 274.22 70.0911 273.06 70.0911H270.999V75.0002ZM272.082 74.0893V72.8716H273.377C273.802 72.8716 274.06 73.1177 274.06 73.5236C274.06 73.8752 273.802 74.0893 273.377 74.0893H272.082ZM272.082 72.1238V71.0179H273.06C273.543 71.0179 273.837 71.2225 273.837 71.5581C273.837 71.9096 273.552 72.1238 273.082 72.1238H272.082Z" fill="#3C3A3E"/>
<path d="M278.282 75.0961C279.72 75.0961 280.634 74.0829 280.634 72.5648C280.634 71.0435 279.72 70.0272 278.282 70.0272C276.843 70.0272 275.929 71.0435 275.929 72.5648C275.929 74.0829 276.843 75.0961 278.282 75.0961ZM278.288 74.1692C277.492 74.1692 277.102 73.4597 277.102 72.5616C277.102 71.6635 277.492 70.9444 278.288 70.9444C279.071 70.9444 279.461 71.6635 279.461 72.5616C279.461 73.4597 279.071 74.1692 278.288 74.1692Z" fill="#3C3A3E"/>
<path d="M282.731 70.0911H281.616V75.0002H282.731V73.0154H284.633V75.0002H285.745V70.0911H284.633V72.0662H282.731V70.0911Z" fill="#3C3A3E"/>
<path d="M286.916 75.0002H288.073V73.1497H288.638L289.984 75.0002H291.384L289.546 72.5009L291.365 70.0911H289.971L288.494 72.0726H288.073V70.0911H286.916V75.0002Z" fill="#3C3A3E"/>
<path d="M293.155 73.4341V70.0911H292.04V75.0002H293.232L295.191 71.6539V75.0002H296.31V70.0911H295.121L293.155 73.4341Z" fill="#3C3A3E"/>
<path d="M299.73 75.0002H300.836V71.0403H302.76V75.0002H303.875V70.0911H299.73V75.0002Z" fill="#3C3A3E"/>
<path d="M307.206 75.0961C308.645 75.0961 309.559 74.0829 309.559 72.5648C309.559 71.0435 308.645 70.0272 307.206 70.0272C305.768 70.0272 304.854 71.0435 304.854 72.5648C304.854 74.0829 305.768 75.0961 307.206 75.0961ZM307.213 74.1692C306.417 74.1692 306.027 73.4597 306.027 72.5616C306.027 71.6635 306.417 70.9444 307.213 70.9444C307.996 70.9444 308.386 71.6635 308.386 72.5616C308.386 73.4597 307.996 74.1692 307.213 74.1692Z" fill="#3C3A3E"/>
<path d="M313.665 75.0002L314.205 73.3862H316.666L317.209 75.0002H318.475L316.167 68.4547H314.703L312.399 75.0002H313.665ZM314.525 72.4338L315.41 69.7971H315.461L316.346 72.4338H314.525Z" fill="#3C3A3E"/>
<path d="M319.337 75.0002H320.523V72.7885H321.775C323.287 72.7885 324.099 71.8809 324.099 70.6216C324.099 69.372 323.297 68.4547 321.791 68.4547H319.337V75.0002ZM320.523 71.8137V69.4455H321.609C322.498 69.4455 322.891 69.9249 322.891 70.6216C322.891 71.3184 322.498 71.8137 321.616 71.8137H320.523Z" fill="#3C3A3E"/>
<path d="M326.315 68.4547H325.129V75.0002H326.315V68.4547Z" fill="#3C3A3E"/>
<path d="M329.427 74.2971H330.469L331.76 72.3794V72.29L330.469 70.3723H329.427L330.641 72.3347L329.427 74.2971ZM327.458 74.2971H328.5L329.791 72.3794V72.29L328.5 70.3723H327.458L328.672 72.3347L327.458 74.2971Z" fill="#3C3A3E"/>
<path fill-rule="evenodd" clip-rule="evenodd" d="M212 86H430V85H212V86ZM212 106.5C212 105.672 212.672 105 213.5 105H273.5C274.328 105 275 105.672 275 106.5C275 107.328 274.328 108 273.5 108H213.5C212.672 108 212 107.328 212 106.5ZM212 131.5C212 130.672 212.672 130 213.5 130H273.5C274.328 130 275 130.672 275 131.5C275 132.328 274.328 133 273.5 133H213.5C212.672 133 212 132.328 212 131.5ZM213.5 155C212.672 155 212 155.672 212 156.5C212 157.328 212.672 158 213.5 158H273.5C274.328 158 275 157.328 275 156.5C275 155.672 274.328 155 273.5 155H213.5ZM212 181.5C212 180.672 212.672 180 213.5 180H273.5C274.328 180 275 180.672 275 181.5C275 182.328 274.328 183 273.5 183H213.5C212.672 183 212 182.328 212 181.5ZM299.5 105C298.672 105 298 105.672 298 106.5C298 107.328 298.672 108 299.5 108H428.5C429.328 108 430 107.328 430 106.5C430 105.672 429.328 105 428.5 105H299.5ZM298 131.5C298 130.672 298.672 130 299.5 130H428.5C429.328 130 430 130.672 430 131.5C430 132.328 429.328 133 428.5 133H299.5C298.672 133 298 132.328 298 131.5ZM299.5 155C298.672 155 298 155.672 298 156.5C298 157.328 298.672 158 299.5 158H428.5C429.328 158 430 157.328 430 156.5C430 155.672 429.328 155 428.5 155H299.5ZM298 181.5C298 180.672 298.672 180 299.5 180H428.5C429.328 180 430 180.672 430 181.5C430 182.328 429.328 183 428.5 183H299.5C298.672 183 298 182.328 298 181.5ZM430 119H212V118.5H430V119ZM212 144H430V143.5H212V144ZM430 169H212V168.5H430V169ZM212 194H430V193.5H212V194Z" fill="#E6E6E6"/>
<path fill-rule="evenodd" clip-rule="evenodd" d="M124.401 40.9344C124.401 42.7104 123.364 43.5993 121.292 43.6013H117C117 41.8914 119.648 41.8989 120.791 41.9021L120.923 41.9023C121.781 41.9023 122.208 41.5171 122.206 40.7466C122.206 39.9723 121.78 39.5909 120.923 39.5909H118.503V37.9093H120.904C121.76 37.9093 122.184 37.5365 122.184 36.7969C122.184 36.0572 121.754 35.6989 120.904 35.6989C120.768 35.6989 120.614 35.703 120.447 35.7073C119.118 35.7419 117 35.7971 117 34H120.951C122.089 34 122.882 34.1454 123.33 34.4363C123.667 34.6523 123.941 34.9579 124.125 35.3212C124.309 35.6846 124.396 36.0924 124.376 36.5022C124.393 36.9877 124.269 37.4675 124.021 37.8795C123.772 38.2916 123.41 38.617 122.981 38.8136C123.924 39.2297 124.394 39.9424 124.392 40.9517L124.401 40.9344ZM152.465 36.6148C153.281 36.7638 154.017 37.2165 154.534 37.8881C155.051 38.5596 155.314 39.4036 155.273 40.2616C155.232 41.1195 154.889 41.9324 154.311 42.5474C153.732 43.1624 152.956 43.5372 152.129 43.6015C151.303 43.6657 150.482 43.415 149.821 42.8963C149.16 42.3776 148.705 41.6267 148.54 40.7847C148.376 39.9427 148.514 39.0676 148.929 38.3237C149.343 37.5798 150.006 37.0183 150.792 36.7448C151.33 36.5578 151.905 36.5131 152.465 36.6148ZM132.17 41.6393C132.17 42.9569 131.311 43.6147 129.593 43.6128H125.433V36.5801H129.337C130.262 36.5801 130.912 36.6928 131.289 36.9124C131.564 37.06 131.792 37.2857 131.949 37.5629C132.105 37.8402 132.181 38.1577 132.17 38.4784C132.175 38.8095 132.088 39.135 131.92 39.4166C131.752 39.6982 131.51 39.9241 131.222 40.0675C131.516 40.1955 131.766 40.4139 131.937 40.6934C132.108 40.9729 132.192 41.3001 132.178 41.6307L132.17 41.6393ZM130.251 38.6864C130.251 38.2444 129.953 38.0219 129.353 38.0219H127.226V39.3712H129.353C129.953 39.3712 130.251 39.143 130.251 38.6864ZM130.251 41.4862C130.251 41.0268 129.956 40.7986 129.365 40.7986H127.226V42.1739H129.378C129.97 42.1739 130.265 41.9427 130.265 41.4862H130.251ZM147.674 43.6128H145.889V40.8246H143.313V43.6128H141.523V36.5801H143.313V39.2759H145.889V36.5801H147.674V43.6128ZM162.994 43.6128H160.585L157.841 40.2005V43.6128H156.051V36.5801H157.841V39.9578L160.727 36.5801H163.011L159.857 40.0213L163.011 43.6128H162.994ZM152.37 38.227C152.126 38.1472 151.868 38.1204 151.613 38.1483C151.358 38.1761 151.111 38.2581 150.888 38.3891C150.665 38.52 150.47 38.6971 150.316 38.9094C150.162 39.1217 150.051 39.3646 149.992 39.623C149.932 39.8814 149.924 40.1498 149.969 40.4114C150.014 40.673 150.11 40.9223 150.252 41.1437C150.394 41.3651 150.578 41.5538 150.793 41.6983C151.008 41.8427 151.25 41.9397 151.503 41.9832C151.78 42.0408 152.065 42.0339 152.339 41.963C152.739 41.8585 153.094 41.6201 153.349 41.285C153.604 40.9499 153.745 40.5367 153.75 40.1099C153.755 39.683 153.624 39.2664 153.377 38.9249C153.13 38.5833 152.781 38.3359 152.384 38.2213L152.37 38.227ZM137.669 38.1201C138.092 38.3338 138.434 38.69 138.637 39.1305C138.84 39.571 138.893 40.0698 138.787 40.5455C138.681 41.0212 138.423 41.4456 138.054 41.7496C137.685 42.0535 137.228 42.219 136.757 42.219C136.286 42.219 135.829 42.0535 135.46 41.7496C135.091 41.4456 134.833 41.0212 134.727 40.5455C134.621 40.0698 134.674 39.571 134.877 39.1305C135.08 38.69 135.422 38.3338 135.845 38.1201V36.2392C134.944 36.47 134.155 37.0347 133.628 37.8267C133.101 38.6187 132.872 39.5832 132.984 40.5382C133.096 41.4932 133.542 42.3726 134.237 43.0105C134.932 43.6483 135.828 44.0005 136.757 44.0005C137.685 44.0005 138.582 43.6483 139.277 43.0105C139.972 42.3726 140.418 41.4932 140.53 40.5382C140.642 39.5832 140.413 38.6187 139.886 37.8267C139.359 37.0347 138.57 36.47 137.669 36.2392V38.1201ZM136.122 41.0727C136.387 41.2531 136.711 41.3176 137.022 41.2522C137.257 41.2068 137.474 41.0898 137.644 40.9164C137.815 40.7429 137.932 40.5207 137.98 40.2781C138.029 40.0355 138.007 39.7835 137.916 39.554C137.826 39.3246 137.672 39.1282 137.474 38.9899C137.353 38.9055 137.219 38.8447 137.078 38.8107V36.1179H136.52V38.8107C136.21 38.8824 135.94 39.0779 135.769 39.3547C135.597 39.6315 135.538 39.9673 135.604 40.289C135.67 40.6107 135.856 40.8924 136.122 41.0727Z" fill="white"/>
<g filter="url(#filter1_d_1059_7693)">
<rect x="25" y="81" width="222" height="92" rx="7" fill="white"/>
</g>
<path d="M36.6465 101H37.8322V98.2194H40.8652V101H42.0542V94.4545H40.8652V97.2254H37.8322V94.4545H36.6465V101Z" fill="#3C3A3E"/>
<path d="M44.7053 101.099C45.4755 101.099 45.9357 100.738 46.1467 100.326H46.185V101H47.2972V97.7144C47.2972 96.4168 46.2393 96.0269 45.3029 96.0269C44.2706 96.0269 43.478 96.4871 43.2223 97.382L44.3026 97.5354C44.4176 97.1998 44.7436 96.9122 45.3093 96.9122C45.8462 96.9122 46.1403 97.1871 46.1403 97.6697V97.6888C46.1403 98.0212 45.7919 98.0372 44.9258 98.1299C43.9734 98.2322 43.0625 98.5166 43.0625 99.6224C43.0625 100.588 43.7688 101.099 44.7053 101.099ZM45.0057 100.249C44.5231 100.249 44.1779 100.028 44.1779 99.6032C44.1779 99.159 44.5646 98.9736 45.0824 98.9001C45.386 98.8586 45.9933 98.7819 46.1435 98.6604V99.2389C46.1435 99.7854 45.7024 100.249 45.0057 100.249Z" fill="#3C3A3E"/>
<path d="M50.6019 101.096C51.8356 101.096 52.6218 100.364 52.7049 99.322H51.5991C51.5 99.8493 51.1197 100.153 50.6115 100.153C49.8892 100.153 49.4226 99.5489 49.4226 98.5454C49.4226 97.5546 49.8988 96.9601 50.6115 96.9601C51.1676 96.9601 51.5096 97.3181 51.5991 97.7911H52.7049C52.625 96.7268 51.794 96.0269 50.5955 96.0269C49.1573 96.0269 48.2496 97.0656 48.2496 98.5645C48.2496 100.051 49.1349 101.096 50.6019 101.096Z" fill="#3C3A3E"/>
<path d="M53.3074 97.04H54.8958V101H56.0144V97.04H57.6028V96.0908H53.3074V97.04Z" fill="#3C3A3E"/>
<path d="M58.5241 102.841H59.681V100.226H59.729C59.9111 100.584 60.2915 101.086 61.1352 101.086C62.2922 101.086 63.1583 100.169 63.1583 98.5518C63.1583 96.9154 62.2666 96.0269 61.132 96.0269C60.2659 96.0269 59.9047 96.5479 59.729 96.9026H59.6618V96.0908H58.5241V102.841ZM59.6586 98.5454C59.6586 97.593 60.0677 96.9761 60.8124 96.9761C61.5827 96.9761 61.979 97.6313 61.979 98.5454C61.979 99.4658 61.5763 100.137 60.8124 100.137C60.0741 100.137 59.6586 99.4978 59.6586 98.5454Z" fill="#3C3A3E"/>
<path d="M66.2904 101.096C67.7286 101.096 68.6427 100.083 68.6427 98.5645C68.6427 97.0432 67.7286 96.0269 66.2904 96.0269C64.8522 96.0269 63.9381 97.0432 63.9381 98.5645C63.9381 100.083 64.8522 101.096 66.2904 101.096ZM66.2968 100.169C65.501 100.169 65.1111 99.4594 65.1111 98.5613C65.1111 97.6633 65.501 96.9442 66.2968 96.9442C67.0798 96.9442 67.4697 97.6633 67.4697 98.5613C67.4697 99.4594 67.0798 100.169 66.2968 100.169Z" fill="#3C3A3E"/>
<path d="M70.7401 99.4339V96.0908H69.6246V101H70.8168L72.7759 97.6537V101H73.8945V96.0908H72.7056L70.7401 99.4339ZM72.3892 94.4033C72.386 94.7165 72.207 94.9946 71.7564 94.9946C71.2994 94.9946 71.1268 94.7101 71.1268 94.4033H70.267C70.2638 95.1512 70.8423 95.6562 71.7564 95.6562C72.6768 95.6562 73.2553 95.1512 73.2553 94.4033H72.3892Z" fill="#3C3A3E"/>
<path d="M75.0827 101H76.2396V99.1494H76.8053L78.1508 101H79.5507L77.713 98.5006L79.5315 96.0908H78.1381L76.6615 98.0724H76.2396V96.0908H75.0827V101Z" fill="#3C3A3E"/>
<path d="M81.3221 99.4339V96.0908H80.2067V101H81.3988L83.358 97.6537V101H84.4766V96.0908H83.2876L81.3221 99.4339Z" fill="#3C3A3E"/>
<path d="M87.8971 101H89.0541V99.1494H89.6198L90.9653 101H92.3651L90.5274 98.5006L92.346 96.0908H90.9525L89.4759 98.0724H89.0541V96.0908H87.8971V101Z" fill="#3C3A3E"/>
<path d="M94.4338 101.099C95.204 101.099 95.6642 100.738 95.8752 100.326H95.9135V101H97.0257V97.7144C97.0257 96.4168 95.9679 96.0269 95.0314 96.0269C93.9991 96.0269 93.2065 96.4871 92.9508 97.382L94.0311 97.5354C94.1461 97.1998 94.4721 96.9122 95.0378 96.9122C95.5747 96.9122 95.8688 97.1871 95.8688 97.6697V97.6888C95.8688 98.0212 95.5204 98.0372 94.6543 98.1299C93.7019 98.2322 92.791 98.5166 92.791 99.6224C92.791 100.588 93.4973 101.099 94.4338 101.099ZM94.7342 100.249C94.2516 100.249 93.9064 100.028 93.9064 99.6032C93.9064 99.159 94.2931 98.9736 94.8109 98.9001C95.1145 98.8586 95.7218 98.7819 95.872 98.6604V99.2389C95.872 99.7854 95.4309 100.249 94.7342 100.249Z" fill="#3C3A3E"/>
<path d="M101.014 99.6544L99.5953 96.0908H98.1891V101H99.3045V97.692L100.612 101H101.42L102.772 97.6569V101H103.878V96.0908H102.472L101.014 99.6544Z" fill="#3C3A3E"/>
<path d="M105.045 101H106.15V97.04H108.074V101H109.19V96.0908H105.045V101Z" fill="#3C3A3E"/>
<path d="M111.792 101.099C112.562 101.099 113.023 100.738 113.234 100.326H113.272V101H114.384V97.7144C114.384 96.4168 113.326 96.0269 112.39 96.0269C111.358 96.0269 110.565 96.4871 110.309 97.382L111.389 97.5354C111.505 97.1998 111.831 96.9122 112.396 96.9122C112.933 96.9122 113.227 97.1871 113.227 97.6697V97.6888C113.227 98.0212 112.879 98.0372 112.013 98.1299C111.06 98.2322 110.149 98.5166 110.149 99.6224C110.149 100.588 110.856 101.099 111.792 101.099ZM112.093 100.249C111.61 100.249 111.265 100.028 111.265 99.6032C111.265 99.159 111.652 98.9736 112.169 98.9001C112.473 98.8586 113.08 98.7819 113.23 98.6604V99.2389C113.23 99.7854 112.789 100.249 112.093 100.249Z" fill="#3C3A3E"/>
<path d="M116.663 96.0908H115.547V101H116.663V99.0152H118.565V101H119.677V96.0908H118.565V98.066H116.663V96.0908Z" fill="#3C3A3E"/>
<path d="M121.963 99.4339V96.0908H120.847V101H122.039L123.999 97.6537V101H125.117V96.0908H123.928L121.963 99.4339Z" fill="#3C3A3E"/>
<path d="M127.421 99.4339V96.0908H126.305V101H127.497L129.457 97.6537V101H130.575V96.0908H129.386L127.421 99.4339Z" fill="#3C3A3E"/>
<path d="M36.1719 120.228H37.0568V119H40.3008V120.223H41.1857V118.247H40.619V113.909H37.3651L37.2308 116.062C37.1488 117.434 36.858 117.973 36.5124 118.247H36.1719V120.228ZM37.5863 118.247C37.8572 117.802 38.0536 117.103 38.1158 116.062L38.1953 114.682H39.734V118.247H37.5863Z" fill="#858585"/>
<path d="M42.7648 117.782V115.182H41.8973V119H42.8245L44.3483 116.397V119H45.2183V115.182H44.2936L42.7648 117.782Z" fill="#858585"/>
<path d="M46.1424 119H47.0423V117.561H47.4822L48.5288 119H49.6175L48.1882 117.056L49.6026 115.182H48.5188L47.3704 116.723H47.0423V115.182H46.1424V119Z" fill="#858585"/>
<path d="M49.9189 115.92H51.1544V119H52.0244V115.92H53.2599V115.182H49.9189V115.92Z" fill="#858585"/>
<path d="M55.4846 119.075C56.6033 119.075 57.3142 118.287 57.3142 117.106C57.3142 115.923 56.6033 115.132 55.4846 115.132C54.366 115.132 53.6551 115.923 53.6551 117.106C53.6551 118.287 54.366 119.075 55.4846 119.075ZM55.4896 118.354C54.8706 118.354 54.5674 117.802 54.5674 117.103C54.5674 116.405 54.8706 115.846 55.4896 115.846C56.0986 115.846 56.4019 116.405 56.4019 117.103C56.4019 117.802 56.0986 118.354 55.4896 118.354Z" fill="#858585"/>
<path d="M58.0779 120.432H58.9778V118.399H59.0151C59.1568 118.677 59.4526 119.067 60.1088 119.067C61.0087 119.067 61.6824 118.354 61.6824 117.096C61.6824 115.823 60.9888 115.132 60.1064 115.132C59.4327 115.132 59.1518 115.537 59.0151 115.813H58.9629V115.182H58.0779V120.432ZM58.9604 117.091C58.9604 116.35 59.2786 115.87 59.8578 115.87C60.4569 115.87 60.7651 116.38 60.7651 117.091C60.7651 117.807 60.4519 118.329 59.8578 118.329C59.2836 118.329 58.9604 117.832 58.9604 117.091Z" fill="#858585"/>
<path d="M36.502 143H38.5627C39.7285 143 40.3002 142.406 40.3002 141.613C40.3002 140.842 39.7534 140.39 39.2115 140.362V140.313C39.7086 140.196 40.1014 139.848 40.1014 139.229C40.1014 138.471 39.5545 137.909 38.4508 137.909H36.502V143ZM37.4242 142.229V140.738H38.4409C39.0101 140.738 39.3631 141.086 39.3631 141.54C39.3631 141.946 39.0847 142.229 38.416 142.229H37.4242ZM37.4242 140.074V138.669H38.3564C38.8983 138.669 39.1792 138.955 39.1792 139.348C39.1792 139.795 38.8162 140.074 38.3365 140.074H37.4242Z" fill="#858585"/>
<path d="M41.9303 140.424V139.181H41.0628V143H42.7979C43.7698 143 44.3291 142.463 44.3316 141.712C44.3291 140.941 43.7698 140.424 42.7979 140.424H41.9303ZM44.8064 143H45.7062V139.181H44.8064V143ZM41.9303 141.163H42.7979C43.1881 141.163 43.469 141.394 43.469 141.724C43.469 142.04 43.1881 142.261 42.7979 142.261H41.9303V141.163Z" fill="#858585"/>
<path d="M49.6941 137.77C49.5101 137.909 49.2193 137.906 48.824 137.906C48.7122 137.906 48.5953 137.906 48.4686 137.909C47.1536 137.926 46.4775 138.801 46.4775 140.596V140.939C46.4775 142.336 47.1834 143.074 48.2946 143.074C49.4057 143.074 50.1067 142.333 50.1067 141.155C50.1067 140.012 49.4405 139.353 48.4934 139.353C47.9118 139.353 47.4718 139.604 47.2331 140.071H47.1909C47.2804 139.119 47.6383 138.689 48.4934 138.669C49.2516 138.652 49.6767 138.64 50.0073 138.351L49.6941 137.77ZM48.2995 142.353C47.7353 142.353 47.3897 141.901 47.3897 141.18C47.3972 140.469 47.7377 140.061 48.2946 140.061C48.8514 140.061 49.1944 140.469 49.1944 141.18C49.1944 141.903 48.8539 142.353 48.2995 142.353Z" fill="#858585"/>
<path d="M50.8723 144.431H51.7722V142.398H51.8095C51.9512 142.676 52.247 143.067 52.9032 143.067C53.8031 143.067 54.4767 142.353 54.4767 141.096C54.4767 139.823 53.7832 139.132 52.9007 139.132C52.2271 139.132 51.9462 139.537 51.8095 139.813H51.7573V139.181H50.8723V144.431ZM51.7548 141.091C51.7548 140.35 52.073 139.87 52.6522 139.87C53.2512 139.87 53.5595 140.38 53.5595 141.091C53.5595 141.806 53.2463 142.328 52.6522 142.328C52.0779 142.328 51.7548 141.831 51.7548 141.091Z" fill="#858585"/>
<path d="M56.3461 143.077C56.9451 143.077 57.3031 142.796 57.4672 142.475H57.497V143H58.362V140.444C58.362 139.435 57.5392 139.132 56.8109 139.132C56.008 139.132 55.3915 139.49 55.1926 140.186L56.0328 140.305C56.1223 140.044 56.3759 139.82 56.8159 139.82C57.2335 139.82 57.4622 140.034 57.4622 140.409V140.424C57.4622 140.683 57.1912 140.695 56.5176 140.767C55.7768 140.847 55.0684 141.068 55.0684 141.928C55.0684 142.679 55.6177 143.077 56.3461 143.077ZM56.5797 142.415C56.2044 142.415 55.9359 142.244 55.9359 141.913C55.9359 141.568 56.2367 141.424 56.6394 141.366C56.8755 141.334 57.3478 141.275 57.4647 141.18V141.63C57.4647 142.055 57.1216 142.415 56.5797 142.415Z" fill="#858585"/>
<path d="M58.8393 139.92H60.0748V143H60.9448V139.92H62.1802V139.181H58.8393V139.92Z" fill="#858585"/>
<path d="M63.7643 140.424V139.181H62.8968V143H64.6318C65.6038 143 66.1631 142.463 66.1656 141.712C66.1631 140.941 65.6038 140.424 64.6318 140.424H63.7643ZM63.7643 141.163H64.6318C65.0221 141.163 65.303 141.394 65.303 141.724C65.303 142.04 65.0221 142.261 64.6318 142.261H63.7643V141.163Z" fill="#858585"/>
<path d="M68.6731 144.431H69.573V142.398H69.6103C69.752 142.676 70.0478 143.067 70.704 143.067C71.6039 143.067 72.2775 142.353 72.2775 141.096C72.2775 139.823 71.584 139.132 70.7015 139.132C70.0279 139.132 69.747 139.537 69.6103 139.813H69.5581V139.181H68.6731V144.431ZM69.5556 141.091C69.5556 140.35 69.8738 139.87 70.4529 139.87C71.052 139.87 71.3603 140.38 71.3603 141.091C71.3603 141.806 71.0471 142.328 70.4529 142.328C69.8787 142.328 69.5556 141.831 69.5556 141.091Z" fill="#858585"/>
<path d="M74.7136 143.074C75.8322 143.074 76.5431 142.286 76.5431 141.105C76.5431 139.922 75.8322 139.132 74.7136 139.132C73.595 139.132 72.8841 139.922 72.8841 141.105C72.8841 142.286 73.595 143.074 74.7136 143.074ZM74.7186 142.353C74.0996 142.353 73.7963 141.801 73.7963 141.103C73.7963 140.404 74.0996 139.845 74.7186 139.845C75.3276 139.845 75.6309 140.404 75.6309 141.103C75.6309 141.801 75.3276 142.353 74.7186 142.353Z" fill="#858585"/>
<path d="M77.0434 143H77.3218C78.1421 143 78.5125 142.423 78.5722 141.15L78.6318 139.92H79.7281V143H80.5981V139.181H77.814L77.7469 140.872C77.7046 141.943 77.5654 142.259 77.1702 142.259H77.0384L77.0434 143Z" fill="#858585"/>
<path d="M82.3717 141.782V139.181H81.5042V143H82.4314L83.9552 140.397V143H84.8252V139.181H83.9005L82.3717 141.782Z" fill="#858585"/>
<path d="M85.7493 143H86.6491V141.56H87.0891L88.1357 143H89.2244L87.7951 141.056L89.2095 139.181H88.1257L86.9773 140.723H86.6491V139.181H85.7493V143Z" fill="#858585"/>
<path d="M45.1562 159L45.5763 157.745H47.4904L47.913 159H48.8974L47.1026 153.909H45.9641L44.1719 159H45.1562ZM45.8249 157.004L46.5135 154.953H46.5533L47.2418 157.004H45.8249Z" fill="#858585"/>
<path d="M49.6089 160.432C50.3099 160.432 50.7151 160.071 50.9314 159.462L52.4651 155.187L51.5031 155.182L50.6206 158.065H50.5809L49.7009 155.182H48.7464L50.1309 159.08L50.0539 159.286C49.8873 159.721 49.6238 159.751 49.2311 159.636L49.0223 160.337C49.1441 160.387 49.3628 160.432 49.6089 160.432Z" fill="#858585"/>
<path d="M52.444 160.109H53.3289V159H55.8271V160.109H56.6972V158.259H56.1056V155.182H53.3463L53.2369 156.519C53.1649 157.374 53.0704 158.008 52.7472 158.259H52.444V160.109ZM53.672 158.259C53.9131 157.904 54.0026 157.327 54.0672 156.519L54.1269 155.908H55.2455V158.259H53.672Z" fill="#858585"/>
<path d="M58.2365 157.782V155.182H57.369V159H58.2962L59.82 156.397V159H60.69V155.182H59.7653L58.2365 157.782Z" fill="#858585"/>
<path d="M63.2796 159.075C64.3982 159.075 65.1091 158.287 65.1091 157.106C65.1091 155.923 64.3982 155.132 63.2796 155.132C62.161 155.132 61.45 155.923 61.45 157.106C61.45 158.287 62.161 159.075 63.2796 159.075ZM63.2845 158.354C62.6656 158.354 62.3623 157.802 62.3623 157.103C62.3623 156.405 62.6656 155.846 63.2845 155.846C63.8936 155.846 64.1968 156.405 64.1968 157.103C64.1968 157.802 63.8936 158.354 63.2845 158.354Z" fill="#858585"/>
<path d="M65.8729 160.432H66.7727V158.399H66.81C66.9517 158.677 67.2475 159.067 67.9038 159.067C68.8036 159.067 69.4773 158.354 69.4773 157.096C69.4773 155.823 68.7837 155.132 67.9013 155.132C67.2276 155.132 66.9467 155.537 66.81 155.813H66.7578V155.182H65.8729V160.432ZM66.7553 157.091C66.7553 156.35 67.0735 155.87 67.6527 155.87C68.2518 155.87 68.56 156.38 68.56 157.091C68.56 157.807 68.2468 158.329 67.6527 158.329C67.0785 158.329 66.7553 157.832 66.7553 157.091Z" fill="#858585"/>
<path d="M71.9134 159.075C73.032 159.075 73.7429 158.287 73.7429 157.106C73.7429 155.923 73.032 155.132 71.9134 155.132C70.7947 155.132 70.0838 155.923 70.0838 157.106C70.0838 158.287 70.7947 159.075 71.9134 159.075ZM71.9183 158.354C71.2994 158.354 70.9961 157.802 70.9961 157.103C70.9961 156.405 71.2994 155.846 71.9183 155.846C72.5273 155.846 72.8306 156.405 72.8306 157.103C72.8306 157.802 72.5273 158.354 71.9183 158.354Z" fill="#858585"/>
<path d="M74.2432 159H74.5216C75.3419 159 75.7123 158.423 75.7719 157.151L75.8316 155.92H76.9278V159H77.7979V155.182H75.0138L74.9466 156.872C74.9044 157.944 74.7652 158.259 74.3699 158.259H74.2382L74.2432 159Z" fill="#858585"/>
<path d="M79.5715 157.782V155.182H78.7039V159H79.6311L81.1549 156.397V159H82.0249V155.182H81.1002L79.5715 157.782Z" fill="#858585"/>
<path d="M82.949 159H83.8489V157.561H84.2889L85.3354 159H86.4242L84.9949 157.056L86.4093 155.182H85.3255L84.177 156.723H83.8489V155.182H82.949V159Z" fill="#858585"/>
<path d="M140.637 153.909V159H146.478V153.909H145.576V158.234H144.017V153.909H143.115V158.234H141.544V153.909H140.637Z" fill="#858585"/>
<path d="M148.678 159.077C149.277 159.077 149.635 158.796 149.799 158.475H149.829V159H150.694V156.444C150.694 155.435 149.871 155.132 149.142 155.132C148.34 155.132 147.723 155.49 147.524 156.186L148.364 156.305C148.454 156.044 148.707 155.82 149.147 155.82C149.565 155.82 149.794 156.034 149.794 156.409V156.424C149.794 156.683 149.523 156.695 148.849 156.767C148.108 156.847 147.4 157.068 147.4 157.928C147.4 158.679 147.949 159.077 148.678 159.077ZM148.911 158.415C148.536 158.415 148.267 158.244 148.267 157.913C148.267 157.568 148.568 157.424 148.971 157.366C149.207 157.334 149.679 157.275 149.796 157.18V157.63C149.796 158.055 149.453 158.415 148.911 158.415Z" fill="#858585"/>
<path d="M154.658 153.77C154.475 153.909 154.184 153.906 153.788 153.906C153.677 153.906 153.56 153.906 153.433 153.909C152.118 153.926 151.442 154.801 151.442 156.596V156.939C151.442 158.336 152.148 159.074 153.259 159.074C154.37 159.074 155.071 158.333 155.071 157.155C155.071 156.012 154.405 155.353 153.458 155.353C152.876 155.353 152.436 155.604 152.198 156.071H152.155C152.245 155.119 152.603 154.689 153.458 154.669C154.216 154.652 154.641 154.64 154.972 154.351L154.658 153.77ZM153.264 158.353C152.7 158.353 152.354 157.901 152.354 157.18C152.362 156.469 152.702 156.061 153.259 156.061C153.816 156.061 154.159 156.469 154.159 157.18C154.159 157.903 153.818 158.353 153.264 158.353Z" fill="#858585"/>
<path d="M155.573 159H155.852C156.672 159 157.042 158.423 157.102 157.15L157.162 155.92H158.258V159H159.128V155.181H156.344L156.277 156.872C156.234 157.943 156.095 158.259 155.7 158.259H155.568L155.573 159Z" fill="#858585"/>
<path d="M161.699 159.074C162.818 159.074 163.529 158.286 163.529 157.105C163.529 155.922 162.818 155.132 161.699 155.132C160.581 155.132 159.87 155.922 159.87 157.105C159.87 158.286 160.581 159.074 161.699 159.074ZM161.704 158.353C161.085 158.353 160.782 157.801 160.782 157.103C160.782 156.404 161.085 155.845 161.704 155.845C162.313 155.845 162.617 156.404 162.617 157.103C162.617 157.801 162.313 158.353 161.704 158.353Z" fill="#858585"/>
<path d="M165.16 155.181H164.293V159H165.16V157.456H166.639V159H167.504V155.181H166.639V156.718H165.16V155.181Z" fill="#858585"/>
<path d="M170.151 160.431H171.051V158.398H171.088C171.23 158.676 171.526 159.067 172.182 159.067C173.082 159.067 173.756 158.353 173.756 157.096C173.756 155.823 173.062 155.132 172.18 155.132C171.506 155.132 171.225 155.537 171.088 155.813H171.036V155.181H170.151V160.431ZM171.034 157.091C171.034 156.35 171.352 155.87 171.931 155.87C172.53 155.87 172.838 156.38 172.838 157.091C172.838 157.806 172.525 158.328 171.931 158.328C171.357 158.328 171.034 157.831 171.034 157.091Z" fill="#858585"/>
<path d="M176.192 159.074C177.31 159.074 178.021 158.286 178.021 157.105C178.021 155.922 177.31 155.132 176.192 155.132C175.073 155.132 174.362 155.922 174.362 157.105C174.362 158.286 175.073 159.074 176.192 159.074ZM176.197 158.353C175.578 158.353 175.274 157.801 175.274 157.103C175.274 156.404 175.578 155.845 176.197 155.845C176.806 155.845 177.109 156.404 177.109 157.103C177.109 157.801 176.806 158.353 176.197 158.353Z" fill="#858585"/>
<path d="M178.521 159H178.8C179.62 159 179.991 158.423 180.05 157.15L180.11 155.92H181.206V159H182.076V155.181H179.292L179.225 156.872C179.183 157.943 179.043 158.259 178.648 158.259H178.517L178.521 159Z" fill="#858585"/>
<path d="M183.85 157.782V155.181H182.982V159H183.909L185.433 156.397V159H186.303V155.181H185.379L183.85 157.782Z" fill="#858585"/>
<path d="M187.227 159H188.127V157.56H188.567L189.614 159H190.703L189.273 157.056L190.688 155.181H189.604L188.455 156.723H188.127V155.181H187.227V159Z" fill="#858585"/>
<path d="M192.311 159.077C192.911 159.077 193.268 158.796 193.433 158.475H193.462V159H194.327V156.444C194.327 155.435 193.505 155.132 192.776 155.132C191.973 155.132 191.357 155.49 191.158 156.186L191.998 156.305C192.088 156.044 192.341 155.82 192.781 155.82C193.199 155.82 193.428 156.034 193.428 156.409V156.424C193.428 156.683 193.157 156.695 192.483 156.767C191.742 156.847 191.034 157.068 191.034 157.928C191.034 158.679 191.583 159.077 192.311 159.077ZM192.545 158.415C192.17 158.415 191.901 158.244 191.901 157.913C191.901 157.568 192.202 157.424 192.605 157.366C192.841 157.334 193.313 157.275 193.43 157.18V157.63C193.43 158.055 193.087 158.415 192.545 158.415Z" fill="#858585"/>
<path d="M134.426 114.476C133.238 114.476 132.373 115.296 132.373 116.539C132.373 117.759 133.228 118.557 134.426 118.557H134.498V119.209H135.386V118.557H135.455C136.649 118.557 137.504 117.749 137.504 116.536C137.504 115.296 136.649 114.476 135.455 114.476H135.386V113.819H134.498V114.476H134.426ZM134.426 115.256H134.498V117.777H134.426C133.708 117.777 133.246 117.334 133.246 116.539C133.246 115.711 133.7 115.256 134.426 115.256ZM135.386 115.256H135.458C136.181 115.256 136.629 115.714 136.629 116.536C136.629 117.327 136.181 117.777 135.458 117.777H135.386V115.256Z" fill="#858585"/>
<path d="M139.209 117.782V115.182H138.341V119H139.269L140.792 116.397V119H141.662V115.182H140.738L139.209 117.782Z" fill="#858585"/>
<path d="M142.323 119H142.601C143.422 119 143.792 118.423 143.852 117.15L143.911 115.92H145.008V119H145.878V115.182H143.094L143.027 116.872C142.984 117.943 142.845 118.259 142.45 118.259H142.318L142.323 119Z" fill="#858585"/>
<path d="M147.651 116.424V115.182H146.784V119H148.519C149.491 119 150.05 118.463 150.053 117.712C150.05 116.941 149.491 116.424 148.519 116.424H147.651ZM147.651 117.163H148.519C148.909 117.163 149.19 117.394 149.19 117.725C149.19 118.04 148.909 118.261 148.519 118.261H147.651V117.163Z" fill="#858585"/>
<path d="M150.219 115.92H151.454V119H152.324V115.92H153.559V115.182H150.219V115.92Z" fill="#858585"/>
<path d="M154.276 120.432H155.176V118.398H155.213C155.355 118.677 155.651 119.067 156.307 119.067C157.207 119.067 157.88 118.353 157.88 117.096C157.88 115.823 157.187 115.132 156.304 115.132C155.631 115.132 155.35 115.537 155.213 115.813H155.161V115.182H154.276V120.432ZM155.158 117.091C155.158 116.35 155.477 115.87 156.056 115.87C156.655 115.87 156.963 116.38 156.963 117.091C156.963 117.807 156.65 118.329 156.056 118.329C155.482 118.329 155.158 117.831 155.158 117.091Z" fill="#858585"/>
<path d="M160.387 119H161.247V115.92H162.744V119H163.611V115.182H160.387V119Z" fill="#858585"/>
<path d="M166.202 119.074C167.321 119.074 168.032 118.286 168.032 117.106C168.032 115.922 167.321 115.132 166.202 115.132C165.084 115.132 164.373 115.922 164.373 117.106C164.373 118.286 165.084 119.074 166.202 119.074ZM166.207 118.353C165.588 118.353 165.285 117.802 165.285 117.103C165.285 116.405 165.588 115.845 166.207 115.845C166.816 115.845 167.119 116.405 167.119 117.103C167.119 117.802 166.816 118.353 166.207 118.353Z" fill="#858585"/>
<path d="M172.789 119H173.632V115.182H171.974C171.039 115.182 170.46 115.661 170.462 116.395C170.46 116.877 170.723 117.242 171.178 117.429L170.323 119H171.208L171.991 117.563H172.789V119ZM172.789 116.907H171.944C171.549 116.907 171.33 116.7 171.332 116.415C171.33 116.129 171.561 115.912 171.974 115.912H172.789V116.907Z" fill="#858585"/>
<path d="M174.326 117.953C174.349 118.662 174.998 119.074 175.88 119.074C176.785 119.074 177.439 118.644 177.439 117.941C177.439 117.426 177.088 117.073 176.636 117.046V117.006C177.073 116.889 177.352 116.616 177.352 116.203C177.352 115.559 176.795 115.132 175.9 115.132C175.065 115.132 174.436 115.564 174.423 116.231H175.311C175.321 115.975 175.584 115.796 175.942 115.796C176.3 115.796 176.516 115.987 176.516 116.27C176.516 116.531 176.318 116.725 175.945 116.725H175.361V117.364H175.945C176.32 117.364 176.566 117.575 176.566 117.884C176.566 118.232 176.26 118.401 175.875 118.401C175.495 118.401 175.236 118.237 175.219 117.953H174.326Z" fill="#858585"/>
<path d="M179.015 116.424V115.182H178.147V119H179.882C180.854 119 181.413 118.463 181.416 117.712C181.413 116.941 180.854 116.424 179.882 116.424H179.015ZM181.891 119H182.791V115.182H181.891V119ZM179.015 117.163H179.882C180.272 117.163 180.553 117.394 180.553 117.725C180.553 118.04 180.272 118.261 179.882 118.261H179.015V117.163Z" fill="#858585"/>
<path d="M183.718 119H184.618V117.56H185.058L186.105 119H187.194L185.764 117.056L187.179 115.182H186.095L184.946 116.723H184.618V115.182H183.718V119Z" fill="#858585"/>
<path d="M188.304 120.432C189.005 120.432 189.41 120.071 189.627 119.462L191.16 115.187L190.198 115.182L189.316 118.065H189.276L188.396 115.182H187.441L188.826 119.079L188.749 119.286C188.582 119.721 188.319 119.75 187.926 119.636L187.717 120.337C187.839 120.387 188.058 120.432 188.304 120.432Z" fill="#858585"/>
<path fill-rule="evenodd" clip-rule="evenodd" d="M36 127.5C36 126.672 36.6716 126 37.5 126H114.5C115.328 126 116 126.672 116 127.5C116 128.328 115.328 129 114.5 129H37.5C36.6716 129 36 128.328 36 127.5ZM96 141.5C96 140.672 96.6716 140 97.5 140H234.5C235.328 140 236 140.672 236 141.5C236 142.328 235.328 143 234.5 143H97.5C96.6716 143 96 142.328 96 141.5ZM133.5 126C132.672 126 132 126.672 132 127.5C132 128.328 132.672 129 133.5 129H234.5C235.328 129 236 128.328 236 127.5C236 126.672 235.328 126 234.5 126H133.5Z" fill="#E6E6E6"/>
<circle cx="38.5" cy="156.5" r="2" stroke="#838383"/>
<path fill-rule="evenodd" clip-rule="evenodd" d="M136 156.5C136 157.328 135.328 158 134.5 158C133.672 158 133 157.328 133 156.5C133 155.672 133.672 155 134.5 155C135.328 155 136 155.672 136 156.5ZM137 156.5C137 157.881 135.881 159 134.5 159C133.119 159 132 157.881 132 156.5C132 155.119 133.119 154 134.5 154C135.881 154 137 155.119 137 156.5ZM134.5 157C134.776 157 135 156.776 135 156.5C135 156.224 134.776 156 134.5 156C134.224 156 134 156.224 134 156.5C134 156.776 134.224 157 134.5 157Z" fill="#838383"/>
<g filter="url(#filter2_d_1059_7693)">
<rect x="25" y="182" width="222" height="91" rx="7" fill="white"/>
</g>
<path d="M36.6465 202H37.8322V199.788H39.085C40.5968 199.788 41.4086 198.88 41.4086 197.621C41.4086 196.371 40.6064 195.454 39.101 195.454H36.6465V202ZM37.8322 198.813V196.445H38.9189C39.8074 196.445 40.2005 196.924 40.2005 197.621C40.2005 198.318 39.8074 198.813 38.9252 198.813H37.8322Z" fill="#3C3A3E"/>
<path d="M44.4903 202.095C45.6345 202.095 46.4207 201.536 46.6253 200.683L45.545 200.561C45.3884 200.977 45.0049 201.194 44.5063 201.194C43.7584 201.194 43.2631 200.702 43.2535 199.861H46.6732V199.507C46.6732 197.784 45.6377 197.027 44.4296 197.027C43.0233 197.027 42.1061 198.059 42.1061 199.574C42.1061 201.114 43.0106 202.095 44.4903 202.095ZM43.2567 199.082C43.2918 198.455 43.7552 197.928 44.4456 197.928C45.1104 197.928 45.5578 198.414 45.5642 199.082H43.2567Z" fill="#3C3A3E"/>
<path d="M49.0646 202.099C49.8349 202.099 50.2951 201.737 50.506 201.325H50.5444V202H51.6566V198.714C51.6566 197.416 50.5987 197.027 49.6623 197.027C48.63 197.027 47.8374 197.487 47.5817 198.382L48.6619 198.535C48.777 198.199 49.103 197.912 49.6687 197.912C50.2056 197.912 50.4996 198.187 50.4996 198.669V198.688C50.4996 199.021 50.1513 199.037 49.2852 199.13C48.3327 199.232 47.4219 199.516 47.4219 200.622C47.4219 201.587 48.1282 202.099 49.0646 202.099ZM49.3651 201.248C48.8825 201.248 48.5373 201.028 48.5373 200.603C48.5373 200.159 48.924 199.973 49.4418 199.9C49.7454 199.858 50.3526 199.782 50.5028 199.66V200.239C50.5028 200.785 50.0618 201.248 49.3651 201.248Z" fill="#3C3A3E"/>
<path d="M52.82 202H53.9769V200.149H54.5426L55.8881 202H57.288L55.4503 199.5L57.2688 197.09H55.8754L54.3988 199.072H53.9769V197.09H52.82V202Z" fill="#3C3A3E"/>
<path d="M62.0892 197.09H60.9834V201.05H59.0594V197.09H57.944V202H61.7089V203.578H62.8403V201.137H62.0892V197.09Z" fill="#3C3A3E"/>
<path d="M64.9041 200.434V197.09H63.7887V202H64.9808L66.94 198.653V202H68.0586V197.09H66.8697L64.9041 200.434Z" fill="#3C3A3E"/>
<path d="M72.1487 202H73.2322V197.09H71.1004C69.8987 197.09 69.154 197.707 69.1572 198.65C69.154 199.27 69.4928 199.74 70.0777 199.98L68.9782 202H70.116L71.1228 200.152H72.1487V202ZM72.1487 199.309H71.0621C70.5539 199.309 70.2726 199.043 70.2758 198.676C70.2726 198.308 70.5699 198.03 71.1004 198.03H72.1487V199.309Z" fill="#3C3A3E"/>
<path d="M77.7449 197.09H76.6295V202H77.7449V200.015H79.6466V202H80.7588V197.09H79.6466V199.066H77.7449V197.09Z" fill="#3C3A3E"/>
<path d="M83.342 202.099C84.1122 202.099 84.5724 201.737 84.7834 201.325H84.8217V202H85.9339V198.714C85.9339 197.416 84.8761 197.027 83.9396 197.027C82.9073 197.027 82.1147 197.487 81.859 198.382L82.9393 198.535C83.0543 198.199 83.3803 197.912 83.946 197.912C84.483 197.912 84.777 198.187 84.777 198.669V198.688C84.777 199.021 84.4286 199.037 83.5625 199.13C82.6101 199.232 81.6992 199.516 81.6992 200.622C81.6992 201.587 82.4055 202.099 83.342 202.099ZM83.6424 201.248C83.1598 201.248 82.8146 201.028 82.8146 200.603C82.8146 200.159 83.2013 199.973 83.7191 199.9C84.0227 199.858 84.63 199.782 84.7802 199.66V200.239C84.7802 200.785 84.3391 201.248 83.6424 201.248Z" fill="#3C3A3E"/>
<path d="M91.4711 202.095C92.9093 202.095 93.8233 201.082 93.8233 199.564C93.8233 198.043 92.9093 197.027 91.4711 197.027C90.0328 197.027 89.1188 198.043 89.1188 199.564C89.1188 201.082 90.0328 202.095 91.4711 202.095ZM91.4775 201.169C90.6816 201.169 90.2917 200.459 90.2917 199.561C90.2917 198.663 90.6816 197.944 91.4775 197.944C92.2605 197.944 92.6504 198.663 92.6504 199.561C92.6504 200.459 92.2605 201.169 91.4775 201.169Z" fill="#3C3A3E"/>
<path d="M94.2732 198.04H95.8616V202H96.9802V198.04H98.5686V197.09H94.2732V198.04Z" fill="#3C3A3E"/>
<path d="M99.4899 202H101.868C103.018 202 103.677 201.479 103.677 200.667C103.677 199.98 103.143 199.5 102.373 199.433C103.028 199.312 103.437 198.963 103.437 198.41C103.437 197.583 102.711 197.09 101.551 197.09H99.4899V202ZM100.573 201.089V199.871H101.868C102.293 199.871 102.552 200.117 102.552 200.523C102.552 200.875 102.293 201.089 101.868 201.089H100.573ZM100.573 199.123V198.017H101.551C102.034 198.017 102.328 198.222 102.328 198.557C102.328 198.909 102.044 199.123 101.574 199.123H100.573Z" fill="#3C3A3E"/>
<path d="M106.805 202.095C107.949 202.095 108.735 201.536 108.94 200.683L107.859 200.561C107.703 200.977 107.319 201.194 106.821 201.194C106.073 201.194 105.578 200.702 105.568 199.861H108.988V199.507C108.988 197.784 107.952 197.027 106.744 197.027C105.338 197.027 104.421 198.059 104.421 199.574C104.421 201.114 105.325 202.095 106.805 202.095ZM105.571 199.082C105.606 198.455 106.07 197.928 106.76 197.928C107.425 197.928 107.872 198.414 107.879 199.082H105.571Z" fill="#3C3A3E"/>
<path d="M109.557 198.04H111.146V202H112.264V198.04H113.853V197.09H109.557V198.04Z" fill="#3C3A3E"/>
<path d="M115.889 198.688V197.09H114.774V202H117.005C118.255 202 118.974 201.309 118.977 200.344C118.974 199.353 118.255 198.688 117.005 198.688H115.889ZM119.587 202H120.744V197.09H119.587V202ZM115.889 199.638H117.005C117.507 199.638 117.868 199.935 117.868 200.36C117.868 200.766 117.507 201.05 117.005 201.05H115.889V199.638Z" fill="#3C3A3E"/>
<path d="M36.9572 231.069H37.3201C38.1355 231.069 38.4363 230.597 38.6774 230.06L40.4324 225.909H39.4828L38.3865 228.633L37.1188 225.909H36.1543L37.9739 229.653L37.9068 229.824C37.8024 230.11 37.6433 230.294 37.248 230.294H36.9572V231.069Z" fill="#858585"/>
<path d="M42.004 231.074C42.9635 231.074 43.575 230.505 43.6396 229.695H42.7796C42.7025 230.105 42.4067 230.341 42.0115 230.341C41.4497 230.341 41.0867 229.871 41.0867 229.091C41.0867 228.32 41.4571 227.858 42.0115 227.858C42.444 227.858 42.71 228.136 42.7796 228.504H43.6396C43.5775 227.676 42.9312 227.132 41.999 227.132C40.8804 227.132 40.1744 227.94 40.1744 229.106C40.1744 230.262 40.863 231.074 42.004 231.074Z" fill="#858585"/>
<path d="M44.1082 227.92H45.3437V231H46.2137V227.92H47.4491V227.182H44.1082V227.92Z" fill="#858585"/>
<path d="M49.1072 231.077C49.7062 231.077 50.0642 230.796 50.2282 230.475H50.2581V231H51.1231V228.444C51.1231 227.435 50.3003 227.132 49.572 227.132C48.7691 227.132 48.1526 227.49 47.9537 228.186L48.7939 228.305C48.8834 228.044 49.137 227.82 49.577 227.82C49.9946 227.82 50.2233 228.034 50.2233 228.41V228.425C50.2233 228.683 49.9523 228.695 49.2787 228.768C48.5379 228.847 47.8295 229.068 47.8295 229.928C47.8295 230.679 48.3788 231.077 49.1072 231.077ZM49.3408 230.416C48.9655 230.416 48.697 230.244 48.697 229.914C48.697 229.568 48.9978 229.424 49.4005 229.367C49.6366 229.334 50.1089 229.275 50.2258 229.18V229.63C50.2258 230.055 49.8827 230.416 49.3408 230.416Z" fill="#858585"/>
<path d="M52.8955 227.182H52.028V231H52.8955V229.456H54.3746V231H55.2396V227.182H54.3746V228.718H52.8955V227.182Z" fill="#858585"/>
<path d="M57.8155 231.074C58.9341 231.074 59.6451 230.286 59.6451 229.106C59.6451 227.922 58.9341 227.132 57.8155 227.132C56.6969 227.132 55.986 227.922 55.986 229.106C55.986 230.286 56.6969 231.074 57.8155 231.074ZM57.8205 230.354C57.2015 230.354 56.8983 229.802 56.8983 229.103C56.8983 228.405 57.2015 227.845 57.8205 227.845C58.4295 227.845 58.7328 228.405 58.7328 229.103C58.7328 229.802 58.4295 230.354 57.8205 230.354Z" fill="#858585"/>
<path d="M60.4088 231H62.2583C63.1531 231 63.6652 230.595 63.6652 229.963C63.6652 229.429 63.2501 229.056 62.651 229.004C63.1606 228.909 63.4788 228.638 63.4788 228.208C63.4788 227.564 62.9145 227.182 62.0122 227.182H60.4088V231ZM61.2515 230.291V229.344H62.2583C62.5889 229.344 62.7902 229.536 62.7902 229.851C62.7902 230.125 62.5889 230.291 62.2583 230.291H61.2515ZM61.2515 228.763V227.903H62.0122C62.3875 227.903 62.6162 228.062 62.6162 228.323C62.6162 228.596 62.395 228.763 62.0296 228.763H61.2515Z" fill="#858585"/>
<path d="M65.2754 229.782V227.182H64.4078V231H65.3351L66.8588 228.397V231H67.7289V227.182H66.8042L65.2754 229.782Z" fill="#858585"/>
<path d="M68.2254 227.92H69.4608V231H70.3309V227.92H71.5663V227.182H68.2254V227.92Z" fill="#858585"/>
<path d="M73.816 231.074C74.7059 231.074 75.3174 230.639 75.4765 229.976L74.6363 229.881C74.5145 230.204 74.2162 230.373 73.8284 230.373C73.2467 230.373 72.8614 229.991 72.854 229.337H75.5138V229.061C75.5138 227.721 74.7084 227.132 73.7687 227.132C72.675 227.132 71.9616 227.935 71.9616 229.113C71.9616 230.311 72.665 231.074 73.816 231.074ZM72.8564 228.73C72.8838 228.243 73.2442 227.833 73.7812 227.833C74.2982 227.833 74.6462 228.211 74.6512 228.73H72.8564Z" fill="#858585"/>
<path d="M78.0114 232.432H78.9112V230.398H78.9485C79.0902 230.677 79.386 231.067 80.0423 231.067C80.9421 231.067 81.6158 230.354 81.6158 229.096C81.6158 227.823 80.9222 227.132 80.0398 227.132C79.3661 227.132 79.0852 227.537 78.9485 227.813H78.8963V227.182H78.0114V232.432ZM78.8938 229.091C78.8938 228.35 79.212 227.87 79.7912 227.87C80.3903 227.87 80.6985 228.38 80.6985 229.091C80.6985 229.807 80.3853 230.329 79.7912 230.329C79.217 230.329 78.8938 229.831 78.8938 229.091Z" fill="#858585"/>
<path d="M84.0767 231.074C84.9666 231.074 85.5781 230.639 85.7372 229.976L84.897 229.881C84.7752 230.204 84.4769 230.373 84.0891 230.373C83.5075 230.373 83.1222 229.991 83.1147 229.337H85.7745V229.061C85.7745 227.721 84.9691 227.132 84.0295 227.132C82.9357 227.132 82.2223 227.935 82.2223 229.113C82.2223 230.311 82.9258 231.074 84.0767 231.074ZM83.1172 228.73C83.1445 228.243 83.505 227.833 84.0419 227.833C84.5589 227.833 84.907 228.211 84.9119 228.73H83.1172Z" fill="#858585"/>
<path d="M87.6345 231.077C88.2336 231.077 88.5915 230.796 88.7556 230.475H88.7854V231H89.6505V228.444C89.6505 227.435 88.8277 227.132 88.0993 227.132C87.2964 227.132 86.68 227.49 86.4811 228.186L87.3213 228.305C87.4108 228.044 87.6643 227.82 88.1043 227.82C88.5219 227.82 88.7506 228.034 88.7506 228.41V228.425C88.7506 228.683 88.4797 228.695 87.806 228.768C87.0653 228.847 86.3568 229.068 86.3568 229.928C86.3568 230.679 86.9062 231.077 87.6345 231.077ZM87.8682 230.416C87.4928 230.416 87.2243 230.244 87.2243 229.914C87.2243 229.568 87.5251 229.424 87.9278 229.367C88.164 229.334 88.6363 229.275 88.7531 229.18V229.63C88.7531 230.055 88.4101 230.416 87.8682 230.416Z" fill="#858585"/>
<path d="M90.5553 231H91.4552V229.561H91.8952L92.9417 231H94.0305L92.6011 229.056L94.0155 227.182H92.9317L91.7833 228.723H91.4552V227.182H90.5553V231Z" fill="#858585"/>
<path d="M97.7647 227.182H96.9047V230.262H95.4082V227.182H94.5407V231H97.4689V232.228H98.3489V230.329H97.7647V227.182Z" fill="#858585"/>
<path d="M99.9541 229.782V227.182H99.0866V231H100.014L101.538 228.397V231H102.408V227.182H101.483L99.9541 229.782Z" fill="#858585"/>
<path d="M104.005 227.182H103.103V231H104.005V229.486H104.726C104.865 230.441 105.524 231.074 106.501 231.074C107.602 231.074 108.301 230.267 108.303 229.098C108.301 227.93 107.602 227.132 106.501 227.132C105.512 227.132 104.848 227.773 104.721 228.745H104.005V227.182ZM106.501 230.329C105.845 230.329 105.564 229.792 105.564 229.098C105.564 228.405 105.845 227.87 106.501 227.87C107.155 227.87 107.433 228.41 107.433 229.098C107.433 229.789 107.155 230.329 106.501 230.329Z" fill="#858585"/>
<path d="M111.705 227.182H110.838V231H111.705V229.456H113.184V231H114.049V227.182H113.184V228.718H111.705V227.182Z" fill="#858585"/>
<path d="M116.058 231.077C116.657 231.077 117.015 230.796 117.179 230.475H117.209V231H118.074V228.444C118.074 227.435 117.252 227.132 116.523 227.132C115.72 227.132 115.104 227.49 114.905 228.186L115.745 228.305C115.835 228.044 116.088 227.82 116.528 227.82C116.946 227.82 117.174 228.034 117.174 228.41V228.425C117.174 228.683 116.904 228.695 116.23 228.768C115.489 228.847 114.781 229.068 114.781 229.928C114.781 230.679 115.33 231.077 116.058 231.077ZM116.292 230.416C115.917 230.416 115.648 230.244 115.648 229.914C115.648 229.568 115.949 229.424 116.352 229.367C116.588 229.334 117.06 229.275 117.177 229.18V229.63C117.177 230.055 116.834 230.416 116.292 230.416Z" fill="#858585"/>
<path d="M120.377 232.108H121.262V231H123.761V232.108H124.631V230.259H124.039V227.182H121.28L121.17 228.519C121.098 229.374 121.004 230.008 120.681 230.259H120.377V232.108ZM121.605 230.259C121.846 229.904 121.936 229.327 122.001 228.519L122.06 227.907H123.179V230.259H121.605Z" fill="#858585"/>
<path d="M126.993 231.074C127.883 231.074 128.494 230.639 128.653 229.976L127.813 229.881C127.691 230.204 127.393 230.373 127.005 230.373C126.423 230.373 126.038 229.991 126.031 229.337H128.691V229.061C128.691 227.721 127.885 227.132 126.945 227.132C125.852 227.132 125.138 227.935 125.138 229.113C125.138 230.311 125.842 231.074 126.993 231.074ZM126.033 228.73C126.061 228.243 126.421 227.833 126.958 227.833C127.475 227.833 127.823 228.211 127.828 228.73H126.033Z" fill="#858585"/>
<path d="M130.319 229.782V227.182H129.452V231H130.379L131.903 228.397V231H132.773V227.182H131.848L130.319 229.782ZM131.602 225.869C131.6 226.113 131.46 226.329 131.11 226.329C130.754 226.329 130.62 226.108 130.62 225.869H129.951C129.949 226.451 130.399 226.844 131.11 226.844C131.826 226.844 132.276 226.451 132.276 225.869H131.602Z" fill="#858585"/>
<path d="M135.362 231.074C136.322 231.074 136.933 230.505 136.998 229.695H136.138C136.061 230.105 135.765 230.341 135.37 230.341C134.808 230.341 134.445 229.871 134.445 229.091C134.445 228.32 134.816 227.858 135.37 227.858C135.802 227.858 136.068 228.136 136.138 228.504H136.998C136.936 227.676 136.29 227.132 135.357 227.132C134.239 227.132 133.533 227.94 133.533 229.106C133.533 230.262 134.221 231.074 135.362 231.074Z" fill="#858585"/>
<path d="M137.467 227.92H138.702V231H139.572V227.92H140.808V227.182H137.467V227.92Z" fill="#858585"/>
<path d="M141.524 231H143.373C144.268 231 144.78 230.595 144.78 229.963C144.78 229.429 144.365 229.056 143.766 229.004C144.276 228.909 144.594 228.638 144.594 228.208C144.594 227.564 144.03 227.182 143.127 227.182H141.524V231ZM142.367 230.291V229.344H143.373C143.704 229.344 143.905 229.536 143.905 229.851C143.905 230.125 143.704 230.291 143.373 230.291H142.367ZM142.367 228.763V227.903H143.127C143.503 227.903 143.731 228.062 143.731 228.323C143.731 228.596 143.51 228.763 143.145 228.763H142.367Z" fill="#858585"/>
<path d="M146.391 229.782V227.182H145.523V231H146.45L147.974 228.397V231H148.844V227.182H147.919L146.391 229.782Z" fill="#858585"/>
<path d="M151.459 231.074C152.348 231.074 152.96 230.639 153.119 229.976L152.279 229.881C152.157 230.204 151.859 230.373 151.471 230.373C150.889 230.373 150.504 229.991 150.497 229.337H153.156V229.061C153.156 227.721 152.351 227.132 151.411 227.132C150.318 227.132 149.604 227.935 149.604 229.113C149.604 230.311 150.308 231.074 151.459 231.074ZM150.499 228.73C150.526 228.243 150.887 227.833 151.424 227.833C151.941 227.833 152.289 228.211 152.294 228.73H150.499Z" fill="#858585"/>
<path d="M155.654 231H156.554V229.561H156.994L158.04 231H159.129L157.7 229.056L159.114 227.182H158.03L156.882 228.723H156.554V227.182H155.654V231Z" fill="#858585"/>
<path d="M159.376 231H159.654C160.475 231 160.845 230.423 160.905 229.15L160.964 227.92H162.06V231H162.93V227.182H160.146L160.079 228.872C160.037 229.943 159.898 230.259 159.503 230.259H159.371L159.376 231Z" fill="#858585"/>
<path d="M164.704 229.782V227.182H163.837V231H164.764L166.288 228.397V231H167.158V227.182H166.233L164.704 229.782Z" fill="#858585"/>
<path d="M169.772 231.074C170.662 231.074 171.273 230.639 171.433 229.976L170.592 229.881C170.471 230.204 170.172 230.373 169.784 230.373C169.203 230.373 168.817 229.991 168.81 229.337H171.47V229.061C171.47 227.721 170.664 227.132 169.725 227.132C168.631 227.132 167.918 227.935 167.918 229.113C167.918 230.311 168.621 231.074 169.772 231.074ZM168.812 228.73C168.84 228.243 169.2 227.833 169.737 227.833C170.254 227.833 170.602 228.211 170.607 228.73H168.812Z" fill="#858585"/>
<path d="M173.099 227.182H172.231V231H173.099V229.456H174.578V231H175.443V227.182H174.578V228.718H173.099V227.182Z" fill="#858585"/>
<path d="M175.926 227.92H177.161V231H178.031V227.92H179.267V227.182H175.926V227.92Z" fill="#858585"/>
<path d="M181.491 231.074C182.61 231.074 183.321 230.286 183.321 229.106C183.321 227.922 182.61 227.132 181.491 227.132C180.373 227.132 179.662 227.922 179.662 229.106C179.662 230.286 180.373 231.074 181.491 231.074ZM181.496 230.354C180.877 230.354 180.574 229.802 180.574 229.103C180.574 228.405 180.877 227.845 181.496 227.845C182.105 227.845 182.409 228.405 182.409 229.103C182.409 229.802 182.105 230.354 181.496 230.354Z" fill="#858585"/>
<path d="M184.085 231H185.934C186.829 231 187.341 230.595 187.341 229.963C187.341 229.429 186.926 229.056 186.327 229.004C186.836 228.909 187.155 228.638 187.155 228.208C187.155 227.564 186.59 227.182 185.688 227.182H184.085V231ZM184.927 230.291V229.344H185.934C186.265 229.344 186.466 229.536 186.466 229.851C186.466 230.125 186.265 230.291 185.934 230.291H184.927ZM184.927 228.763V227.903H185.688C186.063 227.903 186.292 228.062 186.292 228.323C186.292 228.596 186.071 228.763 185.705 228.763H184.927Z" fill="#858585"/>
<path d="M188.638 231.055C188.931 231.055 189.182 230.811 189.185 230.508C189.182 230.209 188.931 229.966 188.638 229.966C188.335 229.966 188.089 230.209 188.091 230.508C188.089 230.811 188.335 231.055 188.638 231.055ZM188.638 228.328C188.931 228.328 189.182 228.084 189.185 227.781C189.182 227.482 188.931 227.239 188.638 227.239C188.335 227.239 188.089 227.482 188.091 227.781C188.089 228.084 188.335 228.328 188.638 228.328Z" fill="#858585"/>
<path fill-rule="evenodd" clip-rule="evenodd" d="M37.5 210C36.6716 210 36 210.672 36 211.5C36 212.328 36.6716 213 37.5 213H146.5C147.328 213 148 212.328 148 211.5C148 210.672 147.328 210 146.5 210H37.5ZM37.5 238C36.6716 238 36 238.672 36 239.5C36 240.328 36.6716 241 37.5 241H91.5C92.3284 241 93 240.328 93 239.5C93 238.672 92.3284 238 91.5 238H37.5ZM101 239.5C101 238.672 101.672 238 102.5 238H195.5C196.328 238 197 238.672 197 239.5C197 240.328 196.328 241 195.5 241H102.5C101.672 241 101 240.328 101 239.5ZM157.5 210C156.672 210 156 210.672 156 211.5C156 212.328 156.672 213 157.5 213H234.5C235.328 213 236 212.328 236 211.5C236 210.672 235.328 210 234.5 210H157.5Z" fill="#E6E6E6"/>
<path d="M37.9647 258.184H38.7452V256.855H40.0751V256.074H38.7452V254.744H37.9647V256.074H36.6348V256.855H37.9647V258.184Z" fill="#F4774C"/>
<path d="M47.1031 253.909H43.0463V259H43.961V254.675H46.1883V259H47.1031V253.909Z" fill="#F4774C"/>
<path d="M49.8319 259.074C50.9505 259.074 51.6614 258.286 51.6614 257.106C51.6614 255.922 50.9505 255.132 49.8319 255.132C48.7132 255.132 48.0023 255.922 48.0023 257.106C48.0023 258.286 48.7132 259.074 49.8319 259.074ZM49.8368 258.354C49.2179 258.354 48.9146 257.802 48.9146 257.103C48.9146 256.405 49.2179 255.845 49.8368 255.845C50.4458 255.845 50.7491 256.405 50.7491 257.103C50.7491 257.802 50.4458 258.354 49.8368 258.354Z" fill="#F4774C"/>
<path d="M52.0871 260.108H52.972V259H55.4703V260.108H56.3403V258.259H55.7487V255.182H52.9894L52.8801 256.519C52.808 257.374 52.7135 258.008 52.3904 258.259H52.0871V260.108ZM53.3151 258.259C53.5562 257.904 53.6457 257.327 53.7103 256.519L53.77 255.907H54.8886V258.259H53.3151Z" fill="#F4774C"/>
<path d="M57.0121 259H57.9119V257.561H58.3519L59.3984 259H60.4872L59.0579 257.056L60.4723 255.182H59.3885L58.2401 256.723H57.9119V255.182H57.0121V259Z" fill="#F4774C"/>
<path d="M60.7339 259H61.0123C61.8327 259 62.203 258.423 62.2627 257.15L62.3224 255.92H63.4186V259H64.2886V255.182H61.5045L61.4374 256.872C61.3952 257.943 61.2559 258.259 60.8607 258.259H60.729L60.7339 259Z" fill="#F4774C"/>
<path d="M65.8683 255.182H64.966V259H65.8683V257.486H66.5892C66.7284 258.441 67.3872 259.074 68.3641 259.074C69.4653 259.074 70.1638 258.267 70.1663 257.098C70.1638 255.93 69.4653 255.132 68.3641 255.132C67.3747 255.132 66.711 255.773 66.5843 256.745H65.8683V255.182ZM68.3641 258.329C67.7078 258.329 67.4269 257.792 67.4269 257.098C67.4269 256.405 67.7078 255.87 68.3641 255.87C69.0178 255.87 69.2963 256.41 69.2963 257.098C69.2963 257.789 69.0178 258.329 68.3641 258.329Z" fill="#F4774C"/>
<path d="M74.1535 255.182H73.2884V257.046C73.0697 257.101 72.8534 257.131 72.6173 257.131C72.0853 257.131 71.8243 256.942 71.8243 256.449V255.177H70.9642V256.449C70.9642 257.424 71.5981 257.869 72.6173 257.869C72.841 257.869 73.0747 257.839 73.2884 257.789V259H74.1535V255.182Z" fill="#F4774C"/>
<path d="M75.9265 257.782V255.182H75.0589V259H75.9861L77.5099 256.397V259H78.38V255.182H77.4553L75.9265 257.782Z" fill="#F4774C"/>
<path d="M78.8765 255.92H80.1119V259H80.982V255.92H82.2174V255.182H78.8765V255.92Z" fill="#F4774C"/>
<path d="M83.8015 256.425V255.182H82.9339V259H84.669C85.641 259 86.2003 258.463 86.2028 257.712C86.2003 256.942 85.641 256.425 84.669 256.425H83.8015ZM83.8015 257.163H84.669C85.0593 257.163 85.3402 257.394 85.3402 257.725C85.3402 258.04 85.0593 258.262 84.669 258.262H83.8015V257.163Z" fill="#F4774C"/>
<path d="M89.5779 255.182H88.7103V259H89.5779V257.456H91.0569V259H91.922V255.182H91.0569V256.718H89.5779V255.182Z" fill="#F4774C"/>
<path d="M94.4979 259.074C95.6165 259.074 96.3274 258.286 96.3274 257.106C96.3274 255.922 95.6165 255.132 94.4979 255.132C93.3793 255.132 92.6683 255.922 92.6683 257.106C92.6683 258.286 93.3793 259.074 94.4979 259.074ZM94.5028 258.354C93.8839 258.354 93.5806 257.802 93.5806 257.103C93.5806 256.405 93.8839 255.845 94.5028 255.845C95.1119 255.845 95.4151 256.405 95.4151 257.103C95.4151 257.802 95.1119 258.354 94.5028 258.354Z" fill="#F4774C"/>
<path d="M97.0912 259H98.9406C99.8355 259 100.348 258.595 100.348 257.963C100.348 257.429 99.9324 257.056 99.3334 257.004C99.8429 256.909 100.161 256.638 100.161 256.208C100.161 255.564 99.5969 255.182 98.6945 255.182H97.0912V259ZM97.9339 258.291V257.344H98.9406C99.2712 257.344 99.4726 257.536 99.4726 257.851C99.4726 258.125 99.2712 258.291 98.9406 258.291H97.9339ZM97.9339 256.763V255.903H98.6945C99.0699 255.903 99.2986 256.062 99.2986 256.323C99.2986 256.596 99.0773 256.763 98.7119 256.763H97.9339Z" fill="#F4774C"/>
<path d="M101.958 256.425V255.182H101.09V259H102.825C103.797 259 104.357 258.463 104.359 257.712C104.357 256.942 103.797 256.425 102.825 256.425H101.958ZM104.834 259H105.734V255.182H104.834V259ZM101.958 257.163H102.825C103.216 257.163 103.496 257.394 103.496 257.725C103.496 258.04 103.216 258.262 102.825 258.262H101.958V257.163Z" fill="#F4774C"/>
<path d="M107.529 257.782V255.182H106.661V259H107.589L109.112 256.397V259H109.983V255.182H109.058L107.529 257.782ZM108.812 253.869C108.809 254.113 108.67 254.329 108.32 254.329C107.964 254.329 107.83 254.108 107.83 253.869H107.161C107.159 254.451 107.609 254.844 108.32 254.844C109.035 254.844 109.485 254.451 109.485 253.869H108.812Z" fill="#F4774C"/>
<path d="M113.51 255.182H112.643V259H113.51V257.456H114.99V259H115.855V255.182H114.99V256.718H113.51V255.182Z" fill="#F4774C"/>
<path d="M118.43 259.074C119.549 259.074 120.26 258.286 120.26 257.106C120.26 255.922 119.549 255.132 118.43 255.132C117.312 255.132 116.601 255.922 116.601 257.106C116.601 258.286 117.312 259.074 118.43 259.074ZM118.435 258.354C117.816 258.354 117.513 257.802 117.513 257.103C117.513 256.405 117.816 255.845 118.435 255.845C119.044 255.845 119.348 256.405 119.348 257.103C119.348 257.802 119.044 258.354 118.435 258.354Z" fill="#F4774C"/>
<path d="M123.221 257.953L122.118 255.182H121.024V259H121.891V256.427L122.908 259H123.537L124.588 256.4V259H125.449V255.182H124.355L123.221 257.953Z" fill="#F4774C"/>
<path d="M128.046 259.074C128.936 259.074 129.548 258.639 129.707 257.976L128.866 257.881C128.745 258.204 128.446 258.373 128.059 258.373C127.477 258.373 127.092 257.991 127.084 257.337H129.744V257.061C129.744 255.721 128.939 255.132 127.999 255.132C126.905 255.132 126.192 255.935 126.192 257.113C126.192 258.311 126.895 259.074 128.046 259.074ZM127.087 256.73C127.114 256.243 127.474 255.833 128.011 255.833C128.528 255.833 128.876 256.211 128.881 256.73H127.087Z" fill="#F4774C"/>
<path d="M130.505 260.432H131.405V258.398H131.442C131.584 258.677 131.88 259.067 132.536 259.067C133.436 259.067 134.11 258.354 134.11 257.096C134.11 255.823 133.416 255.132 132.534 255.132C131.86 255.132 131.579 255.537 131.442 255.813H131.39V255.182H130.505V260.432ZM131.388 257.091C131.388 256.35 131.706 255.87 132.285 255.87C132.884 255.87 133.192 256.38 133.192 257.091C133.192 257.807 132.879 258.329 132.285 258.329C131.711 258.329 131.388 257.831 131.388 257.091Z" fill="#F4774C"/>
<path d="M152.5 253.909V259H153.32L155.719 255.532H155.761V259H156.684V253.909H155.858L153.462 257.379H153.417V253.909H152.5Z" fill="#858585"/>
<path d="M157.44 257.953C157.462 258.662 158.111 259.074 158.994 259.074C159.898 259.074 160.552 258.644 160.552 257.941C160.552 257.426 160.202 257.073 159.749 257.046V257.006C160.187 256.889 160.465 256.616 160.465 256.203C160.465 255.559 159.908 255.132 159.013 255.132C158.178 255.132 157.549 255.564 157.537 256.231H158.424C158.434 255.975 158.698 255.796 159.056 255.796C159.414 255.796 159.63 255.987 159.63 256.27C159.63 256.531 159.431 256.725 159.058 256.725H158.474V257.364H159.058C159.434 257.364 159.68 257.575 159.68 257.884C159.68 258.232 159.374 258.401 158.989 258.401C158.608 258.401 158.35 258.237 158.332 257.953H157.44Z" fill="#858585"/>
<path d="M163.458 257.953L162.354 255.182H161.261V259H162.128V256.427L163.145 259H163.774L164.825 256.4V259H165.685V255.182H164.592L163.458 257.953Z" fill="#858585"/>
<path d="M168.283 259.074C169.173 259.074 169.784 258.639 169.943 257.976L169.103 257.881C168.981 258.204 168.683 258.373 168.295 258.373C167.714 258.373 167.328 257.991 167.321 257.337H169.981V257.061C169.981 255.721 169.175 255.132 168.236 255.132C167.142 255.132 166.429 255.935 166.429 257.113C166.429 258.311 167.132 259.074 168.283 259.074ZM167.323 256.73C167.351 256.243 167.711 255.833 168.248 255.833C168.765 255.833 169.113 256.211 169.118 256.73H167.323Z" fill="#858585"/>
<path d="M171.61 255.182H170.742V259H171.61V257.456H173.089V259H173.954V255.182H173.089V256.718H171.61V255.182Z" fill="#858585"/>
<path d="M175.732 257.782V255.182H174.864V259H175.791L177.315 256.397V259H178.185V255.182H177.26L175.732 257.782Z" fill="#858585"/>
<path d="M178.682 255.92H179.917V259H180.787V255.92H182.023V255.182H178.682V255.92Z" fill="#858585"/>
<path d="M183.607 256.425V255.182H182.739V259H184.474C185.446 259 186.005 258.463 186.008 257.712C186.005 256.942 185.446 256.425 184.474 256.425H183.607ZM183.607 257.163H184.474C184.864 257.163 185.145 257.394 185.145 257.725C185.145 258.04 184.864 258.262 184.474 258.262H183.607V257.163Z" fill="#858585"/>
<path d="M189.383 257.782V255.182H188.515V259H189.443L190.966 256.397V259H191.836V255.182H190.912L189.383 257.782Z" fill="#858585"/>
<path d="M194.958 257.953L193.854 255.182H192.761V259H193.628V256.427L194.645 259H195.274L196.325 256.4V259H197.185V255.182H196.092L194.958 257.953Z" fill="#858585"/>
<path d="M199.783 259.074C200.673 259.074 201.284 258.639 201.443 257.976L200.603 257.881C200.481 258.204 200.183 258.373 199.795 258.373C199.214 258.373 198.828 257.991 198.821 257.337H201.481V257.061C201.481 255.721 200.675 255.132 199.736 255.132C198.642 255.132 197.929 255.935 197.929 257.113C197.929 258.311 198.632 259.074 199.783 259.074ZM198.823 256.73C198.851 256.243 199.211 255.833 199.748 255.833C200.265 255.833 200.613 256.211 200.618 256.73H198.823Z" fill="#858585"/>
<path d="M202.916 255.182H202.013V259H202.916V257.486H203.637C203.776 258.441 204.434 259.074 205.411 259.074C206.513 259.074 207.211 258.267 207.214 257.098C207.211 255.93 206.513 255.132 205.411 255.132C204.422 255.132 203.758 255.773 203.632 256.745H202.916V255.182ZM205.411 258.329C204.755 258.329 204.474 257.792 204.474 257.098C204.474 256.405 204.755 255.87 205.411 255.87C206.065 255.87 206.344 256.41 206.344 257.098C206.344 257.789 206.065 258.329 205.411 258.329Z" fill="#858585"/>
<path d="M213.746 258.262H213.015V255.182H212.148V258.259H210.947V255.182H210.08V258.259H208.879V255.182H208.012V259H212.824V260.094H213.672L213.746 258.262Z" fill="#858585"/>
<path d="M215.325 257.782V255.182H214.458V259H215.385L216.909 256.397V259H217.779V255.182H216.854L215.325 257.782Z" fill="#858585"/>
<path d="M219.57 257.782V255.182H218.703V259H219.63L221.154 256.397V259H222.024V255.182H221.099L219.57 257.782ZM220.853 253.869C220.851 254.113 220.711 254.329 220.361 254.329C220.006 254.329 219.871 254.108 219.871 253.869H219.203C219.2 254.451 219.65 254.844 220.361 254.844C221.077 254.844 221.527 254.451 221.527 253.869H220.853Z" fill="#858585"/>
<path d="M224.614 259.074C225.573 259.074 226.185 258.505 226.249 257.695H225.389C225.312 258.105 225.016 258.341 224.621 258.341C224.059 258.341 223.696 257.871 223.696 257.091C223.696 256.32 224.067 255.858 224.621 255.858C225.054 255.858 225.32 256.136 225.389 256.504H226.249C226.187 255.676 225.541 255.132 224.609 255.132C223.49 255.132 222.784 255.94 222.784 257.106C222.784 258.262 223.473 259.074 224.614 259.074Z" fill="#858585"/>
<path d="M229.245 259H230.088V255.182H228.43C227.495 255.182 226.916 255.661 226.919 256.395C226.916 256.877 227.18 257.242 227.634 257.429L226.779 259H227.664L228.447 257.563H229.245V259ZM229.245 256.907H228.4C228.005 256.907 227.786 256.7 227.789 256.415C227.786 256.129 228.017 255.912 228.43 255.912H229.245V256.907Z" fill="#858585"/>
<defs>
<filter id="filter0_d_1059_7693" x="82" y="2" width="387" height="250" filterUnits="userSpaceOnUse" color-interpolation-filters="sRGB">
<feFlood flood-opacity="0" result="BackgroundImageFix"/>
<feColorMatrix in="SourceAlpha" type="matrix" values="0 0 0 0 0 0 0 0 0 0 0 0 0 0 0 0 0 0 127 0" result="hardAlpha"/>
<feOffset/>
<feGaussianBlur stdDeviation="12.5"/>
<feComposite in2="hardAlpha" operator="out"/>
<feColorMatrix type="matrix" values="0 0 0 0 0 0 0 0 0 0 0 0 0 0 0 0 0 0 0.15 0"/>
<feBlend mode="normal" in2="BackgroundImageFix" result="effect1_dropShadow_1059_7693"/>
<feBlend mode="normal" in="SourceGraphic" in2="effect1_dropShadow_1059_7693" result="shape"/>
</filter>
<filter id="filter1_d_1059_7693" x="0" y="56" width="272" height="142" filterUnits="userSpaceOnUse" color-interpolation-filters="sRGB">
<feFlood flood-opacity="0" result="BackgroundImageFix"/>
<feColorMatrix in="SourceAlpha" type="matrix" values="0 0 0 0 0 0 0 0 0 0 0 0 0 0 0 0 0 0 127 0" result="hardAlpha"/>
<feOffset/>
<feGaussianBlur stdDeviation="12.5"/>
<feComposite in2="hardAlpha" operator="out"/>
<feColorMatrix type="matrix" values="0 0 0 0 0 0 0 0 0 0 0 0 0 0 0 0 0 0 0.15 0"/>
<feBlend mode="normal" in2="BackgroundImageFix" result="effect1_dropShadow_1059_7693"/>
<feBlend mode="normal" in="SourceGraphic" in2="effect1_dropShadow_1059_7693" result="shape"/>
</filter>
<filter id="filter2_d_1059_7693" x="0" y="157" width="272" height="141" filterUnits="userSpaceOnUse" color-interpolation-filters="sRGB">
<feFlood flood-opacity="0" result="BackgroundImageFix"/>
<feColorMatrix in="SourceAlpha" type="matrix" values="0 0 0 0 0 0 0 0 0 0 0 0 0 0 0 0 0 0 127 0" result="hardAlpha"/>
<feOffset/>
<feGaussianBlur stdDeviation="12.5"/>
<feComposite in2="hardAlpha" operator="out"/>
<feColorMatrix type="matrix" values="0 0 0 0 0 0 0 0 0 0 0 0 0 0 0 0 0 0 0.15 0"/>
<feBlend mode="normal" in2="BackgroundImageFix" result="effect1_dropShadow_1059_7693"/>
<feBlend mode="normal" in="SourceGraphic" in2="effect1_dropShadow_1059_7693" result="shape"/>
</filter>
</defs>
</svg>
