<svg width="469" height="300" viewBox="0 0 469 300" fill="none" xmlns="http://www.w3.org/2000/svg">
<path d="M15 0H465V300H15V0Z" fill="#F5F5F5"/>
<g filter="url(#filter0_d_1059_7802)">
<rect x="107" y="27" width="337" height="200" rx="4" fill="white"/>
</g>
<path d="M107 31C107 28.7909 108.791 27 111 27H440C442.209 27 444 28.7909 444 31V51H107V31Z" fill="#3C3A3E"/>
<path d="M107 51H197V227H111C108.791 227 107 225.209 107 223V51Z" fill="#EDEDED"/>
<path fill-rule="evenodd" clip-rule="evenodd" d="M198 189V120.5V120V51H196V120L107 120V120.5L196 120.5L196 189L107 189V189.5L196 189.5V227H198L198 189.5V189ZM116.5 66C115.672 66 115 66.6716 115 67.5C115 68.3284 115.672 69 116.5 69H185.5C186.328 69 187 68.3284 187 67.5C187 66.6716 186.328 66 185.5 66H116.5ZM115 136.5C115 135.672 115.672 135 116.5 135H185.5C186.328 135 187 135.672 187 136.5C187 137.328 186.328 138 185.5 138H116.5C115.672 138 115 137.328 115 136.5ZM116.5 78C115.672 78 115 78.6716 115 79.5C115 80.3284 115.672 81 116.5 81H167.5C168.328 81 169 80.3284 169 79.5C169 78.6716 168.328 78 167.5 78H116.5ZM115 148.5C115 147.672 115.672 147 116.5 147H167.5C168.328 147 169 147.672 169 148.5C169 149.328 168.328 150 167.5 150H116.5C115.672 150 115 149.328 115 148.5ZM116.5 90C115.672 90 115 90.6716 115 91.5C115 92.3284 115.672 93 116.5 93H175.5C176.328 93 177 92.3284 177 91.5C177 90.6716 176.328 90 175.5 90H116.5ZM115 160.5C115 159.672 115.672 159 116.5 159H175.5C176.328 159 177 159.672 177 160.5C177 161.328 176.328 162 175.5 162H116.5C115.672 162 115 161.328 115 160.5ZM116.5 204C115.672 204 115 204.672 115 205.5C115 206.328 115.672 207 116.5 207H175.5C176.328 207 177 206.328 177 205.5C177 204.672 176.328 204 175.5 204H116.5ZM115 103.5C115 102.672 115.672 102 116.5 102H155.5C156.328 102 157 102.672 157 103.5C157 104.328 156.328 105 155.5 105H116.5C115.672 105 115 104.328 115 103.5ZM116.5 171C115.672 171 115 171.672 115 172.5C115 173.328 115.672 174 116.5 174H155.5C156.328 174 157 173.328 157 172.5C157 171.672 156.328 171 155.5 171H116.5Z" fill="#CBCBCB"/>
<path d="M216.568 75.0002H218.029L215.331 71.4398L217.917 68.4547H216.456L214.129 71.1458H213.832V68.4547H212.646V75.0002H213.832V72.1397H214.414L216.568 75.0002Z" fill="#3C3A3E"/>
<path d="M220.195 75.0993C220.966 75.0993 221.426 74.7381 221.637 74.3258H221.675V75.0002H222.787V71.7147C222.787 70.4171 221.73 70.0272 220.793 70.0272C219.761 70.0272 218.968 70.4874 218.713 71.3823L219.793 71.5357C219.908 71.2001 220.234 70.9125 220.8 70.9125C221.336 70.9125 221.631 71.1873 221.631 71.6699V71.6891C221.631 72.0215 221.282 72.0375 220.416 72.1301C219.464 72.2324 218.553 72.5169 218.553 73.6227C218.553 74.5879 219.259 75.0993 220.195 75.0993ZM220.496 74.2491C220.013 74.2491 219.668 74.0286 219.668 73.6035C219.668 73.1593 220.055 72.9739 220.573 72.9004C220.876 72.8588 221.483 72.7821 221.634 72.6607V73.2392C221.634 73.7857 221.193 74.2491 220.496 74.2491Z" fill="#3C3A3E"/>
<path d="M226.776 73.6547L225.357 70.0911H223.951V75.0002H225.066V71.6923L226.373 75.0002H227.182L228.534 71.6571V75.0002H229.64V70.0911H228.233L226.776 73.6547Z" fill="#3C3A3E"/>
<path d="M230.806 75.0002H231.912V71.0403H233.836V75.0002H234.952V70.0911H230.806V75.0002Z" fill="#3C3A3E"/>
<path d="M237.554 75.0993C238.324 75.0993 238.784 74.7381 238.995 74.3258H239.034V75.0002H240.146V71.7147C240.146 70.4171 239.088 70.0272 238.152 70.0272C237.119 70.0272 236.327 70.4874 236.071 71.3823L237.151 71.5357C237.266 71.2001 237.592 70.9125 238.158 70.9125C238.695 70.9125 238.989 71.1873 238.989 71.6699V71.6891C238.989 72.0215 238.641 72.0375 237.774 72.1301C236.822 72.2324 235.911 72.5169 235.911 73.6227C235.911 74.5879 236.617 75.0993 237.554 75.0993ZM237.854 74.2491C237.372 74.2491 237.027 74.0286 237.027 73.6035C237.027 73.1593 237.413 72.9739 237.931 72.9004C238.235 72.8588 238.842 72.7821 238.992 72.6607V73.2392C238.992 73.7857 238.551 74.2491 237.854 74.2491Z" fill="#3C3A3E"/>
<path d="M242.425 70.0911H241.309V75.0002H242.425V73.0154H244.326V75.0002H245.438V70.0911H244.326V72.0662H242.425V70.0911Z" fill="#3C3A3E"/>
<path d="M247.724 73.4341V70.0911H246.609V75.0002H247.801L249.76 71.6539V75.0002H250.879V70.0911H249.69L247.724 73.4341Z" fill="#3C3A3E"/>
<path d="M253.182 73.4341V70.0911H252.067V75.0002H253.259L255.218 71.6539V75.0002H256.337V70.0911H255.148L253.182 73.4341Z" fill="#3C3A3E"/>
<path d="M263.995 74.2971L262.781 72.3347L263.995 70.3723H262.953L261.662 72.29V72.3794L262.953 74.2971H263.995ZM262.046 74.2971L260.831 72.3347L262.046 70.3723H261.004L259.713 72.29V72.3794L261.004 74.2971H262.046Z" fill="#3C3A3E"/>
<path d="M267.473 75.0897C268.873 75.0897 269.892 74.2875 269.889 73.1816C269.892 72.3635 269.381 71.7754 268.463 71.6444V71.5932C269.173 71.4398 269.649 70.9125 269.646 70.1774C269.649 69.1802 268.799 68.3652 267.492 68.3652C266.22 68.3652 265.235 69.1227 265.21 70.2189H266.351C266.37 69.6692 266.881 69.3272 267.485 69.3272C268.096 69.3272 268.502 69.698 268.499 70.2477C268.502 70.8198 268.029 71.2001 267.351 71.2001H266.773V72.1142H267.351C268.179 72.1142 268.671 72.5297 268.668 73.1209C268.671 73.6994 268.169 74.0957 267.469 74.0957C266.811 74.0957 266.303 73.7537 266.274 73.22H265.072C265.104 74.3258 266.092 75.0897 267.473 75.0897Z" fill="#3C3A3E"/>
<path d="M270.999 75.0002H273.377C274.527 75.0002 275.185 74.4792 275.185 73.6674C275.185 72.9803 274.652 72.5009 273.881 72.4338C274.537 72.3123 274.946 71.964 274.946 71.411C274.946 70.5833 274.22 70.0911 273.06 70.0911H270.999V75.0002ZM272.082 74.0893V72.8716H273.377C273.802 72.8716 274.06 73.1177 274.06 73.5236C274.06 73.8752 273.802 74.0893 273.377 74.0893H272.082ZM272.082 72.1238V71.0179H273.06C273.543 71.0179 273.837 71.2225 273.837 71.5581C273.837 71.9096 273.552 72.1238 273.082 72.1238H272.082Z" fill="#3C3A3E"/>
<path d="M278.282 75.0961C279.72 75.0961 280.634 74.0829 280.634 72.5648C280.634 71.0435 279.72 70.0272 278.282 70.0272C276.843 70.0272 275.929 71.0435 275.929 72.5648C275.929 74.0829 276.843 75.0961 278.282 75.0961ZM278.288 74.1692C277.492 74.1692 277.102 73.4597 277.102 72.5616C277.102 71.6635 277.492 70.9444 278.288 70.9444C279.071 70.9444 279.461 71.6635 279.461 72.5616C279.461 73.4597 279.071 74.1692 278.288 74.1692Z" fill="#3C3A3E"/>
<path d="M282.731 70.0911H281.616V75.0002H282.731V73.0154H284.633V75.0002H285.745V70.0911H284.633V72.0662H282.731V70.0911Z" fill="#3C3A3E"/>
<path d="M286.916 75.0002H288.073V73.1497H288.638L289.984 75.0002H291.384L289.546 72.5009L291.365 70.0911H289.971L288.494 72.0726H288.073V70.0911H286.916V75.0002Z" fill="#3C3A3E"/>
<path d="M293.155 73.4341V70.0911H292.04V75.0002H293.232L295.191 71.6539V75.0002H296.31V70.0911H295.121L293.155 73.4341Z" fill="#3C3A3E"/>
<path d="M299.73 75.0002H300.836V71.0403H302.76V75.0002H303.875V70.0911H299.73V75.0002Z" fill="#3C3A3E"/>
<path d="M307.206 75.0961C308.645 75.0961 309.559 74.0829 309.559 72.5648C309.559 71.0435 308.645 70.0272 307.206 70.0272C305.768 70.0272 304.854 71.0435 304.854 72.5648C304.854 74.0829 305.768 75.0961 307.206 75.0961ZM307.213 74.1692C306.417 74.1692 306.027 73.4597 306.027 72.5616C306.027 71.6635 306.417 70.9444 307.213 70.9444C307.996 70.9444 308.386 71.6635 308.386 72.5616C308.386 73.4597 307.996 74.1692 307.213 74.1692Z" fill="#3C3A3E"/>
<path d="M313.665 75.0002L314.205 73.3862H316.666L317.209 75.0002H318.475L316.167 68.4547H314.703L312.399 75.0002H313.665ZM314.525 72.4338L315.41 69.7971H315.461L316.346 72.4338H314.525Z" fill="#3C3A3E"/>
<path d="M319.337 75.0002H320.523V72.7885H321.775C323.287 72.7885 324.099 71.8809 324.099 70.6216C324.099 69.372 323.297 68.4547 321.791 68.4547H319.337V75.0002ZM320.523 71.8137V69.4455H321.609C322.498 69.4455 322.891 69.9249 322.891 70.6216C322.891 71.3184 322.498 71.8137 321.616 71.8137H320.523Z" fill="#3C3A3E"/>
<path d="M326.315 68.4547H325.129V75.0002H326.315V68.4547Z" fill="#3C3A3E"/>
<path d="M329.427 74.2971H330.469L331.76 72.3794V72.29L330.469 70.3723H329.427L330.641 72.3347L329.427 74.2971ZM327.458 74.2971H328.5L329.791 72.3794V72.29L328.5 70.3723H327.458L328.672 72.3347L327.458 74.2971Z" fill="#3C3A3E"/>
<path fill-rule="evenodd" clip-rule="evenodd" d="M212 86H430V85H212V86ZM212 106.5C212 105.672 212.672 105 213.5 105H273.5C274.328 105 275 105.672 275 106.5C275 107.328 274.328 108 273.5 108H213.5C212.672 108 212 107.328 212 106.5ZM212 131.5C212 130.672 212.672 130 213.5 130H273.5C274.328 130 275 130.672 275 131.5C275 132.328 274.328 133 273.5 133H213.5C212.672 133 212 132.328 212 131.5ZM213.5 155C212.672 155 212 155.672 212 156.5C212 157.328 212.672 158 213.5 158H273.5C274.328 158 275 157.328 275 156.5C275 155.672 274.328 155 273.5 155H213.5ZM212 181.5C212 180.672 212.672 180 213.5 180H273.5C274.328 180 275 180.672 275 181.5C275 182.328 274.328 183 273.5 183H213.5C212.672 183 212 182.328 212 181.5ZM299.5 105C298.672 105 298 105.672 298 106.5C298 107.328 298.672 108 299.5 108H428.5C429.328 108 430 107.328 430 106.5C430 105.672 429.328 105 428.5 105H299.5ZM298 131.5C298 130.672 298.672 130 299.5 130H428.5C429.328 130 430 130.672 430 131.5C430 132.328 429.328 133 428.5 133H299.5C298.672 133 298 132.328 298 131.5ZM299.5 155C298.672 155 298 155.672 298 156.5C298 157.328 298.672 158 299.5 158H428.5C429.328 158 430 157.328 430 156.5C430 155.672 429.328 155 428.5 155H299.5ZM298 181.5C298 180.672 298.672 180 299.5 180H428.5C429.328 180 430 180.672 430 181.5C430 182.328 429.328 183 428.5 183H299.5C298.672 183 298 182.328 298 181.5ZM430 119H212V118.5H430V119ZM212 144H430V143.5H212V144ZM430 169H212V168.5H430V169ZM212 194H430V193.5H212V194Z" fill="#E6E6E6"/>
<path fill-rule="evenodd" clip-rule="evenodd" d="M124.401 40.9344C124.401 42.7104 123.364 43.5993 121.292 43.6013H117C117 41.8914 119.648 41.8989 120.791 41.9021L120.923 41.9023C121.781 41.9023 122.208 41.5171 122.206 40.7466C122.206 39.9723 121.78 39.5909 120.923 39.5909H118.503V37.9093H120.904C121.76 37.9093 122.184 37.5365 122.184 36.7969C122.184 36.0572 121.754 35.6989 120.904 35.6989C120.768 35.6989 120.614 35.703 120.447 35.7073C119.118 35.7419 117 35.7971 117 34H120.951C122.089 34 122.882 34.1454 123.33 34.4363C123.667 34.6523 123.941 34.9579 124.125 35.3212C124.309 35.6846 124.396 36.0924 124.376 36.5022C124.393 36.9877 124.269 37.4675 124.021 37.8795C123.772 38.2916 123.41 38.617 122.981 38.8136C123.924 39.2297 124.394 39.9424 124.392 40.9517L124.401 40.9344ZM152.465 36.6148C153.281 36.7638 154.017 37.2165 154.534 37.8881C155.051 38.5596 155.314 39.4036 155.273 40.2616C155.232 41.1195 154.889 41.9324 154.311 42.5474C153.732 43.1624 152.956 43.5372 152.129 43.6015C151.303 43.6657 150.482 43.415 149.821 42.8963C149.16 42.3776 148.705 41.6267 148.54 40.7847C148.376 39.9427 148.514 39.0676 148.929 38.3237C149.343 37.5798 150.006 37.0183 150.792 36.7448C151.33 36.5578 151.905 36.5131 152.465 36.6148ZM132.17 41.6393C132.17 42.9569 131.311 43.6147 129.593 43.6128H125.433V36.5801H129.337C130.262 36.5801 130.912 36.6928 131.289 36.9124C131.564 37.06 131.792 37.2857 131.949 37.5629C132.105 37.8402 132.181 38.1577 132.17 38.4784C132.175 38.8095 132.088 39.135 131.92 39.4166C131.752 39.6982 131.51 39.9241 131.222 40.0675C131.516 40.1955 131.766 40.4139 131.937 40.6934C132.108 40.9729 132.192 41.3001 132.178 41.6307L132.17 41.6393ZM130.251 38.6864C130.251 38.2444 129.953 38.0219 129.353 38.0219H127.226V39.3712H129.353C129.953 39.3712 130.251 39.143 130.251 38.6864ZM130.251 41.4862C130.251 41.0268 129.956 40.7986 129.365 40.7986H127.226V42.1739H129.378C129.97 42.1739 130.265 41.9427 130.265 41.4862H130.251ZM147.674 43.6128H145.889V40.8246H143.313V43.6128H141.523V36.5801H143.313V39.2759H145.889V36.5801H147.674V43.6128ZM162.994 43.6128H160.585L157.841 40.2005V43.6128H156.051V36.5801H157.841V39.9578L160.727 36.5801H163.011L159.857 40.0213L163.011 43.6128H162.994ZM152.37 38.227C152.126 38.1472 151.868 38.1204 151.613 38.1483C151.358 38.1761 151.111 38.2581 150.888 38.3891C150.665 38.52 150.47 38.6971 150.316 38.9094C150.162 39.1217 150.051 39.3646 149.992 39.623C149.932 39.8814 149.924 40.1498 149.969 40.4114C150.014 40.673 150.11 40.9223 150.252 41.1437C150.394 41.3651 150.578 41.5538 150.793 41.6983C151.008 41.8427 151.25 41.9397 151.503 41.9832C151.78 42.0408 152.065 42.0339 152.339 41.963C152.739 41.8585 153.094 41.6201 153.349 41.285C153.604 40.9499 153.745 40.5367 153.75 40.1099C153.755 39.683 153.624 39.2664 153.377 38.9249C153.13 38.5833 152.781 38.3359 152.384 38.2213L152.37 38.227ZM137.669 38.1201C138.092 38.3338 138.434 38.69 138.637 39.1305C138.84 39.571 138.893 40.0698 138.787 40.5455C138.681 41.0212 138.423 41.4456 138.054 41.7496C137.685 42.0535 137.228 42.219 136.757 42.219C136.286 42.219 135.829 42.0535 135.46 41.7496C135.091 41.4456 134.833 41.0212 134.727 40.5455C134.621 40.0698 134.674 39.571 134.877 39.1305C135.08 38.69 135.422 38.3338 135.845 38.1201V36.2392C134.944 36.47 134.155 37.0347 133.628 37.8267C133.101 38.6187 132.872 39.5832 132.984 40.5382C133.096 41.4932 133.542 42.3726 134.237 43.0105C134.932 43.6483 135.828 44.0005 136.757 44.0005C137.685 44.0005 138.582 43.6483 139.277 43.0105C139.972 42.3726 140.418 41.4932 140.53 40.5382C140.642 39.5832 140.413 38.6187 139.886 37.8267C139.359 37.0347 138.57 36.47 137.669 36.2392V38.1201ZM136.122 41.0727C136.387 41.2531 136.711 41.3176 137.022 41.2522C137.257 41.2068 137.474 41.0898 137.644 40.9164C137.815 40.7429 137.932 40.5207 137.98 40.2781C138.029 40.0355 138.007 39.7835 137.916 39.554C137.826 39.3246 137.672 39.1282 137.474 38.9899C137.353 38.9055 137.219 38.8447 137.078 38.8107V36.1179H136.52V38.8107C136.21 38.8824 135.94 39.0779 135.769 39.3547C135.597 39.6315 135.538 39.9673 135.604 40.289C135.67 40.6107 135.856 40.8924 136.122 41.0727Z" fill="white"/>
<g filter="url(#filter1_d_1059_7802)">
<rect x="25" y="88" width="222" height="86" rx="7" fill="white"/>
</g>
<path d="M38.9315 108.09C40.3313 108.09 41.3509 107.287 41.3477 106.182C41.3509 105.363 40.8395 104.775 39.9222 104.644V104.593C40.6317 104.44 41.108 103.912 41.1048 103.177C41.108 102.18 40.2578 101.365 38.9506 101.365C37.6786 101.365 36.6942 102.123 36.6687 103.219H37.8097C37.8288 102.669 38.3402 102.327 38.9442 102.327C39.5547 102.327 39.9606 102.698 39.9574 103.248C39.9606 103.82 39.4876 104.2 38.81 104.2H38.2315V105.114H38.81C39.6378 105.114 40.13 105.53 40.1268 106.121C40.13 106.699 39.6282 107.096 38.9283 107.096C38.2699 107.096 37.7617 106.754 37.733 106.22H36.5312C36.5632 107.326 37.5508 108.09 38.9315 108.09Z" fill="#3C3A3E"/>
<path d="M42.4575 108H44.8353C45.9859 108 46.6443 107.479 46.6443 106.667C46.6443 105.98 46.1105 105.501 45.3403 105.434C45.9955 105.312 46.4046 104.964 46.4046 104.411C46.4046 103.583 45.6791 103.091 44.5189 103.091H42.4575V108ZM43.5409 107.089V105.872H44.8353C45.2604 105.872 45.5193 106.118 45.5193 106.524C45.5193 106.875 45.2604 107.089 44.8353 107.089H43.5409ZM43.5409 105.124V104.018H44.5189C45.0015 104.018 45.2955 104.222 45.2955 104.558C45.2955 104.91 45.0111 105.124 44.5413 105.124H43.5409Z" fill="#3C3A3E"/>
<path d="M49.7404 108.096C51.1786 108.096 52.0927 107.083 52.0927 105.565C52.0927 104.044 51.1786 103.027 49.7404 103.027C48.3022 103.027 47.3881 104.044 47.3881 105.565C47.3881 107.083 48.3022 108.096 49.7404 108.096ZM49.7468 107.169C48.951 107.169 48.5611 106.46 48.5611 105.562C48.5611 104.664 48.951 103.944 49.7468 103.944C50.5298 103.944 50.9197 104.664 50.9197 105.562C50.9197 106.46 50.5298 107.169 49.7468 107.169Z" fill="#3C3A3E"/>
<path d="M54.1901 103.091H53.0747V108H54.1901V106.015H56.0917V108H57.2039V103.091H56.0917V105.066H54.1901V103.091Z" fill="#3C3A3E"/>
<path d="M58.3745 108H59.5314V106.15H60.0971L61.4426 108H62.8425L61.0048 105.501L62.8233 103.091H61.4299L59.9533 105.073H59.5314V103.091H58.3745V108Z" fill="#3C3A3E"/>
<path d="M64.6139 106.434V103.091H63.4985V108H64.6906L66.6498 104.654V108H67.7684V103.091H66.5795L64.6139 106.434Z" fill="#3C3A3E"/>
<path d="M71.1889 108H72.2947V104.04H74.2188V108H75.3342V103.091H71.1889V108Z" fill="#3C3A3E"/>
<path d="M78.6652 108.096C80.1034 108.096 81.0175 107.083 81.0175 105.565C81.0175 104.044 80.1034 103.027 78.6652 103.027C77.227 103.027 76.3129 104.044 76.3129 105.565C76.3129 107.083 77.227 108.096 78.6652 108.096ZM78.6716 107.169C77.8758 107.169 77.4859 106.46 77.4859 105.562C77.4859 104.664 77.8758 103.944 78.6716 103.944C79.4546 103.944 79.8445 104.664 79.8445 105.562C79.8445 106.46 79.4546 107.169 78.6716 107.169Z" fill="#3C3A3E"/>
<path d="M83.7972 109.426H84.935V108H88.147V109.426H89.2656V107.048H88.505V103.091H84.9574L84.8168 104.811C84.7241 105.91 84.6026 106.725 84.1871 107.048H83.7972V109.426ZM85.3761 107.048C85.6861 106.591 85.8011 105.849 85.8842 104.811L85.9609 104.024H87.3991V107.048H85.3761Z" fill="#3C3A3E"/>
<path d="M91.2448 103.091H90.1293V108H91.2448V106.015H93.1464V108H94.2586V103.091H93.1464V105.066H91.2448V103.091Z" fill="#3C3A3E"/>
<path d="M98.3311 108H99.4146V103.091H97.2828C96.0811 103.091 95.3365 103.708 95.3397 104.651C95.3365 105.271 95.6752 105.741 96.2601 105.98L95.1607 108H96.2985L97.3052 106.153H98.3311V108ZM98.3311 105.309H97.2445C96.7363 105.309 96.4551 105.044 96.4583 104.676C96.4551 104.309 96.7523 104.031 97.2828 104.031H98.3311V105.309Z" fill="#3C3A3E"/>
<path d="M103.405 106.655L101.986 103.091H100.58V108H101.695V104.692L103.002 108H103.811L105.163 104.657V108H106.268V103.091H104.862L103.405 106.655Z" fill="#3C3A3E"/>
<path d="M110.783 103.091H109.667V108H110.783V106.015H112.684V108H113.797V103.091H112.684V105.066H110.783V103.091Z" fill="#3C3A3E"/>
<path d="M117.141 108.096C118.285 108.096 119.071 107.537 119.275 106.683L118.195 106.562C118.039 106.977 117.655 107.195 117.157 107.195C116.409 107.195 115.913 106.703 115.904 105.862H119.323V105.507C119.323 103.785 118.288 103.027 117.08 103.027C115.674 103.027 114.756 104.059 114.756 105.574C114.756 107.115 115.661 108.096 117.141 108.096ZM115.907 105.082C115.942 104.456 116.405 103.928 117.096 103.928C117.761 103.928 118.208 104.414 118.214 105.082H115.907Z" fill="#3C3A3E"/>
<path d="M119.868 109.426H121.005V108H124.217V109.426H125.336V107.048H124.575V103.091H121.028L120.887 104.811C120.794 105.91 120.673 106.725 120.257 107.048H119.868V109.426ZM121.446 107.048C121.756 106.591 121.871 105.849 121.955 104.811L122.031 104.024H123.469V107.048H121.446Z" fill="#3C3A3E"/>
<path d="M128.373 108.096C129.517 108.096 130.303 107.537 130.508 106.683L129.428 106.562C129.271 106.977 128.888 107.195 128.389 107.195C127.641 107.195 127.146 106.703 127.136 105.862H130.556V105.507C130.556 103.785 129.52 103.027 128.312 103.027C126.906 103.027 125.989 104.059 125.989 105.574C125.989 107.115 126.893 108.096 128.373 108.096ZM127.139 105.082C127.174 104.456 127.638 103.928 128.328 103.928C128.993 103.928 129.44 104.414 129.447 105.082H127.139Z" fill="#3C3A3E"/>
<path d="M131.196 108H131.554C132.608 108 133.085 107.259 133.161 105.622L133.238 104.04H134.648V108H135.766V103.091H132.187L132.1 105.264C132.046 106.642 131.867 107.048 131.359 107.048H131.189L131.196 108Z" fill="#3C3A3E"/>
<path d="M138.047 106.434V103.091H136.931V108H138.123L140.082 104.654V108H141.201V103.091H140.012L138.047 106.434Z" fill="#3C3A3E"/>
<path d="M44.4629 126H45.323V122.92H46.8194V126H47.687V122.182H44.4629V126Z" fill="#858585"/>
<path d="M49.4798 122.182H48.6123V126H49.4798V124.456H50.9589V126H51.824V122.182H50.9589V123.718H49.4798V122.182Z" fill="#858585"/>
<path d="M71.4629 126H73.3123C74.2072 126 74.7193 125.595 74.7193 124.963C74.7193 124.429 74.3042 124.056 73.7051 124.004C74.2147 123.909 74.5328 123.638 74.5328 123.208C74.5328 122.564 73.9686 122.182 73.0662 122.182H71.4629V126ZM72.3056 125.291V124.344H73.3123C73.6429 124.344 73.8443 124.536 73.8443 124.851C73.8443 125.125 73.6429 125.291 73.3123 125.291H72.3056ZM72.3056 123.763V122.903H73.0662C73.4416 122.903 73.6703 123.062 73.6703 123.323C73.6703 123.596 73.449 123.763 73.0836 123.763H72.3056Z" fill="#858585"/>
<path d="M75.2531 122.92H76.4885V126H77.3586V122.92H78.594V122.182H75.2531V122.92Z" fill="#858585"/>
<path d="M99.1284 126.074C100.088 126.074 100.699 125.505 100.764 124.695H99.9039C99.8269 125.105 99.5311 125.341 99.1358 125.341C98.574 125.341 98.2111 124.871 98.2111 124.091C98.2111 123.32 98.5815 122.858 99.1358 122.858C99.5684 122.858 99.8343 123.136 99.9039 123.504H100.764C100.702 122.676 100.056 122.132 99.1234 122.132C98.0048 122.132 97.2988 122.94 97.2988 124.106C97.2988 125.261 97.9874 126.074 99.1284 126.074Z" fill="#858585"/>
<path d="M101.503 127.432H102.403V125.398H102.44C102.582 125.677 102.878 126.067 103.534 126.067C104.434 126.067 105.107 125.353 105.107 124.096C105.107 122.823 104.414 122.132 103.531 122.132C102.858 122.132 102.577 122.537 102.44 122.813H102.388V122.182H101.503V127.432ZM102.385 124.091C102.385 123.35 102.704 122.87 103.283 122.87C103.882 122.87 104.19 123.38 104.19 124.091C104.19 124.807 103.877 125.329 103.283 125.329C102.709 125.329 102.385 124.831 102.385 124.091Z" fill="#858585"/>
<path d="M127.652 122.182H126.787V124.046C126.568 124.101 126.352 124.131 126.116 124.131C125.584 124.131 125.323 123.942 125.323 123.449V122.177H124.463V123.449C124.463 124.424 125.097 124.869 126.116 124.869C126.34 124.869 126.573 124.839 126.787 124.789V126H127.652V122.182Z" fill="#858585"/>
<path d="M128.13 122.92H129.366V126H130.236V122.92H131.471V122.182H128.13V122.92Z" fill="#858585"/>
<path d="M150.463 126H151.323V122.92H152.819V126H153.687V122.182H150.463V126Z" fill="#858585"/>
<path d="M154.185 122.92H155.42V126H156.29V122.92H157.526V122.182H154.185V122.92Z" fill="#858585"/>
<path d="M178.128 126.074C179.088 126.074 179.699 125.505 179.764 124.695H178.904C178.827 125.105 178.531 125.341 178.136 125.341C177.574 125.341 177.211 124.871 177.211 124.091C177.211 123.32 177.581 122.858 178.136 122.858C178.568 122.858 178.834 123.136 178.904 123.504H179.764C179.702 122.676 179.056 122.132 178.123 122.132C177.005 122.132 176.299 122.94 176.299 124.105C176.299 125.261 176.987 126.074 178.128 126.074Z" fill="#858585"/>
<path d="M183.563 120.77C183.379 120.909 183.088 120.906 182.693 120.906C182.581 120.906 182.464 120.906 182.337 120.909C181.022 120.926 180.346 121.801 180.346 123.596V123.939C180.346 125.336 181.052 126.074 182.163 126.074C183.275 126.074 183.976 125.333 183.976 124.155C183.976 123.012 183.309 122.353 182.362 122.353C181.781 122.353 181.341 122.604 181.102 123.071H181.06C181.149 122.119 181.507 121.689 182.362 121.669C183.12 121.652 183.546 121.64 183.876 121.351L183.563 120.77ZM182.168 125.353C181.604 125.353 181.259 124.901 181.259 124.18C181.266 123.469 181.607 123.061 182.163 123.061C182.72 123.061 183.063 123.469 183.063 124.18C183.063 124.903 182.723 125.353 182.168 125.353Z" fill="#858585"/>
<path d="M203.463 126H205.312C206.207 126 206.719 125.595 206.719 124.963C206.719 124.429 206.304 124.056 205.705 124.004C206.215 123.909 206.533 123.638 206.533 123.208C206.533 122.564 205.969 122.182 205.066 122.182H203.463V126ZM204.306 125.291V124.344H205.312C205.643 124.344 205.844 124.536 205.844 124.851C205.844 125.125 205.643 125.291 205.312 125.291H204.306ZM204.306 123.763V122.902H205.066C205.442 122.902 205.67 123.062 205.67 123.323C205.67 123.596 205.449 123.763 205.084 123.763H204.306Z" fill="#858585"/>
<path d="M209.127 126.074C210.087 126.074 210.698 125.505 210.763 124.695H209.903C209.826 125.105 209.53 125.341 209.135 125.341C208.573 125.341 208.21 124.871 208.21 124.091C208.21 123.32 208.581 122.858 209.135 122.858C209.567 122.858 209.833 123.136 209.903 123.504H210.763C210.701 122.676 210.055 122.132 209.122 122.132C208.004 122.132 207.298 122.94 207.298 124.106C207.298 125.261 207.986 126.074 209.127 126.074Z" fill="#858585"/>
<path fill-rule="evenodd" clip-rule="evenodd" d="M40 123.5C40 124.328 39.3284 125 38.5 125C37.6716 125 37 124.328 37 123.5C37 122.672 37.6716 122 38.5 122C39.3284 122 40 122.672 40 123.5ZM41 123.5C41 124.881 39.8807 126 38.5 126C37.1193 126 36 124.881 36 123.5C36 122.119 37.1193 121 38.5 121C39.8807 121 41 122.119 41 123.5ZM38.5 124C38.7761 124 39 123.776 39 123.5C39 123.224 38.7761 123 38.5 123C38.2239 123 38 123.224 38 123.5C38 123.776 38.2239 124 38.5 124Z" fill="#838383"/>
<path fill-rule="evenodd" clip-rule="evenodd" d="M67 123.5C67 124.328 66.3284 125 65.5 125C64.6716 125 64 124.328 64 123.5C64 122.672 64.6716 122 65.5 122C66.3284 122 67 122.672 67 123.5ZM68 123.5C68 124.881 66.8807 126 65.5 126C64.1193 126 63 124.881 63 123.5C63 122.119 64.1193 121 65.5 121C66.8807 121 68 122.119 68 123.5ZM65.5 124C65.7761 124 66 123.776 66 123.5C66 123.224 65.7761 123 65.5 123C65.2239 123 65 123.224 65 123.5C65 123.776 65.2239 124 65.5 124Z" fill="#838383"/>
<path fill-rule="evenodd" clip-rule="evenodd" d="M93 123.5C93 124.328 92.3284 125 91.5 125C90.6716 125 90 124.328 90 123.5C90 122.672 90.6716 122 91.5 122C92.3284 122 93 122.672 93 123.5ZM94 123.5C94 124.881 92.8807 126 91.5 126C90.1193 126 89 124.881 89 123.5C89 122.119 90.1193 121 91.5 121C92.8807 121 94 122.119 94 123.5ZM91.5 124C91.7761 124 92 123.776 92 123.5C92 123.224 91.7761 123 91.5 123C91.2239 123 91 123.224 91 123.5C91 123.776 91.2239 124 91.5 124Z" fill="#838383"/>
<path fill-rule="evenodd" clip-rule="evenodd" d="M120 123.5C120 124.328 119.328 125 118.5 125C117.672 125 117 124.328 117 123.5C117 122.672 117.672 122 118.5 122C119.328 122 120 122.672 120 123.5ZM121 123.5C121 124.881 119.881 126 118.5 126C117.119 126 116 124.881 116 123.5C116 122.119 117.119 121 118.5 121C119.881 121 121 122.119 121 123.5ZM118.5 124C118.776 124 119 123.776 119 123.5C119 123.224 118.776 123 118.5 123C118.224 123 118 123.224 118 123.5C118 123.776 118.224 124 118.5 124Z" fill="#838383"/>
<path fill-rule="evenodd" clip-rule="evenodd" d="M146 123.5C146 124.328 145.328 125 144.5 125C143.672 125 143 124.328 143 123.5C143 122.672 143.672 122 144.5 122C145.328 122 146 122.672 146 123.5ZM147 123.5C147 124.881 145.881 126 144.5 126C143.119 126 142 124.881 142 123.5C142 122.119 143.119 121 144.5 121C145.881 121 147 122.119 147 123.5ZM144.5 124C144.776 124 145 123.776 145 123.5C145 123.224 144.776 123 144.5 123C144.224 123 144 123.224 144 123.5C144 123.776 144.224 124 144.5 124Z" fill="#838383"/>
<circle cx="170.5" cy="123.5" r="2" stroke="#838383"/>
<circle cx="197.5" cy="123.5" r="2" stroke="#838383"/>
<path d="M36.2793 138.682H37.8528V143H38.7676V138.682H40.3411V137.909H36.2793V138.682Z" fill="#858585"/>
<path d="M42.1961 143.074C43.3147 143.074 44.0257 142.286 44.0257 141.106C44.0257 139.922 43.3147 139.132 42.1961 139.132C41.0775 139.132 40.3666 139.922 40.3666 141.106C40.3666 142.286 41.0775 143.074 42.1961 143.074ZM42.2011 142.354C41.5821 142.354 41.2789 141.802 41.2789 141.103C41.2789 140.405 41.5821 139.845 42.2011 139.845C42.8101 139.845 43.1134 140.405 43.1134 141.103C43.1134 141.802 42.8101 142.354 42.2011 142.354Z" fill="#858585"/>
<path d="M45.657 139.182H44.7894V143H45.657V141.456H47.136V143H48.0011V139.182H47.136V140.718H45.657V139.182Z" fill="#858585"/>
<path d="M48.9115 143H49.8113V141.561H50.2513L51.2979 143H52.3866L50.9573 141.056L52.3717 139.182H51.2879L50.1395 140.723H49.8113V139.182H48.9115V143Z" fill="#858585"/>
<path d="M53.7644 141.782V139.182H52.8968V143H53.824L55.3478 140.397V143H56.2179V139.182H55.2931L53.7644 141.782Z" fill="#858585"/>
<path d="M58.8323 143.074C59.7222 143.074 60.3337 142.639 60.4928 141.976L59.6526 141.881C59.5308 142.204 59.2325 142.373 58.8447 142.373C58.2631 142.373 57.8778 141.991 57.8703 141.337H60.5301V141.061C60.5301 139.721 59.7247 139.132 58.7851 139.132C57.6913 139.132 56.9779 139.935 56.9779 141.113C56.9779 142.311 57.6814 143.074 58.8323 143.074ZM57.8728 140.73C57.9001 140.243 58.2606 139.833 58.7975 139.833C59.3145 139.833 59.6626 140.211 59.6675 140.73H57.8728Z" fill="#858585"/>
<path d="M63.8952 139.182H63.0277V143H63.8952V141.456H65.3743V143H66.2393V139.182H65.3743V140.718H63.8952V139.182Z" fill="#858585"/>
<path d="M68.2485 143.077C68.8476 143.077 69.2055 142.796 69.3696 142.475H69.3994V143H70.2645V140.444C70.2645 139.435 69.4417 139.132 68.7133 139.132C67.9104 139.132 67.2939 139.49 67.0951 140.186L67.9353 140.305C68.0248 140.044 68.2783 139.82 68.7183 139.82C69.1359 139.82 69.3646 140.034 69.3646 140.41V140.425C69.3646 140.683 69.0937 140.695 68.42 140.768C67.6792 140.847 66.9708 141.068 66.9708 141.928C66.9708 142.679 67.5202 143.077 68.2485 143.077ZM68.4822 142.416C68.1068 142.416 67.8383 142.244 67.8383 141.914C67.8383 141.568 68.1391 141.424 68.5418 141.367C68.778 141.334 69.2503 141.275 69.3671 141.18V141.63C69.3671 142.055 69.0241 142.416 68.4822 142.416Z" fill="#858585"/>
<path d="M72.8348 143.074C73.7943 143.074 74.4058 142.505 74.4704 141.695H73.6104C73.5333 142.105 73.2375 142.341 72.8422 142.341C72.2804 142.341 71.9175 141.871 71.9175 141.091C71.9175 140.32 72.2879 139.858 72.8422 139.858C73.2748 139.858 73.5407 140.136 73.6104 140.504H74.4704C74.4083 139.676 73.762 139.132 72.8298 139.132C71.7112 139.132 71.0052 139.94 71.0052 141.106C71.0052 142.262 71.6938 143.074 72.8348 143.074Z" fill="#858585"/>
<path d="M74.939 139.92H76.1744V143H77.0445V139.92H78.2799V139.182H74.939V139.92Z" fill="#858585"/>
<path d="M78.9964 144.432H79.8963V142.398H79.9336C80.0753 142.677 80.3711 143.067 81.0273 143.067C81.9272 143.067 82.6009 142.354 82.6009 141.096C82.6009 139.823 81.9073 139.132 81.0249 139.132C80.3512 139.132 80.0703 139.537 79.9336 139.813H79.8814V139.182H78.9964V144.432ZM79.8789 141.091C79.8789 140.35 80.1971 139.87 80.7763 139.87C81.3754 139.87 81.6836 140.38 81.6836 141.091C81.6836 141.807 81.3704 142.329 80.7763 142.329C80.2021 142.329 79.8789 141.831 79.8789 141.091Z" fill="#858585"/>
<path d="M85.0369 143.074C86.1555 143.074 86.8665 142.286 86.8665 141.106C86.8665 139.922 86.1555 139.132 85.0369 139.132C83.9183 139.132 83.2074 139.922 83.2074 141.106C83.2074 142.286 83.9183 143.074 85.0369 143.074ZM85.0419 142.354C84.4229 142.354 84.1197 141.802 84.1197 141.103C84.1197 140.405 84.4229 139.845 85.0419 139.845C85.6509 139.845 85.9542 140.405 85.9542 141.103C85.9542 141.802 85.6509 142.354 85.0419 142.354Z" fill="#858585"/>
<path d="M88.4978 141.782V139.182H87.6302V143H88.5574L90.0812 140.397V143H90.9513V139.182H90.0265L88.4978 141.782ZM89.7805 137.869C89.778 138.113 89.6388 138.329 89.2883 138.329C88.9328 138.329 88.7986 138.108 88.7986 137.869H88.1299C88.1274 138.451 88.5773 138.844 89.2883 138.844C90.0042 138.844 90.4541 138.451 90.4541 137.869H89.7805Z" fill="#858585"/>
<path d="M91.8754 143H92.7752V141.561H93.2152L94.2617 143H95.3505L93.9212 141.056L95.3356 139.182H94.2518L93.1033 140.723H92.7752V139.182H91.8754V143Z" fill="#858585"/>
<path d="M96.7282 141.782V139.182H95.8607V143H96.7879L98.3117 140.397V143H99.1817V139.182H98.257L96.7282 141.782Z" fill="#858585"/>
<path d="M40.6564 154.909H36.5996V160H37.5144V155.674H39.7417V160H40.6564V154.909Z" fill="#858585"/>
<path d="M43.3852 160.074C44.5038 160.074 45.2148 159.286 45.2148 158.105C45.2148 156.922 44.5038 156.132 43.3852 156.132C42.2666 156.132 41.5557 156.922 41.5557 158.105C41.5557 159.286 42.2666 160.074 43.3852 160.074ZM43.3902 159.353C42.7712 159.353 42.468 158.801 42.468 158.103C42.468 157.404 42.7712 156.845 43.3902 156.845C43.9992 156.845 44.3025 157.404 44.3025 158.103C44.3025 158.801 43.9992 159.353 43.3902 159.353Z" fill="#858585"/>
<path d="M47.644 160.074C48.6035 160.074 49.215 159.505 49.2797 158.695H48.4196C48.3425 159.105 48.0467 159.341 47.6515 159.341C47.0897 159.341 46.7267 158.871 46.7267 158.091C46.7267 157.32 47.0971 156.858 47.6515 156.858C48.084 156.858 48.35 157.136 48.4196 157.504H49.2797C49.2175 156.676 48.5712 156.132 47.639 156.132C46.5204 156.132 45.8145 156.94 45.8145 158.105C45.8145 159.261 46.503 160.074 47.644 160.074Z" fill="#858585"/>
<path d="M49.7482 156.92H50.9837V160H51.8537V156.92H53.0891V156.181H49.7482V156.92Z" fill="#858585"/>
<path d="M56.8657 154.77C56.6817 154.909 56.3909 154.906 55.9956 154.906C55.8838 154.906 55.767 154.906 55.6402 154.909C54.3252 154.926 53.6491 155.801 53.6491 157.596V157.939C53.6491 159.336 54.355 160.074 55.4662 160.074C56.5773 160.074 57.2783 159.333 57.2783 158.155C57.2783 157.012 56.6121 156.353 55.665 156.353C55.0834 156.353 54.6434 156.604 54.4047 157.071H54.3625C54.452 156.119 54.8099 155.689 55.665 155.669C56.4232 155.652 56.8483 155.64 57.1789 155.351L56.8657 154.77ZM55.4711 159.353C54.9069 159.353 54.5613 158.901 54.5613 158.18C54.5688 157.469 54.9094 157.061 55.4662 157.061C56.023 157.061 56.366 157.469 56.366 158.18C56.366 158.903 56.0255 159.353 55.4711 159.353Z" fill="#858585"/>
<path d="M59.7343 160.074C60.6242 160.074 61.2357 159.639 61.3948 158.975L60.5546 158.881C60.4328 159.204 60.1345 159.373 59.7467 159.373C59.165 159.373 58.7797 158.99 58.7723 158.337H61.4321V158.061C61.4321 156.721 60.6267 156.132 59.6871 156.132C58.5933 156.132 57.8799 156.935 57.8799 158.113C57.8799 159.311 58.5834 160.074 59.7343 160.074ZM58.7748 157.73C58.8021 157.243 59.1626 156.833 59.6995 156.833C60.2165 156.833 60.5645 157.211 60.5695 157.73H58.7748Z" fill="#858585"/>
<path d="M62.1934 160H63.0932V158.56H63.5332L64.5797 160H65.6685L64.2392 158.056L65.6536 156.181H64.5698L63.4213 157.723H63.0932V156.181H62.1934V160Z" fill="#858585"/>
<path d="M67.0463 158.782V156.181H66.1787V160H67.1059L68.6297 157.397V160H69.4997V156.181H68.575L67.0463 158.782Z" fill="#858585"/>
<path fill-rule="evenodd" clip-rule="evenodd" d="M106 141.5C106 140.672 106.672 140 107.5 140H191.5C192.328 140 193 140.672 193 141.5C193 142.328 192.328 143 191.5 143H107.5C106.672 143 106 142.328 106 141.5ZM76 158.5C76 157.672 76.6716 157 77.5 157H132.5C133.328 157 134 157.672 134 158.5C134 159.328 133.328 160 132.5 160H77.5C76.6716 160 76 159.328 76 158.5ZM141.5 157C140.672 157 140 157.672 140 158.5C140 159.328 140.672 160 141.5 160H234.5C235.328 160 236 159.328 236 158.5C236 157.672 235.328 157 234.5 157H141.5Z" fill="#E6E6E6"/>
<g filter="url(#filter2_d_1059_7802)">
<rect x="25" y="183" width="222" height="90" rx="7" fill="white"/>
</g>
<path d="M42.2473 198.663C42.046 197.209 40.9274 196.365 39.4764 196.365C37.7665 196.365 36.4785 197.611 36.4785 199.727C36.4785 201.84 37.7505 203.089 39.4764 203.089C41.0328 203.089 42.0652 202.083 42.2473 200.833L41.052 200.827C40.9018 201.594 40.2754 202.025 39.4924 202.025C38.4313 202.025 37.6706 201.229 37.6706 199.727C37.6706 198.251 38.4249 197.429 39.4956 197.429C40.2914 197.429 40.9146 197.88 41.052 198.663H42.2473Z" fill="#3C3A3E"/>
<path d="M43.0136 199.04H44.602V203H45.7206V199.04H47.309V198.091H43.0136V199.04Z" fill="#3C3A3E"/>
<path d="M49.4408 203.099C50.211 203.099 50.6713 202.738 50.8822 202.325H50.9205V203H52.0328V199.714C52.0328 198.417 50.9749 198.027 50.0384 198.027C49.0061 198.027 48.2135 198.487 47.9578 199.382L49.0381 199.535C49.1531 199.2 49.4791 198.912 50.0448 198.912C50.5818 198.912 50.8758 199.187 50.8758 199.67V199.689C50.8758 200.021 50.5274 200.037 49.6613 200.13C48.7089 200.232 47.798 200.517 47.798 201.622C47.798 202.588 48.5043 203.099 49.4408 203.099ZM49.7412 202.249C49.2586 202.249 48.9134 202.028 48.9134 201.603C48.9134 201.159 49.3002 200.974 49.8179 200.9C50.1215 200.858 50.7288 200.782 50.879 200.66V201.239C50.879 201.785 50.4379 202.249 49.7412 202.249Z" fill="#3C3A3E"/>
<path d="M52.6464 199.04H54.2348V203H55.3534V199.04H56.9419V198.091H52.6464V199.04Z" fill="#3C3A3E"/>
<path d="M58.9785 201.434V198.091H57.8631V203H59.0552L61.0144 199.654V203H62.133V198.091H60.9441L58.9785 201.434Z" fill="#3C3A3E"/>
<path d="M65.4624 203.096C66.6961 203.096 67.4823 202.364 67.5654 201.322H66.4596C66.3605 201.849 65.9802 202.153 65.472 202.153C64.7497 202.153 64.2831 201.549 64.2831 200.545C64.2831 199.555 64.7593 198.96 65.472 198.96C66.0281 198.96 66.3701 199.318 66.4596 199.791H67.5654C67.4855 198.727 66.6546 198.027 65.4561 198.027C64.0178 198.027 63.1102 199.066 63.1102 200.564C63.1102 202.051 63.9955 203.096 65.4624 203.096Z" fill="#3C3A3E"/>
<path d="M68.1679 199.04H69.7563V203H70.8749V199.04H72.4633V198.091H68.1679V199.04Z" fill="#3C3A3E"/>
<path d="M74.5 201.434V198.091H73.3846V203H74.5767L76.5359 199.654V203H77.6545V198.091H76.4656L74.5 201.434Z" fill="#3C3A3E"/>
<path d="M78.8426 203H79.9996V201.149H80.5653L81.9108 203H83.3106L81.4729 200.501L83.2915 198.091H81.898L80.4214 200.072H79.9996V198.091H78.8426V203Z" fill="#3C3A3E"/>
<path d="M85.3793 203.099C86.1495 203.099 86.6097 202.738 86.8207 202.325H86.859V203H87.9712V199.714C87.9712 198.417 86.9134 198.027 85.9769 198.027C84.9446 198.027 84.152 198.487 83.8963 199.382L84.9766 199.535C85.0916 199.2 85.4176 198.912 85.9833 198.912C86.5202 198.912 86.8143 199.187 86.8143 199.67V199.689C86.8143 200.021 86.4659 200.037 85.5998 200.13C84.6474 200.232 83.7365 200.517 83.7365 201.622C83.7365 202.588 84.4428 203.099 85.3793 203.099ZM85.6797 202.249C85.1971 202.249 84.8519 202.028 84.8519 201.603C84.8519 201.159 85.2386 200.974 85.7564 200.9C86.06 200.858 86.6673 200.782 86.8175 200.66V201.239C86.8175 201.785 86.3764 202.249 85.6797 202.249Z" fill="#3C3A3E"/>
<path d="M92.4824 198.091H91.367V203H92.4824V201.015H94.3841V203H95.4963V198.091H94.3841V200.066H92.4824V198.091Z" fill="#3C3A3E"/>
<path d="M98.0795 203.099C98.8497 203.099 99.3099 202.738 99.5209 202.325H99.5592V203H100.671V199.714C100.671 198.417 99.6135 198.027 98.6771 198.027C97.6448 198.027 96.8522 198.487 96.5965 199.382L97.6768 199.535C97.7918 199.2 98.1178 198.912 98.6835 198.912C99.2204 198.912 99.5145 199.187 99.5145 199.67V199.689C99.5145 200.021 99.1661 200.037 98.3 200.13C97.3476 200.232 96.4367 200.517 96.4367 201.622C96.4367 202.588 97.143 203.099 98.0795 203.099ZM98.3799 202.249C97.8973 202.249 97.5521 202.028 97.5521 201.603C97.5521 201.159 97.9388 200.974 98.4566 200.9C98.7602 200.858 99.3675 200.782 99.5177 200.66V201.239C99.5177 201.785 99.0766 202.249 98.3799 202.249Z" fill="#3C3A3E"/>
<path d="M106.209 203.096C107.442 203.096 108.228 202.364 108.312 201.322H107.206C107.107 201.849 106.726 202.153 106.218 202.153C105.496 202.153 105.029 201.549 105.029 200.545C105.029 199.555 105.505 198.96 106.218 198.96C106.774 198.96 107.116 199.318 107.206 199.791H108.312C108.232 198.727 107.401 198.027 106.202 198.027C104.764 198.027 103.856 199.066 103.856 200.564C103.856 202.051 104.742 203.096 106.209 203.096Z" fill="#3C3A3E"/>
<path d="M111.435 203.096C112.579 203.096 113.365 202.536 113.57 201.683L112.49 201.562C112.333 201.977 111.949 202.194 111.451 202.194C110.703 202.194 110.208 201.702 110.198 200.862H113.618V200.507C113.618 198.784 112.582 198.027 111.374 198.027C109.968 198.027 109.051 199.059 109.051 200.574C109.051 202.115 109.955 203.096 111.435 203.096ZM110.201 200.082C110.236 199.455 110.7 198.928 111.39 198.928C112.055 198.928 112.502 199.414 112.509 200.082H110.201Z" fill="#3C3A3E"/>
<path d="M115.712 198.091H114.597V203H115.712V201.015H117.614V203H118.726V198.091H117.614V200.066H115.712V198.091Z" fill="#3C3A3E"/>
<path d="M119.347 199.04H120.935V203H122.054V199.04H123.642V198.091H119.347V199.04Z" fill="#3C3A3E"/>
<path d="M127.465 203H128.549V198.091H126.417C125.215 198.091 124.471 198.708 124.474 199.65C124.471 200.27 124.809 200.74 125.394 200.98L124.295 203H125.433L126.439 201.153H127.465V203ZM127.465 200.309H126.379C125.87 200.309 125.589 200.044 125.592 199.676C125.589 199.308 125.886 199.03 126.417 199.03H127.465V200.309Z" fill="#3C3A3E"/>
<path d="M133.648 196.275C133.411 196.454 133.038 196.451 132.529 196.451C132.386 196.451 132.235 196.451 132.072 196.454C130.382 196.477 129.512 197.602 129.512 199.909V200.35C129.512 202.146 130.42 203.096 131.849 203.096C133.277 203.096 134.179 202.143 134.179 200.628C134.179 199.158 133.322 198.311 132.104 198.311C131.356 198.311 130.791 198.634 130.484 199.235H130.43C130.545 198.011 131.005 197.458 132.104 197.432C133.079 197.41 133.626 197.394 134.051 197.023L133.648 196.275ZM131.855 202.169C131.13 202.169 130.685 201.587 130.685 200.66C130.695 199.746 131.133 199.222 131.849 199.222C132.565 199.222 133.006 199.746 133.006 200.66C133.006 201.59 132.568 202.169 131.855 202.169Z" fill="#3C3A3E"/>
<path d="M135.163 204.841H136.32V202.226H136.368C136.55 202.584 136.93 203.086 137.774 203.086C138.931 203.086 139.797 202.169 139.797 200.552C139.797 198.915 138.905 198.027 137.771 198.027C136.905 198.027 136.544 198.548 136.368 198.903H136.301V198.091H135.163V204.841ZM136.297 200.545C136.297 199.593 136.707 198.976 137.451 198.976C138.222 198.976 138.618 199.631 138.618 200.545C138.618 201.466 138.215 202.137 137.451 202.137C136.713 202.137 136.297 201.498 136.297 200.545Z" fill="#3C3A3E"/>
<path d="M141.903 199.689V198.091H140.788V203H143.019C144.268 203 144.987 202.309 144.991 201.344C144.987 200.354 144.268 199.689 143.019 199.689H141.903ZM141.903 200.638H143.019C143.521 200.638 143.882 200.935 143.882 201.36C143.882 201.766 143.521 202.051 143.019 202.051H141.903V200.638Z" fill="#3C3A3E"/>
<path d="M105.656 217.909H101.6V223H102.514V218.675H104.742V223H105.656V217.909Z" fill="#858585"/>
<path d="M108.385 223.075C109.504 223.075 110.215 222.287 110.215 221.106C110.215 219.923 109.504 219.132 108.385 219.132C107.267 219.132 106.556 219.923 106.556 221.106C106.556 222.287 107.267 223.075 108.385 223.075ZM108.39 222.354C107.771 222.354 107.468 221.802 107.468 221.103C107.468 220.405 107.771 219.846 108.39 219.846C108.999 219.846 109.302 220.405 109.302 221.103C109.302 221.802 108.999 222.354 108.39 222.354Z" fill="#858585"/>
<path d="M110.565 219.92H111.8V223H112.67V219.92H113.906V219.182H110.565V219.92Z" fill="#858585"/>
<path d="M114.622 224.432H115.522V222.399H115.559C115.701 222.677 115.997 223.067 116.653 223.067C117.553 223.067 118.226 222.354 118.226 221.096C118.226 219.823 117.533 219.132 116.65 219.132C115.977 219.132 115.696 219.537 115.559 219.813H115.507V219.182H114.622V224.432ZM115.505 221.091C115.505 220.35 115.823 219.87 116.402 219.87C117.001 219.87 117.309 220.38 117.309 221.091C117.309 221.807 116.996 222.329 116.402 222.329C115.828 222.329 115.505 221.832 115.505 221.091Z" fill="#858585"/>
<path d="M120.096 223.077C120.695 223.077 121.053 222.796 121.217 222.476H121.247V223H122.112V220.445C122.112 219.435 121.289 219.132 120.561 219.132C119.758 219.132 119.141 219.49 118.942 220.186L119.783 220.305C119.872 220.044 120.126 219.821 120.566 219.821C120.983 219.821 121.212 220.035 121.212 220.41V220.425C121.212 220.683 120.941 220.696 120.267 220.768C119.527 220.847 118.818 221.069 118.818 221.929C118.818 222.679 119.367 223.077 120.096 223.077ZM120.329 222.416C119.954 222.416 119.686 222.244 119.686 221.914C119.686 221.568 119.986 221.424 120.389 221.367C120.625 221.335 121.098 221.275 121.214 221.18V221.63C121.214 222.055 120.871 222.416 120.329 222.416Z" fill="#858585"/>
<path d="M126.206 219.182H125.341V221.046C125.122 221.101 124.906 221.131 124.67 221.131C124.138 221.131 123.877 220.942 123.877 220.45V219.177H123.017V220.45C123.017 221.424 123.65 221.869 124.67 221.869C124.893 221.869 125.127 221.839 125.341 221.79V223H126.206V219.182Z" fill="#858585"/>
<path d="M128.802 223.075C129.692 223.075 130.303 222.64 130.462 221.976L129.622 221.881C129.5 222.205 129.202 222.374 128.814 222.374C128.232 222.374 127.847 221.991 127.84 221.337H130.499V221.061C130.499 219.721 129.694 219.132 128.754 219.132C127.661 219.132 126.947 219.935 126.947 221.113C126.947 222.312 127.651 223.075 128.802 223.075ZM127.842 220.731C127.869 220.243 128.23 219.833 128.767 219.833C129.284 219.833 129.632 220.211 129.637 220.731H127.842Z" fill="#858585"/>
<path d="M132.128 219.182H131.261V223H132.128V221.456H133.607V223H134.472V219.182H133.607V220.718H132.128V219.182Z" fill="#858585"/>
<path d="M137.048 223.075C138.167 223.075 138.878 222.287 138.878 221.106C138.878 219.923 138.167 219.132 137.048 219.132C135.93 219.132 135.219 219.923 135.219 221.106C135.219 222.287 135.93 223.075 137.048 223.075ZM137.053 222.354C136.434 222.354 136.131 221.802 136.131 221.103C136.131 220.405 136.434 219.846 137.053 219.846C137.662 219.846 137.966 220.405 137.966 221.103C137.966 221.802 137.662 222.354 137.053 222.354Z" fill="#858585"/>
<path d="M142.245 219.182H141.378V223H142.245V221.456H143.725V223H144.59V219.182H143.725V220.718H142.245V219.182Z" fill="#858585"/>
<path d="M146.599 223.077C147.198 223.077 147.556 222.796 147.72 222.476H147.75V223H148.615V220.445C148.615 219.435 147.792 219.132 147.064 219.132C146.261 219.132 145.644 219.49 145.445 220.186L146.286 220.305C146.375 220.044 146.629 219.821 147.069 219.821C147.486 219.821 147.715 220.035 147.715 220.41V220.425C147.715 220.683 147.444 220.696 146.77 220.768C146.029 220.847 145.321 221.069 145.321 221.929C145.321 222.679 145.87 223.077 146.599 223.077ZM146.832 222.416C146.457 222.416 146.189 222.244 146.189 221.914C146.189 221.568 146.489 221.424 146.892 221.367C147.128 221.335 147.6 221.275 147.717 221.18V221.63C147.717 222.055 147.374 222.416 146.832 222.416Z" fill="#858585"/>
<path d="M151.256 223H152.156V221.561H152.596L153.642 223H154.731L153.302 221.056L154.716 219.182H153.632L152.484 220.723H152.156V219.182H151.256V223Z" fill="#858585"/>
<path d="M156.34 223.077C156.939 223.077 157.297 222.796 157.461 222.476H157.491V223H158.356V220.445C158.356 219.435 157.533 219.132 156.805 219.132C156.002 219.132 155.385 219.49 155.187 220.186L156.027 220.305C156.116 220.044 156.37 219.821 156.81 219.821C157.227 219.821 157.456 220.035 157.456 220.41V220.425C157.456 220.683 157.185 220.696 156.511 220.768C155.771 220.847 155.062 221.069 155.062 221.929C155.062 222.679 155.612 223.077 156.34 223.077ZM156.574 222.416C156.198 222.416 155.93 222.244 155.93 221.914C155.93 221.568 156.231 221.424 156.633 221.367C156.869 221.335 157.342 221.275 157.459 221.18V221.63C157.459 222.055 157.116 222.416 156.574 222.416Z" fill="#858585"/>
<path d="M161.458 221.954L160.354 219.182H159.261V223H160.128V220.427L161.145 223H161.774L162.825 220.4V223H163.685V219.182H162.592L161.458 221.954Z" fill="#858585"/>
<path d="M164.593 223H165.453V219.92H166.949V223H167.817V219.182H164.593V223Z" fill="#858585"/>
<path d="M169.841 223.077C170.44 223.077 170.798 222.796 170.962 222.476H170.992V223H171.857V220.445C171.857 219.435 171.034 219.132 170.306 219.132C169.503 219.132 168.886 219.49 168.688 220.186L169.528 220.305C169.617 220.044 169.871 219.821 170.311 219.821C170.728 219.821 170.957 220.035 170.957 220.41V220.425C170.957 220.683 170.686 220.696 170.012 220.768C169.272 220.847 168.563 221.069 168.563 221.929C168.563 222.679 169.113 223.077 169.841 223.077ZM170.075 222.416C169.699 222.416 169.431 222.244 169.431 221.914C169.431 221.568 169.732 221.424 170.134 221.367C170.37 221.335 170.843 221.275 170.96 221.18V221.63C170.96 222.055 170.616 222.416 170.075 222.416Z" fill="#858585"/>
<path d="M173.629 219.182H172.762V223H173.629V221.456H175.108V223H175.973V219.182H175.108V220.718H173.629V219.182Z" fill="#858585"/>
<path d="M177.751 221.782V219.182H176.884V223H177.811L179.335 220.397V223H180.205V219.182H179.28L177.751 221.782Z" fill="#858585"/>
<path d="M181.803 219.182H180.9V223H181.803V221.486H182.523C182.663 222.441 183.321 223.075 184.298 223.075C185.399 223.075 186.098 222.267 186.1 221.098C186.098 219.93 185.399 219.132 184.298 219.132C183.309 219.132 182.645 219.774 182.518 220.745H181.803V219.182ZM184.298 222.329C183.642 222.329 183.361 221.792 183.361 221.098C183.361 220.405 183.642 219.87 184.298 219.87C184.952 219.87 185.23 220.41 185.23 221.098C185.23 221.79 184.952 222.329 184.298 222.329Z" fill="#858585"/>
<path d="M105.656 251.909H101.6V257H102.514V252.675H104.742V257H105.656V251.909Z" fill="#858585"/>
<path d="M106.72 258.432H107.62V256.399H107.657C107.799 256.677 108.094 257.067 108.751 257.067C109.65 257.067 110.324 256.354 110.324 255.096C110.324 253.823 109.631 253.132 108.748 253.132C108.074 253.132 107.794 253.537 107.657 253.813H107.605V253.182H106.72V258.432ZM107.602 255.091C107.602 254.35 107.92 253.87 108.5 253.87C109.099 253.87 109.407 254.38 109.407 255.091C109.407 255.807 109.094 256.329 108.5 256.329C107.925 256.329 107.602 255.832 107.602 255.091Z" fill="#858585"/>
<path d="M112.785 257.075C113.675 257.075 114.286 256.64 114.446 255.976L113.605 255.881C113.484 256.205 113.185 256.374 112.797 256.374C112.216 256.374 111.831 255.991 111.823 255.337H114.483V255.061C114.483 253.721 113.677 253.132 112.738 253.132C111.644 253.132 110.931 253.935 110.931 255.113C110.931 256.312 111.634 257.075 112.785 257.075ZM111.826 254.731C111.853 254.243 112.213 253.833 112.75 253.833C113.267 253.833 113.615 254.211 113.62 254.731H111.826Z" fill="#858585"/>
<path d="M114.906 258.109H115.791V257H118.289V258.109H119.159V256.259H118.568V253.182H115.808L115.699 254.519C115.627 255.374 115.532 256.008 115.209 256.259H114.906V258.109ZM116.134 256.259C116.375 255.904 116.465 255.327 116.529 254.519L116.589 253.908H117.708V256.259H116.134Z" fill="#858585"/>
<path d="M121.497 257.075C122.456 257.075 123.068 256.505 123.132 255.695H122.272C122.195 256.105 121.899 256.341 121.504 256.341C120.942 256.341 120.579 255.872 120.579 255.091C120.579 254.32 120.95 253.858 121.504 253.858C121.937 253.858 122.203 254.136 122.272 254.504H123.132C123.07 253.677 122.424 253.132 121.492 253.132C120.373 253.132 119.667 253.94 119.667 255.106C119.667 256.262 120.356 257.075 121.497 257.075Z" fill="#858585"/>
<path d="M123.871 257H124.771V255.561H125.211L126.257 257H127.346L125.917 255.056L127.331 253.182H126.248L125.099 254.723H124.771V253.182H123.871V257Z" fill="#858585"/>
<path d="M128.955 257.077C129.554 257.077 129.912 256.796 130.076 256.476H130.106V257H130.971V254.445C130.971 253.435 130.148 253.132 129.42 253.132C128.617 253.132 128.001 253.49 127.802 254.186L128.642 254.305C128.731 254.044 128.985 253.821 129.425 253.821C129.843 253.821 130.071 254.035 130.071 254.41V254.425C130.071 254.683 129.8 254.696 129.127 254.768C128.386 254.847 127.677 255.069 127.677 255.929C127.677 256.679 128.227 257.077 128.955 257.077ZM129.189 256.416C128.813 256.416 128.545 256.244 128.545 255.914C128.545 255.568 128.846 255.424 129.248 255.367C129.485 255.335 129.957 255.275 130.074 255.18V255.63C130.074 256.055 129.731 256.416 129.189 256.416Z" fill="#858585"/>
<path d="M131.665 255.954C131.687 256.662 132.336 257.075 133.218 257.075C134.123 257.075 134.777 256.645 134.777 255.941C134.777 255.427 134.426 255.074 133.974 255.046V255.006C134.411 254.89 134.69 254.616 134.69 254.204C134.69 253.56 134.133 253.132 133.238 253.132C132.403 253.132 131.774 253.565 131.762 254.231H132.649C132.659 253.975 132.922 253.796 133.28 253.796C133.638 253.796 133.855 253.987 133.855 254.271C133.855 254.532 133.656 254.726 133.283 254.726H132.699V255.364H133.283C133.658 255.364 133.904 255.576 133.904 255.884C133.904 256.232 133.599 256.401 133.213 256.401C132.833 256.401 132.574 256.237 132.557 255.954H131.665Z" fill="#858585"/>
<path d="M136.584 257.077C137.183 257.077 137.541 256.796 137.705 256.476H137.735V257H138.6V254.445C138.6 253.435 137.777 253.132 137.049 253.132C136.246 253.132 135.63 253.49 135.431 254.186L136.271 254.305C136.36 254.044 136.614 253.821 137.054 253.821C137.472 253.821 137.7 254.035 137.7 254.41V254.425C137.7 254.683 137.429 254.696 136.756 254.768C136.015 254.847 135.306 255.069 135.306 255.929C135.306 256.679 135.856 257.077 136.584 257.077ZM136.818 256.416C136.442 256.416 136.174 256.244 136.174 255.914C136.174 255.568 136.475 255.424 136.877 255.367C137.114 255.335 137.586 255.275 137.703 255.18V255.63C137.703 256.055 137.36 256.416 136.818 256.416Z" fill="#858585"/>
<path d="M140.372 253.182H139.505V257H140.372V255.456H141.851V257H142.717V253.182H141.851V254.718H140.372V253.182Z" fill="#858585"/>
<path d="M144.494 255.782V253.182H143.627V257H144.554L146.078 254.397V257H146.948V253.182H146.023L144.494 255.782Z" fill="#858585"/>
<path d="M149.562 257.075C150.452 257.075 151.064 256.64 151.223 255.976L150.383 255.881C150.261 256.205 149.963 256.374 149.575 256.374C148.993 256.374 148.608 255.991 148.6 255.337H151.26V255.061C151.26 253.721 150.455 253.132 149.515 253.132C148.421 253.132 147.708 253.935 147.708 255.113C147.708 256.312 148.411 257.075 149.562 257.075ZM148.603 254.731C148.63 254.243 148.991 253.833 149.528 253.833C150.045 253.833 150.393 254.211 150.398 254.731H148.603Z" fill="#858585"/>
<path d="M153.549 253.92H154.784V257H155.654V253.92H156.89V253.182H153.549V253.92Z" fill="#858585"/>
<path d="M157.606 258.432H158.506V256.399H158.544C158.685 256.677 158.981 257.067 159.637 257.067C160.537 257.067 161.211 256.354 161.211 255.096C161.211 253.823 160.517 253.132 159.635 253.132C158.961 253.132 158.68 253.537 158.544 253.813H158.491V253.182H157.606V258.432ZM158.489 255.091C158.489 254.35 158.807 253.87 159.386 253.87C159.985 253.87 160.294 254.38 160.294 255.091C160.294 255.807 159.98 256.329 159.386 256.329C158.812 256.329 158.489 255.832 158.489 255.091Z" fill="#858585"/>
<path d="M163.08 257.077C163.679 257.077 164.037 256.796 164.201 256.476H164.231V257H165.096V254.445C165.096 253.435 164.273 253.132 163.545 253.132C162.742 253.132 162.126 253.49 161.927 254.186L162.767 254.305C162.856 254.044 163.11 253.821 163.55 253.821C163.968 253.821 164.196 254.035 164.196 254.41V254.425C164.196 254.683 163.925 254.696 163.252 254.768C162.511 254.847 161.802 255.069 161.802 255.929C161.802 256.679 162.352 257.077 163.08 257.077ZM163.314 256.416C162.938 256.416 162.67 256.244 162.67 255.914C162.67 255.568 162.971 255.424 163.373 255.367C163.61 255.335 164.082 255.275 164.199 255.18V255.63C164.199 256.055 163.856 256.416 163.314 256.416Z" fill="#858585"/>
<path d="M165.573 253.92H166.809V257H167.679V253.92H168.914V253.182H165.573V253.92Z" fill="#858585"/>
<path d="M101.172 240H101.42C102.611 240 102.942 239.197 103.014 237.524L103.093 235.667H104.667V240H105.569V234.909H102.233L102.149 237.238C102.094 238.683 101.9 239.195 101.316 239.227L101.172 239.234V240Z" fill="#858585"/>
<path d="M107.403 238.782V236.182H106.535V240H107.462L108.986 237.397V240H109.856V236.182H108.931L107.403 238.782Z" fill="#858585"/>
<path d="M112.978 238.954L111.874 236.182H110.78V240H111.648V237.427L112.664 240H113.293L114.345 237.4V240H115.205V236.182H114.111L112.978 238.954Z" fill="#858585"/>
<path d="M116.98 238.782V236.182H116.112V240H117.039L118.563 237.397V240H119.433V236.182H118.508L116.98 238.782Z" fill="#858585"/>
<path d="M119.93 236.92H121.165V240H122.035V236.92H123.271V236.182H119.93V236.92Z" fill="#858585"/>
<rect x="193" y="220" width="43" height="3" rx="1.5" fill="#E6E6E6"/>
<rect x="177" y="254" width="44" height="3" rx="1.5" fill="#E6E6E6"/>
<rect x="130" y="237" width="49" height="3" rx="1.5" fill="#E6E6E6"/>
<rect x="185" y="237" width="51" height="3" rx="1.5" fill="#E6E6E6"/>
<path d="M43.9225 254.77C47.8845 258.732 53.0476 261.269 58.6048 261.986C64.1619 262.702 69.7998 261.557 74.6371 258.729L67.2179 246.037C65.1863 247.225 62.8184 247.706 60.4844 247.405C58.1504 247.104 55.9818 246.038 54.3178 244.374L43.9225 254.77Z" fill="#AEAEAE" stroke="white"/>
<path d="M74.6358 258.728C80.3545 255.385 84.5373 249.937 86.2889 243.548C88.0405 237.16 87.2216 230.34 84.0076 224.548L71.1528 231.681C72.5027 234.113 72.8466 236.978 72.1109 239.661C71.3753 242.344 69.6185 244.633 67.2167 246.037L74.6358 258.728Z" fill="#E6E6E6" stroke="white"/>
<path d="M84.0071 224.549C82.2477 221.378 79.8284 218.621 76.9126 216.466C73.9969 214.31 70.6525 212.805 67.1053 212.052C63.5581 211.299 59.8907 211.316 56.3507 212.102C52.8107 212.888 49.4805 214.424 46.585 216.607C43.6894 218.79 41.296 221.569 39.5663 224.756C37.8365 227.943 36.8108 231.464 36.5582 235.082C36.3057 238.699 36.8322 242.328 38.1023 245.725C39.3724 249.121 41.3565 252.206 43.9206 254.77L54.316 244.374C53.239 243.298 52.4057 242.002 51.8723 240.576C51.3388 239.149 51.1177 237.625 51.2238 236.105C51.3298 234.586 51.7606 233.107 52.4871 231.769C53.2136 230.43 54.2189 229.263 55.435 228.346C56.6511 227.429 58.0498 226.784 59.5366 226.454C61.0234 226.124 62.5637 226.117 64.0535 226.433C65.5433 226.749 66.948 227.381 68.1726 228.287C69.3972 229.192 70.4133 230.35 71.1523 231.682L84.0071 224.549Z" fill="#F4774C" stroke="white"/>
<defs>
<filter id="filter0_d_1059_7802" x="82" y="2" width="387" height="250" filterUnits="userSpaceOnUse" color-interpolation-filters="sRGB">
<feFlood flood-opacity="0" result="BackgroundImageFix"/>
<feColorMatrix in="SourceAlpha" type="matrix" values="0 0 0 0 0 0 0 0 0 0 0 0 0 0 0 0 0 0 127 0" result="hardAlpha"/>
<feOffset/>
<feGaussianBlur stdDeviation="12.5"/>
<feComposite in2="hardAlpha" operator="out"/>
<feColorMatrix type="matrix" values="0 0 0 0 0 0 0 0 0 0 0 0 0 0 0 0 0 0 0.15 0"/>
<feBlend mode="normal" in2="BackgroundImageFix" result="effect1_dropShadow_1059_7802"/>
<feBlend mode="normal" in="SourceGraphic" in2="effect1_dropShadow_1059_7802" result="shape"/>
</filter>
<filter id="filter1_d_1059_7802" x="0" y="63" width="272" height="136" filterUnits="userSpaceOnUse" color-interpolation-filters="sRGB">
<feFlood flood-opacity="0" result="BackgroundImageFix"/>
<feColorMatrix in="SourceAlpha" type="matrix" values="0 0 0 0 0 0 0 0 0 0 0 0 0 0 0 0 0 0 127 0" result="hardAlpha"/>
<feOffset/>
<feGaussianBlur stdDeviation="12.5"/>
<feComposite in2="hardAlpha" operator="out"/>
<feColorMatrix type="matrix" values="0 0 0 0 0 0 0 0 0 0 0 0 0 0 0 0 0 0 0.15 0"/>
<feBlend mode="normal" in2="BackgroundImageFix" result="effect1_dropShadow_1059_7802"/>
<feBlend mode="normal" in="SourceGraphic" in2="effect1_dropShadow_1059_7802" result="shape"/>
</filter>
<filter id="filter2_d_1059_7802" x="0" y="158" width="272" height="140" filterUnits="userSpaceOnUse" color-interpolation-filters="sRGB">
<feFlood flood-opacity="0" result="BackgroundImageFix"/>
<feColorMatrix in="SourceAlpha" type="matrix" values="0 0 0 0 0 0 0 0 0 0 0 0 0 0 0 0 0 0 127 0" result="hardAlpha"/>
<feOffset/>
<feGaussianBlur stdDeviation="12.5"/>
<feComposite in2="hardAlpha" operator="out"/>
<feColorMatrix type="matrix" values="0 0 0 0 0 0 0 0 0 0 0 0 0 0 0 0 0 0 0.15 0"/>
<feBlend mode="normal" in2="BackgroundImageFix" result="effect1_dropShadow_1059_7802"/>
<feBlend mode="normal" in="SourceGraphic" in2="effect1_dropShadow_1059_7802" result="shape"/>
</filter>
</defs>
</svg>
