<svg width="30" height="30" viewBox="0 0 30 30" fill="none" xmlns="http://www.w3.org/2000/svg">
<rect width="30" height="30" fill="white"/>
<path d="M14.0121 29.9135C13.7039 30.1606 13.1561 29.8782 12.3686 29.0665C12.1631 28.8901 12.0604 28.6783 12.0604 28.4313C12.0604 28.2548 12.1974 27.5137 12.4713 26.2079C12.5398 25.7138 12.6083 25.3609 12.6767 25.1492C12.8479 24.3022 13.0534 23.4022 13.2931 22.4494C13.567 21.4612 13.7382 20.826 13.8066 20.5436C14.0806 20.4025 14.6969 18.6732 15.6556 15.3558C16.1692 13.45 16.7513 11.4913 17.4018 9.47971C17.71 8.49155 17.9496 7.6269 18.1208 6.88578C18.292 6.14466 18.4119 5.66822 18.4804 5.45647C18.1722 5.63293 17.5045 6.03878 16.4773 6.67403C15.4844 7.27399 14.5428 7.92688 13.6526 8.63271C13.5841 8.668 12.9335 9.14444 11.7009 10.062C11.427 10.2385 11.0504 10.5032 10.571 10.8561C10.1259 11.209 9.74924 11.4737 9.44109 11.6501C8.92749 12.0736 8.4995 12.4089 8.1571 12.656C7.84894 12.8677 7.62638 12.9736 7.48943 12.9736C7.42095 12.9736 7.24975 12.903 6.97583 12.7618C6.32528 12.1619 6 11.5796 6 11.0149C6 10.8031 6.05136 10.5914 6.15408 10.3796C6.29104 10.3444 6.90735 9.92085 8.00302 9.10915C9.23565 8.19157 9.93756 7.69749 10.1088 7.6269C10.1772 7.6269 10.3656 7.50338 10.6737 7.25634C10.9819 6.97401 11.2729 6.74461 11.5468 6.56815C11.6495 6.42699 12.4542 5.80939 13.9607 4.71535L16.6828 2.65079C19.5589 0.815625 21.1339 -0.0666629 21.4079 0.00392142C21.5791 0.0392125 21.853 0.21567 22.2296 0.533294C22.6405 0.815627 22.863 1.09796 22.8973 1.38029C22.9658 1.52146 23 1.64498 23 1.75085C23 1.99789 22.863 2.43904 22.5891 3.07429C22.281 3.74483 21.716 5.29766 20.8943 7.73278C20.1067 10.1679 19.5076 12.0913 19.0967 13.503C18.857 14.4205 18.4975 15.5499 18.0181 16.8909C17.9154 17.2086 17.7613 17.6674 17.5559 18.2673C17.3847 18.832 17.2306 19.4143 17.0937 20.0142C16.7855 20.7907 16.4431 21.8671 16.0665 23.2434C15.6898 24.6198 15.3988 25.7844 15.1934 26.7373L14.6798 28.3254C14.3716 29.2783 14.149 29.8077 14.0121 29.9135Z" fill="#F4774C"/>
</svg>
