<svg width="30" height="30" viewBox="0 0 30 30" fill="none" xmlns="http://www.w3.org/2000/svg">
<rect width="30" height="30" fill="white"/>
<path d="M5.33846 29.9665C5.05128 29.8473 4.64103 29.5693 4.10769 29.1324C3.57436 28.6955 3.22564 28.2984 3.06154 27.9409C3.02051 27.9012 3 27.7821 3 27.5835C3 27.3054 3.06154 26.9877 3.18462 26.6303C3.30769 26.2728 3.43077 26.0941 3.55385 26.0941C3.67692 26.2132 4.00513 25.9154 4.53846 25.2004C5.11282 24.4458 5.42051 23.9692 5.46154 23.7706C5.50256 23.6118 5.62564 23.4728 5.83077 23.3536C6.07692 23.1947 6.24103 23.0954 6.32308 23.0557C6.52821 22.738 6.81538 22.4004 7.18462 22.0429C7.59487 21.6458 7.86154 21.3678 7.98461 21.2089C8.14872 21.0103 8.45641 20.6926 8.90769 20.2557C9.35897 19.7791 9.76923 19.362 10.1385 19.0046C11.1231 18.1308 11.841 17.4556 12.2923 16.979C14.4256 14.7549 15.5333 13.4641 15.6154 13.1066C15.6564 13.0669 15.7385 12.9875 15.8615 12.8683C15.9846 12.7492 16.1487 12.63 16.3538 12.5109C16.9692 12.1137 17.5436 11.6569 18.0769 11.1406C18.1179 10.8626 18.3436 10.4257 18.7538 9.82996C19.1641 9.23421 19.5744 8.73774 19.9846 8.34057C20.3128 7.90369 20.6 7.42708 20.8462 6.91076C21.1333 6.35472 21.3385 5.87812 21.4615 5.48095L21.5846 4.94477C21.5846 4.7859 21.4821 4.66675 21.2769 4.58732C21.0718 4.46817 20.8256 4.36887 20.5385 4.28944C20.2923 4.21 20.0872 4.15043 19.9231 4.11071C18.9795 3.83269 18.159 3.69368 17.4615 3.69368C15.9436 3.69368 14.3846 4.22986 12.7846 5.30222C12.2103 5.42137 11.759 5.56038 11.4308 5.71925C10.6923 5.95755 10.2205 6.05685 10.0154 6.01713C9.89231 5.97741 9.70769 5.79868 9.46154 5.48095C9.21538 5.16321 8.98974 4.90505 8.78462 4.70647L8.16923 3.45538L10.0769 2.4426C12.6205 0.814199 14.8359 0 16.7231 0C17.3795 0 17.9538 0.0794344 18.4462 0.238303C18.8154 0.238303 19.1846 0.278018 19.5538 0.357451C19.9231 0.436887 20.1487 0.496465 20.2308 0.536181C20.7231 0.496465 21.359 0.873774 22.1385 1.66811C22.959 2.46245 23.5744 3.27665 23.9846 4.11071C24.4769 4.82562 24.7231 5.56038 24.7231 6.31501C24.7231 7.50652 24.0667 9.03562 22.7538 10.9023C21.8513 11.935 20.4769 13.4244 18.6308 15.3705C16.7846 17.3166 15.6564 18.4486 15.2462 18.7663C14.7538 19.0046 13.5641 20.1564 11.6769 22.2217C9.78974 24.287 8.92821 25.3196 9.09231 25.3196V25.4387C9.09231 25.2004 10.3641 24.9026 12.9077 24.5451C15.4923 24.1479 17.4821 23.9494 18.8769 23.9494C19.3282 23.9494 19.6359 23.9891 19.8 24.0685C19.8821 24.2274 19.9436 24.3068 19.9846 24.3068C20.0667 24.2671 20.1077 24.2274 20.1077 24.1877C20.1487 24.0288 20.4359 23.9494 20.9692 23.9494C21.9128 23.9494 23.0205 24.1281 24.2923 24.4855C24.4154 24.5253 24.6205 24.5848 24.9077 24.6643C25.2359 24.7437 25.4615 24.8231 25.5846 24.9026C25.7077 24.982 25.7692 25.0614 25.7692 25.1409C25.8103 25.1806 25.8718 25.2997 25.9538 25.4983C26.0769 25.6572 26.241 25.8558 26.4462 26.0941C26.8154 26.3721 27 26.6104 27 26.809C27 27.087 26.6513 27.226 25.9538 27.226C25.4615 27.226 24.641 27.1267 23.4923 26.9281C22.4256 26.9281 21.5436 26.9877 20.8462 27.1069C20.7231 27.1863 20.3333 27.2459 19.6769 27.2856C19.0615 27.2856 18.5897 27.2856 18.2615 27.2856C18.0564 27.2459 17.7692 27.226 17.4 27.226C16.4564 27.226 15.1231 27.504 13.4 28.0601C12.4974 28.4175 11.0205 28.8544 8.96923 29.3707C6.91795 29.8871 5.70769 30.0856 5.33846 29.9665Z" fill="#5A5A5B"/>
</svg>
