<svg width="30" height="30" viewBox="0 0 30 30" fill="none" xmlns="http://www.w3.org/2000/svg">
<rect width="30" height="30" fill="white"/>
<path d="M9.76428 30C8.21357 30 6.83731 29.77 5.63551 29.3101C4.47248 28.8118 3.92973 28.2369 4.00727 27.5853C4.04604 27.1637 4.10419 26.8954 4.18172 26.7804C4.29803 26.6271 4.51125 26.5504 4.82139 26.5504L6.04258 26.6654C6.89547 26.8187 7.59328 26.8954 8.13603 26.8954C9.88058 26.8954 11.6639 26.5696 13.486 25.918C15.3081 25.2664 16.6843 24.4806 17.6147 23.5608C18.5452 22.6792 19.0104 21.7593 19.0104 20.8011C19.0104 19.7279 18.4095 18.7888 17.2077 17.9839C16.4711 17.4856 15.3468 17.0257 13.8349 16.6041C12.323 16.1824 11.1599 16.01 10.3458 16.0866C10.2295 16.125 10.0744 16.1441 9.88058 16.1441C9.4929 16.1441 9.00831 15.9716 8.42679 15.6267C8.07788 15.2434 7.72897 14.7068 7.38006 14.0169C7.34129 13.8252 7.43821 13.6336 7.67082 13.4419C7.94219 13.2503 8.56248 12.8862 9.53167 12.3496C10.5009 11.7746 11.7608 11.0847 13.3115 10.2798C15.6764 8.97662 17.3628 8.0184 18.3707 7.40514C19.4174 6.75355 20.2316 6.19778 20.8131 5.73783C21.1232 5.35454 21.3752 5.00958 21.5691 4.70295C21.7629 4.39632 21.8598 4.16635 21.8598 4.01303C21.8598 3.85972 21.7435 3.72556 21.5109 3.61058C21.2783 3.49559 20.8906 3.3806 20.3479 3.26562C19.2236 3.15063 18.1963 3.09314 17.2658 3.09314C16.568 3.09314 16.2191 3.15063 16.2191 3.26562H15.9865C15.7151 3.15063 14.9592 3.22729 13.7186 3.49559C12.5168 3.76389 11.8965 3.9747 11.8577 4.12802C11.819 4.24301 11.4119 4.43465 10.6366 4.70295C9.8612 4.97125 9.3766 5.1054 9.18276 5.1054C8.87262 5.02875 8.52371 4.66462 8.13603 4.01303C7.78712 3.36144 7.67082 2.90149 7.78712 2.63319C7.90343 2.28823 9.10523 1.57915 11.3925 0.50594C12.1291 0.314296 13.3503 0.180146 15.0561 0.103489C16.8006 -0.0114986 18.08 -0.0306637 18.8941 0.0459954C22.3832 0.429284 24.3603 1.86662 24.8255 4.35799C24.9418 4.74128 25 5.08624 25 5.39287C25 5.81449 24.8449 6.21694 24.5348 6.60023C24.2634 6.94519 23.6819 7.52012 22.7902 8.32503L21.3946 9.24492C20.1153 10.0498 18.8553 10.7972 17.6147 11.4872C17.5372 11.5638 17.0526 11.8896 16.161 12.4645C15.153 13.0778 14.649 13.4419 14.649 13.5569C14.7265 13.6336 14.901 13.7677 15.1724 13.9594C15.4825 14.1127 15.7927 14.3235 16.1028 14.5918C17.1108 14.9368 18.08 15.5117 19.0104 16.3166C19.9408 17.0832 20.658 17.8114 21.162 18.5013C21.6272 19.5362 21.8598 20.5328 21.8598 21.491C21.8598 22.7175 21.4915 23.8674 20.7549 24.9406C20.0571 25.9755 18.991 26.9145 17.5566 27.7578C16.5099 28.3327 15.2693 28.831 13.8349 29.2526C12.4005 29.6742 11.0436 29.9233 9.76428 30Z" fill="#5A5A5B"/>
</svg>
