<svg width="192" height="122" viewBox="0 0 192 122" fill="none" xmlns="http://www.w3.org/2000/svg">
<path d="M0.49999 121C0.49999 121.276 0.723848 121.5 0.99999 121.5C1.27613 121.5 1.49999 121.276 1.49999 121L0.49999 121ZM1 4L1 3.5C0.723858 3.5 0.5 3.72386 0.5 4L1 4ZM191.354 4.35357C191.549 4.15831 191.549 3.84173 191.354 3.64646L188.172 0.464483C187.976 0.26922 187.66 0.26922 187.464 0.464483C187.269 0.659745 187.269 0.976327 187.464 1.17159L190.293 4.00002L187.464 6.82844C187.269 7.02371 187.269 7.34029 187.464 7.53555C187.66 7.73081 187.976 7.73081 188.172 7.53555L191.354 4.35357ZM191 3.50002L190.01 3.50002L190.01 4.50002L191 4.50002L191 3.50002ZM188.031 3.50002L186.052 3.50002L186.052 4.50002L188.031 4.50002L188.031 3.50002ZM184.073 3.50002L182.094 3.50002L182.094 4.50002L184.073 4.50002L184.073 3.50002ZM180.115 3.50002L178.135 3.50002L178.135 4.50002L180.115 4.50002L180.115 3.50002ZM176.156 3.50002L174.177 3.50002L174.177 4.50002L176.156 4.50002L176.156 3.50002ZM172.198 3.50002L170.219 3.50001L170.219 4.50001L172.198 4.50002L172.198 3.50002ZM168.24 3.50001L166.26 3.50001L166.26 4.50001L168.24 4.50001L168.24 3.50001ZM164.281 3.50001L162.302 3.50001L162.302 4.50001L164.281 4.50001L164.281 3.50001ZM160.323 3.50001L158.344 3.50001L158.344 4.50001L160.323 4.50001L160.323 3.50001ZM156.365 3.50001L154.385 3.50001L154.385 4.50001L156.365 4.50001L156.365 3.50001ZM152.406 3.50001L150.427 3.50001L150.427 4.50001L152.406 4.50001L152.406 3.50001ZM148.448 3.50001L146.469 3.50001L146.469 4.50001L148.448 4.50001L148.448 3.50001ZM144.49 3.50001L142.51 3.50001L142.51 4.50001L144.49 4.50001L144.49 3.50001ZM140.531 3.50001L138.552 3.50001L138.552 4.50001L140.531 4.50001L140.531 3.50001ZM136.573 3.50001L134.594 3.50001L134.594 4.50001L136.573 4.50001L136.573 3.50001ZM132.615 3.50001L130.635 3.50001L130.635 4.50001L132.615 4.50001L132.615 3.50001ZM128.656 3.50001L126.677 3.50001L126.677 4.50001L128.656 4.50001L128.656 3.50001ZM124.698 3.50001L122.719 3.50001L122.719 4.50001L124.698 4.50001L124.698 3.50001ZM120.74 3.50001L118.76 3.50001L118.76 4.50001L120.74 4.50001L120.74 3.50001ZM116.781 3.50001L114.802 3.50001L114.802 4.50001L116.781 4.50001L116.781 3.50001ZM112.823 3.50001L110.844 3.50001L110.844 4.50001L112.823 4.50001L112.823 3.50001ZM108.865 3.50001L106.885 3.50001L106.885 4.50001L108.865 4.50001L108.865 3.50001ZM104.906 3.50001L102.927 3.50001L102.927 4.50001L104.906 4.50001L104.906 3.50001ZM100.948 3.50001L98.9688 3.50001L98.9688 4.50001L100.948 4.50001L100.948 3.50001ZM96.9896 3.50001L95.0105 3.50001L95.0105 4.50001L96.9896 4.50001L96.9896 3.50001ZM93.0313 3.50001L91.0521 3.50001L91.0521 4.50001L93.0313 4.50001L93.0313 3.50001ZM89.073 3.50001L87.0938 3.50001L87.0938 4.50001L89.073 4.50001L89.073 3.50001ZM85.1146 3.50001L83.1355 3.50001L83.1355 4.50001L85.1146 4.50001L85.1146 3.50001ZM81.1563 3.50001L79.1771 3.50001L79.1771 4.50001L81.1563 4.50001L81.1563 3.50001ZM77.198 3.50001L75.2188 3.50001L75.2188 4.50001L77.198 4.50001L77.198 3.50001ZM73.2397 3.50001L71.2605 3.50001L71.2605 4.50001L73.2397 4.50001L73.2397 3.50001ZM69.2813 3.50001L67.3022 3.50001L67.3022 4.50001L69.2813 4.50001L69.2813 3.50001ZM65.323 3.50001L63.3438 3.50001L63.3438 4.50001L65.323 4.50001L65.323 3.50001ZM61.3647 3.50001L59.3855 3.5L59.3855 4.5L61.3647 4.50001L61.3647 3.50001ZM57.4063 3.5L55.4272 3.5L55.4272 4.5L57.4063 4.5L57.4063 3.5ZM53.448 3.5L51.4688 3.5L51.4688 4.5L53.448 4.5L53.448 3.5ZM49.4896 3.5L47.5105 3.5L47.5105 4.5L49.4896 4.5L49.4896 3.5ZM45.5313 3.5L43.5521 3.5L43.5521 4.5L45.5313 4.5L45.5313 3.5ZM41.573 3.5L39.5938 3.5L39.5938 4.5L41.573 4.5L41.573 3.5ZM37.6146 3.5L35.6354 3.5L35.6354 4.5L37.6146 4.5L37.6146 3.5ZM33.6563 3.5L31.6771 3.5L31.6771 4.5L33.6563 4.5L33.6563 3.5ZM29.6979 3.5L27.7188 3.5L27.7188 4.5L29.6979 4.5L29.6979 3.5ZM25.7396 3.5L23.7604 3.5L23.7604 4.5L25.7396 4.5L25.7396 3.5ZM21.7812 3.5L19.8021 3.5L19.8021 4.5L21.7812 4.5L21.7812 3.5ZM17.8229 3.5L15.8437 3.5L15.8437 4.5L17.8229 4.5L17.8229 3.5ZM13.8645 3.5L11.8854 3.5L11.8854 4.5L13.8645 4.5L13.8645 3.5ZM9.90621 3.5L7.92704 3.5L7.92703 4.5L9.90621 4.5L9.90621 3.5ZM5.94786 3.5L3.96869 3.5L3.96869 4.5L5.94786 4.5L5.94786 3.5ZM1.98951 3.5L1 3.5L1 4.5L1.98951 4.5L1.98951 3.5ZM0.5 4L0.5 5.00862L1.5 5.00862L1.5 4L0.5 4ZM0.5 7.02586L0.5 9.0431L1.5 9.0431L1.5 7.02586L0.5 7.02586ZM0.5 11.0603L0.5 13.0776L1.5 13.0776L1.5 11.0603L0.5 11.0603ZM0.499999 15.0948L0.499999 17.1121L1.5 17.1121L1.5 15.0948L0.499999 15.0948ZM0.499999 19.1293L0.499999 21.1465L1.5 21.1465L1.5 19.1293L0.499999 19.1293ZM0.499999 23.1638L0.499999 25.181L1.5 25.181L1.5 23.1638L0.499999 23.1638ZM0.499998 27.1983L0.499998 29.2155L1.5 29.2155L1.5 27.1983L0.499998 27.1983ZM0.499998 31.2327L0.499998 33.25L1.5 33.25L1.5 31.2327L0.499998 31.2327ZM0.499998 35.2672L0.499998 37.2845L1.5 37.2845L1.5 35.2672L0.499998 35.2672ZM0.499997 39.3017L0.499997 41.319L1.5 41.319L1.5 39.3017L0.499997 39.3017ZM0.499997 43.3362L0.499997 45.3534L1.5 45.3534L1.5 43.3362L0.499997 43.3362ZM0.499997 47.3707L0.499997 49.3879L1.5 49.3879L1.5 47.3707L0.499997 47.3707ZM0.499996 51.4052L0.499996 53.4224L1.5 53.4224L1.5 51.4052L0.499996 51.4052ZM0.499996 55.4397L0.499996 57.4569L1.5 57.4569L1.5 55.4397L0.499996 55.4397ZM0.499996 59.4741L0.499996 61.4914L1.5 61.4914L1.5 59.4741L0.499996 59.4741ZM0.499995 63.5086L0.499995 65.5259L1.5 65.5259L1.5 63.5086L0.499995 63.5086ZM0.499995 67.5431L0.499995 69.5603L1.49999 69.5603L1.49999 67.5431L0.499995 67.5431ZM0.499995 71.5776L0.499994 73.5948L1.49999 73.5948L1.49999 71.5776L0.499995 71.5776ZM0.499994 75.6121L0.499994 77.6293L1.49999 77.6293L1.49999 75.6121L0.499994 75.6121ZM0.499994 79.6466L0.499994 81.6638L1.49999 81.6638L1.49999 79.6466L0.499994 79.6466ZM0.499994 83.681L0.499993 85.6983L1.49999 85.6983L1.49999 83.681L0.499994 83.681ZM0.499993 87.7155L0.499993 89.7328L1.49999 89.7328L1.49999 87.7155L0.499993 87.7155ZM0.499993 91.75L0.499993 93.7673L1.49999 93.7673L1.49999 91.75L0.499993 91.75ZM0.499993 95.7845L0.499992 97.8017L1.49999 97.8017L1.49999 95.7845L0.499993 95.7845ZM0.499992 99.819L0.499992 101.836L1.49999 101.836L1.49999 99.819L0.499992 99.819ZM0.499992 103.853L0.499992 105.871L1.49999 105.871L1.49999 103.853L0.499992 103.853ZM0.499992 107.888L0.499991 109.905L1.49999 109.905L1.49999 107.888L0.499992 107.888ZM0.499991 111.922L0.499991 113.94L1.49999 113.94L1.49999 111.922L0.499991 111.922ZM0.499991 115.957L0.499991 117.974L1.49999 117.974L1.49999 115.957L0.499991 115.957ZM0.499991 119.991L0.49999 121L1.49999 121L1.49999 119.991L0.499991 119.991Z" fill="#5A5A5B"/>
</svg>
