<svg width="20" height="20" viewBox="0 0 20 20" fill="none" xmlns="http://www.w3.org/2000/svg">
<circle cx="10" cy="10" r="10" transform="rotate(90 10 10)" fill="#F4774C"/>
<path fill-rule="evenodd" clip-rule="evenodd" d="M5.33582 10.1435C5.13029 9.95906 4.81417 9.97616 4.62975 10.1817C4.44532 10.3872 4.46243 10.7033 4.66795 10.8878L9.66676 15.3733C9.85675 15.5438 10.1446 15.5438 10.3346 15.3733L15.3334 10.8878C15.539 10.7033 15.5561 10.3872 15.3716 10.1817C15.1872 9.97616 14.8711 9.95906 14.6656 10.1435L10.5148 13.8681L10.5136 5.00019C10.5136 4.72405 10.2897 4.50011 10.0135 4.5C9.7374 4.49989 9.51357 4.72367 9.51361 4.99981L9.51481 13.8934L5.33582 10.1435Z" fill="white"/>
</svg>
