<svg width="40" height="40" viewBox="0 0 40 40" fill="none" xmlns="http://www.w3.org/2000/svg">
<circle cx="20" cy="20" r="20" fill="#F25F2D"/>
<path fill-rule="evenodd" clip-rule="evenodd" d="M20.287 29.3273C19.9181 29.7383 19.9523 30.3706 20.3634 30.7394C20.7744 31.1083 21.4067 31.074 21.7755 30.663L30.7467 20.6654C31.0876 20.2854 31.0876 19.7096 30.7467 19.3296L21.7755 9.33202C21.4067 8.92097 20.7744 8.88675 20.3634 9.25561C19.9523 9.62446 19.9181 10.2567 20.287 10.6678L27.7362 18.9693L10.0004 18.9717C9.4481 18.9718 9.00021 19.4195 9 19.9718C8.99979 20.5241 9.44733 20.9718 9.99962 20.9717L27.7868 20.9693L20.287 29.3273Z" fill="white"/>
</svg>
