<svg width="25" height="25" viewBox="0 0 25 25" fill="none" xmlns="http://www.w3.org/2000/svg">
<path d="M19.2499 11.7497H13.25V5.74971C13.25 5.3358 12.914 4.99976 12.4999 4.99976C12.086 4.99976 11.75 5.3358 11.75 5.74971V11.7497H5.74995C5.33604 11.7497 5 12.0858 5 12.4997C5 12.9137 5.33604 13.2498 5.74995 13.2498H11.75V19.2497C11.75 19.6637 12.086 19.9998 12.4999 19.9998C12.914 19.9998 13.25 19.6637 13.25 19.2497V13.2498H19.2499C19.664 13.2498 20 12.9137 20 12.4997C20 12.0858 19.664 11.7497 19.2499 11.7497Z" fill="#F4774C"/>
<circle cx="12.5" cy="12.5" r="12" stroke="#F4774C"/>
</svg>
