<svg width="15" height="15" viewBox="0 0 15 15" fill="none" xmlns="http://www.w3.org/2000/svg">
<path d="M13.3333 0H1.66667C0.75 0 0 0.75 0 1.66667V13.3333C0 14.25 0.75 15 1.66667 15H13.3333C14.25 15 15 14.25 15 13.3333V1.66667C15 0.75 14.25 0 13.3333 0ZM6.425 11.075C6.1 11.4 5.575 11.4 5.25 11.075L2.25833 8.08333C1.93333 7.75833 1.93333 7.23333 2.25833 6.90833C2.58333 6.58333 3.10833 6.58333 3.43333 6.90833L5.83333 9.30833L11.5667 3.575C11.8917 3.25 12.4167 3.25 12.7417 3.575C13.0667 3.9 13.0667 4.425 12.7417 4.75L6.425 11.075Z" fill="#F4774C"/>
</svg>
