<svg width="310" height="85" viewBox="0 0 310 85" fill="none" xmlns="http://www.w3.org/2000/svg">
<path d="M309 84.5C309.276 84.5 309.5 84.2762 309.5 84C309.5 83.7239 309.276 83.5 309 83.5L309 84.5ZM4 84L3.5 84C3.5 84.2761 3.72387 84.5 4 84.5L4 84ZM4.35358 0.646433C4.15829 0.451171 3.84174 0.451171 3.64645 0.646433L0.464477 3.82841C0.269226 4.02368 0.269226 4.34026 0.464477 4.53552C0.659729 4.73078 0.976318 4.73078 1.1716 4.53552L4 1.70709L6.82843 4.53552C7.02371 4.73078 7.34027 4.73078 7.53555 4.53552C7.7308 4.34026 7.7308 4.02368 7.53555 3.82841L4.35358 0.646433ZM3.5 0.999987L3.5 1.98808L4.5 1.98808L4.5 0.999987L3.5 0.999987ZM3.5 3.96427L3.5 5.94046L4.5 5.94046L4.5 3.96427L3.5 3.96427ZM3.5 7.91665L3.5 9.89284L4.5 9.89284L4.5 7.91665L3.5 7.91665ZM3.5 11.869L3.5 13.8452L4.5 13.8452L4.5 11.869L3.5 11.869ZM3.5 15.8214L3.5 17.7976L4.5 17.7976L4.5 15.8214L3.5 15.8214ZM3.5 19.7738L3.5 21.75L4.5 21.75L4.5 19.7738L3.5 19.7738ZM3.5 23.7262L3.5 25.7024L4.5 25.7024L4.5 23.7262L3.5 23.7262ZM3.5 27.6786L3.5 29.6547L4.5 29.6547L4.5 27.6786L3.5 27.6786ZM3.5 31.6309L3.5 33.6071L4.5 33.6071L4.5 31.6309L3.5 31.6309ZM3.5 35.5833L3.5 37.5595L4.5 37.5595L4.5 35.5833L3.5 35.5833ZM3.5 39.5357L3.5 41.5119L4.5 41.5119L4.5 39.5357L3.5 39.5357ZM3.5 43.4881L3.5 45.4643L4.5 45.4643L4.5 43.4881L3.5 43.4881ZM3.5 47.4405L3.5 49.4167L4.5 49.4167L4.5 47.4405L3.5 47.4405ZM3.5 51.3929L3.5 53.3691L4.5 53.3691L4.5 51.3929L3.5 51.3929ZM3.5 55.3452L3.5 57.3214L4.5 57.3214L4.5 55.3452L3.5 55.3452ZM3.5 59.2976L3.5 61.2738L4.5 61.2738L4.5 59.2976L3.5 59.2976ZM3.5 63.25L3.5 65.2262L4.5 65.2262L4.5 63.25L3.5 63.25ZM3.5 67.2024L3.5 69.1786L4.5 69.1786L4.5 67.2024L3.5 67.2024ZM3.5 71.1548L3.5 73.131L4.5 73.131L4.5 71.1548L3.5 71.1548ZM3.5 75.1072L3.5 77.0833L4.5 77.0833L4.5 75.1072L3.5 75.1072ZM3.5 79.0595L3.5 81.0357L4.5 81.0357L4.5 79.0595L3.5 79.0595ZM3.5 83.0119L3.5 84L4.5 84L4.5 83.0119L3.5 83.0119ZM4 84.5L5.00329 84.5L5.00329 83.5L4 83.5L4 84.5ZM7.00988 84.5L9.01645 84.5L9.01645 83.5L7.00988 83.5L7.00988 84.5ZM11.023 84.5L13.0296 84.5L13.0296 83.5L11.023 83.5L11.023 84.5ZM15.0362 84.5L17.0428 84.5L17.0428 83.5L15.0362 83.5L15.0362 84.5ZM19.0493 84.5L21.0559 84.5L21.0559 83.5L19.0493 83.5L19.0493 84.5ZM23.0625 84.5L25.0691 84.5L25.0691 83.5L23.0625 83.5L23.0625 84.5ZM27.0756 84.5L29.0822 84.5L29.0822 83.5L27.0756 83.5L27.0756 84.5ZM31.0888 84.5L33.0954 84.5L33.0954 83.5L31.0888 83.5L31.0888 84.5ZM35.102 84.5L37.1085 84.5L37.1085 83.5L35.102 83.5L35.102 84.5ZM39.1151 84.5L41.1217 84.5L41.1217 83.5L39.1151 83.5L39.1151 84.5ZM43.1283 84.5L45.1349 84.5L45.1349 83.5L43.1283 83.5L43.1283 84.5ZM47.1414 84.5L49.148 84.5L49.148 83.5L47.1414 83.5L47.1414 84.5ZM51.1546 84.5L53.1612 84.5L53.1612 83.5L51.1546 83.5L51.1546 84.5ZM55.1678 84.5L57.1744 84.5L57.1744 83.5L55.1678 83.5L55.1678 84.5ZM59.1809 84.5L61.1875 84.5L61.1875 83.5L59.1809 83.5L59.1809 84.5ZM63.1941 84.5L65.2007 84.5L65.2007 83.5L63.1941 83.5L63.1941 84.5ZM67.2073 84.5L69.2138 84.5L69.2138 83.5L67.2073 83.5L67.2073 84.5ZM71.2204 84.5L73.227 84.5L73.227 83.5L71.2204 83.5L71.2204 84.5ZM75.2336 84.5L77.2401 84.5L77.2401 83.5L75.2336 83.5L75.2336 84.5ZM79.2467 84.5L81.2533 84.5L81.2533 83.5L79.2467 83.5L79.2467 84.5ZM83.2599 84.5L85.2664 84.5L85.2664 83.5L83.2599 83.5L83.2599 84.5ZM87.273 84.5L89.2796 84.5L89.2796 83.5L87.273 83.5L87.273 84.5ZM91.2862 84.5L93.2928 84.5L93.2928 83.5L91.2862 83.5L91.2862 84.5ZM95.2993 84.5L97.3059 84.5L97.3059 83.5L95.2993 83.5L95.2993 84.5ZM99.3125 84.5L101.319 84.5L101.319 83.5L99.3125 83.5L99.3125 84.5ZM103.326 84.5L105.332 84.5L105.332 83.5L103.326 83.5L103.326 84.5ZM107.339 84.5L109.345 84.5L109.345 83.5L107.339 83.5L107.339 84.5ZM111.352 84.5L113.359 84.5L113.359 83.5L111.352 83.5L111.352 84.5ZM115.365 84.5L117.372 84.5L117.372 83.5L115.365 83.5L115.365 84.5ZM119.378 84.5L121.385 84.5L121.385 83.5L119.378 83.5L119.378 84.5ZM123.391 84.5L125.398 84.5L125.398 83.5L123.391 83.5L123.391 84.5ZM127.405 84.5L129.411 84.5L129.411 83.5L127.405 83.5L127.405 84.5ZM131.418 84.5L133.424 84.5L133.424 83.5L131.418 83.5L131.418 84.5ZM135.431 84.5L137.437 84.5L137.437 83.5L135.431 83.5L135.431 84.5ZM139.444 84.5L141.451 84.5L141.451 83.5L139.444 83.5L139.444 84.5ZM143.457 84.5L145.464 84.5L145.464 83.5L143.457 83.5L143.457 84.5ZM147.47 84.5L149.477 84.5L149.477 83.5L147.47 83.5L147.47 84.5ZM151.483 84.5L153.49 84.5L153.49 83.5L151.483 83.5L151.483 84.5ZM155.497 84.5L157.503 84.5L157.503 83.5L155.497 83.5L155.497 84.5ZM159.51 84.5L161.516 84.5L161.516 83.5L159.51 83.5L159.51 84.5ZM163.523 84.5L165.53 84.5L165.53 83.5L163.523 83.5L163.523 84.5ZM167.536 84.5L169.543 84.5L169.543 83.5L167.536 83.5L167.536 84.5ZM171.549 84.5L173.556 84.5L173.556 83.5L171.549 83.5L171.549 84.5ZM175.562 84.5L177.569 84.5L177.569 83.5L175.562 83.5L175.562 84.5ZM179.576 84.5L181.582 84.5L181.582 83.5L179.576 83.5L179.576 84.5ZM183.589 84.5L185.595 84.5L185.595 83.5L183.589 83.5L183.589 84.5ZM187.602 84.5L189.608 84.5L189.608 83.5L187.602 83.5L187.602 84.5ZM191.615 84.5L193.622 84.5L193.622 83.5L191.615 83.5L191.615 84.5ZM195.628 84.5L197.635 84.5L197.635 83.5L195.628 83.5L195.628 84.5ZM199.641 84.5L201.648 84.5L201.648 83.5L199.641 83.5L199.641 84.5ZM203.654 84.5L205.661 84.5L205.661 83.5L203.654 83.5L203.654 84.5ZM207.668 84.5L209.674 84.5L209.674 83.5L207.668 83.5L207.668 84.5ZM211.681 84.5L213.687 84.5L213.687 83.5L211.681 83.5L211.681 84.5ZM215.694 84.5L217.7 84.5L217.7 83.5L215.694 83.5L215.694 84.5ZM219.707 84.5L221.714 84.5L221.714 83.5L219.707 83.5L219.707 84.5ZM223.72 84.5L225.727 84.5L225.727 83.5L223.72 83.5L223.72 84.5ZM227.733 84.5L229.74 84.5L229.74 83.5L227.733 83.5L227.733 84.5ZM231.747 84.5L233.753 84.5L233.753 83.5L231.747 83.5L231.747 84.5ZM235.76 84.5L237.766 84.5L237.766 83.5L235.76 83.5L235.76 84.5ZM239.773 84.5L241.779 84.5L241.779 83.5L239.773 83.5L239.773 84.5ZM243.786 84.5L245.793 84.5L245.793 83.5L243.786 83.5L243.786 84.5ZM247.799 84.5L249.806 84.5L249.806 83.5L247.799 83.5L247.799 84.5ZM251.812 84.5L253.819 84.5L253.819 83.5L251.812 83.5L251.812 84.5ZM255.825 84.5L257.832 84.5L257.832 83.5L255.825 83.5L255.825 84.5ZM259.839 84.5L261.845 84.5L261.845 83.5L259.839 83.5L259.839 84.5ZM263.852 84.5L265.858 84.5L265.858 83.5L263.852 83.5L263.852 84.5ZM267.865 84.5L269.872 84.5L269.872 83.5L267.865 83.5L267.865 84.5ZM271.878 84.5L273.885 84.5L273.885 83.5L271.878 83.5L271.878 84.5ZM275.891 84.5L277.898 84.5L277.898 83.5L275.891 83.5L275.891 84.5ZM279.905 84.5L281.911 84.5L281.911 83.5L279.905 83.5L279.905 84.5ZM283.918 84.5L285.924 84.5L285.924 83.5L283.918 83.5L283.918 84.5ZM287.931 84.5L289.937 84.5L289.937 83.5L287.931 83.5L287.931 84.5ZM291.944 84.5L293.951 84.5L293.951 83.5L291.944 83.5L291.944 84.5ZM295.957 84.5L297.964 84.5L297.964 83.5L295.957 83.5L295.957 84.5ZM299.97 84.5L301.977 84.5L301.977 83.5L299.97 83.5L299.97 84.5ZM303.984 84.5L305.99 84.5L305.99 83.5L303.984 83.5L303.984 84.5ZM307.997 84.5L309 84.5L309 83.5L307.997 83.5L307.997 84.5Z" fill="#5A5A5B"/>
</svg>
