<svg width="179" height="99" viewBox="0 0 179 99" fill="none" xmlns="http://www.w3.org/2000/svg">
<path d="M178.5 1C178.5 0.723858 178.276 0.5 178 0.5C177.724 0.5 177.5 0.723858 177.5 1L178.5 1ZM178 95V95.5C178.276 95.5 178.5 95.2761 178.5 95H178ZM0.646447 94.6464C0.451184 94.8417 0.451184 95.1583 0.646447 95.3536L3.82843 98.5355C4.02369 98.7308 4.34027 98.7308 4.53553 98.5355C4.7308 98.3403 4.7308 98.0237 4.53553 97.8284L1.70711 95L4.53553 92.1716C4.7308 91.9763 4.7308 91.6597 4.53553 91.4645C4.34027 91.2692 4.02369 91.2692 3.82843 91.4645L0.646447 94.6464ZM1 95.5H2.00568V94.5H1L1 95.5ZM4.01705 95.5H6.02841V94.5H4.01705V95.5ZM8.03977 95.5H10.0511L10.0511 94.5H8.03977V95.5ZM12.0625 95.5H14.0739L14.0739 94.5H12.0625L12.0625 95.5ZM16.0852 95.5H18.0966V94.5H16.0852V95.5ZM20.108 95.5H22.1193V94.5H20.108V95.5ZM24.1307 95.5H26.142V94.5H24.1307V95.5ZM28.1534 95.5H30.1648V94.5H28.1534V95.5ZM32.1761 95.5H34.1875V94.5H32.1761V95.5ZM36.1989 95.5H38.2102V94.5H36.1989V95.5ZM40.2216 95.5H42.233V94.5H40.2216V95.5ZM44.2443 95.5L46.2557 95.5V94.5L44.2443 94.5V95.5ZM48.2671 95.5H50.2784V94.5H48.2671V95.5ZM52.2898 95.5H54.3011V94.5H52.2898V95.5ZM56.3125 95.5H58.3239V94.5H56.3125V95.5ZM60.3352 95.5H62.3466V94.5H60.3352V95.5ZM64.358 95.5H66.3693V94.5H64.358V95.5ZM68.3807 95.5H70.392V94.5H68.3807V95.5ZM72.4034 95.5H74.4148V94.5H72.4034V95.5ZM76.4261 95.5H78.4375V94.5H76.4261V95.5ZM80.4488 95.5H82.4602V94.5H80.4488V95.5ZM84.4716 95.5H86.4829V94.5H84.4716V95.5ZM88.4943 95.5H90.5056V94.5H88.4943V95.5ZM92.517 95.5H94.5284V94.5H92.517V95.5ZM96.5397 95.5H98.5511V94.5H96.5397V95.5ZM100.562 95.5H102.574V94.5H100.562V95.5ZM104.585 95.5H106.597V94.5H104.585V95.5ZM108.608 95.5H110.619V94.5H108.608V95.5ZM112.631 95.5H114.642V94.5H112.631V95.5ZM116.653 95.5H118.665V94.5H116.653V95.5ZM120.676 95.5H122.687V94.5H120.676V95.5ZM124.699 95.5H126.71V94.5H124.699V95.5ZM128.721 95.5H130.733V94.5H128.721V95.5ZM132.744 95.5L134.756 95.5V94.5L132.744 94.5V95.5ZM136.767 95.5H138.778V94.5H136.767V95.5ZM140.79 95.5H142.801V94.5H140.79V95.5ZM144.812 95.5H146.824V94.5H144.812V95.5ZM148.835 95.5H150.847V94.5H148.835V95.5ZM152.858 95.5H154.869V94.5H152.858V95.5ZM156.881 95.5H158.892V94.5H156.881V95.5ZM160.903 95.5H162.915V94.5H160.903V95.5ZM164.926 95.5H166.937V94.5H164.926V95.5ZM168.949 95.5H170.96V94.5H168.949V95.5ZM172.972 95.5H174.983V94.5H172.972V95.5ZM176.994 95.5H178V94.5H176.994V95.5ZM178.5 95V94.0208H177.5V95H178.5ZM178.5 92.0625V90.1042H177.5V92.0625H178.5ZM178.5 88.1458V86.1875H177.5V88.1458H178.5ZM178.5 84.2292V82.2708H177.5V84.2292H178.5ZM178.5 80.3125V78.3542H177.5V80.3125H178.5ZM178.5 76.3958V74.4375H177.5V76.3958H178.5ZM178.5 72.4792V70.5208H177.5V72.4792H178.5ZM178.5 68.5625V66.6042H177.5V68.5625H178.5ZM178.5 64.6458V62.6875H177.5V64.6458H178.5ZM178.5 60.7292V58.7708H177.5V60.7292H178.5ZM178.5 56.8125V54.8542H177.5V56.8125H178.5ZM178.5 52.8958V50.9375H177.5V52.8958H178.5ZM178.5 48.9792V47.0208H177.5V48.9792H178.5ZM178.5 45.0625V43.1042H177.5V45.0625H178.5ZM178.5 41.1458V39.1875H177.5V41.1458H178.5ZM178.5 37.2292V35.2708H177.5V37.2292H178.5ZM178.5 33.3125V31.3542H177.5V33.3125H178.5ZM178.5 29.3959V27.4375H177.5V29.3959H178.5ZM178.5 25.4792V23.5208H177.5V25.4792H178.5ZM178.5 21.5625V19.6042H177.5V21.5625H178.5ZM178.5 17.6458V15.6875H177.5V17.6458H178.5ZM178.5 13.7292V11.7708H177.5V13.7292H178.5ZM178.5 9.81249V7.85416H177.5V9.81249H178.5ZM178.5 5.89582V3.93748H177.5V5.89582H178.5ZM178.5 1.97915V1L177.5 1V1.97915H178.5Z" fill="#5A5A5B"/>
</svg>
