<svg width="15" height="15" viewBox="0 0 15 15" fill="none" xmlns="http://www.w3.org/2000/svg">
<path d="M7.5 0C6.01665 0 4.56659 0.439867 3.33323 1.26397C2.09986 2.08809 1.13857 3.25942 0.570908 4.62987C0.00324807 6.00029 -0.145274 7.50832 0.144113 8.96317C0.433501 10.418 1.14781 11.7544 2.19671 12.8033C3.2456 13.8522 4.58197 14.5665 6.03683 14.8559C7.49168 15.1453 8.9997 14.9968 10.3701 14.4291C11.7406 13.8614 12.9119 12.9001 13.736 11.6668C14.5601 10.4334 15 8.98334 15 7.49999C15 6.51509 14.806 5.53981 14.4291 4.62987C14.0522 3.71993 13.4998 2.89314 12.8033 2.19669C12.1069 1.50026 11.2801 0.947811 10.3701 0.570899C9.4602 0.193995 8.4849 0 7.5 0ZM8.2125 11.25H6.7875V6.37499H8.2125V11.25ZM7.5 5.36249C7.32945 5.36249 7.16265 5.31191 7.02083 5.21714C6.879 5.12237 6.76845 4.98766 6.70313 4.83006C6.63788 4.67246 6.62078 4.49903 6.65408 4.33173C6.68738 4.16442 6.7695 4.01074 6.8901 3.89012C7.01078 3.7695 7.16445 3.68735 7.33178 3.65407C7.49903 3.62079 7.6725 3.63787 7.83008 3.70315C7.98765 3.76843 8.12235 3.87898 8.21715 4.02081C8.31195 4.16265 8.3625 4.32941 8.3625 4.5C8.3625 4.72874 8.2716 4.94813 8.1099 5.10987C7.94813 5.27162 7.72875 5.36249 7.5 5.36249Z" fill="#AEAEAE"/>
</svg>
