<svg width="24" height="24" viewBox="0 0 24 24" fill="none" xmlns="http://www.w3.org/2000/svg">
<circle cx="12" cy="12" r="12" fill="#F4774C"/>
<path d="M4.7998 5.6998C4.7998 5.46111 4.89463 5.23219 5.06341 5.06341C5.23219 4.89463 5.46111 4.7998 5.6998 4.7998H7.6375C7.85054 4.7999 8.05663 4.87557 8.21912 5.01334C8.38162 5.15111 8.48997 5.34205 8.5249 5.5522L9.19091 9.5437C9.22273 9.7338 9.19268 9.92909 9.10519 10.1008C9.0177 10.2726 8.87739 10.4117 8.70491 10.4977L7.3117 11.1934C7.8113 12.4315 8.55535 13.5562 9.4994 14.5002C10.4435 15.4443 11.5681 16.1883 12.8062 16.6879L13.5028 15.2947C13.5888 15.1224 13.7277 14.9822 13.8993 14.8947C14.0709 14.8072 14.2659 14.7771 14.4559 14.8087L18.4474 15.4747C18.6576 15.5096 18.8485 15.618 18.9863 15.7805C19.124 15.943 19.1997 16.1491 19.1998 16.3621V18.2998C19.1998 18.5385 19.105 18.7674 18.9362 18.9362C18.7674 19.105 18.5385 19.1998 18.2998 19.1998H16.4998C10.0378 19.1998 4.7998 13.9618 4.7998 7.4998V5.6998Z" fill="white"/>
</svg>
