<svg width="20" height="20" viewBox="0 0 20 20" fill="none" xmlns="http://www.w3.org/2000/svg">
<rect width="20" height="20" fill="#E4E4E4"/>
<path d="M9.18429 19.9424C8.98489 20.1071 8.63041 19.9188 8.12085 19.3777C7.98792 19.2601 7.92145 19.1189 7.92145 18.9542C7.92145 18.8366 8.01007 18.3425 8.18731 17.4719C8.23162 17.1426 8.27593 16.9073 8.32024 16.7661C8.43102 16.2014 8.56395 15.6015 8.71903 14.9662C8.89627 14.3075 9.00705 13.884 9.05136 13.6957C9.2286 13.6016 9.62739 12.4488 10.2477 10.2372C10.5801 8.96668 10.9567 7.66089 11.3776 6.31981C11.577 5.66103 11.7321 5.0846 11.8429 4.59052C11.9537 4.09644 12.0312 3.77881 12.0755 3.63765C11.8761 3.75528 11.4441 4.02585 10.7795 4.44935C10.137 4.84932 9.52769 5.28459 8.95166 5.75514C8.90735 5.77867 8.4864 6.09629 7.68882 6.70801C7.51158 6.82565 7.26787 7.00211 6.9577 7.23739C6.66969 7.47266 6.42598 7.64912 6.22659 7.76676C5.89426 8.04909 5.61732 8.27261 5.39577 8.4373C5.19637 8.57847 5.05237 8.64905 4.96375 8.64905C4.91944 8.64905 4.80866 8.60199 4.63142 8.50788C4.21047 8.10791 4 7.7197 4 7.34326C4 7.2021 4.03323 7.06093 4.0997 6.91976C4.18832 6.89624 4.58711 6.6139 5.29607 6.07276C6.09366 5.46104 6.54783 5.13166 6.65861 5.0846C6.70292 5.0846 6.82477 5.00225 7.02417 4.83756C7.22356 4.64934 7.41188 4.49641 7.58912 4.37877C7.65559 4.28466 8.17623 3.87292 9.15106 3.14356L10.9124 1.76719C12.7734 0.54375 13.7925 -0.044442 13.9698 0.00261428C14.0806 0.0261417 14.2578 0.14378 14.5015 0.355529C14.7674 0.543751 14.9114 0.731974 14.9335 0.920194C14.9778 1.01431 15 1.09665 15 1.16724C15 1.33193 14.9114 1.62603 14.7341 2.04953C14.5347 2.49655 14.1692 3.53177 13.6375 5.15518C13.1279 6.7786 12.7402 8.06086 12.4743 9.00197C12.3192 9.61369 12.0866 10.3666 11.7764 11.2606C11.71 11.4724 11.6103 11.7782 11.4773 12.1782C11.3666 12.5547 11.2669 12.9429 11.1782 13.3428C10.9789 13.8604 10.7573 14.578 10.5136 15.4956C10.2699 16.4132 10.0816 17.1896 9.94864 17.8249L9.61631 18.8836C9.41692 19.5189 9.27291 19.8718 9.18429 19.9424Z" fill="#5A5A5B"/>
</svg>
