<svg width="20" height="20" viewBox="0 0 20 20" fill="none" xmlns="http://www.w3.org/2000/svg">
<rect width="20" height="20" fill="#E4E4E4"/>
<path d="M3.46154 18.9788C3.28205 18.9033 3.02564 18.7272 2.69231 18.4505C2.35897 18.1738 2.14103 17.9223 2.03846 17.6959C2.01282 17.6708 2 17.5953 2 17.4695C2 17.2934 2.03846 17.0922 2.11538 16.8658C2.19231 16.6394 2.26923 16.5262 2.34615 16.5262C2.42308 16.6017 2.62821 16.4131 2.96154 15.9603C3.32051 15.4824 3.51282 15.1805 3.53846 15.0547C3.5641 14.9541 3.64103 14.8661 3.76923 14.7906C3.92308 14.69 4.02564 14.6271 4.07692 14.602C4.20513 14.4007 4.38462 14.1869 4.61538 13.9605C4.87179 13.709 5.03846 13.5329 5.11538 13.4323C5.21795 13.3065 5.41026 13.1053 5.69231 12.8286C5.97436 12.5267 6.23077 12.2626 6.46154 12.0362C7.07692 11.4829 7.52564 11.0552 7.80769 10.7534C9.14103 9.34475 9.83333 8.52724 9.88461 8.30086C9.91026 8.2757 9.96154 8.22539 10.0385 8.14993C10.1154 8.07447 10.2179 7.99901 10.3462 7.92354C10.7308 7.672 11.0897 7.38273 11.4231 7.05573C11.4487 6.87965 11.5897 6.60295 11.8462 6.22564C12.1026 5.84833 12.359 5.5339 12.6154 5.28236C12.8205 5.00567 13 4.70382 13.1538 4.37681C13.3333 4.02466 13.4615 3.72281 13.5385 3.47127L13.6154 3.13169C13.6154 3.03107 13.5513 2.95561 13.4231 2.9053C13.2949 2.82984 13.141 2.76695 12.9615 2.71664C12.8077 2.66634 12.6795 2.6286 12.5769 2.60345C11.9872 2.42737 11.4744 2.33933 11.0385 2.33933C10.0897 2.33933 9.11538 2.67891 8.11538 3.35807C7.75641 3.43354 7.47436 3.52158 7.26923 3.62219C6.80769 3.77312 6.51282 3.836 6.38461 3.81085C6.30769 3.78569 6.19231 3.6725 6.03846 3.47127C5.88462 3.27003 5.74359 3.10653 5.61538 2.98076L5.23077 2.18841L6.42308 1.54698C8.01282 0.51566 9.39744 0 10.5769 0C10.9872 0 11.3462 0.0503084 11.6538 0.150925C11.8846 0.150925 12.1154 0.176078 12.3462 0.226386C12.5769 0.276695 12.7179 0.314428 12.7692 0.339581C13.0769 0.314428 13.4744 0.55339 13.9615 1.05647C14.4744 1.55955 14.859 2.07521 15.1154 2.60345C15.4231 3.05622 15.5769 3.52158 15.5769 3.9995C15.5769 4.75413 15.1667 5.72256 14.3462 6.9048C13.7821 7.55881 12.9231 8.50209 11.7692 9.73464C10.6154 10.9672 9.91026 11.6841 9.65385 11.8853C9.34615 12.0362 8.60256 12.7657 7.42308 14.0737C6.24359 15.3817 5.70513 16.0357 5.80769 16.0357V16.1112C5.80769 15.9603 6.60256 15.7716 8.19231 15.5452C9.80769 15.2937 11.0513 15.1679 11.9231 15.1679C12.2051 15.1679 12.3974 15.1931 12.5 15.2434C12.5513 15.344 12.5897 15.3943 12.6154 15.3943C12.6667 15.3692 12.6923 15.344 12.6923 15.3189C12.7179 15.2182 12.8974 15.1679 13.2308 15.1679C13.8205 15.1679 14.5128 15.2811 15.3077 15.5075C15.3846 15.5327 15.5128 15.5704 15.6923 15.6207C15.8974 15.671 16.0385 15.7213 16.1154 15.7716C16.1923 15.8219 16.2308 15.8722 16.2308 15.9226C16.2564 15.9477 16.2949 16.0232 16.3462 16.1489C16.4231 16.2496 16.5256 16.3753 16.6538 16.5262C16.8846 16.7023 17 16.8533 17 16.979C17 17.1551 16.7821 17.2431 16.3462 17.2431C16.0385 17.2431 15.5256 17.1803 14.8077 17.0545C14.141 17.0545 13.5897 17.0922 13.1538 17.1677C13.0769 17.218 12.8333 17.2557 12.4231 17.2809C12.0385 17.2809 11.7436 17.2809 11.5385 17.2809C11.4103 17.2557 11.2308 17.2431 11 17.2431C10.4103 17.2431 9.57692 17.4192 8.5 17.7714C7.9359 17.9978 7.01282 18.2745 5.73077 18.6015C4.44872 18.9285 3.69231 19.0542 3.46154 18.9788Z" fill="#5A5A5B"/>
</svg>
