<svg width="74" height="84" viewBox="0 0 74 84" fill="none" xmlns="http://www.w3.org/2000/svg">
<g filter="url(#filter0_d_1362_2480)">
<circle cx="42" cy="42" r="22" fill="#F4774C"/>
</g>
<path fill-rule="evenodd" clip-rule="evenodd" d="M51.3335 41.7151C51.7446 42.0839 52.3769 42.0496 52.7456 41.6384C53.1144 41.2273 53.0801 40.5951 52.669 40.2263L42.6684 31.2556C42.2884 30.9148 41.7128 30.9148 41.3329 31.2556L31.3323 40.2263C30.9212 40.5951 30.8868 41.2273 31.2556 41.6384C31.6244 42.0496 32.2566 42.0839 32.6677 41.7151L40.9726 34.2655L40.9748 52.0008C40.9749 52.5531 41.4227 53.001 41.9749 53.0012C42.5272 53.0014 42.9749 52.5539 42.9748 52.0016L42.9726 34.2153L51.3335 41.7151Z" fill="white"/>
<defs>
<filter id="filter0_d_1362_2480" x="0" y="0" width="84" height="84" filterUnits="userSpaceOnUse" color-interpolation-filters="sRGB">
<feFlood flood-opacity="0" result="BackgroundImageFix"/>
<feColorMatrix in="SourceAlpha" type="matrix" values="0 0 0 0 0 0 0 0 0 0 0 0 0 0 0 0 0 0 127 0" result="hardAlpha"/>
<feOffset/>
<feGaussianBlur stdDeviation="10"/>
<feComposite in2="hardAlpha" operator="out"/>
<feColorMatrix type="matrix" values="0 0 0 0 0.956863 0 0 0 0 0.466667 0 0 0 0 0.298039 0 0 0 0.7 0"/>
<feBlend mode="normal" in2="BackgroundImageFix" result="effect1_dropShadow_1362_2480"/>
<feBlend mode="normal" in="SourceGraphic" in2="effect1_dropShadow_1362_2480" result="shape"/>
</filter>
</defs>
</svg>
