<svg width="50" height="40" viewBox="0 0 50 40" fill="none" xmlns="http://www.w3.org/2000/svg">
<path d="M1 3.5C0.723858 3.5 0.5 3.72386 0.5 4C0.5 4.27614 0.723858 4.5 1 4.5L1 3.5ZM49.3536 4.35356C49.5488 4.15829 49.5488 3.84171 49.3536 3.64645L46.1716 0.464468C45.9763 0.269206 45.6597 0.269206 45.4645 0.464468C45.2692 0.65973 45.2692 0.976313 45.4645 1.17158L48.2929 4L45.4645 6.82843C45.2692 7.02369 45.2692 7.34027 45.4645 7.53554C45.6597 7.7308 45.9763 7.7308 46.1716 7.53554L49.3536 4.35356ZM1 4.5L49 4.5L49 3.5L1 3.5L1 4.5Z" fill="#5A5A5B"/>
<path d="M49 35.5C49.2761 35.5 49.5 35.7239 49.5 36C49.5 36.2761 49.2761 36.5 49 36.5L49 35.5ZM0.646442 36.3536C0.451183 36.1583 0.451183 35.8417 0.646442 35.6464L3.82843 32.4645C4.02369 32.2692 4.34027 32.2692 4.53553 32.4645C4.73079 32.6597 4.73079 32.9763 4.53553 33.1716L1.7071 36L4.53553 38.8284C4.73079 39.0237 4.73079 39.3403 4.53553 39.5355C4.34027 39.7308 4.02369 39.7308 3.82843 39.5355L0.646442 36.3536ZM49 36.5L48 36.5L48 35.5L49 35.5L49 36.5ZM46 36.5L44 36.5L44 35.5L46 35.5L46 36.5ZM42 36.5L40 36.5L40 35.5L42 35.5L42 36.5ZM38 36.5L36 36.5L36 35.5L38 35.5L38 36.5ZM34 36.5L32 36.5L32 35.5L34 35.5L34 36.5ZM30 36.5L28 36.5L28 35.5L30 35.5L30 36.5ZM26 36.5L24 36.5L24 35.5L26 35.5L26 36.5ZM22 36.5L20 36.5L20 35.5L22 35.5L22 36.5ZM18 36.5L16 36.5L16 35.5L18 35.5L18 36.5ZM14 36.5L12 36.5L12 35.5L14 35.5L14 36.5ZM10 36.5L8 36.5L8 35.5L10 35.5L10 36.5ZM6 36.5L4 36.5L4 35.5L6 35.5L6 36.5ZM2 36.5L0.999996 36.5L0.999996 35.5L2 35.5L2 36.5Z" fill="#5A5A5B"/>
<path d="M25.125 17C25.6223 17 26.0992 17.1975 26.4508 17.5492C26.8025 17.9008 27 18.3777 27 18.875C27 19.0408 27.0658 19.1997 27.1831 19.3169C27.3003 19.4342 27.4592 19.5 27.625 19.5C27.7908 19.5 27.9497 19.4342 28.0669 19.3169C28.1842 19.1997 28.25 19.0408 28.25 18.875C28.25 18.0462 27.9208 17.2513 27.3347 16.6653C26.7487 16.0792 25.9538 15.75 25.125 15.75C24.9592 15.75 24.8003 15.8158 24.6831 15.9331C24.5658 16.0503 24.5 16.2092 24.5 16.375C24.5 16.5408 24.5658 16.6997 24.6831 16.8169C24.8003 16.9342 24.9592 17 25.125 17Z" fill="#5A5A5B"/>
<path d="M25.125 14.5C26.2853 14.5 27.3981 14.9609 28.2186 15.7814C29.0391 16.6019 29.5 17.7147 29.5 18.875C29.5 19.0408 29.5658 19.1997 29.6831 19.3169C29.8003 19.4342 29.9592 19.5 30.125 19.5C30.2908 19.5 30.4497 19.4342 30.5669 19.3169C30.6842 19.1997 30.75 19.0408 30.75 18.875C30.75 17.3832 30.1574 15.9524 29.1025 14.8975C28.0476 13.8426 26.6168 13.25 25.125 13.25C24.9592 13.25 24.8003 13.3158 24.6831 13.4331C24.5658 13.5503 24.5 13.7092 24.5 13.875C24.5 14.0408 24.5658 14.1997 24.6831 14.3169C24.8003 14.4342 24.9592 14.5 25.125 14.5ZM30.5938 21.9438C30.5594 21.8434 30.5 21.7535 30.4213 21.6824C30.3426 21.6113 30.2471 21.5615 30.1438 21.5375L26.3938 20.6813C26.292 20.6582 26.186 20.6609 26.0856 20.6893C25.9851 20.7177 25.8934 20.7708 25.8187 20.8438C25.7312 20.925 25.5312 21.3265 25.125 22.1015C23.777 21.4803 22.48 20.2255 21.8644 18.875C22.6581 18.475 23.075 18.25 23.1562 18.1562C23.2292 18.0816 23.2823 17.9899 23.3107 17.8894C23.3391 17.789 23.3418 17.683 23.3187 17.5813L22.4625 13.875C22.4385 13.7717 22.3887 13.6762 22.3176 13.5974C22.2465 13.5187 22.1566 13.4594 22.0563 13.425C21.9103 13.3729 21.7596 13.3352 21.6062 13.3125C21.4483 13.2759 21.2871 13.2549 21.125 13.25C20.3625 13.25 19.6312 13.5529 19.0921 14.0921C18.5529 14.6312 18.25 15.3625 18.25 16.125C18.2533 18.6767 19.2684 21.1229 21.0728 22.9272C22.8771 24.7316 25.3233 25.7467 27.875 25.75C28.2526 25.75 28.6264 25.6756 28.9752 25.5312C29.324 25.3867 29.641 25.1749 29.9079 24.9079C30.1749 24.641 30.3867 24.324 30.5312 23.9752C30.6756 23.6264 30.75 23.2526 30.75 22.875C30.7502 22.7159 30.7377 22.5571 30.7125 22.4C30.6862 22.2448 30.6465 22.0921 30.5938 21.9438Z" fill="#5A5A5B"/>
</svg>
