<svg width="20" height="20" viewBox="0 0 20 20" fill="none" xmlns="http://www.w3.org/2000/svg">
<path d="M10 0C8.0222 0 6.08879 0.586489 4.4443 1.6853C2.79981 2.78412 1.51809 4.3459 0.761211 6.17316C0.00433075 8.00039 -0.193699 10.0111 0.192151 11.9509C0.578001 13.8907 1.53041 15.6725 2.92894 17.0711C4.32746 18.4696 6.10929 19.422 8.0491 19.8079C9.9889 20.1937 11.9996 19.9957 13.8268 19.2388C15.6541 18.4819 17.2159 17.2002 18.3147 15.5557C19.4135 13.9112 20 11.9778 20 9.99999C20 8.68679 19.7413 7.38641 19.2388 6.17316C18.7363 4.9599 17.9997 3.85752 17.0711 2.92893C16.1425 2.00035 15.0401 1.26375 13.8268 0.761199C12.6136 0.25866 11.3132 0 10 0ZM10.95 15H9.05V8.49999H10.95V15ZM10 7.14999C9.7726 7.14999 9.5502 7.08254 9.3611 6.95618C9.172 6.82982 9.0246 6.65021 8.9375 6.44008C8.8505 6.22994 8.8277 5.99871 8.8721 5.77564C8.9165 5.55256 9.026 5.34765 9.1868 5.18682C9.3477 5.02599 9.5526 4.91646 9.7757 4.87209C9.9987 4.82771 10.23 4.85049 10.4401 4.93753C10.6502 5.02457 10.8298 5.17197 10.9562 5.36108C11.0826 5.5502 11.15 5.77254 11.15 5.99999C11.15 6.30499 11.0288 6.5975 10.8132 6.81316C10.5975 7.02883 10.305 7.14999 10 7.14999Z" fill="#F4774C"/>
</svg>
