<svg width="50" height="40" viewBox="0 0 50 40" fill="none" xmlns="http://www.w3.org/2000/svg">
<path d="M1 3.5C0.723858 3.5 0.5 3.72386 0.5 4C0.5 4.27614 0.723858 4.5 1 4.5L1 3.5ZM49.3536 4.35356C49.5488 4.15829 49.5488 3.84171 49.3536 3.64645L46.1716 0.464468C45.9763 0.269206 45.6597 0.269206 45.4645 0.464468C45.2692 0.65973 45.2692 0.976313 45.4645 1.17158L48.2929 4L45.4645 6.82843C45.2692 7.02369 45.2692 7.34027 45.4645 7.53554C45.6597 7.7308 45.9763 7.7308 46.1716 7.53554L49.3536 4.35356ZM1 4.5L49 4.5L49 3.5L1 3.5L1 4.5Z" fill="#5A5A5B"/>
<path d="M49 35.5C49.2761 35.5 49.5 35.7239 49.5 36C49.5 36.2761 49.2761 36.5 49 36.5L49 35.5ZM0.646442 36.3536C0.451183 36.1583 0.451183 35.8417 0.646442 35.6464L3.82843 32.4645C4.02369 32.2692 4.34027 32.2692 4.53553 32.4645C4.73079 32.6597 4.73079 32.9763 4.53553 33.1716L1.7071 36L4.53553 38.8284C4.73079 39.0237 4.73079 39.3403 4.53553 39.5355C4.34027 39.7308 4.02369 39.7308 3.82843 39.5355L0.646442 36.3536ZM49 36.5L48 36.5L48 35.5L49 35.5L49 36.5ZM46 36.5L44 36.5L44 35.5L46 35.5L46 36.5ZM42 36.5L40 36.5L40 35.5L42 35.5L42 36.5ZM38 36.5L36 36.5L36 35.5L38 35.5L38 36.5ZM34 36.5L32 36.5L32 35.5L34 35.5L34 36.5ZM30 36.5L28 36.5L28 35.5L30 35.5L30 36.5ZM26 36.5L24 36.5L24 35.5L26 35.5L26 36.5ZM22 36.5L20 36.5L20 35.5L22 35.5L22 36.5ZM18 36.5L16 36.5L16 35.5L18 35.5L18 36.5ZM14 36.5L12 36.5L12 35.5L14 35.5L14 36.5ZM10 36.5L8 36.5L8 35.5L10 35.5L10 36.5ZM6 36.5L4 36.5L4 35.5L6 35.5L6 36.5ZM2 36.5L0.999996 36.5L0.999996 35.5L2 35.5L2 36.5Z" fill="#5A5A5B"/>
</svg>
