<svg width="63" height="45" viewBox="0 0 63 45" fill="none" xmlns="http://www.w3.org/2000/svg">
<path d="M59.5 1C59.5 0.723858 59.2761 0.5 59 0.5C58.7239 0.5 58.5 0.723858 58.5 1L59.5 1ZM58.6464 44.3536C58.8417 44.5488 59.1583 44.5488 59.3535 44.3536L62.5355 41.1716C62.7308 40.9763 62.7308 40.6597 62.5355 40.4645C62.3403 40.2692 62.0237 40.2692 61.8284 40.4645L59 43.2929L56.1716 40.4645C55.9763 40.2692 55.6597 40.2692 55.4645 40.4645C55.2692 40.6597 55.2692 40.9763 55.4645 41.1716L58.6464 44.3536ZM58.5 1L58.5 44L59.5 44L59.5 1L58.5 1Z" fill="#5A5A5B"/>
<path d="M3.5 44C3.5 44.2761 3.72386 44.5 4 44.5C4.27614 44.5 4.5 44.2761 4.5 44L3.5 44ZM4.35355 0.646446C4.15829 0.451183 3.84171 0.451183 3.64645 0.646446L0.464465 3.82843C0.269203 4.02369 0.269203 4.34027 0.464465 4.53553C0.659727 4.7308 0.976309 4.7308 1.17157 4.53553L4 1.70711L6.82843 4.53553C7.02369 4.7308 7.34027 4.7308 7.53553 4.53553C7.73079 4.34027 7.73079 4.02369 7.53553 3.82843L4.35355 0.646446ZM4.5 44L4.5 43.0227L3.5 43.0227L3.5 44L4.5 44ZM4.5 41.0682L4.5 39.1136L3.5 39.1136L3.5 41.0682L4.5 41.0682ZM4.5 37.1591L4.5 35.2045L3.5 35.2045L3.5 37.1591L4.5 37.1591ZM4.5 33.25L4.5 31.2955L3.5 31.2955L3.5 33.25L4.5 33.25ZM4.5 29.3409L4.5 27.3864L3.5 27.3864L3.5 29.3409L4.5 29.3409ZM4.5 25.4318L4.5 23.4773L3.5 23.4773L3.5 25.4318L4.5 25.4318ZM4.5 21.5227L4.5 19.5682L3.5 19.5682L3.5 21.5227L4.5 21.5227ZM4.5 17.6136L4.5 15.6591L3.5 15.6591L3.5 17.6136L4.5 17.6136ZM4.5 13.7045L4.5 11.75L3.5 11.75L3.5 13.7045L4.5 13.7045ZM4.5 9.79545L4.5 7.84091L3.5 7.84091L3.5 9.79545L4.5 9.79545ZM4.5 5.88636L4.5 3.93182L3.5 3.93182L3.5 5.88636L4.5 5.88636ZM4.5 1.97728L4.5 1L3.5 1L3.5 1.97728L4.5 1.97728Z" fill="#5A5A5B"/>
</svg>
