<svg width="35" height="35" viewBox="0 0 35 35" fill="none" xmlns="http://www.w3.org/2000/svg">
<rect width="35" height="35" fill="white"/>
<path d="M1.75006 3C1.28591 3 0.84078 3.18592 0.51258 3.51687C0.184381 3.84782 0 4.29668 0 4.76471C0 5.23273 0.184381 5.68159 0.51258 6.01254C0.84078 6.34349 1.28591 6.52941 1.75006 6.52941H3.88513L4.4189 8.68588C4.4242 8.71071 4.43003 8.73542 4.4364 8.76L6.81298 18.3424L5.25018 19.9165C3.0451 22.14 4.60615 25.9412 7.72476 25.9412H22.7508C23.2149 25.9412 23.66 25.7553 23.9882 25.4243C24.3164 25.0934 24.5008 24.6445 24.5008 24.1765C24.5008 23.7084 24.3164 22.9861 23.9882 22.6552C23.66 22.3242 23.2149 22.1383 22.7508 22.1383H7.72476L9.47482 20.6471H21.0007C21.3256 20.6469 21.6441 20.5555 21.9204 20.3831C22.1967 20.2108 22.42 19.9643 22.5653 19.6712L27.8154 9.08294C27.9487 8.81396 28.0116 8.5151 27.9982 8.21472C27.9848 7.91433 27.8955 7.62238 27.7388 7.36658C27.582 7.11077 27.3631 6.89959 27.1027 6.75308C26.8423 6.60656 26.5491 6.52957 26.2509 6.52941H7.49025L6.94773 4.33588C6.85293 3.95427 6.63439 3.61554 6.32682 3.37351C6.01926 3.13147 5.64031 3.00001 5.25018 3H1.75006ZM24.5008 30.3529C24.5008 31.055 24.2242 31.7283 23.7319 32.2247C23.2396 32.7211 22.5719 33 21.8757 33C21.1795 33 20.5118 32.7211 20.0195 32.2247C19.5272 31.7283 19.2506 31.055 19.2506 30.3529C19.2506 29.6509 19.5272 28.9776 20.0195 28.4812C20.5118 27.9848 21.1795 27.7059 21.8757 27.7059C22.5719 27.7059 23.2396 27.9848 23.7319 28.4812C24.2242 28.9776 24.5008 29.6509 24.5008 30.3529ZM7.87526 33C8.57148 33 9.23918 32.7211 9.73148 32.2247C10.2238 31.7283 10.5004 31.055 10.5004 30.3529C10.5004 29.6509 10.2238 28.9776 9.73148 28.4812C9.23918 27.9848 8.57148 27.7059 7.87526 27.7059C7.17905 27.7059 6.51134 27.9848 6.01905 28.4812C5.52675 28.9776 5.25018 29.6509 5.25018 30.3529C5.25018 31.055 5.52675 31.7283 6.01905 32.2247C6.51134 32.7211 7.17905 33 7.87526 33Z" fill="#F4774C"/>
</svg>
