<svg width="35" height="35" viewBox="0 0 35 35" fill="none" xmlns="http://www.w3.org/2000/svg">
<rect width="35" height="35" fill="white"/>
<path fill-rule="evenodd" clip-rule="evenodd" d="M4 4C1.79086 4 0 5.79086 0 8V23C0 25.2091 1.79086 27 4 27H9.48934C9.52577 27.062 9.56997 27.1218 9.62238 27.1786L14.2654 32.2048C14.6614 32.6334 15.3386 32.6334 15.7346 32.2048L20.3776 27.1786C20.43 27.1218 20.4742 27.062 20.5107 27H26C28.2091 27 30 25.2091 30 23V8C30 5.79086 28.2091 4 26 4H4ZM5 11.5C5 10.6716 5.67157 10 6.5 10H22.5C23.3284 10 24 10.6716 24 11.5C24 12.3284 23.3284 13 22.5 13H6.5C5.67157 13 5 12.3284 5 11.5ZM6.5 17C5.67157 17 5 17.6716 5 18.5C5 19.3284 5.67157 20 6.5 20H15.5C16.3284 20 17 19.3284 17 18.5C17 17.6716 16.3284 17 15.5 17H6.5Z" fill="#F4774C"/>
</svg>
