<svg width="35" height="35" viewBox="0 0 35 35" fill="none" xmlns="http://www.w3.org/2000/svg">
<rect width="35" height="35" fill="white"/>
<path fill-rule="evenodd" clip-rule="evenodd" d="M2 5C0.895431 5 0 5.89543 0 7C0 8.10457 0.895431 9 2 9L2 23C2 24.6569 3.34315 26 5 26H8.52513L6.76256 27.7626C6.07915 28.446 6.07915 29.554 6.76256 30.2374C7.44598 30.9209 8.55402 30.9209 9.23744 30.2374L13.4749 26H14.5251L18.7626 30.2374C19.446 30.9209 20.554 30.9209 21.2374 30.2374C21.9209 29.554 21.9209 28.446 21.2374 27.7626L19.4749 26H23C24.6569 26 26 24.6569 26 23V9C27.1046 9 28 8.10457 28 7C28 5.89543 27.1046 5 26 5H2Z" fill="#F4774C"/>
<path d="M7 19L10.5 15.5L14 19L21 12" stroke="white" stroke-width="2.3" stroke-linecap="round" stroke-linejoin="round"/>
</svg>
