<svg width="35" height="35" viewBox="0 0 35 35" fill="none" xmlns="http://www.w3.org/2000/svg">
<rect width="35" height="35" fill="white"/>
<path d="M0 10L15 17L30 10C29.9445 9.04707 29.5256 7.67466 28.8292 7.01963C28.1328 6.36461 27.2116 5.99982 26.2542 6H3.74578C2.78839 5.99982 1.86716 6.36461 1.17077 7.01963C0.474381 7.67466 0.0555285 9.04707 0 10Z" fill="#F4774C"/>
<path d="M30 12.5L15 19.6048L0 12.5V24.4476C0 25.3898 0.395088 26.2933 1.09835 26.9595C1.80161 27.6257 2.75544 28 3.75 28H26.25C27.2446 28 28.1984 27.6257 28.9016 26.9595C29.6049 26.2933 30 25.3898 30 24.4476V12.5Z" fill="#F4774C"/>
</svg>
