<svg width="35" height="35" viewBox="0 0 35 35" fill="none" xmlns="http://www.w3.org/2000/svg">
<rect width="35" height="35" fill="white"/>
<path fill-rule="evenodd" clip-rule="evenodd" d="M28 6.62419C27.9998 6.34729 27.9235 6.07503 27.7782 5.83323C27.6329 5.59143 27.4235 5.38811 27.1698 5.24257C26.9161 5.09704 26.6266 5.0141 26.3287 5.00165C26.0309 4.98919 25.7345 5.04762 25.4677 5.17139L11.8352 11.4993H5.25C3.85761 11.4993 2.52226 12.013 1.53769 12.9273C0.553124 13.8415 0 15.0815 0 16.3745C0 17.6675 0.553124 18.9075 1.53769 19.8218C2.52226 20.736 3.85761 21.2497 5.25 21.2497H5.74L8.83925 29.8885C8.95536 30.2122 9.17825 30.4938 9.47634 30.6933C9.77442 30.8928 10.1326 31.0001 10.5 31H12.25C12.7141 31 13.1592 30.8288 13.4874 30.524C13.8156 30.2193 14 29.8059 14 29.3749V22.254L25.4677 27.5776C25.7345 27.7014 26.0309 27.7598 26.3287 27.7474C26.6266 27.7349 26.9161 27.652 27.1698 27.5065C27.4235 27.3609 27.6329 27.1576 27.7782 26.9158C27.9235 26.674 27.9998 26.4017 28 26.1248V6.62419Z" fill="#F4774C"/>
</svg>
