<svg width="35" height="35" viewBox="0 0 35 35" fill="none" xmlns="http://www.w3.org/2000/svg">
<rect width="35" height="35" fill="white"/>
<path fill-rule="evenodd" clip-rule="evenodd" d="M30 18C30 21.9782 28.4196 25.7936 25.6066 28.6066C22.7936 31.4196 18.9782 33 15 33C11.0218 33 7.20644 31.4196 4.3934 28.6066C1.58035 25.7936 0 21.9782 0 18C0 14.0218 1.58035 10.2064 4.3934 7.3934C7.20644 4.58035 11.0218 3 15 3C18.9782 3 22.7936 4.58035 25.6066 7.3934C28.4196 10.2064 30 14.0218 30 18ZM16.875 25.5C16.875 25.9973 16.6775 26.4742 16.3258 26.8258C15.9742 27.1775 15.4973 27.375 15 27.375C14.5027 27.375 14.0258 27.1775 13.6742 26.8258C13.3225 26.4742 13.125 25.9973 13.125 25.5C13.125 25.0027 13.3225 24.5258 13.6742 24.1742C14.0258 23.8225 14.5027 23.625 15 23.625C15.4973 23.625 15.9742 23.8225 16.3258 24.1742C16.6775 24.5258 16.875 25.0027 16.875 25.5ZM15 8.625C14.5027 8.625 14.0258 8.82254 13.6742 9.17418C13.3225 9.52581 13.125 10.0027 13.125 10.5V18C13.125 18.4973 13.3225 18.9742 13.6742 19.3258C14.0258 19.6775 14.5027 19.875 15 19.875C15.4973 19.875 15.9742 19.6775 16.3258 19.3258C16.6775 18.9742 16.875 18.4973 16.875 18V10.5C16.875 10.0027 16.6775 9.52581 16.3258 9.17418C15.9742 8.82254 15.4973 8.625 15 8.625Z" fill="#F4774C"/>
</svg>
