<svg width="35" height="35" viewBox="0 0 35 35" fill="none" xmlns="http://www.w3.org/2000/svg">
<rect width="35" height="35" fill="white"/>
<path fill-rule="evenodd" clip-rule="evenodd" d="M13.6356 3.07558C13.9691 3.18198 14.2604 3.39354 14.4672 3.6795C14.674 3.96546 14.7855 4.3109 14.7855 4.66558V12.9989H21.3565C21.657 12.9988 21.9518 13.0823 22.2087 13.2403C22.4657 13.3983 22.675 13.6248 22.814 13.8952C22.9529 14.1655 23.016 14.4693 22.9966 14.7735C22.9771 15.0778 22.8758 15.3707 22.7036 15.6206L11.2043 32.2873C11.0042 32.5782 10.7178 32.7967 10.3868 32.911C10.0558 33.0254 9.69745 33.0296 9.36392 32.9231C9.0304 32.8165 8.73908 32.6048 8.53235 32.3187C8.32563 32.0326 8.21427 31.687 8.2145 31.3323V22.9989H1.64348C1.34299 22.9991 1.04822 22.9156 0.791253 22.7576C0.534281 22.5995 0.324953 22.373 0.186049 22.1027C0.0471457 21.8324 -0.0160119 21.5285 0.00344951 21.2243C0.0229109 20.9201 0.124246 20.6271 0.296427 20.3773L11.7957 3.71058C11.9961 3.42022 12.2826 3.20226 12.6135 3.08837C12.9443 2.97447 13.3024 2.97058 13.6356 3.07724V3.07558Z" fill="#F4774C"/>
</svg>
