<svg width="35" height="35" viewBox="0 0 35 35" fill="none" xmlns="http://www.w3.org/2000/svg">
<rect width="35" height="35" fill="white"/>
<path d="M25.9885 6.95825C25.3407 6.34468 24.4621 6 23.5461 6C22.63 6 21.7514 6.34468 21.1036 6.95825L8 19.3722V24H12.8849L25.9885 11.5861C26.6362 10.9723 27 10.14 27 9.27216C27 8.40431 26.6362 7.572 25.9885 6.95825Z" fill="#F4774C"/>
<path fill-rule="evenodd" clip-rule="evenodd" d="M0 12.2857C0 11.4143 0.346172 10.5786 0.962363 9.96236C1.57855 9.34617 2.41429 9 3.28571 9H9.85714C10.2929 9 10.7107 9.17309 11.0188 9.48118C11.3269 9.78928 11.5 10.2071 11.5 10.6429C11.5 11.0786 11.3269 11.4964 11.0188 11.8045C10.7107 12.1126 10.2929 12.2857 9.85714 12.2857H3.28571V28.7143H19.7143V22.1429C19.7143 21.7071 19.8874 21.2893 20.1955 20.9812C20.5036 20.6731 20.9214 20.5 21.3571 20.5C21.7929 20.5 22.2107 20.6731 22.5188 20.9812C22.8269 21.2893 23 21.7071 23 22.1429V28.7143C23 29.5857 22.6538 30.4214 22.0376 31.0376C21.4214 31.6538 20.5857 32 19.7143 32H3.28571C2.41429 32 1.57855 31.6538 0.962363 31.0376C0.346172 30.4214 0 29.5857 0 28.7143V12.2857Z" fill="#F4774C"/>
</svg>
