<svg width="35" height="35" viewBox="0 0 35 35" fill="none" xmlns="http://www.w3.org/2000/svg">
<rect width="35" height="35" fill="white"/>
<path d="M27.2222 3.875C27.2222 1.7349 28.9633 0 31.1111 0C33.2589 0 35 1.7349 35 3.875V27.125C35 29.2652 33.2589 31 31.1111 31C28.9633 31 27.2222 29.2652 27.2222 27.125V3.875ZM13.6111 11.625C13.6111 9.48489 15.3522 7.75 17.5 7.75C19.6478 7.75 21.3889 9.48489 21.3889 11.625V27.125C21.3889 29.2652 19.6478 31 17.5 31C15.3522 31 13.6111 29.2652 13.6111 27.125V11.625ZM3.88889 19.375C1.74111 19.375 0 21.1098 0 23.25V27.125C0 29.2652 1.74111 31 3.88889 31C6.03666 31 7.77778 29.2652 7.77778 27.125V23.25C7.77778 21.1098 6.03666 19.375 3.88889 19.375Z" fill="#F4774C"/>
</svg>
