<svg width="35" height="35" viewBox="0 0 35 35" fill="none" xmlns="http://www.w3.org/2000/svg">
<rect width="35" height="35" fill="white"/>
<path fill-rule="evenodd" clip-rule="evenodd" d="M26.3529 11.6667C29.4718 11.6667 32 9.05499 32 5.83333C32 2.61168 29.4718 0 26.3529 0C23.2341 0 20.7059 2.61168 20.7059 5.83333C20.7059 6.09988 20.7232 6.36226 20.7567 6.61934L9.51832 13.2531C8.50744 12.2695 7.14539 11.6667 5.64706 11.6667C2.52828 11.6667 0 14.2782 0 17.5C0 20.7218 2.52828 23.3333 5.64706 23.3333C7.09743 23.3333 8.4201 22.7685 9.42018 21.8402L20.8008 30.2373C21.2875 32.9476 23.5881 35 26.3529 35C29.4718 35 32 32.3884 32 29.1667C32 25.9449 29.4718 23.3333 26.3529 23.3333C24.3488 23.3333 22.5884 24.4119 21.5861 26.0377L11.2281 18.395C11.2715 18.1034 11.2941 17.8043 11.2941 17.5C11.2941 17.2334 11.2768 16.9711 11.2433 16.7139L22.4817 10.0802C23.4925 11.0639 24.8546 11.6667 26.3529 11.6667ZM24.4706 29.1832C24.4708 29.1727 24.4708 29.1622 24.4706 29.1519C24.4783 28.0848 25.3182 27.2222 26.3529 27.2222C27.3926 27.2222 28.2353 28.0927 28.2353 29.1667C28.2353 30.2406 27.3926 31.1111 26.3529 31.1111C25.3186 31.1111 24.4792 30.2495 24.4706 29.1832ZM26.3529 7.77778C27.3926 7.77778 28.2353 6.90721 28.2353 5.83333C28.2353 4.75946 27.3926 3.88889 26.3529 3.88889C25.3133 3.88889 24.4706 4.75946 24.4706 5.83333C24.4706 6.90721 25.3133 7.77778 26.3529 7.77778ZM7.52941 17.5C7.52941 18.5739 6.68665 19.4444 5.64706 19.4444C4.60747 19.4444 3.76471 18.5739 3.76471 17.5C3.76471 16.4261 4.60747 15.5556 5.64706 15.5556C6.68665 15.5556 7.52941 16.4261 7.52941 17.5Z" fill="#F4774C"/>
</svg>
