<svg width="35" height="35" viewBox="0 0 35 35" fill="none" xmlns="http://www.w3.org/2000/svg">
<rect width="35" height="35" fill="white"/>
<path d="M13.7345 25.3276C14.8221 24.6863 16.1772 24.6875 17.2635 25.3307L23.0173 28.737C24.3939 29.5527 26.0786 28.347 25.7162 26.8221L24.2053 20.4761C23.9096 19.2337 24.3386 17.9317 25.3175 17.1015L30.3715 12.8149C31.5852 11.7865 30.933 9.83611 29.3391 9.712L22.6522 9.15638C21.3831 9.05094 20.2764 8.26052 19.7744 7.10117L17.1664 1.07715C16.5505 -0.35905 14.4494 -0.35905 13.8336 1.07715L11.2263 7.08583C10.7239 8.24385 9.61778 9.03313 8.34972 9.1385L1.66096 9.69426C0.0669455 9.81838 -0.585157 11.7687 0.628475 12.7972L5.68249 17.0837C6.66136 17.914 7.09045 19.2159 6.79466 20.4583L5.28376 26.8044C4.92147 28.3293 6.60606 29.535 7.98272 28.7194L13.7345 25.3276Z" fill="#F4774C"/>
</svg>
