<svg width="35" height="35" viewBox="0 0 35 35" fill="none" xmlns="http://www.w3.org/2000/svg">
<rect width="35" height="35" fill="white"/>
<path d="M21.0878 25.1875H25.056C24.8237 26.8001 24.0199 28.275 22.7916 29.3423C21.5632 30.4096 19.9925 30.9981 18.3667 31H13.5333C13.0206 31 12.5288 30.7959 12.1663 30.4325C11.8037 30.0692 11.6 29.5764 11.6 29.0625C11.6 28.5486 11.8037 28.0558 12.1663 27.6925C12.5288 27.3291 13.0206 27.125 13.5333 27.125H18.3667C18.9642 27.1223 19.5462 26.9348 20.0333 26.5879C20.5204 26.2411 20.8887 25.752 21.0878 25.1875ZM25.6167 12.5938H25.1333V10.6562C25.1333 7.83004 24.013 5.11958 22.0189 3.12114C20.0248 1.12271 17.3201 0 14.5 0C11.6799 0 8.97523 1.12271 6.9811 3.12114C4.98696 5.11958 3.86667 7.83004 3.86667 10.6562V12.5938H3.38333C2.48602 12.5938 1.62545 12.951 0.990956 13.5868C0.356458 14.2227 0 15.0851 0 15.9844V18.8906C0 19.7899 0.356458 20.6523 0.990956 21.2882C1.62545 21.924 2.48602 22.2812 3.38333 22.2812H6.815C7.05856 22.2812 7.29214 22.1843 7.46436 22.0117C7.63658 21.8391 7.73333 21.605 7.73333 21.3609V10.6562C7.73333 8.85775 8.44625 7.13291 9.71524 5.86118C10.9842 4.58945 12.7054 3.875 14.5 3.875C16.2946 3.875 18.0158 4.58945 19.2848 5.86118C20.5538 7.13291 21.2667 8.85775 21.2667 10.6562V21.3609C21.2667 21.605 21.3634 21.8391 21.5356 22.0117C21.7079 22.1843 21.9414 22.2812 22.185 22.2812H25.6167C26.514 22.2812 27.3745 21.924 28.009 21.2882C28.6435 20.6523 29 19.7899 29 18.8906V15.9844C29 15.0851 28.6435 14.2227 28.009 13.5868C27.3745 12.951 26.514 12.5938 25.6167 12.5938Z" fill="#F4774C"/>
</svg>
