<svg width="35" height="35" viewBox="0 0 35 35" fill="none" xmlns="http://www.w3.org/2000/svg">
<rect width="35" height="35" fill="white"/>
<path d="M26.5012 9.98967H29.0016V8.47461C29.0016 8.38398 29.027 8.29517 29.075 8.21832C29.1229 8.14147 29.1915 8.07967 29.2728 8.03998C29.3542 8.00029 29.445 7.9843 29.535 7.99385C29.625 8.0034 29.7105 8.03809 29.7817 8.09397L32.6898 10.3478C32.7863 10.4229 32.8645 10.5192 32.9183 10.6292C32.972 10.7392 33 10.8601 33 10.9826C33 11.1051 32.972 11.226 32.9183 11.336C32.8645 11.446 32.7863 11.5423 32.6898 11.6174L29.7817 13.8712C29.7117 13.9263 29.6278 13.9608 29.5393 13.9711C29.4508 13.9813 29.3613 13.9668 29.2805 13.9292C29.1997 13.8916 29.1309 13.8324 29.0817 13.7581C29.0325 13.6838 29.0048 13.5972 29.0016 13.5081V11.993H26.5012C26.2359 11.993 25.9815 11.8875 25.7939 11.6997C25.6064 11.5118 25.501 11.257 25.501 10.9914C25.501 10.7257 25.6064 10.4709 25.7939 10.2831C25.9815 10.0952 26.2359 9.98967 26.5012 9.98967ZM21.0002 6.98459H23.5006V8.49965C23.5006 8.59028 23.526 8.67909 23.574 8.75594C23.6219 8.83279 23.6905 8.89459 23.7718 8.93428C23.8532 8.97397 23.9441 8.98996 24.034 8.98041C24.124 8.97086 24.2095 8.93617 24.2808 8.88029L27.1888 6.62649C27.2854 6.55134 27.3635 6.45508 27.4173 6.34506C27.4711 6.23504 27.499 6.11416 27.499 5.99167C27.499 5.86917 27.4711 5.7483 27.4173 5.63828C27.3635 5.52825 27.2854 5.43199 27.1888 5.35685L24.2808 3.10304C24.2107 3.048 24.1268 3.01344 24.0383 3.0032C23.9498 2.99296 23.8603 3.00743 23.7795 3.04502C23.6988 3.08261 23.63 3.14185 23.5807 3.21618C23.5315 3.2905 23.5038 3.37702 23.5006 3.46616V4.98121H21.0002C20.7349 4.98121 20.4805 5.08675 20.2929 5.2746C20.1054 5.46246 20 5.71724 20 5.9829C20 6.24857 20.1054 6.50335 20.2929 6.69121C20.4805 6.87906 20.7349 6.98459 21.0002 6.98459ZM21.0002 17.0015H23.5006V18.5166C23.5006 18.6072 23.526 18.696 23.574 18.7728C23.6219 18.8497 23.6905 18.9115 23.7718 18.9512C23.8532 18.9909 23.9441 19.0069 24.034 18.9973C24.124 18.9878 24.2095 18.9531 24.2808 18.8972L27.1888 16.6434C27.2854 16.5682 27.3635 16.472 27.4173 16.362C27.4711 16.2519 27.499 16.1311 27.499 16.0086C27.499 15.8861 27.4711 15.7652 27.4173 15.6552C27.3635 15.5452 27.2854 15.4489 27.1888 15.3737L24.2808 13.1199C24.2107 13.0649 24.1268 13.0303 24.0383 13.0201C23.9498 13.0099 23.8603 13.0243 23.7795 13.0619C23.6988 13.0995 23.63 13.1588 23.5807 13.2331C23.5315 13.3074 23.5038 13.3939 23.5006 13.4831V14.9981H21.0002C20.7349 14.9981 20.4805 15.1037 20.2929 15.2915C20.1054 15.4794 20 15.7341 20 15.9998C20 16.2655 20.1054 16.5203 20.2929 16.7081C20.4805 16.896 20.7349 17.0015 21.0002 17.0015Z" fill="#F4774C"/>
<path d="M24.4395 25.7738L20.5787 21.9038C19.8097 21.1361 18.5362 21.1594 17.7404 21.9573L15.7953 23.9064C15.6724 23.8385 15.5452 23.7676 15.4114 23.6924C14.1831 23.0103 12.5019 22.0753 10.7329 20.3009C8.95854 18.5228 8.02484 16.8352 7.34216 15.6033C7.27012 15.4728 7.2011 15.347 7.13294 15.2275L8.4384 13.921L9.08021 13.277C9.87723 12.4779 9.89921 11.2019 9.13199 10.432L5.27113 6.56152C4.50392 5.79271 3.22985 5.81603 2.43282 6.61508L1.3447 7.71193L1.37443 7.74152C1.00957 8.20813 0.704683 8.7463 0.477793 9.32665C0.268644 9.87907 0.138428 10.4062 0.0788869 10.9345C-0.430915 15.1704 1.50041 19.0417 6.74179 24.2951C13.987 31.5561 19.8256 31.0076 20.0775 30.9808C20.6261 30.9151 21.1518 30.7837 21.6861 30.5758C22.2601 30.351 22.7967 30.0459 23.262 29.681L23.2858 29.7021L24.3881 28.6203C25.1835 27.8214 25.2064 26.5449 24.4395 25.7738Z" fill="#F4774C"/>
</svg>
