<svg width="35" height="35" viewBox="0 0 35 35" fill="none" xmlns="http://www.w3.org/2000/svg">
<rect width="35" height="35" fill="white"/>
<path d="M0.852535 23.9472C1.39107 18.8603 5.68166 15 10.797 15H16.2029C21.3182 15 25.6087 18.8602 26.1473 23.9471L26.7659 29.7894C26.891 30.9707 25.9649 32 24.7771 32H2.22291C1.03503 32 0.108968 30.9707 0.234028 29.7894L0.852535 23.9472Z" fill="#F4774C"/>
<path d="M19.5 9.5C19.5 12.5376 16.5376 15.5 13.5 15.5C10.4624 15.5 7.5 12.5376 7.5 9.5C7.5 6.46243 10.4624 3.5 13.5 3.5C16.5376 3.5 19.5 6.46243 19.5 9.5Z" fill="#F4774C"/>
</svg>
