<svg width="35" height="35" viewBox="0 0 35 35" fill="none" xmlns="http://www.w3.org/2000/svg">
<rect width="35" height="35" fill="white"/>
<path fill-rule="evenodd" clip-rule="evenodd" d="M30.9586 15.3247C23.2489 7.65315 10.7511 7.65315 3.04138 15.3247C2.70291 15.65 2.24958 15.83 1.77903 15.8259C1.30849 15.8219 0.858373 15.6341 0.525635 15.303C0.192896 14.9719 0.00415676 14.524 6.78417e-05 14.0558C-0.00402108 13.5876 0.176867 13.1365 0.503774 12.7997C9.61331 3.73344 24.3867 3.73344 33.4962 12.7997C33.8231 13.1365 34.004 13.5876 33.9999 14.0558C33.9958 14.524 33.8071 14.9719 33.4744 15.303C33.1416 15.6341 32.6915 15.8219 32.221 15.8259C31.7504 15.83 31.2971 15.65 30.9586 15.3247ZM25.8834 20.3748C24.7169 19.2139 23.3319 18.293 21.8077 17.6648C20.2835 17.0365 18.6498 16.7131 17 16.7131C15.3502 16.7131 13.7165 17.0365 12.1923 17.6648C10.6681 18.293 9.28313 19.2139 8.11659 20.3748C7.77812 20.7001 7.32479 20.8801 6.85424 20.876C6.3837 20.872 5.93358 20.6841 5.60084 20.3531C5.26811 20.022 5.07937 19.5741 5.07528 19.1059C5.07119 18.6376 5.25208 18.1866 5.57898 17.8498C7.07881 16.3573 8.85936 15.1735 10.819 14.3658C12.7786 13.5581 14.8789 13.1424 17 13.1424C19.1211 13.1424 21.2214 13.5581 23.181 14.3658C25.1406 15.1735 26.9212 16.3573 28.421 17.8498C28.7479 18.1866 28.9288 18.6376 28.9247 19.1059C28.9206 19.5741 28.7319 20.022 28.3992 20.3531C28.0664 20.6841 27.6163 20.872 27.1458 20.876C26.6752 20.8801 26.2219 20.7001 25.8834 20.3748ZM20.8046 25.4285C19.795 24.4241 18.4258 23.8599 16.9982 23.8599C15.5706 23.8599 14.2014 24.4241 13.1918 25.4285C12.8551 25.7635 12.3983 25.9518 11.9221 25.9518C11.4459 25.9518 10.9891 25.7635 10.6524 25.4285C10.3157 25.0934 10.1265 24.6389 10.1265 24.1651C10.1265 23.6912 10.3157 23.2367 10.6524 22.9016C11.4857 22.0723 12.475 21.4144 13.5638 20.9655C14.6526 20.5167 15.8196 20.2856 16.9982 20.2856C18.1768 20.2856 19.3438 20.5167 20.4326 20.9655C21.5215 21.4144 22.5107 22.0723 23.344 22.9016C23.6808 23.2367 23.8699 23.6912 23.8699 24.1651C23.8699 24.6389 23.6808 25.0934 23.344 25.4285C23.0073 25.7635 22.5505 25.9518 22.0743 25.9518C21.5981 25.9518 21.1414 25.7635 20.8046 25.4285ZM15.2054 29.2143C15.2054 28.7406 15.3944 28.2864 15.731 27.9515C16.0676 27.6166 16.524 27.4285 17 27.4285H17.0179C17.4939 27.4285 17.9504 27.6166 18.2869 27.9515C18.6235 28.2864 18.8126 28.7406 18.8126 29.2143C18.8126 29.6879 18.6235 30.1421 18.2869 30.477C17.9504 30.8119 17.4939 31 17.0179 31H17C16.524 31 16.0676 30.8119 15.731 30.477C15.3944 30.1421 15.2054 29.6879 15.2054 29.2143Z" fill="#F4774C"/>
</svg>
