<svg width="35" height="35" viewBox="0 0 35 35" fill="none" xmlns="http://www.w3.org/2000/svg">
<g clip-path="url(#clip0_328_25420)">
<rect width="35" height="35" fill="white"/>
<path d="M28.7173 9.76993C28.7137 9.76993 28.7103 9.7685 28.7078 9.76597C28.7052 9.76344 28.7038 9.76 28.7038 9.75642C28.5092 9.42406 28.2306 9.14917 27.8961 8.95957L16.05 2.27417C15.729 2.09439 15.3676 2 15 2C14.6324 2 14.2709 2.09439 13.95 2.27417L2.10385 8.95957C1.76936 9.14917 1.49073 9.42406 1.29616 9.75642C1.29616 9.76 1.29474 9.76344 1.29222 9.76597C1.2897 9.7685 1.28627 9.76993 1.2827 9.76993V9.79694C1.09659 10.1116 0.998904 10.471 1.00001 10.8369V24.1537C1.00069 24.5387 1.10324 24.9166 1.29718 25.2488C1.49112 25.581 1.76949 25.8556 2.10385 26.0445L13.95 32.7299C14.2482 32.8931 14.5798 32.9855 14.9192 33H15.1077C15.4385 32.9853 15.7613 32.8928 16.05 32.7299L27.8961 26.0445C28.2305 25.8556 28.5089 25.581 28.7028 25.2488C28.8967 24.9166 28.9993 24.5387 29 24.1537V10.8369C29.0019 10.4623 28.9044 10.094 28.7173 9.76993ZM15 4.15149L25.7288 10.2021L21.6096 12.5521L10.7462 6.54203L15 4.15149ZM15.1211 16.2527L4.28462 10.2021L8.53846 7.79807L19.4154 13.8082L15.1211 16.2527ZM16.0904 30.2313L16.1981 18.1301L20.5192 15.6585V20.8042C20.5192 21.0908 20.6327 21.3656 20.8346 21.5682C21.0366 21.7708 21.3105 21.8847 21.5961 21.8847C21.8818 21.8847 22.1557 21.7708 22.3576 21.5682C22.5596 21.3656 22.6731 21.0908 22.6731 20.8042V14.4294L26.8461 12.0524V24.1537L16.0904 30.2313Z" fill="#F4774C"/>
</g>
<defs>
<clipPath id="clip0_328_25420">
<rect width="35" height="35" fill="white"/>
</clipPath>
</defs>
</svg>
