<svg width="35" height="35" viewBox="0 0 35 35" fill="none" xmlns="http://www.w3.org/2000/svg">
<rect width="35" height="35" fill="white"/>
<path d="M3.625 7C2.66359 7 1.74156 7.42143 1.06174 8.17157C0.381918 8.92172 0 9.93913 0 11V13H29V11C29 9.93913 28.6181 8.92172 27.9383 8.17157C27.2584 7.42143 26.3364 7 25.375 7H3.625Z" fill="#F4774C"/>
<path fill-rule="evenodd" clip-rule="evenodd" d="M29 15H0V25C0 26.0609 0.381918 27.0783 1.06174 27.8284C1.74156 28.5786 2.66359 29 3.625 29H25.375C26.3364 29 27.2584 28.5786 27.9383 27.8284C28.6181 27.0783 29 26.0609 29 25V15ZM3.625 23C3.625 22.4696 3.81596 21.9609 4.15587 21.5858C4.49578 21.2107 4.9568 21 5.4375 21H7.25C7.7307 21 8.19172 21.2107 8.53163 21.5858C8.87154 21.9609 9.0625 22.4696 9.0625 23C9.0625 23.5304 8.87154 24.0391 8.53163 24.4142C8.19172 24.7893 7.7307 25 7.25 25H5.4375C4.9568 25 4.49578 24.7893 4.15587 24.4142C3.81596 24.0391 3.625 23.5304 3.625 23ZM12.6875 21C12.2068 21 11.7458 21.2107 11.4059 21.5858C11.066 21.9609 10.875 22.4696 10.875 23C10.875 23.5304 11.066 24.0391 11.4059 24.4142C11.7458 24.7893 12.2068 25 12.6875 25H14.5C14.9807 25 15.4417 24.7893 15.7816 24.4142C16.1215 24.0391 16.3125 23.5304 16.3125 23C16.3125 22.4696 16.1215 21.9609 15.7816 21.5858C15.4417 21.2107 14.9807 21 14.5 21H12.6875Z" fill="#F4774C"/>
</svg>
