<svg width="35" height="35" viewBox="0 0 35 35" fill="none" xmlns="http://www.w3.org/2000/svg">
<rect width="35" height="35" fill="white"/>
<path fill-rule="evenodd" clip-rule="evenodd" d="M3.85714 15.6875V12.0625C3.85714 9.65898 4.87308 7.35389 6.68147 5.65434C8.48986 3.9548 10.9426 3 13.5 3C16.0574 3 18.5101 3.9548 20.3185 5.65434C22.1269 7.35389 23.1429 9.65898 23.1429 12.0625V15.6875C24.1658 15.6875 25.1469 16.0694 25.8703 16.7492C26.5936 17.4291 27 18.3511 27 19.3125V28.375C27 29.3364 26.5936 30.2584 25.8703 30.9383C25.1469 31.6181 24.1658 32 23.1429 32H3.85714C2.83417 32 1.85309 31.6181 1.12973 30.9383C0.406376 30.2584 0 29.3364 0 28.375V19.3125C0 18.3511 0.406376 17.4291 1.12973 16.7492C1.85309 16.0694 2.83417 15.6875 3.85714 15.6875ZM19.2857 12.0625V15.6875H7.71429V12.0625C7.71429 10.6204 8.32385 9.23734 9.40888 8.21761C10.4939 7.19788 11.9655 6.625 13.5 6.625C15.0345 6.625 16.5061 7.19788 17.5911 8.21761C18.6762 9.23734 19.2857 10.6204 19.2857 12.0625Z" fill="#F4774C"/>
</svg>
