<svg width="35" height="35" viewBox="0 0 35 35" fill="none" xmlns="http://www.w3.org/2000/svg">
<rect width="35" height="35" fill="white"/>
<path d="M18.9063 29.75H22.464C22.2558 31.2065 21.5351 32.5387 20.4338 33.5027C19.3325 34.4668 17.9243 34.9983 16.4667 35H12.1333C11.6736 35 11.2327 34.8156 10.9077 34.4874C10.5826 34.1592 10.4 33.7141 10.4 33.25C10.4 32.7859 10.5826 32.3408 10.9077 32.0126C11.2327 31.6844 11.6736 31.5 12.1333 31.5H16.4667C17.0023 31.4976 17.5242 31.3282 17.9609 31.0149C18.3976 30.7017 18.7278 30.2599 18.9063 29.75V29.75ZM22.9667 18.375H22.5333V16.625C22.5333 14.0723 21.5289 11.6241 19.7411 9.8191C17.9532 8.01406 15.5284 7 13 7C10.4716 7 8.04676 8.01406 6.25891 9.8191C4.47107 11.6241 3.46667 14.0723 3.46667 16.625V18.375H3.03333C2.22884 18.375 1.4573 18.6977 0.888443 19.272C0.319583 19.8463 0 20.6253 0 21.4375V24.0625C0 24.8747 0.319583 25.6537 0.888443 26.228C1.4573 26.8023 2.22884 27.125 3.03333 27.125H6.11C6.32836 27.125 6.53778 27.0374 6.69219 26.8815C6.84659 26.7256 6.93333 26.5142 6.93333 26.2937V16.625C6.93333 15.0005 7.5725 13.4426 8.71022 12.294C9.84794 11.1453 11.391 10.5 13 10.5C14.609 10.5 16.1521 11.1453 17.2898 12.294C18.4275 13.4426 19.0667 15.0005 19.0667 16.625V26.2937C19.0667 26.5142 19.1534 26.7256 19.3078 26.8815C19.4622 27.0374 19.6716 27.125 19.89 27.125H22.9667C23.7712 27.125 24.5427 26.8023 25.1116 26.228C25.6804 25.6537 26 24.8747 26 24.0625V21.4375C26 20.6253 25.6804 19.8463 25.1116 19.272C24.5427 18.6977 23.7712 18.375 22.9667 18.375V18.375Z" fill="#F4774C"/>
</svg>
