<svg width="35" height="35" viewBox="0 0 35 35" fill="none" xmlns="http://www.w3.org/2000/svg">
<path d="M14.3 16.8002C15.3343 16.8002 16.3263 17.2111 17.0577 17.9425C17.7891 18.6739 18.2 19.6659 18.2 20.7002C18.2 21.045 18.337 21.3756 18.5808 21.6194C18.8246 21.8632 19.1552 22.0002 19.5 22.0002C19.8448 22.0002 20.1754 21.8632 20.4192 21.6194C20.663 21.3756 20.8 21.045 20.8 20.7002C20.8 18.9763 20.1152 17.323 18.8962 16.104C17.6772 14.885 16.0239 14.2002 14.3 14.2002C13.9552 14.2002 13.6246 14.3372 13.3808 14.581C13.137 14.8248 13 15.1554 13 15.5002C13 15.845 13.137 16.1756 13.3808 16.4194C13.6246 16.6632 13.9552 16.8002 14.3 16.8002Z" fill="#F4774C"/>
<path d="M14.3 11.6C16.7135 11.6 19.0281 12.5587 20.7347 14.2653C22.4412 15.9719 23.4 18.2865 23.4 20.7C23.4 21.0448 23.537 21.3754 23.7808 21.6192C24.0246 21.863 24.3552 22 24.7 22C25.0448 22 25.3754 21.863 25.6192 21.6192C25.863 21.3754 26 21.0448 26 20.7C26 17.597 24.7673 14.621 22.5731 12.4269C20.379 10.2327 17.403 9 14.3 9C13.9552 9 13.6246 9.13696 13.3808 9.38076C13.137 9.62456 13 9.95522 13 10.3C13 10.6448 13.137 10.9754 13.3808 11.2192C13.6246 11.463 13.9552 11.6 14.3 11.6ZM25.675 27.083C25.6035 26.8743 25.4801 26.6872 25.3163 26.5394C25.1526 26.3916 24.9539 26.2879 24.739 26.238L16.939 24.457C16.7273 24.409 16.5069 24.4148 16.298 24.4738C16.0891 24.5329 15.8983 24.6433 15.743 24.795C15.561 24.964 15.145 25.7991 14.3 27.4111C11.4962 26.1191 8.79838 23.5091 7.51789 20.7C9.16889 19.868 10.036 19.4 10.205 19.205C10.3567 19.0497 10.4671 18.8589 10.5262 18.65C10.5852 18.4411 10.591 18.2207 10.543 18.009L8.762 10.3C8.71214 10.0851 8.60841 9.88643 8.46059 9.72268C8.31276 9.55894 8.12569 9.4355 7.917 9.364C7.61341 9.25557 7.2999 9.17719 6.981 9.13C6.65243 9.05381 6.31713 9.01027 5.98 9C4.394 9 2.87297 9.63003 1.7515 10.7515C0.630034 11.873 0 13.394 0 14.98C0.00687949 20.2875 2.11833 25.3757 5.87132 29.1287C9.62431 32.8817 14.7125 34.9931 20.02 35C20.8053 35 21.5829 34.8453 22.3084 34.5448C23.034 34.2443 23.6932 33.8038 24.2485 33.2485C24.8038 32.6932 25.2443 32.034 25.5448 31.3084C25.8453 30.5829 26 29.8053 26 29.02C26.0004 28.6891 25.9743 28.3587 25.922 28.032C25.8674 27.7091 25.7847 27.3916 25.675 27.083Z" fill="#F4774C"/>
</svg>
