<svg width="35" height="35" viewBox="0 0 35 35" fill="none" xmlns="http://www.w3.org/2000/svg">
<g clip-path="url(#clip0_1334_7084)">
<path fill-rule="evenodd" clip-rule="evenodd" d="M17.5108 20.7302L16.74 21.5011C16.515 21.726 16.3887 22.0311 16.3887 22.3491C16.3887 22.6672 16.515 22.9723 16.74 23.1972L17.2021 23.6594C17.4271 23.8843 17.7321 24.0106 18.0502 24.0106C18.3683 24.0106 18.6733 23.8843 18.8982 23.6594L19.67 22.8876L21.8282 25.0459C23.1202 23.7537 23.9555 22.0753 24.2074 20.2654C24.4594 18.4555 24.1141 16.6129 23.2241 15.0169L25.8369 12.4041C26.0618 12.1792 26.1882 11.8741 26.1882 11.5561C26.1882 11.238 26.0618 10.9329 25.8369 10.708L24.2935 9.16459C24.0686 8.93967 23.7635 8.81332 23.4454 8.81332C23.1274 8.81332 22.8223 8.93967 22.5974 9.16459L19.9846 11.7774C18.3885 10.8873 16.5456 10.5421 14.7355 10.7942C12.9254 11.0462 11.247 11.8818 9.95477 13.1741L12.113 15.3324L11.3422 16.1033C11.1173 16.3282 10.9909 16.6333 10.9909 16.9513C10.9909 17.2694 11.1172 17.5745 11.3422 17.7994L11.8043 18.2616C12.0293 18.4865 12.3343 18.6128 12.6524 18.6128C12.9705 18.6128 13.2755 18.4865 13.5004 18.2616L14.2722 17.4898L17.5117 20.7294L17.5108 20.7302Z" fill="#F4774C"/>
<path fill-rule="evenodd" clip-rule="evenodd" d="M4.77674 26.9834L2.16391 29.5962C1.939 29.8212 1.81264 30.1262 1.81264 30.4443C1.81264 30.7624 1.939 31.0674 2.16391 31.2923L3.70566 32.8341C3.93057 33.059 4.23562 33.1853 4.5537 33.1853C4.87178 33.1853 5.17683 33.059 5.40175 32.8341L8.01372 30.2221C9.60985 31.1125 11.4529 31.458 13.2631 31.2061C15.0734 30.9542 16.752 30.1186 18.0444 28.8262L6.17177 16.9536C4.87939 18.246 4.04384 19.9246 3.79192 21.7349C3.54001 23.5451 3.88547 25.3881 4.77589 26.9843L4.77674 26.9834Z" fill="#F4774C"/>
</g>
<defs>
<clipPath id="clip0_1334_7084">
<rect width="35" height="35" fill="white"/>
</clipPath>
</defs>
</svg>
