<svg width="35" height="35" viewBox="0 0 35 35" fill="none" xmlns="http://www.w3.org/2000/svg">
<rect width="35" height="35" fill="white"/>
<path fill-rule="evenodd" clip-rule="evenodd" d="M5.4375 9.07708C5.43752 8.09764 5.74136 7.13914 6.31233 6.31728C6.8833 5.49542 7.697 4.84533 8.65521 4.44549C9.61341 4.04564 10.6752 3.91313 11.7123 4.06395C12.7494 4.21477 13.7176 4.64248 14.5 5.29544C15.3997 4.54301 16.5424 4.09161 17.7476 4.01251C18.9528 3.93341 20.1519 4.2311 21.1556 4.8586C22.1594 5.48609 22.9106 6.40765 23.2906 7.47779C23.6706 8.54793 23.6579 9.7057 23.2544 10.7683H25.375C26.3364 10.7683 27.2584 11.1247 27.9383 11.759C28.6181 12.3934 29 13.2537 29 14.1508C29 15.0479 28.6798 16.4323 28 17.0667C27.3202 17.701 26.3364 18 25.375 18H15.5V15.8421C15.5 15.3935 15.6212 14.9634 15.2812 14.6462C14.9413 14.329 14.9807 14.2667 14.5 14.2667C14.0193 14.2667 14.0118 14.329 13.6719 14.6462C13.332 14.9634 13.4062 15.3935 13.4062 15.8421V18H3.5C2.53859 18 1.67982 17.2343 1 16.6C0.320181 15.9657 0 15.0479 0 14.1508C0 13.2537 0.381918 12.3934 1.06174 11.759C1.74156 11.1247 2.66359 10.7683 3.625 10.7683H5.74563C5.54625 10.239 5.4375 9.66901 5.4375 9.07708ZM12.6875 10.7683V9.07708C12.6875 8.74258 12.5812 8.41559 12.382 8.13747C12.1829 7.85934 11.8998 7.64257 11.5686 7.51456C11.2374 7.38656 10.873 7.35307 10.5214 7.41832C10.1698 7.48358 9.84685 7.64466 9.59337 7.88118C9.33989 8.11771 9.16726 8.41906 9.09733 8.74713C9.02739 9.0752 9.06328 9.41525 9.20047 9.72429C9.33765 10.0333 9.56997 10.2975 9.86803 10.4833C10.1661 10.6691 10.5165 10.7683 10.875 10.7683H12.6875ZM18.125 10.7683C18.4835 10.7683 18.8339 10.6691 19.132 10.4833C19.43 10.2975 19.6623 10.0333 19.7995 9.72429C19.9367 9.41525 19.9726 9.0752 19.9027 8.74713C19.8327 8.41906 19.6601 8.11771 19.4066 7.88118C19.1531 7.64466 18.8302 7.48358 18.4786 7.41832C18.127 7.35307 17.7626 7.38656 17.4314 7.51456C17.1002 7.64257 16.8171 7.85934 16.618 8.13747C16.4188 8.41559 16.3125 8.74258 16.3125 9.07708V10.7683H18.125Z" fill="#F4774C"/>
<path d="M13.498 20H2.07031V28.949C2.07031 29.8908 2.44444 30.794 3.11038 31.4599C3.77633 32.1259 4.67954 32.5 5.62133 32.5H13.498V20ZM15.498 32.5H23.3764C24.3182 32.5 25.2214 32.1259 25.8874 31.4599C26.5533 30.794 26.9275 29.8908 26.9275 28.949V20H15.498V32.5Z" fill="#F4774C"/>
</svg>
