<svg width="35" height="35" viewBox="0 0 35 35" fill="none" xmlns="http://www.w3.org/2000/svg">
<rect width="35" height="35" fill="white"/>
<path d="M20.5879 23.0147C20.5879 20.2532 22.8265 18.0146 25.5879 18.0146H29.9997C32.7611 18.0146 34.9997 20.2532 34.9997 23.0146V27.3382C34.9997 28.4427 34.1042 29.3382 32.9997 29.3382H22.5879C21.4833 29.3382 20.5879 28.4427 20.5879 27.3382V23.0147Z" fill="#F4774C"/>
<path d="M0 23.0147C0 20.2532 2.23858 18.0146 5 18.0146H9.41177C12.1732 18.0146 14.4118 20.2532 14.4118 23.0146V27.3382C14.4118 28.4427 13.5163 29.3382 12.4118 29.3382H2C0.895429 29.3382 0 28.4427 0 27.3382V23.0147Z" fill="#F4774C"/>
<circle cx="28.308" cy="14.4115" r="3.60294" fill="#F4774C"/>
<circle cx="6.69083" cy="14.4115" r="3.60294" fill="#F4774C"/>
<path d="M14.7051 14.1763C10.1487 14.1763 6.45508 17.8699 6.45508 22.4263V28.3674C6.45508 29.8862 7.68629 31.1174 9.20508 31.1174H25.7933C27.3121 31.1174 28.5433 29.8862 28.5433 28.3674V22.4263C28.5433 17.8699 24.8497 14.1763 20.2933 14.1763H14.7051Z" fill="#F4774C" stroke="white" stroke-width="1.5"/>
<circle cx="17.5006" cy="9.77938" r="5.14706" fill="#F4774C"/>
</svg>
