<svg width="35" height="35" viewBox="0 0 35 35" fill="none" xmlns="http://www.w3.org/2000/svg">
<rect width="35" height="35" fill="white"/>
<path d="M26.35 6.00147H4.65C3.41674 6.00147 2.234 6.46708 1.36195 7.29586C0.48991 8.12464 0 9.24871 0 10.4208V22.2056C0 23.3777 0.48991 24.5017 1.36195 25.3305C2.234 26.1593 3.41674 26.6249 4.65 26.6249H15.4349L25.4231 33.7076C25.6537 33.8711 25.9277 33.9704 26.2143 33.9943C26.5009 34.0183 26.7889 33.9659 27.046 33.8432C27.303 33.7204 27.5191 33.532 27.6699 33.2992C27.8208 33.0663 27.9004 32.7981 27.9 32.5247V26.6234C28.7222 26.6234 29.5107 26.313 30.092 25.7605C30.6734 25.208 31 24.4586 31 23.6772V10.4193C31 9.24723 30.5101 8.12317 29.638 7.29439C28.766 6.4656 27.5833 6 26.35 6V6.00147Z" fill="#F4774C"/>
<circle cx="7.5" cy="16.5" r="2.5" fill="white"/>
<circle cx="15.5" cy="16.5" r="2.5" fill="white"/>
<circle cx="23.5" cy="16.5" r="2.5" fill="white"/>
</svg>
