<svg width="35" height="35" viewBox="0 0 35 35" fill="none" xmlns="http://www.w3.org/2000/svg">
<rect width="35" height="35" fill="white"/>
<path fill-rule="evenodd" clip-rule="evenodd" d="M7.5 2C7.00272 2 6.52581 2.19754 6.17418 2.54917C5.82254 2.90081 5.625 3.37772 5.625 3.875V5.75H3.75C2.75544 5.75 1.80161 6.14509 1.09835 6.84835C0.395088 7.55161 0 8.50544 0 9.5V28.25C0 29.2446 0.395088 30.1984 1.09835 30.9016C1.80161 31.6049 2.75544 32 3.75 32H26.25C27.2446 32 28.1984 31.6049 28.9016 30.9016C29.6049 30.1984 30 29.2446 30 28.25V9.5C30 8.50544 29.6049 7.55161 28.9016 6.84835C28.1984 6.14509 27.2446 5.75 26.25 5.75H24.375V3.875C24.375 3.37772 24.1775 2.90081 23.8258 2.54917C23.4742 2.19754 22.9973 2 22.5 2C22.0027 2 21.5258 2.19754 21.1742 2.54917C20.8225 2.90081 20.625 3.37772 20.625 3.875V5.75H9.375V3.875C9.375 3.37772 9.17746 2.90081 8.82582 2.54917C8.47419 2.19754 7.99728 2 7.5 2ZM7.5 11.375C7.00272 11.375 6.52581 11.5725 6.17418 11.9242C5.82254 12.2758 5.625 12.7527 5.625 13.25C5.625 13.7473 5.82254 14.2242 6.17418 14.5758C6.52581 14.9275 7.00272 15.125 7.5 15.125H22.5C22.9973 15.125 23.4742 14.9275 23.8258 14.5758C24.1775 14.2242 24.375 13.7473 24.375 13.25C24.375 12.7527 24.1775 12.2758 23.8258 11.9242C23.4742 11.5725 22.9973 11.375 22.5 11.375H7.5Z" fill="#F4774C"/>
</svg>
