<svg width="35" height="35" viewBox="0 0 35 35" fill="none" xmlns="http://www.w3.org/2000/svg">
<rect width="35" height="35" fill="white"/>
<path fill-rule="evenodd" clip-rule="evenodd" d="M3.80785 5.88225C6.24579 3.39649 9.55236 2 13.0001 2C16.4479 2 19.7545 3.39649 22.1924 5.88225C24.6304 8.36802 26 11.7394 26 15.2548C26 18.7702 24.6304 22.1417 22.1924 24.6274L14.428 32.5441C13.6439 33.3436 12.3563 33.3436 11.5723 32.5441L3.80785 24.6274C2.60062 23.3966 1.64299 21.9354 0.989632 20.3273C0.336278 18.7191 0 16.9955 0 15.2548C0 13.5142 0.336278 11.7905 0.989632 10.1824C1.64299 8.57422 2.60062 7.11303 3.80785 5.88225ZM13.0001 19.0417C13.9852 19.0417 14.9299 18.6428 15.6264 17.9326C16.3229 17.2224 16.7142 16.2592 16.7142 15.2548C16.7142 14.2505 16.3229 13.2873 15.6264 12.5771C14.9299 11.8669 13.9852 11.4679 13.0001 11.4679C12.0151 11.4679 11.0704 11.8669 10.3739 12.5771C9.67738 13.2873 9.28608 14.2505 9.28608 15.2548C9.28608 16.2592 9.67738 17.2224 10.3739 17.9326C11.0704 18.6428 12.0151 19.0417 13.0001 19.0417Z" fill="#F4774C"/>
</svg>
