<svg width="35" height="35" viewBox="0 0 35 35" fill="none" xmlns="http://www.w3.org/2000/svg">
<rect width="35" height="35" fill="white"/>
<path d="M14.0299 2C10.8472 2 7.79487 3.22477 5.54436 5.40488C3.29386 7.58499 2.02953 10.5419 2.02953 13.625V20.5729L0.585592 22.1927C0.305964 22.4636 0.115546 22.8088 0.0384081 23.1846C-0.0387293 23.5604 0.000877917 23.9499 0.152223 24.3039C0.303567 24.6579 0.559854 24.9604 0.888684 25.1733C1.21751 25.3862 1.60412 25.4999 1.99963 25.5H26.0004C26.3959 25.4999 26.7825 25.3862 27.1113 25.1733C27.4401 24.9604 27.6964 24.6579 27.8478 24.3039C27.9991 23.9499 28.0387 23.5604 27.9616 23.1846C27.8845 22.8088 27.694 22.4636 27.4144 22.1927L26.0303 20.5729V13.625C26.0303 10.5419 24.7659 7.58499 22.5154 5.40488C20.2649 3.22477 17.2126 2 14.0299 2ZM14.0299 33C12.4386 33 10.9124 32.3876 9.78713 31.2976C8.66188 30.2075 8.0299 28.5416 8.0299 27H20.0299C20.0299 28.5416 19.3979 30.2075 18.2727 31.2976C17.1474 32.3876 15.6213 33 14.0299 33Z" fill="#F4774C"/>
</svg>
