<svg width="320" height="484" viewBox="0 0 320 484" fill="none" xmlns="http://www.w3.org/2000/svg">
<g filter="url(#filter0_d_1671_10116)">
<rect x="67" y="30" width="185" height="63" rx="5" fill="white"/>
</g>
<path d="M98.7922 55V44.0909H102.606C103.366 44.0909 103.993 44.2223 104.486 44.4851C104.98 44.7443 105.348 45.0941 105.589 45.5344C105.831 45.9712 105.951 46.456 105.951 46.9886C105.951 47.4574 105.868 47.8445 105.701 48.1499C105.538 48.4553 105.321 48.6967 105.051 48.8743C104.785 49.0518 104.495 49.1832 104.183 49.2685V49.375C104.517 49.3963 104.852 49.5135 105.19 49.7266C105.527 49.9396 105.809 50.245 106.037 50.6428C106.264 51.0405 106.377 51.527 106.377 52.1023C106.377 52.6491 106.253 53.141 106.005 53.5778C105.756 54.0146 105.364 54.3608 104.827 54.6165C104.291 54.8722 103.593 55 102.734 55H98.7922ZM100.113 53.8281H102.734C103.597 53.8281 104.209 53.6612 104.572 53.3274C104.937 52.9901 105.12 52.5817 105.12 52.1023C105.12 51.733 105.026 51.392 104.838 51.0795C104.65 50.7635 104.382 50.5114 104.034 50.3232C103.686 50.1314 103.274 50.0355 102.798 50.0355H100.113V53.8281ZM100.113 48.8849H102.564C102.961 48.8849 103.32 48.8068 103.64 48.6506C103.963 48.4943 104.218 48.2741 104.407 47.9901C104.598 47.706 104.694 47.3722 104.694 46.9886C104.694 46.5092 104.527 46.1026 104.193 45.7688C103.86 45.4315 103.331 45.2628 102.606 45.2628H100.113V48.8849ZM110.785 55.1918C110.267 55.1918 109.796 55.0941 109.374 54.8988C108.951 54.6999 108.616 54.4141 108.367 54.0412C108.118 53.6648 107.994 53.2102 107.994 52.6776C107.994 52.2088 108.086 51.8288 108.271 51.5376C108.456 51.2429 108.703 51.0121 109.011 50.8452C109.32 50.6783 109.661 50.554 110.034 50.4723C110.411 50.3871 110.789 50.3196 111.169 50.2699C111.666 50.206 112.069 50.158 112.378 50.1261C112.69 50.0906 112.918 50.032 113.06 49.9503C113.205 49.8686 113.278 49.7266 113.278 49.5241V49.4815C113.278 48.956 113.134 48.5476 112.847 48.2564C112.563 47.9652 112.131 47.8196 111.552 47.8196C110.952 47.8196 110.482 47.951 110.141 48.2138C109.8 48.4766 109.56 48.7571 109.422 49.0554L108.228 48.6293C108.442 48.1321 108.726 47.745 109.081 47.468C109.439 47.1875 109.83 46.9922 110.253 46.8821C110.679 46.7685 111.098 46.7116 111.51 46.7116C111.773 46.7116 112.074 46.7436 112.415 46.8075C112.76 46.8679 113.092 46.994 113.411 47.1857C113.735 47.3775 114.003 47.6669 114.216 48.054C114.429 48.4411 114.535 48.9595 114.535 49.6094V55H113.278V53.892H113.214C113.129 54.0696 112.987 54.2596 112.788 54.462C112.589 54.6644 112.325 54.8366 111.994 54.9787C111.664 55.1207 111.261 55.1918 110.785 55.1918ZM110.977 54.0625C111.474 54.0625 111.893 53.9648 112.234 53.7695C112.579 53.5742 112.838 53.3221 113.012 53.0131C113.189 52.7042 113.278 52.3793 113.278 52.0384V50.8878C113.225 50.9517 113.108 51.0103 112.927 51.0636C112.749 51.1133 112.543 51.1577 112.309 51.1967C112.078 51.2322 111.852 51.2642 111.632 51.2926C111.416 51.3175 111.24 51.3388 111.105 51.3565C110.778 51.3991 110.473 51.4684 110.189 51.5643C109.908 51.6566 109.681 51.7969 109.507 51.9851C109.336 52.1697 109.251 52.4219 109.251 52.7415C109.251 53.1783 109.413 53.5085 109.736 53.7322C110.063 53.9524 110.476 54.0625 110.977 54.0625ZM116.83 46.8182H118.087V53.8281H121.176V46.8182H122.433V53.8281H125.523V46.8182H126.78V55H116.83V46.8182ZM131.484 55.1918C130.965 55.1918 130.495 55.0941 130.072 54.8988C129.649 54.6999 129.314 54.4141 129.065 54.0412C128.817 53.6648 128.692 53.2102 128.692 52.6776C128.692 52.2088 128.785 51.8288 128.969 51.5376C129.154 51.2429 129.401 51.0121 129.71 50.8452C130.019 50.6783 130.36 50.554 130.732 50.4723C131.109 50.3871 131.487 50.3196 131.867 50.2699C132.364 50.206 132.767 50.158 133.076 50.1261C133.389 50.0906 133.616 50.032 133.758 49.9503C133.904 49.8686 133.976 49.7266 133.976 49.5241V49.4815C133.976 48.956 133.833 48.5476 133.545 48.2564C133.261 47.9652 132.829 47.8196 132.251 47.8196C131.65 47.8196 131.18 47.951 130.839 48.2138C130.498 48.4766 130.258 48.7571 130.12 49.0554L128.927 48.6293C129.14 48.1321 129.424 47.745 129.779 47.468C130.138 47.1875 130.528 46.9922 130.951 46.8821C131.377 46.7685 131.796 46.7116 132.208 46.7116C132.471 46.7116 132.773 46.7436 133.114 46.8075C133.458 46.8679 133.79 46.994 134.11 47.1857C134.433 47.3775 134.701 47.6669 134.914 48.054C135.127 48.4411 135.234 48.9595 135.234 49.6094V55H133.976V53.892H133.913C133.827 54.0696 133.685 54.2596 133.486 54.462C133.288 54.6644 133.023 54.8366 132.693 54.9787C132.362 55.1207 131.959 55.1918 131.484 55.1918ZM131.675 54.0625C132.172 54.0625 132.591 53.9648 132.932 53.7695C133.277 53.5742 133.536 53.3221 133.71 53.0131C133.888 52.7042 133.976 52.3793 133.976 52.0384V50.8878C133.923 50.9517 133.806 51.0103 133.625 51.0636C133.447 51.1133 133.241 51.1577 133.007 51.1967C132.776 51.2322 132.551 51.2642 132.33 51.2926C132.114 51.3175 131.938 51.3388 131.803 51.3565C131.476 51.3991 131.171 51.4684 130.887 51.5643C130.606 51.6566 130.379 51.7969 130.205 51.9851C130.035 52.1697 129.949 52.4219 129.949 52.7415C129.949 53.1783 130.111 53.5085 130.434 53.7322C130.761 53.9524 131.175 54.0625 131.675 54.0625ZM143.238 44.0909V55H141.917V44.0909H143.238ZM145.29 45.2628V44.0909H153.472V45.2628H150.042V55H148.721V45.2628H145.29ZM158.915 49.7372V50.9091H154.142V49.7372H158.915ZM164.451 55.1705C163.683 55.1705 163.023 54.9893 162.469 54.6271C161.915 54.2649 161.489 53.766 161.191 53.1303C160.892 52.4947 160.743 51.7685 160.743 50.9517C160.743 50.1207 160.896 49.3874 161.201 48.7518C161.51 48.1126 161.94 47.6136 162.49 47.255C163.044 46.8928 163.691 46.7116 164.429 46.7116C165.004 46.7116 165.523 46.8182 165.985 47.0312C166.446 47.2443 166.824 47.5426 167.119 47.9261C167.414 48.3097 167.597 48.7571 167.668 49.2685H166.411C166.315 48.8956 166.102 48.5653 165.772 48.2777C165.445 47.9865 165.004 47.8409 164.451 47.8409C163.96 47.8409 163.531 47.9687 163.161 48.2244C162.796 48.4766 162.51 48.8335 162.304 49.2951C162.101 49.7532 162 50.2912 162 50.9091C162 51.5412 162.1 52.0916 162.299 52.5604C162.501 53.0291 162.785 53.3931 163.151 53.6523C163.52 53.9116 163.953 54.0412 164.451 54.0412C164.777 54.0412 165.074 53.9844 165.34 53.8707C165.606 53.7571 165.832 53.5938 166.017 53.3807C166.201 53.1676 166.333 52.9119 166.411 52.6136H167.668C167.597 53.0966 167.421 53.5316 167.14 53.9187C166.864 54.3022 166.496 54.6076 166.038 54.8349C165.583 55.0586 165.054 55.1705 164.451 55.1705ZM170.763 53.1463L174.704 46.8182H176.153V55H174.896V48.6719L170.976 55H169.506V46.8182H170.763V53.1463ZM181.78 55.1705C181.013 55.1705 180.352 54.9893 179.798 54.6271C179.244 54.2649 178.818 53.766 178.52 53.1303C178.221 52.4947 178.072 51.7685 178.072 50.9517C178.072 50.1207 178.225 49.3874 178.53 48.7518C178.839 48.1126 179.269 47.6136 179.819 47.255C180.373 46.8928 181.02 46.7116 181.758 46.7116C182.334 46.7116 182.852 46.8182 183.314 47.0312C183.775 47.2443 184.154 47.5426 184.448 47.9261C184.743 48.3097 184.926 48.7571 184.997 49.2685H183.74C183.644 48.8956 183.431 48.5653 183.101 48.2777C182.774 47.9865 182.334 47.8409 181.78 47.8409C181.29 47.8409 180.86 47.9687 180.491 48.2244C180.125 48.4766 179.839 48.8335 179.633 49.2951C179.431 49.7532 179.329 50.2912 179.329 50.9091C179.329 51.5412 179.429 52.0916 179.628 52.5604C179.83 53.0291 180.114 53.3931 180.48 53.6523C180.849 53.9116 181.282 54.0412 181.78 54.0412C182.106 54.0412 182.403 53.9844 182.669 53.8707C182.936 53.7571 183.161 53.5938 183.346 53.3807C183.53 53.1676 183.662 52.9119 183.74 52.6136H184.997C184.926 53.0966 184.75 53.5316 184.47 53.9187C184.193 54.3022 183.825 54.6076 183.367 54.8349C182.912 55.0586 182.383 55.1705 181.78 55.1705ZM186.19 47.9901V46.8182H192.838V47.9901H190.153V55H188.896V47.9901H186.19ZM197.677 55.1705C196.889 55.1705 196.209 54.9964 195.637 54.6484C195.069 54.2969 194.63 53.8068 194.321 53.1783C194.016 52.5462 193.863 51.8111 193.863 50.973C193.863 50.1349 194.016 49.3963 194.321 48.7571C194.63 48.1143 195.06 47.6136 195.61 47.255C196.164 46.8928 196.811 46.7116 197.549 46.7116C197.975 46.7116 198.396 46.7827 198.812 46.9247C199.227 47.0668 199.605 47.2976 199.946 47.6172C200.287 47.9332 200.559 48.3523 200.761 48.8743C200.964 49.3963 201.065 50.0391 201.065 50.8026V51.3352H194.758V50.2486H199.787C199.787 49.7869 199.694 49.375 199.51 49.0128C199.328 48.6506 199.069 48.3647 198.732 48.1552C198.398 47.9457 198.004 47.8409 197.549 47.8409C197.049 47.8409 196.615 47.9652 196.25 48.2138C195.887 48.4588 195.609 48.7784 195.413 49.1726C195.218 49.5668 195.12 49.9893 195.12 50.4403V51.1648C195.12 51.7827 195.227 52.3065 195.44 52.7362C195.657 53.1623 195.957 53.4872 196.34 53.7109C196.724 53.9311 197.169 54.0412 197.677 54.0412C198.007 54.0412 198.306 53.995 198.572 53.9027C198.842 53.8068 199.075 53.6648 199.27 53.4766C199.465 53.2848 199.616 53.0469 199.723 52.7628L200.937 53.1037C200.809 53.5156 200.594 53.8778 200.293 54.1903C199.991 54.4993 199.618 54.7408 199.174 54.9148C198.73 55.0852 198.231 55.1705 197.677 55.1705ZM207.452 53.2955L210.307 46.8182H211.5L207.963 55H206.94L203.467 46.8182H204.639L207.452 53.2955ZM204.234 46.8182V55H202.977V46.8182H204.234ZM210.669 55V46.8182H211.926V55H210.669ZM216.635 55.1918C216.116 55.1918 215.646 55.0941 215.223 54.8988C214.801 54.6999 214.465 54.4141 214.217 54.0412C213.968 53.6648 213.844 53.2102 213.844 52.6776C213.844 52.2088 213.936 51.8288 214.121 51.5376C214.305 51.2429 214.552 51.0121 214.861 50.8452C215.17 50.6783 215.511 50.554 215.884 50.4723C216.26 50.3871 216.638 50.3196 217.018 50.2699C217.516 50.206 217.919 50.158 218.228 50.1261C218.54 50.0906 218.767 50.032 218.909 49.9503C219.055 49.8686 219.128 49.7266 219.128 49.5241V49.4815C219.128 48.956 218.984 48.5476 218.696 48.2564C218.412 47.9652 217.981 47.8196 217.402 47.8196C216.802 47.8196 216.331 47.951 215.99 48.2138C215.649 48.4766 215.41 48.7571 215.271 49.0554L214.078 48.6293C214.291 48.1321 214.575 47.745 214.93 47.468C215.289 47.1875 215.68 46.9922 216.102 46.8821C216.528 46.7685 216.947 46.7116 217.359 46.7116C217.622 46.7116 217.924 46.7436 218.265 46.8075C218.609 46.8679 218.941 46.994 219.261 47.1857C219.584 47.3775 219.852 47.6669 220.065 48.054C220.278 48.4411 220.385 48.9595 220.385 49.6094V55H219.128V53.892H219.064C218.979 54.0696 218.837 54.2596 218.638 54.462C218.439 54.6644 218.174 54.8366 217.844 54.9787C217.514 55.1207 217.111 55.1918 216.635 55.1918ZM216.827 54.0625C217.324 54.0625 217.743 53.9648 218.084 53.7695C218.428 53.5742 218.687 53.3221 218.861 53.0131C219.039 52.7042 219.128 52.3793 219.128 52.0384V50.8878C219.075 50.9517 218.957 51.0103 218.776 51.0636C218.599 51.1133 218.393 51.1577 218.158 51.1967C217.928 51.2322 217.702 51.2642 217.482 51.2926C217.265 51.3175 217.089 51.3388 216.955 51.3565C216.628 51.3991 216.322 51.4684 216.038 51.5643C215.758 51.6566 215.53 51.7969 215.356 51.9851C215.186 52.1697 215.101 52.4219 215.101 52.7415C215.101 53.1783 215.262 53.5085 215.586 53.7322C215.912 53.9524 216.326 54.0625 216.827 54.0625Z" fill="#3C3A3E"/>
<g filter="url(#filter1_d_1671_10116)">
<rect x="67" y="122" width="185" height="62" rx="5" fill="#E4E4E4"/>
</g>
<path d="M90.8181 147V136.091H92.1391V140.949H97.9559V136.091H99.2769V147H97.9559V142.121H92.1391V147H90.8181ZM105.075 147.17C104.336 147.17 103.688 146.995 103.131 146.643C102.577 146.292 102.144 145.8 101.831 145.168C101.522 144.536 101.368 143.797 101.368 142.952C101.368 142.099 101.522 141.355 101.831 140.72C102.144 140.084 102.577 139.591 103.131 139.239C103.688 138.887 104.336 138.712 105.075 138.712C105.814 138.712 106.46 138.887 107.014 139.239C107.571 139.591 108.005 140.084 108.314 140.72C108.626 141.355 108.782 142.099 108.782 142.952C108.782 143.797 108.626 144.536 108.314 145.168C108.005 145.8 107.571 146.292 107.014 146.643C106.46 146.995 105.814 147.17 105.075 147.17ZM105.075 146.041C105.636 146.041 106.098 145.897 106.46 145.61C106.822 145.322 107.09 144.944 107.264 144.475C107.438 144.006 107.525 143.499 107.525 142.952C107.525 142.405 107.438 141.895 107.264 141.423C107.09 140.951 106.822 140.569 106.46 140.278C106.098 139.987 105.636 139.841 105.075 139.841C104.514 139.841 104.052 139.987 103.69 140.278C103.328 140.569 103.06 140.951 102.886 141.423C102.712 141.895 102.625 142.405 102.625 142.952C102.625 143.499 102.712 144.006 102.886 144.475C103.06 144.944 103.328 145.322 103.69 145.61C104.052 145.897 104.514 146.041 105.075 146.041ZM115.176 145.295L118.031 138.818H119.224L115.687 147H114.664L111.191 138.818H112.363L115.176 145.295ZM111.958 138.818V147H110.701V138.818H111.958ZM118.393 147V138.818H119.65V147H118.393ZM125.382 147.17C124.593 147.17 123.913 146.996 123.342 146.648C122.773 146.297 122.335 145.807 122.026 145.178C121.721 144.546 121.568 143.811 121.568 142.973C121.568 142.135 121.721 141.396 122.026 140.757C122.335 140.114 122.765 139.614 123.315 139.255C123.869 138.893 124.515 138.712 125.254 138.712C125.68 138.712 126.101 138.783 126.516 138.925C126.932 139.067 127.31 139.298 127.651 139.617C127.992 139.933 128.263 140.352 128.466 140.874C128.668 141.396 128.77 142.039 128.77 142.803V143.335H122.463V142.249H127.491C127.491 141.787 127.399 141.375 127.214 141.013C127.033 140.651 126.774 140.365 126.436 140.155C126.103 139.946 125.708 139.841 125.254 139.841C124.753 139.841 124.32 139.965 123.954 140.214C123.592 140.459 123.313 140.778 123.118 141.173C122.923 141.567 122.825 141.989 122.825 142.44V143.165C122.825 143.783 122.931 144.306 123.145 144.736C123.361 145.162 123.661 145.487 124.045 145.711C124.428 145.931 124.874 146.041 125.382 146.041C125.712 146.041 126.01 145.995 126.277 145.903C126.547 145.807 126.779 145.665 126.974 145.477C127.17 145.285 127.321 145.047 127.427 144.763L128.642 145.104C128.514 145.516 128.299 145.878 127.997 146.19C127.695 146.499 127.322 146.741 126.879 146.915C126.435 147.085 125.936 147.17 125.382 147.17ZM130.682 150.068V138.818H131.896V140.118H132.045C132.138 139.976 132.266 139.795 132.429 139.575C132.596 139.351 132.834 139.152 133.143 138.978C133.455 138.8 133.878 138.712 134.411 138.712C135.099 138.712 135.707 138.884 136.232 139.228C136.758 139.573 137.168 140.061 137.463 140.693C137.757 141.325 137.905 142.071 137.905 142.93C137.905 143.797 137.757 144.548 137.463 145.184C137.168 145.816 136.76 146.306 136.238 146.654C135.716 146.998 135.114 147.17 134.432 147.17C133.906 147.17 133.485 147.083 133.169 146.909C132.853 146.732 132.61 146.531 132.44 146.308C132.269 146.08 132.138 145.892 132.045 145.743H131.939V150.068H130.682ZM131.918 142.909C131.918 143.527 132.008 144.072 132.189 144.544C132.37 145.013 132.635 145.381 132.983 145.647C133.331 145.91 133.757 146.041 134.261 146.041C134.787 146.041 135.225 145.903 135.577 145.626C135.932 145.345 136.199 144.969 136.376 144.496C136.557 144.021 136.648 143.491 136.648 142.909C136.648 142.334 136.559 141.815 136.381 141.354C136.207 140.888 135.943 140.521 135.588 140.251C135.236 139.978 134.794 139.841 134.261 139.841C133.75 139.841 133.32 139.971 132.972 140.23C132.624 140.485 132.362 140.844 132.184 141.306C132.006 141.764 131.918 142.298 131.918 142.909ZM142.23 147.192C141.712 147.192 141.241 147.094 140.819 146.899C140.396 146.7 140.06 146.414 139.812 146.041C139.563 145.665 139.439 145.21 139.439 144.678C139.439 144.209 139.531 143.829 139.716 143.538C139.901 143.243 140.147 143.012 140.456 142.845C140.765 142.678 141.106 142.554 141.479 142.472C141.855 142.387 142.234 142.32 142.614 142.27C143.111 142.206 143.514 142.158 143.823 142.126C144.135 142.091 144.363 142.032 144.505 141.95C144.65 141.869 144.723 141.727 144.723 141.524V141.482C144.723 140.956 144.579 140.548 144.292 140.256C144.007 139.965 143.576 139.82 142.997 139.82C142.397 139.82 141.926 139.951 141.586 140.214C141.245 140.477 141.005 140.757 140.866 141.055L139.673 140.629C139.886 140.132 140.17 139.745 140.526 139.468C140.884 139.187 141.275 138.992 141.697 138.882C142.124 138.768 142.543 138.712 142.955 138.712C143.217 138.712 143.519 138.744 143.86 138.808C144.205 138.868 144.537 138.994 144.856 139.186C145.179 139.377 145.447 139.667 145.661 140.054C145.874 140.441 145.98 140.96 145.98 141.609V147H144.723V145.892H144.659C144.574 146.07 144.432 146.26 144.233 146.462C144.034 146.664 143.77 146.837 143.439 146.979C143.109 147.121 142.706 147.192 142.23 147.192ZM142.422 146.062C142.919 146.062 143.338 145.965 143.679 145.77C144.023 145.574 144.283 145.322 144.457 145.013C144.634 144.704 144.723 144.379 144.723 144.038V142.888C144.67 142.952 144.553 143.01 144.371 143.064C144.194 143.113 143.988 143.158 143.754 143.197C143.523 143.232 143.297 143.264 143.077 143.293C142.86 143.317 142.685 143.339 142.55 143.357C142.223 143.399 141.918 143.468 141.634 143.564C141.353 143.657 141.126 143.797 140.952 143.985C140.781 144.17 140.696 144.422 140.696 144.741C140.696 145.178 140.858 145.509 141.181 145.732C141.507 145.952 141.921 146.062 142.422 146.062ZM152.025 139.99V138.818H158.672V139.99H155.988V147H154.731V139.99H152.025ZM163.512 147.17C162.723 147.17 162.043 146.996 161.472 146.648C160.903 146.297 160.465 145.807 160.156 145.178C159.85 144.546 159.698 143.811 159.698 142.973C159.698 142.135 159.85 141.396 160.156 140.757C160.465 140.114 160.894 139.614 161.445 139.255C161.999 138.893 162.645 138.712 163.384 138.712C163.81 138.712 164.231 138.783 164.646 138.925C165.062 139.067 165.44 139.298 165.781 139.617C166.122 139.933 166.393 140.352 166.596 140.874C166.798 141.396 166.899 142.039 166.899 142.803V143.335H160.593V142.249H165.621C165.621 141.787 165.529 141.375 165.344 141.013C165.163 140.651 164.904 140.365 164.566 140.155C164.233 139.946 163.838 139.841 163.384 139.841C162.883 139.841 162.45 139.965 162.084 140.214C161.722 140.459 161.443 140.778 161.248 141.173C161.052 141.567 160.955 141.989 160.955 142.44V143.165C160.955 143.783 161.061 144.306 161.274 144.736C161.491 145.162 161.791 145.487 162.175 145.711C162.558 145.931 163.004 146.041 163.512 146.041C163.842 146.041 164.14 145.995 164.407 145.903C164.676 145.807 164.909 145.665 165.104 145.477C165.3 145.285 165.451 145.047 165.557 144.763L166.772 145.104C166.644 145.516 166.429 145.878 166.127 146.19C165.825 146.499 165.452 146.741 165.008 146.915C164.565 147.085 164.066 147.17 163.512 147.17ZM168.087 147V145.828H168.386C168.631 145.828 168.835 145.78 168.998 145.684C169.161 145.585 169.293 145.413 169.392 145.168C169.495 144.919 169.573 144.575 169.627 144.134C169.684 143.69 169.724 143.126 169.749 142.44L169.898 138.818H175.353V147H174.096V139.99H171.092L170.964 142.909C170.935 143.58 170.875 144.172 170.783 144.683C170.694 145.191 170.557 145.617 170.372 145.961C170.191 146.306 169.95 146.565 169.648 146.739C169.346 146.913 168.968 147 168.513 147H168.087ZM181.09 147.17C180.301 147.17 179.621 146.996 179.05 146.648C178.481 146.297 178.043 145.807 177.734 145.178C177.429 144.546 177.276 143.811 177.276 142.973C177.276 142.135 177.429 141.396 177.734 140.757C178.043 140.114 178.473 139.614 179.023 139.255C179.577 138.893 180.223 138.712 180.962 138.712C181.388 138.712 181.809 138.783 182.224 138.925C182.64 139.067 183.018 139.298 183.359 139.617C183.7 139.933 183.972 140.352 184.174 140.874C184.376 141.396 184.478 142.039 184.478 142.803V143.335H178.171V142.249H183.199C183.199 141.787 183.107 141.375 182.922 141.013C182.741 140.651 182.482 140.365 182.144 140.155C181.811 139.946 181.416 139.841 180.962 139.841C180.461 139.841 180.028 139.965 179.662 140.214C179.3 140.459 179.021 140.778 178.826 141.173C178.631 141.567 178.533 141.989 178.533 142.44V143.165C178.533 143.783 178.639 144.306 178.853 144.736C179.069 145.162 179.369 145.487 179.753 145.711C180.136 145.931 180.582 146.041 181.09 146.041C181.42 146.041 181.718 145.995 181.985 145.903C182.255 145.807 182.487 145.665 182.682 145.477C182.878 145.285 183.029 145.047 183.135 144.763L184.35 145.104C184.222 145.516 184.007 145.878 183.705 146.19C183.403 146.499 183.03 146.741 182.587 146.915C182.143 147.085 181.644 147.17 181.09 147.17ZM189.714 149.791V136.091H190.971V149.791H189.714ZM189.714 147.17C189.16 147.17 188.655 147.071 188.201 146.872C187.746 146.67 187.356 146.384 187.029 146.015C186.702 145.642 186.45 145.196 186.273 144.678C186.095 144.159 186.006 143.584 186.006 142.952C186.006 142.312 186.095 141.734 186.273 141.215C186.45 140.693 186.702 140.246 187.029 139.873C187.356 139.5 187.746 139.214 188.201 139.015C188.655 138.813 189.16 138.712 189.714 138.712H190.097V147.17H189.714ZM189.714 146.041H189.927V139.841H189.714C189.295 139.841 188.931 139.926 188.622 140.097C188.313 140.263 188.057 140.493 187.855 140.784C187.656 141.071 187.507 141.402 187.407 141.775C187.311 142.147 187.263 142.54 187.263 142.952C187.263 143.499 187.35 144.006 187.524 144.475C187.698 144.944 187.967 145.322 188.329 145.61C188.691 145.897 189.153 146.041 189.714 146.041ZM190.971 147.17H190.587V138.712H190.971C191.525 138.712 192.029 138.813 192.484 139.015C192.938 139.214 193.329 139.5 193.655 139.873C193.982 140.246 194.234 140.693 194.412 141.215C194.589 141.734 194.678 142.312 194.678 142.952C194.678 143.584 194.589 144.159 194.412 144.678C194.234 145.196 193.982 145.642 193.655 146.015C193.329 146.384 192.938 146.67 192.484 146.872C192.029 147.071 191.525 147.17 190.971 147.17ZM190.971 146.041C191.393 146.041 191.757 145.96 192.063 145.796C192.372 145.629 192.626 145.402 192.824 145.114C193.027 144.823 193.176 144.493 193.272 144.124C193.371 143.751 193.421 143.36 193.421 142.952C193.421 142.405 193.334 141.895 193.16 141.423C192.986 140.951 192.718 140.569 192.356 140.278C191.994 139.987 191.532 139.841 190.971 139.841H190.758V146.041H190.971ZM199.924 147.17C199.185 147.17 198.537 146.995 197.979 146.643C197.425 146.292 196.992 145.8 196.68 145.168C196.371 144.536 196.216 143.797 196.216 142.952C196.216 142.099 196.371 141.355 196.68 140.72C196.992 140.084 197.425 139.591 197.979 139.239C198.537 138.887 199.185 138.712 199.924 138.712C200.662 138.712 201.309 138.887 201.863 139.239C202.42 139.591 202.853 140.084 203.162 140.72C203.475 141.355 203.631 142.099 203.631 142.952C203.631 143.797 203.475 144.536 203.162 145.168C202.853 145.8 202.42 146.292 201.863 146.643C201.309 146.995 200.662 147.17 199.924 147.17ZM199.924 146.041C200.485 146.041 200.946 145.897 201.309 145.61C201.671 145.322 201.939 144.944 202.113 144.475C202.287 144.006 202.374 143.499 202.374 142.952C202.374 142.405 202.287 141.895 202.113 141.423C201.939 140.951 201.671 140.569 201.309 140.278C200.946 139.987 200.485 139.841 199.924 139.841C199.363 139.841 198.901 139.987 198.539 140.278C198.176 140.569 197.908 140.951 197.734 141.423C197.56 141.895 197.473 142.405 197.473 142.952C197.473 143.499 197.56 144.006 197.734 144.475C197.908 144.944 198.176 145.322 198.539 145.61C198.901 145.897 199.363 146.041 199.924 146.041ZM211.026 142.334V143.506H206.509V142.334H211.026ZM206.807 138.818V147H205.55V138.818H206.807ZM211.985 138.818V147H210.728V138.818H211.985ZM217.604 147.17C216.866 147.17 216.218 146.995 215.66 146.643C215.106 146.292 214.673 145.8 214.36 145.168C214.051 144.536 213.897 143.797 213.897 142.952C213.897 142.099 214.051 141.355 214.36 140.72C214.673 140.084 215.106 139.591 215.66 139.239C216.218 138.887 216.866 138.712 217.604 138.712C218.343 138.712 218.989 138.887 219.543 139.239C220.101 139.591 220.534 140.084 220.843 140.72C221.155 141.355 221.312 142.099 221.312 142.952C221.312 143.797 221.155 144.536 220.843 145.168C220.534 145.8 220.101 146.292 219.543 146.643C218.989 146.995 218.343 147.17 217.604 147.17ZM217.604 146.041C218.165 146.041 218.627 145.897 218.989 145.61C219.351 145.322 219.62 144.944 219.794 144.475C219.968 144.006 220.055 143.499 220.055 142.952C220.055 142.405 219.968 141.895 219.794 141.423C219.62 140.951 219.351 140.569 218.989 140.278C218.627 139.987 218.165 139.841 217.604 139.841C217.043 139.841 216.582 139.987 216.219 140.278C215.857 140.569 215.589 140.951 215.415 141.423C215.241 141.895 215.154 142.405 215.154 142.952C215.154 143.499 215.241 144.006 215.415 144.475C215.589 144.944 215.857 145.322 216.219 145.61C216.582 145.897 217.043 146.041 217.604 146.041ZM223.231 147V138.818H226.576C227.456 138.818 228.156 139.017 228.675 139.415C229.193 139.812 229.452 140.338 229.452 140.991C229.452 141.489 229.305 141.874 229.01 142.147C228.715 142.417 228.337 142.6 227.876 142.696C228.177 142.739 228.47 142.845 228.754 143.016C229.042 143.186 229.28 143.42 229.468 143.719C229.656 144.013 229.751 144.376 229.751 144.805C229.751 145.224 229.644 145.599 229.431 145.929C229.218 146.26 228.912 146.521 228.515 146.712C228.117 146.904 227.641 147 227.087 147H223.231ZM224.424 145.849H227.087C227.52 145.849 227.86 145.746 228.105 145.54C228.35 145.335 228.472 145.054 228.472 144.699C228.472 144.276 228.35 143.944 228.105 143.703C227.86 143.458 227.52 143.335 227.087 143.335H224.424V145.849ZM224.424 142.249H226.576C226.913 142.249 227.203 142.202 227.444 142.11C227.686 142.014 227.87 141.879 227.998 141.705C228.129 141.528 228.195 141.318 228.195 141.077C228.195 140.732 228.051 140.462 227.764 140.267C227.476 140.068 227.08 139.969 226.576 139.969H224.424V142.249ZM86.0966 166.146L90.0384 159.818H91.4873V168H90.2302V161.672L86.3097 168H84.8395V159.818H86.0966V166.146ZM97.1349 170.344V166.828H97.8167C97.9836 166.654 98.1274 166.466 98.2482 166.263C98.3689 166.061 98.4737 165.821 98.5625 165.544C98.6548 165.264 98.7329 164.923 98.7968 164.522C98.8608 164.117 98.9176 163.629 98.9673 163.057L99.2443 159.818H104.443V166.828H105.7V170.344H104.443V168H98.392V170.344H97.1349ZM99.2443 166.828H103.186V160.99H100.416L100.203 163.057C100.114 163.913 100.004 164.66 99.8728 165.299C99.7414 165.939 99.5319 166.448 99.2443 166.828ZM109.777 168.192C109.258 168.192 108.788 168.094 108.365 167.899C107.942 167.7 107.607 167.414 107.358 167.041C107.11 166.665 106.985 166.21 106.985 165.678C106.985 165.209 107.078 164.829 107.262 164.538C107.447 164.243 107.694 164.012 108.003 163.845C108.312 163.678 108.653 163.554 109.025 163.472C109.402 163.387 109.78 163.32 110.16 163.27C110.657 163.206 111.06 163.158 111.369 163.126C111.682 163.091 111.909 163.032 112.051 162.95C112.197 162.869 112.269 162.727 112.269 162.524V162.482C112.269 161.956 112.126 161.548 111.838 161.256C111.554 160.965 111.122 160.82 110.544 160.82C109.943 160.82 109.473 160.951 109.132 161.214C108.791 161.477 108.551 161.757 108.413 162.055L107.22 161.629C107.433 161.132 107.717 160.745 108.072 160.468C108.431 160.187 108.821 159.992 109.244 159.882C109.67 159.768 110.089 159.712 110.501 159.712C110.764 159.712 111.066 159.744 111.406 159.808C111.751 159.868 112.083 159.994 112.403 160.186C112.726 160.377 112.994 160.667 113.207 161.054C113.42 161.441 113.527 161.96 113.527 162.609V168H112.269V166.892H112.205C112.12 167.07 111.978 167.26 111.779 167.462C111.58 167.664 111.316 167.837 110.986 167.979C110.655 168.121 110.252 168.192 109.777 168.192ZM109.968 167.062C110.465 167.062 110.884 166.965 111.225 166.77C111.57 166.574 111.829 166.322 112.003 166.013C112.181 165.704 112.269 165.379 112.269 165.038V163.888C112.216 163.952 112.099 164.01 111.918 164.064C111.74 164.113 111.534 164.158 111.3 164.197C111.069 164.232 110.844 164.264 110.623 164.293C110.407 164.317 110.231 164.339 110.096 164.357C109.769 164.399 109.464 164.468 109.18 164.564C108.899 164.657 108.672 164.797 108.498 164.985C108.328 165.17 108.242 165.422 108.242 165.741C108.242 166.178 108.404 166.509 108.727 166.732C109.054 166.952 109.468 167.062 109.968 167.062ZM121.297 163.334V164.506H116.78V163.334H121.297ZM117.078 159.818V168H115.821V159.818H117.078ZM122.256 159.818V168H120.999V159.818H122.256ZM130.027 163.334V164.506H125.51V163.334H130.027ZM125.809 159.818V168H124.551V159.818H125.809ZM130.986 159.818V168H129.729V159.818H130.986ZM134.369 162.78H136.712C137.671 162.78 138.404 163.023 138.912 163.51C139.42 163.996 139.674 164.612 139.674 165.358C139.674 165.848 139.56 166.294 139.333 166.695C139.106 167.093 138.772 167.411 138.332 167.648C137.891 167.883 137.352 168 136.712 168H133.282V159.818H134.539V166.828H136.712C137.209 166.828 137.618 166.697 137.937 166.434C138.257 166.171 138.417 165.834 138.417 165.422C138.417 164.989 138.257 164.635 137.937 164.362C137.618 164.088 137.209 163.952 136.712 163.952H134.369V162.78ZM140.974 168V159.818H142.231V168H140.974ZM147.962 168.17C147.174 168.17 146.494 167.996 145.922 167.648C145.354 167.297 144.915 166.807 144.606 166.178C144.301 165.546 144.148 164.811 144.148 163.973C144.148 163.135 144.301 162.396 144.606 161.757C144.915 161.114 145.345 160.614 145.896 160.255C146.45 159.893 147.096 159.712 147.834 159.712C148.261 159.712 148.681 159.783 149.097 159.925C149.512 160.067 149.891 160.298 150.231 160.617C150.572 160.933 150.844 161.352 151.046 161.874C151.249 162.396 151.35 163.039 151.35 163.803V164.335H145.043V163.249H150.072C150.072 162.787 149.979 162.375 149.795 162.013C149.614 161.651 149.354 161.365 149.017 161.155C148.683 160.946 148.289 160.841 147.834 160.841C147.334 160.841 146.901 160.965 146.535 161.214C146.173 161.459 145.894 161.778 145.698 162.173C145.503 162.567 145.405 162.989 145.405 163.44V164.165C145.405 164.783 145.512 165.306 145.725 165.736C145.942 166.162 146.242 166.487 146.625 166.711C147.009 166.931 147.455 167.041 147.962 167.041C148.293 167.041 148.591 166.995 148.857 166.903C149.127 166.807 149.36 166.665 149.555 166.477C149.75 166.285 149.901 166.047 150.008 165.763L151.222 166.104C151.094 166.516 150.88 166.878 150.578 167.19C150.276 167.499 149.903 167.741 149.459 167.915C149.015 168.085 148.516 168.17 147.962 168.17ZM160.805 168.17C160.066 168.17 159.418 167.995 158.861 167.643C158.307 167.292 157.874 166.8 157.561 166.168C157.252 165.536 157.098 164.797 157.098 163.952C157.098 163.099 157.252 162.355 157.561 161.72C157.874 161.084 158.307 160.591 158.861 160.239C159.418 159.887 160.066 159.712 160.805 159.712C161.544 159.712 162.19 159.887 162.744 160.239C163.301 160.591 163.735 161.084 164.044 161.72C164.356 162.355 164.512 163.099 164.512 163.952C164.512 164.797 164.356 165.536 164.044 166.168C163.735 166.8 163.301 167.292 162.744 167.643C162.19 167.995 161.544 168.17 160.805 168.17ZM160.805 167.041C161.366 167.041 161.828 166.897 162.19 166.61C162.552 166.322 162.82 165.944 162.994 165.475C163.168 165.006 163.255 164.499 163.255 163.952C163.255 163.405 163.168 162.895 162.994 162.423C162.82 161.951 162.552 161.569 162.19 161.278C161.828 160.987 161.366 160.841 160.805 160.841C160.244 160.841 159.782 160.987 159.42 161.278C159.058 161.569 158.79 161.951 158.616 162.423C158.442 162.895 158.355 163.405 158.355 163.952C158.355 164.499 158.442 165.006 158.616 165.475C158.79 165.944 159.058 166.322 159.42 166.61C159.782 166.897 160.244 167.041 160.805 167.041ZM170.65 168V159.818H171.907V163.376H172.738L175.678 159.818H177.298L173.995 163.76L177.34 168H175.721L173.036 164.548H171.907V168H170.65ZM177.982 168V166.828H178.281C178.526 166.828 178.73 166.78 178.893 166.684C179.057 166.585 179.188 166.413 179.287 166.168C179.39 165.919 179.468 165.575 179.522 165.134C179.579 164.69 179.619 164.126 179.644 163.44L179.793 159.818H185.248V168H183.991V160.99H180.987L180.859 163.909C180.83 164.58 180.77 165.172 180.678 165.683C180.589 166.191 180.452 166.617 180.267 166.961C180.086 167.306 179.845 167.565 179.543 167.739C179.241 167.913 178.863 168 178.408 168H177.982ZM188.811 166.146L192.753 159.818H194.202V168H192.945V161.672L189.025 168H187.554V159.818H188.811V166.146ZM199.935 168.17C199.147 168.17 198.467 167.996 197.895 167.648C197.327 167.297 196.888 166.807 196.579 166.178C196.274 165.546 196.121 164.811 196.121 163.973C196.121 163.135 196.274 162.396 196.579 161.757C196.888 161.114 197.318 160.614 197.868 160.255C198.422 159.893 199.068 159.712 199.807 159.712C200.233 159.712 200.654 159.783 201.07 159.925C201.485 160.067 201.863 160.298 202.204 160.617C202.545 160.933 202.817 161.352 203.019 161.874C203.222 162.396 203.323 163.039 203.323 163.803V164.335H197.016V163.249H202.044C202.044 162.787 201.952 162.375 201.767 162.013C201.586 161.651 201.327 161.365 200.99 161.155C200.656 160.946 200.262 160.841 199.807 160.841C199.306 160.841 198.873 160.965 198.507 161.214C198.145 161.459 197.866 161.778 197.671 162.173C197.476 162.567 197.378 162.989 197.378 163.44V164.165C197.378 164.783 197.485 165.306 197.698 165.736C197.914 166.162 198.214 166.487 198.598 166.711C198.981 166.931 199.427 167.041 199.935 167.041C200.265 167.041 200.564 166.995 200.83 166.903C201.1 166.807 201.332 166.665 201.528 166.477C201.723 166.285 201.874 166.047 201.98 165.763L203.195 166.104C203.067 166.516 202.852 166.878 202.55 167.19C202.249 167.499 201.876 167.741 201.432 167.915C200.988 168.085 200.489 168.17 199.935 168.17ZM210.711 163.334V164.506H206.194V163.334H210.711ZM206.492 159.818V168H205.235V159.818H206.492ZM211.67 159.818V168H210.413V159.818H211.67ZM212.852 160.99V159.818H219.5V160.99H216.815V168H215.558V160.99H212.852ZM223.317 168.192C222.798 168.192 222.328 168.094 221.905 167.899C221.482 167.7 221.147 167.414 220.898 167.041C220.65 166.665 220.525 166.21 220.525 165.678C220.525 165.209 220.618 164.829 220.802 164.538C220.987 164.243 221.234 164.012 221.543 163.845C221.852 163.678 222.193 163.554 222.565 163.472C222.942 163.387 223.32 163.32 223.7 163.27C224.197 163.206 224.6 163.158 224.909 163.126C225.222 163.091 225.449 163.032 225.591 162.95C225.737 162.869 225.809 162.727 225.809 162.524V162.482C225.809 161.956 225.666 161.548 225.378 161.256C225.094 160.965 224.662 160.82 224.084 160.82C223.483 160.82 223.013 160.951 222.672 161.214C222.331 161.477 222.091 161.757 221.953 162.055L220.76 161.629C220.973 161.132 221.257 160.745 221.612 160.468C221.971 160.187 222.361 159.992 222.784 159.882C223.21 159.768 223.629 159.712 224.041 159.712C224.304 159.712 224.606 159.744 224.947 159.808C225.291 159.868 225.623 159.994 225.943 160.186C226.266 160.377 226.534 160.667 226.747 161.054C226.96 161.441 227.067 161.96 227.067 162.609V168H225.809V166.892H225.746C225.66 167.07 225.518 167.26 225.319 167.462C225.121 167.664 224.856 167.837 224.526 167.979C224.195 168.121 223.792 168.192 223.317 168.192ZM223.508 167.062C224.005 167.062 224.424 166.965 224.765 166.77C225.11 166.574 225.369 166.322 225.543 166.013C225.721 165.704 225.809 165.379 225.809 165.038V163.888C225.756 163.952 225.639 164.01 225.458 164.064C225.28 164.113 225.074 164.158 224.84 164.197C224.609 164.232 224.384 164.264 224.163 164.293C223.947 164.317 223.771 164.339 223.636 164.357C223.309 164.399 223.004 164.468 222.72 164.564C222.439 164.657 222.212 164.797 222.038 164.985C221.868 165.17 221.782 165.422 221.782 165.741C221.782 166.178 221.944 166.509 222.267 166.732C222.594 166.952 223.008 167.062 223.508 167.062ZM230.299 159.818L232.259 163.163L234.219 159.818H235.668L233.026 163.909L235.668 168H234.219L232.259 164.825L230.299 168H228.85L231.449 163.909L228.85 159.818H230.299Z" fill="#3C3A3E"/>
<g filter="url(#filter2_d_1671_10116)">
<rect x="93" y="213" width="133" height="171" rx="5" fill="white"/>
</g>
<g filter="url(#filter3_d_1671_10116)">
<rect x="20" y="413" width="120" height="41" rx="5" fill="white"/>
</g>
<path d="M49.6437 432.545C49.6437 433.696 49.436 434.69 49.0205 435.528C48.605 436.366 48.0351 437.013 47.3106 437.467C46.5862 437.922 45.7588 438.149 44.8284 438.149C43.898 438.149 43.0706 437.922 42.3461 437.467C41.6217 437.013 41.0518 436.366 40.6363 435.528C40.2208 434.69 40.0131 433.696 40.0131 432.545C40.0131 431.395 40.2208 430.401 40.6363 429.562C41.0518 428.724 41.6217 428.078 42.3461 427.624C43.0706 427.169 43.898 426.942 44.8284 426.942C45.7588 426.942 46.5862 427.169 47.3106 427.624C48.0351 428.078 48.605 428.724 49.0205 429.562C49.436 430.401 49.6437 431.395 49.6437 432.545ZM48.3653 432.545C48.3653 431.601 48.2073 430.804 47.8912 430.154C47.5787 429.504 47.1544 429.012 46.6182 428.678C46.0855 428.344 45.4889 428.178 44.8284 428.178C44.1679 428.178 43.5695 428.344 43.0333 428.678C42.5006 429.012 42.0763 429.504 41.7602 430.154C41.4477 430.804 41.2915 431.601 41.2915 432.545C41.2915 433.49 41.4477 434.287 41.7602 434.937C42.0763 435.587 42.5006 436.079 43.0333 436.413C43.5695 436.746 44.1679 436.913 44.8284 436.913C45.4889 436.913 46.0855 436.746 46.6182 436.413C47.1544 436.079 47.5787 435.587 47.8912 434.937C48.2073 434.287 48.3653 433.49 48.3653 432.545ZM51.6945 438V429.818H58.1292V438H56.8721V430.99H52.9516V438H51.6945ZM63.8554 438.17C63.067 438.17 62.387 437.996 61.8153 437.648C61.2471 437.297 60.8085 436.807 60.4996 436.178C60.1942 435.546 60.0415 434.811 60.0415 433.973C60.0415 433.135 60.1942 432.396 60.4996 431.757C60.8085 431.114 61.2382 430.614 61.7886 430.255C62.3426 429.893 62.9889 429.712 63.7275 429.712C64.1537 429.712 64.5745 429.783 64.99 429.925C65.4055 430.067 65.7836 430.298 66.1246 430.617C66.4655 430.933 66.7371 431.352 66.9395 431.874C67.142 432.396 67.2432 433.039 67.2432 433.803V434.335H60.9363V433.249H65.9648C65.9648 432.787 65.8724 432.375 65.6878 432.013C65.5067 431.651 65.2474 431.365 64.9101 431.155C64.5763 430.946 64.1821 430.841 63.7275 430.841C63.2268 430.841 62.7936 430.965 62.4278 431.214C62.0656 431.459 61.7868 431.778 61.5915 432.173C61.3962 432.567 61.2986 432.989 61.2986 433.44V434.165C61.2986 434.783 61.4051 435.306 61.6182 435.736C61.8348 436.162 62.1349 436.487 62.5184 436.711C62.9019 436.931 63.3476 437.041 63.8554 437.041C64.1856 437.041 64.4839 436.995 64.7503 436.903C65.0202 436.807 65.2528 436.665 65.4481 436.477C65.6434 436.285 65.7943 436.047 65.9008 435.763L67.1153 436.104C66.9875 436.516 66.7726 436.878 66.4708 437.19C66.1689 437.499 65.7961 437.741 65.3522 437.915C64.9083 438.085 64.4094 438.17 63.8554 438.17ZM69.1555 441.068V429.818H70.3699V431.118H70.5191C70.6114 430.976 70.7393 430.795 70.9026 430.575C71.0695 430.351 71.3074 430.152 71.6164 429.978C71.9289 429.8 72.3515 429.712 72.8841 429.712C73.5731 429.712 74.1803 429.884 74.7059 430.228C75.2314 430.573 75.6416 431.061 75.9363 431.693C76.2311 432.325 76.3785 433.071 76.3785 433.93C76.3785 434.797 76.2311 435.548 75.9363 436.184C75.6416 436.816 75.2332 437.306 74.7112 437.654C74.1892 437.998 73.5873 438.17 72.9055 438.17C72.3799 438.17 71.9591 438.083 71.643 437.909C71.327 437.732 71.0837 437.531 70.9133 437.308C70.7428 437.08 70.6114 436.892 70.5191 436.743H70.4126V441.068H69.1555ZM70.3912 433.909C70.3912 434.527 70.4818 435.072 70.6629 435.544C70.844 436.013 71.1086 436.381 71.4566 436.647C71.8046 436.91 72.2307 437.041 72.735 437.041C73.2606 437.041 73.6991 436.903 74.0507 436.626C74.4058 436.345 74.6721 435.969 74.8497 435.496C75.0308 435.021 75.1214 434.491 75.1214 433.909C75.1214 433.334 75.0326 432.815 74.855 432.354C74.681 431.888 74.4165 431.521 74.0613 431.251C73.7098 430.978 73.2677 430.841 72.735 430.841C72.2236 430.841 71.7939 430.971 71.4459 431.23C71.0979 431.485 70.8351 431.844 70.6576 432.306C70.48 432.764 70.3912 433.298 70.3912 433.909ZM80.7037 438.192C80.1853 438.192 79.7148 438.094 79.2922 437.899C78.8696 437.7 78.534 437.414 78.2854 437.041C78.0368 436.665 77.9126 436.21 77.9126 435.678C77.9126 435.209 78.0049 434.829 78.1895 434.538C78.3742 434.243 78.621 434.012 78.93 433.845C79.2389 433.678 79.5798 433.554 79.9527 433.472C80.3291 433.387 80.7073 433.32 81.0873 433.27C81.5844 433.206 81.9875 433.158 82.2964 433.126C82.6089 433.091 82.8362 433.032 82.9782 432.95C83.1238 432.869 83.1966 432.727 83.1966 432.524V432.482C83.1966 431.956 83.0528 431.548 82.7652 431.256C82.4811 430.965 82.0496 430.82 81.4708 430.82C80.8706 430.82 80.4001 430.951 80.0592 431.214C79.7183 431.477 79.4786 431.757 79.3401 432.055L78.1469 431.629C78.36 431.132 78.6441 430.745 78.9992 430.468C79.3579 430.187 79.7485 429.992 80.1711 429.882C80.5972 429.768 81.0162 429.712 81.4282 429.712C81.691 429.712 81.9928 429.744 82.3337 429.808C82.6782 429.868 83.0102 429.994 83.3298 430.186C83.653 430.377 83.9211 430.667 84.1341 431.054C84.3472 431.441 84.4537 431.96 84.4537 432.609V438H83.1966V436.892H83.1327C83.0475 437.07 82.9055 437.26 82.7066 437.462C82.5077 437.664 82.2432 437.837 81.9129 437.979C81.5827 438.121 81.1796 438.192 80.7037 438.192ZM80.8955 437.062C81.3927 437.062 81.8117 436.965 82.1526 436.77C82.4971 436.574 82.7563 436.322 82.9303 436.013C83.1079 435.704 83.1966 435.379 83.1966 435.038V433.888C83.1434 433.952 83.0262 434.01 82.8451 434.064C82.6675 434.113 82.4616 434.158 82.2272 434.197C81.9964 434.232 81.7709 434.264 81.5507 434.293C81.3341 434.317 81.1583 434.339 81.0233 434.357C80.6966 434.399 80.3912 434.468 80.1072 434.564C79.8266 434.657 79.5993 434.797 79.4253 434.985C79.2549 435.17 79.1697 435.422 79.1697 435.741C79.1697 436.178 79.3312 436.509 79.6544 436.732C79.9811 436.952 80.3948 437.062 80.8955 437.062ZM85.6349 430.99V429.818H92.2827V430.99H89.598V438H88.3409V430.99H85.6349ZM97.0154 438.17C96.2768 438.17 95.6287 437.995 95.0712 437.643C94.5172 437.292 94.084 436.8 93.7715 436.168C93.4625 435.536 93.3081 434.797 93.3081 433.952C93.3081 433.099 93.4625 432.355 93.7715 431.72C94.084 431.084 94.5172 430.591 95.0712 430.239C95.6287 429.887 96.2768 429.712 97.0154 429.712C97.7541 429.712 98.4004 429.887 98.9544 430.239C99.5119 430.591 99.9451 431.084 100.254 431.72C100.567 432.355 100.723 433.099 100.723 433.952C100.723 434.797 100.567 435.536 100.254 436.168C99.9451 436.8 99.5119 437.292 98.9544 437.643C98.4004 437.995 97.7541 438.17 97.0154 438.17ZM97.0154 437.041C97.5765 437.041 98.0382 436.897 98.4004 436.61C98.7626 436.322 99.0307 435.944 99.2047 435.475C99.3787 435.006 99.4657 434.499 99.4657 433.952C99.4657 433.405 99.3787 432.895 99.2047 432.423C99.0307 431.951 98.7626 431.569 98.4004 431.278C98.0382 430.987 97.5765 430.841 97.0154 430.841C96.4544 430.841 95.9927 430.987 95.6305 431.278C95.2683 431.569 95.0002 431.951 94.8262 432.423C94.6522 432.895 94.5652 433.405 94.5652 433.952C94.5652 434.499 94.6522 435.006 94.8262 435.475C95.0002 435.944 95.2683 436.322 95.6305 436.61C95.9927 436.897 96.4544 437.041 97.0154 437.041ZM102.642 441.068V429.818H103.856V431.118H104.005C104.098 430.976 104.226 430.795 104.389 430.575C104.556 430.351 104.794 430.152 105.103 429.978C105.415 429.8 105.838 429.712 106.37 429.712C107.059 429.712 107.667 429.884 108.192 430.228C108.718 430.573 109.128 431.061 109.423 431.693C109.717 432.325 109.865 433.071 109.865 433.93C109.865 434.797 109.717 435.548 109.423 436.184C109.128 436.816 108.72 437.306 108.198 437.654C107.676 437.998 107.074 438.17 106.392 438.17C105.866 438.17 105.445 438.083 105.129 437.909C104.813 437.732 104.57 437.531 104.4 437.308C104.229 437.08 104.098 436.892 104.005 436.743H103.899V441.068H102.642ZM103.878 433.909C103.878 434.527 103.968 435.072 104.149 435.544C104.33 436.013 104.595 436.381 104.943 436.647C105.291 436.91 105.717 437.041 106.221 437.041C106.747 437.041 107.185 436.903 107.537 436.626C107.892 436.345 108.158 435.969 108.336 435.496C108.517 435.021 108.608 434.491 108.608 433.909C108.608 433.334 108.519 432.815 108.341 432.354C108.167 431.888 107.903 431.521 107.548 431.251C107.196 430.978 106.754 430.841 106.221 430.841C105.71 430.841 105.28 430.971 104.932 431.23C104.584 431.485 104.321 431.844 104.144 432.306C103.966 432.764 103.878 433.298 103.878 433.909ZM112.869 432.78H115.213C116.172 432.78 116.905 433.023 117.413 433.51C117.921 433.996 118.174 434.612 118.174 435.358C118.174 435.848 118.061 436.294 117.834 436.695C117.606 437.093 117.272 437.411 116.832 437.648C116.392 437.883 115.852 438 115.213 438H111.782V429.818H113.04V436.828H115.213C115.71 436.828 116.118 436.697 116.438 436.434C116.758 436.171 116.917 435.834 116.917 435.422C116.917 434.989 116.758 434.635 116.438 434.362C116.118 434.088 115.71 433.952 115.213 433.952H112.869V432.78ZM119.474 438V429.818H120.731V438H119.474Z" fill="#3C3A3E"/>
<g filter="url(#filter4_d_1671_10116)">
<rect x="180" y="413" width="120" height="41" rx="5" fill="white"/>
</g>
<path d="M215.947 438L212.197 432.993H210.855V438H209.534V427.091H210.855V431.821H211.43L215.798 427.091H217.375L212.964 431.885L217.524 438H215.947ZM218.336 438V436.828H218.635C218.88 436.828 219.084 436.78 219.247 436.684C219.411 436.585 219.542 436.413 219.641 436.168C219.744 435.919 219.822 435.575 219.876 435.134C219.933 434.69 219.973 434.126 219.998 433.44L220.147 429.818H225.602V438H224.345V430.99H221.341L221.213 433.909C221.184 434.58 221.124 435.172 221.032 435.683C220.943 436.191 220.806 436.617 220.621 436.961C220.44 437.306 220.199 437.565 219.897 437.739C219.595 437.913 219.217 438 218.762 438H218.336ZM229.165 436.146L233.107 429.818H234.556V438H233.299V431.672L229.379 438H227.908V429.818H229.165V436.146ZM240.289 438.17C239.501 438.17 238.821 437.996 238.249 437.648C237.681 437.297 237.242 436.807 236.933 436.178C236.628 435.546 236.475 434.811 236.475 433.973C236.475 433.135 236.628 432.396 236.933 431.757C237.242 431.114 237.672 430.614 238.222 430.255C238.776 429.893 239.422 429.712 240.161 429.712C240.587 429.712 241.008 429.783 241.424 429.925C241.839 430.067 242.217 430.298 242.558 430.617C242.899 430.933 243.171 431.352 243.373 431.874C243.576 432.396 243.677 433.039 243.677 433.803V434.335H237.37V433.249H242.398C242.398 432.787 242.306 432.375 242.121 432.013C241.94 431.651 241.681 431.365 241.344 431.155C241.01 430.946 240.616 430.841 240.161 430.841C239.66 430.841 239.227 430.965 238.861 431.214C238.499 431.459 238.22 431.778 238.025 432.173C237.83 432.567 237.732 432.989 237.732 433.44V434.165C237.732 434.783 237.839 435.306 238.052 435.736C238.268 436.162 238.568 436.487 238.952 436.711C239.335 436.931 239.781 437.041 240.289 437.041C240.619 437.041 240.918 436.995 241.184 436.903C241.454 436.807 241.686 436.665 241.882 436.477C242.077 436.285 242.228 436.047 242.334 435.763L243.549 436.104C243.421 436.516 243.206 436.878 242.904 437.19C242.603 437.499 242.23 437.741 241.786 437.915C241.342 438.085 240.843 438.17 240.289 438.17ZM251.065 433.334V434.506H246.548V433.334H251.065ZM246.846 429.818V438H245.589V429.818H246.846ZM252.024 429.818V438H250.767V429.818H252.024ZM253.206 430.99V429.818H259.854V430.99H257.169V438H255.912V430.99H253.206ZM262.774 432.78H265.118C266.077 432.78 266.81 433.023 267.318 433.51C267.826 433.996 268.08 434.612 268.08 435.358C268.08 435.848 267.966 436.294 267.739 436.695C267.512 437.093 267.178 437.411 266.737 437.648C266.297 437.883 265.757 438 265.118 438H261.688V429.818H262.945V436.828H265.118C265.615 436.828 266.024 436.697 266.343 436.434C266.663 436.171 266.823 435.834 266.823 435.422C266.823 434.989 266.663 434.635 266.343 434.362C266.024 434.088 265.615 433.952 265.118 433.952H262.774V432.78ZM269.379 438V429.818H270.637V438H269.379Z" fill="#3C3A3E"/>
<path d="M226 303.5C226.276 303.5 226.5 303.276 226.5 303C226.5 302.724 226.276 302.5 226 302.5L226 303.5ZM93 303.5L94.0076 303.5L94.0076 302.5L93 302.5L93 303.5ZM96.0227 303.5L98.0379 303.5L98.0379 302.5L96.0227 302.5L96.0227 303.5ZM100.053 303.5L102.068 303.5L102.068 302.5L100.053 302.5L100.053 303.5ZM104.083 303.5L106.098 303.5L106.098 302.5L104.083 302.5L104.083 303.5ZM108.114 303.5L110.129 303.5L110.129 302.5L108.114 302.5L108.114 303.5ZM112.144 303.5L114.159 303.5L114.159 302.5L112.144 302.5L112.144 303.5ZM116.174 303.5L118.189 303.5L118.189 302.5L116.174 302.5L116.174 303.5ZM120.205 303.5L122.22 303.5L122.22 302.5L120.205 302.5L120.205 303.5ZM124.235 303.5L126.25 303.5L126.25 302.5L124.235 302.5L124.235 303.5ZM128.265 303.5L130.28 303.5L130.28 302.5L128.265 302.5L128.265 303.5ZM132.295 303.5L134.311 303.5L134.311 302.5L132.295 302.5L132.295 303.5ZM136.326 303.5L138.341 303.5L138.341 302.5L136.326 302.5L136.326 303.5ZM140.356 303.5L142.371 303.5L142.371 302.5L140.356 302.5L140.356 303.5ZM144.386 303.5L146.402 303.5L146.402 302.5L144.386 302.5L144.386 303.5ZM148.417 303.5L150.432 303.5L150.432 302.5L148.417 302.5L148.417 303.5ZM152.447 303.5L154.462 303.5L154.462 302.5L152.447 302.5L152.447 303.5ZM156.477 303.5L158.492 303.5L158.492 302.5L156.477 302.5L156.477 303.5ZM160.508 303.5L162.523 303.5L162.523 302.5L160.508 302.5L160.508 303.5ZM164.538 303.5L166.553 303.5L166.553 302.5L164.538 302.5L164.538 303.5ZM168.568 303.5L170.583 303.5L170.583 302.5L168.568 302.5L168.568 303.5ZM172.598 303.5L174.614 303.5L174.614 302.5L172.598 302.5L172.598 303.5ZM176.629 303.5L178.644 303.5L178.644 302.5L176.629 302.5L176.629 303.5ZM180.659 303.5L182.674 303.5L182.674 302.5L180.659 302.5L180.659 303.5ZM184.689 303.5L186.705 303.5L186.705 302.5L184.689 302.5L184.689 303.5ZM188.72 303.5L190.735 303.5L190.735 302.5L188.72 302.5L188.72 303.5ZM192.75 303.5L194.765 303.5L194.765 302.5L192.75 302.5L192.75 303.5ZM196.78 303.5L198.795 303.5L198.795 302.5L196.78 302.5L196.78 303.5ZM200.811 303.5L202.826 303.5L202.826 302.5L200.811 302.5L200.811 303.5ZM204.841 303.5L206.856 303.5L206.856 302.5L204.841 302.5L204.841 303.5ZM208.871 303.5L210.886 303.5L210.886 302.5L208.871 302.5L208.871 303.5ZM212.902 303.5L214.917 303.5L214.917 302.5L212.902 302.5L212.902 303.5ZM216.932 303.5L218.947 303.5L218.947 302.5L216.932 302.5L216.932 303.5ZM220.962 303.5L222.977 303.5L222.977 302.5L220.962 302.5L220.962 303.5ZM224.992 303.5L226 303.5L226 302.5L224.992 302.5L224.992 303.5Z" fill="#5A5A5B"/>
<path d="M226 302.5C225.724 302.5 225.5 302.724 225.5 303C225.5 303.276 225.724 303.5 226 303.5L226 302.5ZM241 303L241.5 303C241.5 302.724 241.276 302.5 241 302.5L241 303ZM240.646 404.354C240.842 404.549 241.158 404.549 241.354 404.354L244.536 401.172C244.731 400.976 244.731 400.66 244.536 400.464C244.34 400.269 244.024 400.269 243.828 400.464L241 403.293L238.172 400.464C237.976 400.269 237.66 400.269 237.464 400.464C237.269 400.66 237.269 400.976 237.464 401.172L240.646 404.354ZM226 303.5L241 303.5L241 302.5L226 302.5L226 303.5ZM240.5 303L240.5 404L241.5 404L241.5 303L240.5 303Z" fill="#5A5A5B"/>
<path d="M93 302.5C93.2761 302.5 93.5 302.724 93.5 303C93.5 303.276 93.2761 303.5 93 303.5L93 302.5ZM78 303L77.5 303C77.5 302.724 77.7239 302.5 78 302.5L78 303ZM78.3536 404.354C78.1583 404.549 77.8417 404.549 77.6464 404.354L74.4645 401.172C74.2692 400.976 74.2692 400.66 74.4645 400.464C74.6597 400.269 74.9763 400.269 75.1716 400.464L78 403.293L80.8284 400.464C81.0237 400.269 81.3403 400.269 81.5355 400.464C81.7308 400.66 81.7308 400.976 81.5355 401.172L78.3536 404.354ZM93 303.5L78 303.5L78 302.5L93 302.5L93 303.5ZM78.5 303L78.5 404L77.5 404L77.5 303L78.5 303Z" fill="#5A5A5B"/>
<path d="M109.898 330L111.347 321.273H114.398C115.006 321.273 115.49 321.378 115.851 321.588C116.212 321.795 116.459 322.075 116.593 322.428C116.726 322.777 116.756 323.165 116.682 323.591C116.62 323.966 116.502 324.276 116.328 324.52C116.158 324.764 115.953 324.957 115.715 325.099C115.479 325.241 115.233 325.347 114.978 325.415L114.961 325.5C115.222 325.517 115.473 325.611 115.715 325.781C115.956 325.952 116.142 326.196 116.273 326.514C116.404 326.832 116.432 327.222 116.358 327.682C116.284 328.119 116.118 328.513 115.86 328.862C115.601 329.212 115.24 329.489 114.777 329.693C114.314 329.898 113.739 330 113.051 330H109.898ZM111.108 329.062H113.205C113.895 329.062 114.408 328.929 114.743 328.662C115.081 328.392 115.284 328.065 115.353 327.682C115.398 327.386 115.365 327.114 115.255 326.864C115.147 326.611 114.966 326.409 114.713 326.259C114.463 326.105 114.148 326.028 113.767 326.028H111.62L111.108 329.062ZM111.773 325.108H113.733C114.051 325.108 114.35 325.045 114.628 324.92C114.907 324.795 115.14 324.619 115.327 324.392C115.515 324.165 115.631 323.898 115.676 323.591C115.745 323.207 115.668 322.882 115.446 322.615C115.225 322.345 114.824 322.21 114.245 322.21H112.25L111.773 325.108ZM119.407 323.455L120.532 326.131L122.544 323.455H123.703L121.044 326.727L122.612 330H121.453L120.311 327.46L118.316 330H117.157L119.782 326.727L118.248 323.455H119.407ZM126.479 330.136C125.877 330.136 125.373 329.993 124.966 329.706C124.56 329.419 124.273 329.017 124.105 328.5C123.941 327.983 123.914 327.381 124.025 326.693C124.132 326.023 124.347 325.439 124.668 324.942C124.992 324.442 125.394 324.055 125.874 323.783C126.357 323.507 126.888 323.369 127.468 323.369C128.07 323.369 128.573 323.514 128.976 323.804C129.382 324.091 129.669 324.494 129.837 325.014C130.005 325.531 130.033 326.136 129.922 326.83C129.814 327.494 129.597 328.075 129.27 328.572C128.946 329.067 128.544 329.452 128.064 329.727C127.587 330 127.059 330.136 126.479 330.136ZM126.496 329.233C126.956 329.233 127.355 329.115 127.694 328.879C128.034 328.643 128.31 328.332 128.52 327.946C128.733 327.56 128.877 327.142 128.951 326.693C129.019 326.267 129.016 325.871 128.942 325.504C128.868 325.135 128.711 324.838 128.469 324.614C128.228 324.386 127.888 324.273 127.451 324.273C126.99 324.273 126.588 324.392 126.245 324.631C125.904 324.869 125.628 325.183 125.418 325.572C125.208 325.962 125.067 326.381 124.996 326.83C124.928 327.256 124.929 327.652 125 328.018C125.074 328.382 125.232 328.676 125.473 328.901C125.718 329.122 126.059 329.233 126.496 329.233ZM129.932 331.875L130.409 329.062H130.955C131.108 328.923 131.246 328.773 131.368 328.611C131.493 328.449 131.609 328.257 131.717 328.036C131.825 327.811 131.932 327.538 132.037 327.217C132.142 326.893 132.253 326.503 132.369 326.045L133.017 323.455H137.176L136.256 329.062H137.261L136.784 331.875H135.778L136.085 330H131.244L130.938 331.875H129.932ZM132.097 329.062H135.25L136.017 324.392H133.801L133.358 326.045C133.173 326.73 132.986 327.328 132.795 327.839C132.608 328.351 132.375 328.759 132.097 329.062ZM144.514 330.136C143.912 330.136 143.408 329.993 143.001 329.706C142.595 329.419 142.308 329.017 142.141 328.5C141.976 327.983 141.949 327.381 142.06 326.693C142.168 326.023 142.382 325.439 142.703 324.942C143.027 324.442 143.429 324.055 143.909 323.783C144.392 323.507 144.923 323.369 145.503 323.369C146.105 323.369 146.608 323.514 147.011 323.804C147.418 324.091 147.705 324.494 147.872 325.014C148.04 325.531 148.068 326.136 147.957 326.83C147.849 327.494 147.632 328.075 147.305 328.572C146.982 329.067 146.58 329.452 146.099 329.727C145.622 330 145.094 330.136 144.514 330.136ZM144.531 329.233C144.991 329.233 145.391 329.115 145.729 328.879C146.07 328.643 146.345 328.332 146.555 327.946C146.768 327.56 146.912 327.142 146.986 326.693C147.054 326.267 147.051 325.871 146.977 325.504C146.903 325.135 146.746 324.838 146.504 324.614C146.263 324.386 145.923 324.273 145.486 324.273C145.026 324.273 144.624 324.392 144.28 324.631C143.939 324.869 143.663 325.183 143.453 325.572C143.243 325.962 143.102 326.381 143.031 326.83C142.963 327.256 142.964 327.652 143.036 328.018C143.109 328.382 143.267 328.676 143.509 328.901C143.753 329.122 144.094 329.233 144.531 329.233ZM148.973 330L150.064 323.455H155.211L154.12 330H153.115L154.052 324.392H150.916L149.978 330H148.973ZM158.684 330.136C158.056 330.136 157.538 329.997 157.129 329.719C156.72 329.438 156.434 329.045 156.272 328.543C156.11 328.037 156.085 327.449 156.196 326.778C156.306 326.108 156.527 325.517 156.856 325.006C157.186 324.491 157.596 324.091 158.088 323.804C158.579 323.514 159.119 323.369 159.707 323.369C160.048 323.369 160.376 323.426 160.691 323.54C161.007 323.653 161.279 323.838 161.51 324.094C161.74 324.347 161.9 324.682 161.991 325.099C162.082 325.517 162.076 326.031 161.974 326.642L161.906 327.068H156.86L156.997 326.199H161.02C161.085 325.83 161.068 325.5 160.968 325.21C160.872 324.92 160.703 324.692 160.461 324.524C160.223 324.357 159.92 324.273 159.554 324.273C159.176 324.273 158.824 324.375 158.497 324.58C158.17 324.781 157.897 325.037 157.679 325.347C157.46 325.653 157.324 325.966 157.27 326.284L157.15 327.034C157.065 327.577 157.078 328.009 157.189 328.33C157.302 328.651 157.5 328.882 157.781 329.024C158.062 329.163 158.414 329.233 158.838 329.233C159.108 329.233 159.356 329.196 159.583 329.122C159.811 329.045 160.014 328.932 160.193 328.781C160.372 328.628 160.522 328.437 160.645 328.21L161.565 328.483C161.409 328.812 161.189 329.102 160.904 329.352C160.623 329.599 160.294 329.793 159.916 329.932C159.541 330.068 159.13 330.136 158.684 330.136ZM162.556 332.455L164.064 323.455H165.036L164.865 324.494H164.985C165.076 324.381 165.201 324.236 165.36 324.06C165.522 323.881 165.739 323.722 166.012 323.582C166.287 323.44 166.638 323.369 167.064 323.369C167.615 323.369 168.077 323.507 168.449 323.783C168.821 324.058 169.084 324.449 169.238 324.955C169.391 325.46 169.411 326.057 169.297 326.744C169.184 327.438 168.966 328.038 168.645 328.547C168.324 329.053 167.932 329.445 167.469 329.723C167.006 329.999 166.502 330.136 165.956 330.136C165.536 330.136 165.211 330.067 164.98 329.928C164.75 329.786 164.583 329.625 164.478 329.446C164.373 329.264 164.292 329.114 164.235 328.994H164.15L163.57 332.455H162.556ZM164.507 326.727C164.428 327.222 164.428 327.658 164.507 328.036C164.59 328.411 164.753 328.705 164.998 328.918C165.245 329.128 165.57 329.233 165.973 329.233C166.394 329.233 166.762 329.122 167.077 328.901C167.395 328.676 167.657 328.375 167.861 327.997C168.069 327.616 168.212 327.193 168.292 326.727C168.365 326.267 168.363 325.852 168.283 325.483C168.203 325.111 168.042 324.817 167.797 324.601C167.553 324.382 167.218 324.273 166.792 324.273C166.382 324.273 166.02 324.376 165.705 324.584C165.392 324.788 165.134 325.075 164.929 325.445C164.728 325.811 164.587 326.239 164.507 326.727ZM172.198 330.153C171.783 330.153 171.42 330.075 171.107 329.919C170.795 329.76 170.563 329.531 170.413 329.233C170.262 328.932 170.221 328.568 170.289 328.142C170.354 327.767 170.481 327.463 170.668 327.23C170.856 326.994 171.083 326.81 171.35 326.676C171.62 326.54 171.91 326.439 172.219 326.374C172.532 326.305 172.843 326.253 173.153 326.216C173.556 326.165 173.884 326.125 174.137 326.097C174.39 326.068 174.58 326.021 174.708 325.956C174.836 325.891 174.914 325.778 174.942 325.619V325.585C175.011 325.168 174.955 324.842 174.776 324.609C174.597 324.374 174.278 324.256 173.817 324.256C173.34 324.256 172.941 324.361 172.62 324.571C172.299 324.781 172.062 325.006 171.908 325.244L171.022 324.903C171.255 324.506 171.533 324.196 171.857 323.974C172.181 323.75 172.521 323.594 172.876 323.506C173.231 323.415 173.573 323.369 173.903 323.369C174.113 323.369 174.35 323.395 174.614 323.446C174.879 323.494 175.126 323.595 175.356 323.749C175.589 323.902 175.763 324.134 175.88 324.443C175.999 324.753 176.016 325.168 175.931 325.688L175.215 330H174.21L174.363 329.114H174.312C174.221 329.256 174.082 329.408 173.894 329.57C173.71 329.732 173.475 329.869 173.191 329.983C172.91 330.097 172.579 330.153 172.198 330.153ZM172.488 329.25C172.886 329.25 173.234 329.172 173.532 329.016C173.833 328.859 174.075 328.658 174.256 328.411C174.441 328.163 174.556 327.903 174.602 327.631L174.755 326.71C174.704 326.761 174.603 326.808 174.452 326.851C174.302 326.891 174.131 326.926 173.941 326.957C173.754 326.986 173.57 327.011 173.391 327.034C173.215 327.054 173.073 327.071 172.965 327.085C172.698 327.119 172.444 327.175 172.202 327.251C171.964 327.325 171.762 327.437 171.597 327.588C171.435 327.736 171.335 327.937 171.295 328.193C171.235 328.543 171.319 328.807 171.546 328.986C171.773 329.162 172.087 329.25 172.488 329.25ZM177.098 324.392L177.251 323.455H182.569L182.416 324.392H180.268L179.348 330H178.342L179.262 324.392H177.098ZM185.307 330.136C184.705 330.136 184.201 329.993 183.794 329.706C183.388 329.419 183.101 329.017 182.934 328.5C182.769 327.983 182.742 327.381 182.853 326.693C182.961 326.023 183.175 325.439 183.496 324.942C183.82 324.442 184.222 324.055 184.702 323.783C185.185 323.507 185.716 323.369 186.296 323.369C186.898 323.369 187.401 323.514 187.804 323.804C188.211 324.091 188.498 324.494 188.665 325.014C188.833 325.531 188.861 326.136 188.75 326.83C188.642 327.494 188.425 328.075 188.098 328.572C187.775 329.067 187.373 329.452 186.892 329.727C186.415 330 185.887 330.136 185.307 330.136ZM185.324 329.233C185.784 329.233 186.184 329.115 186.522 328.879C186.863 328.643 187.138 328.332 187.348 327.946C187.561 327.56 187.705 327.142 187.779 326.693C187.847 326.267 187.844 325.871 187.77 325.504C187.696 325.135 187.539 324.838 187.297 324.614C187.056 324.386 186.716 324.273 186.279 324.273C185.819 324.273 185.417 324.392 185.073 324.631C184.732 324.869 184.456 325.183 184.246 325.572C184.036 325.962 183.895 326.381 183.824 326.83C183.756 327.256 183.757 327.652 183.828 328.018C183.902 328.382 184.06 328.676 184.301 328.901C184.546 329.122 184.887 329.233 185.324 329.233ZM189.357 332.455L190.865 323.455H191.837L191.666 324.494H191.786C191.876 324.381 192.001 324.236 192.161 324.06C192.322 323.881 192.54 323.722 192.812 323.582C193.088 323.44 193.439 323.369 193.865 323.369C194.416 323.369 194.878 323.507 195.25 323.783C195.622 324.058 195.885 324.449 196.038 324.955C196.192 325.46 196.212 326.057 196.098 326.744C195.984 327.438 195.767 328.038 195.446 328.547C195.125 329.053 194.733 329.445 194.27 329.723C193.807 329.999 193.303 330.136 192.757 330.136C192.337 330.136 192.011 330.067 191.781 329.928C191.551 329.786 191.384 329.625 191.278 329.446C191.173 329.264 191.092 329.114 191.036 328.994H190.95L190.371 332.455H189.357ZM191.308 326.727C191.229 327.222 191.229 327.658 191.308 328.036C191.391 328.411 191.554 328.705 191.798 328.918C192.045 329.128 192.371 329.233 192.774 329.233C193.195 329.233 193.563 329.122 193.878 328.901C194.196 328.676 194.457 328.375 194.662 327.997C194.869 327.616 195.013 327.193 195.092 326.727C195.166 326.267 195.163 325.852 195.084 325.483C195.004 325.111 194.842 324.817 194.598 324.601C194.354 324.382 194.018 324.273 193.592 324.273C193.183 324.273 192.821 324.376 192.506 324.584C192.193 324.788 191.935 325.075 191.73 325.445C191.528 325.811 191.388 326.239 191.308 326.727ZM199.792 330.136C199.189 330.136 198.685 329.993 198.279 329.706C197.873 329.419 197.586 329.017 197.418 328.5C197.253 327.983 197.226 327.381 197.337 326.693C197.445 326.023 197.659 325.439 197.98 324.942C198.304 324.442 198.706 324.055 199.186 323.783C199.669 323.507 200.201 323.369 200.78 323.369C201.382 323.369 201.885 323.514 202.289 323.804C202.695 324.091 202.982 324.494 203.15 325.014C203.317 325.531 203.346 326.136 203.235 326.83C203.127 327.494 202.909 328.075 202.583 328.572C202.259 329.067 201.857 329.452 201.377 329.727C200.9 330 200.371 330.136 199.792 330.136ZM199.809 329.233C200.269 329.233 200.668 329.115 201.006 328.879C201.347 328.643 201.623 328.332 201.833 327.946C202.046 327.56 202.189 327.142 202.263 326.693C202.331 326.267 202.328 325.871 202.255 325.504C202.181 325.135 202.023 324.838 201.782 324.614C201.54 324.386 201.201 324.273 200.763 324.273C200.303 324.273 199.901 324.392 199.557 324.631C199.216 324.869 198.941 325.183 198.73 325.572C198.52 325.962 198.38 326.381 198.309 326.83C198.24 327.256 198.242 327.652 198.313 328.018C198.387 328.382 198.544 328.676 198.786 328.901C199.03 329.122 199.371 329.233 199.809 329.233ZM204.25 330L205.341 323.455H208.017C208.716 323.455 209.247 323.615 209.611 323.936C209.974 324.254 210.114 324.673 210.028 325.193C209.96 325.594 209.79 325.902 209.517 326.118C209.244 326.334 208.92 326.48 208.545 326.557C208.778 326.591 208.997 326.676 209.202 326.812C209.409 326.949 209.567 327.136 209.675 327.375C209.786 327.614 209.813 327.903 209.756 328.244C209.699 328.58 209.563 328.879 209.347 329.143C209.134 329.408 208.855 329.616 208.511 329.77C208.17 329.923 207.778 330 207.335 330H204.25ZM205.358 329.08H207.489C207.838 329.08 208.125 328.997 208.349 328.832C208.574 328.665 208.707 328.44 208.75 328.159C208.81 327.818 208.756 327.551 208.588 327.358C208.423 327.165 208.17 327.068 207.83 327.068H205.699L205.358 329.08ZM205.835 326.199H207.557C207.824 326.199 208.061 326.162 208.268 326.088C208.476 326.011 208.643 325.903 208.771 325.764C208.899 325.622 208.977 325.455 209.006 325.261C209.057 324.989 208.979 324.773 208.771 324.614C208.567 324.455 208.264 324.375 207.864 324.375H206.142L205.835 326.199ZM112.483 342.267L112.329 343.205H108.716L108.869 342.267H112.483ZM109.585 339.455L108.494 346H107.488L108.579 339.455H109.585ZM113.727 339.455L112.636 346H111.63L112.721 339.455H113.727ZM116.382 346.153C115.967 346.153 115.603 346.075 115.291 345.919C114.978 345.76 114.747 345.531 114.596 345.233C114.446 344.932 114.404 344.568 114.473 344.142C114.538 343.767 114.664 343.463 114.852 343.23C115.039 342.994 115.267 342.81 115.534 342.676C115.804 342.54 116.093 342.439 116.403 342.374C116.716 342.305 117.027 342.253 117.336 342.216C117.74 342.165 118.068 342.125 118.321 342.097C118.574 342.068 118.764 342.021 118.892 341.956C119.02 341.891 119.098 341.778 119.126 341.619V341.585C119.194 341.168 119.139 340.842 118.96 340.609C118.781 340.374 118.461 340.256 118.001 340.256C117.524 340.256 117.125 340.361 116.804 340.571C116.483 340.781 116.245 341.006 116.092 341.244L115.206 340.903C115.439 340.506 115.717 340.196 116.041 339.974C116.365 339.75 116.704 339.594 117.059 339.506C117.414 339.415 117.757 339.369 118.086 339.369C118.297 339.369 118.534 339.395 118.798 339.446C119.062 339.494 119.309 339.595 119.539 339.749C119.772 339.902 119.947 340.134 120.064 340.443C120.183 340.753 120.2 341.168 120.115 341.688L119.399 346H118.393L118.547 345.114H118.495C118.404 345.256 118.265 345.408 118.078 345.57C117.893 345.732 117.659 345.869 117.375 345.983C117.093 346.097 116.762 346.153 116.382 346.153ZM116.672 345.25C117.069 345.25 117.417 345.172 117.716 345.016C118.017 344.859 118.258 344.658 118.44 344.411C118.625 344.163 118.74 343.903 118.785 343.631L118.939 342.71C118.887 342.761 118.787 342.808 118.636 342.851C118.485 342.891 118.315 342.926 118.125 342.957C117.937 342.986 117.754 343.011 117.575 343.034C117.399 343.054 117.257 343.071 117.149 343.085C116.882 343.119 116.627 343.175 116.386 343.251C116.147 343.325 115.946 343.437 115.781 343.588C115.619 343.736 115.518 343.937 115.478 344.193C115.419 344.543 115.502 344.807 115.73 344.986C115.957 345.162 116.271 345.25 116.672 345.25ZM124.03 346L124.183 345.062H124.422C124.618 345.062 124.787 345.024 124.929 344.947C125.074 344.868 125.203 344.73 125.317 344.534C125.433 344.335 125.543 344.06 125.645 343.707C125.75 343.352 125.859 342.901 125.973 342.352L126.57 339.455H130.933L129.842 346H128.837L129.774 340.392H127.371L126.876 342.727C126.766 343.264 126.639 343.737 126.497 344.146C126.358 344.553 126.192 344.893 125.999 345.169C125.808 345.445 125.58 345.652 125.312 345.791C125.048 345.93 124.734 346 124.371 346H124.03ZM132.949 344.517L136.938 339.455H138.097L137.006 346H136L136.835 340.938L132.864 346H131.688L132.778 339.455H133.784L132.949 344.517ZM143.842 342.267L143.689 343.205H140.075L140.228 342.267H143.842ZM140.944 339.455L139.853 346H138.848L139.939 339.455H140.944ZM145.086 339.455L143.995 346H142.99L144.081 339.455H145.086ZM147.093 344.517L151.082 339.455H152.241L151.15 346H150.145L150.98 340.938L147.008 346H145.832L146.923 339.455H147.929L147.093 344.517ZM156.742 342.318L156.589 343.256H153.129L153.282 342.318H156.742ZM154.612 339.455L153.521 346H152.515L153.606 339.455H154.612ZM158.123 346.136C157.532 346.136 157.036 345.996 156.636 345.714C156.238 345.433 155.957 345.04 155.792 344.534C155.63 344.028 155.606 343.437 155.719 342.761C155.833 342.08 156.056 341.484 156.388 340.976C156.721 340.467 157.133 340.072 157.624 339.791C158.116 339.51 158.657 339.369 159.248 339.369C159.839 339.369 160.333 339.51 160.731 339.791C161.131 340.072 161.413 340.467 161.575 340.976C161.739 341.484 161.765 342.08 161.651 342.761C161.538 343.437 161.315 344.028 160.982 344.534C160.65 345.04 160.238 345.433 159.746 345.714C159.255 345.996 158.714 346.136 158.123 346.136ZM158.276 345.233C158.725 345.233 159.113 345.118 159.44 344.888C159.766 344.658 160.031 344.355 160.232 343.98C160.434 343.605 160.572 343.199 160.646 342.761C160.714 342.324 160.71 341.916 160.633 341.538C160.556 341.161 160.393 340.855 160.143 340.622C159.893 340.389 159.543 340.273 159.094 340.273C158.646 340.273 158.256 340.389 157.927 340.622C157.597 340.855 157.332 341.161 157.13 341.538C156.928 341.916 156.793 342.324 156.725 342.761C156.651 343.199 156.653 343.605 156.729 343.98C156.809 344.355 156.974 344.658 157.224 344.888C157.477 345.118 157.827 345.233 158.276 345.233ZM167.379 344.517L171.367 339.455H172.526L171.435 346H170.43L171.265 340.938L167.293 346H166.117L167.208 339.455H168.214L167.379 344.517ZM176.652 346L177.743 339.455H180.419C181.118 339.455 181.65 339.615 182.013 339.936C182.377 340.254 182.516 340.673 182.431 341.193C182.363 341.594 182.192 341.902 181.919 342.118C181.647 342.334 181.323 342.48 180.948 342.557C181.181 342.591 181.4 342.676 181.604 342.812C181.811 342.949 181.969 343.136 182.077 343.375C182.188 343.614 182.215 343.903 182.158 344.244C182.101 344.58 181.965 344.879 181.749 345.143C181.536 345.408 181.257 345.616 180.914 345.77C180.573 345.923 180.181 346 179.738 346H176.652ZM177.76 345.08H179.891C180.24 345.08 180.527 344.997 180.752 344.832C180.976 344.665 181.11 344.44 181.152 344.159C181.212 343.818 181.158 343.551 180.99 343.358C180.826 343.165 180.573 343.068 180.232 343.068H178.101L177.76 345.08ZM178.238 342.199H179.959C180.226 342.199 180.463 342.162 180.671 342.088C180.878 342.011 181.046 341.903 181.174 341.764C181.301 341.622 181.38 341.455 181.408 341.261C181.459 340.989 181.381 340.773 181.174 340.614C180.969 340.455 180.667 340.375 180.266 340.375H178.544L178.238 342.199ZM184.959 341.824H186.834C187.601 341.824 188.153 342.018 188.491 342.408C188.832 342.797 188.956 343.29 188.862 343.886C188.794 344.278 188.642 344.635 188.406 344.956C188.17 345.274 187.861 345.528 187.477 345.719C187.094 345.906 186.646 346 186.135 346H183.391L184.482 339.455H185.487L184.55 345.062H186.288C186.689 345.062 187.034 344.959 187.324 344.751C187.616 344.541 187.788 344.27 187.839 343.938C187.899 343.588 187.818 343.305 187.597 343.089C187.378 342.871 187.072 342.761 186.68 342.761H184.805L184.959 341.824ZM189.544 346L190.635 339.455H191.641L190.55 346H189.544ZM194.232 339.455L195.357 342.131L197.368 339.455H198.527L195.868 342.727L197.436 346H196.277L195.135 343.46L193.141 346H191.982L194.607 342.727L193.072 339.455H194.232ZM201.303 346.136C200.701 346.136 200.197 345.993 199.79 345.706C199.384 345.419 199.097 345.017 198.93 344.5C198.765 343.983 198.738 343.381 198.849 342.693C198.957 342.023 199.171 341.439 199.492 340.942C199.816 340.442 200.218 340.055 200.698 339.783C201.181 339.507 201.712 339.369 202.292 339.369C202.894 339.369 203.397 339.514 203.8 339.804C204.207 340.091 204.494 340.494 204.661 341.014C204.829 341.531 204.857 342.136 204.746 342.83C204.638 343.494 204.421 344.075 204.094 344.572C203.771 345.067 203.369 345.452 202.888 345.727C202.411 346 201.883 346.136 201.303 346.136ZM201.32 345.233C201.781 345.233 202.18 345.115 202.518 344.879C202.859 344.643 203.134 344.332 203.344 343.946C203.558 343.56 203.701 343.142 203.775 342.693C203.843 342.267 203.84 341.871 203.766 341.504C203.692 341.135 203.535 340.838 203.293 340.614C203.052 340.386 202.712 340.273 202.275 340.273C201.815 340.273 201.413 340.392 201.069 340.631C200.728 340.869 200.452 341.183 200.242 341.572C200.032 341.962 199.891 342.381 199.82 342.83C199.752 343.256 199.754 343.652 199.825 344.018C199.898 344.382 200.056 344.676 200.298 344.901C200.542 345.122 200.883 345.233 201.32 345.233ZM204.756 347.875L205.233 345.062H205.779C205.932 344.923 206.07 344.773 206.192 344.611C206.317 344.449 206.434 344.257 206.542 344.036C206.65 343.811 206.756 343.538 206.861 343.217C206.966 342.893 207.077 342.503 207.194 342.045L207.841 339.455H212L211.08 345.062H212.086L211.608 347.875H210.603L210.909 346H206.069L205.762 347.875H204.756ZM206.921 345.062H210.074L210.841 340.392H208.625L208.182 342.045C207.998 342.73 207.81 343.328 207.62 343.839C207.432 344.351 207.199 344.759 206.921 345.062ZM142.904 361.517L146.893 356.455H148.052L146.961 363H145.955L146.79 357.938L142.819 363H141.643L142.733 356.455H143.739L142.904 361.517ZM148.675 361.33H149.749C149.72 361.625 149.816 361.849 150.034 362.003C150.256 362.156 150.564 362.233 150.959 362.233C151.362 362.233 151.72 362.151 152.033 361.986C152.348 361.818 152.536 361.548 152.595 361.176C152.632 360.957 152.611 360.767 152.531 360.605C152.452 360.44 152.321 360.312 152.139 360.222C151.96 360.131 151.737 360.085 151.47 360.085H150.345L150.499 359.182H151.624C152.021 359.182 152.331 359.091 152.553 358.909C152.774 358.727 152.908 358.5 152.953 358.227C153.002 357.935 152.936 357.7 152.757 357.524C152.578 357.345 152.297 357.256 151.914 357.256C151.533 357.256 151.2 357.342 150.916 357.516C150.632 357.686 150.459 357.906 150.396 358.176H149.34C149.411 357.824 149.571 357.513 149.821 357.243C150.071 356.97 150.385 356.757 150.763 356.604C151.144 356.447 151.561 356.369 152.016 356.369C152.476 356.369 152.862 356.45 153.175 356.612C153.487 356.771 153.713 356.989 153.852 357.264C153.994 357.537 154.036 357.847 153.976 358.193C153.916 358.562 153.763 358.861 153.516 359.088C153.271 359.315 152.987 359.477 152.664 359.574L152.646 359.642C152.891 359.659 153.093 359.739 153.252 359.881C153.414 360.02 153.526 360.203 153.588 360.43C153.654 360.655 153.664 360.903 153.618 361.176C153.553 361.574 153.389 361.92 153.128 362.216C152.867 362.509 152.537 362.736 152.139 362.898C151.742 363.057 151.303 363.136 150.823 363.136C150.36 363.136 149.958 363.061 149.617 362.911C149.279 362.757 149.024 362.545 148.854 362.276C148.686 362.003 148.627 361.688 148.675 361.33ZM163.102 359.267L162.948 360.205H159.335L159.488 359.267H163.102ZM160.204 356.455L159.113 363H158.107L159.198 356.455H160.204ZM164.346 356.455L163.255 363H162.249L163.34 356.455H164.346ZM167.819 363.136C167.191 363.136 166.673 362.997 166.264 362.719C165.855 362.438 165.569 362.045 165.407 361.543C165.245 361.037 165.22 360.449 165.33 359.778C165.441 359.108 165.661 358.517 165.991 358.006C166.32 357.491 166.731 357.091 167.222 356.804C167.714 356.514 168.254 356.369 168.842 356.369C169.183 356.369 169.511 356.426 169.826 356.54C170.142 356.653 170.414 356.838 170.644 357.094C170.874 357.347 171.035 357.682 171.126 358.099C171.217 358.517 171.211 359.031 171.109 359.642L171.041 360.068H165.995L166.132 359.199H170.154C170.22 358.83 170.203 358.5 170.103 358.21C170.007 357.92 169.838 357.692 169.596 357.524C169.357 357.357 169.055 357.273 168.688 357.273C168.311 357.273 167.958 357.375 167.632 357.58C167.305 357.781 167.032 358.037 166.813 358.347C166.595 358.653 166.458 358.966 166.404 359.284L166.285 360.034C166.2 360.577 166.213 361.009 166.323 361.33C166.437 361.651 166.634 361.882 166.916 362.024C167.197 362.163 167.549 362.233 167.972 362.233C168.242 362.233 168.491 362.196 168.718 362.122C168.945 362.045 169.149 361.932 169.328 361.781C169.507 361.628 169.657 361.437 169.779 361.21L170.7 361.483C170.544 361.812 170.323 362.102 170.039 362.352C169.758 362.599 169.428 362.793 169.051 362.932C168.676 363.068 168.265 363.136 167.819 363.136ZM174.827 363.136C174.199 363.136 173.681 362.997 173.271 362.719C172.862 362.438 172.577 362.045 172.415 361.543C172.253 361.037 172.227 360.449 172.338 359.778C172.449 359.108 172.669 358.517 172.999 358.006C173.328 357.491 173.739 357.091 174.23 356.804C174.722 356.514 175.262 356.369 175.85 356.369C176.191 356.369 176.519 356.426 176.834 356.54C177.149 356.653 177.422 356.838 177.652 357.094C177.882 357.347 178.043 357.682 178.134 358.099C178.225 358.517 178.219 359.031 178.117 359.642L178.048 360.068H173.003L173.139 359.199H177.162C177.227 358.83 177.21 358.5 177.111 358.21C177.014 357.92 176.845 357.692 176.604 357.524C176.365 357.357 176.063 357.273 175.696 357.273C175.318 357.273 174.966 357.375 174.639 357.58C174.313 357.781 174.04 358.037 173.821 358.347C173.602 358.653 173.466 358.966 173.412 359.284L173.293 360.034C173.208 360.577 173.22 361.009 173.331 361.33C173.445 361.651 173.642 361.882 173.923 362.024C174.205 362.163 174.557 362.233 174.98 362.233C175.25 362.233 175.499 362.196 175.726 362.122C175.953 362.045 176.156 361.932 176.335 361.781C176.514 361.628 176.665 361.437 176.787 361.21L177.708 361.483C177.551 361.812 177.331 362.102 177.047 362.352C176.766 362.599 176.436 362.793 176.058 362.932C175.683 363.068 175.273 363.136 174.827 363.136ZM174.784 355.364C174.597 355.364 174.441 355.288 174.316 355.138C174.191 354.984 174.142 354.81 174.171 354.614C174.196 354.435 174.281 354.288 174.426 354.175C174.571 354.058 174.725 354 174.887 354C175.1 354 175.266 354.072 175.385 354.217C175.507 354.359 175.551 354.537 175.517 354.75C175.492 354.912 175.409 355.055 175.27 355.18C175.134 355.303 174.972 355.364 174.784 355.364ZM177.239 355.364C177.051 355.364 176.894 355.29 176.766 355.142C176.638 354.994 176.591 354.818 176.625 354.614C176.656 354.435 176.743 354.288 176.885 354.175C177.027 354.058 177.179 354 177.341 354C177.554 354 177.72 354.072 177.84 354.217C177.962 354.359 178.006 354.537 177.972 354.75C177.946 354.912 177.864 355.055 177.725 355.18C177.588 355.303 177.426 355.364 177.239 355.364Z" fill="#AEAEAE"/>
<path d="M137.902 243.149C137.135 243.149 136.453 243.018 135.857 242.755C135.264 242.492 134.795 242.126 134.45 241.658C134.106 241.189 133.923 240.647 133.902 240.033H135.905C135.922 240.328 136.02 240.585 136.198 240.805C136.375 241.022 136.611 241.191 136.906 241.311C137.201 241.432 137.531 241.493 137.897 241.493C138.287 241.493 138.634 241.425 138.936 241.29C139.237 241.152 139.474 240.96 139.644 240.715C139.814 240.47 139.898 240.187 139.894 239.868C139.898 239.538 139.813 239.246 139.639 238.994C139.465 238.742 139.213 238.545 138.882 238.403C138.556 238.261 138.161 238.19 137.7 238.19H136.736V236.667H137.7C138.08 236.667 138.412 236.601 138.696 236.469C138.983 236.338 139.209 236.153 139.372 235.915C139.536 235.674 139.616 235.395 139.612 235.079C139.616 234.77 139.546 234.502 139.404 234.275C139.266 234.044 139.069 233.865 138.813 233.737C138.561 233.609 138.264 233.545 137.923 233.545C137.59 233.545 137.281 233.605 136.997 233.726C136.713 233.847 136.483 234.019 136.309 234.243C136.135 234.463 136.043 234.726 136.032 235.031H134.131C134.145 234.42 134.321 233.884 134.658 233.423C134.999 232.957 135.454 232.595 136.022 232.336C136.59 232.073 137.227 231.942 137.934 231.942C138.662 231.942 139.294 232.078 139.83 232.352C140.37 232.622 140.787 232.986 141.082 233.444C141.377 233.902 141.524 234.408 141.524 234.962C141.528 235.576 141.347 236.091 140.981 236.507C140.619 236.922 140.143 237.194 139.553 237.322V237.407C140.32 237.513 140.908 237.798 141.317 238.259C141.729 238.717 141.933 239.287 141.929 239.969C141.929 240.58 141.755 241.127 141.407 241.61C141.063 242.089 140.587 242.466 139.98 242.739C139.376 243.012 138.683 243.149 137.902 243.149ZM143.779 243V234.818H147.215C148.184 234.818 148.949 235.012 149.51 235.399C150.075 235.786 150.357 236.326 150.357 237.018C150.357 237.476 150.198 237.851 149.878 238.142C149.562 238.43 149.13 238.623 148.584 238.723C149.013 238.758 149.39 238.866 149.713 239.048C150.04 239.229 150.295 239.467 150.48 239.761C150.665 240.056 150.757 240.395 150.757 240.779C150.757 241.23 150.638 241.622 150.4 241.956C150.166 242.286 149.823 242.544 149.372 242.728C148.924 242.909 148.381 243 147.742 243H143.779ZM145.585 241.482H147.742C148.097 241.482 148.376 241.398 148.578 241.232C148.781 241.061 148.882 240.83 148.882 240.539C148.882 240.202 148.781 239.937 148.578 239.745C148.376 239.55 148.097 239.452 147.742 239.452H145.585V241.482ZM145.585 238.206H147.252C147.515 238.206 147.74 238.169 147.928 238.094C148.117 238.016 148.26 237.908 148.36 237.769C148.459 237.627 148.509 237.458 148.509 237.263C148.509 236.983 148.394 236.762 148.163 236.603C147.935 236.443 147.619 236.363 147.215 236.363H145.585V238.206ZM155.917 243.16C155.118 243.16 154.426 242.984 153.84 242.632C153.254 242.281 152.799 241.789 152.476 241.157C152.156 240.525 151.997 239.786 151.997 238.941C151.997 238.096 152.156 237.355 152.476 236.72C152.799 236.084 153.254 235.591 153.84 235.239C154.426 234.887 155.118 234.712 155.917 234.712C156.716 234.712 157.409 234.887 157.994 235.239C158.58 235.591 159.033 236.084 159.353 236.72C159.676 237.355 159.838 238.096 159.838 238.941C159.838 239.786 159.676 240.525 159.353 241.157C159.033 241.789 158.58 242.281 157.994 242.632C157.409 242.984 156.716 243.16 155.917 243.16ZM155.928 241.615C156.361 241.615 156.723 241.496 157.014 241.258C157.306 241.017 157.522 240.694 157.664 240.289C157.81 239.884 157.883 239.433 157.883 238.936C157.883 238.435 157.81 237.982 157.664 237.577C157.522 237.169 157.306 236.844 157.014 236.603C156.723 236.361 156.361 236.24 155.928 236.24C155.484 236.24 155.115 236.361 154.82 236.603C154.529 236.844 154.31 237.169 154.165 237.577C154.023 237.982 153.952 238.435 153.952 238.936C153.952 239.433 154.023 239.884 154.165 240.289C154.31 240.694 154.529 241.017 154.82 241.258C155.115 241.496 155.484 241.615 155.928 241.615ZM167.094 238.11V239.692H162.737V238.11H167.094ZM163.333 234.818V243H161.474V234.818H163.333ZM168.356 234.818V243H166.503V234.818H168.356ZM173.876 243.16C173.077 243.16 172.385 242.984 171.799 242.632C171.213 242.281 170.758 241.789 170.435 241.157C170.115 240.525 169.956 239.786 169.956 238.941C169.956 238.096 170.115 237.355 170.435 236.72C170.758 236.084 171.213 235.591 171.799 235.239C172.385 234.887 173.077 234.712 173.876 234.712C174.675 234.712 175.368 234.887 175.953 235.239C176.539 235.591 176.992 236.084 177.312 236.72C177.635 237.355 177.797 238.096 177.797 238.941C177.797 239.786 177.635 240.525 177.312 241.157C176.992 241.789 176.539 242.281 175.953 242.632C175.368 242.984 174.675 243.16 173.876 243.16ZM173.887 241.615C174.32 241.615 174.682 241.496 174.973 241.258C175.265 241.017 175.481 240.694 175.623 240.289C175.769 239.884 175.842 239.433 175.842 238.936C175.842 238.435 175.769 237.982 175.623 237.577C175.481 237.169 175.265 236.844 174.973 236.603C174.682 236.361 174.32 236.24 173.887 236.24C173.443 236.24 173.074 236.361 172.779 236.603C172.488 236.844 172.269 237.169 172.124 237.577C171.982 237.982 171.911 238.435 171.911 238.936C171.911 239.433 171.982 239.884 172.124 240.289C172.269 240.694 172.488 241.017 172.779 241.258C173.074 241.496 173.443 241.615 173.887 241.615ZM179.433 243V234.818H181.361V238.121H182.065L184.525 234.818H186.848L183.817 238.835L186.88 243H184.547L182.304 239.916H181.361V243H179.433Z" fill="#F4774C"/>
<path d="M124.713 257.273L123.264 266H122.208L123.503 258.21H119.105L117.81 266H116.753L118.202 257.273H124.713ZM124.851 268.455L126.359 259.455H127.331L127.16 260.494H127.28C127.371 260.381 127.496 260.236 127.655 260.06C127.817 259.881 128.034 259.722 128.307 259.582C128.582 259.44 128.933 259.369 129.359 259.369C129.91 259.369 130.372 259.507 130.744 259.783C131.116 260.058 131.379 260.449 131.532 260.955C131.686 261.46 131.706 262.057 131.592 262.744C131.479 263.438 131.261 264.038 130.94 264.547C130.619 265.053 130.227 265.445 129.764 265.723C129.301 265.999 128.797 266.136 128.251 266.136C127.831 266.136 127.506 266.067 127.275 265.928C127.045 265.786 126.878 265.625 126.773 265.446C126.667 265.264 126.586 265.114 126.53 264.994H126.444L125.865 268.455H124.851ZM126.802 262.727C126.723 263.222 126.723 263.658 126.802 264.036C126.885 264.411 127.048 264.705 127.292 264.918C127.54 265.128 127.865 265.233 128.268 265.233C128.689 265.233 129.057 265.122 129.372 264.901C129.69 264.676 129.952 264.375 130.156 263.997C130.363 263.616 130.507 263.193 130.586 262.727C130.66 262.267 130.657 261.852 130.578 261.483C130.498 261.111 130.336 260.817 130.092 260.601C129.848 260.382 129.513 260.273 129.086 260.273C128.677 260.273 128.315 260.376 128 260.584C127.687 260.788 127.429 261.075 127.224 261.445C127.023 261.811 126.882 262.239 126.802 262.727ZM135.311 266.136C134.683 266.136 134.165 265.997 133.756 265.719C133.347 265.438 133.061 265.045 132.899 264.543C132.737 264.037 132.712 263.449 132.823 262.778C132.933 262.108 133.154 261.517 133.483 261.006C133.813 260.491 134.223 260.091 134.715 259.804C135.206 259.514 135.746 259.369 136.334 259.369C136.675 259.369 137.003 259.426 137.318 259.54C137.634 259.653 137.906 259.838 138.137 260.094C138.367 260.347 138.527 260.682 138.618 261.099C138.709 261.517 138.703 262.031 138.601 262.642L138.533 263.068H133.487L133.624 262.199H137.646C137.712 261.83 137.695 261.5 137.595 261.21C137.499 260.92 137.33 260.692 137.088 260.524C136.85 260.357 136.547 260.273 136.181 260.273C135.803 260.273 135.45 260.375 135.124 260.58C134.797 260.781 134.524 261.037 134.306 261.347C134.087 261.653 133.95 261.966 133.896 262.284L133.777 263.034C133.692 263.577 133.705 264.009 133.816 264.33C133.929 264.651 134.127 264.882 134.408 265.024C134.689 265.163 135.041 265.233 135.465 265.233C135.735 265.233 135.983 265.196 136.21 265.122C136.438 265.045 136.641 264.932 136.82 264.781C136.999 264.628 137.149 264.437 137.271 264.21L138.192 264.483C138.036 264.812 137.816 265.102 137.531 265.352C137.25 265.599 136.921 265.793 136.543 265.932C136.168 266.068 135.757 266.136 135.311 266.136ZM138.586 267.875L139.063 265.062H139.609C139.762 264.923 139.9 264.773 140.022 264.611C140.147 264.449 140.264 264.257 140.372 264.036C140.48 263.811 140.586 263.538 140.691 263.217C140.796 262.893 140.907 262.503 141.024 262.045L141.671 259.455H145.83L144.91 265.062H145.916L145.438 267.875H144.433L144.74 266H139.899L139.592 267.875H138.586ZM140.751 265.062H143.904L144.671 260.392H142.455L142.012 262.045C141.828 262.73 141.64 263.328 141.45 263.839C141.262 264.351 141.029 264.759 140.751 265.062ZM148.353 264.517L152.342 259.455H153.501L152.41 266H151.404L152.24 260.938L148.268 266H147.092L148.183 259.455H149.188L148.353 264.517ZM154.252 266L155.343 259.455H156.349L155.871 262.301H156.536L159.366 259.455H160.661L157.491 262.608L159.604 266H158.309L156.621 263.239H155.718L155.258 266H154.252ZM161.26 260.392L161.413 259.455H166.731L166.578 260.392H164.43L163.51 266H162.504L163.425 260.392H161.26ZM168.369 264.517L172.357 259.455H173.517L172.426 266H171.42L172.255 260.938L168.284 266H167.107L168.198 259.455H169.204L168.369 264.517ZM174.268 266L175.358 259.455H178.035C178.733 259.455 179.265 259.615 179.628 259.936C179.992 260.254 180.131 260.673 180.046 261.193C179.978 261.594 179.807 261.902 179.535 262.118C179.262 262.334 178.938 262.48 178.563 262.557C178.796 262.591 179.015 262.676 179.219 262.812C179.427 262.949 179.584 263.136 179.692 263.375C179.803 263.614 179.83 263.903 179.773 264.244C179.716 264.58 179.58 264.879 179.364 265.143C179.151 265.408 178.873 265.616 178.529 265.77C178.188 265.923 177.796 266 177.353 266H174.268ZM175.376 265.08H177.506C177.856 265.08 178.143 264.997 178.367 264.832C178.591 264.665 178.725 264.44 178.768 264.159C178.827 263.818 178.773 263.551 178.606 263.358C178.441 263.165 178.188 263.068 177.847 263.068H175.716L175.376 265.08ZM175.853 262.199H177.574C177.841 262.199 178.079 262.162 178.286 262.088C178.493 262.011 178.661 261.903 178.789 261.764C178.917 261.622 178.995 261.455 179.023 261.261C179.074 260.989 178.996 260.773 178.789 260.614C178.584 260.455 178.282 260.375 177.881 260.375H176.16L175.853 262.199ZM186 262.267L185.847 263.205H182.233L182.387 262.267H186ZM183.102 259.455L182.012 266H181.006L182.097 259.455H183.102ZM187.244 259.455L186.154 266H185.148L186.239 259.455H187.244ZM189.558 261.824H191.433C192.2 261.824 192.753 262.018 193.091 262.408C193.432 262.797 193.556 263.29 193.462 263.886C193.394 264.278 193.242 264.635 193.006 264.956C192.77 265.274 192.46 265.528 192.077 265.719C191.693 265.906 191.246 266 190.735 266H187.99L189.081 259.455H190.087L189.149 265.062H190.888C191.289 265.062 191.634 264.959 191.923 264.751C192.216 264.541 192.388 264.27 192.439 263.938C192.499 263.588 192.418 263.305 192.196 263.089C191.977 262.871 191.672 262.761 191.28 262.761H189.405L189.558 261.824ZM194.144 266L195.235 259.455H196.24L195.149 266H194.144ZM198.252 264.517L202.24 259.455H203.399L202.308 266H201.303L202.138 260.938L198.166 266H196.99L198.081 259.455H199.087L198.252 264.517ZM201.925 257.273H202.862C202.786 257.733 202.563 258.109 202.193 258.402C201.827 258.695 201.371 258.841 200.825 258.841C200.289 258.841 199.887 258.695 199.619 258.402C199.352 258.109 199.257 257.733 199.334 257.273H200.271C200.235 257.494 200.264 257.689 200.361 257.857C200.458 258.024 200.655 258.108 200.953 258.108C201.252 258.108 201.479 258.024 201.635 257.857C201.791 257.689 201.888 257.494 201.925 257.273ZM142.545 282.136C141.943 282.136 141.439 281.993 141.033 281.706C140.626 281.419 140.339 281.017 140.172 280.5C140.007 279.983 139.98 279.381 140.091 278.693C140.199 278.023 140.413 277.439 140.734 276.942C141.058 276.442 141.46 276.055 141.94 275.783C142.423 275.507 142.955 275.369 143.534 275.369C144.136 275.369 144.639 275.514 145.043 275.804C145.449 276.091 145.736 276.494 145.903 277.014C146.071 277.531 146.099 278.136 145.989 278.83C145.881 279.494 145.663 280.075 145.337 280.572C145.013 281.067 144.611 281.452 144.131 281.727C143.653 282 143.125 282.136 142.545 282.136ZM142.562 281.233C143.023 281.233 143.422 281.115 143.76 280.879C144.101 280.643 144.376 280.332 144.587 279.946C144.8 279.56 144.943 279.142 145.017 278.693C145.085 278.267 145.082 277.871 145.009 277.504C144.935 277.135 144.777 276.838 144.536 276.614C144.294 276.386 143.955 276.273 143.517 276.273C143.057 276.273 142.655 276.392 142.311 276.631C141.97 276.869 141.695 277.183 141.484 277.572C141.274 277.962 141.134 278.381 141.062 278.83C140.994 279.256 140.996 279.652 141.067 280.018C141.141 280.382 141.298 280.676 141.54 280.901C141.784 281.122 142.125 281.233 142.562 281.233ZM153.362 273L153.771 273.614C153.544 273.807 153.292 273.942 153.017 274.018C152.744 274.095 152.441 274.142 152.109 274.159C151.779 274.176 151.413 274.193 151.01 274.21C150.549 274.227 150.152 274.338 149.816 274.543C149.484 274.747 149.206 275.043 148.981 275.429C148.757 275.815 148.575 276.29 148.436 276.852H148.521C148.811 276.443 149.167 276.142 149.591 275.949C150.014 275.756 150.453 275.659 150.907 275.659C151.416 275.659 151.853 275.778 152.22 276.017C152.589 276.256 152.855 276.609 153.017 277.078C153.179 277.547 153.203 278.125 153.089 278.812C152.975 279.497 152.757 280.088 152.433 280.585C152.109 281.082 151.706 281.466 151.223 281.736C150.743 282.003 150.211 282.136 149.629 282.136C149.044 282.136 148.554 281.999 148.159 281.723C147.764 281.445 147.488 281.033 147.332 280.487C147.176 279.939 147.163 279.261 147.294 278.455L147.413 277.756C147.657 276.298 148.089 275.193 148.708 274.44C149.331 273.687 150.143 273.298 151.146 273.273C151.498 273.261 151.811 273.259 152.083 273.264C152.359 273.27 152.6 273.257 152.808 273.226C153.018 273.195 153.203 273.119 153.362 273ZM149.765 281.233C150.163 281.233 150.521 281.134 150.839 280.935C151.16 280.736 151.427 280.456 151.64 280.095C151.853 279.732 152.001 279.304 152.083 278.812C152.163 278.335 152.153 277.929 152.054 277.594C151.954 277.259 151.775 277.003 151.517 276.827C151.258 276.651 150.93 276.562 150.532 276.562C150.24 276.562 149.968 276.612 149.718 276.712C149.468 276.811 149.244 276.957 149.045 277.151C148.849 277.344 148.683 277.58 148.547 277.858C148.413 278.136 148.314 278.455 148.248 278.812C148.126 279.545 148.2 280.132 148.47 280.572C148.743 281.013 149.174 281.233 149.765 281.233ZM153.966 280.33H155.04C155.011 280.625 155.107 280.849 155.325 281.003C155.547 281.156 155.855 281.233 156.25 281.233C156.653 281.233 157.011 281.151 157.324 280.986C157.639 280.818 157.827 280.548 157.886 280.176C157.923 279.957 157.902 279.767 157.822 279.605C157.743 279.44 157.612 279.312 157.43 279.222C157.251 279.131 157.028 279.085 156.761 279.085H155.636L155.79 278.182H156.915C157.313 278.182 157.622 278.091 157.844 277.909C158.065 277.727 158.199 277.5 158.244 277.227C158.293 276.935 158.227 276.7 158.048 276.524C157.869 276.345 157.588 276.256 157.205 276.256C156.824 276.256 156.491 276.342 156.207 276.516C155.923 276.686 155.75 276.906 155.688 277.176H154.631C154.702 276.824 154.862 276.513 155.112 276.243C155.362 275.97 155.676 275.757 156.054 275.604C156.435 275.447 156.852 275.369 157.307 275.369C157.767 275.369 158.153 275.45 158.466 275.612C158.778 275.771 159.004 275.989 159.143 276.264C159.286 276.537 159.327 276.847 159.267 277.193C159.207 277.562 159.054 277.861 158.807 278.088C158.562 278.315 158.278 278.477 157.955 278.574L157.938 278.642C158.182 278.659 158.384 278.739 158.543 278.881C158.705 279.02 158.817 279.203 158.879 279.43C158.945 279.655 158.955 279.903 158.909 280.176C158.844 280.574 158.68 280.92 158.419 281.216C158.158 281.509 157.828 281.736 157.43 281.898C157.033 282.057 156.594 282.136 156.114 282.136C155.651 282.136 155.249 282.061 154.908 281.911C154.57 281.757 154.315 281.545 154.145 281.276C153.977 281.003 153.918 280.688 153.966 280.33ZM160.023 282L161.114 275.455H163.79C164.489 275.455 165.021 275.615 165.384 275.936C165.748 276.254 165.887 276.673 165.802 277.193C165.734 277.594 165.563 277.902 165.29 278.118C165.018 278.334 164.694 278.48 164.319 278.557C164.552 278.591 164.771 278.676 164.975 278.812C165.183 278.949 165.34 279.136 165.448 279.375C165.559 279.614 165.586 279.903 165.529 280.244C165.472 280.58 165.336 280.879 165.12 281.143C164.907 281.408 164.629 281.616 164.285 281.77C163.944 281.923 163.552 282 163.109 282H160.023ZM161.131 281.08H163.262C163.612 281.08 163.898 280.997 164.123 280.832C164.347 280.665 164.481 280.44 164.523 280.159C164.583 279.818 164.529 279.551 164.362 279.358C164.197 279.165 163.944 279.068 163.603 279.068H161.472L161.131 281.08ZM161.609 278.199H163.33C163.597 278.199 163.835 278.162 164.042 278.088C164.249 278.011 164.417 277.903 164.545 277.764C164.673 277.622 164.751 277.455 164.779 277.261C164.83 276.989 164.752 276.773 164.545 276.614C164.34 276.455 164.038 276.375 163.637 276.375H161.915L161.609 278.199ZM169.463 282.136C168.861 282.136 168.357 281.993 167.951 281.706C167.544 281.419 167.257 281.017 167.09 280.5C166.925 279.983 166.898 279.381 167.009 278.693C167.117 278.023 167.331 277.439 167.652 276.942C167.976 276.442 168.378 276.055 168.858 275.783C169.341 275.507 169.873 275.369 170.452 275.369C171.054 275.369 171.557 275.514 171.961 275.804C172.367 276.091 172.654 276.494 172.821 277.014C172.989 277.531 173.017 278.136 172.907 278.83C172.799 279.494 172.581 280.075 172.255 280.572C171.931 281.067 171.529 281.452 171.049 281.727C170.571 282 170.043 282.136 169.463 282.136ZM169.48 281.233C169.941 281.233 170.34 281.115 170.678 280.879C171.019 280.643 171.294 280.332 171.505 279.946C171.718 279.56 171.861 279.142 171.935 278.693C172.003 278.267 172 277.871 171.926 277.504C171.853 277.135 171.695 276.838 171.453 276.614C171.212 276.386 170.873 276.273 170.435 276.273C169.975 276.273 169.573 276.392 169.229 276.631C168.888 276.869 168.613 277.183 168.402 277.572C168.192 277.962 168.051 278.381 167.98 278.83C167.912 279.256 167.914 279.652 167.985 280.018C168.059 280.382 168.216 280.676 168.458 280.901C168.702 281.122 169.043 281.233 169.48 281.233ZM178.916 278.267L178.763 279.205H175.149L175.303 278.267H178.916ZM176.018 275.455L174.928 282H173.922L175.013 275.455H176.018ZM180.161 275.455L179.07 282H178.064L179.155 275.455H180.161Z" fill="#AEAEAE"/>
<path d="M159.5 115C159.5 115.276 159.724 115.5 160 115.5C160.276 115.5 160.5 115.276 160.5 115L159.5 115ZM160.354 99.6464C160.158 99.4512 159.842 99.4512 159.646 99.6464L156.464 102.828C156.269 103.024 156.269 103.34 156.464 103.536C156.66 103.731 156.976 103.731 157.172 103.536L160 100.707L162.828 103.536C163.024 103.731 163.34 103.731 163.536 103.536C163.731 103.34 163.731 103.024 163.536 102.828L160.354 99.6464ZM160.5 115L160.5 100L159.5 100L159.5 115L160.5 115Z" fill="#5A5A5B"/>
<path d="M160.5 191C160.5 190.724 160.276 190.5 160 190.5C159.724 190.5 159.5 190.724 159.5 191L160.5 191ZM159.646 206.354C159.842 206.549 160.158 206.549 160.354 206.354L163.536 203.172C163.731 202.976 163.731 202.66 163.536 202.464C163.34 202.269 163.024 202.269 162.828 202.464L160 205.293L157.172 202.464C156.976 202.269 156.66 202.269 156.464 202.464C156.269 202.66 156.269 202.976 156.464 203.172L159.646 206.354ZM159.5 191L159.5 206L160.5 206L160.5 191L159.5 191Z" fill="#5A5A5B"/>
<defs>
<filter id="filter0_d_1671_10116" x="37" y="0" width="245" height="123" filterUnits="userSpaceOnUse" color-interpolation-filters="sRGB">
<feFlood flood-opacity="0" result="BackgroundImageFix"/>
<feColorMatrix in="SourceAlpha" type="matrix" values="0 0 0 0 0 0 0 0 0 0 0 0 0 0 0 0 0 0 127 0" result="hardAlpha"/>
<feOffset/>
<feGaussianBlur stdDeviation="15"/>
<feComposite in2="hardAlpha" operator="out"/>
<feColorMatrix type="matrix" values="0 0 0 0 0 0 0 0 0 0 0 0 0 0 0 0 0 0 0.06 0"/>
<feBlend mode="normal" in2="BackgroundImageFix" result="effect1_dropShadow_1671_10116"/>
<feBlend mode="normal" in="SourceGraphic" in2="effect1_dropShadow_1671_10116" result="shape"/>
</filter>
<filter id="filter1_d_1671_10116" x="37" y="92" width="245" height="122" filterUnits="userSpaceOnUse" color-interpolation-filters="sRGB">
<feFlood flood-opacity="0" result="BackgroundImageFix"/>
<feColorMatrix in="SourceAlpha" type="matrix" values="0 0 0 0 0 0 0 0 0 0 0 0 0 0 0 0 0 0 127 0" result="hardAlpha"/>
<feOffset/>
<feGaussianBlur stdDeviation="15"/>
<feComposite in2="hardAlpha" operator="out"/>
<feColorMatrix type="matrix" values="0 0 0 0 0 0 0 0 0 0 0 0 0 0 0 0 0 0 0.06 0"/>
<feBlend mode="normal" in2="BackgroundImageFix" result="effect1_dropShadow_1671_10116"/>
<feBlend mode="normal" in="SourceGraphic" in2="effect1_dropShadow_1671_10116" result="shape"/>
</filter>
<filter id="filter2_d_1671_10116" x="63" y="183" width="193" height="231" filterUnits="userSpaceOnUse" color-interpolation-filters="sRGB">
<feFlood flood-opacity="0" result="BackgroundImageFix"/>
<feColorMatrix in="SourceAlpha" type="matrix" values="0 0 0 0 0 0 0 0 0 0 0 0 0 0 0 0 0 0 127 0" result="hardAlpha"/>
<feOffset/>
<feGaussianBlur stdDeviation="15"/>
<feComposite in2="hardAlpha" operator="out"/>
<feColorMatrix type="matrix" values="0 0 0 0 0 0 0 0 0 0 0 0 0 0 0 0 0 0 0.06 0"/>
<feBlend mode="normal" in2="BackgroundImageFix" result="effect1_dropShadow_1671_10116"/>
<feBlend mode="normal" in="SourceGraphic" in2="effect1_dropShadow_1671_10116" result="shape"/>
</filter>
<filter id="filter3_d_1671_10116" x="-10" y="383" width="180" height="101" filterUnits="userSpaceOnUse" color-interpolation-filters="sRGB">
<feFlood flood-opacity="0" result="BackgroundImageFix"/>
<feColorMatrix in="SourceAlpha" type="matrix" values="0 0 0 0 0 0 0 0 0 0 0 0 0 0 0 0 0 0 127 0" result="hardAlpha"/>
<feOffset/>
<feGaussianBlur stdDeviation="15"/>
<feComposite in2="hardAlpha" operator="out"/>
<feColorMatrix type="matrix" values="0 0 0 0 0 0 0 0 0 0 0 0 0 0 0 0 0 0 0.06 0"/>
<feBlend mode="normal" in2="BackgroundImageFix" result="effect1_dropShadow_1671_10116"/>
<feBlend mode="normal" in="SourceGraphic" in2="effect1_dropShadow_1671_10116" result="shape"/>
</filter>
<filter id="filter4_d_1671_10116" x="150" y="383" width="180" height="101" filterUnits="userSpaceOnUse" color-interpolation-filters="sRGB">
<feFlood flood-opacity="0" result="BackgroundImageFix"/>
<feColorMatrix in="SourceAlpha" type="matrix" values="0 0 0 0 0 0 0 0 0 0 0 0 0 0 0 0 0 0 127 0" result="hardAlpha"/>
<feOffset/>
<feGaussianBlur stdDeviation="15"/>
<feComposite in2="hardAlpha" operator="out"/>
<feColorMatrix type="matrix" values="0 0 0 0 0 0 0 0 0 0 0 0 0 0 0 0 0 0 0.06 0"/>
<feBlend mode="normal" in2="BackgroundImageFix" result="effect1_dropShadow_1671_10116"/>
<feBlend mode="normal" in="SourceGraphic" in2="effect1_dropShadow_1671_10116" result="shape"/>
</filter>
</defs>
</svg>
