<svg width="455" height="289" viewBox="0 0 455 289" fill="none" xmlns="http://www.w3.org/2000/svg">
<g filter="url(#filter0_d_1334_10890)">
<rect x="25" y="25" width="405" height="239" rx="2" fill="white"/>
</g>
<path d="M25 29C25 26.7909 26.7909 25 29 25H426C428.209 25 430 26.7909 430 29V57H25V29Z" fill="#3C3A3E"/>
<path d="M25 57H125V264H29C26.7909 264 25 262.209 25 260V57Z" fill="#EDEDED"/>
<path fill-rule="evenodd" clip-rule="evenodd" d="M85.2568 37.6609C86.3218 37.8694 87.2816 38.5033 87.956 39.4434C88.6304 40.3836 88.9729 41.5652 88.9192 42.7664C88.8654 43.9675 88.4191 45.1055 87.6642 45.9665C86.9092 46.8275 85.8975 47.3523 84.8191 47.4422C83.7407 47.5322 82.67 47.1811 81.8079 46.455C80.9459 45.7288 80.352 44.6776 80.1377 43.4988C79.9235 42.32 80.1037 41.0948 80.6444 40.0533C81.1852 39.0118 82.0493 38.2258 83.0744 37.8429C83.7769 37.5811 84.527 37.5185 85.2568 37.6609ZM58.7849 44.6953C58.7849 46.5398 57.6646 47.4607 55.4241 47.458H49.9973V37.6123H55.0895C56.297 37.6123 57.1445 37.7701 57.6355 38.0775C57.9943 38.2842 58.2928 38.6001 58.4963 38.9883C58.6998 39.3764 58.7999 39.8209 58.7849 40.2699C58.7913 40.7334 58.6783 41.1892 58.4591 41.5835C58.24 41.9777 57.9239 42.2939 57.5482 42.4947C57.9325 42.6738 58.2581 42.9796 58.4812 43.371C58.7042 43.7623 58.8141 44.2202 58.7958 44.6831L58.7849 44.6953ZM56.2825 40.5612C56.2825 39.9423 55.8933 39.6308 55.1113 39.6308H52.3361V41.5199H55.1113C55.8933 41.5199 56.2825 41.2003 56.2825 40.5612ZM56.2825 44.4809C56.2825 43.8377 55.8969 43.5181 55.1258 43.5181H52.3361V45.4436H55.144C55.9151 45.4436 56.3007 45.12 56.3007 44.4809H56.2825ZM79.008 47.458H76.6801V43.5545H73.3193V47.458H70.9842V37.6123H73.3193V41.3864H76.6801V37.6123H79.008V47.458ZM98.991 47.458H95.8484L92.2694 42.6808V47.458H89.9343V37.6123H92.2694V42.341L96.0339 37.6123H99.0128L94.8991 42.43L99.0128 47.458H98.991ZM85.1331 39.918C84.8141 39.8063 84.4778 39.7687 84.1452 39.8077C83.8126 39.8468 83.4908 39.9615 83.1997 40.1448C82.9087 40.3282 82.6548 40.5762 82.4536 40.8734C82.2525 41.1706 82.1086 41.5106 82.0308 41.8724C81.953 42.2342 81.9429 42.6099 82.0013 42.9761C82.0597 43.3424 82.1853 43.6913 82.3702 44.0013C82.5551 44.3112 82.7954 44.5755 83.0761 44.7777C83.3568 44.9799 83.672 45.1157 84.0019 45.1766C84.363 45.2573 84.7358 45.2476 85.0931 45.1483C85.6141 45.002 86.0771 44.6683 86.4099 44.1992C86.7428 43.73 86.9268 43.1516 86.9335 42.554C86.9401 41.9564 86.7689 41.3732 86.4466 40.895C86.1243 40.4168 85.6689 40.0705 85.1513 39.9099L85.1331 39.918ZM65.9575 39.7684C66.5101 40.0675 66.9551 40.5662 67.2199 41.1829C67.4848 41.7995 67.5538 42.4979 67.4158 43.1638C67.2777 43.8298 66.9408 44.424 66.4599 44.8496C65.9791 45.2751 65.3827 45.5068 64.7682 45.5068C64.1536 45.5068 63.5573 45.2751 63.0764 44.8496C62.5956 44.424 62.2586 43.8298 62.1206 43.1638C61.9825 42.4979 62.0516 41.7995 62.3164 41.1829C62.5813 40.5662 63.0263 40.0675 63.5788 39.7684V37.135C62.4031 37.4581 61.3744 38.2487 60.6869 39.3575C59.9994 40.4663 59.7006 41.8167 59.8469 43.1537C59.9933 44.4907 60.5746 45.7219 61.4813 46.6148C62.3879 47.5078 63.5571 48.0009 64.7682 48.0009C65.9792 48.0009 67.1484 47.5078 68.0551 46.6148C68.9617 45.7219 69.5431 44.4907 69.6894 43.1537C69.8358 41.8167 69.537 40.4663 68.8495 39.3575C68.1619 38.2487 67.1333 37.4581 65.9575 37.135V39.7684Z" fill="white"/>
<path fill-rule="evenodd" clip-rule="evenodd" d="M48.6533 43.7082C48.6533 46.1945 47.3014 47.4391 44.5977 47.4418H39C39 44.95 42.7427 45.0633 44.1176 45.0633C45.2355 45.0633 45.7932 44.5239 45.7907 43.4452C45.7907 42.3612 45.2342 41.8272 44.1176 41.8272H40.9605V39.473H44.0921C45.2088 39.473 45.7616 38.9512 45.7616 37.9156C45.7616 36.8801 45.2015 36.3785 44.0921 36.3785C42.499 36.3785 39 36.8316 39 34H44.154C45.638 34 46.6722 34.2036 47.2565 34.6108C47.6957 34.9132 48.0539 35.341 48.2938 35.8497C48.5337 36.3584 48.6465 36.9293 48.6205 37.503C48.643 38.1828 48.4818 38.8545 48.1576 39.4314C47.8334 40.0082 47.3612 40.4637 46.8019 40.7391C48.0313 41.3216 48.6448 42.3194 48.6423 43.7324L48.6533 43.7082Z" fill="white"/>
<path fill-rule="evenodd" clip-rule="evenodd" d="M65.1154 44.1532C64.7096 44.2447 64.2877 44.1544 63.9414 43.9019C63.5952 43.6494 63.3525 43.2551 63.2662 42.8047C63.18 42.3543 63.257 41.8842 63.4807 41.4967C63.7044 41.1091 64.0566 40.8354 64.4607 40.7351V36.9651H65.1882V40.7351C65.3727 40.7827 65.5478 40.8677 65.7046 40.9859C65.9633 41.1796 66.1643 41.4546 66.2821 41.7757C66.3998 42.0969 66.4289 42.4498 66.3657 42.7894C66.3025 43.1291 66.1499 43.4401 65.9273 43.683C65.7046 43.9259 65.422 44.0895 65.1154 44.1532Z" fill="white"/>
<path fill-rule="evenodd" clip-rule="evenodd" d="M125 134.5V208V208.5L125 235H123V208.5L25 208.5V208L123 208L123 134.5L25 134.5V134L123 134V57H125V134V134.5ZM34 78C34 76.8954 34.8954 76 36 76H108C109.105 76 110 76.8954 110 78C110 79.1046 109.105 80 108 80H36C34.8954 80 34 79.1046 34 78ZM36 149C34.8954 149 34 149.895 34 151C34 152.105 34.8954 153 36 153H108C109.105 153 110 152.105 110 151C110 149.895 109.105 149 108 149H36ZM34 91C34 89.8954 34.8954 89 36 89H89C90.1046 89 91 89.8954 91 91C91 92.1046 90.1046 93 89 93H36C34.8954 93 34 92.1046 34 91ZM36 162C34.8954 162 34 162.895 34 164C34 165.105 34.8954 166 36 166H89C90.1046 166 91 165.105 91 164C91 162.895 90.1046 162 89 162H36ZM34 104C34 102.895 34.8954 102 36 102H97C98.1046 102 99 102.895 99 104C99 105.105 98.1046 106 97 106H36C34.8954 106 34 105.105 34 104ZM35.5 176C34.6716 176 34 176.672 34 177.5C34 178.328 34.6716 179 35.5 179H97.5C98.3284 179 99 178.328 99 177.5C99 176.672 98.3284 176 97.5 176H35.5ZM34 117C34 115.895 34.8954 115 36 115H77C78.1046 115 79 115.895 79 117C79 118.105 78.1046 119 77 119H36C34.8954 119 34 118.105 34 117ZM35.5 189C34.6716 189 34 189.672 34 190.5C34 191.328 34.6716 192 35.5 192H77.5C78.3284 192 79 191.328 79 190.5C79 189.672 78.3284 189 77.5 189H35.5ZM34 224.5C34 223.672 34.6716 223 35.5 223H89.5C90.3284 223 91 223.672 91 224.5C91 225.328 90.3284 226 89.5 226H35.5C34.6716 226 34 225.328 34 224.5ZM125 241L25 241V241.5L125 241.5V241Z" fill="#CBCBCB"/>
<path d="M143.861 84.9999V76.2726H147.202C147.832 76.2726 148.357 76.3721 148.774 76.5709C149.195 76.767 149.509 77.0354 149.716 77.3763C149.926 77.7172 150.031 78.1036 150.031 78.5354C150.031 78.8905 149.963 79.1945 149.827 79.4474C149.69 79.6974 149.507 79.9005 149.277 80.0567C149.047 80.213 148.79 80.3252 148.506 80.3934V80.4786C148.815 80.4956 149.112 80.5908 149.396 80.7641C149.683 80.9346 149.918 81.176 150.099 81.4885C150.281 81.801 150.372 82.1789 150.372 82.6221C150.372 83.0738 150.263 83.48 150.044 83.8408C149.825 84.1988 149.496 84.4814 149.055 84.6888C148.615 84.8962 148.061 84.9999 147.394 84.9999H143.861ZM145.442 83.6789H147.142C147.716 83.6789 148.129 83.5695 148.382 83.3508C148.638 83.1292 148.766 82.8451 148.766 82.4985C148.766 82.24 148.702 82.007 148.574 81.7996C148.446 81.5894 148.264 81.4246 148.028 81.3053C147.793 81.1832 147.511 81.1221 147.185 81.1221H145.442V83.6789ZM145.442 79.9843H147.006C147.278 79.9843 147.524 79.9346 147.743 79.8351C147.962 79.7329 148.134 79.5894 148.259 79.4047C148.386 79.2172 148.45 78.9957 148.45 78.74C148.45 78.4019 148.331 78.1235 148.092 77.9047C147.857 77.686 147.506 77.5766 147.04 77.5766H145.442V79.9843Z" fill="#3C3A3E"/>
<path d="M154.534 85.1278C153.895 85.1278 153.341 84.9871 152.873 84.7059C152.404 84.4246 152.04 84.0312 151.782 83.5255C151.526 83.0198 151.398 82.4289 151.398 81.7528C151.398 81.0766 151.526 80.4843 151.782 79.9758C152.04 79.4672 152.404 79.0724 152.873 78.7911C153.341 78.5099 153.895 78.3692 154.534 78.3692C155.174 78.3692 155.728 78.5099 156.196 78.7911C156.665 79.0724 157.027 79.4672 157.283 79.9758C157.542 80.4843 157.671 81.0766 157.671 81.7528C157.671 82.4289 157.542 83.0198 157.283 83.5255C157.027 84.0312 156.665 84.4246 156.196 84.7059C155.728 84.9871 155.174 85.1278 154.534 85.1278ZM154.543 83.892C154.89 83.892 155.179 83.7968 155.412 83.6064C155.645 83.4133 155.819 83.1547 155.932 82.8309C156.049 82.507 156.107 82.1462 156.107 81.7485C156.107 81.3479 156.049 80.9857 155.932 80.6618C155.819 80.3351 155.645 80.0752 155.412 79.882C155.179 79.6888 154.89 79.5922 154.543 79.5922C154.188 79.5922 153.892 79.6888 153.657 79.882C153.424 80.0752 153.249 80.3351 153.133 80.6618C153.019 80.9857 152.962 81.3479 152.962 81.7485C152.962 82.1462 153.019 82.507 153.133 82.8309C153.249 83.1547 153.424 83.4133 153.657 83.6064C153.892 83.7968 154.188 83.892 154.543 83.892Z" fill="#3C3A3E"/>
<path d="M158.618 83.2059H160.148C160.162 83.4502 160.271 83.6391 160.476 83.7726C160.68 83.9062 160.946 83.9729 161.273 83.9729C161.605 83.9729 161.885 83.9005 162.112 83.7556C162.342 83.6079 162.457 83.3849 162.457 83.0866C162.457 82.9104 162.413 82.7556 162.325 82.6221C162.237 82.4857 162.114 82.3806 161.955 82.3067C161.795 82.2329 161.608 82.1959 161.392 82.1959H160.391V81.1008H161.392C161.713 81.1008 161.956 81.0269 162.121 80.8792C162.288 80.7314 162.372 80.5454 162.372 80.3209C162.372 80.0795 162.284 79.8834 162.108 79.7329C161.935 79.5823 161.695 79.507 161.388 79.507C161.081 79.507 160.825 79.5766 160.621 79.7158C160.419 79.855 160.314 80.034 160.305 80.2528H158.784C158.79 79.8721 158.903 79.5411 159.125 79.2599C159.349 78.9786 159.651 78.7599 160.028 78.6036C160.409 78.4474 160.838 78.3692 161.315 78.3692C161.827 78.3692 162.269 78.4459 162.641 78.5993C163.013 78.7528 163.3 78.9672 163.501 79.2428C163.703 79.5155 163.804 79.8366 163.804 80.2059C163.804 80.561 163.693 80.855 163.472 81.088C163.25 81.3181 162.952 81.4829 162.577 81.5823V81.6505C162.835 81.6647 163.068 81.7385 163.276 81.8721C163.483 82.0028 163.648 82.1803 163.77 82.4047C163.892 82.6292 163.953 82.8891 163.953 83.1846C163.953 83.5851 163.838 83.9317 163.608 84.2243C163.378 84.5141 163.061 84.7371 162.658 84.8934C162.257 85.0496 161.798 85.1278 161.281 85.1278C160.778 85.1278 160.328 85.0525 159.93 84.9019C159.536 84.7485 159.222 84.5283 158.989 84.2414C158.756 83.9545 158.632 83.6093 158.618 83.2059Z" fill="#3C3A3E"/>
<path d="M168.935 83.2059L170.878 78.4545H172.122L169.476 84.9999H168.398L165.811 78.4545H167.043L168.935 83.2059ZM166.655 78.4545V84.9999H165.168V78.4545H166.655ZM171.278 84.9999V78.4545H172.753V84.9999H171.278Z" fill="#3C3A3E"/>
<path d="M177.163 85.1278C176.524 85.1278 175.97 84.9871 175.501 84.7059C175.033 84.4246 174.669 84.0312 174.411 83.5255C174.155 83.0198 174.027 82.4289 174.027 81.7528C174.027 81.0766 174.155 80.4843 174.411 79.9758C174.669 79.4672 175.033 79.0724 175.501 78.7911C175.97 78.5099 176.524 78.3692 177.163 78.3692C177.803 78.3692 178.357 78.5099 178.825 78.7911C179.294 79.0724 179.656 79.4672 179.912 79.9758C180.17 80.4843 180.3 81.0766 180.3 81.7528C180.3 82.4289 180.17 83.0198 179.912 83.5255C179.656 84.0312 179.294 84.4246 178.825 84.7059C178.357 84.9871 177.803 85.1278 177.163 85.1278ZM177.172 83.892C177.519 83.892 177.808 83.7968 178.041 83.6064C178.274 83.4133 178.447 83.1547 178.561 82.8309C178.678 82.507 178.736 82.1462 178.736 81.7485C178.736 81.3479 178.678 80.9857 178.561 80.6618C178.447 80.3351 178.274 80.0752 178.041 79.882C177.808 79.6888 177.519 79.5922 177.172 79.5922C176.817 79.5922 176.521 79.6888 176.286 79.882C176.053 80.0752 175.878 80.3351 175.761 80.6618C175.648 80.9857 175.591 81.3479 175.591 81.7485C175.591 82.1462 175.648 82.507 175.761 82.8309C175.878 83.1547 176.053 83.4133 176.286 83.6064C176.521 83.7968 176.817 83.892 177.172 83.892Z" fill="#3C3A3E"/>
<path d="M180.937 84.9999L183.353 81.6207L180.958 78.4545H182.739L184.602 81.0922H184.968V78.4545H186.511V81.0922H186.869L188.731 78.4545H190.512L188.13 81.6207L190.533 84.9999H188.714L186.852 82.3579H186.511V84.9999H184.968V82.3579H184.627L182.756 84.9999H180.937Z" fill="#3C3A3E"/>
<path d="M196.183 81.088V82.3536H192.697V81.088H196.183ZM193.174 78.4545V84.9999H191.687V78.4545H193.174ZM197.193 78.4545V84.9999H195.71V78.4545H197.193Z" fill="#3C3A3E"/>
<path d="M201.609 85.1278C200.97 85.1278 200.416 84.9871 199.947 84.7059C199.478 84.4246 199.114 84.0312 198.856 83.5255C198.6 83.0198 198.472 82.4289 198.472 81.7528C198.472 81.0766 198.6 80.4843 198.856 79.9758C199.114 79.4672 199.478 79.0724 199.947 78.7911C200.416 78.5099 200.97 78.3692 201.609 78.3692C202.248 78.3692 202.802 78.5099 203.271 78.7911C203.739 79.0724 204.102 79.4672 204.357 79.9758C204.616 80.4843 204.745 81.0766 204.745 81.7528C204.745 82.4289 204.616 83.0198 204.357 83.5255C204.102 84.0312 203.739 84.4246 203.271 84.7059C202.802 84.9871 202.248 85.1278 201.609 85.1278ZM201.617 83.892C201.964 83.892 202.254 83.7968 202.487 83.6064C202.72 83.4133 202.893 83.1547 203.006 82.8309C203.123 82.507 203.181 82.1462 203.181 81.7485C203.181 81.3479 203.123 80.9857 203.006 80.6618C202.893 80.3351 202.72 80.0752 202.487 79.882C202.254 79.6888 201.964 79.5922 201.617 79.5922C201.262 79.5922 200.967 79.6888 200.731 79.882C200.498 80.0752 200.323 80.3351 200.207 80.6618C200.093 80.9857 200.036 81.3479 200.036 81.7485C200.036 82.1462 200.093 82.507 200.207 82.8309C200.323 83.1547 200.498 83.4133 200.731 83.6064C200.967 83.7968 201.262 83.892 201.617 83.892Z" fill="#3C3A3E"/>
<path d="M208.909 85.1278C208.256 85.1278 207.695 84.9843 207.226 84.6974C206.76 84.4104 206.401 84.0141 206.148 83.5084C205.898 82.9999 205.773 82.4147 205.773 81.7528C205.773 81.088 205.901 80.5013 206.157 79.9928C206.412 79.4814 206.773 79.0837 207.239 78.7996C207.708 78.5127 208.262 78.3692 208.901 78.3692C209.432 78.3692 209.902 78.4672 210.311 78.6633C210.723 78.8564 211.052 79.1306 211.296 79.4857C211.54 79.838 211.679 80.2499 211.713 80.7215H210.239C210.179 80.4062 210.037 80.1434 209.813 79.9332C209.591 79.7201 209.294 79.6135 208.922 79.6135C208.607 79.6135 208.33 79.6988 208.091 79.8692C207.853 80.0368 207.667 80.2783 207.533 80.5937C207.402 80.909 207.337 81.2868 207.337 81.7272C207.337 82.1732 207.402 82.5567 207.533 82.8778C207.664 83.1959 207.847 83.4417 208.083 83.615C208.321 83.7854 208.601 83.8707 208.922 83.8707C209.15 83.8707 209.353 83.828 209.532 83.7428C209.713 83.6547 209.865 83.5283 209.988 83.3635C210.11 83.1988 210.194 82.9985 210.239 82.7627H211.713C211.677 83.2258 211.54 83.6363 211.304 83.9942C211.069 84.3493 210.748 84.6278 210.341 84.8295C209.935 85.0283 209.458 85.1278 208.909 85.1278Z" fill="#3C3A3E"/>
<path d="M212.505 79.7201V78.4545H218.232V79.7201H216.114V84.9999H214.623V79.7201H212.505Z" fill="#3C3A3E"/>
<path d="M220.948 82.9118L223.569 78.4545H225.154V84.9999H223.662V80.5383L221.05 84.9999H219.461V78.4545H220.948V82.9118Z" fill="#3C3A3E"/>
<path d="M232.83 85.1192C232.216 85.1192 231.671 85.0141 231.193 84.8039C230.719 84.5937 230.344 84.301 230.068 83.926C229.793 83.551 229.646 83.1178 229.629 82.6263H231.232C231.246 82.8621 231.324 83.0681 231.466 83.2442C231.608 83.4175 231.797 83.5525 232.033 83.6491C232.269 83.7457 232.533 83.7939 232.825 83.7939C233.138 83.7939 233.415 83.74 233.656 83.632C233.898 83.5212 234.087 83.3678 234.223 83.1718C234.359 82.9758 234.426 82.7499 234.423 82.4942C234.426 82.23 234.358 81.9971 234.219 81.7954C234.08 81.5937 233.878 81.436 233.614 81.3224C233.352 81.2087 233.037 81.1519 232.668 81.1519H231.896V79.9332H232.668C232.972 79.9332 233.237 79.8806 233.465 79.7755C233.695 79.6704 233.875 79.5226 234.006 79.3323C234.136 79.1391 234.2 78.9161 234.197 78.6633C234.2 78.4161 234.145 78.2016 234.031 78.0198C233.921 77.8351 233.763 77.6917 233.558 77.5894C233.357 77.4871 233.119 77.436 232.847 77.436C232.58 77.436 232.332 77.4843 232.105 77.5809C231.878 77.6775 231.695 77.8153 231.555 77.9942C231.416 78.1704 231.342 78.3806 231.334 78.6249H229.813C229.824 78.1363 229.965 77.7073 230.234 77.338C230.507 76.9658 230.871 76.676 231.325 76.4687C231.78 76.2584 232.29 76.1533 232.855 76.1533C233.438 76.1533 233.943 76.2627 234.372 76.4814C234.804 76.6974 235.138 76.9885 235.374 77.355C235.609 77.7215 235.727 78.1263 235.727 78.5695C235.73 79.061 235.585 79.4729 235.293 79.8053C235.003 80.1377 234.622 80.355 234.151 80.4573V80.5255C234.764 80.6107 235.234 80.838 235.561 81.2073C235.891 81.5738 236.054 82.0297 236.051 82.5752C236.051 83.0638 235.912 83.5013 235.634 83.8877C235.358 84.2712 234.977 84.5724 234.492 84.7911C234.009 85.0099 233.455 85.1192 232.83 85.1192Z" fill="#3C3A3E"/>
<path d="M237.531 84.9999V78.4545H240.28C241.055 78.4545 241.667 78.6093 242.116 78.9189C242.568 79.2286 242.794 79.6604 242.794 80.2144C242.794 80.5809 242.666 80.8806 242.41 81.1135C242.157 81.3437 241.812 81.4985 241.375 81.578C241.718 81.6064 242.02 81.6931 242.278 81.838C242.539 81.9829 242.744 82.1732 242.892 82.409C243.039 82.6448 243.113 82.9161 243.113 83.2229C243.113 83.5837 243.018 83.8976 242.828 84.1647C242.64 84.4289 242.366 84.6349 242.005 84.7826C241.647 84.9275 241.213 84.9999 240.701 84.9999H237.531ZM238.976 83.7854H240.701C240.985 83.7854 241.208 83.7187 241.37 83.5851C241.532 83.4488 241.613 83.2641 241.613 83.0312C241.613 82.7613 241.532 82.5496 241.37 82.3962C241.208 82.24 240.985 82.1618 240.701 82.1618H238.976V83.7854ZM238.976 81.1647H240.309C240.52 81.1647 240.7 81.1349 240.851 81.0752C241.001 81.0127 241.116 80.926 241.196 80.8153C241.275 80.7016 241.315 80.5667 241.315 80.4104C241.315 80.186 241.223 80.0099 241.038 79.882C240.856 79.7542 240.603 79.6903 240.28 79.6903H238.976V81.1647Z" fill="#3C3A3E"/>
<path d="M247.242 85.1278C246.602 85.1278 246.048 84.9871 245.58 84.7059C245.111 84.4246 244.747 84.0312 244.489 83.5255C244.233 83.0198 244.105 82.4289 244.105 81.7528C244.105 81.0766 244.233 80.4843 244.489 79.9758C244.747 79.4672 245.111 79.0724 245.58 78.7911C246.048 78.5099 246.602 78.3692 247.242 78.3692C247.881 78.3692 248.435 78.5099 248.903 78.7911C249.372 79.0724 249.734 79.4672 249.99 79.9758C250.249 80.4843 250.378 81.0766 250.378 81.7528C250.378 82.4289 250.249 83.0198 249.99 83.5255C249.734 84.0312 249.372 84.4246 248.903 84.7059C248.435 84.9871 247.881 85.1278 247.242 85.1278ZM247.25 83.892C247.597 83.892 247.886 83.7968 248.119 83.6064C248.352 83.4133 248.526 83.1547 248.639 82.8309C248.756 82.507 248.814 82.1462 248.814 81.7485C248.814 81.3479 248.756 80.9857 248.639 80.6618C248.526 80.3351 248.352 80.0752 248.119 79.882C247.886 79.6888 247.597 79.5922 247.25 79.5922C246.895 79.5922 246.599 79.6888 246.364 79.882C246.131 80.0752 245.956 80.3351 245.84 80.6618C245.726 80.9857 245.669 81.3479 245.669 81.7485C245.669 82.1462 245.726 82.507 245.84 82.8309C245.956 83.1547 246.131 83.4133 246.364 83.6064C246.599 83.7968 246.895 83.892 247.25 83.892Z" fill="#3C3A3E"/>
<path d="M256.183 81.088V82.3536H252.697V81.088H256.183ZM253.174 78.4545V84.9999H251.687V78.4545H253.174ZM257.193 78.4545V84.9999H255.71V78.4545H257.193Z" fill="#3C3A3E"/>
<path d="M258.754 84.9999V78.4545H260.296V81.0965H260.859L262.827 78.4545H264.685L262.261 81.6675L264.711 84.9999H262.845L261.05 82.5326H260.296V84.9999H258.754Z" fill="#3C3A3E"/>
<path d="M267.469 85.132C267.054 85.132 266.681 85.0582 266.348 84.9104C266.019 84.7599 265.758 84.5383 265.564 84.2457C265.374 83.953 265.279 83.5922 265.279 83.1633C265.279 82.7939 265.347 82.4885 265.483 82.2471C265.62 82.0056 265.806 81.8124 266.042 81.6675C266.277 81.5226 266.543 81.4133 266.838 81.3394C267.137 81.2627 267.445 81.2073 267.763 81.1732C268.147 81.1334 268.458 81.0979 268.696 81.0667C268.935 81.0326 269.108 80.9814 269.216 80.9133C269.327 80.8422 269.382 80.7329 269.382 80.5851V80.5596C269.382 80.2385 269.287 79.99 269.097 79.8138C268.907 79.6377 268.632 79.5496 268.275 79.5496C267.897 79.5496 267.597 79.632 267.375 79.7968C267.157 79.9616 267.009 80.1562 266.932 80.3806L265.492 80.176C265.606 79.7783 265.793 79.4459 266.054 79.1789C266.316 78.909 266.635 78.7073 267.013 78.5738C267.391 78.4374 267.809 78.3692 268.266 78.3692C268.581 78.3692 268.895 78.4062 269.208 78.48C269.52 78.5539 269.806 78.676 270.064 78.8465C270.323 79.0141 270.53 79.2428 270.686 79.5326C270.846 79.8224 270.925 80.1846 270.925 80.6192V84.9999H269.442V84.1008H269.391C269.297 84.2826 269.165 84.453 268.995 84.6121C268.827 84.7684 268.615 84.8948 268.36 84.9914C268.107 85.0851 267.81 85.132 267.469 85.132ZM267.87 83.9985C268.179 83.9985 268.448 83.9374 268.675 83.8153C268.902 83.6903 269.077 83.5255 269.199 83.3209C269.324 83.1164 269.387 82.8934 269.387 82.6519V81.8806C269.338 81.9204 269.256 81.9573 269.14 81.9914C269.026 82.0255 268.898 82.0553 268.756 82.0809C268.614 82.1064 268.473 82.1292 268.334 82.1491C268.195 82.1689 268.074 82.186 267.972 82.2002C267.742 82.2314 267.536 82.2826 267.354 82.3536C267.172 82.4246 267.029 82.5241 266.924 82.6519C266.819 82.7769 266.766 82.9388 266.766 83.1377C266.766 83.4218 266.87 83.6363 267.077 83.7812C267.284 83.926 267.549 83.9985 267.87 83.9985Z" fill="#3C3A3E"/>
<circle cx="360.5" cy="197.5" r="50.5" fill="#F5F5F5"/>
<mask id="mask0_1334_10890" style="mask-type:alpha" maskUnits="userSpaceOnUse" x="310" y="147" width="101" height="101">
<circle cx="360.5" cy="197.5" r="50.5" fill="#F5F5F5"/>
</mask>
<g mask="url(#mask0_1334_10890)">
<path d="M392.302 228.62H386.755L386.016 244.15L386.755 247.847H393.781L392.302 228.62Z" fill="white"/>
<path d="M333.879 228.62H328.332V244.15V247.478L334.249 246.738L333.879 228.62Z" fill="white"/>
<path d="M357.544 247.847L347.56 246.738L347.19 259.68V262.638L358.283 263.008L357.544 247.847Z" fill="white"/>
<path d="M374.923 245.629L364.94 246.738L364.57 259.68V262.638L375.663 263.008L374.923 245.629Z" fill="white"/>
<path d="M386.323 226.888L385.636 206.279H393.192L393.879 224.827L393.192 226.888H386.323Z" fill="white"/>
<path d="M327.93 226.201L327.243 206.966H334.8V225.514L333.426 226.201H327.93Z" fill="white"/>
<path d="M338.235 244.75L336.861 208.34L383.575 207.653L384.262 245.437L338.235 244.75Z" fill="white"/>
<path d="M368.646 166.852L369.416 172.244H372.497L370.957 166.852H368.646Z" fill="white"/>
<path d="M353.24 166.852L352.469 172.244H349.388L350.929 166.852H353.24Z" fill="white"/>
<path d="M340.144 174.555L341.685 173.014H374.808L382.512 173.785L383.282 200.746L375.579 202.287L350.929 203.057L338.603 201.516L340.144 174.555Z" fill="white"/>
<path d="M340.138 199.566C340.237 199.452 340.237 199.452 340.229 199.346C340.108 197.752 340.094 196.151 340.088 194.655C340.1 191.983 340.12 189.417 340.238 186.737L340.388 184.482C340.388 184.482 340.342 182.456 340.41 180.528C340.372 178.607 341.082 176.073 340.991 176.294C340.857 173.099 340.476 170.884 339.374 176.096C339.061 177.615 338.123 179.952 337.917 181.464C337.71 182.975 337.578 184.054 337.578 184.054L337.46 186.734C337.342 189.414 337.33 192.086 337.318 194.758C337.332 196.359 337.346 197.961 337.466 199.554C337.474 199.661 337.589 199.759 337.589 199.759C338.763 201.166 339.762 200.236 340.138 199.566Z" fill="#F4774C"/>
<path d="M379.103 172.264C376.938 171.893 374.037 171.685 372.534 171.585C372.624 171.364 372.608 171.152 372.698 170.931C372.862 170.278 372.913 169.526 372.864 168.889C372.922 168.243 372.89 167.818 372.89 167.818L372.858 167.393L372.802 166.65L372.568 164.958L370.86 164.98L369.577 164.97C369.038 164.904 368.506 164.944 367.983 165.09L366.504 165.309L366.827 168.169L367.045 169.649C367.094 170.286 367.24 170.809 367.288 171.447L352.972 171.459C352.964 171.353 353.07 171.345 353.062 171.239C353.234 170.692 353.399 170.038 353.571 169.491C353.637 168.952 353.712 168.519 353.712 168.519C353.663 167.881 353.615 167.244 353.567 166.606L353.495 165.65L352.621 165.396C352.074 165.223 351.755 165.247 351.436 165.272C351.118 165.296 350.905 165.312 350.594 165.442C350.488 165.45 350.284 165.572 350.071 165.588L349.442 165.743L348.297 166.15L348.261 168.503C348.293 168.928 348.227 169.467 348.259 169.892C348.291 170.317 348.332 170.848 348.372 171.379C348.372 171.379 348.372 171.379 348.38 171.486L345.92 171.458L341.115 171.5C341.009 171.508 340.911 171.622 340.911 171.622C339.406 172.911 340.336 173.909 341.005 174.286C341.12 174.384 341.12 174.384 341.226 174.376L346.031 174.334L369.114 174.407L371.361 174.451C371.361 174.451 379.443 173.948 379.01 173.874C382.296 173.519 384.282 172.941 379.103 172.264ZM351.37 171.473C351.362 171.367 351.346 171.155 351.338 171.049C351.314 170.73 351.29 170.411 351.266 170.092C351.42 170.722 351.567 171.245 351.567 171.245C351.575 171.351 351.575 171.351 351.689 171.449L351.37 171.473ZM370.18 171.549C370.018 170.813 369.962 170.069 369.906 169.326L369.679 167.74L369.998 167.716L370.022 168.035C370.022 168.035 370.299 168.869 370.567 169.596C370.836 170.324 371.105 171.052 371.105 171.052C371.113 171.158 371.235 171.362 371.349 171.46L370.18 171.549Z" fill="#F4774C"/>
<path d="M384.129 193.468C384.123 191.972 384.149 190.902 384.149 190.902L383.948 188.246C383.822 185.157 383.703 182.174 383.797 179.176C383.898 177.672 383.99 176.063 384.196 174.551C384.188 174.445 384.18 174.339 384.074 174.347C383.096 172.711 381.861 173.339 381.378 174.016C381.28 174.13 381.28 174.13 381.288 174.237C381.089 175.854 380.891 177.472 380.807 179.188C380.721 182.293 380.741 185.39 380.974 188.47L381.15 190.808C381.15 190.808 381.409 192.818 381.659 194.722C381.91 196.627 382.161 198.531 382.153 198.425C382.323 199.267 382.379 200.01 382.526 200.533C382.101 200.566 381.561 200.499 380.924 200.547C377.827 200.568 373.455 200.684 373.455 200.684L370.807 200.991C362.316 201.739 353.337 201.83 344.765 201.516C343.156 201.424 340.314 200.256 338.705 200.164C338.598 200.172 338.5 200.287 338.5 200.287C336.987 201.469 337.819 202.582 338.382 202.967C338.496 203.065 338.496 203.065 338.602 203.057C340.212 203.149 343.934 203.841 345.536 203.827C354.213 204.133 362.427 204.615 371.13 203.851L373.468 203.675C373.468 203.675 373.999 203.635 374.734 203.472C375.47 203.31 376.418 203.131 377.472 202.945C379.475 202.58 381.363 202.117 381.151 202.133C381.886 201.971 382.508 201.71 383.031 201.564C383.145 201.662 383.251 201.654 383.235 201.441C384.274 201.042 384.674 200.692 383.49 200.567C383.556 200.028 383.72 199.375 383.754 198.411C384.059 196.785 384.135 194.963 384.129 193.468Z" fill="#F4774C"/>
<path d="M349.316 179.642C349.831 179.389 350.256 179.357 350.697 179.538C350.697 179.538 350.795 179.424 350.902 179.415C351.515 179.049 352.128 178.682 352.195 178.143C352.269 177.71 352.008 177.088 351.665 176.794C351.551 176.695 351.551 176.695 351.445 176.703C350.358 176.465 349.19 176.553 348.151 176.952C347.113 177.351 346.311 178.053 345.73 178.844C344.952 179.865 344.419 181.294 344.532 182.781C344.556 183.1 344.694 183.517 344.718 183.836C344.848 184.146 344.979 184.457 345.109 184.768C345.362 185.283 345.835 185.888 346.3 186.387C347.1 187.075 348.096 187.534 349.174 187.666C349.174 187.666 349.926 187.716 350.874 187.538C351.822 187.359 352.951 186.74 353.851 185.924C354.243 185.467 354.636 185.01 354.915 184.455C355.194 183.899 355.366 183.352 355.334 182.927C355.368 181.963 355.107 181.342 355.115 181.448C354.716 180.41 353.924 179.828 353.369 179.55C352.814 179.271 352.381 179.197 352.169 179.213C351.956 179.229 352.078 179.433 352.323 179.842C352.437 179.941 352.551 180.039 352.559 180.145C352.674 180.243 352.796 180.448 352.91 180.546C353.147 180.849 353.391 181.257 353.431 181.789C353.626 182.949 352.431 184.108 351.393 184.507C350.878 184.759 350.347 184.8 350.028 184.824C349.709 184.848 349.497 184.864 349.497 184.864C348.966 184.904 348.41 184.625 348.068 184.331C347.839 184.134 347.603 183.832 347.464 183.415C347.342 183.21 347.334 183.104 347.22 183.006C347.212 182.899 347.089 182.695 347.188 182.581C347.139 181.943 347.304 181.29 347.787 180.612C348.392 180.139 348.899 179.78 349.316 179.642Z" fill="#F4774C"/>
<path d="M376.347 181.02C376.225 180.816 376.217 180.71 376.217 180.71C375.613 179.793 374.936 179.31 374.282 179.146C373.727 178.867 373.294 178.793 373.089 178.916C372.877 178.932 372.999 179.136 373.244 179.545C373.472 179.741 373.701 179.938 373.937 180.241C374.174 180.543 374.525 180.944 374.671 181.467C374.801 181.778 374.817 181.99 374.735 182.317C374.645 182.538 374.563 182.864 374.367 183.093C374.08 183.542 373.467 183.909 372.951 184.161C372.436 184.414 371.905 184.454 371.594 184.584C371.276 184.608 371.063 184.624 371.063 184.624C370.426 184.673 369.879 184.5 369.438 184.32C368.874 183.935 368.499 183.215 368.435 182.366C368.403 181.941 368.379 181.622 368.568 181.287C368.65 180.96 368.846 180.732 369.141 180.389C369.836 179.696 371.201 179.379 372.5 179.601C372.606 179.593 372.705 179.479 372.705 179.479C373.416 178.998 373.801 178.435 373.769 178.01C373.737 177.585 373.378 177.077 373.035 176.783C372.921 176.685 372.921 176.685 372.815 176.693C371.843 176.552 370.886 176.625 369.946 176.909C368.998 177.088 368.074 177.585 367.166 178.294C366.569 178.874 366.086 179.551 365.823 180.319C365.561 181.087 365.519 181.945 365.575 182.688C365.737 183.424 365.793 184.168 366.168 184.887C366.543 185.607 367.024 186.318 367.808 186.793C368.706 187.367 369.793 187.605 370.757 187.639C370.757 187.639 371.394 187.591 372.342 187.413C373.176 187.136 374.313 186.623 375.205 185.701C376.105 184.885 376.752 183.554 376.565 182.5C376.607 181.642 376.477 181.331 376.347 181.02Z" fill="#F4774C"/>
<path d="M377.185 192.465L377.079 192.473C376.752 192.391 376.433 192.415 376.114 192.439C375.673 192.259 373.205 193.178 371.693 192.972C368.67 192.559 364.586 192.636 364.586 192.636L361.914 192.624L353.261 192.636L347.617 190.789C347.511 190.797 347.413 190.911 347.413 190.911C346.913 191.376 346.619 191.719 346.651 192.144C342.933 192.425 346.226 192.176 345.057 192.264C345.065 192.37 345.065 192.37 345.073 192.477C345.089 192.689 345.105 192.902 345.13 193.22C345.17 193.751 345.104 194.291 345.104 194.291C345.104 194.291 345.577 194.896 345.683 194.888C345.797 194.986 346.018 195.076 346.238 195.167C346.18 195.812 346.751 196.303 347.094 196.598C347.208 196.696 347.208 196.696 347.315 196.688L352.959 198.536L362.143 198.483L364.382 198.421C364.382 198.421 372.464 197.917 372.031 197.843C372.669 197.795 374.581 196.187 375.006 196.155C375.128 196.36 375.243 196.458 375.243 196.458C375.585 196.753 376.239 196.917 376.836 196.338C377.237 195.987 377.516 195.432 377.516 195.432C377.516 195.432 377.46 194.688 377.411 194.05C377.387 193.732 377.185 192.465 377.339 193.094C377.193 192.571 377.185 192.465 377.185 192.465ZM374.765 195.328C374.439 195.246 372.442 196.21 372.009 196.135C368.3 196.688 364.202 196.688 364.202 196.688L353.973 196.458L350.519 196.136L348.095 193.712C348.945 193.648 371.859 194.888 371.533 194.806C371.958 194.774 374.334 193.865 374.645 193.735C374.661 193.947 374.685 194.266 374.701 194.478C374.725 194.797 374.749 195.116 374.765 195.328Z" fill="#F4774C"/>
<path d="M369.194 227.033C368.946 227.528 368.515 228.132 368.084 228.736C367.654 229.341 367.121 229.857 366.588 230.374L365.18 231.91C364.917 232.215 364.647 232.426 364.384 232.732C364.216 233.031 363.946 233.241 363.778 233.54L362.741 234.952L362.486 235.353L362.405 235.549L362.318 235.651L363.542 235.463C365.146 235.247 366.749 235.031 368.36 234.909L369.023 234.859L369.592 234.816L370.736 234.825C371.494 234.768 372.259 234.805 372.929 234.85L373.213 234.828L373.498 234.807L373.789 234.88L374.947 235.079L375.523 235.13L375.814 235.204L376.004 235.189L376.098 235.182C376.098 235.182 376.098 235.182 376.091 235.087L376.1 233.943L376.109 232.799L376.147 232.034L376.25 230.883C376.325 229.353 376.495 227.816 376.665 226.278C376.834 224.741 376.902 223.116 376.774 221.41C376.709 220.558 376.652 219.8 376.486 218.86C376.457 218.481 376.334 218.109 376.21 217.737L376.073 217.176L375.956 216.899L375.949 216.804C375.949 216.804 375.949 216.804 375.854 216.811L375.665 216.825L373.661 216.786L364.312 216.635L359.641 216.606C358.016 216.538 356.588 216.551 355.058 216.476C353.527 216.401 351.902 216.333 350.197 216.462C349.818 216.49 349.344 216.526 348.972 216.65C348.688 216.671 348.309 216.7 347.93 216.728C347.551 216.757 346.983 216.8 346.334 217.039C345.685 217.279 345.16 217.89 344.911 218.386C344.32 219.383 344.296 220.338 344.171 221.205C344.141 222.065 344.205 222.917 344.168 223.682L344.254 224.819C344.275 225.103 344.209 225.49 344.238 225.869L344.227 228.251C344.24 229.68 344.259 231.203 344.367 232.624C344.374 232.719 344.476 232.806 344.476 232.806C344.992 233.339 345.378 233.405 345.757 233.376C345.298 233.602 345.99 233.931 348.489 234.218C349.837 234.402 351.469 234.565 352.817 234.749C353.108 234.822 353.487 234.794 353.684 234.874C353.975 234.947 354.165 234.933 354.354 234.919C354.74 234.985 355.024 234.963 355.024 234.963C355.505 235.022 356.081 235.074 356.649 235.031C356.934 235.01 357.225 235.083 357.509 235.062C357.888 235.033 358.267 235.004 358.741 234.968C358.93 234.954 359.207 234.838 359.397 234.824C359.586 234.809 359.951 234.591 360.133 234.482C360.95 233.944 361.476 233.333 361.914 232.823L362.439 232.212C362.614 232.008 362.702 231.906 362.965 231.601L364.016 230.378C364.717 229.563 365.424 228.842 366.132 228.122C366.84 227.401 367.65 226.768 368.379 226.332C368.744 226.114 369.116 225.991 369.4 225.969C369.495 225.962 369.589 225.955 369.589 225.955C369.589 225.955 369.589 225.955 369.684 225.948L369.786 226.035C369.786 226.035 369.786 226.035 369.793 226.13C369.443 226.538 369.362 226.734 369.194 227.033ZM371.944 225.587C371.82 225.215 371.697 224.843 371.391 224.58C371.078 224.223 370.678 223.967 370.19 223.813C369.702 223.66 369.221 223.601 368.842 223.629C367.989 223.694 367.348 224.028 366.801 224.355C365.707 225.009 364.904 225.737 364.014 226.567C363.218 227.389 362.518 228.204 361.817 229.019L360.766 230.242C360.678 230.344 360.416 230.65 360.24 230.853L359.715 231.465C359.365 231.872 358.919 232.287 358.65 232.498C358.467 232.607 358.467 232.607 358.19 232.723C358.001 232.738 357.724 232.854 357.534 232.868C357.439 232.875 357.25 232.89 357.155 232.897L357.06 232.904L356.871 232.918L356.587 232.94C356.113 232.975 355.727 232.909 355.246 232.85C355.246 232.85 354.772 232.886 354.102 232.841C353.344 232.899 352.491 232.963 351.631 232.933C349.926 233.062 348.126 233.198 348.315 233.183C347.368 233.255 346.617 233.407 346.056 233.544C346.326 233.333 346.501 233.13 346.669 232.831C346.757 232.729 346.757 232.729 346.749 232.634C346.649 231.308 346.637 229.88 346.631 228.546L346.649 226.258C346.62 225.879 346.687 225.493 346.651 225.019L346.558 223.788C346.501 223.03 346.443 222.272 346.488 221.601C346.533 220.931 346.672 220.254 346.84 219.955C346.92 219.758 347.015 219.751 347.103 219.649C347.198 219.642 347.475 219.526 347.759 219.504C348.138 219.476 348.517 219.447 348.991 219.411C349.37 219.383 349.741 219.26 350.026 219.238C351.447 219.131 352.977 219.206 354.507 219.281C356.037 219.356 357.75 219.322 359.185 219.404L363.856 219.432L373.111 219.591L373.395 219.569C373.54 220.225 373.597 220.983 373.654 221.741C373.761 223.163 373.686 224.693 373.517 226.23C373.442 227.76 373.272 229.298 373.109 230.93L373.013 232.176L373.042 232.555L372.655 232.488C371.796 232.458 371.03 232.421 370.171 232.39C369.792 232.419 369.413 232.448 368.932 232.389L367.795 232.474L367.97 232.271C368.496 231.659 369.028 231.143 369.547 230.436C370.072 229.825 370.591 229.119 371 228.23C371.255 227.83 371.409 227.342 371.454 226.672C372.001 226.345 371.972 225.966 371.944 225.587Z" fill="#F4774C"/>
<path d="M397.296 250.923C396.765 250.2 396.241 249.573 395.629 249.047C395.324 248.785 395.018 248.522 394.625 248.361C394.61 248.172 394.407 247.996 394.006 247.741C393.307 247.317 392.331 247.01 392.331 247.01C392.331 247.01 390.801 246.935 389.278 246.954C388.513 246.917 387.755 246.974 387.179 246.922C387.085 246.93 386.895 246.944 386.8 246.951C386.786 246.762 386.874 246.66 386.859 246.47C387.227 243.774 387.503 239.847 387.503 239.847L387.513 237.464L387.475 233.179C387.477 231.94 387.384 230.709 387.393 229.565C389.106 229.531 391.678 229.527 391.678 229.527C391.678 229.527 391.773 229.52 391.962 229.506L391.993 233.696L392.027 235.408L392.082 237.405C392.082 237.405 392.531 244.613 392.605 244.321C392.914 247.156 393.497 249.501 394.006 244.889C394.374 242.194 394.683 237.78 394.683 237.78L394.694 235.397L394.66 233.685L394.622 229.4C394.615 229.305 394.513 229.218 394.513 229.218C394.309 229.042 394.2 228.86 393.996 228.685C394.259 228.379 394.231 228 393.444 227.679C393.539 227.671 393.539 227.671 393.532 227.577C394.173 227.242 394.611 226.733 393.519 226.148C392.82 225.725 391.946 225.505 391.946 225.505C391.946 225.505 387.377 225.564 386.422 225.541C386.488 225.155 386.635 224.572 386.679 223.902C387.04 221.111 387.221 217.191 387.221 217.191L387.137 214.815L386.997 210.443C386.999 209.204 386.913 208.067 386.915 206.828C388.532 206.801 391.484 206.769 391.484 206.769C391.484 206.769 391.856 206.646 392.227 206.522L392.251 210.618L392.319 214.043L392.374 216.04C392.374 216.04 392.823 223.247 392.897 222.956C393.206 225.791 393.823 227.65 394.332 223.038C394.7 220.342 394.975 216.415 394.975 216.415L394.986 214.032L395.013 210.6L394.975 206.315C394.968 206.22 394.866 206.133 394.866 206.133C394.553 205.775 394.247 205.512 393.956 205.439C393.942 205.249 393.731 204.98 393.337 204.819C392.638 204.395 391.764 204.175 391.764 204.175C391.764 204.175 386.146 204.218 386.051 204.226C386.051 204.226 386.058 204.32 385.964 204.327C385.89 204.619 385.817 204.91 385.838 205.194C385.263 205.143 384.818 205.557 384.562 205.958C384.475 206.06 384.475 206.06 384.482 206.154C384.517 206.628 384.451 207.014 384.487 207.488C383.686 206.977 382.971 207.602 382.723 208.098C382.635 208.2 382.635 208.2 382.642 208.294L382.68 212.579L382.831 234.769L382.887 236.765C382.887 236.765 383.336 243.973 383.409 243.682C383.459 244.345 383.597 244.906 383.633 245.38C383.145 245.226 382.569 245.174 381.702 245.049C378.999 244.586 375.065 244.217 375.065 244.217L359.908 244.122C357.139 244.046 354.282 244.071 351.506 243.899L349.4 243.773C348.635 243.735 347.972 243.785 347.207 243.748C345.778 243.76 344.35 243.773 343.016 243.778C341.588 243.791 340.247 243.702 338.9 243.517C338.805 243.525 338.717 243.627 338.717 243.627C338.17 243.954 337.907 244.259 337.841 244.645C337.995 244.157 338.04 243.487 338.158 242.525C338.526 239.83 338.801 235.902 338.801 235.902L338.811 233.519L338.68 212.853L338.692 209.231L341.738 209.192C344.5 209.174 347.255 209.061 350.017 209.043C351.35 209.038 352.779 209.025 354.119 209.114C355.46 209.204 356.896 209.286 358.324 209.273C361.093 209.35 363.949 209.325 366.704 209.212L370.887 209.087L373.642 208.974C373.642 208.974 380.821 208.146 380.442 208.175C383.27 207.771 385.122 207.059 380.429 206.746C377.646 206.48 373.733 206.394 373.733 206.394L371.168 206.493L366.985 206.618C364.135 206.738 361.373 206.756 358.604 206.679C357.176 206.692 355.835 206.603 354.4 206.521C352.964 206.438 351.536 206.451 350.108 206.464C347.251 206.489 344.395 206.514 341.64 206.627L337.45 206.657C337.355 206.664 337.268 206.766 337.268 206.766C336.728 207.188 336.567 207.581 336.595 207.96L336.633 207.195C336.626 207.101 336.524 207.013 336.524 207.013C336.524 207.013 336.517 206.918 336.422 206.925C336.51 206.823 336.597 206.722 336.685 206.62C336.758 206.328 336.547 206.058 335.957 205.817C335.258 205.393 334.187 205.093 334.187 205.093C333.138 205.077 331.994 205.068 330.945 205.052C330.376 205.095 329.895 205.036 329.327 205.079C329.043 205.101 328.758 205.122 328.474 205.144C328.285 205.158 328.19 205.165 328.001 205.179C327.906 205.186 327.811 205.194 327.716 205.201C327.622 205.208 327.622 205.208 327.439 205.317C327.345 205.324 327.257 205.426 327.257 205.426C326.98 205.542 326.717 205.848 326.644 206.139L326.563 206.336L326.578 206.525C326.585 206.62 326.592 206.715 326.599 206.81C326.606 206.904 326.606 206.904 326.613 206.999C326.621 207.094 326.723 207.181 326.73 207.276C326.832 207.364 326.839 207.459 326.933 207.451L326.957 211.547L326.952 215.263L327.007 217.26C327.007 217.26 327.456 224.468 327.53 224.176C327.724 225.495 327.898 226.53 328.116 226.895C328.13 227.085 328.137 227.179 328.152 227.369C328.152 227.369 328.159 227.464 328.064 227.471C327.998 227.857 327.939 228.338 327.961 228.622C327.494 228.752 327.231 229.058 327.063 229.357C326.976 229.459 326.976 229.459 326.983 229.553L327.021 233.838L327.069 235.74L327.124 237.737C327.124 237.737 327.573 244.945 327.647 244.653C327.711 245.506 327.863 246.257 328.001 246.818L328.008 246.913C327.774 247.597 327.817 248.166 327.852 248.639C327.67 248.749 327.575 248.756 327.393 248.865C326.758 249.294 326.226 249.81 325.693 250.327C325.262 250.931 324.824 251.441 324.495 252.133C323.831 253.422 323.362 254.791 323.178 256.139L323.039 256.816C323.053 257.006 322.973 257.202 322.987 257.392L322.935 257.967L322.978 258.536C322.978 258.536 322.985 258.631 323.007 258.915C323.021 259.104 323.05 259.483 323.173 259.855C323.325 260.606 323.783 261.619 324.416 262.429C325.048 263.239 325.856 263.845 326.453 264.181C327.051 264.517 327.444 264.678 327.437 264.583C328.908 265.139 330.147 265.141 330.424 265.025C330.518 265.017 330.511 264.923 330.504 264.828C330.876 264.705 331.241 264.486 331.409 264.188C331.496 264.086 331.496 264.086 331.489 263.991L331.6 262.935L331.659 262.454L331.718 261.973L331.829 260.917L330.758 260.616C330.561 260.536 330.372 260.55 330.27 260.463L330.073 260.382C329.869 260.207 329.673 260.127 329.469 259.951C329.054 259.506 328.625 258.872 328.386 258.223C328.269 257.946 328.241 257.567 328.219 257.283L328.176 256.714L328.235 256.233C328.419 254.885 329.295 253.866 330.586 253.292C331.235 253.053 331.986 252.901 332.649 252.851C333.407 252.794 333.989 252.94 334.579 253.181C335.169 253.423 335.584 253.868 335.911 254.415C336.238 254.962 336.478 255.611 336.433 256.281C336.533 257.607 335.978 259.079 334.891 259.828L334.803 259.93L334.708 259.937L334.621 260.039L334.074 260.366L333.527 260.693L333.439 260.795L333.345 260.802L333.352 260.897L333.468 261.174C333.591 261.546 333.722 262.012 333.845 262.384L334.099 263.222C334.353 264.061 334.607 264.899 334.861 265.738L335.1 266.386L335.195 266.379L335.283 266.277L335.552 266.066C335.917 265.848 336.282 265.63 336.639 265.317L337.726 264.568C337.814 264.466 337.908 264.459 337.996 264.357L338.171 264.154L338.441 263.943C338.799 263.63 339.156 263.317 339.506 262.909C340.12 262.196 340.718 261.293 341.128 260.405C341.939 258.533 342.059 256.333 341.435 254.379C340.761 251.762 338.964 249.42 336.488 248.178C336.846 247.865 336.817 247.486 336.023 247.07C335.725 246.902 335.332 246.741 335.04 246.667C335.23 246.653 335.45 245.779 335.685 243.855C336.054 241.16 336.329 237.232 336.329 237.232L336.339 234.85L336.334 233.516L336.296 229.231C336.289 229.136 336.187 229.049 336.187 229.049C335.976 228.779 335.772 228.604 335.576 228.523C335.561 228.334 335.445 228.057 334.95 227.808C335.417 227.678 336.546 227.497 336.546 227.497C336.641 227.49 336.641 227.49 336.729 227.388L336.793 233.291L336.849 235.287C336.849 235.287 337.298 242.495 337.371 242.204C337.63 244.376 338.036 245.965 338.403 244.508C338.41 244.603 338.417 244.697 338.424 244.792C338.46 245.266 338.773 245.623 339.071 245.791C339.173 245.879 339.173 245.879 339.268 245.872C340.711 246.049 342.241 246.124 343.669 246.111C344.718 246.127 345.761 246.048 346.81 246.064C346.649 246.458 346.59 246.939 346.611 247.223C346.233 247.251 345.963 247.462 345.78 247.571C345.685 247.579 345.686 247.579 345.693 247.673C345.707 247.863 346.035 258.51 346.035 258.51C346.035 258.51 346.569 261.804 346.65 261.608C346.766 261.885 346.794 262.264 346.904 262.446C346.596 263.422 346.843 264.166 347.061 264.53L347.068 264.625C346.995 264.916 347.009 265.106 347.023 265.295C346.63 265.135 346.346 265.156 346.164 265.265C346.069 265.272 346.069 265.272 346.076 265.367C346.003 265.658 345.833 267.196 345.86 268.813C345.792 270.438 345.812 271.962 345.812 271.962C345.812 271.962 346.239 273.835 346.327 273.733C346.327 273.733 346.327 273.733 346.334 273.828C345.474 273.797 344.527 273.869 343.586 274.035C342.741 274.194 341.801 274.361 340.882 274.811C340.699 274.92 340.422 275.036 340.247 275.24L339.882 275.458L339.62 275.764C339.269 276.172 338.926 276.674 338.772 277.162C338.37 278.145 338.354 279.194 338.433 280.237C338.606 281.272 338.969 282.292 339.792 283.088C340.105 283.445 340.607 283.788 341.095 283.942C341.685 284.183 342.158 284.148 342.545 284.214C343.404 284.244 344.155 284.092 344.818 284.042C344.913 284.035 345.001 283.933 345.001 283.933C345.446 283.518 345.607 283.125 345.578 282.746C345.68 282.834 345.775 282.827 345.971 282.907C346.452 282.966 347.123 283.011 348.281 283.209C349.629 283.393 351.268 283.65 352.609 283.74C353.957 283.924 354.999 283.845 354.999 283.845C355.473 283.809 355.852 283.781 356.318 283.65L356.974 283.505L357.353 283.477L357.543 283.462L357.82 283.346C358.658 283.092 359.686 282.824 360.583 282.089C360.853 281.878 361.109 281.478 361.277 281.179L361.284 281.274C361.495 281.544 361.604 281.726 361.815 281.996C362.019 282.172 362.222 282.347 362.426 282.522C363.227 283.033 364.101 283.253 364.779 283.392C365.551 283.525 366.323 283.657 366.994 283.701C367.088 283.694 367.176 283.592 367.176 283.592C367.811 283.163 368.066 282.763 368.038 282.384C368.132 282.377 368.234 282.464 368.424 282.45C368.905 282.509 369.575 282.554 370.719 282.563C372.067 282.747 373.706 283.004 375.047 283.093C376.387 283.183 377.43 283.104 377.43 283.104C377.903 283.068 378.37 282.938 378.749 282.909C378.938 282.895 379.215 282.779 379.405 282.764L379.777 282.641C379.871 282.634 379.871 282.634 379.966 282.627L380.243 282.51C380.987 282.264 382 281.806 382.701 280.991C383.402 280.176 383.797 279.098 383.711 277.961C383.668 277.392 383.538 276.926 383.407 276.459C383.182 276 383.051 275.533 382.738 275.176C382.2 274.359 381.196 273.672 380.227 273.46C379.258 273.247 378.398 273.217 377.64 273.274C377.261 273.302 376.875 273.236 376.496 273.265C376.678 273.156 376.759 272.959 376.927 272.661C377.256 271.969 377.279 271.014 377.279 271.014C377.279 271.014 377.25 270.635 377.12 270.169C376.989 269.702 376.932 268.944 376.787 268.288C376.737 267.625 376.592 266.969 376.651 266.488C376.615 266.014 376.689 265.723 376.682 265.628C376.682 265.628 376.587 265.635 376.58 265.541C375.895 265.307 375.225 265.262 374.758 265.392C374.649 265.21 374.351 265.042 373.957 264.881C373.164 264.465 371.998 264.172 371.998 264.172C371.998 264.172 371.517 264.113 370.854 264.163C370.184 264.118 369.229 264.095 368.274 264.072C367.32 264.049 366.278 264.127 365.52 264.184C365.425 264.192 365.33 264.199 365.236 264.206C365.228 264.111 365.221 264.016 365.126 264.024L365.119 263.929C367.116 263.873 372.931 263.911 372.931 263.911C372.931 263.911 375.468 263.433 375.373 263.44C376.401 263.172 377.021 262.554 375.36 262.012C374.377 261.61 373.022 261.331 373.022 261.331C373.022 261.331 368.067 261.324 365.691 261.408C365.695 258.931 365.626 250.456 365.626 250.456C365.626 250.456 365.36 248.189 365.208 247.438C367.205 247.383 372.634 247.354 372.634 247.354C372.634 247.354 373.479 247.195 374.135 247.05C374.157 247.334 374.192 247.808 374.235 248.376C374.314 249.419 374.319 250.752 374.325 252.086C374.33 253.419 374.343 254.847 374.327 255.897C374.311 256.946 374.361 257.609 374.361 257.609C374.361 257.609 374.375 257.799 374.499 258.171C374.52 258.455 374.651 258.921 374.774 259.293C374.933 260.139 375.373 262.016 375.373 262.016C375.613 262.665 375.843 262.282 376.032 262.268C376.324 262.341 376.578 261.73 376.689 260.673C376.733 260.003 376.865 259.231 376.917 258.655C376.969 258.079 377.028 257.598 377.028 257.598C377.028 257.598 376.978 256.935 376.994 255.886C377.01 254.837 377.005 253.503 376.992 252.075C376.979 250.646 376.967 249.218 376.881 248.081C376.795 246.944 376.643 246.194 376.643 246.194C377.212 246.151 377.875 246.101 378.545 246.145C380.258 246.111 381.963 245.982 381.868 245.99C382.816 245.918 383.574 245.861 384.135 245.723C384.367 246.277 384.564 246.358 384.784 245.483L384.777 245.389C384.836 244.908 384.982 244.325 385.1 243.363C385.211 242.307 385.315 241.156 385.425 240.099C385.568 241.994 385.796 246.265 385.876 246.068C385.926 246.731 386.064 247.292 386.1 247.766C385.458 248.101 384.823 248.53 384.283 248.951C382.941 250.101 382.013 251.696 381.661 253.342C381.5 253.735 381.441 254.216 381.47 254.595L381.411 255.076C381.418 255.171 381.418 255.171 381.425 255.265L381.381 255.936L381.431 256.599L381.481 257.262C381.481 257.262 381.488 257.357 381.604 257.634C381.619 257.823 381.742 258.195 381.858 258.472C382.105 259.216 382.461 260.142 383.094 260.952C384.177 262.68 385.779 263.703 385.67 263.52C386.973 264.375 388.321 264.559 388.598 264.443C388.692 264.435 388.685 264.341 388.576 264.158C389.152 264.21 389.597 263.795 389.853 263.395C389.94 263.293 389.94 263.293 389.933 263.198L389.901 260.247L389.879 259.963L389.872 259.868L389.777 259.875L389.289 259.722C388.998 259.648 388.612 259.582 388.226 259.516L387.934 259.443C387.839 259.45 387.832 259.355 387.738 259.362C387.636 259.275 387.541 259.282 387.439 259.194C387.039 258.939 386.733 258.676 386.602 258.209C386.472 257.743 386.436 257.269 386.488 256.693C386.686 255.535 387.366 254.436 388.161 253.613C389.051 252.784 390.159 252.319 391.209 252.335C391.304 252.328 391.493 252.314 391.595 252.401C391.69 252.394 391.886 252.474 391.981 252.467C392.178 252.548 392.469 252.621 392.673 252.796C393.168 253.045 393.583 253.49 393.903 253.942C394.543 254.846 394.825 256.064 394.511 256.945C394.437 257.237 394.343 257.244 394.262 257.44C394.175 257.542 393.992 257.651 393.628 257.869C393.358 258.08 392.804 258.313 392.366 258.822C392.198 259.121 392.023 259.325 391.854 259.623C391.686 259.922 391.613 260.213 391.635 260.497C391.583 261.073 391.619 261.547 391.749 262.013C391.771 262.297 392.032 263.23 392.359 263.777L392.809 264.696L393.035 265.156L393.042 265.25L393.129 265.149L393.406 265.032L394.325 264.582C394.602 264.466 394.967 264.247 395.237 264.037C395.966 263.6 396.141 263.397 396.506 263.178C396.769 262.873 397.126 262.56 397.389 262.254C398.009 261.636 398.426 260.842 398.748 260.055C399.069 259.269 399.289 258.395 399.421 257.622C399.546 256.755 399.577 255.896 399.425 255.145C398.858 253.949 398.256 252.279 397.296 250.923ZM338.51 256.029C338.475 255.555 338.432 254.987 338.301 254.52C338.417 254.797 338.432 254.987 338.548 255.264C338.947 256.758 338.865 258.194 338.301 259.57C337.973 260.262 337.637 260.859 337.104 261.376C336.841 261.681 336.571 261.892 336.308 262.198L336.039 262.409L335.908 261.942L336.09 261.833C337.79 260.371 338.573 258.12 338.51 256.029ZM328.234 262.522L328.532 262.69L328.54 262.785L328.524 263.834C328.32 263.659 328.028 263.586 327.825 263.41C327.322 263.067 326.813 262.629 326.391 262.089C325.969 261.55 325.642 261.003 325.511 260.536C325.286 260.077 325.25 259.603 325.222 259.224C325.193 258.845 325.179 258.656 325.179 258.656C325.143 258.182 325.107 257.708 325.166 257.227L325.18 257.417C325.223 257.985 325.361 258.546 325.491 259.013C325.854 260.034 326.4 260.945 327.127 261.748C327.426 261.916 327.833 262.266 328.234 262.522ZM334.372 250.434C334.08 250.361 333.884 250.28 333.592 250.207L332.82 250.075C332.536 250.096 332.347 250.11 332.055 250.037C331.013 250.116 330.073 250.282 329.059 250.74C328.41 250.979 327.776 251.408 327.236 251.83C327.499 251.525 327.769 251.314 328.038 251.103C328.848 250.47 329.862 250.012 330.999 249.926C332.136 249.841 333.287 249.944 334.27 250.346C334.277 250.441 334.372 250.434 334.372 250.434ZM333.791 243.999C333.993 245.413 334.18 246.637 334.384 246.812C333.991 246.651 333.801 246.666 333.801 246.666C333.801 246.666 329.99 246.668 328.373 246.695C328.431 246.214 328.571 245.536 328.696 244.669C329.064 241.973 329.339 238.046 329.339 238.046L329.35 235.663L329.301 233.761L329.292 229.855C330.815 229.836 333.009 229.86 333.009 229.86C333.009 229.86 333.103 229.853 333.286 229.744L333.295 233.65L333.3 234.984L333.356 236.98C333.268 237.082 333.717 244.29 333.791 243.999ZM333.807 211.411L333.78 214.843L333.741 216.847C333.741 216.847 333.877 218.647 333.918 220.454C334.054 222.254 334.183 223.96 334.169 223.77C334.219 224.433 334.356 224.995 334.392 225.468C334.297 225.475 334.196 225.388 334.196 225.388C334.196 225.388 332.665 225.313 331.04 225.245C330.275 225.207 329.415 225.177 328.847 225.22C328.658 225.234 328.468 225.249 328.279 225.263C328.352 224.972 328.33 224.687 328.397 224.301C328.765 221.606 329.04 217.678 329.04 217.678L329.05 215.295L329.056 211.579L329.046 207.673C329.52 207.637 330.001 207.696 330.475 207.66C331.524 207.676 332.573 207.692 333.623 207.708C333.623 207.708 333.623 207.708 333.717 207.701L333.807 211.411ZM336.067 226.199C335.769 226.031 335.572 225.951 335.375 225.87C335.434 225.39 335.581 224.807 335.611 223.947C335.715 222.796 335.906 221.543 336.003 220.297L336.067 226.199ZM347.334 261.842C347.715 260.574 347.87 258.848 347.87 258.848C347.87 258.848 347.589 251.341 347.484 248.681C349.962 248.685 354.72 248.611 354.72 248.611C354.72 248.611 355.945 248.424 356.695 248.272C356.622 248.563 356.658 249.037 356.599 249.518C356.59 250.662 356.508 252.097 356.615 253.518C356.628 254.947 356.735 256.368 356.814 257.41C356.892 258.452 356.943 259.115 356.943 259.115C356.943 259.115 357.102 259.961 357.261 260.806C357.42 261.652 357.572 262.403 357.565 262.308C357.681 262.585 357.702 262.869 357.812 263.052C357.71 262.964 357.513 262.884 357.222 262.81C356.238 262.408 354.883 262.129 354.883 262.129C354.883 262.129 349.265 262.172 347.072 262.148C347.261 262.133 347.349 262.031 347.334 261.842ZM347.735 272.197C347.735 272.197 347.716 270.674 347.783 269.049C347.821 268.284 347.858 267.519 347.91 266.944C347.896 266.754 347.889 266.659 347.976 266.557L348.071 266.55C348.836 266.588 349.791 266.611 350.833 266.532C352.837 266.572 354.841 266.611 354.841 266.611C354.841 266.611 356.444 266.394 357.005 266.257C356.925 266.453 356.939 266.643 356.939 266.643C356.939 266.643 356.977 270.928 357.018 272.735C356.436 272.588 355.86 272.537 355.86 272.537C355.86 272.537 350.336 272.573 347.764 272.576C347.75 272.387 347.735 272.197 347.735 272.197ZM358.443 280.25C358.181 280.556 357.728 280.876 357.072 281.021C356.795 281.137 356.329 281.267 356.234 281.274C356.044 281.289 355.855 281.303 355.673 281.412C355.294 281.441 354.922 281.564 354.543 281.593C354.543 281.593 354.164 281.621 353.508 281.766C352.845 281.816 351.992 281.881 351.139 281.945C349.427 281.979 347.627 282.115 347.816 282.101C346.395 282.208 345.28 282.578 345.017 282.884L345.01 282.789C344.886 282.417 344.479 282.067 344.18 281.899C344.078 281.811 344.078 281.811 343.984 281.818C343.226 281.876 342.562 281.926 341.994 281.969C341.71 281.99 341.418 281.917 341.418 281.917C341.316 281.829 341.12 281.749 341.011 281.566C340.392 280.946 340.088 279.445 340.49 278.461C340.564 278.17 340.739 277.966 340.819 277.77C340.907 277.668 341.082 277.464 341.359 277.348C341.811 277.028 342.467 276.883 343.131 276.833C344.545 276.631 346.075 276.706 347.78 276.577C349.391 276.455 350.914 276.436 352.524 276.314C353.282 276.257 354.047 276.294 354.813 276.332C355.578 276.369 356.343 276.407 356.926 276.553C357.508 276.7 357.807 276.868 358.127 277.32C358.236 277.502 358.352 277.78 358.468 278.057C358.585 278.334 358.613 278.713 358.729 278.99C358.772 279.558 358.706 279.944 358.443 280.25ZM357.467 264.793L357.379 264.895C357.284 264.902 357.182 264.814 357.182 264.814C356.891 264.741 356.592 264.573 356.396 264.492C356.957 264.355 357.518 264.217 357.518 264.217C357.708 264.203 357.795 264.101 357.985 264.087C357.708 264.203 357.627 264.399 357.467 264.793ZM376.9 276.093C377.665 276.13 378.328 276.08 378.904 276.132C379.48 276.184 379.785 276.447 380.098 276.804C380.411 277.162 380.643 277.716 380.774 278.183C380.94 279.123 380.524 279.916 379.408 280.287C379.131 280.403 378.759 280.526 378.57 280.54L378.009 280.678C377.637 280.801 377.258 280.83 376.879 280.859C376.879 280.859 376.507 280.982 375.844 281.032C375.181 281.082 374.328 281.147 373.475 281.211C371.763 281.245 369.963 281.381 370.159 281.461C368.745 281.664 367.63 282.034 367.367 282.339C367.339 281.96 367.026 281.603 366.727 281.435C366.625 281.347 366.625 281.347 366.531 281.354C365.86 281.31 365.183 281.17 364.505 281.031C363.922 280.884 363.34 280.738 362.939 280.482C362.539 280.227 362.43 280.044 362.401 279.665C362.372 279.286 362.607 278.602 362.76 278.114C362.928 277.815 363.286 277.502 363.833 277.175C364.387 276.943 365.036 276.703 365.692 276.558C367.004 276.269 368.418 276.067 369.941 276.047C371.362 275.939 372.892 276.015 374.321 276.002C375.377 276.113 376.142 276.15 376.9 276.093ZM365.338 269.344C365.273 268.491 365.311 267.726 365.268 267.157C365.363 267.15 365.363 267.15 365.457 267.143C366.121 267.093 366.973 267.028 367.833 267.059C368.693 267.089 369.647 267.112 370.318 267.157C370.988 267.202 371.462 267.166 371.462 267.166C371.462 267.166 372.023 267.028 372.592 266.985C373.153 266.848 373.721 266.805 373.619 266.717L373.714 266.71C373.721 266.805 373.729 266.9 373.736 266.994C373.779 267.563 373.836 268.321 373.981 268.977C374.133 269.727 374.183 270.391 374.313 270.857C374.444 271.324 374.472 271.703 374.472 271.703C374.472 271.703 374.69 272.067 374.814 272.439C375.032 272.804 375.155 273.176 375.155 273.176C375.155 273.176 375.163 273.27 375.257 273.263C374.274 272.861 372.919 272.582 372.919 272.582C372.919 272.582 367.585 272.604 365.399 272.674C365.384 272.484 365.458 272.193 365.429 271.814C365.277 271.063 365.307 270.203 365.338 269.344ZM363.299 247.392C362.925 248.754 362.682 250.583 362.682 250.583C362.682 250.583 362.797 262.199 362.811 262.388L362.913 262.476C363.212 262.644 363.503 262.717 363.795 262.79C363.816 263.074 363.838 263.359 363.852 263.548C363.67 263.657 363.589 263.854 363.421 264.152C362.997 264.851 362.704 266.017 362.704 266.017C362.704 266.017 362.733 266.396 362.688 267.066C362.731 267.635 362.701 268.495 362.765 269.347C362.823 270.105 362.792 270.965 362.74 271.541C362.689 272.116 362.622 272.502 362.622 272.502L362.724 272.59C363.219 272.838 363.606 272.905 363.992 272.971C363.758 273.655 363.801 274.224 363.924 274.596C363.647 274.712 363.37 274.828 363.093 274.944C362.269 275.388 361.357 275.933 360.86 276.923C360.86 276.923 360.867 277.018 360.772 277.025C360.656 276.748 360.635 276.464 360.431 276.289C360.206 275.829 359.879 275.282 359.376 274.939C359.172 274.764 358.867 274.501 358.575 274.428C359.13 274.195 359.392 273.89 359.087 273.627L359.181 273.62C359.276 273.613 359.276 273.613 359.276 273.613C359.269 273.518 359.242 266.85 359.242 266.85C359.242 266.85 358.8 264.787 358.713 264.889C358.487 264.43 358.269 264.065 357.985 264.087C358.167 263.977 358.35 263.868 358.335 263.679C358.532 263.759 358.788 263.359 358.993 262.295C359.272 260.94 359.42 259.119 359.42 259.119C359.42 259.119 359.37 258.455 359.284 257.319C359.206 256.276 359.098 254.855 359.093 253.522C359.08 252.093 359.075 250.76 359.091 249.711C359.107 248.661 359.246 247.984 359.246 247.984L359.144 247.896C358.839 247.633 358.445 247.473 358.161 247.494C358.147 247.305 357.841 247.042 357.164 246.902C356.967 246.822 356.77 246.741 356.479 246.668C357.434 246.691 358.293 246.722 359.248 246.745L363.445 246.809C363.54 246.802 363.365 247.006 363.299 247.392ZM385.137 222.398C385.201 223.251 385.251 223.914 385.244 223.82C385.351 225.241 385.539 226.465 385.838 226.633C385.94 226.721 385.94 226.721 386.027 226.619C386.034 226.714 386.041 226.808 386.049 226.903C386.049 226.903 386.049 226.903 385.954 226.91L385.866 227.012C385.793 227.304 385.72 227.595 385.741 227.879C385.464 227.995 385.282 228.104 385.107 228.308L385.137 222.398ZM386.524 262.217L386.815 262.29L386.837 262.575L386.814 263.529C386.61 263.354 386.304 263.091 386.093 262.821C385.678 262.376 385.257 261.836 384.828 261.202C384.828 261.202 384.828 261.202 384.82 261.107C385.031 261.377 385.33 261.545 385.628 261.713C385.832 261.888 386.029 261.969 386.225 262.049C386.327 262.137 386.429 262.224 386.524 262.217ZM392.501 250.522C392.305 250.442 392.013 250.369 391.817 250.288C391.62 250.208 391.336 250.229 391.139 250.149C390.177 250.031 389.237 250.197 388.406 250.546C387.575 250.894 386.75 251.338 386.13 251.956C384.788 253.106 383.86 254.7 383.515 256.442C383.515 256.442 383.515 256.442 383.508 256.347C383.494 256.157 383.479 255.968 383.465 255.778L383.444 255.494L383.436 255.399L383.503 255.013C383.694 253.76 384.176 252.58 384.965 251.663C385.41 251.248 385.855 250.834 386.402 250.507C386.949 250.179 387.503 249.947 388.159 249.802C389.376 249.52 390.703 249.419 391.875 249.807C393.041 250.1 394.148 250.874 394.889 251.867C395.304 252.312 395.639 252.953 395.871 253.508C395.864 253.413 395.762 253.325 395.755 253.23C395.311 252.406 394.598 251.793 393.892 251.275C393.39 250.932 392.989 250.676 392.501 250.522ZM396.191 259.01C395.803 260.182 395.022 261.194 394.03 261.936C393.848 262.045 393.942 262.038 393.848 262.045L393.833 261.856L393.819 261.666C393.812 261.572 393.798 261.382 393.791 261.287C393.776 261.098 393.857 260.901 393.85 260.806C393.93 260.61 393.937 260.704 394.112 260.501C394.295 260.392 394.754 260.166 395.206 259.846C395.659 259.526 396.096 259.017 396.345 258.522C396.425 258.325 396.506 258.128 396.499 258.034C396.338 258.427 396.264 258.718 396.191 259.01Z" fill="#F4774C"/>
</g>
<path fill-rule="evenodd" clip-rule="evenodd" d="M144.5 99C143.672 99 143 99.6716 143 100.5C143 101.328 143.672 102 144.5 102H409.5C410.328 102 411 101.328 411 100.5C411 99.6716 410.328 99 409.5 99H144.5ZM144.5 111C143.672 111 143 111.672 143 112.5C143 113.328 143.672 114 144.5 114H409.5C410.328 114 411 113.328 411 112.5C411 111.672 410.328 111 409.5 111H144.5ZM143 124.5C143 123.672 143.672 123 144.5 123H409.5C410.328 123 411 123.672 411 124.5C411 125.328 410.328 126 409.5 126H144.5C143.672 126 143 125.328 143 124.5ZM144.5 135C143.672 135 143 135.672 143 136.5C143 137.328 143.672 138 144.5 138H306.5C307.328 138 308 137.328 308 136.5C308 135.672 307.328 135 306.5 135H144.5ZM143 148.5C143 147.672 143.672 147 144.5 147H296.5C297.328 147 298 147.672 298 148.5C298 149.328 297.328 150 296.5 150H144.5C143.672 150 143 149.328 143 148.5ZM144.5 159C143.672 159 143 159.672 143 160.5C143 161.328 143.672 162 144.5 162H296.5C297.328 162 298 161.328 298 160.5C298 159.672 297.328 159 296.5 159H144.5Z" fill="#E6E6E6"/>
<rect x="143" y="176" width="143" height="72" rx="5" fill="#F5F5F5"/>
<circle cx="214" cy="212" r="17" fill="white"/>
<path d="M220 210.268C221.333 211.038 221.333 212.962 220 213.732L212.5 218.062C211.167 218.832 209.5 217.87 209.5 216.33L209.5 207.67C209.5 206.13 211.167 205.168 212.5 205.938L220 210.268Z" fill="#EDEDED"/>
<defs>
<filter id="filter0_d_1334_10890" x="0" y="0" width="455" height="289" filterUnits="userSpaceOnUse" color-interpolation-filters="sRGB">
<feFlood flood-opacity="0" result="BackgroundImageFix"/>
<feColorMatrix in="SourceAlpha" type="matrix" values="0 0 0 0 0 0 0 0 0 0 0 0 0 0 0 0 0 0 127 0" result="hardAlpha"/>
<feOffset/>
<feGaussianBlur stdDeviation="12.5"/>
<feComposite in2="hardAlpha" operator="out"/>
<feColorMatrix type="matrix" values="0 0 0 0 0 0 0 0 0 0 0 0 0 0 0 0 0 0 0.15 0"/>
<feBlend mode="normal" in2="BackgroundImageFix" result="effect1_dropShadow_1334_10890"/>
<feBlend mode="normal" in="SourceGraphic" in2="effect1_dropShadow_1334_10890" result="shape"/>
</filter>
</defs>
</svg>
