<svg width="629" height="355" viewBox="0 0 629 355" fill="none" xmlns="http://www.w3.org/2000/svg">
<g filter="url(#filter0_d_1059_6283)">
<rect x="45" y="51" width="430" height="254" rx="4" fill="white"/>
</g>
<path d="M45 55C45 52.7909 46.7909 51 49 51H471C473.209 51 475 52.7909 475 55V85H45V55Z" fill="#3C3A3E"/>
<path d="M45 85H151V305H49C46.7909 305 45 303.209 45 301V85Z" fill="#EDEDED"/>
<path fill-rule="evenodd" clip-rule="evenodd" d="M70.2968 70.7082C70.2968 73.1945 68.8548 74.4391 65.9709 74.4418H60C60 72.0479 63.6847 72.0584 65.2746 72.0629C65.3396 72.0631 65.4012 72.0633 65.4588 72.0633C66.6511 72.0633 67.246 71.5239 67.2435 70.4452C67.2435 69.3612 66.6499 68.8272 65.4588 68.8272H62.0912V66.473H65.4316C66.6227 66.473 67.2124 65.9512 67.2124 64.9156C67.2124 63.8801 66.6149 63.3785 65.4316 63.3785C65.2422 63.3785 65.0276 63.3841 64.7957 63.3902L64.7956 63.3902C62.9467 63.4387 60 63.516 60 61H65.4976C67.0805 61 68.1836 61.2036 68.807 61.6108C69.2754 61.9132 69.6574 62.341 69.9133 62.8497C70.1692 63.3584 70.2896 63.9293 70.2619 64.503C70.2859 65.1828 70.1139 65.8545 69.7681 66.4314C69.4223 67.0082 68.9186 67.4637 68.322 67.7391C69.6334 68.3216 70.2877 69.3194 70.2852 70.7324L70.2968 70.7082ZM109.344 64.6606C110.48 64.8692 111.504 65.5031 112.224 66.4432C112.943 67.3833 113.308 68.565 113.251 69.7661C113.194 70.9673 112.718 72.1052 111.912 72.9663C111.107 73.8273 110.028 74.3521 108.878 74.442C107.727 74.5319 106.585 74.1809 105.666 73.4547C104.746 72.7286 104.113 71.6774 103.884 70.4986C103.656 69.3198 103.848 68.0945 104.425 67.0531C105.001 66.0116 105.923 65.2256 107.017 64.8427C107.766 64.5808 108.566 64.5182 109.344 64.6606ZM81.1078 71.695C81.1078 73.5396 79.9128 74.4605 77.5229 74.4578H71.7344V64.6121H77.166C78.4541 64.6121 79.358 64.7698 79.8818 65.0773C80.2644 65.284 80.5829 65.5998 80.7999 65.988C81.017 66.3762 81.1238 66.8207 81.1078 67.2697C81.1146 67.7331 80.994 68.189 80.7603 68.5832C80.5265 68.9775 80.1894 69.2937 79.7887 69.4945C80.1985 69.6736 80.5459 69.9794 80.7838 70.3707C81.0218 70.762 81.1389 71.22 81.1194 71.6829L81.1078 71.695ZM78.4385 67.5609C78.4385 66.942 78.0234 66.6306 77.1893 66.6306H74.229V68.5196H77.1893C78.0234 68.5196 78.4385 68.2001 78.4385 67.5609ZM78.4385 71.4806C78.4385 70.8375 78.0273 70.5179 77.2048 70.5179H74.229V72.4433H77.2242C78.0467 72.4433 78.4579 72.1197 78.4579 71.4806H78.4385ZM102.679 74.4578H100.196V70.5543H96.6112V74.4578H94.1204V64.6121H96.6112V68.3861H100.196V64.6121H102.679V74.4578ZM123.994 74.4578H120.642L116.825 69.6806V74.4578H114.334V64.6121H116.825V69.3408L120.84 64.6121H124.018L119.63 69.4298L124.018 74.4578H123.994ZM109.213 66.9178C108.872 66.806 108.514 66.7685 108.159 66.8075C107.804 66.8465 107.461 66.9613 107.15 67.1446C106.84 67.3279 106.569 67.5759 106.354 67.8731C106.14 68.1703 105.986 68.5104 105.903 68.8722C105.82 69.2339 105.81 69.6096 105.872 69.9759C105.934 70.3421 106.068 70.6911 106.265 71.001C106.463 71.311 106.719 71.5753 107.018 71.7775C107.318 71.9797 107.654 72.1155 108.006 72.1764C108.391 72.257 108.789 72.2473 109.17 72.1481C109.726 72.0018 110.219 71.6681 110.574 71.1989C110.93 70.7297 111.126 70.1513 111.133 69.5538C111.14 68.9562 110.957 68.3729 110.614 67.8947C110.27 67.4165 109.784 67.0702 109.232 66.9097L109.213 66.9178ZM88.7586 66.7681C89.348 67.0673 89.8226 67.5659 90.1051 68.1826C90.3876 68.7993 90.4613 69.4976 90.3141 70.1636C90.1668 70.8296 89.8074 71.4238 89.2945 71.8493C88.7816 72.2749 88.1454 72.5065 87.49 72.5065C86.8345 72.5065 86.1983 72.2749 85.6854 71.8493C85.1725 71.4238 84.8131 70.8296 84.6659 70.1636C84.5186 69.4976 84.5923 68.7993 84.8748 68.1826C85.1573 67.5659 85.6319 67.0673 86.2213 66.7681V64.1348C84.9672 64.4579 83.8699 65.2485 83.1366 66.3573C82.4032 67.4661 82.0845 68.8164 82.2406 70.1534C82.3967 71.4904 83.0168 72.7216 83.9839 73.6146C84.951 74.5076 86.1981 75.0006 87.49 75.0006C88.7818 75.0006 90.0289 74.5076 90.996 73.6146C91.9631 72.7216 92.5832 71.4904 92.7393 70.1534C92.8954 68.8164 92.5767 67.4661 91.8433 66.3573C91.11 65.2485 90.0127 64.4579 88.7586 64.1348V66.7681ZM86.6007 70.9017C86.9701 71.1542 87.4201 71.2445 87.853 71.1529C88.18 71.0893 88.4814 70.9256 88.719 70.6828C88.9565 70.4399 89.1193 70.1288 89.1867 69.7892C89.2541 69.4496 89.223 69.0967 89.0974 68.7755C88.9718 68.4543 88.7574 68.1794 88.4815 67.9856C88.3142 67.8675 88.1274 67.7825 87.9306 67.7349V63.9648H87.1546V67.7349C86.7236 67.8352 86.3479 68.1089 86.1093 68.4964C85.8707 68.884 85.7885 69.354 85.8805 69.8044C85.9726 70.2548 86.2314 70.6491 86.6007 70.9017Z" fill="white"/>
<path fill-rule="evenodd" clip-rule="evenodd" d="M151 167.5V245V245.5L151 274H149V245.5L45 245.5V245L149 245L149 167.5L45 167.5V167L149 167V85H151V167V167.5ZM55 107C55 105.895 55.8954 105 57 105H133C134.105 105 135 105.895 135 107C135 108.105 134.105 109 133 109H57C55.8954 109 55 108.105 55 107ZM57 183C55.8954 183 55 183.895 55 185C55 186.105 55.8954 187 57 187H133C134.105 187 135 186.105 135 185C135 183.895 134.105 183 133 183H57ZM55 121C55 119.895 55.8954 119 57 119H113C114.105 119 115 119.895 115 121C115 122.105 114.105 123 113 123H57C55.8954 123 55 122.105 55 121ZM57 197C55.8954 197 55 197.895 55 199C55 200.105 55.8954 201 57 201H113C114.105 201 115 200.105 115 199C115 197.895 114.105 197 113 197H57ZM55 135C55 133.895 55.8954 133 57 133H122C123.105 133 124 133.895 124 135C124 136.105 123.105 137 122 137H57C55.8954 137 55 136.105 55 135ZM57 211C55.8954 211 55 211.895 55 213C55 214.105 55.8954 215 57 215H122C123.105 215 124 214.105 124 213C124 211.895 123.105 211 122 211H57ZM55 149C55 147.895 55.8954 147 57 147H100C101.105 147 102 147.895 102 149C102 150.105 101.105 151 100 151H57C55.8954 151 55 150.105 55 149ZM57 225C55.8954 225 55 225.895 55 227C55 228.105 55.8954 229 57 229H100C101.105 229 102 228.105 102 227C102 225.895 101.105 225 100 225H57ZM55 263C55 261.895 55.8954 261 57 261H113C114.105 261 115 261.895 115 263C115 264.105 114.105 265 113 265H57C55.8954 265 55 264.105 55 263ZM151 281L45 281V281.5L151 281.5V281Z" fill="#CBCBCB"/>
<path d="M182.981 114L183.702 111.848H186.983L187.707 114H189.395L186.318 105.273H184.366L181.294 114H182.981ZM184.128 110.578L185.308 107.062H185.376L186.557 110.578H184.128Z" fill="#3C3A3E"/>
<path d="M190.615 116.455C191.816 116.455 192.511 115.837 192.882 114.793L195.511 107.463L193.862 107.455L192.349 112.398H192.281L190.772 107.455H189.136L191.509 114.136L191.377 114.49C191.092 115.236 190.64 115.287 189.967 115.091L189.609 116.293C189.818 116.378 190.193 116.455 190.615 116.455Z" fill="#3C3A3E"/>
<path d="M195.475 115.901H196.992V114H201.274V115.901H202.766V112.73H201.752V107.455H197.022L196.834 109.747C196.71 111.213 196.549 112.3 195.995 112.73H195.475V115.901ZM197.58 112.73C197.993 112.121 198.147 111.132 198.257 109.747L198.36 108.699H200.277V112.73H197.58Z" fill="#3C3A3E"/>
<path d="M205.405 111.912V107.455H203.918V114H205.507L208.119 109.538V114H209.611V107.455H208.025L205.405 111.912Z" fill="#3C3A3E"/>
<path d="M214.05 114.128C215.968 114.128 217.186 112.777 217.186 110.753C217.186 108.724 215.968 107.369 214.05 107.369C212.132 107.369 210.914 108.724 210.914 110.753C210.914 112.777 212.132 114.128 214.05 114.128ZM214.059 112.892C212.997 112.892 212.478 111.946 212.478 110.749C212.478 109.551 212.997 108.592 214.059 108.592C215.103 108.592 215.622 109.551 215.622 110.749C215.622 111.946 215.103 112.892 214.059 112.892Z" fill="#3C3A3E"/>
<path d="M218.496 116.455H220.038V112.969H220.102C220.345 113.446 220.852 114.115 221.977 114.115C223.52 114.115 224.675 112.892 224.675 110.736C224.675 108.554 223.486 107.369 221.973 107.369C220.818 107.369 220.337 108.064 220.102 108.537H220.013V107.455H218.496V116.455ZM220.008 110.727C220.008 109.457 220.554 108.635 221.547 108.635C222.574 108.635 223.102 109.509 223.102 110.727C223.102 111.955 222.565 112.849 221.547 112.849C220.562 112.849 220.008 111.997 220.008 110.727Z" fill="#3C3A3E"/>
<path d="M228.851 114.128C230.768 114.128 231.987 112.777 231.987 110.753C231.987 108.724 230.768 107.369 228.851 107.369C226.933 107.369 225.714 108.724 225.714 110.753C225.714 112.777 226.933 114.128 228.851 114.128ZM228.859 112.892C227.798 112.892 227.278 111.946 227.278 110.749C227.278 109.551 227.798 108.592 228.859 108.592C229.903 108.592 230.423 109.551 230.423 110.749C230.423 111.946 229.903 112.892 228.859 112.892Z" fill="#3C3A3E"/>
<path d="M232.845 114H233.322C234.728 114 235.363 113.011 235.465 110.83L235.568 108.72H237.447V114H238.938V107.455H234.166L234.051 110.352C233.978 112.189 233.74 112.73 233.062 112.73H232.836L232.845 114Z" fill="#3C3A3E"/>
<path d="M241.979 111.912V107.455H240.492V114H242.081L244.693 109.538V114H246.185V107.455H244.6L241.979 111.912Z" fill="#3C3A3E"/>
<path d="M247.769 114H249.312V111.533H250.066L251.86 114H253.726L251.276 110.668L253.701 107.455H251.843L249.874 110.097H249.312V107.455H247.769V114Z" fill="#3C3A3E"/>
<path d="M256.088 111.912V107.455H254.601V114H256.191L258.803 109.538V114H260.294V107.455H258.709L256.088 111.912Z" fill="#3C3A3E"/>
<path fill-rule="evenodd" clip-rule="evenodd" d="M445 124H181V123H445V124ZM181 145C181 143.895 181.895 143 183 143H247C248.105 143 249 143.895 249 145C249 146.105 248.105 147 247 147H183C181.895 147 181 146.105 181 145ZM181 169C181 167.895 181.895 167 183 167H247C248.105 167 249 167.895 249 169C249 170.105 248.105 171 247 171H183C181.895 171 181 170.105 181 169ZM183 191C181.895 191 181 191.895 181 193C181 194.105 181.895 195 183 195H247C248.105 195 249 194.105 249 193C249 191.895 248.105 191 247 191H183ZM181 217C181 215.895 181.895 215 183 215H247C248.105 215 249 215.895 249 217C249 218.105 248.105 219 247 219H183C181.895 219 181 218.105 181 217ZM183 239C181.895 239 181 239.895 181 241C181 242.105 181.895 243 183 243H247C248.105 243 249 242.105 249 241C249 239.895 248.105 239 247 239H183ZM292 145C292 143.895 292.895 143 294 143H323C324.105 143 325 143.895 325 145C325 146.105 324.105 147 323 147H294C292.895 147 292 146.105 292 145ZM294 167C292.895 167 292 167.895 292 169C292 170.105 292.895 171 294 171H323C324.105 171 325 170.105 325 169C325 167.895 324.105 167 323 167H294ZM292 193C292 191.895 292.895 191 294 191H323C324.105 191 325 191.895 325 193C325 194.105 324.105 195 323 195H294C292.895 195 292 194.105 292 193ZM294 215C292.895 215 292 215.895 292 217C292 218.105 292.895 219 294 219H323C324.105 219 325 218.105 325 217C325 215.895 324.105 215 323 215H294ZM292 241C292 239.895 292.895 239 294 239H323C324.105 239 325 239.895 325 241C325 242.105 324.105 243 323 243H294C292.895 243 292 242.105 292 241ZM339 143C337.895 143 337 143.895 337 145C337 146.105 337.895 147 339 147H443C444.105 147 445 146.105 445 145C445 143.895 444.105 143 443 143H339ZM337 169C337 167.895 337.895 167 339 167H443C444.105 167 445 167.895 445 169C445 170.105 444.105 171 443 171H339C337.895 171 337 170.105 337 169ZM339 191C337.895 191 337 191.895 337 193C337 194.105 337.895 195 339 195H443C444.105 195 445 194.105 445 193C445 191.895 444.105 191 443 191H339ZM337 217C337 215.895 337.895 215 339 215H443C444.105 215 445 215.895 445 217C445 218.105 444.105 219 443 219H339C337.895 219 337 218.105 337 217ZM339 239C337.895 239 337 239.895 337 241C337 242.105 337.895 243 339 243H443C444.105 243 445 242.105 445 241C445 239.895 444.105 239 443 239H339ZM181 157H445V156.5H181V157ZM445 181H181V180.5H445V181ZM181 205H445V204.5H181V205ZM445 229H181V228.5H445V229ZM181 253H445V252.5H181V253Z" fill="#E6E6E6"/>
<g filter="url(#filter1_d_1059_6283)">
<rect x="265" y="138" width="327" height="46" rx="9" fill="white"/>
</g>
<path d="M431.002 164.166C433.107 164.17 434.364 162.509 434.364 159.645C434.364 156.798 433.098 155.153 431.002 155.153C428.905 155.153 427.644 156.794 427.64 159.645C427.64 162.504 428.897 164.166 431.002 164.166ZM431.002 162.832C429.915 162.832 429.233 161.742 429.238 159.645C429.242 157.565 429.919 156.47 431.002 156.47C432.089 156.47 432.766 157.565 432.77 159.645C432.77 161.742 432.093 162.832 431.002 162.832Z" fill="#3C3A3E"/>
<path d="M439.006 164.166C441.111 164.17 442.368 162.509 442.368 159.645C442.368 156.798 441.102 155.153 439.006 155.153C436.909 155.153 435.648 156.794 435.644 159.645C435.644 162.504 436.901 164.166 439.006 164.166ZM439.006 162.832C437.919 162.832 437.237 161.742 437.242 159.645C437.246 157.565 437.923 156.47 439.006 156.47C440.092 156.47 440.77 157.565 440.774 159.645C440.774 161.742 440.097 162.832 439.006 162.832Z" fill="#3C3A3E"/>
<path d="M444.751 162.952C445.254 162.952 445.684 162.534 445.689 162.014C445.684 161.503 445.254 161.085 444.751 161.085C444.231 161.085 443.809 161.503 443.814 162.014C443.809 162.534 444.231 162.952 444.751 162.952ZM444.751 158.622C445.254 158.622 445.684 158.205 445.689 157.685C445.684 157.173 445.254 156.756 444.751 156.756C444.231 156.756 443.809 157.173 443.814 157.685C443.809 158.205 444.231 158.622 444.751 158.622Z" fill="#3C3A3E"/>
<path d="M447.264 164H453.247V162.679H449.446V162.619L450.95 161.09C452.646 159.462 453.115 158.669 453.115 157.685C453.115 156.223 451.926 155.153 450.171 155.153C448.44 155.153 447.213 156.227 447.213 157.885H448.717C448.717 156.994 449.28 156.436 450.149 156.436C450.98 156.436 451.598 156.943 451.598 157.766C451.598 158.494 451.155 159.014 450.294 159.888L447.264 162.858V164Z" fill="#3C3A3E"/>
<path d="M457.752 164.119C459.597 164.119 460.884 162.867 460.884 161.132C460.884 159.453 459.716 158.243 458.131 158.243C457.423 158.243 456.797 158.524 456.473 158.908H456.422L456.673 156.594H460.428V155.273H455.365L454.909 159.773L456.337 160.007C456.631 159.683 457.185 159.466 457.709 159.47C458.668 159.474 459.358 160.182 459.354 161.17C459.358 162.146 458.685 162.841 457.752 162.841C456.963 162.841 456.328 162.342 456.273 161.626H454.739C454.781 163.075 456.047 164.119 457.752 164.119Z" fill="#3C3A3E"/>
<rect x="278" y="159" width="66" height="4" rx="2" fill="#E6E6E6"/>
<path fill-rule="evenodd" clip-rule="evenodd" d="M506 172L506 150H504L504 172H506ZM510 172L510 150H508L508 172H510ZM513 161.702L513 172H511L511 150H513V160.298H516L516 157.489H519L519 164.511H516V161.702H513ZM523 165.446V156.553H520V165.446H523ZM527 160.298H531V159.83H534V162.171H531V161.702H527V160.298ZM538 158.426V163.575H535V158.426H538ZM545 164.511V157.489H542V164.511H545ZM546 158.894H549H552V159.83H556V162.171H552V163.106H549H546V158.894ZM560 161.702H564V162.171H575V161.234H579V160.766H575V159.83H564V160.298H560V161.702Z" fill="#CBCBCB"/>
<path d="M361.883 158.182H360.881L359.435 159.111V160.077L360.795 159.207H360.829V164H361.883V158.182Z" fill="#858585"/>
<path d="M363.574 164H364.668L367.139 159.082V158.182H363.176V159.063H366.048V159.102L363.574 164Z" fill="#858585"/>
<path d="M371.043 162.608V159.636H370.052V164H371.111L372.853 161.026V164H373.847V159.636H372.79L371.043 162.608Z" fill="#858585"/>
<path d="M375.673 159.636H374.642V164H375.673V162.27H376.497C376.656 163.361 377.409 164.085 378.525 164.085C379.784 164.085 380.582 163.162 380.585 161.827C380.582 160.491 379.784 159.58 378.525 159.58C377.395 159.58 376.636 160.313 376.491 161.423H375.673V159.636ZM378.525 163.233C377.775 163.233 377.454 162.619 377.454 161.827C377.454 161.034 377.775 160.423 378.525 160.423C379.273 160.423 379.591 161.04 379.591 161.827C379.591 162.616 379.273 163.233 378.525 163.233Z" fill="#858585"/>
<path d="M382.489 159.636H381.497V164H382.489V162.236H384.179V164H385.168V159.636H384.179V161.392H382.489V159.636Z" fill="#858585"/>
<path d="M388.788 164H389.751V159.636H387.856C386.788 159.636 386.126 160.185 386.128 161.023C386.126 161.574 386.427 161.991 386.947 162.205L385.969 164H386.981L387.876 162.358H388.788V164ZM388.788 161.608H387.822C387.37 161.608 387.12 161.372 387.123 161.045C387.12 160.719 387.384 160.472 387.856 160.472H388.788V161.608Z" fill="#858585"/>
<path d="M392.759 164H396.748V163.119H394.214V163.08L395.217 162.06C396.347 160.974 396.66 160.446 396.66 159.79C396.66 158.815 395.867 158.102 394.697 158.102C393.543 158.102 392.725 158.818 392.725 159.923H393.728C393.728 159.33 394.103 158.957 394.682 158.957C395.236 158.957 395.648 159.295 395.648 159.844C395.648 160.33 395.353 160.676 394.779 161.259L392.759 163.239V164Z" fill="#858585"/>
<path d="M399.878 164.111C401.282 164.114 402.12 163.006 402.12 161.097C402.12 159.199 401.276 158.102 399.878 158.102C398.481 158.102 397.64 159.196 397.637 161.097C397.637 163.003 398.475 164.111 399.878 164.111ZM399.878 163.222C399.154 163.222 398.699 162.494 398.702 161.097C398.705 159.71 399.157 158.98 399.878 158.98C400.603 158.98 401.055 159.71 401.057 161.097C401.057 162.494 400.606 163.222 399.878 163.222Z" fill="#858585"/>
<path d="M403.064 164H407.052V163.119H404.518V163.08L405.521 162.06C406.652 160.974 406.964 160.446 406.964 159.79C406.964 158.815 406.172 158.102 405.001 158.102C403.848 158.102 403.03 158.818 403.03 159.923H404.033C404.033 159.33 404.408 158.957 404.987 158.957C405.541 158.957 405.953 159.295 405.953 159.844C405.953 160.33 405.658 160.676 405.084 161.259L403.064 163.239V164Z" fill="#858585"/>
<path d="M410.399 158.182H409.396L407.95 159.111V160.077L409.311 159.207H409.345V164H410.399V158.182Z" fill="#858585"/>
<path d="M494 160.5C494 165.194 490.194 169 485.5 169C480.806 169 477 165.194 477 160.5C477 155.806 480.806 152 485.5 152C490.194 152 494 155.806 494 160.5Z" fill="#F4774C"/>
<path d="M489.469 160.5L483.519 163.935L483.519 157.065L489.469 160.5Z" fill="white"/>
<g filter="url(#filter2_d_1059_6283)">
<rect x="265" y="203" width="327" height="46" rx="9" fill="white"/>
</g>
<path d="M432.002 229.166C434.107 229.17 435.364 227.509 435.364 224.645C435.364 221.798 434.098 220.153 432.002 220.153C429.905 220.153 428.644 221.794 428.64 224.645C428.64 227.504 429.897 229.166 432.002 229.166ZM432.002 227.832C430.915 227.832 430.233 226.742 430.238 224.645C430.242 222.565 430.919 221.47 432.002 221.47C433.089 221.47 433.766 222.565 433.77 224.645C433.77 226.742 433.093 227.832 432.002 227.832Z" fill="#3C3A3E"/>
<path d="M440.006 229.166C442.111 229.17 443.368 227.509 443.368 224.645C443.368 221.798 442.102 220.153 440.006 220.153C437.909 220.153 436.648 221.794 436.644 224.645C436.644 227.504 437.901 229.166 440.006 229.166ZM440.006 227.832C438.919 227.832 438.237 226.742 438.242 224.645C438.246 222.565 438.923 221.47 440.006 221.47C441.092 221.47 441.77 222.565 441.774 224.645C441.774 226.742 441.097 227.832 440.006 227.832Z" fill="#3C3A3E"/>
<path d="M445.751 227.952C446.254 227.952 446.684 227.534 446.689 227.014C446.684 226.503 446.254 226.085 445.751 226.085C445.231 226.085 444.809 226.503 444.814 227.014C444.809 227.534 445.231 227.952 445.751 227.952ZM445.751 223.622C446.254 223.622 446.684 223.205 446.689 222.685C446.684 222.173 446.254 221.756 445.751 221.756C445.231 221.756 444.809 222.173 444.814 222.685C444.809 223.205 445.231 223.622 445.751 223.622Z" fill="#3C3A3E"/>
<path d="M451.814 220.273H450.31L448.141 221.666V223.115L450.182 221.811H450.233V229H451.814V220.273Z" fill="#3C3A3E"/>
<path d="M454.35 229H455.99L459.698 221.624V220.273H453.753V221.594H458.061V221.653L454.35 229Z" fill="#3C3A3E"/>
<rect x="278" y="224" width="66" height="4" rx="2" fill="#E6E6E6"/>
<path fill-rule="evenodd" clip-rule="evenodd" d="M547 228L547 240H545L545 212H547V224H551V225H554V227H551V228H547ZM530 237L530 215H527L527 237H530ZM513 237L513 226.702H516V233H519L519 219H516L516 225.298H513V215H511L511 237H513ZM510 217L510 235H508L508 217H510ZM506 223L506 229H504V223H506ZM523 221.553V230.446H520V221.553H523ZM534 217V225H538V227H534L534 235H532L532 217H534ZM561 234V218H559V234H561ZM544 232V220H542V232H544ZM562 240H564L564 228H568V227H574V225H568V224H564V212H562L562 240ZM578 212V240H576V212H578ZM558 235V217H556V235H558Z" fill="#CBCBCB"/>
<path d="M361.883 223.182H360.881L359.435 224.111V225.077L360.795 224.207H360.829V229H361.883V223.182Z" fill="#858585"/>
<path d="M365.511 229.111C366.915 229.114 367.753 228.006 367.753 226.097C367.753 224.199 366.909 223.102 365.511 223.102C364.114 223.102 363.273 224.196 363.27 226.097C363.27 228.003 364.108 229.111 365.511 229.111ZM365.511 228.222C364.787 228.222 364.332 227.494 364.335 226.097C364.338 224.71 364.79 223.98 365.511 223.98C366.236 223.98 366.687 224.71 366.69 226.097C366.69 227.494 366.239 228.222 365.511 228.222Z" fill="#858585"/>
<path d="M371.684 227.608V224.636H370.692V229H371.752L373.494 226.026V229H374.488V224.636H373.431L371.684 227.608Z" fill="#858585"/>
<path d="M376.314 224.636H375.283V229H376.314V227.27H377.138C377.297 228.361 378.05 229.085 379.166 229.085C380.425 229.085 381.223 228.162 381.226 226.827C381.223 225.491 380.425 224.58 379.166 224.58C378.035 224.58 377.277 225.313 377.132 226.423H376.314V224.636ZM379.166 228.233C378.416 228.233 378.095 227.619 378.095 226.827C378.095 226.034 378.416 225.423 379.166 225.423C379.913 225.423 380.231 226.04 380.231 226.827C380.231 227.616 379.913 228.233 379.166 228.233Z" fill="#858585"/>
<path d="M383.129 224.636H382.138V229H383.129V227.236H384.82V229H385.808V224.636H384.82V226.392H383.129V224.636Z" fill="#858585"/>
<path d="M389.428 229H390.391V224.636H388.496C387.428 224.636 386.766 225.185 386.769 226.023C386.766 226.574 387.067 226.991 387.587 227.205L386.61 229H387.621L388.516 227.358H389.428V229ZM389.428 226.608H388.462C388.011 226.608 387.761 226.372 387.763 226.045C387.761 225.719 388.025 225.472 388.496 225.472H389.428V226.608Z" fill="#858585"/>
<path d="M393.4 229H397.388V228.119H394.854V228.08L395.857 227.06C396.988 225.974 397.3 225.446 397.3 224.79C397.3 223.815 396.508 223.102 395.337 223.102C394.184 223.102 393.366 223.818 393.366 224.923H394.369C394.369 224.33 394.744 223.957 395.323 223.957C395.877 223.957 396.289 224.295 396.289 224.844C396.289 225.33 395.994 225.676 395.42 226.259L393.4 228.239V229Z" fill="#858585"/>
<path d="M400.519 229.111C401.922 229.114 402.761 228.006 402.761 226.097C402.761 224.199 401.917 223.102 400.519 223.102C399.121 223.102 398.28 224.196 398.278 226.097C398.278 228.003 399.116 229.111 400.519 229.111ZM400.519 228.222C399.795 228.222 399.34 227.494 399.343 226.097C399.346 224.71 399.797 223.98 400.519 223.98C401.244 223.98 401.695 224.71 401.698 226.097C401.698 227.494 401.246 228.222 400.519 228.222Z" fill="#858585"/>
<path d="M403.704 229H407.693V228.119H405.159V228.08L406.162 227.06C407.293 225.974 407.605 225.446 407.605 224.79C407.605 223.815 406.812 223.102 405.642 223.102C404.489 223.102 403.67 223.818 403.67 224.923H404.673C404.673 224.33 405.048 223.957 405.628 223.957C406.182 223.957 406.594 224.295 406.594 224.844C406.594 225.33 406.298 225.676 405.724 226.259L403.704 228.239V229Z" fill="#858585"/>
<path d="M411.04 223.182H410.037L408.591 224.111V225.077L409.952 224.207H409.986V229H411.04V223.182Z" fill="#858585"/>
<path d="M494 225.5C494 230.194 490.194 234 485.5 234C480.806 234 477 230.194 477 225.5C477 220.806 480.806 217 485.5 217C490.194 217 494 220.806 494 225.5Z" fill="#F4774C"/>
<path d="M489.469 225.5L483.519 228.935L483.519 222.065L489.469 225.5Z" fill="white"/>
<g filter="url(#filter3_d_1059_6283)">
<rect x="265" y="268" width="327" height="46" rx="9" fill="white"/>
</g>
<path fill-rule="evenodd" clip-rule="evenodd" d="M278 284C278 282.895 278.895 282 280 282H342C343.105 282 344 282.895 344 284C344 285.105 343.105 286 342 286H280C278.895 286 278 285.105 278 284ZM278 298C278 296.895 278.895 296 280 296H399C400.105 296 401 296.895 401 298C401 299.105 400.105 300 399 300H280C278.895 300 278 299.105 278 298ZM356 282C354.895 282 354 282.895 354 284C354 285.105 354.895 286 356 286H577C578.105 286 579 285.105 579 284C579 282.895 578.105 282 577 282H356ZM411 298C411 296.895 411.895 296 413 296H471C472.105 296 473 296.895 473 298C473 299.105 472.105 300 471 300H413C411.895 300 411 299.105 411 298ZM485 296C483.895 296 483 296.895 483 298C483 299.105 483.895 300 485 300H577C578.105 300 579 299.105 579 298C579 296.895 578.105 296 577 296H485Z" fill="#E6E6E6"/>
<defs>
<filter id="filter0_d_1059_6283" x="20" y="26" width="480" height="304" filterUnits="userSpaceOnUse" color-interpolation-filters="sRGB">
<feFlood flood-opacity="0" result="BackgroundImageFix"/>
<feColorMatrix in="SourceAlpha" type="matrix" values="0 0 0 0 0 0 0 0 0 0 0 0 0 0 0 0 0 0 127 0" result="hardAlpha"/>
<feOffset/>
<feGaussianBlur stdDeviation="12.5"/>
<feComposite in2="hardAlpha" operator="out"/>
<feColorMatrix type="matrix" values="0 0 0 0 0 0 0 0 0 0 0 0 0 0 0 0 0 0 0.15 0"/>
<feBlend mode="normal" in2="BackgroundImageFix" result="effect1_dropShadow_1059_6283"/>
<feBlend mode="normal" in="SourceGraphic" in2="effect1_dropShadow_1059_6283" result="shape"/>
</filter>
<filter id="filter1_d_1059_6283" x="240" y="113" width="377" height="96" filterUnits="userSpaceOnUse" color-interpolation-filters="sRGB">
<feFlood flood-opacity="0" result="BackgroundImageFix"/>
<feColorMatrix in="SourceAlpha" type="matrix" values="0 0 0 0 0 0 0 0 0 0 0 0 0 0 0 0 0 0 127 0" result="hardAlpha"/>
<feOffset/>
<feGaussianBlur stdDeviation="12.5"/>
<feComposite in2="hardAlpha" operator="out"/>
<feColorMatrix type="matrix" values="0 0 0 0 0 0 0 0 0 0 0 0 0 0 0 0 0 0 0.15 0"/>
<feBlend mode="normal" in2="BackgroundImageFix" result="effect1_dropShadow_1059_6283"/>
<feBlend mode="normal" in="SourceGraphic" in2="effect1_dropShadow_1059_6283" result="shape"/>
</filter>
<filter id="filter2_d_1059_6283" x="240" y="178" width="377" height="96" filterUnits="userSpaceOnUse" color-interpolation-filters="sRGB">
<feFlood flood-opacity="0" result="BackgroundImageFix"/>
<feColorMatrix in="SourceAlpha" type="matrix" values="0 0 0 0 0 0 0 0 0 0 0 0 0 0 0 0 0 0 127 0" result="hardAlpha"/>
<feOffset/>
<feGaussianBlur stdDeviation="12.5"/>
<feComposite in2="hardAlpha" operator="out"/>
<feColorMatrix type="matrix" values="0 0 0 0 0 0 0 0 0 0 0 0 0 0 0 0 0 0 0.15 0"/>
<feBlend mode="normal" in2="BackgroundImageFix" result="effect1_dropShadow_1059_6283"/>
<feBlend mode="normal" in="SourceGraphic" in2="effect1_dropShadow_1059_6283" result="shape"/>
</filter>
<filter id="filter3_d_1059_6283" x="240" y="243" width="377" height="96" filterUnits="userSpaceOnUse" color-interpolation-filters="sRGB">
<feFlood flood-opacity="0" result="BackgroundImageFix"/>
<feColorMatrix in="SourceAlpha" type="matrix" values="0 0 0 0 0 0 0 0 0 0 0 0 0 0 0 0 0 0 127 0" result="hardAlpha"/>
<feOffset/>
<feGaussianBlur stdDeviation="12.5"/>
<feComposite in2="hardAlpha" operator="out"/>
<feColorMatrix type="matrix" values="0 0 0 0 0 0 0 0 0 0 0 0 0 0 0 0 0 0 0.15 0"/>
<feBlend mode="normal" in2="BackgroundImageFix" result="effect1_dropShadow_1059_6283"/>
<feBlend mode="normal" in="SourceGraphic" in2="effect1_dropShadow_1059_6283" result="shape"/>
</filter>
</defs>
</svg>
