<svg width="502" height="271" viewBox="0 0 502 271" fill="none" xmlns="http://www.w3.org/2000/svg">
<g clip-path="url(#clip0_1059_6657)">
<g filter="url(#filter0_d_1059_6657)">
<rect x="110.004" y="25" width="365" height="215" rx="4" fill="white"/>
</g>
<path d="M110.004 29C110.004 26.7909 111.795 25 114.004 25H471.004C473.213 25 475.004 26.7909 475.004 29V54H110.004V29Z" fill="#3C3A3E"/>
<path d="M110 54H200V241H114C111.791 241 110 239.209 110 237V54Z" fill="#EDEDED"/>
<path fill-rule="evenodd" clip-rule="evenodd" d="M200 214L200 54H198L198 214H200ZM120.189 70.8232C119.252 70.8232 118.492 71.5831 118.492 72.5204C118.492 73.4577 119.252 74.2175 120.189 74.2175H184.68C185.617 74.2175 186.377 73.4577 186.377 72.5204C186.377 71.5831 185.617 70.8232 184.68 70.8232H120.189ZM118.492 138.706C118.492 137.769 119.252 137.009 120.189 137.009H184.68C185.617 137.009 186.377 137.769 186.377 138.706C186.377 139.643 185.617 140.403 184.68 140.403H120.189C119.252 140.403 118.492 139.643 118.492 138.706ZM120.189 82.7012C119.252 82.7012 118.492 83.461 118.492 84.3983C118.492 85.3356 119.252 86.0954 120.189 86.0954H167.709C168.646 86.0954 169.406 85.3356 169.406 84.3983C169.406 83.461 168.646 82.7012 167.709 82.7012H120.189ZM118.492 150.586C118.492 149.648 119.252 148.889 120.189 148.889H167.709C168.646 148.889 169.406 149.648 169.406 150.586C169.406 151.523 168.646 152.283 167.709 152.283H120.189C119.252 152.283 118.492 151.523 118.492 150.586ZM120.189 94.5811C119.252 94.5811 118.492 95.3409 118.492 96.2782C118.492 97.2155 119.252 97.9753 120.189 97.9753H175.346C176.283 97.9753 177.043 97.2155 177.043 96.2782C177.043 95.3409 176.283 94.5811 175.346 94.5811H120.189ZM118.492 162.466C118.492 161.528 119.252 160.769 120.189 160.769H175.346C176.283 160.769 177.043 161.528 177.043 162.466C177.043 163.403 176.283 164.163 175.346 164.163H120.189C119.252 164.163 118.492 163.403 118.492 162.466ZM120.189 106.462C119.252 106.462 118.492 107.222 118.492 108.159C118.492 109.096 119.252 109.856 120.189 109.856H156.677C157.615 109.856 158.375 109.096 158.375 108.159C158.375 107.222 157.615 106.462 156.677 106.462H120.189ZM118.492 174.346C118.492 173.408 119.252 172.648 120.189 172.648H156.677C157.615 172.648 158.375 173.408 158.375 174.346C158.375 175.283 157.615 176.043 156.677 176.043H120.189C119.252 176.043 118.492 175.283 118.492 174.346ZM120.189 203.197C119.252 203.197 118.492 203.957 118.492 204.894C118.492 205.832 119.252 206.592 120.189 206.592H167.709C168.646 206.592 169.406 205.832 169.406 204.894C169.406 203.957 168.646 203.197 167.709 203.197H120.189Z" fill="#CBCBCB"/>
<path fill-rule="evenodd" clip-rule="evenodd" d="M131.424 41.8033C131.424 43.9343 130.208 45.001 127.775 45.0033H122.738C122.738 42.9516 125.847 42.9605 127.188 42.9644L127.343 42.9647C128.349 42.9647 128.851 42.5025 128.849 41.5779C128.849 40.6488 128.348 40.1911 127.343 40.1911H124.502V38.1733H127.32C128.325 38.1733 128.823 37.7261 128.823 36.8385C128.823 35.9509 128.319 35.521 127.32 35.521C127.161 35.521 126.979 35.5259 126.784 35.5311C125.224 35.5726 122.738 35.6388 122.738 33.4824H127.376C128.711 33.4824 129.642 33.6569 130.168 34.0059C130.563 34.2651 130.885 34.6318 131.101 35.0678C131.317 35.5038 131.418 35.9932 131.395 36.4849C131.415 37.0675 131.27 37.6432 130.979 38.1376C130.687 38.632 130.262 39.0225 129.759 39.2585C130.865 39.7577 131.417 40.6129 131.415 41.8241L131.424 41.8033ZM164.36 36.6197C165.318 36.7984 166.182 37.3417 166.789 38.1475C167.396 38.9533 167.704 39.966 167.656 40.9956C167.607 42.0251 167.206 43.0004 166.526 43.7384C165.847 44.4764 164.937 44.9262 163.966 45.0032C162.996 45.0803 162.032 44.7794 161.257 44.1571C160.481 43.5347 159.947 42.6337 159.754 41.6233C159.561 40.613 159.723 39.5628 160.21 38.6702C160.696 37.7776 161.474 37.1039 162.396 36.7757C163.028 36.5512 163.703 36.4976 164.36 36.6197ZM140.54 42.6488C140.54 44.2298 139.532 45.0191 137.516 45.0168H132.633V36.5781H137.215C138.301 36.5781 139.064 36.7133 139.506 36.9768C139.829 37.1539 140.097 37.4247 140.28 37.7574C140.463 38.0901 140.554 38.471 140.54 38.8559C140.546 39.2531 140.444 39.6438 140.247 39.9817C140.05 40.3196 139.765 40.5906 139.427 40.7627C139.773 40.9162 140.066 41.1784 140.267 41.5138C140.467 41.8491 140.566 42.2417 140.55 42.6384L140.54 42.6488ZM138.288 39.1055C138.288 38.5751 137.938 38.3081 137.234 38.3081H134.737V39.9272H137.234C137.938 39.9272 138.288 39.6533 138.288 39.1055ZM138.288 42.4651C138.288 41.9138 137.941 41.6399 137.248 41.6399H134.737V43.2902H137.264C137.958 43.2902 138.305 43.0128 138.305 42.4651H138.288ZM158.737 45.0168H156.643V41.6711H153.618V45.0168H151.517V36.5781H153.618V39.8128H156.643V36.5781H158.737V45.0168ZM176.718 45.0168H173.891L170.67 40.9222V45.0168H168.569V36.5781H170.67V40.631L174.058 36.5781H176.738L173.036 40.7073L176.738 45.0168H176.718ZM164.249 38.5543C163.962 38.4585 163.659 38.4263 163.36 38.4597C163.061 38.4932 162.771 38.5915 162.509 38.7487C162.247 38.9058 162.019 39.1183 161.838 39.3731C161.657 39.6278 161.527 39.9193 161.457 40.2294C161.387 40.5394 161.378 40.8614 161.431 41.1753C161.483 41.4893 161.596 41.7883 161.763 42.054C161.929 42.3197 162.145 42.5462 162.398 42.7195C162.65 42.8928 162.934 43.0092 163.231 43.0614C163.556 43.1305 163.891 43.1222 164.213 43.0371C164.682 42.9117 165.098 42.6257 165.398 42.2236C165.697 41.8215 165.863 41.3257 165.869 40.8135C165.875 40.3014 165.721 39.8014 165.431 39.3916C165.141 38.9817 164.731 38.6849 164.265 38.5473L164.249 38.5543ZM146.994 38.426C147.491 38.6824 147.892 39.1098 148.13 39.6383C148.368 40.1669 148.431 40.7654 148.306 41.3362C148.182 41.907 147.879 42.4164 147.446 42.7811C147.014 43.1458 146.477 43.3444 145.924 43.3444C145.371 43.3444 144.834 43.1458 144.402 42.7811C143.969 42.4164 143.666 41.907 143.542 41.3362C143.417 40.7654 143.48 40.1669 143.718 39.6383C143.956 39.1098 144.357 38.6824 144.854 38.426V36.1689C143.796 36.4459 142.87 37.1235 142.252 38.0739C141.633 39.0242 141.364 40.1816 141.496 41.3275C141.627 42.4735 142.151 43.5287 142.966 44.2941C143.782 45.0595 144.834 45.482 145.924 45.482C147.014 45.482 148.066 45.0595 148.882 44.2941C149.697 43.5287 150.221 42.4735 150.352 41.3275C150.484 40.1816 150.215 39.0242 149.596 38.0739C148.978 37.1235 148.052 36.4459 146.994 36.1689V38.426ZM145.178 41.9689C145.489 42.1853 145.869 42.2627 146.234 42.1842C146.51 42.1297 146.764 41.9894 146.965 41.7813C147.165 41.5731 147.302 41.3065 147.359 41.0154C147.416 40.7243 147.39 40.4218 147.284 40.1465C147.178 39.8713 146.997 39.6356 146.764 39.4696C146.623 39.3683 146.466 39.2954 146.299 39.2546V36.0234H145.645V39.2546C145.281 39.3406 144.964 39.5752 144.763 39.9073C144.562 40.2395 144.492 40.6424 144.57 41.0284C144.648 41.4145 144.866 41.7524 145.178 41.9689Z" fill="white"/>
<path d="M227.088 78.4584L227.699 76.6323H230.484L231.098 78.4584H232.53L229.92 71.0527H228.263L225.656 78.4584H227.088ZM228.061 75.5547L229.063 72.5715H229.12L230.122 75.5547H228.061Z" fill="#3C3A3E"/>
<path d="M233.565 80.5412C234.585 80.5412 235.175 80.0169 235.489 79.1309L237.72 72.9114L236.321 72.9041L235.037 77.0987H234.979L233.699 72.9041H232.311L234.325 78.5741L234.213 78.8742C233.97 79.507 233.587 79.5504 233.016 79.3841L232.712 80.4038C232.889 80.4761 233.207 80.5412 233.565 80.5412Z" fill="#3C3A3E"/>
<path d="M237.689 80.0711H238.977V78.4584H242.611V80.0711H243.876V77.3808H243.016V72.9041H239.002L238.843 74.8496C238.738 76.0935 238.601 77.0156 238.131 77.3808H237.689V80.0711ZM239.476 77.3808C239.827 76.8637 239.957 76.0248 240.051 74.8496L240.138 73.96H241.765V77.3808H239.476Z" fill="#3C3A3E"/>
<path d="M246.116 76.6865V72.9041H244.854V78.4584H246.202L248.419 74.6724V78.4584H249.685V72.9041H248.34L246.116 76.6865Z" fill="#3C3A3E"/>
<path d="M253.452 78.5668C255.079 78.5668 256.113 77.4206 256.113 75.7029C256.113 73.9817 255.079 72.8318 253.452 72.8318C251.825 72.8318 250.79 73.9817 250.79 75.7029C250.79 77.4206 251.825 78.5668 253.452 78.5668ZM253.459 77.5182C252.559 77.5182 252.117 76.7154 252.117 75.6993C252.117 74.6832 252.559 73.8696 253.459 73.8696C254.345 73.8696 254.786 74.6832 254.786 75.6993C254.786 76.7154 254.345 77.5182 253.459 77.5182Z" fill="#3C3A3E"/>
<path d="M257.224 80.5412H258.533V77.5833H258.587C258.793 77.9883 259.224 78.556 260.178 78.556C261.487 78.556 262.467 77.5182 262.467 75.6885C262.467 73.8371 261.459 72.8318 260.175 72.8318C259.195 72.8318 258.786 73.4212 258.587 73.8226H258.511V72.9041H257.224V80.5412ZM258.508 75.6812C258.508 74.6037 258.971 73.9058 259.813 73.9058C260.685 73.9058 261.133 74.6471 261.133 75.6812C261.133 76.7227 260.677 77.482 259.813 77.482C258.978 77.482 258.508 76.7588 258.508 75.6812Z" fill="#3C3A3E"/>
<path d="M266.011 78.5668C267.638 78.5668 268.672 77.4206 268.672 75.7029C268.672 73.9817 267.638 72.8318 266.011 72.8318C264.384 72.8318 263.35 73.9817 263.35 75.7029C263.35 77.4206 264.384 78.5668 266.011 78.5668ZM266.018 77.5182C265.118 77.5182 264.677 76.7154 264.677 75.6993C264.677 74.6832 265.118 73.8696 266.018 73.8696C266.904 73.8696 267.345 74.6832 267.345 75.6993C267.345 76.7154 266.904 77.5182 266.018 77.5182Z" fill="#3C3A3E"/>
<path d="M269.4 78.4584H269.805C270.998 78.4584 271.537 77.6194 271.624 75.768L271.711 73.9781H273.305V78.4584H274.571V72.9041H270.521L270.424 75.363C270.362 76.9215 270.16 77.3808 269.585 77.3808H269.393L269.4 78.4584Z" fill="#3C3A3E"/>
<path d="M277.151 76.6865V72.9041H275.889V78.4584H277.238L279.455 74.6724V78.4584H280.72V72.9041H279.375L277.151 76.6865Z" fill="#3C3A3E"/>
<path d="M282.064 78.4584H283.373V76.3647H284.013L285.536 78.4584H287.12L285.04 75.6306L287.098 72.9041H285.521L283.851 75.1461H283.373V72.9041H282.064V78.4584Z" fill="#3C3A3E"/>
<path d="M289.124 76.6865V72.9041H287.862V78.4584H289.211L291.427 74.6724V78.4584H292.693V72.9041H291.348L289.124 76.6865Z" fill="#3C3A3E"/>
<path fill-rule="evenodd" clip-rule="evenodd" d="M449.426 86.9434H225.406V85.9434H449.426V86.9434ZM227.103 103.066C226.166 103.066 225.406 103.826 225.406 104.764C225.406 105.701 226.166 106.461 227.103 106.461H281.411C282.349 106.461 283.108 105.701 283.108 104.764C283.108 103.826 282.349 103.066 281.411 103.066H227.103ZM199.949 123.433L110.002 123.433V123.933L199.949 123.933V123.433ZM199.949 189.62L110.002 189.62V190.12L199.949 190.12V189.62ZM110.002 220.168L199.949 220.168V220.668L110.002 220.668V220.168ZM225.406 125.13C225.406 124.192 226.166 123.433 227.103 123.433H281.411C282.349 123.433 283.108 124.192 283.108 125.13C283.108 126.067 282.349 126.827 281.411 126.827H227.103C226.166 126.827 225.406 126.067 225.406 125.13ZM227.103 143.798C226.166 143.798 225.406 144.558 225.406 145.495C225.406 146.432 226.166 147.192 227.103 147.192H281.411C282.349 147.192 283.108 146.432 283.108 145.495C283.108 144.558 282.349 143.798 281.411 143.798H227.103ZM225.406 165.86C225.406 164.923 226.166 164.163 227.103 164.163H281.411C282.349 164.163 283.108 164.923 283.108 165.86C283.108 166.798 282.349 167.557 281.411 167.557H227.103C226.166 167.557 225.406 166.798 225.406 165.86ZM227.103 184.528C226.166 184.528 225.406 185.288 225.406 186.225C225.406 187.163 226.166 187.923 227.103 187.923H281.411C282.349 187.923 283.108 187.163 283.108 186.225C283.108 185.288 282.349 184.528 281.411 184.528H227.103ZM319.605 104.764C319.605 103.826 320.365 103.066 321.303 103.066H345.911C346.848 103.066 347.608 103.826 347.608 104.764C347.608 105.701 346.848 106.461 345.911 106.461H321.303C320.365 106.461 319.605 105.701 319.605 104.764ZM321.303 123.433C320.365 123.433 319.605 124.192 319.605 125.13C319.605 126.067 320.365 126.827 321.303 126.827H345.911C346.848 126.827 347.608 126.067 347.608 125.13C347.608 124.192 346.848 123.433 345.911 123.433H321.303ZM319.605 145.495C319.605 144.558 320.365 143.798 321.303 143.798H345.911C346.848 143.798 347.608 144.558 347.608 145.495C347.608 146.432 346.848 147.192 345.911 147.192H321.303C320.365 147.192 319.605 146.432 319.605 145.495ZM321.303 164.163C320.365 164.163 319.605 164.923 319.605 165.86C319.605 166.798 320.365 167.557 321.303 167.557H345.911C346.848 167.557 347.608 166.798 347.608 165.86C347.608 164.923 346.848 164.163 345.911 164.163H321.303ZM319.605 186.225C319.605 185.288 320.365 184.528 321.303 184.528H345.911C346.848 184.528 347.608 185.288 347.608 186.225C347.608 187.163 346.848 187.923 345.911 187.923H321.303C320.365 187.923 319.605 187.163 319.605 186.225ZM359.482 103.066C358.545 103.066 357.785 103.826 357.785 104.764C357.785 105.701 358.545 106.461 359.482 106.461H447.733C448.67 106.461 449.43 105.701 449.43 104.764C449.43 103.826 448.67 103.066 447.733 103.066H359.482ZM357.785 125.13C357.785 124.192 358.545 123.433 359.482 123.433H447.733C448.67 123.433 449.43 124.192 449.43 125.13C449.43 126.067 448.67 126.827 447.733 126.827H359.482C358.545 126.827 357.785 126.067 357.785 125.13ZM359.482 143.798C358.545 143.798 357.785 144.558 357.785 145.495C357.785 146.432 358.545 147.192 359.482 147.192H447.733C448.67 147.192 449.43 146.432 449.43 145.495C449.43 144.558 448.67 143.798 447.733 143.798H359.482ZM357.785 165.86C357.785 164.923 358.545 164.163 359.482 164.163H447.733C448.67 164.163 449.43 164.923 449.43 165.86C449.43 166.798 448.67 167.557 447.733 167.557H359.482C358.545 167.557 357.785 166.798 357.785 165.86ZM359.482 184.528C358.545 184.528 357.785 185.288 357.785 186.225C357.785 187.163 358.545 187.923 359.482 187.923H447.733C448.67 187.923 449.43 187.163 449.43 186.225C449.43 185.288 448.67 184.528 447.733 184.528H359.482ZM225.406 114.946H449.426V114.446H225.406V114.946ZM449.426 135.312H225.406V134.812H449.426V135.312ZM225.406 155.676H449.426V155.176H225.406V155.676ZM449.426 176.043H225.406V175.543H449.426V176.043ZM225.406 196.407H449.426V195.907H225.406V196.407Z" fill="#E6E6E6"/>
<g filter="url(#filter1_d_1059_6657)">
<rect x="15" y="114" width="278" height="38" rx="7" fill="white"/>
</g>
<path d="M155.853 136.204C157.639 136.207 158.706 134.797 158.706 132.367C158.706 129.951 157.632 128.556 155.853 128.556C154.074 128.556 153.004 129.948 153 132.367C153 134.793 154.067 136.204 155.853 136.204ZM155.853 135.072C154.931 135.072 154.352 134.146 154.356 132.367C154.36 130.602 154.935 129.673 155.853 129.673C156.775 129.673 157.35 130.602 157.354 132.367C157.354 134.146 156.779 135.072 155.853 135.072Z" fill="#3C3A3E"/>
<path d="M162.645 136.204C164.431 136.207 165.498 134.797 165.498 132.367C165.498 129.951 164.424 128.556 162.645 128.556C160.866 128.556 159.795 129.948 159.792 132.367C159.792 134.793 160.859 136.204 162.645 136.204ZM162.645 135.072C161.723 135.072 161.144 134.146 161.148 132.367C161.151 130.602 161.726 129.673 162.645 129.673C163.567 129.673 164.142 130.602 164.145 132.367C164.145 134.146 163.571 135.072 162.645 135.072Z" fill="#3C3A3E"/>
<path d="M167.52 135.173C167.947 135.173 168.312 134.819 168.316 134.377C168.312 133.944 167.947 133.589 167.52 133.589C167.079 133.589 166.721 133.944 166.725 134.377C166.721 134.819 167.079 135.173 167.52 135.173ZM167.52 131.499C167.947 131.499 168.312 131.145 168.316 130.704C168.312 130.27 167.947 129.915 167.52 129.915C167.079 129.915 166.721 130.27 166.725 130.704C166.721 131.145 167.079 131.499 167.52 131.499Z" fill="#3C3A3E"/>
<path d="M169.653 136.063H174.73V134.942H171.504V134.891L172.781 133.593C174.22 132.211 174.617 131.539 174.617 130.704C174.617 129.463 173.609 128.556 172.119 128.556C170.651 128.556 169.609 129.467 169.609 130.874H170.886C170.886 130.118 171.363 129.644 172.101 129.644C172.806 129.644 173.33 130.074 173.33 130.772C173.33 131.391 172.954 131.832 172.224 132.573L169.653 135.093V136.063Z" fill="#3C3A3E"/>
<path d="M178.552 136.164C180.117 136.164 181.21 135.101 181.21 133.629C181.21 132.204 180.219 131.177 178.874 131.177C178.273 131.177 177.742 131.416 177.467 131.741H177.424L177.637 129.778H180.823V128.657H176.527L176.14 132.475L177.351 132.674C177.601 132.399 178.071 132.215 178.516 132.219C179.329 132.222 179.915 132.823 179.911 133.661C179.915 134.49 179.344 135.079 178.552 135.079C177.883 135.079 177.344 134.656 177.297 134.048H175.995C176.031 135.278 177.105 136.164 178.552 136.164Z" fill="#3C3A3E"/>
<rect x="26.0273" y="131.82" width="56.005" height="3.39424" rx="1.69712" fill="#E6E6E6"/>
<path d="M219.697 142.852L219.697 124.184H218L218 142.852H219.697Z" fill="#CBCBCB"/>
<path d="M223.091 142.852L223.091 124.184H221.394L221.394 142.852H223.091Z" fill="#CBCBCB"/>
<path d="M225.637 134.114L225.637 142.852H223.94L223.94 124.184H225.637V132.922H228.183L228.183 130.539H230.728L230.728 136.497H228.183V134.114H225.637Z" fill="#CBCBCB"/>
<path d="M234.123 137.291V129.744H231.577V137.291H234.123Z" fill="#CBCBCB"/>
<path d="M237.517 132.922H240.911V132.525H243.457V134.511H240.911V134.114H237.517V132.922Z" fill="#CBCBCB"/>
<path d="M246.851 131.333V135.703H244.305V131.333H246.851Z" fill="#CBCBCB"/>
<path d="M252.791 136.497V130.539H250.245V136.497H252.791Z" fill="#CBCBCB"/>
<path d="M253.64 131.73H258.731V132.525H262.125V134.511H258.731V135.305H253.64V131.73Z" fill="#CBCBCB"/>
<path d="M265.519 134.114H268.914V134.511H278.248V133.716H281.642V133.319H278.248V132.525H268.914V132.922H265.519V134.114Z" fill="#CBCBCB"/>
<path d="M97.078 131.125H96.227L95 131.913V132.733L96.1547 131.995H96.1836V136.062H97.078V131.125Z" fill="#858585"/>
<path d="M98.5124 136.062H99.4405L101.538 131.889V131.125H98.1749V131.872H100.612V131.906L98.5124 136.062Z" fill="#858585"/>
<path d="M104.851 134.881V132.359H104.009V136.062H104.909L106.386 133.538V136.062H107.23V132.359H106.333L104.851 134.881Z" fill="#858585"/>
<path d="M108.779 132.359H107.904V136.062H108.779V134.594H109.479C109.614 135.52 110.252 136.135 111.2 136.135C112.268 136.135 112.945 135.351 112.948 134.218C112.945 133.085 112.268 132.311 111.2 132.311C110.24 132.311 109.597 132.933 109.474 133.876H108.779V132.359ZM111.2 135.411C110.563 135.411 110.291 134.891 110.291 134.218C110.291 133.545 110.563 133.027 111.2 133.027C111.834 133.027 112.104 133.55 112.104 134.218C112.104 134.888 111.834 135.411 111.2 135.411Z" fill="#858585"/>
<path d="M114.563 132.359H113.721V136.062H114.563V134.565H115.997V136.062H116.836V132.359H115.997V133.849H114.563V132.359Z" fill="#858585"/>
<path d="M119.908 136.062H120.725V132.359H119.117C118.211 132.359 117.649 132.825 117.651 133.536C117.649 134.003 117.904 134.358 118.346 134.539L117.516 136.062H118.375L119.134 134.669H119.908V136.062ZM119.908 134.032H119.088C118.705 134.032 118.493 133.832 118.495 133.555C118.493 133.278 118.717 133.068 119.117 133.068H119.908V134.032Z" fill="#858585"/>
<path d="M123.278 136.062H126.663V135.315H124.512V135.281L125.363 134.416C126.323 133.495 126.588 133.046 126.588 132.49C126.588 131.663 125.915 131.058 124.922 131.058C123.943 131.058 123.249 131.665 123.249 132.603H124.1C124.1 132.099 124.418 131.783 124.91 131.783C125.38 131.783 125.73 132.07 125.73 132.535C125.73 132.948 125.479 133.242 124.992 133.736L123.278 135.416V136.062Z" fill="#858585"/>
<path d="M129.319 136.156C130.51 136.159 131.221 135.218 131.221 133.598C131.221 131.988 130.505 131.058 129.319 131.058C128.133 131.058 127.419 131.986 127.417 133.598C127.417 135.216 128.128 136.156 129.319 136.156ZM129.319 135.402C128.704 135.402 128.319 134.785 128.321 133.598C128.323 132.422 128.707 131.803 129.319 131.803C129.934 131.803 130.317 132.422 130.32 133.598C130.32 134.785 129.936 135.402 129.319 135.402Z" fill="#858585"/>
<path d="M132.022 136.062H135.407V135.315H133.256V135.281L134.107 134.416C135.067 133.495 135.332 133.046 135.332 132.49C135.332 131.663 134.659 131.058 133.666 131.058C132.687 131.058 131.993 131.665 131.993 132.603H132.844C132.844 132.099 133.162 131.783 133.654 131.783C134.124 131.783 134.474 132.07 134.474 132.535C134.474 132.948 134.223 133.242 133.736 133.736L132.022 135.416V136.062Z" fill="#858585"/>
<path d="M138.246 131.125H137.395L136.168 131.913V132.733L137.323 131.995H137.352V136.062H138.246V131.125Z" fill="#858585"/>
<path d="M209.426 133.094C209.426 137.077 206.196 140.306 202.213 140.306C198.229 140.306 195 137.077 195 133.094C195 129.11 198.229 125.881 202.213 125.881C206.196 125.881 209.426 129.11 209.426 133.094Z" fill="#F4774C"/>
<path d="M205.584 133.094L200.535 136.009L200.535 130.179L205.584 133.094Z" fill="white"/>
<g filter="url(#filter2_d_1059_6657)">
<rect x="15" y="161" width="278" height="38" rx="7" fill="white"/>
</g>
<path d="M155.853 183.237C157.639 183.241 158.706 181.831 158.706 179.401C158.706 176.985 157.632 175.589 155.853 175.589C154.074 175.589 153.004 176.982 153 179.401C153 181.827 154.067 183.237 155.853 183.237ZM155.853 182.105C154.931 182.105 154.352 181.18 154.356 179.401C154.36 177.636 154.935 176.707 155.853 176.707C156.775 176.707 157.35 177.636 157.354 179.401C157.354 181.18 156.779 182.105 155.853 182.105Z" fill="#3C3A3E"/>
<path d="M162.645 183.237C164.431 183.241 165.498 181.831 165.498 179.401C165.498 176.985 164.424 175.589 162.645 175.589C160.866 175.589 159.795 176.982 159.792 179.401C159.792 181.827 160.859 183.237 162.645 183.237ZM162.645 182.105C161.723 182.105 161.144 181.18 161.148 179.401C161.151 177.636 161.726 176.707 162.645 176.707C163.567 176.707 164.142 177.636 164.145 179.401C164.145 181.18 163.571 182.105 162.645 182.105Z" fill="#3C3A3E"/>
<path d="M167.52 182.207C167.947 182.207 168.312 181.852 168.316 181.411C168.312 180.977 167.947 180.623 167.52 180.623C167.079 180.623 166.721 180.977 166.725 181.411C166.721 181.852 167.079 182.207 167.52 182.207ZM167.52 178.533C167.947 178.533 168.312 178.178 168.316 177.737C168.312 177.303 167.947 176.949 167.52 176.949C167.079 176.949 166.721 177.303 166.725 177.737C166.721 178.178 167.079 178.533 167.52 178.533Z" fill="#3C3A3E"/>
<path d="M172.665 175.691H171.388L169.548 176.873V178.102L171.28 176.996H171.323V183.096H172.665V175.691Z" fill="#3C3A3E"/>
<path d="M174.816 183.096H176.209L179.354 176.837V175.691H174.31V176.812H177.966V176.862L174.816 183.096Z" fill="#3C3A3E"/>
<rect x="26.0273" y="178.854" width="56.005" height="3.39424" rx="1.69712" fill="#E6E6E6"/>
<path d="M254.488 182.248L254.488 192.431H252.791L252.791 168.671H254.488V178.854H257.882V179.703H260.428V181.4H257.882V182.248H254.488Z" fill="#CBCBCB"/>
<path d="M240.063 189.885L240.063 171.217H237.517L237.517 189.885H240.063Z" fill="#CBCBCB"/>
<path d="M225.637 189.885L225.637 181.147H228.183V186.491H230.728L230.728 174.611H228.183L228.183 179.955H225.637V171.217H223.94L223.94 189.885H225.637Z" fill="#CBCBCB"/>
<path d="M223.091 172.914L223.091 188.188H221.394L221.394 172.914H223.091Z" fill="#CBCBCB"/>
<path d="M219.697 178.006L219.697 183.097H218V178.006H219.697Z" fill="#CBCBCB"/>
<path d="M234.123 176.777V184.324H231.577V176.777H234.123Z" fill="#CBCBCB"/>
<path d="M243.457 172.914V179.703H246.851V181.4H243.457L243.457 188.188H241.76L241.76 172.914H243.457Z" fill="#CBCBCB"/>
<path d="M266.368 187.34V173.763H264.671V187.34H266.368Z" fill="#CBCBCB"/>
<path d="M251.942 185.643V175.46H250.245V185.643H251.942Z" fill="#CBCBCB"/>
<path d="M267.216 192.431H268.914L268.914 182.248H272.308V181.4H277.399V179.703H272.308V178.854H268.914V168.671H267.216L267.216 192.431Z" fill="#CBCBCB"/>
<path d="M280.793 168.671V192.431H279.096V168.671H280.793Z" fill="#CBCBCB"/>
<path d="M263.822 188.188V172.914H262.125V188.188H263.822Z" fill="#CBCBCB"/>
<path d="M97.078 178.159H96.227L95 178.947V179.767L96.1547 179.029H96.1836V183.096H97.078V178.159Z" fill="#858585"/>
<path d="M100.156 183.19C101.347 183.192 102.058 182.252 102.058 180.632C102.058 179.022 101.343 178.091 100.156 178.091C98.9704 178.091 98.2568 179.019 98.2544 180.632C98.2544 182.25 98.9656 183.19 100.156 183.19ZM100.156 182.435C99.5417 182.435 99.156 181.818 99.1584 180.632C99.1608 179.456 99.5441 178.836 100.156 178.836C100.771 178.836 101.154 179.456 101.157 180.632C101.157 181.818 100.774 182.435 100.156 182.435Z" fill="#858585"/>
<path d="M105.394 181.915V179.393H104.553V183.096H105.452L106.93 180.572V183.096H107.774V179.393H106.877L105.394 181.915Z" fill="#858585"/>
<path d="M109.323 179.393H108.448V183.096H109.323V181.628H110.022C110.157 182.553 110.796 183.168 111.743 183.168C112.811 183.168 113.489 182.385 113.491 181.252C113.489 180.119 112.811 179.345 111.743 179.345C110.784 179.345 110.14 179.967 110.017 180.909H109.323V179.393ZM111.743 182.445C111.107 182.445 110.835 181.924 110.835 181.252C110.835 180.579 111.107 180.061 111.743 180.061C112.377 180.061 112.647 180.584 112.647 181.252C112.647 181.922 112.377 182.445 111.743 182.445Z" fill="#858585"/>
<path d="M115.106 179.393H114.265V183.096H115.106V181.599H116.541V183.096H117.38V179.393H116.541V180.883H115.106V179.393Z" fill="#858585"/>
<path d="M120.451 183.096H121.269V179.393H119.661C118.754 179.393 118.193 179.858 118.195 180.569C118.193 181.037 118.448 181.392 118.889 181.572L118.06 183.096H118.918L119.678 181.703H120.451V183.096ZM120.451 181.066H119.632C119.248 181.066 119.036 180.866 119.039 180.589C119.036 180.312 119.261 180.102 119.661 180.102H120.451V181.066Z" fill="#858585"/>
<path d="M123.822 183.096H127.206V182.349H125.056V182.315L125.907 181.449C126.866 180.529 127.131 180.08 127.131 179.523C127.131 178.696 126.459 178.091 125.466 178.091C124.487 178.091 123.793 178.699 123.793 179.637H124.644C124.644 179.133 124.962 178.817 125.454 178.817C125.924 178.817 126.273 179.104 126.273 179.569C126.273 179.981 126.022 180.275 125.536 180.77L123.822 182.45V183.096Z" fill="#858585"/>
<path d="M129.863 183.19C131.054 183.192 131.765 182.252 131.765 180.632C131.765 179.022 131.049 178.091 129.863 178.091C128.677 178.091 127.963 179.019 127.961 180.632C127.961 182.25 128.672 183.19 129.863 183.19ZM129.863 182.435C129.248 182.435 128.862 181.818 128.865 180.632C128.867 179.456 129.25 178.836 129.863 178.836C130.477 178.836 130.861 179.456 130.863 180.632C130.863 181.818 130.48 182.435 129.863 182.435Z" fill="#858585"/>
<path d="M132.566 183.096H135.95V182.349H133.8V182.315L134.651 181.449C135.61 180.529 135.876 180.08 135.876 179.523C135.876 178.696 135.203 178.091 134.21 178.091C133.231 178.091 132.537 178.699 132.537 179.637H133.388C133.388 179.133 133.706 178.817 134.198 178.817C134.668 178.817 135.017 179.104 135.017 179.569C135.017 179.981 134.767 180.275 134.28 180.77L132.566 182.45V183.096Z" fill="#858585"/>
<path d="M138.79 178.159H137.939L136.712 178.947V179.767L137.867 179.029H137.896V183.096H138.79V178.159Z" fill="#858585"/>
<path d="M209.426 180.126C209.426 184.11 206.196 187.339 202.213 187.339C198.229 187.339 195 184.11 195 180.126C195 176.143 198.229 172.914 202.213 172.914C206.196 172.914 209.426 176.143 209.426 180.126Z" fill="#F4774C"/>
<path d="M205.584 180.126L200.535 183.041L200.535 177.211L205.584 180.126Z" fill="white"/>
<g filter="url(#filter3_d_1059_6657)">
<rect x="15" y="208" width="278" height="38" rx="7" fill="white"/>
</g>
<path fill-rule="evenodd" clip-rule="evenodd" d="M26.0273 222.212C26.0273 221.275 26.7872 220.515 27.7245 220.515H80.3352C81.2725 220.515 82.0323 221.275 82.0323 222.212C82.0323 223.149 81.2725 223.909 80.3352 223.909H27.7245C26.7872 223.909 26.0273 223.149 26.0273 222.212ZM26.0273 234.091C26.0273 233.154 26.7872 232.394 27.7245 232.394H128.703C129.64 232.394 130.4 233.154 130.4 234.091C130.4 235.028 129.64 235.788 128.703 235.788H27.7245C26.7872 235.788 26.0273 235.028 26.0273 234.091ZM92.2167 220.515C91.2794 220.515 90.5195 221.275 90.5195 222.212C90.5195 223.149 91.2794 223.909 92.2166 223.909H279.748C280.686 223.909 281.446 223.149 281.446 222.212C281.446 221.275 280.686 220.515 279.748 220.515H92.2167ZM138.891 234.091C138.891 233.154 139.65 232.394 140.588 232.394H189.804C190.742 232.394 191.501 233.154 191.501 234.091C191.501 235.028 190.742 235.788 189.804 235.788H140.588C139.65 235.788 138.891 235.028 138.891 234.091ZM201.681 232.394C200.744 232.394 199.984 233.154 199.984 234.091C199.984 235.028 200.744 235.788 201.682 235.788H279.749C280.686 235.788 281.446 235.028 281.446 234.091C281.446 233.154 280.686 232.394 279.749 232.394H201.681Z" fill="#E6E6E6"/>
</g>
<defs>
<filter id="filter0_d_1059_6657" x="85.0039" y="0" width="415" height="265" filterUnits="userSpaceOnUse" color-interpolation-filters="sRGB">
<feFlood flood-opacity="0" result="BackgroundImageFix"/>
<feColorMatrix in="SourceAlpha" type="matrix" values="0 0 0 0 0 0 0 0 0 0 0 0 0 0 0 0 0 0 127 0" result="hardAlpha"/>
<feOffset/>
<feGaussianBlur stdDeviation="12.5"/>
<feComposite in2="hardAlpha" operator="out"/>
<feColorMatrix type="matrix" values="0 0 0 0 0 0 0 0 0 0 0 0 0 0 0 0 0 0 0.15 0"/>
<feBlend mode="normal" in2="BackgroundImageFix" result="effect1_dropShadow_1059_6657"/>
<feBlend mode="normal" in="SourceGraphic" in2="effect1_dropShadow_1059_6657" result="shape"/>
</filter>
<filter id="filter1_d_1059_6657" x="-10" y="89" width="328" height="88" filterUnits="userSpaceOnUse" color-interpolation-filters="sRGB">
<feFlood flood-opacity="0" result="BackgroundImageFix"/>
<feColorMatrix in="SourceAlpha" type="matrix" values="0 0 0 0 0 0 0 0 0 0 0 0 0 0 0 0 0 0 127 0" result="hardAlpha"/>
<feOffset/>
<feGaussianBlur stdDeviation="12.5"/>
<feComposite in2="hardAlpha" operator="out"/>
<feColorMatrix type="matrix" values="0 0 0 0 0 0 0 0 0 0 0 0 0 0 0 0 0 0 0.15 0"/>
<feBlend mode="normal" in2="BackgroundImageFix" result="effect1_dropShadow_1059_6657"/>
<feBlend mode="normal" in="SourceGraphic" in2="effect1_dropShadow_1059_6657" result="shape"/>
</filter>
<filter id="filter2_d_1059_6657" x="-10" y="136" width="328" height="88" filterUnits="userSpaceOnUse" color-interpolation-filters="sRGB">
<feFlood flood-opacity="0" result="BackgroundImageFix"/>
<feColorMatrix in="SourceAlpha" type="matrix" values="0 0 0 0 0 0 0 0 0 0 0 0 0 0 0 0 0 0 127 0" result="hardAlpha"/>
<feOffset/>
<feGaussianBlur stdDeviation="12.5"/>
<feComposite in2="hardAlpha" operator="out"/>
<feColorMatrix type="matrix" values="0 0 0 0 0 0 0 0 0 0 0 0 0 0 0 0 0 0 0.15 0"/>
<feBlend mode="normal" in2="BackgroundImageFix" result="effect1_dropShadow_1059_6657"/>
<feBlend mode="normal" in="SourceGraphic" in2="effect1_dropShadow_1059_6657" result="shape"/>
</filter>
<filter id="filter3_d_1059_6657" x="-10" y="183" width="328" height="88" filterUnits="userSpaceOnUse" color-interpolation-filters="sRGB">
<feFlood flood-opacity="0" result="BackgroundImageFix"/>
<feColorMatrix in="SourceAlpha" type="matrix" values="0 0 0 0 0 0 0 0 0 0 0 0 0 0 0 0 0 0 127 0" result="hardAlpha"/>
<feOffset/>
<feGaussianBlur stdDeviation="12.5"/>
<feComposite in2="hardAlpha" operator="out"/>
<feColorMatrix type="matrix" values="0 0 0 0 0 0 0 0 0 0 0 0 0 0 0 0 0 0 0.15 0"/>
<feBlend mode="normal" in2="BackgroundImageFix" result="effect1_dropShadow_1059_6657"/>
<feBlend mode="normal" in="SourceGraphic" in2="effect1_dropShadow_1059_6657" result="shape"/>
</filter>
<clipPath id="clip0_1059_6657">
<rect width="502" height="271" fill="white"/>
</clipPath>
</defs>
</svg>
