<svg width="502" height="331" viewBox="0 0 502 331" fill="none" xmlns="http://www.w3.org/2000/svg">
<g clip-path="url(#clip0_1059_6737)">
<g filter="url(#filter0_d_1059_6737)">
<rect x="110" y="25" width="365" height="215" rx="4" fill="white"/>
</g>
<path d="M110 29C110 26.7909 111.791 25 114 25H471C473.209 25 475 26.7909 475 29V54H110V29Z" fill="#3C3A3E"/>
<path d="M110 54H200V240H114C111.791 240 110 238.209 110 236V54Z" fill="#EDEDED"/>
<path fill-rule="evenodd" clip-rule="evenodd" d="M200 54L200 214H198V189.712L110 189.712V189.212L198 189.212L198 123.688L110 123.688V123.188L198 123.188V54H200ZM118.488 72.4009C118.488 71.466 119.246 70.708 120.181 70.708H184.702C185.637 70.708 186.395 71.466 186.395 72.4009C186.395 73.3359 185.637 74.0938 184.702 74.0938H120.181C119.246 74.0938 118.488 73.3359 118.488 72.4009ZM120.181 136.731C119.246 136.731 118.488 137.489 118.488 138.424C118.488 139.359 119.246 140.117 120.181 140.117H184.702C185.637 140.117 186.395 139.359 186.395 138.424C186.395 137.489 185.637 136.731 184.702 136.731H120.181ZM118.488 84.2515C118.488 83.3165 119.246 82.5586 120.181 82.5586H167.726C168.661 82.5586 169.419 83.3165 169.419 84.2515C169.419 85.1865 168.661 85.9444 167.726 85.9444H120.181C119.246 85.9444 118.488 85.1865 118.488 84.2515ZM120.181 148.582C119.246 148.582 118.488 149.34 118.488 150.275C118.488 151.21 119.246 151.968 120.181 151.968H167.726C168.661 151.968 169.419 151.21 169.419 150.275C169.419 149.34 168.661 148.582 167.726 148.582H120.181ZM118.488 96.1021C118.488 95.1671 119.246 94.4092 120.181 94.4092H175.365C176.3 94.4092 177.058 95.1671 177.058 96.1021C177.058 97.0371 176.3 97.795 175.365 97.795H120.181C119.246 97.795 118.488 97.0371 118.488 96.1021ZM120.181 160.433C119.246 160.433 118.488 161.191 118.488 162.126C118.488 163.061 119.246 163.818 120.181 163.818H175.365C176.3 163.818 177.058 163.061 177.058 162.126C177.058 161.191 176.3 160.433 175.365 160.433H120.181ZM118.488 107.953C118.488 107.018 119.246 106.26 120.181 106.26H156.691C157.626 106.26 158.384 107.018 158.384 107.953C158.384 108.888 157.626 109.646 156.691 109.646H120.181C119.246 109.646 118.488 108.888 118.488 107.953ZM120.181 172.284C119.246 172.284 118.488 173.042 118.488 173.977C118.488 174.912 119.246 175.67 120.181 175.67H156.691C157.626 175.67 158.384 174.912 158.384 173.977C158.384 173.042 157.626 172.284 156.691 172.284H120.181ZM118.488 204.449C118.488 203.514 119.246 202.756 120.181 202.756H167.726C168.661 202.756 169.419 203.514 169.419 204.449C169.419 205.384 168.661 206.142 167.726 206.142H120.181C119.246 206.142 118.488 205.384 118.488 204.449ZM199.977 219.685L110 219.685V220.185L199.977 220.185V219.685Z" fill="#CBCBCB"/>
<rect x="225.441" y="92.7168" width="106.105" height="52.4803" rx="4" fill="#F3F3F3"/>
<rect x="225.441" y="157.048" width="106.105" height="52.4803" rx="4" fill="#F3F3F3"/>
<rect x="343.43" y="92.7168" width="106.105" height="52.4803" rx="4" fill="#F3F3F3"/>
<rect x="343.43" y="157.048" width="106.105" height="52.4803" rx="4" fill="#F3F3F3"/>
<rect x="351.918" y="104.567" width="67.907" height="3.38583" rx="1.69291" fill="#CBCBCB"/>
<rect x="351.918" y="168.898" width="54.3256" height="3.38583" rx="1.69291" fill="#CBCBCB"/>
<path fill-rule="evenodd" clip-rule="evenodd" d="M235.623 104.567C234.688 104.567 233.93 105.325 233.93 106.26C233.93 107.195 234.688 107.953 235.623 107.953H300.144C301.079 107.953 301.837 107.195 301.837 106.26C301.837 105.325 301.079 104.567 300.144 104.567H235.623ZM235.623 113.878C234.688 113.878 233.93 114.636 233.93 115.571C233.93 116.506 234.688 117.264 235.623 117.264H263.644C264.579 117.264 265.337 116.506 265.337 115.571C265.337 114.636 264.579 113.878 263.644 113.878H235.623Z" fill="#CBCBCB"/>
<rect x="351.918" y="113.878" width="31.407" height="3.38583" rx="1.69291" fill="#CBCBCB"/>
<path fill-rule="evenodd" clip-rule="evenodd" d="M235.623 168.898C234.688 168.898 233.93 169.656 233.93 170.591C233.93 171.526 234.688 172.284 235.623 172.284H286.562C287.497 172.284 288.255 171.526 288.255 170.591C288.255 169.656 287.497 168.898 286.562 168.898H235.623ZM235.623 178.209C234.688 178.209 233.93 178.967 233.93 179.902C233.93 180.837 234.688 181.595 235.623 181.595H269.586C270.521 181.595 271.279 180.837 271.279 179.902C271.279 178.967 270.521 178.209 269.586 178.209H235.623Z" fill="#CBCBCB"/>
<rect x="351.918" y="178.209" width="37.3488" height="3.38583" rx="1.69291" fill="#CBCBCB"/>
<path fill-rule="evenodd" clip-rule="evenodd" d="M131.471 41.9356C131.471 44.0531 130.247 45.1129 127.799 45.1152H122.73C122.73 43.0766 125.858 43.0855 127.208 43.0893L127.364 43.0897C128.376 43.0897 128.881 42.6303 128.879 41.7117C128.879 40.7885 128.375 40.3338 127.364 40.3338H124.506V38.3289H127.341C128.352 38.3289 128.853 37.8845 128.853 37.0026C128.853 36.1207 128.345 35.6935 127.341 35.6935C127.18 35.6935 126.998 35.6983 126.801 35.7035H126.801C125.232 35.7448 122.73 35.8106 122.73 33.668H127.397C128.741 33.668 129.677 33.8414 130.206 34.1881C130.604 34.4457 130.928 34.81 131.145 35.2432C131.362 35.6764 131.465 36.1627 131.441 36.6512C131.462 37.2301 131.316 37.8022 131.022 38.2934C130.729 38.7847 130.301 39.1726 129.795 39.4071C130.908 39.9032 131.463 40.7529 131.461 41.9563L131.471 41.9356ZM164.612 36.7857C165.577 36.9633 166.446 37.5032 167.056 38.3038C167.667 39.1044 167.977 40.1107 167.928 41.1336C167.88 42.1566 167.476 43.1257 166.792 43.859C166.108 44.5922 165.192 45.0391 164.216 45.1157C163.24 45.1923 162.27 44.8933 161.49 44.2749C160.709 43.6565 160.171 42.7613 159.977 41.7574C159.783 40.7535 159.947 39.7101 160.436 38.8232C160.926 37.9362 161.708 37.2668 162.636 36.9407C163.272 36.7178 163.952 36.6645 164.612 36.7857ZM140.644 42.7763C140.644 44.3472 139.63 45.1315 137.601 45.1292H132.688V36.7444H137.298C138.391 36.7444 139.159 36.8787 139.603 37.1405C139.928 37.3166 140.198 37.5856 140.383 37.9161C140.567 38.2467 140.658 38.6253 140.644 39.0077C140.65 39.4023 140.547 39.7905 140.349 40.1263C140.151 40.462 139.864 40.7313 139.524 40.9023C139.872 41.0548 140.167 41.3153 140.369 41.6485C140.571 41.9818 140.67 42.3718 140.654 42.766L140.644 42.7763ZM138.378 39.2557C138.378 38.7286 138.026 38.4634 137.318 38.4634H134.805V40.0721H137.318C138.026 40.0721 138.378 39.8 138.378 39.2557ZM138.378 42.5937C138.378 42.046 138.029 41.7739 137.331 41.7739H134.805V43.4136H137.347C138.046 43.4136 138.395 43.138 138.395 42.5937H138.378ZM158.955 45.1292H156.847V41.8049H153.804V45.1292H151.69V36.7444H153.804V39.9584H156.847V36.7444H158.955V45.1292ZM177.048 45.1292H174.202L170.962 41.0608V45.1292H168.847V36.7444H170.962V40.7714L174.37 36.7444H177.067L173.343 40.8472L177.067 45.1292H177.048ZM164.5 38.708C164.212 38.6128 163.907 38.5808 163.606 38.614C163.305 38.6473 163.013 38.745 162.75 38.9011C162.486 39.0572 162.256 39.2684 162.074 39.5215C161.892 39.7747 161.762 40.0643 161.691 40.3723C161.621 40.6804 161.612 41.0004 161.665 41.3123C161.718 41.6242 161.831 41.9214 161.999 42.1853C162.166 42.4493 162.384 42.6744 162.638 42.8466C162.892 43.0188 163.177 43.1344 163.476 43.1863C163.803 43.2549 164.141 43.2467 164.464 43.1621C164.936 43.0376 165.355 42.7534 165.656 42.3538C165.958 41.9543 166.124 41.4617 166.13 40.9528C166.136 40.4439 165.981 39.9472 165.69 39.5399C165.398 39.1327 164.986 38.8378 164.517 38.7011L164.5 38.708ZM147.138 38.5805C147.639 38.8353 148.041 39.2599 148.281 39.7851C148.521 40.3103 148.584 40.905 148.459 41.4721C148.334 42.0393 148.029 42.5454 147.593 42.9078C147.158 43.2701 146.618 43.4675 146.061 43.4675C145.505 43.4675 144.965 43.2701 144.53 42.9078C144.094 42.5454 143.789 42.0393 143.664 41.4721C143.539 40.905 143.602 40.3103 143.842 39.7851C144.081 39.2599 144.484 38.8353 144.985 38.5805V36.3379C143.92 36.6131 142.989 37.2863 142.366 38.2306C141.744 39.1749 141.473 40.3249 141.606 41.4635C141.738 42.6021 142.264 43.6506 143.085 44.4111C143.906 45.1716 144.965 45.5914 146.061 45.5914C147.158 45.5914 148.217 45.1716 149.037 44.4111C149.858 43.6506 150.385 42.6021 150.517 41.4635C150.65 40.3249 150.379 39.1749 149.757 38.2306C149.134 37.2863 148.203 36.6131 147.138 36.3379V38.5805ZM145.311 42.1009C145.624 42.3159 146.006 42.3928 146.373 42.3149C146.651 42.2607 146.907 42.1213 147.109 41.9144C147.31 41.7076 147.448 41.4427 147.506 41.1535C147.563 40.8642 147.536 40.5637 147.43 40.2902C147.323 40.0167 147.141 39.7825 146.907 39.6175C146.765 39.5169 146.606 39.4445 146.439 39.404V36.1934H145.781V39.404C145.415 39.4894 145.096 39.7225 144.893 40.0525C144.691 40.3826 144.621 40.7829 144.699 41.1664C144.777 41.55 144.997 41.8858 145.311 42.1009Z" fill="white"/>
<g filter="url(#filter1_d_1059_6737)">
<rect x="15" y="71" width="205" height="103" rx="7" fill="white"/>
</g>
<path d="M35 96.9173H36.2973V95.1172H41.0527V96.91H42.3499V94.0131H41.5191V87.6543H36.7491L36.5523 90.81C36.4321 92.8215 36.0057 93.6122 35.4992 94.0131H35V96.9173ZM37.0734 94.0131C37.4706 93.3608 37.7585 92.3368 37.8496 90.81L37.9662 88.7876H40.2218V94.0131H37.0734Z" fill="#3C3A3E"/>
<path d="M45.8709 95.2265C47.1755 95.2265 48.0719 94.5888 48.3051 93.6159L47.0735 93.4774C46.8949 93.9511 46.4576 94.1989 45.8892 94.1989C45.0365 94.1989 44.4716 93.6377 44.4607 92.6794H48.3598V92.2749C48.3598 90.3108 47.1791 89.4471 45.8017 89.4471C44.1983 89.4471 43.1525 90.6242 43.1525 92.3514C43.1525 94.1078 44.1838 95.2265 45.8709 95.2265ZM44.4644 91.7902C44.5044 91.076 45.0328 90.4747 45.8199 90.4747C46.5779 90.4747 47.088 91.0286 47.0953 91.7902H44.4644Z" fill="#3C3A3E"/>
<path d="M49.0093 90.6023H50.8204V95.1172H52.0958V90.6023H53.9069V89.52H49.0093V90.6023Z" fill="#3C3A3E"/>
<path d="M56.3374 95.2302C57.2156 95.2302 57.7403 94.8184 57.9808 94.3483H58.0246V95.1172H59.2927V91.3712C59.2927 89.8917 58.0865 89.4471 57.0188 89.4471C55.8418 89.4471 54.9381 89.9719 54.6466 90.9922L55.8783 91.1671C56.0094 90.7845 56.3811 90.4565 57.0261 90.4565C57.6383 90.4565 57.9736 90.7699 57.9736 91.3202V91.342C57.9736 91.721 57.5764 91.7392 56.5888 91.8449C55.5029 91.9615 54.4644 92.2858 54.4644 93.5466C54.4644 94.6471 55.2697 95.2302 56.3374 95.2302ZM56.6799 94.2609C56.1297 94.2609 55.7361 94.0094 55.7361 93.5248C55.7361 93.0183 56.1771 92.8069 56.7674 92.7231C57.1136 92.6757 57.8059 92.5883 57.9772 92.4498V93.1094C57.9772 93.7325 57.4743 94.2609 56.6799 94.2609Z" fill="#3C3A3E"/>
<path d="M60.2328 95.1172H60.641C61.8435 95.1172 62.3864 94.2718 62.4739 92.4061L62.5613 90.6023H64.1683V95.1172H65.4437V89.52H61.3625L61.2641 91.9979C61.2021 93.5685 60.9981 94.0313 60.4187 94.0313H60.2255L60.2328 95.1172Z" fill="#3C3A3E"/>
<path d="M68.0437 93.3316V89.52H66.772V95.1172H68.1312L70.365 91.3019V95.1172H71.6404V89.52H70.2848L68.0437 93.3316Z" fill="#3C3A3E"/>
<path d="M72.6853 93.5831C72.7181 94.6216 73.6691 95.2265 74.9628 95.2265C76.2892 95.2265 77.2475 94.5961 77.2475 93.5649C77.2475 92.8105 76.7337 92.2931 76.0705 92.253V92.1947C76.7119 92.0234 77.12 91.6226 77.12 91.0177C77.12 90.0739 76.3037 89.4471 74.9919 89.4471C73.7675 89.4471 72.8456 90.0812 72.8274 91.0578H74.1283C74.1429 90.6825 74.5291 90.4201 75.0539 90.4201C75.5786 90.4201 75.8956 90.7007 75.8956 91.1161C75.8956 91.4987 75.6041 91.7829 75.0575 91.7829H74.2012V92.7194H75.0575C75.6077 92.7194 75.9685 93.0292 75.9685 93.481C75.9685 93.9912 75.5203 94.239 74.9555 94.239C74.3979 94.239 74.019 93.9985 73.9935 93.5831H72.6853Z" fill="#3C3A3E"/>
<path d="M79.8967 95.2302C80.7749 95.2302 81.2997 94.8184 81.5402 94.3483H81.5839V95.1172H82.852V91.3712C82.852 89.8917 81.6458 89.4471 80.5782 89.4471C79.4011 89.4471 78.4974 89.9719 78.2059 90.9922L79.4376 91.1671C79.5688 90.7845 79.9405 90.4565 80.5854 90.4565C81.1976 90.4565 81.5329 90.7699 81.5329 91.3202V91.342C81.5329 91.721 81.1357 91.7392 80.1482 91.8449C79.0623 91.9615 78.0237 92.2858 78.0237 93.5466C78.0237 94.6471 78.829 95.2302 79.8967 95.2302ZM80.2393 94.2609C79.689 94.2609 79.2955 94.0094 79.2955 93.5248C79.2955 93.0183 79.7364 92.8069 80.3267 92.7231C80.6729 92.6757 81.3653 92.5883 81.5365 92.4498V93.1094C81.5365 93.7325 81.0337 94.2609 80.2393 94.2609Z" fill="#3C3A3E"/>
<path d="M88.9047 89.52H87.6439V94.0349H85.4502V89.52H84.1784V95.1172H88.471V96.9173H89.761V94.1333H88.9047V89.52Z" fill="#3C3A3E"/>
<path d="M92.1141 93.3316V89.52H90.8424V95.1172H92.2016L94.4354 91.3019V95.1172H95.7108V89.52H94.3552L92.1141 93.3316Z" fill="#3C3A3E"/>
<path d="M100.374 95.1172H101.609V89.52H99.1789C97.8088 89.52 96.9597 90.2233 96.9634 91.2983C96.9597 92.0052 97.346 92.5409 98.0128 92.8142L96.7593 95.1172H98.0566L99.2044 93.011H100.374V95.1172ZM100.374 92.049H99.1352C98.5558 92.049 98.2351 91.7465 98.2388 91.3274C98.2351 90.9084 98.574 90.5914 99.1789 90.5914H100.374V92.049Z" fill="#3C3A3E"/>
<path d="M41.5774 150.886C41.3478 149.228 40.0724 148.266 38.4181 148.266C36.4685 148.266 35 149.687 35 152.099C35 154.508 36.4503 155.933 38.4181 155.933C40.1927 155.933 41.3697 154.785 41.5774 153.36L40.2146 153.353C40.0433 154.227 39.3291 154.719 38.4363 154.719C37.2265 154.719 36.3592 153.812 36.3592 152.099C36.3592 150.416 37.2192 149.479 38.4399 149.479C39.3473 149.479 40.0579 149.993 40.2146 150.886H41.5774Z" fill="#3C3A3E"/>
<path d="M43.6272 157.929C44.6548 157.929 45.2487 157.401 45.5658 156.508L47.8141 150.241L46.4039 150.233L45.1103 154.46H45.052L43.762 150.233H42.3627L44.3924 155.947L44.2794 156.25C44.0353 156.887 43.649 156.931 43.0733 156.763L42.7672 157.791C42.9457 157.864 43.2664 157.929 43.6272 157.929Z" fill="#3C3A3E"/>
<path d="M51.9509 154.296L50.333 150.233H48.7297V155.831H50.0014V152.059L51.4918 155.831H52.4137L53.9551 152.019V155.831H55.216V150.233H53.6126L51.9509 154.296Z" fill="#3C3A3E"/>
<path d="M59.7673 154.296L58.1494 150.233H56.546V155.831H57.8178V152.059L59.3082 155.831H60.2301L61.7715 152.019V155.831H63.0323V150.233H61.429L59.7673 154.296Z" fill="#3C3A3E"/>
<path d="M65.973 155.944C66.8512 155.944 67.376 155.532 67.6165 155.062H67.6602V155.831H68.9283V152.085C68.9283 150.605 67.7221 150.161 66.6545 150.161C65.4774 150.161 64.5737 150.685 64.2822 151.706L65.5139 151.88C65.6451 151.498 66.0168 151.17 66.6617 151.17C67.2739 151.17 67.6092 151.483 67.6092 152.034V152.055C67.6092 152.434 67.212 152.453 66.2245 152.558C65.1386 152.675 64.1 152.999 64.1 154.26C64.1 155.36 64.9053 155.944 65.973 155.944ZM66.3156 154.974C65.7653 154.974 65.3718 154.723 65.3718 154.238C65.3718 153.732 65.8127 153.52 66.403 153.436C66.7492 153.389 67.4416 153.302 67.6128 153.163V153.823C67.6128 154.446 67.11 154.974 66.3156 154.974Z" fill="#3C3A3E"/>
<path d="M72.8 157.929H74.1192V154.949H74.1738C74.3815 155.357 74.8152 155.929 75.7772 155.929C77.0963 155.929 78.0838 154.883 78.0838 153.039C78.0838 151.174 77.0672 150.161 75.7735 150.161C74.786 150.161 74.3743 150.754 74.1738 151.159H74.0973V150.233H72.8V157.929ZM74.0937 153.032C74.0937 151.946 74.5601 151.243 75.4091 151.243C76.2873 151.243 76.7392 151.99 76.7392 153.032C76.7392 154.081 76.2801 154.847 75.4091 154.847C74.5674 154.847 74.0937 154.118 74.0937 153.032Z" fill="#3C3A3E"/>
<path d="M80.8241 155.944C81.7023 155.944 82.2271 155.532 82.4676 155.062H82.5113V155.831H83.7794V152.085C83.7794 150.605 82.5732 150.161 81.5056 150.161C80.3285 150.161 79.4248 150.685 79.1333 151.706L80.365 151.88C80.4962 151.498 80.8679 151.17 81.5128 151.17C82.125 151.17 82.4603 151.483 82.4603 152.034V152.055C82.4603 152.434 82.0631 152.453 81.0756 152.558C79.9897 152.675 78.9511 152.999 78.9511 154.26C78.9511 155.36 79.7564 155.944 80.8241 155.944ZM81.1667 154.974C80.6164 154.974 80.2229 154.723 80.2229 154.238C80.2229 153.732 80.6638 153.52 81.2541 153.436C81.6003 153.389 82.2927 153.302 82.4639 153.163V153.823C82.4639 154.446 81.961 154.974 81.1667 154.974Z" fill="#3C3A3E"/>
<path d="M87.5473 155.94C88.9539 155.94 89.8503 155.105 89.945 153.917H88.6842C88.5713 154.519 88.1376 154.865 87.5582 154.865C86.7347 154.865 86.2027 154.176 86.2027 153.032C86.2027 151.902 86.7456 151.225 87.5582 151.225C88.1923 151.225 88.5822 151.633 88.6842 152.172H89.945C89.8539 150.959 88.9065 150.161 87.54 150.161C85.9002 150.161 84.8653 151.345 84.8653 153.054C84.8653 154.748 85.8747 155.94 87.5473 155.94Z" fill="#3C3A3E"/>
<path d="M92.0668 150.233H90.6675L92.3291 153.032L90.6237 155.831H92.023L93.1964 153.815L94.3807 155.831H95.769L94.0527 153.032L95.7399 150.233H94.3442L93.1964 152.3L92.0668 150.233Z" fill="#3C3A3E"/>
<path d="M98.9912 155.94C100.631 155.94 101.673 154.785 101.673 153.054C101.673 151.319 100.631 150.161 98.9912 150.161C97.3515 150.161 96.3093 151.319 96.3093 153.054C96.3093 154.785 97.3515 155.94 98.9912 155.94ZM98.9985 154.883C98.0912 154.883 97.6466 154.074 97.6466 153.05C97.6466 152.026 98.0912 151.206 98.9985 151.206C99.8913 151.206 100.336 152.026 100.336 153.05C100.336 154.074 99.8913 154.883 98.9985 154.883Z" fill="#3C3A3E"/>
<path d="M102.297 157.456H103.595V155.831H107.257V157.456H108.532V154.745H107.665V150.233H103.62L103.46 152.194C103.354 153.447 103.216 154.377 102.742 154.745H102.297V157.456ZM104.097 154.745C104.451 154.224 104.582 153.378 104.677 152.194L104.764 151.297H106.404V154.745H104.097Z" fill="#3C3A3E"/>
<path d="M111.958 155.94C113.598 155.94 114.64 154.785 114.64 153.054C114.64 151.319 113.598 150.161 111.958 150.161C110.319 150.161 109.276 151.319 109.276 153.054C109.276 154.785 110.319 155.94 111.958 155.94ZM111.966 154.883C111.058 154.883 110.614 154.074 110.614 153.05C110.614 152.026 111.058 151.206 111.966 151.206C112.858 151.206 113.303 152.026 113.303 153.05C113.303 154.074 112.858 154.883 111.966 154.883Z" fill="#3C3A3E"/>
<path d="M115.76 155.831H118.471C119.783 155.831 120.534 155.237 120.534 154.311C120.534 153.528 119.925 152.981 119.047 152.904C119.794 152.766 120.26 152.369 120.26 151.738C120.26 150.795 119.433 150.233 118.11 150.233H115.76V155.831ZM116.995 154.792V153.404H118.471C118.956 153.404 119.251 153.684 119.251 154.147C119.251 154.548 118.956 154.792 118.471 154.792H116.995ZM116.995 152.551V151.29H118.11C118.661 151.29 118.996 151.523 118.996 151.906C118.996 152.307 118.672 152.551 118.136 152.551H116.995Z" fill="#3C3A3E"/>
<path d="M122.435 155.911C122.865 155.911 123.233 155.554 123.237 155.109C123.233 154.672 122.865 154.315 122.435 154.315C121.99 154.315 121.63 154.672 121.633 155.109C121.63 155.554 121.99 155.911 122.435 155.911ZM122.435 151.913C122.865 151.913 123.233 151.556 123.237 151.112C123.233 150.674 122.865 150.317 122.435 150.317C121.99 150.317 121.63 150.674 121.633 151.112C121.63 151.556 121.99 151.913 122.435 151.913Z" fill="#3C3A3E"/>
<path d="M41.5774 113.261C41.3478 111.603 40.0724 110.641 38.4181 110.641C36.4685 110.641 35 112.062 35 114.474C35 116.883 36.4503 118.308 38.4181 118.308C40.1927 118.308 41.3697 117.16 41.5774 115.735L40.2146 115.728C40.0433 116.602 39.3291 117.094 38.4363 117.094C37.2265 117.094 36.3592 116.187 36.3592 114.474C36.3592 112.791 37.2192 111.854 38.4399 111.854C39.3473 111.854 40.0579 112.368 40.2146 113.261H41.5774Z" fill="#3C3A3E"/>
<path d="M43.5698 117.309C43.9998 117.309 44.3678 116.952 44.3714 116.507C44.3678 116.07 43.9998 115.713 43.5698 115.713C43.1252 115.713 42.7644 116.07 42.7681 116.507C42.7644 116.952 43.1252 117.309 43.5698 117.309ZM43.5698 113.607C43.9998 113.607 44.3678 113.25 44.3714 112.805C44.3678 112.368 43.9998 112.011 43.5698 112.011C43.1252 112.011 42.7644 112.368 42.7681 112.805C42.7644 113.25 43.1252 113.607 43.5698 113.607Z" fill="#3C3A3E"/>
<path d="M124.439 110.742H118.492V118.205H119.833V111.865H123.098V118.205H124.439V110.742Z" fill="#3C3A3E"/>
<path d="M128.439 118.314C130.079 118.314 131.121 117.159 131.121 115.428C131.121 113.694 130.079 112.535 128.439 112.535C126.8 112.535 125.757 113.694 125.757 115.428C125.757 117.159 126.8 118.314 128.439 118.314ZM128.447 117.258C127.539 117.258 127.095 116.449 127.095 115.425C127.095 114.401 127.539 113.581 128.447 113.581C129.339 113.581 129.784 114.401 129.784 115.425C129.784 116.449 129.339 117.258 128.447 117.258Z" fill="#3C3A3E"/>
<path d="M133.054 118.285C133.484 118.285 133.852 117.928 133.855 117.484C133.852 117.046 133.484 116.689 133.054 116.689C132.609 116.689 132.248 117.046 132.252 117.484C132.248 117.928 132.609 118.285 133.054 118.285ZM133.054 114.288C133.484 114.288 133.852 113.931 133.855 113.486C133.852 113.049 133.484 112.692 133.054 112.692C132.609 112.692 132.248 113.049 132.252 113.486C132.248 113.931 132.609 114.288 133.054 114.288Z" fill="#3C3A3E"/>
<path d="M50.5018 118.205H53.9126V117.452H51.7456V117.418L52.6032 116.546C53.5701 115.618 53.8373 115.166 53.8373 114.605C53.8373 113.772 53.1595 113.162 52.1586 113.162C51.1723 113.162 50.4727 113.774 50.4727 114.719H51.3302C51.3302 114.212 51.6509 113.893 52.1465 113.893C52.6202 113.893 52.9724 114.182 52.9724 114.651C52.9724 115.067 52.7198 115.363 52.2291 115.861L50.5018 117.554V118.205Z" fill="#858585"/>
<path d="M56.5897 118.3C57.7898 118.303 58.5064 117.355 58.5064 115.723C58.5064 114.1 57.7849 113.162 56.5897 113.162C55.3945 113.162 54.6754 114.097 54.673 115.723C54.673 117.353 55.3896 118.3 56.5897 118.3ZM56.5897 117.54C55.9702 117.54 55.5815 116.918 55.584 115.723C55.5864 114.537 55.9727 113.913 56.5897 113.913C57.2092 113.913 57.5954 114.537 57.5979 115.723C57.5979 116.918 57.2116 117.54 56.5897 117.54Z" fill="#858585"/>
<path d="M59.3136 118.205H62.7244V117.452H60.5574V117.418L61.415 116.546C62.3818 115.618 62.6491 115.166 62.6491 114.605C62.6491 113.772 61.9713 113.162 60.9704 113.162C59.9841 113.162 59.2844 113.774 59.2844 114.719H60.142C60.142 114.212 60.4627 113.893 60.9582 113.893C61.432 113.893 61.7842 114.182 61.7842 114.651C61.7842 115.067 61.5316 115.363 61.0408 115.861L59.3136 117.554V118.205Z" fill="#858585"/>
<path d="M65.5861 113.23H64.7286L63.492 114.025V114.851L64.6557 114.107H64.6848V118.205H65.5861V113.23Z" fill="#858585"/>
<path d="M69.1208 115.356H66.8809V116.08H69.1208V115.356Z" fill="#858585"/>
<path d="M71.875 118.3C73.0751 118.303 73.7918 117.355 73.7918 115.723C73.7918 114.1 73.0703 113.162 71.875 113.162C70.6798 113.162 69.9607 114.097 69.9583 115.723C69.9583 117.353 70.675 118.3 71.875 118.3ZM71.875 117.54C71.2556 117.54 70.8669 116.918 70.8693 115.723C70.8717 114.537 71.258 113.913 71.875 113.913C72.4945 113.913 72.8808 114.537 72.8832 115.723C72.8832 116.918 72.497 117.54 71.875 117.54Z" fill="#858585"/>
<path d="M76.3262 113.162C75.2476 113.155 74.5309 113.896 74.5309 114.868C74.5333 115.805 75.2014 116.483 76.0735 116.483C76.6104 116.483 77.0768 116.223 77.3173 115.796H77.3514C77.3489 116.86 76.9627 117.494 76.2752 117.494C75.8452 117.494 75.5561 117.246 75.4662 116.85H74.5795C74.6815 117.673 75.3326 118.273 76.2752 118.273C77.468 118.273 78.2283 117.277 78.2259 115.565C78.2235 113.752 77.2809 113.167 76.3262 113.162ZM76.3286 113.891C76.8606 113.891 77.2518 114.333 77.2518 114.841C77.2542 115.356 76.8436 115.798 76.3189 115.798C75.7893 115.798 75.4079 115.38 75.4055 114.848C75.4055 114.314 75.8014 113.891 76.3286 113.891Z" fill="#858585"/>
<path d="M81.3063 115.356H79.0665V116.08H81.3063V115.356Z" fill="#858585"/>
<path d="M82.0545 118.205H85.4653V117.452H83.2984V117.418L84.1559 116.546C85.1228 115.618 85.39 115.166 85.39 114.605C85.39 113.772 84.7122 113.162 83.7113 113.162C82.725 113.162 82.0254 113.774 82.0254 114.719H82.8829C82.8829 114.212 83.2036 113.893 83.6992 113.893C84.1729 113.893 84.5252 114.182 84.5252 114.651C84.5252 115.067 84.2725 115.363 83.7818 115.861L82.0545 117.554V118.205Z" fill="#858585"/>
<path d="M88.1424 118.3C89.3425 118.303 90.0592 117.355 90.0592 115.723C90.0592 114.1 89.3377 113.162 88.1424 113.162C86.9472 113.162 86.2281 114.097 86.2257 115.723C86.2257 117.353 86.9423 118.3 88.1424 118.3ZM88.1424 117.54C87.523 117.54 87.1343 116.918 87.1367 115.723C87.1391 114.537 87.5254 113.913 88.1424 113.913C88.7619 113.913 89.1482 114.537 89.1506 115.723C89.1506 116.918 88.7643 117.54 88.1424 117.54Z" fill="#858585"/>
<path d="M139.435 118.205H142.846V117.452H140.679V117.418L141.537 116.546C142.504 115.618 142.771 115.166 142.771 114.605C142.771 113.772 142.093 113.162 141.092 113.162C140.106 113.162 139.406 113.774 139.406 114.719H140.264C140.264 114.212 140.584 113.893 141.08 113.893C141.554 113.893 141.906 114.182 141.906 114.651C141.906 115.067 141.653 115.363 141.163 115.861L139.435 117.554V118.205Z" fill="#858585"/>
<path d="M145.523 118.3C146.723 118.303 147.44 117.355 147.44 115.723C147.44 114.1 146.719 113.162 145.523 113.162C144.328 113.162 143.609 114.097 143.607 115.723C143.607 117.353 144.323 118.3 145.523 118.3ZM145.523 117.54C144.904 117.54 144.515 116.918 144.518 115.723C144.52 114.537 144.906 113.913 145.523 113.913C146.143 113.913 146.529 114.537 146.531 115.723C146.531 116.918 146.145 117.54 145.523 117.54Z" fill="#858585"/>
<path d="M148.247 118.205H151.658V117.452H149.491V117.418L150.349 116.546C151.315 115.618 151.583 115.166 151.583 114.605C151.583 113.772 150.905 113.162 149.904 113.162C148.918 113.162 148.218 113.774 148.218 114.719H149.076C149.076 114.212 149.396 113.893 149.892 113.893C150.366 113.893 150.718 114.182 150.718 114.651C150.718 115.067 150.465 115.363 149.974 115.861L148.247 117.554V118.205Z" fill="#858585"/>
<path d="M154.52 113.23H153.662L152.426 114.025V114.85L153.589 114.107H153.618V118.205H154.52V113.23Z" fill="#858585"/>
<path d="M158.054 115.356H155.815V116.08H158.054V115.356Z" fill="#858585"/>
<path d="M160.993 113.23H160.136L158.899 114.025V114.85L160.063 114.107H160.092V118.205H160.993V113.23Z" fill="#858585"/>
<path d="M164.096 118.3C165.296 118.303 166.012 117.355 166.012 115.723C166.012 114.1 165.291 113.162 164.096 113.162C162.9 113.162 162.181 114.097 162.179 115.723C162.179 117.353 162.895 118.3 164.096 118.3ZM164.096 117.54C163.476 117.54 163.087 116.918 163.09 115.723C163.092 114.537 163.478 113.913 164.096 113.913C164.715 113.913 165.101 114.537 165.104 115.723C165.104 116.918 164.717 117.54 164.096 117.54Z" fill="#858585"/>
<path d="M169.091 115.356H166.851V116.08H169.091V115.356Z" fill="#858585"/>
<path d="M172.03 113.23H171.172L169.936 114.025V114.85L171.099 114.107H171.128V118.205H172.03V113.23Z" fill="#858585"/>
<path d="M173.475 118.205H174.41L176.524 114V113.23H173.135V113.983H175.591V114.017L173.475 118.205Z" fill="#858585"/>
<path fill-rule="evenodd" clip-rule="evenodd" d="M112.484 90.8418C111.539 90.8418 110.773 91.6075 110.773 92.552C110.773 93.4966 111.539 94.2623 112.484 94.2623H198.851C199.796 94.2623 200.561 93.4966 200.561 92.552C200.561 91.6075 199.796 90.8418 198.851 90.8418H112.484ZM134.718 151.556C133.774 151.556 133.008 152.321 133.008 153.266C133.008 154.21 133.774 154.976 134.718 154.976H198.852C199.797 154.976 200.563 154.21 200.563 153.266C200.563 152.321 199.797 151.556 198.852 151.556H134.718ZM35 126.757C35 125.813 35.7657 125.047 36.7102 125.047H100.845C101.789 125.047 102.555 125.813 102.555 126.757C102.555 127.702 101.789 128.467 100.845 128.467H36.7103C35.7657 128.467 35 127.702 35 126.757ZM119.324 125.047C118.379 125.047 117.613 125.813 117.613 126.757C117.613 127.702 118.379 128.467 119.324 128.467H183.458C184.402 128.467 185.168 127.702 185.168 126.757C185.168 125.813 184.402 125.047 183.458 125.047H119.324ZM35 133.598C35 132.653 35.7657 131.888 36.7102 131.888H73.4806C74.4251 131.888 75.1908 132.653 75.1908 133.598C75.1908 134.542 74.4251 135.308 73.4806 135.308H36.7102C35.7657 135.308 35 134.542 35 133.598ZM119.324 131.888C118.379 131.888 117.613 132.653 117.613 133.598C117.613 134.542 118.379 135.308 119.324 135.308H156.094C157.038 135.308 157.804 134.542 157.804 133.598C157.804 132.653 157.038 131.888 156.094 131.888H119.324Z" fill="#E6E6E6"/>
<g filter="url(#filter2_d_1059_6737)">
<rect x="15" y="183" width="205" height="123" rx="7" fill="white"/>
</g>
<path d="M41.5774 202.173C41.3478 200.515 40.0724 199.553 38.4181 199.553C36.4685 199.553 35 200.974 35 203.386C35 205.795 36.4503 207.22 38.4181 207.22C40.1927 207.22 41.3697 206.072 41.5774 204.647L40.2146 204.64C40.0433 205.514 39.3291 206.006 38.4363 206.006C37.2265 206.006 36.3592 205.099 36.3592 203.386C36.3592 201.703 37.2192 200.766 38.4399 200.766C39.3473 200.766 40.0579 201.28 40.2146 202.173H41.5774Z" fill="#3C3A3E"/>
<path d="M42.4511 202.603H44.2621V207.118H45.5375V202.603H47.3486V201.52H42.4511V202.603Z" fill="#3C3A3E"/>
<path d="M49.7791 207.231C50.6573 207.231 51.1821 206.819 51.4226 206.349H51.4663V207.118H52.7344V203.372C52.7344 201.892 51.5282 201.448 50.4606 201.448C49.2835 201.448 48.3798 201.972 48.0883 202.993L49.32 203.168C49.4512 202.785 49.8229 202.457 50.4678 202.457C51.08 202.457 51.4153 202.77 51.4153 203.321V203.342C51.4153 203.721 51.0181 203.74 50.0306 203.845C48.9447 203.962 47.9061 204.286 47.9061 205.547C47.9061 206.648 48.7114 207.231 49.7791 207.231ZM50.1217 206.261C49.5714 206.261 49.1779 206.01 49.1779 205.525C49.1779 205.019 49.6188 204.807 50.2091 204.724C50.5553 204.676 51.2477 204.589 51.4189 204.45V205.11C51.4189 205.733 50.9161 206.261 50.1217 206.261Z" fill="#3C3A3E"/>
<path d="M53.434 202.603H55.2451V207.118H56.5205V202.603H58.3316V201.52H53.434V202.603Z" fill="#3C3A3E"/>
<path d="M60.6537 205.332V201.52H59.382V207.118H60.7412L62.9749 203.302V207.118H64.2503V201.52H62.8948L60.6537 205.332Z" fill="#3C3A3E"/>
<path d="M68.0465 207.227C69.453 207.227 70.3495 206.393 70.4442 205.205H69.1834C69.0704 205.806 68.6368 206.152 68.0574 206.152C67.2338 206.152 66.7018 205.463 66.7018 204.319C66.7018 203.189 67.2448 202.512 68.0574 202.512C68.6914 202.512 69.0814 202.92 69.1834 203.459H70.4442C70.3531 202.246 69.4057 201.448 68.0392 201.448C66.3994 201.448 65.3645 202.632 65.3645 204.341C65.3645 206.035 66.3739 207.227 68.0465 207.227Z" fill="#3C3A3E"/>
<path d="M71.1311 202.603H72.9422V207.118H74.2176V202.603H76.0286V201.52H71.1311V202.603Z" fill="#3C3A3E"/>
<path d="M78.3508 205.332V201.52H77.079V207.118H78.4382L80.672 203.302V207.118H81.9474V201.52H80.5918L78.3508 205.332Z" fill="#3C3A3E"/>
<path d="M83.302 207.118H84.6212V205.008H85.2662L86.8003 207.118H88.3963L86.301 204.268L88.3745 201.52H86.7857L85.1022 203.78H84.6212V201.52H83.302V207.118Z" fill="#3C3A3E"/>
<path d="M90.7549 207.231C91.6331 207.231 92.1579 206.819 92.3984 206.349H92.4421V207.118H93.7102V203.372C93.7102 201.892 92.504 201.448 91.4363 201.448C90.2593 201.448 89.3556 201.972 89.0641 202.993L90.2958 203.168C90.427 202.785 90.7986 202.457 91.4436 202.457C92.0558 202.457 92.3911 202.77 92.3911 203.321V203.342C92.3911 203.721 91.9939 203.74 91.0063 203.845C89.9204 203.962 88.8819 204.286 88.8819 205.547C88.8819 206.648 89.6872 207.231 90.7549 207.231ZM91.0975 206.261C90.5472 206.261 90.1537 206.01 90.1537 205.525C90.1537 205.019 90.5946 204.807 91.1849 204.724C91.5311 204.676 92.2234 204.589 92.3947 204.45V205.11C92.3947 205.733 91.8918 206.261 91.0975 206.261Z" fill="#3C3A3E"/>
<path d="M99.1926 207.231C100.071 207.231 100.596 206.819 100.836 206.349H100.88V207.118H102.148V203.372C102.148 201.892 100.942 201.448 99.874 201.448C98.697 201.448 97.7933 201.972 97.5018 202.993L98.7334 203.168C98.8646 202.785 99.2363 202.457 99.8813 202.457C100.493 202.457 100.829 202.77 100.829 203.321V203.342C100.829 203.721 100.432 203.74 99.444 203.845C98.3581 203.962 97.3196 204.286 97.3196 205.547C97.3196 206.648 98.1249 207.231 99.1926 207.231ZM99.5351 206.261C98.9849 206.261 98.5913 206.01 98.5913 205.525C98.5913 205.019 99.0322 204.807 99.6226 204.724C99.9688 204.676 100.661 204.589 100.832 204.45V205.11C100.832 205.733 100.33 206.261 99.5351 206.261Z" fill="#3C3A3E"/>
<path d="M103.474 207.118H104.793V205.008H105.438L106.973 207.118H108.569L106.473 204.268L108.547 201.52H106.958L105.274 203.78H104.793V201.52H103.474V207.118Z" fill="#3C3A3E"/>
<path d="M109.317 207.118H110.636V205.008H111.281L112.815 207.118H114.411L112.316 204.268L114.389 201.52H112.8L111.117 203.78H110.636V201.52H109.317V207.118Z" fill="#3C3A3E"/>
<path d="M116.769 207.231C117.648 207.231 118.172 206.819 118.413 206.349H118.457V207.118H119.725V203.372C119.725 201.892 118.519 201.448 117.451 201.448C116.274 201.448 115.37 201.972 115.079 202.993L116.31 203.168C116.441 202.785 116.813 202.457 117.458 202.457C118.07 202.457 118.406 202.77 118.406 203.321V203.342C118.406 203.721 118.008 203.74 117.021 203.845C115.935 203.962 114.896 204.286 114.896 205.547C114.896 206.648 115.702 207.231 116.769 207.231ZM117.112 206.261C116.562 206.261 116.168 206.01 116.168 205.525C116.168 205.019 116.609 204.807 117.199 204.724C117.546 204.676 118.238 204.589 118.409 204.45V205.11C118.409 205.733 117.906 206.261 117.112 206.261Z" fill="#3C3A3E"/>
<path d="M121.671 209.217C122.698 209.217 123.292 208.688 123.609 207.795L125.857 201.528L124.447 201.52L123.154 205.748H123.095L121.805 201.52H120.406L122.436 207.234L122.323 207.537C122.079 208.174 121.692 208.218 121.117 208.051L120.811 209.078C120.989 209.151 121.31 209.217 121.671 209.217Z" fill="#3C3A3E"/>
<path d="M128.045 201.52H126.773V207.118H128.045V204.855H130.213V207.118H131.481V201.52H130.213V203.772H128.045V201.52Z" fill="#3C3A3E"/>
<path d="M132.189 202.603H134V207.118H135.275V202.603H137.086V201.52H132.189V202.603Z" fill="#3C3A3E"/>
<path d="M139.517 207.231C140.395 207.231 140.92 206.819 141.16 206.349H141.204V207.118H142.472V203.372C142.472 201.892 141.266 201.448 140.198 201.448C139.021 201.448 138.118 201.972 137.826 202.993L139.058 203.168C139.189 202.785 139.561 202.457 140.206 202.457C140.818 202.457 141.153 202.77 141.153 203.321V203.342C141.153 203.721 140.756 203.74 139.768 203.845C138.683 203.962 137.644 204.286 137.644 205.547C137.644 206.648 138.449 207.231 139.517 207.231ZM139.86 206.261C139.309 206.261 138.916 206.01 138.916 205.525C138.916 205.019 139.357 204.807 139.947 204.724C140.293 204.676 140.986 204.589 141.157 204.45V205.11C141.157 205.733 140.654 206.261 139.86 206.261Z" fill="#3C3A3E"/>
<path d="M144.611 207.198C145.041 207.198 145.409 206.841 145.413 206.396C145.409 205.959 145.041 205.602 144.611 205.602C144.167 205.602 143.806 205.959 143.81 206.396C143.806 206.841 144.167 207.198 144.611 207.198ZM144.611 203.2C145.041 203.2 145.409 202.843 145.413 202.399C145.409 201.961 145.041 201.604 144.611 201.604C144.167 201.604 143.806 201.961 143.81 202.399C143.806 202.843 144.167 203.2 144.611 203.2Z" fill="#3C3A3E"/>
<path d="M43.5014 285.872C44.5514 285.874 45.1785 285.045 45.1785 283.616C45.1785 282.196 44.5472 281.376 43.5014 281.376C42.4555 281.376 41.8263 282.194 41.8242 283.616C41.8242 285.043 42.4513 285.872 43.5014 285.872ZM43.5014 285.206C42.9593 285.206 42.6192 284.662 42.6213 283.616C42.6235 282.579 42.9614 282.033 43.5014 282.033C44.0434 282.033 44.3814 282.579 44.3835 283.616C44.3835 284.662 44.0455 285.206 43.5014 285.206Z" fill="#858585"/>
<path d="M39.9872 255.919C40.9076 255.919 41.5496 255.294 41.5496 254.429C41.5496 253.591 40.9671 252.987 40.1764 252.987C39.8235 252.987 39.5111 253.128 39.3495 253.319H39.324L39.4494 252.165H41.3221V251.506H38.7968L38.5694 253.751L39.2815 253.867C39.4282 253.706 39.7045 253.597 39.966 253.6C40.4442 253.602 40.7886 253.955 40.7865 254.448C40.7886 254.935 40.4527 255.281 39.9872 255.281C39.594 255.281 39.2772 255.032 39.2496 254.675H38.4844C38.5056 255.398 39.137 255.919 39.9872 255.919Z" fill="#858585"/>
<path d="M43.8708 255.942C44.9209 255.944 45.548 255.115 45.548 253.687C45.548 252.267 44.9166 251.446 43.8708 251.446C42.825 251.446 42.1958 252.265 42.1937 253.687C42.1937 255.113 42.8207 255.942 43.8708 255.942ZM43.8708 255.277C43.3288 255.277 42.9887 254.733 42.9908 253.687C42.9929 252.649 43.3309 252.103 43.8708 252.103C44.4128 252.103 44.7508 252.649 44.753 253.687C44.753 254.733 44.415 255.277 43.8708 255.277Z" fill="#858585"/>
<path d="M36.8323 222.433H36.082L35 223.128V223.85L36.0182 223.2H36.0437V226.786H36.8323V222.433Z" fill="#858585"/>
<path d="M39.5468 226.869C40.5969 226.871 41.2239 226.042 41.2239 224.613C41.2239 223.194 40.5926 222.373 39.5468 222.373C38.501 222.373 37.8718 223.191 37.8696 224.613C37.8696 226.04 38.4967 226.869 39.5468 226.869ZM39.5468 226.203C39.0047 226.203 38.6646 225.659 38.6668 224.613C38.6689 223.576 39.0069 223.03 39.5468 223.03C40.0888 223.03 40.4268 223.576 40.4289 224.613C40.4289 225.659 40.091 226.203 39.5468 226.203Z" fill="#858585"/>
<path d="M43.5393 226.869C44.5894 226.871 45.2165 226.042 45.2165 224.613C45.2165 223.194 44.5851 222.373 43.5393 222.373C42.4935 222.373 41.8643 223.191 41.8622 224.613C41.8622 226.04 42.4892 226.869 43.5393 226.869ZM43.5393 226.203C42.9973 226.203 42.6572 225.659 42.6593 224.613C42.6614 223.576 42.9994 223.03 43.5393 223.03C44.0814 223.03 44.4193 223.576 44.4215 224.613C44.4215 225.659 44.0835 226.203 43.5393 226.203Z" fill="#858585"/>
<mask id="mask0_1059_6737" style="mask-type:alpha" maskUnits="userSpaceOnUse" x="51" y="220" width="150" height="67">
<rect x="51" y="220" width="150" height="67" fill="#C4C4C4"/>
</mask>
<g mask="url(#mask0_1059_6737)">
<rect x="50.9141" y="220.799" width="175" height="77" fill="#F5F5F5"/>
<path fill-rule="evenodd" clip-rule="evenodd" d="M50.9141 223.799L225.914 223.799V223.299L50.9141 223.299V223.799ZM225.914 227.799L50.9141 227.799V227.299L225.914 227.299V227.799ZM50.9141 231.799L225.914 231.799V231.299L50.9141 231.299V231.799ZM225.914 235.799L50.9141 235.799V235.299L225.914 235.299V235.799ZM50.9141 239.799L225.914 239.799V239.299L50.9141 239.299V239.799ZM225.914 243.799L50.9141 243.799V243.299L225.914 243.299V243.799ZM50.9141 247.799L225.914 247.799V247.299L50.9141 247.299V247.799ZM225.914 251.799L50.9141 251.799V251.299L225.914 251.299V251.799ZM50.9141 255.799L225.914 255.799V255.299L50.9141 255.299V255.799ZM225.914 259.799L50.9141 259.799V259.299L225.914 259.299V259.799ZM225.914 295.799L50.9141 295.799V295.299L225.914 295.299V295.799ZM50.9141 263.799L225.914 263.799V263.299L50.9141 263.299V263.799ZM225.914 267.799L50.9141 267.799V267.299L225.914 267.299V267.799ZM50.9141 271.799L225.914 271.799V271.299L50.9141 271.299V271.799ZM225.914 275.799L50.9141 275.799V275.299L225.914 275.299V275.799ZM50.9141 279.799L225.914 279.799V279.299L50.9141 279.299V279.799ZM225.914 283.799L50.9141 283.799V283.299L225.914 283.299V283.799ZM50.9141 287.799L225.914 287.799V287.299L50.9141 287.299V287.799ZM225.914 291.799L50.9141 291.799V291.299L225.914 291.299V291.799Z" fill="#E6E6E6"/>
<path d="M91.9141 257.299L50.9141 297.299V303.799H226.914V237.799L145.914 276.799L91.9141 257.299Z" fill="white"/>
<path d="M91.9141 257.299L50.9141 297.299H225.914V237.799L145.914 276.799L91.9141 257.299Z" fill="url(#paint0_linear_1059_6737)"/>
</g>
<rect x="155.242" y="202.842" width="46.1767" height="3.42049" rx="1.71025" fill="#E6E6E6"/>
</g>
<defs>
<filter id="filter0_d_1059_6737" x="85" y="0" width="415" height="265" filterUnits="userSpaceOnUse" color-interpolation-filters="sRGB">
<feFlood flood-opacity="0" result="BackgroundImageFix"/>
<feColorMatrix in="SourceAlpha" type="matrix" values="0 0 0 0 0 0 0 0 0 0 0 0 0 0 0 0 0 0 127 0" result="hardAlpha"/>
<feOffset/>
<feGaussianBlur stdDeviation="12.5"/>
<feComposite in2="hardAlpha" operator="out"/>
<feColorMatrix type="matrix" values="0 0 0 0 0 0 0 0 0 0 0 0 0 0 0 0 0 0 0.15 0"/>
<feBlend mode="normal" in2="BackgroundImageFix" result="effect1_dropShadow_1059_6737"/>
<feBlend mode="normal" in="SourceGraphic" in2="effect1_dropShadow_1059_6737" result="shape"/>
</filter>
<filter id="filter1_d_1059_6737" x="-10" y="46" width="255" height="153" filterUnits="userSpaceOnUse" color-interpolation-filters="sRGB">
<feFlood flood-opacity="0" result="BackgroundImageFix"/>
<feColorMatrix in="SourceAlpha" type="matrix" values="0 0 0 0 0 0 0 0 0 0 0 0 0 0 0 0 0 0 127 0" result="hardAlpha"/>
<feOffset/>
<feGaussianBlur stdDeviation="12.5"/>
<feComposite in2="hardAlpha" operator="out"/>
<feColorMatrix type="matrix" values="0 0 0 0 0 0 0 0 0 0 0 0 0 0 0 0 0 0 0.15 0"/>
<feBlend mode="normal" in2="BackgroundImageFix" result="effect1_dropShadow_1059_6737"/>
<feBlend mode="normal" in="SourceGraphic" in2="effect1_dropShadow_1059_6737" result="shape"/>
</filter>
<filter id="filter2_d_1059_6737" x="-10" y="158" width="255" height="173" filterUnits="userSpaceOnUse" color-interpolation-filters="sRGB">
<feFlood flood-opacity="0" result="BackgroundImageFix"/>
<feColorMatrix in="SourceAlpha" type="matrix" values="0 0 0 0 0 0 0 0 0 0 0 0 0 0 0 0 0 0 127 0" result="hardAlpha"/>
<feOffset/>
<feGaussianBlur stdDeviation="12.5"/>
<feComposite in2="hardAlpha" operator="out"/>
<feColorMatrix type="matrix" values="0 0 0 0 0 0 0 0 0 0 0 0 0 0 0 0 0 0 0.15 0"/>
<feBlend mode="normal" in2="BackgroundImageFix" result="effect1_dropShadow_1059_6737"/>
<feBlend mode="normal" in="SourceGraphic" in2="effect1_dropShadow_1059_6737" result="shape"/>
</filter>
<linearGradient id="paint0_linear_1059_6737" x1="138.414" y1="259.435" x2="138.914" y2="309.299" gradientUnits="userSpaceOnUse">
<stop stop-color="#F4774C"/>
<stop offset="1" stop-color="#F4774C" stop-opacity="0.15"/>
</linearGradient>
<clipPath id="clip0_1059_6737">
<rect width="502" height="331" fill="white"/>
</clipPath>
</defs>
</svg>
