<svg width="629" height="355" viewBox="0 0 629 355" fill="none" xmlns="http://www.w3.org/2000/svg">
<g filter="url(#filter0_d_1059_6408)">
<rect x="36" y="51" width="430" height="254" rx="12" fill="white"/>
</g>
<path d="M36 55C36 52.7909 37.7909 51 40 51H462C464.209 51 466 52.7909 466 55V85H36V55Z" fill="#3C3A3E"/>
<path d="M36 85H142V305H40C37.7909 305 36 303.209 36 301V85Z" fill="#EDEDED"/>
<path fill-rule="evenodd" clip-rule="evenodd" d="M142 167.5V245V245.5L142 274H140V245.5L36 245.5V245L140 245L140 167.5L36 167.5V167L140 167V85H142V167V167.5ZM46 107C46 105.895 46.8954 105 48 105H124C125.105 105 126 105.895 126 107C126 108.105 125.105 109 124 109H48C46.8954 109 46 108.105 46 107ZM48 183C46.8954 183 46 183.895 46 185C46 186.105 46.8954 187 48 187H124C125.105 187 126 186.105 126 185C126 183.895 125.105 183 124 183H48ZM46 121C46 119.895 46.8954 119 48 119H104C105.105 119 106 119.895 106 121C106 122.105 105.105 123 104 123H48C46.8954 123 46 122.105 46 121ZM48 197C46.8954 197 46 197.895 46 199C46 200.105 46.8954 201 48 201H104C105.105 201 106 200.105 106 199C106 197.895 105.105 197 104 197H48ZM46 135C46 133.895 46.8954 133 48 133H113C114.105 133 115 133.895 115 135C115 136.105 114.105 137 113 137H48C46.8954 137 46 136.105 46 135ZM48 211C46.8954 211 46 211.895 46 213C46 214.105 46.8954 215 48 215H113C114.105 215 115 214.105 115 213C115 211.895 114.105 211 113 211H48ZM46 149C46 147.895 46.8954 147 48 147H91C92.1046 147 93 147.895 93 149C93 150.105 92.1046 151 91 151H48C46.8954 151 46 150.105 46 149ZM48 225C46.8954 225 46 225.895 46 227C46 228.105 46.8954 229 48 229H91C92.1046 229 93 228.105 93 227C93 225.895 92.1046 225 91 225H48ZM46 263C46 261.895 46.8954 261 48 261H104C105.105 261 106 261.895 106 263C106 264.105 105.105 265 104 265H48C46.8954 265 46 264.105 46 263ZM142 281L36 281V281.5L142 281.5V281Z" fill="#CBCBCB"/>
<rect x="172" y="131" width="125" height="62" rx="4" fill="#F3F3F3"/>
<rect x="172" y="207" width="125" height="62" rx="4" fill="#F3F3F3"/>
<rect x="311" y="131" width="125" height="62" rx="4" fill="#F3F3F3"/>
<rect x="311" y="207" width="125" height="62" rx="4" fill="#F3F3F3"/>
<path fill-rule="evenodd" clip-rule="evenodd" d="M184 145C182.895 145 182 145.895 182 147C182 148.105 182.895 149 184 149H260C261.105 149 262 148.105 262 147C262 145.895 261.105 145 260 145H184ZM184 156C182.895 156 182 156.895 182 158C182 159.105 182.895 160 184 160H217C218.105 160 219 159.105 219 158C219 156.895 218.105 156 217 156H184Z" fill="#CBCBCB"/>
<path fill-rule="evenodd" clip-rule="evenodd" d="M323 145C321.895 145 321 145.895 321 147C321 148.105 321.895 149 323 149H399C400.105 149 401 148.105 401 147C401 145.895 400.105 145 399 145H323ZM323 156C321.895 156 321 156.895 321 158C321 159.105 321.895 160 323 160H356C357.105 160 358 159.105 358 158C358 156.895 357.105 156 356 156H323Z" fill="#CBCBCB"/>
<path fill-rule="evenodd" clip-rule="evenodd" d="M184 221C182.895 221 182 221.895 182 223C182 224.105 182.895 225 184 225H244C245.105 225 246 224.105 246 223C246 221.895 245.105 221 244 221H184ZM184 232C182.895 232 182 232.895 182 234C182 235.105 182.895 236 184 236H224C225.105 236 226 235.105 226 234C226 232.895 225.105 232 224 232H184Z" fill="#CBCBCB"/>
<path fill-rule="evenodd" clip-rule="evenodd" d="M323 221C321.895 221 321 221.895 321 223C321 224.105 321.895 225 323 225H383C384.105 225 385 224.105 385 223C385 221.895 384.105 221 383 221H323ZM323 232C321.895 232 321 232.895 321 234C321 235.105 321.895 236 323 236H363C364.105 236 365 235.105 365 234C365 232.895 364.105 232 363 232H323Z" fill="#CBCBCB"/>
<path fill-rule="evenodd" clip-rule="evenodd" d="M61.2968 70.7082C61.2968 73.1945 59.8548 74.4391 56.9709 74.4418H51C51 72.0479 54.6847 72.0584 56.2746 72.0629C56.3396 72.0631 56.4012 72.0633 56.4588 72.0633C57.6511 72.0633 58.246 71.5239 58.2435 70.4452C58.2435 69.3612 57.6499 68.8272 56.4588 68.8272H53.0912V66.473H56.4316C57.6227 66.473 58.2124 65.9512 58.2124 64.9156C58.2124 63.8801 57.6149 63.3785 56.4316 63.3785C56.2422 63.3785 56.0276 63.3841 55.7957 63.3902L55.7956 63.3902C53.9467 63.4387 51 63.516 51 61H56.4976C58.0805 61 59.1836 61.2036 59.807 61.6108C60.2754 61.9132 60.6574 62.341 60.9133 62.8497C61.1692 63.3584 61.2896 63.9293 61.2619 64.503C61.2859 65.1828 61.1139 65.8545 60.7681 66.4314C60.4223 67.0082 59.9186 67.4637 59.322 67.7391C60.6334 68.3216 61.2877 69.3194 61.2852 70.7324L61.2968 70.7082ZM100.342 64.6608C101.478 64.8693 102.502 65.5032 103.222 66.4433C103.941 67.3835 104.306 68.5651 104.249 69.7662C104.192 70.9674 103.716 72.1054 102.91 72.9664C102.105 73.8274 101.026 74.3522 99.8756 74.4421C98.7253 74.5321 97.5832 74.181 96.6637 73.4549C95.7442 72.7287 95.1107 71.6775 94.8821 70.4987C94.6536 69.3199 94.8458 68.0947 95.4226 67.0532C95.9994 66.0117 96.9211 65.2257 98.0146 64.8428C98.7639 64.5809 99.5641 64.5184 100.342 64.6608ZM72.1058 71.6951C72.1058 73.5397 70.9108 74.4606 68.5209 74.4579H62.7323V64.6122H68.164C69.452 64.6122 70.356 64.77 70.8798 65.0774C71.2624 65.2841 71.5808 65.6 71.7979 65.9881C72.0149 66.3763 72.1217 66.8208 72.1058 67.2698C72.1126 67.7333 71.992 68.1891 71.7583 68.5833C71.5245 68.9776 71.1873 69.2938 70.7867 69.4946C71.1965 69.6737 71.5438 69.9795 71.7818 70.3708C72.0197 70.7621 72.1369 71.2201 72.1174 71.683L72.1058 71.6951ZM69.4365 67.5611C69.4365 66.9422 69.0214 66.6307 68.1872 66.6307H65.227V68.5198H68.1872C69.0214 68.5198 69.4365 68.2002 69.4365 67.5611ZM69.4365 71.4808C69.4365 70.8376 69.0253 70.518 68.2028 70.518H65.227V72.4435H68.2222C69.0447 72.4435 69.4559 72.1199 69.4559 71.4808H69.4365ZM93.6771 74.4579H91.194V70.5544H87.6092V74.4579H85.1184V64.6122H87.6092V68.3863H91.194V64.6122H93.6771V74.4579ZM114.992 74.4579H111.64L107.823 69.6807V74.4579H105.332V64.6122H107.823V69.3409L111.838 64.6122H115.016L110.628 69.4299L115.016 74.4579H114.992ZM100.211 66.9179C99.8702 66.8061 99.5115 66.7686 99.1568 66.8076C98.802 66.8466 98.4587 66.9614 98.1483 67.1447C97.8378 67.3281 97.5669 67.576 97.3524 67.8733C97.1379 68.1705 96.9844 68.5105 96.9014 68.8723C96.8184 69.2341 96.8077 69.6098 96.8699 69.976C96.9322 70.3423 97.0662 70.6912 97.2634 71.0012C97.4606 71.3111 97.7169 71.5754 98.0164 71.7776C98.3158 71.9798 98.652 72.1156 99.0039 72.1765C99.3891 72.2571 99.7867 72.2475 100.168 72.1482C100.724 72.0019 101.217 71.6682 101.572 71.199C101.927 70.7299 102.124 70.1515 102.131 69.5539C102.138 68.9563 101.955 68.373 101.612 67.8949C101.268 67.4167 100.782 67.0704 100.23 66.9098L100.211 66.9179ZM79.7566 66.7682C80.3459 67.0674 80.8206 67.566 81.1031 68.1827C81.3856 68.7994 81.4593 69.4978 81.312 70.1637C81.1648 70.8297 80.8054 71.4239 80.2925 71.8495C79.7795 72.275 79.1434 72.5067 78.4879 72.5067C77.8324 72.5067 77.1963 72.275 76.6834 71.8495C76.1705 71.4239 75.8111 70.8297 75.6638 70.1637C75.5166 69.4978 75.5902 68.7994 75.8727 68.1827C76.1552 67.566 76.6299 67.0674 77.2192 66.7682V64.1349C75.9652 64.458 74.8679 65.2486 74.1345 66.3574C73.4012 67.4662 73.0825 68.8166 73.2386 70.1536C73.3947 71.4906 74.0148 72.7217 74.9819 73.6147C75.949 74.5077 77.1961 75.0007 78.4879 75.0007C79.7797 75.0007 81.0269 74.5077 81.994 73.6147C82.961 72.7217 83.5811 71.4906 83.7372 70.1536C83.8933 68.8166 83.5746 67.4662 82.8413 66.3574C82.108 65.2486 81.0107 64.458 79.7566 64.1349V66.7682ZM77.6042 70.9019C77.9735 71.1544 78.4236 71.2447 78.8564 71.1532C79.1835 71.0895 79.4849 70.9258 79.7224 70.683C79.9599 70.4401 80.1227 70.1291 80.1901 69.7894C80.2575 69.4498 80.2265 69.0969 80.1009 68.7757C79.9753 68.4545 79.7609 68.1796 79.485 67.9859C79.3176 67.8677 79.1309 67.7827 78.934 67.7351V63.9651H78.1581V67.7351C77.727 67.8354 77.3514 68.1091 77.1128 68.4966C76.8742 68.8842 76.792 69.3542 76.884 69.8046C76.976 70.255 77.2348 70.6494 77.6042 70.9019Z" fill="white"/>
<g filter="url(#filter1_d_1059_6408)">
<rect x="353" y="36" width="240" height="120" rx="9" fill="white"/>
</g>
<path d="M376.294 66.1051H377.811V64H383.372V66.0966H384.889V62.7088H383.918V55.2727H378.339L378.109 58.963C377.969 61.3153 377.47 62.24 376.878 62.7088H376.294V66.1051ZM378.719 62.7088C379.183 61.946 379.52 60.7486 379.626 58.963L379.763 56.598H382.4V62.7088H378.719Z" fill="#3C3A3E"/>
<path d="M389.007 64.1278C390.532 64.1278 391.581 63.3821 391.853 62.2443L390.413 62.0824C390.204 62.6363 389.693 62.9261 389.028 62.9261C388.031 62.9261 387.37 62.2699 387.358 61.1491H391.917V60.6761C391.917 58.3792 390.536 57.3693 388.926 57.3693C387.051 57.3693 385.828 58.7457 385.828 60.7656C385.828 62.8196 387.034 64.1278 389.007 64.1278ZM387.362 60.1094C387.409 59.2741 388.027 58.571 388.947 58.571C389.833 58.571 390.43 59.2187 390.438 60.1094H387.362Z" fill="#3C3A3E"/>
<path d="M392.677 58.7201H394.795V64H396.286V58.7201H398.404V57.4545H392.677V58.7201Z" fill="#3C3A3E"/>
<path d="M401.246 64.1321C402.273 64.1321 402.887 63.6505 403.168 63.1008H403.219V64H404.702V59.6193C404.702 57.8892 403.292 57.3693 402.043 57.3693C400.667 57.3693 399.61 57.9829 399.269 59.1761L400.709 59.3807C400.863 58.9332 401.297 58.5497 402.052 58.5497C402.768 58.5497 403.16 58.9162 403.16 59.5596V59.5852C403.16 60.0284 402.695 60.0497 401.54 60.1733C400.271 60.3096 399.056 60.6889 399.056 62.1633C399.056 63.4503 399.998 64.1321 401.246 64.1321ZM401.647 62.9986C401.003 62.9986 400.543 62.7045 400.543 62.1378C400.543 61.5454 401.059 61.2983 401.749 61.2003C402.154 61.1449 402.964 61.0426 403.164 60.8807V61.652C403.164 62.3807 402.576 62.9986 401.647 62.9986Z" fill="#3C3A3E"/>
<path d="M405.802 64H406.279C407.685 64 408.32 63.0113 408.422 60.8295L408.525 58.7201H410.404V64H411.896V57.4545H407.123L407.008 60.3523C406.935 62.1889 406.697 62.7301 406.019 62.7301H405.793L405.802 64Z" fill="#3C3A3E"/>
<path d="M414.936 61.9119V57.4545H413.449V64H415.038L417.65 59.5383V64H419.142V57.4545H417.557L414.936 61.9119Z" fill="#3C3A3E"/>
<path d="M420.364 62.2059C420.402 63.4204 421.514 64.1278 423.027 64.1278C424.578 64.1278 425.699 63.3906 425.699 62.1846C425.699 61.3025 425.098 60.6974 424.323 60.6505V60.5824C425.073 60.3821 425.55 59.9133 425.55 59.2059C425.55 58.1023 424.595 57.3693 423.061 57.3693C421.63 57.3693 420.551 58.1108 420.53 59.2528H422.051C422.068 58.8139 422.52 58.5071 423.134 58.5071C423.747 58.5071 424.118 58.8352 424.118 59.321C424.118 59.7684 423.777 60.1008 423.138 60.1008H422.137V61.196H423.138C423.782 61.196 424.203 61.5582 424.203 62.0866C424.203 62.6832 423.679 62.973 423.019 62.973C422.367 62.973 421.924 62.6917 421.894 62.2059H420.364Z" fill="#3C3A3E"/>
<path d="M428.797 64.1321C429.824 64.1321 430.438 63.6505 430.719 63.1008H430.77V64H432.253V59.6193C432.253 57.8892 430.843 57.3693 429.594 57.3693C428.218 57.3693 427.161 57.9829 426.82 59.1761L428.26 59.3807C428.414 58.9332 428.848 58.5497 429.603 58.5497C430.318 58.5497 430.71 58.9162 430.71 59.5596V59.5852C430.71 60.0284 430.246 60.0497 429.091 60.1733C427.821 60.3096 426.607 60.6889 426.607 62.1633C426.607 63.4503 427.549 64.1321 428.797 64.1321ZM429.198 62.9986C428.554 62.9986 428.094 62.7045 428.094 62.1378C428.094 61.5454 428.61 61.2983 429.3 61.2003C429.705 61.1449 430.514 61.0426 430.715 60.8807V61.652C430.715 62.3807 430.127 62.9986 429.198 62.9986Z" fill="#3C3A3E"/>
<path d="M439.331 57.4545H437.857V62.7344H435.291V57.4545H433.804V64H438.824V66.1051H440.333V62.8494H439.331V57.4545Z" fill="#3C3A3E"/>
<path d="M443.084 61.9119V57.4545H441.597V64H443.187L445.799 59.5383V64H447.29V57.4545H445.705L443.084 61.9119Z" fill="#3C3A3E"/>
<path d="M452.744 64H454.188V57.4545H451.346C449.744 57.4545 448.751 58.277 448.755 59.5341C448.751 60.3608 449.203 60.9872 449.983 61.3068L448.517 64H450.034L451.376 61.5369H452.744V64ZM452.744 60.4119H451.295C450.617 60.4119 450.242 60.0582 450.247 59.5682C450.242 59.0781 450.639 58.7074 451.346 58.7074H452.744V60.4119Z" fill="#3C3A3E"/>
<path d="M384.331 129.217C384.063 127.278 382.571 126.153 380.637 126.153C378.357 126.153 376.64 127.815 376.64 130.636C376.64 133.453 378.336 135.119 380.637 135.119C382.712 135.119 384.089 133.777 384.331 132.111L382.738 132.102C382.537 133.125 381.702 133.7 380.658 133.7C379.243 133.7 378.229 132.639 378.229 130.636C378.229 128.668 379.235 127.572 380.662 127.572C381.723 127.572 382.554 128.173 382.738 129.217H384.331Z" fill="#3C3A3E"/>
<path d="M386.728 137.454C387.93 137.454 388.625 136.837 388.995 135.793L391.625 128.463L389.976 128.454L388.463 133.398H388.395L386.886 128.454H385.25L387.623 135.136L387.491 135.49C387.206 136.236 386.754 136.287 386.081 136.091L385.723 137.293C385.932 137.378 386.307 137.454 386.728 137.454Z" fill="#3C3A3E"/>
<path d="M396.462 133.206L394.57 128.454H392.695V135H394.183V130.589L395.926 135H397.004L398.806 130.543V135H400.281V128.454H398.406L396.462 133.206Z" fill="#3C3A3E"/>
<path d="M405.603 133.206L403.711 128.454H401.836V135H403.323V130.589L405.066 135H406.144L407.947 130.543V135H409.421V128.454H407.546L405.603 133.206Z" fill="#3C3A3E"/>
<path d="M412.86 135.132C413.887 135.132 414.501 134.65 414.782 134.101H414.833V135H416.316V130.619C416.316 128.889 414.906 128.369 413.657 128.369C412.281 128.369 411.224 128.983 410.883 130.176L412.323 130.381C412.477 129.933 412.911 129.55 413.666 129.55C414.381 129.55 414.774 129.916 414.774 130.56V130.585C414.774 131.028 414.309 131.05 413.154 131.173C411.884 131.31 410.67 131.689 410.67 133.163C410.67 134.45 411.612 135.132 412.86 135.132ZM413.261 133.998C412.617 133.998 412.157 133.704 412.157 133.138C412.157 132.545 412.673 132.298 413.363 132.2C413.768 132.145 414.578 132.043 414.778 131.881V132.652C414.778 133.381 414.19 133.998 413.261 133.998Z" fill="#3C3A3E"/>
<path d="M420.844 137.454H422.386V133.969H422.45C422.693 134.446 423.2 135.115 424.325 135.115C425.868 135.115 427.023 133.892 427.023 131.736C427.023 129.554 425.834 128.369 424.321 128.369C423.166 128.369 422.685 129.064 422.45 129.537H422.361V128.454H420.844V137.454ZM422.357 131.727C422.357 130.457 422.902 129.635 423.895 129.635C424.922 129.635 425.45 130.508 425.45 131.727C425.45 132.954 424.913 133.849 423.895 133.849C422.911 133.849 422.357 132.997 422.357 131.727Z" fill="#3C3A3E"/>
<path d="M430.227 135.132C431.254 135.132 431.868 134.65 432.149 134.101H432.2V135H433.683V130.619C433.683 128.889 432.273 128.369 431.024 128.369C429.648 128.369 428.591 128.983 428.25 130.176L429.69 130.381C429.844 129.933 430.278 129.55 431.033 129.55C431.749 129.55 432.141 129.916 432.141 130.56V130.585C432.141 131.028 431.676 131.05 430.521 131.173C429.252 131.31 428.037 131.689 428.037 133.163C428.037 134.45 428.979 135.132 430.227 135.132ZM430.628 133.998C429.984 133.998 429.524 133.704 429.524 133.138C429.524 132.545 430.04 132.298 430.73 132.2C431.135 132.145 431.945 132.043 432.145 131.881V132.652C432.145 133.381 431.557 133.998 430.628 133.998Z" fill="#3C3A3E"/>
<path d="M438.09 135.128C439.734 135.128 440.783 134.152 440.894 132.763H439.419C439.287 133.466 438.78 133.871 438.102 133.871C437.139 133.871 436.517 133.065 436.517 131.727C436.517 130.406 437.152 129.614 438.102 129.614C438.844 129.614 439.3 130.091 439.419 130.722H440.894C440.787 129.302 439.679 128.369 438.081 128.369C436.163 128.369 434.953 129.754 434.953 131.753C434.953 133.734 436.134 135.128 438.09 135.128Z" fill="#3C3A3E"/>
<path d="M443.375 128.454H441.738L443.682 131.727L441.687 135H443.324L444.696 132.643L446.081 135H447.704L445.697 131.727L447.67 128.454H446.038L444.696 130.871L443.375 128.454Z" fill="#3C3A3E"/>
<path d="M451.472 135.128C453.39 135.128 454.609 133.777 454.609 131.753C454.609 129.724 453.39 128.369 451.472 128.369C449.555 128.369 448.336 129.724 448.336 131.753C448.336 133.777 449.555 135.128 451.472 135.128ZM451.481 133.892C450.42 133.892 449.9 132.946 449.9 131.748C449.9 130.551 450.42 129.592 451.481 129.592C452.525 129.592 453.045 130.551 453.045 131.748C453.045 132.946 452.525 133.892 451.481 133.892Z" fill="#3C3A3E"/>
<path d="M455.339 136.9H456.856V135H461.138V136.9H462.63V133.73H461.616V128.454H456.885L456.698 130.747C456.574 132.213 456.412 133.3 455.858 133.73H455.339V136.9ZM457.444 133.73C457.857 133.121 458.01 132.132 458.121 130.747L458.223 129.699H460.141V133.73H457.444Z" fill="#3C3A3E"/>
<path d="M466.636 135.128C468.554 135.128 469.773 133.777 469.773 131.753C469.773 129.724 468.554 128.369 466.636 128.369C464.719 128.369 463.5 129.724 463.5 131.753C463.5 133.777 464.719 135.128 466.636 135.128ZM466.645 133.892C465.584 133.892 465.064 132.946 465.064 131.748C465.064 130.551 465.584 129.592 466.645 129.592C467.689 129.592 468.209 130.551 468.209 131.748C468.209 132.946 467.689 133.892 466.645 133.892Z" fill="#3C3A3E"/>
<path d="M471.082 135H474.253C475.787 135 476.665 134.305 476.665 133.223C476.665 132.307 475.953 131.668 474.926 131.578C475.799 131.416 476.345 130.952 476.345 130.214C476.345 129.111 475.378 128.454 473.831 128.454H471.082V135ZM472.527 133.785V132.162H474.253C474.819 132.162 475.165 132.49 475.165 133.031C475.165 133.5 474.819 133.785 474.253 133.785H472.527ZM472.527 131.165V129.69H473.831C474.474 129.69 474.866 129.963 474.866 130.41C474.866 130.879 474.487 131.165 473.861 131.165H472.527Z" fill="#3C3A3E"/>
<path d="M478.888 135.094C479.391 135.094 479.821 134.676 479.825 134.156C479.821 133.645 479.391 133.227 478.888 133.227C478.368 133.227 477.946 133.645 477.95 134.156C477.946 134.676 478.368 135.094 478.888 135.094ZM478.888 130.419C479.391 130.419 479.821 130.001 479.825 129.481C479.821 128.97 479.391 128.552 478.888 128.552C478.368 128.552 477.946 128.97 477.95 129.481C477.946 130.001 478.368 130.419 478.888 130.419Z" fill="#3C3A3E"/>
<path d="M384.331 85.2172C384.063 83.2783 382.571 82.1533 380.637 82.1533C378.357 82.1533 376.64 83.8153 376.64 86.6363C376.64 89.453 378.336 91.1192 380.637 91.1192C382.712 91.1192 384.089 89.7769 384.331 88.1107L382.738 88.1022C382.537 89.1249 381.702 89.7002 380.658 89.7002C379.243 89.7002 378.229 88.6391 378.229 86.6363C378.229 84.6675 379.235 83.5724 380.662 83.5724C381.723 83.5724 382.554 84.1732 382.738 85.2172H384.331Z" fill="#3C3A3E"/>
<path d="M386.661 89.9516C387.164 89.9516 387.595 89.534 387.599 89.0141C387.595 88.5028 387.164 88.0851 386.661 88.0851C386.141 88.0851 385.72 88.5028 385.724 89.0141C385.72 89.534 386.141 89.9516 386.661 89.9516ZM386.661 85.6221C387.164 85.6221 387.595 85.2045 387.599 84.6846C387.595 84.1732 387.164 83.7556 386.661 83.7556C386.141 83.7556 385.72 84.1732 385.724 84.6846C385.72 85.2045 386.141 85.6221 386.661 85.6221Z" fill="#3C3A3E"/>
<path d="M480.982 82.2727H474.027V91H475.596V83.5852H479.414V91H480.982V82.2727Z" fill="#3C3A3E"/>
<path d="M485.66 91.1278C487.577 91.1278 488.796 89.777 488.796 87.7528C488.796 85.7244 487.577 84.3693 485.66 84.3693C483.742 84.3693 482.523 85.7244 482.523 87.7528C482.523 89.777 483.742 91.1278 485.66 91.1278ZM485.668 89.892C484.607 89.892 484.087 88.946 484.087 87.7486C484.087 86.5511 484.607 85.5923 485.668 85.5923C486.712 85.5923 487.232 86.5511 487.232 87.7486C487.232 88.946 486.712 89.892 485.668 89.892Z" fill="#3C3A3E"/>
<path d="M491.056 91.0937C491.559 91.0937 491.989 90.6761 491.993 90.1562C491.989 89.6449 491.559 89.2273 491.056 89.2273C490.536 89.2273 490.114 89.6449 490.118 90.1562C490.114 90.6761 490.536 91.0937 491.056 91.0937ZM491.056 86.419C491.559 86.419 491.989 86.0014 491.993 85.4815C491.989 84.9701 491.559 84.5525 491.056 84.5525C490.536 84.5525 490.114 84.9701 490.118 85.4815C490.114 86.0014 490.536 86.419 491.056 86.419Z" fill="#3C3A3E"/>
<path d="M394.517 91.0001H398.506V90.1194H395.972V90.0796L396.975 89.0597C398.106 87.9745 398.418 87.4461 398.418 86.7899C398.418 85.8154 397.625 85.1024 396.455 85.1024C395.302 85.1024 394.483 85.8183 394.483 86.9234H395.486C395.486 86.3296 395.861 85.9575 396.441 85.9575C396.995 85.9575 397.407 86.2955 397.407 86.8438C397.407 87.3296 397.111 87.6762 396.537 88.2586L394.517 90.2387V91.0001Z" fill="#858585"/>
<path d="M401.637 91.1109C403.04 91.1137 403.878 90.0058 403.878 88.0967C403.878 86.1989 403.035 85.1024 401.637 85.1024C400.239 85.1024 399.398 86.1961 399.395 88.0967C399.395 90.0029 400.233 91.1109 401.637 91.1109ZM401.637 90.2217C400.912 90.2217 400.458 89.4944 400.461 88.0967C400.464 86.7103 400.915 85.9802 401.637 85.9802C402.361 85.9802 402.813 86.7103 402.816 88.0967C402.816 89.4944 402.364 90.2217 401.637 90.2217Z" fill="#858585"/>
<path d="M404.822 91.0001H408.811V90.1194H406.277V90.0796L407.28 89.0597C408.41 87.9745 408.723 87.4461 408.723 86.7899C408.723 85.8154 407.93 85.1024 406.76 85.1024C405.606 85.1024 404.788 85.8183 404.788 86.9234H405.791C405.791 86.3296 406.166 85.9575 406.745 85.9575C407.299 85.9575 407.711 86.2955 407.711 86.8438C407.711 87.3296 407.416 87.6762 406.842 88.2586L404.822 90.2387V91.0001Z" fill="#858585"/>
<path d="M412.157 85.1819H411.155L409.709 86.1109V87.0768L411.069 86.2075H411.103V91.0001H412.157V85.1819Z" fill="#858585"/>
<path d="M416.291 87.6677H413.672V88.5143H416.291V87.6677Z" fill="#858585"/>
<path d="M419.512 91.1109C420.915 91.1137 421.753 90.0058 421.753 88.0967C421.753 86.1989 420.91 85.1024 419.512 85.1024C418.114 85.1024 417.273 86.1961 417.27 88.0967C417.27 90.0029 418.108 91.1109 419.512 91.1109ZM419.512 90.2217C418.787 90.2217 418.333 89.4944 418.336 88.0967C418.339 86.7103 418.79 85.9802 419.512 85.9802C420.236 85.9802 420.688 86.7103 420.691 88.0967C420.691 89.4944 420.239 90.2217 419.512 90.2217Z" fill="#858585"/>
<path d="M424.717 85.1024C423.456 85.0938 422.618 85.9603 422.618 87.0967C422.62 88.1933 423.402 88.9859 424.422 88.9859C425.049 88.9859 425.595 88.6819 425.876 88.1819H425.916C425.913 89.4262 425.461 90.1677 424.657 90.1677C424.155 90.1677 423.816 89.8779 423.711 89.4149H422.674C422.794 90.3779 423.555 91.0796 424.657 91.0796C426.052 91.0796 426.941 89.9149 426.939 87.912C426.936 85.7927 425.834 85.108 424.717 85.1024ZM424.72 85.9546C425.342 85.9546 425.799 86.4717 425.799 87.0654C425.802 87.6677 425.322 88.1847 424.709 88.1847C424.089 88.1847 423.643 87.6961 423.64 87.0739C423.64 86.4489 424.103 85.9546 424.72 85.9546Z" fill="#858585"/>
<path d="M430.541 87.6677H427.922V88.5143H430.541V87.6677Z" fill="#858585"/>
<path d="M431.416 91.0001H435.405V90.1194H432.87V90.0796L433.873 89.0597C435.004 87.9745 435.316 87.4461 435.316 86.7899C435.316 85.8154 434.524 85.1024 433.353 85.1024C432.2 85.1024 431.382 85.8183 431.382 86.9234H432.385C432.385 86.3296 432.76 85.9575 433.339 85.9575C433.893 85.9575 434.305 86.2955 434.305 86.8438C434.305 87.3296 434.01 87.6762 433.436 88.2586L431.416 90.2387V91.0001Z" fill="#858585"/>
<path d="M438.535 91.1109C439.939 91.1137 440.777 90.0058 440.777 88.0967C440.777 86.1989 439.933 85.1024 438.535 85.1024C437.138 85.1024 436.297 86.1961 436.294 88.0967C436.294 90.0029 437.132 91.1109 438.535 91.1109ZM438.535 90.2217C437.811 90.2217 437.356 89.4944 437.359 88.0967C437.362 86.7103 437.814 85.9802 438.535 85.9802C439.26 85.9802 439.711 86.7103 439.714 88.0967C439.714 89.4944 439.263 90.2217 438.535 90.2217Z" fill="#858585"/>
<path d="M498.517 91H502.506V90.1193H499.972V90.0796L500.975 89.0597C502.106 87.9745 502.418 87.446 502.418 86.7898C502.418 85.8154 501.625 85.1023 500.455 85.1023C499.302 85.1023 498.483 85.8182 498.483 86.9233H499.486C499.486 86.3296 499.861 85.9574 500.441 85.9574C500.995 85.9574 501.407 86.2955 501.407 86.8438C501.407 87.3296 501.111 87.6762 500.537 88.2585L498.517 90.2387V91Z" fill="#858585"/>
<path d="M505.637 91.1108C507.04 91.1137 507.878 90.0057 507.878 88.0966C507.878 86.1989 507.035 85.1023 505.637 85.1023C504.239 85.1023 503.398 86.196 503.395 88.0966C503.395 90.0029 504.233 91.1108 505.637 91.1108ZM505.637 90.2216C504.912 90.2216 504.458 89.4943 504.461 88.0966C504.464 86.7102 504.915 85.9801 505.637 85.9801C506.361 85.9801 506.813 86.7102 506.816 88.0966C506.816 89.4943 506.364 90.2216 505.637 90.2216Z" fill="#858585"/>
<path d="M508.822 91H512.811V90.1193H510.277V90.0796L511.28 89.0597C512.41 87.9745 512.723 87.446 512.723 86.7898C512.723 85.8154 511.93 85.1023 510.76 85.1023C509.606 85.1023 508.788 85.8182 508.788 86.9233H509.791C509.791 86.3296 510.166 85.9574 510.745 85.9574C511.299 85.9574 511.711 86.2955 511.711 86.8438C511.711 87.3296 511.416 87.6762 510.842 88.2585L508.822 90.2387V91Z" fill="#858585"/>
<path d="M516.157 85.1818H515.155L513.709 86.1108V87.0767L515.069 86.2074H515.103V91H516.157V85.1818Z" fill="#858585"/>
<path d="M520.291 87.6676H517.672V88.5142H520.291V87.6676Z" fill="#858585"/>
<path d="M523.728 85.1818H522.725L521.279 86.1108V87.0767L522.64 86.2074H522.674V91H523.728V85.1818Z" fill="#858585"/>
<path d="M527.356 91.1108C528.759 91.1137 529.597 90.0057 529.597 88.0966C529.597 86.1989 528.753 85.1023 527.356 85.1023C525.958 85.1023 525.117 86.196 525.114 88.0966C525.114 90.0029 525.952 91.1108 527.356 91.1108ZM527.356 90.2216C526.631 90.2216 526.177 89.4943 526.179 88.0966C526.182 86.7102 526.634 85.9801 527.356 85.9801C528.08 85.9801 528.532 86.7102 528.535 88.0966C528.535 89.4943 528.083 90.2216 527.356 90.2216Z" fill="#858585"/>
<path d="M533.197 87.6676H530.578V88.5142H533.197V87.6676Z" fill="#858585"/>
<path d="M536.634 85.1818H535.631L534.185 86.1108V87.0767L535.546 86.2074H535.58V91H536.634V85.1818Z" fill="#858585"/>
<path d="M538.324 91H539.418L541.89 86.0824V85.1818H537.927V86.0625H540.799V86.1023L538.324 91Z" fill="#858585"/>
<path fill-rule="evenodd" clip-rule="evenodd" d="M467 59C465.895 59 465 59.8954 465 61C465 62.1046 465.895 63 467 63H568C569.105 63 570 62.1046 570 61C570 59.8954 569.105 59 568 59H467ZM493 130C491.895 130 491 130.895 491 132C491 133.105 491.895 134 493 134H568C569.105 134 570 133.105 570 132C570 130.895 569.105 130 568 130H493ZM376 101C376 99.8954 376.895 99 378 99H453C454.105 99 455 99.8954 455 101C455 102.105 454.105 103 453 103H378C376.895 103 376 102.105 376 101ZM475 99C473.895 99 473 99.8954 473 101C473 102.105 473.895 103 475 103H550C551.105 103 552 102.105 552 101C552 99.8954 551.105 99 550 99H475ZM376 109C376 107.895 376.895 107 378 107H421C422.105 107 423 107.895 423 109C423 110.105 422.105 111 421 111H378C376.895 111 376 110.105 376 109ZM475 107C473.895 107 473 107.895 473 109C473 110.105 473.895 111 475 111H518C519.105 111 520 110.105 520 109C520 107.895 519.105 107 518 107H475Z" fill="#E6E6E6"/>
<g filter="url(#filter2_d_1059_6408)">
<rect x="353" y="175" width="240" height="144" rx="9" fill="white"/>
</g>
<path d="M384.331 197.217C384.063 195.278 382.571 194.153 380.637 194.153C378.357 194.153 376.64 195.815 376.64 198.636C376.64 201.453 378.336 203.119 380.637 203.119C382.712 203.119 384.089 201.777 384.331 200.111L382.738 200.102C382.537 201.125 381.702 201.7 380.658 201.7C379.243 201.7 378.229 200.639 378.229 198.636C378.229 196.668 379.235 195.572 380.662 195.572C381.723 195.572 382.554 196.173 382.738 197.217H384.331Z" fill="#3C3A3E"/>
<path d="M385.353 197.72H387.471V203H388.962V197.72H391.08V196.454H385.353V197.72Z" fill="#3C3A3E"/>
<path d="M393.923 203.132C394.95 203.132 395.563 202.65 395.845 202.101H395.896V203H397.379V198.619C397.379 196.889 395.968 196.369 394.72 196.369C393.343 196.369 392.286 196.983 391.945 198.176L393.386 198.381C393.539 197.933 393.974 197.55 394.728 197.55C395.444 197.55 395.836 197.916 395.836 198.56V198.585C395.836 199.028 395.372 199.05 394.217 199.173C392.947 199.31 391.732 199.689 391.732 201.163C391.732 202.45 392.674 203.132 393.923 203.132ZM394.323 201.998C393.68 201.998 393.22 201.704 393.22 201.138C393.22 200.545 393.735 200.298 394.426 200.2C394.83 200.145 395.64 200.043 395.84 199.881V200.652C395.84 201.381 395.252 201.998 394.323 201.998Z" fill="#3C3A3E"/>
<path d="M398.197 197.72H400.315V203H401.806V197.72H403.924V196.454H398.197V197.72Z" fill="#3C3A3E"/>
<path d="M406.64 200.912V196.454H405.152V203H406.742L409.354 198.538V203H410.846V196.454H409.26L406.64 200.912Z" fill="#3C3A3E"/>
<path d="M415.285 203.128C416.93 203.128 417.978 202.152 418.089 200.763H416.614C416.482 201.466 415.975 201.871 415.298 201.871C414.335 201.871 413.712 201.065 413.712 199.727C413.712 198.406 414.347 197.614 415.298 197.614C416.039 197.614 416.495 198.091 416.614 198.722H418.089C417.982 197.302 416.874 196.369 415.276 196.369C413.359 196.369 412.149 197.754 412.149 199.753C412.149 201.734 413.329 203.128 415.285 203.128Z" fill="#3C3A3E"/>
<path d="M418.892 197.72H421.01V203H422.502V197.72H424.619V196.454H418.892V197.72Z" fill="#3C3A3E"/>
<path d="M427.335 200.912V196.454H425.848V203H427.437L430.049 198.538V203H431.541V196.454H429.956L427.335 200.912Z" fill="#3C3A3E"/>
<path d="M433.125 203H434.668V200.533H435.422L437.216 203H439.082L436.632 199.668L439.057 196.454H437.199L435.23 199.097H434.668V196.454H433.125V203Z" fill="#3C3A3E"/>
<path d="M441.841 203.132C442.868 203.132 443.481 202.65 443.763 202.101H443.814V203H445.297V198.619C445.297 196.889 443.886 196.369 442.638 196.369C441.261 196.369 440.204 196.983 439.863 198.176L441.304 198.381C441.457 197.933 441.892 197.55 442.646 197.55C443.362 197.55 443.754 197.916 443.754 198.56V198.585C443.754 199.028 443.29 199.05 442.135 199.173C440.865 199.31 439.65 199.689 439.65 201.163C439.65 202.45 440.592 203.132 441.841 203.132ZM442.241 201.998C441.598 201.998 441.138 201.704 441.138 201.138C441.138 200.545 441.653 200.298 442.343 200.2C442.748 200.145 443.558 200.043 443.758 199.881V200.652C443.758 201.381 443.17 201.998 442.241 201.998Z" fill="#3C3A3E"/>
<path d="M451.708 203.132C452.735 203.132 453.348 202.65 453.63 202.101H453.681V203H455.164V198.619C455.164 196.889 453.753 196.369 452.505 196.369C451.128 196.369 450.071 196.983 449.731 198.176L451.171 198.381C451.324 197.933 451.759 197.55 452.513 197.55C453.229 197.55 453.621 197.916 453.621 198.56V198.585C453.621 199.028 453.157 199.05 452.002 199.173C450.732 199.31 449.517 199.689 449.517 201.163C449.517 202.45 450.459 203.132 451.708 203.132ZM452.108 201.998C451.465 201.998 451.005 201.704 451.005 201.138C451.005 200.545 451.52 200.298 452.211 200.2C452.616 200.145 453.425 200.043 453.625 199.881V200.652C453.625 201.381 453.037 201.998 452.108 201.998Z" fill="#3C3A3E"/>
<path d="M456.715 203H458.258V200.533H459.012L460.806 203H462.672L460.222 199.668L462.647 196.454H460.789L458.82 199.097H458.258V196.454H456.715V203Z" fill="#3C3A3E"/>
<path d="M463.547 203H465.09V200.533H465.844L467.638 203H469.504L467.054 199.668L469.479 196.454H467.621L465.652 199.097H465.09V196.454H463.547V203Z" fill="#3C3A3E"/>
<path d="M472.263 203.132C473.29 203.132 473.903 202.65 474.184 202.101H474.236V203H475.718V198.619C475.718 196.889 474.308 196.369 473.059 196.369C471.683 196.369 470.626 196.983 470.285 198.176L471.726 198.381C471.879 197.933 472.314 197.55 473.068 197.55C473.784 197.55 474.176 197.916 474.176 198.56V198.585C474.176 199.028 473.711 199.05 472.557 199.173C471.287 199.31 470.072 199.689 470.072 201.163C470.072 202.45 471.014 203.132 472.263 203.132ZM472.663 201.998C472.02 201.998 471.559 201.704 471.559 201.138C471.559 200.545 472.075 200.298 472.765 200.2C473.17 200.145 473.98 200.043 474.18 199.881V200.652C474.18 201.381 473.592 201.998 472.663 201.998Z" fill="#3C3A3E"/>
<path d="M477.994 205.454C479.196 205.454 479.89 204.837 480.261 203.793L482.89 196.463L481.241 196.454L479.728 201.398H479.66L478.152 196.454H476.515L478.889 203.136L478.757 203.49C478.471 204.236 478.02 204.287 477.346 204.091L476.988 205.293C477.197 205.378 477.572 205.454 477.994 205.454Z" fill="#3C3A3E"/>
<path d="M485.448 196.454H483.961V203H485.448V200.354H487.984V203H489.467V196.454H487.984V199.088H485.448V196.454Z" fill="#3C3A3E"/>
<path d="M490.294 197.72H492.412V203H493.904V197.72H496.022V196.454H490.294V197.72Z" fill="#3C3A3E"/>
<path d="M498.864 203.132C499.891 203.132 500.505 202.65 500.786 202.101H500.837V203H502.32V198.619C502.32 196.889 500.91 196.369 499.661 196.369C498.285 196.369 497.228 196.983 496.887 198.176L498.327 198.381C498.481 197.933 498.915 197.55 499.669 197.55C500.385 197.55 500.777 197.916 500.777 198.56V198.585C500.777 199.028 500.313 199.05 499.158 199.173C497.888 199.31 496.674 199.689 496.674 201.163C496.674 202.45 497.616 203.132 498.864 203.132ZM499.265 201.998C498.621 201.998 498.161 201.704 498.161 201.138C498.161 200.545 498.677 200.298 499.367 200.2C499.772 200.145 500.581 200.043 500.782 199.881V200.652C500.782 201.381 500.194 201.998 499.265 201.998Z" fill="#3C3A3E"/>
<path d="M504.821 203.094C505.324 203.094 505.755 202.676 505.759 202.156C505.755 201.645 505.324 201.227 504.821 201.227C504.302 201.227 503.88 201.645 503.884 202.156C503.88 202.676 504.302 203.094 504.821 203.094ZM504.821 198.419C505.324 198.419 505.755 198.001 505.759 197.481C505.755 196.97 505.324 196.552 504.821 196.552C504.302 196.552 503.88 196.97 503.884 197.481C503.88 198.001 504.302 198.419 504.821 198.419Z" fill="#3C3A3E"/>
<path d="M386.334 295.097C387.562 295.1 388.296 294.13 388.296 292.46C388.296 290.799 387.557 289.84 386.334 289.84C385.111 289.84 384.376 290.797 384.373 292.46C384.373 294.128 385.106 295.097 386.334 295.097ZM386.334 294.319C385.7 294.319 385.303 293.683 385.305 292.46C385.308 291.247 385.703 290.608 386.334 290.608C386.968 290.608 387.363 291.247 387.366 292.46C387.366 293.683 386.971 294.319 386.334 294.319Z" fill="#858585"/>
<path d="M382.222 260.07C383.299 260.07 384.049 259.339 384.049 258.327C384.049 257.348 383.368 256.642 382.444 256.642C382.031 256.642 381.665 256.806 381.477 257.03H381.447L381.593 255.68H383.783V254.909H380.83L380.564 257.534L381.397 257.671C381.569 257.482 381.892 257.355 382.197 257.358C382.757 257.36 383.159 257.773 383.157 258.35C383.159 258.919 382.767 259.324 382.222 259.324C381.762 259.324 381.392 259.033 381.36 258.616H380.465C380.49 259.461 381.228 260.07 382.222 260.07Z" fill="#858585"/>
<path d="M386.764 260.097C387.992 260.1 388.725 259.13 388.725 257.46C388.725 255.799 387.987 254.84 386.764 254.84C385.541 254.84 384.805 255.797 384.803 257.46C384.803 259.128 385.536 260.097 386.764 260.097ZM386.764 259.319C386.13 259.319 385.732 258.683 385.735 257.46C385.737 256.247 386.132 255.608 386.764 255.608C387.398 255.608 387.793 256.247 387.795 257.46C387.795 258.683 387.4 259.319 386.764 259.319Z" fill="#858585"/>
<path d="M378.523 220.909H377.645L376.38 221.722V222.567L377.571 221.807H377.6V226H378.523V220.909Z" fill="#858585"/>
<path d="M381.697 226.097C382.925 226.1 383.658 225.13 383.658 223.46C383.658 221.799 382.92 220.84 381.697 220.84C380.474 220.84 379.738 221.797 379.736 223.46C379.736 225.128 380.469 226.097 381.697 226.097ZM381.697 225.319C381.063 225.319 380.665 224.683 380.668 223.46C380.67 222.247 381.066 221.608 381.697 221.608C382.331 221.608 382.726 222.247 382.729 223.46C382.729 224.683 382.333 225.319 381.697 225.319Z" fill="#858585"/>
<path d="M386.366 226.097C387.594 226.1 388.327 225.13 388.327 223.46C388.327 221.799 387.589 220.84 386.366 220.84C385.143 220.84 384.407 221.797 384.405 223.46C384.405 225.128 385.138 226.097 386.366 226.097ZM386.366 225.319C385.732 225.319 385.334 224.683 385.337 223.46C385.339 222.247 385.735 221.608 386.366 221.608C387 221.608 387.395 222.247 387.398 223.46C387.398 224.683 387.002 225.319 386.366 225.319Z" fill="#858585"/>
<rect x="395" y="219" width="175" height="77" fill="#F5F5F5"/>
<path fill-rule="evenodd" clip-rule="evenodd" d="M395 222L570 222V221.5L395 221.5V222ZM570 226L395 226V225.5L570 225.5V226ZM395 230L570 230V229.5L395 229.5V230ZM570 234L395 234V233.5L570 233.5V234ZM395 238L570 238V237.5L395 237.5V238ZM570 242L395 242V241.5L570 241.5V242ZM395 246L570 246V245.5L395 245.5V246ZM570 250L395 250V249.5L570 249.5V250ZM395 254L570 254V253.5L395 253.5V254ZM570 258L395 258V257.5L570 257.5V258ZM570 294L395 294V293.5L570 293.5V294ZM395 262L570 262V261.5L395 261.5V262ZM570 266L395 266V265.5L570 265.5V266ZM395 270L570 270V269.5L395 269.5V270ZM570 274L395 274V273.5L570 273.5V274ZM395 278L570 278V277.5L395 277.5V278ZM570 282L395 282V281.5L570 281.5V282ZM395 286L570 286V285.5L395 285.5V286ZM570 290L395 290V289.5L570 289.5V290Z" fill="#E6E6E6"/>
<path d="M436 255.5L395 295.5V302H571V236L490 275L436 255.5Z" fill="white"/>
<path d="M436 255.5L395 295.5V302H570V236L490 275L436 255.5Z" fill="url(#paint0_linear_1059_6408)"/>
<rect x="517" y="198" width="54" height="4" rx="2" fill="#E6E6E6"/>
<defs>
<filter id="filter0_d_1059_6408" x="11" y="26" width="480" height="304" filterUnits="userSpaceOnUse" color-interpolation-filters="sRGB">
<feFlood flood-opacity="0" result="BackgroundImageFix"/>
<feColorMatrix in="SourceAlpha" type="matrix" values="0 0 0 0 0 0 0 0 0 0 0 0 0 0 0 0 0 0 127 0" result="hardAlpha"/>
<feOffset/>
<feGaussianBlur stdDeviation="12.5"/>
<feComposite in2="hardAlpha" operator="out"/>
<feColorMatrix type="matrix" values="0 0 0 0 0 0 0 0 0 0 0 0 0 0 0 0 0 0 0.15 0"/>
<feBlend mode="normal" in2="BackgroundImageFix" result="effect1_dropShadow_1059_6408"/>
<feBlend mode="normal" in="SourceGraphic" in2="effect1_dropShadow_1059_6408" result="shape"/>
</filter>
<filter id="filter1_d_1059_6408" x="328" y="11" width="290" height="170" filterUnits="userSpaceOnUse" color-interpolation-filters="sRGB">
<feFlood flood-opacity="0" result="BackgroundImageFix"/>
<feColorMatrix in="SourceAlpha" type="matrix" values="0 0 0 0 0 0 0 0 0 0 0 0 0 0 0 0 0 0 127 0" result="hardAlpha"/>
<feOffset/>
<feGaussianBlur stdDeviation="12.5"/>
<feComposite in2="hardAlpha" operator="out"/>
<feColorMatrix type="matrix" values="0 0 0 0 0 0 0 0 0 0 0 0 0 0 0 0 0 0 0.15 0"/>
<feBlend mode="normal" in2="BackgroundImageFix" result="effect1_dropShadow_1059_6408"/>
<feBlend mode="normal" in="SourceGraphic" in2="effect1_dropShadow_1059_6408" result="shape"/>
</filter>
<filter id="filter2_d_1059_6408" x="328" y="150" width="290" height="194" filterUnits="userSpaceOnUse" color-interpolation-filters="sRGB">
<feFlood flood-opacity="0" result="BackgroundImageFix"/>
<feColorMatrix in="SourceAlpha" type="matrix" values="0 0 0 0 0 0 0 0 0 0 0 0 0 0 0 0 0 0 127 0" result="hardAlpha"/>
<feOffset/>
<feGaussianBlur stdDeviation="12.5"/>
<feComposite in2="hardAlpha" operator="out"/>
<feColorMatrix type="matrix" values="0 0 0 0 0 0 0 0 0 0 0 0 0 0 0 0 0 0 0.15 0"/>
<feBlend mode="normal" in2="BackgroundImageFix" result="effect1_dropShadow_1059_6408"/>
<feBlend mode="normal" in="SourceGraphic" in2="effect1_dropShadow_1059_6408" result="shape"/>
</filter>
<linearGradient id="paint0_linear_1059_6408" x1="483" y1="260" x2="483" y2="307.5" gradientUnits="userSpaceOnUse">
<stop stop-color="#F4774C"/>
<stop offset="1" stop-color="#F4774C" stop-opacity="0.15"/>
</linearGradient>
</defs>
</svg>
