<svg width="502" height="325" viewBox="0 0 502 325" fill="none" xmlns="http://www.w3.org/2000/svg">
<g clip-path="url(#clip0_1059_6833)">
<g filter="url(#filter0_d_1059_6833)">
<rect x="110" y="25" width="365" height="215" rx="4" fill="white"/>
</g>
<path d="M110 29C110 26.7909 111.791 25 114 25H471C473.209 25 475 26.7909 475 29V53.7795H110V29Z" fill="#3C3A3E"/>
<path d="M110 53.7803H199.977V240H114C111.791 240 110 238.21 110 236V53.7803Z" fill="#EDEDED"/>
<rect x="199.977" y="53.7803" width="170.984" height="1.69767" transform="rotate(90 199.977 53.7803)" fill="#CBCBCB"/>
<rect x="118.492" y="70.709" width="67.9069" height="3.38582" rx="1.69291" fill="#CBCBCB"/>
<rect x="118.492" y="136.732" width="67.9069" height="3.38582" rx="1.69291" fill="#CBCBCB"/>
<rect x="118.492" y="82.5586" width="50.9302" height="3.38582" rx="1.69291" fill="#CBCBCB"/>
<rect x="118.492" y="148.583" width="50.9302" height="3.38582" rx="1.69291" fill="#CBCBCB"/>
<rect x="118.492" y="94.4102" width="58.5697" height="3.38582" rx="1.69291" fill="#CBCBCB"/>
<rect x="118.492" y="160.434" width="58.5697" height="3.38582" rx="1.69291" fill="#CBCBCB"/>
<rect x="118.492" y="106.259" width="39.8953" height="3.38582" rx="1.69291" fill="#CBCBCB"/>
<rect x="118.492" y="172.284" width="39.8953" height="3.38582" rx="1.69291" fill="#CBCBCB"/>
<rect x="118.492" y="202.756" width="50.9302" height="3.38582" rx="1.69291" fill="#CBCBCB"/>
<line x1="199.977" y1="123.438" x2="110" y2="123.438" stroke="#CBCBCB" stroke-width="0.5"/>
<line x1="199.977" y1="189.462" x2="110" y2="189.462" stroke="#CBCBCB" stroke-width="0.5"/>
<line x1="199.977" y1="219.935" x2="110" y2="219.935" stroke="#CBCBCB" stroke-width="0.5"/>
<path d="M232.216 70.9395H226.312V78.3267H227.644V72.0504H230.885V78.3267H232.216V70.9395Z" fill="#3C3A3E"/>
<path d="M233.763 80.4044H235.072V77.4538H235.127C235.333 77.8578 235.763 78.4241 236.718 78.4241C238.028 78.4241 239.008 77.3889 239.008 75.5637C239.008 73.7169 237.999 72.7141 236.715 72.7141C235.734 72.7141 235.326 73.3021 235.127 73.7025H235.051V72.7863H233.763V80.4044ZM235.047 75.5565C235.047 74.4816 235.51 73.7854 236.353 73.7854C237.225 73.7854 237.673 74.5249 237.673 75.5565C237.673 76.5953 237.217 77.3528 236.353 77.3528C235.517 77.3528 235.047 76.6314 235.047 75.5565Z" fill="#3C3A3E"/>
<path d="M242.553 78.4349C244.181 78.4349 245.215 77.2915 245.215 75.5781C245.215 73.8612 244.181 72.7141 242.553 72.7141C240.925 72.7141 239.891 73.8612 239.891 75.5781C239.891 77.2915 240.925 78.4349 242.553 78.4349ZM242.56 77.3889C241.659 77.3889 241.218 76.5881 241.218 75.5745C241.218 74.5609 241.659 73.7493 242.56 73.7493C243.446 73.7493 243.888 74.5609 243.888 75.5745C243.888 76.5881 243.446 77.3889 242.56 77.3889Z" fill="#3C3A3E"/>
<path d="M248.848 80.2096H250.161V78.4349C251.796 78.4349 252.921 77.2807 252.921 75.5781C252.921 73.872 251.796 72.7141 250.161 72.7141V70.9395H248.848V72.7141C247.213 72.7141 246.088 73.872 246.088 75.5781C246.088 77.2807 247.213 78.4349 248.848 78.4349V80.2096ZM248.848 77.3816C247.922 77.3816 247.426 76.5665 247.426 75.5781C247.426 74.5898 247.914 73.7674 248.848 73.7674V77.3816ZM250.161 77.3816V73.7674C251.094 73.7674 251.579 74.5898 251.579 75.5781C251.579 76.5665 251.094 77.3816 250.161 77.3816Z" fill="#3C3A3E"/>
<path d="M255.288 76.5592V72.7863H254.026V78.3267H255.375L257.592 74.5501V78.3267H258.858V72.7863H257.513L255.288 76.5592Z" fill="#3C3A3E"/>
<path d="M259.82 78.3267H260.225C261.418 78.3267 261.957 77.4899 262.044 75.643L262.131 73.8576H263.726V78.3267H264.992V72.7863H260.941L260.843 75.2391C260.782 76.7937 260.579 77.2518 260.004 77.2518H259.812L259.82 78.3267Z" fill="#3C3A3E"/>
<path d="M267.573 74.5898V72.7863H266.311V78.3267H268.835C270.25 78.3267 271.064 77.5476 271.067 76.4582C271.064 75.3401 270.25 74.5898 268.835 74.5898H267.573ZM267.573 75.6611H268.835C269.403 75.6611 269.812 75.9965 269.812 76.4763C269.812 76.9344 269.403 77.2554 268.835 77.2554H267.573V75.6611Z" fill="#3C3A3E"/>
<rect x="225.445" y="102.875" width="153.639" height="61.7912" rx="4" fill="#F3F3F3"/>
<path fill-rule="evenodd" clip-rule="evenodd" d="M235.627 114.724C234.692 114.724 233.934 115.482 233.934 116.417C233.934 117.352 234.692 118.109 235.627 118.109H255.159C256.094 118.109 256.852 117.352 256.852 116.417C256.852 115.482 256.094 114.724 255.159 114.724H235.627ZM379.085 147.735H225.445V161.279C225.445 163.149 226.965 164.664 228.841 164.664H375.689C377.565 164.664 379.085 163.149 379.085 161.279V147.735ZM265.34 116.417C265.34 115.482 266.098 114.724 267.033 114.724H300.147C301.082 114.724 301.84 115.482 301.84 116.417C301.84 117.352 301.082 118.109 300.147 118.109H267.033C266.098 118.109 265.34 117.352 265.34 116.417ZM235.627 124.036C234.692 124.036 233.934 124.794 233.934 125.729C233.934 126.664 234.692 127.422 235.627 127.422H279.776C280.711 127.422 281.468 126.664 281.468 125.729C281.468 124.794 280.711 124.036 279.776 124.036H235.627ZM233.934 135.04C233.934 134.105 234.692 133.347 235.627 133.347H321.369C322.304 133.347 323.061 134.105 323.061 135.04C323.061 135.975 322.304 136.732 321.369 136.732H235.627C234.692 136.732 233.934 135.975 233.934 135.04ZM291.646 124.036C290.711 124.036 289.953 124.794 289.953 125.729C289.953 126.664 290.711 127.422 291.646 127.422H338.342C339.277 127.422 340.034 126.664 340.034 125.729C340.034 124.794 339.277 124.036 338.342 124.036H291.646Z" fill="#CBCBCB"/>
<line x1="225.445" y1="87.291" x2="449.538" y2="87.291" stroke="#E6E6E6"/>
<path fill-rule="evenodd" clip-rule="evenodd" d="M131.479 41.6814C131.479 43.786 130.255 44.8394 127.807 44.8417H122.738C122.738 42.8154 125.866 42.8243 127.216 42.8281L127.372 42.8284C128.384 42.8284 128.889 42.3719 128.887 41.4588C128.887 40.5412 128.383 40.0893 127.372 40.0893H124.513V38.0965H127.349C128.36 38.0965 128.86 37.6548 128.86 36.7783C128.86 35.9017 128.353 35.4772 127.349 35.4772C127.188 35.4772 127.006 35.4819 126.809 35.4871C125.24 35.5281 122.738 35.5935 122.738 33.4639H127.405C128.748 33.4639 129.685 33.6362 130.214 33.9809C130.612 34.2368 130.936 34.599 131.153 35.0296C131.37 35.4602 131.472 35.9434 131.449 36.429C131.469 37.0044 131.323 37.573 131.03 38.0613C130.736 38.5496 130.309 38.9351 129.802 39.1682C130.915 39.6613 131.471 40.5058 131.469 41.7019L131.479 41.6814ZM164.62 36.5623C165.584 36.7388 166.454 37.2754 167.064 38.0712C167.675 38.8669 167.985 39.8671 167.936 40.8839C167.888 41.9006 167.483 42.8638 166.8 43.5927C166.116 44.3215 165.2 44.7657 164.224 44.8418C163.247 44.9179 162.278 44.6208 161.497 44.0061C160.717 43.3915 160.179 42.5017 159.985 41.5039C159.791 40.5061 159.954 39.4689 160.444 38.5874C160.934 37.7058 161.716 37.0405 162.644 36.7164C163.28 36.4947 163.959 36.4418 164.62 36.5623ZM140.652 42.5166C140.652 44.0779 139.637 44.8574 137.609 44.8552H132.695V36.5212H137.306C138.399 36.5212 139.167 36.6548 139.611 36.915C139.936 37.09 140.206 37.3573 140.39 37.6859C140.575 38.0144 140.665 38.3907 140.652 38.7708C140.658 39.1631 140.555 39.5489 140.357 39.8826C140.158 40.2163 139.872 40.484 139.532 40.6539C139.88 40.8055 140.175 41.0644 140.377 41.3956C140.579 41.7269 140.678 42.1145 140.662 42.5063L140.652 42.5166ZM138.386 39.0173C138.386 38.4934 138.034 38.2298 137.326 38.2298H134.813V39.8288H137.326C138.034 39.8288 138.386 39.5583 138.386 39.0173ZM138.386 42.3351C138.386 41.7907 138.037 41.5202 137.339 41.5202H134.813V43.15H137.355C138.053 43.15 138.403 42.8761 138.403 42.3351H138.386ZM158.962 44.8552H156.855V41.551H153.812V44.8552H151.697V36.5212H153.812V39.7158H156.855V36.5212H158.962V44.8552ZM177.055 44.8552H174.21L170.97 40.8115V44.8552H168.855V36.5212H170.97V40.5238L174.378 36.5212H177.075L173.351 40.5992L177.075 44.8552H177.055ZM164.508 38.4729C164.219 38.3783 163.915 38.3465 163.614 38.3795C163.313 38.4126 163.021 38.5097 162.758 38.6649C162.494 38.82 162.264 39.03 162.082 39.2815C161.9 39.5331 161.77 39.821 161.699 40.1272C161.629 40.4334 161.62 40.7514 161.673 41.0614C161.725 41.3714 161.839 41.6668 162.007 41.9292C162.174 42.1915 162.392 42.4153 162.646 42.5864C162.9 42.7576 163.185 42.8725 163.484 42.924C163.811 42.9923 164.148 42.9841 164.472 42.9001C164.944 42.7763 165.363 42.4938 165.664 42.0967C165.966 41.6995 166.132 41.2099 166.138 40.7041C166.144 40.1983 165.989 39.7046 165.697 39.2998C165.406 38.895 164.993 38.6019 164.525 38.466L164.508 38.4729ZM147.146 38.3462C147.646 38.5994 148.049 39.0215 148.289 39.5435C148.529 40.0655 148.591 40.6566 148.466 41.2203C148.341 41.784 148.036 42.287 147.601 42.6472C147.166 43.0074 146.626 43.2035 146.069 43.2035C145.513 43.2035 144.973 43.0074 144.537 42.6472C144.102 42.287 143.797 41.784 143.672 41.2203C143.547 40.6566 143.61 40.0655 143.849 39.5435C144.089 39.0215 144.492 38.5994 144.992 38.3462V36.1172C143.928 36.3907 142.996 37.0599 142.374 37.9984C141.751 38.937 141.481 40.08 141.613 41.2117C141.746 42.3434 142.272 43.3856 143.093 44.1414C143.914 44.8973 144.973 45.3146 146.069 45.3146C147.166 45.3146 148.224 44.8973 149.045 44.1414C149.866 43.3856 150.393 42.3434 150.525 41.2117C150.658 40.08 150.387 38.937 149.765 37.9984C149.142 37.0599 148.211 36.3907 147.146 36.1172V38.3462ZM145.322 41.8453C145.636 42.0591 146.018 42.1355 146.385 42.058C146.663 42.0042 146.919 41.8656 147.12 41.66C147.322 41.4545 147.46 41.1912 147.517 40.9037C147.574 40.6162 147.548 40.3175 147.442 40.0456C147.335 39.7738 147.153 39.541 146.919 39.3771C146.777 39.277 146.618 39.2051 146.451 39.1648V35.9736H145.792V39.1648C145.427 39.2497 145.108 39.4814 144.905 39.8094C144.703 40.1374 144.633 40.5353 144.711 40.9166C144.789 41.2978 145.009 41.6316 145.322 41.8453Z" fill="white"/>
<g filter="url(#filter1_d_1059_6833)">
<rect x="15" y="208" width="231" height="92" rx="7" fill="white"/>
</g>
<path d="M34 224.732V232.12H35.1903L38.6711 227.088H38.7324V232.12H40.0706V224.732H38.8731L35.3959 229.768H35.331V224.732H34Z" fill="#3C3A3E"/>
<path d="M43.8913 232.228C45.2836 232.228 46.1709 231.402 46.2647 230.226H45.0167C44.9049 230.821 44.4756 231.164 43.9021 231.164C43.0869 231.164 42.5603 230.482 42.5603 229.349C42.5603 228.231 43.0977 227.56 43.9021 227.56C44.5297 227.56 44.9157 227.964 45.0167 228.498H46.2647C46.1745 227.297 45.2367 226.507 43.8841 226.507C42.2609 226.507 41.2365 227.679 41.2365 229.371C41.2365 231.048 42.2357 232.228 43.8913 232.228Z" fill="#3C3A3E"/>
<path d="M46.9446 227.65H48.7373V232.12H49.9997V227.65H51.7924V226.579H46.9446V227.65Z" fill="#3C3A3E"/>
<path d="M55.0207 232.228C56.6438 232.228 57.6754 231.084 57.6754 229.371C57.6754 227.654 56.6438 226.507 55.0207 226.507C53.3975 226.507 52.3659 227.654 52.3659 229.371C52.3659 231.084 53.3975 232.228 55.0207 232.228ZM55.0279 231.182C54.1297 231.182 53.6897 230.381 53.6897 229.367C53.6897 228.354 54.1297 227.542 55.0279 227.542C55.9116 227.542 56.3517 228.354 56.3517 229.367C56.3517 230.381 55.9116 231.182 55.0279 231.182Z" fill="#3C3A3E"/>
<path d="M58.7837 234.197H60.0894V231.247H60.1435C60.3491 231.651 60.7783 232.217 61.7306 232.217C63.0363 232.217 64.0138 231.182 64.0138 229.357C64.0138 227.51 63.0075 226.507 61.727 226.507C60.7495 226.507 60.3419 227.095 60.1435 227.495H60.0678V226.579H58.7837V234.197ZM60.0642 229.349C60.0642 228.274 60.5259 227.578 61.3663 227.578C62.2356 227.578 62.6828 228.318 62.6828 229.349C62.6828 230.388 62.2284 231.146 61.3663 231.146C60.5331 231.146 60.0642 230.424 60.0642 229.349Z" fill="#3C3A3E"/>
<path d="M66.3908 230.352V226.579H65.132V232.12H66.4774L68.6885 228.343V232.12H69.9509V226.579H68.6091L66.3908 230.352Z" fill="#3C3A3E"/>
<path d="M74.567 232.12H75.7898V226.579H73.3839C72.0277 226.579 71.1872 227.275 71.1908 228.339C71.1872 229.039 71.5696 229.569 72.2297 229.84L70.9888 232.12H72.2729L73.4091 230.035H74.567V232.12ZM74.567 229.082H73.3406C72.7671 229.082 72.4497 228.783 72.4533 228.368C72.4497 227.953 72.7851 227.64 73.3839 227.64H74.567V229.082Z" fill="#3C3A3E"/>
<path d="M34.0289 251.589H37.405V250.843H35.26V250.81L36.1089 249.946C37.0659 249.028 37.3305 248.581 37.3305 248.025C37.3305 247.2 36.6596 246.597 35.6688 246.597C34.6925 246.597 34 247.203 34 248.138H34.8488C34.8488 247.635 35.1663 247.32 35.6568 247.32C36.1257 247.32 36.4744 247.607 36.4744 248.071C36.4744 248.482 36.2243 248.775 35.7386 249.268L34.0289 250.944V251.589Z" fill="#858585"/>
<path d="M40.2377 246.664H39.3889L38.1649 247.45V248.268L39.3167 247.532H39.3456V251.589H40.2377V246.664Z" fill="#858585"/>
<path d="M43.8483 251.589L44.2547 250.374H46.1063L46.5151 251.589H47.4673L45.7312 246.664H44.6298L42.8961 251.589H43.8483ZM44.4952 249.658L45.1613 247.674H45.1997L45.8658 249.658H44.4952Z" fill="#858585"/>
<path d="M48.0775 251.589H49.8666C50.7323 251.589 51.2276 251.197 51.2276 250.586C51.2276 250.069 50.826 249.708 50.2465 249.658C50.7395 249.566 51.0473 249.304 51.0473 248.888C51.0473 248.266 50.5014 247.895 49.6285 247.895H48.0775V251.589ZM48.8927 250.903V249.987H49.8666C50.1864 249.987 50.3812 250.172 50.3812 250.478C50.3812 250.742 50.1864 250.903 49.8666 250.903H48.8927ZM48.8927 249.425V248.593H49.6285C49.9916 248.593 50.2129 248.746 50.2129 248.999C50.2129 249.263 49.9988 249.425 49.6453 249.425H48.8927Z" fill="#858585"/>
<path d="M54.3892 247.895H51.946V251.589H52.7973V248.609H54.3892V247.895Z" fill="#858585"/>
<path d="M55.6282 252.974C56.3063 252.974 56.6982 252.625 56.9074 252.036L58.3911 247.9L57.4605 247.895L56.6069 250.685H56.5684L55.7171 247.895H54.7937L56.1331 251.666L56.0586 251.865C55.8975 252.286 55.6426 252.315 55.2626 252.204L55.0607 252.882C55.1785 252.931 55.3901 252.974 55.6282 252.974Z" fill="#858585"/>
<path d="M60.4808 251.661C61.409 251.661 62.0005 251.11 62.063 250.326H61.231C61.1565 250.723 60.8703 250.952 60.488 250.952C59.9445 250.952 59.5934 250.497 59.5934 249.742C59.5934 248.997 59.9517 248.549 60.488 248.549C60.9064 248.549 61.1637 248.819 61.231 249.174H62.063C62.0029 248.374 61.3777 247.847 60.476 247.847C59.3939 247.847 58.7109 248.629 58.7109 249.756C58.7109 250.875 59.377 251.661 60.4808 251.661Z" fill="#858585"/>
<path d="M62.5163 248.609H63.7114V251.589H64.5531V248.609H65.7482V247.895H62.5163V248.609Z" fill="#858585"/>
<path d="M67.3521 251.663C67.9316 251.663 68.2779 251.392 68.4366 251.081H68.4655V251.589H69.3023V249.117C69.3023 248.14 68.5063 247.847 67.8018 247.847C67.0251 247.847 66.4287 248.193 66.2363 248.867L67.0491 248.982C67.1357 248.73 67.381 248.513 67.8066 248.513C68.2106 248.513 68.4318 248.72 68.4318 249.083V249.098C68.4318 249.348 68.1697 249.36 67.518 249.429C66.8014 249.506 66.1161 249.72 66.1161 250.552C66.1161 251.279 66.6475 251.663 67.3521 251.663ZM67.5781 251.024C67.215 251.024 66.9553 250.858 66.9553 250.538C66.9553 250.204 67.2463 250.064 67.6358 250.009C67.8643 249.978 68.3212 249.92 68.4342 249.829V250.264C68.4342 250.675 68.1023 251.024 67.5781 251.024Z" fill="#858585"/>
<path d="M71.8476 251.589H75.2238V250.843H73.0788V250.81L73.9277 249.946C74.8847 249.028 75.1492 248.581 75.1492 248.025C75.1492 247.2 74.4783 246.597 73.4876 246.597C72.5113 246.597 71.8188 247.203 71.8188 248.138H72.6676C72.6676 247.635 72.985 247.32 73.4756 247.32C73.9445 247.32 74.2932 247.607 74.2932 248.071C74.2932 248.482 74.0431 248.775 73.5573 249.268L71.8476 250.944V251.589Z" fill="#858585"/>
<path d="M77.8737 251.683C79.0616 251.685 79.771 250.747 79.771 249.131C79.771 247.525 79.0568 246.597 77.8737 246.597C76.6906 246.597 75.9788 247.522 75.9764 249.131C75.9764 250.745 76.6858 251.683 77.8737 251.683ZM77.8737 250.93C77.2605 250.93 76.8758 250.314 76.8782 249.131C76.8806 247.958 77.2629 247.34 77.8737 247.34C78.4869 247.34 78.8692 247.958 78.8716 249.131C78.8716 250.314 78.4893 250.93 77.8737 250.93Z" fill="#858585"/>
<path d="M80.5699 251.589H83.9461V250.843H81.8011V250.81L82.65 249.946C83.607 249.028 83.8715 248.581 83.8715 248.025C83.8715 247.2 83.2006 246.597 82.2099 246.597C81.2336 246.597 80.5411 247.203 80.5411 248.138H81.3899C81.3899 247.635 81.7073 247.32 82.1979 247.32C82.6668 247.32 83.0155 247.607 83.0155 248.071C83.0155 248.482 82.7654 248.775 82.2797 249.268L80.5699 250.944V251.589Z" fill="#858585"/>
<path d="M86.7788 246.664H85.9299L84.706 247.45V248.268L85.8578 247.532H85.8867V251.589H86.7788V246.664Z" fill="#858585"/>
<path d="M88.7897 250.915H88.0202L88.0034 251.185C87.9625 251.836 87.7917 252.5 87.722 252.791H88.3088C88.4242 252.488 88.6911 251.786 88.7584 251.18L88.7897 250.915Z" fill="#858585"/>
<path d="M93.2858 246.664H92.437L91.213 247.45V248.268L92.3648 247.532H92.3937V251.589H93.2858V246.664Z" fill="#858585"/>
<path d="M96.3037 251.656C97.3569 251.656 98.124 251.053 98.1216 250.221C98.124 249.605 97.7392 249.162 97.0491 249.064V249.025C97.5829 248.91 97.9412 248.513 97.9388 247.96C97.9412 247.21 97.3016 246.597 96.3181 246.597C95.361 246.597 94.6204 247.167 94.6012 247.991H95.4596C95.474 247.578 95.8588 247.32 96.3133 247.32C96.7726 247.32 97.078 247.599 97.0756 248.013C97.078 248.443 96.7221 248.73 96.2123 248.73H95.777V249.417H96.2123C96.8351 249.417 97.2054 249.73 97.203 250.175C97.2054 250.61 96.8279 250.908 96.3013 250.908C95.8059 250.908 95.4235 250.651 95.4019 250.249H94.4978C94.5218 251.081 95.2648 251.656 96.3037 251.656Z" fill="#858585"/>
<path d="M99.4928 250.997C99.7766 250.997 100.019 250.762 100.022 250.468C100.019 250.18 99.7766 249.944 99.4928 249.944C99.1995 249.944 98.9614 250.18 98.9638 250.468C98.9614 250.762 99.1995 250.997 99.4928 250.997ZM99.4928 248.554C99.7766 248.554 100.019 248.318 100.022 248.025C100.019 247.736 99.7766 247.501 99.4928 247.501C99.1995 247.501 98.9614 247.736 98.9638 248.025C98.9614 248.318 99.1995 248.554 99.4928 248.554Z" fill="#858585"/>
<path d="M100.822 250.675H103.171V251.589H104.023V250.675H104.653V249.942H104.023V246.664H102.912L100.822 249.966V250.675ZM103.181 249.942H101.736V249.903L103.143 247.674H103.181V249.942Z" fill="#858585"/>
<path d="M107.241 251.683C108.429 251.685 109.139 250.747 109.139 249.131C109.139 247.525 108.424 246.597 107.241 246.597C106.058 246.597 105.346 247.522 105.344 249.131C105.344 250.745 106.053 251.683 107.241 251.683ZM107.241 250.93C106.628 250.93 106.243 250.314 106.246 249.131C106.248 247.958 106.63 247.34 107.241 247.34C107.854 247.34 108.237 247.958 108.239 249.131C108.239 250.314 107.857 250.93 107.241 250.93Z" fill="#858585"/>
<path d="M36.0728 261.899H35.224L34 262.686V263.503L35.1518 262.767H35.1807V266.824H36.0728V261.899Z" fill="#858585"/>
<path d="M37.5036 266.824H38.4294L40.5215 262.662V261.899H37.1669V262.645H39.5981V262.679L37.5036 266.824Z" fill="#858585"/>
<path d="M43.6577 266.824L44.0641 265.61H45.9157L46.3245 266.824H47.2768L45.5406 261.899H44.4393L42.7055 266.824H43.6577ZM44.3046 264.893L44.9707 262.909H45.0092L45.6752 264.893H44.3046Z" fill="#858585"/>
<path d="M47.8869 266.824H49.676C50.5417 266.824 51.037 266.432 51.037 265.821C51.037 265.304 50.6355 264.944 50.0559 264.893C50.5489 264.802 50.8567 264.54 50.8567 264.124C50.8567 263.501 50.3108 263.131 49.4379 263.131H47.8869V266.824ZM48.7021 266.139V265.223H49.676C49.9958 265.223 50.1906 265.408 50.1906 265.713C50.1906 265.978 49.9958 266.139 49.676 266.139H48.7021ZM48.7021 264.66V263.828H49.4379C49.8011 263.828 50.0223 263.982 50.0223 264.234C50.0223 264.499 49.8083 264.66 49.4548 264.66H48.7021Z" fill="#858585"/>
<path d="M54.1986 263.131H51.7554V266.824H52.6067V263.845H54.1986V263.131Z" fill="#858585"/>
<path d="M55.4376 268.209C56.1157 268.209 56.5077 267.861 56.7169 267.271L58.2005 263.135L57.2699 263.131L56.4163 265.92H56.3778L55.5266 263.131H54.6032L55.9426 266.901L55.868 267.101C55.7069 267.522 55.452 267.55 55.0721 267.44L54.8701 268.118C54.9879 268.166 55.1995 268.209 55.4376 268.209Z" fill="#858585"/>
<path d="M60.2902 266.896C61.2184 266.896 61.8099 266.346 61.8725 265.562H61.0405C60.9659 265.958 60.6798 266.187 60.2974 266.187C59.754 266.187 59.4029 265.732 59.4029 264.977C59.4029 264.232 59.7612 263.785 60.2974 263.785C60.7158 263.785 60.9731 264.054 61.0405 264.41H61.8725C61.8124 263.609 61.1871 263.083 60.2854 263.083C59.2033 263.083 58.5204 263.864 58.5204 264.992C58.5204 266.11 59.1865 266.896 60.2902 266.896Z" fill="#858585"/>
<path d="M62.3257 263.845H63.5209V266.824H64.3625V263.845H65.5576V263.131H62.3257V263.845Z" fill="#858585"/>
<path d="M67.1615 266.899C67.7411 266.899 68.0873 266.627 68.246 266.317H68.2749V266.824H69.1117V264.352C69.1117 263.376 68.3158 263.083 67.6112 263.083C66.8345 263.083 66.2381 263.429 66.0458 264.102L66.8585 264.218C66.9451 263.965 67.1904 263.749 67.616 263.749C68.02 263.749 68.2412 263.955 68.2412 264.319V264.333C68.2412 264.583 67.9791 264.595 67.3275 264.665C66.6109 264.742 65.9255 264.956 65.9255 265.788C65.9255 266.514 66.457 266.899 67.1615 266.899ZM67.3876 266.259C67.0245 266.259 66.7648 266.093 66.7648 265.773C66.7648 265.439 67.0557 265.3 67.4453 265.244C67.6737 265.213 68.1306 265.155 68.2436 265.064V265.499C68.2436 265.91 67.9118 266.259 67.3876 266.259Z" fill="#858585"/>
<path d="M71.6571 266.824H75.0332V266.079H72.8882V266.045L73.7371 265.182C74.6941 264.263 74.9587 263.816 74.9587 263.26C74.9587 262.436 74.2878 261.832 73.297 261.832C72.3207 261.832 71.6282 262.438 71.6282 263.373H72.477C72.477 262.871 72.7945 262.556 73.285 262.556C73.7539 262.556 74.1026 262.842 74.1026 263.306C74.1026 263.717 73.8525 264.011 73.3668 264.504L71.6571 266.18V266.824Z" fill="#858585"/>
<path d="M77.6831 266.918C78.871 266.92 79.5804 265.983 79.5804 264.367C79.5804 262.76 78.8662 261.832 77.6831 261.832C76.5 261.832 75.7883 262.758 75.7859 264.367C75.7859 265.98 76.4952 266.918 77.6831 266.918ZM77.6831 266.165C77.07 266.165 76.6852 265.55 76.6876 264.367C76.69 263.193 77.0724 262.575 77.6831 262.575C78.2963 262.575 78.6787 263.193 78.6811 264.367C78.6811 265.55 78.2987 266.165 77.6831 266.165Z" fill="#858585"/>
<path d="M80.3794 266.824H83.7555V266.079H81.6106V266.045L82.4594 265.182C83.4165 264.263 83.681 263.816 83.681 263.26C83.681 262.436 83.0101 261.832 82.0194 261.832C81.0431 261.832 80.3505 262.438 80.3505 263.373H81.1994C81.1994 262.871 81.5168 262.556 82.0073 262.556C82.4762 262.556 82.8249 262.842 82.8249 263.306C82.8249 263.717 82.5748 264.011 82.0891 264.504L80.3794 266.18V266.824Z" fill="#858585"/>
<path d="M86.5882 261.899H85.7394L84.5154 262.686V263.503L85.6672 262.767H85.6961V266.824H86.5882V261.899Z" fill="#858585"/>
<path d="M88.5991 266.151H87.8296L87.8128 266.42C87.7719 267.072 87.6012 267.736 87.5314 268.027H88.1182C88.2336 267.724 88.5005 267.021 88.5679 266.415L88.5991 266.151Z" fill="#858585"/>
<path d="M92.8019 261.832C91.7342 261.825 91.0248 262.558 91.0248 263.52C91.0272 264.448 91.6885 265.119 92.5518 265.119C93.0832 265.119 93.5449 264.862 93.783 264.439H93.8166C93.8142 265.492 93.4319 266.12 92.7514 266.12C92.3257 266.12 92.0396 265.874 91.9506 265.482H91.0729C91.1739 266.298 91.8184 266.891 92.7514 266.891C93.9321 266.891 94.6847 265.906 94.6823 264.21C94.6799 262.416 93.7469 261.837 92.8019 261.832ZM92.8043 262.553C93.3309 262.553 93.718 262.991 93.718 263.494C93.7205 264.003 93.3141 264.441 92.7947 264.441C92.2704 264.441 91.8929 264.028 91.8905 263.501C91.8905 262.972 92.2825 262.553 92.8043 262.553Z" fill="#858585"/>
<path d="M96.0289 266.233C96.3127 266.233 96.5555 265.997 96.558 265.704C96.5555 265.415 96.3127 265.179 96.0289 265.179C95.7356 265.179 95.4975 265.415 95.4999 265.704C95.4975 265.997 95.7356 266.233 96.0289 266.233ZM96.0289 263.789C96.3127 263.789 96.5555 263.554 96.558 263.26C96.5555 262.972 96.3127 262.736 96.0289 262.736C95.7356 262.736 95.4975 262.972 95.4999 263.26C95.4975 263.554 95.7356 263.789 96.0289 263.789Z" fill="#858585"/>
<path d="M97.4471 266.824H100.823V266.079H98.6783V266.045L99.5271 265.182C100.484 264.263 100.749 263.816 100.749 263.26C100.749 262.436 100.078 261.832 99.0871 261.832C98.1108 261.832 97.4182 262.438 97.4182 263.373H98.2671C98.2671 262.871 98.5845 262.556 99.075 262.556C99.5439 262.556 99.8926 262.842 99.8926 263.306C99.8926 263.717 99.6425 264.011 99.1568 264.504L97.4471 266.18V266.824Z" fill="#858585"/>
<path d="M103.403 266.891C104.469 266.891 105.231 266.305 105.233 265.504C105.231 264.888 104.776 264.374 104.204 264.278V264.244C104.702 264.133 105.048 263.686 105.051 263.152C105.048 262.395 104.351 261.832 103.403 261.832C102.449 261.832 101.751 262.392 101.754 263.152C101.751 263.686 102.093 264.133 102.6 264.244V264.278C102.018 264.374 101.569 264.888 101.571 265.504C101.569 266.305 102.329 266.891 103.403 266.891ZM103.403 266.204C102.846 266.204 102.485 265.896 102.49 265.441C102.485 264.97 102.872 264.636 103.403 264.636C103.928 264.636 104.312 264.973 104.317 265.441C104.312 265.896 103.954 266.204 103.403 266.204ZM103.403 263.96C102.947 263.96 102.62 263.664 102.624 263.236C102.62 262.813 102.937 262.529 103.403 262.529C103.863 262.529 104.178 262.813 104.183 263.236C104.178 263.667 103.853 263.96 103.403 263.96Z" fill="#858585"/>
<path d="M36.0728 277.136H35.224L34 277.922V278.74L35.1518 278.004H35.1807V282.06H36.0728V277.136Z" fill="#858585"/>
<path d="M37.2343 281.147H39.5836V282.06H40.4349V281.147H41.0649V280.413H40.4349V277.136H39.3239L37.2343 280.437V281.147ZM39.5933 280.413H38.148V280.375L39.5548 278.146H39.5933V280.413Z" fill="#858585"/>
<path d="M44.1934 282.06L44.5998 280.846H46.4514L46.8601 282.06H47.8124L46.0762 277.136H44.9749L43.2411 282.06H44.1934ZM44.8402 280.129L45.5063 278.146H45.5448L46.2109 280.129H44.8402Z" fill="#858585"/>
<path d="M48.4226 282.06H50.2116C51.0773 282.06 51.5727 281.668 51.5727 281.058C51.5727 280.541 51.1711 280.18 50.5916 280.129C51.0845 280.038 51.3923 279.776 51.3923 279.36C51.3923 278.737 50.8465 278.367 49.9736 278.367H48.4226V282.06ZM49.2378 281.375V280.459H50.2116C50.5315 280.459 50.7262 280.644 50.7262 280.949C50.7262 281.214 50.5315 281.375 50.2116 281.375H49.2378ZM49.2378 279.896V279.064H49.9736C50.3367 279.064 50.5579 279.218 50.5579 279.471C50.5579 279.735 50.3439 279.896 49.9904 279.896H49.2378Z" fill="#858585"/>
<path d="M54.7342 278.367H52.2911V282.06H53.1423V279.081H54.7342V278.367Z" fill="#858585"/>
<path d="M55.9732 283.446C56.6513 283.446 57.0433 283.097 57.2525 282.508L58.7362 278.372L57.8056 278.367L56.9519 281.156H56.9134L56.0622 278.367H55.1388L56.4782 282.137L56.4037 282.337C56.2425 282.758 55.9877 282.787 55.6077 282.676L55.4057 283.354C55.5236 283.402 55.7352 283.446 55.9732 283.446Z" fill="#858585"/>
<path d="M60.8258 282.133C61.754 282.133 62.3456 281.582 62.4081 280.798H61.5761C61.5015 281.195 61.2154 281.423 60.8331 281.423C60.2896 281.423 59.9385 280.969 59.9385 280.214C59.9385 279.468 60.2968 279.021 60.8331 279.021C61.2515 279.021 61.5088 279.29 61.5761 279.646H62.4081C62.348 278.845 61.7228 278.319 60.821 278.319C59.7389 278.319 59.056 279.1 59.056 280.228C59.056 281.346 59.7221 282.133 60.8258 282.133Z" fill="#858585"/>
<path d="M62.8614 279.081H64.0565V282.06H64.8981V279.081H66.0933V278.367H62.8614V279.081Z" fill="#858585"/>
<path d="M67.6972 282.135C68.2767 282.135 68.623 281.863 68.7817 281.553H68.8105V282.06H69.6474V279.588C69.6474 278.612 68.8514 278.319 68.1468 278.319C67.3701 278.319 66.7738 278.665 66.5814 279.338L67.3942 279.454C67.4807 279.201 67.726 278.985 68.1516 278.985C68.5556 278.985 68.7769 279.192 68.7769 279.555V279.569C68.7769 279.819 68.5148 279.831 67.8631 279.901C67.1465 279.978 66.4612 280.192 66.4612 281.024C66.4612 281.75 66.9926 282.135 67.6972 282.135ZM67.9232 281.495C67.5601 281.495 67.3004 281.329 67.3004 281.01C67.3004 280.675 67.5914 280.536 67.9809 280.481C68.2094 280.449 68.6662 280.392 68.7793 280.3V280.735C68.7793 281.147 68.4474 281.495 67.9232 281.495Z" fill="#858585"/>
<path d="M72.1927 282.06H75.5688V281.315H73.4239V281.281L74.2727 280.418C75.2298 279.499 75.4943 279.052 75.4943 278.497C75.4943 277.672 74.8234 277.068 73.8327 277.068C72.8564 277.068 72.1638 277.674 72.1638 278.61H73.0127C73.0127 278.107 73.3301 277.792 73.8206 277.792C74.2896 277.792 74.6382 278.078 74.6382 278.542C74.6382 278.954 74.3881 279.247 73.9024 279.74L72.1927 281.416V282.06Z" fill="#858585"/>
<path d="M78.2188 282.154C79.4067 282.157 80.1161 281.219 80.1161 279.603C80.1161 277.997 79.4019 277.068 78.2188 277.068C77.0357 277.068 76.3239 277.994 76.3215 279.603C76.3215 281.216 77.0309 282.154 78.2188 282.154ZM78.2188 281.402C77.6056 281.402 77.2208 280.786 77.2232 279.603C77.2257 278.429 77.608 277.811 78.2188 277.811C78.832 277.811 79.2143 278.429 79.2167 279.603C79.2167 280.786 78.8344 281.402 78.2188 281.402Z" fill="#858585"/>
<path d="M80.915 282.06H84.2912V281.315H82.1462V281.281L82.995 280.418C83.9521 279.499 84.2166 279.052 84.2166 278.497C84.2166 277.672 83.5457 277.068 82.555 277.068C81.5787 277.068 80.8862 277.674 80.8862 278.61H81.735C81.735 278.107 82.0524 277.792 82.543 277.792C83.0119 277.792 83.3606 278.078 83.3606 278.542C83.3606 278.954 83.1105 279.247 82.6247 279.74L80.915 281.416V282.06Z" fill="#858585"/>
<path d="M87.1239 277.136H86.275L85.051 277.922V278.74L86.2029 278.004H86.2317V282.06H87.1239V277.136Z" fill="#858585"/>
<path d="M89.1348 281.387H88.3653L88.3484 281.656C88.3076 282.308 88.1368 282.972 88.0671 283.263H88.6538C88.7692 282.96 89.0362 282.258 89.1035 281.652L89.1348 281.387Z" fill="#858585"/>
<path d="M93.6309 277.136H92.782L91.5581 277.922V278.74L92.7099 278.004H92.7387V282.06H93.6309V277.136Z" fill="#858585"/>
<path d="M95.0617 282.06H95.9874L98.0795 277.898V277.136H94.725V277.881H97.1561V277.915L95.0617 282.06Z" fill="#858585"/>
<path d="M99.17 281.469C99.4538 281.469 99.6966 281.233 99.699 280.94C99.6966 280.651 99.4538 280.416 99.17 280.416C98.8766 280.416 98.6386 280.651 98.641 280.94C98.6386 281.233 98.8766 281.469 99.17 281.469ZM99.17 279.026C99.4538 279.026 99.6966 278.79 99.699 278.497C99.6966 278.208 99.4538 277.973 99.17 277.973C98.8766 277.973 98.6386 278.208 98.641 278.497C98.6386 278.79 98.8766 279.026 99.17 279.026Z" fill="#858585"/>
<path d="M102.409 282.154C103.596 282.157 104.306 281.219 104.306 279.603C104.306 277.997 103.592 277.068 102.409 277.068C101.225 277.068 100.514 277.994 100.511 279.603C100.511 281.216 101.221 282.154 102.409 282.154ZM102.409 281.402C101.795 281.402 101.411 280.786 101.413 279.603C101.415 278.429 101.798 277.811 102.409 277.811C103.022 277.811 103.404 278.429 103.406 279.603C103.406 280.786 103.024 281.402 102.409 281.402Z" fill="#858585"/>
<path d="M105.105 282.06H108.481V281.315H106.336V281.281L107.185 280.418C108.142 279.499 108.406 279.052 108.406 278.497C108.406 277.672 107.735 277.068 106.745 277.068C105.768 277.068 105.076 277.674 105.076 278.61H105.925C105.925 278.107 106.242 277.792 106.733 277.792C107.202 277.792 107.55 278.078 107.55 278.542C107.55 278.954 107.3 279.247 106.814 279.74L105.105 281.416V282.06Z" fill="#858585"/>
<path fill-rule="evenodd" clip-rule="evenodd" d="M119.109 249.048C119.109 248.113 119.867 247.355 120.802 247.355H184.285C185.22 247.355 185.978 248.113 185.978 249.048C185.978 249.983 185.22 250.741 184.285 250.741H120.802C119.867 250.741 119.109 249.983 119.109 249.048ZM119.109 264.286C119.109 263.351 119.867 262.593 120.802 262.593H147.042C147.977 262.593 148.735 263.351 148.735 264.286C148.735 265.221 147.977 265.979 147.042 265.979H120.802C119.867 265.979 119.109 265.221 119.109 264.286ZM157.201 262.593C156.266 262.593 155.508 263.351 155.508 264.286C155.508 265.221 156.266 265.979 157.201 265.979H207.987C208.922 265.979 209.68 265.221 209.68 264.286C209.68 263.351 208.922 262.593 207.987 262.593H157.201ZM119.109 279.521C119.109 278.586 119.867 277.828 120.802 277.828H166.51C167.445 277.828 168.203 278.586 168.203 279.521C168.203 280.456 167.445 281.214 166.51 281.214H120.802C119.867 281.214 119.109 280.456 119.109 279.521ZM194.447 247.355C193.512 247.355 192.754 248.113 192.754 249.048C192.754 249.983 193.512 250.741 194.447 250.741H224.919C225.854 250.741 226.612 249.983 226.612 249.048C226.612 248.113 225.854 247.355 224.919 247.355H194.447ZM216.453 264.286C216.453 263.351 217.211 262.593 218.146 262.593H224.918C225.852 262.593 226.61 263.351 226.61 264.286C226.61 265.221 225.852 265.979 224.918 265.979H218.146C217.211 265.979 216.453 265.221 216.453 264.286ZM176.673 277.828C175.738 277.828 174.98 278.586 174.98 279.521C174.98 280.456 175.738 281.214 176.673 281.214H224.921C225.855 281.214 226.613 280.456 226.613 279.521C226.613 278.586 225.855 277.828 224.921 277.828H176.673Z" fill="#E6E6E6"/>
<g filter="url(#filter2_d_1059_6833)">
<rect x="15" y="86" width="231" height="52" rx="7" fill="white"/>
</g>
<path d="M34 109.7H34.3607C36.0885 109.7 36.5682 108.535 36.6728 106.107L36.7882 103.413H39.0714V109.7H40.3808V102.312H35.5402L35.4175 105.692C35.3382 107.788 35.0569 108.531 34.2092 108.578L34 108.589V109.7Z" fill="#3C3A3E"/>
<path d="M44.1988 109.808C45.8219 109.808 46.8535 108.664 46.8535 106.951C46.8535 105.234 45.8219 104.087 44.1988 104.087C42.5756 104.087 41.544 105.234 41.544 106.951C41.544 108.664 42.5756 109.808 44.1988 109.808ZM44.206 108.762C43.3079 108.762 42.8678 107.961 42.8678 106.947C42.8678 105.934 43.3079 105.122 44.206 105.122C45.0897 105.122 45.5298 105.934 45.5298 106.947C45.5298 107.961 45.0897 108.762 44.206 108.762Z" fill="#3C3A3E"/>
<path d="M51.6265 104.159H47.9618V109.7H49.2387V105.231H51.6265V104.159Z" fill="#3C3A3E"/>
<path d="M53.9323 107.932V104.159H52.6734V109.7H54.0188L56.2299 105.923V109.7H57.4924V104.159H56.1506L53.9323 107.932Z" fill="#3C3A3E"/>
<path d="M60.0921 104.159H58.8333V109.7H60.0921V107.46H62.2383V109.7H63.4935V104.159H62.2383V106.388H60.0921V104.159Z" fill="#3C3A3E"/>
<path d="M150.887 102.312H145V109.7H146.327V103.423H149.559V109.7H150.887V102.312Z" fill="#3C3A3E"/>
<path d="M154.024 109.811C154.893 109.811 155.412 109.404 155.651 108.939H155.694V109.7H156.949V105.992C156.949 104.527 155.755 104.087 154.698 104.087C153.533 104.087 152.639 104.607 152.35 105.617L153.569 105.79C153.699 105.411 154.067 105.086 154.706 105.086C155.312 105.086 155.643 105.396 155.643 105.941V105.963C155.643 106.338 155.25 106.356 154.273 106.461C153.198 106.576 152.17 106.897 152.17 108.145C152.17 109.234 152.967 109.811 154.024 109.811ZM154.363 108.852C153.818 108.852 153.429 108.603 153.429 108.123C153.429 107.622 153.865 107.413 154.449 107.33C154.792 107.283 155.477 107.196 155.647 107.059V107.712C155.647 108.329 155.149 108.852 154.363 108.852Z" fill="#3C3A3E"/>
<path d="M158.262 111.777H159.568V108.827H159.622C159.827 109.231 160.257 109.797 161.209 109.797C162.515 109.797 163.492 108.762 163.492 106.937C163.492 105.09 162.486 104.087 161.205 104.087C160.228 104.087 159.82 104.675 159.622 105.075H159.546V104.159H158.262V111.777ZM159.543 106.929C159.543 105.855 160.004 105.158 160.845 105.158C161.714 105.158 162.161 105.898 162.161 106.929C162.161 107.968 161.707 108.726 160.845 108.726C160.011 108.726 159.543 108.004 159.543 106.929Z" fill="#3C3A3E"/>
<path d="M167.027 109.808C168.65 109.808 169.682 108.664 169.682 106.951C169.682 105.234 168.65 104.087 167.027 104.087C165.404 104.087 164.372 105.234 164.372 106.951C164.372 108.664 165.404 109.808 167.027 109.808ZM167.034 108.762C166.136 108.762 165.696 107.961 165.696 106.947C165.696 105.934 166.136 105.122 167.034 105.122C167.918 105.122 168.358 105.934 168.358 106.947C168.358 107.961 167.918 108.762 167.034 108.762Z" fill="#3C3A3E"/>
<path d="M170.408 109.7H170.812C172.002 109.7 172.539 108.863 172.626 107.016L172.713 105.231H174.303V109.7H175.566V104.159H171.526L171.428 106.612C171.367 108.167 171.165 108.625 170.592 108.625H170.4L170.408 109.7Z" fill="#3C3A3E"/>
<path d="M178.139 105.963V104.159H176.88V109.7H179.398C180.808 109.7 181.62 108.921 181.624 107.831C181.62 106.713 180.808 105.963 179.398 105.963H178.139ZM178.139 107.034H179.398C179.964 107.034 180.372 107.37 180.372 107.849C180.372 108.307 179.964 108.628 179.398 108.628H178.139V107.034Z" fill="#3C3A3E"/>
<path fill-rule="evenodd" clip-rule="evenodd" d="M35.6929 116.473C34.7579 116.473 34 117.231 34 118.166C34 119.1 34.7579 119.858 35.6929 119.858H120.337C121.272 119.858 122.03 119.1 122.03 118.166C122.03 117.231 121.272 116.473 120.337 116.473H35.6929ZM146.693 116.473C145.758 116.473 145 117.231 145 118.166C145 119.1 145.758 119.858 146.693 119.858H204.251C205.186 119.858 205.944 119.1 205.944 118.166C205.944 117.231 205.186 116.473 204.251 116.473H146.693Z" fill="#E6E6E6"/>
<g filter="url(#filter3_d_1059_6833)">
<rect x="15" y="147" width="231" height="52" rx="7" fill="white"/>
</g>
<path d="M34 170.179H36.763C38.4582 170.179 39.4754 169.238 39.4754 167.878C39.4754 166.522 38.4582 165.645 36.763 165.645H35.3382V163.914H38.7504V162.792H34V170.179ZM35.3382 169.083V166.734H36.763C37.6575 166.734 38.1517 167.239 38.1517 167.863C38.1517 168.513 37.6575 169.083 36.763 169.083H35.3382Z" fill="#3C3A3E"/>
<path d="M42.1825 170.291C43.0518 170.291 43.5712 169.883 43.8092 169.418H43.8525V170.179H45.1077V166.471C45.1077 165.007 43.9138 164.567 42.857 164.567C41.6919 164.567 40.7974 165.086 40.5088 166.096L41.728 166.269C41.8578 165.89 42.2258 165.566 42.8642 165.566C43.4702 165.566 43.802 165.876 43.802 166.421V166.442C43.802 166.817 43.4089 166.835 42.4314 166.94C41.3565 167.055 40.3285 167.376 40.3285 168.625C40.3285 169.714 41.1256 170.291 42.1825 170.291ZM42.5215 169.331C41.9769 169.331 41.5873 169.083 41.5873 168.603C41.5873 168.101 42.0238 167.892 42.6081 167.809C42.9508 167.762 43.6361 167.676 43.8056 167.539V168.192C43.8056 168.808 43.3079 169.331 42.5215 169.331Z" fill="#3C3A3E"/>
<path d="M46.0384 170.179H46.4423C47.6326 170.179 48.1701 169.342 48.2567 167.496L48.3432 165.71H49.9339V170.179H51.1964V164.639H47.1565L47.0591 167.092C46.9978 168.646 46.7958 169.104 46.2223 169.104H46.0311L46.0384 170.179Z" fill="#3C3A3E"/>
<path d="M54.1054 170.291C54.9747 170.291 55.4941 169.883 55.7322 169.418H55.7754V170.179H57.0307V166.471C57.0307 165.007 55.8368 164.567 54.7799 164.567C53.6148 164.567 52.7203 165.086 52.4318 166.096L53.6509 166.269C53.7808 165.89 54.1487 165.566 54.7871 165.566C55.3931 165.566 55.7249 165.876 55.7249 166.421V166.442C55.7249 166.817 55.3318 166.835 54.3543 166.94C53.2794 167.055 52.2514 167.376 52.2514 168.625C52.2514 169.714 53.0485 170.291 54.1054 170.291ZM54.4445 169.331C53.8998 169.331 53.5102 169.083 53.5102 168.603C53.5102 168.101 53.9467 167.892 54.531 167.809C54.8737 167.762 55.559 167.676 55.7285 167.539V168.192C55.7285 168.808 55.2308 169.331 54.4445 169.331Z" fill="#3C3A3E"/>
<path d="M59.6025 164.639H58.3436V170.179H59.6025V167.939H61.7486V170.179H63.0039V164.639H61.7486V166.868H59.6025V164.639Z" fill="#3C3A3E"/>
<path d="M66.7416 170.287C68.1339 170.287 69.0212 169.461 69.115 168.285H67.867C67.7552 168.881 67.3259 169.223 66.7524 169.223C65.9373 169.223 65.4106 168.542 65.4106 167.409C65.4106 166.291 65.9481 165.62 66.7524 165.62C67.3801 165.62 67.766 166.024 67.867 166.558H69.115C69.0248 165.357 68.087 164.567 66.7344 164.567C65.1112 164.567 64.0869 165.739 64.0869 167.431C64.0869 169.108 65.086 170.287 66.7416 170.287Z" fill="#3C3A3E"/>
<rect x="34" y="176.952" width="90.5693" height="3.38577" rx="1.69288" fill="#E6E6E6"/>
<path d="M142.812 164.254C142.812 162.852 143.949 161.715 145.352 161.715H216.453C217.855 161.715 218.992 162.852 218.992 164.254V178.644C218.992 180.046 217.855 181.183 216.453 181.183H145.352C143.949 181.183 142.812 180.046 142.812 178.644V164.254Z" fill="#F4774C"/>
<path d="M157.919 173.378H158.728V171.749H160.357V170.94H158.728V169.314H157.919V170.94H156.293V171.749H157.919V173.378Z" fill="white"/>
<path d="M166.632 168.256H161.882V174.412H162.808V169.049H165.706V174.412H166.632V168.256Z" fill="white"/>
<path d="M169.924 174.505C171.226 174.505 172.077 173.552 172.077 172.124C172.077 170.688 171.226 169.735 169.924 169.735C168.623 169.735 167.772 170.688 167.772 172.124C167.772 173.552 168.623 174.505 169.924 174.505ZM169.927 173.751C169.077 173.751 168.68 173.008 168.68 172.121C168.68 171.238 169.077 170.486 169.927 170.486C170.772 170.486 171.169 171.238 171.169 172.121C171.169 173.008 170.772 173.751 169.927 173.751Z" fill="white"/>
<path d="M173.08 174.412H173.954V170.57H175.965V174.412H176.846V169.795H173.08V174.412Z" fill="white"/>
<path d="M179.992 174.505C181.294 174.505 182.145 173.552 182.145 172.124C182.145 170.688 181.294 169.735 179.992 169.735C178.691 169.735 177.84 170.688 177.84 172.124C177.84 173.552 178.691 174.505 179.992 174.505ZM179.995 173.751C179.145 173.751 178.748 173.008 178.748 172.121C178.748 171.238 179.145 170.486 179.995 170.486C180.84 170.486 181.237 171.238 181.237 172.121C181.237 173.008 180.84 173.751 179.995 173.751Z" fill="white"/>
<path d="M182.784 174.412H183.073C184.08 174.412 184.449 173.666 184.521 172.139L184.594 170.57H186.103V174.412H186.983V169.795H183.761L183.68 171.839C183.623 173.264 183.46 173.633 182.946 173.633H182.781L182.784 174.412Z" fill="white"/>
<path d="M189.063 169.795H188.182V174.412H189.063V172.494H191.061V174.412H191.939V169.795H191.061V171.716H189.063V169.795Z" fill="white"/>
<path d="M194.022 173.152V169.795H193.141V174.412H194.118L196.144 171.051V174.412H197.025V169.795H196.057L194.022 173.152Z" fill="white"/>
<path d="M197.661 170.57H199.173V174.412H200.05V170.57H201.556V169.795H197.661V170.57Z" fill="white"/>
<path d="M203.388 171.382V169.795H202.507V174.412H204.524C205.654 174.412 206.285 173.757 206.285 172.888C206.285 172.001 205.654 171.382 204.524 171.382H203.388ZM203.388 172.157H204.524C205.041 172.157 205.41 172.47 205.41 172.915C205.41 173.336 205.041 173.636 204.524 173.636H203.388V172.157Z" fill="white"/>
</g>
<defs>
<filter id="filter0_d_1059_6833" x="85" y="0" width="415" height="265" filterUnits="userSpaceOnUse" color-interpolation-filters="sRGB">
<feFlood flood-opacity="0" result="BackgroundImageFix"/>
<feColorMatrix in="SourceAlpha" type="matrix" values="0 0 0 0 0 0 0 0 0 0 0 0 0 0 0 0 0 0 127 0" result="hardAlpha"/>
<feOffset/>
<feGaussianBlur stdDeviation="12.5"/>
<feComposite in2="hardAlpha" operator="out"/>
<feColorMatrix type="matrix" values="0 0 0 0 0 0 0 0 0 0 0 0 0 0 0 0 0 0 0.15 0"/>
<feBlend mode="normal" in2="BackgroundImageFix" result="effect1_dropShadow_1059_6833"/>
<feBlend mode="normal" in="SourceGraphic" in2="effect1_dropShadow_1059_6833" result="shape"/>
</filter>
<filter id="filter1_d_1059_6833" x="-10" y="183" width="281" height="142" filterUnits="userSpaceOnUse" color-interpolation-filters="sRGB">
<feFlood flood-opacity="0" result="BackgroundImageFix"/>
<feColorMatrix in="SourceAlpha" type="matrix" values="0 0 0 0 0 0 0 0 0 0 0 0 0 0 0 0 0 0 127 0" result="hardAlpha"/>
<feOffset/>
<feGaussianBlur stdDeviation="12.5"/>
<feComposite in2="hardAlpha" operator="out"/>
<feColorMatrix type="matrix" values="0 0 0 0 0 0 0 0 0 0 0 0 0 0 0 0 0 0 0.15 0"/>
<feBlend mode="normal" in2="BackgroundImageFix" result="effect1_dropShadow_1059_6833"/>
<feBlend mode="normal" in="SourceGraphic" in2="effect1_dropShadow_1059_6833" result="shape"/>
</filter>
<filter id="filter2_d_1059_6833" x="-10" y="61" width="281" height="102" filterUnits="userSpaceOnUse" color-interpolation-filters="sRGB">
<feFlood flood-opacity="0" result="BackgroundImageFix"/>
<feColorMatrix in="SourceAlpha" type="matrix" values="0 0 0 0 0 0 0 0 0 0 0 0 0 0 0 0 0 0 127 0" result="hardAlpha"/>
<feOffset/>
<feGaussianBlur stdDeviation="12.5"/>
<feComposite in2="hardAlpha" operator="out"/>
<feColorMatrix type="matrix" values="0 0 0 0 0 0 0 0 0 0 0 0 0 0 0 0 0 0 0.15 0"/>
<feBlend mode="normal" in2="BackgroundImageFix" result="effect1_dropShadow_1059_6833"/>
<feBlend mode="normal" in="SourceGraphic" in2="effect1_dropShadow_1059_6833" result="shape"/>
</filter>
<filter id="filter3_d_1059_6833" x="-10" y="122" width="281" height="102" filterUnits="userSpaceOnUse" color-interpolation-filters="sRGB">
<feFlood flood-opacity="0" result="BackgroundImageFix"/>
<feColorMatrix in="SourceAlpha" type="matrix" values="0 0 0 0 0 0 0 0 0 0 0 0 0 0 0 0 0 0 127 0" result="hardAlpha"/>
<feOffset/>
<feGaussianBlur stdDeviation="12.5"/>
<feComposite in2="hardAlpha" operator="out"/>
<feColorMatrix type="matrix" values="0 0 0 0 0 0 0 0 0 0 0 0 0 0 0 0 0 0 0.15 0"/>
<feBlend mode="normal" in2="BackgroundImageFix" result="effect1_dropShadow_1059_6833"/>
<feBlend mode="normal" in="SourceGraphic" in2="effect1_dropShadow_1059_6833" result="shape"/>
</filter>
<clipPath id="clip0_1059_6833">
<rect width="502" height="325" fill="white"/>
</clipPath>
</defs>
</svg>
