<svg width="629" height="355" viewBox="0 0 629 355" fill="none" xmlns="http://www.w3.org/2000/svg">
<g filter="url(#filter0_d_1059_6583)">
<rect x="36" y="51" width="430" height="254" rx="4" fill="white"/>
</g>
<path d="M36 55C36 52.7909 37.7909 51 40 51H462C464.209 51 466 52.7909 466 55V85H36V55Z" fill="#3C3A3E"/>
<path d="M36 85H142V305H40C37.7909 305 36 303.209 36 301V85Z" fill="#EDEDED"/>
<path fill-rule="evenodd" clip-rule="evenodd" d="M142 167.5V245V245.5L142 274H140V245.5L36 245.5V245L140 245L140 167.5L36 167.5V167L140 167V85H142V167V167.5ZM46 107C46 105.895 46.8954 105 48 105H124C125.105 105 126 105.895 126 107C126 108.105 125.105 109 124 109H48C46.8954 109 46 108.105 46 107ZM48 183C46.8954 183 46 183.895 46 185C46 186.105 46.8954 187 48 187H124C125.105 187 126 186.105 126 185C126 183.895 125.105 183 124 183H48ZM46 121C46 119.895 46.8954 119 48 119H104C105.105 119 106 119.895 106 121C106 122.105 105.105 123 104 123H48C46.8954 123 46 122.105 46 121ZM48 197C46.8954 197 46 197.895 46 199C46 200.105 46.8954 201 48 201H104C105.105 201 106 200.105 106 199C106 197.895 105.105 197 104 197H48ZM46 135C46 133.895 46.8954 133 48 133H113C114.105 133 115 133.895 115 135C115 136.105 114.105 137 113 137H48C46.8954 137 46 136.105 46 135ZM48 211C46.8954 211 46 211.895 46 213C46 214.105 46.8954 215 48 215H113C114.105 215 115 214.105 115 213C115 211.895 114.105 211 113 211H48ZM46 149C46 147.895 46.8954 147 48 147H91C92.1046 147 93 147.895 93 149C93 150.105 92.1046 151 91 151H48C46.8954 151 46 150.105 46 149ZM48 225C46.8954 225 46 225.895 46 227C46 228.105 46.8954 229 48 229H91C92.1046 229 93 228.105 93 227C93 225.895 92.1046 225 91 225H48ZM46 263C46 261.895 46.8954 261 48 261H104C105.105 261 106 261.895 106 263C106 264.105 105.105 265 104 265H48C46.8954 265 46 264.105 46 263ZM142 281L36 281V281.5L142 281.5V281Z" fill="#CBCBCB"/>
<path d="M172.478 106.598H175.175V114H176.743V106.598H179.441V105.273H172.478V106.598Z" fill="#3C3A3E"/>
<path d="M182.663 114.128C184.189 114.128 185.237 113.382 185.51 112.244L184.07 112.082C183.861 112.636 183.349 112.926 182.685 112.926C181.687 112.926 181.027 112.27 181.014 111.149H185.574V110.676C185.574 108.379 184.193 107.369 182.582 107.369C180.707 107.369 179.484 108.746 179.484 110.766C179.484 112.82 180.69 114.128 182.663 114.128ZM181.018 110.109C181.065 109.274 181.683 108.571 182.604 108.571C183.49 108.571 184.087 109.219 184.095 110.109H181.018Z" fill="#3C3A3E"/>
<path d="M188.011 107.455H186.375L188.318 110.727L186.324 114H187.96L189.332 111.643L190.717 114H192.341L190.334 110.727L192.307 107.455H190.675L189.332 109.871L188.011 107.455Z" fill="#3C3A3E"/>
<path d="M193.5 114H194.974V108.72H197.54V114H199.027V107.455H193.5V114Z" fill="#3C3A3E"/>
<path d="M203.468 114.128C205.386 114.128 206.605 112.777 206.605 110.753C206.605 108.724 205.386 107.369 203.468 107.369C201.551 107.369 200.332 108.724 200.332 110.753C200.332 112.777 201.551 114.128 203.468 114.128ZM203.477 112.892C202.416 112.892 201.896 111.946 201.896 110.749C201.896 109.551 202.416 108.592 203.477 108.592C204.521 108.592 205.041 109.551 205.041 110.749C205.041 111.946 204.521 112.892 203.477 112.892Z" fill="#3C3A3E"/>
<path d="M207.334 115.901H208.851V114H213.134V115.901H214.626V112.73H213.611V107.455H208.881L208.694 109.747C208.57 111.213 208.408 112.3 207.854 112.73H207.334V115.901ZM209.44 112.73C209.853 112.121 210.006 111.132 210.117 109.747L210.219 108.699H212.137V112.73H209.44Z" fill="#3C3A3E"/>
<path d="M215.198 115.901H216.715V114H220.997V115.901H222.489V112.73H221.475V107.455H216.745L216.557 109.747C216.434 111.213 216.272 112.3 215.718 112.73H215.198V115.901ZM217.303 112.73C217.716 112.121 217.87 111.132 217.98 109.747L218.083 108.699H220V112.73H217.303Z" fill="#3C3A3E"/>
<path d="M226.538 114.128C228.064 114.128 229.112 113.382 229.385 112.244L227.945 112.082C227.736 112.636 227.224 112.926 226.56 112.926C225.562 112.926 224.902 112.27 224.889 111.149H229.449V110.676C229.449 108.379 228.068 107.369 226.457 107.369C224.582 107.369 223.359 108.746 223.359 110.766C223.359 112.82 224.565 114.128 226.538 114.128ZM224.893 110.109C224.94 109.274 225.558 108.571 226.479 108.571C227.365 108.571 227.962 109.219 227.97 110.109H224.893Z" fill="#3C3A3E"/>
<path d="M230.754 116.455H232.296V112.969H232.36C232.603 113.446 233.11 114.115 234.235 114.115C235.778 114.115 236.933 112.892 236.933 110.736C236.933 108.554 235.744 107.369 234.231 107.369C233.076 107.369 232.595 108.064 232.36 108.537H232.271V107.455H230.754V116.455ZM232.267 110.727C232.267 109.457 232.812 108.635 233.805 108.635C234.832 108.635 235.36 109.509 235.36 110.727C235.36 111.955 234.823 112.849 233.805 112.849C232.821 112.849 232.267 111.997 232.267 110.727Z" fill="#3C3A3E"/>
<path d="M237.582 114H239.401L241.272 111.358H241.613V114H243.155V111.358H243.496L245.359 114H247.178L244.775 110.621L247.157 107.455H245.376L243.513 110.092H243.155V107.455H241.613V110.092H241.246L239.384 107.455H237.603L239.998 110.621L237.582 114Z" fill="#3C3A3E"/>
<path d="M248.332 114H249.875V111.533H250.629L252.423 114H254.289L251.839 110.668L254.264 107.455H252.406L250.437 110.097H249.875V107.455H248.332V114Z" fill="#3C3A3E"/>
<path d="M257.047 114.132C258.074 114.132 258.688 113.651 258.969 113.101H259.021V114H260.503V109.619C260.503 107.889 259.093 107.369 257.844 107.369C256.468 107.369 255.411 107.983 255.07 109.176L256.511 109.381C256.664 108.933 257.099 108.55 257.853 108.55C258.569 108.55 258.961 108.916 258.961 109.56V109.585C258.961 110.028 258.496 110.05 257.342 110.173C256.072 110.31 254.857 110.689 254.857 112.163C254.857 113.45 255.799 114.132 257.047 114.132ZM257.448 112.999C256.805 112.999 256.344 112.705 256.344 112.138C256.344 111.545 256.86 111.298 257.55 111.2C257.955 111.145 258.765 111.043 258.965 110.881V111.652C258.965 112.381 258.377 112.999 257.448 112.999Z" fill="#3C3A3E"/>
<path d="M172.957 169.07H173.32C174.135 169.07 174.436 168.597 174.677 168.06L176.432 163.909H175.483L174.387 166.634L173.119 163.909H172.154L173.974 167.653L173.907 167.824C173.802 168.11 173.643 168.294 173.248 168.294H172.957V169.07Z" fill="#3C3A3E"/>
<path d="M176.769 169H178.619C179.513 169 180.026 168.595 180.026 167.964C180.026 167.429 179.61 167.056 179.011 167.004C179.521 166.91 179.839 166.639 179.839 166.209C179.839 165.565 179.275 165.182 178.373 165.182H176.769V169ZM177.612 168.292V167.345H178.619C178.949 167.345 179.151 167.536 179.151 167.852C179.151 168.125 178.949 168.292 178.619 168.292H177.612ZM177.612 166.763V165.903H178.373C178.748 165.903 178.977 166.062 178.977 166.323C178.977 166.596 178.755 166.763 178.39 166.763H177.612Z" fill="#3C3A3E"/>
<path d="M182.459 169.075C183.348 169.075 183.96 168.64 184.119 167.976L183.279 167.881C183.157 168.205 182.859 168.374 182.471 168.374C181.889 168.374 181.504 167.991 181.497 167.337H184.156V167.061C184.156 165.721 183.351 165.132 182.411 165.132C181.318 165.132 180.604 165.935 180.604 167.113C180.604 168.312 181.308 169.075 182.459 169.075ZM181.499 166.731C181.526 166.243 181.887 165.833 182.424 165.833C182.941 165.833 183.289 166.211 183.294 166.731H181.499Z" fill="#3C3A3E"/>
<path d="M184.58 170.109H185.464V169H187.963V170.109H188.833V168.259H188.241V165.182H185.482L185.373 166.519C185.3 167.374 185.206 168.008 184.883 168.259H184.58V170.109ZM185.808 168.259C186.049 167.904 186.138 167.327 186.203 166.519L186.262 165.908H187.381V168.259H185.808Z" fill="#3C3A3E"/>
<path d="M191.17 169.075C192.289 169.075 193 168.287 193 167.106C193 165.923 192.289 165.132 191.17 165.132C190.051 165.132 189.34 165.923 189.34 167.106C189.34 168.287 190.051 169.075 191.17 169.075ZM191.175 168.354C190.556 168.354 190.253 167.802 190.253 167.103C190.253 166.405 190.556 165.846 191.175 165.846C191.784 165.846 192.087 166.405 192.087 167.103C192.087 167.802 191.784 168.354 191.175 168.354Z" fill="#3C3A3E"/>
<path d="M195.961 167.954L194.857 165.182H193.763V169H194.631V166.427L195.648 169H196.276L197.328 166.4V169H198.188V165.182H197.094L195.961 167.954Z" fill="#3C3A3E"/>
<path d="M198.832 169H199.11C199.931 169 200.301 168.423 200.361 167.151L200.42 165.92H201.517V169H202.387V165.182H199.602L199.535 166.872C199.493 167.944 199.354 168.259 198.959 168.259H198.827L198.832 169Z" fill="#3C3A3E"/>
<path d="M204.983 169.075C205.873 169.075 206.484 168.64 206.643 167.976L205.803 167.881C205.681 168.205 205.383 168.374 204.995 168.374C204.414 168.374 204.028 167.991 204.021 167.337H206.681V167.061C206.681 165.721 205.875 165.132 204.936 165.132C203.842 165.132 203.129 165.935 203.129 167.113C203.129 168.312 203.832 169.075 204.983 169.075ZM204.023 166.731C204.051 166.243 204.411 165.833 204.948 165.833C205.465 165.833 205.813 166.211 205.818 166.731H204.023Z" fill="#3C3A3E"/>
<path d="M208.31 165.182H207.442V169H208.31V167.456H209.789V169H210.654V165.182H209.789V166.718H208.31V165.182Z" fill="#3C3A3E"/>
<path d="M212.432 167.782V165.182H211.564V169H212.491L214.015 166.397V169H214.885V165.182H213.96L212.432 167.782Z" fill="#3C3A3E"/>
<path d="M218.066 169H218.909V165.182H217.251C216.316 165.182 215.737 165.662 215.74 166.395C215.737 166.877 216.001 167.243 216.456 167.429L215.6 169H216.485L217.268 167.563H218.066V169ZM218.066 166.907H217.221C216.826 166.907 216.607 166.701 216.61 166.415C216.607 166.129 216.838 165.913 217.251 165.913H218.066V166.907Z" fill="#3C3A3E"/>
<path fill-rule="evenodd" clip-rule="evenodd" d="M172 124H436V123H172V124ZM174 141C172.895 141 172 141.895 172 143C172 144.105 172.895 145 174 145H252C253.105 145 254 144.105 254 143C254 141.895 253.105 141 252 141H174ZM174 189C172.895 189 172 189.895 172 191C172 192.105 172.895 193 174 193H252C253.105 193 254 192.105 254 191C254 189.895 253.105 189 252 189H174ZM172 215C172 213.895 172.895 213 174 213H252C253.105 213 254 213.895 254 215C254 216.105 253.105 217 252 217H174C172.895 217 172 216.105 172 215ZM270 165C268.895 165 268 165.895 268 167C268 168.105 268.895 169 270 169H299C300.105 169 301 168.105 301 167C301 165.895 300.105 165 299 165H270ZM230 167C230 165.895 230.895 165 232 165H256C257.105 165 258 165.895 258 167C258 168.105 257.105 169 256 169H232C230.895 169 230 168.105 230 167ZM270 189C268.895 189 268 189.895 268 191C268 192.105 268.895 193 270 193H299C300.105 193 301 192.105 301 191C301 189.895 300.105 189 299 189H270ZM268 215C268 213.895 268.895 213 270 213H299C300.105 213 301 213.895 301 215C301 216.105 300.105 217 299 217H270C268.895 217 268 216.105 268 215ZM270 141C268.895 141 268 141.895 268 143C268 144.105 268.895 145 270 145H434C435.105 145 436 144.105 436 143C436 141.895 435.105 141 434 141H270ZM311 167C311 165.895 311.895 165 313 165H434C435.105 165 436 165.895 436 167C436 168.105 435.105 169 434 169H313C311.895 169 311 168.105 311 167ZM313 189C311.895 189 311 189.895 311 191C311 192.105 311.895 193 313 193H434C435.105 193 436 192.105 436 191C436 189.895 435.105 189 434 189H313ZM311 215C311 213.895 311.895 213 313 213H434C435.105 213 436 213.895 436 215C436 216.105 435.105 217 434 217H313C311.895 217 311 216.105 311 215ZM436 155H172V154.5H436V155ZM172 179H436V178.5H172V179ZM436 203H172V202.5H436V203ZM172 227H436V226.5H172V227Z" fill="#E6E6E6"/>
<path fill-rule="evenodd" clip-rule="evenodd" d="M61.2968 70.7082C61.2968 73.1945 59.8548 74.4391 56.9709 74.4418H51C51 72.0479 54.6847 72.0584 56.2746 72.0629C56.3396 72.0631 56.4012 72.0633 56.4588 72.0633C57.6511 72.0633 58.246 71.5239 58.2435 70.4452C58.2435 69.3612 57.6499 68.8272 56.4588 68.8272H53.0912V66.473H56.4316C57.6227 66.473 58.2124 65.9512 58.2124 64.9156C58.2124 63.8801 57.6149 63.3785 56.4316 63.3785C56.2422 63.3785 56.0276 63.3841 55.7957 63.3902L55.7956 63.3902C53.9467 63.4387 51 63.516 51 61H56.4976C58.0805 61 59.1836 61.2036 59.807 61.6108C60.2754 61.9132 60.6574 62.341 60.9133 62.8497C61.1692 63.3584 61.2896 63.9293 61.2619 64.503C61.2859 65.1828 61.1139 65.8545 60.7681 66.4314C60.4223 67.0082 59.9186 67.4637 59.322 67.7391C60.6334 68.3216 61.2877 69.3194 61.2852 70.7324L61.2968 70.7082ZM100.342 64.6608C101.478 64.8693 102.502 65.5032 103.222 66.4433C103.941 67.3835 104.306 68.5651 104.249 69.7662C104.192 70.9674 103.716 72.1054 102.91 72.9664C102.105 73.8274 101.026 74.3522 99.8756 74.4421C98.7253 74.5321 97.5832 74.181 96.6637 73.4549C95.7442 72.7287 95.1107 71.6775 94.8821 70.4987C94.6536 69.3199 94.8458 68.0947 95.4226 67.0532C95.9994 66.0117 96.9211 65.2257 98.0146 64.8428C98.7639 64.5809 99.5641 64.5184 100.342 64.6608ZM72.1058 71.6951C72.1058 73.5397 70.9108 74.4606 68.5209 74.4579H62.7323V64.6122H68.164C69.452 64.6122 70.356 64.77 70.8798 65.0774C71.2624 65.2841 71.5808 65.6 71.7979 65.9881C72.0149 66.3763 72.1217 66.8208 72.1058 67.2698C72.1126 67.7333 71.992 68.1891 71.7583 68.5833C71.5245 68.9776 71.1873 69.2938 70.7867 69.4946C71.1965 69.6737 71.5438 69.9795 71.7818 70.3708C72.0197 70.7621 72.1369 71.2201 72.1174 71.683L72.1058 71.6951ZM69.4365 67.5611C69.4365 66.9422 69.0214 66.6307 68.1872 66.6307H65.227V68.5198H68.1872C69.0214 68.5198 69.4365 68.2002 69.4365 67.5611ZM69.4365 71.4808C69.4365 70.8376 69.0253 70.518 68.2028 70.518H65.227V72.4435H68.2222C69.0447 72.4435 69.4559 72.1199 69.4559 71.4808H69.4365ZM93.6771 74.4579H91.194V70.5544H87.6092V74.4579H85.1184V64.6122H87.6092V68.3863H91.194V64.6122H93.6771V74.4579ZM114.992 74.4579H111.64L107.823 69.6807V74.4579H105.332V64.6122H107.823V69.3409L111.838 64.6122H115.016L110.628 69.4299L115.016 74.4579H114.992ZM100.211 66.9179C99.8702 66.8061 99.5115 66.7686 99.1568 66.8076C98.802 66.8466 98.4587 66.9614 98.1483 67.1447C97.8378 67.3281 97.5669 67.576 97.3524 67.8733C97.1379 68.1705 96.9844 68.5105 96.9014 68.8723C96.8184 69.2341 96.8077 69.6098 96.8699 69.976C96.9322 70.3423 97.0662 70.6912 97.2634 71.0012C97.4606 71.3111 97.7169 71.5754 98.0164 71.7776C98.3158 71.9798 98.652 72.1156 99.0039 72.1765C99.3891 72.2571 99.7867 72.2475 100.168 72.1482C100.724 72.0019 101.217 71.6682 101.572 71.199C101.927 70.7299 102.124 70.1515 102.131 69.5539C102.138 68.9563 101.955 68.373 101.612 67.8949C101.268 67.4167 100.782 67.0704 100.23 66.9098L100.211 66.9179ZM79.7566 66.7682C80.3459 67.0674 80.8206 67.566 81.1031 68.1827C81.3856 68.7994 81.4593 69.4978 81.312 70.1637C81.1648 70.8297 80.8054 71.4239 80.2925 71.8495C79.7795 72.275 79.1434 72.5067 78.4879 72.5067C77.8324 72.5067 77.1963 72.275 76.6834 71.8495C76.1705 71.4239 75.8111 70.8297 75.6638 70.1637C75.5166 69.4978 75.5902 68.7994 75.8727 68.1827C76.1552 67.566 76.6299 67.0674 77.2192 66.7682V64.1349C75.9652 64.458 74.8679 65.2486 74.1345 66.3574C73.4012 67.4662 73.0825 68.8166 73.2386 70.1536C73.3947 71.4906 74.0148 72.7217 74.9819 73.6147C75.949 74.5077 77.1961 75.0007 78.4879 75.0007C79.7797 75.0007 81.0269 74.5077 81.994 73.6147C82.961 72.7217 83.5811 71.4906 83.7372 70.1536C83.8933 68.8166 83.5746 67.4662 82.8413 66.3574C82.108 65.2486 81.0107 64.458 79.7566 64.1349V66.7682ZM77.6042 70.9019C77.9735 71.1544 78.4236 71.2447 78.8564 71.1532C79.1835 71.0895 79.4849 70.9258 79.7224 70.683C79.9599 70.4401 80.1227 70.1291 80.1901 69.7894C80.2575 69.4498 80.2265 69.0969 80.1009 68.7757C79.9753 68.4545 79.7609 68.1796 79.485 67.9859C79.3176 67.8677 79.1309 67.7827 78.934 67.7351V63.9651H78.1581V67.7351C77.727 67.8354 77.3514 68.1091 77.1128 68.4966C76.8742 68.8842 76.792 69.3542 76.884 69.8046C76.976 70.255 77.2348 70.6494 77.6042 70.9019Z" fill="white"/>
<g filter="url(#filter1_d_1059_6583)">
<path fill-rule="evenodd" clip-rule="evenodd" d="M307 138C302.029 138 298 142.029 298 147V175C298 179.971 302.029 184 307 184H564C566.643 184 569.021 182.86 570.667 181.046C574.428 182.306 578.955 182.917 584 181.999C581.751 181.035 573.305 175.424 573 164.269V163.02C573 163.013 573 163.006 573.001 163C573 163 573 163 573 163V147C573 142.029 568.971 138 564 138H307Z" fill="white"/>
</g>
<path fill-rule="evenodd" clip-rule="evenodd" d="M321 154C321 152.895 321.895 152 323 152H380C381.105 152 382 152.895 382 154C382 155.105 381.105 156 380 156H323C321.895 156 321 155.105 321 154ZM321 168C321 166.895 321.895 166 323 166H505C506.105 166 507 166.895 507 168C507 169.105 506.105 170 505 170H323C321.895 170 321 169.105 321 168ZM394 152C392.895 152 392 152.895 392 154C392 155.105 392.895 156 394 156H505C506.105 156 507 155.105 507 154C507 152.895 506.105 152 505 152H394Z" fill="#E6E6E6"/>
<circle cx="536.5" cy="160.5" r="13.5" fill="#F4774C"/>
<g filter="url(#filter2_d_1059_6583)">
<path fill-rule="evenodd" clip-rule="evenodd" d="M483 203C487.971 203 492 207.029 492 212V240C492 244.971 487.971 249 483 249H226C223.357 249 220.979 247.86 219.333 246.046C215.572 247.306 211.045 247.917 206 246.999C208.249 246.035 216.695 240.424 217 229.269V228.02C217 228.013 217 228.006 216.999 228C217 228 217 228 217 228V212C217 207.029 221.029 203 226 203H483Z" fill="#D6D6D6"/>
</g>
<path fill-rule="evenodd" clip-rule="evenodd" d="M469 219C469 217.895 468.105 217 467 217H410C408.895 217 408 217.895 408 219C408 220.105 408.895 221 410 221H467C468.105 221 469 220.105 469 219ZM469 233C469 231.895 468.105 231 467 231H285C283.895 231 283 231.895 283 233C283 234.105 283.895 235 285 235H467C468.105 235 469 234.105 469 233ZM396 217C397.105 217 398 217.895 398 219C398 220.105 397.105 221 396 221H285C283.895 221 283 220.105 283 219C283 217.895 283.895 217 285 217H396Z" fill="white"/>
<circle r="13.5" transform="matrix(-1 0 0 1 253.5 225.5)" fill="#F4774C"/>
<g filter="url(#filter3_d_1059_6583)">
<path fill-rule="evenodd" clip-rule="evenodd" d="M307 268C302.029 268 298 272.029 298 277V305C298 309.971 302.029 314 307 314H564C566.643 314 569.021 312.86 570.667 311.046C574.428 312.306 578.955 312.917 584 311.999C581.751 311.035 573.305 305.424 573 294.269V293.02C573 293.013 573 293.006 573.001 293C573 293 573 293 573 293V277C573 272.029 568.971 268 564 268H307Z" fill="white"/>
</g>
<path fill-rule="evenodd" clip-rule="evenodd" d="M323 288C321.895 288 321 288.895 321 290C321 291.105 321.895 292 323 292H348C349.105 292 350 291.105 350 290C350 288.895 349.105 288 348 288H323ZM369 288C367.895 288 367 288.895 367 290C367 291.105 367.895 292 369 292H505C506.105 292 507 291.105 507 290C507 288.895 506.105 288 505 288H369Z" fill="#E6E6E6"/>
<circle cx="536.5" cy="290.5" r="13.5" fill="#F4774C"/>
<defs>
<filter id="filter0_d_1059_6583" x="11" y="26" width="480" height="304" filterUnits="userSpaceOnUse" color-interpolation-filters="sRGB">
<feFlood flood-opacity="0" result="BackgroundImageFix"/>
<feColorMatrix in="SourceAlpha" type="matrix" values="0 0 0 0 0 0 0 0 0 0 0 0 0 0 0 0 0 0 127 0" result="hardAlpha"/>
<feOffset/>
<feGaussianBlur stdDeviation="12.5"/>
<feComposite in2="hardAlpha" operator="out"/>
<feColorMatrix type="matrix" values="0 0 0 0 0 0 0 0 0 0 0 0 0 0 0 0 0 0 0.15 0"/>
<feBlend mode="normal" in2="BackgroundImageFix" result="effect1_dropShadow_1059_6583"/>
<feBlend mode="normal" in="SourceGraphic" in2="effect1_dropShadow_1059_6583" result="shape"/>
</filter>
<filter id="filter1_d_1059_6583" x="273" y="113" width="336" height="96" filterUnits="userSpaceOnUse" color-interpolation-filters="sRGB">
<feFlood flood-opacity="0" result="BackgroundImageFix"/>
<feColorMatrix in="SourceAlpha" type="matrix" values="0 0 0 0 0 0 0 0 0 0 0 0 0 0 0 0 0 0 127 0" result="hardAlpha"/>
<feOffset/>
<feGaussianBlur stdDeviation="12.5"/>
<feComposite in2="hardAlpha" operator="out"/>
<feColorMatrix type="matrix" values="0 0 0 0 0 0 0 0 0 0 0 0 0 0 0 0 0 0 0.15 0"/>
<feBlend mode="normal" in2="BackgroundImageFix" result="effect1_dropShadow_1059_6583"/>
<feBlend mode="normal" in="SourceGraphic" in2="effect1_dropShadow_1059_6583" result="shape"/>
</filter>
<filter id="filter2_d_1059_6583" x="181" y="178" width="336" height="96" filterUnits="userSpaceOnUse" color-interpolation-filters="sRGB">
<feFlood flood-opacity="0" result="BackgroundImageFix"/>
<feColorMatrix in="SourceAlpha" type="matrix" values="0 0 0 0 0 0 0 0 0 0 0 0 0 0 0 0 0 0 127 0" result="hardAlpha"/>
<feOffset/>
<feGaussianBlur stdDeviation="12.5"/>
<feComposite in2="hardAlpha" operator="out"/>
<feColorMatrix type="matrix" values="0 0 0 0 0 0 0 0 0 0 0 0 0 0 0 0 0 0 0.15 0"/>
<feBlend mode="normal" in2="BackgroundImageFix" result="effect1_dropShadow_1059_6583"/>
<feBlend mode="normal" in="SourceGraphic" in2="effect1_dropShadow_1059_6583" result="shape"/>
</filter>
<filter id="filter3_d_1059_6583" x="273" y="243" width="336" height="96" filterUnits="userSpaceOnUse" color-interpolation-filters="sRGB">
<feFlood flood-opacity="0" result="BackgroundImageFix"/>
<feColorMatrix in="SourceAlpha" type="matrix" values="0 0 0 0 0 0 0 0 0 0 0 0 0 0 0 0 0 0 127 0" result="hardAlpha"/>
<feOffset/>
<feGaussianBlur stdDeviation="12.5"/>
<feComposite in2="hardAlpha" operator="out"/>
<feColorMatrix type="matrix" values="0 0 0 0 0 0 0 0 0 0 0 0 0 0 0 0 0 0 0.15 0"/>
<feBlend mode="normal" in2="BackgroundImageFix" result="effect1_dropShadow_1059_6583"/>
<feBlend mode="normal" in="SourceGraphic" in2="effect1_dropShadow_1059_6583" result="shape"/>
</filter>
</defs>
</svg>
