<svg width="629" height="355" viewBox="0 0 629 355" fill="none" xmlns="http://www.w3.org/2000/svg">
<rect width="629" height="355" fill="#F5F5F5"/>
<rect x="36" y="51" width="430" height="254" rx="2" fill="white"/>
<path d="M36 55C36 52.7909 37.7909 51 40 51H462C464.209 51 466 52.7909 466 55V85H36V55Z" fill="#3C3A3E"/>
<path d="M36 85H142V305H40C37.7909 305 36 303.209 36 301V85Z" fill="#EDEDED"/>
<rect x="142" y="85" width="189" height="1.99999" transform="rotate(90 142 85)" fill="#CBCBCB"/>
<path fill-rule="evenodd" clip-rule="evenodd" d="M46 107C46 105.895 46.8954 105 48 105H124C125.105 105 126 105.895 126 107C126 108.105 125.105 109 124 109H48C46.8954 109 46 108.105 46 107ZM46 185C46 183.895 46.8954 183 48 183H124C125.105 183 126 183.895 126 185C126 186.105 125.105 187 124 187H48C46.8954 187 46 186.105 46 185ZM48 119C46.8954 119 46 119.895 46 121C46 122.105 46.8954 123 48 123H104C105.105 123 106 122.105 106 121C106 119.895 105.105 119 104 119H48ZM46 199C46 197.895 46.8954 197 48 197H104C105.105 197 106 197.895 106 199C106 200.105 105.105 201 104 201H48C46.8954 201 46 200.105 46 199ZM48 133C46.8954 133 46 133.895 46 135C46 136.105 46.8954 137 48 137H113C114.105 137 115 136.105 115 135C115 133.895 114.105 133 113 133H48ZM46 213C46 211.895 46.8954 211 48 211H113C114.105 211 115 211.895 115 213C115 214.105 114.105 215 113 215H48C46.8954 215 46 214.105 46 213ZM48 147C46.8954 147 46 147.895 46 149C46 150.105 46.8954 151 48 151H91C92.1046 151 93 150.105 93 149C93 147.895 92.1046 147 91 147H48ZM46 227C46 225.895 46.8954 225 48 225H91C92.1046 225 93 225.895 93 227C93 228.105 92.1046 229 91 229H48C46.8954 229 46 228.105 46 227ZM48 261C46.8954 261 46 261.895 46 263C46 264.105 46.8954 265 48 265H104C105.105 265 106 264.105 106 263C106 261.895 105.105 261 104 261H48Z" fill="#CBCBCB"/>
<path fill-rule="evenodd" clip-rule="evenodd" d="M100.341 64.6606C101.477 64.8692 102.5 65.5031 103.22 66.4432C103.939 67.3833 104.304 68.565 104.247 69.7661C104.19 70.9673 103.714 72.1052 102.908 72.9663C102.103 73.8273 101.024 74.3521 99.8737 74.442C98.7235 74.5319 97.5813 74.1809 96.6618 73.4547C95.7423 72.7286 95.1088 71.6774 94.8803 70.4986C94.6517 69.3198 94.8439 68.0945 95.4207 67.0531C95.9975 66.0116 96.9193 65.2256 98.0127 64.8427C98.762 64.5808 99.5622 64.5182 100.341 64.6606ZM72.1039 71.695C72.1039 73.5396 70.9089 74.4605 68.519 74.4578H62.7305V64.6121H68.1621C69.4502 64.6121 70.3541 64.7698 70.8779 65.0773C71.2605 65.284 71.579 65.5998 71.796 65.988C72.0131 66.3762 72.1199 66.8207 72.1039 67.2697C72.1107 67.7331 71.9901 68.189 71.7564 68.5832C71.5226 68.9775 71.1855 69.2937 70.7848 69.4945C71.1946 69.6736 71.5419 69.9794 71.7799 70.3707C72.0179 70.762 72.135 71.22 72.1155 71.6829L72.1039 71.695ZM69.4346 67.5609C69.4346 66.942 69.0195 66.6306 68.1854 66.6306H65.2251V68.5196H68.1854C69.0195 68.5196 69.4346 68.2001 69.4346 67.5609ZM69.4346 71.4806C69.4346 70.8375 69.0234 70.5179 68.2009 70.5179H65.2251V72.4433H68.2203C69.0428 72.4433 69.454 72.1197 69.454 71.4806H69.4346ZM93.6752 74.4578H91.1922V70.5543H87.6073V74.4578H85.1165V64.6121H87.6073V68.3861H91.1922V64.6121H93.6752V74.4578ZM114.99 74.4578H111.638L107.821 69.6806V74.4578H105.33V64.6121H107.821V69.3408L111.836 64.6121H115.014L110.626 69.4298L115.014 74.4578H114.99ZM100.209 66.9178C99.8684 66.806 99.5097 66.7685 99.1549 66.8075C98.8001 66.8465 98.4568 66.9613 98.1464 67.1446C97.836 67.3279 97.5651 67.5759 97.3506 67.8731C97.136 68.1703 96.9825 68.5104 96.8995 68.8722C96.8165 69.2339 96.8058 69.6096 96.8681 69.9759C96.9304 70.3421 97.0643 70.6911 97.2615 71.001C97.4587 71.311 97.7151 71.5753 98.0145 71.7775C98.3139 71.9797 98.6501 72.1155 99.0021 72.1764C99.3872 72.257 99.7848 72.2473 100.166 72.1481C100.722 72.0018 101.216 71.6681 101.571 71.1989C101.926 70.7297 102.122 70.1513 102.129 69.5538C102.136 68.9562 101.954 68.3729 101.61 67.8947C101.266 67.4165 100.78 67.0702 100.228 66.9097L100.209 66.9178ZM79.7547 66.7681C80.3441 67.0673 80.8187 67.5659 81.1012 68.1826C81.3837 68.7993 81.4574 69.4976 81.3101 70.1636C81.1629 70.8296 80.8035 71.4238 80.2906 71.8493C79.7777 72.2749 79.1415 72.5065 78.486 72.5065C77.8306 72.5065 77.1944 72.2749 76.6815 71.8493C76.1686 71.4238 75.8092 70.8296 75.6619 70.1636C75.5147 69.4976 75.5884 68.7993 75.8709 68.1826C76.1534 67.5659 76.628 67.0673 77.2174 66.7681V64.1348C75.9633 64.4579 74.866 65.2485 74.1327 66.3573C73.3993 67.4661 73.0806 68.8164 73.2367 70.1534C73.3928 71.4904 74.0129 72.7216 74.98 73.6146C75.9471 74.5076 77.1942 75.0006 78.486 75.0006C79.7779 75.0006 81.025 74.5076 81.9921 73.6146C82.9592 72.7216 83.5793 71.4904 83.7354 70.1534C83.8915 68.8164 83.5728 67.4661 82.8394 66.3573C82.1061 65.2485 81.0088 64.4579 79.7547 64.1348V66.7681Z" fill="white"/>
<path fill-rule="evenodd" clip-rule="evenodd" d="M61.2968 70.7082C61.2968 73.1945 59.8548 74.4391 56.9709 74.4418H51C51 71.95 54.9922 72.0633 56.4588 72.0633C57.6511 72.0633 58.246 71.5239 58.2435 70.4452C58.2435 69.3612 57.6499 68.8272 56.4588 68.8272H53.0912V66.473H56.4316C57.6227 66.473 58.2124 65.9512 58.2124 64.9156C58.2124 63.8801 57.6149 63.3785 56.4316 63.3785C54.7323 63.3785 51 63.8316 51 61H56.4976C58.0805 61 59.1836 61.2036 59.807 61.6108C60.2754 61.9132 60.6574 62.341 60.9133 62.8497C61.1692 63.3584 61.2896 63.9293 61.2619 64.503C61.2859 65.1828 61.1139 65.8545 60.7681 66.4314C60.4223 67.0082 59.9186 67.4637 59.322 67.7391C60.6334 68.3216 61.2877 69.3194 61.2852 70.7324L61.2968 70.7082Z" fill="white"/>
<path fill-rule="evenodd" clip-rule="evenodd" d="M78.8569 71.1529C78.424 71.2445 77.974 71.1542 77.6046 70.9017C77.2353 70.6491 76.9765 70.2548 76.8844 69.8044C76.7924 69.354 76.8746 68.884 77.1132 68.4964C77.3518 68.1089 77.7275 67.8352 78.1585 67.7349V63.9648H78.9345V67.7349C79.1313 67.7825 79.3181 67.8675 79.4854 67.9856C79.7613 68.1794 79.9758 68.4543 80.1013 68.7755C80.2269 69.0967 80.258 69.4496 80.1906 69.7892C80.1232 70.1288 79.9604 70.4399 79.7229 70.6828C79.4854 70.9256 79.1839 71.0893 78.8569 71.1529Z" fill="white"/>
<line x1="142" y1="167.25" x2="36" y2="167.25" stroke="#CBCBCB" stroke-width="0.5"/>
<line x1="142" y1="245.25" x2="36" y2="245.25" stroke="#CBCBCB" stroke-width="0.5"/>
<line x1="142" y1="281.25" x2="36" y2="281.25" stroke="#CBCBCB" stroke-width="0.5"/>
<path fill-rule="evenodd" clip-rule="evenodd" d="M172 145C172 143.895 172.895 143 174 143H238C239.105 143 240 143.895 240 145C240 146.105 239.105 147 238 147H174C172.895 147 172 146.105 172 145ZM172 169C172 167.895 172.895 167 174 167H238C239.105 167 240 167.895 240 169C240 170.105 239.105 171 238 171H174C172.895 171 172 170.105 172 169ZM174 191C172.895 191 172 191.895 172 193C172 194.105 172.895 195 174 195H238C239.105 195 240 194.105 240 193C240 191.895 239.105 191 238 191H174ZM172 217C172 215.895 172.895 215 174 215H238C239.105 215 240 215.895 240 217C240 218.105 239.105 219 238 219H174C172.895 219 172 218.105 172 217ZM174 239C172.895 239 172 239.895 172 241C172 242.105 172.895 243 174 243H238C239.105 243 240 242.105 240 241C240 239.895 239.105 239 238 239H174ZM283 145C283 143.895 283.895 143 285 143H314C315.105 143 316 143.895 316 145C316 146.105 315.105 147 314 147H285C283.895 147 283 146.105 283 145ZM285 167C283.895 167 283 167.895 283 169C283 170.105 283.895 171 285 171H314C315.105 171 316 170.105 316 169C316 167.895 315.105 167 314 167H285ZM283 193C283 191.895 283.895 191 285 191H314C315.105 191 316 191.895 316 193C316 194.105 315.105 195 314 195H285C283.895 195 283 194.105 283 193ZM285 215C283.895 215 283 215.895 283 217C283 218.105 283.895 219 285 219H314C315.105 219 316 218.105 316 217C316 215.895 315.105 215 314 215H285ZM283 241C283 239.895 283.895 239 285 239H314C315.105 239 316 239.895 316 241C316 242.105 315.105 243 314 243H285C283.895 243 283 242.105 283 241ZM330 143C328.895 143 328 143.895 328 145C328 146.105 328.895 147 330 147H434C435.105 147 436 146.105 436 145C436 143.895 435.105 143 434 143H330ZM328 169C328 167.895 328.895 167 330 167H434C435.105 167 436 167.895 436 169C436 170.105 435.105 171 434 171H330C328.895 171 328 170.105 328 169ZM330 191C328.895 191 328 191.895 328 193C328 194.105 328.895 195 330 195H434C435.105 195 436 194.105 436 193C436 191.895 435.105 191 434 191H330ZM328 217C328 215.895 328.895 215 330 215H434C435.105 215 436 215.895 436 217C436 218.105 435.105 219 434 219H330C328.895 219 328 218.105 328 217ZM330 239C328.895 239 328 239.895 328 241C328 242.105 328.895 243 330 243H434C435.105 243 436 242.105 436 241C436 239.895 435.105 239 434 239H330Z" fill="#E6E6E6"/>
<path d="M173.981 114H172.294L175.366 105.273H177.318L180.395 114H178.707L176.376 107.063H176.308L173.981 114ZM174.037 110.578H178.639V111.848H174.037V110.578Z" fill="#3C3A3E"/>
<path d="M181.476 114V107.455H184.225C185 107.455 185.612 107.61 186.061 107.919C186.513 108.229 186.739 108.661 186.739 109.215C186.739 109.581 186.611 109.881 186.355 110.114C186.103 110.344 185.757 110.499 185.32 110.578C185.664 110.607 185.965 110.693 186.223 110.838C186.485 110.983 186.689 111.174 186.837 111.409C186.985 111.645 187.059 111.916 187.059 112.223C187.059 112.584 186.963 112.898 186.773 113.165C186.585 113.429 186.311 113.635 185.951 113.783C185.593 113.928 185.158 114 184.647 114H181.476ZM182.921 112.786H184.647C184.931 112.786 185.154 112.719 185.316 112.585C185.478 112.449 185.559 112.264 185.559 112.031C185.559 111.762 185.478 111.55 185.316 111.397C185.154 111.24 184.931 111.162 184.647 111.162H182.921V112.786ZM182.921 110.165H184.255C184.465 110.165 184.645 110.135 184.796 110.076C184.946 110.013 185.061 109.926 185.141 109.816C185.22 109.702 185.26 109.567 185.26 109.411C185.26 109.186 185.168 109.01 184.983 108.882C184.801 108.754 184.549 108.691 184.225 108.691H182.921V110.165Z" fill="#3C3A3E"/>
<path d="M187.974 108.72V107.455H193.701V108.72H191.583V114H190.092V108.72H187.974Z" fill="#3C3A3E"/>
<path d="M197.515 114.128C196.876 114.128 196.322 113.987 195.853 113.706C195.384 113.425 195.021 113.031 194.762 112.526C194.506 112.02 194.378 111.429 194.378 110.753C194.378 110.077 194.506 109.485 194.762 108.976C195.021 108.468 195.384 108.073 195.853 107.791C196.322 107.51 196.876 107.37 197.515 107.37C198.154 107.37 198.708 107.51 199.177 107.791C199.646 108.073 200.008 108.468 200.263 108.976C200.522 109.485 200.651 110.077 200.651 110.753C200.651 111.429 200.522 112.02 200.263 112.526C200.008 113.031 199.646 113.425 199.177 113.706C198.708 113.987 198.154 114.128 197.515 114.128ZM197.523 112.892C197.87 112.892 198.16 112.797 198.393 112.607C198.626 112.414 198.799 112.155 198.913 111.831C199.029 111.507 199.087 111.147 199.087 110.749C199.087 110.348 199.029 109.986 198.913 109.662C198.799 109.335 198.626 109.076 198.393 108.882C198.16 108.689 197.87 108.593 197.523 108.593C197.168 108.593 196.873 108.689 196.637 108.882C196.404 109.076 196.229 109.335 196.113 109.662C195.999 109.986 195.942 110.348 195.942 110.749C195.942 111.147 195.999 111.507 196.113 111.831C196.229 112.155 196.404 112.414 196.637 112.607C196.873 112.797 197.168 112.892 197.523 112.892Z" fill="#3C3A3E"/>
<path d="M201.598 112.206H203.128C203.142 112.451 203.252 112.639 203.456 112.773C203.661 112.906 203.926 112.973 204.253 112.973C204.585 112.973 204.865 112.901 205.093 112.756C205.323 112.608 205.438 112.385 205.438 112.087C205.438 111.911 205.394 111.756 205.306 111.622C205.218 111.486 205.094 111.381 204.935 111.307C204.776 111.233 204.588 111.196 204.372 111.196H203.371V110.101H204.372C204.693 110.101 204.936 110.027 205.101 109.879C205.269 109.732 205.353 109.546 205.353 109.321C205.353 109.08 205.264 108.884 205.088 108.733C204.915 108.583 204.675 108.507 204.368 108.507C204.061 108.507 203.806 108.577 203.601 108.716C203.399 108.855 203.294 109.034 203.286 109.253H201.764C201.77 108.872 201.884 108.541 202.105 108.26C202.33 107.979 202.631 107.76 203.009 107.604C203.389 107.448 203.818 107.37 204.296 107.37C204.807 107.37 205.249 107.446 205.621 107.6C205.993 107.753 206.28 107.968 206.482 108.243C206.684 108.516 206.784 108.837 206.784 109.206C206.784 109.561 206.674 109.855 206.452 110.088C206.23 110.318 205.932 110.483 205.557 110.583V110.651C205.816 110.665 206.049 110.739 206.256 110.872C206.463 111.003 206.628 111.181 206.75 111.405C206.872 111.629 206.934 111.889 206.934 112.185C206.934 112.585 206.818 112.932 206.588 113.225C206.358 113.514 206.041 113.737 205.638 113.894C205.237 114.05 204.779 114.128 204.262 114.128C203.759 114.128 203.309 114.053 202.911 113.902C202.516 113.749 202.202 113.529 201.969 113.242C201.736 112.955 201.612 112.61 201.598 112.206Z" fill="#3C3A3E"/>
<path d="M208.148 114V107.455H210.897C211.672 107.455 212.284 107.61 212.733 107.919C213.185 108.229 213.411 108.661 213.411 109.215C213.411 109.581 213.283 109.881 213.027 110.114C212.774 110.344 212.429 110.499 211.992 110.578C212.335 110.607 212.637 110.693 212.895 110.838C213.157 110.983 213.361 111.174 213.509 111.409C213.657 111.645 213.73 111.916 213.73 112.223C213.73 112.584 213.635 112.898 213.445 113.165C213.257 113.429 212.983 113.635 212.622 113.783C212.264 113.928 211.83 114 211.318 114H208.148ZM209.593 112.786H211.318C211.603 112.786 211.826 112.719 211.987 112.585C212.149 112.449 212.23 112.264 212.23 112.031C212.23 111.762 212.149 111.55 211.987 111.397C211.826 111.24 211.603 111.162 211.318 111.162H209.593V112.786ZM209.593 110.165H210.926C211.137 110.165 211.317 110.135 211.468 110.076C211.618 110.013 211.733 109.926 211.813 109.816C211.892 109.702 211.932 109.567 211.932 109.411C211.932 109.186 211.84 109.01 211.655 108.882C211.473 108.754 211.22 108.691 210.897 108.691H209.593V110.165Z" fill="#3C3A3E"/>
<path d="M217.859 114.128C217.219 114.128 216.665 113.987 216.197 113.706C215.728 113.425 215.364 113.031 215.106 112.526C214.85 112.02 214.722 111.429 214.722 110.753C214.722 110.077 214.85 109.485 215.106 108.976C215.364 108.468 215.728 108.073 216.197 107.791C216.665 107.51 217.219 107.37 217.859 107.37C218.498 107.37 219.052 107.51 219.521 107.791C219.989 108.073 220.351 108.468 220.607 108.976C220.866 109.485 220.995 110.077 220.995 110.753C220.995 111.429 220.866 112.02 220.607 112.526C220.351 113.031 219.989 113.425 219.521 113.706C219.052 113.987 218.498 114.128 217.859 114.128ZM217.867 112.892C218.214 112.892 218.503 112.797 218.736 112.607C218.969 112.414 219.143 112.155 219.256 111.831C219.373 111.507 219.431 111.147 219.431 110.749C219.431 110.348 219.373 109.986 219.256 109.662C219.143 109.335 218.969 109.076 218.736 108.882C218.503 108.689 218.214 108.593 217.867 108.593C217.512 108.593 217.217 108.689 216.981 108.882C216.748 109.076 216.573 109.335 216.457 109.662C216.343 109.986 216.286 110.348 216.286 110.749C216.286 111.147 216.343 111.507 216.457 111.831C216.573 112.155 216.748 112.414 216.981 112.607C217.217 112.797 217.512 112.892 217.867 112.892Z" fill="#3C3A3E"/>
<path d="M226.8 110.088V111.354H223.314V110.088H226.8ZM223.791 107.455V114H222.304V107.455H223.791ZM227.81 107.455V114H226.327V107.455H227.81Z" fill="#3C3A3E"/>
<path d="M229.371 114V107.455H230.913V110.097H231.476L233.445 107.455H235.302L232.878 110.668L235.328 114H233.462L231.668 111.533H230.913V114H229.371Z" fill="#3C3A3E"/>
<path d="M237.69 111.912L240.311 107.455H241.896V114H240.404V109.539L237.792 114H236.203V107.455H237.69V111.912Z" fill="#3C3A3E"/>
<path d="M245.877 115.901V112.73H246.397C246.536 112.622 246.653 112.476 246.746 112.291C246.84 112.104 246.917 111.884 246.976 111.631C247.039 111.375 247.09 111.09 247.13 110.774C247.17 110.456 247.205 110.114 247.236 109.747L247.424 107.455H252.154V112.73H253.168V115.901H251.677V114H247.394V115.901H245.877ZM247.982 112.73H250.68V108.699H248.762L248.66 109.747C248.603 110.441 248.528 111.034 248.434 111.529C248.34 112.023 248.19 112.424 247.982 112.73Z" fill="#3C3A3E"/>
<path d="M253.868 114L253.86 112.73H254.085C254.256 112.73 254.399 112.692 254.516 112.615C254.632 112.539 254.729 112.411 254.806 112.232C254.882 112.05 254.942 111.806 254.985 111.499C255.027 111.192 255.057 110.81 255.074 110.352L255.189 107.455H259.962V114H258.47V108.72H256.591L256.489 110.83C256.463 111.375 256.402 111.848 256.306 112.249C256.212 112.647 256.078 112.975 255.905 113.233C255.735 113.492 255.52 113.685 255.262 113.813C255.003 113.938 254.698 114 254.345 114H253.868Z" fill="#3C3A3E"/>
<path d="M265.384 114V108.708H263.987C263.632 108.708 263.359 108.79 263.169 108.955C262.978 109.12 262.884 109.324 262.887 109.568C262.884 109.813 262.974 110.014 263.156 110.174C263.338 110.333 263.598 110.412 263.936 110.412H265.87V111.537H263.936C263.413 111.537 262.961 111.455 262.581 111.29C262.2 111.125 261.907 110.892 261.703 110.591C261.498 110.29 261.396 109.938 261.396 109.534C261.396 109.114 261.5 108.749 261.707 108.439C261.917 108.127 262.215 107.885 262.602 107.715C262.991 107.541 263.453 107.455 263.987 107.455H266.829V114H265.384ZM261.157 114L262.985 110.642H264.507L262.674 114H261.157Z" fill="#3C3A3E"/>
<path d="M271.359 114V107.455H272.902V110.097H273.464L275.433 107.455H277.291L274.866 110.668L277.316 114H275.45L273.656 111.533H272.902V114H271.359Z" fill="#3C3A3E"/>
<path d="M280.777 114.128C280.137 114.128 279.583 113.987 279.115 113.706C278.646 113.425 278.282 113.031 278.024 112.526C277.768 112.02 277.64 111.429 277.64 110.753C277.64 110.077 277.768 109.485 278.024 108.976C278.282 108.468 278.646 108.073 279.115 107.791C279.583 107.51 280.137 107.37 280.777 107.37C281.416 107.37 281.97 107.51 282.438 107.791C282.907 108.073 283.269 108.468 283.525 108.976C283.784 109.485 283.913 110.077 283.913 110.753C283.913 111.429 283.784 112.02 283.525 112.526C283.269 113.031 282.907 113.425 282.438 113.706C281.97 113.987 281.416 114.128 280.777 114.128ZM280.785 112.892C281.132 112.892 281.421 112.797 281.654 112.607C281.887 112.414 282.061 112.155 282.174 111.831C282.291 111.507 282.349 111.147 282.349 110.749C282.349 110.348 282.291 109.986 282.174 109.662C282.061 109.335 281.887 109.076 281.654 108.882C281.421 108.689 281.132 108.593 280.785 108.593C280.43 108.593 280.134 108.689 279.899 108.882C279.666 109.076 279.491 109.335 279.375 109.662C279.261 109.986 279.204 110.348 279.204 110.749C279.204 111.147 279.261 111.507 279.375 111.831C279.491 112.155 279.666 112.414 279.899 112.607C280.134 112.797 280.43 112.892 280.785 112.892Z" fill="#3C3A3E"/>
<path d="M284.771 114L284.762 112.73H284.988C285.158 112.73 285.302 112.692 285.418 112.615C285.535 112.539 285.631 112.411 285.708 112.232C285.785 112.05 285.844 111.806 285.887 111.499C285.93 111.192 285.959 110.81 285.976 110.352L286.092 107.455H290.864V114H289.373V108.72H287.494L287.391 110.83C287.366 111.375 287.305 111.848 287.208 112.249C287.114 112.647 286.981 112.975 286.807 113.233C286.637 113.492 286.422 113.685 286.164 113.813C285.905 113.938 285.6 114 285.248 114H284.771Z" fill="#3C3A3E"/>
<path d="M291.966 114L291.957 112.73H292.183C292.354 112.73 292.497 112.692 292.614 112.615C292.73 112.539 292.827 112.411 292.903 112.232C292.98 112.05 293.04 111.806 293.082 111.499C293.125 111.192 293.155 110.81 293.172 110.352L293.287 107.455H298.06V114H296.568V108.72H294.689L294.587 110.83C294.561 111.375 294.5 111.848 294.403 112.249C294.31 112.647 294.176 112.975 294.003 113.233C293.832 113.492 293.618 113.685 293.359 113.813C293.101 113.938 292.795 114 292.443 114H291.966Z" fill="#3C3A3E"/>
<path d="M303.58 109.73V111H299.651V109.73H303.58Z" fill="#3C3A3E"/>
<path d="M310.73 107.455V112.85H311.731V116.105H310.223V114H305.203V107.455H306.69V112.735H309.255V107.455H310.73Z" fill="#3C3A3E"/>
<path d="M315.823 114.128C315.167 114.128 314.6 113.992 314.123 113.719C313.648 113.443 313.283 113.054 313.028 112.551C312.772 112.046 312.644 111.451 312.644 110.766C312.644 110.093 312.772 109.502 313.028 108.993C313.286 108.482 313.647 108.084 314.11 107.8C314.573 107.513 315.117 107.37 315.742 107.37C316.146 107.37 316.526 107.435 316.884 107.566C317.245 107.693 317.563 107.892 317.839 108.162C318.117 108.432 318.336 108.776 318.495 109.193C318.654 109.608 318.734 110.102 318.734 110.676V111.149H313.369V110.11H317.255C317.252 109.814 317.188 109.551 317.063 109.321C316.938 109.088 316.763 108.905 316.539 108.772C316.317 108.638 316.059 108.571 315.763 108.571C315.448 108.571 315.171 108.648 314.932 108.801C314.694 108.952 314.508 109.151 314.374 109.398C314.244 109.642 314.177 109.911 314.174 110.203V111.111C314.174 111.492 314.244 111.818 314.383 112.091C314.522 112.361 314.717 112.568 314.967 112.713C315.217 112.855 315.509 112.926 315.844 112.926C316.069 112.926 316.272 112.895 316.454 112.833C316.636 112.767 316.793 112.672 316.927 112.547C317.06 112.422 317.161 112.267 317.229 112.083L318.67 112.245C318.579 112.625 318.405 112.958 318.15 113.242C317.897 113.523 317.573 113.742 317.178 113.898C316.783 114.051 316.332 114.128 315.823 114.128Z" fill="#3C3A3E"/>
<path d="M324.534 110.088V111.354H321.049V110.088H324.534ZM321.526 107.455V114H320.039V107.455H321.526ZM325.544 107.455V114H324.061V107.455H325.544Z" fill="#3C3A3E"/>
<path d="M326.372 108.72V107.455H332.099V108.72H329.981V114H328.49V108.72H326.372Z" fill="#3C3A3E"/>
<path d="M333.328 116.455V107.455H334.845V108.537H334.934C335.014 108.378 335.126 108.209 335.271 108.03C335.416 107.848 335.612 107.693 335.859 107.566C336.106 107.435 336.421 107.37 336.805 107.37C337.311 107.37 337.767 107.499 338.173 107.757C338.582 108.013 338.906 108.392 339.144 108.895C339.386 109.395 339.507 110.009 339.507 110.736C339.507 111.455 339.389 112.066 339.153 112.568C338.917 113.071 338.596 113.455 338.19 113.719C337.784 113.983 337.323 114.115 336.809 114.115C336.434 114.115 336.123 114.053 335.876 113.928C335.629 113.803 335.43 113.652 335.279 113.476C335.132 113.297 335.017 113.128 334.934 112.969H334.87V116.455H333.328ZM334.84 110.727C334.84 111.151 334.9 111.522 335.019 111.84C335.142 112.158 335.316 112.406 335.544 112.585C335.774 112.762 336.052 112.85 336.379 112.85C336.72 112.85 337.005 112.759 337.235 112.577C337.465 112.392 337.639 112.141 337.755 111.823C337.875 111.502 337.934 111.137 337.934 110.727C337.934 110.321 337.876 109.96 337.76 109.645C337.643 109.33 337.47 109.083 337.24 108.904C337.009 108.725 336.723 108.635 336.379 108.635C336.049 108.635 335.769 108.722 335.539 108.895C335.309 109.068 335.135 109.311 335.015 109.624C334.899 109.936 334.84 110.304 334.84 110.727Z" fill="#3C3A3E"/>
<path d="M342.711 114.132C342.296 114.132 341.923 114.058 341.59 113.911C341.261 113.76 341 113.539 340.806 113.246C340.616 112.953 340.521 112.593 340.521 112.164C340.521 111.794 340.589 111.489 340.725 111.247C340.862 111.006 341.048 110.813 341.284 110.668C341.519 110.523 341.785 110.414 342.081 110.34C342.379 110.263 342.687 110.208 343.005 110.174C343.389 110.134 343.7 110.098 343.938 110.067C344.177 110.033 344.35 109.982 344.458 109.914C344.569 109.843 344.625 109.733 344.625 109.585V109.56C344.625 109.239 344.529 108.99 344.339 108.814C344.149 108.638 343.875 108.55 343.517 108.55C343.139 108.55 342.839 108.632 342.617 108.797C342.399 108.962 342.251 109.156 342.174 109.381L340.734 109.176C340.848 108.779 341.035 108.446 341.296 108.179C341.558 107.909 341.877 107.708 342.255 107.574C342.633 107.438 343.051 107.37 343.508 107.37C343.823 107.37 344.137 107.406 344.45 107.48C344.762 107.554 345.048 107.676 345.306 107.847C345.565 108.014 345.772 108.243 345.929 108.533C346.088 108.823 346.167 109.185 346.167 109.62V114H344.684V113.101H344.633C344.539 113.283 344.407 113.453 344.237 113.612C344.069 113.769 343.857 113.895 343.602 113.992C343.349 114.085 343.052 114.132 342.711 114.132ZM343.112 112.999C343.421 112.999 343.69 112.938 343.917 112.816C344.144 112.691 344.319 112.526 344.441 112.321C344.566 112.117 344.629 111.894 344.629 111.652V110.881C344.581 110.921 344.498 110.958 344.382 110.992C344.268 111.026 344.14 111.056 343.998 111.081C343.856 111.107 343.715 111.129 343.576 111.149C343.437 111.169 343.316 111.186 343.214 111.201C342.984 111.232 342.778 111.283 342.596 111.354C342.414 111.425 342.271 111.524 342.166 111.652C342.061 111.777 342.008 111.939 342.008 112.138C342.008 112.422 342.112 112.637 342.319 112.781C342.527 112.926 342.791 112.999 343.112 112.999Z" fill="#3C3A3E"/>
<path fill-rule="evenodd" clip-rule="evenodd" d="M172 124H436V123H172V124ZM172 157H436V156.5H172V157ZM436 181H172V180.5H436V181ZM172 205H436V204.5H172V205ZM436 229H172V228.5H436V229ZM172 253H436V252.5H172V253Z" fill="#E6E6E6"/>
<g filter="url(#filter0_d_1334_6487)">
<rect x="293" y="25" width="289" height="167" rx="9" fill="white"/>
</g>
<path d="M316.294 56.1052V52.7089H316.878C317.074 52.5526 317.257 52.3325 317.427 52.0484C317.598 51.7643 317.743 51.3751 317.862 50.8808C317.981 50.3865 318.064 49.7472 318.109 48.9632L318.339 45.2728H323.918V52.7089H324.889V56.0967H323.372V54.0001H317.811V56.1052H316.294ZM318.719 52.7089H322.4V46.5981H319.763L319.626 48.9632C319.589 49.5569 319.53 50.0882 319.447 50.5569C319.365 51.0257 319.261 51.439 319.136 51.797C319.011 52.1521 318.872 52.4561 318.719 52.7089Z" fill="#3C3A3E"/>
<path d="M328.964 54.1279C328.325 54.1279 327.771 53.9873 327.302 53.7061C326.833 53.4248 326.47 53.0313 326.211 52.5257C325.956 52.02 325.828 51.4291 325.828 50.7529C325.828 50.0768 325.956 49.4845 326.211 48.9759C326.47 48.4674 326.833 48.0725 327.302 47.7913C327.771 47.51 328.325 47.3694 328.964 47.3694C329.603 47.3694 330.157 47.51 330.626 47.7913C331.095 48.0725 331.457 48.4674 331.713 48.9759C331.971 49.4845 332.1 50.0768 332.1 50.7529C332.1 51.4291 331.971 52.02 331.713 52.5257C331.457 53.0313 331.095 53.4248 330.626 53.7061C330.157 53.9873 329.603 54.1279 328.964 54.1279ZM328.973 52.8921C329.319 52.8921 329.609 52.797 329.842 52.6066C330.075 52.4134 330.248 52.1549 330.362 51.8311C330.478 51.5072 330.536 51.1464 330.536 50.7487C330.536 50.3481 330.478 49.9859 330.362 49.662C330.248 49.3353 330.075 49.0754 329.842 48.8822C329.609 48.689 329.319 48.5924 328.973 48.5924C328.617 48.5924 328.322 48.689 328.086 48.8822C327.853 49.0754 327.679 49.3353 327.562 49.662C327.448 49.9859 327.392 50.3481 327.392 50.7487C327.392 51.1464 327.448 51.5072 327.562 51.8311C327.679 52.1549 327.853 52.4134 328.086 52.6066C328.322 52.797 328.617 52.8921 328.973 52.8921Z" fill="#3C3A3E"/>
<path d="M338.655 45.0342L339.192 46.0313C339.002 46.1961 338.789 46.3154 338.553 46.3893C338.317 46.4632 338.04 46.5115 337.722 46.5342C337.407 46.5541 337.032 46.5683 336.597 46.5768C336.109 46.5882 335.709 46.6805 335.4 46.8538C335.09 47.0271 334.853 47.2899 334.688 47.6421C334.523 47.9916 334.415 48.4376 334.364 48.9802H334.437C334.641 48.5796 334.928 48.2742 335.297 48.064C335.667 47.8538 336.1 47.7487 336.597 47.7487C337.14 47.7487 337.619 47.8708 338.033 48.1151C338.451 48.3566 338.776 48.7075 339.009 49.1677C339.245 49.6279 339.363 50.1847 339.363 50.8382C339.363 51.5115 339.236 52.0953 338.984 52.5896C338.731 53.0811 338.371 53.4603 337.905 53.7274C337.442 53.9944 336.893 54.1279 336.256 54.1279C335.623 54.1279 335.072 53.9901 334.603 53.7146C334.137 53.4362 333.776 53.0257 333.521 52.483C333.268 51.9376 333.141 51.2657 333.141 50.4674V49.8794C333.141 48.3396 333.428 47.1904 334.002 46.4319C334.576 45.6734 335.427 45.287 336.555 45.2728C336.89 45.2671 337.19 45.2657 337.454 45.2686C337.721 45.2714 337.954 45.2586 338.153 45.2302C338.351 45.2018 338.519 45.1365 338.655 45.0342ZM336.265 52.8921C336.58 52.8921 336.853 52.8112 337.083 52.6492C337.313 52.4845 337.489 52.2515 337.611 51.9504C337.736 51.6492 337.799 51.2927 337.799 50.8808C337.799 50.4745 337.736 50.1294 337.611 49.8453C337.486 49.5583 337.309 49.3396 337.079 49.189C336.849 49.0384 336.574 48.9632 336.256 48.9632C336.018 48.9632 335.803 49.0058 335.613 49.091C335.422 49.1762 335.261 49.3012 335.127 49.466C334.994 49.6308 334.891 49.8311 334.82 50.0669C334.749 50.3026 334.711 50.574 334.705 50.8808C334.705 51.4972 334.844 51.9873 335.123 52.3509C335.401 52.7117 335.782 52.8921 336.265 52.8921Z" fill="#3C3A3E"/>
<path d="M342.559 54.1322C342.144 54.1322 341.771 54.0583 341.438 53.9106C341.109 53.76 340.847 53.5384 340.654 53.2458C340.464 52.9532 340.369 52.5924 340.369 52.1634C340.369 51.7941 340.437 51.4887 340.573 51.2472C340.709 51.0058 340.896 50.8126 341.131 50.6677C341.367 50.5228 341.633 50.4134 341.928 50.3396C342.226 50.2629 342.535 50.2075 342.853 50.1734C343.236 50.1336 343.547 50.0981 343.786 50.0669C344.025 50.0328 344.198 49.9816 344.306 49.9134C344.417 49.8424 344.472 49.733 344.472 49.5853V49.5597C344.472 49.2387 344.377 48.9901 344.187 48.814C343.996 48.6379 343.722 48.5498 343.364 48.5498C342.986 48.5498 342.687 48.6322 342.465 48.797C342.246 48.9617 342.099 49.1563 342.022 49.3808L340.582 49.1762C340.695 48.7785 340.883 48.4461 341.144 48.1791C341.405 47.9092 341.725 47.7075 342.103 47.574C342.481 47.4376 342.898 47.3694 343.356 47.3694C343.671 47.3694 343.985 47.4063 344.297 47.4802C344.61 47.5541 344.896 47.6762 345.154 47.8467C345.413 48.0143 345.62 48.243 345.776 48.5328C345.935 48.8225 346.015 49.1847 346.015 49.6194V54.0001H344.532V53.1009H344.481C344.387 53.2828 344.255 53.4532 344.084 53.6123C343.917 53.7686 343.705 53.895 343.449 53.9916C343.197 54.0853 342.9 54.1322 342.559 54.1322ZM342.959 52.9987C343.269 52.9987 343.538 52.9376 343.765 52.8154C343.992 52.6904 344.167 52.5257 344.289 52.3211C344.414 52.1166 344.476 51.8936 344.476 51.6521V50.8808C344.428 50.9205 344.346 50.9575 344.229 50.9916C344.116 51.0257 343.988 51.0555 343.846 51.0811C343.704 51.1066 343.563 51.1294 343.424 51.1492C343.285 51.1691 343.164 51.1862 343.062 51.2004C342.832 51.2316 342.626 51.2828 342.444 51.3538C342.262 51.4248 342.119 51.5242 342.013 51.6521C341.908 51.7771 341.856 51.939 341.856 52.1379C341.856 52.422 341.959 52.6365 342.167 52.7813C342.374 52.9262 342.638 52.9987 342.959 52.9987Z" fill="#3C3A3E"/>
<path d="M347.566 54.0001V47.4546H350.315C351.09 47.4546 351.702 47.6095 352.151 47.9191C352.603 48.2288 352.829 48.6606 352.829 49.2146C352.829 49.5811 352.701 49.8808 352.445 50.1137C352.192 50.3438 351.847 50.4987 351.41 50.5782C351.753 50.6066 352.055 50.6933 352.313 50.8382C352.574 50.983 352.779 51.1734 352.927 51.4092C353.074 51.645 353.148 51.9163 353.148 52.2231C353.148 52.5839 353.053 52.8978 352.863 53.1649C352.675 53.4291 352.401 53.635 352.04 53.7828C351.682 53.9276 351.248 54.0001 350.736 54.0001H347.566ZM349.011 52.7856H350.736C351.021 52.7856 351.244 52.7188 351.405 52.5853C351.567 52.449 351.648 52.2643 351.648 52.0313C351.648 51.7615 351.567 51.5498 351.405 51.3964C351.244 51.2401 351.021 51.162 350.736 51.162H349.011V52.7856ZM349.011 50.1649H350.344C350.555 50.1649 350.735 50.135 350.886 50.0754C351.036 50.0129 351.151 49.9262 351.231 49.8154C351.31 49.7018 351.35 49.5669 351.35 49.4106C351.35 49.1862 351.258 49.01 351.073 48.8822C350.891 48.7544 350.638 48.6904 350.315 48.6904H349.011V50.1649Z" fill="#3C3A3E"/>
<path d="M355.909 51.912L358.529 47.4546H360.115V54.0001H358.623V49.5384L356.011 54.0001H354.421V47.4546H355.909V51.912Z" fill="#3C3A3E"/>
<path d="M360.966 48.7203V47.4546H366.693V48.7203H364.575V54.0001H363.084V48.7203H360.966Z" fill="#3C3A3E"/>
<path d="M368.965 49.5853H370.896C371.731 49.5853 372.377 49.7884 372.835 50.1947C373.292 50.6009 373.522 51.1336 373.525 51.7927C373.522 52.2217 373.417 52.6024 373.21 52.9347C373.005 53.2671 372.707 53.5285 372.315 53.7188C371.926 53.9063 371.453 54.0001 370.896 54.0001H367.921V47.4546H369.409V52.7345H370.896C371.231 52.7345 371.507 52.6492 371.723 52.4788C371.938 52.3055 372.046 52.0839 372.046 51.814C372.046 51.5299 371.938 51.2984 371.723 51.1194C371.507 50.9404 371.231 50.8509 370.896 50.8509H368.965V49.5853Z" fill="#3C3A3E"/>
<path d="M377.466 48.7203V47.4546H383.193V48.7203H381.075V54.0001H379.584V48.7203H377.466Z" fill="#3C3A3E"/>
<path d="M387.05 54.1279C386.393 54.1279 385.827 53.9916 385.349 53.7188C384.875 53.4433 384.51 53.0541 384.254 52.5512C383.998 52.0455 383.871 51.4504 383.871 50.7657C383.871 50.0924 383.998 49.5015 384.254 48.993C384.513 48.4816 384.873 48.0839 385.337 47.7998C385.8 47.5129 386.344 47.3694 386.969 47.3694C387.372 47.3694 387.753 47.4347 388.111 47.5654C388.472 47.6933 388.79 47.8921 389.065 48.162C389.344 48.4319 389.562 48.7757 389.722 49.1933C389.881 49.608 389.96 50.1024 389.96 50.6762V51.1492H384.595V50.1095H388.481C388.479 49.814 388.415 49.5512 388.29 49.3211C388.165 49.0882 387.99 48.9049 387.766 48.7714C387.544 48.6379 387.285 48.5711 386.99 48.5711C386.675 48.5711 386.398 48.6478 386.159 48.8012C385.92 48.9518 385.734 49.1507 385.601 49.3978C385.47 49.6421 385.403 49.9106 385.4 50.2032V51.1109C385.4 51.4916 385.47 51.8183 385.609 52.091C385.748 52.3609 385.943 52.5683 386.193 52.7132C386.443 52.8552 386.736 52.9262 387.071 52.9262C387.295 52.9262 387.498 52.895 387.68 52.8325C387.862 52.7671 388.02 52.672 388.153 52.547C388.287 52.422 388.388 52.2671 388.456 52.0825L389.896 52.2444C389.805 52.6251 389.632 52.9575 389.376 53.2416C389.123 53.5228 388.8 53.7416 388.405 53.8978C388.01 54.0512 387.558 54.1279 387.05 54.1279Z" fill="#3C3A3E"/>
<path d="M390.813 54.0001L390.805 52.7302H391.031C391.201 52.7302 391.345 52.6919 391.461 52.6151C391.578 52.5384 391.674 52.4106 391.751 52.2316C391.828 52.0498 391.887 51.8055 391.93 51.4987C391.973 51.1919 392.002 50.8097 392.019 50.3524L392.134 47.4546H396.907V54.0001H395.416V48.7203H393.536L393.434 50.8296C393.409 51.3751 393.348 51.8481 393.251 52.2487C393.157 52.6464 393.024 52.9745 392.85 53.233C392.68 53.4916 392.465 53.6847 392.207 53.8126C391.948 53.9376 391.643 54.0001 391.291 54.0001H390.813Z" fill="#3C3A3E"/>
<path d="M401.358 54.1279C400.702 54.1279 400.135 53.9916 399.658 53.7188C399.184 53.4433 398.818 53.0541 398.563 52.5512C398.307 52.0455 398.179 51.4504 398.179 50.7657C398.179 50.0924 398.307 49.5015 398.563 48.993C398.821 48.4816 399.182 48.0839 399.645 47.7998C400.108 47.5129 400.652 47.3694 401.277 47.3694C401.681 47.3694 402.061 47.4347 402.419 47.5654C402.78 47.6933 403.098 47.8921 403.374 48.162C403.652 48.4319 403.871 48.7757 404.03 49.1933C404.189 49.608 404.269 50.1024 404.269 50.6762V51.1492H398.904V50.1095H402.79C402.787 49.814 402.723 49.5512 402.598 49.3211C402.473 49.0882 402.299 48.9049 402.074 48.7714C401.853 48.6379 401.594 48.5711 401.299 48.5711C400.983 48.5711 400.706 48.6478 400.468 48.8012C400.229 48.9518 400.043 49.1507 399.909 49.3978C399.779 49.6421 399.712 49.9106 399.709 50.2032V51.1109C399.709 51.4916 399.779 51.8183 399.918 52.091C400.057 52.3609 400.252 52.5683 400.502 52.7132C400.752 52.8552 401.044 52.9262 401.38 52.9262C401.604 52.9262 401.807 52.895 401.989 52.8325C402.171 52.7671 402.328 52.672 402.462 52.547C402.595 52.422 402.696 52.2671 402.764 52.0825L404.205 52.2444C404.114 52.6251 403.941 52.9575 403.685 53.2416C403.432 53.5228 403.108 53.7416 402.713 53.8978C402.318 54.0512 401.867 54.1279 401.358 54.1279Z" fill="#3C3A3E"/>
<path d="M408.544 56.2245V45.2728H410.091V56.2245H408.544ZM408.544 54.1279C408.064 54.1279 407.625 54.047 407.227 53.885C406.829 53.7231 406.486 53.493 406.196 53.1947C405.909 52.8964 405.686 52.5413 405.527 52.1294C405.371 51.7146 405.293 51.2558 405.293 50.7529C405.293 50.2501 405.371 49.7913 405.527 49.3765C405.686 48.9617 405.909 48.6052 406.196 48.3069C406.486 48.0058 406.829 47.7742 407.227 47.6123C407.625 47.4504 408.064 47.3694 408.544 47.3694H408.872V54.1279H408.544ZM408.544 52.8836H408.736V48.6137H408.544C408.271 48.6137 408.03 48.6705 407.82 48.7842C407.612 48.895 407.437 49.0498 407.295 49.2487C407.156 49.4447 407.05 49.672 406.976 49.9305C406.905 50.1862 406.869 50.4603 406.869 50.7529C406.869 51.1421 406.933 51.4987 407.061 51.8225C407.189 52.1436 407.376 52.4007 407.623 52.5938C407.873 52.787 408.18 52.8836 408.544 52.8836ZM410.091 54.1279H409.763V47.3694H410.091C410.571 47.3694 411.01 47.4504 411.408 47.6123C411.805 47.7742 412.148 48.0058 412.435 48.3069C412.724 48.6052 412.947 48.9617 413.104 49.3765C413.263 49.7913 413.342 50.2501 413.342 50.7529C413.342 51.2558 413.263 51.7146 413.104 52.1294C412.947 52.5413 412.724 52.8964 412.435 53.1947C412.148 53.493 411.805 53.7231 411.408 53.885C411.01 54.047 410.571 54.1279 410.091 54.1279ZM410.091 52.8836C410.366 52.8836 410.608 52.8282 410.815 52.7174C411.023 52.6066 411.196 52.4532 411.335 52.2572C411.477 52.0612 411.584 51.8353 411.655 51.5796C411.726 51.3211 411.761 51.0455 411.761 50.7529C411.761 50.3637 411.699 50.0072 411.574 49.6833C411.449 49.3595 411.261 49.1009 411.011 48.9078C410.764 48.7117 410.457 48.6137 410.091 48.6137H409.899V52.8836H410.091Z" fill="#3C3A3E"/>
<path d="M417.499 54.1279C416.86 54.1279 416.306 53.9873 415.837 53.7061C415.369 53.4248 415.005 53.0313 414.746 52.5257C414.491 52.02 414.363 51.4291 414.363 50.7529C414.363 50.0768 414.491 49.4845 414.746 48.9759C415.005 48.4674 415.369 48.0725 415.837 47.7913C416.306 47.51 416.86 47.3694 417.499 47.3694C418.138 47.3694 418.692 47.51 419.161 47.7913C419.63 48.0725 419.992 48.4674 420.248 48.9759C420.506 49.4845 420.636 50.0768 420.636 50.7529C420.636 51.4291 420.506 52.02 420.248 52.5257C419.992 53.0313 419.63 53.4248 419.161 53.7061C418.692 53.9873 418.138 54.1279 417.499 54.1279ZM417.508 52.8921C417.854 52.8921 418.144 52.797 418.377 52.6066C418.61 52.4134 418.783 52.1549 418.897 51.8311C419.013 51.5072 419.072 51.1464 419.072 50.7487C419.072 50.3481 419.013 49.9859 418.897 49.662C418.783 49.3353 418.61 49.0754 418.377 48.8822C418.144 48.689 417.854 48.5924 417.508 48.5924C417.153 48.5924 416.857 48.689 416.621 48.8822C416.388 49.0754 416.214 49.3353 416.097 49.662C415.984 49.9859 415.927 50.3481 415.927 50.7487C415.927 51.1464 415.984 51.5072 416.097 51.8311C416.214 52.1549 416.388 52.4134 416.621 52.6066C416.857 52.797 417.153 52.8921 417.508 52.8921Z" fill="#3C3A3E"/>
<path d="M426.441 50.0882V51.3538H422.955V50.0882H426.441ZM423.432 47.4546V54.0001H421.945V47.4546H423.432ZM427.451 47.4546V54.0001H425.968V47.4546H427.451Z" fill="#3C3A3E"/>
<path d="M433.507 50.0882V51.3538H430.021V50.0882H433.507ZM430.498 47.4546V54.0001H429.011V47.4546H430.498ZM434.517 47.4546V54.0001H433.034V47.4546H434.517Z" fill="#3C3A3E"/>
<path d="M437.122 49.5853H439.052C439.887 49.5853 440.534 49.7884 440.991 50.1947C441.448 50.6009 441.679 51.1336 441.681 51.7927C441.679 52.2217 441.573 52.6024 441.366 52.9347C441.161 53.2671 440.863 53.5285 440.471 53.7188C440.082 53.9063 439.609 54.0001 439.052 54.0001H436.078V47.4546H437.565V52.7345H439.052C439.387 52.7345 439.663 52.6492 439.879 52.4788C440.095 52.3055 440.203 52.0839 440.203 51.814C440.203 51.5299 440.095 51.2984 439.879 51.1194C439.663 50.9404 439.387 50.8509 439.052 50.8509H437.122V49.5853ZM442.495 54.0001V47.4546H444.038V54.0001H442.495Z" fill="#3C3A3E"/>
<path d="M447.116 51.912L449.736 47.4546H451.322V54.0001H449.83V49.5384L447.218 54.0001H445.628V47.4546H447.116V51.912ZM449.315 45.2046H450.469C450.469 45.7018 450.289 46.1052 449.928 46.4149C449.57 46.7217 449.084 46.8751 448.471 46.8751C447.863 46.8751 447.378 46.7217 447.018 46.4149C446.66 46.1052 446.482 45.7018 446.485 45.2046H447.631C447.631 45.4092 447.694 45.5924 447.819 45.7543C447.947 45.9134 448.164 45.993 448.471 45.993C448.772 45.993 448.986 45.9134 449.114 45.7543C449.245 45.5953 449.312 45.412 449.315 45.2046Z" fill="#3C3A3E"/>
<path d="M458.737 54.1279C458.084 54.1279 457.523 53.9845 457.054 53.6975C456.588 53.4106 456.229 53.0143 455.976 52.5086C455.726 52.0001 455.601 51.4149 455.601 50.7529C455.601 50.0882 455.729 49.5015 455.985 48.993C456.24 48.4816 456.601 48.0839 457.067 47.7998C457.536 47.5129 458.09 47.3694 458.729 47.3694C459.26 47.3694 459.73 47.4674 460.139 47.6634C460.551 47.8566 460.88 48.1308 461.124 48.4859C461.368 48.8382 461.507 49.2501 461.541 49.7217H460.067C460.007 49.4063 459.865 49.1436 459.641 48.9333C459.419 48.7203 459.122 48.6137 458.75 48.6137C458.435 48.6137 458.158 48.699 457.919 48.8694C457.681 49.037 457.495 49.2785 457.361 49.5938C457.23 49.9092 457.165 50.287 457.165 50.7274C457.165 51.1734 457.23 51.5569 457.361 51.8779C457.492 52.1961 457.675 52.4419 457.911 52.6151C458.149 52.7856 458.429 52.8708 458.75 52.8708C458.978 52.8708 459.181 52.8282 459.36 52.743C459.541 52.6549 459.693 52.5285 459.816 52.3637C459.938 52.199 460.022 51.9987 460.067 51.7629H461.541C461.505 52.2259 461.368 52.6365 461.132 52.9944C460.897 53.3495 460.576 53.6279 460.169 53.8296C459.763 54.0285 459.286 54.1279 458.737 54.1279Z" fill="#3C3A3E"/>
<path d="M462.808 54.0001V47.4546H468.335V54.0001H466.848V48.7203H464.283V54.0001H462.808Z" fill="#3C3A3E"/>
<path d="M471.409 51.912L474.029 47.4546H475.615V54.0001H474.123V49.5384L471.511 54.0001H469.921V47.4546H471.409V51.912Z" fill="#3C3A3E"/>
<path d="M480.054 54.1279C479.4 54.1279 478.839 53.9845 478.371 53.6975C477.905 53.4106 477.545 53.0143 477.293 52.5086C477.043 52.0001 476.918 51.4149 476.918 50.7529C476.918 50.0882 477.045 49.5015 477.301 48.993C477.557 48.4816 477.918 48.0839 478.383 47.7998C478.852 47.5129 479.406 47.3694 480.045 47.3694C480.577 47.3694 481.047 47.4674 481.456 47.6634C481.868 47.8566 482.196 48.1308 482.44 48.4859C482.685 48.8382 482.824 49.2501 482.858 49.7217H481.383C481.324 49.4063 481.182 49.1436 480.957 48.9333C480.736 48.7203 480.439 48.6137 480.067 48.6137C479.751 48.6137 479.474 48.699 479.236 48.8694C478.997 49.037 478.811 49.2785 478.677 49.5938C478.547 49.9092 478.481 50.287 478.481 50.7274C478.481 51.1734 478.547 51.5569 478.677 51.8779C478.808 52.1961 478.991 52.4419 479.227 52.6151C479.466 52.7856 479.746 52.8708 480.067 52.8708C480.294 52.8708 480.497 52.8282 480.676 52.743C480.858 52.6549 481.01 52.5285 481.132 52.3637C481.254 52.199 481.338 51.9987 481.383 51.7629H482.858C482.821 52.2259 482.685 52.6365 482.449 52.9944C482.213 53.3495 481.892 53.6279 481.486 53.8296C481.079 54.0285 480.602 54.1279 480.054 54.1279Z" fill="#3C3A3E"/>
<path d="M486.98 54.1279C486.34 54.1279 485.786 53.9873 485.318 53.7061C484.849 53.4248 484.485 53.0313 484.227 52.5257C483.971 52.02 483.843 51.4291 483.843 50.7529C483.843 50.0768 483.971 49.4845 484.227 48.9759C484.485 48.4674 484.849 48.0725 485.318 47.7913C485.786 47.51 486.34 47.3694 486.98 47.3694C487.619 47.3694 488.173 47.51 488.642 47.7913C489.11 48.0725 489.473 48.4674 489.728 48.9759C489.987 49.4845 490.116 50.0768 490.116 50.7529C490.116 51.4291 489.987 52.02 489.728 52.5257C489.473 53.0313 489.11 53.4248 488.642 53.7061C488.173 53.9873 487.619 54.1279 486.98 54.1279ZM486.988 52.8921C487.335 52.8921 487.625 52.797 487.858 52.6066C488.09 52.4134 488.264 52.1549 488.377 51.8311C488.494 51.5072 488.552 51.1464 488.552 50.7487C488.552 50.3481 488.494 49.9859 488.377 49.662C488.264 49.3353 488.09 49.0754 487.858 48.8822C487.625 48.689 487.335 48.5924 486.988 48.5924C486.633 48.5924 486.338 48.689 486.102 48.8822C485.869 49.0754 485.694 49.3353 485.578 49.662C485.464 49.9859 485.407 50.3481 485.407 50.7487C485.407 51.1464 485.464 51.5072 485.578 51.8311C485.694 52.1549 485.869 52.4134 486.102 52.6066C486.338 52.797 486.633 52.8921 486.988 52.8921Z" fill="#3C3A3E"/>
<path d="M491.425 54.0001V47.4546H492.968V50.0967H493.53L495.499 47.4546H497.357L494.932 50.6677L497.383 54.0001H495.516L493.722 51.5328H492.968V54.0001H491.425Z" fill="#3C3A3E"/>
<rect x="323" y="98" width="160" height="4" rx="2" fill="#E6E6E6"/>
<rect x="323" y="108" width="104" height="4" rx="2" fill="#E6E6E6"/>
<path d="M316.646 77H319.295C320.794 77 321.529 76.2362 321.529 75.2167C321.529 74.2259 320.826 73.6442 320.129 73.6091V73.5451C320.768 73.3949 321.273 72.9475 321.273 72.1517C321.273 71.1769 320.57 70.4546 319.151 70.4546H316.646V77ZM317.831 76.0093V74.0917H319.138C319.87 74.0917 320.324 74.5391 320.324 75.124C320.324 75.6449 319.966 76.0093 319.106 76.0093H317.831ZM317.831 73.2383V71.4326H319.03C319.726 71.4326 320.088 71.8001 320.088 72.3051C320.088 72.8804 319.621 73.2383 319.004 73.2383H317.831Z" fill="#838383"/>
<path d="M324.651 77.0959C325.884 77.0959 326.671 76.364 326.754 75.3221H325.648C325.549 75.8495 325.169 76.1531 324.66 76.1531C323.938 76.1531 323.471 75.5491 323.471 74.5455C323.471 73.5547 323.948 72.9603 324.66 72.9603C325.216 72.9603 325.558 73.3182 325.648 73.7912H326.754C326.674 72.727 325.843 72.027 324.644 72.027C323.206 72.027 322.298 73.0657 322.298 74.5647C322.298 76.0508 323.184 77.0959 324.651 77.0959Z" fill="#838383"/>
<path d="M327.356 73.0402H328.945V77H330.063V73.0402H331.652V72.091H327.356V73.0402Z" fill="#838383"/>
<path d="M333.783 77.0991C334.554 77.0991 335.014 76.738 335.225 76.3257H335.263V77H336.375V73.7145C336.375 72.4169 335.317 72.027 334.381 72.027C333.349 72.027 332.556 72.4873 332.3 73.3821L333.381 73.5356C333.496 73.2 333.822 72.9123 334.387 72.9123C334.924 72.9123 335.218 73.1872 335.218 73.6698V73.689C335.218 74.0214 334.87 74.0373 334.004 74.13C333.051 74.2323 332.141 74.5167 332.141 75.6226C332.141 76.5878 332.847 77.0991 333.783 77.0991ZM334.084 76.249C333.601 76.249 333.256 76.0285 333.256 75.6034C333.256 75.1591 333.643 74.9738 334.161 74.9003C334.464 74.8587 335.071 74.782 335.222 74.6606V75.239C335.222 75.7856 334.781 76.249 334.084 76.249Z" fill="#838383"/>
<path d="M337.539 77H339.917C341.067 77 341.725 76.4791 341.725 75.6673C341.725 74.9802 341.192 74.5008 340.422 74.4336C341.077 74.3122 341.486 73.9638 341.486 73.4109C341.486 72.5831 340.76 72.091 339.6 72.091H337.539V77ZM338.622 76.0892V74.8715H339.917C340.342 74.8715 340.6 75.1176 340.6 75.5235C340.6 75.875 340.342 76.0892 339.917 76.0892H338.622ZM338.622 74.1236V73.0178H339.6C340.083 73.0178 340.377 73.2223 340.377 73.5579C340.377 73.9095 340.092 74.1236 339.623 74.1236H338.622Z" fill="#838383"/>
<path d="M343.796 73.689V72.091H342.68V77H344.911C346.161 77 346.88 76.3097 346.883 75.3445C346.88 74.3537 346.161 73.689 344.911 73.689H343.796ZM343.796 74.6382H344.911C345.413 74.6382 345.774 74.9354 345.774 75.3605C345.774 75.7664 345.413 76.0508 344.911 76.0508H343.796V74.6382Z" fill="#838383"/>
<path d="M347.096 73.0402H348.685V77H349.803V73.0402H351.392V72.091H347.096V73.0402Z" fill="#838383"/>
<path d="M354.284 77.0959C355.428 77.0959 356.215 76.5366 356.419 75.6833L355.339 75.5618C355.182 75.9773 354.799 76.1946 354.3 76.1946C353.552 76.1946 353.057 75.7025 353.047 74.8619H356.467V74.5071C356.467 72.7845 355.432 72.027 354.224 72.027C352.817 72.027 351.9 73.0593 351.9 74.5743C351.9 76.1147 352.805 77.0959 354.284 77.0959ZM353.051 74.0821C353.086 73.4557 353.549 72.9283 354.24 72.9283C354.904 72.9283 355.352 73.4141 355.358 74.0821H353.051Z" fill="#838383"/>
<path d="M360.794 72.091H359.678V77H360.794V75.0153H362.695V77H363.808V72.091H362.695V74.0661H360.794V72.091Z" fill="#838383"/>
<path d="M365.521 78.841C366.423 78.841 366.944 78.3775 367.222 77.5945L369.194 72.0973L367.957 72.091L366.822 75.7983H366.771L365.64 72.091H364.412L366.193 77.1023L366.094 77.3676C365.879 77.9269 365.541 77.9652 365.036 77.8182L364.767 78.7195C364.924 78.7834 365.205 78.841 365.521 78.841Z" fill="#838383"/>
<path d="M369.677 77H371.042L372.445 75.0185H372.701V77H373.858V75.0185H374.113L375.51 77H376.875L375.072 74.4656L376.859 72.091H375.523L374.126 74.0693H373.858V72.091H372.701V74.0693H372.426L371.029 72.091H369.693L371.489 74.4656L369.677 77Z" fill="#838383"/>
<path d="M378.855 72.091H377.74V77H378.855V75.0153H380.757V77H381.869V72.091H380.757V74.0661H378.855V72.091Z" fill="#838383"/>
<path d="M384.155 73.689V72.091H383.04V77H385.271C386.52 77 387.239 76.3097 387.242 75.3445C387.239 74.3537 386.52 73.689 385.271 73.689H384.155ZM387.853 77H389.01V72.091H387.853V77ZM384.155 74.6382H385.271C385.772 74.6382 386.133 74.9354 386.133 75.3605C386.133 75.7664 385.772 76.0508 385.271 76.0508H384.155V74.6382Z" fill="#838383"/>
<path d="M392.376 77.0959C393.52 77.0959 394.306 76.5366 394.511 75.6833L393.431 75.5618C393.274 75.9773 392.891 76.1946 392.392 76.1946C391.644 76.1946 391.149 75.7025 391.139 74.8619H394.559V74.5071C394.559 72.7845 393.523 72.027 392.315 72.027C390.909 72.027 389.992 73.0593 389.992 74.5743C389.992 76.1147 390.896 77.0959 392.376 77.0959ZM391.142 74.0821C391.178 73.4557 391.641 72.9283 392.331 72.9283C392.996 72.9283 393.444 73.4141 393.45 74.0821H391.142Z" fill="#838383"/>
<path d="M398.886 72.091H397.77V77H398.886V75.0153H400.787V77H401.899V72.091H400.787V74.0661H398.886V72.091Z" fill="#838383"/>
<path d="M405.211 77.0959C406.65 77.0959 407.564 76.0828 407.564 74.5647C407.564 73.0434 406.65 72.027 405.211 72.027C403.773 72.027 402.859 73.0434 402.859 74.5647C402.859 76.0828 403.773 77.0959 405.211 77.0959ZM405.218 76.1691C404.422 76.1691 404.032 75.4596 404.032 74.5615C404.032 73.6634 404.422 72.9443 405.218 72.9443C406.001 72.9443 406.391 73.6634 406.391 74.5615C406.391 75.4596 406.001 76.1691 405.218 76.1691Z" fill="#838383"/>
<path d="M411.371 75.6545L409.952 72.091H408.546V77H409.661V73.6922L410.968 77H411.777L413.129 73.657V77H414.234V72.091H412.828L411.371 75.6545Z" fill="#838383"/>
<path d="M417.574 77.0959C418.718 77.0959 419.505 76.5366 419.709 75.6833L418.629 75.5618C418.472 75.9773 418.089 76.1946 417.59 76.1946C416.842 76.1946 416.347 75.7025 416.337 74.8619H419.757V74.5071C419.757 72.7845 418.722 72.027 417.514 72.027C416.107 72.027 415.19 73.0593 415.19 74.5743C415.19 76.1147 416.095 77.0959 417.574 77.0959ZM416.341 74.0821C416.376 73.4557 416.839 72.9283 417.53 72.9283C418.194 72.9283 418.642 73.4141 418.648 74.0821H416.341Z" fill="#838383"/>
<path d="M420.736 78.841H421.893V76.2266H421.941C422.123 76.5846 422.503 77.0863 423.347 77.0863C424.504 77.0863 425.37 76.1691 425.37 74.5519C425.37 72.9155 424.479 72.027 423.344 72.027C422.478 72.027 422.117 72.548 421.941 72.9027H421.874V72.091H420.736V78.841ZM421.871 74.5455C421.871 73.5931 422.28 72.9763 423.024 72.9763C423.795 72.9763 424.191 73.6314 424.191 74.5455C424.191 75.466 423.788 76.1371 423.024 76.1371C422.286 76.1371 421.871 75.4979 421.871 74.5455Z" fill="#838383"/>
<path d="M427.774 77.0991C428.544 77.0991 429.004 76.738 429.215 76.3257H429.253V77H430.366V73.7145C430.366 72.4169 429.308 72.027 428.371 72.027C427.339 72.027 426.546 72.4873 426.291 73.3821L427.371 73.5356C427.486 73.2 427.812 72.9123 428.378 72.9123C428.915 72.9123 429.209 73.1872 429.209 73.6698V73.689C429.209 74.0214 428.86 74.0373 427.994 74.13C427.042 74.2323 426.131 74.5167 426.131 75.6226C426.131 76.5878 426.837 77.0991 427.774 77.0991ZM428.074 76.249C427.591 76.249 427.246 76.0285 427.246 75.6034C427.246 75.1591 427.633 74.9738 428.151 74.9003C428.454 74.8587 429.062 74.782 429.212 74.6606V75.239C429.212 75.7856 428.771 76.249 428.074 76.249Z" fill="#838383"/>
<path d="M318.931 145.09C318.471 145.09 318.061 145.011 317.703 144.853C317.348 144.695 317.066 144.476 316.86 144.195C316.653 143.914 316.543 143.589 316.531 143.22H317.732C317.743 143.397 317.801 143.551 317.908 143.683C318.015 143.813 318.156 143.915 318.333 143.987C318.51 144.059 318.708 144.096 318.928 144.096C319.162 144.096 319.37 144.055 319.551 143.974C319.732 143.891 319.874 143.776 319.976 143.629C320.078 143.482 320.128 143.313 320.126 143.121C320.128 142.923 320.077 142.748 319.973 142.597C319.868 142.445 319.717 142.327 319.519 142.242C319.323 142.157 319.086 142.114 318.809 142.114H318.231V141.2H318.809C319.037 141.2 319.236 141.161 319.407 141.082C319.58 141.003 319.715 140.892 319.813 140.749C319.911 140.605 319.959 140.437 319.957 140.248C319.959 140.062 319.917 139.901 319.832 139.765C319.749 139.627 319.631 139.519 319.477 139.442C319.326 139.366 319.148 139.327 318.944 139.327C318.743 139.327 318.558 139.363 318.387 139.436C318.217 139.508 318.08 139.612 317.975 139.746C317.871 139.878 317.815 140.036 317.809 140.219H316.668C316.676 139.852 316.782 139.531 316.984 139.254C317.189 138.975 317.462 138.757 317.803 138.602C318.143 138.444 318.526 138.365 318.95 138.365C319.387 138.365 319.766 138.447 320.088 138.611C320.412 138.773 320.662 138.992 320.839 139.267C321.016 139.541 321.104 139.845 321.104 140.177C321.106 140.546 320.997 140.855 320.778 141.104C320.561 141.354 320.275 141.517 319.921 141.593V141.644C320.382 141.708 320.734 141.879 320.979 142.156C321.227 142.431 321.349 142.773 321.347 143.182C321.347 143.548 321.243 143.876 321.034 144.166C320.827 144.454 320.542 144.68 320.177 144.844C319.815 145.008 319.399 145.09 318.931 145.09Z" fill="#838383"/>
<path d="M323.869 145.099C323.558 145.099 323.278 145.044 323.029 144.933C322.782 144.82 322.586 144.654 322.441 144.434C322.298 144.215 322.227 143.944 322.227 143.623C322.227 143.346 322.278 143.117 322.38 142.936C322.482 142.754 322.622 142.61 322.799 142.501C322.976 142.392 323.175 142.31 323.396 142.255C323.62 142.197 323.851 142.156 324.09 142.13C324.378 142.1 324.611 142.074 324.79 142.05C324.969 142.025 325.099 141.986 325.18 141.935C325.263 141.882 325.304 141.8 325.304 141.689V141.67C325.304 141.429 325.233 141.243 325.09 141.111C324.948 140.979 324.742 140.912 324.473 140.912C324.19 140.912 323.965 140.974 323.799 141.098C323.635 141.221 323.524 141.367 323.467 141.536L322.386 141.382C322.472 141.084 322.612 140.835 322.808 140.634C323.004 140.432 323.244 140.281 323.527 140.181C323.811 140.078 324.124 140.027 324.467 140.027C324.704 140.027 324.939 140.055 325.173 140.11C325.408 140.166 325.622 140.257 325.816 140.385C326.01 140.511 326.165 140.682 326.282 140.9C326.402 141.117 326.461 141.389 326.461 141.715V145H325.349V144.326H325.311C325.24 144.462 325.141 144.59 325.014 144.709C324.888 144.827 324.729 144.921 324.537 144.994C324.348 145.064 324.125 145.099 323.869 145.099ZM324.17 144.249C324.402 144.249 324.603 144.203 324.774 144.112C324.944 144.018 325.075 143.894 325.167 143.741C325.261 143.588 325.308 143.42 325.308 143.239V142.661C325.271 142.691 325.21 142.718 325.122 142.744C325.037 142.769 324.941 142.792 324.835 142.811C324.728 142.83 324.623 142.847 324.518 142.862C324.414 142.877 324.323 142.89 324.247 142.9C324.074 142.924 323.919 142.962 323.783 143.015C323.647 143.069 323.539 143.143 323.46 143.239C323.381 143.333 323.342 143.454 323.342 143.604C323.342 143.817 323.42 143.977 323.575 144.086C323.731 144.195 323.929 144.249 324.17 144.249Z" fill="#838383"/>
<path d="M330.872 140.091V141.04H328.756V145H327.625V140.091H330.872Z" fill="#838383"/>
<path d="M331.8 146.841V140.091H332.937V140.903H333.004C333.064 140.784 333.148 140.657 333.257 140.523C333.366 140.386 333.513 140.27 333.698 140.174C333.883 140.076 334.12 140.027 334.407 140.027C334.787 140.027 335.129 140.124 335.433 140.318C335.74 140.51 335.983 140.794 336.162 141.171C336.343 141.546 336.434 142.007 336.434 142.552C336.434 143.091 336.345 143.549 336.168 143.926C335.992 144.303 335.751 144.591 335.446 144.789C335.141 144.987 334.796 145.086 334.411 145.086C334.129 145.086 333.896 145.04 333.711 144.946C333.525 144.852 333.376 144.739 333.263 144.607C333.152 144.473 333.066 144.346 333.004 144.227H332.956V146.841H331.8ZM332.934 142.546C332.934 142.863 332.979 143.141 333.068 143.38C333.16 143.618 333.291 143.805 333.461 143.939C333.634 144.071 333.843 144.137 334.088 144.137C334.344 144.137 334.558 144.069 334.73 143.933C334.903 143.794 335.033 143.606 335.12 143.367C335.21 143.126 335.254 142.852 335.254 142.546C335.254 142.241 335.211 141.97 335.123 141.734C335.036 141.497 334.906 141.312 334.733 141.178C334.561 141.044 334.346 140.976 334.088 140.976C333.841 140.976 333.631 141.041 333.458 141.171C333.286 141.301 333.155 141.483 333.065 141.718C332.978 141.952 332.934 142.228 332.934 142.546Z" fill="#838383"/>
<path d="M337.977 146.841C337.819 146.841 337.673 146.828 337.539 146.803C337.407 146.779 337.301 146.752 337.222 146.72L337.491 145.818C337.659 145.867 337.809 145.891 337.941 145.889C338.074 145.887 338.19 145.845 338.29 145.764C338.392 145.685 338.478 145.553 338.549 145.368L338.648 145.102L336.868 140.091H338.095L339.226 143.798H339.277L340.412 140.091H341.642L339.677 145.595C339.585 145.855 339.464 146.077 339.313 146.263C339.161 146.45 338.976 146.593 338.756 146.691C338.539 146.791 338.279 146.841 337.977 146.841Z" fill="#838383"/>
<path d="M342.171 143.655H343.319C343.329 143.838 343.411 143.98 343.565 144.08C343.718 144.18 343.918 144.23 344.163 144.23C344.412 144.23 344.622 144.176 344.792 144.067C344.965 143.956 345.051 143.789 345.051 143.565C345.051 143.433 345.018 143.317 344.952 143.217C344.886 143.115 344.793 143.036 344.674 142.98C344.555 142.925 344.414 142.897 344.252 142.897H343.501V142.076H344.252C344.493 142.076 344.675 142.02 344.799 141.91C344.924 141.799 344.987 141.659 344.987 141.491C344.987 141.31 344.921 141.163 344.789 141.05C344.659 140.937 344.479 140.881 344.249 140.881C344.019 140.881 343.827 140.933 343.674 141.037C343.522 141.142 343.443 141.276 343.437 141.44H342.296C342.3 141.154 342.386 140.906 342.552 140.695C342.72 140.484 342.946 140.32 343.229 140.203C343.515 140.086 343.837 140.027 344.194 140.027C344.578 140.027 344.909 140.085 345.188 140.2C345.468 140.315 345.683 140.476 345.834 140.682C345.985 140.887 346.061 141.128 346.061 141.405C346.061 141.671 345.978 141.892 345.812 142.066C345.645 142.239 345.422 142.362 345.141 142.437V142.488C345.334 142.499 345.509 142.554 345.665 142.654C345.82 142.752 345.944 142.885 346.035 143.054C346.127 143.222 346.173 143.417 346.173 143.639C346.173 143.939 346.087 144.199 345.914 144.419C345.741 144.636 345.504 144.803 345.201 144.92C344.901 145.037 344.557 145.096 344.169 145.096C343.792 145.096 343.454 145.04 343.156 144.927C342.86 144.812 342.624 144.646 342.449 144.431C342.275 144.216 342.182 143.957 342.171 143.655Z" fill="#838383"/>
<path d="M348.199 143.434L350.165 140.091H351.354V145H350.235V141.654L348.276 145H347.084V140.091H348.199V143.434Z" fill="#838383"/>
<path d="M351.992 141.04V140.091H356.287V141.04H354.699V145H353.58V141.04H351.992Z" fill="#838383"/>
<path d="M359.18 145.096C358.688 145.096 358.263 144.994 357.905 144.789C357.549 144.583 357.275 144.291 357.083 143.914C356.891 143.534 356.796 143.088 356.796 142.574C356.796 142.069 356.891 141.626 357.083 141.245C357.277 140.861 357.548 140.563 357.895 140.35C358.242 140.135 358.65 140.027 359.119 140.027C359.422 140.027 359.707 140.076 359.976 140.174C360.246 140.27 360.485 140.419 360.692 140.622C360.9 140.824 361.064 141.082 361.184 141.395C361.303 141.706 361.363 142.077 361.363 142.507V142.862H357.339V142.082H360.254C360.252 141.861 360.204 141.664 360.11 141.491C360.016 141.316 359.885 141.179 359.717 141.079C359.551 140.979 359.357 140.928 359.135 140.928C358.899 140.928 358.691 140.986 358.512 141.101C358.333 141.214 358.193 141.363 358.093 141.548C357.995 141.732 357.945 141.933 357.943 142.153V142.833C357.943 143.119 357.995 143.364 358.1 143.568C358.204 143.771 358.35 143.926 358.537 144.035C358.725 144.142 358.944 144.195 359.196 144.195C359.364 144.195 359.516 144.171 359.653 144.124C359.789 144.075 359.907 144.004 360.008 143.91C360.108 143.817 360.183 143.7 360.235 143.562L361.315 143.683C361.247 143.969 361.117 144.218 360.925 144.431C360.735 144.642 360.492 144.806 360.196 144.923C359.9 145.039 359.561 145.096 359.18 145.096Z" fill="#838383"/>
<path d="M368.674 140.091V145H367.562V140.091H368.674ZM368.153 142.309V143.255C368.028 143.311 367.885 143.361 367.725 143.405C367.568 143.448 367.4 143.482 367.223 143.508C367.049 143.533 366.874 143.546 366.699 143.546C366.043 143.546 365.524 143.399 365.143 143.105C364.764 142.809 364.574 142.347 364.574 141.721V140.085H365.68V141.721C365.68 141.932 365.717 142.101 365.792 142.229C365.866 142.357 365.979 142.451 366.13 142.51C366.282 142.568 366.471 142.597 366.699 142.597C366.955 142.597 367.198 142.571 367.428 142.52C367.658 142.469 367.9 142.399 368.153 142.309Z" fill="#838383"/>
<path d="M372.012 145.096C371.52 145.096 371.095 144.994 370.737 144.789C370.381 144.583 370.107 144.291 369.915 143.914C369.724 143.534 369.628 143.088 369.628 142.574C369.628 142.069 369.724 141.626 369.915 141.245C370.109 140.861 370.38 140.563 370.727 140.35C371.074 140.135 371.482 140.027 371.951 140.027C372.254 140.027 372.539 140.076 372.808 140.174C373.078 140.27 373.317 140.419 373.524 140.622C373.732 140.824 373.896 141.082 374.016 141.395C374.135 141.706 374.195 142.077 374.195 142.507V142.862H370.171V142.082H373.086C373.084 141.861 373.036 141.664 372.942 141.491C372.848 141.316 372.717 141.179 372.549 141.079C372.383 140.979 372.189 140.928 371.967 140.928C371.731 140.928 371.523 140.986 371.344 141.101C371.165 141.214 371.025 141.363 370.925 141.548C370.827 141.732 370.777 141.933 370.775 142.153V142.833C370.775 143.119 370.827 143.364 370.932 143.568C371.036 143.771 371.182 143.926 371.369 144.035C371.557 144.142 371.776 144.195 372.028 144.195C372.196 144.195 372.349 144.171 372.485 144.124C372.621 144.075 372.74 144.004 372.84 143.91C372.94 143.817 373.015 143.7 373.067 143.562L374.147 143.683C374.079 143.969 373.949 144.218 373.757 144.431C373.567 144.642 373.324 144.806 373.028 144.923C372.732 145.039 372.393 145.096 372.012 145.096Z" fill="#838383"/>
<path d="M375.174 146.841V140.091H376.311V140.903H376.378C376.438 140.784 376.522 140.657 376.631 140.523C376.74 140.386 376.887 140.27 377.072 140.174C377.257 140.076 377.494 140.027 377.781 140.027C378.161 140.027 378.503 140.124 378.807 140.318C379.114 140.51 379.357 140.794 379.536 141.171C379.717 141.546 379.808 142.007 379.808 142.552C379.808 143.091 379.719 143.549 379.543 143.926C379.366 144.303 379.125 144.591 378.82 144.789C378.516 144.987 378.17 145.086 377.785 145.086C377.503 145.086 377.27 145.04 377.085 144.946C376.899 144.852 376.75 144.739 376.637 144.607C376.527 144.473 376.44 144.346 376.378 144.227H376.331V146.841H375.174ZM376.308 142.546C376.308 142.863 376.353 143.141 376.442 143.38C376.534 143.618 376.665 143.805 376.835 143.939C377.008 144.071 377.217 144.137 377.462 144.137C377.718 144.137 377.932 144.069 378.104 143.933C378.277 143.794 378.407 143.606 378.494 143.367C378.584 143.126 378.628 142.852 378.628 142.546C378.628 142.241 378.585 141.97 378.497 141.734C378.41 141.497 378.28 141.312 378.107 141.178C377.935 141.044 377.72 140.976 377.462 140.976C377.215 140.976 377.005 141.041 376.832 141.171C376.66 141.301 376.529 141.483 376.439 141.718C376.352 141.952 376.308 142.228 376.308 142.546Z" fill="#838383"/>
<path d="M382.972 145.096C382.48 145.096 382.055 144.994 381.697 144.789C381.341 144.583 381.067 144.291 380.875 143.914C380.683 143.534 380.588 143.088 380.588 142.574C380.588 142.069 380.683 141.626 380.875 141.245C381.069 140.861 381.34 140.563 381.687 140.35C382.034 140.135 382.442 140.027 382.911 140.027C383.214 140.027 383.499 140.076 383.768 140.174C384.038 140.27 384.277 140.419 384.484 140.622C384.692 140.824 384.856 141.082 384.976 141.395C385.095 141.706 385.155 142.077 385.155 142.507V142.862H381.131V142.082H384.046C384.044 141.861 383.996 141.664 383.902 141.491C383.808 141.316 383.677 141.179 383.509 141.079C383.343 140.979 383.149 140.928 382.927 140.928C382.691 140.928 382.483 140.986 382.304 141.101C382.125 141.214 381.985 141.363 381.885 141.548C381.787 141.732 381.737 141.933 381.735 142.153V142.833C381.735 143.119 381.787 143.364 381.892 143.568C381.996 143.771 382.142 143.926 382.329 144.035C382.517 144.142 382.736 144.195 382.988 144.195C383.156 144.195 383.308 144.171 383.445 144.124C383.581 144.075 383.699 144.004 383.8 143.91C383.9 143.817 383.975 143.7 384.027 143.562L385.107 143.683C385.039 143.969 384.909 144.218 384.717 144.431C384.527 144.642 384.284 144.806 383.988 144.923C383.692 145.039 383.353 145.096 382.972 145.096Z" fill="#838383"/>
<path d="M385.862 143.655H387.009C387.02 143.838 387.102 143.98 387.255 144.08C387.409 144.18 387.608 144.23 387.853 144.23C388.102 144.23 388.312 144.176 388.483 144.067C388.655 143.956 388.741 143.789 388.741 143.565C388.741 143.433 388.708 143.317 388.642 143.217C388.576 143.115 388.484 143.036 388.364 142.98C388.245 142.925 388.104 142.897 387.942 142.897H387.191V142.076H387.942C388.183 142.076 388.365 142.02 388.489 141.91C388.615 141.799 388.678 141.659 388.678 141.491C388.678 141.31 388.611 141.163 388.479 141.05C388.349 140.937 388.169 140.881 387.939 140.881C387.709 140.881 387.517 140.933 387.364 141.037C387.213 141.142 387.134 141.276 387.127 141.44H385.986C385.991 141.154 386.076 140.906 386.242 140.695C386.41 140.484 386.636 140.32 386.92 140.203C387.205 140.086 387.527 140.027 387.885 140.027C388.268 140.027 388.6 140.085 388.879 140.2C389.158 140.315 389.373 140.476 389.524 140.682C389.676 140.887 389.751 141.128 389.751 141.405C389.751 141.671 389.668 141.892 389.502 142.066C389.336 142.239 389.112 142.362 388.831 142.437V142.488C389.025 142.499 389.2 142.554 389.355 142.654C389.511 142.752 389.634 142.885 389.726 143.054C389.817 143.222 389.863 143.417 389.863 143.639C389.863 143.939 389.777 144.199 389.604 144.419C389.432 144.636 389.194 144.803 388.892 144.92C388.591 145.037 388.247 145.096 387.859 145.096C387.482 145.096 387.145 145.04 386.846 144.927C386.55 144.812 386.315 144.646 386.14 144.431C385.965 144.216 385.872 143.957 385.862 143.655Z" fill="#838383"/>
<path d="M394.048 138.455L395.49 140.852H395.541L396.989 138.455H398.341L396.324 141.727L398.373 145H396.998L395.541 142.619H395.49L394.032 145H392.665L394.732 141.727L392.69 138.455H394.048Z" fill="#838383"/>
<path d="M399.272 145V138.455H400.457V144.006H403.34V145H399.272Z" fill="#838383"/>
<path d="M407.926 140.254C407.897 139.975 407.771 139.758 407.549 139.602C407.33 139.447 407.044 139.369 406.693 139.369C406.446 139.369 406.234 139.406 406.057 139.481C405.88 139.555 405.745 139.656 405.651 139.784C405.557 139.912 405.509 140.058 405.507 140.222C405.507 140.358 405.538 140.477 405.6 140.577C405.664 140.677 405.75 140.762 405.859 140.833C405.967 140.901 406.088 140.958 406.22 141.005C406.352 141.052 406.485 141.091 406.619 141.123L407.233 141.277C407.48 141.334 407.718 141.412 407.946 141.51C408.176 141.608 408.381 141.732 408.562 141.881C408.746 142.03 408.891 142.21 408.997 142.421C409.104 142.632 409.157 142.879 409.157 143.162C409.157 143.546 409.059 143.884 408.863 144.176C408.667 144.465 408.383 144.692 408.013 144.856C407.644 145.018 407.198 145.099 406.674 145.099C406.164 145.099 405.722 145.02 405.347 144.863C404.974 144.705 404.682 144.475 404.471 144.172C404.263 143.87 404.15 143.501 404.133 143.067H405.299C405.316 143.295 405.387 143.484 405.51 143.635C405.634 143.787 405.795 143.9 405.993 143.974C406.193 144.049 406.417 144.086 406.664 144.086C406.922 144.086 407.148 144.048 407.342 143.971C407.538 143.892 407.691 143.784 407.802 143.645C407.913 143.504 407.969 143.34 407.971 143.153C407.969 142.982 407.919 142.842 407.821 142.731C407.723 142.618 407.585 142.524 407.409 142.45C407.234 142.373 407.029 142.305 406.795 142.245L406.05 142.053C405.511 141.915 405.085 141.705 404.772 141.424C404.461 141.14 404.305 140.764 404.305 140.296C404.305 139.91 404.41 139.572 404.618 139.282C404.829 138.993 405.116 138.768 405.478 138.608C405.84 138.446 406.251 138.365 406.709 138.365C407.173 138.365 407.58 138.446 407.93 138.608C408.281 138.768 408.557 138.991 408.757 139.276C408.958 139.559 409.061 139.885 409.067 140.254H407.926Z" fill="#838383"/>
<path d="M413.511 143.434L415.476 140.091H416.665V145H415.547V141.654L413.587 145H412.395V140.091H413.511V143.434Z" fill="#838383"/>
<path d="M417.514 145L417.508 144.048H417.677C417.805 144.048 417.913 144.019 418 143.961C418.088 143.904 418.16 143.808 418.218 143.674C418.275 143.537 418.32 143.354 418.352 143.124C418.384 142.894 418.406 142.607 418.419 142.264L418.505 140.091H422.085V145H420.966V141.04H419.557L419.48 142.622C419.461 143.031 419.415 143.386 419.343 143.687C419.272 143.985 419.172 144.231 419.042 144.425C418.914 144.619 418.753 144.764 418.56 144.86C418.366 144.953 418.137 145 417.872 145H417.514Z" fill="#838383"/>
<path d="M424.365 143.434L426.331 140.091H427.52V145H426.401V141.654L424.442 145H423.25V140.091H424.365V143.434Z" fill="#838383"/>
<path d="M431.832 145H430.566L432.871 138.455H434.334L436.642 145H435.376L433.628 139.797H433.577L431.832 145ZM431.873 142.434H435.325V143.386H431.873V142.434Z" fill="#838383"/>
<path d="M437.504 145V138.455H439.959C440.461 138.455 440.883 138.548 441.224 138.736C441.567 138.923 441.826 139.181 442.001 139.509C442.178 139.835 442.266 140.206 442.266 140.622C442.266 141.041 442.178 141.414 442.001 141.74C441.824 142.066 441.563 142.323 441.218 142.51C440.873 142.696 440.448 142.789 439.943 142.789H438.316V141.814H439.783C440.077 141.814 440.318 141.763 440.505 141.66C440.693 141.558 440.831 141.417 440.921 141.238C441.012 141.059 441.058 140.854 441.058 140.622C441.058 140.389 441.012 140.185 440.921 140.008C440.831 139.831 440.691 139.694 440.502 139.596C440.314 139.496 440.073 139.445 439.776 139.445H438.69V145H437.504Z" fill="#838383"/>
<path d="M444.482 138.455V145H443.296V138.455H444.482Z" fill="#838383"/>
<path d="M448.578 141.798V142.75H445.631V141.798H448.578Z" fill="#838383"/>
<path d="M450.688 143.434L452.654 140.091H453.843V145H452.724V141.654L450.765 145H449.573V140.091H450.688V143.434Z" fill="#838383"/>
<path d="M458.403 142.066V143.015H455.788V142.066H458.403ZM456.146 140.091V145H455.031V140.091H456.146ZM459.16 140.091V145H458.048V140.091H459.16Z" fill="#838383"/>
<path d="M459.781 141.04V140.091H464.077V141.04H462.488V145H461.369V141.04H459.781Z" fill="#838383"/>
<path d="M466.969 145.096C466.477 145.096 466.052 144.994 465.694 144.789C465.338 144.583 465.064 144.291 464.872 143.914C464.681 143.534 464.585 143.088 464.585 142.574C464.585 142.069 464.681 141.626 464.872 141.245C465.066 140.861 465.337 140.563 465.684 140.35C466.031 140.135 466.439 140.027 466.908 140.027C467.211 140.027 467.496 140.076 467.765 140.174C468.035 140.27 468.274 140.419 468.481 140.622C468.689 140.824 468.853 141.082 468.973 141.395C469.092 141.706 469.152 142.077 469.152 142.507V142.862H465.128V142.082H468.043C468.041 141.861 467.993 141.664 467.899 141.491C467.805 141.316 467.674 141.179 467.506 141.079C467.34 140.979 467.146 140.928 466.924 140.928C466.688 140.928 466.48 140.986 466.301 141.101C466.122 141.214 465.982 141.363 465.882 141.548C465.784 141.732 465.734 141.933 465.732 142.153V142.833C465.732 143.119 465.784 143.364 465.889 143.568C465.993 143.771 466.139 143.926 466.327 144.035C466.514 144.142 466.733 144.195 466.985 144.195C467.153 144.195 467.306 144.171 467.442 144.124C467.578 144.075 467.697 144.004 467.797 143.91C467.897 143.817 467.972 143.7 468.024 143.562L469.104 143.683C469.036 143.969 468.906 144.218 468.714 144.431C468.524 144.642 468.281 144.806 467.985 144.923C467.689 145.039 467.35 145.096 466.969 145.096Z" fill="#838383"/>
<path d="M473.378 140.091V141.04H471.262V145H470.131V140.091H473.378Z" fill="#838383"/>
<path d="M474.305 146.841V140.091H475.443V140.903H475.51C475.57 140.784 475.654 140.657 475.763 140.523C475.871 140.386 476.018 140.27 476.204 140.174C476.389 140.076 476.626 140.027 476.913 140.027C477.293 140.027 477.635 140.124 477.939 140.318C478.246 140.51 478.489 140.794 478.668 141.171C478.849 141.546 478.94 142.007 478.94 142.552C478.94 143.091 478.851 143.549 478.674 143.926C478.497 144.303 478.257 144.591 477.952 144.789C477.647 144.987 477.302 145.086 476.917 145.086C476.635 145.086 476.402 145.04 476.217 144.946C476.031 144.852 475.882 144.739 475.769 144.607C475.658 144.473 475.572 144.346 475.51 144.227H475.462V146.841H474.305ZM475.44 142.546C475.44 142.863 475.485 143.141 475.574 143.38C475.666 143.618 475.797 143.805 475.967 143.939C476.14 144.071 476.349 144.137 476.594 144.137C476.849 144.137 477.064 144.069 477.236 143.933C477.409 143.794 477.539 143.606 477.626 143.367C477.716 143.126 477.76 142.852 477.76 142.546C477.76 142.241 477.717 141.97 477.629 141.734C477.542 141.497 477.412 141.312 477.239 141.178C477.067 141.044 476.852 140.976 476.594 140.976C476.347 140.976 476.137 141.041 475.964 141.171C475.792 141.301 475.66 141.483 475.571 141.718C475.484 141.952 475.44 142.228 475.44 142.546Z" fill="#838383"/>
<path d="M481.343 145.099C481.032 145.099 480.752 145.044 480.502 144.933C480.255 144.82 480.059 144.654 479.914 144.434C479.772 144.215 479.7 143.944 479.7 143.623C479.7 143.346 479.751 143.117 479.854 142.936C479.956 142.754 480.096 142.61 480.272 142.501C480.449 142.392 480.648 142.31 480.87 142.255C481.094 142.197 481.325 142.156 481.564 142.13C481.851 142.1 482.085 142.074 482.263 142.05C482.442 142.025 482.572 141.986 482.653 141.935C482.736 141.882 482.778 141.8 482.778 141.689V141.67C482.778 141.429 482.707 141.243 482.564 141.111C482.421 140.979 482.216 140.912 481.947 140.912C481.664 140.912 481.439 140.974 481.273 141.098C481.109 141.221 480.998 141.367 480.94 141.536L479.86 141.382C479.945 141.084 480.086 140.835 480.282 140.634C480.478 140.432 480.718 140.281 481.001 140.181C481.284 140.078 481.598 140.027 481.941 140.027C482.177 140.027 482.413 140.055 482.647 140.11C482.881 140.166 483.096 140.257 483.289 140.385C483.483 140.511 483.639 140.682 483.756 140.9C483.875 141.117 483.935 141.389 483.935 141.715V145H482.823V144.326H482.784C482.714 144.462 482.615 144.59 482.487 144.709C482.361 144.827 482.203 144.921 482.011 144.994C481.821 145.064 481.599 145.099 481.343 145.099ZM481.643 144.249C481.876 144.249 482.077 144.203 482.247 144.112C482.418 144.018 482.549 143.894 482.641 143.741C482.734 143.588 482.781 143.42 482.781 143.239V142.661C482.745 142.691 482.683 142.718 482.596 142.744C482.511 142.769 482.415 142.792 482.308 142.811C482.202 142.83 482.096 142.847 481.992 142.862C481.887 142.877 481.797 142.89 481.72 142.9C481.548 142.924 481.393 142.962 481.257 143.015C481.12 143.069 481.013 143.143 480.934 143.239C480.855 143.333 480.816 143.454 480.816 143.604C480.816 143.817 480.893 143.977 481.049 144.086C481.205 144.195 481.403 144.249 481.643 144.249Z" fill="#838383"/>
<path d="M489.244 140.091V144.137H489.995V146.579H488.863V145H485.098V140.091H486.214V144.051H488.138V140.091H489.244Z" fill="#838383"/>
<path d="M492.058 143.434L494.024 140.091H495.213V145H494.094V141.654L492.135 145H490.943V140.091H492.058V143.434Z" fill="#838383"/>
<path d="M498.993 142.101V143.054H496.35V142.101H498.993ZM497.267 140.091V145H496.107V140.091H497.267ZM500.476 145.096C500.003 145.096 499.593 144.988 499.246 144.773C498.9 144.558 498.633 144.26 498.443 143.878C498.254 143.497 498.159 143.056 498.159 142.555C498.159 142.055 498.254 141.615 498.443 141.235C498.633 140.856 498.9 140.56 499.246 140.347C499.593 140.134 500.003 140.027 500.476 140.027C500.947 140.027 501.355 140.134 501.7 140.347C502.047 140.56 502.316 140.856 502.505 141.235C502.697 141.615 502.793 142.055 502.793 142.555C502.793 143.056 502.697 143.497 502.505 143.878C502.316 144.26 502.047 144.558 501.7 144.773C501.355 144.988 500.947 145.096 500.476 145.096ZM500.476 144.137C500.755 144.137 500.983 144.067 501.16 143.926C501.337 143.786 501.467 143.596 501.55 143.357C501.633 143.119 501.675 142.851 501.675 142.555C501.675 142.259 501.633 141.992 501.55 141.753C501.467 141.514 501.337 141.326 501.16 141.187C500.983 141.047 500.755 140.976 500.476 140.976C500.195 140.976 499.965 141.047 499.786 141.187C499.609 141.326 499.479 141.514 499.396 141.753C499.313 141.992 499.271 142.259 499.271 142.555C499.271 142.854 499.313 143.122 499.396 143.361C499.479 143.599 499.609 143.789 499.786 143.93C499.965 144.068 500.195 144.137 500.476 144.137Z" fill="#838383"/>
<path d="M345.636 162.455H344.278L346.32 165.727L344.252 169H345.62L347.078 166.619H347.129L348.586 169H349.961L347.912 165.727L349.929 162.455H348.577L347.129 164.852H347.078L345.636 162.455Z" fill="#838383"/>
<path d="M350.859 169H354.928V168.006H352.045V162.455H350.859V169Z" fill="#838383"/>
<path d="M359.514 164.254H360.655C360.633 163.148 359.69 162.365 358.297 162.365C356.922 162.365 355.89 163.139 355.893 164.296C355.893 165.235 356.561 165.775 357.638 166.053L358.383 166.245C359.089 166.424 359.556 166.645 359.559 167.153C359.556 167.712 359.025 168.086 358.252 168.086C357.51 168.086 356.935 167.754 356.887 167.067H355.721C355.769 168.367 356.737 169.099 358.261 169.099C359.831 169.099 360.742 168.316 360.745 167.162C360.742 166.028 359.805 165.51 358.821 165.277L358.207 165.123C357.67 164.996 357.088 164.769 357.095 164.222C357.098 163.73 357.539 163.369 358.281 163.369C358.987 163.369 359.454 163.698 359.514 164.254Z" fill="#838383"/>
<rect x="316.5" y="88.5" width="242" height="33" rx="2.5" stroke="#E6E6E6"/>
<rect x="316" y="156" width="23" height="19" rx="3" fill="#F4774C"/>
<path d="M323 168.781H332V170H323V168.781ZM329.156 161H325.844V164.725H323.774L327.5 168.194L331.226 164.725H329.156V161Z" fill="white"/>
<g filter="url(#filter1_d_1334_6487)">
<rect x="293" y="211" width="289" height="59" rx="9" fill="white"/>
</g>
<path d="M317.981 239H316.294L319.366 230.273H321.318L324.395 239H322.707L320.376 232.063H320.308L317.981 239ZM318.037 235.578H322.639V236.848H318.037V235.578Z" fill="#3C3A3E"/>
<path d="M325.476 239V232.455H327.019V235.097H327.581L329.55 232.455H331.408L328.983 235.668L331.434 239H329.567L327.773 236.533H327.019V239H325.476Z" fill="#3C3A3E"/>
<path d="M331.95 233.72V232.455H337.677V233.72H335.56V239H334.068V233.72H331.95Z" fill="#3C3A3E"/>
<path d="M340.393 236.912L343.014 232.455H344.599V239H343.108V234.539L340.495 239H338.906V232.455H340.393V236.912Z" fill="#3C3A3E"/>
<path d="M346.183 239V232.455H348.932C349.707 232.455 350.32 232.61 350.768 232.919C351.22 233.229 351.446 233.661 351.446 234.215C351.446 234.581 351.318 234.881 351.062 235.114C350.81 235.344 350.464 235.499 350.027 235.578C350.371 235.607 350.672 235.693 350.93 235.838C351.192 235.983 351.396 236.174 351.544 236.409C351.692 236.645 351.766 236.916 351.766 237.223C351.766 237.584 351.67 237.898 351.48 238.165C351.293 238.429 351.018 238.635 350.658 238.783C350.3 238.928 349.865 239 349.354 239H346.183ZM347.628 237.786H349.354C349.638 237.786 349.861 237.719 350.023 237.585C350.185 237.449 350.266 237.264 350.266 237.031C350.266 236.762 350.185 236.55 350.023 236.397C349.861 236.24 349.638 236.162 349.354 236.162H347.628V237.786ZM347.628 235.165H348.962C349.172 235.165 349.352 235.135 349.503 235.076C349.653 235.013 349.768 234.926 349.848 234.816C349.927 234.702 349.967 234.567 349.967 234.411C349.967 234.186 349.875 234.01 349.69 233.882C349.508 233.754 349.256 233.691 348.932 233.691H347.628V235.165Z" fill="#3C3A3E"/>
<path d="M357.534 235.088V236.354H354.049V235.088H357.534ZM354.526 232.455V239H353.039V232.455H354.526ZM358.544 232.455V239H357.061V232.455H358.544Z" fill="#3C3A3E"/>
<path d="M361.149 234.585H363.079C363.915 234.585 364.561 234.789 365.018 235.195C365.476 235.601 365.706 236.134 365.709 236.793C365.706 237.222 365.601 237.602 365.393 237.935C365.189 238.267 364.891 238.529 364.498 238.719C364.109 238.906 363.636 239 363.079 239H360.105V232.455H361.592V237.735H363.079C363.415 237.735 363.69 237.649 363.906 237.479C364.122 237.306 364.23 237.084 364.23 236.814C364.23 236.53 364.122 236.299 363.906 236.12C363.69 235.941 363.415 235.851 363.079 235.851H361.149V234.585ZM366.523 239V232.455H368.065V239H366.523Z" fill="#3C3A3E"/>
<path d="M372.554 239.128C371.897 239.128 371.331 238.992 370.853 238.719C370.379 238.443 370.014 238.054 369.758 237.551C369.502 237.046 369.375 236.451 369.375 235.766C369.375 235.093 369.502 234.502 369.758 233.993C370.017 233.482 370.377 233.084 370.84 232.8C371.304 232.513 371.848 232.37 372.473 232.37C372.876 232.37 373.257 232.435 373.615 232.566C373.975 232.693 374.294 232.892 374.569 233.162C374.848 233.432 375.066 233.776 375.225 234.193C375.385 234.608 375.464 235.102 375.464 235.676V236.149H370.099V235.11H373.985C373.983 234.814 373.919 234.551 373.794 234.321C373.669 234.088 373.494 233.905 373.269 233.772C373.048 233.638 372.789 233.571 372.494 233.571C372.179 233.571 371.902 233.648 371.663 233.801C371.424 233.952 371.238 234.151 371.105 234.398C370.974 234.642 370.907 234.911 370.904 235.203V236.111C370.904 236.492 370.974 236.818 371.113 237.091C371.252 237.361 371.447 237.568 371.697 237.713C371.947 237.855 372.24 237.926 372.575 237.926C372.799 237.926 373.002 237.895 373.184 237.833C373.366 237.767 373.524 237.672 373.657 237.547C373.791 237.422 373.892 237.267 373.96 237.083L375.4 237.245C375.309 237.625 375.136 237.958 374.88 238.242C374.627 238.523 374.304 238.742 373.909 238.898C373.514 239.051 373.062 239.128 372.554 239.128Z" fill="#3C3A3E"/>
<path d="M447.981 239H446.294L449.366 230.273H451.318L454.395 239H452.707L450.376 232.063H450.308L447.981 239ZM448.037 235.578H452.639V236.848H448.037V235.578Z" fill="#3C3A3E"/>
<path d="M455.476 241.455V232.455H456.993V233.537H457.083C457.162 233.378 457.274 233.209 457.419 233.03C457.564 232.848 457.76 232.693 458.007 232.566C458.255 232.435 458.57 232.37 458.953 232.37C459.459 232.37 459.915 232.499 460.321 232.757C460.73 233.013 461.054 233.392 461.293 233.895C461.534 234.395 461.655 235.009 461.655 235.736C461.655 236.455 461.537 237.066 461.301 237.568C461.066 238.071 460.745 238.455 460.338 238.719C459.932 238.983 459.472 239.115 458.958 239.115C458.583 239.115 458.272 239.053 458.024 238.928C457.777 238.803 457.578 238.652 457.428 238.476C457.28 238.297 457.165 238.128 457.083 237.969H457.019V241.455H455.476ZM456.989 235.727C456.989 236.151 457.049 236.522 457.168 236.84C457.29 237.158 457.465 237.406 457.692 237.585C457.922 237.762 458.201 237.85 458.527 237.85C458.868 237.85 459.154 237.759 459.384 237.577C459.614 237.392 459.787 237.141 459.904 236.823C460.023 236.502 460.083 236.137 460.083 235.727C460.083 235.321 460.024 234.96 459.908 234.645C459.791 234.33 459.618 234.083 459.388 233.904C459.158 233.725 458.871 233.635 458.527 233.635C458.198 233.635 457.918 233.722 457.688 233.895C457.458 234.068 457.283 234.311 457.164 234.624C457.047 234.936 456.989 235.304 456.989 235.727Z" fill="#3C3A3E"/>
<path d="M463.991 232.455L465.312 234.871L466.655 232.455H468.287L466.314 235.727L468.321 239H466.697L465.312 236.644L463.94 239H462.304L464.298 235.727L462.355 232.455H463.991Z" fill="#3C3A3E"/>
<path d="M470.967 236.912L473.588 232.455H475.173V239H473.682V234.539L471.07 239H469.48V232.455H470.967V236.912Z" fill="#3C3A3E"/>
<path d="M476.757 239V232.455H479.506C480.282 232.455 480.894 232.61 481.343 232.919C481.794 233.229 482.02 233.661 482.02 234.215C482.02 234.581 481.892 234.881 481.637 235.114C481.384 235.344 481.039 235.499 480.601 235.578C480.945 235.607 481.246 235.693 481.505 235.838C481.766 235.983 481.97 236.174 482.118 236.409C482.266 236.645 482.34 236.916 482.34 237.223C482.34 237.584 482.245 237.898 482.054 238.165C481.867 238.429 481.593 238.635 481.232 238.783C480.874 238.928 480.439 239 479.928 239H476.757ZM478.202 237.786H479.928C480.212 237.786 480.435 237.719 480.597 237.585C480.759 237.449 480.84 237.264 480.84 237.031C480.84 236.762 480.759 236.55 480.597 236.397C480.435 236.24 480.212 236.162 479.928 236.162H478.202V237.786ZM478.202 235.165H479.536C479.746 235.165 479.926 235.135 480.077 235.076C480.228 235.013 480.343 234.926 480.422 234.816C480.502 234.702 480.541 234.567 480.541 234.411C480.541 234.186 480.449 234.01 480.264 233.882C480.083 233.754 479.83 233.691 479.506 233.691H478.202V235.165Z" fill="#3C3A3E"/>
<path fill-rule="evenodd" clip-rule="evenodd" d="M315 250V249H315.268C315.613 248.402 316.26 248 317 248H395C395.74 248 396.387 248.402 396.732 249H556V250H397C397 251.105 396.105 252 395 252H317C315.895 252 315 251.105 315 250Z" fill="#E6E6E6"/>
<defs>
<filter id="filter0_d_1334_6487" x="268" y="0" width="339" height="217" filterUnits="userSpaceOnUse" color-interpolation-filters="sRGB">
<feFlood flood-opacity="0" result="BackgroundImageFix"/>
<feColorMatrix in="SourceAlpha" type="matrix" values="0 0 0 0 0 0 0 0 0 0 0 0 0 0 0 0 0 0 127 0" result="hardAlpha"/>
<feOffset/>
<feGaussianBlur stdDeviation="12.5"/>
<feComposite in2="hardAlpha" operator="out"/>
<feColorMatrix type="matrix" values="0 0 0 0 0 0 0 0 0 0 0 0 0 0 0 0 0 0 0.09 0"/>
<feBlend mode="normal" in2="BackgroundImageFix" result="effect1_dropShadow_1334_6487"/>
<feBlend mode="normal" in="SourceGraphic" in2="effect1_dropShadow_1334_6487" result="shape"/>
</filter>
<filter id="filter1_d_1334_6487" x="268" y="186" width="339" height="109" filterUnits="userSpaceOnUse" color-interpolation-filters="sRGB">
<feFlood flood-opacity="0" result="BackgroundImageFix"/>
<feColorMatrix in="SourceAlpha" type="matrix" values="0 0 0 0 0 0 0 0 0 0 0 0 0 0 0 0 0 0 127 0" result="hardAlpha"/>
<feOffset/>
<feGaussianBlur stdDeviation="12.5"/>
<feComposite in2="hardAlpha" operator="out"/>
<feColorMatrix type="matrix" values="0 0 0 0 0 0 0 0 0 0 0 0 0 0 0 0 0 0 0.15 0"/>
<feBlend mode="normal" in2="BackgroundImageFix" result="effect1_dropShadow_1334_6487"/>
<feBlend mode="normal" in="SourceGraphic" in2="effect1_dropShadow_1334_6487" result="shape"/>
</filter>
</defs>
</svg>
