<svg width="474" height="300" viewBox="0 0 474 300" fill="none" xmlns="http://www.w3.org/2000/svg">
<g clip-path="url(#clip0_1361_286)">
<rect width="474" height="300" fill="#F5F5F5"/>
<g filter="url(#filter0_d_1361_286)">
<rect x="117" y="27" width="337" height="199" rx="4" fill="white"/>
</g>
<path d="M117 31C117 28.7909 118.791 27 121 27H450C452.209 27 454 28.7909 454 31V53.6378H117V31Z" fill="#3C3A3E"/>
<path d="M117 53.6377H200.074V226H121C118.791 226 117 224.209 117 222V53.6377Z" fill="#EDEDED"/>
<rect x="200.074" y="53.6377" width="148.075" height="1.56744" transform="rotate(90 200.074 53.6377)" fill="#CBCBCB"/>
<path fill-rule="evenodd" clip-rule="evenodd" d="M136.828 42.441C136.828 44.389 135.698 45.364 133.437 45.3661H128.758C128.758 43.4906 131.646 43.4988 132.892 43.5024L133.036 43.5026C133.97 43.5026 134.437 43.0801 134.435 42.235C134.435 41.3856 133.969 40.9673 133.036 40.9673H130.397V39.1229H133.015C133.948 39.1229 134.41 38.714 134.41 37.9027C134.41 37.0914 133.942 36.6984 133.015 36.6984C132.866 36.6984 132.698 36.7028 132.516 36.7076H132.516C131.067 36.7456 128.758 36.8061 128.758 34.835H133.066C134.307 34.835 135.172 34.9945 135.66 35.3135C136.027 35.5504 136.327 35.8856 136.527 36.2842C136.728 36.6827 136.822 37.13 136.8 37.5795C136.819 38.1121 136.684 38.6383 136.413 39.0902C136.142 39.5422 135.748 39.8991 135.28 40.1148C136.308 40.5712 136.821 41.3529 136.819 42.46L136.828 42.441ZM167.429 37.7033C168.319 37.8667 169.122 38.3633 169.685 39.0998C170.249 39.8364 170.536 40.7622 170.491 41.7032C170.446 42.6443 170.073 43.5359 169.441 44.2104C168.81 44.885 167.965 45.2961 167.063 45.3666C166.162 45.4371 165.266 45.162 164.546 44.5931C163.825 44.0242 163.329 43.2006 163.15 42.2771C162.97 41.3535 163.121 40.3936 163.573 39.5776C164.025 38.7617 164.748 38.1459 165.605 37.8459C166.192 37.6407 166.819 37.5917 167.429 37.7033ZM145.299 43.2144C145.299 44.6596 144.363 45.3811 142.49 45.379H137.953V37.6652H142.21C143.219 37.6652 143.928 37.7888 144.338 38.0297C144.638 38.1916 144.888 38.4391 145.058 38.7432C145.228 39.0473 145.312 39.3956 145.299 39.7474C145.305 40.1105 145.21 40.4676 145.027 40.7765C144.844 41.0853 144.579 41.3331 144.265 41.4904C144.587 41.6307 144.859 41.8703 145.045 42.1769C145.232 42.4835 145.324 42.8423 145.308 43.2049L145.299 43.2144ZM143.207 39.9755C143.207 39.4907 142.882 39.2466 142.228 39.2466H139.908V40.7266H142.228C142.882 40.7266 143.207 40.4763 143.207 39.9755ZM143.207 43.0465C143.207 42.5426 142.885 42.2922 142.24 42.2922H139.908V43.8007H142.256C142.9 43.8007 143.223 43.5472 143.223 43.0465H143.207ZM162.205 45.379H160.259V42.3207H157.45V45.379H155.498V37.6652H157.45V40.6221H160.259V37.6652H162.205V45.379ZM178.91 45.379H176.283L173.291 41.6362V45.379H171.339V37.6652H173.291V41.37L176.438 37.6652H178.929L175.49 41.4397L178.929 45.379H178.91ZM167.326 39.4716C167.059 39.3841 166.778 39.3547 166.5 39.3852C166.222 39.4158 165.953 39.5057 165.709 39.6493C165.466 39.793 165.254 39.9873 165.086 40.2201C164.917 40.453 164.797 40.7194 164.732 41.0028C164.667 41.2863 164.659 41.5806 164.707 41.8676C164.756 42.1545 164.861 42.4279 165.016 42.6707C165.17 42.9136 165.371 43.1207 165.606 43.2791C165.841 43.4375 166.104 43.5439 166.38 43.5916C166.682 43.6547 166.993 43.6472 167.292 43.5694C167.728 43.4548 168.115 43.1934 168.393 42.8258C168.671 42.4582 168.825 42.005 168.831 41.5368C168.836 41.0687 168.693 40.6117 168.424 40.237C168.154 39.8624 167.773 39.5911 167.341 39.4653L167.326 39.4716ZM151.295 39.3544C151.757 39.5888 152.129 39.9794 152.351 40.4626C152.572 40.9458 152.63 41.4929 152.514 42.0146C152.399 42.5364 152.117 43.002 151.715 43.3354C151.313 43.6687 150.815 43.8503 150.301 43.8503C149.787 43.8503 149.289 43.6687 148.887 43.3354C148.485 43.002 148.203 42.5364 148.088 42.0146C147.972 41.4929 148.03 40.9458 148.252 40.4626C148.473 39.9794 148.845 39.5888 149.307 39.3544V37.2913C148.324 37.5444 147.464 38.1638 146.889 39.0325C146.315 39.9012 146.065 40.9592 146.187 42.0067C146.309 43.0542 146.795 44.0188 147.553 44.7184C148.311 45.418 149.289 45.8043 150.301 45.8043C151.314 45.8043 152.291 45.418 153.049 44.7184C153.807 44.0188 154.293 43.0542 154.415 42.0067C154.537 40.9592 154.288 39.9012 153.713 39.0325C153.138 38.1638 152.278 37.5444 151.295 37.2913V39.3544ZM149.609 42.5929C149.898 42.7908 150.251 42.8615 150.59 42.7898C150.847 42.7399 151.083 42.6117 151.269 42.4214C151.455 42.2311 151.583 41.9875 151.636 41.7213C151.688 41.4552 151.664 41.1788 151.566 40.9272C151.467 40.6755 151.299 40.4601 151.083 40.3083C150.952 40.2157 150.805 40.1491 150.651 40.1118V37.1582H150.043V40.1118C149.705 40.1904 149.411 40.4049 149.224 40.7085C149.037 41.0121 148.972 41.3804 149.044 41.7333C149.117 42.0861 149.319 42.3951 149.609 42.5929Z" fill="white"/>
<path fill-rule="evenodd" clip-rule="evenodd" d="M126.407 69.3071C125.542 69.3071 124.84 70.0087 124.84 70.8741C124.84 71.7394 125.542 72.441 126.407 72.441H185.971C186.836 72.441 187.538 71.7394 187.538 70.8741C187.538 70.0087 186.836 69.3071 185.971 69.3071H126.407ZM126.407 130.417C125.542 130.417 124.84 131.119 124.84 131.984C124.84 132.85 125.542 133.551 126.407 133.551H185.971C186.836 133.551 187.538 132.85 187.538 131.984C187.538 131.119 186.836 130.417 185.971 130.417H126.407ZM124.84 81.8426C124.84 80.9772 125.542 80.2756 126.407 80.2756H170.296C171.162 80.2756 171.863 80.9772 171.863 81.8426C171.863 82.708 171.162 83.4095 170.296 83.4095H126.407C125.542 83.4095 124.84 82.708 124.84 81.8426ZM126.407 141.386C125.542 141.386 124.84 142.087 124.84 142.953C124.84 143.818 125.542 144.52 126.407 144.52H170.296C171.162 144.52 171.863 143.818 171.863 142.953C171.863 142.087 171.162 141.386 170.296 141.386H126.407ZM124.84 92.8111C124.84 91.9457 125.542 91.2441 126.407 91.2441H177.35C178.215 91.2441 178.917 91.9457 178.917 92.8111C178.917 93.6765 178.215 94.378 177.35 94.378H126.407C125.542 94.378 124.84 93.6765 124.84 92.8111ZM126.407 152.354C125.542 152.354 124.84 153.056 124.84 153.921C124.84 154.787 125.542 155.488 126.407 155.488H177.35C178.215 155.488 178.917 154.787 178.917 153.921C178.917 153.056 178.215 152.354 177.35 152.354H126.407ZM124.84 103.78C124.84 102.914 125.542 102.213 126.407 102.213H160.108C160.973 102.213 161.675 102.914 161.675 103.78C161.675 104.645 160.973 105.347 160.108 105.347H126.407C125.542 105.347 124.84 104.645 124.84 103.78ZM126.407 163.323C125.542 163.323 124.84 164.024 124.84 164.89C124.84 165.755 125.542 166.457 126.407 166.457H160.108C160.973 166.457 161.675 165.755 161.675 164.89C161.675 164.024 160.973 163.323 160.108 163.323H126.407ZM124.84 193.095C124.84 192.229 125.542 191.528 126.407 191.528H170.296C171.162 191.528 171.863 192.229 171.863 193.095C171.863 193.96 171.162 194.661 170.296 194.661H126.407C125.542 194.661 124.84 193.96 124.84 193.095ZM200.074 117.882L117 117.882V118.382L200.074 118.382V117.882ZM117 178.992L200.074 178.992V179.492L117 179.492V178.992ZM200.074 207.197H117V207.697H200.074V207.197Z" fill="#CBCBCB"/>
<path d="M225.139 76.358H223.816L226.224 69.5205H227.754L230.165 76.358H228.843L227.016 70.9227H226.962L225.139 76.358ZM225.182 73.6771H228.789V74.672H225.182V73.6771Z" fill="#3C3A3E"/>
<path d="M231.013 76.358V71.2299H233.167C233.775 71.2299 234.254 71.3512 234.606 71.5938C234.96 71.8364 235.137 72.1747 235.137 72.6087C235.137 72.8959 235.037 73.1307 234.837 73.3132C234.638 73.4935 234.368 73.6148 234.025 73.6771C234.295 73.6994 234.531 73.7672 234.733 73.8808C234.938 73.9943 235.098 74.1434 235.214 74.3281C235.33 74.5129 235.388 74.7254 235.388 74.9658C235.388 75.2485 235.313 75.4944 235.164 75.7036C235.017 75.9106 234.802 76.072 234.519 76.1877C234.239 76.3013 233.898 76.358 233.497 76.358H231.013ZM232.145 75.4065H233.497C233.72 75.4065 233.895 75.3542 234.022 75.2496C234.149 75.1428 234.212 74.9981 234.212 74.8156C234.212 74.6041 234.149 74.4383 234.022 74.3181C233.895 74.1957 233.72 74.1345 233.497 74.1345H232.145V75.4065ZM232.145 73.3533H233.19C233.355 73.3533 233.496 73.3299 233.614 73.2831C233.732 73.2342 233.822 73.1663 233.885 73.0795C233.947 72.9905 233.978 72.8847 233.978 72.7623C233.978 72.5865 233.906 72.4485 233.761 72.3483C233.619 72.2482 233.421 72.1981 233.167 72.1981H232.145V73.3533Z" fill="#3C3A3E"/>
<path d="M236.105 72.2215V71.2299H240.593V72.2215H238.934V76.358H237.765V72.2215H236.105Z" fill="#3C3A3E"/>
<path d="M243.583 76.4582C243.082 76.4582 242.647 76.348 242.28 76.1277C241.913 75.9073 241.628 75.599 241.425 75.2029C241.225 74.8067 241.125 74.3437 241.125 73.814C241.125 73.2843 241.225 72.8202 241.425 72.4218C241.628 72.0234 241.913 71.714 242.28 71.4936C242.647 71.2733 243.082 71.1631 243.583 71.1631C244.083 71.1631 244.518 71.2733 244.885 71.4936C245.252 71.714 245.536 72.0234 245.737 72.4218C245.939 72.8202 246.041 73.2843 246.041 73.814C246.041 74.3437 245.939 74.8067 245.737 75.2029C245.536 75.599 245.252 75.9073 244.885 76.1277C244.518 76.348 244.083 76.4582 243.583 76.4582ZM243.589 75.49C243.861 75.49 244.088 75.4154 244.271 75.2663C244.453 75.1149 244.589 74.9124 244.678 74.6587C244.769 74.4049 244.815 74.1222 244.815 73.8106C244.815 73.4968 244.769 73.213 244.678 72.9593C244.589 72.7033 244.453 72.4997 244.271 72.3483C244.088 72.197 243.861 72.1213 243.589 72.1213C243.311 72.1213 243.079 72.197 242.895 72.3483C242.712 72.4997 242.575 72.7033 242.484 72.9593C242.395 73.213 242.35 73.4968 242.35 73.8106C242.35 74.1222 242.395 74.4049 242.484 74.6587C242.575 74.9124 242.712 75.1149 242.895 75.2663C243.079 75.4154 243.311 75.49 243.589 75.49Z" fill="#3C3A3E"/>
<path d="M246.783 74.9525H247.982C247.993 75.1439 248.079 75.2919 248.239 75.3965C248.399 75.5011 248.607 75.5534 248.863 75.5534C249.124 75.5534 249.343 75.4967 249.521 75.3831C249.702 75.2674 249.792 75.0927 249.792 74.859C249.792 74.721 249.757 74.5997 249.688 74.4951C249.619 74.3882 249.523 74.3059 249.398 74.248C249.273 74.1901 249.126 74.1612 248.957 74.1612H248.172V73.3032H248.957C249.209 73.3032 249.399 73.2453 249.528 73.1296C249.659 73.0138 249.725 72.868 249.725 72.6922C249.725 72.503 249.656 72.3494 249.518 72.2315C249.382 72.1135 249.194 72.0545 248.954 72.0545C248.713 72.0545 248.513 72.1091 248.352 72.2181C248.194 72.3272 248.112 72.4674 248.105 72.6388H246.913C246.918 72.3405 247.007 72.0812 247.18 71.8609C247.356 71.6405 247.592 71.4692 247.888 71.3467C248.187 71.2243 248.523 71.1631 248.897 71.1631C249.298 71.1631 249.644 71.2232 249.936 71.3434C250.227 71.4636 250.452 71.6316 250.61 71.8475C250.768 72.0612 250.847 72.3127 250.847 72.6021C250.847 72.8803 250.76 73.1106 250.587 73.2932C250.413 73.4734 250.179 73.6025 249.885 73.6804V73.7339C250.088 73.745 250.271 73.8029 250.433 73.9075C250.596 74.0098 250.725 74.149 250.821 74.3248C250.916 74.5006 250.964 74.7043 250.964 74.9358C250.964 75.2496 250.874 75.5211 250.694 75.7504C250.513 75.9774 250.265 76.1521 249.949 76.2746C249.635 76.397 249.275 76.4582 248.87 76.4582C248.476 76.4582 248.123 76.3992 247.811 76.2812C247.502 76.161 247.256 75.9885 247.073 75.7637C246.891 75.5389 246.794 75.2685 246.783 74.9525Z" fill="#3C3A3E"/>
<path d="M251.916 76.358V71.2299H254.07C254.678 71.2299 255.158 71.3512 255.51 71.5938C255.864 71.8364 256.041 72.1747 256.041 72.6087C256.041 72.8959 255.94 73.1307 255.74 73.3132C255.542 73.4935 255.271 73.6148 254.928 73.6771C255.198 73.6994 255.434 73.7672 255.636 73.8808C255.841 73.9943 256.002 74.1434 256.117 74.3281C256.233 74.5129 256.291 74.7254 256.291 74.9658C256.291 75.2485 256.216 75.4944 256.067 75.7036C255.92 75.9106 255.705 76.072 255.423 76.1877C255.142 76.3013 254.801 76.358 254.401 76.358H251.916ZM253.048 75.4065H254.401C254.623 75.4065 254.798 75.3542 254.925 75.2496C255.052 75.1428 255.115 74.9981 255.115 74.8156C255.115 74.6041 255.052 74.4383 254.925 74.3181C254.798 74.1957 254.623 74.1345 254.401 74.1345H253.048V75.4065ZM253.048 73.3533H254.093C254.258 73.3533 254.4 73.3299 254.518 73.2831C254.636 73.2342 254.726 73.1663 254.788 73.0795C254.85 72.9905 254.882 72.8847 254.882 72.7623C254.882 72.5865 254.809 72.4485 254.665 72.3483C254.522 72.2482 254.324 72.1981 254.07 72.1981H253.048V73.3533Z" fill="#3C3A3E"/>
<path d="M259.526 76.4582C259.025 76.4582 258.591 76.348 258.224 76.1277C257.857 75.9073 257.572 75.599 257.369 75.2029C257.169 74.8067 257.068 74.3437 257.068 73.814C257.068 73.2843 257.169 72.8202 257.369 72.4218C257.572 72.0234 257.857 71.714 258.224 71.4936C258.591 71.2733 259.025 71.1631 259.526 71.1631C260.027 71.1631 260.461 71.2733 260.829 71.4936C261.196 71.714 261.48 72.0234 261.68 72.4218C261.883 72.8202 261.984 73.2843 261.984 73.814C261.984 74.3437 261.883 74.8067 261.68 75.2029C261.48 75.599 261.196 75.9073 260.829 76.1277C260.461 76.348 260.027 76.4582 259.526 76.4582ZM259.533 75.49C259.805 75.49 260.032 75.4154 260.214 75.2663C260.397 75.1149 260.533 74.9124 260.622 74.6587C260.713 74.4049 260.759 74.1222 260.759 73.8106C260.759 73.4968 260.713 73.213 260.622 72.9593C260.533 72.7033 260.397 72.4997 260.214 72.3483C260.032 72.197 259.805 72.1213 259.533 72.1213C259.255 72.1213 259.023 72.197 258.838 72.3483C258.656 72.4997 258.519 72.7033 258.428 72.9593C258.339 73.213 258.294 73.4968 258.294 73.8106C258.294 74.1222 258.339 74.4049 258.428 74.6587C258.519 74.9124 258.656 75.1149 258.838 75.2663C259.023 75.4154 259.255 75.49 259.533 75.49Z" fill="#3C3A3E"/>
<path d="M266.534 73.2932V74.2847H263.802V73.2932H266.534ZM264.176 71.2299V76.358H263.011V71.2299H264.176ZM267.325 71.2299V76.358H266.163V71.2299H267.325Z" fill="#3C3A3E"/>
<path d="M268.549 76.358V71.2299H269.758V73.2998H270.198L271.741 71.2299H273.198L271.297 73.7472L273.218 76.358H271.755L270.349 74.425H269.758V76.358H268.549Z" fill="#3C3A3E"/>
<path d="M275.069 74.7221L277.123 71.2299H278.365V76.358H277.196V72.8625L275.149 76.358H273.903V71.2299H275.069V74.7221Z" fill="#3C3A3E"/>
<path d="M281.485 77.847V75.3631H281.892C282.002 75.2785 282.093 75.1639 282.166 75.0192C282.24 74.8723 282.3 74.6998 282.347 74.5017C282.396 74.3014 282.436 74.0777 282.467 73.8307C282.498 73.5814 282.526 73.3132 282.55 73.0261L282.697 71.2299H286.404V75.3631H287.199V77.847H286.03V76.358H282.674V77.847H281.485ZM283.135 75.3631H285.249V72.2048H283.746L283.666 73.0261C283.621 73.5691 283.562 74.0343 283.489 74.4216C283.415 74.8089 283.297 75.1227 283.135 75.3631Z" fill="#3C3A3E"/>
<path d="M287.748 76.358L287.741 75.3631H287.918C288.052 75.3631 288.164 75.3331 288.255 75.273C288.347 75.2129 288.422 75.1127 288.483 74.9725C288.543 74.83 288.589 74.6386 288.623 74.3982C288.656 74.1579 288.68 73.8585 288.693 73.5002L288.783 71.2299H292.524V76.358H291.355V72.2215H289.882L289.802 73.8741C289.782 74.3014 289.734 74.672 289.658 74.9858C289.585 75.2974 289.48 75.5545 289.344 75.7571C289.211 75.9596 289.043 76.111 288.84 76.2111C288.637 76.3091 288.398 76.358 288.122 76.358H287.748Z" fill="#3C3A3E"/>
<path d="M296.773 76.358V72.2114H295.678C295.4 72.2114 295.186 72.276 295.037 72.4051C294.888 72.5342 294.814 72.6944 294.816 72.8858C294.814 73.0773 294.884 73.2353 295.027 73.3599C295.169 73.4846 295.373 73.5469 295.638 73.5469H297.154V74.4283H295.638C295.228 74.4283 294.874 74.3637 294.576 74.2346C294.278 74.1056 294.048 73.923 293.888 73.6871C293.728 73.4512 293.647 73.1752 293.647 72.8591C293.647 72.5297 293.729 72.2437 293.891 72.0011C294.056 71.7563 294.29 71.5671 294.593 71.4335C294.898 71.2978 295.259 71.2299 295.678 71.2299H297.906V76.358H296.773ZM293.46 76.358L294.893 73.7272H296.085L294.649 76.358H293.46Z" fill="#3C3A3E"/>
<path d="M301.456 76.358V71.2299H302.665V73.2998H303.106L304.648 71.2299H306.105L304.204 73.7472L306.125 76.358H304.662L303.256 74.425H302.665V76.358H301.456Z" fill="#3C3A3E"/>
<path d="M308.836 76.4582C308.336 76.4582 307.901 76.348 307.534 76.1277C307.167 75.9073 306.882 75.599 306.679 75.2029C306.479 74.8067 306.378 74.3437 306.378 73.814C306.378 73.2843 306.479 72.8202 306.679 72.4218C306.882 72.0234 307.167 71.714 307.534 71.4936C307.901 71.2733 308.336 71.1631 308.836 71.1631C309.337 71.1631 309.772 71.2733 310.139 71.4936C310.506 71.714 310.79 72.0234 310.991 72.4218C311.193 72.8202 311.295 73.2843 311.295 73.814C311.295 74.3437 311.193 74.8067 310.991 75.2029C310.79 75.599 310.506 75.9073 310.139 76.1277C309.772 76.348 309.337 76.4582 308.836 76.4582ZM308.843 75.49C309.115 75.49 309.342 75.4154 309.524 75.2663C309.707 75.1149 309.843 74.9124 309.932 74.6587C310.023 74.4049 310.069 74.1222 310.069 73.8106C310.069 73.4968 310.023 73.213 309.932 72.9593C309.843 72.7033 309.707 72.4997 309.524 72.3483C309.342 72.197 309.115 72.1213 308.843 72.1213C308.565 72.1213 308.333 72.197 308.149 72.3483C307.966 72.4997 307.829 72.7033 307.738 72.9593C307.649 73.213 307.604 73.4968 307.604 73.8106C307.604 74.1222 307.649 74.4049 307.738 74.6587C307.829 74.9124 307.966 75.1149 308.149 75.2663C308.333 75.4154 308.565 75.49 308.843 75.49Z" fill="#3C3A3E"/>
<path d="M311.967 76.358L311.96 75.3631H312.137C312.271 75.3631 312.383 75.3331 312.474 75.273C312.566 75.2129 312.641 75.1127 312.701 74.9725C312.761 74.83 312.808 74.6386 312.842 74.3982C312.875 74.1579 312.898 73.8585 312.912 73.5002L313.002 71.2299H316.742V76.358H315.574V72.2215H314.101L314.021 73.8741C314.001 74.3014 313.953 74.672 313.877 74.9858C313.803 75.2974 313.699 75.5545 313.563 75.7571C313.429 75.9596 313.261 76.111 313.059 76.2111C312.856 76.3091 312.617 76.358 312.341 76.358H311.967Z" fill="#3C3A3E"/>
<path d="M317.606 76.358L317.599 75.3631H317.776C317.91 75.3631 318.022 75.3331 318.113 75.273C318.205 75.2129 318.28 75.1127 318.34 74.9725C318.401 74.83 318.447 74.6386 318.481 74.3982C318.514 74.1579 318.538 73.8585 318.551 73.5002L318.641 71.2299H322.382V76.358H321.213V72.2215H319.74L319.66 73.8741C319.64 74.3014 319.592 74.672 319.516 74.9858C319.443 75.2974 319.338 75.5545 319.202 75.7571C319.069 75.9596 318.9 76.111 318.698 76.2111C318.495 76.3091 318.256 76.358 317.98 76.358H317.606Z" fill="#3C3A3E"/>
<path d="M326.708 73.0127V74.0076H323.629V73.0127H326.708Z" fill="#3C3A3E"/>
<path d="M332.311 71.2299V75.4566H333.096V78.0073H331.914V76.358H327.98V71.2299H329.145V75.3664H331.156V71.2299H332.311Z" fill="#3C3A3E"/>
<path d="M336.303 76.4582C335.789 76.4582 335.345 76.3513 334.971 76.1377C334.599 75.9218 334.313 75.6168 334.112 75.2229C333.912 74.8267 333.812 74.3604 333.812 73.824C333.812 73.2965 333.912 72.8335 334.112 72.4351C334.315 72.0345 334.598 71.7229 334.961 71.5003C335.324 71.2755 335.75 71.1631 336.24 71.1631C336.556 71.1631 336.854 71.2143 337.135 71.3167C337.418 71.4168 337.667 71.5727 337.883 71.7841C338.101 71.9955 338.273 72.2649 338.397 72.592C338.522 72.917 338.584 73.3043 338.584 73.7539V74.1245H334.38V73.3098H337.425C337.423 73.0784 337.373 72.8725 337.275 72.6922C337.177 72.5097 337.04 72.3661 336.864 72.2615C336.691 72.1569 336.488 72.1046 336.256 72.1046C336.009 72.1046 335.792 72.1647 335.605 72.2849C335.418 72.4029 335.272 72.5587 335.168 72.7523C335.065 72.9437 335.013 73.154 335.011 73.3833V74.0944C335.011 74.3927 335.065 74.6486 335.174 74.8623C335.283 75.0738 335.436 75.2362 335.632 75.3498C335.828 75.461 336.057 75.5167 336.32 75.5167C336.496 75.5167 336.655 75.4922 336.797 75.4432C336.94 75.392 337.064 75.3175 337.168 75.2195C337.273 75.1216 337.352 75.0003 337.405 74.8556L338.534 74.9825C338.463 75.2808 338.327 75.5412 338.127 75.7637C337.929 75.9841 337.675 76.1555 337.365 76.2779C337.056 76.3981 336.702 76.4582 336.303 76.4582Z" fill="#3C3A3E"/>
<path d="M343.13 73.2932V74.2847H340.399V73.2932H343.13ZM340.773 71.2299V76.358H339.607V71.2299H340.773ZM343.922 71.2299V76.358H342.76V71.2299H343.922Z" fill="#3C3A3E"/>
<path d="M344.571 72.2215V71.2299H349.059V72.2215H347.399V76.358H346.231V72.2215H344.571Z" fill="#3C3A3E"/>
<path d="M350.022 78.2811V71.2299H351.211V72.0779H351.281C351.343 71.9533 351.431 71.8208 351.545 71.6806C351.658 71.5382 351.812 71.4168 352.006 71.3167C352.199 71.2143 352.447 71.1631 352.747 71.1631C353.143 71.1631 353.501 71.2644 353.819 71.4669C354.14 71.6672 354.394 71.9644 354.581 72.3583C354.77 72.7501 354.865 73.2308 354.865 73.8006C354.865 74.3637 354.772 74.8423 354.587 75.2362C354.403 75.6302 354.151 75.9307 353.833 76.1377C353.514 76.3447 353.153 76.4482 352.75 76.4482C352.457 76.4482 352.213 76.3992 352.019 76.3013C351.825 76.2033 351.67 76.0854 351.552 75.9474C351.436 75.8071 351.346 75.6747 351.281 75.5501H351.231V78.2811H350.022ZM351.208 73.794C351.208 74.1256 351.254 74.416 351.348 74.6653C351.444 74.9146 351.58 75.1094 351.759 75.2496C351.939 75.3876 352.157 75.4566 352.413 75.4566C352.68 75.4566 352.904 75.3854 353.084 75.2429C353.265 75.0982 353.401 74.9013 353.492 74.652C353.585 74.4005 353.632 74.1145 353.632 73.794C353.632 73.4757 353.587 73.193 353.495 72.9459C353.404 72.6989 353.268 72.5052 353.088 72.365C352.907 72.2248 352.683 72.1547 352.413 72.1547C352.155 72.1547 351.936 72.2226 351.755 72.3583C351.575 72.4941 351.438 72.6844 351.344 72.9292C351.253 73.1741 351.208 73.4623 351.208 73.794Z" fill="#3C3A3E"/>
<path d="M357.376 76.4615C357.051 76.4615 356.758 76.4036 356.498 76.2879C356.239 76.1699 356.035 75.9963 355.883 75.7671C355.734 75.5378 355.659 75.2552 355.659 74.9191C355.659 74.6297 355.713 74.3905 355.82 74.2013C355.927 74.0121 356.072 73.8607 356.257 73.7472C356.442 73.6337 356.65 73.548 356.882 73.4901C357.115 73.43 357.357 73.3866 357.606 73.3599C357.907 73.3288 358.151 73.3009 358.338 73.2765C358.525 73.2498 358.661 73.2097 358.745 73.1563C358.832 73.1006 358.876 73.0149 358.876 72.8992V72.8792C358.876 72.6277 358.801 72.4329 358.652 72.2949C358.503 72.1569 358.288 72.0879 358.007 72.0879C357.711 72.0879 357.476 72.1525 357.303 72.2816C357.131 72.4106 357.015 72.5631 356.955 72.7389L355.826 72.5787C355.915 72.2671 356.062 72.0067 356.267 71.7975C356.472 71.586 356.723 71.428 357.019 71.3234C357.315 71.2165 357.642 71.1631 358.001 71.1631C358.248 71.1631 358.494 71.192 358.739 71.2499C358.984 71.3078 359.207 71.4035 359.41 71.537C359.612 71.6684 359.775 71.8475 359.897 72.0746C360.022 72.3016 360.085 72.5854 360.085 72.9259V76.358H358.922V75.6536H358.882C358.809 75.796 358.705 75.9296 358.572 76.0542C358.44 76.1766 358.274 76.2757 358.074 76.3513C357.876 76.4248 357.643 76.4615 357.376 76.4615ZM357.69 75.5734C357.933 75.5734 358.143 75.5256 358.321 75.4299C358.499 75.3319 358.636 75.2029 358.732 75.0426C358.83 74.8823 358.879 74.7076 358.879 74.5184V73.9141C358.841 73.9453 358.776 73.9742 358.685 74.0009C358.596 74.0277 358.496 74.051 358.385 74.0711C358.273 74.0911 358.163 74.1089 358.054 74.1245C357.945 74.1401 357.85 74.1534 357.77 74.1645C357.59 74.189 357.428 74.2291 357.286 74.2847C357.143 74.3404 357.031 74.4183 356.949 74.5184C356.866 74.6164 356.825 74.7432 356.825 74.899C356.825 75.1216 356.906 75.2897 357.069 75.4032C357.231 75.5167 357.438 75.5734 357.69 75.5734Z" fill="#3C3A3E"/>
<path fill-rule="evenodd" clip-rule="evenodd" d="M430.488 84.1929H223.586V83.1929H430.488V84.1929ZM347.411 99.0786C346.545 99.0786 345.844 99.7802 345.844 100.646C345.844 101.511 346.545 102.212 347.411 102.212H428.919C429.784 102.212 430.486 101.511 430.486 100.646C430.486 99.7802 429.784 99.0786 428.919 99.0786H347.411ZM223.586 100.646C223.586 99.7802 224.287 99.0786 225.153 99.0786H275.312C276.177 99.0786 276.879 99.7802 276.879 100.646C276.879 101.511 276.177 102.212 275.312 102.212H225.153C224.287 102.212 223.586 101.511 223.586 100.646ZM223.586 119.449C223.586 118.583 224.287 117.882 225.153 117.882H275.312C276.177 117.882 276.879 118.583 276.879 119.449C276.879 120.314 276.177 121.016 275.312 121.016H225.153C224.287 121.016 223.586 120.314 223.586 119.449ZM225.153 136.685C224.287 136.685 223.586 137.387 223.586 138.252C223.586 139.117 224.287 139.819 225.153 139.819H275.312C276.177 139.819 276.879 139.117 276.879 138.252C276.879 137.387 276.177 136.685 275.312 136.685H225.153ZM223.586 157.055C223.586 156.19 224.287 155.488 225.153 155.488H275.312C276.177 155.488 276.879 156.19 276.879 157.055C276.879 157.92 276.177 158.622 275.312 158.622H225.153C224.287 158.622 223.586 157.92 223.586 157.055ZM225.153 174.291C224.287 174.291 223.586 174.993 223.586 175.858C223.586 176.724 224.287 177.425 225.153 177.425H275.312C276.177 177.425 276.879 176.724 276.879 175.858C276.879 174.993 276.177 174.291 275.312 174.291H225.153ZM310.578 100.646C310.578 99.7802 311.28 99.0786 312.145 99.0786H334.874C335.739 99.0786 336.441 99.7802 336.441 100.646C336.441 101.511 335.739 102.212 334.874 102.212H312.145C311.28 102.212 310.578 101.511 310.578 100.646ZM312.145 117.882C311.28 117.882 310.578 118.583 310.578 119.449C310.578 120.314 311.28 121.016 312.145 121.016H334.874C335.739 121.016 336.441 120.314 336.441 119.449C336.441 118.583 335.739 117.882 334.874 117.882H312.145ZM310.578 138.252C310.578 137.387 311.28 136.685 312.145 136.685H334.874C335.739 136.685 336.441 137.387 336.441 138.252C336.441 139.117 335.739 139.819 334.874 139.819H312.145C311.28 139.819 310.578 139.117 310.578 138.252ZM312.145 155.488C311.28 155.488 310.578 156.19 310.578 157.055C310.578 157.92 311.28 158.622 312.145 158.622H334.874C335.739 158.622 336.441 157.92 336.441 157.055C336.441 156.19 335.739 155.488 334.874 155.488H312.145ZM310.578 175.858C310.578 174.993 311.28 174.291 312.145 174.291H334.874C335.739 174.291 336.441 174.993 336.441 175.858C336.441 176.724 335.739 177.425 334.874 177.425H312.145C311.28 177.425 310.578 176.724 310.578 175.858ZM345.844 119.449C345.844 118.583 346.545 117.882 347.411 117.882H428.919C429.784 117.882 430.486 118.583 430.486 119.449C430.486 120.314 429.784 121.016 428.919 121.016H347.411C346.545 121.016 345.844 120.314 345.844 119.449ZM347.411 136.685C346.545 136.685 345.844 137.387 345.844 138.252C345.844 139.117 346.545 139.819 347.411 139.819H428.919C429.784 139.819 430.486 139.117 430.486 138.252C430.486 137.387 429.784 136.685 428.919 136.685H347.411ZM345.844 157.055C345.844 156.19 346.545 155.488 347.411 155.488H428.919C429.784 155.488 430.486 156.19 430.486 157.055C430.486 157.92 429.784 158.622 428.919 158.622H347.411C346.545 158.622 345.844 157.92 345.844 157.055ZM347.411 174.291C346.545 174.291 345.844 174.993 345.844 175.858C345.844 176.724 346.545 177.425 347.411 177.425H428.919C429.784 177.425 430.486 176.724 430.486 175.858C430.486 174.993 429.784 174.291 428.919 174.291H347.411ZM223.586 110.047H430.488V109.547H223.586V110.047ZM430.488 128.85H223.586V128.35H430.488V128.85ZM223.586 147.654H430.488V147.154H223.586V147.654ZM430.488 166.457H223.586V165.957H430.488V166.457ZM223.586 185.26H430.488V184.76H223.586V185.26Z" fill="#E4E4E4"/>
<g filter="url(#filter1_d_1361_286)">
<rect x="10" y="91" width="208" height="120.194" rx="7" fill="white"/>
</g>
<path d="M26.7656 113.387H27.8575V111.872H31.8599V113.381H32.9518V110.943H32.2525V105.591H28.2378L28.0722 108.247C27.971 109.94 27.6121 110.605 27.1858 110.943H26.7656V113.387ZM28.5107 110.943C28.8451 110.394 29.0873 109.532 29.164 108.247L29.2622 106.545H31.1606V110.943H28.5107Z" fill="#3C3A3E"/>
<path d="M35.8846 111.964C37.2647 111.964 38.1419 110.992 38.1419 109.535C38.1419 108.075 37.2647 107.1 35.8846 107.1C34.5044 107.1 33.6273 108.075 33.6273 109.535C33.6273 110.992 34.5044 111.964 35.8846 111.964ZM35.8907 111.074C35.127 111.074 34.7529 110.394 34.7529 109.532C34.7529 108.67 35.127 107.98 35.8907 107.98C36.6421 107.98 37.0163 108.67 37.0163 109.532C37.0163 110.394 36.6421 111.074 35.8907 111.074Z" fill="#3C3A3E"/>
<path d="M42.8597 105.419C42.6328 105.591 42.2739 105.588 41.7863 105.588C41.6483 105.588 41.5041 105.588 41.3477 105.591C39.7252 105.612 38.891 106.692 38.891 108.906V109.329C38.891 111.053 39.762 111.964 41.133 111.964C42.5039 111.964 43.3688 111.05 43.3688 109.596C43.3688 108.185 42.5469 107.373 41.3784 107.373C40.6607 107.373 40.1178 107.682 39.8234 108.259H39.7712C39.8817 107.084 40.3233 106.554 41.3784 106.529C42.3138 106.508 42.8382 106.492 43.2462 106.137L42.8597 105.419ZM41.1391 111.074C40.4429 111.074 40.0166 110.516 40.0166 109.627C40.0258 108.75 40.446 108.247 41.133 108.247C41.82 108.247 42.2433 108.75 42.2433 109.627C42.2433 110.519 41.8231 111.074 41.1391 111.074Z" fill="#3C3A3E"/>
<path d="M45.6691 111.967C46.4082 111.967 46.8499 111.62 47.0523 111.225H47.0891V111.872H48.1564V108.719C48.1564 107.474 47.1413 107.1 46.2426 107.1C45.252 107.1 44.4914 107.541 44.246 108.4L45.2826 108.547C45.3931 108.225 45.7059 107.949 46.2488 107.949C46.764 107.949 47.0462 108.213 47.0462 108.676V108.695C47.0462 109.013 46.7119 109.029 45.8807 109.118C44.9667 109.216 44.0927 109.489 44.0927 110.55C44.0927 111.476 44.7705 111.967 45.6691 111.967ZM45.9574 111.151C45.4943 111.151 45.163 110.94 45.163 110.532C45.163 110.105 45.5341 109.927 46.031 109.857C46.3224 109.817 46.9051 109.743 47.0492 109.627V110.182C47.0492 110.706 46.626 111.151 45.9574 111.151Z" fill="#3C3A3E"/>
<path d="M49.2728 111.872H51.5547C52.6588 111.872 53.2906 111.372 53.2906 110.593C53.2906 109.934 52.7784 109.474 52.0393 109.409C52.668 109.293 53.0606 108.958 53.0606 108.428C53.0606 107.633 52.3644 107.161 51.251 107.161H49.2728V111.872ZM50.3125 110.998V109.829H51.5547C51.9626 109.829 52.211 110.065 52.211 110.455C52.211 110.792 51.9626 110.998 51.5547 110.998H50.3125ZM50.3125 109.112V108.05H51.251C51.7142 108.05 51.9963 108.247 51.9963 108.569C51.9963 108.906 51.7234 109.112 51.2725 109.112H50.3125Z" fill="#3C3A3E"/>
<path d="M55.2772 110.369V107.161H54.2069V111.872H55.3509L57.2309 108.661V111.872H58.3044V107.161H57.1634L55.2772 110.369Z" fill="#3C3A3E"/>
<path d="M58.917 108.072H60.4413V111.872H61.5148V108.072H63.0391V107.161H58.917V108.072Z" fill="#3C3A3E"/>
<path d="M64.9935 108.695V107.161H63.9231V111.872H66.0639C67.2631 111.872 67.9532 111.209 67.9562 110.283C67.9532 109.332 67.2631 108.695 66.0639 108.695H64.9935ZM64.9935 109.605H66.0639C66.5454 109.605 66.892 109.891 66.892 110.299C66.892 110.688 66.5454 110.961 66.0639 110.961H64.9935V109.605Z" fill="#3C3A3E"/>
<path d="M70.7924 108.072H72.3167V111.872H73.3902V108.072H74.9145V107.161H70.7924V108.072Z" fill="#3C3A3E"/>
<path d="M77.6901 111.964C78.7881 111.964 79.5426 111.427 79.7389 110.608L78.7022 110.492C78.552 110.89 78.1839 111.099 77.7055 111.099C76.9878 111.099 76.5124 110.627 76.5032 109.82H79.7849V109.48C79.7849 107.827 78.7912 107.1 77.6319 107.1C76.2824 107.1 75.4021 108.09 75.4021 109.544C75.4021 111.022 76.2701 111.964 77.6901 111.964ZM76.5063 109.072C76.54 108.471 76.9847 107.965 77.6472 107.965C78.2851 107.965 78.7145 108.431 78.7206 109.072H76.5063Z" fill="#3C3A3E"/>
<path d="M80.3991 111.872H80.7426C81.7547 111.872 82.2117 111.16 82.2853 109.59L82.3589 108.072H83.7114V111.872H84.7849V107.161H81.3498L81.267 109.247C81.2149 110.568 81.0431 110.958 80.5555 110.958H80.3929L80.3991 111.872Z" fill="#3C3A3E"/>
<path d="M87.9884 111.964C89.0863 111.964 89.8408 111.427 90.0371 110.608L89.0005 110.492C88.8502 110.89 88.4821 111.099 88.0037 111.099C87.286 111.099 86.8106 110.627 86.8014 109.82H90.0831V109.48C90.0831 107.827 89.0894 107.1 87.9301 107.1C86.5806 107.1 85.7004 108.09 85.7004 109.544C85.7004 111.022 86.5683 111.964 87.9884 111.964ZM86.8045 109.072C86.8382 108.471 87.2829 107.965 87.9454 107.965C88.5834 107.965 89.0127 108.431 89.0189 109.072H86.8045Z" fill="#3C3A3E"/>
<path d="M93.1601 113.473H94.2734V111.964C95.6597 111.964 96.6135 110.982 96.6135 109.535C96.6135 108.084 95.6597 107.1 94.2734 107.1V105.591H93.1601V107.1C91.7738 107.1 90.82 108.084 90.82 109.535C90.82 110.982 91.7738 111.964 93.1601 111.964V113.473ZM93.1601 111.068C92.3749 111.068 91.9548 110.375 91.9548 109.535C91.9548 108.695 92.3688 107.995 93.1601 107.995V111.068ZM94.2734 111.068V107.995C95.0647 107.995 95.4757 108.695 95.4757 109.535C95.4757 110.375 95.0647 111.068 94.2734 111.068Z" fill="#3C3A3E"/>
<path d="M99.6054 111.964C100.986 111.964 101.863 110.992 101.863 109.535C101.863 108.075 100.986 107.1 99.6054 107.1C98.2252 107.1 97.3481 108.075 97.3481 109.535C97.3481 110.992 98.2252 111.964 99.6054 111.964ZM99.6115 111.074C98.8478 111.074 98.4737 110.394 98.4737 109.532C98.4737 108.67 98.8478 107.98 99.6115 107.98C100.363 107.98 100.737 108.67 100.737 109.532C100.737 110.394 100.363 111.074 99.6115 111.074Z" fill="#3C3A3E"/>
<path d="M103.875 107.161H102.805V111.872H103.875V109.967H105.7V111.872H106.768V107.161H105.7V109.056H103.875V107.161Z" fill="#3C3A3E"/>
<path d="M108.961 107.161H107.891V111.872H108.961V109.967H110.786V111.872H111.853V107.161H110.786V109.056H108.961V107.161Z" fill="#3C3A3E"/>
<path d="M114.047 108.695V107.161H112.977V111.872H115.118C116.317 111.872 117.007 111.209 117.01 110.283C117.007 109.332 116.317 108.695 115.118 108.695H114.047ZM117.596 111.872H118.706V107.161H117.596V111.872ZM114.047 109.605H115.118C115.599 109.605 115.946 109.891 115.946 110.299C115.946 110.688 115.599 110.961 115.118 110.961H114.047V109.605Z" fill="#3C3A3E"/>
<path d="M120.921 110.369V107.161H119.851V111.872H120.995L122.875 108.661V111.872H123.948V107.161H122.807L120.921 110.369ZM122.504 105.542C122.501 105.842 122.329 106.109 121.896 106.109C121.458 106.109 121.292 105.836 121.292 105.542H120.467C120.464 106.259 121.019 106.744 121.896 106.744C122.78 106.744 123.335 106.259 123.335 105.542H122.504Z" fill="#3C3A3E"/>
<path d="M129.286 111.964C130.469 111.964 131.224 111.262 131.304 110.262H130.242C130.147 110.768 129.782 111.059 129.295 111.059C128.602 111.059 128.154 110.479 128.154 109.516C128.154 108.566 128.611 107.995 129.295 107.995C129.828 107.995 130.157 108.339 130.242 108.793H131.304C131.227 107.771 130.43 107.1 129.279 107.1C127.899 107.1 127.028 108.096 127.028 109.535C127.028 110.961 127.878 111.964 129.286 111.964Z" fill="#3C3A3E"/>
<path d="M132.215 111.872H133.276V108.072H135.123V111.872H136.193V107.161H132.215V111.872Z" fill="#3C3A3E"/>
<path d="M138.405 110.369V107.161H137.335V111.872H138.479L140.359 108.661V111.872H141.432V107.161H140.291L138.405 110.369Z" fill="#3C3A3E"/>
<path d="M144.627 111.964C145.811 111.964 146.566 111.262 146.646 110.262H145.584C145.489 110.768 145.124 111.059 144.637 111.059C143.944 111.059 143.496 110.479 143.496 109.516C143.496 108.566 143.953 107.995 144.637 107.995C145.17 107.995 145.498 108.339 145.584 108.793H146.646C146.569 107.771 145.771 107.1 144.621 107.1C143.241 107.1 142.37 108.096 142.37 109.535C142.37 110.961 143.22 111.964 144.627 111.964Z" fill="#3C3A3E"/>
<path d="M149.612 111.964C150.992 111.964 151.869 110.992 151.869 109.535C151.869 108.075 150.992 107.1 149.612 107.1C148.232 107.1 147.355 108.075 147.355 109.535C147.355 110.992 148.232 111.964 149.612 111.964ZM149.618 111.074C148.855 111.074 148.48 110.394 148.48 109.532C148.48 108.67 148.855 107.98 149.618 107.98C150.37 107.98 150.744 108.67 150.744 109.532C150.744 110.394 150.37 111.074 149.618 111.074Z" fill="#3C3A3E"/>
<path d="M152.812 111.872H153.922V110.096H154.465L155.756 111.872H157.099L155.336 109.474L157.081 107.161H155.744L154.327 109.063H153.922V107.161H152.812V111.872Z" fill="#3C3A3E"/>
<path d="M27.0156 128.426H28.9225C30.0014 128.426 30.5304 127.876 30.5304 127.142C30.5304 126.429 30.0244 126.01 29.5229 125.985V125.939C29.9829 125.831 30.3464 125.509 30.3464 124.936C30.3464 124.235 29.8403 123.715 28.819 123.715H27.0156V128.426ZM27.869 127.713V126.333H28.8098C29.3366 126.333 29.6632 126.655 29.6632 127.076C29.6632 127.45 29.4056 127.713 28.7868 127.713H27.869ZM27.869 125.718V124.419H28.7316C29.2331 124.419 29.493 124.683 29.493 125.047C29.493 125.461 29.1572 125.718 28.7132 125.718H27.869Z" fill="#3C3A3E"/>
<path d="M32.7772 128.495C33.6651 128.495 34.2309 127.968 34.2907 127.218H33.4949C33.4236 127.598 33.1498 127.816 32.7841 127.816C32.2642 127.816 31.9284 127.381 31.9284 126.659C31.9284 125.946 32.2711 125.518 32.7841 125.518C33.1843 125.518 33.4305 125.776 33.4949 126.116H34.2907C34.2332 125.35 33.6352 124.847 32.7726 124.847C31.7375 124.847 31.0842 125.594 31.0842 126.673C31.0842 127.743 31.7214 128.495 32.7772 128.495Z" fill="#3C3A3E"/>
<path d="M34.7243 125.576H35.8676V128.426H36.6727V125.576H37.8159V124.893H34.7243V125.576Z" fill="#3C3A3E"/>
<path d="M39.3502 128.497C39.9045 128.497 40.2357 128.237 40.3876 127.94H40.4152V128.426H41.2157V126.061C41.2157 125.127 40.4543 124.847 39.7803 124.847C39.0373 124.847 38.4669 125.178 38.2828 125.822L39.0603 125.932C39.1431 125.691 39.3778 125.484 39.7849 125.484C40.1713 125.484 40.383 125.682 40.383 126.029V126.043C40.383 126.282 40.1322 126.293 39.5089 126.36C38.8234 126.434 38.1678 126.638 38.1678 127.434C38.1678 128.129 38.6762 128.497 39.3502 128.497ZM39.5664 127.885C39.219 127.885 38.9706 127.726 38.9706 127.421C38.9706 127.101 39.2489 126.967 39.6216 126.914C39.8401 126.885 40.2772 126.829 40.3853 126.742V127.158C40.3853 127.552 40.0678 127.885 39.5664 127.885Z" fill="#3C3A3E"/>
<path d="M42.0529 128.426H43.7643C44.5924 128.426 45.0663 128.051 45.0663 127.467C45.0663 126.972 44.6821 126.627 44.1278 126.579C44.5993 126.491 44.8938 126.241 44.8938 125.843C44.8938 125.247 44.3716 124.893 43.5366 124.893H42.0529V128.426ZM42.8327 127.77V126.894H43.7643C44.0703 126.894 44.2566 127.071 44.2566 127.363C44.2566 127.616 44.0703 127.77 43.7643 127.77H42.8327ZM42.8327 126.356V125.56H43.5366C43.8839 125.56 44.0956 125.707 44.0956 125.948C44.0956 126.201 43.8908 126.356 43.5527 126.356H42.8327Z" fill="#3C3A3E"/>
<path d="M46.5563 126.043V124.893H45.7535V128.426H47.3591C48.2584 128.426 48.776 127.929 48.7783 127.234C48.776 126.521 48.2584 126.043 47.3591 126.043H46.5563ZM46.5563 126.726H47.3591C47.7202 126.726 47.9801 126.94 47.9801 127.246C47.9801 127.538 47.7202 127.743 47.3591 127.743H46.5563V126.726Z" fill="#3C3A3E"/>
<path d="M48.9318 125.576H50.0751V128.426H50.8802V125.576H52.0234V124.893H48.9318V125.576Z" fill="#3C3A3E"/>
<path d="M54.1051 128.495C54.9286 128.495 55.4945 128.092 55.6417 127.478L54.8642 127.391C54.7515 127.69 54.4755 127.846 54.1166 127.846C53.5784 127.846 53.2218 127.492 53.2149 126.887H55.6762V126.632C55.6762 125.392 54.9309 124.847 54.0614 124.847C53.0493 124.847 52.3891 125.59 52.3891 126.68C52.3891 127.789 53.0401 128.495 54.1051 128.495ZM53.2172 126.326C53.2425 125.875 53.5761 125.495 54.0729 125.495C54.5514 125.495 54.8734 125.845 54.878 126.326H53.2172Z" fill="#3C3A3E"/>
<path d="M58.7902 124.893H57.9874V128.426H58.7902V126.997H60.1588V128.426H60.9593V124.893H60.1588V126.314H58.7902V124.893Z" fill="#3C3A3E"/>
<path d="M62.1928 129.751C62.8415 129.751 63.2164 129.417 63.4165 128.854L64.8358 124.897L63.9456 124.893L63.129 127.561H63.0922L62.2779 124.893H61.3946L62.6759 128.499L62.6045 128.69C62.4504 129.093 62.2066 129.12 61.8432 129.015L61.6499 129.663C61.7627 129.709 61.9651 129.751 62.1928 129.751Z" fill="#3C3A3E"/>
<path d="M65.1837 128.426H66.1659L67.1757 127H67.3597V128.426H68.1924V127H68.3765L69.3817 128.426H70.3639L69.0665 126.602L70.3524 124.893H69.3909L68.3857 126.316H68.1924V124.893H67.3597V126.316H67.1619L66.1567 124.893H65.1952L66.4879 126.602L65.1837 128.426Z" fill="#3C3A3E"/>
<path d="M71.7894 124.893H70.9867V128.426H71.7894V126.997H73.1581V128.426H73.9586V124.893H73.1581V126.314H71.7894V124.893Z" fill="#3C3A3E"/>
<path d="M75.6038 126.043V124.893H74.8011V128.426H76.4066C77.306 128.426 77.8236 127.929 77.8259 127.234C77.8236 126.521 77.306 126.043 76.4066 126.043H75.6038ZM78.2652 128.426H79.0979V124.893H78.2652V128.426ZM75.6038 126.726H76.4066C76.7678 126.726 77.0277 126.94 77.0277 127.246C77.0277 127.538 76.7678 127.743 76.4066 127.743H75.6038V126.726Z" fill="#3C3A3E"/>
<path d="M81.5207 128.495C82.3442 128.495 82.91 128.092 83.0572 127.478L82.2798 127.391C82.167 127.69 81.891 127.846 81.5322 127.846C80.9939 127.846 80.6374 127.492 80.6305 126.887H83.0917V126.632C83.0917 125.392 82.3465 124.847 81.477 124.847C80.4648 124.847 79.8047 125.59 79.8047 126.68C79.8047 127.789 80.4557 128.495 81.5207 128.495ZM80.6328 126.326C80.6581 125.875 80.9916 125.495 81.4885 125.495C81.9669 125.495 82.2889 125.845 82.2935 126.326H80.6328Z" fill="#3C3A3E"/>
<path d="M86.2057 124.893H85.4029V128.426H86.2057V126.997H87.5744V128.426H88.3748V124.893H87.5744V126.314H86.2057V124.893Z" fill="#3C3A3E"/>
<path d="M90.7585 128.495C91.7936 128.495 92.4515 127.766 92.4515 126.673C92.4515 125.578 91.7936 124.847 90.7585 124.847C89.7234 124.847 89.0655 125.578 89.0655 126.673C89.0655 127.766 89.7234 128.495 90.7585 128.495ZM90.7631 127.828C90.1903 127.828 89.9097 127.317 89.9097 126.671C89.9097 126.024 90.1903 125.507 90.7631 125.507C91.3266 125.507 91.6073 126.024 91.6073 126.671C91.6073 127.317 91.3266 127.828 90.7631 127.828Z" fill="#3C3A3E"/>
<path d="M95.1916 127.457L94.1703 124.893H93.1582V128.426H93.961V126.045L94.9018 128.426H95.4838L96.4568 126.02V128.426H97.2527V124.893H96.2406L95.1916 127.457Z" fill="#3C3A3E"/>
<path d="M99.6564 128.495C100.48 128.495 101.046 128.092 101.193 127.478L100.416 127.391C100.303 127.69 100.027 127.846 99.6679 127.846C99.1297 127.846 98.7731 127.492 98.7662 126.887H101.228V126.632C101.228 125.392 100.482 124.847 99.6127 124.847C98.6006 124.847 97.9404 125.59 97.9404 126.68C97.9404 127.789 98.5914 128.495 99.6564 128.495ZM98.7685 126.326C98.7938 125.875 99.1274 125.495 99.6242 125.495C100.103 125.495 100.425 125.845 100.429 126.326H98.7685Z" fill="#3C3A3E"/>
<path d="M101.932 129.751H102.765V127.869H102.799C102.93 128.127 103.204 128.488 103.811 128.488C104.644 128.488 105.267 127.828 105.267 126.664C105.267 125.486 104.626 124.847 103.809 124.847C103.186 124.847 102.926 125.222 102.799 125.477H102.751V124.893H101.932V129.751ZM102.749 126.659C102.749 125.974 103.043 125.53 103.579 125.53C104.133 125.53 104.419 126.001 104.419 126.659C104.419 127.322 104.129 127.805 103.579 127.805C103.048 127.805 102.749 127.345 102.749 126.659Z" fill="#3C3A3E"/>
<path d="M106.997 128.497C107.551 128.497 107.883 128.237 108.035 127.94H108.062V128.426H108.863V126.061C108.863 125.127 108.101 124.847 107.427 124.847C106.684 124.847 106.114 125.178 105.93 125.822L106.707 125.932C106.79 125.691 107.025 125.484 107.432 125.484C107.818 125.484 108.03 125.682 108.03 126.029V126.043C108.03 126.282 107.779 126.293 107.156 126.36C106.47 126.434 105.815 126.638 105.815 127.434C105.815 128.129 106.323 128.497 106.997 128.497ZM107.213 127.885C106.866 127.885 106.618 127.726 106.618 127.421C106.618 127.101 106.896 126.967 107.269 126.914C107.487 126.885 107.924 126.829 108.032 126.742V127.158C108.032 127.552 107.715 127.885 107.213 127.885Z" fill="#3C3A3E"/>
<path d="M28.665 177.431C28.3338 177.431 28.0393 177.374 27.7817 177.261C27.5256 177.147 27.3232 176.989 27.1744 176.787C27.0257 176.585 26.9467 176.351 26.9375 176.085H27.8024C27.8101 176.213 27.8522 176.324 27.9289 176.419C28.0056 176.512 28.1076 176.585 28.2348 176.637C28.3621 176.69 28.5047 176.716 28.6627 176.716C28.8314 176.716 28.9809 176.687 29.1112 176.628C29.2416 176.568 29.3436 176.486 29.4172 176.38C29.4908 176.274 29.5268 176.152 29.5253 176.014C29.5268 175.871 29.49 175.746 29.4149 175.637C29.3397 175.528 29.2309 175.443 29.0882 175.382C28.9472 175.32 28.7769 175.29 28.5776 175.29H28.1612V174.632H28.5776C28.7417 174.632 28.885 174.603 29.0077 174.547C29.1319 174.49 29.2293 174.41 29.2999 174.307C29.3704 174.203 29.4049 174.083 29.4034 173.946C29.4049 173.813 29.375 173.697 29.3137 173.599C29.2539 173.499 29.1687 173.422 29.0583 173.366C28.9495 173.311 28.8214 173.284 28.6742 173.284C28.53 173.284 28.3966 173.31 28.2739 173.362C28.1513 173.414 28.0524 173.488 27.9772 173.585C27.9021 173.68 27.8622 173.794 27.8576 173.925H27.0364C27.0425 173.662 27.1185 173.43 27.2641 173.231C27.4114 173.03 27.6076 172.873 27.853 172.762C28.0984 172.648 28.3736 172.591 28.6788 172.591C28.9932 172.591 29.2661 172.65 29.4977 172.768C29.7308 172.885 29.911 173.042 30.0382 173.24C30.1655 173.438 30.2292 173.656 30.2292 173.896C30.2307 174.161 30.1525 174.383 29.9945 174.563C29.8381 174.742 29.6326 174.859 29.3781 174.915V174.951C29.7093 174.997 29.9631 175.12 30.1395 175.319C30.3173 175.517 30.4055 175.763 30.404 176.058C30.404 176.322 30.3288 176.558 30.1786 176.766C30.0298 176.973 29.8243 177.136 29.5621 177.254C29.3014 177.372 29.0024 177.431 28.665 177.431Z" fill="#3C3A3E"/>
<path d="M32.2195 177.438C31.9956 177.438 31.7939 177.398 31.6145 177.318C31.4366 177.237 31.2955 177.117 31.1912 176.959C31.0885 176.802 31.0371 176.607 31.0371 176.375C31.0371 176.176 31.0739 176.011 31.1475 175.881C31.2211 175.75 31.3216 175.646 31.4489 175.568C31.5761 175.49 31.7195 175.431 31.879 175.391C32.04 175.349 32.2064 175.319 32.3782 175.301C32.5852 175.28 32.7531 175.26 32.8819 175.243C33.0107 175.225 33.1043 175.197 33.1626 175.161C33.2224 175.122 33.2523 175.063 33.2523 174.984V174.97C33.2523 174.796 33.2009 174.662 33.0981 174.567C32.9954 174.472 32.8474 174.425 32.6542 174.425C32.4502 174.425 32.2885 174.469 32.1688 174.558C32.0508 174.647 31.971 174.752 31.9296 174.873L31.1521 174.763C31.2135 174.548 31.3147 174.369 31.4558 174.224C31.5969 174.079 31.7694 173.97 31.9733 173.898C32.1773 173.824 32.4027 173.787 32.6496 173.787C32.8198 173.787 32.9893 173.807 33.158 173.847C33.3266 173.887 33.4808 173.953 33.6203 174.045C33.7599 174.136 33.8718 174.259 33.9561 174.415C34.042 174.572 34.085 174.767 34.085 175.002V177.367H33.2845V176.881H33.2569C33.2063 176.979 33.135 177.071 33.0429 177.157C32.9525 177.242 32.8382 177.31 32.7002 177.362C32.5637 177.413 32.4035 177.438 32.2195 177.438ZM32.4357 176.826C32.6028 176.826 32.7477 176.793 32.8704 176.727C32.9931 176.66 33.0874 176.571 33.1534 176.46C33.2208 176.35 33.2546 176.23 33.2546 176.099V175.683C33.2285 175.704 33.184 175.724 33.1212 175.743C33.0598 175.761 32.9908 175.777 32.9141 175.791C32.8375 175.805 32.7615 175.817 32.6864 175.828C32.6113 175.838 32.5461 175.848 32.4909 175.855C32.3667 175.872 32.2555 175.9 32.1573 175.938C32.0592 175.977 31.9818 176.03 31.925 176.099C31.8683 176.167 31.8399 176.254 31.8399 176.361C31.8399 176.515 31.8959 176.631 32.0078 176.709C32.1198 176.787 32.2624 176.826 32.4357 176.826Z" fill="#3C3A3E"/>
<path d="M37.2593 173.833V174.517H35.7365V177.367H34.9222V173.833H37.2593Z" fill="#3C3A3E"/>
<path d="M37.927 178.692V173.833H38.7458V174.418H38.7941C38.8371 174.332 38.8977 174.241 38.9759 174.144C39.0541 174.046 39.1599 173.962 39.2933 173.893C39.4267 173.823 39.5969 173.787 39.804 173.787C40.0769 173.787 40.323 173.857 40.5423 173.997C40.7632 174.135 40.938 174.339 41.0668 174.611C41.1971 174.881 41.2623 175.212 41.2623 175.605C41.2623 175.993 41.1987 176.322 41.0714 176.594C40.9441 176.865 40.7708 177.072 40.5515 177.215C40.3322 177.357 40.0838 177.429 39.8063 177.429C39.6038 177.429 39.4359 177.395 39.3025 177.328C39.1691 177.26 39.0617 177.179 38.9805 177.084C38.9007 176.987 38.8386 176.896 38.7941 176.81H38.7596V178.692H37.927ZM38.7435 175.6C38.7435 175.829 38.7757 176.029 38.8402 176.2C38.9061 176.372 39.0004 176.506 39.1231 176.603C39.2473 176.698 39.3976 176.746 39.5739 176.746C39.758 176.746 39.9121 176.696 40.0363 176.598C40.1605 176.499 40.254 176.363 40.3169 176.191C40.3813 176.018 40.4135 175.821 40.4135 175.6C40.4135 175.381 40.3821 175.186 40.3192 175.016C40.2563 174.846 40.1628 174.712 40.0386 174.616C39.9144 174.519 39.7595 174.471 39.5739 174.471C39.396 174.471 39.245 174.517 39.1208 174.611C38.9966 174.704 38.9023 174.836 38.8379 175.004C38.775 175.173 38.7435 175.372 38.7435 175.6Z" fill="#3C3A3E"/>
<path d="M42.3728 178.692C42.2593 178.692 42.1542 178.682 42.0576 178.664C41.9626 178.647 41.8866 178.627 41.8299 178.604L42.0231 177.955C42.1443 177.991 42.2524 178.008 42.3475 178.006C42.4425 178.005 42.5261 177.975 42.5982 177.916C42.6718 177.86 42.7339 177.765 42.7845 177.631L42.8558 177.44L41.5746 173.833H42.4579L43.2722 176.502H43.309L44.1256 173.833H45.0112L43.5965 177.794C43.5306 177.982 43.4431 178.142 43.3343 178.275C43.2254 178.41 43.092 178.513 42.934 178.583C42.7776 178.656 42.5905 178.692 42.3728 178.692Z" fill="#3C3A3E"/>
<path d="M45.3918 176.398H46.2176C46.2253 176.53 46.2843 176.632 46.3948 176.704C46.5052 176.776 46.6485 176.812 46.8249 176.812C47.0043 176.812 47.1554 176.773 47.278 176.695C47.4023 176.615 47.4644 176.495 47.4644 176.334C47.4644 176.239 47.4406 176.155 47.3931 176.083C47.3455 176.009 47.2788 175.953 47.1929 175.913C47.1071 175.873 47.0059 175.853 46.8893 175.853H46.3487V175.262H46.8893C47.0626 175.262 47.1937 175.222 47.2826 175.142C47.3731 175.063 47.4184 174.962 47.4184 174.841C47.4184 174.711 47.3708 174.605 47.2757 174.524C47.1822 174.442 47.0526 174.402 46.887 174.402C46.7214 174.402 46.5834 174.439 46.473 174.514C46.3641 174.589 46.3073 174.686 46.3027 174.804H45.4816C45.4846 174.599 45.546 174.42 45.6656 174.268C45.7867 174.116 45.9493 173.998 46.1532 173.914C46.3587 173.83 46.5903 173.787 46.8479 173.787C47.1239 173.787 47.3624 173.829 47.5633 173.912C47.7642 173.994 47.9191 174.11 48.0279 174.259C48.1368 174.406 48.1912 174.579 48.1912 174.779C48.1912 174.971 48.1314 175.129 48.0118 175.255C47.8922 175.379 47.7312 175.468 47.5288 175.522V175.559C47.6683 175.566 47.7941 175.606 47.906 175.678C48.018 175.749 48.1069 175.845 48.1728 175.966C48.2388 176.087 48.2718 176.227 48.2718 176.387C48.2718 176.603 48.2097 176.79 48.0854 176.948C47.9612 177.104 47.7902 177.225 47.5725 177.309C47.3563 177.393 47.1086 177.436 46.8295 177.436C46.5581 177.436 46.315 177.395 46.1003 177.314C45.8872 177.231 45.7177 177.112 45.592 176.957C45.4662 176.802 45.3995 176.616 45.3918 176.398Z" fill="#3C3A3E"/>
<path d="M49.7301 176.24L51.1448 173.833H52.0005V177.367H51.1954V174.958L49.7853 177.367H48.9273V173.833H49.7301V176.24Z" fill="#3C3A3E"/>
<path d="M52.4599 174.517V173.833H55.5515V174.517H54.4083V177.367H53.6032V174.517H52.4599Z" fill="#3C3A3E"/>
<path d="M57.6332 177.436C57.279 177.436 56.973 177.362 56.7154 177.215C56.4593 177.066 56.2623 176.856 56.1242 176.585C55.9862 176.312 55.9172 175.99 55.9172 175.621C55.9172 175.257 55.9862 174.938 56.1242 174.664C56.2638 174.388 56.4585 174.173 56.7085 174.02C56.9585 173.865 57.2521 173.787 57.5895 173.787C57.8073 173.787 58.0127 173.823 58.206 173.893C58.4007 173.962 58.5725 174.07 58.7212 174.215C58.8715 174.361 58.9896 174.547 59.0755 174.772C59.1613 174.996 59.2043 175.263 59.2043 175.572V175.828H56.3083V175.267H58.4061C58.4046 175.107 58.3701 174.965 58.3026 174.841C58.2351 174.715 58.1408 174.616 58.0196 174.544C57.9 174.472 57.7605 174.436 57.601 174.436C57.4308 174.436 57.2813 174.478 57.1525 174.56C57.0236 174.642 56.9232 174.749 56.8511 174.882C56.7806 175.014 56.7445 175.159 56.743 175.317V175.807C56.743 176.013 56.7806 176.189 56.8557 176.336C56.9309 176.482 57.0359 176.594 57.1709 176.672C57.3058 176.749 57.4638 176.787 57.6447 176.787C57.7659 176.787 57.8755 176.77 57.9736 176.736C58.0718 176.701 58.1569 176.65 58.229 176.582C58.301 176.515 58.3555 176.431 58.3923 176.332L59.1698 176.419C59.1207 176.624 59.0272 176.804 58.8891 176.957C58.7527 177.109 58.5778 177.227 58.3647 177.311C58.1515 177.394 57.9077 177.436 57.6332 177.436Z" fill="#3C3A3E"/>
<path d="M64.4667 173.833V177.367H63.6662V173.833H64.4667ZM64.0917 175.43V176.111C64.0013 176.151 63.8985 176.187 63.7835 176.219C63.67 176.249 63.5496 176.274 63.4224 176.292C63.2966 176.311 63.1709 176.32 63.0451 176.32C62.5728 176.32 62.1994 176.214 61.9249 176.003C61.6519 175.789 61.5155 175.457 61.5155 175.007V173.829H62.3113V175.007C62.3113 175.158 62.3382 175.28 62.3919 175.372C62.4455 175.464 62.5268 175.532 62.6357 175.575C62.7446 175.616 62.881 175.637 63.0451 175.637C63.2291 175.637 63.404 175.618 63.5696 175.582C63.7352 175.545 63.9093 175.494 64.0917 175.43Z" fill="#3C3A3E"/>
<path d="M66.8687 177.436C66.5145 177.436 66.2085 177.362 65.9509 177.215C65.6948 177.066 65.4978 176.856 65.3598 176.585C65.2217 176.312 65.1527 175.99 65.1527 175.621C65.1527 175.257 65.2217 174.938 65.3598 174.664C65.4993 174.388 65.6941 174.173 65.944 174.02C66.194 173.865 66.4876 173.787 66.825 173.787C67.0428 173.787 67.2483 173.823 67.4415 173.893C67.6362 173.962 67.808 174.07 67.9567 174.215C68.107 174.361 68.2251 174.547 68.311 174.772C68.3969 174.996 68.4398 175.263 68.4398 175.572V175.828H65.5438V175.267H67.6416C67.6401 175.107 67.6056 174.965 67.5381 174.841C67.4706 174.715 67.3763 174.616 67.2552 174.544C67.1355 174.472 66.996 174.436 66.8365 174.436C66.6663 174.436 66.5168 174.478 66.388 174.56C66.2592 174.642 66.1587 174.749 66.0866 174.882C66.0161 175.014 65.9801 175.159 65.9785 175.317V175.807C65.9785 176.013 66.0161 176.189 66.0912 176.336C66.1664 176.482 66.2714 176.594 66.4064 176.672C66.5413 176.749 66.6993 176.787 66.8802 176.787C67.0014 176.787 67.111 176.77 67.2092 176.736C67.3073 176.701 67.3924 176.65 67.4645 176.582C67.5366 176.515 67.591 176.431 67.6278 176.332L68.4053 176.419C68.3562 176.624 68.2627 176.804 68.1247 176.957C67.9882 177.109 67.8134 177.227 67.6002 177.311C67.387 177.394 67.1432 177.436 66.8687 177.436Z" fill="#3C3A3E"/>
<path d="M69.1442 178.692V173.833H69.9631V174.418H70.0114C70.0544 174.332 70.1149 174.241 70.1932 174.144C70.2714 174.046 70.3772 173.962 70.5106 173.893C70.644 173.823 70.8142 173.787 71.0212 173.787C71.2942 173.787 71.5403 173.857 71.7596 173.997C71.9805 174.135 72.1553 174.339 72.2841 174.611C72.4144 174.881 72.4796 175.212 72.4796 175.605C72.4796 175.993 72.416 176.322 72.2887 176.594C72.1614 176.865 71.9881 177.072 71.7688 177.215C71.5495 177.357 71.3011 177.429 71.0235 177.429C70.8211 177.429 70.6532 177.395 70.5198 177.328C70.3864 177.26 70.279 177.179 70.1978 177.084C70.118 176.987 70.0559 176.896 70.0114 176.81H69.9769V178.692H69.1442ZM69.9608 175.6C69.9608 175.829 69.993 176.029 70.0574 176.2C70.1234 176.372 70.2177 176.506 70.3404 176.603C70.4646 176.698 70.6149 176.746 70.7912 176.746C70.9752 176.746 71.1294 176.696 71.2536 176.598C71.3778 176.499 71.4713 176.363 71.5342 176.191C71.5986 176.018 71.6308 175.821 71.6308 175.6C71.6308 175.381 71.5994 175.186 71.5365 175.016C71.4736 174.846 71.3801 174.712 71.2559 174.616C71.1317 174.519 70.9768 174.471 70.7912 174.471C70.6133 174.471 70.4623 174.517 70.3381 174.611C70.2139 174.704 70.1195 174.836 70.0551 175.004C69.9923 175.173 69.9608 175.372 69.9608 175.6Z" fill="#3C3A3E"/>
<path d="M74.7569 177.436C74.4026 177.436 74.0967 177.362 73.8391 177.215C73.583 177.066 73.3859 176.856 73.2479 176.585C73.1099 176.312 73.0409 175.99 73.0409 175.621C73.0409 175.257 73.1099 174.938 73.2479 174.664C73.3874 174.388 73.5822 174.173 73.8322 174.02C74.0821 173.865 74.3758 173.787 74.7132 173.787C74.9309 173.787 75.1364 173.823 75.3296 173.893C75.5244 173.962 75.6961 174.07 75.8449 174.215C75.9952 174.361 76.1132 174.547 76.1991 174.772C76.285 174.996 76.3279 175.263 76.3279 175.572V175.828H73.4319V175.267H75.5297C75.5282 175.107 75.4937 174.965 75.4262 174.841C75.3588 174.715 75.2644 174.616 75.1433 174.544C75.0237 174.472 74.8841 174.436 74.7247 174.436C74.5544 174.436 74.4049 174.478 74.2761 174.56C74.1473 174.642 74.0468 174.749 73.9748 174.882C73.9042 175.014 73.8682 175.159 73.8667 175.317V175.807C73.8667 176.013 73.9042 176.189 73.9794 176.336C74.0545 176.482 74.1596 176.594 74.2945 176.672C74.4295 176.749 74.5874 176.787 74.7684 176.787C74.8895 176.787 74.9991 176.77 75.0973 176.736C75.1954 176.701 75.2805 176.65 75.3526 176.582C75.4247 176.515 75.4791 176.431 75.5159 176.332L76.2934 176.419C76.2444 176.624 76.1508 176.804 76.0128 176.957C75.8763 177.109 75.7015 177.227 75.4883 177.311C75.2752 177.394 75.0313 177.436 74.7569 177.436Z" fill="#3C3A3E"/>
<path d="M76.8369 176.398H77.6626C77.6703 176.53 77.7294 176.632 77.8398 176.704C77.9502 176.776 78.0936 176.812 78.2699 176.812C78.4493 176.812 78.6004 176.773 78.7231 176.695C78.8473 176.615 78.9094 176.495 78.9094 176.334C78.9094 176.239 78.8856 176.155 78.8381 176.083C78.7905 176.009 78.7238 175.953 78.638 175.913C78.5521 175.873 78.4509 175.853 78.3343 175.853H77.7938V175.262H78.3343C78.5076 175.262 78.6387 175.222 78.7277 175.142C78.8181 175.063 78.8634 174.962 78.8634 174.841C78.8634 174.711 78.8158 174.605 78.7208 174.524C78.6272 174.442 78.4976 174.402 78.332 174.402C78.1664 174.402 78.0284 174.439 77.918 174.514C77.8091 174.589 77.7524 174.686 77.7478 174.804H76.9266C76.9296 174.599 76.991 174.42 77.1106 174.268C77.2317 174.116 77.3943 173.998 77.5982 173.914C77.8037 173.83 78.0353 173.787 78.2929 173.787C78.5689 173.787 78.8074 173.829 79.0083 173.912C79.2092 173.994 79.3641 174.11 79.4729 174.259C79.5818 174.406 79.6363 174.579 79.6363 174.779C79.6363 174.971 79.5765 175.129 79.4568 175.255C79.3372 175.379 79.1762 175.468 78.9738 175.522V175.559C79.1133 175.566 79.2391 175.606 79.351 175.678C79.463 175.749 79.5519 175.845 79.6179 175.966C79.6838 176.087 79.7168 176.227 79.7168 176.387C79.7168 176.603 79.6547 176.79 79.5304 176.948C79.4062 177.104 79.2353 177.225 79.0175 177.309C78.8013 177.393 78.5536 177.436 78.2745 177.436C78.0031 177.436 77.76 177.395 77.5453 177.314C77.3322 177.231 77.1627 177.112 77.037 176.957C76.9112 176.802 76.8445 176.616 76.8369 176.398Z" fill="#3C3A3E"/>
<path d="M82.729 172.656L83.7664 174.381H83.8032L84.8452 172.656H85.8182L84.3667 175.011L85.8412 177.367H84.8521L83.8032 175.653H83.7664L82.7174 177.367H81.7329L83.2212 175.011L81.7513 172.656H82.729Z" fill="#3C3A3E"/>
<path d="M86.4881 177.367V172.656H87.3415V176.651H89.4164V177.367H86.4881Z" fill="#3C3A3E"/>
<path d="M92.7172 173.951C92.6958 173.75 92.6053 173.593 92.4458 173.482C92.2878 173.37 92.0824 173.314 91.8293 173.314C91.6514 173.314 91.4989 173.34 91.3716 173.394C91.2443 173.448 91.1469 173.521 91.0794 173.613C91.012 173.705 90.9775 173.81 90.9759 173.928C90.9759 174.026 90.9982 174.111 91.0426 174.183C91.0886 174.255 91.1507 174.316 91.229 174.367C91.3072 174.416 91.3938 174.458 91.4889 174.491C91.584 174.525 91.6798 174.553 91.7764 174.576L92.2181 174.687C92.396 174.728 92.5669 174.784 92.731 174.855C92.8966 174.925 93.0446 175.014 93.175 175.122C93.3068 175.229 93.4111 175.359 93.4878 175.51C93.5645 175.662 93.6028 175.84 93.6028 176.044C93.6028 176.32 93.5323 176.563 93.3912 176.773C93.2501 176.982 93.0462 177.145 92.7793 177.263C92.514 177.38 92.1928 177.438 91.8155 177.438C91.449 177.438 91.1308 177.381 90.8609 177.268C90.5926 177.154 90.3825 176.989 90.2306 176.771C90.0804 176.553 89.9991 176.288 89.9868 175.975H90.8264C90.8387 176.139 90.8893 176.276 90.9782 176.384C91.0672 176.493 91.183 176.575 91.3256 176.628C91.4697 176.682 91.6307 176.709 91.8086 176.709C91.9942 176.709 92.1567 176.681 92.2963 176.626C92.4374 176.569 92.5478 176.491 92.6275 176.391C92.7073 176.29 92.7479 176.172 92.7494 176.037C92.7479 175.914 92.7119 175.813 92.6413 175.733C92.5708 175.652 92.4719 175.585 92.3446 175.531C92.2188 175.476 92.0716 175.427 91.9029 175.384L91.367 175.246C90.979 175.146 90.6723 174.995 90.4469 174.793C90.223 174.589 90.111 174.318 90.111 173.981C90.111 173.703 90.1862 173.46 90.3365 173.251C90.4883 173.043 90.6945 172.881 90.9552 172.766C91.2159 172.65 91.5111 172.591 91.8408 172.591C92.1751 172.591 92.468 172.65 92.7195 172.766C92.9725 172.881 93.1711 173.041 93.3153 173.247C93.4594 173.451 93.5338 173.685 93.5384 173.951H92.7172Z" fill="#3C3A3E"/>
<path d="M96.7363 176.24L98.151 173.833H99.0067V177.367H98.2016V174.958L96.7915 177.367H95.9335V173.833H96.7363V176.24Z" fill="#3C3A3E"/>
<path d="M99.618 177.367L99.6134 176.681H99.7353C99.8273 176.681 99.9047 176.66 99.9676 176.619C100.03 176.578 100.083 176.509 100.124 176.412C100.165 176.314 100.198 176.182 100.221 176.016C100.244 175.851 100.26 175.645 100.269 175.398L100.331 173.833H102.907V177.367H102.102V174.517H101.088L101.033 175.655C101.019 175.95 100.986 176.205 100.934 176.421C100.883 176.636 100.811 176.813 100.717 176.953C100.625 177.092 100.51 177.196 100.37 177.265C100.231 177.333 100.066 177.367 99.8756 177.367H99.618Z" fill="#3C3A3E"/>
<path d="M104.549 176.24L105.963 173.833H106.819V177.367H106.014V174.958L104.604 177.367H103.746V173.833H104.549V176.24Z" fill="#3C3A3E"/>
<path d="M109.923 177.367H109.012L110.67 172.656H111.724L113.384 177.367H112.474L111.215 173.622H111.178L109.923 177.367ZM109.952 175.52H112.437V176.205H109.952V175.52Z" fill="#3C3A3E"/>
<path d="M114.005 177.367V172.656H115.771C116.133 172.656 116.437 172.723 116.682 172.858C116.929 172.993 117.116 173.179 117.241 173.415C117.369 173.649 117.432 173.916 117.432 174.215C117.432 174.517 117.369 174.786 117.241 175.02C117.114 175.255 116.926 175.44 116.678 175.575C116.429 175.708 116.123 175.775 115.76 175.775H114.589V175.073H115.645C115.857 175.073 116.03 175.036 116.165 174.963C116.3 174.889 116.399 174.788 116.464 174.659C116.53 174.53 116.563 174.382 116.563 174.215C116.563 174.048 116.53 173.901 116.464 173.774C116.399 173.646 116.299 173.547 116.163 173.477C116.028 173.405 115.854 173.369 115.64 173.369H114.858V177.367H114.005Z" fill="#3C3A3E"/>
<path d="M119.027 172.656V177.367H118.174V172.656H119.027Z" fill="#3C3A3E"/>
<path d="M121.975 175.062V175.747H119.854V175.062H121.975Z" fill="#3C3A3E"/>
<path d="M123.494 176.24L124.909 173.833H125.764V177.367H124.959V174.958L123.549 177.367H122.691V173.833H123.494V176.24Z" fill="#3C3A3E"/>
<path d="M129.046 175.255V175.938H127.165V175.255H129.046ZM127.422 173.833V177.367H126.619V173.833H127.422ZM129.591 173.833V177.367H128.791V173.833H129.591Z" fill="#3C3A3E"/>
<path d="M130.038 174.517V173.833H133.13V174.517H131.987V177.367H131.181V174.517H130.038Z" fill="#3C3A3E"/>
<path d="M135.211 177.436C134.857 177.436 134.551 177.362 134.294 177.215C134.038 177.066 133.841 176.856 133.703 176.585C133.565 176.312 133.496 175.99 133.496 175.621C133.496 175.257 133.565 174.938 133.703 174.664C133.842 174.388 134.037 174.173 134.287 174.02C134.537 173.865 134.83 173.787 135.168 173.787C135.386 173.787 135.591 173.823 135.784 173.893C135.979 173.962 136.151 174.07 136.3 174.215C136.45 174.361 136.568 174.547 136.654 174.772C136.74 174.996 136.783 175.263 136.783 175.572V175.828H133.887V175.267H135.984C135.983 175.107 135.948 174.965 135.881 174.841C135.813 174.715 135.719 174.616 135.598 174.544C135.478 174.472 135.339 174.436 135.179 174.436C135.009 174.436 134.86 174.478 134.731 174.56C134.602 174.642 134.501 174.749 134.429 174.882C134.359 175.014 134.323 175.159 134.321 175.317V175.807C134.321 176.013 134.359 176.189 134.434 176.336C134.509 176.482 134.614 176.594 134.749 176.672C134.884 176.749 135.042 176.787 135.223 176.787C135.344 176.787 135.454 176.77 135.552 176.736C135.65 176.701 135.735 176.65 135.807 176.582C135.879 176.515 135.934 176.431 135.971 176.332L136.748 176.419C136.699 176.624 136.605 176.804 136.467 176.957C136.331 177.109 136.156 177.227 135.943 177.311C135.73 177.394 135.486 177.436 135.211 177.436Z" fill="#3C3A3E"/>
<path d="M139.824 173.833V174.517H138.301V177.367H137.487V173.833H139.824Z" fill="#3C3A3E"/>
<path d="M140.492 178.692V173.833H141.311V174.418H141.359C141.402 174.332 141.462 174.241 141.541 174.144C141.619 174.046 141.725 173.962 141.858 173.893C141.991 173.823 142.162 173.787 142.369 173.787C142.642 173.787 142.888 173.857 143.107 173.997C143.328 174.135 143.503 174.339 143.632 174.611C143.762 174.881 143.827 175.212 143.827 175.605C143.827 175.993 143.763 176.322 143.636 176.594C143.509 176.865 143.336 177.072 143.116 177.215C142.897 177.357 142.649 177.429 142.371 177.429C142.169 177.429 142.001 177.395 141.867 177.328C141.734 177.26 141.627 177.179 141.545 177.084C141.465 176.987 141.403 176.896 141.359 176.81H141.324V178.692H140.492ZM141.308 175.6C141.308 175.829 141.341 176.029 141.405 176.2C141.471 176.372 141.565 176.506 141.688 176.603C141.812 176.698 141.962 176.746 142.139 176.746C142.323 176.746 142.477 176.696 142.601 176.598C142.725 176.499 142.819 176.363 142.882 176.191C142.946 176.018 142.978 175.821 142.978 175.6C142.978 175.381 142.947 175.186 142.884 175.016C142.821 174.846 142.728 174.712 142.603 174.616C142.479 174.519 142.324 174.471 142.139 174.471C141.961 174.471 141.81 174.517 141.686 174.611C141.561 174.704 141.467 174.836 141.403 175.004C141.34 175.173 141.308 175.372 141.308 175.6Z" fill="#3C3A3E"/>
<path d="M145.557 177.438C145.333 177.438 145.131 177.398 144.952 177.318C144.774 177.237 144.633 177.117 144.529 176.959C144.426 176.802 144.375 176.607 144.375 176.375C144.375 176.176 144.411 176.011 144.485 175.881C144.559 175.75 144.659 175.646 144.786 175.568C144.914 175.49 145.057 175.431 145.216 175.391C145.377 175.349 145.544 175.319 145.716 175.301C145.923 175.28 146.091 175.26 146.219 175.243C146.348 175.225 146.442 175.197 146.5 175.161C146.56 175.122 146.59 175.063 146.59 174.984V174.97C146.59 174.796 146.538 174.662 146.436 174.567C146.333 174.472 146.185 174.425 145.992 174.425C145.788 174.425 145.626 174.469 145.506 174.558C145.388 174.647 145.308 174.752 145.267 174.873L144.49 174.763C144.551 174.548 144.652 174.369 144.793 174.224C144.934 174.079 145.107 173.97 145.311 173.898C145.515 173.824 145.74 173.787 145.987 173.787C146.157 173.787 146.327 173.807 146.495 173.847C146.664 173.887 146.818 173.953 146.958 174.045C147.097 174.136 147.209 174.259 147.294 174.415C147.379 174.572 147.422 174.767 147.422 175.002V177.367H146.622V176.881H146.594C146.544 176.979 146.472 177.071 146.38 177.157C146.29 177.242 146.176 177.31 146.038 177.362C145.901 177.413 145.741 177.438 145.557 177.438ZM145.773 176.826C145.94 176.826 146.085 176.793 146.208 176.727C146.331 176.66 146.425 176.571 146.491 176.46C146.558 176.35 146.592 176.23 146.592 176.099V175.683C146.566 175.704 146.521 175.724 146.459 175.743C146.397 175.761 146.328 175.777 146.252 175.791C146.175 175.805 146.099 175.817 146.024 175.828C145.949 175.838 145.884 175.848 145.828 175.855C145.704 175.872 145.593 175.9 145.495 175.938C145.397 175.977 145.319 176.03 145.262 176.099C145.206 176.167 145.177 176.254 145.177 176.361C145.177 176.515 145.233 176.631 145.345 176.709C145.457 176.787 145.6 176.826 145.773 176.826Z" fill="#3C3A3E"/>
<path d="M151.243 173.833V176.746H151.784V178.503H150.969V177.367H148.26V173.833H149.062V176.683H150.447V173.833H151.243Z" fill="#3C3A3E"/>
<path d="M153.269 176.24L154.684 173.833H155.539V177.367H154.734V174.958L153.324 177.367H152.466V173.833H153.269V176.24Z" fill="#3C3A3E"/>
<path d="M158.26 175.28V175.966H156.358V175.28H158.26ZM157.018 173.833V177.367H156.183V173.833H157.018ZM159.327 177.436C158.987 177.436 158.692 177.358 158.442 177.203C158.193 177.048 158.001 176.834 157.864 176.559C157.728 176.285 157.66 175.967 157.66 175.607C157.66 175.247 157.728 174.93 157.864 174.657C158.001 174.384 158.193 174.171 158.442 174.017C158.692 173.864 158.987 173.787 159.327 173.787C159.666 173.787 159.96 173.864 160.208 174.017C160.458 174.171 160.652 174.384 160.788 174.657C160.926 174.93 160.995 175.247 160.995 175.607C160.995 175.967 160.926 176.285 160.788 176.559C160.652 176.834 160.458 177.048 160.208 177.203C159.96 177.358 159.666 177.436 159.327 177.436ZM159.327 176.746C159.528 176.746 159.692 176.695 159.82 176.594C159.947 176.493 160.04 176.356 160.1 176.184C160.16 176.013 160.19 175.82 160.19 175.607C160.19 175.394 160.16 175.201 160.1 175.03C160.04 174.858 159.947 174.722 159.82 174.622C159.692 174.521 159.528 174.471 159.327 174.471C159.125 174.471 158.959 174.521 158.83 174.622C158.703 174.722 158.61 174.858 158.55 175.03C158.49 175.201 158.46 175.394 158.46 175.607C158.46 175.822 158.49 176.015 158.55 176.187C158.61 176.358 158.703 176.495 158.83 176.596C158.959 176.696 159.125 176.746 159.327 176.746Z" fill="#3C3A3E"/>
<path d="M47.8827 189.929H46.9051L48.375 192.285L46.8867 194.64H47.8712L48.9201 192.926H48.9569L50.0059 194.64H50.995L49.5205 192.285L50.972 189.929H49.999L48.9569 191.654H48.9201L47.8827 189.929Z" fill="#3C3A3E"/>
<path d="M51.6419 194.64H54.5701V193.925H52.4953V189.929H51.6419V194.64Z" fill="#3C3A3E"/>
<path d="M57.871 191.224H58.6922C58.6761 190.428 57.9975 189.865 56.9946 189.865C56.0055 189.865 55.2625 190.421 55.2648 191.254C55.2648 191.93 55.7456 192.319 56.5207 192.519L57.0567 192.657C57.5651 192.786 57.9009 192.945 57.9032 193.311C57.9009 193.713 57.5191 193.982 56.9624 193.982C56.4287 193.982 56.0147 193.743 55.9802 193.248H55.1406C55.1751 194.185 55.8721 194.711 56.9693 194.711C58.0987 194.711 58.7543 194.148 58.7566 193.317C58.7543 192.501 58.0803 192.128 57.3718 191.96L56.9302 191.85C56.5437 191.758 56.1251 191.595 56.1297 191.201C56.132 190.847 56.4494 190.587 56.9831 190.587C57.4915 190.587 57.8273 190.824 57.871 191.224Z" fill="#3C3A3E"/>
<path fill-rule="evenodd" clip-rule="evenodd" d="M29.5508 137.343H198.444C199.548 137.343 200.444 138.238 200.444 139.343V157.813C200.444 158.918 199.548 159.813 198.444 159.813H29.5508C28.4462 159.813 27.5508 158.918 27.5508 157.813V139.343C27.5508 138.238 28.4462 137.343 29.5508 137.343ZM26.5508 139.343C26.5508 137.686 27.8939 136.343 29.5508 136.343H198.444C200.1 136.343 201.444 137.686 201.444 139.343V157.813C201.444 159.47 200.1 160.813 198.444 160.813H29.5508C27.8939 160.813 26.5508 159.47 26.5508 157.813V139.343ZM31.5898 144.979C31.5898 144.185 32.2343 143.54 33.0293 143.54H145.306C146.101 143.54 146.746 144.185 146.746 144.979C146.746 145.774 146.101 146.419 145.306 146.419H33.0293C32.2343 146.419 31.5898 145.774 31.5898 144.979ZM31.5898 152.177C31.5898 151.382 32.2343 150.737 33.0293 150.737H105.002C105.797 150.737 106.441 151.382 106.441 152.177C106.441 152.972 105.797 153.616 105.002 153.616H33.0293C32.2343 153.616 31.5898 152.972 31.5898 152.177Z" fill="#E4E4E4"/>
<path d="M26.5547 187.443C26.5547 186.25 27.5214 185.284 28.7139 185.284H40.9492C42.1416 185.284 43.1083 186.25 43.1083 187.443V196.799C43.1083 197.992 42.1416 198.958 40.9492 198.958H28.7139C27.5214 198.958 26.5547 197.992 26.5547 196.799V187.443Z" fill="#F4774C"/>
<path d="M31.5898 194.483H38.0674V195.36H31.5898V194.483ZM36.0204 188.882H33.6368V191.563H32.1471L34.8286 194.06L37.5101 191.563H36.0204V188.882Z" fill="white"/>
<g filter="url(#filter2_d_1361_286)">
<rect x="10" y="220.194" width="208" height="42.4637" rx="7" fill="white"/>
</g>
<path d="M27.9802 240.346L28.4985 238.797H30.8601L31.3815 240.346H32.596L30.3816 234.065H28.9769L26.7656 240.346H27.9802ZM28.8052 237.883L29.6547 235.353H29.7038L30.5534 237.883H28.8052Z" fill="#3C3A3E"/>
<path d="M33.3742 240.346H34.4845V238.57H35.0274L36.3186 240.346H37.6619L35.8984 237.948L37.6435 235.635H36.3063L34.8893 237.537H34.4845V235.635H33.3742V240.346Z" fill="#3C3A3E"/>
<path d="M38.0338 236.546H39.5581V240.346H40.6315V236.546H42.1558V235.635H38.0338V236.546Z" fill="#3C3A3E"/>
<path d="M44.1103 238.843V235.635H43.0399V240.346H44.1839L46.064 237.135V240.346H47.1374V235.635H45.9965L44.1103 238.843Z" fill="#3C3A3E"/>
<path d="M48.2776 240.346H50.5594C51.6635 240.346 52.2954 239.846 52.2954 239.067C52.2954 238.408 51.7832 237.948 51.044 237.883C51.6728 237.767 52.0653 237.433 52.0653 236.902C52.0653 236.108 51.3691 235.635 50.2558 235.635H48.2776V240.346ZM49.3173 239.472V238.304H50.5594C50.9673 238.304 51.2158 238.54 51.2158 238.929C51.2158 239.267 50.9673 239.472 50.5594 239.472H49.3173ZM49.3173 237.586V236.525H50.2558C50.7189 236.525 51.0011 236.721 51.0011 237.043C51.0011 237.38 50.7281 237.586 50.2773 237.586H49.3173Z" fill="#3C3A3E"/>
<path d="M54.282 235.635H53.2116V240.346H54.282V238.442H56.1069V240.346H57.1742V235.635H56.1069V237.531H54.282V235.635Z" fill="#3C3A3E"/>
<path d="M59.3679 237.169V235.635H58.2975V240.346H60.4382C61.6374 240.346 62.3275 239.684 62.3306 238.757C62.3275 237.807 61.6374 237.169 60.4382 237.169H59.3679ZM62.9164 240.346H64.0266V235.635H62.9164V240.346ZM59.3679 238.08H60.4382C60.9198 238.08 61.2663 238.365 61.2663 238.773C61.2663 239.162 60.9198 239.435 60.4382 239.435H59.3679V238.08Z" fill="#3C3A3E"/>
<path d="M67.257 240.438C68.3549 240.438 69.1094 239.901 69.3057 239.083L68.2691 238.966C68.1188 239.365 67.7507 239.573 67.2723 239.573C66.5546 239.573 66.0792 239.101 66.07 238.294H69.3517V237.954C69.3517 236.301 68.358 235.574 67.1987 235.574C65.8492 235.574 64.969 236.565 64.969 238.018C64.969 239.497 65.8369 240.438 67.257 240.438ZM66.0731 237.546C66.1068 236.945 66.5515 236.439 67.214 236.439C67.852 236.439 68.2813 236.905 68.2875 237.546H66.0731Z" fill="#3C3A3E"/>
<path d="M121.543 240.346L122.061 238.797H124.423L124.944 240.346H126.158L123.944 234.065H122.539L120.328 240.346H121.543ZM122.368 237.883L123.217 235.353H123.266L124.116 237.883H122.368Z" fill="#3C3A3E"/>
<path d="M126.937 242.113H128.047V239.604H128.093C128.268 239.947 128.633 240.429 129.442 240.429C130.553 240.429 131.384 239.549 131.384 237.997C131.384 236.427 130.528 235.574 129.439 235.574C128.608 235.574 128.262 236.074 128.093 236.414H128.029V235.635H126.937V242.113ZM128.026 237.991C128.026 237.077 128.418 236.485 129.133 236.485C129.872 236.485 130.252 237.114 130.252 237.991C130.252 238.874 129.866 239.518 129.133 239.518C128.424 239.518 128.026 238.905 128.026 237.991Z" fill="#3C3A3E"/>
<path d="M133.065 235.635H131.888L133.286 237.991L131.851 240.346H133.029L134.016 238.65L135.013 240.346H136.181L134.737 237.991L136.157 235.635H134.982L134.016 237.374L133.065 235.635Z" fill="#3C3A3E"/>
<path d="M138.086 238.843V235.635H137.016V240.346H138.16L140.04 237.135V240.346H141.113V235.635H139.972L138.086 238.843Z" fill="#3C3A3E"/>
<path d="M142.253 240.346H144.535C145.639 240.346 146.271 239.846 146.271 239.067C146.271 238.408 145.759 237.948 145.02 237.883C145.649 237.767 146.041 237.433 146.041 236.902C146.041 236.108 145.345 235.635 144.232 235.635H142.253V240.346ZM143.293 239.472V238.304H144.535C144.943 238.304 145.192 238.54 145.192 238.929C145.192 239.267 144.943 239.472 144.535 239.472H143.293ZM143.293 237.586V236.525H144.232C144.695 236.525 144.977 236.721 144.977 237.043C144.977 237.38 144.704 237.586 144.253 237.586H143.293Z" fill="#3C3A3E"/>
<path fill-rule="evenodd" clip-rule="evenodd" d="M25.8359 248.263V247.263H26.24C26.5018 246.992 26.8689 246.824 27.2754 246.824H83.4138C83.8203 246.824 84.1874 246.992 84.4492 247.263H199.289V248.263L84.8532 248.263C84.8532 249.058 84.2088 249.703 83.4138 249.703H27.2754C26.4804 249.703 25.8359 249.058 25.8359 248.263C25.8359 248.263 25.8359 248.263 25.8359 248.263Z" fill="#E4E4E4"/>
</g>
<defs>
<filter id="filter0_d_1361_286" x="92" y="2" width="387" height="249" filterUnits="userSpaceOnUse" color-interpolation-filters="sRGB">
<feFlood flood-opacity="0" result="BackgroundImageFix"/>
<feColorMatrix in="SourceAlpha" type="matrix" values="0 0 0 0 0 0 0 0 0 0 0 0 0 0 0 0 0 0 127 0" result="hardAlpha"/>
<feOffset/>
<feGaussianBlur stdDeviation="12.5"/>
<feComposite in2="hardAlpha" operator="out"/>
<feColorMatrix type="matrix" values="0 0 0 0 0 0 0 0 0 0 0 0 0 0 0 0 0 0 0.09 0"/>
<feBlend mode="normal" in2="BackgroundImageFix" result="effect1_dropShadow_1361_286"/>
<feBlend mode="normal" in="SourceGraphic" in2="effect1_dropShadow_1361_286" result="shape"/>
</filter>
<filter id="filter1_d_1361_286" x="-15" y="66" width="258" height="170.194" filterUnits="userSpaceOnUse" color-interpolation-filters="sRGB">
<feFlood flood-opacity="0" result="BackgroundImageFix"/>
<feColorMatrix in="SourceAlpha" type="matrix" values="0 0 0 0 0 0 0 0 0 0 0 0 0 0 0 0 0 0 127 0" result="hardAlpha"/>
<feOffset/>
<feGaussianBlur stdDeviation="12.5"/>
<feComposite in2="hardAlpha" operator="out"/>
<feColorMatrix type="matrix" values="0 0 0 0 0 0 0 0 0 0 0 0 0 0 0 0 0 0 0.09 0"/>
<feBlend mode="normal" in2="BackgroundImageFix" result="effect1_dropShadow_1361_286"/>
<feBlend mode="normal" in="SourceGraphic" in2="effect1_dropShadow_1361_286" result="shape"/>
</filter>
<filter id="filter2_d_1361_286" x="-15" y="195.194" width="258" height="92.4639" filterUnits="userSpaceOnUse" color-interpolation-filters="sRGB">
<feFlood flood-opacity="0" result="BackgroundImageFix"/>
<feColorMatrix in="SourceAlpha" type="matrix" values="0 0 0 0 0 0 0 0 0 0 0 0 0 0 0 0 0 0 127 0" result="hardAlpha"/>
<feOffset/>
<feGaussianBlur stdDeviation="12.5"/>
<feComposite in2="hardAlpha" operator="out"/>
<feColorMatrix type="matrix" values="0 0 0 0 0 0 0 0 0 0 0 0 0 0 0 0 0 0 0.15 0"/>
<feBlend mode="normal" in2="BackgroundImageFix" result="effect1_dropShadow_1361_286"/>
<feBlend mode="normal" in="SourceGraphic" in2="effect1_dropShadow_1361_286" result="shape"/>
</filter>
<clipPath id="clip0_1361_286">
<rect width="474" height="300" fill="white"/>
</clipPath>
</defs>
</svg>
