<svg width="629" height="355" viewBox="0 0 629 355" fill="none" xmlns="http://www.w3.org/2000/svg">
<rect width="629" height="355" fill="#F5F5F5"/>
<g filter="url(#filter0_d_1334_7444)">
<rect x="36" y="51" width="430" height="254" rx="2" fill="white"/>
</g>
<path d="M36 55C36 52.7909 37.7909 51 40 51H462C464.209 51 466 52.7909 466 55V85H36V55Z" fill="#3C3A3E"/>
<path d="M36 85H142V305H40C37.7909 305 36 303.209 36 301V85Z" fill="#EDEDED"/>
<rect x="142" y="85" width="189" height="1.99999" transform="rotate(90 142 85)" fill="#CBCBCB"/>
<path fill-rule="evenodd" clip-rule="evenodd" d="M46 107C46 105.895 46.8954 105 48 105H124C125.105 105 126 105.895 126 107C126 108.105 125.105 109 124 109H48C46.8954 109 46 108.105 46 107ZM46 185C46 183.895 46.8954 183 48 183H124C125.105 183 126 183.895 126 185C126 186.105 125.105 187 124 187H48C46.8954 187 46 186.105 46 185ZM48 119C46.8954 119 46 119.895 46 121C46 122.105 46.8954 123 48 123H104C105.105 123 106 122.105 106 121C106 119.895 105.105 119 104 119H48ZM46 199C46 197.895 46.8954 197 48 197H104C105.105 197 106 197.895 106 199C106 200.105 105.105 201 104 201H48C46.8954 201 46 200.105 46 199ZM48 133C46.8954 133 46 133.895 46 135C46 136.105 46.8954 137 48 137H113C114.105 137 115 136.105 115 135C115 133.895 114.105 133 113 133H48ZM46 213C46 211.895 46.8954 211 48 211H113C114.105 211 115 211.895 115 213C115 214.105 114.105 215 113 215H48C46.8954 215 46 214.105 46 213ZM48 147C46.8954 147 46 147.895 46 149C46 150.105 46.8954 151 48 151H91C92.1046 151 93 150.105 93 149C93 147.895 92.1046 147 91 147H48ZM46 227C46 225.895 46.8954 225 48 225H91C92.1046 225 93 225.895 93 227C93 228.105 92.1046 229 91 229H48C46.8954 229 46 228.105 46 227ZM48 261C46.8954 261 46 261.895 46 263C46 264.105 46.8954 265 48 265H104C105.105 265 106 264.105 106 263C106 261.895 105.105 261 104 261H48Z" fill="#CBCBCB"/>
<path fill-rule="evenodd" clip-rule="evenodd" d="M100.341 64.6606C101.477 64.8692 102.5 65.5031 103.22 66.4432C103.939 67.3833 104.304 68.565 104.247 69.7661C104.19 70.9673 103.714 72.1052 102.908 72.9663C102.103 73.8273 101.024 74.3521 99.8737 74.442C98.7235 74.5319 97.5813 74.1809 96.6618 73.4547C95.7423 72.7286 95.1088 71.6774 94.8803 70.4986C94.6517 69.3198 94.8439 68.0945 95.4207 67.0531C95.9975 66.0116 96.9193 65.2256 98.0127 64.8427C98.762 64.5808 99.5622 64.5182 100.341 64.6606ZM72.1039 71.695C72.1039 73.5396 70.9089 74.4605 68.519 74.4578H62.7305V64.6121H68.1621C69.4502 64.6121 70.3541 64.7698 70.8779 65.0773C71.2605 65.284 71.579 65.5998 71.796 65.988C72.0131 66.3762 72.1199 66.8207 72.1039 67.2697C72.1107 67.7331 71.9901 68.189 71.7564 68.5832C71.5226 68.9775 71.1855 69.2937 70.7848 69.4945C71.1946 69.6736 71.5419 69.9794 71.7799 70.3707C72.0179 70.762 72.135 71.22 72.1155 71.6829L72.1039 71.695ZM69.4346 67.5609C69.4346 66.942 69.0195 66.6306 68.1854 66.6306H65.2251V68.5196H68.1854C69.0195 68.5196 69.4346 68.2001 69.4346 67.5609ZM69.4346 71.4806C69.4346 70.8375 69.0234 70.5179 68.2009 70.5179H65.2251V72.4433H68.2203C69.0428 72.4433 69.454 72.1197 69.454 71.4806H69.4346ZM93.6752 74.4578H91.1922V70.5543H87.6073V74.4578H85.1165V64.6121H87.6073V68.3861H91.1922V64.6121H93.6752V74.4578ZM114.99 74.4578H111.638L107.821 69.6806V74.4578H105.33V64.6121H107.821V69.3408L111.836 64.6121H115.014L110.626 69.4298L115.014 74.4578H114.99ZM100.209 66.9178C99.8684 66.806 99.5097 66.7685 99.1549 66.8075C98.8001 66.8465 98.4568 66.9613 98.1464 67.1446C97.836 67.3279 97.5651 67.5759 97.3506 67.8731C97.136 68.1703 96.9825 68.5104 96.8995 68.8722C96.8165 69.2339 96.8058 69.6096 96.8681 69.9759C96.9304 70.3421 97.0643 70.6911 97.2615 71.001C97.4587 71.311 97.7151 71.5753 98.0145 71.7775C98.3139 71.9797 98.6501 72.1155 99.0021 72.1764C99.3872 72.257 99.7848 72.2473 100.166 72.1481C100.722 72.0018 101.216 71.6681 101.571 71.1989C101.926 70.7297 102.122 70.1513 102.129 69.5538C102.136 68.9562 101.954 68.3729 101.61 67.8947C101.266 67.4165 100.78 67.0702 100.228 66.9097L100.209 66.9178ZM79.7547 66.7681C80.3441 67.0673 80.8187 67.5659 81.1012 68.1826C81.3837 68.7993 81.4574 69.4976 81.3101 70.1636C81.1629 70.8296 80.8035 71.4238 80.2906 71.8493C79.7777 72.2749 79.1415 72.5065 78.486 72.5065C77.8306 72.5065 77.1944 72.2749 76.6815 71.8493C76.1686 71.4238 75.8092 70.8296 75.6619 70.1636C75.5147 69.4976 75.5884 68.7993 75.8709 68.1826C76.1534 67.5659 76.628 67.0673 77.2174 66.7681V64.1348C75.9633 64.4579 74.866 65.2485 74.1327 66.3573C73.3993 67.4661 73.0806 68.8164 73.2367 70.1534C73.3928 71.4904 74.0129 72.7216 74.98 73.6146C75.9471 74.5076 77.1942 75.0006 78.486 75.0006C79.7779 75.0006 81.025 74.5076 81.9921 73.6146C82.9592 72.7216 83.5793 71.4904 83.7354 70.1534C83.8915 68.8164 83.5728 67.4661 82.8394 66.3573C82.1061 65.2485 81.0088 64.4579 79.7547 64.1348V66.7681Z" fill="white"/>
<path fill-rule="evenodd" clip-rule="evenodd" d="M61.2968 70.7082C61.2968 73.1945 59.8548 74.4391 56.9709 74.4418H51C51 71.95 54.9922 72.0633 56.4588 72.0633C57.6511 72.0633 58.246 71.5239 58.2435 70.4452C58.2435 69.3612 57.6499 68.8272 56.4588 68.8272H53.0912V66.473H56.4316C57.6227 66.473 58.2124 65.9512 58.2124 64.9156C58.2124 63.8801 57.6149 63.3785 56.4316 63.3785C54.7323 63.3785 51 63.8316 51 61H56.4976C58.0805 61 59.1836 61.2036 59.807 61.6108C60.2754 61.9132 60.6574 62.341 60.9133 62.8497C61.1692 63.3584 61.2896 63.9293 61.2619 64.503C61.2859 65.1828 61.1139 65.8545 60.7681 66.4314C60.4223 67.0082 59.9186 67.4637 59.322 67.7391C60.6334 68.3216 61.2877 69.3194 61.2852 70.7324L61.2968 70.7082Z" fill="white"/>
<path fill-rule="evenodd" clip-rule="evenodd" d="M78.8564 71.1529C78.4235 71.2445 77.9735 71.1542 77.6042 70.9017C77.2348 70.6491 76.976 70.2548 76.884 69.8044C76.7919 69.354 76.8742 68.884 77.1127 68.4964C77.3513 68.1089 77.727 67.8352 78.1581 67.7349V63.9648H78.934V67.7349C79.1309 67.7825 79.3176 67.8675 79.4849 67.9856C79.7609 68.1794 79.9753 68.4543 80.1008 68.7755C80.2264 69.0967 80.2575 69.4496 80.1901 69.7892C80.1227 70.1288 79.9599 70.4399 79.7224 70.6828C79.4849 70.9256 79.1834 71.0893 78.8564 71.1529Z" fill="white"/>
<path fill-rule="evenodd" clip-rule="evenodd" d="M174 143C172.895 143 172 143.895 172 145C172 146.105 172.895 147 174 147H238C239.105 147 240 146.105 240 145C240 143.895 239.105 143 238 143H174ZM142 167L36 167V167.5L142 167.5V167ZM142 245L36 245V245.5L142 245.5V245ZM36 281L142 281V281.5L36 281.5V281ZM172 169C172 167.895 172.895 167 174 167H238C239.105 167 240 167.895 240 169C240 170.105 239.105 171 238 171H174C172.895 171 172 170.105 172 169ZM174 191C172.895 191 172 191.895 172 193C172 194.105 172.895 195 174 195H238C239.105 195 240 194.105 240 193C240 191.895 239.105 191 238 191H174ZM172 217C172 215.895 172.895 215 174 215H238C239.105 215 240 215.895 240 217C240 218.105 239.105 219 238 219H174C172.895 219 172 218.105 172 217ZM174 239C172.895 239 172 239.895 172 241C172 242.105 172.895 243 174 243H238C239.105 243 240 242.105 240 241C240 239.895 239.105 239 238 239H174ZM283 145C283 143.895 283.895 143 285 143H314C315.105 143 316 143.895 316 145C316 146.105 315.105 147 314 147H285C283.895 147 283 146.105 283 145ZM285 167C283.895 167 283 167.895 283 169C283 170.105 283.895 171 285 171H314C315.105 171 316 170.105 316 169C316 167.895 315.105 167 314 167H285ZM283 193C283 191.895 283.895 191 285 191H314C315.105 191 316 191.895 316 193C316 194.105 315.105 195 314 195H285C283.895 195 283 194.105 283 193ZM285 215C283.895 215 283 215.895 283 217C283 218.105 283.895 219 285 219H314C315.105 219 316 218.105 316 217C316 215.895 315.105 215 314 215H285ZM283 241C283 239.895 283.895 239 285 239H314C315.105 239 316 239.895 316 241C316 242.105 315.105 243 314 243H285C283.895 243 283 242.105 283 241ZM330 143C328.895 143 328 143.895 328 145C328 146.105 328.895 147 330 147H434C435.105 147 436 146.105 436 145C436 143.895 435.105 143 434 143H330ZM328 169C328 167.895 328.895 167 330 167H434C435.105 167 436 167.895 436 169C436 170.105 435.105 171 434 171H330C328.895 171 328 170.105 328 169ZM330 191C328.895 191 328 191.895 328 193C328 194.105 328.895 195 330 195H434C435.105 195 436 194.105 436 193C436 191.895 435.105 191 434 191H330ZM328 217C328 215.895 328.895 215 330 215H434C435.105 215 436 215.895 436 217C436 218.105 435.105 219 434 219H330C328.895 219 328 218.105 328 217ZM330 239C328.895 239 328 239.895 328 241C328 242.105 328.895 243 330 243H434C435.105 243 436 242.105 436 241C436 239.895 435.105 239 434 239H330Z" fill="#E6E6E6"/>
<path d="M173.981 114H172.294L175.366 105.273H177.318L180.395 114H178.707L176.376 107.063H176.308L173.981 114ZM174.037 110.578H178.639V111.848H174.037V110.578Z" fill="#3C3A3E"/>
<path d="M181.476 114V107.455H184.225C185 107.455 185.612 107.61 186.061 107.919C186.513 108.229 186.739 108.661 186.739 109.215C186.739 109.581 186.611 109.881 186.355 110.114C186.103 110.344 185.757 110.499 185.32 110.578C185.664 110.607 185.965 110.693 186.223 110.838C186.485 110.983 186.689 111.174 186.837 111.409C186.985 111.645 187.059 111.916 187.059 112.223C187.059 112.584 186.963 112.898 186.773 113.165C186.585 113.429 186.311 113.635 185.951 113.783C185.593 113.928 185.158 114 184.647 114H181.476ZM182.921 112.786H184.647C184.931 112.786 185.154 112.719 185.316 112.585C185.478 112.449 185.559 112.264 185.559 112.031C185.559 111.762 185.478 111.55 185.316 111.397C185.154 111.24 184.931 111.162 184.647 111.162H182.921V112.786ZM182.921 110.165H184.255C184.465 110.165 184.645 110.135 184.796 110.076C184.946 110.013 185.061 109.926 185.141 109.816C185.22 109.702 185.26 109.567 185.26 109.411C185.26 109.186 185.168 109.01 184.983 108.882C184.801 108.754 184.549 108.691 184.225 108.691H182.921V110.165Z" fill="#3C3A3E"/>
<path d="M187.974 108.72V107.455H193.701V108.72H191.583V114H190.092V108.72H187.974Z" fill="#3C3A3E"/>
<path d="M197.515 114.128C196.876 114.128 196.322 113.987 195.853 113.706C195.384 113.425 195.021 113.031 194.762 112.526C194.506 112.02 194.378 111.429 194.378 110.753C194.378 110.077 194.506 109.485 194.762 108.976C195.021 108.468 195.384 108.073 195.853 107.791C196.322 107.51 196.876 107.37 197.515 107.37C198.154 107.37 198.708 107.51 199.177 107.791C199.646 108.073 200.008 108.468 200.263 108.976C200.522 109.485 200.651 110.077 200.651 110.753C200.651 111.429 200.522 112.02 200.263 112.526C200.008 113.031 199.646 113.425 199.177 113.706C198.708 113.987 198.154 114.128 197.515 114.128ZM197.523 112.892C197.87 112.892 198.16 112.797 198.393 112.607C198.626 112.414 198.799 112.155 198.913 111.831C199.029 111.507 199.087 111.147 199.087 110.749C199.087 110.348 199.029 109.986 198.913 109.662C198.799 109.335 198.626 109.076 198.393 108.882C198.16 108.689 197.87 108.593 197.523 108.593C197.168 108.593 196.873 108.689 196.637 108.882C196.404 109.076 196.229 109.335 196.113 109.662C195.999 109.986 195.942 110.348 195.942 110.749C195.942 111.147 195.999 111.507 196.113 111.831C196.229 112.155 196.404 112.414 196.637 112.607C196.873 112.797 197.168 112.892 197.523 112.892Z" fill="#3C3A3E"/>
<path d="M201.598 112.206H203.128C203.142 112.451 203.252 112.639 203.456 112.773C203.661 112.906 203.926 112.973 204.253 112.973C204.585 112.973 204.865 112.901 205.093 112.756C205.323 112.608 205.438 112.385 205.438 112.087C205.438 111.911 205.394 111.756 205.306 111.622C205.218 111.486 205.094 111.381 204.935 111.307C204.776 111.233 204.588 111.196 204.372 111.196H203.371V110.101H204.372C204.693 110.101 204.936 110.027 205.101 109.879C205.269 109.732 205.353 109.546 205.353 109.321C205.353 109.08 205.264 108.884 205.088 108.733C204.915 108.583 204.675 108.507 204.368 108.507C204.061 108.507 203.806 108.577 203.601 108.716C203.399 108.855 203.294 109.034 203.286 109.253H201.764C201.77 108.872 201.884 108.541 202.105 108.26C202.33 107.979 202.631 107.76 203.009 107.604C203.389 107.448 203.818 107.37 204.296 107.37C204.807 107.37 205.249 107.446 205.621 107.6C205.993 107.753 206.28 107.968 206.482 108.243C206.684 108.516 206.784 108.837 206.784 109.206C206.784 109.561 206.674 109.855 206.452 110.088C206.23 110.318 205.932 110.483 205.557 110.583V110.651C205.816 110.665 206.049 110.739 206.256 110.872C206.463 111.003 206.628 111.181 206.75 111.405C206.872 111.629 206.934 111.889 206.934 112.185C206.934 112.585 206.818 112.932 206.588 113.225C206.358 113.514 206.041 113.737 205.638 113.894C205.237 114.05 204.779 114.128 204.262 114.128C203.759 114.128 203.309 114.053 202.911 113.902C202.516 113.749 202.202 113.529 201.969 113.242C201.736 112.955 201.612 112.61 201.598 112.206Z" fill="#3C3A3E"/>
<path d="M208.148 114V107.455H210.897C211.672 107.455 212.284 107.61 212.733 107.919C213.185 108.229 213.411 108.661 213.411 109.215C213.411 109.581 213.283 109.881 213.027 110.114C212.774 110.344 212.429 110.499 211.992 110.578C212.335 110.607 212.637 110.693 212.895 110.838C213.157 110.983 213.361 111.174 213.509 111.409C213.657 111.645 213.73 111.916 213.73 112.223C213.73 112.584 213.635 112.898 213.445 113.165C213.257 113.429 212.983 113.635 212.622 113.783C212.264 113.928 211.83 114 211.318 114H208.148ZM209.593 112.786H211.318C211.603 112.786 211.826 112.719 211.987 112.585C212.149 112.449 212.23 112.264 212.23 112.031C212.23 111.762 212.149 111.55 211.987 111.397C211.826 111.24 211.603 111.162 211.318 111.162H209.593V112.786ZM209.593 110.165H210.926C211.137 110.165 211.317 110.135 211.468 110.076C211.618 110.013 211.733 109.926 211.813 109.816C211.892 109.702 211.932 109.567 211.932 109.411C211.932 109.186 211.84 109.01 211.655 108.882C211.473 108.754 211.22 108.691 210.897 108.691H209.593V110.165Z" fill="#3C3A3E"/>
<path d="M217.859 114.128C217.219 114.128 216.665 113.987 216.197 113.706C215.728 113.425 215.364 113.031 215.106 112.526C214.85 112.02 214.722 111.429 214.722 110.753C214.722 110.077 214.85 109.485 215.106 108.976C215.364 108.468 215.728 108.073 216.197 107.791C216.665 107.51 217.219 107.37 217.859 107.37C218.498 107.37 219.052 107.51 219.521 107.791C219.989 108.073 220.351 108.468 220.607 108.976C220.866 109.485 220.995 110.077 220.995 110.753C220.995 111.429 220.866 112.02 220.607 112.526C220.351 113.031 219.989 113.425 219.521 113.706C219.052 113.987 218.498 114.128 217.859 114.128ZM217.867 112.892C218.214 112.892 218.503 112.797 218.736 112.607C218.969 112.414 219.143 112.155 219.256 111.831C219.373 111.507 219.431 111.147 219.431 110.749C219.431 110.348 219.373 109.986 219.256 109.662C219.143 109.335 218.969 109.076 218.736 108.882C218.503 108.689 218.214 108.593 217.867 108.593C217.512 108.593 217.217 108.689 216.981 108.882C216.748 109.076 216.573 109.335 216.457 109.662C216.343 109.986 216.286 110.348 216.286 110.749C216.286 111.147 216.343 111.507 216.457 111.831C216.573 112.155 216.748 112.414 216.981 112.607C217.217 112.797 217.512 112.892 217.867 112.892Z" fill="#3C3A3E"/>
<path d="M226.8 110.088V111.354H223.314V110.088H226.8ZM223.791 107.455V114H222.304V107.455H223.791ZM227.81 107.455V114H226.327V107.455H227.81Z" fill="#3C3A3E"/>
<path d="M229.371 114V107.455H230.913V110.097H231.476L233.445 107.455H235.302L232.878 110.668L235.328 114H233.462L231.668 111.533H230.913V114H229.371Z" fill="#3C3A3E"/>
<path d="M237.69 111.912L240.311 107.455H241.896V114H240.404V109.539L237.792 114H236.203V107.455H237.69V111.912Z" fill="#3C3A3E"/>
<path d="M245.877 115.901V112.73H246.397C246.536 112.622 246.653 112.476 246.746 112.291C246.84 112.104 246.917 111.884 246.976 111.631C247.039 111.375 247.09 111.09 247.13 110.774C247.17 110.456 247.205 110.114 247.236 109.747L247.424 107.455H252.154V112.73H253.168V115.901H251.677V114H247.394V115.901H245.877ZM247.982 112.73H250.68V108.699H248.762L248.66 109.747C248.603 110.441 248.528 111.034 248.434 111.529C248.34 112.023 248.19 112.424 247.982 112.73Z" fill="#3C3A3E"/>
<path d="M253.868 114L253.86 112.73H254.085C254.256 112.73 254.399 112.692 254.516 112.615C254.632 112.539 254.729 112.411 254.806 112.232C254.882 112.05 254.942 111.806 254.985 111.499C255.027 111.192 255.057 110.81 255.074 110.352L255.189 107.455H259.962V114H258.47V108.72H256.591L256.489 110.83C256.463 111.375 256.402 111.848 256.306 112.249C256.212 112.647 256.078 112.975 255.905 113.233C255.735 113.492 255.52 113.685 255.262 113.813C255.003 113.938 254.698 114 254.345 114H253.868Z" fill="#3C3A3E"/>
<path d="M265.384 114V108.708H263.987C263.632 108.708 263.359 108.79 263.169 108.955C262.978 109.12 262.884 109.324 262.887 109.568C262.884 109.813 262.974 110.014 263.156 110.174C263.338 110.333 263.598 110.412 263.936 110.412H265.87V111.537H263.936C263.413 111.537 262.961 111.455 262.581 111.29C262.2 111.125 261.907 110.892 261.703 110.591C261.498 110.29 261.396 109.938 261.396 109.534C261.396 109.114 261.5 108.749 261.707 108.439C261.917 108.127 262.215 107.885 262.602 107.715C262.991 107.541 263.453 107.455 263.987 107.455H266.829V114H265.384ZM261.157 114L262.985 110.642H264.507L262.674 114H261.157Z" fill="#3C3A3E"/>
<path d="M271.359 114V107.455H272.902V110.097H273.464L275.433 107.455H277.291L274.866 110.668L277.316 114H275.45L273.656 111.533H272.902V114H271.359Z" fill="#3C3A3E"/>
<path d="M280.777 114.128C280.137 114.128 279.583 113.987 279.115 113.706C278.646 113.425 278.282 113.031 278.024 112.526C277.768 112.02 277.64 111.429 277.64 110.753C277.64 110.077 277.768 109.485 278.024 108.976C278.282 108.468 278.646 108.073 279.115 107.791C279.583 107.51 280.137 107.37 280.777 107.37C281.416 107.37 281.97 107.51 282.438 107.791C282.907 108.073 283.269 108.468 283.525 108.976C283.784 109.485 283.913 110.077 283.913 110.753C283.913 111.429 283.784 112.02 283.525 112.526C283.269 113.031 282.907 113.425 282.438 113.706C281.97 113.987 281.416 114.128 280.777 114.128ZM280.785 112.892C281.132 112.892 281.421 112.797 281.654 112.607C281.887 112.414 282.061 112.155 282.174 111.831C282.291 111.507 282.349 111.147 282.349 110.749C282.349 110.348 282.291 109.986 282.174 109.662C282.061 109.335 281.887 109.076 281.654 108.882C281.421 108.689 281.132 108.593 280.785 108.593C280.43 108.593 280.134 108.689 279.899 108.882C279.666 109.076 279.491 109.335 279.375 109.662C279.261 109.986 279.204 110.348 279.204 110.749C279.204 111.147 279.261 111.507 279.375 111.831C279.491 112.155 279.666 112.414 279.899 112.607C280.134 112.797 280.43 112.892 280.785 112.892Z" fill="#3C3A3E"/>
<path d="M284.771 114L284.762 112.73H284.988C285.158 112.73 285.302 112.692 285.418 112.615C285.535 112.539 285.631 112.411 285.708 112.232C285.785 112.05 285.844 111.806 285.887 111.499C285.93 111.192 285.959 110.81 285.976 110.352L286.092 107.455H290.864V114H289.373V108.72H287.494L287.391 110.83C287.366 111.375 287.305 111.848 287.208 112.249C287.114 112.647 286.981 112.975 286.807 113.233C286.637 113.492 286.422 113.685 286.164 113.813C285.905 113.938 285.6 114 285.248 114H284.771Z" fill="#3C3A3E"/>
<path d="M291.966 114L291.957 112.73H292.183C292.354 112.73 292.497 112.692 292.614 112.615C292.73 112.539 292.827 112.411 292.903 112.232C292.98 112.05 293.04 111.806 293.082 111.499C293.125 111.192 293.155 110.81 293.172 110.352L293.287 107.455H298.06V114H296.568V108.72H294.689L294.587 110.83C294.561 111.375 294.5 111.848 294.403 112.249C294.31 112.647 294.176 112.975 294.003 113.233C293.832 113.492 293.618 113.685 293.359 113.813C293.101 113.938 292.795 114 292.443 114H291.966Z" fill="#3C3A3E"/>
<path d="M303.58 109.73V111H299.651V109.73H303.58Z" fill="#3C3A3E"/>
<path d="M310.73 107.455V112.85H311.731V116.105H310.223V114H305.203V107.455H306.69V112.735H309.255V107.455H310.73Z" fill="#3C3A3E"/>
<path d="M315.823 114.128C315.167 114.128 314.6 113.992 314.123 113.719C313.648 113.443 313.283 113.054 313.028 112.551C312.772 112.046 312.644 111.451 312.644 110.766C312.644 110.093 312.772 109.502 313.028 108.993C313.286 108.482 313.647 108.084 314.11 107.8C314.573 107.513 315.117 107.37 315.742 107.37C316.146 107.37 316.526 107.435 316.884 107.566C317.245 107.693 317.563 107.892 317.839 108.162C318.117 108.432 318.336 108.776 318.495 109.193C318.654 109.608 318.734 110.102 318.734 110.676V111.149H313.369V110.11H317.255C317.252 109.814 317.188 109.551 317.063 109.321C316.938 109.088 316.763 108.905 316.539 108.772C316.317 108.638 316.059 108.571 315.763 108.571C315.448 108.571 315.171 108.648 314.932 108.801C314.694 108.952 314.508 109.151 314.374 109.398C314.244 109.642 314.177 109.911 314.174 110.203V111.111C314.174 111.492 314.244 111.818 314.383 112.091C314.522 112.361 314.717 112.568 314.967 112.713C315.217 112.855 315.509 112.926 315.844 112.926C316.069 112.926 316.272 112.895 316.454 112.833C316.636 112.767 316.793 112.672 316.927 112.547C317.06 112.422 317.161 112.267 317.229 112.083L318.67 112.245C318.579 112.625 318.405 112.958 318.15 113.242C317.897 113.523 317.573 113.742 317.178 113.898C316.783 114.051 316.332 114.128 315.823 114.128Z" fill="#3C3A3E"/>
<path d="M324.534 110.088V111.354H321.049V110.088H324.534ZM321.526 107.455V114H320.039V107.455H321.526ZM325.544 107.455V114H324.061V107.455H325.544Z" fill="#3C3A3E"/>
<path d="M326.372 108.72V107.455H332.099V108.72H329.981V114H328.49V108.72H326.372Z" fill="#3C3A3E"/>
<path d="M333.328 116.455V107.455H334.845V108.537H334.934C335.014 108.378 335.126 108.209 335.271 108.03C335.416 107.848 335.612 107.693 335.859 107.566C336.106 107.435 336.421 107.37 336.805 107.37C337.311 107.37 337.767 107.499 338.173 107.757C338.582 108.013 338.906 108.392 339.144 108.895C339.386 109.395 339.507 110.009 339.507 110.736C339.507 111.455 339.389 112.066 339.153 112.568C338.917 113.071 338.596 113.455 338.19 113.719C337.784 113.983 337.323 114.115 336.809 114.115C336.434 114.115 336.123 114.053 335.876 113.928C335.629 113.803 335.43 113.652 335.279 113.476C335.132 113.297 335.017 113.128 334.934 112.969H334.87V116.455H333.328ZM334.84 110.727C334.84 111.151 334.9 111.522 335.019 111.84C335.142 112.158 335.316 112.406 335.544 112.585C335.774 112.762 336.052 112.85 336.379 112.85C336.72 112.85 337.005 112.759 337.235 112.577C337.465 112.392 337.639 112.141 337.755 111.823C337.875 111.502 337.934 111.137 337.934 110.727C337.934 110.321 337.876 109.96 337.76 109.645C337.643 109.33 337.47 109.083 337.24 108.904C337.009 108.725 336.723 108.635 336.379 108.635C336.049 108.635 335.769 108.722 335.539 108.895C335.309 109.068 335.135 109.311 335.015 109.624C334.899 109.936 334.84 110.304 334.84 110.727Z" fill="#3C3A3E"/>
<path d="M342.711 114.132C342.296 114.132 341.923 114.058 341.59 113.911C341.261 113.76 341 113.539 340.806 113.246C340.616 112.953 340.521 112.593 340.521 112.164C340.521 111.794 340.589 111.489 340.725 111.247C340.862 111.006 341.048 110.813 341.284 110.668C341.519 110.523 341.785 110.414 342.081 110.34C342.379 110.263 342.687 110.208 343.005 110.174C343.389 110.134 343.7 110.098 343.938 110.067C344.177 110.033 344.35 109.982 344.458 109.914C344.569 109.843 344.625 109.733 344.625 109.585V109.56C344.625 109.239 344.529 108.99 344.339 108.814C344.149 108.638 343.875 108.55 343.517 108.55C343.139 108.55 342.839 108.632 342.617 108.797C342.399 108.962 342.251 109.156 342.174 109.381L340.734 109.176C340.848 108.779 341.035 108.446 341.296 108.179C341.558 107.909 341.877 107.708 342.255 107.574C342.633 107.438 343.051 107.37 343.508 107.37C343.823 107.37 344.137 107.406 344.45 107.48C344.762 107.554 345.048 107.676 345.306 107.847C345.565 108.014 345.772 108.243 345.929 108.533C346.088 108.823 346.167 109.185 346.167 109.62V114H344.684V113.101H344.633C344.539 113.283 344.407 113.453 344.237 113.612C344.069 113.769 343.857 113.895 343.602 113.992C343.349 114.085 343.052 114.132 342.711 114.132ZM343.112 112.999C343.421 112.999 343.69 112.938 343.917 112.816C344.144 112.691 344.319 112.526 344.441 112.321C344.566 112.117 344.629 111.894 344.629 111.652V110.881C344.581 110.921 344.498 110.958 344.382 110.992C344.268 111.026 344.14 111.056 343.998 111.081C343.856 111.107 343.715 111.129 343.576 111.149C343.437 111.169 343.316 111.186 343.214 111.201C342.984 111.232 342.778 111.283 342.596 111.354C342.414 111.425 342.271 111.524 342.166 111.652C342.061 111.777 342.008 111.939 342.008 112.138C342.008 112.422 342.112 112.637 342.319 112.781C342.527 112.926 342.791 112.999 343.112 112.999Z" fill="#3C3A3E"/>
<path fill-rule="evenodd" clip-rule="evenodd" d="M172 124H436V123H172V124ZM172 157H436V156.5H172V157ZM436 181H172V180.5H436V181ZM172 205H436V204.5H172V205ZM436 229H172V228.5H436V229ZM172 253H436V252.5H172V253Z" fill="#E6E6E6"/>
<g filter="url(#filter1_d_1334_7444)">
<rect x="293" y="206" width="289" height="118" rx="9" fill="white"/>
</g>
<path d="M319.908 236.119C321.774 236.119 323.134 235.05 323.129 233.575C323.134 232.484 322.452 231.7 321.229 231.525V231.457C322.175 231.253 322.81 230.55 322.806 229.57C322.81 228.24 321.676 227.153 319.933 227.153C318.237 227.153 316.925 228.163 316.891 229.625H318.412C318.438 228.892 319.119 228.436 319.925 228.436C320.739 228.436 321.28 228.93 321.276 229.663C321.28 230.426 320.649 230.933 319.746 230.933H318.975V232.152H319.746C320.85 232.152 321.506 232.706 321.502 233.494C321.506 234.266 320.837 234.794 319.904 234.794C319.026 234.794 318.348 234.338 318.31 233.626H316.708C316.75 235.101 318.067 236.119 319.908 236.119Z" fill="#3C3A3E"/>
<path d="M324.609 236H327.78C329.314 236 330.192 235.305 330.192 234.223C330.192 233.307 329.48 232.668 328.453 232.578C329.326 232.416 329.872 231.952 329.872 231.214C329.872 230.111 328.905 229.454 327.358 229.454H324.609V236ZM326.054 234.785V233.162H327.78C328.346 233.162 328.692 233.49 328.692 234.031C328.692 234.5 328.346 234.785 327.78 234.785H326.054ZM326.054 232.165V230.69H327.358C328.001 230.69 328.393 230.963 328.393 231.41C328.393 231.879 328.014 232.165 327.388 232.165H326.054Z" fill="#3C3A3E"/>
<path d="M334.32 236.128C336.237 236.128 337.456 234.777 337.456 232.753C337.456 230.724 336.237 229.369 334.32 229.369C332.402 229.369 331.183 230.724 331.183 232.753C331.183 234.777 332.402 236.128 334.32 236.128ZM334.328 234.892C333.267 234.892 332.747 233.946 332.747 232.748C332.747 231.551 333.267 230.592 334.328 230.592C335.372 230.592 335.892 231.551 335.892 232.748C335.892 233.946 335.372 234.892 334.328 234.892Z" fill="#3C3A3E"/>
<path d="M340.253 229.454H338.765V236H340.253V233.354H342.788V236H344.271V229.454H342.788V232.088H340.253V229.454Z" fill="#3C3A3E"/>
<path d="M345.832 236H347.374V233.533H348.129L349.923 236H351.789L349.339 232.668L351.764 229.454H349.906L347.937 232.097H347.374V229.454H345.832V236Z" fill="#3C3A3E"/>
<path d="M354.151 233.912V229.454H352.664V236H354.253L356.866 231.538V236H358.357V229.454H356.772L354.151 233.912Z" fill="#3C3A3E"/>
<path d="M362.918 236H364.392V230.72H366.958V236H368.445V229.454H362.918V236Z" fill="#3C3A3E"/>
<path d="M372.886 236.128C374.804 236.128 376.023 234.777 376.023 232.753C376.023 230.724 374.804 229.369 372.886 229.369C370.969 229.369 369.75 230.724 369.75 232.753C369.75 234.777 370.969 236.128 372.886 236.128ZM372.895 234.892C371.834 234.892 371.314 233.946 371.314 232.748C371.314 231.551 371.834 230.592 372.895 230.592C373.939 230.592 374.459 231.551 374.459 232.748C374.459 233.946 373.939 234.892 372.895 234.892Z" fill="#3C3A3E"/>
<path d="M379.729 237.9H381.246V236H385.529V237.9H387.02V234.73H386.006V229.454H381.276L381.088 231.747C380.965 233.213 380.803 234.3 380.249 234.73H379.729V237.9ZM381.834 234.73C382.247 234.121 382.401 233.132 382.511 231.747L382.614 230.699H384.531V234.73H381.834Z" fill="#3C3A3E"/>
<path d="M389.659 229.454H388.172V236H389.659V233.354H392.194V236H393.677V229.454H392.194V232.088H389.659V229.454Z" fill="#3C3A3E"/>
<path d="M399.107 236H400.552V229.454H397.71C396.107 229.454 395.114 230.277 395.119 231.534C395.114 232.361 395.566 232.987 396.346 233.307L394.88 236H396.397L397.739 233.537H399.107V236ZM399.107 232.412H397.659C396.981 232.412 396.606 232.058 396.61 231.568C396.606 231.078 397.002 230.707 397.71 230.707H399.107V232.412Z" fill="#3C3A3E"/>
<path d="M405.872 234.206L403.98 229.454H402.105V236H403.592V231.589L405.335 236H406.413L408.216 231.543V236H409.69V229.454H407.815L405.872 234.206Z" fill="#3C3A3E"/>
<path d="M415.71 229.454H414.222V236H415.71V233.354H418.245V236H419.728V229.454H418.245V232.088H415.71V229.454Z" fill="#3C3A3E"/>
<path d="M424.187 236.128C425.712 236.128 426.76 235.382 427.033 234.244L425.593 234.082C425.384 234.636 424.873 234.926 424.208 234.926C423.211 234.926 422.55 234.27 422.537 233.149H427.097V232.676C427.097 230.379 425.716 229.369 424.106 229.369C422.231 229.369 421.008 230.746 421.008 232.766C421.008 234.82 422.214 236.128 424.187 236.128ZM422.542 232.109C422.589 231.274 423.206 230.571 424.127 230.571C425.013 230.571 425.61 231.219 425.618 232.109H422.542Z" fill="#3C3A3E"/>
<path d="M427.823 237.9H429.34V236H433.622V237.9H435.114V234.73H434.1V229.454H429.369L429.182 231.747C429.058 233.213 428.896 234.3 428.342 234.73H427.823V237.9ZM429.928 234.73C430.341 234.121 430.494 233.132 430.605 231.747L430.708 230.699H432.625V234.73H429.928Z" fill="#3C3A3E"/>
<path d="M439.163 236.128C440.689 236.128 441.737 235.382 442.01 234.244L440.569 234.082C440.361 234.636 439.849 234.926 439.184 234.926C438.187 234.926 437.527 234.27 437.514 233.149H442.074V232.676C442.074 230.379 440.693 229.369 439.082 229.369C437.207 229.369 435.984 230.746 435.984 232.766C435.984 234.82 437.19 236.128 439.163 236.128ZM437.518 232.109C437.565 231.274 438.183 230.571 439.103 230.571C439.99 230.571 440.586 231.219 440.595 232.109H437.518Z" fill="#3C3A3E"/>
<path d="M442.927 236H443.404C444.811 236 445.445 235.011 445.548 232.829L445.65 230.72H447.529V236H449.021V229.454H444.248L444.133 232.352C444.061 234.189 443.822 234.73 443.144 234.73H442.918L442.927 236Z" fill="#3C3A3E"/>
<path d="M452.061 233.912V229.454H450.574V236H452.163L454.776 231.538V236H456.267V229.454H454.682L452.061 233.912Z" fill="#3C3A3E"/>
<path d="M321.986 297.454H316.77V304H317.946V298.439H320.81V304H321.986V297.454Z" fill="#838383"/>
<path d="M325.494 304.096C326.933 304.096 327.847 303.083 327.847 301.564C327.847 300.043 326.933 299.027 325.494 299.027C324.056 299.027 323.142 300.043 323.142 301.564C323.142 303.083 324.056 304.096 325.494 304.096ZM325.501 303.169C324.705 303.169 324.315 302.459 324.315 301.561C324.315 300.663 324.705 299.944 325.501 299.944C326.284 299.944 326.674 300.663 326.674 301.561C326.674 302.459 326.284 303.169 325.501 303.169Z" fill="#838383"/>
<path d="M330.97 304.096C332.204 304.096 332.99 303.364 333.073 302.322H331.967C331.868 302.849 331.488 303.153 330.98 303.153C330.257 303.153 329.791 302.549 329.791 301.545C329.791 300.555 330.267 299.96 330.98 299.96C331.536 299.96 331.878 300.318 331.967 300.791H333.073C332.993 299.727 332.162 299.027 330.964 299.027C329.525 299.027 328.618 300.066 328.618 301.564C328.618 303.051 329.503 304.096 330.97 304.096Z" fill="#838383"/>
<path d="M333.675 300.04H335.264V304H336.382V300.04H337.971V299.091H333.675V300.04Z" fill="#838383"/>
<path d="M342.826 297.275C342.59 297.454 342.216 297.451 341.708 297.451C341.564 297.451 341.414 297.451 341.251 297.454C339.56 297.477 338.691 298.602 338.691 300.909V301.35C338.691 303.146 339.598 304.096 341.027 304.096C342.456 304.096 343.357 303.143 343.357 301.628C343.357 300.158 342.5 299.311 341.283 299.311C340.535 299.311 339.969 299.634 339.662 300.235H339.608C339.723 299.011 340.183 298.458 341.283 298.432C342.258 298.41 342.804 298.394 343.229 298.023L342.826 297.275ZM341.033 303.169C340.308 303.169 339.864 302.587 339.864 301.66C339.873 300.746 340.311 300.222 341.027 300.222C341.743 300.222 342.184 300.746 342.184 301.66C342.184 302.59 341.746 303.169 341.033 303.169Z" fill="#838383"/>
<path d="M346.515 304.096C347.659 304.096 348.445 303.536 348.65 302.683L347.569 302.562C347.413 302.977 347.029 303.194 346.531 303.194C345.783 303.194 345.287 302.702 345.278 301.862H348.697V301.507C348.697 299.784 347.662 299.027 346.454 299.027C345.048 299.027 344.13 300.059 344.13 301.574C344.13 303.115 345.035 304.096 346.515 304.096ZM345.281 301.082C345.316 300.455 345.78 299.928 346.47 299.928C347.135 299.928 347.582 300.414 347.588 301.082H345.281Z" fill="#838383"/>
<path d="M349.676 304H350.833V302.149H351.399L352.744 304H354.144L352.307 301.501L354.125 299.091H352.732L351.255 301.072H350.833V299.091H349.676V304Z" fill="#838383"/>
<path d="M355.916 302.434V299.091H354.8V304H355.992L357.952 300.654V304H359.07V299.091H357.881L355.916 302.434Z" fill="#838383"/>
<path d="M316.358 279.448H318.381V285H319.557V279.448H321.58V278.454H316.358V279.448Z" fill="#838383"/>
<path d="M323.965 285.096C325.403 285.096 326.318 284.083 326.318 282.565C326.318 281.043 325.403 280.027 323.965 280.027C322.527 280.027 321.613 281.043 321.613 282.565C321.613 284.083 322.527 285.096 323.965 285.096ZM323.972 284.169C323.176 284.169 322.786 283.459 322.786 282.561C322.786 281.663 323.176 280.944 323.972 280.944C324.755 280.944 325.145 281.663 325.145 282.561C325.145 283.459 324.755 284.169 323.972 284.169Z" fill="#838383"/>
<path d="M328.415 280.091H327.299V285H328.415V283.015H330.317V285H331.429V280.091H330.317V282.066H328.415V280.091Z" fill="#838383"/>
<path d="M332.599 285H333.756V283.149H334.322L335.667 285H337.067L335.23 282.501L337.048 280.091H335.655L334.178 282.072H333.756V280.091H332.599V285Z" fill="#838383"/>
<path d="M338.839 283.434V280.091H337.723V285H338.915L340.875 281.654V285H341.993V280.091H340.804L338.839 283.434Z" fill="#838383"/>
<path d="M345.355 285.096C346.499 285.096 347.285 284.536 347.49 283.683L346.409 283.562C346.253 283.977 345.869 284.195 345.371 284.195C344.623 284.195 344.127 283.702 344.118 282.862H347.538V282.507C347.538 280.784 346.502 280.027 345.294 280.027C343.888 280.027 342.97 281.059 342.97 282.574C342.97 284.115 343.875 285.096 345.355 285.096ZM344.121 282.082C344.156 281.456 344.62 280.928 345.31 280.928C345.975 280.928 346.422 281.414 346.428 282.082H344.121Z" fill="#838383"/>
<path d="M351.864 280.091H350.749V285H351.864V283.015H353.766V285H354.878V280.091H353.766V282.066H351.864V280.091Z" fill="#838383"/>
<path d="M357.461 285.099C358.231 285.099 358.692 284.738 358.903 284.326H358.941V285H360.053V281.714C360.053 280.417 358.995 280.027 358.059 280.027C357.027 280.027 356.234 280.487 355.978 281.382L357.058 281.535C357.174 281.2 357.5 280.912 358.065 280.912C358.602 280.912 358.896 281.187 358.896 281.67V281.689C358.896 282.021 358.548 282.037 357.682 282.13C356.729 282.232 355.818 282.517 355.818 283.622C355.818 284.588 356.525 285.099 357.461 285.099ZM357.762 284.249C357.279 284.249 356.934 284.028 356.934 283.603C356.934 283.159 357.321 282.974 357.838 282.9C358.142 282.859 358.749 282.782 358.899 282.66V283.239C358.899 283.785 358.458 284.249 357.762 284.249Z" fill="#838383"/>
<path d="M363.358 285.096C364.591 285.096 365.378 284.364 365.461 283.322H364.355C364.256 283.849 363.876 284.153 363.367 284.153C362.645 284.153 362.178 283.549 362.178 282.545C362.178 281.555 362.655 280.96 363.367 280.96C363.924 280.96 364.265 281.318 364.355 281.791H365.461C365.381 280.727 364.55 280.027 363.351 280.027C361.913 280.027 361.006 281.066 361.006 282.565C361.006 284.051 361.891 285.096 363.358 285.096Z" fill="#838383"/>
<path d="M366.063 281.04H367.652V285H368.77V281.04H370.359V280.091H366.063V281.04Z" fill="#838383"/>
<path d="M371.28 286.841H372.437V284.226H372.485C372.667 284.584 373.047 285.086 373.891 285.086C375.048 285.086 375.914 284.169 375.914 282.552C375.914 280.915 375.023 280.027 373.888 280.027C373.022 280.027 372.661 280.548 372.485 280.903H372.418V280.091H371.28V286.841ZM372.415 282.545C372.415 281.593 372.824 280.976 373.568 280.976C374.339 280.976 374.735 281.631 374.735 282.545C374.735 283.466 374.332 284.137 373.568 284.137C372.83 284.137 372.415 283.498 372.415 282.545Z" fill="#838383"/>
<path d="M379.046 285.096C380.485 285.096 381.399 284.083 381.399 282.565C381.399 281.043 380.485 280.027 379.046 280.027C377.608 280.027 376.694 281.043 376.694 282.565C376.694 284.083 377.608 285.096 379.046 285.096ZM379.053 284.169C378.257 284.169 377.867 283.459 377.867 282.561C377.867 281.663 378.257 280.944 379.053 280.944C379.836 280.944 380.226 281.663 380.226 282.561C380.226 283.459 379.836 284.169 379.053 284.169Z" fill="#838383"/>
<path d="M383.496 283.434V280.091H382.381V285H383.573L385.532 281.654V285H386.65V280.091H385.462L383.496 283.434ZM385.145 278.403C385.142 278.717 384.963 278.995 384.512 278.995C384.055 278.995 383.883 278.71 383.883 278.403H383.023C383.02 279.151 383.598 279.656 384.512 279.656C385.433 279.656 386.011 279.151 386.011 278.403H385.145Z" fill="#838383"/>
<path d="M387.839 285H388.996V283.149H389.561L390.907 285H392.307L390.469 282.501L392.287 280.091H390.894L389.417 282.072H388.996V280.091H387.839V285Z" fill="#838383"/>
<path d="M394.078 283.434V280.091H392.963V285H394.155L396.114 281.654V285H397.232V280.091H396.044L394.078 283.434Z" fill="#838383"/>
<path fill-rule="evenodd" clip-rule="evenodd" d="M411 280C409.895 280 409 280.895 409 282C409 283.105 409.895 284 411 284H509C510.105 284 511 283.105 511 282C511 280.895 510.105 280 509 280H411ZM371 301C371 299.895 371.895 299 373 299H462C463.105 299 464 299.895 464 301C464 302.105 463.105 303 462 303H373C371.895 303 371 302.105 371 301ZM475 301C475 299.895 475.895 299 477 299H557C558.105 299 559 299.895 559 301C559 302.105 558.105 303 557 303H477C475.895 303 475 302.105 475 301Z" fill="#E6E6E6"/>
<path d="M326.594 261H327.7V257.04H329.624V261H330.739V256.091H326.594V261Z" fill="#838383"/>
<path d="M333.045 256.091H331.929V261H333.045V259.015H334.946V261H336.058V256.091H334.946V258.066H333.045V256.091Z" fill="#838383"/>
<path d="M358.594 261H360.972C362.123 261 362.781 260.479 362.781 259.667C362.781 258.98 362.247 258.501 361.477 258.434C362.132 258.312 362.541 257.964 362.541 257.411C362.541 256.583 361.816 256.091 360.656 256.091H358.594V261ZM359.678 260.089V258.871H360.972C361.397 258.871 361.656 259.117 361.656 259.523C361.656 259.875 361.397 260.089 360.972 260.089H359.678ZM359.678 258.123V257.018H360.656C361.138 257.018 361.432 257.222 361.432 257.558C361.432 257.909 361.148 258.123 360.678 258.123H359.678Z" fill="#838383"/>
<path d="M363.467 257.04H365.056V261H366.174V257.04H367.763V256.091H363.467V257.04Z" fill="#838383"/>
<path d="M392.736 261.096C393.969 261.096 394.755 260.364 394.839 259.322H393.733C393.634 259.849 393.253 260.153 392.745 260.153C392.023 260.153 391.556 259.549 391.556 258.545C391.556 257.555 392.032 256.96 392.745 256.96C393.301 256.96 393.643 257.318 393.733 257.791H394.839C394.759 256.727 393.928 256.027 392.729 256.027C391.291 256.027 390.383 257.066 390.383 258.564C390.383 260.051 391.269 261.096 392.736 261.096Z" fill="#838383"/>
<path d="M395.789 262.841H396.946V260.226H396.993C397.176 260.584 397.556 261.086 398.4 261.086C399.557 261.086 400.423 260.169 400.423 258.552C400.423 256.915 399.531 256.027 398.397 256.027C397.53 256.027 397.169 256.548 396.993 256.903H396.926V256.091H395.789V262.841ZM396.923 258.545C396.923 257.593 397.332 256.976 398.077 256.976C398.847 256.976 399.243 257.631 399.243 258.545C399.243 259.466 398.841 260.137 398.077 260.137C397.339 260.137 396.923 259.498 396.923 258.545Z" fill="#838383"/>
<path d="M426.695 256.091H425.583V258.488C425.301 258.558 425.023 258.597 424.72 258.597C424.036 258.597 423.7 258.354 423.7 257.721V256.084H422.594V257.721C422.594 258.974 423.409 259.546 424.72 259.546C425.007 259.546 425.308 259.507 425.583 259.443V261H426.695V256.091Z" fill="#838383"/>
<path d="M427.309 257.04H428.898V261H430.016V257.04H431.605V256.091H427.309V257.04Z" fill="#838383"/>
<path d="M453.594 261H454.7V257.04H456.624V261H457.739V256.091H453.594V261Z" fill="#838383"/>
<path d="M458.379 257.04H459.968V261H461.087V257.04H462.675V256.091H458.379V257.04Z" fill="#838383"/>
<path d="M487.736 261.096C488.969 261.096 489.755 260.364 489.839 259.322H488.733C488.634 259.849 488.253 260.153 487.745 260.153C487.023 260.153 486.556 259.549 486.556 258.545C486.556 257.555 487.032 256.96 487.745 256.96C488.301 256.96 488.643 257.318 488.733 257.791H489.839C489.759 256.727 488.928 256.027 487.729 256.027C486.291 256.027 485.383 257.066 485.383 258.564C485.383 260.051 486.269 261.096 487.736 261.096Z" fill="#838383"/>
<path d="M494.723 254.275C494.486 254.454 494.112 254.451 493.604 254.451C493.46 254.451 493.31 254.451 493.147 254.454C491.457 254.477 490.587 255.602 490.587 257.909V258.35C490.587 260.146 491.495 261.096 492.924 261.096C494.352 261.096 495.253 260.143 495.253 258.628C495.253 257.158 494.397 256.311 493.179 256.311C492.431 256.311 491.866 256.634 491.559 257.235H491.504C491.62 256.011 492.08 255.458 493.179 255.432C494.154 255.41 494.701 255.394 495.126 255.023L494.723 254.275ZM492.93 260.169C492.204 260.169 491.76 259.587 491.76 258.66C491.77 257.746 492.208 257.222 492.924 257.222C493.639 257.222 494.08 257.746 494.08 258.66C494.08 259.59 493.643 260.169 492.93 260.169Z" fill="#838383"/>
<path d="M517.594 261H519.972C521.123 261 521.781 260.479 521.781 259.667C521.781 258.98 521.247 258.501 520.477 258.433C521.132 258.312 521.541 257.964 521.541 257.411C521.541 256.583 520.816 256.091 519.656 256.091H517.594V261ZM518.678 260.089V258.871H519.972C520.397 258.871 520.656 259.117 520.656 259.523C520.656 259.875 520.397 260.089 519.972 260.089H518.678ZM518.678 258.123V257.018H519.656C520.138 257.018 520.432 257.222 520.432 257.558C520.432 257.909 520.148 258.123 519.678 258.123H518.678Z" fill="#838383"/>
<path d="M524.877 261.096C526.111 261.096 526.897 260.364 526.98 259.322H525.874C525.775 259.849 525.395 260.153 524.887 260.153C524.164 260.153 523.698 259.549 523.698 258.545C523.698 257.555 524.174 256.96 524.887 256.96C525.443 256.96 525.785 257.318 525.874 257.791H526.98C526.9 256.727 526.069 256.027 524.871 256.027C523.433 256.027 522.525 257.066 522.525 258.564C522.525 260.051 523.41 261.096 524.877 261.096Z" fill="#838383"/>
<path fill-rule="evenodd" clip-rule="evenodd" d="M321 258C321 259.105 320.105 260 319 260C317.895 260 317 259.105 317 258C317 256.895 317.895 256 319 256C320.105 256 321 256.895 321 258ZM322 258C322 259.657 320.657 261 319 261C317.343 261 316 259.657 316 258C316 256.343 317.343 255 319 255C320.657 255 322 256.343 322 258ZM353 258C353 259.105 352.105 260 351 260C349.895 260 349 259.105 349 258C349 256.895 349.895 256 351 256C352.105 256 353 256.895 353 258ZM354 258C354 259.657 352.657 261 351 261C349.343 261 348 259.657 348 258C348 256.343 349.343 255 351 255C352.657 255 354 256.343 354 258ZM383 260C384.105 260 385 259.105 385 258C385 256.895 384.105 256 383 256C381.895 256 381 256.895 381 258C381 259.105 381.895 260 383 260ZM383 261C384.657 261 386 259.657 386 258C386 256.343 384.657 255 383 255C381.343 255 380 256.343 380 258C380 259.657 381.343 261 383 261ZM417 258C417 259.105 416.105 260 415 260C413.895 260 413 259.105 413 258C413 256.895 413.895 256 415 256C416.105 256 417 256.895 417 258ZM418 258C418 259.657 416.657 261 415 261C413.343 261 412 259.657 412 258C412 256.343 413.343 255 415 255C416.657 255 418 256.343 418 258ZM446 260C447.105 260 448 259.105 448 258C448 256.895 447.105 256 446 256C444.895 256 444 256.895 444 258C444 259.105 444.895 260 446 260ZM446 261C447.657 261 449 259.657 449 258C449 256.343 447.657 255 446 255C444.343 255 443 256.343 443 258C443 259.657 444.343 261 446 261ZM480 258C480 259.105 479.105 260 478 260C476.895 260 476 259.105 476 258C476 256.895 476.895 256 478 256C479.105 256 480 256.895 480 258ZM481 258C481 259.657 479.657 261 478 261C476.343 261 475 259.657 475 258C475 256.343 476.343 255 478 255C479.657 255 481 256.343 481 258ZM510 260C511.105 260 512 259.105 512 258C512 256.895 511.105 256 510 256C508.895 256 508 256.895 508 258C508 259.105 508.895 260 510 260ZM510 261C511.657 261 513 259.657 513 258C513 256.343 511.657 255 510 255C508.343 255 507 256.343 507 258C507 259.657 508.343 261 510 261ZM319 259C319.552 259 320 258.552 320 258C320 257.448 319.552 257 319 257C318.448 257 318 257.448 318 258C318 258.552 318.448 259 319 259ZM352 258C352 258.552 351.552 259 351 259C350.448 259 350 258.552 350 258C350 257.448 350.448 257 351 257C351.552 257 352 257.448 352 258ZM383 259C383.552 259 384 258.552 384 258C384 257.448 383.552 257 383 257C382.448 257 382 257.448 382 258C382 258.552 382.448 259 383 259ZM416 258C416 258.552 415.552 259 415 259C414.448 259 414 258.552 414 258C414 257.448 414.448 257 415 257C415.552 257 416 257.448 416 258ZM446 259C446.552 259 447 258.552 447 258C447 257.448 446.552 257 446 257C445.448 257 445 257.448 445 258C445 258.552 445.448 259 446 259Z" fill="#838383"/>
<g filter="url(#filter2_d_1334_7444)">
<rect x="293" y="31" width="289" height="156" rx="9" fill="white"/>
</g>
<path d="M324.331 53.2172H322.737C322.692 52.9559 322.608 52.7243 322.486 52.5226C322.364 52.3181 322.212 52.1448 322.03 52.0028C321.848 51.8607 321.641 51.7542 321.408 51.6832C321.178 51.6093 320.929 51.5724 320.662 51.5724C320.187 51.5724 319.767 51.6917 319.401 51.9303C319.034 52.1661 318.747 52.5127 318.54 52.9701C318.332 53.4246 318.229 53.98 318.229 54.6363C318.229 55.3039 318.332 55.8664 318.54 56.3238C318.75 56.7783 319.037 57.1221 319.401 57.355C319.767 57.5851 320.186 57.7002 320.658 57.7002C320.919 57.7002 321.163 57.6661 321.391 57.5979C321.621 57.5269 321.827 57.4232 322.008 57.2868C322.193 57.1505 322.348 56.9829 322.473 56.784C322.601 56.5851 322.689 56.3579 322.737 56.1022L324.331 56.1107C324.271 56.5255 324.142 56.9147 323.943 57.2783C323.747 57.642 323.49 57.963 323.172 58.2414C322.854 58.517 322.481 58.7329 322.055 58.8891C321.629 59.0425 321.156 59.1192 320.636 59.1192C319.869 59.1192 319.185 58.9417 318.582 58.5866C317.98 58.2314 317.506 57.7187 317.159 57.0482C316.812 56.3778 316.639 55.5738 316.639 54.6363C316.639 53.6959 316.814 52.892 317.163 52.2243C317.513 51.5539 317.989 51.0411 318.591 50.686C319.193 50.3309 319.875 50.1533 320.636 50.1533C321.122 50.1533 321.574 50.2215 321.991 50.3579C322.409 50.4942 322.781 50.6945 323.108 50.9587C323.435 51.2201 323.703 51.5411 323.913 51.9218C324.126 52.2996 324.266 52.7314 324.331 53.2172Z" fill="#3C3A3E"/>
<path d="M325.353 53.7201V52.4545H331.08V53.7201H328.962V58.9999H327.47V53.7201H325.353Z" fill="#3C3A3E"/>
<path d="M333.922 59.132C333.507 59.132 333.134 59.0582 332.801 58.9104C332.472 58.7599 332.211 58.5383 332.017 58.2457C331.827 57.953 331.732 57.5922 331.732 57.1633C331.732 56.7939 331.8 56.4885 331.936 56.2471C332.073 56.0056 332.259 55.8124 332.495 55.6675C332.73 55.5226 332.996 55.4133 333.292 55.3394C333.59 55.2627 333.898 55.2073 334.216 55.1732C334.6 55.1334 334.911 55.0979 335.149 55.0667C335.388 55.0326 335.561 54.9814 335.669 54.9133C335.78 54.8422 335.836 54.7329 335.836 54.5851V54.5596C335.836 54.2385 335.74 53.99 335.55 53.8138C335.36 53.6377 335.086 53.5496 334.728 53.5496C334.35 53.5496 334.05 53.632 333.828 53.7968C333.61 53.9616 333.462 54.1562 333.385 54.3806L331.945 54.176C332.059 53.7783 332.246 53.4459 332.507 53.1789C332.769 52.909 333.088 52.7073 333.466 52.5738C333.844 52.4374 334.262 52.3692 334.719 52.3692C335.034 52.3692 335.348 52.4062 335.661 52.48C335.973 52.5539 336.259 52.676 336.517 52.8465C336.776 53.0141 336.983 53.2428 337.14 53.5326C337.299 53.8224 337.378 54.1846 337.378 54.6192V58.9999H335.895V58.1008H335.844C335.75 58.2826 335.618 58.453 335.448 58.6121C335.28 58.7684 335.068 58.8948 334.813 58.9914C334.56 59.0851 334.263 59.132 333.922 59.132ZM334.323 57.9985C334.632 57.9985 334.901 57.9374 335.128 57.8153C335.355 57.6903 335.53 57.5255 335.652 57.3209C335.777 57.1164 335.84 56.8934 335.84 56.6519V55.8806C335.792 55.9204 335.709 55.9573 335.593 55.9914C335.479 56.0255 335.351 56.0553 335.209 56.0809C335.067 56.1064 334.926 56.1292 334.787 56.1491C334.648 56.1689 334.527 56.186 334.425 56.2002C334.195 56.2314 333.989 56.2826 333.807 56.3536C333.625 56.4246 333.482 56.5241 333.377 56.6519C333.272 56.7769 333.219 56.9388 333.219 57.1377C333.219 57.4218 333.323 57.6363 333.53 57.7812C333.738 57.926 334.002 57.9985 334.323 57.9985Z" fill="#3C3A3E"/>
<path d="M338.196 53.7201V52.4545H343.924V53.7201H341.806V58.9999H340.314V53.7201H338.196Z" fill="#3C3A3E"/>
<path d="M346.639 56.9118L349.26 52.4545H350.845V58.9999H349.354V54.5383L346.741 58.9999H345.152V52.4545H346.639V56.9118Z" fill="#3C3A3E"/>
<path d="M355.284 59.1278C354.631 59.1278 354.07 58.9843 353.601 58.6974C353.135 58.4104 352.776 58.0141 352.523 57.5084C352.273 56.9999 352.148 56.4147 352.148 55.7528C352.148 55.088 352.276 54.5013 352.532 53.9928C352.787 53.4814 353.148 53.0837 353.614 52.7996C354.083 52.5127 354.637 52.3692 355.276 52.3692C355.807 52.3692 356.277 52.4672 356.686 52.6633C357.098 52.8564 357.426 53.1306 357.671 53.4857C357.915 53.838 358.054 54.2499 358.088 54.7215H356.614C356.554 54.4062 356.412 54.1434 356.188 53.9332C355.966 53.7201 355.669 53.6135 355.297 53.6135C354.982 53.6135 354.705 53.6988 354.466 53.8692C354.228 54.0368 354.042 54.2783 353.908 54.5937C353.777 54.909 353.712 55.2868 353.712 55.7272C353.712 56.1732 353.777 56.5567 353.908 56.8778C354.039 57.1959 354.222 57.4417 354.458 57.615C354.696 57.7854 354.976 57.8707 355.297 57.8707C355.524 57.8707 355.728 57.828 355.907 57.7428C356.088 57.6547 356.24 57.5283 356.363 57.3635C356.485 57.1988 356.568 56.9985 356.614 56.7627H358.088C358.051 57.2258 357.915 57.6363 357.679 57.9942C357.443 58.3493 357.122 58.6278 356.716 58.8295C356.31 59.0283 355.833 59.1278 355.284 59.1278Z" fill="#3C3A3E"/>
<path d="M358.88 53.7201V52.4545H364.607V53.7201H362.489V58.9999H360.998V53.7201H358.88Z" fill="#3C3A3E"/>
<path d="M367.323 56.9118L369.943 52.4545H371.529V58.9999H370.037V54.5383L367.425 58.9999H365.836V52.4545H367.323V56.9118Z" fill="#3C3A3E"/>
<path d="M373.113 58.9999V52.4545H374.655V55.0965H375.218L377.187 52.4545H379.045L376.62 55.6675L379.07 58.9999H377.204L375.41 56.5326H374.655V58.9999H373.113Z" fill="#3C3A3E"/>
<path d="M381.828 59.132C381.414 59.132 381.04 59.0582 380.708 58.9104C380.378 58.7599 380.117 58.5383 379.924 58.2457C379.733 57.953 379.638 57.5922 379.638 57.1633C379.638 56.7939 379.706 56.4885 379.843 56.2471C379.979 56.0056 380.165 55.8124 380.401 55.6675C380.637 55.5226 380.902 55.4133 381.198 55.3394C381.496 55.2627 381.804 55.2073 382.122 55.1732C382.506 55.1334 382.817 55.0979 383.056 55.0667C383.294 55.0326 383.468 54.9814 383.576 54.9133C383.686 54.8422 383.742 54.7329 383.742 54.5851V54.5596C383.742 54.2385 383.647 53.99 383.456 53.8138C383.266 53.6377 382.992 53.5496 382.634 53.5496C382.256 53.5496 381.956 53.632 381.735 53.7968C381.516 53.9616 381.368 54.1562 381.292 54.3806L379.851 54.176C379.965 53.7783 380.152 53.4459 380.414 53.1789C380.675 52.909 380.995 52.7073 381.372 52.5738C381.75 52.4374 382.168 52.3692 382.625 52.3692C382.941 52.3692 383.255 52.4062 383.567 52.48C383.88 52.5539 384.165 52.676 384.424 52.8465C384.682 53.0141 384.89 53.2428 385.046 53.5326C385.205 53.8224 385.284 54.1846 385.284 54.6192V58.9999H383.801V58.1008H383.75C383.657 58.2826 383.524 58.453 383.354 58.6121C383.186 58.7684 382.975 58.8948 382.719 58.9914C382.466 59.0851 382.169 59.132 381.828 59.132ZM382.229 57.9985C382.539 57.9985 382.807 57.9374 383.034 57.8153C383.262 57.6903 383.436 57.5255 383.559 57.3209C383.684 57.1164 383.746 56.8934 383.746 56.6519V55.8806C383.698 55.9204 383.615 55.9573 383.499 55.9914C383.385 56.0255 383.257 56.0553 383.115 56.0809C382.973 56.1064 382.833 56.1292 382.693 56.1491C382.554 56.1689 382.434 56.186 382.331 56.2002C382.101 56.2314 381.895 56.2826 381.713 56.3536C381.532 56.4246 381.388 56.5241 381.283 56.6519C381.178 56.7769 381.125 56.9388 381.125 57.1377C381.125 57.4218 381.229 57.6363 381.436 57.7812C381.644 57.926 381.908 57.9985 382.229 57.9985Z" fill="#3C3A3E"/>
<path fill-rule="evenodd" clip-rule="evenodd" d="M441 94C441 92.8954 441.895 92 443 92H515C516.105 92 517 92.8954 517 94C517 95.1046 516.105 96 515 96H443C441.895 96 441 95.1046 441 94ZM441 124C441 122.895 441.895 122 443 122H549C550.105 122 551 122.895 551 124C551 125.105 550.105 126 549 126H443C441.895 126 441 125.105 441 124ZM443 152C441.895 152 441 152.895 441 154C441 155.105 441.895 156 443 156H499C500.105 156 501 155.105 501 154C501 152.895 500.105 152 499 152H443Z" fill="#E6E6E6"/>
<path d="M446.321 78.1816H441.685V83.9998H442.73V79.0566H445.275V83.9998H446.321V78.1816Z" fill="#838383"/>
<path d="M449.44 84.0851C450.718 84.0851 451.53 83.1845 451.53 81.835C451.53 80.4828 450.718 79.5794 449.44 79.5794C448.161 79.5794 447.349 80.4828 447.349 81.835C447.349 83.1845 448.161 84.0851 449.44 84.0851ZM449.445 83.2612C448.738 83.2612 448.391 82.6305 448.391 81.8322C448.391 81.0339 448.738 80.3947 449.445 80.3947C450.141 80.3947 450.488 81.0339 450.488 81.8322C450.488 82.6305 450.141 83.2612 449.445 83.2612Z" fill="#838383"/>
<path d="M451.93 80.4799H453.342V83.9998H454.337V80.4799H455.748V79.6362H451.93V80.4799Z" fill="#838383"/>
<path d="M456.567 85.6362H457.596V83.3123H457.638C457.8 83.6305 458.138 84.0765 458.888 84.0765C459.917 84.0765 460.687 83.2612 460.687 81.8237C460.687 80.3691 459.894 79.5794 458.886 79.5794C458.116 79.5794 457.795 80.0424 457.638 80.3578H457.579V79.6362H456.567V85.6362ZM457.576 81.818C457.576 80.9714 457.94 80.4231 458.601 80.4231C459.286 80.4231 459.638 81.0055 459.638 81.818C459.638 82.6362 459.28 83.2328 458.601 83.2328C457.945 83.2328 457.576 82.6646 457.576 81.818Z" fill="#838383"/>
<path d="M462.823 84.0879C463.508 84.0879 463.917 83.7669 464.104 83.4004H464.138V83.9998H465.127V81.0794C465.127 79.926 464.187 79.5794 463.354 79.5794C462.437 79.5794 461.732 79.9885 461.505 80.7839L462.465 80.9203C462.567 80.622 462.857 80.3663 463.36 80.3663C463.837 80.3663 464.099 80.6106 464.099 81.0396V81.0566C464.099 81.3521 463.789 81.3663 463.019 81.4487C462.172 81.5396 461.363 81.7924 461.363 82.7754C461.363 83.6333 461.991 84.0879 462.823 84.0879ZM463.09 83.3322C462.661 83.3322 462.354 83.1362 462.354 82.7583C462.354 82.3635 462.698 82.1987 463.158 82.1333C463.428 82.0964 463.968 82.0282 464.101 81.9203V82.4345C464.101 82.9203 463.709 83.3322 463.09 83.3322Z" fill="#838383"/>
<path d="M469.806 79.6362H468.817V81.7669C468.567 81.8294 468.32 81.8635 468.05 81.8635C467.442 81.8635 467.144 81.6475 467.144 81.085V79.6305H466.161V81.085C466.161 82.1987 466.886 82.7072 468.05 82.7072C468.306 82.7072 468.573 82.6731 468.817 82.6163V83.9998H469.806V79.6362Z" fill="#838383"/>
<path d="M472.773 84.0851C473.79 84.0851 474.489 83.5879 474.67 82.8294L473.71 82.7214C473.571 83.0907 473.23 83.2839 472.787 83.2839C472.122 83.2839 471.682 82.8464 471.673 82.0993H474.713V81.7839C474.713 80.2527 473.793 79.5794 472.719 79.5794C471.469 79.5794 470.653 80.497 470.653 81.8436C470.653 83.2129 471.457 84.0851 472.773 84.0851ZM471.676 81.4061C471.707 80.8493 472.119 80.3805 472.733 80.3805C473.324 80.3805 473.722 80.8123 473.727 81.4061H471.676Z" fill="#838383"/>
<path d="M476.574 79.6362H475.583V83.9998H476.574V82.2356H478.265V83.9998H479.253V79.6362H478.265V81.3919H476.574V79.6362Z" fill="#838383"/>
<path d="M482.197 84.0851C483.476 84.0851 484.288 83.1845 484.288 81.835C484.288 80.4828 483.476 79.5794 482.197 79.5794C480.919 79.5794 480.106 80.4828 480.106 81.835C480.106 83.1845 480.919 84.0851 482.197 84.0851ZM482.203 83.2612C481.496 83.2612 481.149 82.6305 481.149 81.8322C481.149 81.0339 481.496 80.3947 482.203 80.3947C482.899 80.3947 483.246 81.0339 483.246 81.8322C483.246 82.6305 482.899 83.2612 482.203 83.2612Z" fill="#838383"/>
<path d="M488.137 79.6362H487.146V83.9998H488.137V82.2356H489.827V83.9998H490.816V79.6362H489.827V81.3919H488.137V79.6362Z" fill="#838383"/>
<path d="M493.112 84.0879C493.797 84.0879 494.206 83.7669 494.393 83.4004H494.427V83.9998H495.416V81.0794C495.416 79.926 494.476 79.5794 493.643 79.5794C492.726 79.5794 492.021 79.9885 491.794 80.7839L492.754 80.9203C492.856 80.622 493.146 80.3663 493.649 80.3663C494.126 80.3663 494.388 80.6106 494.388 81.0396V81.0566C494.388 81.3521 494.078 81.3663 493.308 81.4487C492.462 81.5396 491.652 81.7924 491.652 82.7754C491.652 83.6333 492.28 84.0879 493.112 84.0879ZM493.379 83.3322C492.95 83.3322 492.643 83.1362 492.643 82.7583C492.643 82.3635 492.987 82.1987 493.447 82.1333C493.717 82.0964 494.257 82.0282 494.391 81.9203V82.4345C494.391 82.9203 493.998 83.3322 493.379 83.3322Z" fill="#838383"/>
<path d="M498.435 83.9998H499.463V82.3549H499.966L501.162 83.9998H502.406L500.773 81.7782L502.389 79.6362H501.15L499.838 81.3975H499.463V79.6362H498.435V83.9998Z" fill="#838383"/>
<path d="M504.245 84.0879C504.93 84.0879 505.339 83.7669 505.526 83.4004H505.56V83.9998H506.549V81.0794C506.549 79.926 505.609 79.5794 504.776 79.5794C503.859 79.5794 503.154 79.9885 502.927 80.7839L503.887 80.9203C503.989 80.622 504.279 80.3663 504.782 80.3663C505.259 80.3663 505.521 80.6106 505.521 81.0396V81.0566C505.521 81.3521 505.211 81.3663 504.441 81.4487C503.594 81.5396 502.785 81.7924 502.785 82.7754C502.785 83.6333 503.413 84.0879 504.245 84.0879ZM504.512 83.3322C504.083 83.3322 503.776 83.1362 503.776 82.7583C503.776 82.3635 504.12 82.1987 504.58 82.1333C504.85 82.0964 505.39 82.0282 505.523 81.9203V82.4345C505.523 82.9203 505.131 83.3322 504.512 83.3322Z" fill="#838383"/>
<path d="M510.094 82.8038L508.833 79.6362H507.583V83.9998H508.574V81.0595L509.736 83.9998H510.455L511.657 81.0282V83.9998H512.64V79.6362H511.39L510.094 82.8038Z" fill="#838383"/>
<path d="M513.677 83.9998H514.66V80.4799H516.37V83.9998H517.361V79.6362H513.677V83.9998Z" fill="#838383"/>
<path d="M519.675 84.0879C520.359 84.0879 520.768 83.7669 520.956 83.4004H520.99V83.9998H521.979V81.0794C521.979 79.926 521.038 79.5794 520.206 79.5794C519.288 79.5794 518.584 79.9885 518.356 80.7839L519.317 80.9203C519.419 80.622 519.709 80.3663 520.212 80.3663C520.689 80.3663 520.95 80.6106 520.95 81.0396V81.0566C520.95 81.3521 520.641 81.3663 519.871 81.4487C519.024 81.5396 518.214 81.7924 518.214 82.7754C518.214 83.6333 518.842 84.0879 519.675 84.0879ZM519.942 83.3322C519.513 83.3322 519.206 83.1362 519.206 82.7583C519.206 82.3635 519.55 82.1987 520.01 82.1333C520.28 82.0964 520.82 82.0282 520.953 81.9203V82.4345C520.953 82.9203 520.561 83.3322 519.942 83.3322Z" fill="#838383"/>
<path d="M524.004 79.6362H523.013V83.9998H524.004V82.2356H525.695V83.9998H526.683V79.6362H525.695V81.3919H524.004V79.6362Z" fill="#838383"/>
<path d="M528.715 82.6078V79.6362H527.724V83.9998H528.783L530.525 81.0254V83.9998H531.519V79.6362H530.462L528.715 82.6078Z" fill="#838383"/>
<path d="M533.345 79.6362H532.314V83.9998H533.345V82.2697H534.169C534.328 83.3606 535.081 84.0851 536.197 84.0851C537.456 84.0851 538.254 83.1618 538.257 81.8265C538.254 80.4913 537.456 79.5794 536.197 79.5794C535.067 79.5794 534.308 80.3123 534.163 81.4231H533.345V79.6362ZM536.197 83.2328C535.447 83.2328 535.126 82.6191 535.126 81.8265C535.126 81.0339 535.447 80.4231 536.197 80.4231C536.945 80.4231 537.263 81.0396 537.263 81.8265C537.263 82.6163 536.945 83.2328 536.197 83.2328Z" fill="#838383"/>
<path d="M441.196 114H441.48C442.841 114 443.219 113.082 443.301 111.17L443.392 109.048H445.19V114H446.221V108.182H442.409L442.312 110.844C442.25 112.494 442.028 113.079 441.361 113.116L441.196 113.125V114Z" fill="#838383"/>
<path d="M448.317 112.608V109.636H447.325V114H448.385L450.126 111.025V114H451.121V109.636H450.064L448.317 112.608Z" fill="#838383"/>
<path d="M454.688 112.804L453.427 109.636H452.177V114H453.168V111.059L454.33 114H455.049L456.25 111.028V114H457.233V109.636H455.983L454.688 112.804Z" fill="#838383"/>
<path d="M459.262 112.608V109.636H458.27V114H459.33L461.072 111.025V114H462.066V109.636H461.009L459.262 112.608Z" fill="#838383"/>
<path d="M462.633 110.48H464.045V114H465.04V110.48H466.451V109.636H462.633V110.48Z" fill="#838383"/>
<path d="M446.321 138.182H441.685V144H442.73V139.057H445.275V144H446.321V138.182Z" fill="#838383"/>
<path d="M447.536 145.636H448.565V143.312H448.607C448.769 143.631 449.107 144.077 449.857 144.077C450.886 144.077 451.655 143.261 451.655 141.824C451.655 140.369 450.863 139.579 449.854 139.579C449.084 139.579 448.763 140.042 448.607 140.358H448.547V139.636H447.536V145.636ZM448.545 141.818C448.545 140.971 448.908 140.423 449.57 140.423C450.255 140.423 450.607 141.006 450.607 141.818C450.607 142.636 450.249 143.233 449.57 143.233C448.914 143.233 448.545 142.665 448.545 141.818Z" fill="#838383"/>
<path d="M454.468 144.085C455.485 144.085 456.184 143.588 456.366 142.829L455.405 142.721C455.266 143.091 454.925 143.284 454.482 143.284C453.817 143.284 453.377 142.846 453.369 142.099H456.408V141.784C456.408 140.253 455.488 139.579 454.414 139.579C453.164 139.579 452.349 140.497 452.349 141.844C452.349 143.213 453.153 144.085 454.468 144.085ZM453.371 141.406C453.403 140.849 453.815 140.381 454.428 140.381C455.019 140.381 455.417 140.812 455.422 141.406H453.371Z" fill="#838383"/>
<path d="M456.892 145.267H457.903V144H460.758V145.267H461.753V143.153H461.077V139.636H457.923L457.798 141.165C457.716 142.142 457.608 142.866 457.239 143.153H456.892V145.267ZM458.295 143.153C458.571 142.747 458.673 142.088 458.747 141.165L458.815 140.466H460.094V143.153H458.295Z" fill="#838383"/>
<path d="M464.424 144.085C465.521 144.085 466.219 143.434 466.293 142.508H465.31C465.222 142.977 464.884 143.247 464.432 143.247C463.79 143.247 463.376 142.71 463.376 141.818C463.376 140.937 463.799 140.409 464.432 140.409C464.927 140.409 465.231 140.727 465.31 141.148H466.293C466.222 140.202 465.484 139.579 464.418 139.579C463.14 139.579 462.333 140.503 462.333 141.835C462.333 143.156 463.12 144.085 464.424 144.085Z" fill="#838383"/>
<path d="M467.138 144H468.166V142.355H468.669L469.865 144H471.109L469.476 141.778L471.092 139.636H469.854L468.541 141.398H468.166V139.636H467.138V144Z" fill="#838383"/>
<path d="M472.948 144.088C473.633 144.088 474.042 143.767 474.229 143.4H474.263V144H475.252V141.079C475.252 139.926 474.312 139.579 473.479 139.579C472.562 139.579 471.857 139.988 471.63 140.784L472.59 140.92C472.692 140.622 472.982 140.366 473.485 140.366C473.962 140.366 474.224 140.611 474.224 141.04V141.057C474.224 141.352 473.914 141.366 473.144 141.449C472.297 141.54 471.488 141.792 471.488 142.775C471.488 143.633 472.116 144.088 472.948 144.088ZM473.215 143.332C472.786 143.332 472.479 143.136 472.479 142.758C472.479 142.363 472.823 142.199 473.283 142.133C473.553 142.096 474.093 142.028 474.226 141.92V142.434C474.226 142.92 473.834 143.332 473.215 143.332Z" fill="#838383"/>
<path d="M476.045 142.804C476.07 143.613 476.812 144.085 477.82 144.085C478.854 144.085 479.601 143.594 479.601 142.79C479.601 142.202 479.201 141.798 478.684 141.767V141.721C479.184 141.588 479.502 141.275 479.502 140.804C479.502 140.068 478.866 139.579 477.843 139.579C476.888 139.579 476.17 140.074 476.155 140.835H477.17C477.181 140.542 477.482 140.338 477.891 140.338C478.3 140.338 478.547 140.557 478.547 140.881C478.547 141.179 478.32 141.4 477.894 141.4H477.226V142.131H477.894C478.323 142.131 478.604 142.372 478.604 142.724C478.604 143.122 478.255 143.315 477.815 143.315C477.38 143.315 477.084 143.128 477.065 142.804H476.045Z" fill="#838383"/>
<path d="M481.667 144.088C482.351 144.088 482.761 143.767 482.948 143.4H482.982V144H483.971V141.079C483.971 139.926 483.03 139.579 482.198 139.579C481.28 139.579 480.576 139.988 480.349 140.784L481.309 140.92C481.411 140.622 481.701 140.366 482.204 140.366C482.681 140.366 482.942 140.611 482.942 141.04V141.057C482.942 141.352 482.633 141.366 481.863 141.449C481.016 141.54 480.207 141.792 480.207 142.775C480.207 143.633 480.834 144.088 481.667 144.088ZM481.934 143.332C481.505 143.332 481.198 143.136 481.198 142.758C481.198 142.363 481.542 142.199 482.002 142.133C482.272 142.096 482.812 142.028 482.945 141.92V142.434C482.945 142.92 482.553 143.332 481.934 143.332Z" fill="#838383"/>
<path d="M485.996 139.636H485.005V144H485.996V142.236H487.687V144H488.675V139.636H487.687V141.392H485.996V139.636Z" fill="#838383"/>
<path d="M490.707 142.608V139.636H489.716V144H490.775L492.517 141.025V144H493.511V139.636H492.454L490.707 142.608Z" fill="#838383"/>
<path d="M496.499 144.085C497.516 144.085 498.215 143.588 498.397 142.829L497.437 142.721C497.297 143.091 496.957 143.284 496.513 143.284C495.849 143.284 495.408 142.846 495.4 142.099H498.44V141.784C498.44 140.253 497.519 139.579 496.445 139.579C495.195 139.579 494.38 140.497 494.38 141.844C494.38 143.213 495.184 144.085 496.499 144.085ZM495.403 141.406C495.434 140.849 495.846 140.381 496.459 140.381C497.05 140.381 497.448 140.812 497.454 141.406H495.403Z" fill="#838383"/>
<path d="M501.055 140.48H502.467V144H503.462V140.48H504.873V139.636H501.055V140.48Z" fill="#838383"/>
<path d="M505.692 145.636H506.721V143.312H506.763C506.925 143.631 507.263 144.077 508.013 144.077C509.042 144.077 509.812 143.261 509.812 141.824C509.812 140.369 509.019 139.579 508.011 139.579C507.241 139.579 506.92 140.042 506.763 140.358H506.704V139.636H505.692V145.636ZM506.701 141.818C506.701 140.971 507.065 140.423 507.726 140.423C508.411 140.423 508.763 141.006 508.763 141.818C508.763 142.636 508.405 143.233 507.726 143.233C507.07 143.233 506.701 142.665 506.701 141.818Z" fill="#838383"/>
<path d="M511.948 144.088C512.633 144.088 513.042 143.767 513.229 143.4H513.263V144H514.252V141.079C514.252 139.926 513.312 139.579 512.479 139.579C511.562 139.579 510.857 139.988 510.63 140.784L511.59 140.92C511.692 140.622 511.982 140.366 512.485 140.366C512.962 140.366 513.224 140.611 513.224 141.04V141.057C513.224 141.352 512.914 141.366 512.144 141.449C511.298 141.54 510.488 141.792 510.488 142.775C510.488 143.633 511.116 144.088 511.948 144.088ZM512.215 143.332C511.786 143.332 511.479 143.136 511.479 142.758C511.479 142.363 511.823 142.199 512.283 142.133C512.553 142.096 513.093 142.028 513.226 141.92V142.434C513.226 142.92 512.834 143.332 512.215 143.332Z" fill="#838383"/>
<path d="M514.797 140.48H516.209V144H517.204V140.48H518.616V139.636H514.797V140.48Z" fill="#838383"/>
<path d="M334.041 149.119C340.681 155.76 349.335 160.013 358.649 161.214C367.963 162.414 377.413 160.495 385.52 155.756L373.085 134.483C369.68 136.474 365.712 137.28 361.8 136.776C357.888 136.271 354.253 134.485 351.464 131.696L334.041 149.119Z" fill="#AEAEAE" stroke="white"/>
<path d="M385.52 155.756C395.105 150.153 402.115 141.021 405.051 130.314C407.987 119.607 406.614 108.176 401.227 98.4676L379.682 110.423C381.944 114.5 382.521 119.301 381.288 123.798C380.055 128.295 377.11 132.131 373.085 134.484L385.52 155.756Z" fill="#E6E6E6" stroke="white"/>
<path d="M401.227 98.4672C398.278 93.1528 394.223 88.533 389.336 84.9198C384.45 81.3065 378.844 78.7839 372.899 77.5223C366.954 76.2606 360.807 76.2893 354.874 77.6064C348.94 78.9235 343.359 81.4984 338.506 85.1571C333.653 88.8158 329.641 93.4732 326.742 98.8148C323.843 104.156 322.124 110.058 321.7 116.121C321.277 122.184 322.16 128.267 324.288 133.96C326.417 139.652 329.743 144.822 334.04 149.12L351.463 131.696C349.658 129.891 348.262 127.72 347.367 125.329C346.473 122.938 346.103 120.383 346.281 117.837C346.458 115.291 347.18 112.812 348.398 110.568C349.616 108.325 351.3 106.369 353.339 104.832C355.377 103.296 357.721 102.214 360.213 101.661C362.705 101.108 365.287 101.096 367.784 101.626C370.281 102.155 372.635 103.215 374.688 104.733C376.74 106.25 378.443 108.19 379.682 110.422L401.227 98.4672Z" fill="#F4774C" stroke="white"/>
<defs>
<filter id="filter0_d_1334_7444" x="11" y="26" width="480" height="304" filterUnits="userSpaceOnUse" color-interpolation-filters="sRGB">
<feFlood flood-opacity="0" result="BackgroundImageFix"/>
<feColorMatrix in="SourceAlpha" type="matrix" values="0 0 0 0 0 0 0 0 0 0 0 0 0 0 0 0 0 0 127 0" result="hardAlpha"/>
<feOffset/>
<feGaussianBlur stdDeviation="12.5"/>
<feComposite in2="hardAlpha" operator="out"/>
<feColorMatrix type="matrix" values="0 0 0 0 0 0 0 0 0 0 0 0 0 0 0 0 0 0 0.15 0"/>
<feBlend mode="normal" in2="BackgroundImageFix" result="effect1_dropShadow_1334_7444"/>
<feBlend mode="normal" in="SourceGraphic" in2="effect1_dropShadow_1334_7444" result="shape"/>
</filter>
<filter id="filter1_d_1334_7444" x="268" y="181" width="339" height="168" filterUnits="userSpaceOnUse" color-interpolation-filters="sRGB">
<feFlood flood-opacity="0" result="BackgroundImageFix"/>
<feColorMatrix in="SourceAlpha" type="matrix" values="0 0 0 0 0 0 0 0 0 0 0 0 0 0 0 0 0 0 127 0" result="hardAlpha"/>
<feOffset/>
<feGaussianBlur stdDeviation="12.5"/>
<feComposite in2="hardAlpha" operator="out"/>
<feColorMatrix type="matrix" values="0 0 0 0 0 0 0 0 0 0 0 0 0 0 0 0 0 0 0.09 0"/>
<feBlend mode="normal" in2="BackgroundImageFix" result="effect1_dropShadow_1334_7444"/>
<feBlend mode="normal" in="SourceGraphic" in2="effect1_dropShadow_1334_7444" result="shape"/>
</filter>
<filter id="filter2_d_1334_7444" x="268" y="6" width="339" height="206" filterUnits="userSpaceOnUse" color-interpolation-filters="sRGB">
<feFlood flood-opacity="0" result="BackgroundImageFix"/>
<feColorMatrix in="SourceAlpha" type="matrix" values="0 0 0 0 0 0 0 0 0 0 0 0 0 0 0 0 0 0 127 0" result="hardAlpha"/>
<feOffset/>
<feGaussianBlur stdDeviation="12.5"/>
<feComposite in2="hardAlpha" operator="out"/>
<feColorMatrix type="matrix" values="0 0 0 0 0 0 0 0 0 0 0 0 0 0 0 0 0 0 0.09 0"/>
<feBlend mode="normal" in2="BackgroundImageFix" result="effect1_dropShadow_1334_7444"/>
<feBlend mode="normal" in="SourceGraphic" in2="effect1_dropShadow_1334_7444" result="shape"/>
</filter>
</defs>
</svg>
