<svg width="474" height="300" viewBox="0 0 474 300" fill="none" xmlns="http://www.w3.org/2000/svg">
<g clip-path="url(#clip0_1361_1270)">
<rect width="474" height="300" fill="#F5F5F5"/>
<g filter="url(#filter0_d_1361_1270)">
<rect x="117" y="27" width="337" height="199" rx="4" fill="white"/>
</g>
<path d="M117 31C117 28.7909 118.791 27 121 27H450C452.209 27 454 28.7909 454 31V53.6378H117V31Z" fill="#3C3A3E"/>
<path d="M117 53.6377H200.074V226H121C118.791 226 117 224.209 117 222V53.6377Z" fill="#EDEDED"/>
<rect x="200.074" y="53.6377" width="148.075" height="1.56744" transform="rotate(90 200.074 53.6377)" fill="#CBCBCB"/>
<path fill-rule="evenodd" clip-rule="evenodd" d="M136.828 42.441C136.828 44.389 135.698 45.364 133.437 45.3661H128.758C128.758 43.4906 131.646 43.4988 132.892 43.5024L133.036 43.5026C133.97 43.5026 134.437 43.0801 134.435 42.235C134.435 41.3856 133.969 40.9673 133.036 40.9673H130.397V39.1229H133.015C133.948 39.1229 134.41 38.714 134.41 37.9027C134.41 37.0914 133.942 36.6984 133.015 36.6984C132.866 36.6984 132.698 36.7028 132.516 36.7076H132.516C131.067 36.7456 128.758 36.8061 128.758 34.835H133.066C134.307 34.835 135.172 34.9945 135.66 35.3135C136.027 35.5504 136.327 35.8856 136.527 36.2842C136.728 36.6827 136.822 37.13 136.8 37.5795C136.819 38.1121 136.684 38.6383 136.413 39.0902C136.142 39.5422 135.748 39.8991 135.28 40.1148C136.308 40.5712 136.821 41.3529 136.819 42.46L136.828 42.441ZM167.429 37.7033C168.319 37.8667 169.122 38.3633 169.685 39.0998C170.249 39.8364 170.536 40.7622 170.491 41.7032C170.446 42.6443 170.073 43.5359 169.441 44.2104C168.81 44.885 167.965 45.2961 167.063 45.3666C166.162 45.4371 165.266 45.162 164.546 44.5931C163.825 44.0242 163.329 43.2006 163.15 42.2771C162.97 41.3535 163.121 40.3936 163.573 39.5776C164.025 38.7617 164.748 38.1459 165.605 37.8459C166.192 37.6407 166.819 37.5917 167.429 37.7033ZM145.299 43.2144C145.299 44.6596 144.363 45.3811 142.49 45.379H137.953V37.6652H142.21C143.219 37.6652 143.928 37.7888 144.338 38.0297C144.638 38.1916 144.888 38.4391 145.058 38.7432C145.228 39.0473 145.312 39.3956 145.299 39.7474C145.305 40.1105 145.21 40.4676 145.027 40.7765C144.844 41.0853 144.579 41.3331 144.265 41.4904C144.587 41.6307 144.859 41.8703 145.045 42.1769C145.232 42.4835 145.324 42.8423 145.308 43.2049L145.299 43.2144ZM143.207 39.9755C143.207 39.4907 142.882 39.2466 142.228 39.2466H139.908V40.7266H142.228C142.882 40.7266 143.207 40.4763 143.207 39.9755ZM143.207 43.0465C143.207 42.5426 142.885 42.2922 142.24 42.2922H139.908V43.8007H142.256C142.9 43.8007 143.223 43.5472 143.223 43.0465H143.207ZM162.205 45.379H160.259V42.3207H157.45V45.379H155.498V37.6652H157.45V40.6221H160.259V37.6652H162.205V45.379ZM178.91 45.379H176.283L173.291 41.6362V45.379H171.339V37.6652H173.291V41.37L176.438 37.6652H178.929L175.49 41.4397L178.929 45.379H178.91ZM167.326 39.4716C167.059 39.3841 166.778 39.3547 166.5 39.3852C166.222 39.4158 165.953 39.5057 165.709 39.6493C165.466 39.793 165.254 39.9873 165.086 40.2201C164.917 40.453 164.797 40.7194 164.732 41.0028C164.667 41.2863 164.659 41.5806 164.707 41.8676C164.756 42.1545 164.861 42.4279 165.016 42.6707C165.17 42.9136 165.371 43.1207 165.606 43.2791C165.841 43.4375 166.104 43.5439 166.38 43.5916C166.682 43.6547 166.993 43.6472 167.292 43.5694C167.728 43.4548 168.115 43.1934 168.393 42.8258C168.671 42.4582 168.825 42.005 168.831 41.5368C168.836 41.0687 168.693 40.6117 168.424 40.237C168.154 39.8624 167.773 39.5911 167.341 39.4653L167.326 39.4716ZM151.295 39.3544C151.757 39.5888 152.129 39.9794 152.351 40.4626C152.572 40.9458 152.63 41.4929 152.514 42.0146C152.399 42.5364 152.117 43.002 151.715 43.3354C151.313 43.6687 150.815 43.8503 150.301 43.8503C149.787 43.8503 149.289 43.6687 148.887 43.3354C148.485 43.002 148.203 42.5364 148.088 42.0146C147.972 41.4929 148.03 40.9458 148.252 40.4626C148.473 39.9794 148.845 39.5888 149.307 39.3544V37.2913C148.324 37.5444 147.464 38.1638 146.889 39.0325C146.315 39.9012 146.065 40.9592 146.187 42.0067C146.309 43.0542 146.795 44.0188 147.553 44.7184C148.311 45.418 149.289 45.8043 150.301 45.8043C151.314 45.8043 152.291 45.418 153.049 44.7184C153.807 44.0188 154.293 43.0542 154.415 42.0067C154.537 40.9592 154.288 39.9012 153.713 39.0325C153.138 38.1638 152.278 37.5444 151.295 37.2913V39.3544ZM149.609 42.5929C149.898 42.7908 150.251 42.8615 150.59 42.7898C150.847 42.7399 151.083 42.6117 151.269 42.4214C151.455 42.2311 151.583 41.9875 151.636 41.7213C151.688 41.4552 151.664 41.1788 151.566 40.9272C151.467 40.6755 151.299 40.4601 151.083 40.3083C150.952 40.2157 150.805 40.1491 150.651 40.1118V37.1582H150.043V40.1118C149.705 40.1904 149.411 40.4049 149.224 40.7085C149.037 41.0121 148.972 41.3804 149.044 41.7333C149.117 42.0861 149.319 42.3951 149.609 42.5929Z" fill="white"/>
<path fill-rule="evenodd" clip-rule="evenodd" d="M126.407 69.3071C125.542 69.3071 124.84 70.0087 124.84 70.8741C124.84 71.7394 125.542 72.441 126.407 72.441H185.971C186.836 72.441 187.538 71.7394 187.538 70.8741C187.538 70.0087 186.836 69.3071 185.971 69.3071H126.407ZM126.407 130.417C125.542 130.417 124.84 131.119 124.84 131.984C124.84 132.85 125.542 133.551 126.407 133.551H185.971C186.836 133.551 187.538 132.85 187.538 131.984C187.538 131.119 186.836 130.417 185.971 130.417H126.407ZM124.84 81.8426C124.84 80.9772 125.542 80.2756 126.407 80.2756H170.296C171.162 80.2756 171.863 80.9772 171.863 81.8426C171.863 82.708 171.162 83.4095 170.296 83.4095H126.407C125.542 83.4095 124.84 82.708 124.84 81.8426ZM126.407 141.386C125.542 141.386 124.84 142.087 124.84 142.953C124.84 143.818 125.542 144.52 126.407 144.52H170.296C171.162 144.52 171.863 143.818 171.863 142.953C171.863 142.087 171.162 141.386 170.296 141.386H126.407ZM124.84 92.8111C124.84 91.9457 125.542 91.2441 126.407 91.2441H177.35C178.215 91.2441 178.917 91.9457 178.917 92.8111C178.917 93.6765 178.215 94.378 177.35 94.378H126.407C125.542 94.378 124.84 93.6765 124.84 92.8111ZM126.407 152.354C125.542 152.354 124.84 153.056 124.84 153.921C124.84 154.787 125.542 155.488 126.407 155.488H177.35C178.215 155.488 178.917 154.787 178.917 153.921C178.917 153.056 178.215 152.354 177.35 152.354H126.407ZM124.84 103.78C124.84 102.914 125.542 102.213 126.407 102.213H160.108C160.973 102.213 161.675 102.914 161.675 103.78C161.675 104.645 160.973 105.347 160.108 105.347H126.407C125.542 105.347 124.84 104.645 124.84 103.78ZM126.407 163.323C125.542 163.323 124.84 164.024 124.84 164.89C124.84 165.755 125.542 166.457 126.407 166.457H160.108C160.973 166.457 161.675 165.755 161.675 164.89C161.675 164.024 160.973 163.323 160.108 163.323H126.407ZM124.84 193.095C124.84 192.229 125.542 191.528 126.407 191.528H170.296C171.162 191.528 171.863 192.229 171.863 193.095C171.863 193.96 171.162 194.661 170.296 194.661H126.407C125.542 194.661 124.84 193.96 124.84 193.095ZM200.074 117.882L117 117.882V118.382L200.074 118.382V117.882ZM117 178.992L200.074 178.992V179.492L117 179.492V178.992ZM200.074 207.197H117V207.697H200.074V207.197Z" fill="#CBCBCB"/>
<path d="M225.139 76.358H223.816L226.224 69.5205H227.754L230.165 76.358H228.843L227.016 70.9227H226.962L225.139 76.358ZM225.182 73.6771H228.789V74.672H225.182V73.6771Z" fill="#3C3A3E"/>
<path d="M231.013 76.358V71.2299H233.167C233.775 71.2299 234.254 71.3512 234.606 71.5938C234.96 71.8364 235.137 72.1747 235.137 72.6087C235.137 72.8959 235.037 73.1307 234.837 73.3132C234.638 73.4935 234.368 73.6148 234.025 73.6771C234.295 73.6994 234.531 73.7672 234.733 73.8808C234.938 73.9943 235.098 74.1434 235.214 74.3281C235.33 74.5129 235.388 74.7254 235.388 74.9658C235.388 75.2485 235.313 75.4944 235.164 75.7036C235.017 75.9106 234.802 76.072 234.519 76.1877C234.239 76.3013 233.898 76.358 233.497 76.358H231.013ZM232.145 75.4065H233.497C233.72 75.4065 233.895 75.3542 234.022 75.2496C234.149 75.1428 234.212 74.9981 234.212 74.8156C234.212 74.6041 234.149 74.4383 234.022 74.3181C233.895 74.1957 233.72 74.1345 233.497 74.1345H232.145V75.4065ZM232.145 73.3533H233.19C233.355 73.3533 233.496 73.3299 233.614 73.2831C233.732 73.2342 233.822 73.1663 233.885 73.0795C233.947 72.9905 233.978 72.8847 233.978 72.7623C233.978 72.5865 233.906 72.4485 233.761 72.3483C233.619 72.2482 233.421 72.1981 233.167 72.1981H232.145V73.3533Z" fill="#3C3A3E"/>
<path d="M236.105 72.2215V71.2299H240.593V72.2215H238.934V76.358H237.765V72.2215H236.105Z" fill="#3C3A3E"/>
<path d="M243.583 76.4582C243.082 76.4582 242.647 76.348 242.28 76.1277C241.913 75.9073 241.628 75.599 241.425 75.2029C241.225 74.8067 241.125 74.3437 241.125 73.814C241.125 73.2843 241.225 72.8202 241.425 72.4218C241.628 72.0234 241.913 71.714 242.28 71.4936C242.647 71.2733 243.082 71.1631 243.583 71.1631C244.083 71.1631 244.518 71.2733 244.885 71.4936C245.252 71.714 245.536 72.0234 245.737 72.4218C245.939 72.8202 246.041 73.2843 246.041 73.814C246.041 74.3437 245.939 74.8067 245.737 75.2029C245.536 75.599 245.252 75.9073 244.885 76.1277C244.518 76.348 244.083 76.4582 243.583 76.4582ZM243.589 75.49C243.861 75.49 244.088 75.4154 244.271 75.2663C244.453 75.1149 244.589 74.9124 244.678 74.6587C244.769 74.4049 244.815 74.1222 244.815 73.8106C244.815 73.4968 244.769 73.213 244.678 72.9593C244.589 72.7033 244.453 72.4997 244.271 72.3483C244.088 72.197 243.861 72.1213 243.589 72.1213C243.311 72.1213 243.079 72.197 242.895 72.3483C242.712 72.4997 242.575 72.7033 242.484 72.9593C242.395 73.213 242.35 73.4968 242.35 73.8106C242.35 74.1222 242.395 74.4049 242.484 74.6587C242.575 74.9124 242.712 75.1149 242.895 75.2663C243.079 75.4154 243.311 75.49 243.589 75.49Z" fill="#3C3A3E"/>
<path d="M246.783 74.9525H247.982C247.993 75.1439 248.079 75.2919 248.239 75.3965C248.399 75.5011 248.607 75.5534 248.863 75.5534C249.124 75.5534 249.343 75.4967 249.521 75.3831C249.702 75.2674 249.792 75.0927 249.792 74.859C249.792 74.721 249.757 74.5997 249.688 74.4951C249.619 74.3882 249.523 74.3059 249.398 74.248C249.273 74.1901 249.126 74.1612 248.957 74.1612H248.172V73.3032H248.957C249.209 73.3032 249.399 73.2453 249.528 73.1296C249.659 73.0138 249.725 72.868 249.725 72.6922C249.725 72.503 249.656 72.3494 249.518 72.2315C249.382 72.1135 249.194 72.0545 248.954 72.0545C248.713 72.0545 248.513 72.1091 248.352 72.2181C248.194 72.3272 248.112 72.4674 248.105 72.6388H246.913C246.918 72.3405 247.007 72.0812 247.18 71.8609C247.356 71.6405 247.592 71.4692 247.888 71.3467C248.187 71.2243 248.523 71.1631 248.897 71.1631C249.298 71.1631 249.644 71.2232 249.936 71.3434C250.227 71.4636 250.452 71.6316 250.61 71.8475C250.768 72.0612 250.847 72.3127 250.847 72.6021C250.847 72.8803 250.76 73.1106 250.587 73.2932C250.413 73.4734 250.179 73.6025 249.885 73.6804V73.7339C250.088 73.745 250.271 73.8029 250.433 73.9075C250.596 74.0098 250.725 74.149 250.821 74.3248C250.916 74.5006 250.964 74.7043 250.964 74.9358C250.964 75.2496 250.874 75.5211 250.694 75.7504C250.513 75.9774 250.265 76.1521 249.949 76.2746C249.635 76.397 249.275 76.4582 248.87 76.4582C248.476 76.4582 248.123 76.3992 247.811 76.2812C247.502 76.161 247.256 75.9885 247.073 75.7637C246.891 75.5389 246.794 75.2685 246.783 74.9525Z" fill="#3C3A3E"/>
<path d="M251.916 76.358V71.2299H254.07C254.678 71.2299 255.158 71.3512 255.51 71.5938C255.864 71.8364 256.041 72.1747 256.041 72.6087C256.041 72.8959 255.94 73.1307 255.74 73.3132C255.542 73.4935 255.271 73.6148 254.928 73.6771C255.198 73.6994 255.434 73.7672 255.636 73.8808C255.841 73.9943 256.002 74.1434 256.117 74.3281C256.233 74.5129 256.291 74.7254 256.291 74.9658C256.291 75.2485 256.216 75.4944 256.067 75.7036C255.92 75.9106 255.705 76.072 255.423 76.1877C255.142 76.3013 254.801 76.358 254.401 76.358H251.916ZM253.048 75.4065H254.401C254.623 75.4065 254.798 75.3542 254.925 75.2496C255.052 75.1428 255.115 74.9981 255.115 74.8156C255.115 74.6041 255.052 74.4383 254.925 74.3181C254.798 74.1957 254.623 74.1345 254.401 74.1345H253.048V75.4065ZM253.048 73.3533H254.093C254.258 73.3533 254.4 73.3299 254.518 73.2831C254.636 73.2342 254.726 73.1663 254.788 73.0795C254.85 72.9905 254.882 72.8847 254.882 72.7623C254.882 72.5865 254.809 72.4485 254.665 72.3483C254.522 72.2482 254.324 72.1981 254.07 72.1981H253.048V73.3533Z" fill="#3C3A3E"/>
<path d="M259.526 76.4582C259.025 76.4582 258.591 76.348 258.224 76.1277C257.857 75.9073 257.572 75.599 257.369 75.2029C257.169 74.8067 257.068 74.3437 257.068 73.814C257.068 73.2843 257.169 72.8202 257.369 72.4218C257.572 72.0234 257.857 71.714 258.224 71.4936C258.591 71.2733 259.025 71.1631 259.526 71.1631C260.027 71.1631 260.461 71.2733 260.829 71.4936C261.196 71.714 261.48 72.0234 261.68 72.4218C261.883 72.8202 261.984 73.2843 261.984 73.814C261.984 74.3437 261.883 74.8067 261.68 75.2029C261.48 75.599 261.196 75.9073 260.829 76.1277C260.461 76.348 260.027 76.4582 259.526 76.4582ZM259.533 75.49C259.805 75.49 260.032 75.4154 260.214 75.2663C260.397 75.1149 260.533 74.9124 260.622 74.6587C260.713 74.4049 260.759 74.1222 260.759 73.8106C260.759 73.4968 260.713 73.213 260.622 72.9593C260.533 72.7033 260.397 72.4997 260.214 72.3483C260.032 72.197 259.805 72.1213 259.533 72.1213C259.255 72.1213 259.023 72.197 258.838 72.3483C258.656 72.4997 258.519 72.7033 258.428 72.9593C258.339 73.213 258.294 73.4968 258.294 73.8106C258.294 74.1222 258.339 74.4049 258.428 74.6587C258.519 74.9124 258.656 75.1149 258.838 75.2663C259.023 75.4154 259.255 75.49 259.533 75.49Z" fill="#3C3A3E"/>
<path d="M266.534 73.2932V74.2847H263.802V73.2932H266.534ZM264.176 71.2299V76.358H263.011V71.2299H264.176ZM267.325 71.2299V76.358H266.163V71.2299H267.325Z" fill="#3C3A3E"/>
<path d="M268.549 76.358V71.2299H269.758V73.2998H270.198L271.741 71.2299H273.198L271.297 73.7472L273.218 76.358H271.755L270.349 74.425H269.758V76.358H268.549Z" fill="#3C3A3E"/>
<path d="M275.069 74.7221L277.123 71.2299H278.365V76.358H277.196V72.8625L275.149 76.358H273.903V71.2299H275.069V74.7221Z" fill="#3C3A3E"/>
<path d="M281.485 77.847V75.3631H281.892C282.002 75.2785 282.093 75.1639 282.166 75.0192C282.24 74.8723 282.3 74.6998 282.347 74.5017C282.396 74.3014 282.436 74.0777 282.467 73.8307C282.498 73.5814 282.526 73.3132 282.55 73.0261L282.697 71.2299H286.404V75.3631H287.199V77.847H286.03V76.358H282.674V77.847H281.485ZM283.135 75.3631H285.249V72.2048H283.746L283.666 73.0261C283.621 73.5691 283.562 74.0343 283.489 74.4216C283.415 74.8089 283.297 75.1227 283.135 75.3631Z" fill="#3C3A3E"/>
<path d="M287.748 76.358L287.741 75.3631H287.918C288.052 75.3631 288.164 75.3331 288.255 75.273C288.347 75.2129 288.422 75.1127 288.483 74.9725C288.543 74.83 288.589 74.6386 288.623 74.3982C288.656 74.1579 288.68 73.8585 288.693 73.5002L288.783 71.2299H292.524V76.358H291.355V72.2215H289.882L289.802 73.8741C289.782 74.3014 289.734 74.672 289.658 74.9858C289.585 75.2974 289.48 75.5545 289.344 75.7571C289.211 75.9596 289.043 76.111 288.84 76.2111C288.637 76.3091 288.398 76.358 288.122 76.358H287.748Z" fill="#3C3A3E"/>
<path d="M296.773 76.358V72.2114H295.678C295.4 72.2114 295.186 72.276 295.037 72.4051C294.888 72.5342 294.814 72.6944 294.816 72.8858C294.814 73.0773 294.884 73.2353 295.027 73.3599C295.169 73.4846 295.373 73.5469 295.638 73.5469H297.154V74.4283H295.638C295.228 74.4283 294.874 74.3637 294.576 74.2346C294.278 74.1056 294.048 73.923 293.888 73.6871C293.728 73.4512 293.647 73.1752 293.647 72.8591C293.647 72.5297 293.729 72.2437 293.891 72.0011C294.056 71.7563 294.29 71.5671 294.593 71.4335C294.898 71.2978 295.259 71.2299 295.678 71.2299H297.906V76.358H296.773ZM293.46 76.358L294.893 73.7272H296.085L294.649 76.358H293.46Z" fill="#3C3A3E"/>
<path d="M301.456 76.358V71.2299H302.665V73.2998H303.106L304.648 71.2299H306.105L304.204 73.7472L306.125 76.358H304.662L303.256 74.425H302.665V76.358H301.456Z" fill="#3C3A3E"/>
<path d="M308.836 76.4582C308.336 76.4582 307.901 76.348 307.534 76.1277C307.167 75.9073 306.882 75.599 306.679 75.2029C306.479 74.8067 306.378 74.3437 306.378 73.814C306.378 73.2843 306.479 72.8202 306.679 72.4218C306.882 72.0234 307.167 71.714 307.534 71.4936C307.901 71.2733 308.336 71.1631 308.836 71.1631C309.337 71.1631 309.772 71.2733 310.139 71.4936C310.506 71.714 310.79 72.0234 310.991 72.4218C311.193 72.8202 311.295 73.2843 311.295 73.814C311.295 74.3437 311.193 74.8067 310.991 75.2029C310.79 75.599 310.506 75.9073 310.139 76.1277C309.772 76.348 309.337 76.4582 308.836 76.4582ZM308.843 75.49C309.115 75.49 309.342 75.4154 309.524 75.2663C309.707 75.1149 309.843 74.9124 309.932 74.6587C310.023 74.4049 310.069 74.1222 310.069 73.8106C310.069 73.4968 310.023 73.213 309.932 72.9593C309.843 72.7033 309.707 72.4997 309.524 72.3483C309.342 72.197 309.115 72.1213 308.843 72.1213C308.565 72.1213 308.333 72.197 308.149 72.3483C307.966 72.4997 307.829 72.7033 307.738 72.9593C307.649 73.213 307.604 73.4968 307.604 73.8106C307.604 74.1222 307.649 74.4049 307.738 74.6587C307.829 74.9124 307.966 75.1149 308.149 75.2663C308.333 75.4154 308.565 75.49 308.843 75.49Z" fill="#3C3A3E"/>
<path d="M311.967 76.358L311.96 75.3631H312.137C312.271 75.3631 312.383 75.3331 312.474 75.273C312.566 75.2129 312.641 75.1127 312.701 74.9725C312.761 74.83 312.808 74.6386 312.842 74.3982C312.875 74.1579 312.898 73.8585 312.912 73.5002L313.002 71.2299H316.742V76.358H315.574V72.2215H314.101L314.021 73.8741C314.001 74.3014 313.953 74.672 313.877 74.9858C313.803 75.2974 313.699 75.5545 313.563 75.7571C313.429 75.9596 313.261 76.111 313.059 76.2111C312.856 76.3091 312.617 76.358 312.341 76.358H311.967Z" fill="#3C3A3E"/>
<path d="M317.606 76.358L317.599 75.3631H317.776C317.91 75.3631 318.022 75.3331 318.113 75.273C318.205 75.2129 318.28 75.1127 318.34 74.9725C318.401 74.83 318.447 74.6386 318.481 74.3982C318.514 74.1579 318.538 73.8585 318.551 73.5002L318.641 71.2299H322.382V76.358H321.213V72.2215H319.74L319.66 73.8741C319.64 74.3014 319.592 74.672 319.516 74.9858C319.443 75.2974 319.338 75.5545 319.202 75.7571C319.069 75.9596 318.9 76.111 318.698 76.2111C318.495 76.3091 318.256 76.358 317.98 76.358H317.606Z" fill="#3C3A3E"/>
<path d="M326.708 73.0127V74.0076H323.629V73.0127H326.708Z" fill="#3C3A3E"/>
<path d="M332.311 71.2299V75.4566H333.096V78.0073H331.914V76.358H327.98V71.2299H329.145V75.3664H331.156V71.2299H332.311Z" fill="#3C3A3E"/>
<path d="M336.303 76.4582C335.789 76.4582 335.345 76.3513 334.971 76.1377C334.599 75.9218 334.313 75.6168 334.112 75.2229C333.912 74.8267 333.812 74.3604 333.812 73.824C333.812 73.2965 333.912 72.8335 334.112 72.4351C334.315 72.0345 334.598 71.7229 334.961 71.5003C335.324 71.2755 335.75 71.1631 336.24 71.1631C336.556 71.1631 336.854 71.2143 337.135 71.3167C337.418 71.4168 337.667 71.5727 337.883 71.7841C338.101 71.9955 338.273 72.2649 338.397 72.592C338.522 72.917 338.584 73.3043 338.584 73.7539V74.1245H334.38V73.3098H337.425C337.423 73.0784 337.373 72.8725 337.275 72.6922C337.177 72.5097 337.04 72.3661 336.864 72.2615C336.691 72.1569 336.488 72.1046 336.256 72.1046C336.009 72.1046 335.792 72.1647 335.605 72.2849C335.418 72.4029 335.272 72.5587 335.168 72.7523C335.065 72.9437 335.013 73.154 335.011 73.3833V74.0944C335.011 74.3927 335.065 74.6486 335.174 74.8623C335.283 75.0738 335.436 75.2362 335.632 75.3498C335.828 75.461 336.057 75.5167 336.32 75.5167C336.496 75.5167 336.655 75.4922 336.797 75.4432C336.94 75.392 337.064 75.3175 337.168 75.2195C337.273 75.1216 337.352 75.0003 337.405 74.8556L338.534 74.9825C338.463 75.2808 338.327 75.5412 338.127 75.7637C337.929 75.9841 337.675 76.1555 337.365 76.2779C337.056 76.3981 336.702 76.4582 336.303 76.4582Z" fill="#3C3A3E"/>
<path d="M343.13 73.2932V74.2847H340.399V73.2932H343.13ZM340.773 71.2299V76.358H339.607V71.2299H340.773ZM343.922 71.2299V76.358H342.76V71.2299H343.922Z" fill="#3C3A3E"/>
<path d="M344.571 72.2215V71.2299H349.059V72.2215H347.399V76.358H346.231V72.2215H344.571Z" fill="#3C3A3E"/>
<path d="M350.022 78.2811V71.2299H351.211V72.0779H351.281C351.343 71.9533 351.431 71.8208 351.545 71.6806C351.658 71.5382 351.812 71.4168 352.006 71.3167C352.199 71.2143 352.447 71.1631 352.747 71.1631C353.143 71.1631 353.501 71.2644 353.819 71.4669C354.14 71.6672 354.394 71.9644 354.581 72.3583C354.77 72.7501 354.865 73.2308 354.865 73.8006C354.865 74.3637 354.772 74.8423 354.587 75.2362C354.403 75.6302 354.151 75.9307 353.833 76.1377C353.514 76.3447 353.153 76.4482 352.75 76.4482C352.457 76.4482 352.213 76.3992 352.019 76.3013C351.825 76.2033 351.67 76.0854 351.552 75.9474C351.436 75.8071 351.346 75.6747 351.281 75.5501H351.231V78.2811H350.022ZM351.208 73.794C351.208 74.1256 351.254 74.416 351.348 74.6653C351.444 74.9146 351.58 75.1094 351.759 75.2496C351.939 75.3876 352.157 75.4566 352.413 75.4566C352.68 75.4566 352.904 75.3854 353.084 75.2429C353.265 75.0982 353.401 74.9013 353.492 74.652C353.585 74.4005 353.632 74.1145 353.632 73.794C353.632 73.4757 353.587 73.193 353.495 72.9459C353.404 72.6989 353.268 72.5052 353.088 72.365C352.907 72.2248 352.683 72.1547 352.413 72.1547C352.155 72.1547 351.936 72.2226 351.755 72.3583C351.575 72.4941 351.438 72.6844 351.344 72.9292C351.253 73.1741 351.208 73.4623 351.208 73.794Z" fill="#3C3A3E"/>
<path d="M357.376 76.4615C357.051 76.4615 356.758 76.4036 356.498 76.2879C356.239 76.1699 356.035 75.9963 355.883 75.7671C355.734 75.5378 355.659 75.2552 355.659 74.9191C355.659 74.6297 355.713 74.3905 355.82 74.2013C355.927 74.0121 356.072 73.8607 356.257 73.7472C356.442 73.6337 356.65 73.548 356.882 73.4901C357.115 73.43 357.357 73.3866 357.606 73.3599C357.907 73.3288 358.151 73.3009 358.338 73.2765C358.525 73.2498 358.661 73.2097 358.745 73.1563C358.832 73.1006 358.876 73.0149 358.876 72.8992V72.8792C358.876 72.6277 358.801 72.4329 358.652 72.2949C358.503 72.1569 358.288 72.0879 358.007 72.0879C357.711 72.0879 357.476 72.1525 357.303 72.2816C357.131 72.4106 357.015 72.5631 356.955 72.7389L355.826 72.5787C355.915 72.2671 356.062 72.0067 356.267 71.7975C356.472 71.586 356.723 71.428 357.019 71.3234C357.315 71.2165 357.642 71.1631 358.001 71.1631C358.248 71.1631 358.494 71.192 358.739 71.2499C358.984 71.3078 359.207 71.4035 359.41 71.537C359.612 71.6684 359.775 71.8475 359.897 72.0746C360.022 72.3016 360.085 72.5854 360.085 72.9259V76.358H358.922V75.6536H358.882C358.809 75.796 358.705 75.9296 358.572 76.0542C358.44 76.1766 358.274 76.2757 358.074 76.3513C357.876 76.4248 357.643 76.4615 357.376 76.4615ZM357.69 75.5734C357.933 75.5734 358.143 75.5256 358.321 75.4299C358.499 75.3319 358.636 75.2029 358.732 75.0426C358.83 74.8823 358.879 74.7076 358.879 74.5184V73.9141C358.841 73.9453 358.776 73.9742 358.685 74.0009C358.596 74.0277 358.496 74.051 358.385 74.0711C358.273 74.0911 358.163 74.1089 358.054 74.1245C357.945 74.1401 357.85 74.1534 357.77 74.1645C357.59 74.189 357.428 74.2291 357.286 74.2847C357.143 74.3404 357.031 74.4183 356.949 74.5184C356.866 74.6164 356.825 74.7432 356.825 74.899C356.825 75.1216 356.906 75.2897 357.069 75.4032C357.231 75.5167 357.438 75.5734 357.69 75.5734Z" fill="#3C3A3E"/>
<path fill-rule="evenodd" clip-rule="evenodd" d="M430.488 84.1929H223.586V83.1929H430.488V84.1929ZM347.411 99.0786C346.545 99.0786 345.844 99.7802 345.844 100.646C345.844 101.511 346.545 102.212 347.411 102.212H428.919C429.784 102.212 430.486 101.511 430.486 100.646C430.486 99.7802 429.784 99.0786 428.919 99.0786H347.411ZM223.586 100.646C223.586 99.7802 224.287 99.0786 225.153 99.0786H275.312C276.177 99.0786 276.879 99.7802 276.879 100.646C276.879 101.511 276.177 102.212 275.312 102.212H225.153C224.287 102.212 223.586 101.511 223.586 100.646ZM223.586 119.449C223.586 118.583 224.287 117.882 225.153 117.882H275.312C276.177 117.882 276.879 118.583 276.879 119.449C276.879 120.314 276.177 121.016 275.312 121.016H225.153C224.287 121.016 223.586 120.314 223.586 119.449ZM225.153 136.685C224.287 136.685 223.586 137.387 223.586 138.252C223.586 139.117 224.287 139.819 225.153 139.819H275.312C276.177 139.819 276.879 139.117 276.879 138.252C276.879 137.387 276.177 136.685 275.312 136.685H225.153ZM223.586 157.055C223.586 156.19 224.287 155.488 225.153 155.488H275.312C276.177 155.488 276.879 156.19 276.879 157.055C276.879 157.92 276.177 158.622 275.312 158.622H225.153C224.287 158.622 223.586 157.92 223.586 157.055ZM225.153 174.291C224.287 174.291 223.586 174.993 223.586 175.858C223.586 176.724 224.287 177.425 225.153 177.425H275.312C276.177 177.425 276.879 176.724 276.879 175.858C276.879 174.993 276.177 174.291 275.312 174.291H225.153ZM310.578 100.646C310.578 99.7802 311.28 99.0786 312.145 99.0786H334.874C335.739 99.0786 336.441 99.7802 336.441 100.646C336.441 101.511 335.739 102.212 334.874 102.212H312.145C311.28 102.212 310.578 101.511 310.578 100.646ZM312.145 117.882C311.28 117.882 310.578 118.583 310.578 119.449C310.578 120.314 311.28 121.016 312.145 121.016H334.874C335.739 121.016 336.441 120.314 336.441 119.449C336.441 118.583 335.739 117.882 334.874 117.882H312.145ZM310.578 138.252C310.578 137.387 311.28 136.685 312.145 136.685H334.874C335.739 136.685 336.441 137.387 336.441 138.252C336.441 139.117 335.739 139.819 334.874 139.819H312.145C311.28 139.819 310.578 139.117 310.578 138.252ZM312.145 155.488C311.28 155.488 310.578 156.19 310.578 157.055C310.578 157.92 311.28 158.622 312.145 158.622H334.874C335.739 158.622 336.441 157.92 336.441 157.055C336.441 156.19 335.739 155.488 334.874 155.488H312.145ZM310.578 175.858C310.578 174.993 311.28 174.291 312.145 174.291H334.874C335.739 174.291 336.441 174.993 336.441 175.858C336.441 176.724 335.739 177.425 334.874 177.425H312.145C311.28 177.425 310.578 176.724 310.578 175.858ZM345.844 119.449C345.844 118.583 346.545 117.882 347.411 117.882H428.919C429.784 117.882 430.486 118.583 430.486 119.449C430.486 120.314 429.784 121.016 428.919 121.016H347.411C346.545 121.016 345.844 120.314 345.844 119.449ZM347.411 136.685C346.545 136.685 345.844 137.387 345.844 138.252C345.844 139.117 346.545 139.819 347.411 139.819H428.919C429.784 139.819 430.486 139.117 430.486 138.252C430.486 137.387 429.784 136.685 428.919 136.685H347.411ZM345.844 157.055C345.844 156.19 346.545 155.488 347.411 155.488H428.919C429.784 155.488 430.486 156.19 430.486 157.055C430.486 157.92 429.784 158.622 428.919 158.622H347.411C346.545 158.622 345.844 157.92 345.844 157.055ZM347.411 174.291C346.545 174.291 345.844 174.993 345.844 175.858C345.844 176.724 346.545 177.425 347.411 177.425H428.919C429.784 177.425 430.486 176.724 430.486 175.858C430.486 174.993 429.784 174.291 428.919 174.291H347.411ZM223.586 110.047H430.488V109.547H223.586V110.047ZM430.488 128.85H223.586V128.35H430.488V128.85ZM223.586 147.654H430.488V147.154H223.586V147.654ZM430.488 166.457H223.586V165.957H430.488V166.457ZM223.586 185.26H430.488V184.76H223.586V185.26Z" fill="#E6E6E6"/>
<g filter="url(#filter1_d_1361_1270)">
<path d="M10 192.792C10 190.01 12.2556 187.754 15.0381 187.754H212.962C215.744 187.754 218 190.01 218 192.792V267.644C218 270.426 215.744 272.682 212.962 272.682H15.0381C12.2556 272.682 10 270.426 10 267.644V192.792Z" fill="white"/>
</g>
<path d="M29.3658 209.432C30.7092 209.432 31.6875 208.662 31.6845 207.601C31.6875 206.816 31.1968 206.251 30.3166 206.126V206.077C30.9975 205.929 31.4544 205.423 31.4514 204.718C31.4544 203.761 30.6386 202.979 29.3842 202.979C28.1636 202.979 27.2189 203.706 27.1944 204.758H28.2893C28.3077 204.23 28.7984 203.902 29.3781 203.902C29.9639 203.902 30.3534 204.258 30.3503 204.785C30.3534 205.334 29.8995 205.699 29.2493 205.699H28.6941V206.577H29.2493C30.0436 206.577 30.5159 206.975 30.5129 207.543C30.5159 208.098 30.0344 208.478 29.3628 208.478C28.7309 208.478 28.2433 208.15 28.2157 207.638H27.0625C27.0932 208.699 28.0409 209.432 29.3658 209.432Z" fill="#3C3A3E"/>
<path d="M32.7495 209.346H35.0313C36.1355 209.346 36.7673 208.846 36.7673 208.067C36.7673 207.408 36.2551 206.948 35.5159 206.883C36.1447 206.767 36.5372 206.432 36.5372 205.902C36.5372 205.108 35.841 204.635 34.7277 204.635H32.7495V209.346ZM33.7892 208.472V207.303H35.0313C35.4392 207.303 35.6877 207.54 35.6877 207.929C35.6877 208.267 35.4392 208.472 35.0313 208.472H33.7892ZM33.7892 206.586V205.525H34.7277C35.1908 205.525 35.473 205.721 35.473 206.043C35.473 206.38 35.2 206.586 34.7492 206.586H33.7892Z" fill="#3C3A3E"/>
<path d="M39.7384 209.438C41.1186 209.438 41.9957 208.466 41.9957 207.009C41.9957 205.549 41.1186 204.574 39.7384 204.574C38.3583 204.574 37.4811 205.549 37.4811 207.009C37.4811 208.466 38.3583 209.438 39.7384 209.438ZM39.7446 208.549C38.9809 208.549 38.6067 207.868 38.6067 207.006C38.6067 206.144 38.9809 205.454 39.7446 205.454C40.496 205.454 40.8701 206.144 40.8701 207.006C40.8701 207.868 40.496 208.549 39.7446 208.549Z" fill="#3C3A3E"/>
<path d="M44.0085 204.635H42.9381V209.346H44.0085V207.441H45.8333V209.346H46.9006V204.635H45.8333V206.531H44.0085V204.635Z" fill="#3C3A3E"/>
<path d="M48.0239 209.346H49.1342V207.57H49.677L50.9682 209.346H52.3116L50.5481 206.948L52.2932 204.635H50.956L49.539 206.537H49.1342V204.635H48.0239V209.346Z" fill="#3C3A3E"/>
<path d="M54.0115 207.843V204.635H52.9411V209.346H54.0851L55.9652 206.135V209.346H57.0386V204.635H55.8977L54.0115 207.843Z" fill="#3C3A3E"/>
<path d="M60.3211 209.346H61.3823V205.546H63.2286V209.346H64.299V204.635H60.3211V209.346Z" fill="#3C3A3E"/>
<path d="M67.4956 209.438C68.8757 209.438 69.7529 208.466 69.7529 207.009C69.7529 205.549 68.8757 204.574 67.4956 204.574C66.1154 204.574 65.2382 205.549 65.2382 207.009C65.2382 208.466 66.1154 209.438 67.4956 209.438ZM67.5017 208.549C66.738 208.549 66.3638 207.868 66.3638 207.006C66.3638 206.144 66.738 205.454 67.5017 205.454C68.2531 205.454 68.6273 206.144 68.6273 207.006C68.6273 207.868 68.2531 208.549 67.5017 208.549Z" fill="#3C3A3E"/>
<path d="M72.4204 210.714H73.5122V209.346H76.5946V210.714H77.668V208.432H76.9381V204.635H73.5337L73.3988 206.285C73.3098 207.34 73.1933 208.122 72.7946 208.432H72.4204V210.714ZM73.9355 208.432C74.233 207.994 74.3434 207.282 74.4231 206.285L74.4968 205.531H75.8769V208.432H73.9355Z" fill="#3C3A3E"/>
<path d="M79.5673 204.635H78.4969V209.346H79.5673V207.441H81.3921V209.346H82.4595V204.635H81.3921V206.531H79.5673V204.635Z" fill="#3C3A3E"/>
<path d="M86.3676 209.346H87.4073V204.635H85.3616C84.2084 204.635 83.4938 205.227 83.4969 206.132C83.4938 206.727 83.8189 207.178 84.3802 207.408L83.3251 209.346H84.417L85.3831 207.573H86.3676V209.346ZM86.3676 206.764H85.3248C84.8372 206.764 84.5673 206.509 84.5703 206.156C84.5673 205.804 84.8525 205.537 85.3616 205.537H86.3676V206.764Z" fill="#3C3A3E"/>
<path d="M91.2365 208.055L89.8747 204.635H88.5252V209.346H89.5956V206.172L90.85 209.346H91.626L92.9233 206.138V209.346H93.9845V204.635H92.635L91.2365 208.055Z" fill="#3C3A3E"/>
<path d="M98.3166 204.635H97.2462V209.346H98.3166V207.441H100.141V209.346H101.209V204.635H100.141V206.531H98.3166V204.635Z" fill="#3C3A3E"/>
<path d="M104.418 209.438C105.516 209.438 106.27 208.901 106.466 208.082L105.43 207.966C105.279 208.365 104.911 208.573 104.433 208.573C103.715 208.573 103.24 208.101 103.231 207.294H106.512V206.954C106.512 205.301 105.519 204.574 104.359 204.574C103.01 204.574 102.13 205.564 102.13 207.018C102.13 208.497 102.998 209.438 104.418 209.438ZM103.234 206.546C103.268 205.945 103.712 205.439 104.375 205.439C105.013 205.439 105.442 205.905 105.448 206.546H103.234Z" fill="#3C3A3E"/>
<path d="M107.035 210.714H108.126V209.346H111.209V210.714H112.282V208.432H111.552V204.635H108.148L108.013 206.285C107.924 207.34 107.807 208.122 107.409 208.432H107.035V210.714ZM108.55 208.432C108.847 207.994 108.958 207.282 109.037 206.285L109.111 205.531H110.491V208.432H108.55Z" fill="#3C3A3E"/>
<path d="M115.197 209.438C116.295 209.438 117.049 208.901 117.245 208.082L116.209 207.966C116.058 208.365 115.69 208.573 115.212 208.573C114.494 208.573 114.019 208.101 114.01 207.294H117.291V206.954C117.291 205.301 116.298 204.574 115.138 204.574C113.789 204.574 112.909 205.564 112.909 207.018C112.909 208.497 113.777 209.438 115.197 209.438ZM114.013 206.546C114.047 205.945 114.491 205.439 115.154 205.439C115.792 205.439 116.221 205.905 116.227 206.546H114.013Z" fill="#3C3A3E"/>
<path d="M117.906 209.346H118.249C119.261 209.346 119.718 208.635 119.792 207.064L119.865 205.546H121.218V209.346H122.291V204.635H118.856L118.774 206.721C118.721 208.043 118.55 208.432 118.062 208.432H117.899L117.906 209.346Z" fill="#3C3A3E"/>
<path d="M124.48 207.843V204.635H123.409V209.346H124.553L126.433 206.135V209.346H127.507V204.635H126.366L124.48 207.843Z" fill="#3C3A3E"/>
<path d="M30.8634 253.576H27.1094V258.287H27.9559V254.285H30.0169V258.287H30.8634V253.576Z" fill="#838383"/>
<path d="M33.3885 258.356C34.4236 258.356 35.0815 257.627 35.0815 256.534C35.0815 255.439 34.4236 254.708 33.3885 254.708C32.3534 254.708 31.6955 255.439 31.6955 256.534C31.6955 257.627 32.3534 258.356 33.3885 258.356ZM33.3931 257.689C32.8203 257.689 32.5397 257.178 32.5397 256.532C32.5397 255.886 32.8203 255.368 33.3931 255.368C33.9566 255.368 34.2373 255.886 34.2373 256.532C34.2373 257.178 33.9566 257.689 33.3931 257.689Z" fill="#838383"/>
<path d="M37.3294 258.356C38.2173 258.356 38.7832 257.829 38.843 257.079H38.0471C37.9758 257.459 37.702 257.677 37.3363 257.677C36.8164 257.677 36.4806 257.243 36.4806 256.52C36.4806 255.807 36.8233 255.379 37.3363 255.379C37.7365 255.379 37.9827 255.637 38.0471 255.978H38.843C38.7855 255.212 38.1874 254.708 37.3248 254.708C36.2897 254.708 35.6364 255.455 35.6364 256.534C35.6364 257.604 36.2736 258.356 37.3294 258.356Z" fill="#838383"/>
<path d="M39.2766 255.437H40.4198V258.287H41.2249V255.437H42.3681V254.754H39.2766V255.437Z" fill="#838383"/>
<path d="M45.8628 253.447C45.6925 253.576 45.4234 253.574 45.0577 253.574C44.9542 253.574 44.846 253.574 44.7287 253.576C43.5119 253.592 42.8862 254.402 42.8862 256.063V256.38C42.8862 257.673 43.5395 258.356 44.5677 258.356C45.5959 258.356 46.2446 257.671 46.2446 256.58C46.2446 255.522 45.6281 254.913 44.7517 254.913C44.2135 254.913 43.8063 255.145 43.5855 255.577H43.5464C43.6292 254.696 43.9604 254.298 44.7517 254.28C45.4533 254.264 45.8466 254.252 46.1526 253.986L45.8628 253.447ZM44.5723 257.689C44.0502 257.689 43.7304 257.27 43.7304 256.603C43.7373 255.945 44.0525 255.568 44.5677 255.568C45.083 255.568 45.4004 255.945 45.4004 256.603C45.4004 257.273 45.0853 257.689 44.5723 257.689Z" fill="#838383"/>
<path d="M48.5172 258.356C49.3407 258.356 49.9066 257.953 50.0538 257.339L49.2763 257.252C49.1636 257.551 48.8876 257.707 48.5287 257.707C47.9905 257.707 47.6339 257.353 47.627 256.748H50.0883V256.493C50.0883 255.253 49.343 254.708 48.4735 254.708C47.4614 254.708 46.8013 255.451 46.8013 256.541C46.8013 257.65 47.4522 258.356 48.5172 258.356ZM47.6293 256.187C47.6546 255.736 47.9882 255.356 48.485 255.356C48.9635 255.356 49.2855 255.706 49.2901 256.187H47.6293Z" fill="#838383"/>
<path d="M50.7928 258.287H51.6255V256.955H52.0326L53.001 258.287H54.0085L52.6859 256.488L53.9947 254.754H52.9918L51.9291 256.18H51.6255V254.754H50.7928V258.287Z" fill="#838383"/>
<path d="M55.2834 257.16V254.754H54.4806V258.287H55.3386L56.7487 255.879V258.287H57.5538V254.754H56.6981L55.2834 257.16Z" fill="#838383"/>
<path d="M26.8125 240.617H28.2686V244.612H29.1151V240.617H30.5711V239.902H26.8125V240.617Z" fill="#838383"/>
<path d="M32.2877 244.681C33.3228 244.681 33.9807 243.952 33.9807 242.86C33.9807 241.765 33.3228 241.033 32.2877 241.033C31.2526 241.033 30.5947 241.765 30.5947 242.86C30.5947 243.952 31.2526 244.681 32.2877 244.681ZM32.2923 244.014C31.7195 244.014 31.4389 243.504 31.4389 242.857C31.4389 242.211 31.7195 241.693 32.2923 241.693C32.8558 241.693 33.1365 242.211 33.1365 242.857C33.1365 243.504 32.8558 244.014 32.2923 244.014Z" fill="#838383"/>
<path d="M35.4902 241.079H34.6874V244.612H35.4902V243.184H36.8588V244.612H37.6593V241.079H36.8588V242.501H35.4902V241.079Z" fill="#838383"/>
<path d="M38.5018 244.612H39.3345V243.281H39.7416L40.71 244.612H41.7176L40.3949 242.814L41.7038 241.079H40.7008L39.6381 242.505H39.3345V241.079H38.5018V244.612Z" fill="#838383"/>
<path d="M42.9925 243.485V241.079H42.1897V244.612H43.0477L44.4577 242.204V244.612H45.2628V241.079H44.4071L42.9925 243.485Z" fill="#838383"/>
<path d="M47.6821 244.681C48.5056 244.681 49.0715 244.279 49.2187 243.665L48.4412 243.577C48.3285 243.876 48.0524 244.033 47.6936 244.033C47.1553 244.033 46.7988 243.679 46.7919 243.074H49.2532V242.818C49.2532 241.578 48.5079 241.033 47.6384 241.033C46.6263 241.033 45.9661 241.776 45.9661 242.867C45.9661 243.975 46.6171 244.681 47.6821 244.681ZM46.7942 242.512C46.8195 242.061 47.153 241.682 47.6499 241.682C48.1284 241.682 48.4504 242.032 48.455 242.512H46.7942Z" fill="#838383"/>
<path d="M52.3671 241.079H51.5644V244.612H52.3671V243.184H53.7358V244.612H54.5363V241.079H53.7358V242.501H52.3671V241.079Z" fill="#838383"/>
<path d="M56.3955 244.684C56.9498 244.684 57.2811 244.424 57.4329 244.127H57.4605V244.612H58.261V242.248C58.261 241.314 57.4996 241.033 56.8256 241.033C56.0826 241.033 55.5122 241.365 55.3281 242.009L56.1056 242.119C56.1884 241.877 56.4231 241.67 56.8302 241.67C57.2167 241.67 57.4283 241.868 57.4283 242.216V242.229C57.4283 242.469 57.1775 242.48 56.5542 242.547C55.8687 242.62 55.2131 242.825 55.2131 243.621C55.2131 244.316 55.7215 244.684 56.3955 244.684ZM56.6117 244.072C56.2643 244.072 56.0159 243.913 56.0159 243.607C56.0159 243.288 56.2943 243.154 56.6669 243.101C56.8854 243.071 57.3225 243.016 57.4306 242.929V243.345C57.4306 243.738 57.1131 244.072 56.6117 244.072Z" fill="#838383"/>
<path d="M60.6394 244.681C61.5273 244.681 62.0932 244.155 62.153 243.405H61.3571C61.2858 243.784 61.0121 244.003 60.6463 244.003C60.1265 244.003 59.7906 243.568 59.7906 242.846C59.7906 242.133 60.1334 241.705 60.6463 241.705C61.0466 241.705 61.2927 241.963 61.3571 242.303H62.153C62.0955 241.537 61.4974 241.033 60.6348 241.033C59.5997 241.033 58.9464 241.781 58.9464 242.86C58.9464 243.929 59.5836 244.681 60.6394 244.681Z" fill="#838383"/>
<path d="M62.5866 241.762H63.7298V244.612H64.5349V241.762H65.6781V241.079H62.5866V241.762Z" fill="#838383"/>
<path d="M66.3412 245.937H67.1739V244.056H67.2084C67.3395 244.313 67.6132 244.675 68.2205 244.675C69.0532 244.675 69.6765 244.014 69.6765 242.85C69.6765 241.673 69.0348 241.033 68.2182 241.033C67.5948 241.033 67.3349 241.408 67.2084 241.664H67.1601V241.079H66.3412V245.937ZM67.1578 242.846C67.1578 242.16 67.4522 241.716 67.9882 241.716C68.5425 241.716 68.8277 242.188 68.8277 242.846C68.8277 243.508 68.5379 243.991 67.9882 243.991C67.4568 243.991 67.1578 243.531 67.1578 242.846Z" fill="#838383"/>
<path d="M71.9308 244.681C72.9659 244.681 73.6238 243.952 73.6238 242.86C73.6238 241.765 72.9659 241.033 71.9308 241.033C70.8957 241.033 70.2378 241.765 70.2378 242.86C70.2378 243.952 70.8957 244.681 71.9308 244.681ZM71.9354 244.014C71.3626 244.014 71.082 243.504 71.082 242.857C71.082 242.211 71.3626 241.693 71.9354 241.693C72.4989 241.693 72.7796 242.211 72.7796 242.857C72.7796 243.504 72.4989 244.014 71.9354 244.014Z" fill="#838383"/>
<path d="M75.1333 243.485V241.079H74.3305V244.612H75.1885L76.5986 242.204V244.612H77.4037V241.079H76.548L75.1333 243.485ZM76.3202 239.865C76.3179 240.09 76.1891 240.29 75.8648 240.29C75.5359 240.29 75.4116 240.086 75.4116 239.865H74.7929C74.7906 240.403 75.2069 240.766 75.8648 240.766C76.5273 240.766 76.9436 240.403 76.9436 239.865H76.3202Z" fill="#838383"/>
<path d="M78.2588 244.612H79.0915V243.281H79.4986L80.467 244.612H81.4745L80.1519 242.814L81.4607 241.079H80.4578L79.3951 242.505H79.0915V241.079H78.2588V244.612Z" fill="#838383"/>
<path d="M82.7494 243.485V241.079H81.9467V244.612H82.8046L84.2147 242.204V244.612H85.0198V241.079H84.1641L82.7494 243.485Z" fill="#838383"/>
<path fill-rule="evenodd" clip-rule="evenodd" d="M94.9277 241.014C94.1327 241.014 93.4883 241.659 93.4883 242.454C93.4883 243.249 94.1327 243.893 94.9277 243.893H165.461C166.256 243.893 166.9 243.249 166.9 242.454C166.9 241.659 166.256 241.014 165.461 241.014H94.9277ZM66.1406 256.128C66.1406 255.333 66.7851 254.689 67.5801 254.689H131.635C132.43 254.689 133.075 255.333 133.075 256.128C133.075 256.923 132.43 257.568 131.635 257.568H67.5801C66.7851 257.568 66.1406 256.923 66.1406 256.128ZM140.992 256.128C140.992 255.333 141.637 254.689 142.432 254.689H200.009C200.804 254.689 201.449 255.333 201.449 256.128C201.449 256.923 200.804 257.568 200.009 257.568H142.432C141.637 257.568 140.992 256.923 140.992 256.128Z" fill="#E6E6E6"/>
<path d="M34.1797 227.339H34.9756V224.489H36.3603V227.339H37.1631V223.806H34.1797V227.339Z" fill="#838383"/>
<path d="M38.8222 223.806H38.0194V227.339H38.8222V225.91H40.1908V227.339H40.9913V223.806H40.1908V225.227H38.8222V223.806Z" fill="#838383"/>
<path d="M57.2109 227.339H58.9223C59.7504 227.339 60.2243 226.964 60.2243 226.38C60.2243 225.885 59.8401 225.54 59.2858 225.492C59.7573 225.404 60.0517 225.154 60.0517 224.756C60.0517 224.16 59.5296 223.806 58.6946 223.806H57.2109V227.339ZM57.9907 226.683V225.807H58.9223C59.2283 225.807 59.4146 225.984 59.4146 226.276C59.4146 226.529 59.2283 226.683 58.9223 226.683H57.9907ZM57.9907 225.269V224.473H58.6946C59.0419 224.473 59.2536 224.62 59.2536 224.861C59.2536 225.115 59.0488 225.269 58.7107 225.269H57.9907Z" fill="#838383"/>
<path d="M60.7182 224.489H61.8615V227.339H62.6666V224.489H63.8098V223.806H60.7182V224.489Z" fill="#838383"/>
<path d="M81.7828 227.408C82.6707 227.408 83.2366 226.881 83.2964 226.131H82.5005C82.4292 226.511 82.1555 226.729 81.7897 226.729C81.2699 226.729 80.934 226.295 80.934 225.572C80.934 224.859 81.2768 224.431 81.7897 224.431C82.19 224.431 82.4361 224.689 82.5005 225.03H83.2964C83.2389 224.264 82.6408 223.76 81.7782 223.76C80.7431 223.76 80.0898 224.507 80.0898 225.586C80.0898 226.656 80.727 227.408 81.7828 227.408Z" fill="#838383"/>
<path d="M83.9801 228.664H84.8128V226.782H84.8473C84.9785 227.04 85.2522 227.401 85.8595 227.401C86.6921 227.401 87.3155 226.741 87.3155 225.577C87.3155 224.399 86.6737 223.76 85.8572 223.76C85.2338 223.76 84.9739 224.135 84.8473 224.39H84.799V223.806H83.9801V228.664ZM84.7967 225.572C84.7967 224.887 85.0912 224.443 85.6271 224.443C86.1815 224.443 86.4667 224.914 86.4667 225.572C86.4667 226.235 86.1769 226.718 85.6271 226.718C85.0958 226.718 84.7967 226.258 84.7967 225.572Z" fill="#838383"/>
<path d="M106.225 223.806H105.424V225.531C105.222 225.582 105.022 225.609 104.803 225.609C104.311 225.609 104.069 225.434 104.069 224.979V223.801H103.273V224.979C103.273 225.881 103.86 226.292 104.803 226.292C105.01 226.292 105.226 226.265 105.424 226.219V227.339H106.225V223.806Z" fill="#838383"/>
<path d="M106.667 224.489H107.81V227.339H108.615V224.489H109.758V223.806H106.667V224.489Z" fill="#838383"/>
<path d="M125.582 227.339H126.378V224.489H127.763V227.339H128.565V223.806H125.582V227.339Z" fill="#838383"/>
<path d="M129.026 224.489H130.169V227.339H130.974V224.489H132.118V223.806H129.026V224.489Z" fill="#838383"/>
<path d="M150.154 227.408C151.042 227.408 151.608 226.881 151.667 226.131H150.872C150.8 226.511 150.527 226.729 150.161 226.729C149.641 226.729 149.305 226.294 149.305 225.572C149.305 224.859 149.648 224.431 150.161 224.431C150.561 224.431 150.807 224.689 150.872 225.029H151.667C151.61 224.263 151.012 223.76 150.149 223.76C149.114 223.76 148.461 224.507 148.461 225.586C148.461 226.656 149.098 227.408 150.154 227.408Z" fill="#838383"/>
<path d="M155.183 222.499C155.013 222.628 154.743 222.626 154.378 222.626C154.274 222.626 154.166 222.626 154.049 222.628C152.832 222.644 152.206 223.454 152.206 225.114V225.432C152.206 226.725 152.86 227.408 153.888 227.408C154.916 227.408 155.565 226.722 155.565 225.632C155.565 224.574 154.948 223.964 154.072 223.964C153.534 223.964 153.126 224.197 152.906 224.629H152.866C152.949 223.748 153.281 223.35 154.072 223.332C154.773 223.316 155.167 223.304 155.473 223.037L155.183 222.499ZM153.892 226.741C153.37 226.741 153.051 226.322 153.051 225.655C153.057 224.997 153.373 224.62 153.888 224.62C154.403 224.62 154.72 224.997 154.72 225.655C154.72 226.324 154.405 226.741 153.892 226.741Z" fill="#838383"/>
<path d="M171.645 227.339H173.356C174.184 227.339 174.658 226.964 174.658 226.38C174.658 225.885 174.274 225.54 173.719 225.492C174.191 225.404 174.485 225.154 174.485 224.756C174.485 224.16 173.963 223.806 173.128 223.806H171.645V227.339ZM172.424 226.683V225.807H173.356C173.662 225.807 173.848 225.984 173.848 226.276C173.848 226.529 173.662 226.683 173.356 226.683H172.424ZM172.424 225.269V224.473H173.128C173.476 224.473 173.687 224.62 173.687 224.862C173.687 225.115 173.482 225.269 173.144 225.269H172.424Z" fill="#838383"/>
<path d="M176.886 227.408C177.774 227.408 178.34 226.881 178.4 226.131H177.604C177.533 226.511 177.259 226.729 176.893 226.729C176.373 226.729 176.037 226.295 176.037 225.572C176.037 224.859 176.38 224.431 176.893 224.431C177.293 224.431 177.54 224.689 177.604 225.03H178.4C178.342 224.264 177.744 223.76 176.882 223.76C175.847 223.76 175.193 224.507 175.193 225.586C175.193 226.656 175.83 227.408 176.886 227.408Z" fill="#838383"/>
<circle cx="28.7139" cy="225.18" r="1.65917" stroke="#838383"/>
<circle cx="51.7451" cy="225.18" r="1.65917" stroke="#838383"/>
<circle cx="74.7764" cy="225.18" r="1.65917" stroke="#838383"/>
<circle cx="97.8076" cy="225.18" r="1.65917" stroke="#838383"/>
<circle cx="120.116" cy="225.18" r="1.65917" stroke="#838383"/>
<circle cx="143.147" cy="225.18" r="1.65917" stroke="#838383"/>
<circle cx="166.179" cy="225.18" r="1.65917" stroke="#838383"/>
<circle cx="28.7119" cy="225.18" r="0.719723" fill="#838383"/>
<circle cx="51.7432" cy="225.18" r="0.719723" fill="#838383"/>
<circle cx="74.7744" cy="225.18" r="0.719723" fill="#838383"/>
<circle cx="97.8057" cy="225.18" r="0.719723" fill="#838383"/>
<circle cx="120.118" cy="225.18" r="0.719723" fill="#838383"/>
<g filter="url(#filter2_d_1361_1270)">
<rect x="10" y="69" width="208" height="112.277" rx="7" fill="white"/>
</g>
<path d="M32.5516 84.9903H31.4045C31.3718 84.8022 31.3115 84.6356 31.2236 84.4904C31.1356 84.3432 31.0262 84.2185 30.8954 84.1162C30.7645 84.014 30.6153 83.9373 30.4476 83.8862C30.282 83.833 30.1031 83.8065 29.9109 83.8065C29.5694 83.8065 29.2668 83.8923 29.003 84.0641C28.7393 84.2338 28.5328 84.4833 28.3835 84.8124C28.2342 85.1396 28.1596 85.5393 28.1596 86.0116C28.1596 86.4921 28.2342 86.897 28.3835 87.2262C28.5348 87.5533 28.7413 87.8007 29.003 87.9684C29.2668 88.134 29.5684 88.2168 29.9078 88.2168C30.0959 88.2168 30.2718 88.1923 30.4353 88.1432C30.601 88.0921 30.7492 88.0175 30.88 87.9193C31.013 87.8212 31.1244 87.7005 31.2144 87.5574C31.3064 87.4143 31.3697 87.2507 31.4045 87.0667L32.5516 87.0728C32.5086 87.3713 32.4156 87.6515 32.2725 87.9132C32.1314 88.1749 31.9463 88.4059 31.7173 88.6063C31.4883 88.8047 31.2205 88.9601 30.9138 89.0725C30.6071 89.1829 30.2666 89.2381 29.8925 89.2381C29.3404 89.2381 28.8476 89.1103 28.4142 88.8548C27.9807 88.5992 27.6392 88.2301 27.3898 87.7476C27.1403 87.265 27.0156 86.6864 27.0156 86.0116C27.0156 85.3349 27.1414 84.7562 27.3929 84.2757C27.6444 83.7932 27.9868 83.4241 28.4203 83.1685C28.8538 82.9129 29.3445 82.7852 29.8925 82.7852C30.2421 82.7852 30.5672 82.8342 30.8678 82.9324C31.1683 83.0305 31.4362 83.1747 31.6713 83.3648C31.9065 83.5529 32.0997 83.784 32.251 84.058C32.4043 84.3299 32.5045 84.6407 32.5516 84.9903Z" fill="#3C3A3E"/>
<path d="M33.2869 85.3522V84.4413H37.4089V85.3522H35.8846V89.1523H34.8112V85.3522H33.2869Z" fill="#3C3A3E"/>
<path d="M39.4546 89.2473C39.1561 89.2473 38.8872 89.1942 38.648 89.0878C38.4108 88.9795 38.2227 88.82 38.0837 88.6094C37.9467 88.3988 37.8782 88.1391 37.8782 87.8304C37.8782 87.5646 37.9273 87.3448 38.0254 87.171C38.1235 86.9972 38.2575 86.8581 38.4272 86.7539C38.5969 86.6496 38.7881 86.5709 39.0007 86.5177C39.2154 86.4625 39.4372 86.4226 39.6662 86.3981C39.9423 86.3695 40.1662 86.3439 40.3379 86.3214C40.5097 86.2969 40.6344 86.2601 40.7121 86.211C40.7918 86.1599 40.8317 86.0812 40.8317 85.9748V85.9564C40.8317 85.7254 40.7632 85.5465 40.6262 85.4197C40.4892 85.2929 40.2919 85.2296 40.0343 85.2296C39.7623 85.2296 39.5466 85.2889 39.3871 85.4074C39.2297 85.526 39.1234 85.6661 39.0682 85.8276L38.0315 85.6804C38.1133 85.3942 38.2483 85.1549 38.4364 84.9627C38.6245 84.7685 38.8545 84.6233 39.1264 84.5272C39.3984 84.4291 39.699 84.38 40.0281 84.38C40.2551 84.38 40.481 84.4066 40.706 84.4597C40.9309 84.5129 41.1364 84.6008 41.3224 84.7235C41.5085 84.8441 41.6577 85.0087 41.7702 85.2173C41.8847 85.4258 41.942 85.6865 41.942 85.9994V89.1523H40.8746V88.5051H40.8378C40.7704 88.636 40.6753 88.7587 40.5526 88.8732C40.432 88.9856 40.2796 89.0766 40.0956 89.1461C39.9136 89.2136 39.7 89.2473 39.4546 89.2473ZM39.7429 88.4315C39.9658 88.4315 40.159 88.3875 40.3226 88.2996C40.4862 88.2097 40.6119 88.0911 40.6998 87.9439C40.7898 87.7966 40.8348 87.6361 40.8348 87.4623V86.9072C40.8 86.9358 40.7407 86.9624 40.6569 86.9869C40.5751 87.0115 40.4831 87.033 40.3809 87.0514C40.2786 87.0698 40.1774 87.0861 40.0772 87.1004C39.977 87.1147 39.8901 87.127 39.8165 87.1372C39.6509 87.1597 39.5027 87.1965 39.3718 87.2476C39.241 87.2988 39.1377 87.3703 39.062 87.4623C38.9864 87.5523 38.9486 87.6688 38.9486 87.812C38.9486 88.0164 39.0232 88.1708 39.1725 88.2751C39.3217 88.3794 39.5119 88.4315 39.7429 88.4315Z" fill="#3C3A3E"/>
<path d="M42.5308 85.3522V84.4413H46.6529V85.3522H45.1286V89.1523H44.0551V85.3522H42.5308Z" fill="#3C3A3E"/>
<path d="M48.6073 87.6494L50.4935 84.4413H51.6345V89.1523H50.561V85.9411L48.6809 89.1523H47.5369V84.4413H48.6073V87.6494Z" fill="#3C3A3E"/>
<path d="M54.8295 89.2443C54.3592 89.2443 53.9554 89.141 53.618 88.9345C53.2827 88.728 53.0241 88.4428 52.8421 88.0788C52.6622 87.7128 52.5722 87.2916 52.5722 86.8152C52.5722 86.3367 52.6642 85.9145 52.8482 85.5485C53.0322 85.1805 53.2919 84.8942 53.6272 84.6898C53.9646 84.4833 54.3633 84.38 54.8234 84.38C55.2057 84.38 55.5441 84.4505 55.8385 84.5916C56.135 84.7307 56.3712 84.928 56.547 85.1836C56.7229 85.4371 56.8231 85.7336 56.8476 86.073H55.7864C55.7435 85.846 55.6412 85.6569 55.4797 85.5056C55.3202 85.3522 55.1066 85.2756 54.8387 85.2756C54.6117 85.2756 54.4124 85.3369 54.2406 85.4596C54.0689 85.5802 53.935 85.754 53.8389 85.981C53.7448 86.2079 53.6978 86.4799 53.6978 86.7968C53.6978 87.1178 53.7448 87.3938 53.8389 87.6249C53.9329 87.8539 54.0648 88.0308 54.2345 88.1555C54.4063 88.2782 54.6077 88.3395 54.8387 88.3395C55.0023 88.3395 55.1485 88.3088 55.2773 88.2475C55.4081 88.1841 55.5175 88.0931 55.6055 87.9745C55.6934 87.8559 55.7537 87.7118 55.7864 87.5421H56.8476C56.821 87.8754 56.7229 88.1708 56.5532 88.4284C56.3834 88.684 56.1524 88.8844 55.86 89.0296C55.5676 89.1727 55.2241 89.2443 54.8295 89.2443Z" fill="#3C3A3E"/>
<path d="M57.4173 85.3522V84.4413H61.5393V85.3522H60.015V89.1523H58.9416V85.3522H57.4173Z" fill="#3C3A3E"/>
<path d="M63.4938 87.6494L65.38 84.4413H66.5209V89.1523H65.4475V85.9411L63.5674 89.1523H62.4234V84.4413H63.4938V87.6494Z" fill="#3C3A3E"/>
<path d="M67.6611 89.1523V84.4413H68.7713V86.3429H69.1762L70.5931 84.4413H71.9303L70.1852 86.7539L71.9487 89.1523H70.6054L69.3142 87.3765H68.7713V89.1523H67.6611Z" fill="#3C3A3E"/>
<path d="M73.9339 89.2473C73.6353 89.2473 73.3665 89.1942 73.1272 89.0878C72.8901 88.9795 72.7019 88.82 72.5629 88.6094C72.4259 88.3988 72.3574 88.1391 72.3574 87.8304C72.3574 87.5646 72.4065 87.3448 72.5046 87.171C72.6028 86.9972 72.7367 86.8581 72.9064 86.7539C73.0761 86.6496 73.2673 86.5709 73.4799 86.5177C73.6946 86.4625 73.9165 86.4226 74.1455 86.3981C74.4215 86.3695 74.6454 86.3439 74.8172 86.3214C74.9889 86.2969 75.1136 86.2601 75.1913 86.211C75.2711 86.1599 75.3109 86.0812 75.3109 85.9748V85.9564C75.3109 85.7254 75.2424 85.5465 75.1054 85.4197C74.9685 85.2929 74.7711 85.2296 74.5135 85.2296C74.2416 85.2296 74.0259 85.2889 73.8664 85.4074C73.7089 85.526 73.6026 85.6661 73.5474 85.8276L72.5108 85.6804C72.5926 85.3942 72.7275 85.1549 72.9156 84.9627C73.1037 84.7685 73.3337 84.6233 73.6057 84.5272C73.8776 84.4291 74.1782 84.38 74.5074 84.38C74.7343 84.38 74.9603 84.4066 75.1852 84.4597C75.4101 84.5129 75.6156 84.6008 75.8017 84.7235C75.9877 84.8441 76.137 85.0087 76.2494 85.2173C76.3639 85.4258 76.4212 85.6865 76.4212 85.9994V89.1523H75.3539V88.5051H75.3171C75.2496 88.636 75.1545 88.7587 75.0318 88.8732C74.9112 88.9856 74.7589 89.0766 74.5749 89.1461C74.3929 89.2136 74.1792 89.2473 73.9339 89.2473ZM74.2222 88.4315C74.445 88.4315 74.6382 88.3875 74.8018 88.2996C74.9654 88.2097 75.0911 88.0911 75.1791 87.9439C75.269 87.7966 75.314 87.6361 75.314 87.4623V86.9072C75.2792 86.9358 75.22 86.9624 75.1361 86.9869C75.0543 87.0115 74.9623 87.033 74.8601 87.0514C74.7579 87.0698 74.6566 87.0861 74.5565 87.1004C74.4563 87.1147 74.3694 87.127 74.2958 87.1372C74.1301 87.1597 73.9819 87.1965 73.851 87.2476C73.7202 87.2988 73.6169 87.3703 73.5413 87.4623C73.4656 87.5523 73.4278 87.6688 73.4278 87.812C73.4278 88.0164 73.5024 88.1708 73.6517 88.2751C73.801 88.3794 73.9911 88.4315 74.2222 88.4315Z" fill="#3C3A3E"/>
<path fill-rule="evenodd" clip-rule="evenodd" d="M116.52 114.342C116.52 113.547 117.164 112.903 117.959 112.903H169.779C170.574 112.903 171.218 113.547 171.218 114.342C171.218 115.137 170.574 115.782 169.779 115.782H117.959C117.164 115.782 116.52 115.137 116.52 114.342ZM116.52 135.934C116.52 135.139 117.164 134.495 117.959 134.495H194.25C195.045 134.495 195.689 135.139 195.689 135.934C195.689 136.729 195.045 137.374 194.25 137.374H117.959C117.164 137.374 116.52 136.729 116.52 135.934ZM117.959 156.086C117.164 156.086 116.52 156.731 116.52 157.526C116.52 158.321 117.164 158.965 117.959 158.965H158.263C159.058 158.965 159.703 158.321 159.703 157.526C159.703 156.731 159.058 156.086 158.263 156.086H117.959Z" fill="#E6E6E6"/>
<path d="M120.349 102.958H117.012V107.145H117.764V103.588H119.596V107.145H120.349V102.958Z" fill="#838383"/>
<path d="M122.593 107.207C123.513 107.207 124.098 106.559 124.098 105.587C124.098 104.614 123.513 103.964 122.593 103.964C121.673 103.964 121.088 104.614 121.088 105.587C121.088 106.559 121.673 107.207 122.593 107.207ZM122.597 106.614C122.088 106.614 121.839 106.16 121.839 105.585C121.839 105.011 122.088 104.551 122.597 104.551C123.098 104.551 123.348 105.011 123.348 105.585C123.348 106.16 123.098 106.614 122.597 106.614Z" fill="#838383"/>
<path d="M124.386 104.612H125.402V107.145H126.118V104.612H127.134V104.005H124.386V104.612Z" fill="#838383"/>
<path d="M127.723 108.323H128.463V106.651H128.494C128.611 106.88 128.854 107.201 129.394 107.201C130.134 107.201 130.688 106.614 130.688 105.579C130.688 104.532 130.118 103.964 129.392 103.964C128.838 103.964 128.607 104.297 128.494 104.524H128.451V104.005H127.723V108.323ZM128.449 105.575C128.449 104.966 128.711 104.571 129.187 104.571C129.68 104.571 129.934 104.99 129.934 105.575C129.934 106.164 129.676 106.593 129.187 106.593C128.715 106.593 128.449 106.184 128.449 105.575Z" fill="#838383"/>
<path d="M132.226 107.209C132.718 107.209 133.013 106.978 133.148 106.714H133.172V107.145H133.884V105.044C133.884 104.213 133.207 103.964 132.608 103.964C131.948 103.964 131.44 104.258 131.277 104.831L131.968 104.929C132.042 104.714 132.25 104.53 132.612 104.53C132.956 104.53 133.144 104.706 133.144 105.015V105.027C133.144 105.24 132.921 105.25 132.367 105.309C131.757 105.375 131.175 105.557 131.175 106.264C131.175 106.882 131.626 107.209 132.226 107.209ZM132.418 106.665C132.109 106.665 131.888 106.524 131.888 106.252C131.888 105.968 132.136 105.849 132.467 105.802C132.661 105.776 133.05 105.726 133.146 105.649V106.019C133.146 106.369 132.864 106.665 132.418 106.665Z" fill="#838383"/>
<path d="M137.251 104.005H136.54V105.538C136.36 105.583 136.182 105.608 135.988 105.608C135.55 105.608 135.336 105.453 135.336 105.048V104.001H134.628V105.048C134.628 105.849 135.149 106.215 135.988 106.215C136.172 106.215 136.364 106.191 136.54 106.15V107.145H137.251V104.005Z" fill="#838383"/>
<path d="M139.387 107.207C140.119 107.207 140.622 106.849 140.752 106.303L140.061 106.225C139.961 106.491 139.716 106.63 139.397 106.63C138.918 106.63 138.601 106.315 138.595 105.778H140.783V105.551C140.783 104.449 140.121 103.964 139.348 103.964C138.448 103.964 137.861 104.624 137.861 105.594C137.861 106.579 138.44 107.207 139.387 107.207ZM138.597 105.279C138.62 104.878 138.916 104.541 139.358 104.541C139.783 104.541 140.069 104.851 140.074 105.279H138.597Z" fill="#838383"/>
<path d="M142.123 104.005H141.409V107.145H142.123V105.876H143.339V107.145H144.051V104.005H143.339V105.268H142.123V104.005Z" fill="#838383"/>
<path d="M146.17 107.207C147.09 107.207 147.675 106.559 147.675 105.587C147.675 104.614 147.09 103.964 146.17 103.964C145.25 103.964 144.665 104.614 144.665 105.587C144.665 106.559 145.25 107.207 146.17 107.207ZM146.174 106.614C145.665 106.614 145.415 106.16 145.415 105.585C145.415 105.011 145.665 104.551 146.174 104.551C146.675 104.551 146.924 105.011 146.924 105.585C146.924 106.16 146.675 106.614 146.174 106.614Z" fill="#838383"/>
<path d="M150.445 104.005H149.731V107.145H150.445V105.876H151.661V107.145H152.373V104.005H151.661V105.268H150.445V104.005Z" fill="#838383"/>
<path d="M154.025 107.209C154.518 107.209 154.813 106.978 154.947 106.714H154.972V107.145H155.684V105.044C155.684 104.213 155.007 103.964 154.408 103.964C153.747 103.964 153.24 104.258 153.077 104.831L153.768 104.929C153.841 104.714 154.05 104.53 154.412 104.53C154.755 104.53 154.943 104.706 154.943 105.015V105.027C154.943 105.24 154.721 105.25 154.166 105.309C153.557 105.375 152.974 105.557 152.974 106.264C152.974 106.882 153.426 107.209 154.025 107.209ZM154.218 106.665C153.909 106.665 153.688 106.524 153.688 106.252C153.688 105.968 153.935 105.849 154.267 105.802C154.461 105.776 154.849 105.726 154.945 105.649V106.019C154.945 106.369 154.663 106.665 154.218 106.665Z" fill="#838383"/>
<path d="M157.856 107.145H158.596V105.962H158.958L159.819 107.145H160.714L159.539 105.547L160.702 104.005H159.811L158.866 105.273H158.596V104.005H157.856V107.145Z" fill="#838383"/>
<path d="M162.038 107.209C162.531 107.209 162.825 106.978 162.96 106.714H162.985V107.145H163.696V105.044C163.696 104.213 163.019 103.964 162.42 103.964C161.76 103.964 161.253 104.258 161.089 104.831L161.78 104.929C161.854 104.714 162.062 104.53 162.424 104.53C162.768 104.53 162.956 104.706 162.956 105.015V105.027C162.956 105.24 162.733 105.25 162.179 105.309C161.57 105.375 160.987 105.557 160.987 106.264C160.987 106.882 161.439 107.209 162.038 107.209ZM162.23 106.665C161.921 106.665 161.7 106.524 161.7 106.252C161.7 105.968 161.948 105.849 162.279 105.802C162.473 105.776 162.862 105.726 162.958 105.649V106.019C162.958 106.369 162.676 106.665 162.23 106.665Z" fill="#838383"/>
<path d="M166.248 106.285L165.34 104.005H164.44V107.145H165.154V105.029L165.99 107.145H166.508L167.372 105.007V107.145H168.08V104.005H167.18L166.248 106.285Z" fill="#838383"/>
<path d="M168.826 107.145H169.534V104.612H170.765V107.145H171.478V104.005H168.826V107.145Z" fill="#838383"/>
<path d="M173.143 107.209C173.636 107.209 173.93 106.978 174.065 106.714H174.09V107.145H174.801V105.044C174.801 104.213 174.124 103.964 173.525 103.964C172.865 103.964 172.358 104.258 172.194 104.831L172.885 104.929C172.959 104.714 173.168 104.53 173.529 104.53C173.873 104.53 174.061 104.706 174.061 105.015V105.027C174.061 105.24 173.838 105.25 173.284 105.309C172.675 105.375 172.092 105.557 172.092 106.264C172.092 106.882 172.544 107.209 173.143 107.209ZM173.335 106.665C173.026 106.665 172.806 106.524 172.806 106.252C172.806 105.968 173.053 105.849 173.384 105.802C173.578 105.776 173.967 105.726 174.063 105.649V106.019C174.063 106.369 173.781 106.665 173.335 106.665Z" fill="#838383"/>
<path d="M176.259 104.005H175.545V107.145H176.259V105.876H177.476V107.145H178.187V104.005H177.476V105.268H176.259V104.005Z" fill="#838383"/>
<path d="M179.65 106.144V104.005H178.936V107.145H179.699L180.952 105.005V107.145H181.668V104.005H180.907L179.65 106.144Z" fill="#838383"/>
<path d="M182.982 104.005H182.24V107.145H182.982V105.9H183.575C183.689 106.685 184.231 107.207 185.035 107.207C185.941 107.207 186.515 106.542 186.517 105.581C186.515 104.62 185.941 103.964 185.035 103.964C184.221 103.964 183.675 104.492 183.571 105.291H182.982V104.005ZM185.035 106.593C184.495 106.593 184.264 106.152 184.264 105.581C184.264 105.011 184.495 104.571 185.035 104.571C185.573 104.571 185.802 105.015 185.802 105.581C185.802 106.15 185.573 106.593 185.035 106.593Z" fill="#838383"/>
<path d="M116.66 128.737H116.865C117.844 128.737 118.116 128.076 118.175 126.7L118.241 125.173H119.535V128.737H120.277V124.549H117.533L117.464 126.465C117.419 127.653 117.259 128.074 116.779 128.101L116.66 128.107V128.737Z" fill="#838383"/>
<path d="M121.785 127.735V125.596H121.072V128.737H121.834L123.088 126.596V128.737H123.803V125.596H123.043L121.785 127.735Z" fill="#838383"/>
<path d="M126.371 127.876L125.463 125.596H124.563V128.737H125.277V126.621L126.113 128.737H126.63L127.495 126.598V128.737H128.203V125.596H127.303L126.371 127.876Z" fill="#838383"/>
<path d="M129.663 127.735V125.596H128.949V128.737H129.712L130.965 126.596V128.737H131.681V125.596H130.92L129.663 127.735Z" fill="#838383"/>
<path d="M132.089 126.203H133.105V128.737H133.821V126.203H134.837V125.596H132.089V126.203Z" fill="#838383"/>
<path d="M120.349 146.141H117.012V150.329H117.764V146.771H119.596V150.329H120.349V146.141Z" fill="#838383"/>
<path d="M121.223 151.506H121.963V149.834H121.994C122.111 150.063 122.354 150.384 122.894 150.384C123.634 150.384 124.188 149.797 124.188 148.762C124.188 147.716 123.618 147.147 122.892 147.147C122.338 147.147 122.107 147.48 121.994 147.707H121.951V147.188H121.223V151.506ZM121.949 148.758C121.949 148.149 122.211 147.754 122.687 147.754C123.18 147.754 123.434 148.174 123.434 148.758C123.434 149.347 123.176 149.777 122.687 149.777C122.215 149.777 121.949 149.368 121.949 148.758Z" fill="#838383"/>
<path d="M126.212 150.39C126.944 150.39 127.447 150.032 127.578 149.486L126.887 149.408C126.787 149.674 126.541 149.813 126.222 149.813C125.744 149.813 125.427 149.498 125.421 148.961H127.609V148.734C127.609 147.632 126.946 147.147 126.173 147.147C125.274 147.147 124.687 147.808 124.687 148.777C124.687 149.762 125.266 150.39 126.212 150.39ZM125.423 148.462C125.445 148.061 125.742 147.724 126.184 147.724C126.609 147.724 126.895 148.034 126.899 148.462H125.423Z" fill="#838383"/>
<path d="M127.957 151.241H128.685V150.329H130.74V151.241H131.455V149.719H130.969V147.188H128.699L128.609 148.288C128.55 148.991 128.472 149.513 128.206 149.719H127.957V151.241ZM128.967 149.719C129.165 149.427 129.239 148.953 129.292 148.288L129.341 147.785H130.261V149.719H128.967Z" fill="#838383"/>
<path d="M133.378 150.39C134.167 150.39 134.67 149.922 134.723 149.255H134.016C133.952 149.593 133.709 149.787 133.384 149.787C132.922 149.787 132.623 149.4 132.623 148.758C132.623 148.124 132.928 147.744 133.384 147.744C133.74 147.744 133.958 147.973 134.016 148.276H134.723C134.672 147.595 134.14 147.147 133.374 147.147C132.454 147.147 131.873 147.812 131.873 148.771C131.873 149.721 132.439 150.39 133.378 150.39Z" fill="#838383"/>
<path d="M135.331 150.329H136.071V149.145H136.433L137.294 150.329H138.189L137.014 148.73L138.177 147.188H137.286L136.341 148.456H136.071V147.188H135.331V150.329Z" fill="#838383"/>
<path d="M139.513 150.392C140.006 150.392 140.3 150.161 140.435 149.897H140.459V150.329H141.171V148.227C141.171 147.397 140.494 147.147 139.895 147.147C139.235 147.147 138.728 147.442 138.564 148.014L139.255 148.112C139.329 147.897 139.537 147.713 139.899 147.713C140.243 147.713 140.431 147.889 140.431 148.198V148.21C140.431 148.423 140.208 148.433 139.654 148.492C139.045 148.558 138.462 148.74 138.462 149.447C138.462 150.065 138.914 150.392 139.513 150.392ZM139.705 149.848C139.396 149.848 139.175 149.707 139.175 149.435C139.175 149.151 139.423 149.032 139.754 148.985C139.948 148.959 140.337 148.91 140.433 148.832V149.202C140.433 149.552 140.151 149.848 139.705 149.848Z" fill="#838383"/>
<path d="M141.741 149.468C141.76 150.051 142.294 150.39 143.019 150.39C143.764 150.39 144.301 150.036 144.301 149.458C144.301 149.034 144.013 148.744 143.641 148.721V148.689C144.001 148.593 144.23 148.368 144.23 148.028C144.23 147.499 143.772 147.147 143.036 147.147C142.349 147.147 141.831 147.503 141.821 148.051H142.551C142.559 147.84 142.776 147.693 143.071 147.693C143.365 147.693 143.543 147.85 143.543 148.084C143.543 148.298 143.379 148.458 143.073 148.458H142.592V148.983H143.073C143.381 148.983 143.584 149.157 143.584 149.411C143.584 149.697 143.332 149.836 143.015 149.836C142.702 149.836 142.49 149.701 142.476 149.468H141.741Z" fill="#838383"/>
<path d="M145.788 150.392C146.281 150.392 146.575 150.161 146.71 149.897H146.735V150.329H147.446V148.227C147.446 147.397 146.769 147.147 146.17 147.147C145.51 147.147 145.003 147.442 144.839 148.014L145.53 148.112C145.604 147.897 145.812 147.713 146.174 147.713C146.518 147.713 146.706 147.889 146.706 148.198V148.21C146.706 148.423 146.483 148.433 145.929 148.492C145.32 148.558 144.737 148.74 144.737 149.447C144.737 150.065 145.189 150.392 145.788 150.392ZM145.98 149.848C145.671 149.848 145.45 149.707 145.45 149.435C145.45 149.151 145.698 149.032 146.029 148.985C146.223 148.959 146.612 148.91 146.708 148.832V149.202C146.708 149.552 146.426 149.848 145.98 149.848Z" fill="#838383"/>
<path d="M148.904 147.188H148.19V150.329H148.904V149.059H150.121V150.329H150.832V147.188H150.121V148.452H148.904V147.188Z" fill="#838383"/>
<path d="M152.295 149.327V147.188H151.581V150.329H152.344L153.597 148.188V150.329H154.313V147.188H153.552L152.295 149.327Z" fill="#838383"/>
<path d="M156.463 150.39C157.195 150.39 157.698 150.032 157.829 149.486L157.138 149.408C157.038 149.674 156.792 149.813 156.473 149.813C155.995 149.813 155.678 149.498 155.672 148.961H157.86V148.734C157.86 147.632 157.197 147.147 156.424 147.147C155.525 147.147 154.938 147.808 154.938 148.777C154.938 149.762 155.516 150.39 156.463 150.39ZM155.674 148.462C155.696 148.061 155.993 147.724 156.434 147.724C156.86 147.724 157.146 148.034 157.15 148.462H155.674Z" fill="#838383"/>
<path d="M159.742 147.795H160.758V150.329H161.474V147.795H162.49V147.188H159.742V147.795Z" fill="#838383"/>
<path d="M163.08 151.506H163.82V149.834H163.85C163.967 150.063 164.21 150.384 164.75 150.384C165.49 150.384 166.044 149.797 166.044 148.762C166.044 147.716 165.474 147.147 164.748 147.147C164.194 147.147 163.963 147.48 163.85 147.707H163.808V147.188H163.08V151.506ZM163.805 148.758C163.805 148.149 164.067 147.754 164.544 147.754C165.036 147.754 165.29 148.174 165.29 148.758C165.29 149.347 165.032 149.777 164.544 149.777C164.071 149.777 163.805 149.368 163.805 148.758Z" fill="#838383"/>
<path d="M167.582 150.392C168.075 150.392 168.369 150.161 168.504 149.897H168.529V150.329H169.24V148.227C169.24 147.397 168.563 147.147 167.964 147.147C167.304 147.147 166.797 147.442 166.633 148.014L167.324 148.112C167.398 147.897 167.607 147.713 167.968 147.713C168.312 147.713 168.5 147.889 168.5 148.198V148.21C168.5 148.423 168.277 148.433 167.723 148.492C167.114 148.558 166.531 148.74 166.531 149.447C166.531 150.065 166.983 150.392 167.582 150.392ZM167.774 149.848C167.465 149.848 167.245 149.707 167.245 149.435C167.245 149.151 167.492 149.032 167.823 148.985C168.018 148.959 168.406 148.91 168.502 148.832V149.202C168.502 149.552 168.22 149.848 167.774 149.848Z" fill="#838383"/>
<path d="M169.633 147.795H170.649V150.329H171.365V147.795H172.381V147.188H169.633V147.795Z" fill="#838383"/>
<path d="M39.5345 154.013C44.3139 158.792 50.5422 161.853 57.2457 162.717C63.9493 163.582 70.7503 162.2 76.5855 158.789L67.6357 143.479C65.185 144.912 62.3286 145.492 59.5131 145.129C56.6976 144.766 54.0817 143.48 52.0743 141.473L39.5345 154.013Z" fill="#AEAEAE" stroke="white"/>
<path d="M76.591 158.79C83.4894 154.757 88.5351 148.184 90.648 140.478C92.7609 132.772 91.7732 124.545 87.8961 117.558L72.3894 126.162C74.0178 129.097 74.4326 132.552 73.5452 135.789C72.6578 139.025 70.5386 141.786 67.6413 143.48L76.591 158.79Z" fill="#E6E6E6" stroke="white"/>
<path d="M87.8956 117.558C85.7732 113.733 82.8548 110.408 79.3376 107.807C75.8203 105.207 71.786 103.391 67.507 102.483C63.2281 101.575 58.8041 101.596 54.5338 102.544C50.2635 103.492 46.2463 105.345 42.7534 107.978C39.2606 110.611 36.3734 113.963 34.2868 117.808C32.2003 121.652 30.9629 125.9 30.6582 130.263C30.3536 134.627 30.9888 139.005 32.5209 143.102C34.053 147.199 36.4464 150.92 39.5395 154.013L52.0793 141.473C50.7802 140.174 49.775 138.612 49.1315 136.891C48.488 135.17 48.2212 133.331 48.3492 131.498C48.4771 129.666 48.9968 127.882 49.8732 126.267C50.7496 124.652 51.9622 123.245 53.4292 122.139C54.8962 121.033 56.5834 120.254 58.3769 119.856C60.1704 119.458 62.0285 119.449 63.8257 119.831C65.6228 120.212 67.3172 120.975 68.7945 122.067C70.2718 123.159 71.4975 124.556 72.3889 126.162L87.8956 117.558Z" fill="#F4774C" stroke="white"/>
</g>
<defs>
<filter id="filter0_d_1361_1270" x="92" y="2" width="387" height="249" filterUnits="userSpaceOnUse" color-interpolation-filters="sRGB">
<feFlood flood-opacity="0" result="BackgroundImageFix"/>
<feColorMatrix in="SourceAlpha" type="matrix" values="0 0 0 0 0 0 0 0 0 0 0 0 0 0 0 0 0 0 127 0" result="hardAlpha"/>
<feOffset/>
<feGaussianBlur stdDeviation="12.5"/>
<feComposite in2="hardAlpha" operator="out"/>
<feColorMatrix type="matrix" values="0 0 0 0 0 0 0 0 0 0 0 0 0 0 0 0 0 0 0.09 0"/>
<feBlend mode="normal" in2="BackgroundImageFix" result="effect1_dropShadow_1361_1270"/>
<feBlend mode="normal" in="SourceGraphic" in2="effect1_dropShadow_1361_1270" result="shape"/>
</filter>
<filter id="filter1_d_1361_1270" x="-15" y="162.754" width="258" height="134.927" filterUnits="userSpaceOnUse" color-interpolation-filters="sRGB">
<feFlood flood-opacity="0" result="BackgroundImageFix"/>
<feColorMatrix in="SourceAlpha" type="matrix" values="0 0 0 0 0 0 0 0 0 0 0 0 0 0 0 0 0 0 127 0" result="hardAlpha"/>
<feOffset/>
<feGaussianBlur stdDeviation="12.5"/>
<feComposite in2="hardAlpha" operator="out"/>
<feColorMatrix type="matrix" values="0 0 0 0 0 0 0 0 0 0 0 0 0 0 0 0 0 0 0.09 0"/>
<feBlend mode="normal" in2="BackgroundImageFix" result="effect1_dropShadow_1361_1270"/>
<feBlend mode="normal" in="SourceGraphic" in2="effect1_dropShadow_1361_1270" result="shape"/>
</filter>
<filter id="filter2_d_1361_1270" x="-15" y="44" width="258" height="162.277" filterUnits="userSpaceOnUse" color-interpolation-filters="sRGB">
<feFlood flood-opacity="0" result="BackgroundImageFix"/>
<feColorMatrix in="SourceAlpha" type="matrix" values="0 0 0 0 0 0 0 0 0 0 0 0 0 0 0 0 0 0 127 0" result="hardAlpha"/>
<feOffset/>
<feGaussianBlur stdDeviation="12.5"/>
<feComposite in2="hardAlpha" operator="out"/>
<feColorMatrix type="matrix" values="0 0 0 0 0 0 0 0 0 0 0 0 0 0 0 0 0 0 0.09 0"/>
<feBlend mode="normal" in2="BackgroundImageFix" result="effect1_dropShadow_1361_1270"/>
<feBlend mode="normal" in="SourceGraphic" in2="effect1_dropShadow_1361_1270" result="shape"/>
</filter>
<clipPath id="clip0_1361_1270">
<rect width="474" height="300" fill="white"/>
</clipPath>
</defs>
</svg>
