<svg width="672" height="38" viewBox="0 0 672 38" fill="none" xmlns="http://www.w3.org/2000/svg">
<path d="M338.5 1C338.5 0.723858 338.276 0.5 338 0.5C337.724 0.5 337.5 0.723858 337.5 1H338.5ZM337.646 37.3536C337.842 37.5488 338.158 37.5488 338.354 37.3536L341.536 34.1716C341.731 33.9763 341.731 33.6597 341.536 33.4645C341.34 33.2692 341.024 33.2692 340.828 33.4645L338 36.2929L335.172 33.4645C334.976 33.2692 334.66 33.2692 334.464 33.4645C334.269 33.6597 334.269 33.9763 334.464 34.1716L337.646 37.3536ZM337.5 1V37H338.5V1H337.5Z" fill="#5A5A5B"/>
<path d="M337 20.5C336.724 20.5 336.5 20.2762 336.5 20C336.5 19.7239 336.724 19.5 337 19.5L337 20.5ZM671 20L671.5 20C671.5 20.2761 671.276 20.5 671 20.5L671 20ZM337 19.5L671 19.5L671 20.5L337 20.5L337 19.5ZM670.5 20L670.5 0.999975L671.5 0.999975L671.5 20L670.5 20Z" fill="#5A5A5B"/>
<path d="M337 20.5C337.276 20.5 337.5 20.2761 337.5 20C337.5 19.7238 337.276 19.5 337 19.5L337 20.5ZM1 20L0.500002 20C0.500002 20.2761 0.723848 20.5 1 20.5L1 20ZM337 19.5L1 19.5L1 20.5L337 20.5L337 19.5ZM1.5 20L1.5 1.00003L0.5 1.00003L0.500002 20L1.5 20Z" fill="#5A5A5B"/>
</svg>
