<svg width="678" height="38" viewBox="0 0 678 38" fill="none" xmlns="http://www.w3.org/2000/svg">
<path d="M341.5 1C341.5 0.723858 341.276 0.5 341 0.5C340.724 0.5 340.5 0.723858 340.5 1H341.5ZM340.646 37.3536C340.842 37.5488 341.158 37.5488 341.354 37.3536L344.536 34.1716C344.731 33.9763 344.731 33.6597 344.536 33.4645C344.34 33.2692 344.024 33.2692 343.828 33.4645L341 36.2929L338.172 33.4645C337.976 33.2692 337.66 33.2692 337.464 33.4645C337.269 33.6597 337.269 33.9763 337.464 34.1716L340.646 37.3536ZM340.5 1V37H341.5V1H340.5Z" fill="#5A5A5B"/>
<path d="M340 17.5C340.276 17.5 340.5 17.7239 340.5 18C340.5 18.2761 340.276 18.5 340 18.5L340 17.5ZM4 18L3.5 18C3.5 17.7239 3.72385 17.5 4 17.5L4 18ZM4.35355 37.3535C4.15829 37.5488 3.84171 37.5488 3.64642 37.3535L0.464447 34.1716C0.269196 33.9763 0.269196 33.6597 0.464447 33.4645C0.659729 33.2692 0.976288 33.2692 1.17157 33.4645L4 36.2929L6.82843 33.4645C7.02368 33.2692 7.34027 33.2692 7.53552 33.4645C7.73077 33.6597 7.73077 33.9763 7.53552 34.1716L4.35355 37.3535ZM340 18.5L4 18.5L4 17.5L340 17.5L340 18.5ZM4.5 18L4.5 37L3.5 37L3.5 18L4.5 18Z" fill="#5A5A5B"/>
<path d="M340 17.5C339.724 17.5 339.5 17.7239 339.5 18C339.5 18.2761 339.724 18.5 340 18.5L340 17.5ZM674 18L674.5 18C674.5 17.7239 674.276 17.5 674 17.5L674 18ZM673.646 37.3535C673.842 37.5488 674.158 37.5488 674.354 37.3535L677.536 34.1716C677.731 33.9763 677.731 33.6597 677.536 33.4645C677.34 33.2692 677.024 33.2692 676.828 33.4645L674 36.2929L671.172 33.4645C670.976 33.2692 670.66 33.2692 670.464 33.4645C670.269 33.6597 670.269 33.9763 670.464 34.1716L673.646 37.3535ZM340 18.5L674 18.5L674 17.5L340 17.5L340 18.5ZM673.5 18L673.5 37L674.5 37L674.5 18L673.5 18Z" fill="#5A5A5B"/>
</svg>
