<svg width="679" height="144" viewBox="0 0 679 144" fill="none" xmlns="http://www.w3.org/2000/svg">
<path d="M339.5 1C339.5 0.723858 339.276 0.5 339 0.5C338.724 0.5 338.5 0.723858 338.5 1H339.5ZM338.646 37.3536C338.842 37.5488 339.158 37.5488 339.354 37.3536L342.536 34.1716C342.731 33.9763 342.731 33.6597 342.536 33.4645C342.34 33.2692 342.024 33.2692 341.828 33.4645L339 36.2929L336.172 33.4645C335.976 33.2692 335.66 33.2692 335.464 33.4645C335.269 33.6597 335.269 33.9763 335.464 34.1716L338.646 37.3536ZM338.5 1V37H339.5V1H338.5Z" fill="#5A5A5B"/>
<path d="M4.5 1C4.5 0.723858 4.27615 0.5 4 0.5C3.72388 0.5 3.5 0.723858 3.5 1H4.5ZM306.354 65.3536C306.549 65.1583 306.549 64.8417 306.354 64.6464L303.172 61.4645C302.976 61.2692 302.66 61.2692 302.464 61.4645C302.269 61.6597 302.269 61.9763 302.464 62.1716L305.293 65L302.464 67.8284C302.269 68.0237 302.269 68.3403 302.464 68.5355C302.66 68.7308 302.976 68.7308 303.172 68.5355L306.354 65.3536ZM3.5 1V64H4.5V1H3.5ZM5 65.5L306 65.5V64.5L5 64.5V65.5ZM3.5 64C3.5 64.8284 4.17157 65.5 5 65.5V64.5C4.72388 64.5 4.5 64.2761 4.5 64H3.5Z" fill="#5A5A5B"/>
<path d="M674.5 1C674.5 0.723858 674.724 0.5 675 0.5C675.276 0.5 675.5 0.723858 675.5 1H674.5ZM376.646 65.3536C376.451 65.1583 376.451 64.8417 376.646 64.6464L379.828 61.4645C380.024 61.2692 380.34 61.2692 380.536 61.4645C380.731 61.6597 380.731 61.9763 380.536 62.1716L377.707 65L380.536 67.8284C380.731 68.0237 380.731 68.3403 380.536 68.5355C380.34 68.7308 380.024 68.7308 379.828 68.5355L376.646 65.3536ZM675.5 1V64H674.5V1H675.5ZM674 65.5L377 65.5V64.5L674 64.5V65.5ZM675.5 64C675.5 64.8284 674.828 65.5 674 65.5V64.5C674.276 64.5 674.5 64.2761 674.5 64H675.5Z" fill="#5A5A5B"/>
<path d="M4.35358 143.354C4.15829 143.549 3.84171 143.549 3.64645 143.354L0.464478 140.172C0.269226 139.976 0.269226 139.66 0.464478 139.464C0.659729 139.269 0.976318 139.269 1.17157 139.464L4 142.293L6.82843 139.464C7.02371 139.269 7.34027 139.269 7.53555 139.464C7.7308 139.66 7.7308 139.976 7.53555 140.172L4.35358 143.354ZM306 78.5C306.276 78.5 306.5 78.7239 306.5 79C306.5 79.2761 306.276 79.5 306 79.5V78.5ZM3.5 143V80H4.5V143H3.5ZM5 78.5L306 78.5V79.5L5 79.5V78.5ZM3.5 80C3.5 79.1716 4.17157 78.5 5 78.5V79.5C4.72388 79.5 4.5 79.7239 4.5 80H3.5Z" fill="#5A5A5B"/>
<path d="M674.646 143.354C674.842 143.549 675.158 143.549 675.354 143.354L678.536 140.172C678.731 139.976 678.731 139.66 678.536 139.464C678.34 139.269 678.024 139.269 677.828 139.464L675 142.293L672.172 139.464C671.976 139.269 671.66 139.269 671.464 139.464C671.269 139.66 671.269 139.976 671.464 140.172L674.646 143.354ZM377 78.5C376.724 78.5 376.5 78.7239 376.5 79C376.5 79.2761 376.724 79.5 377 79.5V78.5ZM675.5 143V80H674.5V143H675.5ZM674 78.5L377 78.5V79.5L674 79.5V78.5ZM675.5 80C675.5 79.1716 674.828 78.5 674 78.5V79.5C674.276 79.5 674.5 79.7239 674.5 80H675.5Z" fill="#5A5A5B"/>
<path d="M339.5 107C339.5 106.724 339.276 106.5 339 106.5C338.724 106.5 338.5 106.724 338.5 107H339.5ZM338.646 143.354C338.842 143.549 339.158 143.549 339.354 143.354L342.536 140.172C342.731 139.976 342.731 139.66 342.536 139.464C342.34 139.269 342.024 139.269 341.828 139.464L339 142.293L336.172 139.464C335.976 139.269 335.66 139.269 335.464 139.464C335.269 139.66 335.269 139.976 335.464 140.172L338.646 143.354ZM338.5 107V143H339.5V107H338.5Z" fill="#5A5A5B"/>
<circle cx="341.314" cy="72.5" r="28.5" fill="white"/>
<mask id="mask0_879_6284" style="mask-type:alpha" maskUnits="userSpaceOnUse" x="312" y="44" width="58" height="57">
<circle cx="341.314" cy="72.5" r="28.5" fill="white"/>
</mask>
<g mask="url(#mask0_879_6284)">
<path d="M359.156 99.3187L358.672 84.7837H364.001L364.486 97.8652L364.001 99.3187H359.156Z" fill="white"/>
<path d="M317.973 98.8346L317.488 85.2686H322.818V98.3501L321.849 98.8346H317.973Z" fill="white"/>
<path d="M325.242 111.915L324.273 86.2369L357.219 85.7524L357.704 112.4L325.242 111.915Z" fill="white"/>
<path d="M346.691 56.9766L347.235 60.7795H349.408L348.321 56.9766H346.691Z" fill="white"/>
<path d="M335.824 56.9766L335.281 60.7795H333.108L334.194 56.9766H335.824Z" fill="white"/>
<path d="M326.587 62.4088L327.673 61.3223H351.034L356.467 61.8655L357.01 80.8805L351.578 81.967L334.193 82.5103L325.5 81.4237L326.587 62.4088Z" fill="white"/>
<path d="M326.585 80.0485C326.654 79.9679 326.654 79.9679 326.648 79.893C326.563 78.7691 326.553 77.6396 326.549 76.585C326.558 74.7005 326.572 72.8909 326.655 71.0008L326.761 69.4104C326.761 69.4104 326.728 67.9812 326.776 66.6212C326.749 65.2668 327.25 63.4798 327.186 63.6353C327.092 61.3819 326.823 59.8198 326.046 63.4954C325.825 64.567 325.163 66.2155 325.018 67.2815C324.872 68.3474 324.779 69.1079 324.779 69.1079L324.696 70.9981C324.612 72.8882 324.604 74.7727 324.595 76.6571C324.605 77.7867 324.615 78.9162 324.7 80.0401C324.706 80.115 324.786 80.1843 324.786 80.1843C325.615 81.1767 326.319 80.5207 326.585 80.0485Z" fill="#F4774C"/>
<path d="M354.066 60.7938C352.539 60.5323 350.493 60.3854 349.433 60.3148C349.497 60.1593 349.485 60.0094 349.549 59.8539C349.665 59.393 349.7 58.8629 349.666 58.4133C349.707 57.9581 349.685 57.6584 349.685 57.6584L349.662 57.3587L349.622 56.8342L349.457 55.6411L348.252 55.6566L347.348 55.6496C346.967 55.603 346.593 55.6313 346.224 55.7345L345.18 55.8886L345.408 57.906L345.562 58.9493C345.596 59.3989 345.7 59.7678 345.733 60.2174L335.637 60.2264C335.631 60.1514 335.706 60.1458 335.7 60.0708C335.822 59.6849 335.938 59.224 336.059 58.838C336.106 58.4578 336.158 58.1524 336.158 58.1524C336.124 57.7029 336.09 57.2533 336.057 56.8038L336.006 56.1294L335.389 55.9499C335.003 55.8284 334.778 55.8453 334.554 55.8623C334.329 55.8793 334.179 55.8906 333.96 55.9825C333.885 55.9881 333.741 56.0744 333.591 56.0857L333.147 56.1946L332.34 56.4816L332.314 58.1413C332.337 58.441 332.29 58.8213 332.313 59.121C332.336 59.4207 332.364 59.7953 332.392 60.1699C332.392 60.1699 332.392 60.1699 332.398 60.2449L330.663 60.2252L327.275 60.255C327.2 60.2606 327.131 60.3413 327.131 60.3413C326.069 61.2503 326.725 61.9543 327.197 62.2201C327.278 62.2893 327.278 62.2893 327.353 62.2837L330.741 62.2538L347.021 62.3054L348.606 62.3364C348.606 62.3364 354.306 61.9813 354.001 61.929C356.318 61.6787 357.719 61.2714 354.066 60.7938ZM334.507 60.2363C334.502 60.1614 334.49 60.0115 334.485 59.9366C334.468 59.7118 334.451 59.487 334.434 59.2623C334.543 59.7061 334.646 60.0751 334.646 60.0751C334.651 60.15 334.651 60.15 334.732 60.2193L334.507 60.2363ZM347.773 60.2894C347.659 59.7706 347.619 59.2461 347.58 58.7216L347.42 57.6033L347.645 57.5864L347.662 57.8112C347.662 57.8112 347.857 58.3993 348.046 58.9124C348.236 59.4256 348.425 59.9387 348.425 59.9387C348.431 60.0137 348.517 60.1579 348.598 60.2272L347.773 60.2894Z" fill="#F4774C"/>
<path d="M357.611 75.748C357.606 74.6934 357.625 73.9385 357.625 73.9385L357.483 72.0653C357.394 69.8868 357.311 67.7832 357.377 65.6683C357.448 64.6081 357.513 63.4729 357.658 62.4069C357.652 62.332 357.647 62.2571 357.572 62.2627C356.882 61.1092 356.011 61.5517 355.67 62.0295C355.601 62.1101 355.601 62.1101 355.607 62.1851C355.467 63.3259 355.327 64.4668 355.268 65.6769C355.207 67.8667 355.221 70.0509 355.385 72.2238L355.51 73.8721C355.51 73.8721 355.692 75.2901 355.869 76.6331C356.046 77.9761 356.223 79.3191 356.217 79.2442C356.337 79.8379 356.377 80.3624 356.48 80.7314C356.18 80.754 355.8 80.7074 355.35 80.7413C353.166 80.7556 350.083 80.8377 350.083 80.8377L348.215 81.0541C342.227 81.5817 335.894 81.6461 329.849 81.4245C328.714 81.3595 326.709 80.536 325.574 80.4711C325.499 80.4767 325.43 80.5573 325.43 80.5573C324.363 81.3914 324.949 82.176 325.347 82.4474C325.427 82.5167 325.427 82.5167 325.502 82.511C326.637 82.576 329.262 83.0643 330.392 83.0543C336.512 83.2703 342.305 83.6103 348.443 83.0714L350.092 82.947C350.092 82.947 350.466 82.9187 350.985 82.8041C351.504 82.6896 352.172 82.5637 352.916 82.4322C354.328 82.1749 355.66 81.8482 355.51 81.8595C356.029 81.745 356.467 81.5612 356.836 81.458C356.917 81.5273 356.992 81.5216 356.98 81.3717C357.713 81.0904 357.995 80.843 357.16 80.7554C357.207 80.3751 357.322 79.9142 357.346 79.2342C357.561 78.0877 357.615 76.8027 357.611 75.748Z" fill="#F4774C"/>
<path d="M333.058 65.9972C333.422 65.819 333.721 65.7964 334.032 65.9236C334.032 65.9236 334.102 65.8431 334.177 65.8374C334.609 65.5787 335.042 65.3199 335.088 64.9396C335.141 64.6343 334.957 64.196 334.715 63.9882C334.635 63.919 334.635 63.919 334.56 63.9246C333.793 63.7564 332.969 63.8187 332.237 64.1001C331.505 64.3814 330.939 64.8762 330.529 65.4346C329.981 66.1542 329.605 67.1623 329.684 68.2112C329.701 68.436 329.798 68.73 329.815 68.9548C329.907 69.1739 329.999 69.393 330.091 69.6122C330.269 69.9755 330.603 70.4024 330.931 70.7544C331.495 71.2393 332.198 71.563 332.958 71.6562C332.958 71.6562 333.488 71.6916 334.157 71.5657C334.826 71.4399 335.622 71.003 336.256 70.4276C336.533 70.1052 336.81 69.7829 337.007 69.3913C337.203 68.9997 337.325 68.6137 337.302 68.314C337.326 67.634 337.143 67.1958 337.148 67.2708C336.867 66.5385 336.308 66.1285 335.917 65.932C335.525 65.7355 335.22 65.6832 335.07 65.6945C334.92 65.7059 335.006 65.8501 335.179 66.1385C335.259 66.2077 335.34 66.277 335.346 66.3519C335.426 66.4212 335.513 66.5654 335.593 66.6347C335.76 66.8481 335.932 67.1365 335.961 67.5111C336.098 68.3296 335.255 69.1468 334.523 69.4282C334.16 69.6063 333.785 69.6346 333.56 69.6516C333.336 69.6686 333.186 69.6799 333.186 69.6799C332.811 69.7082 332.419 69.5117 332.178 69.3039C332.017 69.1653 331.85 68.9519 331.752 68.6579C331.666 68.5137 331.66 68.4387 331.58 68.3694C331.574 68.2945 331.488 68.1504 331.557 68.0698C331.523 67.6202 331.639 67.1593 331.98 66.6815C332.407 66.3478 332.764 66.0947 333.058 65.9972Z" fill="#F4774C"/>
<path d="M352.123 66.9694C352.037 66.8253 352.031 66.7503 352.031 66.7503C351.605 66.1043 351.127 65.7636 350.667 65.6477C350.275 65.4512 349.97 65.3989 349.825 65.4852C349.676 65.4965 349.762 65.6407 349.934 65.9291C350.095 66.0676 350.257 66.2061 350.423 66.4196C350.59 66.633 350.838 66.9158 350.941 67.2848C351.033 67.5039 351.044 67.6537 350.986 67.8842C350.923 68.0397 350.865 68.2701 350.726 68.4313C350.524 68.748 350.091 69.0067 349.728 69.1848C349.365 69.363 348.99 69.3913 348.771 69.4832C348.546 69.5001 348.396 69.5115 348.396 69.5115C347.947 69.5454 347.561 69.4238 347.25 69.2966C346.853 69.0252 346.588 68.5177 346.543 67.9183C346.52 67.6186 346.503 67.3938 346.636 67.1577C346.694 66.9273 346.833 66.7661 347.04 66.5244C347.531 66.0352 348.494 65.8118 349.41 65.9687C349.485 65.963 349.554 65.8824 349.554 65.8824C350.056 65.5431 350.327 65.1459 350.305 64.8462C350.282 64.5465 350.029 64.1888 349.787 63.981C349.707 63.9117 349.707 63.9117 349.632 63.9174C348.946 63.8185 348.272 63.8694 347.609 64.0702C346.94 64.196 346.288 64.5466 345.648 65.0471C345.227 65.4557 344.886 65.9335 344.701 66.475C344.516 67.0164 344.486 67.6215 344.526 68.146C344.64 68.6648 344.68 69.1893 344.944 69.6968C345.209 70.2043 345.548 70.7062 346.101 71.0412C346.734 71.4455 347.5 71.6137 348.18 71.6377C348.18 71.6377 348.63 71.6037 349.298 71.4779C349.886 71.2828 350.688 70.9208 351.317 70.2705C351.952 69.6951 352.408 68.7564 352.277 68.0128C352.307 67.4077 352.215 67.1886 352.123 66.9694Z" fill="#F4774C"/>
<path d="M352.713 75.0417L352.638 75.0473C352.407 74.9894 352.182 75.0064 351.958 75.0234C351.647 74.8961 349.905 75.5448 348.84 75.3992C346.708 75.1081 343.827 75.1623 343.827 75.1623L341.943 75.1538L335.84 75.1626L331.859 73.8595C331.784 73.8652 331.715 73.9458 331.715 73.9458C331.363 74.2738 331.155 74.5155 331.178 74.8152C328.556 75.0132 330.878 74.8378 330.054 74.9001C330.06 74.975 330.06 74.975 330.065 75.0499C330.077 75.1998 330.088 75.3496 330.105 75.5744C330.133 75.949 330.087 76.3293 330.087 76.3293C330.087 76.3293 330.42 76.7562 330.495 76.7506C330.576 76.8199 330.731 76.8835 330.887 76.9471C330.846 77.4023 331.249 77.7486 331.491 77.9564C331.571 78.0257 331.571 78.0257 331.646 78.0201L335.627 79.3232L342.104 79.2861L343.683 79.2422C343.683 79.2422 349.383 78.8871 349.078 78.8348C349.528 78.8009 350.876 77.667 351.176 77.6444C351.262 77.7886 351.343 77.8578 351.343 77.8578C351.585 78.0656 352.046 78.1815 352.467 77.7729C352.75 77.5255 352.946 77.1339 352.946 77.1339C352.946 77.1339 352.906 76.6095 352.872 76.1599C352.855 75.9351 352.713 75.0417 352.822 75.4856C352.718 75.1166 352.713 75.0417 352.713 75.0417ZM351.006 77.061C350.776 77.003 349.368 77.6826 349.062 77.6303C346.446 78.0201 343.556 78.0201 343.556 78.0201L336.342 77.8578L333.906 77.631L332.196 75.921C332.796 75.8757 348.957 76.7509 348.726 76.693C349.026 76.6703 350.702 76.029 350.921 75.9371C350.933 76.087 350.95 76.3118 350.961 76.4616C350.978 76.6864 350.995 76.9111 351.006 77.061Z" fill="#F4774C"/>
<path d="M347.077 99.4199C346.902 99.7691 346.598 100.195 346.294 100.621C345.991 101.048 345.615 101.412 345.239 101.776L344.246 102.859C344.06 103.075 343.87 103.224 343.685 103.439C343.566 103.65 343.376 103.799 343.257 104.009L342.526 105.005L342.346 105.288L342.289 105.426L342.227 105.498L343.091 105.366C344.222 105.213 345.353 105.06 346.489 104.975L346.956 104.939L347.357 104.909L348.164 104.915C348.699 104.875 349.238 104.901 349.711 104.933L349.912 104.918L350.112 104.903L350.318 104.954L351.135 105.094L351.541 105.131L351.746 105.183L351.88 105.172L351.946 105.167C351.946 105.167 351.946 105.167 351.941 105.101L351.948 104.294L351.954 103.487L351.98 102.947L352.053 102.135C352.106 101.056 352.226 99.9718 352.346 98.8876C352.466 97.8034 352.513 96.6573 352.423 95.4546C352.377 94.8532 352.337 94.3187 352.219 93.6555C352.199 93.3882 352.112 93.126 352.025 92.8638L351.928 92.4679L351.846 92.2725L351.841 92.2057C351.841 92.2057 351.841 92.2057 351.774 92.2108L351.641 92.2208L350.227 92.1932L343.634 92.0863L340.339 92.0663C339.193 92.0185 338.186 92.0273 337.107 91.9744C336.028 91.9215 334.882 91.8736 333.679 91.9645C333.412 91.9847 333.078 92.0099 332.815 92.0969C332.615 92.112 332.348 92.1322 332.08 92.1524C331.813 92.1726 331.412 92.2029 330.955 92.3718C330.497 92.5408 330.126 92.972 329.951 93.3212C329.534 94.0247 329.517 94.698 329.429 95.3094C329.408 95.9158 329.453 96.5172 329.427 97.0568L329.487 97.8586C329.502 98.0591 329.456 98.3314 329.476 98.5987L329.469 100.279C329.477 101.287 329.491 102.361 329.567 103.363C329.572 103.43 329.644 103.492 329.644 103.492C330.008 103.867 330.281 103.914 330.548 103.894C330.224 104.053 330.712 104.285 332.474 104.487C333.425 104.617 334.576 104.732 335.527 104.862C335.732 104.913 335.999 104.893 336.138 104.95C336.344 105.002 336.477 104.992 336.611 104.981C336.883 105.028 337.084 105.013 337.084 105.013C337.423 105.055 337.829 105.091 338.23 105.061C338.43 105.046 338.636 105.097 338.836 105.082C339.103 105.062 339.371 105.042 339.705 105.017C339.838 105.007 340.034 104.925 340.167 104.914C340.301 104.904 340.558 104.751 340.687 104.674C341.263 104.294 341.634 103.863 341.942 103.504L342.313 103.072C342.437 102.929 342.498 102.857 342.684 102.641L343.425 101.779C343.919 101.204 344.418 100.696 344.918 100.188C345.417 99.6797 345.988 99.2333 346.502 98.9257C346.759 98.7719 347.022 98.6849 347.222 98.6697C347.289 98.6647 347.356 98.6596 347.356 98.6596C347.356 98.6596 347.356 98.6596 347.423 98.6546L347.494 98.7163C347.494 98.7163 347.494 98.7164 347.5 98.7832C347.252 99.0706 347.196 99.2093 347.077 99.4199ZM349.016 98.3998C348.929 98.1376 348.842 97.8754 348.627 97.6901C348.406 97.4379 348.124 97.2576 347.779 97.1492C347.435 97.0408 347.096 96.9992 346.829 97.0194C346.227 97.0648 345.775 97.3006 345.389 97.5313C344.617 97.9928 344.051 98.506 343.424 99.091C342.863 99.671 342.368 100.246 341.874 100.821L341.133 101.683C341.071 101.755 340.886 101.971 340.762 102.114L340.392 102.546C340.145 102.833 339.831 103.126 339.64 103.274C339.512 103.351 339.512 103.351 339.316 103.433C339.183 103.443 338.987 103.525 338.854 103.535C338.787 103.54 338.653 103.55 338.586 103.555L338.519 103.561L338.386 103.571L338.185 103.586C337.851 103.611 337.579 103.564 337.24 103.523C337.24 103.523 336.906 103.548 336.433 103.517C335.898 103.557 335.297 103.602 334.691 103.581C333.488 103.672 332.218 103.768 332.352 103.758C331.684 103.808 331.154 103.915 330.758 104.012C330.949 103.863 331.072 103.72 331.191 103.509C331.253 103.437 331.253 103.437 331.248 103.371C331.177 102.435 331.168 101.428 331.164 100.487L331.177 98.8735C331.157 98.6062 331.203 98.3339 331.178 97.9998L331.112 97.1311C331.072 96.5966 331.032 96.062 331.063 95.5892C331.095 95.1164 331.193 94.6386 331.311 94.4281C331.368 94.2894 331.435 94.2843 331.497 94.2125C331.564 94.2074 331.759 94.1255 331.959 94.1103C332.227 94.0902 332.494 94.07 332.828 94.0447C333.095 94.0246 333.358 93.9376 333.558 93.9224C334.56 93.8467 335.64 93.8996 336.719 93.9525C337.798 94.0054 339.006 93.9814 340.018 94.0394L343.312 94.0594L349.839 94.1713L350.04 94.1561C350.142 94.6188 350.182 95.1534 350.223 95.6879C350.298 96.6902 350.245 97.7694 350.126 98.8536C350.073 99.9328 349.953 101.017 349.838 102.168L349.77 103.047L349.79 103.314L349.518 103.268C348.912 103.246 348.372 103.22 347.766 103.198C347.498 103.218 347.231 103.239 346.892 103.197L346.09 103.258L346.214 103.114C346.584 102.683 346.96 102.318 347.326 101.82C347.696 101.389 348.062 100.891 348.351 100.265C348.531 99.9821 348.639 99.6379 348.671 99.1651C349.057 98.9344 349.036 98.6671 349.016 98.3998Z" fill="#F4774C"/>
<path d="M366.895 116.27C366.521 115.76 366.151 115.318 365.72 114.947C365.505 114.762 365.289 114.577 365.012 114.463C365.001 114.33 364.858 114.206 364.575 114.026C364.082 113.727 363.394 113.51 363.394 113.51C363.394 113.51 362.315 113.457 361.241 113.471C360.701 113.445 360.166 113.485 359.76 113.449C359.694 113.454 359.56 113.464 359.493 113.469C359.483 113.335 359.545 113.263 359.535 113.13C359.794 111.228 359.988 108.458 359.988 108.458L359.996 106.778L359.969 103.756C359.971 102.882 359.905 102.014 359.911 101.207C361.119 101.183 362.933 101.18 362.933 101.18C362.933 101.18 363 101.175 363.134 101.165L363.155 104.12L363.179 105.328L363.218 106.736C363.218 106.736 363.535 111.819 363.587 111.614C363.805 113.613 364.24 114.925 364.599 111.672C364.859 109.771 365.053 107.001 365.053 107.001L365.06 105.32L365.036 104.112L365.01 101.09C365.005 101.024 364.933 100.962 364.933 100.962C364.789 100.838 364.712 100.71 364.568 100.586C364.754 100.371 364.734 100.103 364.179 99.8764C364.246 99.8714 364.246 99.8714 364.241 99.8045C364.693 99.5688 365.002 99.2094 364.232 98.7972C363.739 98.4984 363.122 98.3434 363.122 98.3434C363.122 98.3434 359.9 98.3852 359.227 98.3688C359.273 98.0965 359.376 97.6855 359.408 97.2127C359.663 95.2447 359.79 92.4799 359.79 92.4799L359.73 90.8044L359.632 87.7206C359.633 86.8469 359.573 86.0451 359.574 85.1714C360.715 85.1524 362.796 85.1296 362.796 85.1296C362.796 85.1296 363.059 85.0426 363.321 84.9556L363.337 87.844L363.385 90.2595L363.424 91.6678C363.424 91.6678 363.741 96.7511 363.793 96.5456C364.011 98.5451 364.446 99.8563 364.805 96.6035C365.065 94.7023 365.259 91.9325 365.259 91.9325L365.266 90.2519L365.285 87.8313L365.259 84.8093C365.253 84.7425 365.182 84.6807 365.182 84.6807C364.961 84.4286 364.745 84.2432 364.54 84.1916C364.53 84.0579 364.381 83.8676 364.104 83.7541C363.611 83.4553 362.994 83.3003 362.994 83.3003C362.994 83.3003 359.032 83.3307 358.965 83.3358C358.965 83.3358 358.97 83.4026 358.903 83.4076C358.851 83.6131 358.8 83.8186 358.815 84.0191C358.409 83.9825 358.095 84.2751 357.915 84.5575C357.853 84.6293 357.853 84.6294 357.858 84.6962C357.883 85.0303 357.837 85.3026 357.862 85.6367C357.297 85.2761 356.793 85.7174 356.617 86.0666C356.556 86.1385 356.556 86.1385 356.561 86.2053L356.587 89.2273L356.694 104.877L356.733 106.285C356.733 106.285 357.05 111.368 357.101 111.163C357.137 111.631 357.234 112.027 357.259 112.361C356.915 112.252 356.509 112.216 355.898 112.127C353.991 111.801 351.216 111.54 351.216 111.54L340.527 111.474C338.574 111.42 336.559 111.437 334.601 111.317L333.116 111.227C332.576 111.201 332.109 111.236 331.569 111.21C330.562 111.218 329.554 111.227 328.614 111.231C327.606 111.24 326.661 111.177 325.71 111.047C325.644 111.052 325.582 111.124 325.582 111.124C325.196 111.355 325.011 111.57 324.964 111.843C325.072 111.498 325.104 111.026 325.187 110.347C325.447 108.446 325.641 105.676 325.641 105.676L325.648 103.996L325.555 89.4204L325.564 86.8661L327.712 86.8383C329.66 86.8256 331.603 86.7461 333.551 86.7334C334.491 86.7296 335.499 86.7207 336.444 86.7837C337.39 86.8467 338.402 86.9046 339.41 86.8957C341.363 86.9499 343.377 86.9321 345.32 86.8526L348.27 86.7642L350.213 86.6847C350.213 86.6847 355.276 86.1007 355.009 86.1209C357.003 85.8359 358.309 85.3341 355 85.1136C353.037 84.9258 350.277 84.8654 350.277 84.8654L348.468 84.9349L345.518 85.0233C343.508 85.1078 341.56 85.1205 339.608 85.0664C338.6 85.0753 337.655 85.0123 336.642 84.9544C335.63 84.8964 334.623 84.9053 333.615 84.9141C331.601 84.9319 329.586 84.9496 327.643 85.0291L324.688 85.0507C324.621 85.0558 324.559 85.1276 324.559 85.1276C324.179 85.4252 324.065 85.7025 324.085 85.9698L324.112 85.4302C324.107 85.3634 324.035 85.3016 324.035 85.3016C324.035 85.3016 324.03 85.2348 323.963 85.2399C324.025 85.168 324.087 85.0961 324.148 85.0243C324.2 84.8187 324.051 84.6284 323.635 84.4582C323.142 84.1595 322.387 83.9477 322.387 83.9477C321.647 83.9364 320.84 83.9301 320.1 83.9188C319.699 83.9491 319.36 83.9075 318.959 83.9378C318.759 83.9529 318.558 83.968 318.358 83.9832C318.224 83.9933 318.157 83.9983 318.024 84.0084C317.957 84.0135 317.89 84.0185 317.823 84.0236C317.756 84.0286 317.756 84.0286 317.628 84.1055C317.561 84.1105 317.499 84.1824 317.499 84.1824C317.304 84.2643 317.118 84.4799 317.067 84.6855L317.01 84.8241L317.02 84.9578C317.025 85.0246 317.03 85.0914 317.035 85.1582C317.04 85.2251 317.04 85.2251 317.045 85.2919C317.05 85.3587 317.122 85.4205 317.127 85.4873C317.199 85.5491 317.204 85.6159 317.271 85.6108L317.288 88.4992L317.284 91.1203L317.323 92.5285C317.323 92.5285 317.64 97.6118 317.691 97.4063C317.829 98.3367 317.951 99.0667 318.105 99.3239C318.115 99.4575 318.12 99.5243 318.13 99.658C318.13 99.658 318.135 99.7248 318.068 99.7298C318.022 100.002 317.98 100.341 317.995 100.542C317.666 100.634 317.481 100.849 317.362 101.06C317.301 101.132 317.301 101.132 317.306 101.199L317.332 104.221L317.366 105.562L317.406 106.97C317.406 106.97 317.722 112.054 317.774 111.848C317.819 112.449 317.927 112.979 318.024 113.375L318.029 113.442C317.864 113.925 317.894 114.325 317.919 114.66C317.791 114.736 317.724 114.741 317.595 114.818C317.148 115.121 316.772 115.485 316.396 115.85C316.092 116.276 315.784 116.635 315.552 117.123C315.083 118.032 314.752 118.998 314.623 119.948L314.524 120.426C314.534 120.56 314.478 120.699 314.488 120.832L314.451 121.238L314.481 121.639C314.481 121.639 314.486 121.706 314.502 121.906C314.512 122.04 314.532 122.307 314.619 122.57C314.726 123.099 315.049 123.814 315.495 124.385C315.942 124.956 316.511 125.383 316.932 125.62C317.354 125.857 317.631 125.971 317.626 125.904C318.664 126.296 319.537 126.297 319.733 126.215C319.799 126.21 319.794 126.144 319.789 126.077C320.052 125.99 320.309 125.836 320.427 125.625C320.489 125.553 320.489 125.553 320.484 125.487L320.562 124.742L320.604 124.402L320.645 124.063L320.723 123.318L319.968 123.106C319.83 123.05 319.696 123.06 319.624 122.998L319.485 122.941C319.342 122.818 319.203 122.761 319.059 122.637C318.767 122.324 318.464 121.876 318.295 121.418C318.213 121.223 318.193 120.956 318.178 120.755L318.148 120.354L318.189 120.015C318.319 119.065 318.937 118.346 319.847 117.941C320.305 117.772 320.834 117.665 321.302 117.63C321.836 117.589 322.247 117.693 322.663 117.863C323.079 118.033 323.372 118.347 323.603 118.733C323.833 119.118 324.002 119.576 323.971 120.049C324.042 120.984 323.65 122.022 322.883 122.55L322.821 122.622L322.754 122.627L322.693 122.699L322.307 122.93L321.921 123.16L321.859 123.232L321.793 123.237L321.798 123.304L321.88 123.5C321.967 123.762 322.059 124.091 322.146 124.353L322.325 124.944C322.504 125.536 322.683 126.127 322.862 126.718L323.031 127.176L323.098 127.171L323.159 127.099L323.35 126.95C323.607 126.796 323.864 126.643 324.116 126.422L324.883 125.894C324.944 125.822 325.011 125.817 325.073 125.745L325.197 125.601L325.387 125.452C325.639 125.232 325.891 125.011 326.138 124.724C326.571 124.221 326.993 123.584 327.282 122.957C327.854 121.637 327.938 120.085 327.498 118.707C327.023 116.862 325.756 115.21 324.01 114.334C324.262 114.113 324.242 113.846 323.682 113.552C323.471 113.434 323.194 113.32 322.988 113.269C323.122 113.259 323.277 112.642 323.444 111.285C323.703 109.384 323.897 106.614 323.897 106.614L323.905 104.934L323.901 103.993L323.874 100.971C323.869 100.905 323.797 100.843 323.797 100.843C323.649 100.652 323.505 100.529 323.366 100.472C323.356 100.339 323.274 100.143 322.925 99.9679C323.254 99.8758 324.051 99.7485 324.051 99.7485C324.117 99.7434 324.117 99.7434 324.179 99.6716L324.225 103.834L324.264 105.243C324.264 105.243 324.581 110.326 324.632 110.121C324.815 111.652 325.101 112.773 325.36 111.746C325.365 111.812 325.37 111.879 325.375 111.946C325.4 112.28 325.621 112.532 325.831 112.651C325.903 112.713 325.903 112.713 325.97 112.708C326.988 112.832 328.067 112.885 329.074 112.876C329.814 112.888 330.549 112.832 331.289 112.843C331.176 113.121 331.134 113.46 331.149 113.66C330.882 113.681 330.692 113.829 330.563 113.906C330.496 113.911 330.496 113.911 330.501 113.978C330.511 114.112 330.742 121.621 330.742 121.621C330.742 121.621 331.119 123.944 331.176 123.806C331.258 124.001 331.278 124.268 331.355 124.397C331.138 125.085 331.312 125.61 331.466 125.867L331.471 125.934C331.42 126.139 331.43 126.273 331.44 126.406C331.162 126.293 330.962 126.308 330.833 126.385C330.767 126.39 330.767 126.39 330.772 126.457C330.72 126.662 330.6 127.747 330.619 128.888C330.571 130.034 330.585 131.108 330.585 131.108C330.585 131.108 330.887 132.429 330.948 132.357C330.948 132.357 330.948 132.357 330.953 132.424C330.347 132.403 329.679 132.453 329.016 132.57C328.419 132.683 327.756 132.8 327.108 133.118C326.98 133.194 326.784 133.276 326.661 133.42L326.404 133.574L326.218 133.79C325.971 134.077 325.729 134.431 325.621 134.776C325.337 135.469 325.326 136.209 325.381 136.944C325.504 137.674 325.76 138.394 326.339 138.955C326.56 139.207 326.914 139.449 327.259 139.557C327.675 139.728 328.009 139.702 328.281 139.749C328.887 139.77 329.417 139.663 329.885 139.628C329.952 139.623 330.013 139.551 330.013 139.551C330.327 139.259 330.441 138.981 330.42 138.714C330.492 138.776 330.559 138.771 330.698 138.827C331.037 138.869 331.51 138.9 332.327 139.04C333.277 139.17 334.433 139.352 335.379 139.415C336.33 139.544 337.065 139.489 337.065 139.489C337.399 139.464 337.666 139.443 337.995 139.351L338.458 139.249L338.725 139.229L338.859 139.219L339.054 139.137C339.645 138.958 340.37 138.769 341.003 138.251C341.193 138.102 341.374 137.819 341.492 137.609L341.497 137.676C341.646 137.866 341.723 137.995 341.872 138.185C342.016 138.309 342.159 138.432 342.303 138.556C342.868 138.916 343.484 139.071 343.962 139.17C344.507 139.263 345.051 139.356 345.524 139.388C345.591 139.383 345.653 139.311 345.653 139.311C346.1 139.008 346.281 138.726 346.26 138.458C346.327 138.453 346.399 138.515 346.533 138.505C346.872 138.547 347.345 138.578 348.152 138.584C349.102 138.714 350.258 138.896 351.204 138.959C352.149 139.022 352.884 138.966 352.884 138.966C353.218 138.941 353.547 138.849 353.815 138.829C353.948 138.819 354.144 138.737 354.277 138.727L354.54 138.64C354.607 138.635 354.607 138.635 354.673 138.629L354.869 138.548C355.393 138.374 356.108 138.051 356.602 137.476C357.096 136.901 357.375 136.141 357.314 135.339C357.284 134.938 357.192 134.609 357.1 134.28C356.941 133.956 356.849 133.627 356.629 133.375C356.249 132.799 355.54 132.314 354.857 132.164C354.174 132.014 353.567 131.993 353.033 132.033C352.766 132.054 352.493 132.007 352.226 132.027C352.355 131.95 352.411 131.812 352.53 131.601C352.762 131.113 352.778 130.44 352.778 130.44C352.778 130.44 352.758 130.173 352.666 129.843C352.574 129.514 352.533 128.98 352.431 128.517C352.396 128.049 352.294 127.587 352.335 127.248C352.31 126.914 352.362 126.708 352.357 126.641C352.357 126.641 352.29 126.646 352.285 126.579C351.802 126.414 351.329 126.383 351 126.475C350.923 126.346 350.713 126.228 350.435 126.114C349.876 125.821 349.054 125.614 349.054 125.614C349.054 125.614 348.714 125.572 348.247 125.608C347.774 125.576 347.101 125.56 346.427 125.543C345.754 125.527 345.019 125.583 344.485 125.623C344.418 125.628 344.351 125.633 344.284 125.638C344.279 125.571 344.274 125.504 344.207 125.509L344.202 125.443C345.611 125.404 349.712 125.43 349.712 125.43C349.712 125.43 351.501 125.093 351.434 125.098C352.159 124.909 352.596 124.473 351.425 124.091C350.732 123.807 349.776 123.611 349.776 123.611C349.776 123.611 346.281 123.606 344.606 123.665C344.608 121.918 344.56 115.94 344.56 115.94C344.56 115.94 344.372 114.342 344.265 113.812C345.673 113.773 349.502 113.753 349.502 113.753C349.502 113.753 350.098 113.641 350.561 113.538C350.576 113.739 350.601 114.073 350.632 114.474C350.687 115.209 350.691 116.149 350.695 117.09C350.699 118.03 350.707 119.038 350.696 119.778C350.685 120.518 350.72 120.986 350.72 120.986C350.72 120.986 350.73 121.119 350.817 121.382C350.832 121.582 350.924 121.911 351.011 122.173C351.124 122.77 351.364 123.289 351.364 123.289C351.533 123.747 351.831 124.127 351.965 124.117C352.17 124.169 352.284 123.892 352.362 123.146C352.393 122.674 352.486 122.129 352.523 121.723C352.56 121.317 352.601 120.978 352.601 120.978C352.601 120.978 352.566 120.51 352.577 119.77C352.588 119.03 352.585 118.09 352.576 117.082C352.567 116.075 352.558 115.068 352.497 114.266C352.437 113.464 352.33 112.934 352.33 112.934C352.731 112.904 353.198 112.869 353.671 112.9C354.879 112.876 356.082 112.786 356.015 112.791C356.683 112.74 357.218 112.7 357.613 112.603C357.777 112.993 357.916 113.05 358.071 112.434L358.066 112.367C358.108 112.028 358.211 111.617 358.294 110.938C358.372 110.193 358.445 109.381 358.523 108.636C358.624 109.973 358.785 112.985 358.841 112.846C358.877 113.314 358.974 113.71 358.999 114.044C358.546 114.279 358.099 114.582 357.718 114.88C356.771 115.69 356.117 116.815 355.869 117.976C355.755 118.253 355.714 118.593 355.734 118.86L355.692 119.199C355.697 119.266 355.697 119.266 355.702 119.333L355.671 119.805L355.706 120.273L355.742 120.741C355.742 120.741 355.747 120.808 355.829 121.003C355.839 121.137 355.926 121.399 356.008 121.594C356.182 122.119 356.433 122.772 356.879 123.343C357.643 124.562 358.773 125.283 358.696 125.155C359.615 125.757 360.565 125.887 360.761 125.805C360.828 125.8 360.823 125.733 360.746 125.604C361.152 125.641 361.466 125.349 361.646 125.066C361.708 124.994 361.708 124.994 361.703 124.927L361.68 122.846L361.665 122.646L361.66 122.579L361.593 122.584L361.249 122.475C361.043 122.424 360.771 122.377 360.498 122.33L360.293 122.279C360.226 122.284 360.221 122.217 360.154 122.222C360.082 122.16 360.016 122.165 359.944 122.103C359.661 121.923 359.446 121.738 359.354 121.409C359.262 121.08 359.236 120.746 359.273 120.34C359.413 119.523 359.892 118.747 360.453 118.167C361.081 117.582 361.862 117.255 362.602 117.266C362.669 117.261 362.803 117.251 362.875 117.313C362.942 117.307 363.08 117.364 363.147 117.359C363.286 117.416 363.491 117.468 363.635 117.591C363.984 117.766 364.277 118.08 364.502 118.399C364.954 119.037 365.153 119.896 364.931 120.517C364.879 120.723 364.813 120.728 364.756 120.866C364.694 120.938 364.566 121.015 364.308 121.169C364.118 121.318 363.727 121.482 363.418 121.841C363.3 122.052 363.176 122.195 363.058 122.406C362.939 122.616 362.888 122.822 362.903 123.022C362.866 123.428 362.891 123.762 362.983 124.091C362.999 124.292 363.183 124.95 363.413 125.336L363.731 125.984L363.89 126.308L363.895 126.375L363.957 126.303L364.152 126.221L364.8 125.903C364.996 125.821 365.253 125.667 365.443 125.519C365.958 125.211 366.081 125.067 366.338 124.913C366.524 124.698 366.776 124.477 366.961 124.262C367.399 123.825 367.692 123.265 367.919 122.711C368.146 122.156 368.301 121.54 368.394 120.995C368.483 120.383 368.504 119.777 368.397 119.247C367.997 118.404 367.572 117.227 366.895 116.27ZM325.436 119.871C325.411 119.537 325.38 119.136 325.288 118.807C325.37 119.002 325.38 119.136 325.462 119.331C325.744 120.385 325.686 121.398 325.289 122.369C325.057 122.857 324.82 123.278 324.444 123.642C324.259 123.858 324.068 124.006 323.883 124.222L323.693 124.371L323.6 124.042L323.729 123.965C324.928 122.933 325.48 121.346 325.436 119.871ZM318.188 124.45L318.399 124.569L318.404 124.636L318.392 125.376C318.249 125.252 318.043 125.201 317.899 125.077C317.545 124.835 317.186 124.526 316.888 124.145C316.591 123.765 316.36 123.379 316.268 123.05C316.109 122.726 316.084 122.392 316.064 122.124C316.043 121.857 316.033 121.724 316.033 121.724C316.008 121.389 315.983 121.055 316.025 120.716L316.035 120.85C316.065 121.251 316.162 121.647 316.254 121.976C316.51 122.696 316.895 123.339 317.408 123.905C317.618 124.023 317.906 124.27 318.188 124.45ZM322.517 115.925C322.312 115.873 322.173 115.817 321.967 115.765L321.423 115.672C321.222 115.687 321.089 115.697 320.883 115.645C320.148 115.701 319.485 115.818 318.77 116.141C318.313 116.31 317.865 116.612 317.484 116.91C317.67 116.694 317.86 116.546 318.05 116.397C318.621 115.95 319.336 115.628 320.138 115.567C320.94 115.507 321.752 115.58 322.445 115.863C322.45 115.93 322.517 115.925 322.517 115.925ZM322.107 111.386C322.25 112.384 322.382 113.247 322.526 113.371C322.248 113.257 322.115 113.267 322.115 113.267C322.115 113.267 319.427 113.269 318.286 113.288C318.328 112.949 318.426 112.471 318.514 111.859C318.774 109.958 318.968 107.188 318.968 107.188L318.975 105.508L318.941 104.166L318.935 101.412C320.009 101.398 321.556 101.415 321.556 101.415C321.556 101.415 321.623 101.41 321.751 101.333L321.758 104.088L321.761 105.029L321.801 106.437C321.739 106.509 322.055 111.592 322.107 111.386ZM322.119 88.4032L322.1 90.8238L322.072 92.237C322.072 92.237 322.168 93.5066 322.197 94.7812C322.293 96.0508 322.384 97.2535 322.374 97.1199C322.409 97.5876 322.506 97.9835 322.531 98.3176C322.465 98.3226 322.393 98.2608 322.393 98.2608C322.393 98.2608 321.314 98.208 320.167 98.1601C319.628 98.1337 319.021 98.1123 318.621 98.1425C318.487 98.1526 318.353 98.1627 318.22 98.1728C318.271 97.9673 318.256 97.7668 318.303 97.4945C318.562 95.5933 318.756 92.8234 318.756 92.8234L318.764 91.1429L318.768 88.5218L318.761 85.7671C319.095 85.7418 319.434 85.7835 319.769 85.7582C320.509 85.7695 321.249 85.7808 321.989 85.7922C321.989 85.7922 321.989 85.7922 322.056 85.7871L322.119 88.4032ZM323.713 98.8332C323.502 98.7147 323.363 98.658 323.225 98.6012C323.266 98.2621 323.37 97.8511 323.391 97.2447C323.464 96.4327 323.599 95.549 323.667 94.6702L323.713 98.8332ZM331.659 123.971C331.928 123.077 332.037 121.859 332.037 121.859C332.037 121.859 331.839 116.565 331.765 114.689C333.512 114.692 336.868 114.64 336.868 114.64C336.868 114.64 337.732 114.507 338.261 114.4C338.209 114.606 338.235 114.94 338.193 115.279C338.187 116.086 338.129 117.098 338.205 118.1C338.213 119.108 338.289 120.11 338.345 120.845C338.4 121.58 338.435 122.048 338.435 122.048C338.435 122.048 338.548 122.644 338.66 123.24C338.772 123.837 338.879 124.366 338.874 124.299C338.956 124.495 338.971 124.695 339.048 124.824C338.976 124.762 338.838 124.705 338.632 124.654C337.939 124.37 336.983 124.173 336.983 124.173C336.983 124.173 333.021 124.204 331.474 124.186C331.607 124.176 331.669 124.104 331.659 123.971ZM331.942 131.274C331.942 131.274 331.928 130.2 331.976 129.054C332.002 128.514 332.029 127.975 332.065 127.569C332.055 127.435 332.05 127.368 332.112 127.297L332.179 127.291C332.718 127.318 333.391 127.334 334.127 127.279C335.54 127.306 336.953 127.334 336.953 127.334C336.953 127.334 338.084 127.181 338.48 127.084C338.423 127.223 338.433 127.357 338.433 127.357C338.433 127.357 338.46 130.379 338.489 131.653C338.078 131.55 337.672 131.513 337.672 131.513C337.672 131.513 333.776 131.539 331.962 131.541C331.952 131.408 331.942 131.274 331.942 131.274ZM339.494 136.953C339.309 137.169 338.99 137.395 338.527 137.497C338.332 137.579 338.003 137.671 337.936 137.676C337.802 137.686 337.668 137.696 337.54 137.773C337.273 137.793 337.01 137.88 336.743 137.9C336.743 137.9 336.476 137.921 336.013 138.023C335.545 138.058 334.944 138.103 334.343 138.149C333.135 138.173 331.865 138.269 331.999 138.259C330.997 138.334 330.21 138.595 330.025 138.811L330.02 138.744C329.933 138.482 329.645 138.235 329.435 138.116C329.363 138.055 329.363 138.055 329.296 138.06C328.761 138.1 328.294 138.135 327.893 138.166C327.692 138.181 327.487 138.129 327.487 138.129C327.415 138.067 327.276 138.01 327.199 137.882C326.763 137.444 326.549 136.385 326.832 135.692C326.884 135.487 327.008 135.343 327.064 135.204C327.126 135.132 327.25 134.989 327.445 134.907C327.764 134.681 328.227 134.579 328.694 134.543C329.692 134.401 330.771 134.454 331.973 134.363C333.109 134.277 334.184 134.263 335.319 134.177C335.854 134.137 336.394 134.164 336.933 134.19C337.473 134.216 338.012 134.243 338.423 134.346C338.834 134.45 339.045 134.568 339.271 134.887C339.348 135.016 339.43 135.211 339.512 135.406C339.593 135.602 339.614 135.869 339.696 136.065C339.726 136.465 339.679 136.738 339.494 136.953ZM338.805 126.052L338.743 126.124C338.676 126.129 338.605 126.067 338.605 126.067C338.399 126.015 338.189 125.897 338.05 125.84C338.446 125.743 338.842 125.646 338.842 125.646C338.975 125.636 339.037 125.564 339.171 125.554C338.975 125.636 338.919 125.774 338.805 126.052ZM352.511 134.022C353.051 134.048 353.518 134.013 353.924 134.049C354.33 134.086 354.546 134.271 354.766 134.523C354.987 134.775 355.151 135.166 355.243 135.495C355.36 136.158 355.067 136.718 354.28 136.979C354.085 137.061 353.822 137.148 353.689 137.158L353.293 137.255C353.031 137.342 352.763 137.363 352.496 137.383C352.496 137.383 352.234 137.47 351.766 137.505C351.298 137.54 350.697 137.586 350.096 137.631C348.888 137.655 347.618 137.751 347.757 137.808C346.76 137.95 345.973 138.211 345.788 138.427C345.767 138.16 345.547 137.908 345.336 137.789C345.264 137.727 345.264 137.727 345.198 137.732C344.725 137.701 344.247 137.603 343.769 137.504C343.358 137.401 342.947 137.297 342.665 137.117C342.382 136.937 342.305 136.808 342.285 136.541C342.265 136.274 342.43 135.791 342.539 135.447C342.657 135.236 342.909 135.015 343.295 134.785C343.686 134.621 344.143 134.452 344.606 134.35C345.532 134.145 346.529 134.003 347.603 133.989C348.605 133.913 349.684 133.966 350.692 133.957C351.437 134.036 351.976 134.062 352.511 134.022ZM344.356 129.261C344.311 128.66 344.337 128.12 344.307 127.72C344.374 127.715 344.374 127.715 344.441 127.709C344.908 127.674 345.51 127.629 346.116 127.65C346.723 127.672 347.396 127.688 347.869 127.719C348.341 127.751 348.675 127.726 348.675 127.726C348.675 127.726 349.071 127.629 349.472 127.598C349.868 127.501 350.269 127.471 350.197 127.409L350.264 127.404C350.269 127.471 350.274 127.538 350.279 127.605C350.309 128.005 350.35 128.54 350.452 129.003C350.559 129.532 350.594 130 350.687 130.329C350.779 130.658 350.799 130.925 350.799 130.925C350.799 130.925 350.953 131.182 351.04 131.445C351.193 131.702 351.28 131.964 351.28 131.964C351.28 131.964 351.285 132.031 351.352 132.026C350.659 131.742 349.703 131.546 349.703 131.546C349.703 131.546 345.941 131.561 344.399 131.61C344.389 131.477 344.441 131.271 344.421 131.004C344.313 130.474 344.335 129.868 344.356 129.261ZM342.918 113.78C342.655 114.74 342.483 116.03 342.483 116.03C342.483 116.03 342.565 124.222 342.575 124.356L342.646 124.418C342.857 124.536 343.063 124.588 343.268 124.64C343.283 124.84 343.298 125.041 343.308 125.174C343.18 125.251 343.123 125.39 343.005 125.6C342.706 126.093 342.499 126.915 342.499 126.915C342.499 126.915 342.519 127.183 342.488 127.655C342.518 128.056 342.497 128.663 342.542 129.264C342.582 129.799 342.561 130.405 342.524 130.811C342.488 131.217 342.441 131.489 342.441 131.489L342.513 131.551C342.862 131.726 343.135 131.773 343.407 131.82C343.242 132.302 343.272 132.703 343.359 132.966C343.164 133.047 342.968 133.129 342.773 133.211C342.192 133.524 341.549 133.909 341.198 134.607C341.198 134.607 341.203 134.674 341.137 134.679C341.055 134.484 341.04 134.283 340.896 134.16C340.737 133.836 340.506 133.45 340.152 133.208C340.008 133.084 339.793 132.899 339.587 132.847C339.978 132.683 340.163 132.468 339.948 132.282L340.014 132.277C340.081 132.272 340.081 132.272 340.081 132.272C340.076 132.205 340.057 127.503 340.057 127.503C340.057 127.503 339.746 126.048 339.684 126.12C339.525 125.796 339.371 125.539 339.171 125.554C339.299 125.477 339.428 125.4 339.418 125.266C339.556 125.323 339.737 125.041 339.882 124.291C340.078 123.335 340.183 122.05 340.183 122.05C340.183 122.05 340.148 121.582 340.087 120.781C340.032 120.046 339.956 119.043 339.952 118.103C339.943 117.095 339.939 116.155 339.951 115.415C339.962 114.675 340.06 114.197 340.06 114.197L339.988 114.135C339.773 113.95 339.495 113.837 339.295 113.852C339.285 113.718 339.069 113.533 338.591 113.434C338.453 113.378 338.314 113.321 338.109 113.269C338.782 113.286 339.388 113.307 340.061 113.323L343.022 113.369C343.088 113.364 342.965 113.507 342.918 113.78ZM358.32 96.1525C358.365 96.7538 358.401 97.2216 358.396 97.1548C358.471 98.157 358.604 99.0206 358.814 99.1391C358.886 99.2009 358.886 99.2009 358.948 99.1291C358.953 99.1959 358.958 99.2627 358.963 99.3295C358.963 99.3295 358.963 99.3295 358.896 99.3346L358.834 99.4064C358.783 99.6119 358.731 99.8174 358.746 100.018C358.551 100.1 358.422 100.177 358.299 100.32L358.32 96.1525ZM359.298 124.235L359.504 124.287L359.519 124.488L359.503 125.161C359.359 125.037 359.143 124.852 358.995 124.662C358.702 124.348 358.404 123.967 358.102 123.519C358.102 123.519 358.102 123.519 358.097 123.453C358.246 123.643 358.456 123.761 358.667 123.88C358.81 124.003 358.949 124.06 359.088 124.117C359.16 124.179 359.232 124.24 359.298 124.235ZM363.514 115.987C363.375 115.931 363.17 115.879 363.031 115.822C362.892 115.766 362.692 115.781 362.553 115.724C361.875 115.641 361.212 115.758 360.625 116.004C360.039 116.25 359.458 116.563 359.021 116.999C358.074 117.809 357.42 118.934 357.176 120.162C357.176 120.162 357.176 120.162 357.171 120.095C357.161 119.962 357.151 119.828 357.141 119.694L357.126 119.494L357.121 119.427L357.167 119.155C357.302 118.271 357.643 117.439 358.199 116.792C358.513 116.5 358.826 116.207 359.212 115.976C359.598 115.746 359.989 115.582 360.451 115.48C361.31 115.28 362.246 115.21 363.073 115.483C363.895 115.69 364.675 116.236 365.198 116.935C365.491 117.249 365.727 117.702 365.89 118.093C365.885 118.026 365.814 117.964 365.808 117.897C365.496 117.316 364.993 116.884 364.495 116.518C364.14 116.276 363.858 116.096 363.514 115.987ZM366.116 121.973C365.843 122.8 365.292 123.514 364.592 124.037C364.464 124.114 364.53 124.109 364.464 124.114L364.453 123.98L364.443 123.847C364.438 123.78 364.428 123.646 364.423 123.58C364.413 123.446 364.47 123.307 364.465 123.24C364.522 123.102 364.527 123.169 364.65 123.025C364.779 122.948 365.103 122.789 365.422 122.563C365.741 122.338 366.049 121.978 366.225 121.629C366.281 121.49 366.338 121.352 366.333 121.285C366.22 121.562 366.168 121.768 366.116 121.973Z" fill="#F4774C"/>
</g>
</svg>
