<svg width="629" height="386" viewBox="0 0 629 386" fill="none" xmlns="http://www.w3.org/2000/svg">
<g clip-path="url(#clip0_1065_6312)">
<g filter="url(#filter0_d_1065_6312)">
<rect x="36" y="65" width="430" height="254" rx="4" fill="white"/>
</g>
<path d="M36 69C36 66.7909 37.7909 65 40 65H462C464.209 65 466 66.7909 466 69V99H36V69Z" fill="#3C3A3E"/>
<path d="M36 99H142V319H40C37.7909 319 36 317.209 36 315V99Z" fill="#EDEDED"/>
<path fill-rule="evenodd" clip-rule="evenodd" d="M61.2968 84.7082C61.2968 87.1945 59.8548 88.4391 56.9709 88.4418H51C51 86.0479 54.6847 86.0584 56.2746 86.0629C56.3396 86.0631 56.4012 86.0633 56.4588 86.0633C57.6511 86.0633 58.246 85.5239 58.2435 84.4452C58.2435 83.3612 57.6499 82.8272 56.4588 82.8272H53.0912V80.473H56.4316C57.6227 80.473 58.2124 79.9512 58.2124 78.9156C58.2124 77.8801 57.6149 77.3785 56.4316 77.3785C56.2422 77.3785 56.0276 77.3841 55.7956 77.3902L55.7956 77.3902C53.9467 77.4387 51 77.516 51 75H56.4976C58.0805 75 59.1836 75.2036 59.807 75.6108C60.2754 75.9132 60.6574 76.341 60.9133 76.8497C61.1692 77.3584 61.2896 77.9293 61.2619 78.503C61.2859 79.1828 61.1139 79.8545 60.7681 80.4314C60.4223 81.0082 59.9186 81.4637 59.322 81.7391C60.6334 82.3216 61.2877 83.3194 61.2852 84.7324L61.2968 84.7082ZM100.341 78.6609C101.477 78.8694 102.5 79.5033 103.22 80.4434C103.939 81.3836 104.304 82.5652 104.247 83.7664C104.19 84.9675 103.714 86.1055 102.908 86.9665C102.103 87.8275 101.024 88.3523 99.8737 88.4422C98.7235 88.5322 97.5813 88.1811 96.6618 87.455C95.7423 86.7288 95.1088 85.6776 94.8803 84.4988C94.6517 83.32 94.8439 82.0948 95.4207 81.0533C95.9975 80.0118 96.9193 79.2258 98.0127 78.8429C98.762 78.5811 99.5622 78.5185 100.341 78.6609ZM72.1039 85.6952C72.1039 87.5398 70.9089 88.4607 68.519 88.458H62.7305V78.6123H68.1621C69.4502 78.6123 70.3541 78.7701 70.8779 79.0775C71.2605 79.2842 71.579 79.6001 71.796 79.9883C72.0131 80.3764 72.1199 80.8209 72.1039 81.2699C72.1107 81.7334 71.9901 82.1892 71.7564 82.5835C71.5226 82.9777 71.1855 83.2939 70.7848 83.4947C71.1946 83.6738 71.5419 83.9796 71.7799 84.371C72.0179 84.7623 72.135 85.2202 72.1155 85.6831L72.1039 85.6952ZM69.4346 81.5612C69.4346 80.9423 69.0195 80.6308 68.1854 80.6308H65.2251V82.5199H68.1854C69.0195 82.5199 69.4346 82.2003 69.4346 81.5612ZM69.4346 85.4809C69.4346 84.8377 69.0234 84.5181 68.2009 84.5181H65.2251V86.4436H68.2203C69.0428 86.4436 69.454 86.12 69.454 85.4809H69.4346ZM93.6752 88.458H91.1922V84.5545H87.6073V88.458H85.1165V78.6123H87.6073V82.3864H91.1922V78.6123H93.6752V88.458ZM114.99 88.458H111.638L107.821 83.6808V88.458H105.33V78.6123H107.821V83.341L111.836 78.6123H115.014L110.626 83.43L115.014 88.458H114.99ZM100.209 80.918C99.8684 80.8063 99.5097 80.7687 99.1549 80.8077C98.8001 80.8468 98.4568 80.9615 98.1464 81.1448C97.836 81.3282 97.5651 81.5762 97.3506 81.8734C97.136 82.1706 96.9825 82.5106 96.8995 82.8724C96.8165 83.2342 96.8058 83.6099 96.8681 83.9761C96.9304 84.3424 97.0643 84.6913 97.2615 85.0013C97.4587 85.3112 97.7151 85.5755 98.0145 85.7777C98.3139 85.9799 98.6501 86.1157 99.0021 86.1766C99.3872 86.2573 99.7848 86.2476 100.166 86.1483C100.722 86.002 101.216 85.6683 101.571 85.1992C101.926 84.73 102.122 84.1516 102.129 83.554C102.136 82.9564 101.954 82.3732 101.61 81.895C101.266 81.4168 100.78 81.0705 100.228 80.9099L100.209 80.918ZM79.7547 80.7684C80.3441 81.0675 80.8187 81.5662 81.1012 82.1829C81.3837 82.7995 81.4574 83.4979 81.3101 84.1638C81.1629 84.8298 80.8035 85.424 80.2906 85.8496C79.7777 86.2751 79.1415 86.5068 78.486 86.5068C77.8306 86.5068 77.1944 86.2751 76.6815 85.8496C76.1686 85.424 75.8092 84.8298 75.6619 84.1638C75.5147 83.4979 75.5884 82.7995 75.8709 82.1829C76.1534 81.5662 76.628 81.0675 77.2174 80.7684V78.135C75.9633 78.4581 74.866 79.2487 74.1327 80.3575C73.3993 81.4663 73.0806 82.8167 73.2367 84.1537C73.3928 85.4907 74.0129 86.7219 74.98 87.6148C75.9471 88.5078 77.1942 89.0009 78.486 89.0009C79.7779 89.0009 81.025 88.5078 81.9921 87.6148C82.9592 86.7219 83.5793 85.4907 83.7354 84.1537C83.8915 82.8167 83.5728 81.4663 82.8394 80.3575C82.1061 79.2487 81.0088 78.4581 79.7547 78.135V80.7684ZM77.6046 84.9019C77.974 85.1544 78.424 85.2447 78.8569 85.1532C79.1839 85.0895 79.4854 84.9259 79.7229 84.683C79.9604 84.4401 80.1232 84.1291 80.1906 83.7894C80.258 83.4498 80.2269 83.0969 80.1013 82.7757C79.9758 82.4546 79.7613 82.1796 79.4854 81.9859C79.3181 81.8677 79.1313 81.7827 78.9345 81.7351V77.9651H78.1585V81.7351C77.7275 81.8354 77.3518 82.1091 77.1132 82.4967C76.8746 82.8842 76.7924 83.3543 76.8844 83.8047C76.9765 84.2551 77.2353 84.6494 77.6046 84.9019Z" fill="white"/>
<path fill-rule="evenodd" clip-rule="evenodd" d="M142 181.5V259V259.5L142 288H140V259.5L36 259.5V259L140 259L140 181.5L36 181.5V181L140 181V99H142V181V181.5ZM46 121C46 119.895 46.8954 119 48 119H124C125.105 119 126 119.895 126 121C126 122.105 125.105 123 124 123H48C46.8954 123 46 122.105 46 121ZM48 197C46.8954 197 46 197.895 46 199C46 200.105 46.8954 201 48 201H124C125.105 201 126 200.105 126 199C126 197.895 125.105 197 124 197H48ZM46 135C46 133.895 46.8954 133 48 133H104C105.105 133 106 133.895 106 135C106 136.105 105.105 137 104 137H48C46.8954 137 46 136.105 46 135ZM48 211C46.8954 211 46 211.895 46 213C46 214.105 46.8954 215 48 215H104C105.105 215 106 214.105 106 213C106 211.895 105.105 211 104 211H48ZM46 149C46 147.895 46.8954 147 48 147H113C114.105 147 115 147.895 115 149C115 150.105 114.105 151 113 151H48C46.8954 151 46 150.105 46 149ZM48 225C46.8954 225 46 225.895 46 227C46 228.105 46.8954 229 48 229H113C114.105 229 115 228.105 115 227C115 225.895 114.105 225 113 225H48ZM46 163C46 161.895 46.8954 161 48 161H91C92.1046 161 93 161.895 93 163C93 164.105 92.1046 165 91 165H48C46.8954 165 46 164.105 46 163ZM48 239C46.8954 239 46 239.895 46 241C46 242.105 46.8954 243 48 243H91C92.1046 243 93 242.105 93 241C93 239.895 92.1046 239 91 239H48ZM46 277C46 275.895 46.8954 275 48 275H104C105.105 275 106 275.895 106 277C106 278.105 105.105 279 104 279H48C46.8954 279 46 278.105 46 277ZM142 295L36 295V295.5L142 295.5V295Z" fill="#CBCBCB"/>
<path d="M178.089 128H180.036L176.44 123.253L179.887 119.273H177.94L174.838 122.861H174.441V119.273H172.86V128H174.441V124.186H175.217L178.089 128Z" fill="#3C3A3E"/>
<path d="M182.926 128.132C183.953 128.132 184.566 127.651 184.848 127.101H184.899V128H186.382V123.619C186.382 121.889 184.971 121.369 183.723 121.369C182.346 121.369 181.289 121.983 180.948 123.176L182.389 123.381C182.542 122.933 182.977 122.55 183.731 122.55C184.447 122.55 184.839 122.916 184.839 123.56V123.585C184.839 124.028 184.375 124.05 183.22 124.173C181.95 124.31 180.735 124.689 180.735 126.163C180.735 127.45 181.677 128.132 182.926 128.132ZM183.326 126.999C182.683 126.999 182.223 126.705 182.223 126.138C182.223 125.546 182.738 125.298 183.429 125.2C183.833 125.145 184.643 125.043 184.843 124.881V125.652C184.843 126.381 184.255 126.999 183.326 126.999Z" fill="#3C3A3E"/>
<path d="M191.7 126.206L189.808 121.455H187.933V128H189.42V123.59L191.163 128H192.241L194.044 123.543V128H195.518V121.455H193.643L191.7 126.206Z" fill="#3C3A3E"/>
<path d="M197.073 128H198.548V122.72H201.113V128H202.6V121.455H197.073V128Z" fill="#3C3A3E"/>
<path d="M206.07 128.132C207.097 128.132 207.711 127.651 207.992 127.101H208.043V128H209.526V123.619C209.526 121.889 208.116 121.369 206.867 121.369C205.491 121.369 204.434 121.983 204.093 123.176L205.533 123.381C205.687 122.933 206.121 122.55 206.876 122.55C207.592 122.55 207.984 122.916 207.984 123.56V123.585C207.984 124.028 207.519 124.05 206.364 124.173C205.094 124.31 203.88 124.689 203.88 126.163C203.88 127.45 204.822 128.132 206.07 128.132ZM206.471 126.999C205.827 126.999 205.367 126.705 205.367 126.138C205.367 125.546 205.883 125.298 206.573 125.2C206.978 125.145 207.788 125.043 207.988 124.881V125.652C207.988 126.381 207.4 126.999 206.471 126.999Z" fill="#3C3A3E"/>
<path d="M212.565 121.455H211.077V128H212.565V125.354H215.1V128H216.583V121.455H215.1V124.088H212.565V121.455Z" fill="#3C3A3E"/>
<path d="M219.631 125.912V121.455H218.144V128H219.733L222.345 123.538V128H223.837V121.455H222.252L219.631 125.912Z" fill="#3C3A3E"/>
<path d="M226.908 125.912V121.455H225.421V128H227.011L229.623 123.538V128H231.114V121.455H229.529L226.908 125.912Z" fill="#3C3A3E"/>
<path d="M241.326 127.063L239.706 124.446L241.326 121.83H239.936L238.215 124.386V124.506L239.936 127.063H241.326ZM238.726 127.063L237.107 124.446L238.726 121.83H237.337L235.615 124.386V124.506L237.337 127.063H238.726Z" fill="#3C3A3E"/>
<path d="M243.626 128L244.346 125.848H247.627L248.351 128H250.039L246.962 119.273H245.011L241.938 128H243.626ZM244.772 124.578L245.952 121.063H246.021L247.201 124.578H244.772Z" fill="#3C3A3E"/>
<path d="M251.12 128H254.291C255.825 128 256.703 127.305 256.703 126.223C256.703 125.307 255.991 124.668 254.964 124.578C255.838 124.416 256.383 123.952 256.383 123.215C256.383 122.111 255.416 121.455 253.869 121.455H251.12V128ZM252.565 126.786V125.162H254.291C254.858 125.162 255.203 125.49 255.203 126.031C255.203 126.5 254.858 126.786 254.291 126.786H252.565ZM252.565 124.165V122.69H253.869C254.512 122.69 254.904 122.963 254.904 123.411C254.904 123.879 254.525 124.165 253.899 124.165H252.565Z" fill="#3C3A3E"/>
<path d="M257.618 122.72H259.736V128H261.227V122.72H263.345V121.455H257.618V122.72Z" fill="#3C3A3E"/>
<path d="M267.159 128.128C269.077 128.128 270.295 126.777 270.295 124.753C270.295 122.725 269.077 121.369 267.159 121.369C265.241 121.369 264.023 122.725 264.023 124.753C264.023 126.777 265.241 128.128 267.159 128.128ZM267.168 126.892C266.106 126.892 265.587 125.946 265.587 124.749C265.587 123.551 266.106 122.592 267.168 122.592C268.212 122.592 268.731 123.551 268.731 124.749C268.731 125.946 268.212 126.892 267.168 126.892Z" fill="#3C3A3E"/>
<path d="M275.372 126.206L273.48 121.455H271.605V128H273.092V123.59L274.835 128H275.913L277.715 123.543V128H279.19V121.455H277.315L275.372 126.206Z" fill="#3C3A3E"/>
<path d="M282.629 128.132C283.656 128.132 284.269 127.651 284.551 127.101H284.602V128H286.085V123.619C286.085 121.889 284.674 121.369 283.426 121.369C282.049 121.369 280.992 121.983 280.652 123.176L282.092 123.381C282.245 122.933 282.68 122.55 283.434 122.55C284.15 122.55 284.542 122.916 284.542 123.56V123.585C284.542 124.028 284.078 124.05 282.923 124.173C281.653 124.31 280.438 124.689 280.438 126.163C280.438 127.45 281.38 128.132 282.629 128.132ZM283.029 126.999C282.386 126.999 281.926 126.705 281.926 126.138C281.926 125.546 282.441 125.298 283.132 125.2C283.536 125.145 284.346 125.043 284.546 124.881V125.652C284.546 126.381 283.958 126.999 283.029 126.999Z" fill="#3C3A3E"/>
<path d="M286.903 122.72H289.021V128H290.512V122.72H292.63V121.455H286.903V122.72Z" fill="#3C3A3E"/>
<path d="M295.346 125.912V121.455H293.859V128H295.448L298.06 123.538V128H299.552V121.455H297.967L295.346 125.912Z" fill="#3C3A3E"/>
<path d="M306.603 121.455H305.12V124.651C304.745 124.744 304.375 124.796 303.97 124.796C303.058 124.796 302.61 124.472 302.61 123.628V121.446H301.136V123.628C301.136 125.298 302.223 126.061 303.97 126.061C304.353 126.061 304.754 126.01 305.12 125.925V128H306.603V121.455Z" fill="#3C3A3E"/>
<path d="M311.053 128.128C312.579 128.128 313.627 127.382 313.9 126.244L312.459 126.082C312.251 126.636 311.739 126.926 311.074 126.926C310.077 126.926 309.417 126.27 309.404 125.149H313.964V124.676C313.964 122.379 312.583 121.369 310.972 121.369C309.097 121.369 307.874 122.746 307.874 124.766C307.874 126.82 309.08 128.128 311.053 128.128ZM309.408 124.109C309.455 123.274 310.073 122.571 310.994 122.571C311.88 122.571 312.476 123.219 312.485 124.109H309.408Z" fill="#3C3A3E"/>
<path d="M318.124 128.128C319.769 128.128 320.817 127.152 320.928 125.763H319.453C319.321 126.466 318.814 126.871 318.137 126.871C317.174 126.871 316.551 126.065 316.551 124.727C316.551 123.406 317.186 122.614 318.137 122.614C318.878 122.614 319.334 123.091 319.453 123.722H320.928C320.821 122.303 319.713 121.369 318.115 121.369C316.198 121.369 314.987 122.754 314.987 124.753C314.987 126.734 316.168 128.128 318.124 128.128Z" fill="#3C3A3E"/>
<path d="M322.195 128H323.737V125.533H324.491L326.285 128H328.152L325.702 124.668L328.126 121.455H326.268L324.3 124.097H323.737V121.455H322.195V128Z" fill="#3C3A3E"/>
<path d="M330.514 125.912V121.455H329.027V128H330.616L333.228 123.538V128H334.72V121.455H333.135L330.514 125.912Z" fill="#3C3A3E"/>
<path d="M337.791 125.912V121.455H336.304V128H337.893L340.506 123.538V128H341.997V121.455H340.412L337.791 125.912ZM339.99 119.205C339.986 119.622 339.747 119.993 339.146 119.993C338.537 119.993 338.307 119.614 338.307 119.205H337.16C337.156 120.202 337.927 120.875 339.146 120.875C340.374 120.875 341.145 120.202 341.145 119.205H339.99Z" fill="#3C3A3E"/>
<path d="M349.413 128.128C351.331 128.128 352.549 126.777 352.549 124.753C352.549 122.725 351.331 121.369 349.413 121.369C347.495 121.369 346.277 122.725 346.277 124.753C346.277 126.777 347.495 128.128 349.413 128.128ZM349.421 126.892C348.36 126.892 347.84 125.946 347.84 124.749C347.84 123.551 348.36 122.592 349.421 122.592C350.465 122.592 350.985 123.551 350.985 124.749C350.985 125.946 350.465 126.892 349.421 126.892Z" fill="#3C3A3E"/>
<path d="M359.104 119.034C358.789 119.273 358.29 119.269 357.613 119.269C357.421 119.269 357.221 119.269 357.003 119.273C354.749 119.303 353.59 120.803 353.59 123.879V124.467C353.59 126.862 354.8 128.128 356.705 128.128C358.61 128.128 359.812 126.858 359.812 124.838C359.812 122.878 358.67 121.749 357.046 121.749C356.049 121.749 355.295 122.179 354.886 122.98H354.813C354.967 121.348 355.58 120.611 357.046 120.577C358.346 120.547 359.074 120.526 359.641 120.031L359.104 119.034ZM356.714 126.892C355.746 126.892 355.154 126.117 355.154 124.881C355.167 123.662 355.751 122.963 356.705 122.963C357.66 122.963 358.248 123.662 358.248 124.881C358.248 126.121 357.664 126.892 356.714 126.892Z" fill="#3C3A3E"/>
<path d="M360.762 126.206C360.8 127.421 361.913 128.128 363.425 128.128C364.976 128.128 366.097 127.391 366.097 126.185C366.097 125.303 365.496 124.698 364.721 124.651V124.582C365.471 124.382 365.948 123.913 365.948 123.206C365.948 122.102 364.994 121.369 363.459 121.369C362.028 121.369 360.949 122.111 360.928 123.253H362.449C362.467 122.814 362.918 122.507 363.532 122.507C364.146 122.507 364.516 122.835 364.516 123.321C364.516 123.769 364.175 124.101 363.536 124.101H362.535V125.196H363.536C364.18 125.196 364.601 125.558 364.601 126.087C364.601 126.683 364.077 126.973 363.417 126.973C362.765 126.973 362.322 126.692 362.292 126.206H360.762Z" fill="#3C3A3E"/>
<path d="M367.312 128H370.482C372.016 128 372.894 127.305 372.894 126.223C372.894 125.307 372.182 124.668 371.155 124.578C372.029 124.416 372.574 123.952 372.574 123.215C372.574 122.111 371.607 121.455 370.06 121.455H367.312V128ZM368.756 126.786V125.162H370.482C371.049 125.162 371.394 125.49 371.394 126.031C371.394 126.5 371.049 126.786 370.482 126.786H368.756ZM368.756 124.165V122.69H370.06C370.704 122.69 371.096 122.963 371.096 123.411C371.096 123.879 370.717 124.165 370.09 124.165H368.756Z" fill="#3C3A3E"/>
<path d="M377.022 128.128C378.94 128.128 380.159 126.777 380.159 124.753C380.159 122.725 378.94 121.369 377.022 121.369C375.105 121.369 373.886 122.725 373.886 124.753C373.886 126.777 375.105 128.128 377.022 128.128ZM377.031 126.892C375.97 126.892 375.45 125.946 375.45 124.749C375.45 123.551 375.97 122.592 377.031 122.592C378.075 122.592 378.595 123.551 378.595 124.749C378.595 125.946 378.075 126.892 377.031 126.892Z" fill="#3C3A3E"/>
<path d="M382.955 121.455H381.468V128H382.955V125.354H385.491V128H386.974V121.455H385.491V124.088H382.955V121.455Z" fill="#3C3A3E"/>
<path d="M391.04 127.063H392.429L394.151 124.506V124.386L392.429 121.83H391.04L392.659 124.446L391.04 127.063ZM388.415 127.063H389.804L391.526 124.506V124.386L389.804 121.83H388.415L390.034 124.446L388.415 127.063Z" fill="#3C3A3E"/>
<path fill-rule="evenodd" clip-rule="evenodd" d="M436 138H172V137H436V138ZM172 159C172 157.895 172.895 157 174 157H238C239.105 157 240 157.895 240 159C240 160.105 239.105 161 238 161H174C172.895 161 172 160.105 172 159ZM172 183C172 181.895 172.895 181 174 181H238C239.105 181 240 181.895 240 183C240 184.105 239.105 185 238 185H174C172.895 185 172 184.105 172 183ZM174 205C172.895 205 172 205.895 172 207C172 208.105 172.895 209 174 209H238C239.105 209 240 208.105 240 207C240 205.895 239.105 205 238 205H174ZM172 231C172 229.895 172.895 229 174 229H238C239.105 229 240 229.895 240 231C240 232.105 239.105 233 238 233H174C172.895 233 172 232.105 172 231ZM174 253C172.895 253 172 253.895 172 255C172 256.105 172.895 257 174 257H238C239.105 257 240 256.105 240 255C240 253.895 239.105 253 238 253H174ZM283 159C283 157.895 283.895 157 285 157H314C315.105 157 316 157.895 316 159C316 160.105 315.105 161 314 161H285C283.895 161 283 160.105 283 159ZM285 181C283.895 181 283 181.895 283 183C283 184.105 283.895 185 285 185H314C315.105 185 316 184.105 316 183C316 181.895 315.105 181 314 181H285ZM283 207C283 205.895 283.895 205 285 205H314C315.105 205 316 205.895 316 207C316 208.105 315.105 209 314 209H285C283.895 209 283 208.105 283 207ZM285 229C283.895 229 283 229.895 283 231C283 232.105 283.895 233 285 233H314C315.105 233 316 232.105 316 231C316 229.895 315.105 229 314 229H285ZM283 255C283 253.895 283.895 253 285 253H314C315.105 253 316 253.895 316 255C316 256.105 315.105 257 314 257H285C283.895 257 283 256.105 283 255ZM330 157C328.895 157 328 157.895 328 159C328 160.105 328.895 161 330 161H434C435.105 161 436 160.105 436 159C436 157.895 435.105 157 434 157H330ZM328 183C328 181.895 328.895 181 330 181H434C435.105 181 436 181.895 436 183C436 184.105 435.105 185 434 185H330C328.895 185 328 184.105 328 183ZM330 205C328.895 205 328 205.895 328 207C328 208.105 328.895 209 330 209H434C435.105 209 436 208.105 436 207C436 205.895 435.105 205 434 205H330ZM328 231C328 229.895 328.895 229 330 229H434C435.105 229 436 229.895 436 231C436 232.105 435.105 233 434 233H330C328.895 233 328 232.105 328 231ZM330 253C328.895 253 328 253.895 328 255C328 256.105 328.895 257 330 257H434C435.105 257 436 256.105 436 255C436 253.895 435.105 253 434 253H330ZM172 171H436V170.5H172V171ZM436 195H172V194.5H436V195ZM172 219H436V218.5H172V219ZM436 243H172V242.5H436V243ZM172 267H436V266.5H172V267Z" fill="#E6E6E6"/>
<g filter="url(#filter1_d_1065_6312)">
<rect x="293" y="24" width="289" height="167" rx="9" fill="white"/>
</g>
<path d="M316.294 55.1052H317.811V53.0001H323.372V55.0967H324.889V51.7089H323.918V44.2728H318.339L318.109 47.9632C317.969 50.3154 317.47 51.2401 316.878 51.7089H316.294V55.1052ZM318.719 51.7089C319.183 50.9461 319.52 49.7487 319.626 47.9632L319.763 45.5981H322.4V51.7089H318.719Z" fill="#3C3A3E"/>
<path d="M328.964 53.1279C330.882 53.1279 332.1 51.7771 332.1 49.7529C332.1 47.7245 330.882 46.3694 328.964 46.3694C327.046 46.3694 325.828 47.7245 325.828 49.7529C325.828 51.7771 327.046 53.1279 328.964 53.1279ZM328.973 51.8921C327.911 51.8921 327.392 50.9461 327.392 49.7487C327.392 48.5512 327.911 47.5924 328.973 47.5924C330.017 47.5924 330.536 48.5512 330.536 49.7487C330.536 50.9461 330.017 51.8921 328.973 51.8921Z" fill="#3C3A3E"/>
<path d="M338.655 44.0342C338.34 44.2728 337.842 44.2686 337.164 44.2686C336.972 44.2686 336.772 44.2686 336.555 44.2728C334.3 44.3026 333.141 45.8026 333.141 48.8794V49.4674C333.141 51.8623 334.351 53.1279 336.256 53.1279C338.161 53.1279 339.363 51.858 339.363 49.8382C339.363 47.8779 338.221 46.7487 336.597 46.7487C335.6 46.7487 334.846 47.1791 334.437 47.9802H334.364C334.518 46.3481 335.131 45.6109 336.597 45.5768C337.897 45.547 338.626 45.5257 339.192 45.0313L338.655 44.0342ZM336.265 51.8921C335.297 51.8921 334.705 51.1166 334.705 49.8808C334.718 48.662 335.302 47.9632 336.256 47.9632C337.211 47.9632 337.799 48.662 337.799 49.8808C337.799 51.1208 337.215 51.8921 336.265 51.8921Z" fill="#3C3A3E"/>
<path d="M342.559 53.1322C343.586 53.1322 344.199 52.6507 344.481 52.1009H344.532V53.0001H346.015V48.6194C346.015 46.8893 344.604 46.3694 343.356 46.3694C341.979 46.3694 340.922 46.983 340.582 48.1762L342.022 48.3808C342.175 47.9333 342.61 47.5498 343.364 47.5498C344.08 47.5498 344.472 47.9163 344.472 48.5597V48.5853C344.472 49.0285 344.008 49.0498 342.853 49.1734C341.583 49.3097 340.369 49.689 340.369 51.1634C340.369 52.4504 341.31 53.1322 342.559 53.1322ZM342.959 51.9987C342.316 51.9987 341.856 51.7046 341.856 51.1379C341.856 50.5455 342.371 50.2984 343.062 50.2004C343.467 50.145 344.276 50.0427 344.476 49.8808V50.6521C344.476 51.3808 343.888 51.9987 342.959 51.9987Z" fill="#3C3A3E"/>
<path d="M347.566 53.0001H350.736C352.271 53.0001 353.148 52.3055 353.148 51.2231C353.148 50.3069 352.437 49.6677 351.41 49.5782C352.283 49.4163 352.829 48.9518 352.829 48.2146C352.829 47.1109 351.861 46.4546 350.315 46.4546H347.566V53.0001ZM349.011 51.7856V50.162H350.736C351.303 50.162 351.648 50.4901 351.648 51.0313C351.648 51.5001 351.303 51.7856 350.736 51.7856H349.011ZM349.011 49.1649V47.6904H350.315C350.958 47.6904 351.35 47.9632 351.35 48.4106C351.35 48.8794 350.971 49.1649 350.344 49.1649H349.011Z" fill="#3C3A3E"/>
<path d="M355.909 50.912V46.4546H354.421V53.0001H356.011L358.623 48.5384V53.0001H360.115V46.4546H358.529L355.909 50.912Z" fill="#3C3A3E"/>
<path d="M360.966 47.7203H363.084V53.0001H364.575V47.7203H366.693V46.4546H360.966V47.7203Z" fill="#3C3A3E"/>
<path d="M369.409 48.5853V46.4546H367.921V53.0001H370.896C372.562 53.0001 373.521 52.0796 373.525 50.7927C373.521 49.4717 372.562 48.5853 370.896 48.5853H369.409ZM369.409 49.8509H370.896C371.565 49.8509 372.046 50.2472 372.046 50.814C372.046 51.3552 371.565 51.7345 370.896 51.7345H369.409V49.8509Z" fill="#3C3A3E"/>
<path d="M377.466 47.7203H379.584V53.0001H381.075V47.7203H383.193V46.4546H377.466V47.7203Z" fill="#3C3A3E"/>
<path d="M387.05 53.1279C388.575 53.1279 389.623 52.3822 389.896 51.2444L388.456 51.0825C388.247 51.6365 387.736 51.9262 387.071 51.9262C386.074 51.9262 385.413 51.27 385.4 50.1492H389.96V49.6762C389.96 47.3794 388.579 46.3694 386.969 46.3694C385.094 46.3694 383.871 47.7458 383.871 49.7657C383.871 51.8197 385.077 53.1279 387.05 53.1279ZM385.405 49.1095C385.452 48.2742 386.07 47.5711 386.99 47.5711C387.876 47.5711 388.473 48.2188 388.481 49.1095H385.405Z" fill="#3C3A3E"/>
<path d="M390.813 53.0001H391.291C392.697 53.0001 393.332 52.0115 393.434 49.8296L393.536 47.7203H395.416V53.0001H396.907V46.4546H392.134L392.019 49.3524C391.947 51.189 391.708 51.7302 391.031 51.7302H390.805L390.813 53.0001Z" fill="#3C3A3E"/>
<path d="M401.358 53.1279C402.884 53.1279 403.932 52.3822 404.205 51.2444L402.764 51.0825C402.556 51.6365 402.044 51.9262 401.38 51.9262C400.382 51.9262 399.722 51.27 399.709 50.1492H404.269V49.6762C404.269 47.3794 402.888 46.3694 401.277 46.3694C399.402 46.3694 398.179 47.7458 398.179 49.7657C398.179 51.8197 399.385 53.1279 401.358 53.1279ZM399.713 49.1095C399.76 48.2742 400.378 47.5711 401.299 47.5711C402.185 47.5711 402.782 48.2188 402.79 49.1095H399.713Z" fill="#3C3A3E"/>
<path d="M408.544 55.2245H410.091V53.1279C412.017 53.1279 413.342 51.7643 413.342 49.7529C413.342 47.7373 412.017 46.3694 410.091 46.3694V44.2728H408.544V46.3694C406.618 46.3694 405.293 47.7373 405.293 49.7529C405.293 51.7643 406.618 53.1279 408.544 53.1279V55.2245ZM408.544 51.8836C407.453 51.8836 406.869 50.9205 406.869 49.7529C406.869 48.5853 407.445 47.6137 408.544 47.6137V51.8836ZM410.091 51.8836V47.6137C411.19 47.6137 411.761 48.5853 411.761 49.7529C411.761 50.9205 411.19 51.8836 410.091 51.8836Z" fill="#3C3A3E"/>
<path d="M417.499 53.1279C419.417 53.1279 420.636 51.7771 420.636 49.7529C420.636 47.7245 419.417 46.3694 417.499 46.3694C415.582 46.3694 414.363 47.7245 414.363 49.7529C414.363 51.7771 415.582 53.1279 417.499 53.1279ZM417.508 51.8921C416.447 51.8921 415.927 50.9461 415.927 49.7487C415.927 48.5512 416.447 47.5924 417.508 47.5924C418.552 47.5924 419.072 48.5512 419.072 49.7487C419.072 50.9461 418.552 51.8921 417.508 51.8921Z" fill="#3C3A3E"/>
<path d="M423.432 46.4546H421.945V53.0001H423.432V50.3538H425.968V53.0001H427.451V46.4546H425.968V49.0882H423.432V46.4546Z" fill="#3C3A3E"/>
<path d="M430.498 46.4546H429.011V53.0001H430.498V50.3538H433.034V53.0001H434.517V46.4546H433.034V49.0882H430.498V46.4546Z" fill="#3C3A3E"/>
<path d="M437.565 48.5853V46.4546H436.078V53.0001H439.052C440.718 53.0001 441.677 52.0796 441.681 50.7927C441.677 49.4717 440.718 48.5853 439.052 48.5853H437.565ZM442.495 53.0001H444.038V46.4546H442.495V53.0001ZM437.565 49.8509H439.052C439.721 49.8509 440.203 50.2472 440.203 50.814C440.203 51.3552 439.721 51.7345 439.052 51.7345H437.565V49.8509Z" fill="#3C3A3E"/>
<path d="M447.116 50.912V46.4546H445.628V53.0001H447.218L449.83 48.5384V53.0001H451.322V46.4546H449.736L447.116 50.912ZM449.315 44.2046C449.31 44.6222 449.072 44.993 448.471 44.993C447.861 44.993 447.631 44.6137 447.631 44.2046H446.485C446.481 45.2018 447.252 45.8751 448.471 45.8751C449.698 45.8751 450.469 45.2018 450.469 44.2046H449.315Z" fill="#3C3A3E"/>
<path d="M458.737 53.1279C460.382 53.1279 461.431 52.1521 461.541 50.7629H460.067C459.935 51.466 459.428 51.8708 458.75 51.8708C457.787 51.8708 457.165 51.0654 457.165 49.7274C457.165 48.4063 457.8 47.6137 458.75 47.6137C459.492 47.6137 459.948 48.091 460.067 48.7217H461.541C461.435 47.3026 460.327 46.3694 458.729 46.3694C456.811 46.3694 455.601 47.7544 455.601 49.7529C455.601 51.7345 456.782 53.1279 458.737 53.1279Z" fill="#3C3A3E"/>
<path d="M462.808 53.0001H464.283V47.7203H466.848V53.0001H468.335V46.4546H462.808V53.0001Z" fill="#3C3A3E"/>
<path d="M471.409 50.912V46.4546H469.921V53.0001H471.511L474.123 48.5384V53.0001H475.615V46.4546H474.029L471.409 50.912Z" fill="#3C3A3E"/>
<path d="M480.054 53.1279C481.699 53.1279 482.747 52.1521 482.858 50.7629H481.383C481.251 51.466 480.744 51.8708 480.067 51.8708C479.104 51.8708 478.481 51.0654 478.481 49.7274C478.481 48.4063 479.116 47.6137 480.067 47.6137C480.808 47.6137 481.264 48.091 481.383 48.7217H482.858C482.751 47.3026 481.643 46.3694 480.045 46.3694C478.128 46.3694 476.918 47.7544 476.918 49.7529C476.918 51.7345 478.098 53.1279 480.054 53.1279Z" fill="#3C3A3E"/>
<path d="M486.98 53.1279C488.897 53.1279 490.116 51.7771 490.116 49.7529C490.116 47.7245 488.897 46.3694 486.98 46.3694C485.062 46.3694 483.843 47.7245 483.843 49.7529C483.843 51.7771 485.062 53.1279 486.98 53.1279ZM486.988 51.8921C485.927 51.8921 485.407 50.9461 485.407 49.7487C485.407 48.5512 485.927 47.5924 486.988 47.5924C488.032 47.5924 488.552 48.5512 488.552 49.7487C488.552 50.9461 488.032 51.8921 486.988 51.8921Z" fill="#3C3A3E"/>
<path d="M491.425 53.0001H492.968V50.5328H493.722L495.516 53.0001H497.383L494.932 49.6677L497.357 46.4546H495.499L493.53 49.0967H492.968V46.4546H491.425V53.0001Z" fill="#3C3A3E"/>
<path fill-rule="evenodd" clip-rule="evenodd" d="M325 97C323.895 97 323 97.8954 323 99C323 100.105 323.895 101 325 101H481C482.105 101 483 100.105 483 99C483 97.8954 482.105 97 481 97H325ZM325 107C323.895 107 323 107.895 323 109C323 110.105 323.895 111 325 111H425C426.105 111 427 110.105 427 109C427 107.895 426.105 107 425 107H325Z" fill="#E6E6E6"/>
<path d="M316.646 75.9996H319.295C320.794 75.9996 321.529 75.2357 321.529 74.2162C321.529 73.2254 320.826 72.6437 320.129 72.6086V72.5447C320.768 72.3944 321.273 71.947 321.273 71.1512C321.273 70.1764 320.57 69.4541 319.151 69.4541H316.646V75.9996ZM317.831 75.0088V73.0912H319.138C319.87 73.0912 320.324 73.5386 320.324 74.1235C320.324 74.6444 319.966 75.0088 319.106 75.0088H317.831ZM317.831 72.2378V70.4321H319.03C319.726 70.4321 320.088 70.7996 320.088 71.3046C320.088 71.8799 319.621 72.2378 319.004 72.2378H317.831Z" fill="#838383"/>
<path d="M324.651 76.0954C325.884 76.0954 326.671 75.3635 326.754 74.3216H325.648C325.549 74.849 325.169 75.1526 324.66 75.1526C323.938 75.1526 323.471 74.5486 323.471 73.545C323.471 72.5542 323.948 71.9598 324.66 71.9598C325.216 71.9598 325.558 72.3177 325.648 72.7907H326.754C326.674 71.7265 325.843 71.0265 324.644 71.0265C323.206 71.0265 322.298 72.0653 322.298 73.5642C322.298 75.0503 323.184 76.0954 324.651 76.0954Z" fill="#838383"/>
<path d="M327.356 72.0397H328.945V75.9996H330.063V72.0397H331.652V71.0905H327.356V72.0397Z" fill="#838383"/>
<path d="M333.783 76.0986C334.554 76.0986 335.014 75.7375 335.225 75.3252H335.263V75.9996H336.375V72.714C336.375 71.4165 335.317 71.0265 334.381 71.0265C333.349 71.0265 332.556 71.4868 332.3 72.3817L333.381 72.5351C333.496 72.1995 333.822 71.9118 334.387 71.9118C334.924 71.9118 335.218 72.1867 335.218 72.6693V72.6885C335.218 73.0209 334.87 73.0368 334.004 73.1295C333.051 73.2318 332.141 73.5162 332.141 74.6221C332.141 75.5873 332.847 76.0986 333.783 76.0986ZM334.084 75.2485C333.601 75.2485 333.256 75.028 333.256 74.6029C333.256 74.1586 333.643 73.9733 334.161 73.8998C334.464 73.8582 335.071 73.7815 335.222 73.6601V74.2385C335.222 74.7851 334.781 75.2485 334.084 75.2485Z" fill="#838383"/>
<path d="M337.539 75.9996H339.917C341.067 75.9996 341.725 75.4786 341.725 74.6668C341.725 73.9797 341.192 73.5003 340.422 73.4332C341.077 73.3117 341.486 72.9633 341.486 72.4104C341.486 71.5827 340.76 71.0905 339.6 71.0905H337.539V75.9996ZM338.622 75.0887V73.871H339.917C340.342 73.871 340.6 74.1171 340.6 74.523C340.6 74.8746 340.342 75.0887 339.917 75.0887H338.622ZM338.622 73.1231V72.0173H339.6C340.083 72.0173 340.377 72.2219 340.377 72.5574C340.377 72.909 340.092 73.1231 339.623 73.1231H338.622Z" fill="#838383"/>
<path d="M343.796 72.6885V71.0905H342.68V75.9996H344.911C346.161 75.9996 346.88 75.3092 346.883 74.344C346.88 73.3532 346.161 72.6885 344.911 72.6885H343.796ZM343.796 73.6377H344.911C345.413 73.6377 345.774 73.9349 345.774 74.36C345.774 74.7659 345.413 75.0503 344.911 75.0503H343.796V73.6377Z" fill="#838383"/>
<path d="M347.096 72.0397H348.685V75.9996H349.803V72.0397H351.392V71.0905H347.096V72.0397Z" fill="#838383"/>
<path d="M354.284 76.0954C355.428 76.0954 356.215 75.5361 356.419 74.6828L355.339 74.5613C355.182 74.9768 354.799 75.1942 354.3 75.1942C353.552 75.1942 353.057 74.702 353.047 73.8614H356.467V73.5067C356.467 71.784 355.432 71.0265 354.224 71.0265C352.817 71.0265 351.9 72.0589 351.9 73.5738C351.9 75.1143 352.805 76.0954 354.284 76.0954ZM353.051 73.0816C353.086 72.4552 353.549 71.9278 354.24 71.9278C354.904 71.9278 355.352 72.4136 355.358 73.0816H353.051Z" fill="#838383"/>
<path d="M360.794 71.0905H359.678V75.9996H360.794V74.0148H362.695V75.9996H363.808V71.0905H362.695V73.0656H360.794V71.0905Z" fill="#838383"/>
<path d="M365.521 77.8405C366.423 77.8405 366.944 77.377 367.222 76.594L369.194 71.0969L367.957 71.0905L366.822 74.7979H366.771L365.64 71.0905H364.412L366.193 76.1018L366.094 76.3671C365.879 76.9264 365.541 76.9648 365.036 76.8177L364.767 77.719C364.924 77.7829 365.205 77.8405 365.521 77.8405Z" fill="#838383"/>
<path d="M369.677 75.9996H371.042L372.445 74.018H372.701V75.9996H373.858V74.018H374.113L375.51 75.9996H376.875L375.072 73.4651L376.859 71.0905H375.523L374.126 73.0688H373.858V71.0905H372.701V73.0688H372.426L371.029 71.0905H369.693L371.489 73.4651L369.677 75.9996Z" fill="#838383"/>
<path d="M378.855 71.0905H377.74V75.9996H378.855V74.0148H380.757V75.9996H381.869V71.0905H380.757V73.0656H378.855V71.0905Z" fill="#838383"/>
<path d="M384.155 72.6885V71.0905H383.04V75.9996H385.271C386.52 75.9996 387.239 75.3092 387.242 74.344C387.239 73.3532 386.52 72.6885 385.271 72.6885H384.155ZM387.853 75.9996H389.01V71.0905H387.853V75.9996ZM384.155 73.6377H385.271C385.772 73.6377 386.133 73.9349 386.133 74.36C386.133 74.7659 385.772 75.0503 385.271 75.0503H384.155V73.6377Z" fill="#838383"/>
<path d="M392.376 76.0954C393.52 76.0954 394.306 75.5361 394.511 74.6828L393.431 74.5613C393.274 74.9768 392.891 75.1942 392.392 75.1942C391.644 75.1942 391.149 74.702 391.139 73.8614H394.559V73.5067C394.559 71.784 393.523 71.0265 392.315 71.0265C390.909 71.0265 389.992 72.0589 389.992 73.5738C389.992 75.1143 390.896 76.0954 392.376 76.0954ZM391.142 73.0816C391.178 72.4552 391.641 71.9278 392.331 71.9278C392.996 71.9278 393.444 72.4136 393.45 73.0816H391.142Z" fill="#838383"/>
<path d="M398.886 71.0905H397.77V75.9996H398.886V74.0148H400.787V75.9996H401.899V71.0905H400.787V73.0656H398.886V71.0905Z" fill="#838383"/>
<path d="M405.211 76.0954C406.65 76.0954 407.564 75.0823 407.564 73.5642C407.564 72.0429 406.65 71.0265 405.211 71.0265C403.773 71.0265 402.859 72.0429 402.859 73.5642C402.859 75.0823 403.773 76.0954 405.211 76.0954ZM405.218 75.1686C404.422 75.1686 404.032 74.4591 404.032 73.561C404.032 72.6629 404.422 71.9438 405.218 71.9438C406.001 71.9438 406.391 72.6629 406.391 73.561C406.391 74.4591 406.001 75.1686 405.218 75.1686Z" fill="#838383"/>
<path d="M411.371 74.654L409.952 71.0905H408.546V75.9996H409.661V72.6917L410.968 75.9996H411.777L413.129 72.6565V75.9996H414.234V71.0905H412.828L411.371 74.654Z" fill="#838383"/>
<path d="M417.574 76.0954C418.718 76.0954 419.505 75.5361 419.709 74.6828L418.629 74.5613C418.472 74.9768 418.089 75.1942 417.59 75.1942C416.842 75.1942 416.347 74.702 416.337 73.8614H419.757V73.5067C419.757 71.784 418.722 71.0265 417.514 71.0265C416.107 71.0265 415.19 72.0589 415.19 73.5738C415.19 75.1143 416.095 76.0954 417.574 76.0954ZM416.341 73.0816C416.376 72.4552 416.839 71.9278 417.53 71.9278C418.194 71.9278 418.642 72.4136 418.648 73.0816H416.341Z" fill="#838383"/>
<path d="M420.736 77.8405H421.893V75.2261H421.941C422.123 75.5841 422.503 76.0858 423.347 76.0858C424.504 76.0858 425.37 75.1686 425.37 73.5514C425.37 71.915 424.479 71.0265 423.344 71.0265C422.478 71.0265 422.117 71.5475 421.941 71.9023H421.874V71.0905H420.736V77.8405ZM421.871 73.545C421.871 72.5926 422.28 71.9758 423.024 71.9758C423.795 71.9758 424.191 72.6309 424.191 73.545C424.191 74.4655 423.788 75.1366 423.024 75.1366C422.286 75.1366 421.871 74.4974 421.871 73.545Z" fill="#838383"/>
<path d="M427.774 76.0986C428.544 76.0986 429.004 75.7375 429.215 75.3252H429.253V75.9996H430.366V72.714C430.366 71.4165 429.308 71.0265 428.371 71.0265C427.339 71.0265 426.546 71.4868 426.291 72.3817L427.371 72.5351C427.486 72.1995 427.812 71.9118 428.378 71.9118C428.915 71.9118 429.209 72.1867 429.209 72.6693V72.6885C429.209 73.0209 428.86 73.0368 427.994 73.1295C427.042 73.2318 426.131 73.5162 426.131 74.6221C426.131 75.5873 426.837 76.0986 427.774 76.0986ZM428.074 75.2485C427.591 75.2485 427.246 75.028 427.246 74.6029C427.246 74.1586 427.633 73.9733 428.151 73.8998C428.454 73.8582 429.062 73.7815 429.212 73.6601V74.2385C429.212 74.7851 428.771 75.2485 428.074 75.2485Z" fill="#838383"/>
<path d="M316.643 137.455V144H317.697L320.781 139.542H320.836V144H322.021V137.455H320.96L317.879 141.916H317.822V137.455H316.643Z" fill="#838383"/>
<path d="M322.927 144H323.285C324.339 144 324.816 143.259 324.892 141.622L324.969 140.04H326.378V144H327.497V139.091H323.918L323.831 141.264C323.777 142.642 323.598 143.048 323.09 143.048H322.92L322.927 144Z" fill="#838383"/>
<path d="M329.777 142.434V139.091H328.662V144H329.854L331.813 140.654V144H332.932V139.091H331.743L329.777 142.434Z" fill="#838383"/>
<path d="M336.081 142.655C336.11 143.566 336.944 144.096 338.078 144.096C339.242 144.096 340.082 143.543 340.082 142.639C340.082 141.977 339.632 141.523 339.05 141.488V141.437C339.612 141.287 339.97 140.935 339.97 140.405C339.97 139.577 339.254 139.027 338.104 139.027C337.03 139.027 336.221 139.583 336.205 140.44H337.346C337.359 140.111 337.698 139.881 338.158 139.881C338.618 139.881 338.896 140.127 338.896 140.491C338.896 140.827 338.641 141.076 338.161 141.076H337.41V141.897H338.161C338.644 141.897 338.96 142.169 338.96 142.565C338.96 143.013 338.567 143.23 338.072 143.23C337.583 143.23 337.251 143.019 337.228 142.655H336.081Z" fill="#838383"/>
<path d="M342.406 144.099C343.176 144.099 343.636 143.738 343.847 143.326H343.885V144H344.998V140.715C344.998 139.417 343.94 139.027 343.003 139.027C341.971 139.027 341.178 139.487 340.923 140.382L342.003 140.536C342.118 140.2 342.444 139.912 343.01 139.912C343.547 139.912 343.841 140.187 343.841 140.67V140.689C343.841 141.021 343.492 141.037 342.626 141.13C341.674 141.232 340.763 141.517 340.763 142.623C340.763 143.588 341.469 144.099 342.406 144.099ZM342.706 143.249C342.224 143.249 341.878 143.029 341.878 142.604C341.878 142.159 342.265 141.974 342.783 141.9C343.086 141.859 343.694 141.782 343.844 141.661V142.239C343.844 142.786 343.403 143.249 342.706 143.249Z" fill="#838383"/>
<path d="M349.408 139.091H346.161V144H347.292V140.04H349.408V139.091Z" fill="#838383"/>
<path d="M350.336 145.841H351.493V143.227H351.541C351.723 143.585 352.103 144.086 352.947 144.086C354.104 144.086 354.97 143.169 354.97 141.552C354.97 139.916 354.078 139.027 352.944 139.027C352.078 139.027 351.717 139.548 351.541 139.903H351.474V139.091H350.336V145.841ZM351.47 141.546C351.47 140.593 351.88 139.976 352.624 139.976C353.394 139.976 353.791 140.632 353.791 141.546C353.791 142.466 353.388 143.137 352.624 143.137C351.886 143.137 351.47 142.498 351.47 141.546Z" fill="#838383"/>
<path d="M356.513 145.841C357.414 145.841 357.935 145.378 358.213 144.595L360.185 139.097L358.948 139.091L357.814 142.798H357.763L356.631 139.091H355.404L357.184 144.102L357.085 144.368C356.871 144.927 356.532 144.965 356.027 144.818L355.759 145.72C355.915 145.784 356.197 145.841 356.513 145.841Z" fill="#838383"/>
<path d="M360.717 142.655C360.745 143.566 361.579 144.096 362.714 144.096C363.877 144.096 364.718 143.543 364.718 142.639C364.718 141.977 364.267 141.523 363.686 141.488V141.437C364.248 141.287 364.606 140.935 364.606 140.405C364.606 139.577 363.89 139.027 362.74 139.027C361.666 139.027 360.857 139.583 360.841 140.44H361.982C361.995 140.111 362.334 139.881 362.794 139.881C363.254 139.881 363.532 140.127 363.532 140.491C363.532 140.827 363.277 141.076 362.797 141.076H362.046V141.897H362.797C363.28 141.897 363.596 142.169 363.596 142.565C363.596 143.013 363.203 143.23 362.708 143.23C362.219 143.23 361.886 143.019 361.864 142.655H360.717Z" fill="#838383"/>
<path d="M366.744 142.434V139.091H365.629V144H366.821L368.78 140.654V144H369.899V139.091H368.71L366.744 142.434Z" fill="#838383"/>
<path d="M370.537 140.04H372.126V144H373.244V140.04H374.833V139.091H370.537V140.04Z" fill="#838383"/>
<path d="M377.725 144.096C378.869 144.096 379.655 143.537 379.86 142.683L378.78 142.562C378.623 142.977 378.24 143.195 377.741 143.195C376.993 143.195 376.498 142.703 376.488 141.862H379.908V141.507C379.908 139.785 378.872 139.027 377.664 139.027C376.258 139.027 375.341 140.059 375.341 141.574C375.341 143.115 376.245 144.096 377.725 144.096ZM376.491 141.082C376.526 140.456 376.99 139.928 377.68 139.928C378.345 139.928 378.792 140.414 378.799 141.082H376.491Z" fill="#838383"/>
<path d="M387.22 139.091H386.107V141.488C385.826 141.558 385.548 141.597 385.244 141.597C384.56 141.597 384.225 141.354 384.225 140.721V139.085H383.119V140.721C383.119 141.974 383.934 142.546 385.244 142.546C385.532 142.546 385.832 142.508 386.107 142.444V144H387.22V139.091Z" fill="#838383"/>
<path d="M390.557 144.096C391.701 144.096 392.487 143.537 392.692 142.683L391.612 142.562C391.455 142.977 391.072 143.195 390.573 143.195C389.825 143.195 389.33 142.703 389.32 141.862H392.74V141.507C392.74 139.785 391.704 139.027 390.496 139.027C389.09 139.027 388.173 140.059 388.173 141.574C388.173 143.115 389.077 144.096 390.557 144.096ZM389.323 141.082C389.358 140.456 389.822 139.928 390.512 139.928C391.177 139.928 391.624 140.414 391.631 141.082H389.323Z" fill="#838383"/>
<path d="M393.719 145.841H394.876V143.227H394.924C395.106 143.585 395.486 144.086 396.33 144.086C397.487 144.086 398.353 143.169 398.353 141.552C398.353 139.916 397.461 139.027 396.327 139.027C395.46 139.027 395.099 139.548 394.924 139.903H394.856V139.091H393.719V145.841ZM394.853 141.546C394.853 140.593 395.262 139.976 396.007 139.976C396.777 139.976 397.174 140.632 397.174 141.546C397.174 142.466 396.771 143.137 396.007 143.137C395.269 143.137 394.853 142.498 394.853 141.546Z" fill="#838383"/>
<path d="M401.517 144.096C402.661 144.096 403.447 143.537 403.652 142.683L402.572 142.562C402.415 142.977 402.032 143.195 401.533 143.195C400.785 143.195 400.29 142.703 400.28 141.862H403.7V141.507C403.7 139.785 402.664 139.027 401.456 139.027C400.05 139.027 399.133 140.059 399.133 141.574C399.133 143.115 400.037 144.096 401.517 144.096ZM400.283 141.082C400.318 140.456 400.782 139.928 401.472 139.928C402.137 139.928 402.584 140.414 402.591 141.082H400.283Z" fill="#838383"/>
<path d="M404.407 142.655C404.436 143.566 405.27 144.096 406.404 144.096C407.568 144.096 408.408 143.543 408.408 142.639C408.408 141.977 407.958 141.523 407.376 141.488V141.437C407.939 141.287 408.297 140.935 408.297 140.405C408.297 139.577 407.581 139.027 406.43 139.027C405.356 139.027 404.548 139.583 404.532 140.44H405.673C405.685 140.111 406.024 139.881 406.484 139.881C406.945 139.881 407.223 140.127 407.223 140.491C407.223 140.827 406.967 141.076 406.488 141.076H405.737V141.897H406.488C406.97 141.897 407.287 142.169 407.287 142.565C407.287 143.013 406.893 143.23 406.398 143.23C405.909 143.23 405.577 143.019 405.554 142.655H404.407Z" fill="#838383"/>
<path d="M412.594 137.455H411.235L413.278 140.727L411.21 144H412.578L414.035 141.619H414.086L415.544 144H416.918L414.869 140.727L416.886 137.455H415.534L414.086 139.852H414.035L412.594 137.455Z" fill="#838383"/>
<path d="M417.817 144H421.885V143.006H419.002V137.455H417.817V144Z" fill="#838383"/>
<path d="M426.472 139.254H427.612C427.59 138.148 426.647 137.365 425.254 137.365C423.88 137.365 422.847 138.139 422.85 139.296C422.85 140.235 423.518 140.775 424.595 141.053L425.34 141.245C426.046 141.424 426.513 141.645 426.516 142.153C426.513 142.712 425.983 143.086 425.209 143.086C424.468 143.086 423.892 142.754 423.844 142.067H422.678C422.726 143.367 423.694 144.099 425.219 144.099C426.788 144.099 427.699 143.316 427.702 142.162C427.699 141.028 426.762 140.51 425.778 140.277L425.164 140.123C424.627 139.996 424.046 139.769 424.052 139.222C424.055 138.73 424.496 138.369 425.238 138.369C425.944 138.369 426.411 138.698 426.472 139.254Z" fill="#838383"/>
<path d="M432.056 142.434V139.091H430.94V144H432.132L434.092 140.654V144H435.21V139.091H434.021L432.056 142.434Z" fill="#838383"/>
<path d="M436.06 144H436.418C437.472 144 437.948 143.259 438.025 141.622L438.102 140.04H439.511V144H440.63V139.091H437.05L436.964 141.264C436.91 142.642 436.731 143.048 436.223 143.048H436.053L436.06 144Z" fill="#838383"/>
<path d="M442.91 142.434V139.091H441.795V144H442.987L444.946 140.654V144H446.065V139.091H444.876L442.91 142.434Z" fill="#838383"/>
<path d="M455.139 139.663C454.938 138.209 453.819 137.365 452.368 137.365C450.658 137.365 449.37 138.612 449.37 140.727C449.37 142.84 450.642 144.09 452.368 144.09C453.925 144.09 454.957 143.083 455.139 141.833L453.944 141.827C453.794 142.594 453.167 143.025 452.384 143.025C451.323 143.025 450.562 142.23 450.562 140.727C450.562 139.251 451.317 138.43 452.387 138.43C453.183 138.43 453.806 138.88 453.944 139.663H455.139Z" fill="#838383"/>
<path d="M459.782 139.254H460.923C460.901 138.148 459.958 137.365 458.564 137.365C457.19 137.365 456.158 138.139 456.161 139.296C456.161 140.235 456.829 140.775 457.906 141.053L458.651 141.245C459.357 141.424 459.824 141.645 459.827 142.153C459.824 142.712 459.293 143.086 458.52 143.086C457.778 143.086 457.203 142.754 457.155 142.067H455.988C456.036 143.367 457.005 144.099 458.529 144.099C460.098 144.099 461.009 143.316 461.013 142.162C461.009 141.028 460.073 140.51 459.089 140.277L458.475 140.123C457.938 139.996 457.356 139.769 457.363 139.222C457.366 138.73 457.807 138.369 458.548 138.369C459.255 138.369 459.721 138.698 459.782 139.254Z" fill="#838383"/>
<path d="M462.945 137.455H461.645L463.949 144H465.413L467.72 137.455H466.416L464.716 142.607H464.649L462.945 137.455Z" fill="#838383"/>
<path d="M345.637 161.455H344.278L346.321 164.727L344.253 168H345.621L347.078 165.619H347.129L348.587 168H349.961L347.912 164.727L349.929 161.455H348.577L347.129 163.852H347.078L345.637 161.455Z" fill="#838383"/>
<path d="M350.86 168H354.928V167.006H352.046V161.455H350.86V168Z" fill="#838383"/>
<path d="M359.515 163.254H360.656C360.633 162.148 359.691 161.365 358.297 161.365C356.923 161.365 355.89 162.139 355.894 163.296C355.894 164.235 356.562 164.775 357.639 165.053L358.383 165.245C359.09 165.424 359.556 165.645 359.559 166.153C359.556 166.712 359.026 167.086 358.252 167.086C357.511 167.086 356.936 166.754 356.888 166.067H355.721C355.769 167.367 356.737 168.099 358.262 168.099C359.831 168.099 360.742 167.316 360.745 166.162C360.742 165.028 359.806 164.51 358.821 164.277L358.208 164.123C357.671 163.996 357.089 163.769 357.095 163.222C357.099 162.73 357.54 162.369 358.281 162.369C358.987 162.369 359.454 162.698 359.515 163.254Z" fill="#838383"/>
<path d="M420.248 163.663C420.047 162.209 418.928 161.365 417.477 161.365C415.767 161.365 414.479 162.612 414.479 164.727C414.479 166.84 415.752 168.09 417.477 168.09C419.034 168.09 420.066 167.083 420.248 165.833L419.053 165.827C418.903 166.594 418.276 167.025 417.493 167.025C416.432 167.025 415.672 166.23 415.672 164.727C415.672 163.251 416.426 162.43 417.497 162.43C418.292 162.43 418.916 162.88 419.053 163.663H420.248Z" fill="#838383"/>
<path d="M424.891 163.254H426.032C426.01 162.148 425.067 161.365 423.674 161.365C422.299 161.365 421.267 162.139 421.27 163.296C421.27 164.235 421.938 164.775 423.015 165.053L423.76 165.245C424.466 165.424 424.933 165.645 424.936 166.153C424.933 166.712 424.402 167.086 423.629 167.086C422.887 167.086 422.312 166.754 422.264 166.067H421.098C421.146 167.367 422.114 168.099 423.638 168.099C425.208 168.099 426.119 167.316 426.122 166.162C426.119 165.028 425.182 164.51 424.198 164.277L423.584 164.123C423.047 163.996 422.466 163.769 422.472 163.222C422.475 162.73 422.916 162.369 423.658 162.369C424.364 162.369 424.831 162.698 424.891 163.254Z" fill="#838383"/>
<path d="M428.055 161.455H426.754L429.058 168H430.522L432.829 161.455H431.525L429.825 166.607H429.758L428.055 161.455Z" fill="#838383"/>
<rect x="316.5" y="87.5" width="242" height="33" rx="2.5" stroke="#E6E6E6"/>
<rect x="316" y="155" width="23" height="19" rx="3" fill="#F4774C"/>
<rect x="386" y="155" width="23" height="19" rx="3" fill="#F4774C"/>
<path d="M323 167.781H332V169H323V167.781ZM329.156 160H325.844V163.725H323.774L327.5 167.194L331.226 163.725H329.156V160Z" fill="white"/>
<path d="M393 167.781H402V169H393V167.781ZM399.156 160H395.844V163.725H393.774L397.5 167.194L401.226 163.725H399.156V160Z" fill="white"/>
<g filter="url(#filter2_d_1065_6312)">
<rect x="293" y="210" width="289" height="150" rx="9" fill="white"/>
</g>
<path d="M316.478 231.598H319.175V239H320.743V231.598H323.441V230.272H316.478V231.598Z" fill="#3C3A3E"/>
<path d="M326.663 239.128C328.189 239.128 329.237 238.382 329.51 237.244L328.07 237.082C327.861 237.636 327.349 237.926 326.685 237.926C325.687 237.926 325.027 237.27 325.014 236.149H329.574V235.676C329.574 233.379 328.193 232.369 326.582 232.369C324.707 232.369 323.484 233.745 323.484 235.765C323.484 237.819 324.69 239.128 326.663 239.128ZM325.018 235.109C325.065 234.274 325.683 233.571 326.604 233.571C327.49 233.571 328.087 234.218 328.095 235.109H325.018Z" fill="#3C3A3E"/>
<path d="M330.427 239H330.904C332.311 239 332.946 238.011 333.048 235.829L333.15 233.72H335.029V239H336.521V232.454H331.748L331.633 235.352C331.561 237.189 331.322 237.73 330.644 237.73H330.419L330.427 239Z" fill="#3C3A3E"/>
<path d="M340.972 239.128C342.497 239.128 343.546 238.382 343.818 237.244L342.378 237.082C342.169 237.636 341.658 237.926 340.993 237.926C339.996 237.926 339.335 237.27 339.323 236.149H343.882V235.676C343.882 233.379 342.502 232.369 340.891 232.369C339.016 232.369 337.793 233.745 337.793 235.765C337.793 237.819 338.999 239.128 340.972 239.128ZM339.327 235.109C339.374 234.274 339.992 233.571 340.912 233.571C341.799 233.571 342.395 234.218 342.404 235.109H339.327Z" fill="#3C3A3E"/>
<path d="M348.158 241.224H349.704V239.128C351.631 239.128 352.956 237.764 352.956 235.753C352.956 233.737 351.631 232.369 349.704 232.369V230.272H348.158V232.369C346.231 232.369 344.906 233.737 344.906 235.753C344.906 237.764 346.231 239.128 348.158 239.128V241.224ZM348.158 237.883C347.067 237.883 346.483 236.92 346.483 235.753C346.483 234.585 347.058 233.613 348.158 233.613V237.883ZM349.704 237.883V233.613C350.804 233.613 351.375 234.585 351.375 235.753C351.375 236.92 350.804 237.883 349.704 237.883Z" fill="#3C3A3E"/>
<path d="M357.113 239.128C359.03 239.128 360.249 237.777 360.249 235.753C360.249 233.724 359.03 232.369 357.113 232.369C355.195 232.369 353.976 233.724 353.976 235.753C353.976 237.777 355.195 239.128 357.113 239.128ZM357.121 237.892C356.06 237.892 355.54 236.946 355.54 235.748C355.54 234.551 356.06 233.592 357.121 233.592C358.165 233.592 358.685 234.551 358.685 235.748C358.685 236.946 358.165 237.892 357.121 237.892Z" fill="#3C3A3E"/>
<path d="M363.046 232.454H361.559V239H363.046V236.353H365.581V239H367.064V232.454H365.581V235.088H363.046V232.454Z" fill="#3C3A3E"/>
<path d="M370.112 232.454H368.625V239H370.112V236.353H372.648V239H374.131V232.454H372.648V235.088H370.112V232.454Z" fill="#3C3A3E"/>
<path d="M377.179 234.585V232.454H375.691V239H378.666C380.332 239 381.291 238.079 381.295 236.792C381.291 235.471 380.332 234.585 378.666 234.585H377.179ZM382.109 239H383.652V232.454H382.109V239ZM377.179 235.851H378.666C379.335 235.851 379.816 236.247 379.816 236.814C379.816 237.355 379.335 237.734 378.666 237.734H377.179V235.851Z" fill="#3C3A3E"/>
<path d="M388.14 239.128C389.665 239.128 390.714 238.382 390.986 237.244L389.546 237.082C389.337 237.636 388.826 237.926 388.161 237.926C387.164 237.926 386.503 237.27 386.491 236.149H391.05V235.676C391.05 233.379 389.67 232.369 388.059 232.369C386.184 232.369 384.961 233.745 384.961 235.765C384.961 237.819 386.167 239.128 388.14 239.128ZM386.495 235.109C386.542 234.274 387.16 233.571 388.08 233.571C388.967 233.571 389.563 234.218 389.572 235.109H386.495Z" fill="#3C3A3E"/>
<path d="M396.819 232.454H395.332V239H396.819V236.353H399.355V239H400.838V232.454H399.355V235.088H396.819V232.454Z" fill="#3C3A3E"/>
<path d="M405.253 239.128C407.171 239.128 408.39 237.777 408.39 235.753C408.39 233.724 407.171 232.369 405.253 232.369C403.336 232.369 402.117 233.724 402.117 235.753C402.117 237.777 403.336 239.128 405.253 239.128ZM405.262 237.892C404.201 237.892 403.681 236.946 403.681 235.748C403.681 234.551 404.201 233.592 405.262 233.592C406.306 233.592 406.826 234.551 406.826 235.748C406.826 236.946 406.306 237.892 405.262 237.892Z" fill="#3C3A3E"/>
<path d="M413.466 237.206L411.574 232.454H409.699V239H411.186V234.589L412.929 239H414.007L415.81 234.542V239H417.284V232.454H415.409L413.466 237.206Z" fill="#3C3A3E"/>
<path d="M421.737 239.128C423.263 239.128 424.311 238.382 424.584 237.244L423.144 237.082C422.935 237.636 422.424 237.926 421.759 237.926C420.762 237.926 420.101 237.27 420.088 236.149H424.648V235.676C424.648 233.379 423.267 232.369 421.657 232.369C419.782 232.369 418.559 233.745 418.559 235.765C418.559 237.819 419.764 239.128 421.737 239.128ZM420.093 235.109C420.139 234.274 420.757 233.571 421.678 233.571C422.564 233.571 423.161 234.218 423.169 235.109H420.093Z" fill="#3C3A3E"/>
<path d="M425.953 241.454H427.496V237.968H427.56C427.802 238.446 428.31 239.115 429.435 239.115C430.977 239.115 432.132 237.892 432.132 235.736C432.132 233.554 430.943 232.369 429.43 232.369C428.275 232.369 427.794 233.064 427.56 233.537H427.47V232.454H425.953V241.454ZM427.466 235.727C427.466 234.457 428.011 233.635 429.004 233.635C430.031 233.635 430.56 234.508 430.56 235.727C430.56 236.954 430.023 237.849 429.004 237.849C428.02 237.849 427.466 236.997 427.466 235.727Z" fill="#3C3A3E"/>
<path d="M435.337 239.132C436.364 239.132 436.977 238.65 437.258 238.101H437.31V239H438.793V234.619C438.793 232.889 437.382 232.369 436.133 232.369C434.757 232.369 433.7 232.983 433.359 234.176L434.8 234.38C434.953 233.933 435.388 233.549 436.142 233.549C436.858 233.549 437.25 233.916 437.25 234.559V234.585C437.25 235.028 436.785 235.049 435.631 235.173C434.361 235.309 433.146 235.689 433.146 237.163C433.146 238.45 434.088 239.132 435.337 239.132ZM435.737 237.998C435.094 237.998 434.633 237.704 434.633 237.138C434.633 236.545 435.149 236.298 435.839 236.2C436.244 236.145 437.054 236.042 437.254 235.88V236.652C437.254 237.38 436.666 237.998 435.737 237.998Z" fill="#3C3A3E"/>
<path d="M317.831 274.454H316.646V281H317.831V274.454Z" fill="#838383"/>
<path d="M321.333 281C323.328 281 324.51 279.766 324.51 277.72C324.51 275.681 323.328 274.454 321.378 274.454H319.115V281H321.333ZM320.301 279.974V275.48H321.311C322.64 275.48 323.334 276.222 323.334 277.72C323.334 279.226 322.64 279.974 321.276 279.974H320.301Z" fill="#838383"/>
<path d="M328.933 276.09H327.818V281H328.933V279.015H330.835V281H331.947V276.09H330.835V278.066H328.933V276.09Z" fill="#838383"/>
<path d="M335.259 281.095C336.697 281.095 337.611 280.082 337.611 278.564C337.611 277.043 336.697 276.027 335.259 276.027C333.821 276.027 332.907 277.043 332.907 278.564C332.907 280.082 333.821 281.095 335.259 281.095ZM335.266 280.169C334.47 280.169 334.08 279.459 334.08 278.561C334.08 277.663 334.47 276.944 335.266 276.944C336.049 276.944 336.438 277.663 336.438 278.561C336.438 279.459 336.049 280.169 335.266 280.169Z" fill="#838383"/>
<path d="M341.419 279.654L340 276.09H338.593V281H339.709V277.692L341.016 281H341.825L343.176 277.657V281H344.282V276.09H342.876L341.419 279.654Z" fill="#838383"/>
<path d="M347.622 281.095C348.766 281.095 349.553 280.536 349.757 279.683L348.677 279.561C348.52 279.977 348.137 280.194 347.638 280.194C346.89 280.194 346.395 279.702 346.385 278.861H349.805V278.507C349.805 276.784 348.77 276.027 347.561 276.027C346.155 276.027 345.238 277.059 345.238 278.574C345.238 280.114 346.142 281.095 347.622 281.095ZM346.388 278.082C346.424 277.455 346.887 276.928 347.577 276.928C348.242 276.928 348.69 277.414 348.696 278.082H346.388Z" fill="#838383"/>
<path d="M350.784 282.84H351.941V280.226H351.989C352.171 280.584 352.551 281.086 353.395 281.086C354.552 281.086 355.418 280.169 355.418 278.551C355.418 276.915 354.526 276.027 353.392 276.027C352.526 276.027 352.165 276.547 351.989 276.902H351.922V276.09H350.784V282.84ZM351.918 278.545C351.918 277.593 352.328 276.976 353.072 276.976C353.842 276.976 354.239 277.631 354.239 278.545C354.239 279.465 353.836 280.137 353.072 280.137C352.334 280.137 351.918 279.497 351.918 278.545Z" fill="#838383"/>
<path d="M357.821 281.099C358.592 281.099 359.052 280.737 359.263 280.325H359.301V281H360.413V277.714C360.413 276.416 359.356 276.027 358.419 276.027C357.387 276.027 356.594 276.487 356.339 277.382L357.419 277.535C357.534 277.199 357.86 276.912 358.426 276.912C358.962 276.912 359.256 277.187 359.256 277.669V277.688C359.256 278.021 358.908 278.037 358.042 278.13C357.09 278.232 356.179 278.516 356.179 279.622C356.179 280.587 356.885 281.099 357.821 281.099ZM358.122 280.248C357.639 280.248 357.294 280.028 357.294 279.603C357.294 279.159 357.681 278.973 358.199 278.9C358.502 278.858 359.109 278.782 359.26 278.66V279.239C359.26 279.785 358.819 280.248 358.122 280.248Z" fill="#838383"/>
<path d="M316.841 293.454V295.589C316.841 297.066 317.79 297.68 319.295 297.68C319.772 297.68 320.34 297.616 320.769 297.51V300H321.935V293.454H320.769V296.542C320.334 296.641 319.733 296.702 319.295 296.702C318.436 296.702 318.001 296.417 318.001 295.589V293.454H316.841Z" fill="#838383"/>
<path d="M324.74 300.099C325.51 300.099 325.97 299.738 326.181 299.326H326.22V300H327.332V296.714C327.332 295.417 326.274 295.027 325.337 295.027C324.305 295.027 323.513 295.487 323.257 296.382L324.337 296.535C324.452 296.2 324.778 295.912 325.344 295.912C325.881 295.912 326.175 296.187 326.175 296.67V296.689C326.175 297.021 325.826 297.037 324.96 297.13C324.008 297.232 323.097 297.517 323.097 298.622C323.097 299.588 323.803 300.099 324.74 300.099ZM325.04 299.249C324.558 299.249 324.212 299.028 324.212 298.603C324.212 298.159 324.599 297.974 325.117 297.9C325.421 297.859 326.028 297.782 326.178 297.66V298.239C326.178 298.785 325.737 299.249 325.04 299.249Z" fill="#838383"/>
<path d="M330.636 300.096C331.87 300.096 332.656 299.364 332.739 298.322H331.634C331.535 298.849 331.154 299.153 330.646 299.153C329.924 299.153 329.457 298.549 329.457 297.545C329.457 296.555 329.933 295.96 330.646 295.96C331.202 295.96 331.544 296.318 331.634 296.791H332.739C332.66 295.727 331.829 295.027 330.63 295.027C329.192 295.027 328.284 296.066 328.284 297.565C328.284 299.051 329.169 300.096 330.636 300.096Z" fill="#838383"/>
<path d="M335.831 300.096C337.269 300.096 338.183 299.083 338.183 297.565C338.183 296.043 337.269 295.027 335.831 295.027C334.393 295.027 333.479 296.043 333.479 297.565C333.479 299.083 334.393 300.096 335.831 300.096ZM335.837 299.169C335.041 299.169 334.651 298.459 334.651 297.561C334.651 296.663 335.041 295.944 335.837 295.944C336.62 295.944 337.01 296.663 337.01 297.561C337.01 298.459 336.62 299.169 335.837 299.169Z" fill="#838383"/>
<path d="M339.165 300H341.543C342.693 300 343.352 299.479 343.352 298.667C343.352 297.98 342.818 297.501 342.048 297.434C342.703 297.312 343.112 296.964 343.112 296.411C343.112 295.583 342.387 295.091 341.226 295.091H339.165V300ZM340.248 299.089V297.871H341.543C341.968 297.871 342.227 298.117 342.227 298.523C342.227 298.875 341.968 299.089 341.543 299.089H340.248ZM340.248 297.123V296.018H341.226C341.709 296.018 342.003 296.222 342.003 296.558C342.003 296.909 341.719 297.123 341.249 297.123H340.248Z" fill="#838383"/>
<path d="M346.448 300.096C347.886 300.096 348.8 299.083 348.8 297.565C348.8 296.043 347.886 295.027 346.448 295.027C345.01 295.027 344.096 296.043 344.096 297.565C344.096 299.083 345.01 300.096 346.448 300.096ZM346.454 299.169C345.659 299.169 345.269 298.459 345.269 297.561C345.269 296.663 345.659 295.944 346.454 295.944C347.237 295.944 347.627 296.663 347.627 297.561C347.627 298.459 347.237 299.169 346.454 299.169Z" fill="#838383"/>
<path d="M350.898 298.434V295.091H349.782V300H350.974L352.934 296.654V300H354.052V295.091H352.863L350.898 298.434ZM352.547 293.403C352.544 293.717 352.365 293.995 351.914 293.995C351.457 293.995 351.284 293.71 351.284 293.403H350.425C350.421 294.151 351 294.656 351.914 294.656C352.834 294.656 353.413 294.151 353.413 293.403H352.547Z" fill="#838383"/>
<path d="M357.473 300H358.578V296.04H360.502V300H361.618V295.091H357.473V300Z" fill="#838383"/>
<path d="M364.949 300.096C366.387 300.096 367.301 299.083 367.301 297.565C367.301 296.043 366.387 295.027 364.949 295.027C363.511 295.027 362.597 296.043 362.597 297.565C362.597 299.083 363.511 300.096 364.949 300.096ZM364.955 299.169C364.16 299.169 363.77 298.459 363.77 297.561C363.77 296.663 364.16 295.944 364.955 295.944C365.738 295.944 366.128 296.663 366.128 297.561C366.128 298.459 365.738 299.169 364.955 299.169Z" fill="#838383"/>
<path d="M371.185 300H372.269V295.091H370.137C368.935 295.091 368.191 295.708 368.194 296.65C368.191 297.271 368.529 297.74 369.114 297.98L368.015 300H369.153L370.159 298.153H371.185V300ZM371.185 297.309H370.099C369.59 297.309 369.309 297.044 369.312 296.676C369.309 296.309 369.606 296.03 370.137 296.03H371.185V297.309Z" fill="#838383"/>
<path d="M375.575 300.096C376.809 300.096 377.595 299.364 377.678 298.322H376.572C376.473 298.849 376.093 299.153 375.585 299.153C374.862 299.153 374.396 298.549 374.396 297.545C374.396 296.555 374.872 295.96 375.585 295.96C376.141 295.96 376.483 296.318 376.572 296.791H377.678C377.598 295.727 376.767 295.027 375.569 295.027C374.13 295.027 373.223 296.066 373.223 297.565C373.223 299.051 374.108 300.096 375.575 300.096Z" fill="#838383"/>
<path d="M316.221 263.579H317.358V262H321.529V263.572H322.667V261.031H321.938V255.454H317.755L317.582 258.222C317.477 259.986 317.103 260.68 316.659 261.031H316.221V263.579ZM318.039 261.031C318.388 260.459 318.64 259.561 318.72 258.222L318.822 256.448H320.801V261.031H318.039Z" fill="#838383"/>
<path d="M324.995 262.099C325.765 262.099 326.225 261.738 326.436 261.325H326.474V262H327.587V258.714C327.587 257.417 326.529 257.027 325.592 257.027C324.56 257.027 323.767 257.487 323.512 258.382L324.592 258.535C324.707 258.2 325.033 257.912 325.599 257.912C326.136 257.912 326.43 258.187 326.43 258.67V258.689C326.43 259.021 326.081 259.037 325.215 259.13C324.263 259.232 323.352 259.517 323.352 260.622C323.352 261.588 324.058 262.099 324.995 262.099ZM325.295 261.249C324.812 261.249 324.467 261.028 324.467 260.603C324.467 260.159 324.854 259.974 325.372 259.9C325.675 259.858 326.283 259.782 326.433 259.66V260.239C326.433 260.785 325.992 261.249 325.295 261.249Z" fill="#838383"/>
<path d="M328.2 258.04H329.789V262H330.907V258.04H332.496V257.091H328.2V258.04Z" fill="#838383"/>
<path d="M334.627 262.099C335.398 262.099 335.858 261.738 336.069 261.325H336.107V262H337.219V258.714C337.219 257.417 336.161 257.027 335.225 257.027C334.193 257.027 333.4 257.487 333.144 258.382L334.225 258.535C334.34 258.2 334.666 257.912 335.231 257.912C335.768 257.912 336.062 258.187 336.062 258.67V258.689C336.062 259.021 335.714 259.037 334.848 259.13C333.896 259.232 332.985 259.517 332.985 260.622C332.985 261.588 333.691 262.099 334.627 262.099ZM334.928 261.249C334.445 261.249 334.1 261.028 334.1 260.603C334.1 260.159 334.487 259.974 335.005 259.9C335.308 259.858 335.915 259.782 336.066 259.66V260.239C336.066 260.785 335.625 261.249 334.928 261.249Z" fill="#838383"/>
<path d="M340.18 263.425H341.318V262H344.53V263.425H345.649V261.047H344.888V257.091H341.341L341.2 258.81C341.107 259.91 340.986 260.725 340.57 261.047H340.18V263.425ZM341.759 261.047C342.069 260.59 342.184 259.849 342.267 258.81L342.344 258.024H343.782V261.047H341.759Z" fill="#838383"/>
<path d="M348.654 262.096C350.092 262.096 351.006 261.083 351.006 259.564C351.006 258.043 350.092 257.027 348.654 257.027C347.216 257.027 346.302 258.043 346.302 259.564C346.302 261.083 347.216 262.096 348.654 262.096ZM348.66 261.169C347.865 261.169 347.475 260.459 347.475 259.561C347.475 258.663 347.865 257.944 348.66 257.944C349.443 257.944 349.833 258.663 349.833 259.561C349.833 260.459 349.443 261.169 348.66 261.169Z" fill="#838383"/>
<path d="M355.922 255.275C355.686 255.454 355.312 255.451 354.804 255.451C354.66 255.451 354.51 255.451 354.347 255.454C352.656 255.477 351.787 256.602 351.787 258.909V259.35C351.787 261.146 352.695 262.096 354.123 262.096C355.552 262.096 356.453 261.143 356.453 259.628C356.453 258.158 355.597 257.311 354.379 257.311C353.631 257.311 353.065 257.634 352.758 258.235H352.704C352.819 257.011 353.279 256.458 354.379 256.432C355.354 256.41 355.9 256.394 356.325 256.023L355.922 255.275ZM354.13 261.169C353.404 261.169 352.96 260.587 352.96 259.66C352.969 258.746 353.407 258.222 354.123 258.222C354.839 258.222 355.28 258.746 355.28 259.66C355.28 260.59 354.842 261.169 354.13 261.169Z" fill="#838383"/>
<path d="M358.85 262.099C359.62 262.099 360.081 261.738 360.291 261.325H360.33V262H361.442V258.714C361.442 257.417 360.384 257.027 359.448 257.027C358.415 257.027 357.623 257.487 357.367 258.382L358.447 258.535C358.562 258.2 358.888 257.912 359.454 257.912C359.991 257.912 360.285 258.187 360.285 258.67V258.689C360.285 259.021 359.937 259.037 359.071 259.13C358.118 259.232 357.207 259.517 357.207 260.622C357.207 261.588 357.914 262.099 358.85 262.099ZM359.15 261.249C358.668 261.249 358.323 261.028 358.323 260.603C358.323 260.159 358.709 259.974 359.227 259.9C359.531 259.858 360.138 259.782 360.288 259.66V260.239C360.288 260.785 359.847 261.249 359.15 261.249Z" fill="#838383"/>
<path d="M362.605 262H364.983C366.134 262 366.792 261.479 366.792 260.667C366.792 259.98 366.258 259.501 365.488 259.433C366.143 259.312 366.552 258.964 366.552 258.411C366.552 257.583 365.827 257.091 364.667 257.091H362.605V262ZM363.689 261.089V259.871H364.983C365.408 259.871 365.667 260.117 365.667 260.523C365.667 260.875 365.408 261.089 364.983 261.089H363.689ZM363.689 259.123V258.018H364.667C365.149 258.018 365.443 258.222 365.443 258.558C365.443 258.909 365.159 259.123 364.689 259.123H363.689Z" fill="#838383"/>
<path d="M367.408 262H367.766C368.821 262 369.297 261.258 369.374 259.622L369.45 258.04H370.86V262H371.979V257.091H368.399L368.313 259.264C368.258 260.642 368.079 261.047 367.571 261.047H367.402L367.408 262Z" fill="#838383"/>
<path d="M375.317 262.096C376.461 262.096 377.247 261.536 377.452 260.683L376.371 260.562C376.215 260.977 375.831 261.194 375.333 261.194C374.585 261.194 374.089 260.702 374.08 259.862H377.5V259.507C377.5 257.784 376.464 257.027 375.256 257.027C373.85 257.027 372.933 258.059 372.933 259.574C372.933 261.115 373.837 262.096 375.317 262.096ZM374.083 259.082C374.118 258.455 374.582 257.928 375.272 257.928C375.937 257.928 376.384 258.414 376.391 259.082H374.083Z" fill="#838383"/>
<path d="M379.594 257.091H378.478V262H379.594V260.015H381.495V262H382.608V257.091H381.495V259.066H379.594V257.091Z" fill="#838383"/>
<path d="M384.894 260.434V257.091H383.778V262H384.97L386.93 258.654V262H388.048V257.091H386.859L384.894 260.434Z" fill="#838383"/>
<path d="M392.138 262H393.222V257.091H391.09C389.888 257.091 389.144 257.708 389.147 258.65C389.144 259.27 389.482 259.74 390.067 259.98L388.968 262H390.106L391.112 260.153H392.138V262ZM392.138 259.309H391.052C390.543 259.309 390.262 259.044 390.265 258.676C390.262 258.308 390.559 258.03 391.09 258.03H392.138V259.309Z" fill="#838383"/>
<path fill-rule="evenodd" clip-rule="evenodd" d="M411 257C409.895 257 409 257.895 409 259C409 260.105 409.895 261 411 261H465C466.105 261 467 260.105 467 259C467 257.895 466.105 257 465 257H411ZM409 278C409 276.895 409.895 276 411 276H557C558.105 276 559 276.895 559 278C559 279.105 558.105 280 557 280H411C409.895 280 409 279.105 409 278ZM409 297C409 295.895 409.895 295 411 295H508C509.105 295 510 295.895 510 297C510 298.105 509.105 299 508 299H411C409.895 299 409 298.105 409 297Z" fill="#E6E6E6"/>
<rect x="316" y="319" width="114" height="23" rx="3" fill="#F4774C"/>
<path d="M336.199 334.407V332.256H336.583C336.713 332.146 336.836 331.99 336.949 331.787C337.063 331.585 337.159 331.311 337.239 330.966C337.319 330.622 337.373 330.179 337.404 329.64L337.54 327.182H341.128V332.256H341.787V334.398H340.946V333H337.04V334.407H336.199ZM337.617 332.256H340.287V327.938H338.336L338.245 329.64C338.22 330.051 338.179 330.42 338.123 330.748C338.068 331.075 337.997 331.365 337.909 331.617C337.824 331.867 337.727 332.08 337.617 332.256Z" fill="white"/>
<path d="M344.519 333.088C344.11 333.088 343.753 332.995 343.448 332.807C343.143 332.62 342.906 332.357 342.738 332.02C342.569 331.683 342.485 331.289 342.485 330.838C342.485 330.386 342.569 329.99 342.738 329.651C342.906 329.312 343.143 329.049 343.448 328.861C343.753 328.674 344.11 328.58 344.519 328.58C344.928 328.58 345.285 328.674 345.59 328.861C345.895 329.049 346.132 329.312 346.3 329.651C346.469 329.99 346.553 330.386 346.553 330.838C346.553 331.289 346.469 331.683 346.3 332.02C346.132 332.357 345.895 332.62 345.59 332.807C345.285 332.995 344.928 333.088 344.519 333.088ZM344.522 332.375C344.787 332.375 345.007 332.305 345.181 332.165C345.355 332.025 345.484 331.838 345.567 331.605C345.652 331.373 345.695 331.116 345.695 330.836C345.695 330.557 345.652 330.301 345.567 330.069C345.484 329.834 345.355 329.645 345.181 329.503C345.007 329.361 344.787 329.29 344.522 329.29C344.255 329.29 344.033 329.361 343.857 329.503C343.683 329.645 343.553 329.834 343.468 330.069C343.384 330.301 343.343 330.557 343.343 330.836C343.343 331.116 343.384 331.373 343.468 331.605C343.553 331.838 343.683 332.025 343.857 332.165C344.033 332.305 344.255 332.375 344.522 332.375Z" fill="white"/>
<path d="M350.868 327.012L351.22 327.549C351.089 327.668 350.94 327.753 350.774 327.804C350.609 327.854 350.419 327.885 350.203 327.898C349.987 327.909 349.74 327.92 349.461 327.929C349.147 327.939 348.888 328.007 348.686 328.134C348.483 328.259 348.327 328.444 348.217 328.691C348.109 328.935 348.039 329.242 348.007 329.611H348.061C348.203 329.34 348.4 329.138 348.652 329.003C348.905 328.869 349.19 328.801 349.507 328.801C349.859 328.801 350.172 328.882 350.447 329.043C350.722 329.204 350.938 329.44 351.095 329.75C351.254 330.059 351.333 330.437 351.333 330.884C351.333 331.337 351.25 331.728 351.083 332.057C350.919 332.387 350.686 332.641 350.385 332.821C350.085 332.999 349.732 333.088 349.325 333.088C348.918 333.088 348.563 332.997 348.26 332.813C347.958 332.627 347.725 332.353 347.558 331.989C347.393 331.625 347.311 331.176 347.311 330.642V330.211C347.311 329.212 347.489 328.462 347.845 327.958C348.201 327.454 348.733 327.195 349.441 327.182C349.671 327.176 349.875 327.176 350.055 327.179C350.235 327.181 350.392 327.173 350.527 327.154C350.663 327.133 350.777 327.086 350.868 327.012ZM349.328 332.375C349.565 332.375 349.768 332.316 349.939 332.196C350.111 332.075 350.243 331.904 350.336 331.682C350.429 331.461 350.475 331.199 350.475 330.898C350.475 330.603 350.429 330.352 350.336 330.145C350.243 329.939 350.111 329.782 349.939 329.674C349.766 329.564 349.56 329.509 349.319 329.509C349.141 329.509 348.982 329.54 348.842 329.603C348.702 329.663 348.582 329.753 348.481 329.873C348.383 329.992 348.306 330.138 348.251 330.31C348.198 330.48 348.17 330.676 348.166 330.898C348.166 331.349 348.269 331.708 348.475 331.975C348.684 332.242 348.968 332.375 349.328 332.375Z" fill="white"/>
<path d="M353.552 333.097C353.276 333.097 353.026 333.046 352.802 332.944C352.579 332.839 352.402 332.689 352.271 332.492C352.142 332.295 352.078 332.053 352.078 331.767C352.078 331.521 352.125 331.319 352.22 331.159C352.315 331 352.442 330.874 352.603 330.782C352.764 330.689 352.944 330.619 353.143 330.571C353.342 330.524 353.545 330.488 353.751 330.463C354.012 330.433 354.225 330.408 354.387 330.39C354.55 330.369 354.669 330.336 354.743 330.29C354.816 330.245 354.853 330.171 354.853 330.069V330.049C354.853 329.801 354.783 329.608 354.643 329.472C354.505 329.336 354.298 329.267 354.024 329.267C353.738 329.267 353.512 329.331 353.348 329.458C353.185 329.583 353.072 329.722 353.01 329.875L352.211 329.694C352.306 329.428 352.444 329.214 352.626 329.051C352.81 328.887 353.021 328.767 353.26 328.694C353.498 328.618 353.749 328.58 354.012 328.58C354.187 328.58 354.371 328.601 354.566 328.642C354.763 328.682 354.947 328.756 355.118 328.864C355.29 328.972 355.431 329.126 355.541 329.327C355.651 329.526 355.706 329.784 355.706 330.103V333H354.876V332.404H354.842C354.787 332.514 354.705 332.622 354.595 332.728C354.485 332.834 354.344 332.922 354.172 332.992C353.999 333.062 353.793 333.097 353.552 333.097ZM353.737 332.415C353.972 332.415 354.172 332.369 354.339 332.276C354.508 332.183 354.636 332.062 354.723 331.912C354.812 331.761 354.856 331.599 354.856 331.426V330.864C354.826 330.894 354.767 330.923 354.68 330.949C354.595 330.974 354.497 330.996 354.387 331.015C354.278 331.032 354.171 331.048 354.066 331.063C353.962 331.076 353.875 331.087 353.805 331.097C353.64 331.118 353.49 331.153 353.353 331.202C353.219 331.251 353.111 331.322 353.029 331.415C352.95 331.506 352.91 331.627 352.91 331.779C352.91 331.989 352.988 332.148 353.143 332.256C353.298 332.362 353.496 332.415 353.737 332.415Z" fill="white"/>
<path d="M356.837 333V328.637H358.647C359.139 328.637 359.529 328.742 359.817 328.952C360.105 329.16 360.249 329.444 360.249 329.801C360.249 330.057 360.167 330.26 360.005 330.409C359.842 330.559 359.626 330.659 359.357 330.711C359.552 330.733 359.731 330.792 359.894 330.887C360.057 330.98 360.187 331.105 360.286 331.262C360.386 331.419 360.436 331.606 360.436 331.824C360.436 332.055 360.377 332.26 360.257 332.438C360.138 332.614 359.965 332.752 359.738 332.853C359.512 332.951 359.24 333 358.922 333H356.837ZM357.635 332.29H358.922C359.132 332.29 359.297 332.24 359.417 332.14C359.536 332.039 359.596 331.903 359.596 331.73C359.596 331.528 359.536 331.369 359.417 331.253C359.297 331.136 359.132 331.077 358.922 331.077H357.635V332.29ZM357.635 330.455H358.655C358.814 330.455 358.951 330.432 359.064 330.387C359.18 330.341 359.268 330.277 359.328 330.194C359.391 330.108 359.422 330.008 359.422 329.892C359.422 329.724 359.353 329.592 359.215 329.498C359.077 329.403 358.887 329.355 358.647 329.355H357.635V330.455Z" fill="white"/>
<path d="M362.201 331.81L364.124 328.637H365.039V333H364.206V329.824L362.292 333H361.368V328.637H362.201V331.81Z" fill="white"/>
<path d="M365.64 329.37V328.637H369.321V329.37H367.898V333H367.069V329.37H365.64Z" fill="white"/>
<path d="M370.859 330.137H372.126C372.66 330.137 373.071 330.269 373.359 330.534C373.647 330.8 373.791 331.141 373.791 331.56C373.791 331.833 373.726 332.078 373.598 332.296C373.469 332.514 373.28 332.686 373.032 332.813C372.784 332.938 372.482 333 372.126 333H370.22V328.637H371.052V332.267H372.126C372.37 332.267 372.571 332.204 372.728 332.077C372.886 331.948 372.964 331.784 372.964 331.586C372.964 331.375 372.886 331.204 372.728 331.071C372.571 330.937 372.37 330.87 372.126 330.87H370.859V330.137Z" fill="white"/>
<path d="M376.616 329.37V328.637H380.298V329.37H378.875V333H378.045V329.37H376.616Z" fill="white"/>
<path d="M382.874 333.088C382.444 333.088 382.074 332.997 381.763 332.813C381.454 332.627 381.216 332.367 381.047 332.032C380.881 331.694 380.797 331.3 380.797 330.847C380.797 330.4 380.881 330.006 381.047 329.665C381.216 329.324 381.451 329.058 381.752 328.867C382.055 328.676 382.409 328.58 382.814 328.58C383.06 328.58 383.299 328.621 383.53 328.702C383.761 328.783 383.969 328.911 384.152 329.086C384.336 329.26 384.481 329.486 384.587 329.765C384.693 330.041 384.746 330.377 384.746 330.773V331.074H381.277V330.438H383.914C383.914 330.214 383.868 330.016 383.777 329.844C383.686 329.67 383.559 329.533 383.394 329.432C383.231 329.332 383.04 329.282 382.82 329.282C382.581 329.282 382.373 329.34 382.195 329.458C382.019 329.573 381.882 329.725 381.786 329.912C381.691 330.098 381.644 330.3 381.644 330.517V331.015C381.644 331.306 381.695 331.554 381.797 331.759C381.901 331.963 382.046 332.12 382.232 332.228C382.417 332.334 382.634 332.387 382.882 332.387C383.043 332.387 383.19 332.364 383.323 332.319C383.455 332.271 383.57 332.201 383.667 332.108C383.763 332.016 383.837 331.901 383.888 331.765L384.692 331.909C384.628 332.146 384.512 332.354 384.346 332.532C384.181 332.708 383.973 332.845 383.723 332.944C383.475 333.04 383.192 333.088 382.874 333.088Z" fill="white"/>
<path d="M385.345 333L385.342 332.265H385.498C385.619 332.265 385.721 332.239 385.802 332.188C385.886 332.135 385.954 332.046 386.007 331.921C386.06 331.796 386.1 331.623 386.129 331.404C386.157 331.182 386.178 330.904 386.191 330.569L386.268 328.637H389.314V333H388.481V329.37H387.055L386.987 330.853C386.97 331.212 386.933 331.527 386.876 331.796C386.821 332.065 386.741 332.289 386.635 332.469C386.529 332.647 386.392 332.781 386.225 332.87C386.059 332.957 385.856 333 385.618 333H385.345Z" fill="white"/>
<path d="M392.327 333.088C391.897 333.088 391.527 332.997 391.216 332.813C390.908 332.627 390.669 332.367 390.5 332.032C390.334 331.694 390.25 331.3 390.25 330.847C390.25 330.4 390.334 330.006 390.5 329.665C390.669 329.324 390.904 329.058 391.205 328.867C391.508 328.676 391.862 328.58 392.267 328.58C392.514 328.58 392.752 328.621 392.983 328.702C393.214 328.783 393.422 328.911 393.605 329.086C393.789 329.26 393.934 329.486 394.04 329.765C394.146 330.041 394.199 330.377 394.199 330.773V331.074H390.73V330.438H393.367C393.367 330.214 393.321 330.016 393.23 329.844C393.14 329.67 393.012 329.533 392.847 329.432C392.684 329.332 392.493 329.282 392.273 329.282C392.034 329.282 391.826 329.34 391.648 329.458C391.472 329.573 391.336 329.725 391.239 329.912C391.144 330.098 391.097 330.3 391.097 330.517V331.015C391.097 331.306 391.148 331.554 391.25 331.759C391.355 331.963 391.499 332.12 391.685 332.228C391.871 332.334 392.087 332.387 392.336 332.387C392.497 332.387 392.643 332.364 392.776 332.319C392.909 332.271 393.023 332.201 393.12 332.108C393.216 332.016 393.29 331.901 393.341 331.765L394.145 331.909C394.081 332.146 393.965 332.354 393.799 332.532C393.634 332.708 393.426 332.845 393.176 332.944C392.928 333.04 392.645 333.088 392.327 333.088Z" fill="white"/>
<path d="M397.02 334.486V327.182H397.869V334.486H397.02ZM397.02 333.088C396.711 333.088 396.43 333.035 396.176 332.929C395.922 332.821 395.703 332.668 395.52 332.469C395.336 332.27 395.194 332.033 395.093 331.756C394.995 331.48 394.946 331.174 394.946 330.838C394.946 330.499 394.995 330.192 395.093 329.915C395.194 329.639 395.336 329.401 395.52 329.202C395.703 329.003 395.922 328.85 396.176 328.742C396.43 328.634 396.711 328.58 397.02 328.58H397.23V333.088H397.02ZM397.02 332.373H397.139V329.296H397.02C396.815 329.296 396.637 329.337 396.485 329.421C396.334 329.502 396.208 329.615 396.108 329.759C396.007 329.901 395.931 330.065 395.88 330.25C395.831 330.436 395.806 330.632 395.806 330.838C395.806 331.115 395.851 331.37 395.94 331.603C396.029 331.834 396.163 332.02 396.343 332.162C396.523 332.302 396.749 332.373 397.02 332.373ZM397.869 333.088H397.656V328.58H397.869C398.178 328.58 398.459 328.634 398.713 328.742C398.966 328.85 399.184 329.003 399.366 329.202C399.55 329.401 399.691 329.639 399.789 329.915C399.89 330.192 399.94 330.499 399.94 330.838C399.94 331.174 399.89 331.48 399.789 331.756C399.691 332.033 399.55 332.27 399.366 332.469C399.184 332.668 398.966 332.821 398.713 332.929C398.459 333.035 398.178 333.088 397.869 333.088ZM397.869 332.373C398.074 332.373 398.252 332.333 398.403 332.253C398.555 332.172 398.681 332.06 398.781 331.918C398.881 331.774 398.956 331.61 399.005 331.426C399.055 331.241 399.079 331.045 399.079 330.838C399.079 330.564 399.035 330.31 398.946 330.077C398.859 329.842 398.725 329.654 398.545 329.512C398.365 329.368 398.14 329.296 397.869 329.296H397.747V332.373H397.869Z" fill="white"/>
<path d="M402.722 333.088C402.313 333.088 401.956 332.995 401.651 332.807C401.346 332.62 401.109 332.357 400.941 332.02C400.772 331.683 400.688 331.289 400.688 330.838C400.688 330.386 400.772 329.99 400.941 329.651C401.109 329.312 401.346 329.049 401.651 328.861C401.956 328.674 402.313 328.58 402.722 328.58C403.131 328.58 403.488 328.674 403.793 328.861C404.098 329.049 404.335 329.312 404.503 329.651C404.672 329.99 404.756 330.386 404.756 330.838C404.756 331.289 404.672 331.683 404.503 332.02C404.335 332.357 404.098 332.62 403.793 332.807C403.488 332.995 403.131 333.088 402.722 333.088ZM402.725 332.375C402.99 332.375 403.21 332.305 403.384 332.165C403.558 332.025 403.687 331.838 403.77 331.605C403.855 331.373 403.898 331.116 403.898 330.836C403.898 330.557 403.855 330.301 403.77 330.069C403.687 329.834 403.558 329.645 403.384 329.503C403.21 329.361 402.99 329.29 402.725 329.29C402.458 329.29 402.236 329.361 402.06 329.503C401.886 329.645 401.756 329.834 401.671 330.069C401.587 330.301 401.546 330.557 401.546 330.836C401.546 331.116 401.587 331.373 401.671 331.605C401.756 331.838 401.886 332.025 402.06 332.165C402.236 332.305 402.458 332.375 402.725 332.375Z" fill="white"/>
<path d="M408.662 330.452V331.188H406.298V330.452H408.662ZM406.537 328.637V333H405.704V328.637H406.537ZM409.255 328.637V333H408.426V328.637H409.255Z" fill="white"/>
</g>
<defs>
<filter id="filter0_d_1065_6312" x="11" y="40" width="480" height="304" filterUnits="userSpaceOnUse" color-interpolation-filters="sRGB">
<feFlood flood-opacity="0" result="BackgroundImageFix"/>
<feColorMatrix in="SourceAlpha" type="matrix" values="0 0 0 0 0 0 0 0 0 0 0 0 0 0 0 0 0 0 127 0" result="hardAlpha"/>
<feOffset/>
<feGaussianBlur stdDeviation="12.5"/>
<feComposite in2="hardAlpha" operator="out"/>
<feColorMatrix type="matrix" values="0 0 0 0 0 0 0 0 0 0 0 0 0 0 0 0 0 0 0.15 0"/>
<feBlend mode="normal" in2="BackgroundImageFix" result="effect1_dropShadow_1065_6312"/>
<feBlend mode="normal" in="SourceGraphic" in2="effect1_dropShadow_1065_6312" result="shape"/>
</filter>
<filter id="filter1_d_1065_6312" x="268" y="-1" width="339" height="217" filterUnits="userSpaceOnUse" color-interpolation-filters="sRGB">
<feFlood flood-opacity="0" result="BackgroundImageFix"/>
<feColorMatrix in="SourceAlpha" type="matrix" values="0 0 0 0 0 0 0 0 0 0 0 0 0 0 0 0 0 0 127 0" result="hardAlpha"/>
<feOffset/>
<feGaussianBlur stdDeviation="12.5"/>
<feComposite in2="hardAlpha" operator="out"/>
<feColorMatrix type="matrix" values="0 0 0 0 0 0 0 0 0 0 0 0 0 0 0 0 0 0 0.15 0"/>
<feBlend mode="normal" in2="BackgroundImageFix" result="effect1_dropShadow_1065_6312"/>
<feBlend mode="normal" in="SourceGraphic" in2="effect1_dropShadow_1065_6312" result="shape"/>
</filter>
<filter id="filter2_d_1065_6312" x="268" y="185" width="339" height="200" filterUnits="userSpaceOnUse" color-interpolation-filters="sRGB">
<feFlood flood-opacity="0" result="BackgroundImageFix"/>
<feColorMatrix in="SourceAlpha" type="matrix" values="0 0 0 0 0 0 0 0 0 0 0 0 0 0 0 0 0 0 127 0" result="hardAlpha"/>
<feOffset/>
<feGaussianBlur stdDeviation="12.5"/>
<feComposite in2="hardAlpha" operator="out"/>
<feColorMatrix type="matrix" values="0 0 0 0 0 0 0 0 0 0 0 0 0 0 0 0 0 0 0.15 0"/>
<feBlend mode="normal" in2="BackgroundImageFix" result="effect1_dropShadow_1065_6312"/>
<feBlend mode="normal" in="SourceGraphic" in2="effect1_dropShadow_1065_6312" result="shape"/>
</filter>
<clipPath id="clip0_1065_6312">
<rect width="629" height="386" fill="white"/>
</clipPath>
</defs>
</svg>
