<svg width="629" height="355" viewBox="0 0 629 355" fill="none" xmlns="http://www.w3.org/2000/svg">
<g filter="url(#filter0_d_1065_6383)">
<rect x="36" y="51" width="430" height="254" rx="4" fill="white"/>
</g>
<path d="M36 55C36 52.7909 37.7909 51 40 51H462C464.209 51 466 52.7909 466 55V85H36V55Z" fill="#3C3A3E"/>
<path d="M36 85H142V305H40C37.7909 305 36 303.209 36 301V85Z" fill="#EDEDED"/>
<path fill-rule="evenodd" clip-rule="evenodd" d="M61.2968 70.7082C61.2968 73.1945 59.8548 74.4391 56.9709 74.4418H51C51 72.0479 54.6847 72.0584 56.2746 72.0629C56.3396 72.0631 56.4012 72.0633 56.4588 72.0633C57.6511 72.0633 58.246 71.5239 58.2435 70.4452C58.2435 69.3612 57.6499 68.8272 56.4588 68.8272H53.0912V66.473H56.4316C57.6227 66.473 58.2124 65.9512 58.2124 64.9156C58.2124 63.8801 57.6149 63.3785 56.4316 63.3785C56.2422 63.3785 56.0276 63.3841 55.7957 63.3902L55.7956 63.3902C53.9467 63.4387 51 63.516 51 61H56.4976C58.0805 61 59.1836 61.2036 59.807 61.6108C60.2754 61.9132 60.6574 62.341 60.9133 62.8497C61.1692 63.3584 61.2896 63.9293 61.2619 64.503C61.2859 65.1828 61.1139 65.8545 60.7681 66.4314C60.4223 67.0082 59.9186 67.4637 59.322 67.7391C60.6334 68.3216 61.2877 69.3194 61.2852 70.7324L61.2968 70.7082ZM100.341 64.6609C101.477 64.8694 102.5 65.5033 103.22 66.4434C103.939 67.3836 104.304 68.5652 104.247 69.7664C104.19 70.9675 103.714 72.1055 102.908 72.9665C102.103 73.8275 101.024 74.3523 99.8737 74.4422C98.7235 74.5322 97.5813 74.1811 96.6618 73.455C95.7423 72.7288 95.1088 71.6776 94.8803 70.4988C94.6517 69.32 94.8439 68.0948 95.4207 67.0533C95.9975 66.0118 96.9193 65.2258 98.0127 64.8429C98.762 64.5811 99.5622 64.5185 100.341 64.6609ZM72.1039 71.6952C72.1039 73.5398 70.9089 74.4607 68.519 74.458H62.7305V64.6123H68.1621C69.4502 64.6123 70.3541 64.7701 70.8779 65.0775C71.2605 65.2842 71.5789 65.6001 71.796 65.9883C72.0131 66.3764 72.1199 66.8209 72.1039 67.2699C72.1107 67.7334 71.9901 68.1892 71.7564 68.5835C71.5226 68.9777 71.1855 69.2939 70.7848 69.4947C71.1946 69.6738 71.5419 69.9796 71.7799 70.371C72.0179 70.7623 72.135 71.2202 72.1155 71.6831L72.1039 71.6952ZM69.4346 67.5612C69.4346 66.9423 69.0195 66.6308 68.1854 66.6308H65.2251V68.5199H68.1854C69.0195 68.5199 69.4346 68.2003 69.4346 67.5612ZM69.4346 71.4809C69.4346 70.8377 69.0234 70.5181 68.2009 70.5181H65.2251V72.4436H68.2203C69.0428 72.4436 69.454 72.12 69.454 71.4809H69.4346ZM93.6752 74.458H91.1922V70.5545H87.6073V74.458H85.1165V64.6123H87.6073V68.3864H91.1922V64.6123H93.6752V74.458ZM114.99 74.458H111.638L107.821 69.6808V74.458H105.33V64.6123H107.821V69.341L111.836 64.6123H115.014L110.626 69.43L115.014 74.458H114.99ZM100.209 66.918C99.8684 66.8063 99.5097 66.7687 99.1549 66.8077C98.8001 66.8468 98.4568 66.9615 98.1464 67.1448C97.836 67.3282 97.5651 67.5762 97.3506 67.8734C97.136 68.1706 96.9825 68.5106 96.8995 68.8724C96.8165 69.2342 96.8058 69.6099 96.8681 69.9761C96.9304 70.3424 97.0643 70.6913 97.2615 71.0013C97.4587 71.3112 97.7151 71.5755 98.0145 71.7777C98.3139 71.9799 98.6501 72.1157 99.0021 72.1766C99.3872 72.2573 99.7848 72.2476 100.166 72.1483C100.722 72.002 101.216 71.6683 101.571 71.1992C101.926 70.73 102.122 70.1516 102.129 69.554C102.136 68.9564 101.954 68.3732 101.61 67.895C101.266 67.4168 100.78 67.0705 100.228 66.9099L100.209 66.918ZM79.7547 66.7684C80.3441 67.0675 80.8187 67.5662 81.1012 68.1828C81.3837 68.7995 81.4574 69.4979 81.3101 70.1638C81.1629 70.8298 80.8035 71.424 80.2906 71.8496C79.7777 72.2751 79.1415 72.5068 78.486 72.5068C77.8306 72.5068 77.1944 72.2751 76.6815 71.8496C76.1686 71.424 75.8092 70.8298 75.6619 70.1638C75.5147 69.4979 75.5884 68.7995 75.8709 68.1828C76.1534 67.5662 76.628 67.0675 77.2174 66.7684V64.135C75.9633 64.4581 74.866 65.2487 74.1327 66.3575C73.3993 67.4663 73.0806 68.8167 73.2367 70.1537C73.3928 71.4907 74.0129 72.7219 74.98 73.6148C75.9471 74.5078 77.1942 75.0009 78.486 75.0009C79.7779 75.0009 81.025 74.5078 81.9921 73.6148C82.9592 72.7219 83.5793 71.4907 83.7354 70.1537C83.8915 68.8167 83.5728 67.4663 82.8394 66.3575C82.1061 65.2487 81.0088 64.4581 79.7547 64.135V66.7684ZM77.6046 70.9019C77.974 71.1544 78.424 71.2447 78.8569 71.1532C79.1839 71.0895 79.4854 70.9259 79.7229 70.683C79.9604 70.4401 80.1232 70.1291 80.1906 69.7894C80.258 69.4498 80.2269 69.0969 80.1013 68.7757C79.9758 68.4546 79.7613 68.1796 79.4854 67.9859C79.3181 67.8677 79.1313 67.7827 78.9345 67.7351V63.9651H78.1585V67.7351C77.7275 67.8354 77.3518 68.1091 77.1132 68.4967C76.8746 68.8842 76.7924 69.3543 76.8844 69.8047C76.9765 70.2551 77.2353 70.6494 77.6046 70.9019Z" fill="white"/>
<path fill-rule="evenodd" clip-rule="evenodd" d="M142 167.5V245V245.5L142 274H140V245.5L36 245.5V245L140 245L140 167.5L36 167.5V167L140 167V85H142V167V167.5ZM46 107C46 105.895 46.8954 105 48 105H124C125.105 105 126 105.895 126 107C126 108.105 125.105 109 124 109H48C46.8954 109 46 108.105 46 107ZM48 183C46.8954 183 46 183.895 46 185C46 186.105 46.8954 187 48 187H124C125.105 187 126 186.105 126 185C126 183.895 125.105 183 124 183H48ZM46 121C46 119.895 46.8954 119 48 119H104C105.105 119 106 119.895 106 121C106 122.105 105.105 123 104 123H48C46.8954 123 46 122.105 46 121ZM48 197C46.8954 197 46 197.895 46 199C46 200.105 46.8954 201 48 201H104C105.105 201 106 200.105 106 199C106 197.895 105.105 197 104 197H48ZM46 135C46 133.895 46.8954 133 48 133H113C114.105 133 115 133.895 115 135C115 136.105 114.105 137 113 137H48C46.8954 137 46 136.105 46 135ZM48 211C46.8954 211 46 211.895 46 213C46 214.105 46.8954 215 48 215H113C114.105 215 115 214.105 115 213C115 211.895 114.105 211 113 211H48ZM46 149C46 147.895 46.8954 147 48 147H91C92.1046 147 93 147.895 93 149C93 150.105 92.1046 151 91 151H48C46.8954 151 46 150.105 46 149ZM48 225C46.8954 225 46 225.895 46 227C46 228.105 46.8954 229 48 229H91C92.1046 229 93 228.105 93 227C93 225.895 92.1046 225 91 225H48ZM46 263C46 261.895 46.8954 261 48 261H104C105.105 261 106 261.895 106 263C106 264.105 105.105 265 104 265H48C46.8954 265 46 264.105 46 263ZM142 281L36 281V281.5L142 281.5V281Z" fill="#CBCBCB"/>
<path d="M178.089 114H180.036L176.44 109.253L179.887 105.273H177.94L174.838 108.861H174.441V105.273H172.86V114H174.441V110.186H175.217L178.089 114Z" fill="#3C3A3E"/>
<path d="M182.926 114.132C183.953 114.132 184.566 113.651 184.848 113.101H184.899V114H186.382V109.619C186.382 107.889 184.971 107.369 183.723 107.369C182.346 107.369 181.289 107.983 180.948 109.176L182.389 109.381C182.542 108.933 182.977 108.55 183.731 108.55C184.447 108.55 184.839 108.916 184.839 109.56V109.585C184.839 110.028 184.375 110.05 183.22 110.173C181.95 110.31 180.735 110.689 180.735 112.163C180.735 113.45 181.677 114.132 182.926 114.132ZM183.326 112.999C182.683 112.999 182.223 112.705 182.223 112.138C182.223 111.546 182.738 111.298 183.429 111.2C183.833 111.145 184.643 111.043 184.843 110.881V111.652C184.843 112.381 184.255 112.999 183.326 112.999Z" fill="#3C3A3E"/>
<path d="M191.7 112.206L189.808 107.455H187.933V114H189.42V109.59L191.163 114H192.241L194.044 109.543V114H195.518V107.455H193.643L191.7 112.206Z" fill="#3C3A3E"/>
<path d="M197.073 114H198.548V108.72H201.113V114H202.6V107.455H197.073V114Z" fill="#3C3A3E"/>
<path d="M206.07 114.132C207.097 114.132 207.711 113.651 207.992 113.101H208.043V114H209.526V109.619C209.526 107.889 208.116 107.369 206.867 107.369C205.491 107.369 204.434 107.983 204.093 109.176L205.533 109.381C205.687 108.933 206.121 108.55 206.876 108.55C207.592 108.55 207.984 108.916 207.984 109.56V109.585C207.984 110.028 207.519 110.05 206.364 110.173C205.094 110.31 203.88 110.689 203.88 112.163C203.88 113.45 204.822 114.132 206.07 114.132ZM206.471 112.999C205.827 112.999 205.367 112.705 205.367 112.138C205.367 111.546 205.883 111.298 206.573 111.2C206.978 111.145 207.788 111.043 207.988 110.881V111.652C207.988 112.381 207.4 112.999 206.471 112.999Z" fill="#3C3A3E"/>
<path d="M212.565 107.455H211.077V114H212.565V111.354H215.1V114H216.583V107.455H215.1V110.088H212.565V107.455Z" fill="#3C3A3E"/>
<path d="M219.631 111.912V107.455H218.144V114H219.733L222.345 109.538V114H223.837V107.455H222.252L219.631 111.912Z" fill="#3C3A3E"/>
<path d="M226.908 111.912V107.455H225.421V114H227.011L229.623 109.538V114H231.114V107.455H229.529L226.908 111.912Z" fill="#3C3A3E"/>
<path d="M241.326 113.063L239.706 110.446L241.326 107.83H239.936L238.215 110.386V110.506L239.936 113.063H241.326ZM238.726 113.063L237.107 110.446L238.726 107.83H237.337L235.615 110.386V110.506L237.337 113.063H238.726Z" fill="#3C3A3E"/>
<path d="M243.626 114L244.346 111.848H247.627L248.351 114H250.039L246.962 105.273H245.011L241.938 114H243.626ZM244.772 110.578L245.952 107.063H246.021L247.201 110.578H244.772Z" fill="#3C3A3E"/>
<path d="M251.12 114H254.291C255.825 114 256.703 113.305 256.703 112.223C256.703 111.307 255.991 110.668 254.964 110.578C255.838 110.416 256.383 109.952 256.383 109.215C256.383 108.111 255.416 107.455 253.869 107.455H251.12V114ZM252.565 112.786V111.162H254.291C254.858 111.162 255.203 111.49 255.203 112.031C255.203 112.5 254.858 112.786 254.291 112.786H252.565ZM252.565 110.165V108.69H253.869C254.512 108.69 254.904 108.963 254.904 109.411C254.904 109.879 254.525 110.165 253.899 110.165H252.565Z" fill="#3C3A3E"/>
<path d="M257.618 108.72H259.736V114H261.227V108.72H263.345V107.455H257.618V108.72Z" fill="#3C3A3E"/>
<path d="M267.159 114.128C269.077 114.128 270.295 112.777 270.295 110.753C270.295 108.725 269.077 107.369 267.159 107.369C265.241 107.369 264.023 108.725 264.023 110.753C264.023 112.777 265.241 114.128 267.159 114.128ZM267.168 112.892C266.106 112.892 265.587 111.946 265.587 110.749C265.587 109.551 266.106 108.592 267.168 108.592C268.212 108.592 268.731 109.551 268.731 110.749C268.731 111.946 268.212 112.892 267.168 112.892Z" fill="#3C3A3E"/>
<path d="M275.372 112.206L273.48 107.455H271.605V114H273.092V109.59L274.835 114H275.913L277.715 109.543V114H279.19V107.455H277.315L275.372 112.206Z" fill="#3C3A3E"/>
<path d="M282.629 114.132C283.656 114.132 284.269 113.651 284.551 113.101H284.602V114H286.085V109.619C286.085 107.889 284.674 107.369 283.426 107.369C282.049 107.369 280.992 107.983 280.652 109.176L282.092 109.381C282.245 108.933 282.68 108.55 283.434 108.55C284.15 108.55 284.542 108.916 284.542 109.56V109.585C284.542 110.028 284.078 110.05 282.923 110.173C281.653 110.31 280.438 110.689 280.438 112.163C280.438 113.45 281.38 114.132 282.629 114.132ZM283.029 112.999C282.386 112.999 281.926 112.705 281.926 112.138C281.926 111.546 282.441 111.298 283.132 111.2C283.536 111.145 284.346 111.043 284.546 110.881V111.652C284.546 112.381 283.958 112.999 283.029 112.999Z" fill="#3C3A3E"/>
<path d="M286.903 108.72H289.021V114H290.512V108.72H292.63V107.455H286.903V108.72Z" fill="#3C3A3E"/>
<path d="M295.346 111.912V107.455H293.859V114H295.448L298.06 109.538V114H299.552V107.455H297.967L295.346 111.912Z" fill="#3C3A3E"/>
<path d="M306.603 107.455H305.12V110.651C304.745 110.744 304.375 110.796 303.97 110.796C303.058 110.796 302.61 110.472 302.61 109.628V107.446H301.136V109.628C301.136 111.298 302.223 112.061 303.97 112.061C304.353 112.061 304.754 112.01 305.12 111.925V114H306.603V107.455Z" fill="#3C3A3E"/>
<path d="M311.053 114.128C312.579 114.128 313.627 113.382 313.9 112.244L312.459 112.082C312.251 112.636 311.739 112.926 311.074 112.926C310.077 112.926 309.417 112.27 309.404 111.149H313.964V110.676C313.964 108.379 312.583 107.369 310.972 107.369C309.097 107.369 307.874 108.746 307.874 110.766C307.874 112.82 309.08 114.128 311.053 114.128ZM309.408 110.109C309.455 109.274 310.073 108.571 310.994 108.571C311.88 108.571 312.476 109.219 312.485 110.109H309.408Z" fill="#3C3A3E"/>
<path d="M318.124 114.128C319.769 114.128 320.817 113.152 320.928 111.763H319.453C319.321 112.466 318.814 112.871 318.137 112.871C317.174 112.871 316.551 112.065 316.551 110.727C316.551 109.406 317.186 108.614 318.137 108.614C318.878 108.614 319.334 109.091 319.453 109.722H320.928C320.821 108.303 319.713 107.369 318.115 107.369C316.198 107.369 314.987 108.754 314.987 110.753C314.987 112.734 316.168 114.128 318.124 114.128Z" fill="#3C3A3E"/>
<path d="M322.195 114H323.737V111.533H324.491L326.285 114H328.152L325.702 110.668L328.126 107.455H326.268L324.3 110.097H323.737V107.455H322.195V114Z" fill="#3C3A3E"/>
<path d="M330.514 111.912V107.455H329.027V114H330.616L333.228 109.538V114H334.72V107.455H333.135L330.514 111.912Z" fill="#3C3A3E"/>
<path d="M337.791 111.912V107.455H336.304V114H337.893L340.506 109.538V114H341.997V107.455H340.412L337.791 111.912ZM339.99 105.205C339.986 105.622 339.747 105.993 339.146 105.993C338.537 105.993 338.307 105.614 338.307 105.205H337.16C337.156 106.202 337.927 106.875 339.146 106.875C340.374 106.875 341.145 106.202 341.145 105.205H339.99Z" fill="#3C3A3E"/>
<path d="M349.413 114.128C351.331 114.128 352.549 112.777 352.549 110.753C352.549 108.725 351.331 107.369 349.413 107.369C347.495 107.369 346.277 108.725 346.277 110.753C346.277 112.777 347.495 114.128 349.413 114.128ZM349.421 112.892C348.36 112.892 347.84 111.946 347.84 110.749C347.84 109.551 348.36 108.592 349.421 108.592C350.465 108.592 350.985 109.551 350.985 110.749C350.985 111.946 350.465 112.892 349.421 112.892Z" fill="#3C3A3E"/>
<path d="M359.104 105.034C358.789 105.273 358.29 105.269 357.613 105.269C357.421 105.269 357.221 105.269 357.003 105.273C354.749 105.303 353.59 106.803 353.59 109.879V110.467C353.59 112.862 354.8 114.128 356.705 114.128C358.61 114.128 359.812 112.858 359.812 110.838C359.812 108.878 358.67 107.749 357.046 107.749C356.049 107.749 355.295 108.179 354.886 108.98H354.813C354.967 107.348 355.58 106.611 357.046 106.577C358.346 106.547 359.074 106.526 359.641 106.031L359.104 105.034ZM356.714 112.892C355.746 112.892 355.154 112.117 355.154 110.881C355.167 109.662 355.751 108.963 356.705 108.963C357.66 108.963 358.248 109.662 358.248 110.881C358.248 112.121 357.664 112.892 356.714 112.892Z" fill="#3C3A3E"/>
<path d="M360.762 112.206C360.8 113.421 361.913 114.128 363.425 114.128C364.976 114.128 366.097 113.391 366.097 112.185C366.097 111.303 365.496 110.698 364.721 110.651V110.582C365.471 110.382 365.948 109.913 365.948 109.206C365.948 108.102 364.994 107.369 363.459 107.369C362.028 107.369 360.949 108.111 360.928 109.253H362.449C362.467 108.814 362.918 108.507 363.532 108.507C364.146 108.507 364.516 108.835 364.516 109.321C364.516 109.769 364.175 110.101 363.536 110.101H362.535V111.196H363.536C364.18 111.196 364.601 111.558 364.601 112.087C364.601 112.683 364.077 112.973 363.417 112.973C362.765 112.973 362.322 112.692 362.292 112.206H360.762Z" fill="#3C3A3E"/>
<path d="M367.312 114H370.482C372.016 114 372.894 113.305 372.894 112.223C372.894 111.307 372.182 110.668 371.155 110.578C372.029 110.416 372.574 109.952 372.574 109.215C372.574 108.111 371.607 107.455 370.06 107.455H367.312V114ZM368.756 112.786V111.162H370.482C371.049 111.162 371.394 111.49 371.394 112.031C371.394 112.5 371.049 112.786 370.482 112.786H368.756ZM368.756 110.165V108.69H370.06C370.704 108.69 371.096 108.963 371.096 109.411C371.096 109.879 370.717 110.165 370.09 110.165H368.756Z" fill="#3C3A3E"/>
<path d="M377.022 114.128C378.94 114.128 380.159 112.777 380.159 110.753C380.159 108.725 378.94 107.369 377.022 107.369C375.105 107.369 373.886 108.725 373.886 110.753C373.886 112.777 375.105 114.128 377.022 114.128ZM377.031 112.892C375.97 112.892 375.45 111.946 375.45 110.749C375.45 109.551 375.97 108.592 377.031 108.592C378.075 108.592 378.595 109.551 378.595 110.749C378.595 111.946 378.075 112.892 377.031 112.892Z" fill="#3C3A3E"/>
<path d="M382.955 107.455H381.468V114H382.955V111.354H385.491V114H386.974V107.455H385.491V110.088H382.955V107.455Z" fill="#3C3A3E"/>
<path d="M391.04 113.063H392.429L394.151 110.506V110.386L392.429 107.83H391.04L392.659 110.446L391.04 113.063ZM388.415 113.063H389.804L391.526 110.506V110.386L389.804 107.83H388.415L390.034 110.446L388.415 113.063Z" fill="#3C3A3E"/>
<path fill-rule="evenodd" clip-rule="evenodd" d="M436 124H172V123H436V124ZM172 145C172 143.895 172.895 143 174 143H238C239.105 143 240 143.895 240 145C240 146.105 239.105 147 238 147H174C172.895 147 172 146.105 172 145ZM172 169C172 167.895 172.895 167 174 167H238C239.105 167 240 167.895 240 169C240 170.105 239.105 171 238 171H174C172.895 171 172 170.105 172 169ZM174 191C172.895 191 172 191.895 172 193C172 194.105 172.895 195 174 195H238C239.105 195 240 194.105 240 193C240 191.895 239.105 191 238 191H174ZM172 217C172 215.895 172.895 215 174 215H238C239.105 215 240 215.895 240 217C240 218.105 239.105 219 238 219H174C172.895 219 172 218.105 172 217ZM174 239C172.895 239 172 239.895 172 241C172 242.105 172.895 243 174 243H238C239.105 243 240 242.105 240 241C240 239.895 239.105 239 238 239H174ZM283 145C283 143.895 283.895 143 285 143H314C315.105 143 316 143.895 316 145C316 146.105 315.105 147 314 147H285C283.895 147 283 146.105 283 145ZM285 167C283.895 167 283 167.895 283 169C283 170.105 283.895 171 285 171H314C315.105 171 316 170.105 316 169C316 167.895 315.105 167 314 167H285ZM283 193C283 191.895 283.895 191 285 191H314C315.105 191 316 191.895 316 193C316 194.105 315.105 195 314 195H285C283.895 195 283 194.105 283 193ZM285 215C283.895 215 283 215.895 283 217C283 218.105 283.895 219 285 219H314C315.105 219 316 218.105 316 217C316 215.895 315.105 215 314 215H285ZM283 241C283 239.895 283.895 239 285 239H314C315.105 239 316 239.895 316 241C316 242.105 315.105 243 314 243H285C283.895 243 283 242.105 283 241ZM330 143C328.895 143 328 143.895 328 145C328 146.105 328.895 147 330 147H434C435.105 147 436 146.105 436 145C436 143.895 435.105 143 434 143H330ZM328 169C328 167.895 328.895 167 330 167H434C435.105 167 436 167.895 436 169C436 170.105 435.105 171 434 171H330C328.895 171 328 170.105 328 169ZM330 191C328.895 191 328 191.895 328 193C328 194.105 328.895 195 330 195H434C435.105 195 436 194.105 436 193C436 191.895 435.105 191 434 191H330ZM328 217C328 215.895 328.895 215 330 215H434C435.105 215 436 215.895 436 217C436 218.105 435.105 219 434 219H330C328.895 219 328 218.105 328 217ZM330 239C328.895 239 328 239.895 328 241C328 242.105 328.895 243 330 243H434C435.105 243 436 242.105 436 241C436 239.895 435.105 239 434 239H330ZM172 157H436V156.5H172V157ZM436 181H172V180.5H436V181ZM172 205H436V204.5H172V205ZM436 229H172V228.5H436V229ZM172 253H436V252.5H172V253Z" fill="#E6E6E6"/>
<g filter="url(#filter1_d_1065_6383)">
<rect x="293" y="159" width="289" height="156" rx="9" fill="white"/>
</g>
<path d="M324.331 181.217C324.063 179.278 322.571 178.153 320.637 178.153C318.357 178.153 316.64 179.815 316.64 182.636C316.64 185.453 318.336 187.119 320.637 187.119C322.712 187.119 324.089 185.777 324.331 184.111L322.738 184.102C322.537 185.125 321.702 185.7 320.658 185.7C319.243 185.7 318.229 184.639 318.229 182.636C318.229 180.668 319.235 179.572 320.662 179.572C321.723 179.572 322.554 180.173 322.738 181.217H324.331Z" fill="#3C3A3E"/>
<path d="M325.353 181.72H327.471V187H328.962V181.72H331.08V180.454H325.353V181.72Z" fill="#3C3A3E"/>
<path d="M333.923 187.132C334.95 187.132 335.563 186.65 335.845 186.101H335.896V187H337.379V182.619C337.379 180.889 335.968 180.369 334.72 180.369C333.343 180.369 332.286 180.983 331.945 182.176L333.386 182.381C333.539 181.933 333.974 181.55 334.728 181.55C335.444 181.55 335.836 181.916 335.836 182.56V182.585C335.836 183.028 335.372 183.05 334.217 183.173C332.947 183.31 331.732 183.689 331.732 185.163C331.732 186.45 332.674 187.132 333.923 187.132ZM334.323 185.998C333.68 185.998 333.22 185.704 333.22 185.138C333.22 184.545 333.735 184.298 334.426 184.2C334.83 184.145 335.64 184.043 335.84 183.881V184.652C335.84 185.381 335.252 185.998 334.323 185.998Z" fill="#3C3A3E"/>
<path d="M338.197 181.72H340.315V187H341.806V181.72H343.924V180.454H338.197V181.72Z" fill="#3C3A3E"/>
<path d="M346.64 184.912V180.454H345.152V187H346.742L349.354 182.538V187H350.846V180.454H349.26L346.64 184.912Z" fill="#3C3A3E"/>
<path d="M355.285 187.128C356.93 187.128 357.978 186.152 358.089 184.763H356.614C356.482 185.466 355.975 185.871 355.298 185.871C354.335 185.871 353.712 185.065 353.712 183.727C353.712 182.406 354.347 181.614 355.298 181.614C356.039 181.614 356.495 182.091 356.614 182.722H358.089C357.982 181.302 356.874 180.369 355.276 180.369C353.359 180.369 352.149 181.754 352.149 183.753C352.149 185.734 353.329 187.128 355.285 187.128Z" fill="#3C3A3E"/>
<path d="M358.892 181.72H361.01V187H362.502V181.72H364.619V180.454H358.892V181.72Z" fill="#3C3A3E"/>
<path d="M367.335 184.912V180.454H365.848V187H367.437L370.049 182.538V187H371.541V180.454H369.956L367.335 184.912Z" fill="#3C3A3E"/>
<path d="M373.125 187H374.668V184.533H375.422L377.216 187H379.082L376.632 183.668L379.057 180.454H377.199L375.23 183.097H374.668V180.454H373.125V187Z" fill="#3C3A3E"/>
<path d="M381.841 187.132C382.868 187.132 383.481 186.65 383.763 186.101H383.814V187H385.297V182.619C385.297 180.889 383.886 180.369 382.638 180.369C381.261 180.369 380.204 180.983 379.863 182.176L381.304 182.381C381.457 181.933 381.892 181.55 382.646 181.55C383.362 181.55 383.754 181.916 383.754 182.56V182.585C383.754 183.028 383.29 183.05 382.135 183.173C380.865 183.31 379.65 183.689 379.65 185.163C379.65 186.45 380.592 187.132 381.841 187.132ZM382.241 185.998C381.598 185.998 381.138 185.704 381.138 185.138C381.138 184.545 381.653 184.298 382.343 184.2C382.748 184.145 383.558 184.043 383.758 183.881V184.652C383.758 185.381 383.17 185.998 382.241 185.998Z" fill="#3C3A3E"/>
<path d="M389.824 187H391.299V181.72H393.864V187H395.351V180.454H389.824V187Z" fill="#3C3A3E"/>
<path d="M399.793 187.128C401.71 187.128 402.929 185.777 402.929 183.753C402.929 181.724 401.71 180.369 399.793 180.369C397.875 180.369 396.656 181.724 396.656 183.753C396.656 185.777 397.875 187.128 399.793 187.128ZM399.801 185.892C398.74 185.892 398.22 184.946 398.22 183.748C398.22 182.551 398.74 181.592 399.801 181.592C400.845 181.592 401.365 182.551 401.365 183.748C401.365 184.946 400.845 185.892 399.801 185.892Z" fill="#3C3A3E"/>
<path d="M407.215 187H408.758V184.533H409.512L411.306 187H413.172L410.722 183.668L413.147 180.454H411.289L409.32 183.097H408.758V180.454H407.215V187Z" fill="#3C3A3E"/>
<path d="M415.93 187.132C416.957 187.132 417.571 186.65 417.852 186.101H417.903V187H419.386V182.619C419.386 180.889 417.976 180.369 416.727 180.369C415.351 180.369 414.294 180.983 413.953 182.176L415.394 182.381C415.547 181.933 415.982 181.55 416.736 181.55C417.452 181.55 417.844 181.916 417.844 182.56V182.585C417.844 183.028 417.379 183.05 416.225 183.173C414.955 183.31 413.74 183.689 413.74 185.163C413.74 186.45 414.682 187.132 415.93 187.132ZM416.331 185.998C415.688 185.998 415.227 185.704 415.227 185.138C415.227 184.545 415.743 184.298 416.433 184.2C416.838 184.145 417.648 184.043 417.848 183.881V184.652C417.848 185.381 417.26 185.998 416.331 185.998Z" fill="#3C3A3E"/>
<path d="M424.705 185.206L422.813 180.454H420.938V187H422.425V182.589L424.168 187H425.246L427.048 182.543V187H428.523V180.454H426.648L424.705 185.206Z" fill="#3C3A3E"/>
<path d="M430.078 187H431.553V181.72H434.118V187H435.605V180.454H430.078V187Z" fill="#3C3A3E"/>
<path d="M439.075 187.132C440.102 187.132 440.716 186.65 440.997 186.101H441.048V187H442.531V182.619C442.531 180.889 441.12 180.369 439.872 180.369C438.495 180.369 437.439 180.983 437.098 182.176L438.538 182.381C438.691 181.933 439.126 181.55 439.88 181.55C440.596 181.55 440.988 181.916 440.988 182.56V182.585C440.988 183.028 440.524 183.05 439.369 183.173C438.099 183.31 436.885 183.689 436.885 185.163C436.885 186.45 437.826 187.132 439.075 187.132ZM439.476 185.998C438.832 185.998 438.372 185.704 438.372 185.138C438.372 184.545 438.888 184.298 439.578 184.2C439.983 184.145 440.792 184.043 440.993 183.881V184.652C440.993 185.381 440.405 185.998 439.476 185.998Z" fill="#3C3A3E"/>
<path d="M445.569 180.454H444.082V187H445.569V184.354H448.105V187H449.588V180.454H448.105V183.088H445.569V180.454Z" fill="#3C3A3E"/>
<path d="M452.636 184.912V180.454H451.149V187H452.738L455.35 182.538V187H456.842V180.454H455.256L452.636 184.912Z" fill="#3C3A3E"/>
<path d="M459.913 184.912V180.454H458.426V187H460.015L462.628 182.538V187H464.119V180.454H462.534L459.913 184.912Z" fill="#3C3A3E"/>
<rect x="441" y="220" width="76" height="4" rx="2" fill="#E6E6E6"/>
<rect x="441" y="250" width="110" height="4" rx="2" fill="#E6E6E6"/>
<rect x="441" y="280" width="60" height="4" rx="2" fill="#E6E6E6"/>
<path d="M446.321 206.182H441.685V212H442.73V207.057H445.275V212H446.321V206.182Z" fill="#838383"/>
<path d="M449.44 212.085C450.718 212.085 451.53 211.184 451.53 209.835C451.53 208.483 450.718 207.579 449.44 207.579C448.161 207.579 447.349 208.483 447.349 209.835C447.349 211.184 448.161 212.085 449.44 212.085ZM449.445 211.261C448.738 211.261 448.391 210.631 448.391 209.832C448.391 209.034 448.738 208.395 449.445 208.395C450.141 208.395 450.488 209.034 450.488 209.832C450.488 210.631 450.141 211.261 449.445 211.261Z" fill="#838383"/>
<path d="M451.93 208.48H453.342V212H454.337V208.48H455.748V207.636H451.93V208.48Z" fill="#838383"/>
<path d="M456.567 213.636H457.596V211.312H457.638C457.8 211.631 458.138 212.077 458.888 212.077C459.917 212.077 460.687 211.261 460.687 209.824C460.687 208.369 459.894 207.579 458.886 207.579C458.116 207.579 457.795 208.042 457.638 208.358H457.579V207.636H456.567V213.636ZM457.576 209.818C457.576 208.971 457.94 208.423 458.601 208.423C459.286 208.423 459.638 209.006 459.638 209.818C459.638 210.636 459.28 211.233 458.601 211.233C457.945 211.233 457.576 210.665 457.576 209.818Z" fill="#838383"/>
<path d="M462.823 212.088C463.508 212.088 463.917 211.767 464.104 211.4H464.138V212H465.127V209.079C465.127 207.926 464.187 207.579 463.354 207.579C462.437 207.579 461.732 207.988 461.505 208.784L462.465 208.92C462.567 208.622 462.857 208.366 463.36 208.366C463.837 208.366 464.099 208.611 464.099 209.04V209.057C464.099 209.352 463.789 209.366 463.019 209.449C462.172 209.54 461.363 209.792 461.363 210.775C461.363 211.633 461.991 212.088 462.823 212.088ZM463.09 211.332C462.661 211.332 462.354 211.136 462.354 210.758C462.354 210.363 462.698 210.199 463.158 210.133C463.428 210.096 463.968 210.028 464.101 209.92V210.434C464.101 210.92 463.709 211.332 463.09 211.332Z" fill="#838383"/>
<path d="M469.806 207.636H468.817V209.767C468.567 209.829 468.32 209.863 468.05 209.863C467.442 209.863 467.144 209.648 467.144 209.085V207.631H466.161V209.085C466.161 210.199 466.886 210.707 468.05 210.707C468.306 210.707 468.573 210.673 468.817 210.616V212H469.806V207.636Z" fill="#838383"/>
<path d="M472.773 212.085C473.79 212.085 474.489 211.588 474.67 210.829L473.71 210.721C473.571 211.091 473.23 211.284 472.787 211.284C472.122 211.284 471.682 210.846 471.673 210.099H474.713V209.784C474.713 208.253 473.793 207.579 472.719 207.579C471.469 207.579 470.653 208.497 470.653 209.844C470.653 211.213 471.457 212.085 472.773 212.085ZM471.676 209.406C471.707 208.849 472.119 208.381 472.733 208.381C473.324 208.381 473.722 208.812 473.727 209.406H471.676Z" fill="#838383"/>
<path d="M476.574 207.636H475.583V212H476.574V210.236H478.265V212H479.253V207.636H478.265V209.392H476.574V207.636Z" fill="#838383"/>
<path d="M482.197 212.085C483.476 212.085 484.288 211.184 484.288 209.835C484.288 208.483 483.476 207.579 482.197 207.579C480.919 207.579 480.106 208.483 480.106 209.835C480.106 211.184 480.919 212.085 482.197 212.085ZM482.203 211.261C481.496 211.261 481.149 210.631 481.149 209.832C481.149 209.034 481.496 208.395 482.203 208.395C482.899 208.395 483.246 209.034 483.246 209.832C483.246 210.631 482.899 211.261 482.203 211.261Z" fill="#838383"/>
<path d="M488.137 207.636H487.146V212H488.137V210.236H489.827V212H490.816V207.636H489.827V209.392H488.137V207.636Z" fill="#838383"/>
<path d="M493.112 212.088C493.797 212.088 494.206 211.767 494.393 211.4H494.427V212H495.416V209.079C495.416 207.926 494.476 207.579 493.643 207.579C492.726 207.579 492.021 207.988 491.794 208.784L492.754 208.92C492.856 208.622 493.146 208.366 493.649 208.366C494.126 208.366 494.388 208.611 494.388 209.04V209.057C494.388 209.352 494.078 209.366 493.308 209.449C492.462 209.54 491.652 209.792 491.652 210.775C491.652 211.633 492.28 212.088 493.112 212.088ZM493.379 211.332C492.95 211.332 492.643 211.136 492.643 210.758C492.643 210.363 492.987 210.199 493.447 210.133C493.717 210.096 494.257 210.028 494.391 209.92V210.434C494.391 210.92 493.998 211.332 493.379 211.332Z" fill="#838383"/>
<path d="M498.435 212H499.463V210.355H499.966L501.162 212H502.406L500.773 209.778L502.389 207.636H501.15L499.838 209.398H499.463V207.636H498.435V212Z" fill="#838383"/>
<path d="M504.245 212.088C504.93 212.088 505.339 211.767 505.526 211.4H505.56V212H506.549V209.079C506.549 207.926 505.609 207.579 504.776 207.579C503.859 207.579 503.154 207.988 502.927 208.784L503.887 208.92C503.989 208.622 504.279 208.366 504.782 208.366C505.259 208.366 505.521 208.611 505.521 209.04V209.057C505.521 209.352 505.211 209.366 504.441 209.449C503.594 209.54 502.785 209.792 502.785 210.775C502.785 211.633 503.413 212.088 504.245 212.088ZM504.512 211.332C504.083 211.332 503.776 211.136 503.776 210.758C503.776 210.363 504.12 210.199 504.58 210.133C504.85 210.096 505.39 210.028 505.523 209.92V210.434C505.523 210.92 505.131 211.332 504.512 211.332Z" fill="#838383"/>
<path d="M510.094 210.804L508.833 207.636H507.583V212H508.574V209.059L509.736 212H510.455L511.657 209.028V212H512.64V207.636H511.39L510.094 210.804Z" fill="#838383"/>
<path d="M513.677 212H514.66V208.48H516.37V212H517.361V207.636H513.677V212Z" fill="#838383"/>
<path d="M519.675 212.088C520.359 212.088 520.768 211.767 520.956 211.4H520.99V212H521.979V209.079C521.979 207.926 521.038 207.579 520.206 207.579C519.288 207.579 518.584 207.988 518.356 208.784L519.317 208.92C519.419 208.622 519.709 208.366 520.212 208.366C520.689 208.366 520.95 208.611 520.95 209.04V209.057C520.95 209.352 520.641 209.366 519.871 209.449C519.024 209.54 518.214 209.792 518.214 210.775C518.214 211.633 518.842 212.088 519.675 212.088ZM519.942 211.332C519.513 211.332 519.206 211.136 519.206 210.758C519.206 210.363 519.55 210.199 520.01 210.133C520.28 210.096 520.82 210.028 520.953 209.92V210.434C520.953 210.92 520.561 211.332 519.942 211.332Z" fill="#838383"/>
<path d="M524.004 207.636H523.013V212H524.004V210.236H525.695V212H526.683V207.636H525.695V209.392H524.004V207.636Z" fill="#838383"/>
<path d="M528.715 210.608V207.636H527.724V212H528.783L530.525 209.025V212H531.519V207.636H530.462L528.715 210.608Z" fill="#838383"/>
<path d="M533.345 207.636H532.314V212H533.345V210.27H534.169C534.328 211.361 535.081 212.085 536.197 212.085C537.456 212.085 538.254 211.162 538.257 209.827C538.254 208.491 537.456 207.579 536.197 207.579C535.067 207.579 534.308 208.312 534.163 209.423H533.345V207.636ZM536.197 211.233C535.447 211.233 535.126 210.619 535.126 209.827C535.126 209.034 535.447 208.423 536.197 208.423C536.945 208.423 537.263 209.04 537.263 209.827C537.263 210.616 536.945 211.233 536.197 211.233Z" fill="#838383"/>
<path d="M442.321 242L442.801 240.565H444.989L445.472 242H446.597L444.546 236.182H443.245L441.196 242H442.321ZM443.085 239.718L443.872 237.375H443.918L444.705 239.718H443.085Z" fill="#838383"/>
<path d="M450.815 236.022C450.605 236.182 450.272 236.179 449.821 236.179C449.693 236.179 449.559 236.179 449.414 236.182C447.911 236.201 447.139 237.201 447.139 239.253V239.645C447.139 241.241 447.946 242.085 449.215 242.085C450.485 242.085 451.286 241.238 451.286 239.892C451.286 238.585 450.525 237.832 449.443 237.832C448.778 237.832 448.275 238.119 448.002 238.653H447.954C448.056 237.565 448.465 237.074 449.443 237.051C450.309 237.031 450.795 237.017 451.173 236.687L450.815 236.022ZM449.221 241.261C448.576 241.261 448.181 240.744 448.181 239.92C448.19 239.108 448.579 238.642 449.215 238.642C449.852 238.642 450.244 239.108 450.244 239.92C450.244 240.747 449.855 241.261 449.221 241.261Z" fill="#838383"/>
<path d="M454.065 242.085C455.343 242.085 456.156 241.184 456.156 239.835C456.156 238.483 455.343 237.579 454.065 237.579C452.786 237.579 451.974 238.483 451.974 239.835C451.974 241.184 452.786 242.085 454.065 242.085ZM454.071 241.261C453.363 241.261 453.017 240.63 453.017 239.832C453.017 239.034 453.363 238.395 454.071 238.395C454.767 238.395 455.113 239.034 455.113 239.832C455.113 240.63 454.767 241.261 454.071 241.261Z" fill="#838383"/>
<path d="M458.02 237.636H457.029V242H458.02V240.236H459.71V242H460.699V237.636H459.71V239.392H458.02V237.636Z" fill="#838383"/>
<path d="M463.671 242.085C464.688 242.085 465.387 241.588 465.569 240.829L464.609 240.721C464.47 241.091 464.129 241.284 463.686 241.284C463.021 241.284 462.581 240.846 462.572 240.099H465.612V239.784C465.612 238.253 464.691 237.579 463.617 237.579C462.367 237.579 461.552 238.497 461.552 239.843C461.552 241.213 462.356 242.085 463.671 242.085ZM462.575 239.406C462.606 238.849 463.018 238.38 463.632 238.38C464.223 238.38 464.62 238.812 464.626 239.406H462.575Z" fill="#838383"/>
<path d="M467.473 237.636H466.482V242H467.473V240.236H469.164V242H470.152V237.636H469.164V239.392H467.473V237.636Z" fill="#838383"/>
<path d="M470.704 238.48H472.116V242H473.11V238.48H474.522V237.636H470.704V238.48Z" fill="#838383"/>
<path d="M477.065 242.085C478.343 242.085 479.156 241.184 479.156 239.835C479.156 238.483 478.343 237.579 477.065 237.579C475.786 237.579 474.974 238.483 474.974 239.835C474.974 241.184 475.786 242.085 477.065 242.085ZM477.071 241.261C476.363 241.261 476.017 240.63 476.017 239.832C476.017 239.034 476.363 238.395 477.071 238.395C477.767 238.395 478.113 239.034 478.113 239.832C478.113 240.63 477.767 241.261 477.071 241.261Z" fill="#838383"/>
<path d="M480.029 242H482.142C483.165 242 483.75 241.537 483.75 240.815C483.75 240.204 483.276 239.778 482.591 239.718C483.174 239.611 483.537 239.301 483.537 238.809C483.537 238.074 482.892 237.636 481.861 237.636H480.029V242ZM480.992 241.19V240.108H482.142C482.52 240.108 482.75 240.326 482.75 240.687C482.75 241 482.52 241.19 482.142 241.19H480.992ZM480.992 239.443V238.46H481.861C482.29 238.46 482.551 238.642 482.551 238.94C482.551 239.253 482.299 239.443 481.881 239.443H480.992Z" fill="#838383"/>
<path d="M488.487 242.085C489.765 242.085 490.578 241.184 490.578 239.835C490.578 238.483 489.765 237.579 488.487 237.579C487.208 237.579 486.396 238.483 486.396 239.835C486.396 241.184 487.208 242.085 488.487 242.085ZM488.492 241.261C487.785 241.261 487.438 240.63 487.438 239.832C487.438 239.034 487.785 238.395 488.492 238.395C489.188 238.395 489.535 239.034 489.535 239.832C489.535 240.63 489.188 241.261 488.492 241.261Z" fill="#838383"/>
<path d="M490.978 238.48H492.389V242H493.384V238.48H494.796V237.636H490.978V238.48Z" fill="#838383"/>
<path d="M495.615 242H497.728C498.751 242 499.336 241.537 499.336 240.815C499.336 240.204 498.862 239.778 498.177 239.718C498.759 239.611 499.123 239.301 499.123 238.809C499.123 238.074 498.478 237.636 497.447 237.636H495.615V242ZM496.578 241.19V240.108H497.728C498.106 240.108 498.336 240.326 498.336 240.687C498.336 241 498.106 241.19 497.728 241.19H496.578ZM496.578 239.443V238.46H497.447C497.876 238.46 498.137 238.642 498.137 238.94C498.137 239.253 497.884 239.443 497.467 239.443H496.578Z" fill="#838383"/>
<path d="M502.117 242.085C503.134 242.085 503.833 241.588 504.014 240.829L503.054 240.721C502.915 241.091 502.574 241.284 502.131 241.284C501.466 241.284 501.026 240.846 501.017 240.099H504.057V239.784C504.057 238.253 503.137 237.579 502.063 237.579C500.813 237.579 499.997 238.497 499.997 239.843C499.997 241.213 500.801 242.085 502.117 242.085ZM501.02 239.406C501.051 238.849 501.463 238.38 502.077 238.38C502.668 238.38 503.066 238.812 503.071 239.406H501.02Z" fill="#838383"/>
<path d="M504.563 238.48H505.975V242H506.97V238.48H508.382V237.636H504.563V238.48Z" fill="#838383"/>
<path d="M510.192 240.608V237.636H509.201V242H510.26L512.002 239.025V242H512.996V237.636H511.939L510.192 240.608Z" fill="#838383"/>
<path d="M513.751 242H514.069C515.007 242 515.43 241.341 515.498 239.886L515.566 238.48H516.819V242H517.813V237.636H514.632L514.555 239.568C514.507 240.792 514.348 241.153 513.896 241.153H513.745L513.751 242Z" fill="#838383"/>
<path d="M520.752 242.085C522.031 242.085 522.843 241.184 522.843 239.835C522.843 238.483 522.031 237.579 520.752 237.579C519.474 237.579 518.661 238.483 518.661 239.835C518.661 241.184 519.474 242.085 520.752 242.085ZM520.758 241.261C520.051 241.261 519.704 240.63 519.704 239.832C519.704 239.034 520.051 238.395 520.758 238.395C521.454 238.395 521.801 239.034 521.801 239.832C521.801 240.63 521.454 241.261 520.758 241.261Z" fill="#838383"/>
<path d="M445.06 272H446.358L443.961 268.835L446.259 266.182H444.961L442.892 268.574H442.628V266.182H441.574V272H442.628V269.457H443.145L445.06 272Z" fill="#838383"/>
<path d="M448.612 272.085C449.89 272.085 450.703 271.184 450.703 269.835C450.703 268.483 449.89 267.579 448.612 267.579C447.333 267.579 446.521 268.483 446.521 269.835C446.521 271.184 447.333 272.085 448.612 272.085ZM448.618 271.261C447.91 271.261 447.564 270.631 447.564 269.832C447.564 269.034 447.91 268.395 448.618 268.395C449.314 268.395 449.66 269.034 449.66 269.832C449.66 270.631 449.314 271.261 448.618 271.261Z" fill="#838383"/>
<path d="M451.275 272H451.593C452.53 272 452.953 271.341 453.022 269.886L453.09 268.48H454.343V272H455.337V267.636H452.155L452.078 269.568C452.03 270.792 451.871 271.153 451.419 271.153H451.269L451.275 272Z" fill="#838383"/>
<path d="M457.364 270.608V267.636H456.373V272H457.432L459.174 269.025V272H460.168V267.636H459.111L457.364 270.608Z" fill="#838383"/>
<path d="M464.869 267.636H463.88V269.767C463.63 269.829 463.383 269.863 463.113 269.863C462.505 269.863 462.207 269.648 462.207 269.085V267.631H461.224V269.085C461.224 270.199 461.949 270.707 463.113 270.707C463.369 270.707 463.636 270.673 463.88 270.616V272H464.869V267.636Z" fill="#838383"/>
<path d="M467.836 272.085C468.853 272.085 469.551 271.588 469.733 270.829L468.773 270.721C468.634 271.091 468.293 271.284 467.85 271.284C467.185 271.284 466.745 270.846 466.736 270.099H469.776V269.784C469.776 268.253 468.855 267.579 467.782 267.579C466.532 267.579 465.716 268.497 465.716 269.844C465.716 271.213 466.52 272.085 467.836 272.085ZM466.739 269.406C466.77 268.849 467.182 268.381 467.796 268.381C468.387 268.381 468.784 268.812 468.79 269.406H466.739Z" fill="#838383"/>
<path d="M472.549 272.085C473.646 272.085 474.345 271.434 474.419 270.508H473.436C473.348 270.977 473.01 271.247 472.558 271.247C471.916 271.247 471.501 270.71 471.501 269.818C471.501 268.937 471.924 268.409 472.558 268.409C473.052 268.409 473.356 268.727 473.436 269.148H474.419C474.348 268.202 473.609 267.579 472.544 267.579C471.265 267.579 470.458 268.503 470.458 269.835C470.458 271.156 471.245 272.085 472.549 272.085Z" fill="#838383"/>
<path d="M474.954 268.48H476.366V272H477.36V268.48H478.772V267.636H474.954V268.48Z" fill="#838383"/>
<path d="M479.591 272H481.705C482.728 272 483.313 271.537 483.313 270.815C483.313 270.204 482.838 269.778 482.154 269.719C482.736 269.611 483.1 269.301 483.1 268.809C483.1 268.074 482.455 267.636 481.424 267.636H479.591V272ZM480.554 271.19V270.108H481.705C482.083 270.108 482.313 270.327 482.313 270.687C482.313 271 482.083 271.19 481.705 271.19H480.554ZM480.554 269.443V268.46H481.424C481.853 268.46 482.114 268.642 482.114 268.94C482.114 269.253 481.861 269.443 481.444 269.443H480.554Z" fill="#838383"/>
<path d="M486.065 272.085C487.343 272.085 488.156 271.184 488.156 269.835C488.156 268.483 487.343 267.579 486.065 267.579C484.787 267.579 483.974 268.483 483.974 269.835C483.974 271.184 484.787 272.085 486.065 272.085ZM486.071 271.261C485.363 271.261 485.017 270.631 485.017 269.832C485.017 269.034 485.363 268.395 486.071 268.395C486.767 268.395 487.113 269.034 487.113 269.832C487.113 270.631 486.767 271.261 486.071 271.261Z" fill="#838383"/>
<path d="M490.772 270.804C490.797 271.613 491.539 272.085 492.547 272.085C493.581 272.085 494.328 271.594 494.328 270.79C494.328 270.202 493.928 269.798 493.411 269.767V269.721C493.911 269.588 494.229 269.275 494.229 268.804C494.229 268.068 493.593 267.579 492.57 267.579C491.615 267.579 490.897 268.074 490.882 268.835H491.897C491.908 268.542 492.209 268.338 492.618 268.338C493.027 268.338 493.275 268.557 493.275 268.881C493.275 269.179 493.047 269.4 492.621 269.4H491.953V270.131H492.621C493.05 270.131 493.331 270.372 493.331 270.724C493.331 271.122 492.982 271.315 492.542 271.315C492.107 271.315 491.811 271.128 491.792 270.804H490.772Z" fill="#838383"/>
<path d="M495.138 272H497.252C498.275 272 498.86 271.537 498.86 270.815C498.86 270.204 498.385 269.778 497.701 269.719C498.283 269.611 498.647 269.301 498.647 268.809C498.647 268.074 498.002 267.636 496.971 267.636H495.138V272ZM496.101 271.19V270.108H497.252C497.63 270.108 497.86 270.327 497.86 270.687C497.86 271 497.63 271.19 497.252 271.19H496.101ZM496.101 269.443V268.46H496.971C497.4 268.46 497.661 268.642 497.661 268.94C497.661 269.253 497.408 269.443 496.99 269.443H496.101Z" fill="#838383"/>
<path d="M501.612 272.085C502.89 272.085 503.703 271.184 503.703 269.835C503.703 268.483 502.89 267.579 501.612 267.579C500.333 267.579 499.521 268.483 499.521 269.835C499.521 271.184 500.333 272.085 501.612 272.085ZM501.618 271.261C500.91 271.261 500.564 270.631 500.564 269.832C500.564 269.034 500.91 268.395 501.618 268.395C502.314 268.395 502.66 269.034 502.66 269.832C502.66 270.631 502.314 271.261 501.618 271.261Z" fill="#838383"/>
<path d="M505.567 267.636H504.576V272H505.567V270.236H507.257V272H508.246V267.636H507.257V269.392H505.567V267.636Z" fill="#838383"/>
<path d="M509.287 272H510.315V270.355H510.818L512.014 272H513.258L511.625 269.778L513.241 267.636H512.002L510.69 269.398H510.315V267.636H509.287V272Z" fill="#838383"/>
<path d="M515.565 272.085C516.843 272.085 517.656 271.184 517.656 269.835C517.656 268.483 516.843 267.579 515.565 267.579C514.287 267.579 513.474 268.483 513.474 269.835C513.474 271.184 514.287 272.085 515.565 272.085ZM515.571 271.261C514.863 271.261 514.517 270.631 514.517 269.832C514.517 269.034 514.863 268.395 515.571 268.395C516.267 268.395 516.613 269.034 516.613 269.832C516.613 270.631 516.267 271.261 515.571 271.261Z" fill="#838383"/>
<path d="M518.529 272H520.642C521.665 272 522.25 271.537 522.25 270.815C522.25 270.204 521.776 269.778 521.091 269.719C521.674 269.611 522.037 269.301 522.037 268.809C522.037 268.074 521.392 267.636 520.361 267.636H518.529V272ZM519.492 271.19V270.108H520.642C521.02 270.108 521.25 270.327 521.25 270.687C521.25 271 521.02 271.19 520.642 271.19H519.492ZM519.492 269.443V268.46H520.361C520.79 268.46 521.051 268.642 521.051 268.94C521.051 269.253 520.799 269.443 520.381 269.443H519.492Z" fill="#838383"/>
<path d="M394.032 276.047C400.673 269.407 404.926 260.753 406.127 251.439C407.327 242.125 405.408 232.676 400.669 224.568L379.396 237.003C381.387 240.408 382.193 244.377 381.689 248.289C381.185 252.201 379.398 255.835 376.609 258.624L394.032 276.047Z" fill="#AEAEAE" stroke="white"/>
<path d="M400.669 224.568C395.066 214.983 385.934 207.973 375.227 205.037C364.52 202.101 353.089 203.474 343.381 208.861L355.336 230.406C359.413 228.143 364.214 227.567 368.711 228.8C373.208 230.033 377.044 232.977 379.397 237.003L400.669 224.568Z" fill="#E6E6E6" stroke="white"/>
<path d="M343.381 208.861C338.066 211.81 333.447 215.865 329.833 220.752C326.22 225.639 323.698 231.244 322.436 237.19C321.174 243.135 321.203 249.282 322.52 255.215C323.837 261.148 326.412 266.73 330.071 271.583C333.729 276.436 338.387 280.447 343.728 283.346C349.07 286.246 354.972 287.965 361.035 288.388C367.097 288.811 373.181 287.929 378.873 285.8C384.566 283.671 389.736 280.346 394.033 276.048L376.61 258.625C374.805 260.43 372.634 261.827 370.243 262.721C367.852 263.615 365.297 263.986 362.751 263.808C360.204 263.63 357.726 262.908 355.482 261.69C353.239 260.473 351.282 258.788 349.746 256.75C348.209 254.711 347.128 252.367 346.574 249.875C346.021 247.383 346.009 244.801 346.539 242.304C347.069 239.807 348.129 237.453 349.646 235.401C351.164 233.348 353.104 231.645 355.336 230.407L343.381 208.861Z" fill="#F4774C" stroke="white"/>
<g filter="url(#filter2_d_1065_6383)">
<rect x="293.002" y="39" width="289" height="101" rx="9" fill="white"/>
</g>
<path d="M316.296 69.1048H317.813V66.9997H323.374V69.0963H324.891V65.7085H323.919V58.2725H318.341L318.111 61.9628C317.971 64.3151 317.472 65.2398 316.88 65.7085H316.296V69.1048ZM318.721 65.7085C319.185 64.9458 319.522 63.7483 319.628 61.9628L319.765 59.5977H322.402V65.7085H318.721Z" fill="#3C3A3E"/>
<path d="M329.009 67.1276C330.534 67.1276 331.582 66.3818 331.855 65.2441L330.415 65.0821C330.206 65.6361 329.695 65.9259 329.03 65.9259C328.033 65.9259 327.372 65.2696 327.359 64.1489H331.919V63.6759C331.919 61.379 330.538 60.3691 328.928 60.3691C327.053 60.3691 325.83 61.7455 325.83 63.7654C325.83 65.8193 327.036 67.1276 329.009 67.1276ZM327.364 63.1091C327.411 62.2739 328.028 61.5708 328.949 61.5708C329.835 61.5708 330.432 62.2185 330.44 63.1091H327.364Z" fill="#3C3A3E"/>
<path d="M332.679 61.7199H334.797V66.9997H336.288V61.7199H338.406V60.4543H332.679V61.7199Z" fill="#3C3A3E"/>
<path d="M341.248 67.1318C342.275 67.1318 342.889 66.6503 343.17 66.1006H343.221V66.9997H344.704V62.6191C344.704 60.8889 343.294 60.3691 342.045 60.3691C340.669 60.3691 339.612 60.9827 339.271 62.1759L340.711 62.3804C340.865 61.933 341.299 61.5494 342.054 61.5494C342.77 61.5494 343.162 61.9159 343.162 62.5594V62.585C343.162 63.0281 342.697 63.0494 341.542 63.173C340.272 63.3094 339.058 63.6887 339.058 65.1631C339.058 66.45 340 67.1318 341.248 67.1318ZM341.649 65.9983C341.005 65.9983 340.545 65.7043 340.545 65.1375C340.545 64.5452 341.061 64.298 341.751 64.2C342.156 64.1446 342.966 64.0423 343.166 63.8804V64.6517C343.166 65.3804 342.578 65.9983 341.649 65.9983Z" fill="#3C3A3E"/>
<path d="M345.804 66.9997H346.281C347.687 66.9997 348.322 66.0111 348.424 63.8293L348.527 61.7199H350.406V66.9997H351.897V60.4543H347.125L347.01 63.352C346.937 65.1887 346.699 65.7298 346.021 65.7298H345.795L345.804 66.9997Z" fill="#3C3A3E"/>
<path d="M354.938 64.9117V60.4543H353.451V66.9997H355.04L357.652 62.5381V66.9997H359.144V60.4543H357.559L354.938 64.9117Z" fill="#3C3A3E"/>
<path d="M360.366 65.2057C360.404 66.4202 361.516 67.1276 363.029 67.1276C364.58 67.1276 365.701 66.3904 365.701 65.1844C365.701 64.3023 365.1 63.6972 364.325 63.6503V63.5821C365.075 63.3818 365.552 62.9131 365.552 62.2057C365.552 61.102 364.597 60.3691 363.063 60.3691C361.631 60.3691 360.553 61.1105 360.532 62.2526H362.053C362.07 61.8137 362.522 61.5068 363.136 61.5068C363.749 61.5068 364.12 61.835 364.12 62.3208C364.12 62.7682 363.779 63.1006 363.14 63.1006H362.139V64.1958H363.14C363.783 64.1958 364.205 64.558 364.205 65.0864C364.205 65.683 363.681 65.9727 363.021 65.9727C362.369 65.9727 361.926 65.6915 361.896 65.2057H360.366Z" fill="#3C3A3E"/>
<path d="M368.799 67.1318C369.826 67.1318 370.44 66.6503 370.721 66.1006H370.772V66.9997H372.255V62.6191C372.255 60.8889 370.845 60.3691 369.596 60.3691C368.22 60.3691 367.163 60.9827 366.822 62.1759L368.262 62.3804C368.416 61.933 368.85 61.5494 369.604 61.5494C370.32 61.5494 370.712 61.9159 370.712 62.5594V62.585C370.712 63.0281 370.248 63.0494 369.093 63.173C367.823 63.3094 366.609 63.6887 366.609 65.1631C366.609 66.45 367.551 67.1318 368.799 67.1318ZM369.2 65.9983C368.556 65.9983 368.096 65.7043 368.096 65.1375C368.096 64.5452 368.612 64.298 369.302 64.2C369.707 64.1446 370.516 64.0423 370.717 63.8804V64.6517C370.717 65.3804 370.129 65.9983 369.2 65.9983Z" fill="#3C3A3E"/>
<path d="M379.333 60.4543H377.859V65.7341H375.293V60.4543H373.806V66.9997H378.826V69.1048H380.335V65.8492H379.333V60.4543Z" fill="#3C3A3E"/>
<path d="M383.086 64.9117V60.4543H381.599V66.9997H383.189L385.801 62.5381V66.9997H387.292V60.4543H385.707L383.086 64.9117Z" fill="#3C3A3E"/>
<path d="M392.746 66.9997H394.19V60.4543H391.348C389.746 60.4543 388.753 61.2767 388.757 62.5338C388.753 63.3605 389.205 63.9869 389.984 64.3066L388.519 66.9997H390.036L391.378 64.5367H392.746V66.9997ZM392.746 63.4117H391.297C390.619 63.4117 390.244 63.058 390.249 62.5679C390.244 62.0779 390.641 61.7071 391.348 61.7071H392.746V63.4117Z" fill="#3C3A3E"/>
<path d="M324.333 88.2172C324.065 86.2783 322.573 85.1533 320.639 85.1533C318.359 85.1533 316.642 86.8153 316.642 89.6363C316.642 92.453 318.338 94.1192 320.639 94.1192C322.714 94.1192 324.09 92.7769 324.333 91.1107L322.74 91.1022C322.539 92.1249 321.704 92.7002 320.66 92.7002C319.245 92.7002 318.231 91.6391 318.231 89.6363C318.231 87.6675 319.237 86.5724 320.664 86.5724C321.725 86.5724 322.556 87.1732 322.74 88.2172H324.333Z" fill="#3C3A3E"/>
<path d="M328.11 95.9005H329.627V93.9999H333.91V95.9005H335.401V92.73H334.387V87.4545H329.657L329.469 89.7471C329.346 91.213 329.184 92.2996 328.63 92.73H328.11V95.9005ZM330.215 92.73C330.628 92.1207 330.782 91.132 330.893 89.7471L330.995 88.6988H332.913V92.73H330.215Z" fill="#3C3A3E"/>
<path d="M338.436 94.132C339.463 94.132 340.077 93.6505 340.358 93.1008H340.409V93.9999H341.892V89.6192C341.892 87.8891 340.482 87.3692 339.233 87.3692C337.857 87.3692 336.8 87.9829 336.459 89.176L337.899 89.3806C338.053 88.9332 338.487 88.5496 339.242 88.5496C339.958 88.5496 340.35 88.9161 340.35 89.5596V89.5851C340.35 90.0283 339.885 90.0496 338.73 90.1732C337.46 90.3096 336.246 90.6888 336.246 92.1633C336.246 93.4502 337.188 94.132 338.436 94.132ZM338.837 92.9985C338.193 92.9985 337.733 92.7045 337.733 92.1377C337.733 91.5454 338.249 91.2982 338.939 91.2002C339.344 91.1448 340.154 91.0425 340.354 90.8806V91.6519C340.354 92.3806 339.766 92.9985 338.837 92.9985Z" fill="#3C3A3E"/>
<path d="M342.71 88.7201H344.828V93.9999H346.32V88.7201H348.438V87.4545H342.71V88.7201Z" fill="#3C3A3E"/>
<path d="M351.153 89.5851V87.4545H349.666V93.9999H352.641C354.307 93.9999 355.266 93.0795 355.27 91.7925C355.266 90.4715 354.307 89.5851 352.641 89.5851H351.153ZM356.084 93.9999H357.626V87.4545H356.084V93.9999ZM351.153 90.8508H352.641C353.31 90.8508 353.791 91.2471 353.791 91.8138C353.791 92.355 353.31 92.7343 352.641 92.7343H351.153V90.8508Z" fill="#3C3A3E"/>
<path d="M360.167 94.0937C360.67 94.0937 361.1 93.676 361.105 93.1562C361.1 92.6448 360.67 92.2272 360.167 92.2272C359.647 92.2272 359.225 92.6448 359.23 93.1562C359.225 93.676 359.647 94.0937 360.167 94.0937ZM360.167 89.4189C360.67 89.4189 361.1 89.0013 361.105 88.4814C361.1 87.9701 360.67 87.5525 360.167 87.5525C359.647 87.5525 359.225 87.9701 359.23 88.4814C359.225 89.0013 359.647 89.4189 360.167 89.4189Z" fill="#3C3A3E"/>
<path d="M448.984 85.2725H442.029V93.9997H443.597V86.585H447.416V93.9997H448.984V85.2725Z" fill="#3C3A3E"/>
<path d="M453.662 94.1276C455.579 94.1276 456.798 92.7767 456.798 90.7526C456.798 88.7242 455.579 87.3691 453.662 87.3691C451.744 87.3691 450.525 88.7242 450.525 90.7526C450.525 92.7767 451.744 94.1276 453.662 94.1276ZM453.67 92.8918C452.609 92.8918 452.089 91.9458 452.089 90.7483C452.089 89.5509 452.609 88.5921 453.67 88.5921C454.714 88.5921 455.234 89.5509 455.234 90.7483C455.234 91.9458 454.714 92.8918 453.67 92.8918Z" fill="#3C3A3E"/>
<path d="M460.504 95.9003H462.021V93.9997H466.304V95.9003H467.796V92.7298H466.781V87.4543H462.051L461.864 89.7469C461.74 91.2128 461.578 92.2994 461.024 92.7298H460.504V95.9003ZM462.61 92.7298C463.023 92.1205 463.176 91.1318 463.287 89.7469L463.389 88.6986H465.307V92.7298H462.61Z" fill="#3C3A3E"/>
<path d="M470.831 94.1318C471.858 94.1318 472.471 93.6503 472.753 93.1006H472.804V93.9997H474.287V89.6191C474.287 87.8889 472.876 87.3691 471.628 87.3691C470.251 87.3691 469.194 87.9827 468.854 89.1759L470.294 89.3804C470.447 88.933 470.882 88.5494 471.636 88.5494C472.352 88.5494 472.744 88.9159 472.744 89.5594V89.585C472.744 90.0281 472.28 90.0494 471.125 90.173C469.855 90.3094 468.64 90.6887 468.64 92.1631C468.64 93.45 469.582 94.1318 470.831 94.1318ZM471.231 92.9983C470.588 92.9983 470.128 92.7043 470.128 92.1375C470.128 91.5452 470.643 91.298 471.334 91.2C471.738 91.1446 472.548 91.0423 472.748 90.8804V91.6517C472.748 92.3804 472.16 92.9983 471.231 92.9983Z" fill="#3C3A3E"/>
<path d="M475.105 88.7199H477.223V93.9997H478.714V88.7199H480.832V87.4543H475.105V88.7199Z" fill="#3C3A3E"/>
<path d="M483.019 96.4543C484.221 96.4543 484.916 95.8364 485.286 94.7923L487.916 87.4628L486.267 87.4543L484.754 92.3975H484.686L483.177 87.4543H481.541L483.914 94.1361L483.782 94.4898C483.497 95.2355 483.045 95.2867 482.372 95.0906L482.014 96.2923C482.222 96.3776 482.597 96.4543 483.019 96.4543Z" fill="#3C3A3E"/>
<path d="M489.937 94.0935C490.439 94.0935 490.87 93.6759 490.874 93.156C490.87 92.6446 490.439 92.227 489.937 92.227C489.417 92.227 488.995 92.6446 488.999 93.156C488.995 93.6759 489.417 94.0935 489.937 94.0935ZM489.937 89.4188C490.439 89.4188 490.87 89.0012 490.874 88.4813C490.87 87.9699 490.439 87.5523 489.937 87.5523C489.417 87.5523 488.995 87.9699 488.999 88.4813C488.995 89.0012 489.417 89.4188 489.937 89.4188Z" fill="#3C3A3E"/>
<path d="M367.519 94.0003H371.508V93.1196H368.974V93.0798L369.977 92.0599C371.108 90.9747 371.42 90.4463 371.42 89.79C371.42 88.8156 370.627 88.1025 369.457 88.1025C368.304 88.1025 367.485 88.8184 367.485 89.9236H368.488C368.488 89.3298 368.863 88.9577 369.443 88.9577C369.997 88.9577 370.409 89.2957 370.409 89.844C370.409 90.3298 370.113 90.6764 369.539 91.2588L367.519 93.2389V94.0003Z" fill="#858585"/>
<path d="M374.639 94.1111C376.042 94.1139 376.88 93.0059 376.88 91.0969C376.88 89.1991 376.036 88.1025 374.639 88.1025C373.241 88.1025 372.4 89.1963 372.397 91.0969C372.397 93.0031 373.235 94.1111 374.639 94.1111ZM374.639 93.2219C373.914 93.2219 373.46 92.4946 373.463 91.0969C373.465 89.7105 373.917 88.9804 374.639 88.9804C375.363 88.9804 375.815 89.7105 375.818 91.0969C375.818 92.4946 375.366 93.2219 374.639 93.2219Z" fill="#858585"/>
<path d="M377.824 94.0003H381.813V93.1196H379.279V93.0798L380.282 92.0599C381.412 90.9747 381.725 90.4463 381.725 89.79C381.725 88.8156 380.932 88.1025 379.762 88.1025C378.608 88.1025 377.79 88.8184 377.79 89.9236H378.793C378.793 89.3298 379.168 88.9577 379.747 88.9577C380.301 88.9577 380.713 89.2957 380.713 89.844C380.713 90.3298 380.418 90.6764 379.844 91.2588L377.824 93.2389V94.0003Z" fill="#858585"/>
<path d="M385.159 88.1821H384.157L382.71 89.1111V90.077L384.071 89.2077H384.105V94.0003H385.159V88.1821Z" fill="#858585"/>
<path d="M389.293 90.6679H386.674V91.5145H389.293V90.6679Z" fill="#858585"/>
<path d="M392.73 88.1821H391.727L390.281 89.1111V90.077L391.642 89.2077H391.676V94.0003H392.73V88.1821Z" fill="#858585"/>
<path d="M396.573 88.1821H395.571L394.125 89.1111V90.077L395.485 89.2077H395.519V94.0003H396.573V88.1821Z" fill="#858585"/>
<path d="M400.707 90.6679H398.088V91.5145H400.707V90.6679Z" fill="#858585"/>
<path d="M404.144 88.1821H403.141L401.695 89.1111V90.077L403.056 89.2077H403.09V94.0003H404.144V88.1821Z" fill="#858585"/>
<path d="M407.689 94.0798C408.948 94.0798 409.848 93.3866 409.851 92.4406C409.848 91.7133 409.311 91.1054 408.635 90.9917V90.952C409.223 90.8213 409.632 90.2929 409.635 89.6622C409.632 88.7673 408.809 88.1025 407.689 88.1025C406.561 88.1025 405.737 88.7645 405.74 89.6622C405.737 90.2929 406.141 90.8213 406.74 90.952V90.9917C406.053 91.1054 405.522 91.7133 405.524 92.4406C405.522 93.3866 406.419 94.0798 407.689 94.0798ZM407.689 93.2673C407.03 93.2673 406.604 92.9037 406.61 92.3667C406.604 91.8099 407.061 91.415 407.689 91.415C408.309 91.415 408.763 91.8128 408.769 92.3667C408.763 92.9037 408.34 93.2673 407.689 93.2673ZM407.689 90.6167C407.149 90.6167 406.763 90.2673 406.769 89.7616C406.763 89.2616 407.138 88.9264 407.689 88.9264C408.232 88.9264 408.604 89.2616 408.61 89.7616C408.604 90.2702 408.22 90.6167 407.689 90.6167Z" fill="#858585"/>
<path d="M497.519 94.0003H501.508V93.1196H498.974V93.0798L499.977 92.0599C501.108 90.9747 501.42 90.4463 501.42 89.79C501.42 88.8156 500.627 88.1025 499.457 88.1025C498.304 88.1025 497.485 88.8184 497.485 89.9236H498.488C498.488 89.3298 498.863 88.9577 499.443 88.9577C499.997 88.9577 500.409 89.2957 500.409 89.844C500.409 90.3298 500.113 90.6764 499.539 91.2588L497.519 93.2389V94.0003Z" fill="#858585"/>
<path d="M504.639 94.1111C506.042 94.1139 506.88 93.0059 506.88 91.0969C506.88 89.1991 506.036 88.1025 504.639 88.1025C503.241 88.1025 502.4 89.1963 502.397 91.0969C502.397 93.0031 503.235 94.1111 504.639 94.1111ZM504.639 93.2219C503.914 93.2219 503.46 92.4946 503.463 91.0969C503.465 89.7105 503.917 88.9804 504.639 88.9804C505.363 88.9804 505.815 89.7105 505.818 91.0969C505.818 92.4946 505.366 93.2219 504.639 93.2219Z" fill="#858585"/>
<path d="M507.824 94.0003H511.813V93.1196H509.279V93.0798L510.282 92.0599C511.412 90.9747 511.725 90.4463 511.725 89.79C511.725 88.8156 510.932 88.1025 509.762 88.1025C508.608 88.1025 507.79 88.8184 507.79 89.9236H508.793C508.793 89.3298 509.168 88.9577 509.747 88.9577C510.301 88.9577 510.713 89.2957 510.713 89.844C510.713 90.3298 510.418 90.6764 509.844 91.2588L507.824 93.2389V94.0003Z" fill="#858585"/>
<path d="M515.159 88.1821H514.157L512.71 89.1111V90.077L514.071 89.2077H514.105V94.0003H515.159V88.1821Z" fill="#858585"/>
<path d="M519.293 90.6679H516.674V91.5145H519.293V90.6679Z" fill="#858585"/>
<path d="M522.73 88.1821H521.727L520.281 89.1111V90.077L521.642 89.2077H521.676V94.0003H522.73V88.1821Z" fill="#858585"/>
<path d="M524.207 94.0003H528.196V93.1196H525.661V93.0798L526.664 92.0599C527.795 90.9747 528.108 90.4463 528.108 89.79C528.108 88.8156 527.315 88.1025 526.144 88.1025C524.991 88.1025 524.173 88.8184 524.173 89.9236H525.176C525.176 89.3298 525.551 88.9577 526.13 88.9577C526.684 88.9577 527.096 89.2957 527.096 89.844C527.096 90.3298 526.801 90.6764 526.227 91.2588L524.207 93.2389V94.0003Z" fill="#858585"/>
<path d="M531.832 90.6679H529.213V91.5145H531.832V90.6679Z" fill="#858585"/>
<path d="M532.707 94.0003H536.696V93.1196H534.161V93.0798L535.164 92.0599C536.295 90.9747 536.608 90.4463 536.608 89.79C536.608 88.8156 535.815 88.1025 534.644 88.1025C533.491 88.1025 532.673 88.8184 532.673 89.9236H533.676C533.676 89.3298 534.051 88.9577 534.63 88.9577C535.184 88.9577 535.596 89.2957 535.596 89.844C535.596 90.3298 535.301 90.6764 534.727 91.2588L532.707 93.2389V94.0003Z" fill="#858585"/>
<path d="M537.889 94.0003H538.983L541.454 89.0827V88.1821H537.491V89.0628H540.363V89.1025L537.889 94.0003Z" fill="#858585"/>
<rect x="417.002" y="62" width="142" height="4" rx="2" fill="#E6E6E6"/>
<path d="M334.988 109.454H329.772V116H330.949V110.438H333.812V116H334.988V109.454Z" fill="#838383"/>
<path d="M338.497 116.095C339.935 116.095 340.849 115.082 340.849 113.564C340.849 112.043 339.935 111.027 338.497 111.027C337.059 111.027 336.145 112.043 336.145 113.564C336.145 115.082 337.059 116.095 338.497 116.095ZM338.503 115.169C337.707 115.169 337.317 114.459 337.317 113.561C337.317 112.663 337.707 111.944 338.503 111.944C339.286 111.944 339.676 112.663 339.676 113.561C339.676 114.459 339.286 115.169 338.503 115.169Z" fill="#838383"/>
<path d="M344.063 116H346.441C347.592 116 348.25 115.479 348.25 114.667C348.25 113.98 347.717 113.5 346.946 113.433C347.601 113.312 348.011 112.963 348.011 112.41C348.011 111.583 347.285 111.09 346.125 111.09H344.063V116ZM345.147 115.089V113.871H346.441C346.866 113.871 347.125 114.117 347.125 114.523C347.125 114.875 346.866 115.089 346.441 115.089H345.147ZM345.147 113.123V112.017H346.125C346.608 112.017 346.902 112.222 346.902 112.557C346.902 112.909 346.617 113.123 346.147 113.123H345.147Z" fill="#838383"/>
<path d="M349.205 117.84H350.362V115.226H350.41C350.592 115.584 350.972 116.086 351.816 116.086C352.973 116.086 353.839 115.169 353.839 113.551C353.839 111.915 352.948 111.027 351.813 111.027C350.947 111.027 350.586 111.547 350.41 111.902H350.343V111.09H349.205V117.84ZM350.34 113.545C350.34 112.593 350.749 111.976 351.493 111.976C352.264 111.976 352.66 112.631 352.66 113.545C352.66 114.465 352.257 115.137 351.493 115.137C350.755 115.137 350.34 114.497 350.34 113.545Z" fill="#838383"/>
<path d="M357.003 116.095C358.148 116.095 358.934 115.536 359.138 114.683L358.058 114.561C357.901 114.977 357.518 115.194 357.019 115.194C356.271 115.194 355.776 114.702 355.767 113.861H359.186V113.507C359.186 111.784 358.151 111.027 356.943 111.027C355.536 111.027 354.619 112.059 354.619 113.574C354.619 115.114 355.524 116.095 357.003 116.095ZM355.77 113.082C355.805 112.455 356.268 111.928 356.959 111.928C357.623 111.928 358.071 112.414 358.077 113.082H355.77Z" fill="#838383"/>
<path d="M362.99 114.654L361.571 111.09H360.165V116H361.28V112.692L362.588 116H363.396L364.748 112.657V116H365.854V111.09H364.448L362.99 114.654Z" fill="#838383"/>
<path d="M369.194 116.095C370.338 116.095 371.124 115.536 371.329 114.683L370.248 114.561C370.092 114.977 369.708 115.194 369.21 115.194C368.462 115.194 367.967 114.702 367.957 113.861H371.377V113.507C371.377 111.784 370.341 111.027 369.133 111.027C367.727 111.027 366.81 112.059 366.81 113.574C366.81 115.114 367.714 116.095 369.194 116.095ZM367.96 113.082C367.995 112.455 368.459 111.928 369.149 111.928C369.814 111.928 370.261 112.414 370.268 113.082H367.96Z" fill="#838383"/>
<path d="M373.471 111.09H372.355V116H373.471V114.015H375.373V116H376.485V111.09H375.373V113.066H373.471V111.09Z" fill="#838383"/>
<path d="M378.771 114.434V111.09H377.655V116H378.847L380.807 112.653V116H381.925V111.09H380.736L378.771 114.434Z" fill="#838383"/>
<path d="M387.487 116.095C388.721 116.095 389.507 115.364 389.59 114.322H388.484C388.385 114.849 388.005 115.153 387.497 115.153C386.774 115.153 386.308 114.549 386.308 113.545C386.308 112.554 386.784 111.96 387.497 111.96C388.053 111.96 388.395 112.318 388.484 112.791H389.59C389.51 111.726 388.679 111.027 387.481 111.027C386.042 111.027 385.135 112.065 385.135 113.564C385.135 115.05 386.02 116.095 387.487 116.095Z" fill="#838383"/>
<path d="M392.681 116.095C394.12 116.095 395.034 115.082 395.034 113.564C395.034 112.043 394.12 111.027 392.681 111.027C391.243 111.027 390.329 112.043 390.329 113.564C390.329 115.082 391.243 116.095 392.681 116.095ZM392.688 115.169C391.892 115.169 391.502 114.459 391.502 113.561C391.502 112.663 391.892 111.944 392.688 111.944C393.471 111.944 393.861 112.663 393.861 113.561C393.861 114.459 393.471 115.169 392.688 115.169Z" fill="#838383"/>
<path d="M395.744 114.654C395.773 115.565 396.607 116.095 397.741 116.095C398.905 116.095 399.745 115.543 399.745 114.638C399.745 113.976 399.295 113.523 398.713 113.487V113.436C399.276 113.286 399.634 112.935 399.634 112.404C399.634 111.576 398.918 111.027 397.767 111.027C396.693 111.027 395.885 111.583 395.869 112.439H397.01C397.022 112.11 397.361 111.88 397.821 111.88C398.282 111.88 398.56 112.126 398.56 112.49C398.56 112.826 398.304 113.075 397.825 113.075H397.074V113.897H397.825C398.307 113.897 398.624 114.168 398.624 114.565C398.624 115.012 398.23 115.229 397.735 115.229C397.246 115.229 396.914 115.018 396.891 114.654H395.744Z" fill="#838383"/>
<path d="M400.222 117.425H401.359V116H404.571V117.425H405.69V115.047H404.929V111.09H401.382L401.241 112.81C401.148 113.909 401.027 114.724 400.612 115.047H400.222V117.425ZM401.8 115.047C402.11 114.59 402.225 113.849 402.309 112.81L402.385 112.024H403.824V115.047H401.8Z" fill="#838383"/>
<path d="M407.966 116.099C408.737 116.099 409.197 115.737 409.408 115.325H409.446V116H410.558V112.714C410.558 111.416 409.5 111.027 408.564 111.027C407.532 111.027 406.739 111.487 406.483 112.382L407.564 112.535C407.679 112.199 408.005 111.912 408.57 111.912C409.107 111.912 409.401 112.187 409.401 112.669V112.688C409.401 113.021 409.053 113.037 408.187 113.13C407.234 113.232 406.324 113.516 406.324 114.622C406.324 115.587 407.03 116.099 407.966 116.099ZM408.267 115.248C407.784 115.248 407.439 115.028 407.439 114.603C407.439 114.159 407.826 113.973 408.343 113.9C408.647 113.858 409.254 113.782 409.405 113.66V114.239C409.405 114.785 408.964 115.248 408.267 115.248Z" fill="#838383"/>
<path d="M412.837 111.09H411.722V116H412.837V114.015H414.739V116H415.851V111.09H414.739V113.066H412.837V111.09Z" fill="#838383"/>
<path d="M418.137 114.434V111.09H417.021V116H418.214L420.173 112.653V116H421.291V111.09H420.102L418.137 114.434Z" fill="#838383"/>
<path d="M425.381 116H426.465V111.09H424.333C423.131 111.09 422.387 111.707 422.39 112.65C422.387 113.27 422.726 113.74 423.31 113.98L422.211 116H423.349L424.356 114.152H425.381V116ZM425.381 113.309H424.295C423.787 113.309 423.505 113.043 423.509 112.676C423.505 112.308 423.803 112.03 424.333 112.03H425.381V113.309Z" fill="#838383"/>
<path d="M459.988 109.454H454.772V116H455.949V110.439H458.812V116H459.988V109.454Z" fill="#838383"/>
<path d="M463.497 116.096C464.935 116.096 465.849 115.083 465.849 113.564C465.849 112.043 464.935 111.027 463.497 111.027C462.059 111.027 461.145 112.043 461.145 113.564C461.145 115.083 462.059 116.096 463.497 116.096ZM463.503 115.169C462.707 115.169 462.317 114.459 462.317 113.561C462.317 112.663 462.707 111.944 463.503 111.944C464.286 111.944 464.676 112.663 464.676 113.561C464.676 114.459 464.286 115.169 463.503 115.169Z" fill="#838383"/>
<path d="M468.629 117.425H469.767V116H472.979V117.425H474.097V115.047H473.337V111.091H469.789L469.648 112.81C469.556 113.91 469.434 114.725 469.019 115.047H468.629V117.425ZM470.208 115.047C470.518 114.59 470.633 113.849 470.716 112.81L470.793 112.024H472.231V115.047H470.208Z" fill="#838383"/>
<path d="M476.374 116.099C477.144 116.099 477.604 115.738 477.815 115.325H477.853V116H478.966V112.714C478.966 111.417 477.908 111.027 476.971 111.027C475.939 111.027 475.146 111.487 474.891 112.382L475.971 112.535C476.086 112.2 476.412 111.912 476.978 111.912C477.515 111.912 477.809 112.187 477.809 112.67V112.689C477.809 113.021 477.46 113.037 476.594 113.13C475.642 113.232 474.731 113.517 474.731 114.622C474.731 115.588 475.437 116.099 476.374 116.099ZM476.674 115.249C476.191 115.249 475.846 115.028 475.846 114.603C475.846 114.159 476.233 113.974 476.751 113.9C477.054 113.858 477.662 113.782 477.812 113.66V114.239C477.812 114.785 477.371 115.249 476.674 115.249Z" fill="#838383"/>
<path d="M479.579 112.04H481.168V116H482.286V112.04H483.875V111.091H479.579V112.04Z" fill="#838383"/>
<path d="M486.767 116.096C487.911 116.096 488.697 115.536 488.902 114.683L487.822 114.562C487.665 114.977 487.282 115.194 486.783 115.194C486.035 115.194 485.54 114.702 485.53 113.862H488.95V113.507C488.95 111.784 487.914 111.027 486.706 111.027C485.3 111.027 484.383 112.059 484.383 113.574C484.383 115.115 485.287 116.096 486.767 116.096ZM485.533 113.082C485.569 112.455 486.032 111.928 486.722 111.928C487.387 111.928 487.835 112.414 487.841 113.082H485.533Z" fill="#838383"/>
<path d="M494.302 116.096C495.741 116.096 496.655 115.083 496.655 113.564C496.655 112.043 495.741 111.027 494.302 111.027C492.864 111.027 491.95 112.043 491.95 113.564C491.95 115.083 492.864 116.096 494.302 116.096ZM494.309 115.169C493.513 115.169 493.123 114.459 493.123 113.561C493.123 112.663 493.513 111.944 494.309 111.944C495.092 111.944 495.482 112.663 495.482 113.561C495.482 114.459 495.092 115.169 494.309 115.169Z" fill="#838383"/>
<path d="M501.571 109.275C501.335 109.454 500.961 109.451 500.452 109.451C500.309 109.451 500.158 109.451 499.995 109.454C498.305 109.477 497.435 110.602 497.435 112.909V113.35C497.435 115.146 498.343 116.096 499.772 116.096C501.2 116.096 502.102 115.143 502.102 113.628C502.102 112.158 501.245 111.311 500.027 111.311C499.279 111.311 498.714 111.634 498.407 112.235H498.353C498.468 111.011 498.928 110.458 500.027 110.432C501.002 110.41 501.549 110.394 501.974 110.023L501.571 109.275ZM499.778 115.169C499.053 115.169 498.608 114.587 498.608 113.66C498.618 112.746 499.056 112.222 499.772 112.222C500.488 112.222 500.929 112.746 500.929 113.66C500.929 114.59 500.491 115.169 499.778 115.169Z" fill="#838383"/>
<path d="M504.201 111.091H503.086V116H504.201V114.015H506.103V116H507.215V111.091H506.103V113.066H504.201V111.091Z" fill="#838383"/>
<path d="M510.527 116.096C511.965 116.096 512.879 115.083 512.879 113.564C512.879 112.043 511.965 111.027 510.527 111.027C509.089 111.027 508.175 112.043 508.175 113.564C508.175 115.083 509.089 116.096 510.527 116.096ZM510.533 115.169C509.738 115.169 509.348 114.459 509.348 113.561C509.348 112.663 509.738 111.944 510.533 111.944C511.316 111.944 511.706 112.663 511.706 113.561C511.706 114.459 511.316 115.169 510.533 115.169Z" fill="#838383"/>
<path d="M513.861 116H516.239C517.39 116 518.048 115.479 518.048 114.667C518.048 113.98 517.514 113.501 516.744 113.433C517.399 113.312 517.808 112.964 517.808 112.411C517.808 111.583 517.083 111.091 515.923 111.091H513.861V116ZM514.945 115.089V113.871H516.239C516.664 113.871 516.923 114.117 516.923 114.523C516.923 114.875 516.664 115.089 516.239 115.089H514.945ZM514.945 113.123V112.018H515.923C516.405 112.018 516.699 112.222 516.699 112.558C516.699 112.909 516.415 113.123 515.945 113.123H514.945Z" fill="#838383"/>
<path d="M518.664 116H519.022C520.077 116 520.553 115.258 520.63 113.622L520.706 112.04H522.116V116H523.234V111.091H519.655L519.569 113.264C519.514 114.642 519.335 115.047 518.827 115.047H518.658L518.664 116Z" fill="#838383"/>
<path d="M526.573 116.096C527.717 116.096 528.503 115.536 528.708 114.683L527.627 114.562C527.471 114.977 527.087 115.194 526.589 115.194C525.841 115.194 525.345 114.702 525.336 113.862H528.756V113.507C528.756 111.784 527.72 111.027 526.512 111.027C525.106 111.027 524.188 112.059 524.188 113.574C524.188 115.115 525.093 116.096 526.573 116.096ZM525.339 113.082C525.374 112.455 525.838 111.928 526.528 111.928C527.193 111.928 527.64 112.414 527.647 113.082H525.339Z" fill="#838383"/>
<path d="M530.85 111.091H529.734V116H530.85V114.015H532.751V116H533.864V111.091H532.751V113.066H530.85V111.091Z" fill="#838383"/>
<path d="M536.15 114.434V111.091H535.034V116H536.226L538.185 112.654V116H539.304V111.091H538.115L536.15 114.434Z" fill="#838383"/>
<path d="M543.394 116H544.478V111.091H542.346C541.144 111.091 540.4 111.708 540.403 112.65C540.4 113.27 540.738 113.74 541.323 113.98L540.224 116H541.362L542.368 114.153H543.394V116ZM543.394 113.309H542.308C541.799 113.309 541.518 113.044 541.521 112.676C541.518 112.308 541.815 112.03 542.346 112.03H543.394V113.309Z" fill="#838383"/>
<circle cx="444.002" cy="113" r="2.5" stroke="#838383"/>
<path fill-rule="evenodd" clip-rule="evenodd" d="M321.002 113C321.002 114.105 320.107 115 319.002 115C317.897 115 317.002 114.105 317.002 113C317.002 111.895 317.897 111 319.002 111C320.107 111 321.002 111.895 321.002 113ZM322.002 113C322.002 114.657 320.659 116 319.002 116C317.345 116 316.002 114.657 316.002 113C316.002 111.343 317.345 110 319.002 110C320.659 110 322.002 111.343 322.002 113ZM319.002 114C319.554 114 320.002 113.552 320.002 113C320.002 112.448 319.554 112 319.002 112C318.45 112 318.002 112.448 318.002 113C318.002 113.552 318.45 114 319.002 114Z" fill="#838383"/>
<defs>
<filter id="filter0_d_1065_6383" x="11" y="26" width="480" height="304" filterUnits="userSpaceOnUse" color-interpolation-filters="sRGB">
<feFlood flood-opacity="0" result="BackgroundImageFix"/>
<feColorMatrix in="SourceAlpha" type="matrix" values="0 0 0 0 0 0 0 0 0 0 0 0 0 0 0 0 0 0 127 0" result="hardAlpha"/>
<feOffset/>
<feGaussianBlur stdDeviation="12.5"/>
<feComposite in2="hardAlpha" operator="out"/>
<feColorMatrix type="matrix" values="0 0 0 0 0 0 0 0 0 0 0 0 0 0 0 0 0 0 0.15 0"/>
<feBlend mode="normal" in2="BackgroundImageFix" result="effect1_dropShadow_1065_6383"/>
<feBlend mode="normal" in="SourceGraphic" in2="effect1_dropShadow_1065_6383" result="shape"/>
</filter>
<filter id="filter1_d_1065_6383" x="268" y="134" width="339" height="206" filterUnits="userSpaceOnUse" color-interpolation-filters="sRGB">
<feFlood flood-opacity="0" result="BackgroundImageFix"/>
<feColorMatrix in="SourceAlpha" type="matrix" values="0 0 0 0 0 0 0 0 0 0 0 0 0 0 0 0 0 0 127 0" result="hardAlpha"/>
<feOffset/>
<feGaussianBlur stdDeviation="12.5"/>
<feComposite in2="hardAlpha" operator="out"/>
<feColorMatrix type="matrix" values="0 0 0 0 0 0 0 0 0 0 0 0 0 0 0 0 0 0 0.09 0"/>
<feBlend mode="normal" in2="BackgroundImageFix" result="effect1_dropShadow_1065_6383"/>
<feBlend mode="normal" in="SourceGraphic" in2="effect1_dropShadow_1065_6383" result="shape"/>
</filter>
<filter id="filter2_d_1065_6383" x="268.002" y="14" width="339" height="151" filterUnits="userSpaceOnUse" color-interpolation-filters="sRGB">
<feFlood flood-opacity="0" result="BackgroundImageFix"/>
<feColorMatrix in="SourceAlpha" type="matrix" values="0 0 0 0 0 0 0 0 0 0 0 0 0 0 0 0 0 0 127 0" result="hardAlpha"/>
<feOffset/>
<feGaussianBlur stdDeviation="12.5"/>
<feComposite in2="hardAlpha" operator="out"/>
<feColorMatrix type="matrix" values="0 0 0 0 0 0 0 0 0 0 0 0 0 0 0 0 0 0 0.15 0"/>
<feBlend mode="normal" in2="BackgroundImageFix" result="effect1_dropShadow_1065_6383"/>
<feBlend mode="normal" in="SourceGraphic" in2="effect1_dropShadow_1065_6383" result="shape"/>
</filter>
</defs>
</svg>
