<svg width="629" height="380" viewBox="0 0 629 380" fill="none" xmlns="http://www.w3.org/2000/svg">
<rect width="629" height="380" fill="#F5F5F5"/>
<g filter="url(#filter0_d_1065_7595)">
<rect x="36" y="85" width="430" height="254" rx="4" fill="white"/>
</g>
<path d="M36 89C36 86.7909 37.7909 85 40 85H462C464.209 85 466 86.7909 466 89V119H36V89Z" fill="#3C3A3E"/>
<path d="M36 119H142V339H40C37.7909 339 36 337.209 36 335V119Z" fill="#EDEDED"/>
<path fill-rule="evenodd" clip-rule="evenodd" d="M61.2968 104.708C61.2968 107.195 59.8548 108.439 56.9709 108.442H51C51 106.048 54.6847 106.058 56.2746 106.063C56.3396 106.063 56.4012 106.063 56.4588 106.063C57.6511 106.063 58.246 105.524 58.2435 104.445C58.2435 103.361 57.6499 102.827 56.4588 102.827H53.0912V100.473H56.4316C57.6227 100.473 58.2124 99.9512 58.2124 98.9156C58.2124 97.8801 57.6149 97.3785 56.4316 97.3785C56.2422 97.3785 56.0276 97.3841 55.7956 97.3902L55.7956 97.3902C53.9467 97.4387 51 97.516 51 95H56.4976C58.0805 95 59.1836 95.2036 59.807 95.6108C60.2754 95.9132 60.6574 96.341 60.9133 96.8497C61.1692 97.3584 61.2896 97.9293 61.2619 98.503C61.2859 99.1828 61.1139 99.8545 60.7681 100.431C60.4223 101.008 59.9186 101.464 59.322 101.739C60.6334 102.322 61.2877 103.319 61.2852 104.732L61.2968 104.708ZM100.341 98.6609C101.477 98.8694 102.5 99.5033 103.22 100.443C103.939 101.384 104.304 102.565 104.247 103.766C104.19 104.968 103.714 106.105 102.908 106.967C102.103 107.828 101.024 108.352 99.8737 108.442C98.7235 108.532 97.5813 108.181 96.6618 107.455C95.7423 106.729 95.1088 105.678 94.8803 104.499C94.6517 103.32 94.8439 102.095 95.4207 101.053C95.9975 100.012 96.9193 99.2258 98.0127 98.8429C98.762 98.5811 99.5622 98.5185 100.341 98.6609ZM72.1039 105.695C72.1039 107.54 70.9089 108.461 68.519 108.458H62.7305V98.6123H68.1621C69.4502 98.6123 70.3541 98.7701 70.8779 99.0775C71.2605 99.2842 71.579 99.6001 71.796 99.9883C72.0131 100.376 72.1199 100.821 72.1039 101.27C72.1107 101.733 71.9901 102.189 71.7564 102.583C71.5226 102.978 71.1855 103.294 70.7848 103.495C71.1946 103.674 71.5419 103.98 71.7799 104.371C72.0179 104.762 72.135 105.22 72.1155 105.683L72.1039 105.695ZM69.4346 101.561C69.4346 100.942 69.0195 100.631 68.1854 100.631H65.2251V102.52H68.1854C69.0195 102.52 69.4346 102.2 69.4346 101.561ZM69.4346 105.481C69.4346 104.838 69.0234 104.518 68.2009 104.518H65.2251V106.444H68.2203C69.0428 106.444 69.454 106.12 69.454 105.481H69.4346ZM93.6752 108.458H91.1922V104.555H87.6073V108.458H85.1165V98.6123H87.6073V102.386H91.1922V98.6123H93.6752V108.458ZM114.99 108.458H111.638L107.821 103.681V108.458H105.33V98.6123H107.821V103.341L111.836 98.6123H115.014L110.626 103.43L115.014 108.458H114.99ZM100.209 100.918C99.8684 100.806 99.5097 100.769 99.1549 100.808C98.8001 100.847 98.4568 100.961 98.1464 101.145C97.836 101.328 97.5651 101.576 97.3506 101.873C97.136 102.171 96.9825 102.511 96.8995 102.872C96.8165 103.234 96.8058 103.61 96.8681 103.976C96.9304 104.342 97.0643 104.691 97.2615 105.001C97.4587 105.311 97.7151 105.576 98.0145 105.778C98.3139 105.98 98.6501 106.116 99.0021 106.177C99.3872 106.257 99.7848 106.248 100.166 106.148C100.722 106.002 101.216 105.668 101.571 105.199C101.926 104.73 102.122 104.152 102.129 103.554C102.136 102.956 101.954 102.373 101.61 101.895C101.266 101.417 100.78 101.07 100.228 100.91L100.209 100.918ZM79.7547 100.768C80.3441 101.068 80.8187 101.566 81.1012 102.183C81.3837 102.8 81.4574 103.498 81.3101 104.164C81.1629 104.83 80.8035 105.424 80.2906 105.85C79.7777 106.275 79.1415 106.507 78.486 106.507C77.8306 106.507 77.1944 106.275 76.6815 105.85C76.1686 105.424 75.8092 104.83 75.6619 104.164C75.5147 103.498 75.5884 102.8 75.8709 102.183C76.1534 101.566 76.628 101.068 77.2174 100.768V98.135C75.9633 98.4581 74.866 99.2487 74.1327 100.358C73.3993 101.466 73.0806 102.817 73.2367 104.154C73.3928 105.491 74.0129 106.722 74.98 107.615C75.9471 108.508 77.1942 109.001 78.486 109.001C79.7779 109.001 81.025 108.508 81.9921 107.615C82.9592 106.722 83.5793 105.491 83.7354 104.154C83.8915 102.817 83.5728 101.466 82.8394 100.358C82.1061 99.2487 81.0088 98.4581 79.7547 98.135V100.768ZM77.6046 104.902C77.974 105.154 78.424 105.245 78.8569 105.153C79.1839 105.09 79.4854 104.926 79.7229 104.683C79.9604 104.44 80.1232 104.129 80.1906 103.789C80.258 103.45 80.2269 103.097 80.1013 102.776C79.9758 102.455 79.7613 102.18 79.4854 101.986C79.3181 101.868 79.1313 101.783 78.9345 101.735V97.9651H78.1585V101.735C77.7275 101.835 77.3518 102.109 77.1132 102.497C76.8746 102.884 76.7924 103.354 76.8844 103.805C76.9765 104.255 77.2353 104.649 77.6046 104.902Z" fill="white"/>
<path fill-rule="evenodd" clip-rule="evenodd" d="M142 201.5V279V279.5L142 308H140V279.5L36 279.5V279L140 279L140 201.5L36 201.5V201L140 201V119H142V201V201.5ZM46 141C46 139.895 46.8954 139 48 139H124C125.105 139 126 139.895 126 141C126 142.105 125.105 143 124 143H48C46.8954 143 46 142.105 46 141ZM48 217C46.8954 217 46 217.895 46 219C46 220.105 46.8954 221 48 221H124C125.105 221 126 220.105 126 219C126 217.895 125.105 217 124 217H48ZM46 155C46 153.895 46.8954 153 48 153H104C105.105 153 106 153.895 106 155C106 156.105 105.105 157 104 157H48C46.8954 157 46 156.105 46 155ZM48 231C46.8954 231 46 231.895 46 233C46 234.105 46.8954 235 48 235H104C105.105 235 106 234.105 106 233C106 231.895 105.105 231 104 231H48ZM46 169C46 167.895 46.8954 167 48 167H113C114.105 167 115 167.895 115 169C115 170.105 114.105 171 113 171H48C46.8954 171 46 170.105 46 169ZM48 245C46.8954 245 46 245.895 46 247C46 248.105 46.8954 249 48 249H113C114.105 249 115 248.105 115 247C115 245.895 114.105 245 113 245H48ZM46 183C46 181.895 46.8954 181 48 181H91C92.1046 181 93 181.895 93 183C93 184.105 92.1046 185 91 185H48C46.8954 185 46 184.105 46 183ZM48 259C46.8954 259 46 259.895 46 261C46 262.105 46.8954 263 48 263H91C92.1046 263 93 262.105 93 261C93 259.895 92.1046 259 91 259H48ZM46 297C46 295.895 46.8954 295 48 295H104C105.105 295 106 295.895 106 297C106 298.105 105.105 299 104 299H48C46.8954 299 46 298.105 46 297ZM142 315L36 315V315.5L142 315.5V315Z" fill="#CBCBCB"/>
<path d="M172.861 148V139.272H176.202C176.833 139.272 177.357 139.372 177.775 139.571C178.195 139.767 178.509 140.035 178.716 140.376C178.927 140.717 179.032 141.103 179.032 141.535C179.032 141.89 178.964 142.194 178.827 142.447C178.691 142.697 178.508 142.9 178.278 143.057C178.047 143.213 177.79 143.325 177.506 143.393V143.478C177.816 143.495 178.113 143.591 178.397 143.764C178.684 143.934 178.918 144.176 179.1 144.488C179.282 144.801 179.373 145.179 179.373 145.622C179.373 146.074 179.263 146.48 179.045 146.841C178.826 147.199 178.496 147.481 178.056 147.689C177.616 147.896 177.062 148 176.394 148H172.861ZM174.442 146.679H176.143C176.716 146.679 177.13 146.569 177.383 146.351C177.638 146.129 177.766 145.845 177.766 145.498C177.766 145.24 177.702 145.007 177.574 144.799C177.447 144.589 177.265 144.424 177.029 144.305C176.793 144.183 176.512 144.122 176.185 144.122H174.442V146.679ZM174.442 142.984H176.006C176.279 142.984 176.525 142.934 176.743 142.835C176.962 142.733 177.134 142.589 177.259 142.405C177.387 142.217 177.451 141.995 177.451 141.74C177.451 141.402 177.331 141.123 177.093 140.905C176.857 140.686 176.506 140.576 176.04 140.576H174.442V142.984Z" fill="#3C3A3E"/>
<path d="M181.941 141.454L183.262 143.87L184.605 141.454H186.237L184.264 144.727L186.271 148H184.647L183.262 145.643L181.89 148H180.254L182.248 144.727L180.305 141.454H181.941Z" fill="#3C3A3E"/>
<path d="M190.039 148.128C189.4 148.128 188.846 147.987 188.377 147.706C187.908 147.424 187.545 147.031 187.286 146.525C187.03 146.02 186.903 145.429 186.903 144.753C186.903 144.076 187.03 143.484 187.286 142.976C187.545 142.467 187.908 142.072 188.377 141.791C188.846 141.51 189.4 141.369 190.039 141.369C190.678 141.369 191.232 141.51 191.701 141.791C192.17 142.072 192.532 142.467 192.787 142.976C193.046 143.484 193.175 144.076 193.175 144.753C193.175 145.429 193.046 146.02 192.787 146.525C192.532 147.031 192.17 147.424 191.701 147.706C191.232 147.987 190.678 148.128 190.039 148.128ZM190.047 146.892C190.394 146.892 190.684 146.797 190.917 146.606C191.15 146.413 191.323 146.155 191.437 145.831C191.553 145.507 191.611 145.146 191.611 144.748C191.611 144.348 191.553 143.986 191.437 143.662C191.323 143.335 191.15 143.075 190.917 142.882C190.684 142.689 190.394 142.592 190.047 142.592C189.692 142.592 189.397 142.689 189.161 142.882C188.928 143.075 188.753 143.335 188.637 143.662C188.523 143.986 188.466 144.348 188.466 144.748C188.466 145.146 188.523 145.507 188.637 145.831C188.753 146.155 188.928 146.413 189.161 146.606C189.397 146.797 189.692 146.892 190.047 146.892Z" fill="#3C3A3E"/>
<path d="M193.905 149.9V146.73H194.425C194.564 146.622 194.681 146.476 194.774 146.291C194.868 146.103 194.945 145.883 195.004 145.63C195.067 145.375 195.118 145.089 195.158 144.774C195.198 144.456 195.233 144.113 195.264 143.747L195.452 141.454H200.182V146.73H201.196V149.9H199.705V148H195.422V149.9H193.905ZM196.01 146.73H198.708V142.699H196.79L196.688 143.747C196.631 144.44 196.556 145.034 196.462 145.528C196.368 146.022 196.218 146.423 196.01 146.73Z" fill="#3C3A3E"/>
<path d="M206.217 148V142.707H204.819C204.464 142.707 204.192 142.79 204.001 142.954C203.811 143.119 203.717 143.324 203.72 143.568C203.717 143.812 203.807 144.014 203.988 144.173C204.17 144.332 204.43 144.412 204.768 144.412H206.703V145.537H204.768C204.246 145.537 203.794 145.454 203.413 145.29C203.032 145.125 202.74 144.892 202.535 144.591C202.331 144.29 202.229 143.937 202.229 143.534C202.229 143.113 202.332 142.748 202.54 142.439C202.75 142.126 203.048 141.885 203.434 141.714C203.824 141.541 204.285 141.454 204.819 141.454H207.662V148H206.217ZM201.99 148L203.818 144.642H205.339L203.507 148H201.99Z" fill="#3C3A3E"/>
<path d="M219.046 146.734L218.918 149.875H217.465V148H216.694V146.734H219.046ZM209.215 141.454H210.702V146.73H212.76V141.454H214.248V146.73H216.306V141.454H217.793V148H209.215V141.454Z" fill="#3C3A3E"/>
<path d="M221.753 145.912L224.374 141.454H225.959V148H224.468V143.538L221.855 148H220.266V141.454H221.753V145.912Z" fill="#3C3A3E"/>
<path d="M230.441 148.128C229.785 148.128 229.218 147.991 228.741 147.718C228.266 147.443 227.901 147.054 227.645 146.551C227.39 146.045 227.262 145.45 227.262 144.765C227.262 144.092 227.39 143.501 227.645 142.993C227.904 142.481 228.265 142.084 228.728 141.799C229.191 141.513 229.735 141.369 230.36 141.369C230.763 141.369 231.144 141.434 231.502 141.565C231.863 141.693 232.181 141.892 232.456 142.162C232.735 142.432 232.954 142.775 233.113 143.193C233.272 143.608 233.351 144.102 233.351 144.676V145.149H227.986V144.109H231.873C231.87 143.814 231.806 143.551 231.681 143.321C231.556 143.088 231.381 142.905 231.157 142.771C230.935 142.638 230.677 142.571 230.381 142.571C230.066 142.571 229.789 142.647 229.55 142.801C229.312 142.951 229.126 143.15 228.992 143.397C228.861 143.642 228.795 143.91 228.792 144.203V145.111C228.792 145.491 228.861 145.818 229.001 146.091C229.14 146.361 229.334 146.568 229.584 146.713C229.834 146.855 230.127 146.926 230.462 146.926C230.687 146.926 230.89 146.895 231.072 146.832C231.253 146.767 231.411 146.672 231.545 146.547C231.678 146.422 231.779 146.267 231.847 146.082L233.287 146.244C233.197 146.625 233.023 146.957 232.768 147.241C232.515 147.522 232.191 147.741 231.796 147.897C231.401 148.051 230.949 148.128 230.441 148.128Z" fill="#3C3A3E"/>
<path d="M237.271 146.206H238.801C238.815 146.45 238.924 146.639 239.129 146.772C239.333 146.906 239.599 146.973 239.926 146.973C240.258 146.973 240.538 146.9 240.765 146.755C240.995 146.608 241.11 146.385 241.11 146.086C241.11 145.91 241.066 145.755 240.978 145.622C240.89 145.486 240.767 145.38 240.607 145.307C240.448 145.233 240.261 145.196 240.045 145.196H239.044V144.101H240.045C240.366 144.101 240.609 144.027 240.774 143.879C240.941 143.731 241.025 143.545 241.025 143.321C241.025 143.079 240.937 142.883 240.761 142.733C240.588 142.582 240.347 142.507 240.041 142.507C239.734 142.507 239.478 142.576 239.274 142.716C239.072 142.855 238.967 143.034 238.958 143.253H237.437C237.443 142.872 237.556 142.541 237.778 142.26C238.002 141.978 238.303 141.76 238.681 141.603C239.062 141.447 239.491 141.369 239.968 141.369C240.48 141.369 240.921 141.446 241.294 141.599C241.666 141.753 241.953 141.967 242.154 142.243C242.356 142.515 242.457 142.836 242.457 143.206C242.457 143.561 242.346 143.855 242.124 144.088C241.903 144.318 241.605 144.483 241.23 144.582V144.65C241.488 144.665 241.721 144.738 241.928 144.872C242.136 145.003 242.301 145.18 242.423 145.405C242.545 145.629 242.606 145.889 242.606 146.184C242.606 146.585 242.491 146.932 242.261 147.224C242.031 147.514 241.714 147.737 241.311 147.893C240.91 148.049 240.451 148.128 239.934 148.128C239.431 148.128 238.981 148.052 238.583 147.902C238.188 147.748 237.874 147.528 237.642 147.241C237.409 146.954 237.285 146.609 237.271 146.206Z" fill="#3C3A3E"/>
<path d="M243.82 148V141.454H246.569C247.345 141.454 247.957 141.609 248.406 141.919C248.857 142.228 249.083 142.66 249.083 143.214C249.083 143.581 248.955 143.88 248.7 144.113C248.447 144.343 248.102 144.498 247.664 144.578C248.008 144.606 248.309 144.693 248.568 144.838C248.829 144.983 249.034 145.173 249.181 145.409C249.329 145.645 249.403 145.916 249.403 146.223C249.403 146.584 249.308 146.897 249.117 147.165C248.93 147.429 248.656 147.635 248.295 147.782C247.937 147.927 247.502 148 246.991 148H243.82ZM245.265 146.785H246.991C247.275 146.785 247.498 146.718 247.66 146.585C247.822 146.449 247.903 146.264 247.903 146.031C247.903 145.761 247.822 145.549 247.66 145.396C247.498 145.24 247.275 145.162 246.991 145.162H245.265V146.785ZM245.265 144.165H246.599C246.809 144.165 246.99 144.135 247.14 144.075C247.291 144.013 247.406 143.926 247.485 143.815C247.565 143.701 247.605 143.566 247.605 143.41C247.605 143.186 247.512 143.01 247.328 142.882C247.146 142.754 246.893 142.69 246.569 142.69H245.265V144.165Z" fill="#3C3A3E"/>
<path d="M253.531 148.128C252.892 148.128 252.338 147.987 251.869 147.706C251.4 147.424 251.037 147.031 250.778 146.525C250.523 146.02 250.395 145.429 250.395 144.753C250.395 144.076 250.523 143.484 250.778 142.976C251.037 142.467 251.4 142.072 251.869 141.791C252.338 141.51 252.892 141.369 253.531 141.369C254.17 141.369 254.724 141.51 255.193 141.791C255.662 142.072 256.024 142.467 256.28 142.976C256.538 143.484 256.667 144.076 256.667 144.753C256.667 145.429 256.538 146.02 256.28 146.525C256.024 147.031 255.662 147.424 255.193 147.706C254.724 147.987 254.17 148.128 253.531 148.128ZM253.54 146.892C253.886 146.892 254.176 146.797 254.409 146.606C254.642 146.413 254.815 146.155 254.929 145.831C255.045 145.507 255.104 145.146 255.104 144.748C255.104 144.348 255.045 143.986 254.929 143.662C254.815 143.335 254.642 143.075 254.409 142.882C254.176 142.689 253.886 142.592 253.54 142.592C253.184 142.592 252.889 142.689 252.653 142.882C252.42 143.075 252.246 143.335 252.129 143.662C252.015 143.986 251.959 144.348 251.959 144.748C251.959 145.146 252.015 145.507 252.129 145.831C252.246 146.155 252.42 146.413 252.653 146.606C252.889 146.797 253.184 146.892 253.54 146.892Z" fill="#3C3A3E"/>
<path d="M262.472 144.088V145.353H258.987V144.088H262.472ZM259.464 141.454V148H257.977V141.454H259.464ZM263.482 141.454V148H261.999V141.454H263.482Z" fill="#3C3A3E"/>
<path d="M265.043 148V141.454H266.586V144.096H267.148L269.117 141.454H270.975L268.55 144.667L271.001 148H269.134L267.34 145.532H266.586V148H265.043Z" fill="#3C3A3E"/>
<path d="M273.362 145.912L275.983 141.454H277.568V148H276.077V143.538L273.465 148H271.875V141.454H273.362V145.912Z" fill="#3C3A3E"/>
<path fill-rule="evenodd" clip-rule="evenodd" d="M436 158H172V157H436V158ZM172 179C172 177.895 172.895 177 174 177H238C239.105 177 240 177.895 240 179C240 180.105 239.105 181 238 181H174C172.895 181 172 180.105 172 179ZM172 203C172 201.895 172.895 201 174 201H238C239.105 201 240 201.895 240 203C240 204.105 239.105 205 238 205H174C172.895 205 172 204.105 172 203ZM174 225C172.895 225 172 225.895 172 227C172 228.105 172.895 229 174 229H238C239.105 229 240 228.105 240 227C240 225.895 239.105 225 238 225H174ZM172 251C172 249.895 172.895 249 174 249H238C239.105 249 240 249.895 240 251C240 252.105 239.105 253 238 253H174C172.895 253 172 252.105 172 251ZM174 273C172.895 273 172 273.895 172 275C172 276.105 172.895 277 174 277H238C239.105 277 240 276.105 240 275C240 273.895 239.105 273 238 273H174ZM283 179C283 177.895 283.895 177 285 177H314C315.105 177 316 177.895 316 179C316 180.105 315.105 181 314 181H285C283.895 181 283 180.105 283 179ZM285 201C283.895 201 283 201.895 283 203C283 204.105 283.895 205 285 205H314C315.105 205 316 204.105 316 203C316 201.895 315.105 201 314 201H285ZM283 227C283 225.895 283.895 225 285 225H314C315.105 225 316 225.895 316 227C316 228.105 315.105 229 314 229H285C283.895 229 283 228.105 283 227ZM285 249C283.895 249 283 249.895 283 251C283 252.105 283.895 253 285 253H314C315.105 253 316 252.105 316 251C316 249.895 315.105 249 314 249H285ZM283 275C283 273.895 283.895 273 285 273H314C315.105 273 316 273.895 316 275C316 276.105 315.105 277 314 277H285C283.895 277 283 276.105 283 275ZM330 177C328.895 177 328 177.895 328 179C328 180.105 328.895 181 330 181H434C435.105 181 436 180.105 436 179C436 177.895 435.105 177 434 177H330ZM328 203C328 201.895 328.895 201 330 201H434C435.105 201 436 201.895 436 203C436 204.105 435.105 205 434 205H330C328.895 205 328 204.105 328 203ZM330 225C328.895 225 328 225.895 328 227C328 228.105 328.895 229 330 229H434C435.105 229 436 228.105 436 227C436 225.895 435.105 225 434 225H330ZM328 251C328 249.895 328.895 249 330 249H434C435.105 249 436 249.895 436 251C436 252.105 435.105 253 434 253H330C328.895 253 328 252.105 328 251ZM330 273C328.895 273 328 273.895 328 275C328 276.105 328.895 277 330 277H434C435.105 277 436 276.105 436 275C436 273.895 435.105 273 434 273H330ZM172 191H436V190.5H172V191ZM436 215H172V214.5H436V215ZM172 239H436V238.5H172V239ZM436 263H172V262.5H436V263ZM172 287H436V286.5H172V287Z" fill="#E6E6E6"/>
<g filter="url(#filter1_d_1065_7595)">
<rect x="263" y="66" width="327" height="46" rx="9" fill="white"/>
</g>
<path d="M429.001 92.1661C428.299 92.1661 427.697 91.9885 427.194 91.6334C426.694 91.2755 426.309 90.7599 426.039 90.0866C425.772 89.4104 425.639 88.5965 425.639 87.6448C425.642 86.6931 425.776 85.8834 426.044 85.2158C426.313 84.5454 426.698 84.034 427.198 83.6817C427.701 83.3295 428.302 83.1533 429.001 83.1533C429.7 83.1533 430.301 83.3295 430.803 83.6817C431.306 84.034 431.691 84.5454 431.958 85.2158C432.228 85.8863 432.363 86.6959 432.363 87.6448C432.363 88.5993 432.228 89.4147 431.958 90.0908C431.691 90.7641 431.306 91.2783 430.803 91.6334C430.303 91.9885 429.703 92.1661 429.001 92.1661ZM429.001 90.8323C429.546 90.8323 429.977 90.5638 430.292 90.0269C430.61 89.4871 430.769 88.6931 430.769 87.6448C430.769 86.9516 430.697 86.3692 430.552 85.8976C430.407 85.426 430.203 85.0709 429.938 84.8323C429.674 84.5908 429.362 84.4701 429.001 84.4701C428.458 84.4701 428.029 84.74 427.714 85.2797C427.399 85.8167 427.24 86.605 427.237 87.6448C427.234 88.3408 427.303 88.926 427.445 89.4005C427.59 89.8749 427.795 90.2329 428.059 90.4743C428.323 90.713 428.637 90.8323 429.001 90.8323Z" fill="#3C3A3E"/>
<path d="M437.005 92.1661C436.303 92.1661 435.701 91.9885 435.198 91.6334C434.698 91.2755 434.313 90.7599 434.043 90.0866C433.776 89.4104 433.643 88.5965 433.643 87.6448C433.645 86.6931 433.78 85.8834 434.047 85.2158C434.317 84.5454 434.702 84.034 435.202 83.6817C435.705 83.3295 436.306 83.1533 437.005 83.1533C437.704 83.1533 438.305 83.3295 438.807 83.6817C439.31 84.034 439.695 84.5454 439.962 85.2158C440.232 85.8863 440.367 86.6959 440.367 87.6448C440.367 88.5993 440.232 89.4147 439.962 90.0908C439.695 90.7641 439.31 91.2783 438.807 91.6334C438.307 91.9885 437.706 92.1661 437.005 92.1661ZM437.005 90.8323C437.55 90.8323 437.981 90.5638 438.296 90.0269C438.614 89.4871 438.773 88.6931 438.773 87.6448C438.773 86.9516 438.701 86.3692 438.556 85.8976C438.411 85.426 438.206 85.0709 437.942 84.8323C437.678 84.5908 437.366 84.4701 437.005 84.4701C436.462 84.4701 436.033 84.74 435.718 85.2797C435.403 85.8167 435.243 86.605 435.241 87.6448C435.238 88.3408 435.307 88.926 435.449 89.4005C435.594 89.8749 435.799 90.2329 436.063 90.4743C436.327 90.713 436.641 90.8323 437.005 90.8323Z" fill="#3C3A3E"/>
<path d="M442.75 90.9516C442.492 90.9516 442.27 90.8607 442.085 90.6789C441.901 90.4942 441.81 90.2726 441.813 90.0141C441.81 89.7584 441.901 89.5397 442.085 89.3579C442.27 89.176 442.492 89.0851 442.75 89.0851C443 89.0851 443.218 89.176 443.402 89.3579C443.59 89.5397 443.685 89.7584 443.688 90.0141C443.685 90.1874 443.639 90.3451 443.551 90.4871C443.466 90.6292 443.352 90.7428 443.21 90.828C443.071 90.9104 442.918 90.9516 442.75 90.9516ZM442.75 86.6263C442.492 86.6263 442.27 86.5354 442.085 86.3536C441.901 86.1689 441.81 85.9474 441.813 85.6888C441.81 85.4331 441.901 85.2144 442.085 85.0326C442.27 84.8479 442.492 84.7556 442.75 84.7556C443 84.7556 443.218 84.8479 443.402 85.0326C443.59 85.2144 443.685 85.4331 443.688 85.6888C443.685 85.8593 443.639 86.0155 443.551 86.1576C443.466 86.2996 443.352 86.4133 443.21 86.4985C443.071 86.5837 442.918 86.6263 442.75 86.6263Z" fill="#3C3A3E"/>
<path d="M445.106 90.3806V89.1235L448.809 83.2726H449.857V85.0624H449.218L446.725 89.0127V89.0809H451.894V90.3806H445.106ZM449.269 91.9999V89.9971L449.286 89.4346V83.2726H450.778V91.9999H449.269Z" fill="#3C3A3E"/>
<path d="M456.388 92.1192C455.774 92.1192 455.229 92.0141 454.751 91.8039C454.277 91.5937 453.902 91.301 453.626 90.926C453.351 90.551 453.204 90.1178 453.187 89.6263H454.79C454.804 89.8621 454.882 90.0681 455.024 90.2442C455.166 90.4175 455.355 90.5525 455.591 90.6491C455.827 90.7457 456.091 90.7939 456.383 90.7939C456.696 90.7939 456.973 90.74 457.214 90.632C457.456 90.5212 457.645 90.3678 457.781 90.1718C457.917 89.9758 457.984 89.7499 457.981 89.4942C457.984 89.23 457.916 88.9971 457.777 88.7954C457.638 88.5937 457.436 88.436 457.172 88.3224C456.91 88.2087 456.595 88.1519 456.226 88.1519H455.454V86.9332H456.226C456.53 86.9332 456.795 86.8806 457.023 86.7755C457.253 86.6704 457.433 86.5226 457.564 86.3323C457.694 86.1391 457.758 85.9161 457.756 85.6633C457.758 85.4161 457.703 85.2016 457.589 85.0198C457.479 84.8351 457.321 84.6917 457.116 84.5894C456.915 84.4871 456.677 84.436 456.405 84.436C456.138 84.436 455.89 84.4843 455.663 84.5809C455.436 84.6775 455.253 84.8153 455.113 84.9942C454.974 85.1704 454.9 85.3806 454.892 85.6249H453.371C453.382 85.1363 453.523 84.7073 453.792 84.338C454.065 83.9658 454.429 83.676 454.883 83.4687C455.338 83.2584 455.848 83.1533 456.413 83.1533C456.996 83.1533 457.501 83.2627 457.93 83.4814C458.362 83.6974 458.696 83.9885 458.932 84.355C459.167 84.7215 459.285 85.1263 459.285 85.5695C459.288 86.061 459.143 86.4729 458.851 86.8053C458.561 87.1377 458.18 87.355 457.709 87.4573V87.5255C458.322 87.6107 458.792 87.838 459.119 88.2073C459.449 88.5738 459.612 89.0297 459.609 89.5752C459.609 90.0638 459.47 90.5013 459.192 90.8877C458.916 91.2712 458.535 91.5724 458.05 91.7911C457.567 92.0099 457.013 92.1192 456.388 92.1192Z" fill="#3C3A3E"/>
<rect x="276" y="87" width="66" height="4" rx="2" fill="#E6E6E6"/>
<path fill-rule="evenodd" clip-rule="evenodd" d="M504 100L504 78H502L502 100H504ZM508 100L508 78H506L506 100H508ZM511 89.7021L511 100H509L509 78H511V88.2979H514L514 85.4893H517L517 92.5105H514V89.7021H511ZM521 93.4464V84.5527H518V93.4464H521ZM525 88.2979H529V87.8301H532V90.1705H529V89.7021H525V88.2979ZM536 86.4258V91.5747H533V86.4258H536ZM543 92.5105V85.4893H540V92.5105H543ZM544 86.8936H547H550V87.8301H554V90.1705H550V91.1064H547H544V86.8936ZM558 89.7021H562V90.1705H573V89.2337H577V88.7656H573V87.8301H562V88.2979H558V89.7021Z" fill="#CBCBCB"/>
<path d="M352.517 92.0003V91.2389L354.536 89.2588C354.73 89.0637 354.891 88.8904 355.019 88.7389C355.148 88.5874 355.245 88.4406 355.309 88.2986C355.374 88.1565 355.406 88.005 355.406 87.844C355.406 87.6603 355.364 87.5031 355.281 87.3724C355.197 87.2398 355.083 87.1376 354.937 87.0656C354.791 86.9936 354.625 86.9577 354.44 86.9577C354.249 86.9577 354.081 86.9974 353.937 87.077C353.793 87.1546 353.681 87.2654 353.602 87.4094C353.524 87.5533 353.485 87.7247 353.485 87.9236H352.482C352.482 87.5542 352.567 87.2332 352.735 86.9605C352.904 86.6878 353.136 86.4766 353.431 86.327C353.729 86.1773 354.07 86.1025 354.454 86.1025C354.844 86.1025 355.187 86.1755 355.482 86.3213C355.778 86.4671 356.007 86.6669 356.17 86.9207C356.335 87.1745 356.417 87.4643 356.417 87.79C356.417 88.0078 356.375 88.2219 356.292 88.4321C356.209 88.6423 356.062 88.8753 355.852 89.1309C355.643 89.3866 355.351 89.6963 354.974 90.0599L353.971 91.0798V91.1196H356.505V92.0003H352.517Z" fill="#858585"/>
<path d="M359.508 92.0798C359.129 92.0798 358.79 92.0088 358.491 91.8667C358.192 91.7228 357.954 91.5258 357.778 91.2758C357.604 91.0258 357.511 90.7398 357.499 90.4179H358.522C358.541 90.6565 358.644 90.8516 358.832 91.0031C359.019 91.1527 359.245 91.2275 359.508 91.2275C359.714 91.2275 359.898 91.1802 360.059 91.0855C360.22 90.9908 360.347 90.8592 360.44 90.6906C360.533 90.522 360.578 90.3298 360.576 90.1139C360.578 89.8942 360.532 89.6991 360.437 89.5287C360.342 89.3582 360.213 89.2247 360.048 89.1281C359.883 89.0296 359.694 88.9804 359.48 88.9804C359.305 88.9785 359.134 89.0107 358.965 89.077C358.797 89.1433 358.663 89.2304 358.565 89.3383L357.613 89.1821L357.917 86.1821H361.292V87.0628H358.789L358.622 88.6054H358.656C358.764 88.4785 358.916 88.3734 359.113 88.29C359.31 88.2048 359.526 88.1622 359.761 88.1622C360.113 88.1622 360.427 88.2455 360.704 88.4122C360.981 88.577 361.198 88.8042 361.357 89.094C361.517 89.3838 361.596 89.7152 361.596 90.0883C361.596 90.4728 361.507 90.8156 361.329 91.1167C361.153 91.416 360.908 91.6518 360.593 91.8241C360.281 91.9946 359.919 92.0798 359.508 92.0798Z" fill="#858585"/>
<path d="M367.123 92.0003V88.4719H366.191C365.954 88.4719 365.773 88.5268 365.646 88.6366C365.519 88.7465 365.456 88.8828 365.458 89.0457C365.456 89.2086 365.516 89.3431 365.637 89.4491C365.758 89.5552 365.932 89.6082 366.157 89.6082H367.447V90.3582H366.157C365.809 90.3582 365.508 90.3033 365.254 90.1934C365 90.0836 364.805 89.9283 364.669 89.7275C364.532 89.5268 364.464 89.2919 364.464 89.023C364.464 88.7427 364.533 88.4993 364.671 88.2929C364.811 88.0845 365.01 87.9236 365.268 87.8099C365.527 87.6944 365.835 87.6366 366.191 87.6366H368.086V92.0003H367.123ZM364.305 92.0003L365.524 89.7616H366.538L365.316 92.0003H364.305Z" fill="#858585"/>
<path d="M372.119 89.3923V90.2361H369.795V89.3923H372.119ZM370.113 87.6366V92.0003H369.122V87.6366H370.113ZM372.792 87.6366V92.0003H371.803V87.6366H372.792Z" fill="#858585"/>
<path d="M373.833 92.0003V87.6366H375.665C376.182 87.6366 376.59 87.7398 376.889 87.9463C377.191 88.1527 377.341 88.4406 377.341 88.8099C377.341 89.0542 377.256 89.2541 377.085 89.4094C376.917 89.5628 376.687 89.666 376.395 89.719C376.624 89.738 376.825 89.7957 376.997 89.8923C377.172 89.9889 377.308 90.1158 377.406 90.273C377.505 90.4302 377.554 90.6111 377.554 90.8156C377.554 91.0561 377.491 91.2654 377.364 91.4434C377.239 91.6196 377.056 91.7569 376.816 91.8554C376.577 91.952 376.287 92.0003 375.946 92.0003H373.833ZM374.796 91.1906H375.946C376.136 91.1906 376.284 91.1461 376.392 91.0571C376.5 90.9662 376.554 90.8431 376.554 90.6878C376.554 90.5078 376.5 90.3667 376.392 90.2645C376.284 90.1603 376.136 90.1082 375.946 90.1082H374.796V91.1906ZM374.796 89.4434H375.685C375.825 89.4434 375.945 89.4236 376.046 89.3838C376.146 89.3421 376.223 89.2844 376.276 89.2105C376.329 89.1347 376.355 89.0448 376.355 88.9406C376.355 88.791 376.294 88.6736 376.171 88.5883C376.049 88.5031 375.881 88.4605 375.665 88.4605H374.796V89.4434Z" fill="#858585"/>
<path d="M379.659 92.0883C379.382 92.0883 379.133 92.0391 378.911 91.9406C378.692 91.8402 378.517 91.6925 378.389 91.4974C378.262 91.3024 378.198 91.0618 378.198 90.7758C378.198 90.5296 378.244 90.326 378.335 90.165C378.426 90.0041 378.55 89.8753 378.707 89.7787C378.864 89.6821 379.041 89.6092 379.238 89.5599C379.437 89.5088 379.642 89.4719 379.855 89.4491C380.11 89.4226 380.318 89.3989 380.477 89.3781C380.636 89.3554 380.751 89.3213 380.823 89.2758C380.897 89.2285 380.934 89.1556 380.934 89.0571V89.04C380.934 88.826 380.871 88.6603 380.744 88.5429C380.617 88.4255 380.434 88.3667 380.195 88.3667C379.944 88.3667 379.744 88.4217 379.596 88.5315C379.45 88.6414 379.352 88.7711 379.301 88.9207L378.34 88.7844C378.416 88.5192 378.541 88.2976 378.715 88.1196C378.89 87.9397 379.103 87.8052 379.355 87.7162C379.606 87.6253 379.885 87.5798 380.19 87.5798C380.4 87.5798 380.609 87.6044 380.818 87.6537C381.026 87.7029 381.216 87.7844 381.389 87.898C381.561 88.0097 381.699 88.1622 381.803 88.3554C381.91 88.5486 381.963 88.79 381.963 89.0798V92.0003H380.974V91.4008H380.94C380.877 91.522 380.789 91.6357 380.676 91.7417C380.564 91.8459 380.423 91.9302 380.252 91.9946C380.084 92.0571 379.886 92.0883 379.659 92.0883ZM379.926 91.3327C380.132 91.3327 380.311 91.2919 380.463 91.2105C380.614 91.1272 380.731 91.0173 380.812 90.8809C380.895 90.7446 380.937 90.5959 380.937 90.4349V89.9207C380.905 89.9472 380.85 89.9719 380.772 89.9946C380.696 90.0173 380.611 90.0372 380.517 90.0542C380.422 90.0713 380.328 90.0864 380.235 90.0997C380.142 90.113 380.062 90.1243 379.994 90.1338C379.84 90.1546 379.703 90.1887 379.582 90.2361C379.461 90.2834 379.365 90.3497 379.295 90.4349C379.225 90.5183 379.19 90.6262 379.19 90.7588C379.19 90.9482 379.259 91.0912 379.397 91.1878C379.535 91.2844 379.712 91.3327 379.926 91.3327Z" fill="#858585"/>
<path d="M382.997 93.6366V87.6366H384.008V88.3582H384.068C384.121 88.2522 384.195 88.1395 384.292 88.0202C384.389 87.8989 384.519 87.7957 384.684 87.7105C384.849 87.6234 385.059 87.5798 385.315 87.5798C385.652 87.5798 385.956 87.666 386.227 87.8383C386.499 88.0088 386.715 88.2616 386.874 88.5969C387.035 88.9302 387.116 89.3393 387.116 89.8241C387.116 90.3033 387.037 90.7105 386.88 91.0457C386.723 91.3809 386.509 91.6366 386.238 91.8128C385.967 91.9889 385.66 92.077 385.318 92.077C385.068 92.077 384.86 92.0353 384.695 91.952C384.531 91.8686 384.398 91.7683 384.298 91.6508C384.199 91.5315 384.123 91.4188 384.068 91.3128H384.025V93.6366H382.997ZM384.005 89.8184C384.005 90.1006 384.045 90.3478 384.124 90.5599C384.206 90.772 384.322 90.9378 384.474 91.0571C384.627 91.1745 384.813 91.2332 385.031 91.2332C385.258 91.2332 385.448 91.1726 385.602 91.0514C385.755 90.9283 385.871 90.7607 385.948 90.5486C386.028 90.3345 386.068 90.0912 386.068 89.8184C386.068 89.5476 386.029 89.3071 385.951 89.0969C385.874 88.8866 385.758 88.7219 385.605 88.6025C385.451 88.4832 385.26 88.4236 385.031 88.4236C384.811 88.4236 384.624 88.4813 384.471 88.5969C384.318 88.7124 384.201 88.8743 384.122 89.0827C384.044 89.291 384.005 89.5363 384.005 89.8184Z" fill="#858585"/>
<path d="M390.576 92.0003V88.4719H389.644C389.408 88.4719 389.226 88.5268 389.099 88.6366C388.972 88.7465 388.91 88.8828 388.911 89.0457C388.91 89.2086 388.969 89.3431 389.09 89.4491C389.212 89.5552 389.385 89.6082 389.61 89.6082H390.9V90.3582H389.61C389.262 90.3582 388.961 90.3033 388.707 90.1934C388.453 90.0836 388.258 89.9283 388.122 89.7275C387.985 89.5268 387.917 89.2919 387.917 89.023C387.917 88.7427 387.986 88.4993 388.124 88.2929C388.265 88.0845 388.463 87.9236 388.721 87.8099C388.981 87.6944 389.288 87.6366 389.644 87.6366H391.539V92.0003H390.576ZM387.758 92.0003L388.977 89.7616H389.991L388.769 92.0003H387.758Z" fill="#858585"/>
<path d="M394.548 92.0003V91.2389L396.568 89.2588C396.761 89.0637 396.922 88.8904 397.051 88.7389C397.179 88.5874 397.276 88.4406 397.34 88.2986C397.405 88.1565 397.437 88.005 397.437 87.844C397.437 87.6603 397.395 87.5031 397.312 87.3724C397.229 87.2398 397.114 87.1376 396.968 87.0656C396.822 86.9936 396.657 86.9577 396.471 86.9577C396.28 86.9577 396.112 86.9974 395.968 87.077C395.824 87.1546 395.713 87.2654 395.633 87.4094C395.555 87.5533 395.517 87.7247 395.517 87.9236H394.514C394.514 87.5542 394.598 87.2332 394.767 86.9605C394.935 86.6878 395.167 86.4766 395.463 86.327C395.76 86.1773 396.101 86.1025 396.485 86.1025C396.875 86.1025 397.218 86.1755 397.514 86.3213C397.809 86.4671 398.038 86.6669 398.201 86.9207C398.366 87.1745 398.448 87.4643 398.448 87.79C398.448 88.0078 398.407 88.2219 398.323 88.4321C398.24 88.6423 398.093 88.8753 397.883 89.1309C397.675 89.3866 397.382 89.6963 397.005 90.0599L396.002 91.0798V91.1196H398.536V92.0003H394.548Z" fill="#858585"/>
<path d="M401.667 92.1111C401.199 92.1111 400.798 91.9927 400.463 91.7559C400.129 91.5173 399.873 91.1736 399.693 90.7247C399.515 90.2739 399.426 89.7313 399.426 89.0969C399.427 88.4624 399.517 87.9226 399.695 87.4775C399.875 87.0306 400.132 86.6897 400.465 86.4548C400.801 86.22 401.201 86.1025 401.667 86.1025C402.133 86.1025 402.534 86.22 402.869 86.4548C403.204 86.6897 403.461 87.0306 403.639 87.4775C403.819 87.9245 403.909 88.4643 403.909 89.0969C403.909 89.7332 403.819 90.2768 403.639 90.7275C403.461 91.1764 403.204 91.5192 402.869 91.7559C402.535 91.9927 402.135 92.1111 401.667 92.1111ZM401.667 91.2219C402.031 91.2219 402.318 91.0429 402.528 90.6849C402.74 90.3251 402.846 89.7957 402.846 89.0969C402.846 88.6347 402.798 88.2465 402.701 87.9321C402.605 87.6177 402.468 87.3809 402.292 87.2219C402.116 87.0609 401.908 86.9804 401.667 86.9804C401.305 86.9804 401.019 87.1603 400.809 87.5202C400.599 87.8781 400.493 88.4037 400.491 89.0969C400.489 89.5609 400.535 89.951 400.63 90.2673C400.727 90.5836 400.863 90.8222 401.039 90.9832C401.215 91.1423 401.425 91.2219 401.667 91.2219Z" fill="#858585"/>
<path d="M404.852 92.0003V91.2389L406.872 89.2588C407.066 89.0637 407.227 88.8904 407.355 88.7389C407.484 88.5874 407.581 88.4406 407.645 88.2986C407.709 88.1565 407.742 88.005 407.742 87.844C407.742 87.6603 407.7 87.5031 407.617 87.3724C407.533 87.2398 407.419 87.1376 407.273 87.0656C407.127 86.9936 406.961 86.9577 406.776 86.9577C406.584 86.9577 406.417 86.9974 406.273 87.077C406.129 87.1546 406.017 87.2654 405.938 87.4094C405.86 87.5533 405.821 87.7247 405.821 87.9236H404.818C404.818 87.5542 404.903 87.2332 405.071 86.9605C405.24 86.6878 405.472 86.4766 405.767 86.327C406.065 86.1773 406.405 86.1025 406.79 86.1025C407.18 86.1025 407.523 86.1755 407.818 86.3213C408.114 86.4671 408.343 86.6669 408.506 86.9207C408.671 87.1745 408.753 87.4643 408.753 87.79C408.753 88.0078 408.711 88.2219 408.628 88.4321C408.545 88.6423 408.398 88.8753 408.188 89.1309C407.979 89.3866 407.687 89.6963 407.31 90.0599L406.307 91.0798V91.1196H408.841V92.0003H404.852Z" fill="#858585"/>
<path d="M409.821 92.0003V91.2389L411.841 89.2588C412.034 89.0637 412.195 88.8904 412.324 88.7389C412.453 88.5874 412.549 88.4406 412.614 88.2986C412.678 88.1565 412.71 88.005 412.71 87.844C412.71 87.6603 412.669 87.5031 412.585 87.3724C412.502 87.2398 412.387 87.1376 412.242 87.0656C412.096 86.9936 411.93 86.9577 411.744 86.9577C411.553 86.9577 411.386 86.9974 411.242 87.077C411.098 87.1546 410.986 87.2654 410.906 87.4094C410.829 87.5533 410.79 87.7247 410.79 87.9236H409.787C409.787 87.5542 409.871 87.2332 410.04 86.9605C410.209 86.6878 410.441 86.4766 410.736 86.327C411.033 86.1773 411.374 86.1025 411.759 86.1025C412.149 86.1025 412.492 86.1755 412.787 86.3213C413.083 86.4671 413.312 86.6669 413.475 86.9207C413.639 87.1745 413.722 87.4643 413.722 87.79C413.722 88.0078 413.68 88.2219 413.597 88.4321C413.513 88.6423 413.367 88.8753 413.156 89.1309C412.948 89.3866 412.655 89.6963 412.279 90.0599L411.276 91.0798V91.1196H413.81V92.0003H409.821Z" fill="#858585"/>
<circle cx="483.5" cy="88.5" r="8.5" fill="#F4774C"/>
<path d="M487.469 88.4999L481.519 91.9351L481.519 85.0646L487.469 88.4999Z" fill="white"/>
<circle cx="587" cy="60" r="20" fill="white"/>
<mask id="mask0_1065_7595" style="mask-type:alpha" maskUnits="userSpaceOnUse" x="567" y="40" width="40" height="40">
<circle cx="587" cy="60" r="20" fill="white"/>
</mask>
<g mask="url(#mask0_1065_7595)">
<path d="M599.52 78.8201L599.18 68.6201H602.92L603.26 77.8001L602.92 78.8201H599.52Z" fill="white"/>
<path d="M570.619 78.48L570.279 68.96H574.019V78.14L573.339 78.48H570.619Z" fill="white"/>
<path d="M575.719 87.6598L575.039 69.6398L598.159 69.2998L598.499 87.9998L575.719 87.6598Z" fill="white"/>
<path d="M590.77 49.1064L591.151 51.7752H592.676L591.913 49.1064H590.77Z" fill="white"/>
<path d="M583.145 49.1064L582.763 51.7752H581.238L582.001 49.1064H583.145Z" fill="white"/>
<path d="M576.663 52.9188L577.425 52.1562H593.819L597.632 52.5375L598.013 65.8813L594.2 66.6438L582 67.0251L575.9 66.2626L576.663 52.9188Z" fill="white"/>
<path d="M576.661 65.2979C576.71 65.2413 576.71 65.2413 576.706 65.1888C576.646 64.4001 576.639 63.6074 576.636 62.8673C576.642 61.5449 576.652 60.275 576.71 58.9486L576.785 57.8326C576.785 57.8326 576.762 56.8296 576.796 55.8752C576.777 54.9248 577.128 53.6707 577.083 53.7799C577.017 52.1985 576.828 51.1023 576.283 53.6817C576.128 54.4337 575.664 55.5905 575.561 56.3386C575.459 57.0866 575.394 57.6203 575.394 57.6203L575.335 58.9467C575.277 60.2731 575.271 61.5955 575.265 62.918C575.272 63.7106 575.279 64.5033 575.339 65.292C575.343 65.3446 575.399 65.3932 575.399 65.3932C575.981 66.0896 576.475 65.6293 576.661 65.2979Z" fill="#F4774C"/>
<path d="M595.946 51.7852C594.875 51.6017 593.439 51.4986 592.695 51.4491C592.74 51.3399 592.732 51.2348 592.777 51.1256C592.858 50.8022 592.883 50.4302 592.859 50.1147C592.888 49.7953 592.872 49.585 592.872 49.585L592.856 49.3746L592.828 49.0066L592.712 48.1693L591.867 48.1802L591.232 48.1753C590.965 48.1426 590.702 48.1624 590.443 48.2348L589.711 48.343L589.871 49.7587L589.979 50.4908C590.003 50.8063 590.075 51.0653 590.099 51.3807L583.014 51.387C583.01 51.3344 583.062 51.3305 583.058 51.2779C583.144 51.007 583.225 50.6836 583.31 50.4128C583.343 50.1459 583.38 49.9316 583.38 49.9316C583.356 49.6161 583.332 49.3007 583.308 48.9852L583.272 48.512L582.84 48.386C582.569 48.3007 582.411 48.3126 582.254 48.3245C582.096 48.3364 581.991 48.3444 581.837 48.4088C581.784 48.4128 581.683 48.4734 581.578 48.4813L581.266 48.5577L580.7 48.7591L580.682 49.9238C580.698 50.1341 580.665 50.401 580.681 50.6113C580.697 50.8216 580.717 51.0845 580.737 51.3474C580.737 51.3474 580.737 51.3474 580.741 51.4L579.524 51.3862L577.146 51.4071C577.093 51.4111 577.044 51.4677 577.044 51.4677C576.299 52.1056 576.76 52.5996 577.091 52.7861C577.148 52.8347 577.148 52.8347 577.2 52.8307L579.578 52.8098L591.003 52.846L592.115 52.8677C592.115 52.8677 596.115 52.6185 595.901 52.5819C597.527 52.4062 598.51 52.1204 595.946 51.7852ZM582.221 51.394C582.217 51.3414 582.209 51.2363 582.205 51.1837C582.193 51.0259 582.181 50.8682 582.169 50.7105C582.246 51.022 582.318 51.2809 582.318 51.2809C582.322 51.3335 582.322 51.3335 582.379 51.3821L582.221 51.394ZM591.531 51.4313C591.45 51.0672 591.422 50.6991 591.395 50.331L591.283 49.5463L591.44 49.5344L591.452 49.6922C591.452 49.6922 591.589 50.1049 591.722 50.465C591.855 50.8251 591.988 51.1852 591.988 51.1852C591.992 51.2378 592.052 51.339 592.109 51.3876L591.531 51.4313Z" fill="#F4774C"/>
<path d="M598.433 62.2798C598.43 61.5397 598.443 61.0099 598.443 61.0099L598.343 59.6954C598.281 58.1667 598.222 56.6905 598.269 55.2063C598.318 54.4623 598.364 53.6656 598.466 52.9176C598.462 52.865 598.458 52.8124 598.406 52.8164C597.921 52.0069 597.31 52.3174 597.071 52.6528C597.023 52.7093 597.023 52.7093 597.027 52.7619C596.928 53.5625 596.83 54.3631 596.789 55.2123C596.746 56.749 596.756 58.2818 596.871 59.8066L596.959 60.9634C596.959 60.9634 597.087 61.9584 597.211 62.9009C597.335 63.8433 597.459 64.7858 597.455 64.7332C597.539 65.1499 597.567 65.518 597.639 65.7769C597.429 65.7928 597.162 65.76 596.847 65.7838C595.314 65.7938 593.15 65.8515 593.15 65.8515L591.84 66.0033C587.637 66.3736 583.193 66.4188 578.951 66.2632C578.154 66.2176 576.748 65.6398 575.951 65.5942C575.899 65.5982 575.85 65.6547 575.85 65.6547C575.101 66.2401 575.513 66.7906 575.791 66.9811C575.848 67.0297 575.848 67.0297 575.901 67.0258C576.697 67.0714 578.539 67.414 579.332 67.407C583.627 67.5586 587.692 67.7972 591.999 67.419L593.156 67.3317C593.156 67.3317 593.419 67.3118 593.783 67.2314C594.147 67.1511 594.617 67.0627 595.138 66.9704C596.129 66.7898 597.064 66.5606 596.959 66.5686C597.323 66.4882 597.63 66.3592 597.889 66.2868C597.946 66.3354 597.998 66.3314 597.991 66.2263C598.504 66.0288 598.703 65.8552 598.116 65.7937C598.149 65.5268 598.231 65.2034 598.247 64.7262C598.398 63.9217 598.436 63.0199 598.433 62.2798Z" fill="#F4774C"/>
<path d="M581.205 55.4374C581.459 55.3124 581.67 55.2965 581.888 55.3858C581.888 55.3858 581.937 55.3293 581.989 55.3253C582.293 55.1437 582.596 54.9621 582.629 54.6953C582.666 54.481 582.537 54.1734 582.367 54.0276C582.311 53.979 582.311 53.979 582.258 53.983C581.72 53.865 581.142 53.9086 580.628 54.1061C580.114 54.3035 579.717 54.6508 579.43 55.0426C579.045 55.5476 578.781 56.255 578.837 56.9911C578.848 57.1489 578.917 57.3552 578.929 57.5129C578.993 57.6667 579.058 57.8205 579.122 57.9742C579.247 58.2292 579.481 58.5288 579.712 58.7758C580.107 59.1161 580.601 59.3432 581.134 59.4087C581.134 59.4087 581.506 59.4335 581.976 59.3451C582.445 59.2568 583.003 58.9503 583.449 58.5465C583.643 58.3203 583.838 58.0941 583.975 57.8193C584.113 57.5444 584.199 57.2736 584.183 57.0633C584.2 56.5861 584.071 56.2786 584.075 56.3311C583.877 55.8173 583.485 55.5296 583.21 55.3917C582.936 55.2538 582.721 55.2171 582.616 55.225C582.511 55.233 582.572 55.3342 582.693 55.5366C582.749 55.5852 582.806 55.6338 582.81 55.6863C582.866 55.735 582.927 55.8362 582.983 55.8848C583.1 56.0346 583.221 56.2369 583.241 56.4998C583.338 57.0742 582.746 57.6477 582.232 57.8451C581.977 57.9701 581.715 57.99 581.557 58.0019C581.399 58.0138 581.294 58.0218 581.294 58.0218C581.031 58.0416 580.756 57.9037 580.587 57.7579C580.473 57.6607 580.356 57.5109 580.288 57.3045C580.227 57.2034 580.223 57.1508 580.167 57.1022C580.163 57.0496 580.102 56.9484 580.151 56.8919C580.127 56.5764 580.209 56.2529 580.448 55.9176C580.747 55.6835 580.998 55.5059 581.205 55.4374Z" fill="#F4774C"/>
<path d="M594.583 56.1193C594.522 56.0182 594.518 55.9656 594.518 55.9656C594.22 55.5122 593.884 55.2731 593.561 55.1918C593.286 55.0539 593.072 55.0172 592.971 55.0777C592.865 55.0857 592.926 55.1869 593.047 55.3893C593.16 55.4865 593.273 55.5837 593.39 55.7335C593.507 55.8833 593.681 56.0817 593.753 56.3406C593.818 56.4944 593.826 56.5995 593.785 56.7612C593.741 56.8704 593.7 57.0321 593.603 57.1452C593.461 57.3674 593.157 57.549 592.902 57.674C592.647 57.799 592.384 57.8189 592.231 57.8834C592.073 57.8953 591.968 57.9032 591.968 57.9032C591.652 57.927 591.381 57.8417 591.163 57.7524C590.884 57.562 590.699 57.2058 590.667 56.7852C590.651 56.5749 590.639 56.4172 590.733 56.2515C590.773 56.0898 590.87 55.9767 591.016 55.807C591.361 55.4637 592.036 55.307 592.679 55.4171C592.732 55.4131 592.78 55.3565 592.78 55.3565C593.132 55.1184 593.323 54.8396 593.307 54.6293C593.291 54.419 593.113 54.168 592.944 54.0222C592.887 53.9736 592.887 53.9736 592.835 53.9775C592.354 53.9081 591.88 53.9439 591.415 54.0848C590.946 54.1731 590.488 54.4191 590.039 54.7703C589.743 55.0571 589.504 55.3924 589.374 55.7723C589.244 56.1523 589.224 56.5769 589.251 56.945C589.332 57.3091 589.36 57.6772 589.545 58.0333C589.731 58.3894 589.969 58.7416 590.357 58.9767C590.801 59.2604 591.339 59.3784 591.816 59.3953C591.816 59.3953 592.132 59.3715 592.601 59.2832C593.013 59.1462 593.576 58.8922 594.017 58.4358C594.463 58.0321 594.783 57.3733 594.691 56.8515C594.712 56.4269 594.647 56.2731 594.583 56.1193Z" fill="#F4774C"/>
<path d="M594.996 61.7839L594.943 61.7879C594.782 61.7472 594.624 61.7591 594.466 61.7711C594.248 61.6818 593.026 62.137 592.278 62.0348C590.782 61.8305 588.761 61.8685 588.761 61.8685L587.438 61.8626L583.155 61.8688L580.362 60.9543C580.309 60.9583 580.261 61.0148 580.261 61.0148C580.014 61.245 579.868 61.4147 579.884 61.625C578.044 61.7639 579.674 61.6409 579.095 61.6845C579.099 61.7371 579.099 61.7371 579.103 61.7897C579.111 61.8949 579.119 62 579.131 62.1578C579.151 62.4207 579.118 62.6875 579.118 62.6875C579.118 62.6875 579.352 62.9871 579.405 62.9831C579.461 63.0317 579.57 63.0764 579.68 63.1211C579.651 63.4405 579.934 63.6835 580.103 63.8294C580.16 63.878 580.16 63.878 580.212 63.874L583.006 64.7885L587.551 64.7624L588.66 64.7317C588.66 64.7317 592.66 64.4825 592.445 64.4458C592.761 64.4219 593.707 63.6262 593.918 63.6104C593.978 63.7115 594.035 63.7601 594.035 63.7601C594.204 63.906 594.528 63.9873 594.823 63.7006C595.022 63.527 595.16 63.2522 595.16 63.2522C595.16 63.2522 595.132 62.8841 595.108 62.5686C595.096 62.4109 594.996 61.7839 595.072 62.0954C595 61.8365 594.996 61.7839 594.996 61.7839ZM593.798 63.201C593.637 63.1603 592.649 63.6372 592.434 63.6005C590.598 63.874 588.57 63.874 588.57 63.874L583.508 63.7601L581.798 63.601L580.598 62.401C581.019 62.3692 592.36 62.9834 592.198 62.9427C592.409 62.9268 593.585 62.4768 593.739 62.4123C593.747 62.5174 593.759 62.6752 593.767 62.7803C593.779 62.9381 593.79 63.0958 593.798 63.201Z" fill="#F4774C"/>
<path d="M591.042 78.8917C590.919 79.1367 590.706 79.4358 590.493 79.7349C590.28 80.0339 590.016 80.2896 589.752 80.5453L589.055 81.3053C588.925 81.4566 588.791 81.561 588.661 81.7123C588.578 81.8601 588.445 81.9645 588.362 82.1122L587.848 82.8112L587.722 83.0094L587.682 83.1067L587.639 83.1571L588.245 83.0642C589.038 82.9571 589.832 82.85 590.629 82.7898L590.957 82.765L591.239 82.7438L591.805 82.7482C592.18 82.7199 592.559 82.7384 592.89 82.7605L593.031 82.7499L593.172 82.7393L593.316 82.7755L593.889 82.8737L594.174 82.8994L594.318 82.9356L594.412 82.9286L594.459 82.925C594.459 82.925 594.459 82.925 594.456 82.8781L594.46 82.3119L594.464 81.7457L594.483 81.367L594.534 80.7972C594.571 80.0399 594.655 79.279 594.739 78.5182C594.823 77.7573 594.857 76.9531 594.793 76.109C594.761 75.687 594.733 75.3119 594.651 74.8465C594.637 74.659 594.575 74.475 594.514 74.2909L594.446 74.0131L594.389 73.876L594.385 73.8291C594.385 73.8291 594.385 73.8291 594.338 73.8327L594.245 73.8397L593.253 73.8203L588.626 73.7453L586.314 73.7313C585.51 73.6977 584.803 73.7039 584.045 73.6668C583.288 73.6297 582.484 73.5961 581.64 73.6598C581.452 73.674 581.218 73.6917 581.034 73.7527C580.893 73.7634 580.706 73.7775 580.518 73.7917C580.33 73.8059 580.049 73.8271 579.728 73.9457C579.407 74.0643 579.147 74.3668 579.024 74.6119C578.731 75.1056 578.719 75.5781 578.658 76.0072C578.642 76.4327 578.674 76.8547 578.656 77.2334L578.698 77.7961C578.709 77.9367 578.676 78.1279 578.69 78.3154L578.685 79.4948C578.691 80.2017 578.701 80.9555 578.754 81.6588C578.758 81.7057 578.808 81.7491 578.808 81.7491C579.064 82.0127 579.255 82.0454 579.443 82.0313C579.215 82.1427 579.558 82.3055 580.794 82.4479C581.462 82.539 582.269 82.6195 582.936 82.7106C583.081 82.7468 583.268 82.7327 583.365 82.7725C583.51 82.8087 583.603 82.8017 583.697 82.7946C583.888 82.8273 584.029 82.8167 584.029 82.8167C584.267 82.8459 584.552 82.8715 584.833 82.8503C584.974 82.8396 585.118 82.8759 585.259 82.8653C585.446 82.8511 585.634 82.8369 585.868 82.8192C585.962 82.8121 586.099 82.7546 586.193 82.7476C586.287 82.7405 586.467 82.6325 586.558 82.5786C586.962 82.3122 587.222 82.0096 587.439 81.7575L587.699 81.4549C587.786 81.354 587.829 81.3036 587.959 81.1523L588.479 80.5471C588.826 80.1437 589.176 79.7871 589.527 79.4306C589.877 79.074 590.278 78.7608 590.639 78.5449C590.819 78.4369 591.003 78.3759 591.144 78.3653C591.191 78.3617 591.238 78.3582 591.238 78.3582C591.238 78.3582 591.238 78.3582 591.284 78.3546L591.335 78.398C591.335 78.398 591.335 78.398 591.338 78.4449C591.165 78.6466 591.125 78.7439 591.042 78.8917ZM592.403 78.1759C592.342 77.9918 592.281 77.8078 592.129 77.6778C591.975 77.5009 591.776 77.3743 591.535 77.2983C591.293 77.2222 591.055 77.193 590.868 77.2072C590.446 77.239 590.128 77.4045 589.857 77.5664C589.316 77.8902 588.919 78.2504 588.478 78.6609C588.084 79.0679 587.738 79.4713 587.391 79.8748L586.871 80.48C586.827 80.5304 586.697 80.6817 586.611 80.7826L586.35 81.0851C586.177 81.2869 585.957 81.4921 585.823 81.5965C585.733 81.6505 585.733 81.6505 585.596 81.708C585.502 81.7151 585.365 81.7726 585.271 81.7797C585.224 81.7832 585.13 81.7903 585.084 81.7939L585.037 81.7974L584.943 81.8045L584.802 81.8151C584.568 81.8328 584.377 81.8001 584.139 81.7709C584.139 81.7709 583.904 81.7886 583.572 81.7665C583.197 81.7948 582.775 81.8267 582.35 81.8117C581.506 81.8755 580.615 81.9427 580.709 81.9357C580.24 81.9711 579.868 82.0463 579.59 82.1144C579.724 82.01 579.811 81.9091 579.894 81.7614C579.937 81.711 579.937 81.711 579.934 81.6641C579.884 81.0076 579.878 80.3007 579.875 79.6407L579.884 78.5082C579.87 78.3207 579.902 78.1296 579.885 77.8951L579.839 77.2856C579.81 76.9104 579.782 76.5353 579.804 76.2035C579.826 75.8717 579.895 75.5364 579.978 75.3887C580.018 75.2914 580.065 75.2878 580.108 75.2374C580.155 75.2338 580.292 75.1763 580.433 75.1657C580.621 75.1515 580.808 75.1374 581.043 75.1197C581.23 75.1055 581.414 75.0445 581.555 75.0338C582.258 74.9807 583.016 75.0178 583.773 75.0549C584.53 75.0921 585.378 75.0752 586.088 75.1159L588.4 75.1299L592.98 75.2085L593.121 75.1978C593.193 75.5225 593.221 75.8977 593.249 76.2728C593.302 76.9762 593.265 77.7335 593.181 78.4943C593.144 79.2517 593.06 80.0125 592.98 80.8203L592.932 81.437L592.946 81.6245L592.755 81.5918C592.33 81.5768 591.951 81.5582 591.525 81.5432C591.338 81.5574 591.15 81.5715 590.912 81.5423L590.349 81.5848L590.436 81.484C590.696 81.1814 590.96 80.9257 591.216 80.5762C591.477 80.2736 591.733 79.9241 591.936 79.4844C592.062 79.2862 592.138 79.0447 592.16 78.7129C592.431 78.551 592.417 78.3634 592.403 78.1759Z" fill="#F4774C"/>
<path d="M604.95 90.7152C604.687 90.3578 604.428 90.0473 604.125 89.7872C603.974 89.6571 603.822 89.5271 603.628 89.4475C603.621 89.3537 603.52 89.267 603.322 89.1405C602.976 88.9308 602.493 88.7787 602.493 88.7787C602.493 88.7787 601.735 88.7415 600.982 88.7513C600.603 88.7327 600.228 88.7611 599.943 88.7354C599.896 88.739 599.802 88.746 599.755 88.7496C599.748 88.6558 599.792 88.6054 599.785 88.5116C599.967 87.1774 600.103 85.2336 600.103 85.2336L600.108 84.0543L600.089 81.9336C600.09 81.3205 600.044 80.7109 600.049 80.1447C600.896 80.1278 602.169 80.126 602.169 80.126C602.169 80.126 602.216 80.1225 602.31 80.1154L602.325 82.1892L602.342 83.0368L602.369 84.025C602.369 84.025 602.592 87.5922 602.628 87.448C602.781 88.8512 603.086 89.7713 603.338 87.4887C603.521 86.1545 603.657 84.2107 603.657 84.2107L603.662 83.0314L603.645 82.1838L603.626 80.0631C603.623 80.0162 603.573 79.9729 603.573 79.9729C603.472 79.8862 603.418 79.7959 603.317 79.7092C603.447 79.5579 603.433 79.3704 603.043 79.2112C603.09 79.2076 603.09 79.2076 603.087 79.1607C603.404 78.9953 603.621 78.7431 603.081 78.4538C602.735 78.2441 602.302 78.1354 602.302 78.1354C602.302 78.1354 600.041 78.1647 599.568 78.1532C599.601 77.9621 599.673 77.6737 599.695 77.3419C599.874 75.9608 599.963 74.0206 599.963 74.0206L599.922 72.8448L599.853 70.6807C599.854 70.0676 599.811 69.5049 599.812 68.8918C600.613 68.8785 602.073 68.8625 602.073 68.8625C602.073 68.8625 602.257 68.8015 602.441 68.7404L602.453 70.7673L602.487 72.4625L602.514 73.4507C602.514 73.4507 602.736 77.0179 602.773 76.8737C602.926 78.2769 603.231 79.197 603.483 76.9144C603.665 75.5802 603.801 73.6364 603.801 73.6364L603.807 72.4571L603.82 70.7584L603.801 68.6377C603.798 68.5908 603.747 68.5475 603.747 68.5475C603.592 68.3705 603.441 68.2405 603.297 68.2042C603.29 68.1104 603.185 67.9769 602.991 67.8972C602.645 67.6876 602.212 67.5788 602.212 67.5788C602.212 67.5788 599.431 67.6001 599.385 67.6037C599.385 67.6037 599.388 67.6505 599.341 67.6541C599.305 67.7983 599.269 67.9425 599.279 68.0832C598.994 68.0576 598.774 68.2628 598.648 68.461C598.604 68.5114 598.604 68.5114 598.608 68.5583C598.625 68.7928 598.593 68.9839 598.61 69.2183C598.214 68.9653 597.86 69.275 597.737 69.5201C597.694 69.5705 597.694 69.5705 597.697 69.6174L597.716 71.7381L597.791 82.7202L597.818 83.7085C597.818 83.7085 598.041 87.2757 598.077 87.1315C598.102 87.4597 598.17 87.7375 598.188 87.972C597.946 87.8959 597.661 87.8703 597.232 87.8083C595.894 87.5793 593.947 87.3962 593.947 87.3962L586.445 87.3497C585.075 87.3117 583.661 87.3242 582.287 87.2393L581.245 87.1765C580.866 87.1579 580.538 87.1828 580.159 87.1642C579.452 87.1704 578.746 87.1766 578.086 87.1793C577.379 87.1855 576.715 87.1413 576.048 87.0502C576.001 87.0538 575.958 87.1042 575.958 87.1042C575.687 87.2661 575.557 87.4174 575.524 87.6085C575.6 87.367 575.622 87.0352 575.681 86.5592C575.863 85.2251 575.999 83.2813 575.999 83.2813L576.004 82.1019L575.939 71.8736L575.945 70.0811L577.453 70.0616C578.82 70.0527 580.183 69.9969 581.55 69.988C582.21 69.9853 582.917 69.979 583.581 70.0233C584.244 70.0675 584.955 70.1081 585.662 70.1019C587.032 70.1399 588.446 70.1274 589.809 70.0716L591.879 70.0096L593.243 69.9538C593.243 69.9538 596.796 69.544 596.608 69.5582C598.008 69.3582 598.925 69.006 596.602 68.8513C595.225 68.7195 593.288 68.6771 593.288 68.6771L592.018 68.7259L589.948 68.7879C588.538 68.8472 587.171 68.8561 585.8 68.8182C585.094 68.8244 584.43 68.7802 583.72 68.7395C583.009 68.6989 582.302 68.7051 581.595 68.7113C580.181 68.7238 578.768 68.7362 577.404 68.792L575.331 68.8072C575.284 68.8107 575.24 68.8611 575.24 68.8611C574.973 69.0699 574.893 69.2646 574.908 69.4521L574.926 69.0735C574.923 69.0266 574.872 68.9832 574.872 68.9832C574.872 68.9832 574.869 68.9363 574.822 68.9399C574.865 68.8895 574.909 68.839 574.952 68.7886C574.988 68.6444 574.884 68.5108 574.592 68.3914C574.246 68.1817 573.716 68.0331 573.716 68.0331C573.197 68.0251 572.63 68.0207 572.111 68.0128C571.83 68.0341 571.592 68.0049 571.31 68.0261C571.17 68.0368 571.029 68.0474 570.888 68.058C570.794 68.0651 570.748 68.0686 570.654 68.0757C570.607 68.0792 570.56 68.0828 570.513 68.0863C570.466 68.0899 570.466 68.0899 570.376 68.1438C570.329 68.1474 570.286 68.1978 570.286 68.1978C570.149 68.2553 570.019 68.4066 569.982 68.5508L569.943 68.6481L569.95 68.7419C569.953 68.7888 569.957 68.8357 569.96 68.8826C569.964 68.9295 569.964 68.9295 569.967 68.9764C569.971 69.0233 570.021 69.0666 570.025 69.1135C570.075 69.1569 570.079 69.2038 570.126 69.2002L570.137 71.2271L570.135 73.0665L570.162 74.0547C570.162 74.0547 570.384 77.6219 570.421 77.4777C570.517 78.1306 570.603 78.6429 570.711 78.8234C570.718 78.9172 570.722 78.9641 570.729 79.0578C570.729 79.0578 570.732 79.1047 570.685 79.1083C570.653 79.2994 570.623 79.5374 570.634 79.678C570.403 79.7426 570.273 79.8939 570.19 80.0417C570.147 80.0921 570.147 80.0921 570.15 80.139L570.169 82.2597L570.193 83.2011L570.22 84.1893C570.22 84.1893 570.442 87.7565 570.479 87.6123C570.511 88.0343 570.586 88.4059 570.654 88.6837L570.657 88.7306C570.542 89.0695 570.563 89.3508 570.581 89.5852C570.49 89.6392 570.443 89.6428 570.353 89.6967C570.039 89.9091 569.775 90.1648 569.512 90.4205C569.299 90.7195 569.082 90.9717 568.919 91.3141C568.59 91.952 568.358 92.6297 568.267 93.2968L568.198 93.6321C568.205 93.7259 568.165 93.8232 568.172 93.917L568.147 94.2019L568.168 94.4832C568.168 94.4832 568.172 94.5301 568.182 94.6708C568.189 94.7646 568.203 94.9521 568.265 95.1362C568.34 95.5077 568.566 96.0094 568.879 96.4101C569.193 96.8109 569.593 97.1108 569.888 97.2771C570.184 97.4434 570.378 97.5231 570.375 97.4762C571.103 97.7513 571.716 97.7521 571.853 97.6946C571.9 97.6911 571.896 97.6442 571.893 97.5973C572.077 97.5362 572.257 97.4283 572.341 97.2805C572.384 97.2301 572.384 97.2301 572.38 97.1832L572.435 96.6603L572.464 96.4223L572.494 96.1844L572.548 95.6615L572.018 95.5129C571.921 95.4731 571.827 95.4801 571.777 95.4368L571.68 95.397C571.579 95.3103 571.481 95.2705 571.381 95.1838C571.175 94.9635 570.963 94.6494 570.844 94.3283C570.787 94.1911 570.773 94.0036 570.762 93.8629L570.741 93.5816L570.77 93.3436C570.861 92.6765 571.295 92.1722 571.933 91.8881C572.255 91.7696 572.626 91.6943 572.954 91.6696C573.329 91.6412 573.618 91.7138 573.91 91.8332C574.202 91.9526 574.407 92.1729 574.569 92.4436C574.731 92.7143 574.849 93.0355 574.827 93.3673C574.877 94.0237 574.602 94.7519 574.064 95.1226L574.021 95.1731L573.974 95.1766L573.93 95.227L573.66 95.3889L573.389 95.5508L573.346 95.6013L573.299 95.6048L573.302 95.6517L573.36 95.7888C573.421 95.9729 573.485 96.2038 573.546 96.3878L573.672 96.8027C573.798 97.2177 573.923 97.6326 574.049 98.0475L574.168 98.3687L574.215 98.3651L574.258 98.3147L574.391 98.2103C574.572 98.1024 574.752 97.9944 574.929 97.8396L575.467 97.4688C575.511 97.4184 575.557 97.4149 575.601 97.3644L575.688 97.2636L575.821 97.1592C575.998 97.0044 576.175 96.8495 576.348 96.6478C576.652 96.2948 576.948 95.848 577.151 95.4082C577.552 94.4819 577.612 93.3928 577.303 92.4258C576.969 91.1306 576.08 89.9716 574.855 89.3568C575.032 89.202 575.017 89.0144 574.625 88.8083C574.477 88.7251 574.282 88.6455 574.138 88.6092C574.232 88.6021 574.341 88.1695 574.457 87.2175C574.639 85.8833 574.776 83.9396 574.776 83.9396L574.781 82.7602L574.778 82.1002L574.76 79.9795C574.756 79.9326 574.706 79.8893 574.706 79.8893C574.601 79.7557 574.5 79.669 574.403 79.6292C574.396 79.5354 574.338 79.3983 574.093 79.2753C574.324 79.2107 574.883 79.1213 574.883 79.1213C574.93 79.1178 574.93 79.1178 574.974 79.0674L575.006 81.9887L575.033 82.977C575.033 82.977 575.255 86.5442 575.292 86.4C575.42 87.4749 575.621 88.2615 575.802 87.5404C575.806 87.5873 575.809 87.6342 575.813 87.6811C575.83 87.9155 575.985 88.0925 576.133 88.1756C576.183 88.219 576.183 88.219 576.23 88.2154C576.944 88.303 577.702 88.3401 578.409 88.3339C578.928 88.3418 579.444 88.3029 579.963 88.3108C579.883 88.5054 579.854 88.7434 579.865 88.8841C579.677 88.8983 579.544 89.0027 579.453 89.0566C579.407 89.0602 579.407 89.0602 579.41 89.1071C579.417 89.2009 579.579 94.4703 579.579 94.4703C579.579 94.4703 579.844 96.1008 579.884 96.0035C579.941 96.1406 579.955 96.3282 580.009 96.4185C579.857 96.9015 579.979 97.2696 580.087 97.4501L580.091 97.4969C580.055 97.6411 580.062 97.7349 580.069 97.8287C579.874 97.7491 579.733 97.7597 579.643 97.8137C579.596 97.8172 579.596 97.8172 579.6 97.8641C579.564 98.0083 579.48 98.7692 579.493 99.5699C579.459 100.374 579.469 101.128 579.469 101.128C579.469 101.128 579.681 102.055 579.724 102.005C579.724 102.005 579.724 102.005 579.727 102.052C579.302 102.037 578.833 102.072 578.368 102.154C577.949 102.233 577.484 102.315 577.029 102.538C576.939 102.592 576.802 102.65 576.715 102.751L576.534 102.859L576.404 103.01C576.231 103.212 576.061 103.46 575.985 103.702C575.786 104.188 575.778 104.708 575.817 105.223C575.903 105.736 576.083 106.241 576.49 106.635C576.644 106.812 576.893 106.981 577.135 107.057C577.426 107.177 577.661 107.159 577.852 107.192C578.278 107.207 578.649 107.132 578.977 107.107C579.024 107.103 579.068 107.053 579.068 107.053C579.288 106.848 579.368 106.653 579.353 106.465C579.404 106.509 579.451 106.505 579.548 106.545C579.786 106.574 580.118 106.596 580.691 106.695C581.358 106.786 582.17 106.913 582.833 106.957C583.5 107.048 584.016 107.009 584.016 107.009C584.25 106.992 584.438 106.978 584.669 106.913L584.994 106.841L585.181 106.827L585.275 106.82L585.412 106.762C585.827 106.637 586.336 106.504 586.78 106.14C586.913 106.036 587.04 105.838 587.123 105.69L587.127 105.737C587.231 105.871 587.285 105.961 587.389 106.094C587.49 106.181 587.591 106.268 587.692 106.354C588.088 106.608 588.521 106.716 588.856 106.785C589.239 106.851 589.621 106.916 589.952 106.938C589.999 106.935 590.043 106.884 590.043 106.884C590.357 106.672 590.483 106.474 590.469 106.286C590.516 106.283 590.566 106.326 590.66 106.319C590.898 106.348 591.23 106.37 591.796 106.375C592.463 106.466 593.275 106.593 593.938 106.637C594.602 106.682 595.118 106.643 595.118 106.643C595.352 106.625 595.583 106.56 595.77 106.546C595.864 106.539 596.001 106.482 596.095 106.474L596.279 106.413C596.326 106.41 596.326 106.41 596.373 106.406L596.51 106.349C596.878 106.227 597.38 106 597.727 105.597C598.073 105.193 598.269 104.66 598.226 104.097C598.205 103.816 598.14 103.585 598.076 103.354C597.964 103.127 597.9 102.896 597.745 102.719C597.479 102.314 596.981 101.975 596.502 101.869C596.022 101.764 595.597 101.749 595.222 101.777C595.034 101.792 594.843 101.759 594.655 101.773C594.746 101.719 594.786 101.622 594.869 101.474C595.031 101.132 595.043 100.659 595.043 100.659C595.043 100.659 595.029 100.472 594.964 100.241C594.9 100.01 594.871 99.6346 594.8 99.3099C594.775 98.9817 594.703 98.657 594.732 98.419C594.715 98.1846 594.751 98.0404 594.747 97.9935C594.747 97.9935 594.7 97.997 594.697 97.9501C594.358 97.8342 594.026 97.8121 593.795 97.8767C593.741 97.7865 593.594 97.7033 593.399 97.6237C593.006 97.4176 592.429 97.2725 592.429 97.2725C592.429 97.2725 592.191 97.2433 591.863 97.2681C591.531 97.246 591.059 97.2346 590.586 97.2231C590.114 97.2116 589.598 97.2505 589.223 97.2789C589.176 97.2824 589.129 97.2859 589.082 97.2895C589.079 97.2426 589.075 97.1957 589.028 97.1992L589.025 97.1524C590.013 97.1249 592.891 97.1433 592.891 97.1433C592.891 97.1433 594.147 96.907 594.1 96.9106C594.608 96.7779 594.915 96.4717 594.093 96.2037C593.607 96.0046 592.936 95.8667 592.936 95.8667C592.936 95.8667 590.484 95.8633 589.308 95.9049C589.31 94.6787 589.276 90.4842 589.276 90.4842C589.276 90.4842 589.144 89.3623 589.069 88.9907C590.057 88.9633 592.744 88.949 592.744 88.949C592.744 88.949 593.162 88.8702 593.487 88.7985C593.498 88.9392 593.515 89.1737 593.537 89.455C593.576 89.9708 593.578 90.6308 593.581 91.2908C593.584 91.9508 593.59 92.6577 593.582 93.1771C593.574 93.6964 593.599 94.0246 593.599 94.0246C593.599 94.0246 593.606 94.1184 593.667 94.3024C593.677 94.4431 593.742 94.674 593.803 94.858C593.882 95.2765 594.051 95.641 594.051 95.641C594.169 95.9621 594.378 96.2293 594.472 96.2223C594.616 96.2585 594.696 96.0639 594.751 95.541C594.773 95.2092 594.838 94.827 594.864 94.5421C594.89 94.2573 594.919 94.0193 594.919 94.0193C594.919 94.0193 594.894 93.691 594.902 93.1717C594.91 92.6523 594.907 91.9923 594.901 91.2854C594.895 90.5785 594.888 89.8716 594.846 89.309C594.804 88.7463 594.728 88.3747 594.728 88.3747C595.01 88.3534 595.338 88.3287 595.67 88.3508C596.517 88.3339 597.361 88.2702 597.314 88.2737C597.783 88.2383 598.158 88.21 598.436 88.1418C598.551 88.4161 598.649 88.4559 598.757 88.0233L598.754 87.9764C598.783 87.7384 598.856 87.45 598.914 86.974C598.969 86.4511 599.02 85.8813 599.075 85.3584C599.146 86.2962 599.258 88.4099 599.298 88.3126C599.323 88.6408 599.391 88.9186 599.409 89.153C599.091 89.3185 598.777 89.5308 598.51 89.7396C597.845 90.3086 597.386 91.0978 597.212 91.9126C597.132 92.1073 597.103 92.3452 597.117 92.5328L597.088 92.7708C597.092 92.8177 597.092 92.8177 597.095 92.8646L597.073 93.1964L597.098 93.5246L597.123 93.8528C597.123 93.8528 597.126 93.8997 597.184 94.0369C597.191 94.1306 597.252 94.3146 597.309 94.4518C597.431 94.8198 597.608 95.2781 597.921 95.6789C598.457 96.5344 599.25 97.0404 599.196 96.9502C599.841 97.373 600.508 97.4641 600.645 97.4066C600.692 97.4031 600.688 97.3562 600.634 97.2659C600.919 97.2916 601.139 97.0863 601.266 96.8882C601.309 96.8377 601.309 96.8377 601.306 96.7908L601.29 95.3301L601.279 95.1895L601.276 95.1426L601.229 95.1461L600.987 95.07C600.843 95.0338 600.652 95.001 600.461 94.9683L600.317 94.932C600.27 94.9356 600.266 94.8887 600.219 94.8922C600.169 94.8489 600.122 94.8524 600.071 94.8091C599.873 94.6826 599.722 94.5525 599.657 94.3216C599.593 94.0907 599.575 93.8562 599.601 93.5714C599.699 92.998 600.035 92.4539 600.429 92.0469C600.869 91.6364 601.418 91.4064 601.937 91.4143C601.984 91.4108 602.078 91.4037 602.128 91.447C602.175 91.4435 602.273 91.4833 602.319 91.4797C602.417 91.5195 602.561 91.5558 602.662 91.6425C602.907 91.7655 603.112 91.9858 603.271 92.2096C603.587 92.6572 603.727 93.2597 603.571 93.6959C603.535 93.8401 603.488 93.8437 603.448 93.941C603.405 93.9914 603.315 94.0454 603.134 94.1534C603.001 94.2578 602.727 94.3728 602.51 94.6249C602.427 94.7727 602.34 94.8735 602.257 95.0213C602.174 95.1691 602.137 95.3133 602.148 95.4539C602.122 95.7388 602.14 95.9733 602.205 96.2042C602.215 96.3449 602.344 96.8067 602.506 97.0774L602.729 97.5322L602.841 97.7595L602.844 97.8064L602.888 97.756L603.025 97.6985L603.48 97.4755C603.617 97.418 603.797 97.31 603.931 97.2056C604.292 96.9897 604.378 96.8889 604.559 96.7809C604.689 96.6296 604.866 96.4748 604.996 96.3235C605.303 96.0174 605.509 95.6245 605.668 95.2352C605.828 94.846 605.936 94.4133 606.002 94.0311C606.064 93.602 606.079 93.1765 606.003 92.8049C605.723 92.213 605.425 91.3867 604.95 90.7152ZM575.855 93.2425C575.838 93.008 575.816 92.7267 575.752 92.4958C575.809 92.6329 575.816 92.7267 575.874 92.8638C576.071 93.6034 576.031 94.3139 575.752 94.9951C575.589 95.3375 575.423 95.633 575.159 95.8887C575.029 96.04 574.896 96.1444 574.766 96.2957L574.632 96.4001L574.567 96.1692L574.658 96.1152C575.499 95.3915 575.886 94.2776 575.855 93.2425ZM570.769 96.456L570.917 96.5392L570.921 96.5861L570.913 97.1054C570.812 97.0187 570.668 96.9825 570.567 96.8958C570.318 96.7259 570.066 96.5092 569.857 96.242C569.648 95.9748 569.486 95.7041 569.422 95.4732C569.31 95.2458 569.293 95.0114 569.278 94.8238C569.264 94.6362 569.257 94.5424 569.257 94.5424C569.239 94.308 569.222 94.0735 569.251 93.8355L569.258 93.9293C569.279 94.2107 569.347 94.4885 569.412 94.7194C569.592 95.2246 569.861 95.6758 570.222 96.073C570.369 96.1562 570.571 96.3295 570.769 96.456ZM573.807 90.4734C573.663 90.4371 573.566 90.3973 573.421 90.361L573.039 90.2956C572.899 90.3062 572.805 90.3133 572.661 90.277C572.145 90.316 571.679 90.3983 571.178 90.6248C570.857 90.7433 570.543 90.9557 570.275 91.1645C570.405 91.0132 570.539 90.9088 570.673 90.8044C571.073 90.4912 571.575 90.2647 572.138 90.2222C572.7 90.1797 573.27 90.231 573.757 90.43C573.76 90.4769 573.807 90.4734 573.807 90.4734ZM573.519 87.2883C573.619 87.9882 573.712 88.5942 573.813 88.6809C573.619 88.6013 573.525 88.6084 573.525 88.6084C573.525 88.6084 571.639 88.6093 570.838 88.6227C570.867 88.3847 570.936 88.0494 570.998 87.6203C571.18 86.2861 571.316 84.3423 571.316 84.3423L571.322 83.163L571.298 82.2216L571.293 80.2885C572.047 80.2787 573.133 80.291 573.133 80.291C573.133 80.291 573.179 80.2875 573.27 80.2335L573.274 82.1667L573.277 82.8267L573.304 83.8149C573.261 83.8653 573.483 87.4326 573.519 87.2883ZM573.528 71.1597L573.514 72.8584L573.495 73.8502C573.495 73.8502 573.562 74.7411 573.583 75.6356C573.65 76.5265 573.714 77.3705 573.707 77.2768C573.731 77.605 573.799 77.8828 573.817 78.1172C573.77 78.1208 573.72 78.0774 573.72 78.0774C573.72 78.0774 572.963 78.0403 572.158 78.0067C571.78 77.9882 571.354 77.9731 571.073 77.9944C570.979 78.0015 570.885 78.0085 570.791 78.0156C570.828 77.8714 570.817 77.7307 570.85 77.5396C571.032 76.2055 571.168 74.2617 571.168 74.2617L571.173 73.0823L571.176 71.243L571.171 69.3099C571.406 69.2921 571.644 69.3213 571.878 69.3036C572.398 69.3116 572.917 69.3195 573.436 69.3275C573.436 69.3275 573.436 69.3275 573.483 69.3239L573.528 71.1597ZM574.646 78.479C574.498 78.3959 574.401 78.3561 574.304 78.3163C574.333 78.0783 574.406 77.7899 574.421 77.3643C574.472 76.7945 574.566 76.1743 574.614 75.5577L574.646 78.479ZM580.223 96.1194C580.411 95.4921 580.488 94.6375 580.488 94.6375C580.488 94.6375 580.349 90.9225 580.297 89.606C581.523 89.6077 583.878 89.5713 583.878 89.5713C583.878 89.5713 584.484 89.4784 584.856 89.4032C584.819 89.5474 584.837 89.7819 584.808 90.0199C584.803 90.5861 584.763 91.2965 584.816 91.9999C584.822 92.7068 584.875 93.4102 584.914 93.9259C584.953 94.4417 584.978 94.77 584.978 94.77C584.978 94.77 585.057 95.1884 585.135 95.6069C585.214 96.0254 585.289 96.397 585.286 96.3501C585.343 96.4872 585.354 96.6279 585.408 96.7181C585.358 96.6748 585.26 96.635 585.116 96.5987C584.629 96.3997 583.959 96.2617 583.959 96.2617C583.959 96.2617 581.178 96.283 580.093 96.2707C580.186 96.2636 580.23 96.2132 580.223 96.1194ZM580.421 101.245C580.421 101.245 580.411 100.491 580.445 99.6866C580.463 99.308 580.482 98.9293 580.508 98.6444C580.501 98.5506 580.497 98.5038 580.54 98.4533L580.587 98.4498C580.966 98.4683 581.438 98.4798 581.954 98.4408C582.946 98.4603 583.938 98.4797 583.938 98.4797C583.938 98.4797 584.731 98.3726 585.009 98.3045C584.969 98.4018 584.976 98.4956 584.976 98.4956C584.976 98.4956 584.995 100.616 585.015 101.511C584.727 101.438 584.442 101.413 584.442 101.413C584.442 101.413 581.708 101.43 580.435 101.432C580.428 101.338 580.421 101.245 580.421 101.245ZM585.721 105.23C585.591 105.381 585.367 105.54 585.042 105.611C584.905 105.669 584.674 105.734 584.627 105.737C584.533 105.744 584.44 105.751 584.349 105.805C584.162 105.819 583.978 105.88 583.79 105.895C583.79 105.895 583.603 105.909 583.278 105.98C582.95 106.005 582.528 106.037 582.106 106.069C581.258 106.086 580.367 106.153 580.461 106.146C579.758 106.199 579.206 106.382 579.076 106.534L579.072 106.487C579.011 106.303 578.809 106.129 578.662 106.046C578.611 106.003 578.611 106.003 578.564 106.006C578.189 106.035 577.861 106.059 577.579 106.081C577.439 106.091 577.295 106.055 577.295 106.055C577.244 106.012 577.147 105.972 577.093 105.882C576.787 105.575 576.636 104.832 576.835 104.345C576.872 104.201 576.958 104.1 576.998 104.002C577.041 103.952 577.128 103.851 577.265 103.794C577.489 103.635 577.814 103.564 578.142 103.539C578.842 103.439 579.599 103.476 580.443 103.412C581.24 103.352 581.994 103.342 582.791 103.282C583.166 103.254 583.545 103.272 583.924 103.291C584.302 103.309 584.681 103.328 584.97 103.401C585.258 103.473 585.406 103.556 585.564 103.78C585.618 103.87 585.676 104.007 585.733 104.145C585.791 104.282 585.805 104.469 585.862 104.606C585.884 104.888 585.851 105.079 585.721 105.23ZM585.237 97.5799L585.194 97.6303C585.147 97.6338 585.097 97.5905 585.097 97.5905C584.952 97.5542 584.805 97.4711 584.707 97.4313C584.985 97.3631 585.263 97.295 585.263 97.295C585.357 97.2879 585.4 97.2375 585.494 97.2304C585.357 97.2879 585.317 97.3852 585.237 97.5799ZM594.855 103.173C595.234 103.191 595.562 103.166 595.847 103.192C596.132 103.218 596.283 103.348 596.438 103.525C596.593 103.702 596.708 103.976 596.773 104.207C596.855 104.672 596.649 105.065 596.097 105.248C595.96 105.306 595.776 105.367 595.682 105.374L595.404 105.442C595.22 105.503 595.033 105.517 594.845 105.531C594.845 105.531 594.661 105.592 594.333 105.617C594.004 105.642 593.582 105.674 593.16 105.706C592.313 105.723 591.422 105.79 591.519 105.83C590.819 105.93 590.267 106.113 590.137 106.264C590.123 106.077 589.968 105.9 589.821 105.816C589.77 105.773 589.77 105.773 589.723 105.777C589.392 105.755 589.056 105.686 588.721 105.617C588.432 105.544 588.144 105.472 587.946 105.345C587.748 105.219 587.694 105.128 587.68 104.941C587.665 104.753 587.781 104.414 587.857 104.173C587.94 104.025 588.117 103.87 588.388 103.708C588.662 103.593 588.984 103.475 589.308 103.403C589.958 103.26 590.657 103.16 591.411 103.15C592.115 103.097 592.872 103.134 593.579 103.128C594.102 103.182 594.48 103.201 594.855 103.173ZM589.133 99.8322C589.101 99.4102 589.12 99.0315 589.098 98.7502C589.145 98.7467 589.145 98.7467 589.192 98.7431C589.52 98.7183 589.942 98.6864 590.368 98.7015C590.793 98.7165 591.266 98.728 591.598 98.7501C591.929 98.7722 592.164 98.7545 592.164 98.7545C592.164 98.7545 592.442 98.6863 592.723 98.6651C593.001 98.5969 593.282 98.5757 593.232 98.5323L593.279 98.5288C593.282 98.5757 593.286 98.6226 593.289 98.6695C593.311 98.9508 593.339 99.3259 593.411 99.6506C593.486 100.022 593.511 100.35 593.575 100.581C593.64 100.812 593.654 101 593.654 101C593.654 101 593.762 101.18 593.823 101.364C593.931 101.545 593.992 101.729 593.992 101.729C593.992 101.729 593.995 101.776 594.042 101.772C593.556 101.573 592.885 101.435 592.885 101.435C592.885 101.435 590.245 101.446 589.163 101.48C589.156 101.387 589.192 101.242 589.178 101.055C589.103 100.683 589.118 100.258 589.133 99.8322ZM588.124 88.9678C587.939 89.6419 587.819 90.547 587.819 90.547C587.819 90.547 587.876 96.296 587.883 96.3898L587.933 96.4331C588.081 96.5163 588.225 96.5526 588.369 96.5888C588.38 96.7295 588.39 96.8702 588.398 96.9639C588.307 97.0179 588.267 97.1152 588.184 97.263C587.975 97.6089 587.83 98.1858 587.83 98.1858C587.83 98.1858 587.844 98.3733 587.822 98.7051C587.843 98.9865 587.828 99.412 587.86 99.834C587.888 100.209 587.873 100.635 587.847 100.92C587.822 101.204 587.789 101.396 587.789 101.396L587.839 101.439C588.085 101.562 588.276 101.595 588.467 101.627C588.351 101.966 588.372 102.248 588.433 102.432C588.296 102.489 588.159 102.547 588.022 102.604C587.614 102.824 587.163 103.093 586.917 103.584C586.917 103.584 586.92 103.63 586.873 103.634C586.816 103.497 586.805 103.356 586.704 103.269C586.593 103.042 586.431 102.771 586.182 102.602C586.082 102.515 585.93 102.385 585.786 102.349C586.06 102.234 586.19 102.082 586.039 101.952L586.086 101.949C586.133 101.945 586.133 101.945 586.133 101.945C586.129 101.898 586.116 98.5981 586.116 98.5981C586.116 98.5981 585.897 97.5772 585.854 97.6276C585.742 97.4002 585.635 97.2197 585.494 97.2304C585.584 97.1764 585.674 97.1224 585.667 97.0287C585.765 97.0685 585.891 96.8703 585.993 96.3439C586.131 95.6732 586.204 94.7717 586.204 94.7717C586.204 94.7717 586.179 94.4434 586.137 93.8808C586.098 93.365 586.045 92.6616 586.042 92.0016C586.036 91.2947 586.033 90.6347 586.041 90.1154C586.049 89.596 586.118 89.2607 586.118 89.2607L586.068 89.2174C585.916 89.0873 585.722 89.0077 585.581 89.0183C585.574 88.9245 585.423 88.7945 585.087 88.7255C584.99 88.6857 584.893 88.6459 584.749 88.6096C585.221 88.6211 585.647 88.6361 586.119 88.6476L588.196 88.6794C588.243 88.6758 588.157 88.7767 588.124 88.9678ZM598.932 76.5979C598.964 77.0199 598.989 77.3481 598.985 77.3012C599.038 78.0046 599.131 78.6106 599.279 78.6938C599.329 78.7371 599.329 78.7371 599.373 78.6867C599.376 78.7336 599.38 78.7805 599.383 78.8273C599.383 78.8273 599.383 78.8273 599.336 78.8309L599.293 78.8813C599.257 79.0255 599.22 79.1697 599.231 79.3104C599.094 79.3679 599.004 79.4219 598.917 79.5228L598.932 76.5979ZM599.619 96.3052L599.763 96.3414L599.773 96.4821L599.762 96.9546C599.661 96.8679 599.51 96.7378 599.405 96.6042C599.2 96.3839 598.991 96.1168 598.779 95.8027C598.779 95.8027 598.779 95.8027 598.775 95.7558C598.88 95.8894 599.028 95.9725 599.175 96.0557C599.276 96.1424 599.373 96.1822 599.471 96.222C599.521 96.2654 599.572 96.3087 599.619 96.3052ZM602.577 90.5171C602.479 90.4773 602.335 90.4411 602.238 90.4012C602.141 90.3614 602 90.3721 601.903 90.3322C601.427 90.2739 600.961 90.3562 600.55 90.5287C600.138 90.7013 599.731 90.9207 599.424 91.2268C598.759 91.7957 598.3 92.5849 598.129 93.4467C598.129 93.4467 598.129 93.4467 598.126 93.3998C598.119 93.306 598.112 93.2122 598.105 93.1185L598.094 92.9778L598.09 92.9309L598.123 92.7398C598.218 92.1196 598.457 91.5357 598.847 91.0818C599.067 90.8765 599.287 90.6712 599.558 90.5093C599.829 90.3474 600.103 90.2324 600.428 90.1607C601.03 90.0209 601.687 89.9713 602.267 90.1633C602.844 90.3083 603.392 90.6914 603.759 91.1824C603.964 91.4027 604.13 91.7203 604.245 91.9946C604.241 91.9477 604.191 91.9043 604.187 91.8574C603.968 91.4496 603.615 91.1461 603.265 90.8896C603.017 90.7197 602.818 90.5932 602.577 90.5171ZM604.403 94.7177C604.211 95.2981 603.825 95.7989 603.334 96.1661C603.243 96.2201 603.29 96.2165 603.243 96.2201L603.236 96.1263L603.229 96.0325C603.226 95.9856 603.218 95.8918 603.215 95.845C603.208 95.7512 603.248 95.6538 603.244 95.607C603.284 95.5096 603.287 95.5565 603.374 95.4557C603.464 95.4017 603.692 95.2902 603.916 95.1318C604.139 94.9734 604.356 94.7213 604.479 94.4762C604.519 94.3789 604.559 94.2816 604.555 94.2347C604.476 94.4293 604.439 94.5735 604.403 94.7177Z" fill="#F4774C"/>
</g>
<g filter="url(#filter2_d_1065_7595)">
<path fill-rule="evenodd" clip-rule="evenodd" d="M482 132C486.971 132 491 136.029 491 141V169C491 173.971 486.971 178 482 178H225C222.357 178 219.979 176.86 218.333 175.046C214.572 176.306 210.045 176.917 205 175.999C207.249 175.035 215.695 169.424 216 158.269V157.02C216 157.013 216 157.006 215.999 157C216 157 216 157 216 157V141C216 136.029 220.029 132 225 132H482Z" fill="#D6D6D6"/>
</g>
<path fill-rule="evenodd" clip-rule="evenodd" d="M468 148C468 146.895 467.105 146 466 146H409C407.895 146 407 146.895 407 148C407 149.105 407.895 150 409 150H466C467.105 150 468 149.105 468 148ZM468 162C468 160.895 467.105 160 466 160H284C282.895 160 282 160.895 282 162C282 163.105 282.895 164 284 164H466C467.105 164 468 163.105 468 162ZM395 146C396.105 146 397 146.895 397 148C397 149.105 396.105 150 395 150H284C282.895 150 282 149.105 282 148C282 146.895 282.895 146 284 146H395Z" fill="white"/>
<circle r="13.5" transform="matrix(-1 0 0 1 252.5 154.5)" fill="#F4774C"/>
<g filter="url(#filter3_d_1065_7595)">
<path fill-rule="evenodd" clip-rule="evenodd" d="M305 198C300.029 198 296 202.029 296 207V235C296 239.971 300.029 244 305 244H562C564.643 244 567.021 242.86 568.667 241.046C572.428 242.306 576.955 242.917 582 241.999C579.751 241.035 571.305 235.424 571 224.269V223.02C571 223.013 571 223.006 571.001 223C571 223 571 223 571 223V207C571 202.029 566.971 198 562 198H305Z" fill="white"/>
</g>
<path fill-rule="evenodd" clip-rule="evenodd" d="M321 218C319.895 218 319 218.895 319 220C319 221.105 319.895 222 321 222H346C347.105 222 348 221.105 348 220C348 218.895 347.105 218 346 218H321ZM367 218C365.895 218 365 218.895 365 220C365 221.105 365.895 222 367 222H503C504.105 222 505 221.105 505 220C505 218.895 504.105 218 503 218H367Z" fill="#E6E6E6"/>
<circle cx="534.5" cy="220.5" r="13.5" fill="#F4774C"/>
<defs>
<filter id="filter0_d_1065_7595" x="11" y="60" width="480" height="304" filterUnits="userSpaceOnUse" color-interpolation-filters="sRGB">
<feFlood flood-opacity="0" result="BackgroundImageFix"/>
<feColorMatrix in="SourceAlpha" type="matrix" values="0 0 0 0 0 0 0 0 0 0 0 0 0 0 0 0 0 0 127 0" result="hardAlpha"/>
<feOffset/>
<feGaussianBlur stdDeviation="12.5"/>
<feComposite in2="hardAlpha" operator="out"/>
<feColorMatrix type="matrix" values="0 0 0 0 0 0 0 0 0 0 0 0 0 0 0 0 0 0 0.15 0"/>
<feBlend mode="normal" in2="BackgroundImageFix" result="effect1_dropShadow_1065_7595"/>
<feBlend mode="normal" in="SourceGraphic" in2="effect1_dropShadow_1065_7595" result="shape"/>
</filter>
<filter id="filter1_d_1065_7595" x="238" y="41" width="377" height="96" filterUnits="userSpaceOnUse" color-interpolation-filters="sRGB">
<feFlood flood-opacity="0" result="BackgroundImageFix"/>
<feColorMatrix in="SourceAlpha" type="matrix" values="0 0 0 0 0 0 0 0 0 0 0 0 0 0 0 0 0 0 127 0" result="hardAlpha"/>
<feOffset/>
<feGaussianBlur stdDeviation="12.5"/>
<feComposite in2="hardAlpha" operator="out"/>
<feColorMatrix type="matrix" values="0 0 0 0 0 0 0 0 0 0 0 0 0 0 0 0 0 0 0.15 0"/>
<feBlend mode="normal" in2="BackgroundImageFix" result="effect1_dropShadow_1065_7595"/>
<feBlend mode="normal" in="SourceGraphic" in2="effect1_dropShadow_1065_7595" result="shape"/>
</filter>
<filter id="filter2_d_1065_7595" x="180" y="107" width="336" height="96" filterUnits="userSpaceOnUse" color-interpolation-filters="sRGB">
<feFlood flood-opacity="0" result="BackgroundImageFix"/>
<feColorMatrix in="SourceAlpha" type="matrix" values="0 0 0 0 0 0 0 0 0 0 0 0 0 0 0 0 0 0 127 0" result="hardAlpha"/>
<feOffset/>
<feGaussianBlur stdDeviation="12.5"/>
<feComposite in2="hardAlpha" operator="out"/>
<feColorMatrix type="matrix" values="0 0 0 0 0 0 0 0 0 0 0 0 0 0 0 0 0 0 0.15 0"/>
<feBlend mode="normal" in2="BackgroundImageFix" result="effect1_dropShadow_1065_7595"/>
<feBlend mode="normal" in="SourceGraphic" in2="effect1_dropShadow_1065_7595" result="shape"/>
</filter>
<filter id="filter3_d_1065_7595" x="271" y="173" width="336" height="96" filterUnits="userSpaceOnUse" color-interpolation-filters="sRGB">
<feFlood flood-opacity="0" result="BackgroundImageFix"/>
<feColorMatrix in="SourceAlpha" type="matrix" values="0 0 0 0 0 0 0 0 0 0 0 0 0 0 0 0 0 0 127 0" result="hardAlpha"/>
<feOffset/>
<feGaussianBlur stdDeviation="12.5"/>
<feComposite in2="hardAlpha" operator="out"/>
<feColorMatrix type="matrix" values="0 0 0 0 0 0 0 0 0 0 0 0 0 0 0 0 0 0 0.15 0"/>
<feBlend mode="normal" in2="BackgroundImageFix" result="effect1_dropShadow_1065_7595"/>
<feBlend mode="normal" in="SourceGraphic" in2="effect1_dropShadow_1065_7595" result="shape"/>
</filter>
</defs>
</svg>
