<svg width="495" height="300" viewBox="0 0 495 300" fill="none" xmlns="http://www.w3.org/2000/svg">
<path d="M15 0H495V300H15V0Z" fill="#F5F5F5"/>
<g filter="url(#filter0_d_1065_8453)">
<path d="M464.433 27H132.567C133.702 27 131 29.7031 131 28.5704V224.866C131 225.733 131.702 226.436 132.567 226.436H466.433C467.298 226.436 468 225.733 468 224.866V30.5704C468 29.7031 465.298 27 464.433 27Z" fill="white"/>
</g>
<path d="M131 30.1407C131 28.4062 132.404 27 134.135 27H464.865C466.596 27 468 28.4062 468 30.1407V53.6962H131V30.1407Z" fill="#3C3A3E"/>
<path d="M131 53.6963H214.074V226.436H134.135C132.404 226.436 131 225.03 131 223.295V53.6963Z" fill="#EDEDED"/>
<path d="M214.074 202.096V53.6963H212.507V202.096H214.074Z" fill="#CBCBCB"/>
<path d="M199.966 69.3994H140.403C139.538 69.3994 138.836 70.1025 138.836 70.9698C138.836 71.8371 139.538 72.5401 140.403 72.5401H199.966C200.832 72.5401 201.534 71.8371 201.534 70.9698C201.534 70.1025 200.832 69.3994 199.966 69.3994Z" fill="#CBCBCB"/>
<path d="M199.966 130.644H140.403C139.538 130.644 138.836 131.347 138.836 132.214C138.836 133.081 139.538 133.784 140.403 133.784H199.966C200.832 133.784 201.534 133.081 201.534 132.214C201.534 131.347 200.832 130.644 199.966 130.644Z" fill="#CBCBCB"/>
<path d="M184.292 80.3926H140.403C139.538 80.3926 138.836 81.0957 138.836 81.9629C138.836 82.8302 139.538 83.5333 140.403 83.5333H184.292C185.157 83.5333 185.859 82.8302 185.859 81.9629C185.859 81.0957 185.157 80.3926 184.292 80.3926Z" fill="#CBCBCB"/>
<path d="M184.292 141.637H140.403C139.538 141.637 138.836 142.34 138.836 143.207C138.836 144.074 139.538 144.777 140.403 144.777H184.292C185.157 144.777 185.859 144.074 185.859 143.207C185.859 142.34 185.157 141.637 184.292 141.637Z" fill="#CBCBCB"/>
<path d="M191.345 91.3848H140.403C139.538 91.3848 138.836 92.0878 138.836 92.9551C138.836 93.8224 139.538 94.5255 140.403 94.5255H191.345C192.211 94.5255 192.913 93.8224 192.913 92.9551C192.913 92.0878 192.211 91.3848 191.345 91.3848Z" fill="#CBCBCB"/>
<path d="M191.345 152.629H140.403C139.538 152.629 138.836 153.332 138.836 154.199C138.836 155.067 139.538 155.77 140.403 155.77H191.345C192.211 155.77 192.913 155.067 192.913 154.199C192.913 153.332 192.211 152.629 191.345 152.629Z" fill="#CBCBCB"/>
<path d="M174.103 102.377H140.403C139.538 102.377 138.836 103.08 138.836 103.947C138.836 104.815 139.538 105.518 140.403 105.518H174.103C174.969 105.518 175.671 104.815 175.671 103.947C175.671 103.08 174.969 102.377 174.103 102.377Z" fill="#CBCBCB"/>
<path d="M174.103 163.621H140.403C139.538 163.621 138.836 164.324 138.836 165.191C138.836 166.059 139.538 166.762 140.403 166.762H174.103C174.969 166.762 175.671 166.059 175.671 165.191C175.671 164.324 174.969 163.621 174.103 163.621Z" fill="#CBCBCB"/>
<path d="M184.292 191.888H140.403C139.538 191.888 138.836 192.591 138.836 193.458C138.836 194.325 139.538 195.028 140.403 195.028H184.292C185.157 195.028 185.859 194.325 185.859 193.458C185.859 192.591 185.157 191.888 184.292 191.888Z" fill="#CBCBCB"/>
<path fill-rule="evenodd" clip-rule="evenodd" d="M181.423 37.7264C182.313 37.8901 183.116 38.3878 183.68 39.126C184.243 39.8642 184.53 40.792 184.485 41.7351C184.44 42.6782 184.067 43.5718 183.436 44.2478C182.804 44.9238 181.959 45.3359 181.057 45.4065C180.156 45.4772 179.261 45.2015 178.54 44.6314C177.819 44.0612 177.323 43.2358 177.144 42.3102C176.965 41.3846 177.115 40.4226 177.567 39.6049C178.019 38.7871 178.742 38.17 179.599 37.8693C180.186 37.6637 180.813 37.6146 181.423 37.7264ZM159.293 43.2496C159.293 44.698 158.357 45.421 156.484 45.4189H151.947V37.6882H156.204C157.214 37.6882 157.922 37.8121 158.333 38.0535C158.632 38.2158 158.882 38.4638 159.052 38.7687C159.222 39.0734 159.306 39.4224 159.293 39.7749C159.299 40.1389 159.204 40.4968 159.021 40.8064C158.838 41.1159 158.574 41.3642 158.26 41.5218C158.581 41.6624 158.853 41.9025 159.039 42.2099C159.226 42.5171 159.318 42.8766 159.302 43.2401L159.293 43.2496ZM157.201 40.0037C157.201 39.5177 156.876 39.2731 156.222 39.2731H153.902V40.7564H156.222C156.876 40.7564 157.201 40.5055 157.201 40.0037ZM157.201 43.0813C157.201 42.5763 156.879 42.3254 156.235 42.3254H153.902V43.8372H156.25C156.894 43.8372 157.217 43.5831 157.217 43.0813H157.201ZM176.199 45.4189H174.253V42.3539H171.444V45.4189H169.492V37.6882H171.444V40.6516H174.253V37.6882H176.199V45.4189ZM192.904 45.4189H190.277L187.285 41.6679V45.4189H185.333V37.6882H187.285V41.4011L190.432 37.6882H192.923L189.484 41.471L192.923 45.4189H192.904ZM181.32 39.4986C181.053 39.4109 180.772 39.3814 180.494 39.412C180.216 39.4427 179.947 39.5328 179.703 39.6767C179.46 39.8207 179.248 40.0154 179.08 40.2488C178.912 40.4822 178.791 40.7491 178.726 41.0332C178.661 41.3173 178.653 41.6123 178.702 41.8998C178.75 42.1874 178.855 42.4614 179.01 42.7048C179.164 42.9481 179.365 43.1556 179.6 43.3144C179.835 43.4731 180.098 43.5798 180.374 43.6276C180.676 43.691 180.988 43.6833 181.286 43.6054C181.722 43.4905 182.109 43.2285 182.387 42.8602C182.665 42.4917 182.819 42.0376 182.825 41.5684C182.83 41.0992 182.687 40.6412 182.418 40.2658C182.148 39.8903 181.768 39.6184 181.335 39.4923L181.32 39.4986ZM165.289 39.3812C165.751 39.616 166.123 40.0076 166.345 40.4918C166.566 40.976 166.624 41.5243 166.508 42.0472C166.393 42.5701 166.111 43.0367 165.709 43.3708C165.308 43.7049 164.809 43.8869 164.295 43.8869C163.782 43.8869 163.283 43.7049 162.881 43.3708C162.479 43.0367 162.197 42.5701 162.082 42.0472C161.967 41.5243 162.024 40.976 162.246 40.4918C162.467 40.0076 162.839 39.616 163.301 39.3812V37.3135C162.318 37.5672 161.458 38.1879 160.883 39.0585C160.309 39.9292 160.059 40.9895 160.181 42.0392C160.304 43.089 160.79 44.0558 161.547 44.7568C162.305 45.458 163.283 45.8452 164.295 45.8452C165.308 45.8452 166.285 45.458 167.043 44.7568C167.801 44.0558 168.287 43.089 168.409 42.0392C168.532 40.9895 168.282 39.9292 167.707 39.0585C167.132 38.1879 166.272 37.5672 165.289 37.3135V39.3812Z" fill="white"/>
<path fill-rule="evenodd" clip-rule="evenodd" d="M150.824 42.4743C150.824 44.4265 149.694 45.4037 147.433 45.4058H142.754C142.754 43.4493 145.883 43.5383 147.032 43.5383C147.967 43.5383 148.433 43.1147 148.431 42.2678C148.431 41.4166 147.966 40.9973 147.032 40.9973H144.393V39.1489H147.011C147.944 39.1489 148.406 38.7392 148.406 37.926C148.406 37.113 147.938 36.7191 147.011 36.7191C145.679 36.7191 142.754 37.0749 142.754 34.8516H147.062C148.303 34.8516 149.168 35.0114 149.656 35.3312C150.023 35.5686 150.323 35.9045 150.523 36.3039C150.724 36.7033 150.818 37.1516 150.796 37.6021C150.815 38.1358 150.68 38.6632 150.409 39.1162C150.138 39.5691 149.744 39.9267 149.276 40.143C150.304 40.6003 150.817 41.3838 150.815 42.4933L150.824 42.4743Z" fill="white"/>
<path fill-rule="evenodd" clip-rule="evenodd" d="M164.586 42.8237C164.247 42.8955 163.894 42.8246 163.605 42.6263C163.316 42.4281 163.113 42.1185 163.041 41.7648C162.968 41.4112 163.033 41.0421 163.22 40.7378C163.407 40.4335 163.701 40.2186 164.039 40.1398V37.1797H164.647V40.1398C164.801 40.1772 164.948 40.2439 165.079 40.3367C165.295 40.4888 165.463 40.7048 165.562 40.9569C165.66 41.2091 165.685 41.4862 165.632 41.7528C165.579 42.0195 165.451 42.2637 165.265 42.4545C165.079 42.6452 164.843 42.7736 164.586 42.8237Z" fill="white"/>
<path d="M214.074 118.277H131" stroke="#CBCBCB" stroke-width="0.5"/>
<path d="M214.074 179.521H131" stroke="#CBCBCB" stroke-width="0.5"/>
<path d="M214.074 207.788H131" stroke="#CBCBCB" stroke-width="0.5"/>
<path d="M289.312 99.2363H239.153C238.288 99.2363 237.586 99.9394 237.586 100.807C237.586 101.674 238.288 102.377 239.153 102.377H289.312C290.177 102.377 290.879 101.674 290.879 100.807C290.879 99.9394 290.177 99.2363 289.312 99.2363Z" fill="#E6E6E6"/>
<path d="M289.312 118.081H239.153C238.288 118.081 237.586 118.784 237.586 119.651C237.586 120.519 238.288 121.222 239.153 121.222H289.312C290.177 121.222 290.879 120.519 290.879 119.651C290.879 118.784 290.177 118.081 289.312 118.081Z" fill="#E6E6E6"/>
<path d="M289.312 136.926H239.153C238.288 136.926 237.586 137.629 237.586 138.496C237.586 139.363 238.288 140.067 239.153 140.067H289.312C290.177 140.067 290.879 139.363 290.879 138.496C290.879 137.629 290.177 136.926 289.312 136.926Z" fill="#E6E6E6"/>
<path d="M289.312 155.77H239.153C238.288 155.77 237.586 156.473 237.586 157.34C237.586 158.207 238.288 158.91 239.153 158.91H289.312C290.177 158.91 290.879 158.207 290.879 157.34C290.879 156.473 290.177 155.77 289.312 155.77Z" fill="#E6E6E6"/>
<path d="M289.312 174.614H239.153C238.288 174.614 237.586 175.317 237.586 176.185C237.586 177.052 238.288 177.755 239.153 177.755H289.312C290.177 177.755 290.879 177.052 290.879 176.185C290.879 175.317 290.177 174.614 289.312 174.614Z" fill="#E6E6E6"/>
<path d="M348.875 99.2363H326.148C325.282 99.2363 324.58 99.9394 324.58 100.807C324.58 101.674 325.282 102.377 326.148 102.377H348.875C349.741 102.377 350.443 101.674 350.443 100.807C350.443 99.9394 349.741 99.2363 348.875 99.2363Z" fill="#E6E6E6"/>
<path d="M348.875 118.081H326.148C325.282 118.081 324.58 118.784 324.58 119.651C324.58 120.519 325.282 121.222 326.148 121.222H348.875C349.741 121.222 350.443 120.519 350.443 119.651C350.443 118.784 349.741 118.081 348.875 118.081Z" fill="#E6E6E6"/>
<path d="M348.875 136.926H326.148C325.282 136.926 324.58 137.629 324.58 138.496C324.58 139.363 325.282 140.067 326.148 140.067H348.875C349.741 140.067 350.443 139.363 350.443 138.496C350.443 137.629 349.741 136.926 348.875 136.926Z" fill="#E6E6E6"/>
<path d="M348.875 155.77H326.148C325.282 155.77 324.58 156.473 324.58 157.34C324.58 158.207 325.282 158.91 326.148 158.91H348.875C349.741 158.91 350.443 158.207 350.443 157.34C350.443 156.473 349.741 155.77 348.875 155.77Z" fill="#E6E6E6"/>
<path d="M348.875 174.614H326.148C325.282 174.614 324.58 175.317 324.58 176.185C324.58 177.052 325.282 177.755 326.148 177.755H348.875C349.741 177.755 350.443 177.052 350.443 176.185C350.443 175.317 349.741 174.614 348.875 174.614Z" fill="#E6E6E6"/>
<path d="M442.922 99.2363H361.415C360.549 99.2363 359.848 99.9394 359.848 100.807C359.848 101.674 360.549 102.377 361.415 102.377H442.922C443.788 102.377 444.49 101.674 444.49 100.807C444.49 99.9394 443.788 99.2363 442.922 99.2363Z" fill="#E6E6E6"/>
<path d="M442.922 118.081H361.415C360.549 118.081 359.848 118.784 359.848 119.651C359.848 120.519 360.549 121.222 361.415 121.222H442.922C443.788 121.222 444.49 120.519 444.49 119.651C444.49 118.784 443.788 118.081 442.922 118.081Z" fill="#E6E6E6"/>
<path d="M442.922 136.926H361.415C360.549 136.926 359.848 137.629 359.848 138.496C359.848 139.363 360.549 140.067 361.415 140.067H442.922C443.788 140.067 444.49 139.363 444.49 138.496C444.49 137.629 443.788 136.926 442.922 136.926Z" fill="#E6E6E6"/>
<path d="M442.922 155.77H361.415C360.549 155.77 359.848 156.473 359.848 157.34C359.848 158.207 360.549 158.91 361.415 158.91H442.922C443.788 158.91 444.49 158.207 444.49 157.34C444.49 156.473 443.788 155.77 442.922 155.77Z" fill="#E6E6E6"/>
<path d="M442.922 174.614H361.415C360.549 174.614 359.848 175.317 359.848 176.185C359.848 177.052 360.549 177.755 361.415 177.755H442.922C443.788 177.755 444.49 177.052 444.49 176.185C444.49 175.317 443.788 174.614 442.922 174.614Z" fill="#E6E6E6"/>
<path d="M238.26 76.4668V69.6143H240.878C241.372 69.6143 241.783 69.6924 242.11 69.8485C242.44 70.0024 242.686 70.2132 242.848 70.4809C243.013 70.7485 243.095 71.0519 243.095 71.391C243.095 71.6698 243.042 71.9085 242.935 72.107C242.828 72.3033 242.685 72.4628 242.504 72.5855C242.324 72.7082 242.123 72.7963 241.9 72.8498V72.9167C242.142 72.9301 242.375 73.0048 242.598 73.1409C242.823 73.2748 243.007 73.4643 243.149 73.7097C243.291 73.9551 243.363 74.2518 243.363 74.5998C243.363 74.9544 243.277 75.2734 243.106 75.5567C242.934 75.8378 242.676 76.0597 242.33 76.2225C241.986 76.3854 241.551 76.4668 241.028 76.4668H238.26ZM239.499 75.4296H240.831C241.281 75.4296 241.605 75.3436 241.803 75.1719C242.004 74.9979 242.104 74.7749 242.104 74.5027C242.104 74.2997 242.054 74.1168 241.953 73.954C241.853 73.7889 241.71 73.6595 241.526 73.5658C241.341 73.4699 241.12 73.422 240.865 73.422H239.499V75.4296ZM239.499 72.5286H240.725C240.938 72.5286 241.131 72.4896 241.302 72.4115C241.474 72.3312 241.609 72.2185 241.707 72.0735C241.806 71.9263 241.856 71.7523 241.856 71.5516C241.856 71.2861 241.763 71.0676 241.576 70.8958C241.392 70.724 241.116 70.6381 240.751 70.6381H239.499V72.5286ZM245.376 71.3274L246.411 73.2245L247.463 71.3274H248.742L247.196 73.8971L248.769 76.4668H247.497L246.411 74.6165L245.336 76.4668H244.053L245.617 73.8971L244.093 71.3274H245.376ZM251.722 76.5671C251.221 76.5671 250.787 76.4567 250.419 76.2359C250.052 76.0151 249.767 75.7061 249.565 75.3091C249.364 74.912 249.264 74.4481 249.264 73.9171C249.264 73.3863 249.364 72.9212 249.565 72.5219C249.767 72.1226 250.052 71.8125 250.419 71.5917C250.787 71.3709 251.221 71.2605 251.722 71.2605C252.223 71.2605 252.658 71.3709 253.024 71.5917C253.392 71.8125 253.676 72.1226 253.876 72.5219C254.078 72.9212 254.18 73.3863 254.18 73.9171C254.18 74.4481 254.078 74.912 253.876 75.3091C253.676 75.7061 253.392 76.0151 253.024 76.2359C252.658 76.4567 252.223 76.5671 251.722 76.5671ZM251.729 75.5968C252 75.5968 252.227 75.5221 252.41 75.3726C252.592 75.221 252.728 75.018 252.817 74.7637C252.909 74.5094 252.955 74.2261 252.955 73.9138C252.955 73.5993 252.909 73.3149 252.817 73.0606C252.728 72.8041 252.592 72.6 252.41 72.4483C252.227 72.2966 252 72.2207 251.729 72.2207C251.451 72.2207 251.219 72.2966 251.034 72.4483C250.852 72.6 250.715 72.8041 250.623 73.0606C250.534 73.3149 250.49 73.5993 250.49 73.9138C250.49 74.2261 250.534 74.5094 250.623 74.7637C250.715 75.018 250.852 75.221 251.034 75.3726C251.219 75.5221 251.451 75.5968 251.729 75.5968ZM254.752 77.9591V75.4697H255.159C255.269 75.385 255.36 75.2701 255.433 75.1251C255.507 74.9778 255.567 74.8049 255.614 74.6064C255.662 74.4057 255.703 74.1815 255.734 73.9339C255.765 73.6841 255.793 73.4152 255.817 73.1276L255.964 71.3274H259.671V75.4697H260.467V77.9591H259.297V76.4668H255.941V77.9591H254.752ZM256.402 75.4697H258.516V72.3044H257.013L256.933 73.1276C256.888 73.6718 256.829 74.138 256.756 74.5261C256.683 74.9142 256.564 75.2288 256.402 75.4697ZM264.402 76.4668V72.3111H263.306C263.028 72.3111 262.814 72.3758 262.665 72.5051C262.515 72.6345 262.442 72.7952 262.444 72.987C262.442 73.1788 262.512 73.3372 262.655 73.4621C262.797 73.587 263.001 73.6495 263.266 73.6495H264.782V74.5328H263.266C262.856 74.5328 262.502 74.4681 262.204 74.3388C261.905 74.2094 261.676 74.0264 261.516 73.79C261.355 73.5536 261.275 73.277 261.275 72.9602C261.275 72.6301 261.357 72.3435 261.519 72.1003C261.684 71.8549 261.918 71.6653 262.22 71.5315C262.525 71.3954 262.887 71.3274 263.306 71.3274H265.533V76.4668H264.402ZM261.088 76.4668L262.521 73.8301H263.713L262.277 76.4668H261.088ZM274.455 75.473L274.356 77.939H273.216V76.4668H272.612V75.473H274.455ZM266.75 71.3274H267.917V75.4697H269.529V71.3274H270.695V75.4697H272.308V71.3274H273.474V76.4668H266.75V71.3274ZM276.577 74.8272L278.631 71.3274H279.873V76.4668H278.704V72.9636L276.657 76.4668H275.411V71.3274H276.577V74.8272ZM283.386 76.5671C282.872 76.5671 282.427 76.4601 282.053 76.246C281.682 76.0296 281.396 75.724 281.195 75.3291C280.995 74.9321 280.894 74.4648 280.894 73.9272C280.894 73.3985 280.995 72.9346 281.195 72.5353C281.397 72.1337 281.68 71.8215 282.043 71.5984C282.406 71.3731 282.832 71.2605 283.322 71.2605C283.639 71.2605 283.937 71.3118 284.217 71.4144C284.5 71.5148 284.749 71.6709 284.966 71.8828C285.183 72.0947 285.355 72.3647 285.48 72.6926C285.604 73.0183 285.667 73.4064 285.667 73.8569V74.2283H281.462V73.4119H284.508C284.506 73.1799 284.455 72.9736 284.357 72.7929C284.259 72.61 284.123 72.4661 283.947 72.3613C283.774 72.2565 283.571 72.204 283.339 72.204C283.092 72.204 282.875 72.2642 282.688 72.3847C282.501 72.5029 282.355 72.6591 282.25 72.8531C282.148 73.045 282.096 73.2558 282.093 73.4855V74.1982C282.093 74.4971 282.148 74.7537 282.257 74.9678C282.366 75.1797 282.519 75.3425 282.715 75.4563C282.911 75.5678 283.14 75.6236 283.403 75.6236C283.578 75.6236 283.738 75.5991 283.88 75.55C284.023 75.4986 284.147 75.424 284.251 75.3258C284.356 75.2277 284.434 75.1061 284.488 74.9611L285.617 75.0882C285.546 75.3872 285.41 75.6481 285.209 75.8712C285.011 76.092 284.757 76.2638 284.448 76.3864C284.139 76.5069 283.785 76.5671 283.386 76.5671ZM288.738 75.0582H289.938C289.949 75.25 290.035 75.3983 290.195 75.5031C290.355 75.6079 290.563 75.6604 290.819 75.6604C291.079 75.6604 291.299 75.6035 291.478 75.4898C291.658 75.3738 291.748 75.1986 291.748 74.9644C291.748 74.8261 291.713 74.7046 291.644 74.5998C291.576 74.4927 291.478 74.4101 291.354 74.3521C291.229 74.2942 291.082 74.2651 290.913 74.2651H290.128V73.4053H290.913C291.164 73.4053 291.355 73.3473 291.484 73.2313C291.615 73.1152 291.681 72.9692 291.681 72.7929C291.681 72.6033 291.612 72.4494 291.474 72.3312C291.338 72.213 291.15 72.1539 290.909 72.1539C290.669 72.1539 290.469 72.2085 290.308 72.3178C290.15 72.4271 290.068 72.5676 290.061 72.7394H288.869C288.873 72.4405 288.963 72.1806 289.136 71.9598C289.312 71.739 289.548 71.5672 289.844 71.4445C290.142 71.3218 290.478 71.2605 290.853 71.2605C291.253 71.2605 291.6 71.3207 291.891 71.4411C292.183 71.5616 292.408 71.73 292.566 71.9464C292.724 72.1605 292.803 72.4126 292.803 72.7026C292.803 72.9814 292.717 73.2123 292.543 73.3952C292.369 73.5759 292.135 73.7053 291.841 73.7833V73.8369C292.044 73.848 292.227 73.906 292.389 74.0109C292.551 74.1134 292.681 74.2529 292.776 74.4291C292.872 74.6053 292.92 74.8094 292.92 75.0414C292.92 75.3559 292.829 75.628 292.649 75.8578C292.469 76.0853 292.221 76.2604 291.905 76.3832C291.59 76.5058 291.231 76.5671 290.826 76.5671C290.432 76.5671 290.079 76.5081 289.767 76.3898C289.458 76.2694 289.212 76.0965 289.029 75.8712C288.847 75.6459 288.749 75.3749 288.738 75.0582ZM293.872 76.4668V71.3274H296.026C296.634 71.3274 297.113 71.449 297.465 71.6921C297.819 71.9353 297.997 72.2743 297.997 72.7093C297.997 72.9971 297.896 73.2324 297.696 73.4152C297.497 73.5959 297.227 73.7175 296.884 73.78C297.153 73.8023 297.39 73.8703 297.592 73.9841C297.797 74.0979 297.957 74.2473 298.073 74.4324C298.189 74.6176 298.247 74.8306 298.247 75.0715C298.247 75.3548 298.172 75.6013 298.023 75.811C297.876 76.0184 297.661 76.1801 297.378 76.2962C297.098 76.4099 296.757 76.4668 296.356 76.4668H293.872ZM295.004 75.5132H296.356C296.58 75.5132 296.754 75.4607 296.881 75.3559C297.007 75.2489 297.071 75.1039 297.071 74.9209C297.071 74.7091 297.007 74.5428 296.881 74.4224C296.754 74.2998 296.58 74.2384 296.356 74.2384H295.004V75.5132ZM295.004 73.4554H296.049C296.214 73.4554 296.355 73.432 296.474 73.3852C296.591 73.3361 296.681 73.268 296.744 73.181C296.806 73.0918 296.837 72.9859 296.837 72.8632C296.837 72.687 296.765 72.5486 296.62 72.4483C296.478 72.3479 296.279 72.2977 296.026 72.2977H295.004V73.4554ZM301.483 76.5671C300.981 76.5671 300.547 76.4567 300.18 76.2359C299.812 76.0151 299.527 75.7061 299.325 75.3091C299.124 74.912 299.024 74.4481 299.024 73.9171C299.024 73.3863 299.124 72.9212 299.325 72.5219C299.527 72.1226 299.812 71.8125 300.18 71.5917C300.547 71.3709 300.981 71.2605 301.483 71.2605C301.983 71.2605 302.418 71.3709 302.784 71.5917C303.152 71.8125 303.436 72.1226 303.636 72.5219C303.839 72.9212 303.94 73.3863 303.94 73.9171C303.94 74.4481 303.839 74.912 303.636 75.3091C303.436 75.7061 303.152 76.0151 302.784 76.2359C302.418 76.4567 301.983 76.5671 301.483 76.5671ZM301.489 75.5968C301.761 75.5968 301.987 75.5221 302.17 75.3726C302.352 75.221 302.489 75.018 302.577 74.7637C302.669 74.5094 302.715 74.2261 302.715 73.9138C302.715 73.5993 302.669 73.3149 302.577 73.0606C302.489 72.8041 302.352 72.6 302.17 72.4483C301.987 72.2966 301.761 72.2207 301.489 72.2207C301.211 72.2207 300.979 72.2966 300.794 72.4483C300.612 72.6 300.475 72.8041 300.384 73.0606C300.294 73.3149 300.25 73.5993 300.25 73.9138C300.25 74.2261 300.294 74.5094 300.384 74.7637C300.475 75.018 300.612 75.221 300.794 75.3726C300.979 75.5221 301.211 75.5968 301.489 75.5968ZM308.49 73.3952V74.3889H305.758V73.3952H308.49ZM306.132 71.3274V76.4668H304.966V71.3274H306.132ZM309.281 71.3274V76.4668H308.119V71.3274H309.281ZM310.505 76.4668V71.3274H311.713V73.4019H312.154L313.697 71.3274H315.153L313.253 73.8502L315.173 76.4668H313.711L312.304 74.5295H311.713V76.4668H310.505ZM317.025 74.8272L319.079 71.3274H320.321V76.4668H319.152V72.9636L317.104 76.4668H315.859V71.3274H317.025V74.8272Z" fill="#3C3A3E"/>
<path d="M237.586 83.9258H444.488" stroke="#E6E6E6"/>
<path d="M237.586 110.033H444.488" stroke="#E6E6E6" stroke-width="0.5"/>
<path d="M237.586 128.877H444.488" stroke="#E6E6E6" stroke-width="0.5"/>
<path d="M237.586 147.722H444.488" stroke="#E6E6E6" stroke-width="0.5"/>
<path d="M237.586 166.566H444.488" stroke="#E6E6E6" stroke-width="0.5"/>
<path d="M237.586 185.41H444.488" stroke="#E6E6E6" stroke-width="0.5"/>
<g filter="url(#filter1_d_1065_8453)">
<path d="M301.568 154.034H74.6104C70.9596 154.034 68 156.984 68 160.623V181.121C68 184.76 70.9596 187.709 74.6104 187.709H301.568C305.219 187.709 308.179 184.76 308.179 181.121V160.623C308.179 156.984 305.219 154.034 301.568 154.034Z" fill="white"/>
</g>
<path d="M189.926 173.189C189.412 173.189 188.969 173.059 188.6 172.799C188.233 172.537 187.95 172.159 187.752 171.666C187.555 171.171 187.457 170.576 187.457 169.879C187.459 169.182 187.558 168.589 187.754 168.101C187.953 167.61 188.236 167.236 188.603 166.978C188.972 166.72 189.414 166.591 189.926 166.591C190.44 166.591 190.881 166.72 191.251 166.978C191.62 167.236 191.903 167.61 192.099 168.101C192.297 168.592 192.396 169.184 192.396 169.879C192.396 170.578 192.297 171.175 192.099 171.67C191.903 172.162 191.62 172.539 191.251 172.799C190.883 173.059 190.442 173.189 189.926 173.189ZM189.926 172.212C190.327 172.212 190.643 172.016 190.875 171.623C191.109 171.228 191.226 170.646 191.226 169.879C191.226 169.371 191.172 168.945 191.066 168.6C190.96 168.255 190.809 167.995 190.615 167.82C190.421 167.643 190.192 167.555 189.926 167.555C189.528 167.555 189.213 167.752 188.981 168.147C188.75 168.541 188.633 169.118 188.631 169.879C188.629 170.388 188.68 170.817 188.784 171.164C188.891 171.511 189.041 171.774 189.235 171.95C189.429 172.125 189.66 172.212 189.926 172.212ZM195.805 173.189C195.29 173.189 194.847 173.059 194.479 172.799C194.112 172.537 193.829 172.159 193.63 171.666C193.434 171.171 193.336 170.576 193.336 169.879C193.338 169.182 193.437 168.589 193.633 168.101C193.832 167.61 194.114 167.236 194.482 166.978C194.851 166.72 195.292 166.591 195.805 166.591C196.319 166.591 196.76 166.72 197.13 166.978C197.499 167.236 197.782 167.61 197.978 168.101C198.176 168.592 198.275 169.184 198.275 169.879C198.275 170.578 198.176 171.175 197.978 171.67C197.782 172.162 197.499 172.539 197.13 172.799C196.762 173.059 196.321 173.189 195.805 173.189ZM195.805 172.212C196.206 172.212 196.522 172.016 196.754 171.623C196.988 171.228 197.105 170.646 197.105 169.879C197.105 169.371 197.051 168.945 196.944 168.6C196.839 168.255 196.688 167.995 196.494 167.82C196.3 167.643 196.07 167.555 195.805 167.555C195.407 167.555 195.092 167.752 194.86 168.147C194.629 168.541 194.512 169.118 194.51 169.879C194.507 170.388 194.559 170.817 194.663 171.164C194.77 171.511 194.919 171.774 195.114 171.95C195.308 172.125 195.539 172.212 195.805 172.212ZM200.026 172.3C199.835 172.3 199.673 172.233 199.537 172.1C199.401 171.965 199.334 171.803 199.337 171.613C199.334 171.426 199.401 171.266 199.537 171.133C199.673 171 199.835 170.933 200.026 170.933C200.209 170.933 200.369 171 200.505 171.133C200.642 171.266 200.712 171.426 200.714 171.613C200.712 171.74 200.679 171.856 200.614 171.96C200.552 172.064 200.468 172.147 200.364 172.209C200.261 172.27 200.148 172.3 200.026 172.3ZM200.026 169.133C199.835 169.133 199.673 169.067 199.537 168.934C199.401 168.798 199.334 168.636 199.337 168.447C199.334 168.26 199.401 168.1 199.537 167.967C199.673 167.831 199.835 167.764 200.026 167.764C200.209 167.764 200.369 167.831 200.505 167.967C200.642 168.1 200.712 168.26 200.714 168.447C200.712 168.572 200.679 168.686 200.614 168.79C200.552 168.894 200.468 168.977 200.364 169.04C200.261 169.102 200.148 169.133 200.026 169.133ZM201.755 171.882V170.961L204.475 166.678H205.246V167.988H204.776L202.945 170.88V170.93H206.742V171.882H201.755ZM204.814 173.067V171.601L204.826 171.189V166.678H205.921V173.067H204.814ZM210.042 173.154C209.592 173.154 209.191 173.078 208.84 172.924C208.491 172.77 208.216 172.556 208.014 172.281C207.811 172.006 207.704 171.689 207.692 171.33H208.868C208.878 171.502 208.936 171.653 209.041 171.782C209.145 171.909 209.283 172.008 209.457 172.078C209.63 172.149 209.824 172.184 210.039 172.184C210.268 172.184 210.472 172.145 210.649 172.066C210.826 171.985 210.965 171.872 211.066 171.729C211.166 171.585 211.215 171.42 211.213 171.233C211.215 171.039 211.165 170.869 211.062 170.721C210.96 170.573 210.812 170.458 210.618 170.375C210.426 170.292 210.195 170.25 209.923 170.25H209.357V169.358H209.923C210.146 169.358 210.342 169.319 210.508 169.243C210.677 169.166 210.81 169.057 210.906 168.918C211.002 168.777 211.049 168.613 211.047 168.428C211.049 168.247 211.008 168.09 210.925 167.957C210.843 167.822 210.727 167.717 210.577 167.642C210.429 167.567 210.255 167.53 210.054 167.53C209.858 167.53 209.677 167.565 209.51 167.636C209.343 167.707 209.208 167.807 209.106 167.938C209.004 168.067 208.95 168.221 208.943 168.4H207.826C207.834 168.043 207.938 167.728 208.136 167.458C208.336 167.186 208.603 166.973 208.937 166.822C209.271 166.668 209.645 166.591 210.061 166.591C210.488 166.591 210.86 166.671 211.175 166.831C211.493 166.989 211.737 167.202 211.91 167.471C212.084 167.739 212.17 168.035 212.17 168.36C212.173 168.719 212.066 169.021 211.851 169.264C211.638 169.508 211.359 169.667 211.012 169.742V169.792C211.463 169.854 211.808 170.02 212.049 170.291C212.29 170.559 212.411 170.893 212.408 171.292C212.408 171.65 212.306 171.97 212.101 172.253C211.899 172.534 211.62 172.754 211.263 172.914C210.908 173.074 210.501 173.154 210.042 173.154Z" fill="#3C3A3E"/>
<path d="M124.554 169.407H79.0159C78.2046 169.407 77.5469 170.063 77.5469 170.871C77.5469 171.68 78.2046 172.336 79.0159 172.336H124.554C125.366 172.336 126.023 171.68 126.023 170.871C126.023 170.063 125.366 169.407 124.554 169.407Z" fill="#E6E6E6"/>
<path fill-rule="evenodd" clip-rule="evenodd" d="M245.012 178.924V162.818H243.543V178.924H245.012ZM247.95 178.924V162.818H246.481V178.924H247.95ZM250.153 171.385V178.924H248.684V162.818H250.153V170.357H252.357V168.301H254.56V173.441H252.357V171.385H250.153ZM257.498 174.126V167.615H255.295V174.126H257.498ZM260.436 170.357H263.374V170.015H265.578V171.728H263.374V171.385H260.436V170.357ZM268.516 168.987V172.756H266.312V168.987H268.516ZM273.657 173.441V168.301H271.454V173.441H273.657ZM274.392 169.329H276.595H278.799V170.015H281.737V171.728H278.799V172.413H276.595H274.392V169.329ZM284.674 171.385H287.612V171.728H295.692V171.042H298.63V170.7H295.692V170.015H287.612V170.357H284.674V171.385Z" fill="#CBCBCB"/>
<path d="M133.748 173.068V172.51L135.231 171.061C135.373 170.918 135.491 170.791 135.586 170.68C135.681 170.569 135.751 170.462 135.799 170.358C135.846 170.254 135.87 170.143 135.87 170.025C135.87 169.89 135.839 169.775 135.778 169.68C135.717 169.583 135.632 169.508 135.526 169.455C135.419 169.402 135.297 169.376 135.16 169.376C135.02 169.376 134.896 169.405 134.791 169.463C134.686 169.52 134.603 169.601 134.545 169.707C134.488 169.812 134.459 169.937 134.459 170.083H133.723C133.723 169.813 133.784 169.578 133.908 169.378C134.032 169.178 134.202 169.024 134.42 168.914C134.638 168.805 134.888 168.75 135.171 168.75C135.458 168.75 135.709 168.803 135.926 168.91C136.143 169.017 136.312 169.163 136.431 169.349C136.552 169.535 136.613 169.747 136.613 169.985C136.613 170.145 136.582 170.301 136.521 170.455C136.459 170.609 136.352 170.78 136.197 170.967C136.044 171.154 135.829 171.381 135.552 171.647L134.816 172.394V172.423H136.678V173.068H133.748ZM138.883 173.126C138.605 173.126 138.356 173.074 138.135 172.97C137.916 172.864 137.742 172.72 137.612 172.537C137.484 172.354 137.416 172.145 137.408 171.909H138.159C138.173 172.084 138.249 172.227 138.386 172.338C138.524 172.447 138.689 172.502 138.883 172.502C139.034 172.502 139.17 172.467 139.288 172.398C139.406 172.329 139.499 172.232 139.567 172.109C139.635 171.985 139.669 171.845 139.668 171.687C139.669 171.526 139.635 171.383 139.566 171.258C139.496 171.133 139.4 171.036 139.279 170.965C139.159 170.893 139.019 170.857 138.862 170.857C138.734 170.855 138.608 170.879 138.484 170.927C138.36 170.976 138.263 171.04 138.19 171.119L137.491 171.004L137.715 168.808H140.194V169.453H138.355L138.232 170.582H138.257C138.336 170.489 138.448 170.412 138.593 170.351C138.738 170.289 138.896 170.258 139.068 170.258C139.328 170.258 139.558 170.319 139.762 170.441C139.964 170.561 140.124 170.728 140.241 170.94C140.358 171.152 140.417 171.395 140.417 171.668C140.417 171.949 140.351 172.2 140.221 172.421C140.091 172.64 139.911 172.812 139.68 172.939C139.45 173.063 139.185 173.126 138.883 173.126ZM144.476 173.068V170.484H143.792C143.618 170.484 143.484 170.525 143.391 170.605C143.297 170.686 143.252 170.785 143.253 170.905C143.252 171.024 143.296 171.122 143.385 171.2C143.474 171.278 143.601 171.316 143.767 171.316H144.714V171.865H143.767C143.51 171.865 143.289 171.825 143.103 171.745C142.916 171.664 142.773 171.551 142.673 171.404C142.573 171.257 142.523 171.085 142.523 170.888C142.523 170.683 142.574 170.505 142.675 170.353C142.778 170.201 142.924 170.083 143.113 170C143.304 169.915 143.53 169.873 143.792 169.873H145.184V173.068H144.476ZM142.406 173.068L143.301 171.429H144.046L143.149 173.068H142.406ZM148.145 171.158V171.776H146.438V171.158H148.145ZM146.672 169.873V173.068H145.944V169.873H146.672ZM148.64 169.873V173.068H147.914V169.873H148.64ZM149.404 173.068V169.873H150.75C151.13 169.873 151.43 169.949 151.649 170.1C151.87 170.251 151.981 170.462 151.981 170.732C151.981 170.911 151.918 171.057 151.793 171.171C151.669 171.283 151.5 171.359 151.287 171.398C151.455 171.411 151.602 171.454 151.729 171.524C151.857 171.595 151.956 171.688 152.029 171.803C152.101 171.918 152.138 172.051 152.138 172.2C152.138 172.376 152.091 172.53 151.998 172.66C151.906 172.789 151.772 172.889 151.595 172.961C151.419 173.032 151.207 173.068 150.957 173.068H149.404ZM150.111 172.475H150.957C151.096 172.475 151.205 172.442 151.284 172.377C151.364 172.31 151.403 172.22 151.403 172.107C151.403 171.975 151.364 171.872 151.284 171.797C151.205 171.721 151.096 171.682 150.957 171.682H150.111V172.475ZM150.111 171.196H150.764C150.868 171.196 150.956 171.181 151.029 171.152C151.104 171.122 151.159 171.079 151.198 171.025C151.237 170.97 151.257 170.904 151.257 170.828C151.257 170.718 151.212 170.632 151.121 170.57C151.032 170.507 150.908 170.476 150.75 170.476H150.111V171.196ZM153.683 173.132C153.48 173.132 153.298 173.096 153.135 173.024C152.973 172.95 152.845 172.842 152.75 172.699C152.657 172.557 152.611 172.381 152.611 172.171C152.611 171.991 152.644 171.842 152.711 171.724C152.778 171.606 152.869 171.512 152.984 171.441C153.1 171.37 153.23 171.317 153.375 171.281C153.521 171.244 153.671 171.217 153.827 171.2C154.015 171.18 154.167 171.163 154.284 171.148C154.401 171.131 154.486 171.106 154.539 171.073C154.593 171.038 154.62 170.985 154.62 170.913V170.9C154.62 170.744 154.573 170.622 154.48 170.536C154.387 170.451 154.253 170.408 154.078 170.408C153.893 170.408 153.746 170.448 153.638 170.528C153.53 170.609 153.458 170.704 153.42 170.813L152.715 170.713C152.771 170.519 152.863 170.357 152.991 170.227C153.118 170.095 153.275 169.996 153.46 169.931C153.645 169.865 153.849 169.831 154.073 169.831C154.228 169.831 154.382 169.849 154.534 169.886C154.688 169.922 154.828 169.981 154.954 170.064C155.081 170.146 155.182 170.258 155.259 170.399C155.337 170.541 155.375 170.717 155.375 170.93V173.068H154.649V172.629H154.624C154.579 172.717 154.514 172.801 154.43 172.878C154.348 172.954 154.244 173.016 154.119 173.063C153.995 173.109 153.85 173.132 153.683 173.132ZM153.879 172.579C154.031 172.579 154.163 172.549 154.274 172.489C154.385 172.428 154.471 172.348 154.53 172.248C154.592 172.148 154.623 172.039 154.623 171.922V171.545C154.598 171.565 154.558 171.583 154.501 171.599C154.446 171.616 154.383 171.63 154.313 171.643C154.244 171.655 154.175 171.666 154.107 171.676C154.039 171.686 153.98 171.694 153.929 171.701C153.817 171.716 153.716 171.741 153.627 171.776C153.538 171.811 153.468 171.859 153.416 171.922C153.364 171.983 153.339 172.062 153.339 172.159C153.339 172.297 153.389 172.402 153.491 172.473C153.593 172.543 153.722 172.579 153.879 172.579ZM156.135 174.265V169.873H156.878V170.401H156.922C156.96 170.324 157.016 170.241 157.087 170.154C157.157 170.065 157.254 169.99 157.375 169.927C157.495 169.863 157.65 169.831 157.837 169.831C158.085 169.831 158.308 169.895 158.507 170.021C158.708 170.145 158.866 170.331 158.983 170.576C159.102 170.82 159.16 171.119 159.16 171.474C159.16 171.825 159.103 172.123 158.988 172.369C158.872 172.614 158.714 172.801 158.516 172.93C158.317 173.059 158.092 173.124 157.84 173.124C157.656 173.124 157.504 173.093 157.383 173.032C157.262 172.971 157.165 172.898 157.09 172.812C157.019 172.724 156.962 172.642 156.922 172.564H156.891V174.265H156.135ZM156.876 171.47C156.876 171.677 156.905 171.858 156.963 172.013C157.023 172.168 157.109 172.29 157.22 172.377C157.333 172.463 157.469 172.506 157.629 172.506C157.796 172.506 157.936 172.462 158.048 172.373C158.161 172.283 158.246 172.16 158.303 172.005C158.361 171.848 158.391 171.67 158.391 171.47C158.391 171.272 158.362 171.096 158.305 170.942C158.248 170.788 158.164 170.668 158.05 170.58C157.938 170.493 157.797 170.449 157.629 170.449C157.468 170.449 157.331 170.491 157.218 170.576C157.105 170.661 157.02 170.779 156.961 170.932C156.905 171.084 156.876 171.264 156.876 171.47ZM161.702 173.068V170.484H161.018C160.844 170.484 160.71 170.525 160.617 170.605C160.524 170.686 160.478 170.785 160.479 170.905C160.478 171.024 160.522 171.122 160.611 171.2C160.7 171.278 160.827 171.316 160.993 171.316H161.94V171.865H160.993C160.737 171.865 160.515 171.825 160.329 171.745C160.143 171.664 160 171.551 159.899 171.404C159.799 171.257 159.749 171.085 159.749 170.888C159.749 170.683 159.8 170.505 159.901 170.353C160.004 170.201 160.15 170.083 160.34 170C160.53 169.915 160.756 169.873 161.018 169.873H162.41V173.068H161.702ZM159.633 173.068L160.527 171.429H161.272L160.375 173.068H159.633ZM164.619 173.068V172.51L166.103 171.061C166.244 170.918 166.363 170.791 166.457 170.68C166.552 170.569 166.623 170.462 166.67 170.358C166.717 170.254 166.742 170.143 166.742 170.025C166.742 169.89 166.711 169.775 166.649 169.68C166.588 169.583 166.504 169.508 166.397 169.455C166.29 169.402 166.168 169.376 166.032 169.376C165.891 169.376 165.769 169.405 165.663 169.463C165.557 169.52 165.475 169.601 165.417 169.707C165.359 169.812 165.331 169.937 165.331 170.083H164.594C164.594 169.813 164.656 169.578 164.78 169.378C164.904 169.178 165.074 169.024 165.291 168.914C165.509 168.805 165.76 168.75 166.042 168.75C166.329 168.75 166.581 168.803 166.798 168.91C167.015 169.017 167.183 169.163 167.303 169.349C167.423 169.535 167.484 169.747 167.484 169.985C167.484 170.145 167.453 170.301 167.392 170.455C167.332 170.609 167.224 170.78 167.069 170.967C166.916 171.154 166.701 171.381 166.424 171.647L165.688 172.394V172.423H167.549V173.068H164.619ZM169.849 173.149C169.505 173.149 169.21 173.062 168.964 172.889C168.719 172.714 168.53 172.462 168.398 172.134C168.267 171.804 168.202 171.407 168.202 170.942C168.203 170.478 168.269 170.082 168.4 169.757C168.532 169.429 168.721 169.18 168.966 169.008C169.212 168.836 169.506 168.75 169.849 168.75C170.191 168.75 170.485 168.836 170.731 169.008C170.978 169.18 171.166 169.429 171.296 169.757C171.429 170.084 171.495 170.479 171.495 170.942C171.495 171.408 171.429 171.806 171.296 172.136C171.166 172.464 170.978 172.715 170.731 172.889C170.486 173.062 170.192 173.149 169.849 173.149ZM169.849 172.498C170.115 172.498 170.326 172.367 170.48 172.105C170.637 171.841 170.715 171.454 170.715 170.942C170.715 170.604 170.679 170.319 170.608 170.089C170.537 169.859 170.437 169.686 170.308 169.569C170.178 169.452 170.025 169.393 169.849 169.393C169.583 169.393 169.373 169.524 169.218 169.788C169.063 170.05 168.986 170.435 168.984 170.942C168.983 171.282 169.017 171.567 169.087 171.799C169.157 172.03 169.258 172.205 169.387 172.323C169.517 172.439 169.67 172.498 169.849 172.498ZM172.188 173.068V172.51L173.672 171.061C173.813 170.918 173.932 170.791 174.026 170.68C174.121 170.569 174.192 170.462 174.239 170.358C174.286 170.254 174.31 170.143 174.31 170.025C174.31 169.89 174.28 169.775 174.218 169.68C174.157 169.583 174.073 169.508 173.965 169.455C173.859 169.402 173.737 169.376 173.6 169.376C173.46 169.376 173.337 169.405 173.231 169.463C173.125 169.52 173.044 169.601 172.985 169.707C172.928 169.812 172.9 169.937 172.9 170.083H172.163C172.163 169.813 172.225 169.578 172.349 169.378C172.472 169.178 172.643 169.024 172.86 168.914C173.078 168.805 173.329 168.75 173.611 168.75C173.898 168.75 174.149 168.803 174.366 168.91C174.583 169.017 174.752 169.163 174.871 169.349C174.992 169.535 175.053 169.747 175.053 169.985C175.053 170.145 175.022 170.301 174.961 170.455C174.9 170.609 174.792 170.78 174.637 170.967C174.485 171.154 174.27 171.381 173.993 171.647L173.257 172.394V172.423H175.118V173.068H172.188ZM175.838 173.068V172.51L177.321 171.061C177.463 170.918 177.581 170.791 177.676 170.68C177.77 170.569 177.841 170.462 177.888 170.358C177.936 170.254 177.96 170.143 177.96 170.025C177.96 169.89 177.929 169.775 177.868 169.68C177.807 169.583 177.722 169.508 177.615 169.455C177.508 169.402 177.387 169.376 177.25 169.376C177.11 169.376 176.986 169.405 176.881 169.463C176.775 169.52 176.693 169.601 176.635 169.707C176.577 169.812 176.549 169.937 176.549 170.083H175.813C175.813 169.813 175.874 169.578 175.998 169.378C176.122 169.178 176.292 169.024 176.51 168.914C176.728 168.805 176.978 168.75 177.26 168.75C177.547 168.75 177.799 168.803 178.016 168.91C178.233 169.017 178.401 169.163 178.521 169.349C178.642 169.535 178.702 169.747 178.702 169.985C178.702 170.145 178.672 170.301 178.61 170.455C178.549 170.609 178.441 170.78 178.287 170.967C178.134 171.154 177.919 171.381 177.642 171.647L176.906 172.394V172.423H178.767V173.068H175.838Z" fill="#858585"/>
<path d="M229.954 176.728C233.402 176.728 236.197 173.942 236.197 170.506C236.197 167.069 233.402 164.283 229.954 164.283C226.506 164.283 223.711 167.069 223.711 170.506C223.711 173.942 226.506 176.728 229.954 176.728Z" fill="#F4774C"/>
<path d="M232.87 170.505L228.5 173.02V167.99L232.87 170.505Z" fill="white"/>
<path d="M305.975 164.283C314.088 164.283 320.665 157.728 320.665 149.641C320.665 141.555 314.088 135 305.975 135C297.862 135 291.285 141.555 291.285 149.641C291.285 157.728 297.862 164.283 305.975 164.283Z" fill="#F5F5F5"/>
<g filter="url(#filter2_d_1065_8453)">
<path fill-rule="evenodd" clip-rule="evenodd" d="M228.454 196.68C232.106 196.68 235.065 199.629 235.065 203.268V223.766C235.065 227.405 232.106 230.355 228.454 230.355H39.6902C37.7487 230.355 36.0027 229.52 34.7933 228.192C32.0311 229.115 28.7057 229.562 25 228.89C26.6523 228.184 32.8558 224.077 33.0798 215.91V214.996C33.0796 214.991 33.0795 214.986 33.0794 214.981C33.0792 214.981 33.0795 214.981 33.0794 214.981L33.0798 203.268C33.0798 199.629 36.0393 196.68 39.6902 196.68H228.454Z" fill="#D6D6D6"/>
</g>
<path d="M174.837 206.929H216.703C217.514 206.929 218.172 207.584 218.172 208.393C218.172 209.201 217.514 209.857 216.703 209.857H174.837C174.026 209.857 173.368 209.201 173.368 208.393C173.368 207.584 174.026 206.929 174.837 206.929Z" fill="white"/>
<path d="M83.0255 217.178H216.703C217.514 217.178 218.172 217.833 218.172 218.642C218.172 219.45 217.514 220.106 216.703 220.106H83.0255C82.2142 220.106 81.5565 219.45 81.5565 218.642C81.5565 217.833 82.2142 217.178 83.0255 217.178Z" fill="white"/>
<path d="M83.0259 206.929H164.554C165.366 206.929 166.023 207.584 166.023 208.393C166.023 209.201 165.366 209.857 164.554 209.857H83.0259C82.2146 209.857 81.5569 209.201 81.5569 208.393C81.5569 207.584 82.2146 206.929 83.0259 206.929Z" fill="white"/>
<path d="M59.8891 223.034C54.4128 223.034 49.9734 218.61 49.9734 213.151C49.9734 207.693 54.4128 203.269 59.8891 203.269C65.3653 203.269 69.8047 207.693 69.8047 213.151C69.8047 218.61 65.3653 223.034 59.8891 223.034Z" fill="#F4774C"/>
<g filter="url(#filter3_d_1065_8453)">
<path fill-rule="evenodd" clip-rule="evenodd" d="M99.6104 239.325C95.9596 239.325 93 242.275 93 245.914V266.412C93 270.051 95.9596 273 99.6104 273H288.375C290.316 273 292.063 272.166 293.272 270.838C296.034 271.76 299.359 272.208 303.065 271.536C301.413 270.83 295.209 266.722 294.985 258.556V257.642C294.985 257.636 294.985 257.631 294.986 257.627L294.985 245.914C294.985 242.275 292.026 239.325 288.375 239.325H99.6104Z" fill="white"/>
</g>
<path d="M129.726 253.967H111.364C110.552 253.967 109.895 254.622 109.895 255.431C109.895 256.24 110.552 256.895 111.364 256.895H129.726C130.537 256.895 131.195 256.24 131.195 255.431C131.195 254.622 130.537 253.967 129.726 253.967Z" fill="#E6E6E6"/>
<path d="M245.039 253.967H145.149C144.337 253.967 143.68 254.622 143.68 255.431C143.68 256.24 144.337 256.895 145.149 256.895H245.039C245.851 256.895 246.508 256.24 246.508 255.431C246.508 254.622 245.851 253.967 245.039 253.967Z" fill="#E6E6E6"/>
<path d="M268.173 265.68C273.65 265.68 278.089 261.255 278.089 255.797C278.089 250.339 273.65 245.914 268.173 245.914C262.697 245.914 258.258 250.339 258.258 255.797C258.258 261.255 262.697 265.68 268.173 265.68Z" fill="#F4774C"/>
<mask id="mask0_1065_8453" style="mask-type:alpha" maskUnits="userSpaceOnUse" x="291" y="135" width="30" height="30">
<path d="M306.311 164.283C314.424 164.283 321.001 157.728 321.001 149.641C321.001 141.555 314.424 135 306.311 135C298.198 135 291.621 141.555 291.621 149.641C291.621 157.728 298.198 164.283 306.311 164.283Z" fill="#F5F5F5"/>
</mask>
<g mask="url(#mask0_1065_8453)">
<path d="M315.508 163.419L315.258 155.952H318.005L318.255 162.673L318.005 163.419H315.508Z" fill="white"/>
<path d="M294.281 163.17L294.031 156.201H296.778V162.922L296.279 163.17H294.281Z" fill="white"/>
<path d="M298.027 169.89L297.527 156.698L314.509 156.449L314.759 170.139L298.027 169.89Z" fill="white"/>
<path d="M309.078 141.667L309.358 143.621H310.478L309.918 141.667H309.078Z" fill="white"/>
<path d="M303.479 141.667L303.198 143.621H302.078L302.639 141.667H303.479Z" fill="white"/>
<path d="M298.721 144.458L299.28 143.899H311.322L314.122 144.178L314.402 153.947L311.601 154.505L302.641 154.784L298.16 154.226L298.721 144.458Z" fill="white"/>
<path d="M298.717 153.52C298.753 153.478 298.753 153.478 298.75 153.44C298.706 152.862 298.701 152.282 298.698 151.74C298.703 150.772 298.71 149.843 298.753 148.871L298.808 148.054C298.808 148.054 298.791 147.32 298.816 146.622C298.802 145.926 299.06 145.008 299.027 145.088C298.978 143.93 298.839 143.127 298.439 145.016C298.325 145.566 297.984 146.413 297.909 146.961C297.834 147.508 297.786 147.899 297.786 147.899L297.743 148.87C297.7 149.841 297.696 150.809 297.691 151.777C297.697 152.358 297.702 152.938 297.746 153.515C297.749 153.554 297.79 153.589 297.79 153.589C298.217 154.099 298.58 153.762 298.717 153.52Z" fill="#F4774C"/>
<path d="M312.881 143.628C312.094 143.493 311.039 143.418 310.493 143.381C310.526 143.302 310.52 143.225 310.553 143.145C310.613 142.908 310.631 142.636 310.613 142.405C310.635 142.171 310.623 142.017 310.623 142.017L310.611 141.863L310.591 141.593L310.505 140.98L309.885 140.988L309.418 140.985C309.222 140.961 309.029 140.975 308.839 141.028L308.301 141.108L308.419 142.144L308.498 142.68C308.516 142.911 308.569 143.1 308.586 143.331L303.382 143.336C303.379 143.298 303.418 143.295 303.415 143.256C303.478 143.058 303.537 142.821 303.6 142.623C303.624 142.427 303.651 142.271 303.651 142.271C303.634 142.04 303.616 141.809 303.598 141.578L303.572 141.231L303.255 141.139C303.055 141.077 302.939 141.085 302.824 141.094C302.708 141.103 302.631 141.109 302.518 141.156C302.479 141.159 302.405 141.203 302.328 141.209L302.098 141.265L301.683 141.412L301.669 142.265C301.681 142.419 301.657 142.614 301.669 142.768C301.681 142.922 301.695 143.115 301.71 143.307C301.71 143.307 301.71 143.307 301.713 143.346L300.819 143.335L299.072 143.351C299.033 143.354 298.997 143.395 298.997 143.395C298.45 143.862 298.789 144.224 299.032 144.36C299.074 144.396 299.074 144.396 299.112 144.393L300.859 144.378L309.25 144.404L310.067 144.42C310.067 144.42 313.005 144.238 312.848 144.211C314.042 144.082 314.764 143.873 312.881 143.628ZM302.8 143.341C302.797 143.303 302.791 143.226 302.788 143.187C302.779 143.072 302.77 142.956 302.762 142.841C302.818 143.069 302.871 143.258 302.871 143.258C302.874 143.297 302.874 143.297 302.916 143.332L302.8 143.341ZM309.638 143.368C309.578 143.102 309.558 142.832 309.538 142.563L309.456 141.989L309.571 141.98L309.58 142.095C309.58 142.095 309.681 142.397 309.778 142.661C309.876 142.925 309.974 143.188 309.974 143.188C309.977 143.227 310.021 143.301 310.063 143.336L309.638 143.368Z" fill="#F4774C"/>
<path d="M314.712 151.31C314.71 150.768 314.719 150.381 314.719 150.381L314.646 149.418C314.6 148.299 314.557 147.218 314.591 146.132C314.627 145.587 314.661 145.004 314.736 144.456C314.733 144.418 314.73 144.379 314.692 144.382C314.336 143.79 313.887 144.017 313.712 144.263C313.676 144.304 313.676 144.304 313.679 144.342C313.606 144.929 313.534 145.515 313.504 146.136C313.473 147.261 313.48 148.383 313.565 149.5L313.629 150.346C313.629 150.346 313.723 151.075 313.814 151.765C313.905 152.455 313.997 153.145 313.994 153.106C314.055 153.411 314.076 153.681 314.129 153.87C313.974 153.882 313.778 153.858 313.547 153.875C312.421 153.883 310.832 153.925 310.832 153.925L309.869 154.036C306.782 154.307 303.518 154.34 300.403 154.226C299.817 154.193 298.784 153.77 298.199 153.737C298.161 153.739 298.125 153.781 298.125 153.781C297.575 154.209 297.877 154.612 298.082 154.752C298.123 154.787 298.123 154.787 298.162 154.785C298.747 154.818 300.1 155.069 300.682 155.064C303.837 155.175 306.823 155.349 309.986 155.072L310.836 155.008C310.836 155.008 311.029 154.994 311.297 154.935C311.564 154.876 311.908 154.812 312.292 154.744C313.02 154.612 313.706 154.444 313.629 154.45C313.897 154.391 314.122 154.297 314.312 154.244C314.354 154.279 314.392 154.276 314.387 154.199C314.764 154.055 314.91 153.928 314.479 153.883C314.503 153.687 314.564 153.45 314.575 153.101C314.686 152.512 314.714 151.852 314.712 151.31Z" fill="#F4774C"/>
<path d="M302.057 146.301C302.244 146.209 302.399 146.198 302.559 146.263C302.559 146.263 302.595 146.222 302.633 146.219C302.856 146.086 303.079 145.953 303.103 145.758C303.13 145.601 303.036 145.375 302.911 145.269C302.87 145.233 302.87 145.233 302.831 145.236C302.436 145.15 302.011 145.182 301.633 145.326C301.256 145.471 300.964 145.725 300.754 146.012C300.471 146.381 300.277 146.899 300.318 147.438C300.326 147.554 300.377 147.705 300.386 147.82C300.433 147.933 300.48 148.045 300.527 148.158C300.619 148.345 300.791 148.564 300.961 148.745C301.251 148.994 301.614 149.16 302.005 149.208C302.005 149.208 302.278 149.226 302.624 149.161C302.968 149.097 303.378 148.872 303.705 148.577C303.848 148.411 303.991 148.246 304.092 148.044C304.193 147.843 304.256 147.645 304.245 147.491C304.257 147.142 304.162 146.917 304.165 146.955C304.02 146.579 303.732 146.368 303.53 146.267C303.329 146.166 303.171 146.14 303.094 146.145C303.017 146.151 303.061 146.225 303.15 146.373C303.191 146.409 303.233 146.445 303.236 146.483C303.277 146.519 303.322 146.593 303.363 146.628C303.449 146.738 303.538 146.886 303.553 147.079C303.624 147.499 303.189 147.919 302.812 148.063C302.624 148.155 302.432 148.169 302.316 148.178C302.2 148.187 302.123 148.193 302.123 148.193C301.929 148.207 301.727 148.106 301.603 148C301.52 147.928 301.434 147.819 301.384 147.668C301.339 147.594 301.336 147.555 301.295 147.52C301.292 147.481 301.247 147.407 301.283 147.366C301.265 147.135 301.326 146.898 301.501 146.652C301.721 146.481 301.905 146.351 302.057 146.301Z" fill="#F4774C"/>
<path d="M311.885 146.8C311.84 146.726 311.837 146.688 311.837 146.688C311.618 146.356 311.372 146.181 311.134 146.121C310.932 146.02 310.775 145.993 310.701 146.038C310.623 146.043 310.668 146.117 310.757 146.266C310.84 146.337 310.923 146.408 311.009 146.518C311.095 146.627 311.222 146.773 311.275 146.962C311.323 147.075 311.329 147.152 311.299 147.27C311.266 147.35 311.236 147.468 311.165 147.551C311.061 147.714 310.838 147.847 310.65 147.938C310.463 148.03 310.27 148.044 310.157 148.092C310.041 148.1 309.964 148.106 309.964 148.106C309.732 148.123 309.533 148.061 309.373 147.996C309.168 147.856 309.032 147.596 309.009 147.288C308.997 147.134 308.988 147.018 309.057 146.897C309.087 146.778 309.158 146.696 309.265 146.572C309.518 146.32 310.014 146.205 310.486 146.286C310.525 146.283 310.561 146.242 310.561 146.242C310.819 146.067 310.959 145.863 310.948 145.709C310.936 145.555 310.805 145.372 310.681 145.265C310.639 145.229 310.639 145.229 310.601 145.232C310.248 145.181 309.9 145.208 309.558 145.311C309.214 145.375 308.877 145.555 308.547 145.813C308.33 146.022 308.154 146.268 308.059 146.546C307.963 146.824 307.949 147.135 307.969 147.405C308.028 147.671 308.049 147.941 308.185 148.201C308.321 148.462 308.496 148.72 308.781 148.892C309.107 149.1 309.502 149.186 309.853 149.198C309.853 149.198 310.085 149.181 310.429 149.116C310.732 149.016 311.145 148.83 311.469 148.496C311.797 148.2 312.032 147.718 311.964 147.336C311.98 147.025 311.932 146.913 311.885 146.8Z" fill="#F4774C"/>
<path d="M312.183 150.947L312.144 150.95C312.026 150.92 311.91 150.929 311.794 150.938C311.634 150.872 310.736 151.206 310.187 151.131C309.088 150.981 307.604 151.009 307.604 151.009L306.632 151.005L303.486 151.009L301.435 150.34C301.396 150.343 301.361 150.384 301.361 150.384C301.179 150.553 301.072 150.677 301.084 150.831C299.732 150.933 300.929 150.842 300.504 150.874C300.507 150.913 300.507 150.913 300.51 150.951C300.516 151.028 300.522 151.105 300.531 151.221C300.545 151.413 300.521 151.609 300.521 151.609C300.521 151.609 300.693 151.828 300.732 151.825C300.773 151.861 300.853 151.893 300.934 151.926C300.913 152.16 301.12 152.338 301.244 152.445C301.286 152.48 301.286 152.48 301.325 152.477L303.377 153.147L306.715 153.128L307.53 153.105C307.53 153.105 310.468 152.923 310.31 152.896C310.542 152.878 311.237 152.296 311.391 152.284C311.436 152.358 311.477 152.394 311.477 152.394C311.602 152.501 311.84 152.56 312.056 152.35C312.202 152.223 312.304 152.022 312.304 152.022C312.304 152.022 312.283 151.753 312.266 151.522C312.257 151.406 312.183 150.947 312.239 151.175C312.186 150.986 312.183 150.947 312.183 150.947ZM311.303 151.985C311.185 151.955 310.459 152.304 310.302 152.277C308.953 152.477 307.463 152.477 307.463 152.477L303.745 152.394L302.489 152.277L301.608 151.399C301.917 151.376 310.247 151.825 310.128 151.795C310.283 151.784 311.147 151.454 311.26 151.407C311.266 151.484 311.275 151.6 311.281 151.677C311.289 151.792 311.297 151.908 311.303 151.985Z" fill="#F4774C"/>
<path d="M309.279 163.471C309.188 163.651 309.032 163.87 308.876 164.089C308.719 164.308 308.525 164.495 308.331 164.682L307.819 165.238C307.724 165.349 307.626 165.426 307.53 165.536C307.469 165.645 307.371 165.721 307.31 165.829L306.933 166.341L306.84 166.486L306.811 166.557L306.779 166.594L307.224 166.526C307.807 166.448 308.39 166.369 308.975 166.325L309.216 166.307L309.423 166.291L309.839 166.295C310.115 166.274 310.393 166.288 310.637 166.304L310.74 166.296L310.843 166.288L310.949 166.315L311.37 166.387L311.579 166.405L311.685 166.432L311.754 166.427L311.788 166.424C311.788 166.424 311.789 166.424 311.786 166.39L311.789 165.975L311.792 165.561L311.806 165.284L311.844 164.866C311.871 164.312 311.932 163.755 311.994 163.198C312.056 162.641 312.081 162.052 312.034 161.434C312.01 161.125 311.99 160.851 311.93 160.51C311.919 160.373 311.874 160.238 311.829 160.103L311.779 159.9L311.737 159.8L311.734 159.765C311.734 159.765 311.734 159.765 311.7 159.768L311.631 159.773L310.903 159.759L307.504 159.704L305.806 159.694C305.216 159.669 304.696 159.674 304.14 159.647C303.583 159.619 302.993 159.595 302.373 159.641C302.235 159.652 302.063 159.665 301.928 159.709C301.824 159.717 301.687 159.728 301.549 159.738C301.411 159.748 301.204 159.764 300.969 159.851C300.733 159.937 300.542 160.159 300.452 160.338C300.236 160.7 300.228 161.046 300.183 161.36C300.172 161.671 300.195 161.98 300.181 162.257L300.212 162.669C300.22 162.772 300.196 162.912 300.206 163.05L300.203 163.913C300.207 164.43 300.214 164.982 300.253 165.497C300.256 165.532 300.293 165.563 300.293 165.563C300.481 165.756 300.621 165.78 300.759 165.77C300.592 165.851 300.844 165.971 301.752 166.075C302.242 166.142 302.835 166.2 303.325 166.267C303.431 166.294 303.569 166.283 303.641 166.312C303.747 166.339 303.816 166.334 303.884 166.329C304.024 166.353 304.128 166.345 304.128 166.345C304.303 166.366 304.512 166.385 304.718 166.369C304.822 166.362 304.928 166.388 305.031 166.38C305.169 166.37 305.307 166.36 305.478 166.347C305.548 166.342 305.648 166.299 305.717 166.294C305.786 166.289 305.918 166.21 305.985 166.171C306.282 165.976 306.473 165.754 306.632 165.569L306.823 165.348C306.887 165.274 306.919 165.237 307.014 165.126L307.396 164.683C307.651 164.388 307.908 164.127 308.166 163.866C308.423 163.605 308.718 163.376 308.983 163.218C309.115 163.139 309.25 163.094 309.354 163.086C309.388 163.084 309.423 163.081 309.423 163.081C309.423 163.081 309.423 163.081 309.457 163.078L309.494 163.11C309.494 163.11 309.494 163.11 309.497 163.144C309.369 163.292 309.34 163.363 309.279 163.471ZM310.278 162.947C310.234 162.813 310.189 162.678 310.077 162.583C309.964 162.453 309.818 162.361 309.641 162.305C309.463 162.249 309.288 162.228 309.151 162.238C308.841 162.262 308.607 162.383 308.408 162.501C308.011 162.738 307.719 163.002 307.396 163.303C307.106 163.601 306.852 163.896 306.597 164.191L306.215 164.634C306.183 164.671 306.087 164.782 306.024 164.856L305.833 165.077C305.705 165.225 305.544 165.375 305.445 165.452C305.379 165.491 305.379 165.491 305.279 165.533C305.21 165.538 305.109 165.581 305.04 165.586C305.005 165.588 304.937 165.594 304.903 165.596L304.868 165.599L304.799 165.604L304.696 165.612C304.524 165.625 304.383 165.601 304.209 165.579C304.209 165.579 304.036 165.592 303.793 165.576C303.517 165.597 303.207 165.62 302.895 165.609C302.275 165.656 301.62 165.705 301.689 165.7C301.345 165.726 301.072 165.781 300.867 165.831C300.966 165.754 301.03 165.68 301.091 165.572C301.122 165.535 301.122 165.535 301.12 165.501C301.083 165.021 301.079 164.503 301.077 164.02L301.083 163.191C301.073 163.053 301.097 162.914 301.084 162.742L301.05 162.296C301.029 162.021 301.008 161.746 301.025 161.504C301.041 161.261 301.091 161.015 301.152 160.907C301.182 160.836 301.216 160.833 301.248 160.796C301.282 160.794 301.383 160.752 301.487 160.744C301.625 160.733 301.762 160.723 301.935 160.71C302.072 160.7 302.207 160.655 302.311 160.647C302.827 160.608 303.384 160.636 303.94 160.663C304.496 160.69 305.119 160.678 305.64 160.707L307.338 160.718L310.702 160.775L310.806 160.767C310.859 161.005 310.879 161.28 310.9 161.554C310.939 162.069 310.912 162.624 310.85 163.181C310.823 163.735 310.761 164.292 310.702 164.883L310.667 165.335L310.677 165.472L310.537 165.448C310.225 165.437 309.946 165.424 309.634 165.413C309.496 165.423 309.358 165.433 309.183 165.412L308.77 165.443L308.834 165.369C309.025 165.148 309.219 164.96 309.407 164.705C309.598 164.483 309.786 164.227 309.935 163.905C310.028 163.76 310.084 163.584 310.1 163.341C310.299 163.222 310.289 163.085 310.278 162.947Z" fill="#F4774C"/>
<path d="M319.496 172.127C319.303 171.865 319.113 171.638 318.89 171.448C318.779 171.352 318.668 171.257 318.525 171.199C318.52 171.13 318.446 171.067 318.301 170.974C318.046 170.821 317.692 170.709 317.692 170.709C317.692 170.709 317.135 170.682 316.582 170.689C316.303 170.676 316.028 170.696 315.819 170.678C315.784 170.68 315.715 170.685 315.681 170.688C315.676 170.619 315.708 170.582 315.703 170.514C315.836 169.537 315.936 168.114 315.936 168.114L315.94 167.251L315.926 165.698C315.927 165.249 315.893 164.803 315.897 164.389C316.519 164.376 317.454 164.375 317.454 164.375C317.454 164.375 317.488 164.372 317.557 164.367L317.568 165.885L317.581 166.506L317.601 167.229C317.601 167.229 317.764 169.841 317.791 169.735C317.903 170.762 318.127 171.436 318.312 169.765C318.447 168.788 318.547 167.365 318.547 167.365L318.55 166.502L318.538 165.881L318.524 164.329C318.522 164.295 318.485 164.263 318.485 164.263C318.411 164.199 318.371 164.133 318.297 164.07C318.392 163.959 318.382 163.822 318.096 163.705C318.13 163.703 318.13 163.703 318.128 163.668C318.361 163.547 318.52 163.362 318.124 163.151C317.869 162.997 317.551 162.918 317.551 162.918C317.551 162.918 315.891 162.939 315.543 162.931C315.568 162.791 315.62 162.58 315.637 162.337C315.768 161.326 315.833 159.905 315.833 159.905L315.803 159.045L315.753 157.46C315.753 157.012 315.722 156.6 315.723 156.151C316.311 156.141 317.383 156.129 317.383 156.129C317.383 156.129 317.518 156.085 317.653 156.04L317.662 157.524L317.687 158.765L317.707 159.488C317.707 159.488 317.87 162.1 317.897 161.994C318.01 163.021 318.234 163.695 318.419 162.024C318.553 161.047 318.652 159.624 318.652 159.624L318.657 158.761L318.666 157.517L318.652 155.965C318.65 155.93 318.613 155.899 318.613 155.899C318.499 155.769 318.388 155.674 318.282 155.647C318.277 155.579 318.2 155.481 318.057 155.423C317.803 155.269 317.485 155.189 317.485 155.189C317.485 155.189 315.443 155.205 315.409 155.208C315.409 155.208 315.411 155.242 315.377 155.245C315.35 155.35 315.324 155.456 315.331 155.559C315.122 155.54 314.96 155.69 314.868 155.835C314.835 155.872 314.835 155.872 314.838 155.907C314.851 156.078 314.827 156.218 314.84 156.39C314.549 156.205 314.289 156.431 314.198 156.611C314.167 156.648 314.167 156.648 314.169 156.682L314.183 158.234L314.238 166.274L314.258 166.998C314.258 166.998 314.422 169.609 314.448 169.503C314.467 169.744 314.516 169.947 314.53 170.119C314.352 170.063 314.143 170.044 313.828 169.999C312.845 169.831 311.415 169.697 311.415 169.697L305.905 169.663C304.898 169.635 303.86 169.644 302.851 169.582L302.085 169.536C301.807 169.523 301.566 169.541 301.288 169.527C300.768 169.532 300.25 169.536 299.765 169.538C299.246 169.543 298.758 169.511 298.268 169.444C298.234 169.447 298.202 169.483 298.202 169.483C298.003 169.602 297.907 169.713 297.883 169.853C297.939 169.676 297.955 169.433 297.998 169.084C298.132 168.108 298.232 166.685 298.232 166.685L298.236 165.821L298.188 158.334L298.192 157.021L299.3 157.007C300.304 157.001 301.305 156.96 302.309 156.953C302.794 156.951 303.313 156.947 303.801 156.979C304.288 157.011 304.81 157.041 305.329 157.037C306.336 157.064 307.374 157.055 308.375 157.014L309.896 156.969L310.898 156.928C310.898 156.928 313.507 156.628 313.369 156.639C314.397 156.492 315.071 156.234 313.365 156.121C312.353 156.025 310.931 155.994 310.931 155.994L309.998 156.029L308.477 156.075C307.442 156.118 306.438 156.125 305.431 156.097C304.912 156.101 304.425 156.069 303.903 156.039C303.381 156.009 302.862 156.014 302.342 156.019C301.304 156.028 300.266 156.037 299.264 156.078L297.741 156.089C297.707 156.091 297.675 156.128 297.675 156.128C297.478 156.281 297.42 156.424 297.431 156.561L297.444 156.284C297.442 156.249 297.404 156.218 297.404 156.218C297.404 156.218 297.402 156.183 297.368 156.186C297.399 156.149 297.431 156.112 297.463 156.075C297.489 155.97 297.413 155.872 297.199 155.784C296.945 155.631 296.555 155.522 296.555 155.522C296.174 155.516 295.758 155.513 295.376 155.507C295.17 155.523 294.995 155.501 294.788 155.517C294.685 155.525 294.582 155.533 294.478 155.54C294.409 155.545 294.375 155.548 294.306 155.553C294.272 155.556 294.237 155.558 294.203 155.561C294.168 155.564 294.168 155.564 294.102 155.603C294.068 155.606 294.036 155.643 294.036 155.643C293.935 155.685 293.84 155.796 293.813 155.901L293.784 155.972L293.789 156.041C293.791 156.075 293.794 156.11 293.796 156.144C293.799 156.178 293.799 156.178 293.802 156.213C293.805 156.247 293.841 156.279 293.844 156.313C293.881 156.345 293.884 156.379 293.918 156.377L293.926 157.86L293.925 159.207L293.945 159.93C293.945 159.93 294.108 162.542 294.135 162.436C294.206 162.914 294.269 163.289 294.348 163.421C294.353 163.49 294.356 163.524 294.361 163.593C294.361 163.593 294.363 163.627 294.329 163.63C294.305 163.77 294.283 163.944 294.292 164.047C294.122 164.094 294.026 164.205 293.965 164.313C293.934 164.35 293.934 164.35 293.936 164.384L293.95 165.937L293.968 166.626L293.987 167.35C293.987 167.35 294.151 169.961 294.178 169.855C294.201 170.164 294.256 170.436 294.306 170.64L294.308 170.674C294.224 170.922 294.239 171.128 294.253 171.3C294.186 171.339 294.151 171.342 294.085 171.381C293.854 171.537 293.661 171.724 293.467 171.911C293.311 172.13 293.152 172.315 293.032 172.565C292.79 173.032 292.62 173.529 292.553 174.017L292.502 174.262C292.507 174.331 292.478 174.402 292.483 174.471L292.465 174.679L292.48 174.885C292.48 174.885 292.483 174.92 292.491 175.023C292.496 175.091 292.506 175.229 292.552 175.363C292.607 175.635 292.773 176.003 293.002 176.296C293.233 176.589 293.527 176.809 293.744 176.931C293.961 177.052 294.103 177.111 294.101 177.076C294.636 177.278 295.086 177.278 295.187 177.236C295.221 177.234 295.218 177.199 295.216 177.165C295.351 177.12 295.484 177.041 295.545 176.933C295.577 176.896 295.577 176.896 295.574 176.862L295.614 176.479L295.636 176.305L295.658 176.131L295.697 175.748L295.308 175.639C295.237 175.61 295.168 175.615 295.131 175.583L295.06 175.554C294.986 175.491 294.914 175.462 294.84 175.398C294.689 175.237 294.533 175.007 294.446 174.772C294.404 174.672 294.394 174.534 294.386 174.431L294.37 174.225L294.391 174.051C294.458 173.563 294.777 173.194 295.246 172.986C295.482 172.899 295.755 172.844 295.996 172.826C296.271 172.805 296.483 172.858 296.698 172.945C296.912 173.033 297.063 173.194 297.182 173.392C297.301 173.59 297.387 173.826 297.371 174.068C297.408 174.549 297.206 175.082 296.811 175.353L296.779 175.39L296.745 175.393L296.712 175.43L296.514 175.548L296.315 175.667L296.283 175.704L296.249 175.706L296.251 175.741L296.294 175.841C296.339 175.976 296.386 176.145 296.43 176.28L296.523 176.583C296.615 176.887 296.707 177.191 296.8 177.495L296.887 177.73L296.922 177.727L296.953 177.69L297.051 177.614C297.184 177.535 297.316 177.456 297.446 177.342L297.841 177.071C297.874 177.034 297.907 177.032 297.94 176.995L298.004 176.921L298.101 176.844C298.231 176.731 298.361 176.618 298.488 176.47C298.712 176.212 298.929 175.884 299.078 175.563C299.373 174.884 299.417 174.087 299.19 173.379C298.945 172.431 298.292 171.583 297.392 171.132C297.522 171.019 297.511 170.882 297.223 170.731C297.114 170.67 296.971 170.612 296.865 170.585C296.934 170.58 297.014 170.263 297.099 169.566C297.233 168.59 297.334 167.167 297.334 167.167L297.337 166.303L297.335 165.82L297.322 164.268C297.319 164.233 297.282 164.202 297.282 164.202C297.205 164.104 297.131 164.04 297.06 164.011C297.055 163.943 297.012 163.842 296.832 163.752C297.002 163.705 297.412 163.639 297.412 163.639C297.447 163.637 297.447 163.637 297.479 163.6L297.503 165.739L297.523 166.462C297.523 166.462 297.686 169.074 297.713 168.968C297.807 169.755 297.954 170.331 298.087 169.803C298.09 169.837 298.093 169.871 298.095 169.906C298.108 170.077 298.222 170.207 298.33 170.268C298.367 170.3 298.367 170.3 298.402 170.297C298.926 170.361 299.483 170.388 300.002 170.384C300.383 170.389 300.762 170.361 301.144 170.367C301.085 170.509 301.064 170.683 301.072 170.786C300.934 170.797 300.836 170.873 300.769 170.913C300.735 170.915 300.735 170.915 300.737 170.95C300.743 171.018 300.862 174.876 300.862 174.876C300.862 174.876 301.056 176.07 301.086 175.998C301.127 176.099 301.138 176.236 301.177 176.302C301.066 176.656 301.155 176.925 301.235 177.057L301.238 177.092C301.211 177.197 301.216 177.266 301.221 177.335C301.078 177.276 300.975 177.284 300.909 177.324C300.874 177.326 300.874 177.326 300.877 177.36C300.851 177.466 300.789 178.023 300.798 178.609C300.773 179.198 300.781 179.75 300.781 179.75C300.781 179.75 300.936 180.428 300.968 180.392C300.968 180.392 300.968 180.392 300.97 180.426C300.658 180.415 300.314 180.441 299.972 180.501C299.664 180.559 299.323 180.619 298.989 180.782C298.922 180.822 298.822 180.864 298.758 180.938L298.625 181.017L298.53 181.127C298.402 181.275 298.278 181.457 298.222 181.634C298.076 181.99 298.07 182.37 298.098 182.748C298.162 183.123 298.294 183.493 298.593 183.781C298.706 183.911 298.889 184.035 299.066 184.091C299.28 184.178 299.453 184.165 299.593 184.189C299.906 184.2 300.178 184.145 300.419 184.127C300.454 184.124 300.486 184.087 300.486 184.087C300.648 183.937 300.707 183.795 300.696 183.657C300.733 183.689 300.768 183.686 300.839 183.716C301.014 183.737 301.257 183.753 301.678 183.825C302.168 183.892 302.765 183.985 303.252 184.017C303.741 184.084 304.12 184.055 304.12 184.055C304.292 184.042 304.43 184.032 304.6 183.985L304.839 183.932L304.976 183.922L305.045 183.917L305.146 183.875C305.451 183.783 305.825 183.685 306.151 183.419C306.248 183.343 306.342 183.198 306.403 183.09L306.405 183.124C306.482 183.222 306.522 183.288 306.598 183.386C306.672 183.449 306.746 183.512 306.82 183.576C307.111 183.761 307.429 183.841 307.675 183.891C307.957 183.939 308.237 183.987 308.48 184.003C308.515 184.001 308.547 183.964 308.547 183.964C308.778 183.808 308.87 183.663 308.86 183.526C308.895 183.523 308.931 183.555 309 183.55C309.175 183.571 309.419 183.588 309.835 183.591C310.325 183.657 310.921 183.751 311.408 183.783C311.896 183.815 312.275 183.787 312.275 183.787C312.447 183.774 312.616 183.727 312.754 183.716C312.823 183.711 312.923 183.669 312.992 183.664L313.128 183.619C313.162 183.617 313.162 183.617 313.197 183.614L313.297 183.572C313.568 183.482 313.936 183.317 314.191 183.021C314.445 182.726 314.589 182.335 314.558 181.923C314.542 181.717 314.494 181.548 314.447 181.379C314.365 181.213 314.318 181.044 314.204 180.914C314.009 180.618 313.643 180.37 313.291 180.293C312.939 180.216 312.627 180.205 312.351 180.225C312.213 180.236 312.073 180.212 311.935 180.222C312.002 180.183 312.031 180.111 312.092 180.003C312.211 179.752 312.22 179.407 312.22 179.407C312.22 179.407 312.209 179.269 312.162 179.1C312.115 178.931 312.093 178.657 312.041 178.419C312.023 178.179 311.97 177.941 311.991 177.767C311.979 177.595 312.005 177.489 312.002 177.455C312.002 177.455 311.968 177.458 311.966 177.423C311.717 177.339 311.473 177.322 311.303 177.37C311.263 177.304 311.155 177.243 311.012 177.184C310.724 177.034 310.3 176.927 310.3 176.927C310.3 176.927 310.125 176.906 309.884 176.924C309.64 176.908 309.294 176.9 308.946 176.891C308.599 176.883 308.22 176.911 307.945 176.932C307.91 176.935 307.876 176.937 307.841 176.94C307.839 176.905 307.836 176.871 307.802 176.874L307.8 176.839C308.525 176.819 310.639 176.833 310.639 176.833C310.639 176.833 311.562 176.66 311.527 176.662C311.9 176.565 312.126 176.341 311.522 176.145C311.165 175.999 310.672 175.898 310.672 175.898C310.672 175.898 308.871 175.896 308.007 175.926C308.009 175.028 307.984 171.958 307.984 171.958C307.984 171.958 307.887 171.137 307.832 170.865C308.558 170.844 310.531 170.834 310.531 170.834C310.531 170.834 310.838 170.776 311.077 170.724C311.085 170.827 311.097 170.998 311.114 171.204C311.142 171.582 311.144 172.065 311.146 172.548C311.148 173.032 311.153 173.549 311.147 173.929C311.141 174.309 311.159 174.55 311.159 174.55C311.159 174.55 311.164 174.618 311.209 174.753C311.216 174.856 311.264 175.025 311.309 175.16C311.367 175.466 311.491 175.733 311.491 175.733C311.578 175.968 311.731 176.164 311.8 176.158C311.906 176.185 311.965 176.043 312.005 175.66C312.021 175.417 312.069 175.137 312.088 174.929C312.107 174.72 312.129 174.546 312.129 174.546C312.129 174.546 312.11 174.305 312.116 173.925C312.122 173.545 312.12 173.062 312.115 172.544C312.111 172.027 312.106 171.509 312.075 171.097C312.043 170.686 311.988 170.413 311.988 170.413C312.195 170.398 312.436 170.38 312.68 170.396C313.302 170.384 313.922 170.337 313.888 170.34C314.232 170.314 314.508 170.293 314.712 170.243C314.796 170.444 314.868 170.473 314.948 170.156L314.945 170.122C314.967 169.948 315.02 169.737 315.063 169.388C315.103 169.005 315.141 168.588 315.181 168.205C315.233 168.892 315.316 170.439 315.345 170.368C315.363 170.608 315.413 170.812 315.427 170.983C315.193 171.104 314.962 171.26 314.766 171.413C314.278 171.829 313.941 172.407 313.813 173.004C313.754 173.146 313.733 173.32 313.743 173.458L313.722 173.632C313.725 173.666 313.725 173.666 313.727 173.7L313.711 173.943L313.729 174.184L313.747 174.424C313.747 174.424 313.75 174.458 313.792 174.559C313.797 174.627 313.842 174.762 313.884 174.862C313.974 175.132 314.104 175.467 314.334 175.761C314.727 176.387 315.31 176.757 315.27 176.691C315.744 177.001 316.234 177.068 316.334 177.026C316.369 177.023 316.366 176.989 316.326 176.923C316.536 176.941 316.697 176.791 316.79 176.646C316.822 176.609 316.822 176.609 316.82 176.575L316.808 175.505L316.8 175.402L316.798 175.368L316.763 175.371L316.586 175.315C316.48 175.288 316.339 175.264 316.199 175.241L316.093 175.214C316.059 175.217 316.056 175.182 316.021 175.185C315.985 175.153 315.95 175.156 315.913 175.124C315.767 175.031 315.656 174.936 315.609 174.767C315.562 174.598 315.548 174.426 315.568 174.218C315.64 173.798 315.886 173.4 316.176 173.102C316.499 172.801 316.902 172.633 317.283 172.639C317.318 172.636 317.387 172.631 317.424 172.663C317.458 172.66 317.53 172.689 317.564 172.687C317.636 172.716 317.742 172.742 317.816 172.806C317.996 172.896 318.146 173.057 318.263 173.221C318.495 173.549 318.598 173.99 318.483 174.309C318.457 174.415 318.422 174.417 318.393 174.488C318.362 174.525 318.295 174.565 318.162 174.644C318.065 174.72 317.864 174.805 317.704 174.989C317.643 175.097 317.579 175.171 317.518 175.279C317.457 175.387 317.43 175.493 317.438 175.596C317.419 175.805 317.432 175.976 317.48 176.145C317.487 176.248 317.582 176.586 317.701 176.785L317.865 177.117L317.947 177.284L317.949 177.318L317.982 177.281L318.082 177.239L318.417 177.076C318.517 177.034 318.649 176.955 318.748 176.878C319.013 176.72 319.076 176.646 319.209 176.567C319.305 176.457 319.435 176.343 319.53 176.233C319.756 176.008 319.907 175.721 320.024 175.436C320.141 175.151 320.221 174.834 320.269 174.554C320.315 174.24 320.326 173.929 320.27 173.657C320.064 173.223 319.845 172.619 319.496 172.127ZM298.126 173.977C298.114 173.805 298.098 173.599 298.051 173.43C298.093 173.531 298.098 173.599 298.14 173.7C298.285 174.241 298.256 174.761 298.051 175.26C297.931 175.511 297.809 175.727 297.615 175.914C297.52 176.025 297.422 176.102 297.326 176.212L297.228 176.289L297.18 176.12L297.247 176.08C297.865 175.55 298.149 174.735 298.126 173.977ZM294.391 176.33L294.499 176.391L294.502 176.425L294.496 176.805C294.422 176.742 294.316 176.715 294.242 176.652C294.059 176.527 293.874 176.369 293.721 176.173C293.567 175.977 293.448 175.779 293.401 175.61C293.319 175.444 293.307 175.272 293.296 175.135C293.285 174.997 293.28 174.929 293.28 174.929C293.267 174.757 293.254 174.585 293.276 174.411L293.281 174.48C293.296 174.686 293.346 174.889 293.394 175.058C293.526 175.428 293.724 175.758 293.989 176.049C294.097 176.11 294.245 176.237 294.391 176.33ZM296.622 171.95C296.516 171.923 296.445 171.894 296.339 171.868L296.058 171.82C295.955 171.828 295.886 171.833 295.78 171.806C295.401 171.835 295.059 171.895 294.691 172.061C294.455 172.148 294.225 172.303 294.028 172.456C294.123 172.345 294.222 172.269 294.32 172.192C294.614 171.963 294.983 171.797 295.396 171.766C295.809 171.735 296.228 171.772 296.585 171.918C296.588 171.953 296.622 171.95 296.622 171.95ZM296.411 169.618C296.484 170.131 296.552 170.574 296.626 170.638C296.484 170.579 296.415 170.585 296.415 170.585C296.415 170.585 295.03 170.585 294.441 170.595C294.463 170.421 294.513 170.175 294.559 169.861C294.693 168.884 294.792 167.462 294.792 167.462L294.797 166.598L294.779 165.909L294.776 164.494C295.329 164.487 296.127 164.496 296.127 164.496C296.127 164.496 296.161 164.493 296.228 164.454L296.231 165.869L296.233 166.352L296.253 167.075C296.221 167.112 296.384 169.724 296.411 169.618ZM296.417 157.811L296.407 159.055L296.393 159.781C296.393 159.781 296.442 160.433 296.458 161.088C296.507 161.74 296.554 162.358 296.549 162.289C296.566 162.529 296.616 162.733 296.629 162.904C296.595 162.907 296.558 162.875 296.558 162.875C296.558 162.875 296.002 162.848 295.411 162.823C295.133 162.81 294.82 162.799 294.614 162.814C294.545 162.82 294.476 162.825 294.407 162.83C294.434 162.724 294.426 162.621 294.45 162.482C294.584 161.505 294.684 160.082 294.684 160.082L294.687 159.218L294.69 157.872L294.686 156.457C294.859 156.444 295.033 156.465 295.205 156.452C295.587 156.458 295.968 156.464 296.35 156.47C296.35 156.47 296.35 156.47 296.384 156.467L296.417 157.811ZM297.238 163.169C297.13 163.108 297.058 163.079 296.987 163.05C297.008 162.876 297.062 162.665 297.073 162.353C297.11 161.936 297.18 161.482 297.215 161.031L297.238 163.169ZM301.335 176.083C301.473 175.624 301.529 174.998 301.529 174.998C301.529 174.998 301.427 172.279 301.389 171.315C302.289 171.316 304.019 171.29 304.019 171.29C304.019 171.29 304.464 171.222 304.737 171.166C304.71 171.272 304.724 171.444 304.702 171.618C304.699 172.032 304.669 172.553 304.708 173.067C304.712 173.585 304.751 174.1 304.78 174.477C304.809 174.855 304.827 175.095 304.827 175.095C304.827 175.095 304.885 175.402 304.942 175.708C305 176.014 305.056 176.286 305.053 176.252C305.095 176.352 305.103 176.455 305.143 176.522C305.106 176.49 305.034 176.461 304.928 176.434C304.571 176.288 304.079 176.187 304.079 176.187C304.079 176.187 302.036 176.203 301.239 176.194C301.307 176.189 301.34 176.152 301.335 176.083ZM301.48 179.835C301.48 179.835 301.473 179.283 301.498 178.695C301.511 178.417 301.525 178.14 301.544 177.932C301.539 177.863 301.536 177.829 301.567 177.792L301.602 177.789C301.88 177.803 302.227 177.811 302.606 177.783C303.335 177.797 304.063 177.811 304.063 177.811C304.063 177.811 304.646 177.733 304.85 177.683C304.82 177.754 304.826 177.823 304.826 177.823C304.826 177.823 304.84 179.375 304.854 180.03C304.643 179.977 304.433 179.958 304.433 179.958C304.433 179.958 302.425 179.971 301.49 179.973C301.485 179.904 301.48 179.835 301.48 179.835ZM305.373 182.753C305.277 182.864 305.113 182.98 304.874 183.032C304.773 183.074 304.604 183.121 304.569 183.124C304.5 183.129 304.432 183.134 304.365 183.174C304.228 183.184 304.093 183.229 303.954 183.239C303.954 183.239 303.817 183.25 303.578 183.302C303.338 183.32 303.028 183.344 302.718 183.367C302.095 183.379 301.44 183.429 301.509 183.423C300.993 183.462 300.588 183.596 300.492 183.707L300.489 183.673C300.444 183.538 300.296 183.411 300.188 183.35C300.151 183.319 300.151 183.318 300.116 183.321C299.841 183.342 299.6 183.36 299.393 183.376C299.29 183.383 299.184 183.357 299.184 183.357C299.147 183.325 299.075 183.296 299.036 183.23C298.811 183.005 298.7 182.461 298.846 182.105C298.873 181.999 298.936 181.925 298.966 181.854C298.997 181.817 299.061 181.743 299.162 181.701C299.326 181.585 299.565 181.533 299.806 181.515C300.32 181.442 300.876 181.469 301.496 181.422C302.082 181.378 302.635 181.371 303.221 181.327C303.496 181.306 303.775 181.32 304.053 181.333C304.331 181.347 304.609 181.36 304.821 181.413C305.033 181.467 305.141 181.527 305.257 181.691C305.297 181.757 305.34 181.858 305.382 181.958C305.424 182.059 305.434 182.196 305.476 182.296C305.493 182.502 305.468 182.642 305.373 182.753ZM305.017 177.152L304.986 177.189C304.951 177.192 304.914 177.16 304.914 177.16C304.808 177.134 304.7 177.073 304.628 177.044C304.832 176.994 305.036 176.944 305.036 176.944C305.105 176.939 305.137 176.902 305.206 176.896C305.105 176.939 305.076 177.01 305.017 177.152ZM312.082 181.247C312.36 181.26 312.601 181.242 312.81 181.261C313.02 181.28 313.13 181.375 313.244 181.504C313.358 181.634 313.443 181.835 313.49 182.004C313.551 182.344 313.399 182.632 312.994 182.766C312.893 182.808 312.758 182.853 312.689 182.858L312.485 182.908C312.35 182.953 312.212 182.963 312.074 182.973C312.074 182.973 311.939 183.018 311.698 183.036C311.457 183.054 311.147 183.078 310.837 183.101C310.215 183.113 309.56 183.163 309.631 183.192C309.117 183.265 308.712 183.399 308.616 183.51C308.606 183.373 308.492 183.243 308.384 183.182C308.347 183.15 308.347 183.15 308.312 183.153C308.069 183.137 307.822 183.086 307.576 183.036C307.364 182.983 307.152 182.93 307.007 182.837C306.862 182.744 306.822 182.678 306.812 182.541C306.801 182.404 306.886 182.156 306.942 181.979C307.003 181.871 307.133 181.757 307.332 181.639C307.533 181.555 307.769 181.468 308.007 181.415C308.485 181.31 308.998 181.237 309.552 181.23C310.069 181.191 310.625 181.218 311.144 181.214C311.529 181.254 311.806 181.267 312.082 181.247ZM307.879 178.801C307.855 178.492 307.869 178.215 307.853 178.009C307.888 178.007 307.888 178.007 307.922 178.004C308.163 177.986 308.473 177.962 308.786 177.973C309.098 177.984 309.446 177.993 309.689 178.009C309.933 178.025 310.105 178.012 310.105 178.012C310.105 178.012 310.309 177.962 310.516 177.947C310.72 177.897 310.926 177.881 310.89 177.85L310.924 177.847C310.926 177.881 310.929 177.916 310.931 177.95C310.948 178.156 310.968 178.431 311.021 178.668C311.076 178.94 311.094 179.181 311.141 179.35C311.189 179.519 311.2 179.656 311.2 179.656C311.2 179.656 311.279 179.788 311.324 179.923C311.403 180.055 311.448 180.19 311.448 180.19C311.448 180.19 311.45 180.224 311.484 180.221C311.128 180.076 310.635 179.975 310.635 179.975C310.635 179.975 308.696 179.983 307.901 180.008C307.896 179.939 307.922 179.834 307.912 179.696C307.857 179.424 307.868 179.113 307.879 178.801ZM307.138 170.848C307.002 171.341 306.914 172.004 306.914 172.004C306.914 172.004 306.956 176.213 306.961 176.281L306.997 176.313C307.106 176.374 307.212 176.4 307.318 176.427C307.326 176.53 307.333 176.633 307.339 176.701C307.272 176.741 307.243 176.812 307.182 176.92C307.028 177.174 306.922 177.596 306.922 177.596C306.922 177.596 306.932 177.733 306.916 177.976C306.931 178.182 306.92 178.494 306.944 178.803C306.964 179.077 306.953 179.389 306.934 179.597C306.916 179.806 306.892 179.946 306.892 179.946L306.928 179.977C307.109 180.068 307.249 180.091 307.39 180.115C307.305 180.363 307.32 180.569 307.365 180.704C307.264 180.746 307.163 180.788 307.063 180.83C306.763 180.991 306.432 181.189 306.251 181.547C306.251 181.547 306.253 181.582 306.219 181.584C306.177 181.484 306.169 181.381 306.095 181.318C306.013 181.151 305.894 180.953 305.711 180.829C305.638 180.765 305.526 180.67 305.421 180.643C305.622 180.559 305.717 180.448 305.606 180.353L305.641 180.351C305.675 180.348 305.675 180.348 305.675 180.348C305.672 180.314 305.663 177.898 305.663 177.898C305.663 177.898 305.502 177.15 305.47 177.187C305.388 177.021 305.31 176.889 305.206 176.896C305.272 176.857 305.338 176.817 305.333 176.749C305.405 176.778 305.498 176.633 305.573 176.247C305.674 175.757 305.728 175.097 305.728 175.097C305.728 175.097 305.709 174.856 305.678 174.444C305.65 174.067 305.611 173.552 305.609 173.069C305.604 172.551 305.602 172.068 305.608 171.688C305.614 171.308 305.664 171.062 305.664 171.062L305.628 171.03C305.516 170.935 305.374 170.877 305.27 170.885C305.265 170.816 305.154 170.721 304.907 170.67C304.836 170.641 304.765 170.612 304.659 170.586C305.006 170.594 305.318 170.605 305.665 170.613L307.191 170.637C307.225 170.634 307.162 170.708 307.138 170.848ZM315.076 161.792C315.1 162.101 315.118 162.341 315.115 162.307C315.154 162.822 315.222 163.266 315.331 163.326C315.368 163.358 315.368 163.358 315.4 163.321C315.402 163.356 315.405 163.39 315.407 163.424C315.407 163.424 315.407 163.424 315.373 163.427L315.341 163.464C315.315 163.569 315.288 163.675 315.296 163.778C315.195 163.82 315.129 163.859 315.065 163.933L315.076 161.792ZM315.581 176.219L315.687 176.246L315.694 176.349L315.686 176.695C315.612 176.631 315.501 176.536 315.424 176.438C315.273 176.277 315.119 176.081 314.964 175.851C314.964 175.851 314.964 175.851 314.961 175.817C315.038 175.915 315.147 175.976 315.255 176.037C315.329 176.1 315.4 176.129 315.472 176.158C315.509 176.19 315.546 176.222 315.581 176.219ZM317.753 171.982C317.681 171.953 317.576 171.926 317.504 171.897C317.433 171.868 317.33 171.876 317.258 171.847C316.909 171.804 316.566 171.864 316.265 171.99C315.962 172.117 315.663 172.277 315.438 172.501C314.949 172.918 314.612 173.496 314.486 174.127C314.486 174.127 314.486 174.127 314.484 174.092C314.479 174.024 314.474 173.955 314.469 173.886L314.461 173.783L314.458 173.749L314.482 173.609C314.552 173.155 314.727 172.728 315.014 172.395C315.175 172.245 315.337 172.095 315.536 171.976C315.735 171.858 315.936 171.773 316.175 171.721C316.617 171.619 317.1 171.582 317.526 171.723C317.949 171.829 318.352 172.11 318.622 172.469C318.772 172.63 318.894 172.863 318.979 173.064C318.976 173.029 318.939 172.997 318.936 172.963C318.775 172.665 318.516 172.442 318.259 172.255C318.077 172.13 317.93 172.038 317.753 171.982ZM319.095 175.057C318.954 175.482 318.67 175.849 318.309 176.117C318.243 176.157 318.277 176.154 318.243 176.157L318.237 176.088L318.232 176.02C318.23 175.985 318.224 175.917 318.222 175.882C318.217 175.814 318.246 175.742 318.243 175.708C318.273 175.637 318.275 175.671 318.339 175.597C318.405 175.558 318.572 175.476 318.737 175.36C318.901 175.244 319.06 175.06 319.15 174.88C319.18 174.809 319.209 174.738 319.206 174.703C319.148 174.846 319.121 174.952 319.095 175.057Z" fill="#F4774C"/>
</g>
<defs>
<filter id="filter0_d_1065_8453" x="106" y="2" width="387" height="249.436" filterUnits="userSpaceOnUse" color-interpolation-filters="sRGB">
<feFlood flood-opacity="0" result="BackgroundImageFix"/>
<feColorMatrix in="SourceAlpha" type="matrix" values="0 0 0 0 0 0 0 0 0 0 0 0 0 0 0 0 0 0 127 0" result="hardAlpha"/>
<feOffset/>
<feGaussianBlur stdDeviation="12.5"/>
<feComposite in2="hardAlpha" operator="out"/>
<feColorMatrix type="matrix" values="0 0 0 0 0 0 0 0 0 0 0 0 0 0 0 0 0 0 0.11 0"/>
<feBlend mode="normal" in2="BackgroundImageFix" result="effect1_dropShadow_1065_8453"/>
<feBlend mode="normal" in="SourceGraphic" in2="effect1_dropShadow_1065_8453" result="shape"/>
</filter>
<filter id="filter1_d_1065_8453" x="43" y="129.034" width="290.178" height="83.6748" filterUnits="userSpaceOnUse" color-interpolation-filters="sRGB">
<feFlood flood-opacity="0" result="BackgroundImageFix"/>
<feColorMatrix in="SourceAlpha" type="matrix" values="0 0 0 0 0 0 0 0 0 0 0 0 0 0 0 0 0 0 127 0" result="hardAlpha"/>
<feOffset/>
<feGaussianBlur stdDeviation="12.5"/>
<feComposite in2="hardAlpha" operator="out"/>
<feColorMatrix type="matrix" values="0 0 0 0 0 0 0 0 0 0 0 0 0 0 0 0 0 0 0.11 0"/>
<feBlend mode="normal" in2="BackgroundImageFix" result="effect1_dropShadow_1065_8453"/>
<feBlend mode="normal" in="SourceGraphic" in2="effect1_dropShadow_1065_8453" result="shape"/>
</filter>
<filter id="filter2_d_1065_8453" x="0" y="171.68" width="260.064" height="83.6748" filterUnits="userSpaceOnUse" color-interpolation-filters="sRGB">
<feFlood flood-opacity="0" result="BackgroundImageFix"/>
<feColorMatrix in="SourceAlpha" type="matrix" values="0 0 0 0 0 0 0 0 0 0 0 0 0 0 0 0 0 0 127 0" result="hardAlpha"/>
<feOffset/>
<feGaussianBlur stdDeviation="12.5"/>
<feComposite in2="hardAlpha" operator="out"/>
<feColorMatrix type="matrix" values="0 0 0 0 0 0 0 0 0 0 0 0 0 0 0 0 0 0 0.11 0"/>
<feBlend mode="normal" in2="BackgroundImageFix" result="effect1_dropShadow_1065_8453"/>
<feBlend mode="normal" in="SourceGraphic" in2="effect1_dropShadow_1065_8453" result="shape"/>
</filter>
<filter id="filter3_d_1065_8453" x="68" y="214.325" width="260.064" height="83.6748" filterUnits="userSpaceOnUse" color-interpolation-filters="sRGB">
<feFlood flood-opacity="0" result="BackgroundImageFix"/>
<feColorMatrix in="SourceAlpha" type="matrix" values="0 0 0 0 0 0 0 0 0 0 0 0 0 0 0 0 0 0 127 0" result="hardAlpha"/>
<feOffset/>
<feGaussianBlur stdDeviation="12.5"/>
<feComposite in2="hardAlpha" operator="out"/>
<feColorMatrix type="matrix" values="0 0 0 0 0 0 0 0 0 0 0 0 0 0 0 0 0 0 0.11 0"/>
<feBlend mode="normal" in2="BackgroundImageFix" result="effect1_dropShadow_1065_8453"/>
<feBlend mode="normal" in="SourceGraphic" in2="effect1_dropShadow_1065_8453" result="shape"/>
</filter>
</defs>
</svg>
