<svg width="375" height="73" viewBox="0 0 375 73" fill="none" xmlns="http://www.w3.org/2000/svg">
<path d="M174.892 65.5896C131.95 63.5681 45.2071 57.3099 18.2785 46.4839C-7.30545 36.1448 -6.08202 22.0392 28.8143 12.4108C62.5633 3.11161 112.461 1.38463 152.789 0.770699C195.511 -0.0190967 237.768 1.36922 278.037 4.88563C312.915 8.13958 352.534 13.529 369.178 24.5429C380.483 32.1715 373.99 41.0357 358.701 48.3255C319.081 67.1799 237.231 74.5203 173.453 72.6041C130.393 71.156 77.7536 61.3134 52.4472 50.3847C50.0563 49.3594 55.5491 48.153 57.9396 49.1643C108.179 70.3041 213.822 76.8025 290.218 64.2923C319.437 59.5009 348.613 52.0063 362.404 42.1013C376.196 32.1964 363.463 22.8287 340.161 16.8225C306.393 8.01247 259.08 4.722 215.389 3.4075C169.896 2.06668 121.02 2.2276 75.5859 6.76814C55.1125 8.81366 34.9833 12.2424 20.6644 17.7029C3.93842 24.3274 2.58544 33.014 13.1001 40.0544C33.6458 53.7602 129.512 61.0665 174.395 63.4305L176.499 63.5309C177.256 63.5982 177.883 63.7583 178.256 63.9797C178.629 64.2011 178.721 64.4676 178.513 64.7265C178.306 64.9854 177.815 65.2179 177.136 65.3779C176.458 65.538 175.642 65.614 174.849 65.5909L174.892 65.5896Z" fill="#F4774C"/>
</svg>
