<svg width="629" height="355" viewBox="0 0 629 355" fill="none" xmlns="http://www.w3.org/2000/svg">
<g filter="url(#filter0_d_1059_7128)">
<rect x="36" y="51" width="430" height="254" rx="4" fill="white"/>
</g>
<path d="M36 55C36 52.7909 37.7909 51 40 51H462C464.209 51 466 52.7909 466 55V85H36V55Z" fill="#3C3A3E"/>
<path d="M36 85H142V305H40C37.7909 305 36 303.209 36 301V85Z" fill="#EDEDED"/>
<path fill-rule="evenodd" clip-rule="evenodd" d="M61.2968 70.7082C61.2968 73.1945 59.8548 74.4391 56.9709 74.4418H51C51 72.0479 54.6847 72.0584 56.2746 72.0629C56.3396 72.0631 56.4012 72.0633 56.4588 72.0633C57.6511 72.0633 58.246 71.5239 58.2435 70.4452C58.2435 69.3612 57.6499 68.8272 56.4588 68.8272H53.0912V66.473H56.4316C57.6227 66.473 58.2124 65.9512 58.2124 64.9156C58.2124 63.8801 57.6149 63.3785 56.4316 63.3785C56.2422 63.3785 56.0276 63.3841 55.7957 63.3902L55.7956 63.3902C53.9467 63.4387 51 63.516 51 61H56.4976C58.0805 61 59.1836 61.2036 59.807 61.6108C60.2754 61.9132 60.6574 62.341 60.9133 62.8497C61.1692 63.3584 61.2896 63.9293 61.2619 64.503C61.2859 65.1828 61.1139 65.8545 60.7681 66.4314C60.4223 67.0082 59.9186 67.4637 59.322 67.7391C60.6334 68.3216 61.2877 69.3194 61.2852 70.7324L61.2968 70.7082ZM100.341 64.6609C101.477 64.8694 102.5 65.5033 103.22 66.4434C103.939 67.3836 104.304 68.5652 104.247 69.7664C104.19 70.9675 103.714 72.1055 102.908 72.9665C102.103 73.8275 101.024 74.3523 99.8737 74.4422C98.7235 74.5322 97.5813 74.1811 96.6618 73.455C95.7423 72.7288 95.1088 71.6776 94.8803 70.4988C94.6517 69.32 94.8439 68.0948 95.4207 67.0533C95.9975 66.0118 96.9193 65.2258 98.0127 64.8429C98.762 64.5811 99.5622 64.5185 100.341 64.6609ZM72.1039 71.6952C72.1039 73.5398 70.9089 74.4607 68.519 74.458H62.7305V64.6123H68.1621C69.4502 64.6123 70.3541 64.7701 70.8779 65.0775C71.2605 65.2842 71.5789 65.6001 71.796 65.9883C72.0131 66.3764 72.1199 66.8209 72.1039 67.2699C72.1107 67.7334 71.9901 68.1892 71.7564 68.5835C71.5226 68.9777 71.1855 69.2939 70.7848 69.4947C71.1946 69.6738 71.5419 69.9796 71.7799 70.371C72.0179 70.7623 72.135 71.2202 72.1155 71.6831L72.1039 71.6952ZM69.4346 67.5612C69.4346 66.9423 69.0195 66.6308 68.1854 66.6308H65.2251V68.5199H68.1854C69.0195 68.5199 69.4346 68.2003 69.4346 67.5612ZM69.4346 71.4809C69.4346 70.8377 69.0234 70.5181 68.2009 70.5181H65.2251V72.4436H68.2203C69.0428 72.4436 69.454 72.12 69.454 71.4809H69.4346ZM93.6752 74.458H91.1922V70.5545H87.6073V74.458H85.1165V64.6123H87.6073V68.3864H91.1922V64.6123H93.6752V74.458ZM114.99 74.458H111.638L107.821 69.6808V74.458H105.33V64.6123H107.821V69.341L111.836 64.6123H115.014L110.626 69.43L115.014 74.458H114.99ZM100.209 66.918C99.8684 66.8063 99.5097 66.7687 99.1549 66.8077C98.8001 66.8468 98.4568 66.9615 98.1464 67.1448C97.836 67.3282 97.5651 67.5762 97.3506 67.8734C97.136 68.1706 96.9825 68.5106 96.8995 68.8724C96.8165 69.2342 96.8058 69.6099 96.8681 69.9761C96.9304 70.3424 97.0643 70.6913 97.2615 71.0013C97.4587 71.3112 97.7151 71.5755 98.0145 71.7777C98.3139 71.9799 98.6501 72.1157 99.0021 72.1766C99.3872 72.2573 99.7848 72.2476 100.166 72.1483C100.722 72.002 101.216 71.6683 101.571 71.1992C101.926 70.73 102.122 70.1516 102.129 69.554C102.136 68.9564 101.954 68.3732 101.61 67.895C101.266 67.4168 100.78 67.0705 100.228 66.9099L100.209 66.918ZM79.7547 66.7684C80.3441 67.0675 80.8187 67.5662 81.1012 68.1828C81.3837 68.7995 81.4574 69.4979 81.3101 70.1638C81.1629 70.8298 80.8035 71.424 80.2906 71.8496C79.7777 72.2751 79.1415 72.5068 78.486 72.5068C77.8306 72.5068 77.1944 72.2751 76.6815 71.8496C76.1686 71.424 75.8092 70.8298 75.6619 70.1638C75.5147 69.4979 75.5884 68.7995 75.8709 68.1828C76.1534 67.5662 76.628 67.0675 77.2174 66.7684V64.135C75.9633 64.4581 74.866 65.2487 74.1327 66.3575C73.3993 67.4663 73.0806 68.8167 73.2367 70.1537C73.3928 71.4907 74.0129 72.7219 74.98 73.6148C75.9471 74.5078 77.1942 75.0009 78.486 75.0009C79.7779 75.0009 81.025 74.5078 81.9921 73.6148C82.9592 72.7219 83.5793 71.4907 83.7354 70.1537C83.8915 68.8167 83.5728 67.4663 82.8394 66.3575C82.1061 65.2487 81.0088 64.4581 79.7547 64.135V66.7684ZM77.6042 70.9019C77.9735 71.1544 78.4236 71.2447 78.8564 71.1532C79.1835 71.0895 79.4849 70.9258 79.7224 70.683C79.9599 70.4401 80.1227 70.1291 80.1901 69.7894C80.2575 69.4498 80.2265 69.0969 80.1009 68.7757C79.9753 68.4545 79.7609 68.1796 79.485 67.9859C79.3176 67.8677 79.1309 67.7827 78.934 67.7351V63.9651H78.1581V67.7351C77.727 67.8354 77.3514 68.1091 77.1128 68.4966C76.8742 68.8842 76.792 69.3542 76.884 69.8046C76.976 70.255 77.2348 70.6494 77.6042 70.9019Z" fill="white"/>
<path fill-rule="evenodd" clip-rule="evenodd" d="M142 167.5V245V245.5L142 274H140V245.5L36 245.5V245L140 245L140 167.5L36 167.5V167L140 167V85H142V167V167.5ZM46 107C46 105.895 46.8954 105 48 105H124C125.105 105 126 105.895 126 107C126 108.105 125.105 109 124 109H48C46.8954 109 46 108.105 46 107ZM48 183C46.8954 183 46 183.895 46 185C46 186.105 46.8954 187 48 187H124C125.105 187 126 186.105 126 185C126 183.895 125.105 183 124 183H48ZM46 121C46 119.895 46.8954 119 48 119H104C105.105 119 106 119.895 106 121C106 122.105 105.105 123 104 123H48C46.8954 123 46 122.105 46 121ZM48 197C46.8954 197 46 197.895 46 199C46 200.105 46.8954 201 48 201H104C105.105 201 106 200.105 106 199C106 197.895 105.105 197 104 197H48ZM46 135C46 133.895 46.8954 133 48 133H113C114.105 133 115 133.895 115 135C115 136.105 114.105 137 113 137H48C46.8954 137 46 136.105 46 135ZM48 211C46.8954 211 46 211.895 46 213C46 214.105 46.8954 215 48 215H113C114.105 215 115 214.105 115 213C115 211.895 114.105 211 113 211H48ZM46 149C46 147.895 46.8954 147 48 147H91C92.1046 147 93 147.895 93 149C93 150.105 92.1046 151 91 151H48C46.8954 151 46 150.105 46 149ZM48 225C46.8954 225 46 225.895 46 227C46 228.105 46.8954 229 48 229H91C92.1046 229 93 228.105 93 227C93 225.895 92.1046 225 91 225H48ZM46 263C46 261.895 46.8954 261 48 261H104C105.105 261 106 261.895 106 263C106 264.105 105.105 265 104 265H48C46.8954 265 46 264.105 46 263ZM142 281L36 281V281.5L142 281.5V281Z" fill="#CBCBCB"/>
<path d="M178.09 114H180.037L176.44 109.253L179.888 105.273H177.94L174.838 108.861H174.442V105.273H172.861V114H174.442V110.186H175.217L178.09 114Z" fill="#3C3A3E"/>
<path d="M182.926 114.132C183.953 114.132 184.567 113.65 184.848 113.101H184.899V114H186.382V109.619C186.382 107.889 184.972 107.369 183.723 107.369C182.347 107.369 181.29 107.983 180.949 109.176L182.389 109.381C182.543 108.933 182.977 108.55 183.732 108.55C184.447 108.55 184.84 108.916 184.84 109.56V109.585C184.84 110.028 184.375 110.05 183.22 110.173C181.95 110.31 180.736 110.689 180.736 112.163C180.736 113.45 181.678 114.132 182.926 114.132ZM183.327 112.998C182.683 112.998 182.223 112.704 182.223 112.138C182.223 111.545 182.739 111.298 183.429 111.2C183.834 111.145 184.644 111.043 184.844 110.881V111.652C184.844 112.381 184.256 112.998 183.327 112.998Z" fill="#3C3A3E"/>
<path d="M191.7 112.206L189.808 107.454H187.933V114H189.42V109.589L191.163 114H192.242L194.044 109.543V114H195.519V107.454H193.644L191.7 112.206Z" fill="#3C3A3E"/>
<path d="M197.074 114H198.548V108.72H201.114V114H202.601V107.454H197.074V114Z" fill="#3C3A3E"/>
<path d="M206.071 114.132C207.098 114.132 207.711 113.65 207.993 113.101H208.044V114H209.527V109.619C209.527 107.889 208.116 107.369 206.868 107.369C205.491 107.369 204.434 107.983 204.093 109.176L205.534 109.381C205.687 108.933 206.122 108.55 206.876 108.55C207.592 108.55 207.984 108.916 207.984 109.56V109.585C207.984 110.028 207.52 110.05 206.365 110.173C205.095 110.31 203.88 110.689 203.88 112.163C203.88 113.45 204.822 114.132 206.071 114.132ZM206.471 112.998C205.828 112.998 205.368 112.704 205.368 112.138C205.368 111.545 205.883 111.298 206.574 111.2C206.978 111.145 207.788 111.043 207.988 110.881V111.652C207.988 112.381 207.4 112.998 206.471 112.998Z" fill="#3C3A3E"/>
<path d="M212.565 107.454H211.078V114H212.565V111.354H215.101V114H216.583V107.454H215.101V110.088H212.565V107.454Z" fill="#3C3A3E"/>
<path d="M219.631 111.912V107.454H218.144V114H219.734L222.346 109.538V114H223.837V107.454H222.252L219.631 111.912Z" fill="#3C3A3E"/>
<path d="M226.909 111.912V107.454H225.422V114H227.011L229.623 109.538V114H231.115V107.454H229.53L226.909 111.912Z" fill="#3C3A3E"/>
<path d="M241.326 113.062L239.707 110.446L241.326 107.829H239.937L238.215 110.386V110.506L239.937 113.062H241.326ZM238.727 113.062L237.107 110.446L238.727 107.829H237.337L235.616 110.386V110.506L237.337 113.062H238.727Z" fill="#3C3A3E"/>
<path d="M245.962 114.119C247.829 114.119 249.188 113.05 249.184 111.575C249.188 110.484 248.506 109.7 247.283 109.525V109.457C248.229 109.253 248.864 108.55 248.86 107.57C248.864 106.24 247.731 105.153 245.988 105.153C244.292 105.153 242.979 106.163 242.945 107.625H244.467C244.492 106.892 245.174 106.436 245.979 106.436C246.793 106.436 247.335 106.93 247.33 107.663C247.335 108.426 246.704 108.933 245.8 108.933H245.029V110.152H245.8C246.904 110.152 247.56 110.706 247.556 111.494C247.56 112.266 246.891 112.794 245.958 112.794C245.08 112.794 244.403 112.338 244.364 111.626H242.762C242.805 113.101 244.121 114.119 245.962 114.119Z" fill="#3C3A3E"/>
<path d="M250.664 114H253.834C255.368 114 256.246 113.305 256.246 112.223C256.246 111.307 255.534 110.668 254.507 110.578C255.381 110.416 255.927 109.952 255.927 109.214C255.927 108.111 254.959 107.454 253.412 107.454H250.664V114ZM252.108 112.785V111.162H253.834C254.401 111.162 254.746 111.49 254.746 112.031C254.746 112.5 254.401 112.785 253.834 112.785H252.108ZM252.108 110.165V108.69H253.412C254.056 108.69 254.448 108.963 254.448 109.41C254.448 109.879 254.069 110.165 253.442 110.165H252.108Z" fill="#3C3A3E"/>
<path d="M260.374 114.128C262.292 114.128 263.511 112.777 263.511 110.753C263.511 108.724 262.292 107.369 260.374 107.369C258.457 107.369 257.238 108.724 257.238 110.753C257.238 112.777 258.457 114.128 260.374 114.128ZM260.383 112.892C259.322 112.892 258.802 111.946 258.802 110.748C258.802 109.551 259.322 108.592 260.383 108.592C261.427 108.592 261.947 109.551 261.947 110.748C261.947 111.946 261.427 112.892 260.383 112.892Z" fill="#3C3A3E"/>
<path d="M266.307 107.454H264.82V114H266.307V111.354H268.843V114H270.326V107.454H268.843V110.088H266.307V107.454Z" fill="#3C3A3E"/>
<path d="M271.886 114H273.429V111.533H274.183L275.977 114H277.844L275.394 110.668L277.818 107.454H275.96L273.992 110.097H273.429V107.454H271.886V114Z" fill="#3C3A3E"/>
<path d="M280.206 111.912V107.454H278.718V114H280.308L282.92 109.538V114H284.412V107.454H282.826L280.206 111.912Z" fill="#3C3A3E"/>
<path d="M288.972 114H290.447V108.72H293.012V114H294.499V107.454H288.972V114Z" fill="#3C3A3E"/>
<path d="M298.941 114.128C300.858 114.128 302.077 112.777 302.077 110.753C302.077 108.724 300.858 107.369 298.941 107.369C297.023 107.369 295.804 108.724 295.804 110.753C295.804 112.777 297.023 114.128 298.941 114.128ZM298.949 112.892C297.888 112.892 297.368 111.946 297.368 110.748C297.368 109.551 297.888 108.592 298.949 108.592C299.993 108.592 300.513 109.551 300.513 110.748C300.513 111.946 299.993 112.892 298.949 112.892Z" fill="#3C3A3E"/>
<path d="M310.528 114L311.249 111.848H314.53L315.254 114H316.942L313.865 105.273H311.913L308.841 114H310.528ZM311.675 110.578L312.855 107.062H312.923L314.104 110.578H311.675Z" fill="#3C3A3E"/>
<path d="M318.091 114H319.672V111.051H321.343C323.358 111.051 324.441 109.841 324.441 108.162C324.441 106.496 323.371 105.273 321.364 105.273H318.091V114ZM319.672 109.751V106.594H321.121C322.306 106.594 322.83 107.233 322.83 108.162C322.83 109.091 322.306 109.751 321.13 109.751H319.672Z" fill="#3C3A3E"/>
<path d="M327.395 105.273H325.814V114H327.395V105.273Z" fill="#3C3A3E"/>
<path d="M331.544 113.062H332.934L334.655 110.506V110.386L332.934 107.829H331.544L333.164 110.446L331.544 113.062ZM328.919 113.062H330.309L332.03 110.506V110.386L330.309 107.829H328.919L330.539 110.446L328.919 113.062Z" fill="#3C3A3E"/>
<path fill-rule="evenodd" clip-rule="evenodd" d="M436 124H172V123H436V124ZM172 145C172 143.895 172.895 143 174 143H238C239.105 143 240 143.895 240 145C240 146.105 239.105 147 238 147H174C172.895 147 172 146.105 172 145ZM172 169C172 167.895 172.895 167 174 167H238C239.105 167 240 167.895 240 169C240 170.105 239.105 171 238 171H174C172.895 171 172 170.105 172 169ZM174 191C172.895 191 172 191.895 172 193C172 194.105 172.895 195 174 195H238C239.105 195 240 194.105 240 193C240 191.895 239.105 191 238 191H174ZM172 217C172 215.895 172.895 215 174 215H238C239.105 215 240 215.895 240 217C240 218.105 239.105 219 238 219H174C172.895 219 172 218.105 172 217ZM174 239C172.895 239 172 239.895 172 241C172 242.105 172.895 243 174 243H238C239.105 243 240 242.105 240 241C240 239.895 239.105 239 238 239H174ZM283 145C283 143.895 283.895 143 285 143H314C315.105 143 316 143.895 316 145C316 146.105 315.105 147 314 147H285C283.895 147 283 146.105 283 145ZM285 167C283.895 167 283 167.895 283 169C283 170.105 283.895 171 285 171H314C315.105 171 316 170.105 316 169C316 167.895 315.105 167 314 167H285ZM283 193C283 191.895 283.895 191 285 191H314C315.105 191 316 191.895 316 193C316 194.105 315.105 195 314 195H285C283.895 195 283 194.105 283 193ZM285 215C283.895 215 283 215.895 283 217C283 218.105 283.895 219 285 219H314C315.105 219 316 218.105 316 217C316 215.895 315.105 215 314 215H285ZM283 241C283 239.895 283.895 239 285 239H314C315.105 239 316 239.895 316 241C316 242.105 315.105 243 314 243H285C283.895 243 283 242.105 283 241ZM330 143C328.895 143 328 143.895 328 145C328 146.105 328.895 147 330 147H434C435.105 147 436 146.105 436 145C436 143.895 435.105 143 434 143H330ZM328 169C328 167.895 328.895 167 330 167H434C435.105 167 436 167.895 436 169C436 170.105 435.105 171 434 171H330C328.895 171 328 170.105 328 169ZM330 191C328.895 191 328 191.895 328 193C328 194.105 328.895 195 330 195H434C435.105 195 436 194.105 436 193C436 191.895 435.105 191 434 191H330ZM328 217C328 215.895 328.895 215 330 215H434C435.105 215 436 215.895 436 217C436 218.105 435.105 219 434 219H330C328.895 219 328 218.105 328 217ZM330 239C328.895 239 328 239.895 328 241C328 242.105 328.895 243 330 243H434C435.105 243 436 242.105 436 241C436 239.895 435.105 239 434 239H330ZM172 157H436V156.5H172V157ZM436 181H172V180.5H436V181ZM172 205H436V204.5H172V205ZM436 229H172V228.5H436V229ZM172 253H436V252.5H172V253Z" fill="#E6E6E6"/>
<g filter="url(#filter1_d_1059_7128)">
<rect x="293" y="32" width="289" height="59" rx="9" fill="white"/>
</g>
<path d="M317.981 59.9997L318.702 57.8477H321.983L322.707 59.9997H324.395L321.318 51.2725H319.366L316.294 59.9997H317.981ZM319.128 56.5779L320.308 53.0622H320.376L321.557 56.5779H319.128Z" fill="#3C3A3E"/>
<path d="M325.476 59.9997H327.019V57.5324H327.773L329.567 59.9997H331.434L328.983 56.6673L331.408 53.4543H329.55L327.581 56.0963H327.019V53.4543H325.476V59.9997Z" fill="#3C3A3E"/>
<path d="M331.95 54.7199H334.068V59.9997H335.56V54.7199H337.677V53.4543H331.95V54.7199Z" fill="#3C3A3E"/>
<path d="M340.393 57.9117V53.4543H338.906V59.9997H340.495L343.108 55.5381V59.9997H344.599V53.4543H343.014L340.393 57.9117Z" fill="#3C3A3E"/>
<path d="M346.183 59.9997H349.354C350.888 59.9997 351.766 59.3051 351.766 58.2227C351.766 57.3066 351.054 56.6673 350.027 56.5779C350.9 56.4159 351.446 55.9514 351.446 55.2142C351.446 54.1105 350.479 53.4543 348.932 53.4543H346.183V59.9997ZM347.628 58.7852V57.1617H349.354C349.92 57.1617 350.266 57.4898 350.266 58.031C350.266 58.4997 349.92 58.7852 349.354 58.7852H347.628ZM347.628 56.1645V54.6901H348.932C349.575 54.6901 349.967 54.9628 349.967 55.4102C349.967 55.879 349.588 56.1645 348.962 56.1645H347.628Z" fill="#3C3A3E"/>
<path d="M354.526 53.4543H353.039V59.9997H354.526V57.3534H357.061V59.9997H358.544V53.4543H357.061V56.0878H354.526V53.4543Z" fill="#3C3A3E"/>
<path d="M361.592 55.585V53.4543H360.105V59.9997H363.079C364.746 59.9997 365.704 59.0793 365.709 57.7923C365.704 56.4713 364.746 55.585 363.079 55.585H361.592ZM366.523 59.9997H368.065V53.4543H366.523V59.9997ZM361.592 56.8506H363.079C363.748 56.8506 364.23 57.2469 364.23 57.8137C364.23 58.3548 363.748 58.7341 363.079 58.7341H361.592V56.8506Z" fill="#3C3A3E"/>
<path d="M372.554 60.1276C374.079 60.1276 375.127 59.3818 375.4 58.2441L373.96 58.0821C373.751 58.6361 373.24 58.9259 372.575 58.9259C371.578 58.9259 370.917 58.2696 370.904 57.1489H375.464V56.6759C375.464 54.379 374.083 53.3691 372.473 53.3691C370.598 53.3691 369.375 54.7455 369.375 56.7654C369.375 58.8193 370.581 60.1276 372.554 60.1276ZM370.909 56.1091C370.956 55.2739 371.573 54.5708 372.494 54.5708C373.38 54.5708 373.977 55.2185 373.985 56.1091H370.909Z" fill="#3C3A3E"/>
<path d="M447.981 59.9997L448.702 57.8477H451.983L452.707 59.9997H454.395L451.318 51.2725H449.366L446.294 59.9997H447.981ZM449.128 56.5779L450.308 53.0622H450.376L451.557 56.5779H449.128Z" fill="#3C3A3E"/>
<path d="M455.476 62.4543H457.019V58.9685H457.083C457.326 59.4458 457.833 60.1148 458.958 60.1148C460.5 60.1148 461.655 58.8918 461.655 56.7355C461.655 54.5537 460.466 53.3691 458.953 53.3691C457.799 53.3691 457.317 54.0637 457.083 54.5367H456.993V53.4543H455.476V62.4543ZM456.989 56.727C456.989 55.4571 457.534 54.6347 458.527 54.6347C459.554 54.6347 460.083 55.5083 460.083 56.727C460.083 57.9543 459.546 58.8492 458.527 58.8492C457.543 58.8492 456.989 57.9969 456.989 56.727Z" fill="#3C3A3E"/>
<path d="M463.991 53.4543H462.355L464.298 56.727L462.304 59.9997H463.94L465.312 57.6432L466.697 59.9997H468.321L466.314 56.727L468.287 53.4543H466.655L465.312 55.8705L463.991 53.4543Z" fill="#3C3A3E"/>
<path d="M470.967 57.9117V53.4543H469.48V59.9997H471.07L473.682 55.5381V59.9997H475.173V53.4543H473.588L470.967 57.9117Z" fill="#3C3A3E"/>
<path d="M476.757 59.9997H479.928C481.462 59.9997 482.34 59.3051 482.34 58.2227C482.34 57.3066 481.628 56.6673 480.601 56.5779C481.475 56.4159 482.02 55.9514 482.02 55.2142C482.02 54.1105 481.053 53.4543 479.506 53.4543H476.757V59.9997ZM478.202 58.7852V57.1617H479.928C480.495 57.1617 480.84 57.4898 480.84 58.031C480.84 58.4997 480.495 58.7852 479.928 58.7852H478.202ZM478.202 56.1645V54.6901H479.506C480.149 54.6901 480.541 54.9628 480.541 55.4102C480.541 55.879 480.162 56.1645 479.536 56.1645H478.202Z" fill="#3C3A3E"/>
<path fill-rule="evenodd" clip-rule="evenodd" d="M315 71V70H315.268C315.613 69.4022 316.26 69 317 69H395C395.74 69 396.387 69.4022 396.732 70H556V71H397C397 72.1046 396.105 73 395 73H317C315.895 73 315 72.1046 315 71Z" fill="#E6E6E6"/>
<g filter="url(#filter2_d_1059_7128)">
<rect x="293" y="241" width="289" height="83" rx="9" fill="white"/>
</g>
<path d="M316.856 260.272V269H318.263L322.375 263.055H322.447V269H324.028V260.272H322.614L318.506 266.221H318.429V260.272H316.856Z" fill="#3C3A3E"/>
<path d="M328.542 269.127C330.187 269.127 331.235 268.152 331.346 266.762H329.872C329.74 267.465 329.233 267.87 328.555 267.87C327.592 267.87 326.97 267.065 326.97 265.727C326.97 264.406 327.605 263.613 328.555 263.613C329.296 263.613 329.752 264.09 329.872 264.721H331.346C331.24 263.302 330.132 262.369 328.534 262.369C326.616 262.369 325.406 263.754 325.406 265.752C325.406 267.734 326.586 269.127 328.542 269.127Z" fill="#3C3A3E"/>
<path d="M333.827 262.454H332.191L334.134 265.727L332.14 269H333.776L335.148 266.643L336.533 269H338.157L336.15 265.727L338.123 262.454H336.491L335.148 264.87L333.827 262.454Z" fill="#3C3A3E"/>
<path d="M341.925 269.127C343.843 269.127 345.061 267.777 345.061 265.752C345.061 263.724 343.843 262.369 341.925 262.369C340.007 262.369 338.789 263.724 338.789 265.752C338.789 267.777 340.007 269.127 341.925 269.127ZM341.934 267.892C340.872 267.892 340.353 266.946 340.353 265.748C340.353 264.551 340.872 263.592 341.934 263.592C342.978 263.592 343.497 264.551 343.497 265.748C343.497 266.946 342.978 267.892 341.934 267.892Z" fill="#3C3A3E"/>
<path d="M345.791 270.9H347.308V269H351.591V270.9H353.082V267.73H352.068V262.454H347.338L347.15 264.747C347.027 266.213 346.865 267.299 346.311 267.73H345.791V270.9ZM347.896 267.73C348.31 267.12 348.463 266.132 348.574 264.747L348.676 263.698H350.594V267.73H347.896Z" fill="#3C3A3E"/>
<path d="M358.103 269H359.548V262.454H356.706C355.103 262.454 354.11 263.277 354.115 264.534C354.11 265.36 354.562 265.987 355.342 266.306L353.876 269H355.393L356.735 266.536H358.103V269ZM358.103 265.411H356.654C355.977 265.411 355.602 265.058 355.606 264.568C355.602 264.078 355.998 263.707 356.706 263.707H358.103V265.411Z" fill="#3C3A3E"/>
<path d="M370.932 267.734H369.679V262.454H368.192V267.73H366.134V262.454H364.647V267.73H362.588V262.454H361.101V269H369.351V270.875H370.804L370.932 267.734Z" fill="#3C3A3E"/>
<path d="M373.639 266.911V262.454H372.152V269H373.741L376.354 264.538V269H377.845V262.454H376.26L373.639 266.911Z" fill="#3C3A3E"/>
<path d="M380.916 266.911V262.454H379.429V269H381.019L383.631 264.538V269H385.122V262.454H383.537L380.916 266.911ZM383.115 260.204C383.111 260.622 382.872 260.992 382.272 260.992C381.662 260.992 381.432 260.613 381.432 260.204H380.286C380.282 261.201 381.053 261.875 382.272 261.875C383.499 261.875 384.27 261.201 384.27 260.204H383.115Z" fill="#3C3A3E"/>
<path d="M391.17 262.454H389.683V269H391.17V266.353H393.706V269H395.189V262.454H393.706V265.088H391.17V262.454Z" fill="#3C3A3E"/>
<path d="M399.605 269.127C401.522 269.127 402.741 267.777 402.741 265.752C402.741 263.724 401.522 262.369 399.605 262.369C397.687 262.369 396.468 263.724 396.468 265.752C396.468 267.777 397.687 269.127 399.605 269.127ZM399.613 267.892C398.552 267.892 398.032 266.946 398.032 265.748C398.032 264.551 398.552 263.592 399.613 263.592C400.657 263.592 401.177 264.551 401.177 265.748C401.177 266.946 400.657 267.892 399.613 267.892Z" fill="#3C3A3E"/>
<path d="M407.817 267.206L405.925 262.454H404.05V269H405.538V264.589L407.28 269H408.359L410.161 264.542V269H411.636V262.454H409.761L407.817 267.206Z" fill="#3C3A3E"/>
<path d="M416.089 269.127C417.614 269.127 418.663 268.382 418.935 267.244L417.495 267.082C417.286 267.636 416.775 267.926 416.11 267.926C415.113 267.926 414.452 267.269 414.44 266.149H418.999V265.676C418.999 263.379 417.619 262.369 416.008 262.369C414.133 262.369 412.91 263.745 412.91 265.765C412.91 267.819 414.116 269.127 416.089 269.127ZM414.444 265.109C414.491 264.274 415.109 263.571 416.029 263.571C416.915 263.571 417.512 264.218 417.521 265.109H414.444Z" fill="#3C3A3E"/>
<path d="M420.304 271.454H421.847V267.968H421.911C422.154 268.446 422.661 269.115 423.786 269.115C425.328 269.115 426.483 267.892 426.483 265.735C426.483 263.554 425.294 262.369 423.782 262.369C422.627 262.369 422.145 263.063 421.911 263.536H421.821V262.454H420.304V271.454ZM421.817 265.727C421.817 264.457 422.362 263.634 423.355 263.634C424.382 263.634 424.911 264.508 424.911 265.727C424.911 266.954 424.374 267.849 423.355 267.849C422.371 267.849 421.817 266.997 421.817 265.727Z" fill="#3C3A3E"/>
<rect x="439" y="265" width="119" height="4" rx="2" fill="#E6E6E6"/>
<path d="M458.698 296.182V302H459.505L462.462 297.733H462.516V302H463.394V296.182H462.581L459.621 300.455H459.567V296.182H458.698Z" fill="#858585"/>
<path d="M464.348 300.847C464.373 301.608 465.086 302.088 466.055 302.088C467.049 302.088 467.768 301.588 467.768 300.787C467.768 300.219 467.407 299.798 466.902 299.764V299.719C467.359 299.588 467.674 299.281 467.674 298.801C467.674 298.085 467.061 297.58 466.089 297.58C465.157 297.58 464.473 298.077 464.456 298.81H465.314C465.331 298.483 465.669 298.256 466.132 298.256C466.589 298.256 466.856 298.494 466.856 298.85C466.856 299.182 466.617 299.426 466.137 299.426H465.427V300.094H466.137C466.62 300.094 466.93 300.361 466.93 300.756C466.93 301.202 466.535 301.403 466.046 301.403C465.566 301.403 465.242 301.205 465.217 300.847H464.348Z" fill="#858585"/>
<path d="M471.094 300.949L469.713 297.636H468.645V302H469.478V298.827L470.779 302H471.409L472.733 298.838V302H473.56V297.636H472.503L471.094 300.949Z" fill="#858585"/>
<path d="M476.573 302.088C477.524 302.088 478.198 301.619 478.391 300.909L477.587 300.764C477.434 301.176 477.064 301.386 476.581 301.386C475.854 301.386 475.365 300.915 475.343 300.074H478.445V299.773C478.445 298.196 477.502 297.58 476.513 297.58C475.297 297.58 474.496 298.506 474.496 299.847C474.496 301.202 475.286 302.088 476.573 302.088ZM475.345 299.438C475.38 298.818 475.828 298.281 476.519 298.281C477.178 298.281 477.61 298.77 477.613 299.438H475.345Z" fill="#858585"/>
<path d="M480.22 297.636H479.387V302H480.22V300.188H482.109V302H482.939V297.636H482.109V299.452H480.22V297.636Z" fill="#858585"/>
<path d="M484.907 300.81V297.636H484.075V302H484.998L486.913 298.824V302H487.745V297.636H486.831L484.907 300.81Z" fill="#858585"/>
<path d="M488.346 298.369H489.775V302H490.605V298.369H492.028V297.636H488.346V298.369Z" fill="#858585"/>
<path d="M493.759 299.136V297.636H492.926V302H494.833C495.901 302 496.497 301.381 496.497 300.56C496.497 299.722 495.901 299.136 494.833 299.136H493.759ZM493.759 299.869H494.833C495.321 299.869 495.671 300.165 495.671 300.585C495.671 300.983 495.321 301.267 494.833 301.267H493.759V299.869Z" fill="#858585"/>
<path d="M500.399 300.81V297.636H499.567V302H500.49L502.405 298.824V302H503.238V297.636H502.323L500.399 300.81Z" fill="#858585"/>
<path d="M506.828 300.949L505.448 297.636H504.38V302H505.212V298.827L506.513 302H507.144L508.468 298.838V302H509.294V297.636H508.238L506.828 300.949Z" fill="#858585"/>
<path d="M512.307 302.088C513.259 302.088 513.932 301.619 514.125 300.909L513.321 300.764C513.168 301.176 512.799 301.386 512.316 301.386C511.588 301.386 511.1 300.915 511.077 300.074H514.179V299.773C514.179 298.196 513.236 297.58 512.247 297.58C511.032 297.58 510.23 298.506 510.23 299.847C510.23 301.202 511.02 302.088 512.307 302.088ZM511.08 299.438C511.114 298.818 511.563 298.281 512.253 298.281C512.912 298.281 513.344 298.77 513.347 299.438H511.08Z" fill="#858585"/>
<path d="M515.681 297.636H514.832V302H515.681V300.222H516.653C516.792 301.35 517.551 302.088 518.647 302.088C519.869 302.088 520.667 301.176 520.667 299.835C520.667 298.483 519.869 297.58 518.647 297.58C517.537 297.58 516.778 298.33 516.65 299.483H515.681V297.636ZM518.647 301.361C517.826 301.361 517.46 300.668 517.46 299.835C517.46 299 517.826 298.301 518.647 298.301C519.471 298.301 519.835 299.003 519.835 299.835C519.835 300.665 519.471 301.361 518.647 301.361Z" fill="#858585"/>
<path d="M527.921 301.267H527.183V297.636H526.35V301.264H524.842V297.636H524.01V301.264H522.501V297.636H521.669V302H527.01V303.25H527.842L527.921 301.267Z" fill="#858585"/>
<path d="M529.649 300.81V297.636H528.817V302H529.74L531.655 298.824V302H532.488V297.636H531.573L529.649 300.81Z" fill="#858585"/>
<path d="M534.462 300.81V297.636H533.63V302H534.553L536.468 298.824V302H537.3V297.636H536.385L534.462 300.81ZM536.022 296.159C536.022 296.446 535.863 296.699 535.465 296.699C535.061 296.699 534.911 296.443 534.911 296.159H534.215C534.215 296.798 534.701 297.239 535.465 297.239C536.235 297.239 536.72 296.798 536.72 296.159H536.022Z" fill="#858585"/>
<path d="M540.28 302.088C541.311 302.088 541.979 301.469 542.073 300.619H541.246C541.138 301.091 540.772 301.369 540.286 301.369C539.567 301.369 539.104 300.77 539.104 299.818C539.104 298.884 539.576 298.296 540.286 298.296C540.826 298.296 541.155 298.636 541.246 299.046H542.073C541.982 298.165 541.263 297.58 540.272 297.58C539.042 297.58 538.246 298.506 538.246 299.838C538.246 301.153 539.013 302.088 540.28 302.088Z" fill="#858585"/>
<path d="M545.583 302H546.382V297.636H544.538C543.532 297.636 542.919 298.156 542.919 298.977C542.919 299.551 543.22 299.975 543.74 300.171L542.72 302H543.589L544.541 300.293H545.583V302ZM545.583 299.605H544.481C544.018 299.605 543.748 299.361 543.751 298.989C543.748 298.614 544.041 298.361 544.538 298.361H545.583V299.605Z" fill="#858585"/>
<rect x="316" y="287" width="128" height="23" rx="3" fill="#F4774C"/>
<path d="M326.281 300.023H327.045V298.483H328.585V297.719H327.045V296.182H326.281V297.719H324.744V298.483H326.281V300.023Z" fill="white"/>
<path d="M336.633 295.182H332.144V301H333.019V295.932H335.758V301H336.633V295.182Z" fill="white"/>
<path d="M339.745 301.088C340.975 301.088 341.779 300.188 341.779 298.838C341.779 297.48 340.975 296.58 339.745 296.58C338.515 296.58 337.711 297.48 337.711 298.838C337.711 300.188 338.515 301.088 339.745 301.088ZM339.748 300.375C338.944 300.375 338.569 299.673 338.569 298.835C338.569 298 338.944 297.29 339.748 297.29C340.546 297.29 340.921 298 340.921 298.835C340.921 299.673 340.546 300.375 339.748 300.375Z" fill="white"/>
<path d="M342.301 302.259H343.142V301H346.184V302.259H347.014V300.264H346.344V296.636H343.378L343.241 298.264C343.15 299.364 343.017 299.938 342.656 300.264H342.301V302.259ZM343.565 300.264C343.855 299.858 343.963 299.182 344.048 298.264L344.139 297.364H345.514V300.264H343.565Z" fill="white"/>
<path d="M347.844 301H348.694V299.256H349.245L350.56 301H351.614L349.904 298.759L351.594 296.636H350.543L349.103 298.466H348.694V296.636H347.844V301Z" fill="white"/>
<path d="M351.93 301H352.203C353.155 301 353.504 300.296 353.572 298.852L353.64 297.369H355.067V301H355.899V296.636H352.854L352.777 298.568C352.723 299.915 352.569 300.264 352.084 300.264H351.927L351.93 301Z" fill="white"/>
<path d="M357.591 296.636H356.742V301H357.591V299.222H358.563C358.702 300.35 359.461 301.088 360.557 301.088C361.779 301.088 362.577 300.176 362.577 298.835C362.577 297.483 361.779 296.58 360.557 296.58C359.447 296.58 358.688 297.33 358.56 298.483H357.591V296.636ZM360.557 300.361C359.736 300.361 359.37 299.668 359.37 298.835C359.37 298 359.736 297.301 360.557 297.301C361.381 297.301 361.745 298.003 361.745 298.835C361.745 299.665 361.381 300.361 360.557 300.361Z" fill="white"/>
<path d="M367.081 296.636H366.252V298.81C365.965 298.886 365.675 298.932 365.343 298.932C364.763 298.932 364.405 298.671 364.405 298.054V296.628H363.579V298.054C363.579 299.145 364.263 299.665 365.343 299.665C365.672 299.665 365.974 299.619 366.252 299.548V301H367.081V296.636Z" fill="white"/>
<path d="M369.044 299.81V296.636H368.211V301H369.135L371.05 297.824V301H371.882V296.636H370.967L369.044 299.81Z" fill="white"/>
<path d="M372.483 297.369H373.912V301H374.741V297.369H376.165V296.636H372.483V297.369Z" fill="white"/>
<path d="M377.895 298.136V296.636H377.063V301H378.969C380.037 301 380.634 300.381 380.634 299.56C380.634 298.722 380.037 298.136 378.969 298.136H377.895ZM377.895 298.869H378.969C379.458 298.869 379.807 299.165 379.807 299.585C379.807 299.983 379.458 300.267 378.969 300.267H377.895V298.869Z" fill="white"/>
<path d="M384.536 296.636H383.704V301H384.536V299.188H386.425V301H387.255V296.636H386.425V298.452H384.536V296.636Z" fill="white"/>
<path d="M390.229 301.088C391.459 301.088 392.263 300.188 392.263 298.838C392.263 297.48 391.459 296.58 390.229 296.58C388.999 296.58 388.195 297.48 388.195 298.838C388.195 300.188 388.999 301.088 390.229 301.088ZM390.232 300.375C389.428 300.375 389.053 299.673 389.053 298.835C389.053 298 389.428 297.29 390.232 297.29C391.03 297.29 391.405 298 391.405 298.835C391.405 299.673 391.03 300.375 390.232 300.375Z" fill="white"/>
<path d="M393.211 301H395.297C396.251 301 396.811 300.517 396.811 299.824C396.811 299.176 396.314 298.778 395.731 298.71C396.268 298.608 396.623 298.313 396.623 297.801C396.623 297.085 396.004 296.636 395.021 296.636H393.211V301ZM394.01 300.29V299.077H395.297C395.717 299.077 395.97 299.324 395.97 299.73C395.97 300.077 395.717 300.29 395.297 300.29H394.01ZM394.01 298.455V297.355H395.021C395.504 297.355 395.797 297.557 395.797 297.892C395.797 298.242 395.507 298.455 395.03 298.455H394.01Z" fill="white"/>
<path d="M398.575 298.136V296.636H397.743V301H399.649C400.717 301 401.314 300.381 401.314 299.56C401.314 298.722 400.717 298.136 399.649 298.136H398.575ZM401.933 301H402.782V296.636H401.933V301ZM398.575 298.869H399.649C400.138 298.869 400.487 299.165 400.487 299.585C400.487 299.983 400.138 300.267 399.649 300.267H398.575V298.869Z" fill="white"/>
<path d="M404.755 299.81V296.636H403.922V301H404.846L406.76 297.824V301H407.593V296.636H406.678L404.755 299.81ZM406.314 295.159C406.314 295.446 406.155 295.699 405.758 295.699C405.354 295.699 405.204 295.443 405.204 295.159H404.508C404.508 295.798 404.993 296.239 405.758 296.239C406.528 296.239 407.013 295.798 407.013 295.159H406.314Z" fill="white"/>
<path d="M411.684 296.636H410.852V301H411.684V299.188H413.574V301H414.403V296.636H413.574V298.452H411.684V296.636Z" fill="white"/>
<path d="M417.378 301.088C418.608 301.088 419.412 300.188 419.412 298.838C419.412 297.48 418.608 296.58 417.378 296.58C416.148 296.58 415.344 297.48 415.344 298.838C415.344 300.188 416.148 301.088 417.378 301.088ZM417.381 300.375C416.577 300.375 416.202 299.673 416.202 298.835C416.202 298 416.577 297.29 417.381 297.29C418.179 297.29 418.554 298 418.554 298.835C418.554 299.673 418.179 300.375 417.381 300.375Z" fill="white"/>
<path d="M422.809 299.949L421.428 296.636H420.36V301H421.192V297.827L422.493 301H423.124L424.448 297.838V301H425.275V296.636H424.218L422.809 299.949Z" fill="white"/>
<path d="M428.287 301.088C429.239 301.088 429.912 300.619 430.106 299.909L429.302 299.764C429.148 300.176 428.779 300.386 428.296 300.386C427.569 300.386 427.08 299.915 427.057 299.074H430.16V298.773C430.16 297.196 429.216 296.58 428.228 296.58C427.012 296.58 426.211 297.506 426.211 298.847C426.211 300.202 427.001 301.088 428.287 301.088ZM427.06 298.438C427.094 297.818 427.543 297.281 428.233 297.281C428.893 297.281 429.324 297.77 429.327 298.438H427.06Z" fill="white"/>
<path d="M431.102 302.636H431.952V300.321H432.003C432.156 300.6 432.469 301.085 433.264 301.085C434.321 301.085 435.088 300.239 435.088 298.827C435.088 297.412 434.309 296.58 433.256 296.58C432.446 296.58 432.153 297.074 432.003 297.344H431.932V296.636H431.102V302.636ZM431.934 298.818C431.934 297.906 432.332 297.301 433.074 297.301C433.844 297.301 434.23 297.952 434.23 298.818C434.23 299.693 433.832 300.361 433.074 300.361C432.344 300.361 431.934 299.736 431.934 298.818Z" fill="white"/>
<g filter="url(#filter3_d_1059_7128)">
<rect x="293" y="110" width="289" height="112" rx="9" fill="white"/>
</g>
<path d="M316.861 139H320.394C322.392 139 323.372 137.982 323.372 136.622C323.372 135.301 322.435 134.526 321.506 134.479V134.394C322.358 134.193 323.031 133.597 323.031 132.536C323.031 131.236 322.094 130.273 320.202 130.273H316.861V139ZM318.442 137.679V135.122H320.185C321.161 135.122 321.766 135.719 321.766 136.499C321.766 137.193 321.288 137.679 320.142 137.679H318.442ZM318.442 133.984V131.577H320.04C320.969 131.577 321.45 132.067 321.45 132.74C321.45 133.507 320.828 133.984 320.006 133.984H318.442Z" fill="#3C3A3E"/>
<path d="M326.167 134.585V132.455H324.679V139H327.654C329.32 139 330.279 138.08 330.283 136.793C330.279 135.472 329.32 134.585 327.654 134.585H326.167ZM331.097 139H332.64V132.455H331.097V139ZM326.167 135.851H327.654C328.323 135.851 328.804 136.247 328.804 136.814C328.804 137.355 328.323 137.734 327.654 137.734H326.167V135.851Z" fill="#3C3A3E"/>
<path d="M339.476 130.034C339.161 130.273 338.662 130.269 337.984 130.269C337.793 130.269 337.592 130.269 337.375 130.273C335.121 130.303 333.962 131.803 333.962 134.879V135.467C333.962 137.862 335.172 139.128 337.077 139.128C338.982 139.128 340.183 137.858 340.183 135.838C340.183 133.878 339.041 132.749 337.418 132.749C336.42 132.749 335.666 133.179 335.257 133.98H335.185C335.338 132.348 335.952 131.611 337.418 131.577C338.717 131.547 339.446 131.526 340.013 131.031L339.476 130.034ZM337.085 137.892C336.118 137.892 335.526 137.117 335.526 135.881C335.538 134.662 336.122 133.963 337.077 133.963C338.031 133.963 338.619 134.662 338.619 135.881C338.619 137.121 338.036 137.892 337.085 137.892Z" fill="#3C3A3E"/>
<path d="M341.496 141.455H343.038V137.969H343.102C343.345 138.446 343.852 139.115 344.977 139.115C346.52 139.115 347.675 137.892 347.675 135.736C347.675 133.554 346.486 132.369 344.973 132.369C343.818 132.369 343.337 133.064 343.102 133.537H343.013V132.455H341.496V141.455ZM343.009 135.727C343.009 134.457 343.554 133.635 344.547 133.635C345.574 133.635 346.102 134.509 346.102 135.727C346.102 136.955 345.565 137.85 344.547 137.85C343.563 137.85 343.009 136.997 343.009 135.727Z" fill="#3C3A3E"/>
<path d="M350.879 139.132C351.906 139.132 352.52 138.651 352.801 138.101H352.852V139H354.335V134.619C354.335 132.889 352.925 132.369 351.676 132.369C350.3 132.369 349.243 132.983 348.902 134.176L350.342 134.381C350.496 133.933 350.93 133.55 351.685 133.55C352.401 133.55 352.793 133.916 352.793 134.56V134.585C352.793 135.028 352.328 135.05 351.173 135.173C349.903 135.31 348.689 135.689 348.689 137.163C348.689 138.45 349.631 139.132 350.879 139.132ZM351.28 137.999C350.636 137.999 350.176 137.705 350.176 137.138C350.176 136.546 350.692 136.298 351.382 136.2C351.787 136.145 352.597 136.043 352.797 135.881V136.652C352.797 137.381 352.209 137.999 351.28 137.999Z" fill="#3C3A3E"/>
<path d="M355.153 133.72H357.271V139H358.763V133.72H360.881V132.455H355.153V133.72Z" fill="#3C3A3E"/>
<path d="M363.596 134.585V132.455H362.109V139H365.083C366.75 139 367.708 138.08 367.713 136.793C367.708 135.472 366.75 134.585 365.083 134.585H363.596ZM363.596 135.851H365.083C365.753 135.851 366.234 136.247 366.234 136.814C366.234 137.355 365.753 137.734 365.083 137.734H363.596V135.851Z" fill="#3C3A3E"/>
<path d="M373.499 136.912V132.455H372.011V139H373.601L376.213 134.538V139H377.705V132.455H376.119L373.499 136.912Z" fill="#3C3A3E"/>
<path d="M382.144 139.128C383.789 139.128 384.837 138.152 384.948 136.763H383.473C383.341 137.466 382.834 137.871 382.157 137.871C381.194 137.871 380.571 137.065 380.571 135.727C380.571 134.406 381.206 133.614 382.157 133.614C382.898 133.614 383.354 134.091 383.473 134.722H384.948C384.841 133.303 383.733 132.369 382.135 132.369C380.218 132.369 379.008 133.754 379.008 135.753C379.008 137.734 380.188 139.128 382.144 139.128Z" fill="#3C3A3E"/>
<path d="M387.429 132.455H385.793L387.736 135.727L385.742 139H387.378L388.75 136.644L390.135 139H391.759L389.751 135.727L391.724 132.455H390.092L388.75 134.871L387.429 132.455Z" fill="#3C3A3E"/>
<path d="M395.527 139.128C397.444 139.128 398.663 137.777 398.663 135.753C398.663 133.725 397.444 132.369 395.527 132.369C393.609 132.369 392.39 133.725 392.39 135.753C392.39 137.777 393.609 139.128 395.527 139.128ZM395.535 137.892C394.474 137.892 393.954 136.946 393.954 135.749C393.954 134.551 394.474 133.592 395.535 133.592C396.579 133.592 397.099 134.551 397.099 135.749C397.099 136.946 396.579 137.892 395.535 137.892Z" fill="#3C3A3E"/>
<path d="M399.393 140.901H400.91V139H405.193V140.901H406.684V137.73H405.67V132.455H400.94L400.752 134.747C400.629 136.213 400.467 137.3 399.913 137.73H399.393V140.901ZM401.498 137.73C401.911 137.121 402.065 136.132 402.175 134.747L402.278 133.699H404.195V137.73H401.498Z" fill="#3C3A3E"/>
<path d="M411.705 139H413.15V132.455H410.307C408.705 132.455 407.712 133.277 407.716 134.534C407.712 135.361 408.164 135.987 408.944 136.307L407.478 139H408.995L410.337 136.537H411.705V139ZM411.705 135.412H410.256C409.579 135.412 409.204 135.058 409.208 134.568C409.204 134.078 409.6 133.707 410.307 133.707H411.705V135.412Z" fill="#3C3A3E"/>
<path d="M424.534 137.734H423.281V132.455H421.794V137.73H419.735V132.455H418.248V137.73H416.19V132.455H414.703V139H422.953V140.875H424.406L424.534 137.734Z" fill="#3C3A3E"/>
<path d="M427.241 136.912V132.455H425.754V139H427.343L429.955 134.538V139H431.447V132.455H429.862L427.241 136.912Z" fill="#3C3A3E"/>
<path d="M435.929 139.128C437.454 139.128 438.503 138.382 438.775 137.244L437.335 137.082C437.126 137.636 436.615 137.926 435.95 137.926C434.953 137.926 434.292 137.27 434.28 136.149H438.839V135.676C438.839 133.379 437.458 132.369 435.848 132.369C433.973 132.369 432.75 133.746 432.75 135.766C432.75 137.82 433.956 139.128 435.929 139.128ZM434.284 135.109C434.331 134.274 434.949 133.571 435.869 133.571C436.755 133.571 437.352 134.219 437.36 135.109H434.284Z" fill="#3C3A3E"/>
<path d="M444.608 132.455H443.121V139H444.608V136.354H447.144V139H448.626V132.455H447.144V135.088H444.608V132.455Z" fill="#3C3A3E"/>
<path d="M453.042 139.128C454.96 139.128 456.179 137.777 456.179 135.753C456.179 133.725 454.96 132.369 453.042 132.369C451.125 132.369 449.906 133.725 449.906 135.753C449.906 137.777 451.125 139.128 453.042 139.128ZM453.051 137.892C451.99 137.892 451.47 136.946 451.47 135.749C451.47 134.551 451.99 133.592 453.051 133.592C454.095 133.592 454.615 134.551 454.615 135.749C454.615 136.946 454.095 137.892 453.051 137.892Z" fill="#3C3A3E"/>
<path d="M461.255 137.206L459.363 132.455H457.488V139H458.975V134.59L460.718 139H461.796L463.599 134.543V139H465.073V132.455H463.198L461.255 137.206Z" fill="#3C3A3E"/>
<path d="M469.526 139.128C471.052 139.128 472.1 138.382 472.373 137.244L470.933 137.082C470.724 137.636 470.212 137.926 469.548 137.926C468.55 137.926 467.89 137.27 467.877 136.149H472.437V135.676C472.437 133.379 471.056 132.369 469.445 132.369C467.57 132.369 466.347 133.746 466.347 135.766C466.347 137.82 467.553 139.128 469.526 139.128ZM467.881 135.109C467.928 134.274 468.546 133.571 469.467 133.571C470.353 133.571 470.95 134.219 470.958 135.109H467.881Z" fill="#3C3A3E"/>
<path d="M473.742 141.455H475.284V137.969H475.348C475.591 138.446 476.098 139.115 477.223 139.115C478.766 139.115 479.921 137.892 479.921 135.736C479.921 133.554 478.732 132.369 477.219 132.369C476.064 132.369 475.583 133.064 475.348 133.537H475.259V132.455H473.742V141.455ZM475.255 135.727C475.255 134.457 475.8 133.635 476.793 133.635C477.82 133.635 478.348 134.509 478.348 135.727C478.348 136.955 477.811 137.85 476.793 137.85C475.809 137.85 475.255 136.997 475.255 135.727Z" fill="#3C3A3E"/>
<path d="M483.125 139.132C484.152 139.132 484.766 138.651 485.047 138.101H485.098V139H486.581V134.619C486.581 132.889 485.171 132.369 483.922 132.369C482.546 132.369 481.489 132.983 481.148 134.176L482.588 134.381C482.742 133.933 483.177 133.55 483.931 133.55C484.647 133.55 485.039 133.916 485.039 134.56V134.585C485.039 135.028 484.574 135.05 483.419 135.173C482.15 135.31 480.935 135.689 480.935 137.163C480.935 138.45 481.877 139.132 483.125 139.132ZM483.526 137.999C482.883 137.999 482.422 137.705 482.422 137.138C482.422 136.546 482.938 136.298 483.628 136.2C484.033 136.145 484.843 136.043 485.043 135.881V136.652C485.043 137.381 484.455 137.999 483.526 137.999Z" fill="#3C3A3E"/>
<path d="M316.196 180.403H317.207V179H320.915V180.398H321.926V178.139H321.278V173.182H317.559L317.406 175.642C317.312 177.21 316.98 177.827 316.585 178.139H316.196V180.403ZM317.812 178.139C318.122 177.631 318.346 176.832 318.417 175.642L318.508 174.065H320.267V178.139H317.812Z" fill="#858585"/>
<path d="M324.643 179.085C325.921 179.085 326.733 178.184 326.733 176.835C326.733 175.483 325.921 174.579 324.643 174.579C323.364 174.579 322.552 175.483 322.552 176.835C322.552 178.184 323.364 179.085 324.643 179.085ZM324.648 178.261C323.941 178.261 323.594 177.631 323.594 176.832C323.594 176.034 323.941 175.395 324.648 175.395C325.344 175.395 325.691 176.034 325.691 176.832C325.691 177.631 325.344 178.261 324.648 178.261Z" fill="#858585"/>
<path d="M329.51 179.085C330.606 179.085 331.305 178.434 331.379 177.508H330.396C330.308 177.977 329.97 178.247 329.518 178.247C328.876 178.247 328.461 177.71 328.461 176.818C328.461 175.937 328.885 175.409 329.518 175.409C330.013 175.409 330.317 175.727 330.396 176.148H331.379C331.308 175.202 330.569 174.579 329.504 174.579C328.226 174.579 327.419 175.503 327.419 176.835C327.419 178.156 328.206 179.085 329.51 179.085Z" fill="#858585"/>
<path d="M331.915 175.48H333.326V179H334.321V175.48H335.733V174.636H331.915V175.48Z" fill="#858585"/>
<path d="M337.191 180.636C337.992 180.636 338.455 180.224 338.702 179.528L340.455 174.642L339.356 174.636L338.347 177.932H338.302L337.296 174.636H336.205L337.787 179.091L337.699 179.327C337.509 179.824 337.208 179.858 336.759 179.727L336.52 180.528C336.66 180.585 336.91 180.636 337.191 180.636Z" fill="#858585"/>
<path d="M341.169 179H342.152V175.48H343.862V179H344.853V174.636H341.169V179Z" fill="#858585"/>
<path d="M346.902 174.636H345.911V179H346.902V177.236H348.593V179H349.581V174.636H348.593V176.392H346.902V174.636Z" fill="#858585"/>
<path d="M351.613 176.057V174.636H350.622V179H352.605C353.716 179 354.355 178.386 354.358 177.528C354.355 176.648 353.716 176.057 352.605 176.057H351.613ZM354.9 179H355.929V174.636H354.9V179ZM351.613 176.9H352.605C353.051 176.9 353.372 177.165 353.372 177.542C353.372 177.903 353.051 178.156 352.605 178.156H351.613V176.9Z" fill="#858585"/>
<path d="M358.921 179.085C359.938 179.085 360.637 178.588 360.819 177.829L359.858 177.721C359.719 178.091 359.378 178.284 358.935 178.284C358.27 178.284 357.83 177.846 357.822 177.099H360.861V176.784C360.861 175.253 359.941 174.579 358.867 174.579C357.617 174.579 356.802 175.497 356.802 176.844C356.802 178.213 357.606 179.085 358.921 179.085ZM357.824 176.406C357.856 175.849 358.268 175.381 358.881 175.381C359.472 175.381 359.87 175.812 359.875 176.406H357.824Z" fill="#858585"/>
<path d="M362.365 179.062C362.7 179.062 362.987 178.784 362.99 178.437C362.987 178.096 362.7 177.818 362.365 177.818C362.018 177.818 361.737 178.096 361.74 178.437C361.737 178.784 362.018 179.062 362.365 179.062ZM362.365 175.946C362.7 175.946 362.987 175.667 362.99 175.321C362.987 174.98 362.7 174.702 362.365 174.702C362.018 174.702 361.737 174.98 361.74 175.321C361.737 175.667 362.018 175.946 362.365 175.946Z" fill="#858585"/>
<path d="M444.574 179H446.929C448.261 179 448.915 178.321 448.915 177.415C448.915 176.534 448.29 176.017 447.67 175.986V175.929C448.239 175.795 448.687 175.397 448.687 174.69C448.687 173.824 448.062 173.182 446.801 173.182H444.574V179ZM445.628 178.119V176.415H446.79C447.44 176.415 447.844 176.812 447.844 177.332C447.844 177.795 447.525 178.119 446.761 178.119H445.628ZM445.628 175.656V174.051H446.693C447.312 174.051 447.633 174.378 447.633 174.826C447.633 175.338 447.219 175.656 446.67 175.656H445.628Z" fill="#858585"/>
<path d="M450.778 176.057V174.636H449.786V179H451.769C452.88 179 453.519 178.386 453.522 177.528C453.519 176.647 452.88 176.057 451.769 176.057H450.778ZM454.064 179H455.093V174.636H454.064V179ZM450.778 176.9H451.769C452.215 176.9 452.536 177.165 452.536 177.542C452.536 177.903 452.215 178.156 451.769 178.156H450.778V176.9Z" fill="#858585"/>
<path d="M459.65 173.022C459.44 173.182 459.108 173.179 458.656 173.179C458.528 173.179 458.395 173.179 458.25 173.182C456.747 173.201 455.974 174.201 455.974 176.253V176.645C455.974 178.241 456.781 179.085 458.051 179.085C459.321 179.085 460.122 178.238 460.122 176.892C460.122 175.585 459.361 174.832 458.278 174.832C457.614 174.832 457.111 175.119 456.838 175.653H456.79C456.892 174.565 457.301 174.074 458.278 174.051C459.145 174.031 459.631 174.017 460.008 173.687L459.65 173.022ZM458.057 178.261C457.412 178.261 457.017 177.744 457.017 176.92C457.025 176.108 457.415 175.642 458.051 175.642C458.687 175.642 459.079 176.108 459.079 176.92C459.079 177.747 458.69 178.261 458.057 178.261Z" fill="#858585"/>
<path d="M460.997 180.636H462.025V178.312H462.068C462.23 178.63 462.568 179.076 463.318 179.076C464.346 179.076 465.116 178.261 465.116 176.824C465.116 175.369 464.324 174.579 463.315 174.579C462.545 174.579 462.224 175.042 462.068 175.358H462.008V174.636H460.997V180.636ZM462.006 176.818C462.006 175.971 462.369 175.423 463.031 175.423C463.716 175.423 464.068 176.005 464.068 176.818C464.068 177.636 463.71 178.233 463.031 178.233C462.375 178.233 462.006 177.665 462.006 176.818Z" fill="#858585"/>
<path d="M467.253 179.088C467.937 179.088 468.346 178.767 468.534 178.4H468.568V179H469.557V176.079C469.557 174.926 468.616 174.579 467.784 174.579C466.866 174.579 466.162 174.988 465.935 175.784L466.895 175.92C466.997 175.622 467.287 175.366 467.79 175.366C468.267 175.366 468.528 175.611 468.528 176.04V176.057C468.528 176.352 468.219 176.366 467.449 176.449C466.602 176.54 465.792 176.792 465.792 177.775C465.792 178.633 466.42 179.088 467.253 179.088ZM467.52 178.332C467.091 178.332 466.784 178.136 466.784 177.758C466.784 177.363 467.128 177.199 467.588 177.133C467.858 177.096 468.398 177.028 468.531 176.92V177.434C468.531 177.92 468.139 178.332 467.52 178.332Z" fill="#858585"/>
<path d="M471.582 174.636H470.591V179H471.582V177.236H473.273V179H474.261V174.636H473.273V176.392H471.582V174.636Z" fill="#858585"/>
<path d="M476.293 174.636H475.302V179H476.293V177.236H477.984V179H478.972V174.636H477.984V176.392H476.293V174.636Z" fill="#858585"/>
<path d="M481.004 176.057V174.636H480.013V179H481.996C483.106 179 483.746 178.386 483.748 177.528C483.746 176.647 483.106 176.057 481.996 176.057H481.004ZM484.291 179H485.319V174.636H484.291V179ZM481.004 176.9H481.996C482.442 176.9 482.763 177.165 482.763 177.542C482.763 177.903 482.442 178.156 481.996 178.156H481.004V176.9Z" fill="#858585"/>
<path d="M488.312 179.085C489.329 179.085 490.028 178.588 490.209 177.829L489.249 177.721C489.11 178.091 488.769 178.284 488.326 178.284C487.661 178.284 487.221 177.846 487.212 177.099H490.252V176.784C490.252 175.253 489.332 174.579 488.258 174.579C487.008 174.579 486.192 175.497 486.192 176.843C486.192 178.213 486.996 179.085 488.312 179.085ZM487.215 176.406C487.246 175.849 487.658 175.38 488.272 175.38C488.863 175.38 489.261 175.812 489.266 176.406H487.215Z" fill="#858585"/>
<path d="M491.756 179.062C492.091 179.062 492.378 178.784 492.381 178.437C492.378 178.096 492.091 177.818 491.756 177.818C491.409 177.818 491.128 178.096 491.131 178.437C491.128 178.784 491.409 179.062 491.756 179.062ZM491.756 175.946C492.091 175.946 492.378 175.667 492.381 175.321C492.378 174.98 492.091 174.701 491.756 174.701C491.409 174.701 491.128 174.98 491.131 175.321C491.128 175.667 491.409 175.946 491.756 175.946Z" fill="#858585"/>
<path fill-rule="evenodd" clip-rule="evenodd" d="M318 152C316.895 152 316 152.895 316 154C316 155.105 316.895 156 318 156H456C457.105 156 458 155.105 458 154C458 152.895 457.105 152 456 152H318ZM473 152C471.895 152 471 152.895 471 154C471 155.105 471.895 156 473 156H557C558.105 156 559 155.105 559 154C559 152.895 558.105 152 557 152H473ZM316 193C316 191.895 316.895 191 318 191H421C422.105 191 423 191.895 423 193C423 194.105 422.105 195 421 195H318C316.895 195 316 194.105 316 193ZM446 191C444.895 191 444 191.895 444 193C444 194.105 444.895 195 446 195H557C558.105 195 559 194.105 559 193C559 191.895 558.105 191 557 191H446ZM316 203C316 201.895 316.895 201 318 201H400C401.105 201 402 201.895 402 203C402 204.105 401.105 205 400 205H318C316.895 205 316 204.105 316 203ZM446 201C444.895 201 444 201.895 444 203C444 204.105 444.895 205 446 205H516C517.105 205 518 204.105 518 203C518 201.895 517.105 201 516 201H446Z" fill="#E6E6E6"/>
<defs>
<filter id="filter0_d_1059_7128" x="11" y="26" width="480" height="304" filterUnits="userSpaceOnUse" color-interpolation-filters="sRGB">
<feFlood flood-opacity="0" result="BackgroundImageFix"/>
<feColorMatrix in="SourceAlpha" type="matrix" values="0 0 0 0 0 0 0 0 0 0 0 0 0 0 0 0 0 0 127 0" result="hardAlpha"/>
<feOffset/>
<feGaussianBlur stdDeviation="12.5"/>
<feComposite in2="hardAlpha" operator="out"/>
<feColorMatrix type="matrix" values="0 0 0 0 0 0 0 0 0 0 0 0 0 0 0 0 0 0 0.15 0"/>
<feBlend mode="normal" in2="BackgroundImageFix" result="effect1_dropShadow_1059_7128"/>
<feBlend mode="normal" in="SourceGraphic" in2="effect1_dropShadow_1059_7128" result="shape"/>
</filter>
<filter id="filter1_d_1059_7128" x="268" y="7" width="339" height="109" filterUnits="userSpaceOnUse" color-interpolation-filters="sRGB">
<feFlood flood-opacity="0" result="BackgroundImageFix"/>
<feColorMatrix in="SourceAlpha" type="matrix" values="0 0 0 0 0 0 0 0 0 0 0 0 0 0 0 0 0 0 127 0" result="hardAlpha"/>
<feOffset/>
<feGaussianBlur stdDeviation="12.5"/>
<feComposite in2="hardAlpha" operator="out"/>
<feColorMatrix type="matrix" values="0 0 0 0 0 0 0 0 0 0 0 0 0 0 0 0 0 0 0.15 0"/>
<feBlend mode="normal" in2="BackgroundImageFix" result="effect1_dropShadow_1059_7128"/>
<feBlend mode="normal" in="SourceGraphic" in2="effect1_dropShadow_1059_7128" result="shape"/>
</filter>
<filter id="filter2_d_1059_7128" x="268" y="216" width="339" height="133" filterUnits="userSpaceOnUse" color-interpolation-filters="sRGB">
<feFlood flood-opacity="0" result="BackgroundImageFix"/>
<feColorMatrix in="SourceAlpha" type="matrix" values="0 0 0 0 0 0 0 0 0 0 0 0 0 0 0 0 0 0 127 0" result="hardAlpha"/>
<feOffset/>
<feGaussianBlur stdDeviation="12.5"/>
<feComposite in2="hardAlpha" operator="out"/>
<feColorMatrix type="matrix" values="0 0 0 0 0 0 0 0 0 0 0 0 0 0 0 0 0 0 0.15 0"/>
<feBlend mode="normal" in2="BackgroundImageFix" result="effect1_dropShadow_1059_7128"/>
<feBlend mode="normal" in="SourceGraphic" in2="effect1_dropShadow_1059_7128" result="shape"/>
</filter>
<filter id="filter3_d_1059_7128" x="268" y="85" width="339" height="162" filterUnits="userSpaceOnUse" color-interpolation-filters="sRGB">
<feFlood flood-opacity="0" result="BackgroundImageFix"/>
<feColorMatrix in="SourceAlpha" type="matrix" values="0 0 0 0 0 0 0 0 0 0 0 0 0 0 0 0 0 0 127 0" result="hardAlpha"/>
<feOffset/>
<feGaussianBlur stdDeviation="12.5"/>
<feComposite in2="hardAlpha" operator="out"/>
<feColorMatrix type="matrix" values="0 0 0 0 0 0 0 0 0 0 0 0 0 0 0 0 0 0 0.15 0"/>
<feBlend mode="normal" in2="BackgroundImageFix" result="effect1_dropShadow_1059_7128"/>
<feBlend mode="normal" in="SourceGraphic" in2="effect1_dropShadow_1059_7128" result="shape"/>
</filter>
</defs>
</svg>
