<svg width="469" height="300" viewBox="0 0 469 300" fill="none" xmlns="http://www.w3.org/2000/svg">
<path d="M15 0H465V300H15V0Z" fill="#F5F5F5"/>
<g filter="url(#filter0_d_1059_7617)">
<rect x="107" y="27" width="337" height="200" rx="4" fill="white"/>
</g>
<path d="M107 31C107 28.7909 108.791 27 111 27H440C442.209 27 444 28.7909 444 31V51H107V31Z" fill="#3C3A3E"/>
<path d="M107 51H197V227H111C108.791 227 107 225.209 107 223V51Z" fill="#EDEDED"/>
<path fill-rule="evenodd" clip-rule="evenodd" d="M198 189V120.5V120V51H196V120L107 120V120.5L196 120.5L196 189L107 189V189.5L196 189.5V227H198L198 189.5V189ZM116.5 66C115.672 66 115 66.6716 115 67.5C115 68.3284 115.672 69 116.5 69H185.5C186.328 69 187 68.3284 187 67.5C187 66.6716 186.328 66 185.5 66H116.5ZM115 136.5C115 135.672 115.672 135 116.5 135H185.5C186.328 135 187 135.672 187 136.5C187 137.328 186.328 138 185.5 138H116.5C115.672 138 115 137.328 115 136.5ZM116.5 78C115.672 78 115 78.6716 115 79.5C115 80.3284 115.672 81 116.5 81H167.5C168.328 81 169 80.3284 169 79.5C169 78.6716 168.328 78 167.5 78H116.5ZM115 148.5C115 147.672 115.672 147 116.5 147H167.5C168.328 147 169 147.672 169 148.5C169 149.328 168.328 150 167.5 150H116.5C115.672 150 115 149.328 115 148.5ZM116.5 90C115.672 90 115 90.6716 115 91.5C115 92.3284 115.672 93 116.5 93H175.5C176.328 93 177 92.3284 177 91.5C177 90.6716 176.328 90 175.5 90H116.5ZM115 160.5C115 159.672 115.672 159 116.5 159H175.5C176.328 159 177 159.672 177 160.5C177 161.328 176.328 162 175.5 162H116.5C115.672 162 115 161.328 115 160.5ZM116.5 204C115.672 204 115 204.672 115 205.5C115 206.328 115.672 207 116.5 207H175.5C176.328 207 177 206.328 177 205.5C177 204.672 176.328 204 175.5 204H116.5ZM115 103.5C115 102.672 115.672 102 116.5 102H155.5C156.328 102 157 102.672 157 103.5C157 104.328 156.328 105 155.5 105H116.5C115.672 105 115 104.328 115 103.5ZM116.5 171C115.672 171 115 171.672 115 172.5C115 173.328 115.672 174 116.5 174H155.5C156.328 174 157 173.328 157 172.5C157 171.672 156.328 171 155.5 171H116.5Z" fill="#CBCBCB"/>
<path d="M216.568 75.0002H218.029L215.331 71.4398L217.917 68.4547H216.456L214.129 71.1458H213.832V68.4547H212.646V75.0002H213.832V72.1397H214.414L216.568 75.0002Z" fill="#3C3A3E"/>
<path d="M220.195 75.0993C220.966 75.0993 221.426 74.7381 221.637 74.3258H221.675V75.0002H222.787V71.7147C222.787 70.4171 221.73 70.0272 220.793 70.0272C219.761 70.0272 218.968 70.4874 218.713 71.3823L219.793 71.5357C219.908 71.2001 220.234 70.9125 220.8 70.9125C221.336 70.9125 221.631 71.1873 221.631 71.6699V71.6891C221.631 72.0215 221.282 72.0375 220.416 72.1301C219.464 72.2324 218.553 72.5169 218.553 73.6227C218.553 74.5879 219.259 75.0993 220.195 75.0993ZM220.496 74.2491C220.013 74.2491 219.668 74.0286 219.668 73.6035C219.668 73.1593 220.055 72.9739 220.573 72.9004C220.876 72.8588 221.483 72.7821 221.634 72.6607V73.2392C221.634 73.7857 221.193 74.2491 220.496 74.2491Z" fill="#3C3A3E"/>
<path d="M226.776 73.6547L225.357 70.0911H223.951V75.0002H225.066V71.6923L226.373 75.0002H227.182L228.534 71.6571V75.0002H229.64V70.0911H228.233L226.776 73.6547Z" fill="#3C3A3E"/>
<path d="M230.806 75.0002H231.912V71.0403H233.836V75.0002H234.952V70.0911H230.806V75.0002Z" fill="#3C3A3E"/>
<path d="M237.554 75.0993C238.324 75.0993 238.784 74.7381 238.995 74.3258H239.034V75.0002H240.146V71.7147C240.146 70.4171 239.088 70.0272 238.152 70.0272C237.119 70.0272 236.327 70.4874 236.071 71.3823L237.151 71.5357C237.266 71.2001 237.592 70.9125 238.158 70.9125C238.695 70.9125 238.989 71.1873 238.989 71.6699V71.6891C238.989 72.0215 238.641 72.0375 237.774 72.1301C236.822 72.2324 235.911 72.5169 235.911 73.6227C235.911 74.5879 236.617 75.0993 237.554 75.0993ZM237.854 74.2491C237.372 74.2491 237.027 74.0286 237.027 73.6035C237.027 73.1593 237.413 72.9739 237.931 72.9004C238.235 72.8588 238.842 72.7821 238.992 72.6607V73.2392C238.992 73.7857 238.551 74.2491 237.854 74.2491Z" fill="#3C3A3E"/>
<path d="M242.425 70.0911H241.309V75.0002H242.425V73.0154H244.326V75.0002H245.438V70.0911H244.326V72.0662H242.425V70.0911Z" fill="#3C3A3E"/>
<path d="M247.724 73.4341V70.0911H246.609V75.0002H247.801L249.76 71.6539V75.0002H250.879V70.0911H249.69L247.724 73.4341Z" fill="#3C3A3E"/>
<path d="M253.182 73.4341V70.0911H252.067V75.0002H253.259L255.218 71.6539V75.0002H256.337V70.0911H255.148L253.182 73.4341Z" fill="#3C3A3E"/>
<path d="M263.995 74.2971L262.781 72.3347L263.995 70.3723H262.953L261.662 72.29V72.3794L262.953 74.2971H263.995ZM262.046 74.2971L260.831 72.3347L262.046 70.3723H261.004L259.713 72.29V72.3794L261.004 74.2971H262.046Z" fill="#3C3A3E"/>
<path d="M267.473 75.0897C268.873 75.0897 269.892 74.2875 269.889 73.1816C269.892 72.3635 269.381 71.7754 268.463 71.6444V71.5932C269.173 71.4398 269.649 70.9125 269.646 70.1774C269.649 69.1802 268.799 68.3652 267.492 68.3652C266.22 68.3652 265.235 69.1227 265.21 70.2189H266.351C266.37 69.6692 266.881 69.3272 267.485 69.3272C268.096 69.3272 268.502 69.698 268.499 70.2477C268.502 70.8198 268.029 71.2001 267.351 71.2001H266.773V72.1142H267.351C268.179 72.1142 268.671 72.5297 268.668 73.1209C268.671 73.6994 268.169 74.0957 267.469 74.0957C266.811 74.0957 266.303 73.7537 266.274 73.22H265.072C265.104 74.3258 266.092 75.0897 267.473 75.0897Z" fill="#3C3A3E"/>
<path d="M270.999 75.0002H273.377C274.527 75.0002 275.185 74.4792 275.185 73.6674C275.185 72.9803 274.652 72.5009 273.881 72.4338C274.537 72.3123 274.946 71.964 274.946 71.411C274.946 70.5833 274.22 70.0911 273.06 70.0911H270.999V75.0002ZM272.082 74.0893V72.8716H273.377C273.802 72.8716 274.06 73.1177 274.06 73.5236C274.06 73.8752 273.802 74.0893 273.377 74.0893H272.082ZM272.082 72.1238V71.0179H273.06C273.543 71.0179 273.837 71.2225 273.837 71.5581C273.837 71.9096 273.552 72.1238 273.082 72.1238H272.082Z" fill="#3C3A3E"/>
<path d="M278.282 75.0961C279.72 75.0961 280.634 74.0829 280.634 72.5648C280.634 71.0435 279.72 70.0272 278.282 70.0272C276.843 70.0272 275.929 71.0435 275.929 72.5648C275.929 74.0829 276.843 75.0961 278.282 75.0961ZM278.288 74.1692C277.492 74.1692 277.102 73.4597 277.102 72.5616C277.102 71.6635 277.492 70.9444 278.288 70.9444C279.071 70.9444 279.461 71.6635 279.461 72.5616C279.461 73.4597 279.071 74.1692 278.288 74.1692Z" fill="#3C3A3E"/>
<path d="M282.731 70.0911H281.616V75.0002H282.731V73.0154H284.633V75.0002H285.745V70.0911H284.633V72.0662H282.731V70.0911Z" fill="#3C3A3E"/>
<path d="M286.916 75.0002H288.073V73.1497H288.638L289.984 75.0002H291.384L289.546 72.5009L291.365 70.0911H289.971L288.494 72.0726H288.073V70.0911H286.916V75.0002Z" fill="#3C3A3E"/>
<path d="M293.155 73.4341V70.0911H292.04V75.0002H293.232L295.191 71.6539V75.0002H296.31V70.0911H295.121L293.155 73.4341Z" fill="#3C3A3E"/>
<path d="M299.73 75.0002H300.836V71.0403H302.76V75.0002H303.875V70.0911H299.73V75.0002Z" fill="#3C3A3E"/>
<path d="M307.206 75.0961C308.645 75.0961 309.559 74.0829 309.559 72.5648C309.559 71.0435 308.645 70.0272 307.206 70.0272C305.768 70.0272 304.854 71.0435 304.854 72.5648C304.854 74.0829 305.768 75.0961 307.206 75.0961ZM307.213 74.1692C306.417 74.1692 306.027 73.4597 306.027 72.5616C306.027 71.6635 306.417 70.9444 307.213 70.9444C307.996 70.9444 308.386 71.6635 308.386 72.5616C308.386 73.4597 307.996 74.1692 307.213 74.1692Z" fill="#3C3A3E"/>
<path d="M313.665 75.0002L314.205 73.3862H316.666L317.209 75.0002H318.475L316.167 68.4547H314.703L312.399 75.0002H313.665ZM314.525 72.4338L315.41 69.7971H315.461L316.346 72.4338H314.525Z" fill="#3C3A3E"/>
<path d="M319.337 75.0002H320.523V72.7885H321.775C323.287 72.7885 324.099 71.8809 324.099 70.6216C324.099 69.372 323.297 68.4547 321.791 68.4547H319.337V75.0002ZM320.523 71.8137V69.4455H321.609C322.498 69.4455 322.891 69.9249 322.891 70.6216C322.891 71.3184 322.498 71.8137 321.616 71.8137H320.523Z" fill="#3C3A3E"/>
<path d="M326.315 68.4547H325.129V75.0002H326.315V68.4547Z" fill="#3C3A3E"/>
<path d="M329.427 74.2971H330.469L331.76 72.3794V72.29L330.469 70.3723H329.427L330.641 72.3347L329.427 74.2971ZM327.458 74.2971H328.5L329.791 72.3794V72.29L328.5 70.3723H327.458L328.672 72.3347L327.458 74.2971Z" fill="#3C3A3E"/>
<path fill-rule="evenodd" clip-rule="evenodd" d="M212 86H430V85H212V86ZM212 106.5C212 105.672 212.672 105 213.5 105H273.5C274.328 105 275 105.672 275 106.5C275 107.328 274.328 108 273.5 108H213.5C212.672 108 212 107.328 212 106.5ZM212 131.5C212 130.672 212.672 130 213.5 130H273.5C274.328 130 275 130.672 275 131.5C275 132.328 274.328 133 273.5 133H213.5C212.672 133 212 132.328 212 131.5ZM213.5 155C212.672 155 212 155.672 212 156.5C212 157.328 212.672 158 213.5 158H273.5C274.328 158 275 157.328 275 156.5C275 155.672 274.328 155 273.5 155H213.5ZM212 181.5C212 180.672 212.672 180 213.5 180H273.5C274.328 180 275 180.672 275 181.5C275 182.328 274.328 183 273.5 183H213.5C212.672 183 212 182.328 212 181.5ZM299.5 105C298.672 105 298 105.672 298 106.5C298 107.328 298.672 108 299.5 108H428.5C429.328 108 430 107.328 430 106.5C430 105.672 429.328 105 428.5 105H299.5ZM298 131.5C298 130.672 298.672 130 299.5 130H428.5C429.328 130 430 130.672 430 131.5C430 132.328 429.328 133 428.5 133H299.5C298.672 133 298 132.328 298 131.5ZM299.5 155C298.672 155 298 155.672 298 156.5C298 157.328 298.672 158 299.5 158H428.5C429.328 158 430 157.328 430 156.5C430 155.672 429.328 155 428.5 155H299.5ZM298 181.5C298 180.672 298.672 180 299.5 180H428.5C429.328 180 430 180.672 430 181.5C430 182.328 429.328 183 428.5 183H299.5C298.672 183 298 182.328 298 181.5ZM430 119H212V118.5H430V119ZM212 144H430V143.5H212V144ZM430 169H212V168.5H430V169ZM212 194H430V193.5H212V194Z" fill="#E6E6E6"/>
<path fill-rule="evenodd" clip-rule="evenodd" d="M124.401 40.9344C124.401 42.7104 123.364 43.5993 121.292 43.6013H117C117 41.8914 119.648 41.8989 120.791 41.9021L120.923 41.9023C121.781 41.9023 122.208 41.5171 122.206 40.7466C122.206 39.9723 121.78 39.5909 120.923 39.5909H118.503V37.9093H120.904C121.76 37.9093 122.184 37.5365 122.184 36.7969C122.184 36.0572 121.754 35.6989 120.904 35.6989C120.768 35.6989 120.614 35.703 120.447 35.7073L120.447 35.7073C119.118 35.7419 117 35.7971 117 34H120.951C122.089 34 122.882 34.1454 123.33 34.4363C123.667 34.6523 123.941 34.9579 124.125 35.3212C124.309 35.6846 124.396 36.0924 124.376 36.5022C124.393 36.9877 124.269 37.4675 124.021 37.8795C123.772 38.2916 123.41 38.617 122.981 38.8136C123.924 39.2297 124.394 39.9424 124.392 40.9517L124.401 40.9344ZM152.466 36.6149C153.282 36.7638 154.018 37.2166 154.535 37.8881C155.052 38.5597 155.315 39.4037 155.274 40.2616C155.232 41.1196 154.89 41.9325 154.312 42.5475C153.733 43.1625 152.957 43.5373 152.13 43.6016C151.304 43.6658 150.483 43.415 149.822 42.8964C149.161 42.3777 148.706 41.6268 148.541 40.7848C148.377 39.9428 148.515 39.0677 148.93 38.3237C149.344 37.5798 150.007 37.0184 150.793 36.7449C151.331 36.5579 151.906 36.5132 152.466 36.6149ZM132.171 41.6394C132.171 42.957 131.312 43.6148 129.594 43.6128H125.434V36.5802H129.338C130.263 36.5802 130.913 36.6929 131.29 36.9125C131.565 37.0601 131.793 37.2857 131.949 37.563C132.105 37.8403 132.182 38.1578 132.171 38.4785C132.176 38.8095 132.089 39.1351 131.921 39.4167C131.753 39.6983 131.511 39.9242 131.223 40.0676C131.517 40.1956 131.767 40.414 131.938 40.6935C132.109 40.973 132.193 41.3001 132.179 41.6308L132.171 41.6394ZM130.252 38.6865C130.252 38.2445 129.954 38.022 129.354 38.022H127.227V39.3713H129.354C129.954 39.3713 130.252 39.143 130.252 38.6865ZM130.252 41.4863C130.252 41.0269 129.957 40.7986 129.365 40.7986H127.227V42.174H129.379C129.971 42.174 130.266 41.9428 130.266 41.4863H130.252ZM147.675 43.6128H145.89V40.8246H143.314V43.6128H141.524V36.5802H143.314V39.276H145.89V36.5802H147.675V43.6128ZM162.995 43.6128H160.586L157.842 40.2005V43.6128H156.052V36.5802H157.842V39.9578L160.728 36.5802H163.012L159.858 40.0214L163.012 43.6128H162.995ZM152.371 38.2271C152.126 38.1473 151.869 38.1205 151.614 38.1483C151.359 38.1762 151.112 38.2582 150.889 38.3891C150.666 38.5201 150.471 38.6972 150.317 38.9095C150.163 39.1218 150.052 39.3647 149.993 39.6231C149.933 39.8815 149.925 40.1499 149.97 40.4115C150.015 40.6731 150.111 40.9223 150.253 41.1437C150.395 41.3651 150.579 41.5539 150.794 41.6984C151.009 41.8428 151.251 41.9398 151.504 41.9833C151.781 42.0409 152.066 42.034 152.34 41.963C152.74 41.8586 153.095 41.6202 153.35 41.2851C153.605 40.9499 153.746 40.5368 153.751 40.11C153.756 39.6831 153.625 39.2665 153.378 38.9249C153.131 38.5834 152.782 38.336 152.385 38.2213L152.371 38.2271ZM137.67 38.1202C138.093 38.3339 138.435 38.6901 138.638 39.1306C138.841 39.5711 138.894 40.0699 138.788 40.5456C138.682 41.0212 138.424 41.4457 138.055 41.7497C137.686 42.0536 137.229 42.2191 136.758 42.2191C136.287 42.2191 135.83 42.0536 135.461 41.7497C135.092 41.4457 134.834 41.0212 134.728 40.5456C134.622 40.0699 134.675 39.5711 134.878 39.1306C135.081 38.6901 135.422 38.3339 135.846 38.1202V36.2393C134.945 36.4701 134.156 37.0348 133.629 37.8268C133.102 38.6188 132.873 39.5833 132.985 40.5383C133.097 41.4933 133.543 42.3727 134.238 43.0106C134.933 43.6484 135.829 44.0006 136.758 44.0006C137.686 44.0006 138.583 43.6484 139.278 43.0106C139.973 42.3727 140.419 41.4933 140.531 40.5383C140.643 39.5833 140.414 38.6188 139.887 37.8268C139.36 37.0348 138.571 36.4701 137.67 36.2393V38.1202ZM136.122 41.073C136.388 41.2534 136.711 41.3179 137.022 41.2525C137.257 41.2071 137.474 41.0901 137.645 40.9167C137.815 40.7432 137.932 40.521 137.981 40.2784C138.029 40.0358 138.007 39.7838 137.917 39.5543C137.826 39.3249 137.672 39.1285 137.474 38.9902C137.354 38.9058 137.22 38.845 137.078 38.811V36.1182H136.52V38.811C136.21 38.8827 135.94 39.0782 135.769 39.355C135.598 39.6318 135.538 39.9676 135.605 40.2893C135.671 40.611 135.857 40.8927 136.122 41.073Z" fill="white"/>
<g filter="url(#filter1_d_1059_7617)">
<rect x="25" y="98" width="222" height="44" rx="7" fill="white"/>
</g>
<path d="M37.4863 118H36.2207L38.525 111.454H39.9888L42.2963 118H41.0307L39.2825 112.796H39.2314L37.4863 118ZM37.5279 115.433H40.9796V116.386H37.5279V115.433Z" fill="#3C3A3E"/>
<path d="M43.1073 118V113.09H44.2643V115.072H44.6862L46.1627 113.09H47.5562L45.7377 115.5L47.5754 118H46.1755L44.83 116.149H44.2643V118H43.1073Z" fill="#3C3A3E"/>
<path d="M47.9629 114.04V113.09H52.2583V114.04H50.6699V118H49.5513V114.04H47.9629Z" fill="#3C3A3E"/>
<path d="M54.295 116.434L56.2606 113.09H57.4495V118H56.3309V114.653L54.3717 118H53.1796V113.09H54.295V116.434Z" fill="#3C3A3E"/>
<path d="M58.6376 118V113.09H60.699C61.2807 113.09 61.7399 113.207 62.0765 113.439C62.4153 113.671 62.5847 113.995 62.5847 114.41C62.5847 114.685 62.4888 114.91 62.2971 115.085C62.1074 115.257 61.8485 115.373 61.5204 115.433C61.7782 115.454 62.0041 115.519 62.198 115.628C62.394 115.737 62.5474 115.88 62.6582 116.056C62.769 116.233 62.8244 116.437 62.8244 116.667C62.8244 116.937 62.753 117.173 62.6103 117.373C62.4696 117.571 62.264 117.726 61.9934 117.837C61.725 117.945 61.399 118 61.0154 118H58.6376ZM59.7211 117.089H61.0154C61.2285 117.089 61.3958 117.039 61.5172 116.938C61.6387 116.836 61.6994 116.698 61.6994 116.523C61.6994 116.321 61.6387 116.162 61.5172 116.047C61.3958 115.93 61.2285 115.871 61.0154 115.871H59.7211V117.089ZM59.7211 115.123H60.7214C60.8791 115.123 61.0144 115.101 61.1273 115.056C61.2402 115.009 61.3265 114.944 61.3862 114.861C61.4458 114.776 61.4757 114.675 61.4757 114.557C61.4757 114.389 61.4064 114.257 61.2679 114.161C61.1316 114.065 60.9419 114.017 60.699 114.017H59.7211V115.123Z" fill="#3C3A3E"/>
<path d="M67.151 115.066V116.015H64.5367V115.066H67.151ZM64.8946 113.09V118H63.7792V113.09H64.8946ZM67.9085 113.09V118H66.7963V113.09H67.9085Z" fill="#3C3A3E"/>
<path d="M69.862 114.688H71.3098C71.9363 114.688 72.421 114.841 72.764 115.146C73.1071 115.45 73.2797 115.85 73.2818 116.344C73.2797 116.666 73.2008 116.951 73.0453 117.201C72.8919 117.45 72.6681 117.646 72.3741 117.789C72.0822 117.929 71.7275 118 71.3098 118H69.079V113.09H70.1944V117.05H71.3098C71.5613 117.05 71.7679 116.986 71.9299 116.859C72.0918 116.729 72.1728 116.562 72.1728 116.36C72.1728 116.147 72.0918 115.973 71.9299 115.839C71.7679 115.705 71.5613 115.638 71.3098 115.638H69.862V114.688ZM73.8922 118V113.09H75.0492V118H73.8922Z" fill="#3C3A3E"/>
<path d="M78.4154 118.095C77.9232 118.095 77.4981 117.993 77.1402 117.789C76.7844 117.582 76.5106 117.29 76.3188 116.913C76.127 116.534 76.0312 116.087 76.0312 115.574C76.0312 115.069 76.127 114.626 76.3188 114.244C76.5127 113.861 76.7833 113.562 77.1306 113.349C77.4779 113.134 77.8859 113.027 78.3547 113.027C78.6572 113.027 78.9427 113.076 79.2112 113.174C79.4818 113.269 79.7204 113.419 79.9271 113.621C80.1359 113.823 80.3 114.081 80.4193 114.394C80.5386 114.706 80.5983 115.076 80.5983 115.507V115.861H76.5745V115.082H79.4893C79.4871 114.86 79.4392 114.663 79.3454 114.49C79.2517 114.316 79.1207 114.178 78.9523 114.078C78.7861 113.978 78.5922 113.928 78.3707 113.928C78.1341 113.928 77.9264 113.985 77.7474 114.1C77.5684 114.213 77.4289 114.362 77.3287 114.548C77.2307 114.731 77.1807 114.932 77.1785 115.152V115.833C77.1785 116.118 77.2307 116.363 77.3351 116.568C77.4395 116.77 77.5855 116.926 77.773 117.034C77.9605 117.141 78.18 117.194 78.4314 117.194C78.5997 117.194 78.752 117.171 78.8884 117.124C79.0248 117.075 79.143 117.003 79.2432 116.91C79.3433 116.816 79.4189 116.7 79.4701 116.561L80.5503 116.683C80.4822 116.968 80.3522 117.218 80.1604 117.431C79.9708 117.642 79.7279 117.806 79.4317 117.923C79.1356 118.038 78.7968 118.095 78.4154 118.095Z" fill="#3C3A3E"/>
<path d="M141.486 118H140.221L142.525 111.454H143.989L146.296 118H145.031L143.282 112.796H143.231L141.486 118ZM141.528 115.433H144.98V116.386H141.528V115.433Z" fill="#3C3A3E"/>
<path d="M147.107 119.84V113.09H148.245V113.902H148.312C148.372 113.783 148.456 113.656 148.565 113.522C148.673 113.386 148.82 113.269 149.006 113.174C149.191 113.076 149.428 113.027 149.715 113.027C150.095 113.027 150.437 113.123 150.741 113.317C151.048 113.509 151.291 113.794 151.47 114.171C151.651 114.546 151.742 115.006 151.742 115.551C151.742 116.09 151.653 116.549 151.476 116.926C151.299 117.303 151.059 117.59 150.754 117.789C150.449 117.987 150.104 118.086 149.718 118.086C149.437 118.086 149.204 118.039 149.019 117.945C148.833 117.851 148.684 117.739 148.571 117.606C148.46 117.472 148.374 117.345 148.312 117.226H148.264V119.84H147.107ZM148.242 115.545C148.242 115.862 148.287 116.141 148.376 116.379C148.468 116.618 148.599 116.804 148.769 116.938C148.942 117.071 149.151 117.137 149.396 117.137C149.651 117.137 149.866 117.068 150.038 116.932C150.211 116.794 150.341 116.605 150.428 116.366C150.517 116.126 150.562 115.852 150.562 115.545C150.562 115.24 150.519 114.97 150.431 114.733C150.344 114.497 150.214 114.311 150.041 114.177C149.869 114.043 149.653 113.976 149.396 113.976C149.149 113.976 148.939 114.041 148.766 114.171C148.593 114.301 148.462 114.483 148.373 114.717C148.286 114.952 148.242 115.228 148.242 115.545Z" fill="#3C3A3E"/>
<path d="M153.494 113.09L154.485 114.903L155.491 113.09H156.715L155.236 115.545L156.741 118H155.523L154.485 116.232L153.455 118H152.228L153.724 115.545L152.267 113.09H153.494Z" fill="#3C3A3E"/>
<path d="M158.726 116.434L160.691 113.09H161.88V118H160.762V114.653L158.802 118H157.61V113.09H158.726V116.434Z" fill="#3C3A3E"/>
<path d="M163.068 118V113.09H165.13C165.711 113.09 166.171 113.207 166.507 113.439C166.846 113.671 167.015 113.995 167.015 114.41C167.015 114.685 166.919 114.91 166.728 115.085C166.538 115.257 166.279 115.373 165.951 115.433C166.209 115.454 166.435 115.519 166.629 115.628C166.825 115.737 166.978 115.88 167.089 116.056C167.2 116.233 167.255 116.437 167.255 116.667C167.255 116.937 167.184 117.173 167.041 117.373C166.9 117.571 166.695 117.726 166.424 117.837C166.156 117.945 165.83 118 165.446 118H163.068ZM164.152 117.089H165.446C165.659 117.089 165.826 117.039 165.948 116.938C166.069 116.836 166.13 116.698 166.13 116.523C166.13 116.321 166.069 116.162 165.948 116.047C165.826 115.93 165.659 115.871 165.446 115.871H164.152V117.089ZM164.152 115.123H165.152C165.31 115.123 165.445 115.101 165.558 115.056C165.671 115.009 165.757 114.944 165.817 114.861C165.877 114.776 165.906 114.675 165.906 114.557C165.906 114.389 165.837 114.257 165.699 114.161C165.562 114.065 165.373 114.017 165.13 114.017H164.152V115.123Z" fill="#3C3A3E"/>
<path fill-rule="evenodd" clip-rule="evenodd" d="M36 127.5V127H36.0854C36.2913 126.417 36.8469 126 37.5 126H116.5C117.153 126 117.709 126.417 117.915 127H236V128H117.915C117.709 128.583 117.153 129 116.5 129H37.5C36.8469 129 36.2913 128.583 36.0854 128H36V127.5Z" fill="#E6E6E6"/>
<g filter="url(#filter2_d_1059_7617)">
<rect x="25" y="221" width="222" height="52" rx="7" fill="white"/>
</g>
<path d="M36.6465 234.454H37.8226V238.916H37.8833L40.9611 234.454H42.0254V241H40.8397V236.541H40.7853L37.698 241H36.6465V234.454Z" fill="#3C3A3E"/>
<path d="M45.4076 241.096C44.9175 241.096 44.4967 240.988 44.1452 240.773C43.7957 240.558 43.5262 240.261 43.3366 239.881C43.1491 239.5 43.0553 239.061 43.0553 238.565C43.0553 238.066 43.1512 237.626 43.343 237.245C43.5347 236.861 43.8053 236.563 44.1547 236.35C44.5063 236.134 44.9218 236.027 45.4012 236.027C45.7996 236.027 46.1523 236.1 46.4591 236.247C46.768 236.392 47.0141 236.598 47.1974 236.864C47.3806 237.128 47.485 237.437 47.5106 237.791H46.4047C46.36 237.555 46.2535 237.358 46.0851 237.2C45.9189 237.04 45.6963 236.96 45.4172 236.96C45.1807 236.96 44.9729 237.024 44.7939 237.152C44.615 237.278 44.4754 237.459 44.3753 237.695C44.2773 237.932 44.2282 238.215 44.2282 238.545C44.2282 238.88 44.2773 239.168 44.3753 239.408C44.4733 239.647 44.6107 239.831 44.7876 239.961C44.9665 240.089 45.1764 240.153 45.4172 240.153C45.5876 240.153 45.74 240.121 45.8742 240.057C46.0106 239.991 46.1246 239.896 46.2162 239.773C46.3078 239.649 46.3707 239.499 46.4047 239.322H47.5106C47.4829 239.669 47.3806 239.977 47.2037 240.246C47.0269 240.512 46.7861 240.721 46.4814 240.872C46.1768 241.021 45.8188 241.096 45.4076 241.096Z" fill="#3C3A3E"/>
<path d="M49.3714 236.091L50.3622 237.903L51.369 236.091H52.593L51.1133 238.545L52.6186 241H51.4009L50.3622 239.233L49.3331 241H48.1058L49.6016 238.545L48.1442 236.091H49.3714Z" fill="#3C3A3E"/>
<path d="M55.4447 241.096C54.9653 241.096 54.5498 240.99 54.1982 240.779C53.8467 240.568 53.574 240.273 53.3801 239.894C53.1883 239.515 53.0924 239.072 53.0924 238.565C53.0924 238.057 53.1883 237.613 53.3801 237.232C53.574 236.85 53.8467 236.554 54.1982 236.343C54.5498 236.132 54.9653 236.027 55.4447 236.027C55.9241 236.027 56.3396 236.132 56.6911 236.343C57.0427 236.554 57.3144 236.85 57.5061 237.232C57.7 237.613 57.797 238.057 57.797 238.565C57.797 239.072 57.7 239.515 57.5061 239.894C57.3144 240.273 57.0427 240.568 56.6911 240.779C56.3396 240.99 55.9241 241.096 55.4447 241.096ZM55.4511 240.169C55.711 240.169 55.9284 240.098 56.1031 239.955C56.2778 239.81 56.4078 239.616 56.493 239.373C56.5803 239.13 56.624 238.86 56.624 238.561C56.624 238.261 56.5803 237.989 56.493 237.746C56.4078 237.501 56.2778 237.306 56.1031 237.161C55.9284 237.017 55.711 236.944 55.4511 236.944C55.1847 236.944 54.9632 237.017 54.7863 237.161C54.6116 237.306 54.4806 237.501 54.3932 237.746C54.308 237.989 54.2654 238.261 54.2654 238.561C54.2654 238.86 54.308 239.13 54.3932 239.373C54.4806 239.616 54.6116 239.81 54.7863 239.955C54.9632 240.098 55.1847 240.169 55.4511 240.169Z" fill="#3C3A3E"/>
<path d="M58.3443 242.425V240.047H58.7342C58.8386 239.967 58.926 239.857 58.9963 239.718C59.0666 239.578 59.1241 239.413 59.1689 239.223C59.2157 239.031 59.2541 238.817 59.2839 238.581C59.3137 238.342 59.3404 238.085 59.3638 237.81L59.5044 236.091H63.052V240.047H63.8127V242.425H62.6941V241H59.4821V242.425H58.3443ZM59.9231 240.047H61.9462V237.024H60.508L60.4313 237.81C60.3887 238.33 60.3322 238.775 60.2619 239.146C60.1916 239.517 60.0787 239.817 59.9231 240.047Z" fill="#3C3A3E"/>
<path d="M67.5784 241V237.03H66.5301C66.2638 237.03 66.0592 237.092 65.9165 237.216C65.7737 237.339 65.7034 237.493 65.7055 237.676C65.7034 237.859 65.7705 238.011 65.9069 238.13C66.0432 238.249 66.2382 238.309 66.4917 238.309H67.9427V239.153H66.4917C66.0997 239.153 65.7609 239.091 65.4754 238.967C65.1899 238.844 64.9704 238.669 64.817 238.443C64.6636 238.217 64.5869 237.953 64.5869 237.65C64.5869 237.335 64.6647 237.061 64.8202 236.829C64.9779 236.595 65.2016 236.414 65.4914 236.286C65.7833 236.156 66.1295 236.091 66.5301 236.091H68.6618V241H67.5784ZM64.4079 241L65.779 238.481H66.92L65.5457 241H64.4079Z" fill="#3C3A3E"/>
<path d="M77.2 240.051L77.1041 242.406H76.0143V241H75.4358V240.051H77.2ZM69.8268 236.091H70.9422V240.047H72.4859V236.091H73.6013V240.047H75.145V236.091H76.2604V241H69.8268V236.091Z" fill="#3C3A3E"/>
<path d="M79.2303 239.434L81.1958 236.091H82.3848V241H81.2662V237.654L79.307 241H78.1149V236.091H79.2303V239.434Z" fill="#3C3A3E"/>
<path d="M84.6883 239.434L86.6539 236.091H87.8428V241H86.7242V237.654L84.765 241H83.5729V236.091H84.6883V239.434ZM86.3374 234.403H87.2036C87.2036 234.776 87.0683 235.079 86.7977 235.311C86.5292 235.541 86.1649 235.656 85.7046 235.656C85.2487 235.656 84.8854 235.541 84.6148 235.311C84.3463 235.079 84.2132 234.776 84.2153 234.403H85.075C85.075 234.557 85.1219 234.694 85.2156 234.816C85.3115 234.935 85.4745 234.995 85.7046 234.995C85.9305 234.995 86.0914 234.935 86.1872 234.816C86.2852 234.696 86.3353 234.559 86.3374 234.403Z" fill="#3C3A3E"/>
<path d="M94.6351 238.066V239.015H92.0208V238.066H94.6351ZM92.3787 236.091V241H91.2633V236.091H92.3787ZM95.3926 236.091V241H94.2804V236.091H95.3926Z" fill="#3C3A3E"/>
<path d="M98.7045 241.096C98.2251 241.096 97.8096 240.99 97.458 240.779C97.1064 240.568 96.8337 240.273 96.6398 239.894C96.4481 239.515 96.3522 239.072 96.3522 238.565C96.3522 238.057 96.4481 237.613 96.6398 237.232C96.8337 236.85 97.1064 236.554 97.458 236.343C97.8096 236.132 98.2251 236.027 98.7045 236.027C99.1839 236.027 99.5993 236.132 99.9509 236.343C100.302 236.554 100.574 236.85 100.766 237.232C100.96 237.613 101.057 238.057 101.057 238.565C101.057 239.072 100.96 239.515 100.766 239.894C100.574 240.273 100.302 240.568 99.9509 240.779C99.5993 240.99 99.1839 241.096 98.7045 241.096ZM98.7108 240.169C98.9708 240.169 99.1881 240.098 99.3628 239.955C99.5376 239.81 99.6675 239.616 99.7528 239.373C99.8401 239.13 99.8838 238.86 99.8838 238.561C99.8838 238.261 99.8401 237.989 99.7528 237.746C99.6675 237.501 99.5376 237.306 99.3628 237.161C99.1881 237.017 98.9708 236.944 98.7108 236.944C98.4445 236.944 98.2229 237.017 98.0461 237.161C97.8714 237.306 97.7403 237.501 97.653 237.746C97.5677 237.989 97.5251 238.261 97.5251 238.561C97.5251 238.86 97.5677 239.13 97.653 239.373C97.7403 239.616 97.8714 239.81 98.0461 239.955C98.2229 240.098 98.4445 240.169 98.7108 240.169Z" fill="#3C3A3E"/>
<path d="M104.864 239.654L106.321 236.091H107.255L105.27 241H104.461L102.521 236.091H103.445L104.864 239.654ZM103.154 236.091V241H102.039V236.091H103.154ZM106.622 241V236.091H107.728V241H106.622Z" fill="#3C3A3E"/>
<path d="M111.067 241.096C110.575 241.096 110.15 240.994 109.792 240.789C109.436 240.582 109.163 240.29 108.971 239.913C108.779 239.534 108.683 239.088 108.683 238.574C108.683 238.069 108.779 237.626 108.971 237.245C109.165 236.861 109.435 236.563 109.783 236.35C110.13 236.134 110.538 236.027 111.007 236.027C111.309 236.027 111.595 236.076 111.863 236.174C112.134 236.27 112.373 236.419 112.579 236.621C112.788 236.824 112.952 237.082 113.071 237.395C113.191 237.706 113.25 238.077 113.25 238.507V238.862H109.227V238.082H112.141C112.139 237.86 112.091 237.663 111.998 237.491C111.904 237.316 111.773 237.179 111.604 237.078C111.438 236.978 111.244 236.928 111.023 236.928C110.786 236.928 110.578 236.986 110.4 237.101C110.221 237.214 110.081 237.363 109.981 237.548C109.883 237.731 109.833 237.933 109.831 238.152V238.833C109.831 239.119 109.883 239.364 109.987 239.568C110.092 239.771 110.238 239.926 110.425 240.035C110.613 240.141 110.832 240.195 111.083 240.195C111.252 240.195 111.404 240.171 111.54 240.124C111.677 240.075 111.795 240.004 111.895 239.91C111.995 239.816 112.071 239.7 112.122 239.562L113.202 239.683C113.134 239.969 113.004 240.218 112.812 240.431C112.623 240.642 112.38 240.806 112.084 240.923C111.788 241.038 111.449 241.096 111.067 241.096Z" fill="#3C3A3E"/>
<path d="M114.229 242.841V236.091H115.367V236.903H115.434C115.494 236.783 115.578 236.657 115.687 236.522C115.795 236.386 115.942 236.27 116.128 236.174C116.313 236.076 116.549 236.027 116.837 236.027C117.216 236.027 117.558 236.124 117.863 236.318C118.17 236.509 118.413 236.794 118.592 237.171C118.773 237.546 118.863 238.006 118.863 238.552C118.863 239.091 118.775 239.549 118.598 239.926C118.421 240.303 118.18 240.591 117.876 240.789C117.571 240.987 117.226 241.086 116.84 241.086C116.559 241.086 116.326 241.039 116.14 240.946C115.955 240.852 115.806 240.739 115.693 240.607C115.582 240.473 115.496 240.346 115.434 240.226H115.386V242.841H114.229ZM115.364 238.545C115.364 238.863 115.408 239.141 115.498 239.38C115.59 239.618 115.721 239.805 115.891 239.939C116.064 240.071 116.272 240.137 116.517 240.137C116.773 240.137 116.987 240.069 117.16 239.932C117.332 239.794 117.462 239.605 117.55 239.367C117.639 239.126 117.684 238.852 117.684 238.545C117.684 238.241 117.64 237.97 117.553 237.734C117.466 237.497 117.336 237.312 117.163 237.177C116.991 237.043 116.775 236.976 116.517 236.976C116.27 236.976 116.06 237.041 115.888 237.171C115.715 237.301 115.584 237.483 115.495 237.718C115.407 237.952 115.364 238.228 115.364 238.545Z" fill="#3C3A3E"/>
<path d="M37.9647 258.184V254.744H38.7452V258.184H37.9647ZM36.6348 256.855V256.074H40.0751V256.855H36.6348Z" fill="#F4774C"/>
<path d="M47.1031 253.909V259H46.1883V254.675H43.961V259H43.0463V253.909H47.1031Z" fill="#F4774C"/>
<path d="M49.8319 259.074C49.459 259.074 49.1358 258.992 48.8624 258.828C48.589 258.664 48.3768 258.435 48.226 258.14C48.0769 257.845 48.0023 257.5 48.0023 257.106C48.0023 256.711 48.0769 256.366 48.226 256.069C48.3768 255.772 48.589 255.542 48.8624 255.378C49.1358 255.214 49.459 255.132 49.8319 255.132C50.2047 255.132 50.5279 255.214 50.8013 255.378C51.0748 255.542 51.286 255.772 51.4352 256.069C51.586 256.366 51.6614 256.711 51.6614 257.106C51.6614 257.5 51.586 257.845 51.4352 258.14C51.286 258.435 51.0748 258.664 50.8013 258.828C50.5279 258.992 50.2047 259.074 49.8319 259.074ZM49.8368 258.354C50.039 258.354 50.208 258.298 50.3439 258.187C50.4798 258.074 50.5809 257.923 50.6472 257.735C50.7151 257.546 50.7491 257.335 50.7491 257.103C50.7491 256.869 50.7151 256.658 50.6472 256.469C50.5809 256.279 50.4798 256.127 50.3439 256.014C50.208 255.902 50.039 255.845 49.8368 255.845C49.6297 255.845 49.4573 255.902 49.3198 256.014C49.1839 256.127 49.082 256.279 49.014 256.469C48.9477 256.658 48.9146 256.869 48.9146 257.103C48.9146 257.335 48.9477 257.546 49.014 257.735C49.082 257.923 49.1839 258.074 49.3198 258.187C49.4573 258.298 49.6297 258.354 49.8368 258.354Z" fill="#F4774C"/>
<path d="M52.0871 260.108V258.259H52.3904C52.4716 258.196 52.5395 258.111 52.5942 258.003C52.6489 257.894 52.6936 257.765 52.7284 257.618C52.7649 257.469 52.7947 257.302 52.8179 257.118C52.8411 256.932 52.8618 256.733 52.8801 256.519L52.9894 255.182H55.7487V258.259H56.3403V260.108H55.4703V259H52.972V260.108H52.0871ZM53.3151 258.259H54.8886V255.907H53.77L53.7103 256.519C53.6772 256.923 53.6333 257.27 53.5786 257.558C53.5239 257.846 53.4361 258.08 53.3151 258.259Z" fill="#F4774C"/>
<path d="M57.0121 259V255.182H57.9119V256.723H58.2401L59.3885 255.182H60.4723L59.0579 257.056L60.4872 259H59.3984L58.3519 257.561H57.9119V259H57.0121Z" fill="#F4774C"/>
<path d="M60.7339 259L60.729 258.259H60.8607C60.9601 258.259 61.0438 258.237 61.1118 258.192C61.1797 258.147 61.2361 258.073 61.2808 257.968C61.3256 257.862 61.3604 257.72 61.3852 257.541C61.4101 257.362 61.4275 257.139 61.4374 256.872L61.5045 255.182H64.2886V259H63.4186V255.92H62.3224L62.2627 257.15C62.2478 257.469 62.2122 257.744 62.1558 257.978C62.1011 258.21 62.0232 258.402 61.9221 258.552C61.8227 258.703 61.6976 258.816 61.5468 258.89C61.396 258.963 61.2178 259 61.0123 259H60.7339Z" fill="#F4774C"/>
<path d="M67.2107 256.745V257.486H65.1549V256.745H67.2107ZM65.8683 255.182V259H64.966V255.182H65.8683ZM68.3641 259.074C67.9962 259.074 67.6772 258.991 67.407 258.823C67.1386 258.656 66.9306 258.424 66.7831 258.127C66.6356 257.831 66.5619 257.488 66.5619 257.098C66.5619 256.709 66.6356 256.367 66.7831 256.072C66.9306 255.777 67.1386 255.546 67.407 255.381C67.6772 255.215 67.9962 255.132 68.3641 255.132C68.7303 255.132 69.0477 255.215 69.3161 255.381C69.5863 255.546 69.7951 255.777 69.9426 256.072C70.0917 256.367 70.1663 256.709 70.1663 257.098C70.1663 257.488 70.0917 257.831 69.9426 258.127C69.7951 258.424 69.5863 258.656 69.3161 258.823C69.0477 258.991 68.7303 259.074 68.3641 259.074ZM68.3641 258.329C68.5812 258.329 68.7585 258.274 68.896 258.165C69.0336 258.055 69.1347 257.908 69.1993 257.722C69.2639 257.537 69.2963 257.329 69.2963 257.098C69.2963 256.868 69.2639 256.66 69.1993 256.474C69.1347 256.289 69.0336 256.142 68.896 256.034C68.7585 255.925 68.5812 255.87 68.3641 255.87C68.1453 255.87 67.9664 255.925 67.8271 256.034C67.6896 256.142 67.5885 256.289 67.5239 256.474C67.4593 256.66 67.4269 256.868 67.4269 257.098C67.4269 257.33 67.4593 257.539 67.5239 257.725C67.5885 257.91 67.6896 258.058 67.8271 258.167C67.9664 258.275 68.1453 258.329 68.3641 258.329Z" fill="#F4774C"/>
<path d="M74.1535 255.182V259H73.2884V255.182H74.1535ZM73.7483 256.907V257.643C73.6505 257.686 73.5395 257.725 73.4152 257.759C73.2926 257.793 73.1625 257.819 73.0249 257.839C72.8891 257.859 72.7532 257.869 72.6173 257.869C72.1069 257.869 71.7033 257.754 71.4067 257.526C71.1117 257.295 70.9642 256.937 70.9642 256.449V255.177H71.8243V256.449C71.8243 256.613 71.8533 256.745 71.9113 256.845C71.9693 256.944 72.0571 257.017 72.1748 257.063C72.2925 257.108 72.44 257.131 72.6173 257.131C72.8161 257.131 73.0051 257.111 73.184 257.071C73.363 257.031 73.5511 256.976 73.7483 256.907Z" fill="#F4774C"/>
<path d="M75.9265 257.782L77.4553 255.182H78.38V259H77.5099V256.397L75.9861 259H75.0589V255.182H75.9265V257.782Z" fill="#F4774C"/>
<path d="M78.8765 255.92V255.182H82.2174V255.92H80.982V259H80.1119V255.92H78.8765Z" fill="#F4774C"/>
<path d="M83.543 256.425H84.669C85.1562 256.425 85.5333 256.543 85.8001 256.78C86.0669 257.017 86.2011 257.328 86.2028 257.712C86.2011 257.962 86.1398 258.184 86.0188 258.378C85.8995 258.572 85.7255 258.725 85.4968 258.836C85.2698 258.945 84.9938 259 84.669 259H82.9339V255.182H83.8015V258.262H84.669C84.8646 258.262 85.0253 258.212 85.1513 258.112C85.2772 258.011 85.3402 257.882 85.3402 257.725C85.3402 257.559 85.2772 257.424 85.1513 257.319C85.0253 257.215 84.8646 257.163 84.669 257.163H83.543V256.425Z" fill="#F4774C"/>
<path d="M91.3328 256.718V257.456H89.2994V256.718H91.3328ZM89.5779 255.182V259H88.7103V255.182H89.5779ZM91.922 255.182V259H91.0569V255.182H91.922Z" fill="#F4774C"/>
<path d="M94.4979 259.074C94.125 259.074 93.8018 258.992 93.5284 258.828C93.255 258.664 93.0429 258.435 92.892 258.14C92.7429 257.845 92.6683 257.5 92.6683 257.106C92.6683 256.711 92.7429 256.366 92.892 256.069C93.0429 255.772 93.255 255.542 93.5284 255.378C93.8018 255.214 94.125 255.132 94.4979 255.132C94.8707 255.132 95.1939 255.214 95.4673 255.378C95.7408 255.542 95.9521 255.772 96.1012 256.069C96.252 256.366 96.3274 256.711 96.3274 257.106C96.3274 257.5 96.252 257.845 96.1012 258.14C95.9521 258.435 95.7408 258.664 95.4673 258.828C95.1939 258.992 94.8707 259.074 94.4979 259.074ZM94.5028 258.354C94.705 258.354 94.8741 258.298 95.0099 258.187C95.1458 258.074 95.2469 257.923 95.3132 257.735C95.3812 257.546 95.4151 257.335 95.4151 257.103C95.4151 256.869 95.3812 256.658 95.3132 256.469C95.2469 256.279 95.1458 256.127 95.0099 256.014C94.8741 255.902 94.705 255.845 94.5028 255.845C94.2957 255.845 94.1233 255.902 93.9858 256.014C93.8499 256.127 93.748 256.279 93.68 256.469C93.6138 256.658 93.5806 256.869 93.5806 257.103C93.5806 257.335 93.6138 257.546 93.68 257.735C93.748 257.923 93.8499 258.074 93.9858 258.187C94.1233 258.298 94.2957 258.354 94.5028 258.354Z" fill="#F4774C"/>
<path d="M97.0912 259V255.182H98.6945C99.1469 255.182 99.5041 255.272 99.7659 255.453C100.029 255.633 100.161 255.885 100.161 256.208C100.161 256.422 100.087 256.597 99.9374 256.733C99.7899 256.867 99.5886 256.957 99.3334 257.004C99.5339 257.02 99.7095 257.071 99.8604 257.155C100.013 257.24 100.132 257.351 100.218 257.488C100.304 257.626 100.348 257.784 100.348 257.963C100.348 258.174 100.292 258.357 100.181 258.513C100.072 258.667 99.9117 258.787 99.7013 258.873C99.4925 258.958 99.2389 259 98.9406 259H97.0912ZM97.9339 258.291H98.9406C99.1063 258.291 99.2364 258.252 99.3309 258.175C99.4253 258.095 99.4726 257.987 99.4726 257.851C99.4726 257.694 99.4253 257.57 99.3309 257.481C99.2364 257.39 99.1063 257.344 98.9406 257.344H97.9339V258.291ZM97.9339 256.763H98.7119C98.8345 256.763 98.9398 256.745 99.0276 256.71C99.1154 256.674 99.1826 256.623 99.229 256.559C99.2754 256.492 99.2986 256.414 99.2986 256.323C99.2986 256.192 99.2447 256.089 99.137 256.014C99.0309 255.94 98.8834 255.903 98.6945 255.903H97.9339V256.763Z" fill="#F4774C"/>
<path d="M101.699 256.425H102.825C103.312 256.425 103.69 256.543 103.956 256.78C104.223 257.017 104.357 257.328 104.359 257.712C104.357 257.962 104.296 258.184 104.175 258.378C104.056 258.572 103.882 258.725 103.653 258.836C103.426 258.945 103.15 259 102.825 259H101.09V255.182H101.958V258.262H102.825C103.021 258.262 103.182 258.212 103.308 258.112C103.433 258.011 103.496 257.882 103.496 257.725C103.496 257.559 103.433 257.424 103.308 257.319C103.182 257.215 103.021 257.163 102.825 257.163H101.699V256.425ZM104.834 259V255.182H105.734V259H104.834Z" fill="#F4774C"/>
<path d="M107.529 257.782L109.058 255.182H109.983V259H109.112V256.397L107.589 259H106.661V255.182H107.529V257.782ZM108.812 253.869H109.485C109.485 254.159 109.38 254.394 109.17 254.575C108.961 254.754 108.677 254.844 108.32 254.844C107.965 254.844 107.682 254.754 107.472 254.575C107.263 254.394 107.159 254.159 107.161 253.869H107.83C107.83 253.988 107.866 254.095 107.939 254.19C108.014 254.283 108.141 254.329 108.32 254.329C108.495 254.329 108.62 254.283 108.695 254.19C108.771 254.097 108.81 253.99 108.812 253.869Z" fill="#F4774C"/>
<path d="M115.265 256.718V257.456H113.232V256.718H115.265ZM113.51 255.182V259H112.643V255.182H113.51ZM115.855 255.182V259H114.99V255.182H115.855Z" fill="#F4774C"/>
<path d="M118.43 259.074C118.058 259.074 117.734 258.992 117.461 258.828C117.188 258.664 116.975 258.435 116.825 258.14C116.676 257.845 116.601 257.5 116.601 257.106C116.601 256.711 116.676 256.366 116.825 256.069C116.975 255.772 117.188 255.542 117.461 255.378C117.734 255.214 118.058 255.132 118.43 255.132C118.803 255.132 119.127 255.214 119.4 255.378C119.673 255.542 119.885 255.772 120.034 256.069C120.185 256.366 120.26 256.711 120.26 257.106C120.26 257.5 120.185 257.845 120.034 258.14C119.885 258.435 119.673 258.664 119.4 258.828C119.127 258.992 118.803 259.074 118.43 259.074ZM118.435 258.354C118.638 258.354 118.807 258.298 118.943 258.187C119.078 258.074 119.18 257.923 119.246 257.735C119.314 257.546 119.348 257.335 119.348 257.103C119.348 256.869 119.314 256.658 119.246 256.469C119.18 256.279 119.078 256.127 118.943 256.014C118.807 255.902 118.638 255.845 118.435 255.845C118.228 255.845 118.056 255.902 117.918 256.014C117.783 256.127 117.681 256.279 117.613 256.469C117.546 256.658 117.513 256.869 117.513 257.103C117.513 257.335 117.546 257.546 117.613 257.735C117.681 257.923 117.783 258.074 117.918 258.187C118.056 258.298 118.228 258.354 118.435 258.354Z" fill="#F4774C"/>
<path d="M123.221 257.953L124.355 255.182H125.081L123.537 259H122.908L121.399 255.182H122.118L123.221 257.953ZM121.891 255.182V259H121.024V255.182H121.891ZM124.588 259V255.182H125.449V259H124.588Z" fill="#F4774C"/>
<path d="M128.046 259.074C127.663 259.074 127.333 258.995 127.054 258.836C126.778 258.675 126.565 258.448 126.415 258.155C126.266 257.86 126.192 257.512 126.192 257.113C126.192 256.72 126.266 256.376 126.415 256.079C126.566 255.781 126.777 255.549 127.047 255.383C127.317 255.216 127.634 255.132 127.999 255.132C128.234 255.132 128.456 255.17 128.665 255.246C128.876 255.321 129.061 255.437 129.222 255.594C129.384 255.752 129.512 255.952 129.605 256.196C129.698 256.438 129.744 256.726 129.744 257.061V257.337H126.614V256.73H128.881C128.88 256.558 128.842 256.405 128.77 256.27C128.697 256.135 128.595 256.028 128.464 255.95C128.335 255.872 128.184 255.833 128.011 255.833C127.827 255.833 127.666 255.878 127.527 255.967C127.387 256.055 127.279 256.171 127.201 256.315C127.125 256.458 127.086 256.614 127.084 256.785V257.314C127.084 257.537 127.125 257.727 127.206 257.886C127.287 258.044 127.401 258.165 127.547 258.249C127.692 258.332 127.863 258.373 128.059 258.373C128.19 258.373 128.308 258.355 128.414 258.319C128.52 258.281 128.612 258.225 128.69 258.152C128.768 258.079 128.827 257.989 128.866 257.881L129.707 257.976C129.654 258.198 129.553 258.392 129.403 258.557C129.256 258.721 129.067 258.849 128.837 258.94C128.606 259.03 128.343 259.074 128.046 259.074Z" fill="#F4774C"/>
<path d="M130.505 260.432V255.182H131.39V255.813H131.442C131.489 255.72 131.554 255.622 131.639 255.517C131.723 255.411 131.838 255.321 131.982 255.246C132.126 255.17 132.31 255.132 132.534 255.132C132.829 255.132 133.095 255.207 133.332 255.358C133.57 255.507 133.759 255.729 133.898 256.022C134.039 256.314 134.11 256.671 134.11 257.096C134.11 257.515 134.041 257.871 133.903 258.165C133.766 258.458 133.579 258.682 133.342 258.836C133.105 258.99 132.836 259.067 132.536 259.067C132.317 259.067 132.136 259.03 131.992 258.958C131.848 258.885 131.732 258.797 131.644 258.694C131.558 258.59 131.49 258.491 131.442 258.398H131.405V260.432H130.505ZM131.388 257.091C131.388 257.338 131.422 257.554 131.492 257.74C131.563 257.925 131.665 258.07 131.798 258.175C131.932 258.277 132.094 258.329 132.285 258.329C132.484 258.329 132.65 258.276 132.785 258.17C132.919 258.062 133.02 257.915 133.088 257.73C133.158 257.542 133.192 257.329 133.192 257.091C133.192 256.854 133.158 256.643 133.09 256.459C133.023 256.275 132.921 256.131 132.787 256.027C132.653 255.922 132.486 255.87 132.285 255.87C132.093 255.87 131.93 255.921 131.795 256.022C131.661 256.123 131.559 256.265 131.49 256.447C131.422 256.629 131.388 256.844 131.388 257.091Z" fill="#F4774C"/>
<rect x="127" y="237" width="87" height="3" rx="1.5" fill="#E6E6E6"/>
<path d="M152.502 253.909H153.417V257.379H153.464L155.858 253.909H156.686V259H155.763V255.532H155.721L153.32 259H152.502V253.909Z" fill="#858585"/>
<path d="M157.439 257.953H158.332C158.34 258.096 158.404 258.206 158.523 258.284C158.642 258.362 158.797 258.401 158.988 258.401C159.182 258.401 159.345 258.358 159.478 258.274C159.612 258.188 159.679 258.058 159.679 257.884C159.679 257.781 159.653 257.691 159.602 257.613C159.551 257.533 159.479 257.472 159.386 257.429C159.293 257.386 159.184 257.364 159.058 257.364H158.473V256.725H159.058C159.245 256.725 159.387 256.682 159.483 256.596C159.58 256.51 159.629 256.401 159.629 256.27C159.629 256.13 159.578 256.015 159.475 255.927C159.374 255.84 159.234 255.796 159.055 255.796C158.876 255.796 158.727 255.836 158.608 255.917C158.49 255.999 158.429 256.103 158.424 256.231H157.536C157.54 256.009 157.606 255.816 157.735 255.651C157.866 255.487 158.042 255.36 158.262 255.269C158.484 255.177 158.734 255.132 159.013 255.132C159.311 255.132 159.569 255.177 159.786 255.266C160.003 255.356 160.17 255.481 160.288 255.642C160.406 255.801 160.465 255.988 160.465 256.203C160.465 256.41 160.4 256.582 160.271 256.718C160.141 256.852 159.967 256.948 159.749 257.006V257.046C159.899 257.054 160.035 257.097 160.156 257.175C160.277 257.251 160.373 257.355 160.445 257.486C160.516 257.617 160.552 257.769 160.552 257.941C160.552 258.175 160.484 258.377 160.35 258.547C160.216 258.716 160.031 258.847 159.796 258.938C159.562 259.029 159.295 259.074 158.993 259.074C158.7 259.074 158.437 259.03 158.205 258.943C157.975 258.853 157.792 258.725 157.656 258.557C157.52 258.39 157.448 258.189 157.439 257.953Z" fill="#858585"/>
<path d="M163.457 257.953L164.591 255.182H165.317L163.773 259H163.144L161.635 255.182H162.354L163.457 257.953ZM162.128 255.182V259H161.26V255.182H162.128ZM164.825 259V255.182H165.685V259H164.825Z" fill="#858585"/>
<path d="M168.282 259.074C167.9 259.074 167.569 258.995 167.291 258.836C167.014 258.675 166.801 258.448 166.652 258.155C166.503 257.86 166.428 257.512 166.428 257.113C166.428 256.72 166.503 256.376 166.652 256.079C166.803 255.781 167.013 255.549 167.283 255.383C167.553 255.216 167.871 255.132 168.235 255.132C168.47 255.132 168.693 255.17 168.901 255.246C169.112 255.321 169.297 255.437 169.458 255.594C169.621 255.752 169.748 255.952 169.841 256.196C169.934 256.438 169.98 256.726 169.98 257.061V257.337H166.851V256.73H169.118C169.116 256.558 169.079 256.405 169.006 256.27C168.933 256.135 168.831 256.028 168.7 255.95C168.571 255.872 168.42 255.833 168.248 255.833C168.064 255.833 167.902 255.878 167.763 255.967C167.624 256.055 167.515 256.171 167.437 256.315C167.361 256.458 167.322 256.614 167.32 256.785V257.314C167.32 257.537 167.361 257.727 167.442 257.886C167.523 258.044 167.637 258.165 167.783 258.249C167.929 258.332 168.099 258.373 168.295 258.373C168.426 258.373 168.544 258.355 168.65 258.319C168.756 258.281 168.848 258.225 168.926 258.152C169.004 258.079 169.063 257.989 169.103 257.881L169.943 257.976C169.89 258.198 169.789 258.392 169.64 258.557C169.492 258.721 169.303 258.849 169.073 258.94C168.843 259.03 168.579 259.074 168.282 259.074Z" fill="#858585"/>
<path d="M173.364 256.718V257.456H171.331V256.718H173.364ZM171.609 255.182V259H170.741V255.182H171.609ZM173.953 255.182V259H173.088V255.182H173.953Z" fill="#858585"/>
<path d="M175.731 257.782L177.26 255.182H178.185V259H177.315V256.397L175.791 259H174.864V255.182H175.731V257.782Z" fill="#858585"/>
<path d="M178.681 255.92V255.182H182.022V255.92H180.787V259H179.917V255.92H178.681Z" fill="#858585"/>
<path d="M183.348 256.425H184.474C184.961 256.425 185.338 256.543 185.605 256.78C185.871 257.017 186.006 257.328 186.007 257.712C186.006 257.962 185.944 258.184 185.823 258.378C185.704 258.572 185.53 258.725 185.301 258.836C185.074 258.945 184.798 259 184.474 259H182.739V255.182H183.606V258.262H184.474C184.669 258.262 184.83 258.212 184.956 258.112C185.082 258.011 185.145 257.882 185.145 257.725C185.145 257.559 185.082 257.424 184.956 257.319C184.83 257.215 184.669 257.163 184.474 257.163H183.348V256.425Z" fill="#858585"/>
<path d="M189.382 257.782L190.911 255.182H191.836V259H190.966V256.397L189.442 259H188.515V255.182H189.382V257.782Z" fill="#858585"/>
<path d="M194.957 257.953L196.091 255.182H196.817L195.273 259H194.644L193.135 255.182H193.854L194.957 257.953ZM193.628 255.182V259H192.76V255.182H193.628ZM196.325 259V255.182H197.185V259H196.325Z" fill="#858585"/>
<path d="M199.782 259.074C199.4 259.074 199.069 258.995 198.791 258.836C198.514 258.675 198.301 258.448 198.152 258.155C198.003 257.86 197.928 257.512 197.928 257.113C197.928 256.72 198.003 256.376 198.152 256.079C198.303 255.781 198.513 255.549 198.783 255.383C199.053 255.216 199.371 255.132 199.735 255.132C199.97 255.132 200.193 255.17 200.401 255.246C200.612 255.321 200.797 255.437 200.958 255.594C201.121 255.752 201.248 255.952 201.341 256.196C201.434 256.438 201.48 256.726 201.48 257.061V257.337H198.351V256.73H200.618C200.616 256.558 200.579 256.405 200.506 256.27C200.433 256.135 200.331 256.028 200.2 255.95C200.071 255.872 199.92 255.833 199.748 255.833C199.564 255.833 199.402 255.878 199.263 255.967C199.124 256.055 199.015 256.171 198.937 256.315C198.861 256.458 198.822 256.614 198.82 256.785V257.314C198.82 257.537 198.861 257.727 198.942 257.886C199.023 258.044 199.137 258.165 199.283 258.249C199.429 258.332 199.599 258.373 199.795 258.373C199.926 258.373 200.044 258.355 200.15 258.319C200.256 258.281 200.348 258.225 200.426 258.152C200.504 258.079 200.563 257.989 200.603 257.881L201.443 257.976C201.39 258.198 201.289 258.392 201.14 258.557C200.992 258.721 200.803 258.849 200.573 258.94C200.343 259.03 200.079 259.074 199.782 259.074Z" fill="#858585"/>
<path d="M204.257 256.745V257.486H202.202V256.745H204.257ZM202.915 255.182V259H202.013V255.182H202.915ZM205.411 259.074C205.043 259.074 204.724 258.991 204.454 258.823C204.185 258.656 203.977 258.424 203.83 258.127C203.682 257.831 203.609 257.488 203.609 257.098C203.609 256.709 203.682 256.367 203.83 256.072C203.977 255.777 204.185 255.546 204.454 255.381C204.724 255.215 205.043 255.132 205.411 255.132C205.777 255.132 206.094 255.215 206.363 255.381C206.633 255.546 206.842 255.777 206.989 256.072C207.138 256.367 207.213 256.709 207.213 257.098C207.213 257.488 207.138 257.831 206.989 258.127C206.842 258.424 206.633 258.656 206.363 258.823C206.094 258.991 205.777 259.074 205.411 259.074ZM205.411 258.329C205.628 258.329 205.805 258.274 205.943 258.165C206.08 258.055 206.181 257.908 206.246 257.722C206.311 257.537 206.343 257.329 206.343 257.098C206.343 256.868 206.311 256.66 206.246 256.474C206.181 256.289 206.08 256.142 205.943 256.034C205.805 255.925 205.628 255.87 205.411 255.87C205.192 255.87 205.013 255.925 204.874 256.034C204.736 256.142 204.635 256.289 204.571 256.474C204.506 256.66 204.474 256.868 204.474 257.098C204.474 257.33 204.506 257.539 204.571 257.725C204.635 257.91 204.736 258.058 204.874 258.167C205.013 258.275 205.192 258.329 205.411 258.329Z" fill="#858585"/>
<path d="M213.746 258.262L213.671 260.094H212.824V259H212.374V258.262H213.746ZM208.011 255.182H208.879V258.259H210.079V255.182H210.947V258.259H212.147V255.182H213.015V259H208.011V255.182Z" fill="#858585"/>
<path d="M215.325 257.782L216.854 255.182H217.778V259H216.908V256.397L215.384 259H214.457V255.182H215.325V257.782Z" fill="#858585"/>
<path d="M219.57 257.782L221.099 255.182H222.023V259H221.153V256.397L219.63 259H218.702V255.182H219.57V257.782ZM220.853 253.869H221.526C221.526 254.159 221.421 254.394 221.211 254.575C221.002 254.754 220.718 254.844 220.36 254.844C220.006 254.844 219.723 254.754 219.513 254.575C219.304 254.394 219.2 254.159 219.202 253.869H219.871C219.871 253.988 219.907 254.095 219.98 254.19C220.055 254.283 220.181 254.329 220.36 254.329C220.536 254.329 220.661 254.283 220.736 254.19C220.812 254.097 220.851 253.99 220.853 253.869Z" fill="#858585"/>
<path d="M224.613 259.074C224.232 259.074 223.905 258.991 223.631 258.823C223.359 258.656 223.15 258.425 223.002 258.13C222.856 257.833 222.783 257.492 222.783 257.106C222.783 256.718 222.858 256.376 223.007 256.079C223.156 255.781 223.367 255.549 223.639 255.383C223.912 255.216 224.235 255.132 224.608 255.132C224.918 255.132 225.192 255.189 225.431 255.303C225.671 255.416 225.863 255.576 226.005 255.783C226.148 255.989 226.229 256.229 226.249 256.504H225.389C225.354 256.32 225.271 256.167 225.14 256.044C225.011 255.92 224.838 255.858 224.62 255.858C224.437 255.858 224.275 255.907 224.136 256.007C223.997 256.105 223.888 256.246 223.81 256.43C223.734 256.613 223.696 256.834 223.696 257.091C223.696 257.351 223.734 257.575 223.81 257.762C223.886 257.948 223.993 258.091 224.131 258.192C224.27 258.291 224.433 258.341 224.62 258.341C224.753 258.341 224.872 258.316 224.976 258.267C225.082 258.215 225.171 258.141 225.242 258.045C225.313 257.949 225.362 257.832 225.389 257.695H226.249C226.227 257.965 226.148 258.204 226.01 258.413C225.872 258.62 225.685 258.783 225.448 258.9C225.211 259.016 224.933 259.074 224.613 259.074Z" fill="#858585"/>
<path d="M229.245 259V255.912H228.429C228.222 255.912 228.063 255.961 227.952 256.057C227.841 256.153 227.786 256.272 227.788 256.415C227.786 256.557 227.839 256.675 227.945 256.768C228.051 256.86 228.202 256.907 228.4 256.907H229.528V257.563H228.4C228.095 257.563 227.831 257.515 227.609 257.419C227.387 257.323 227.216 257.187 227.097 257.011C226.978 256.836 226.918 256.63 226.918 256.395C226.918 256.149 226.978 255.936 227.099 255.756C227.222 255.574 227.396 255.433 227.621 255.333C227.848 255.232 228.118 255.182 228.429 255.182H230.087V259H229.245ZM226.779 259L227.845 257.041H228.733L227.664 259H226.779Z" fill="#858585"/>
<g filter="url(#filter3_d_1059_7617)">
<rect x="25" y="151" width="222" height="61" rx="7" fill="white"/>
</g>
<path d="M36.6465 171V164.454H39.1522C39.6252 164.454 40.0183 164.529 40.3315 164.678C40.6468 164.825 40.8823 165.026 41.0378 165.282C41.1955 165.538 41.2743 165.828 41.2743 166.151C41.2743 166.418 41.2232 166.646 41.1209 166.835C41.0186 167.023 40.8812 167.175 40.7086 167.292C40.536 167.41 40.3432 167.494 40.1301 167.545V167.609C40.3624 167.622 40.585 167.693 40.7981 167.823C41.0133 167.951 41.1891 168.132 41.3255 168.366C41.4618 168.601 41.53 168.884 41.53 169.216C41.53 169.555 41.448 169.86 41.2839 170.131C41.1199 170.399 40.8727 170.611 40.5424 170.767C40.2122 170.922 39.7967 171 39.296 171H36.6465ZM37.8322 170.009H39.1074C39.5378 170.009 39.8478 169.927 40.0375 169.763C40.2292 169.597 40.3251 169.384 40.3251 169.124C40.3251 168.93 40.2772 168.755 40.1813 168.6C40.0854 168.442 39.949 168.318 39.7722 168.229C39.5953 168.137 39.3844 168.091 39.1394 168.091H37.8322V170.009ZM37.8322 167.238H39.0051C39.2097 167.238 39.394 167.201 39.5581 167.126C39.7221 167.05 39.851 166.942 39.9448 166.803C40.0407 166.663 40.0886 166.497 40.0886 166.305C40.0886 166.051 39.9991 165.843 39.8201 165.678C39.6433 165.514 39.3801 165.432 39.0307 165.432H37.8322V167.238Z" fill="#3C3A3E"/>
<path d="M43.2934 167.689H44.7412C45.3676 167.689 45.8524 167.841 46.1954 168.146C46.5384 168.45 46.711 168.85 46.7132 169.344C46.711 169.666 46.6322 169.952 46.4767 170.201C46.3232 170.45 46.0995 170.646 45.8055 170.789C45.5136 170.93 45.1588 171 44.7412 171H42.5104V166.091H43.6258V170.051H44.7412C44.9926 170.051 45.1993 169.987 45.3612 169.859C45.5232 169.729 45.6041 169.563 45.6041 169.36C45.6041 169.147 45.5232 168.974 45.3612 168.839C45.1993 168.705 44.9926 168.638 44.7412 168.638H43.2934V167.689ZM47.3236 171V166.091H48.4806V171H47.3236Z" fill="#3C3A3E"/>
<path d="M53.6078 164.275L54.0105 165.023C53.8677 165.147 53.7079 165.236 53.5311 165.292C53.3542 165.347 53.1465 165.383 52.9078 165.4C52.6713 165.415 52.3901 165.426 52.0641 165.432C51.6976 165.441 51.3983 165.51 51.166 165.64C50.9338 165.77 50.7559 165.967 50.6323 166.231C50.5087 166.493 50.4277 166.828 50.3894 167.235H50.4437C50.5971 166.934 50.8123 166.705 51.0893 166.548C51.3663 166.39 51.6912 166.311 52.0641 166.311C52.4711 166.311 52.8301 166.403 53.1412 166.586C53.4544 166.767 53.6983 167.03 53.873 167.376C54.0499 167.721 54.1383 168.138 54.1383 168.628C54.1383 169.133 54.0435 169.571 53.8539 169.942C53.6642 170.311 53.3947 170.595 53.0453 170.795C52.698 170.996 52.2857 171.096 51.8084 171.096C51.3333 171.096 50.9199 170.992 50.5684 170.786C50.2189 170.577 49.9483 170.269 49.7566 169.862C49.5669 169.453 49.4721 168.949 49.4721 168.35V167.909C49.4721 166.754 49.6873 165.893 50.1177 165.324C50.5481 164.755 51.1863 164.465 52.0321 164.454C52.2836 164.45 52.5083 164.449 52.7065 164.451C52.9068 164.453 53.0815 164.444 53.2306 164.422C53.3798 164.401 53.5055 164.352 53.6078 164.275ZM51.8148 170.169C52.0513 170.169 52.2559 170.108 52.4284 169.987C52.601 169.863 52.7331 169.688 52.8248 169.463C52.9185 169.237 52.9654 168.969 52.9654 168.66C52.9654 168.356 52.9185 168.097 52.8248 167.884C52.731 167.669 52.5978 167.504 52.4252 167.392C52.2527 167.279 52.0471 167.222 51.8084 167.222C51.6294 167.222 51.4686 167.254 51.3258 167.318C51.1831 167.382 51.0616 167.476 50.9615 167.599C50.8613 167.723 50.7846 167.873 50.7314 168.05C50.6781 168.227 50.6493 168.43 50.6451 168.66C50.6451 169.123 50.7495 169.49 50.9583 169.763C51.1671 170.034 51.4526 170.169 51.8148 170.169Z" fill="#3C3A3E"/>
<path d="M55.1227 172.841V166.091H56.2605V166.903H56.3276C56.3873 166.783 56.4714 166.656 56.5801 166.522C56.6887 166.386 56.8358 166.27 57.0211 166.174C57.2065 166.076 57.443 166.027 57.7306 166.027C58.1099 166.027 58.4519 166.124 58.7566 166.318C59.0634 166.509 59.3063 166.794 59.4853 167.171C59.6664 167.546 59.7569 168.006 59.7569 168.552C59.7569 169.091 59.6685 169.549 59.4917 169.926C59.3148 170.303 59.074 170.591 58.7694 170.789C58.4647 170.987 58.1195 171.086 57.7338 171.086C57.4526 171.086 57.2193 171.039 57.0339 170.945C56.8485 170.852 56.6994 170.739 56.5865 170.607C56.4757 170.472 56.3894 170.346 56.3276 170.226H56.2797V172.841H55.1227ZM56.2573 168.545C56.2573 168.863 56.302 169.141 56.3915 169.379C56.4831 169.618 56.6142 169.805 56.7846 169.939C56.9572 170.071 57.166 170.137 57.411 170.137C57.6667 170.137 57.8809 170.069 58.0534 169.932C58.226 169.794 58.356 169.605 58.4434 169.367C58.5328 169.126 58.5776 168.852 58.5776 168.545C58.5776 168.241 58.5339 167.97 58.4466 167.733C58.3592 167.497 58.2292 167.312 58.0566 167.177C57.8841 167.043 57.6689 166.976 57.411 166.976C57.1639 166.976 56.954 167.041 56.7814 167.171C56.6088 167.301 56.4778 167.483 56.3883 167.718C56.301 167.952 56.2573 168.228 56.2573 168.545Z" fill="#3C3A3E"/>
<path d="M62.1603 171.099C61.8493 171.099 61.5691 171.044 61.3198 170.933C61.0726 170.82 60.8766 170.654 60.7317 170.434C60.589 170.215 60.5176 169.944 60.5176 169.622C60.5176 169.345 60.5687 169.116 60.671 168.935C60.7733 168.754 60.9128 168.609 61.0897 168.501C61.2665 168.392 61.4657 168.31 61.6873 168.254C61.911 168.197 62.1422 168.155 62.3809 168.13C62.6685 168.1 62.9018 168.073 63.0808 168.05C63.2598 168.024 63.3897 167.986 63.4707 167.935C63.5538 167.882 63.5953 167.8 63.5953 167.689V167.67C63.5953 167.429 63.524 167.242 63.3812 167.11C63.2385 166.978 63.0328 166.912 62.7644 166.912C62.481 166.912 62.2562 166.974 62.09 167.097C61.926 167.221 61.8152 167.367 61.7576 167.535L60.6774 167.382C60.7626 167.084 60.9032 166.834 61.0993 166.634C61.2953 166.432 61.535 166.28 61.8184 166.18C62.1017 166.078 62.4149 166.027 62.758 166.027C62.9945 166.027 63.2299 166.055 63.4643 166.11C63.6987 166.165 63.9128 166.257 64.1067 166.385C64.3006 166.51 64.4561 166.682 64.5733 166.899C64.6926 167.117 64.7523 167.388 64.7523 167.714V171H63.6401V170.325H63.6017C63.5314 170.462 63.4324 170.59 63.3045 170.709C63.1788 170.826 63.0201 170.921 62.8283 170.993C62.6387 171.064 62.416 171.099 62.1603 171.099ZM62.4608 170.249C62.693 170.249 62.8944 170.203 63.0648 170.111C63.2353 170.018 63.3663 169.894 63.4579 169.741C63.5517 169.587 63.5985 169.42 63.5985 169.239V168.66C63.5623 168.69 63.5005 168.718 63.4132 168.743C63.3279 168.769 63.2321 168.791 63.1255 168.811C63.019 168.83 62.9135 168.847 62.8091 168.862C62.7047 168.877 62.6142 168.889 62.5375 168.9C62.3649 168.923 62.2104 168.962 62.074 169.015C61.9377 169.068 61.8301 169.143 61.7512 169.239C61.6724 169.333 61.633 169.454 61.633 169.603C61.633 169.816 61.7108 169.977 61.8663 170.086C62.0218 170.194 62.22 170.249 62.4608 170.249Z" fill="#3C3A3E"/>
<path d="M65.3659 167.04V166.091H69.6614V167.04H68.073V171H66.9544V167.04H65.3659Z" fill="#3C3A3E"/>
<path d="M71.3657 167.689H72.8135C73.4399 167.689 73.9246 167.841 74.2677 168.146C74.6107 168.45 74.7833 168.85 74.7854 169.344C74.7833 169.666 74.7045 169.952 74.5489 170.201C74.3955 170.45 74.1718 170.646 73.8778 170.789C73.5858 170.93 73.2311 171 72.8135 171H70.5827V166.091H71.6981V170.051H72.8135C73.0649 170.051 73.2716 169.987 73.4335 169.859C73.5954 169.729 73.6764 169.563 73.6764 169.36C73.6764 169.147 73.5954 168.974 73.4335 168.839C73.2716 168.705 73.0649 168.638 72.8135 168.638H71.3657V167.689Z" fill="#3C3A3E"/>
<path d="M79.1248 169.434L81.0904 166.091H82.2793V171H81.1607V167.654L79.2015 171H78.0094V166.091H79.1248V169.434Z" fill="#3C3A3E"/>
<path d="M85.6088 171.096C85.1187 171.096 84.6979 170.988 84.3463 170.773C83.9969 170.558 83.7274 170.26 83.5377 169.881C83.3502 169.5 83.2565 169.061 83.2565 168.564C83.2565 168.066 83.3524 167.626 83.5441 167.244C83.7359 166.861 84.0065 166.563 84.3559 166.35C84.7075 166.134 85.123 166.027 85.6024 166.027C86.0008 166.027 86.3534 166.1 86.6602 166.247C86.9692 166.392 87.2153 166.598 87.3985 166.864C87.5818 167.128 87.6862 167.437 87.7117 167.791H86.6059C86.5612 167.555 86.4546 167.357 86.2863 167.2C86.1201 167.04 85.8975 166.96 85.6183 166.96C85.3818 166.96 85.1741 167.024 84.9951 167.152C84.8161 167.278 84.6766 167.459 84.5764 167.695C84.4784 167.932 84.4294 168.215 84.4294 168.545C84.4294 168.88 84.4784 169.167 84.5764 169.408C84.6744 169.647 84.8119 169.831 84.9887 169.961C85.1677 170.089 85.3776 170.153 85.6183 170.153C85.7888 170.153 85.9411 170.121 86.0754 170.057C86.2117 169.991 86.3257 169.896 86.4173 169.773C86.509 169.649 86.5718 169.499 86.6059 169.322H87.7117C87.684 169.669 87.5818 169.977 87.4049 170.246C87.2281 170.512 86.9873 170.721 86.6826 170.872C86.3779 171.021 86.02 171.096 85.6088 171.096Z" fill="#3C3A3E"/>
<path d="M89.5726 166.091L90.5634 167.903L91.5701 166.091H92.7942L91.3145 168.545L92.8198 171H91.6021L90.5634 169.232L89.5343 171H88.307L89.8027 168.545L88.3453 166.091H89.5726Z" fill="#3C3A3E"/>
<path d="M95.6459 171.096C95.1665 171.096 94.751 170.99 94.3994 170.779C94.0479 170.568 93.7751 170.273 93.5812 169.894C93.3895 169.515 93.2936 169.072 93.2936 168.564C93.2936 168.057 93.3895 167.613 93.5812 167.232C93.7751 166.85 94.0479 166.554 94.3994 166.343C94.751 166.132 95.1665 166.027 95.6459 166.027C96.1253 166.027 96.5407 166.132 96.8923 166.343C97.2439 166.554 97.5155 166.85 97.7073 167.232C97.9012 167.613 97.9981 168.057 97.9981 168.564C97.9981 169.072 97.9012 169.515 97.7073 169.894C97.5155 170.273 97.2439 170.568 96.8923 170.779C96.5407 170.99 96.1253 171.096 95.6459 171.096ZM95.6523 170.169C95.9122 170.169 96.1295 170.097 96.3042 169.955C96.479 169.81 96.6089 169.616 96.6942 169.373C96.7815 169.13 96.8252 168.86 96.8252 168.561C96.8252 168.261 96.7815 167.989 96.6942 167.746C96.6089 167.501 96.479 167.306 96.3042 167.161C96.1295 167.017 95.9122 166.944 95.6523 166.944C95.3859 166.944 95.1643 167.017 94.9875 167.161C94.8128 167.306 94.6817 167.501 94.5944 167.746C94.5091 167.989 94.4665 168.261 94.4665 168.561C94.4665 168.86 94.5091 169.13 94.5944 169.373C94.6817 169.616 94.8128 169.81 94.9875 169.955C95.1643 170.097 95.3859 170.169 95.6523 170.169Z" fill="#3C3A3E"/>
<path d="M98.5455 172.425V170.047H98.9354C99.0398 169.966 99.1271 169.857 99.1974 169.718C99.2678 169.578 99.3253 169.412 99.37 169.223C99.4169 169.031 99.4553 168.817 99.4851 168.58C99.5149 168.342 99.5415 168.085 99.565 167.81L99.7056 166.091H103.253V170.047H104.014V172.425H102.895V171H99.6832V172.425H98.5455ZM100.124 170.047H102.147V167.024H100.709L100.632 167.81C100.59 168.33 100.533 168.775 100.463 169.146C100.393 169.517 100.28 169.817 100.124 170.047Z" fill="#3C3A3E"/>
<path d="M107.78 171V167.03H106.731C106.465 167.03 106.26 167.092 106.118 167.216C105.975 167.339 105.905 167.493 105.907 167.676C105.905 167.859 105.972 168.01 106.108 168.13C106.244 168.249 106.439 168.309 106.693 168.309H108.144V169.153H106.693C106.301 169.153 105.962 169.091 105.677 168.967C105.391 168.844 105.172 168.669 105.018 168.443C104.865 168.217 104.788 167.953 104.788 167.65C104.788 167.335 104.866 167.061 105.021 166.829C105.179 166.595 105.403 166.414 105.693 166.286C105.984 166.156 106.331 166.091 106.731 166.091H108.863V171H107.78ZM104.609 171L105.98 168.481H107.121L105.747 171H104.609Z" fill="#3C3A3E"/>
<path d="M117.401 170.051L117.305 172.406H116.215V171H115.637V170.051H117.401ZM110.028 166.091H111.143V170.047H112.687V166.091H113.802V170.047H115.346V166.091H116.462V171H110.028V166.091Z" fill="#3C3A3E"/>
<path d="M119.431 169.434L121.397 166.091H122.586V171H121.467V167.654L119.508 171H118.316V166.091H119.431V169.434Z" fill="#3C3A3E"/>
<path d="M125.947 171.096C125.455 171.096 125.03 170.993 124.672 170.789C124.316 170.582 124.043 170.29 123.851 169.913C123.659 169.534 123.563 169.088 123.563 168.574C123.563 168.069 123.659 167.626 123.851 167.244C124.045 166.861 124.315 166.563 124.663 166.35C125.01 166.134 125.418 166.027 125.887 166.027C126.189 166.027 126.475 166.076 126.743 166.174C127.014 166.27 127.252 166.419 127.459 166.621C127.668 166.824 127.832 167.081 127.951 167.395C128.071 167.706 128.13 168.077 128.13 168.507V168.862H124.106V168.082H127.021C127.019 167.86 126.971 167.663 126.877 167.491C126.784 167.316 126.653 167.178 126.484 167.078C126.318 166.978 126.124 166.928 125.903 166.928C125.666 166.928 125.458 166.986 125.279 167.101C125.1 167.214 124.961 167.363 124.861 167.548C124.763 167.731 124.713 167.933 124.71 168.152V168.833C124.71 169.118 124.763 169.363 124.867 169.568C124.971 169.77 125.117 169.926 125.305 170.035C125.492 170.141 125.712 170.194 125.963 170.194C126.132 170.194 126.284 170.171 126.42 170.124C126.557 170.075 126.675 170.004 126.775 169.91C126.875 169.816 126.951 169.7 127.002 169.562L128.082 169.683C128.014 169.969 127.884 170.218 127.692 170.431C127.503 170.642 127.26 170.806 126.964 170.923C126.668 171.038 126.329 171.096 125.947 171.096Z" fill="#3C3A3E"/>
<path d="M134.713 168.066V169.015H132.099V168.066H134.713ZM132.457 166.091V171H131.341V166.091H132.457ZM135.471 166.091V171H134.358V166.091H135.471Z" fill="#3C3A3E"/>
<path d="M138.783 171.096C138.303 171.096 137.888 170.99 137.536 170.779C137.185 170.568 136.912 170.273 136.718 169.894C136.526 169.515 136.43 169.072 136.43 168.564C136.43 168.057 136.526 167.613 136.718 167.232C136.912 166.85 137.185 166.554 137.536 166.343C137.888 166.132 138.303 166.027 138.783 166.027C139.262 166.027 139.677 166.132 140.029 166.343C140.381 166.554 140.652 166.85 140.844 167.232C141.038 167.613 141.135 168.057 141.135 168.564C141.135 169.072 141.038 169.515 140.844 169.894C140.652 170.273 140.381 170.568 140.029 170.779C139.677 170.99 139.262 171.096 138.783 171.096ZM138.789 170.169C139.049 170.169 139.266 170.097 139.441 169.955C139.616 169.81 139.746 169.616 139.831 169.373C139.918 169.13 139.962 168.86 139.962 168.561C139.962 168.261 139.918 167.989 139.831 167.746C139.746 167.501 139.616 167.306 139.441 167.161C139.266 167.017 139.049 166.944 138.789 166.944C138.523 166.944 138.301 167.017 138.124 167.161C137.949 167.306 137.818 167.501 137.731 167.746C137.646 167.989 137.603 168.261 137.603 168.561C137.603 168.86 137.646 169.13 137.731 169.373C137.818 169.616 137.949 169.81 138.124 169.955C138.301 170.097 138.523 170.169 138.789 170.169Z" fill="#3C3A3E"/>
<path d="M144.942 169.654L146.4 166.091H147.333L145.348 171H144.539L142.599 166.091H143.523L144.942 169.654ZM143.232 166.091V171H142.117V166.091H143.232ZM146.7 171V166.091H147.806V171H146.7Z" fill="#3C3A3E"/>
<path d="M151.146 171.096C150.653 171.096 150.228 170.993 149.87 170.789C149.515 170.582 149.241 170.29 149.049 169.913C148.857 169.534 148.761 169.088 148.761 168.574C148.761 168.069 148.857 167.626 149.049 167.244C149.243 166.861 149.513 166.563 149.861 166.35C150.208 166.134 150.616 166.027 151.085 166.027C151.387 166.027 151.673 166.076 151.941 166.174C152.212 166.27 152.451 166.419 152.657 166.621C152.866 166.824 153.03 167.081 153.15 167.395C153.269 167.706 153.328 168.077 153.328 168.507V168.862H149.305V168.082H152.219C152.217 167.86 152.169 167.663 152.076 167.491C151.982 167.316 151.851 167.178 151.683 167.078C151.516 166.978 151.322 166.928 151.101 166.928C150.864 166.928 150.657 166.986 150.478 167.101C150.299 167.214 150.159 167.363 150.059 167.548C149.961 167.731 149.911 167.933 149.909 168.152V168.833C149.909 169.118 149.961 169.363 150.065 169.568C150.17 169.77 150.316 169.926 150.503 170.035C150.691 170.141 150.91 170.194 151.162 170.194C151.33 170.194 151.482 170.171 151.619 170.124C151.755 170.075 151.873 170.004 151.973 169.91C152.074 169.816 152.149 169.7 152.2 169.562L153.281 169.683C153.212 169.969 153.082 170.218 152.891 170.431C152.701 170.642 152.458 170.806 152.162 170.923C151.866 171.038 151.527 171.096 151.146 171.096Z" fill="#3C3A3E"/>
<path d="M154.307 172.841V166.091H155.445V166.903H155.512C155.572 166.783 155.656 166.656 155.765 166.522C155.873 166.386 156.02 166.27 156.206 166.174C156.391 166.076 156.628 166.027 156.915 166.027C157.294 166.027 157.636 166.124 157.941 166.318C158.248 166.509 158.491 166.794 158.67 167.171C158.851 167.546 158.941 168.006 158.941 168.552C158.941 169.091 158.853 169.549 158.676 169.926C158.499 170.303 158.259 170.591 157.954 170.789C157.649 170.987 157.304 171.086 156.918 171.086C156.637 171.086 156.404 171.039 156.218 170.945C156.033 170.852 155.884 170.739 155.771 170.607C155.66 170.472 155.574 170.346 155.512 170.226H155.464V172.841H154.307ZM155.442 168.545C155.442 168.863 155.487 169.141 155.576 169.379C155.668 169.618 155.799 169.805 155.969 169.939C156.142 170.071 156.351 170.137 156.596 170.137C156.851 170.137 157.065 170.069 157.238 169.932C157.411 169.794 157.541 169.605 157.628 169.367C157.717 169.126 157.762 168.852 157.762 168.545C157.762 168.241 157.718 167.97 157.631 167.733C157.544 167.497 157.414 167.312 157.241 167.177C157.069 167.043 156.853 166.976 156.596 166.976C156.348 166.976 156.139 167.041 155.966 167.171C155.793 167.301 155.662 167.483 155.573 167.718C155.486 167.952 155.442 168.228 155.442 168.545Z" fill="#3C3A3E"/>
<path d="M161.345 171.099C161.034 171.099 160.754 171.044 160.504 170.933C160.257 170.82 160.061 170.654 159.916 170.434C159.774 170.215 159.702 169.944 159.702 169.622C159.702 169.345 159.753 169.116 159.856 168.935C159.958 168.754 160.097 168.609 160.274 168.501C160.451 168.392 160.65 168.31 160.872 168.254C161.096 168.197 161.327 168.155 161.565 168.13C161.853 168.1 162.086 168.073 162.265 168.05C162.444 168.024 162.574 167.986 162.655 167.935C162.738 167.882 162.78 167.8 162.78 167.689V167.67C162.78 167.429 162.709 167.242 162.566 167.11C162.423 166.978 162.217 166.912 161.949 166.912C161.666 166.912 161.441 166.974 161.275 167.097C161.111 167.221 161 167.367 160.942 167.535L159.862 167.382C159.947 167.084 160.088 166.834 160.284 166.634C160.48 166.432 160.72 166.28 161.003 166.18C161.286 166.078 161.6 166.027 161.943 166.027C162.179 166.027 162.415 166.055 162.649 166.11C162.883 166.165 163.097 166.257 163.291 166.385C163.485 166.51 163.641 166.682 163.758 166.899C163.877 167.117 163.937 167.388 163.937 167.714V171H162.825V170.325H162.786C162.716 170.462 162.617 170.59 162.489 170.709C162.363 170.826 162.205 170.921 162.013 170.993C161.823 171.064 161.601 171.099 161.345 171.099ZM161.645 170.249C161.878 170.249 162.079 170.203 162.249 170.111C162.42 170.018 162.551 169.894 162.642 169.741C162.736 169.587 162.783 169.42 162.783 169.239V168.66C162.747 168.69 162.685 168.718 162.598 168.743C162.513 168.769 162.417 168.791 162.31 168.811C162.204 168.83 162.098 168.847 161.994 168.862C161.889 168.877 161.799 168.889 161.722 168.9C161.549 168.923 161.395 168.962 161.259 169.015C161.122 169.068 161.015 169.143 160.936 169.239C160.857 169.333 160.818 169.454 160.818 169.603C160.818 169.816 160.895 169.977 161.051 170.086C161.206 170.194 161.405 170.249 161.645 170.249Z" fill="#3C3A3E"/>
<path d="M36.1719 190.228V188.247H36.5124C36.6268 188.156 36.7337 188.027 36.8331 187.862C36.9325 187.696 37.017 187.469 37.0866 187.18C37.1562 186.892 37.2043 186.519 37.2308 186.062L37.3651 183.909H40.619V188.247H41.1857V190.223H40.3008V189H37.0568V190.228H36.1719ZM37.5863 188.247H39.734V184.682H38.1953L38.1158 186.062C38.0942 186.408 38.0594 186.718 38.0114 186.992C37.9633 187.265 37.9028 187.506 37.8299 187.715C37.757 187.922 37.6758 188.099 37.5863 188.247Z" fill="#858585"/>
<path d="M43.5628 189.075C43.1899 189.075 42.8667 188.993 42.5933 188.829C42.3199 188.665 42.1077 188.435 41.9569 188.14C41.8078 187.845 41.7332 187.5 41.7332 187.106C41.7332 186.711 41.8078 186.366 41.9569 186.069C42.1077 185.773 42.3199 185.542 42.5933 185.378C42.8667 185.214 43.1899 185.132 43.5628 185.132C43.9356 185.132 44.2588 185.214 44.5322 185.378C44.8057 185.542 45.017 185.773 45.1661 186.069C45.3169 186.366 45.3923 186.711 45.3923 187.106C45.3923 187.5 45.3169 187.845 45.1661 188.14C45.017 188.435 44.8057 188.665 44.5322 188.829C44.2588 188.993 43.9356 189.075 43.5628 189.075ZM43.5677 188.354C43.7699 188.354 43.939 188.298 44.0748 188.187C44.2107 188.075 44.3118 187.924 44.3781 187.735C44.4461 187.546 44.48 187.335 44.48 187.103C44.48 186.87 44.4461 186.658 44.3781 186.47C44.3118 186.279 44.2107 186.127 44.0748 186.015C43.939 185.902 43.7699 185.846 43.5677 185.846C43.3606 185.846 43.1882 185.902 43.0507 186.015C42.9148 186.127 42.8129 186.279 42.7449 186.47C42.6787 186.658 42.6455 186.87 42.6455 187.103C42.6455 187.335 42.6787 187.546 42.7449 187.735C42.8129 187.924 42.9148 188.075 43.0507 188.187C43.1882 188.298 43.3606 188.354 43.5677 188.354Z" fill="#858585"/>
<path d="M47.8216 189.075C47.4404 189.075 47.1131 188.991 46.8397 188.824C46.5679 188.656 46.3583 188.425 46.2108 188.13C46.0649 187.833 45.992 187.492 45.992 187.106C45.992 186.718 46.0666 186.376 46.2157 186.079C46.3649 185.781 46.5753 185.549 46.8471 185.383C47.1206 185.216 47.4437 185.132 47.8166 185.132C48.1265 185.132 48.4007 185.189 48.6394 185.304C48.8797 185.416 49.0711 185.576 49.2136 185.783C49.3561 185.989 49.4373 186.229 49.4572 186.504H48.5971C48.5623 186.32 48.4795 186.167 48.3485 186.044C48.2193 185.92 48.0461 185.858 47.829 185.858C47.6451 185.858 47.4835 185.908 47.3443 186.007C47.2051 186.105 47.0965 186.246 47.0186 186.43C46.9424 186.614 46.9043 186.834 46.9043 187.091C46.9043 187.351 46.9424 187.575 47.0186 187.762C47.0949 187.948 47.2018 188.091 47.3393 188.192C47.4785 188.292 47.6417 188.341 47.829 188.341C47.9616 188.341 48.0801 188.316 48.1845 188.267C48.2905 188.215 48.3792 188.142 48.4505 188.046C48.5217 187.949 48.5706 187.833 48.5971 187.695H49.4572C49.4357 187.965 49.3561 188.205 49.2186 188.413C49.081 188.621 48.8938 188.783 48.6568 188.901C48.4198 189.017 48.1414 189.075 47.8216 189.075Z" fill="#858585"/>
<path d="M49.9189 185.92V185.182H53.2599V185.92H52.0244V189H51.1544V185.92H49.9189Z" fill="#858585"/>
<path d="M54.5357 190.432C54.4131 190.432 54.2995 190.422 54.1951 190.402C54.0924 190.384 54.0104 190.362 53.949 190.337L54.1578 189.636C54.2888 189.675 54.4056 189.693 54.5083 189.691C54.6111 189.689 54.7014 189.657 54.7793 189.594C54.8588 189.533 54.926 189.43 54.9806 189.286L55.0577 189.08L53.6731 185.182H54.6277L55.5076 188.065H55.5474L56.4299 185.182H57.3869L55.8581 189.462C55.7869 189.665 55.6924 189.838 55.5748 189.982C55.4571 190.128 55.3129 190.239 55.1422 190.315C54.9732 190.393 54.771 190.432 54.5357 190.432Z" fill="#858585"/>
<path d="M58.0096 189V185.182H61.2337V189H60.3661V185.92H58.8697V189H58.0096Z" fill="#858585"/>
<path d="M64.7815 186.718V187.456H62.7481V186.718H64.7815ZM63.0265 185.182V189H62.159V185.182H63.0265ZM65.3706 185.182V189H64.5056V185.182H65.3706Z" fill="#858585"/>
<path d="M66.8901 186.425H68.0162C68.5034 186.425 68.8804 186.543 69.1472 186.78C69.414 187.017 69.5482 187.328 69.5499 187.712C69.5482 187.963 69.4869 188.185 69.3659 188.379C69.2466 188.573 69.0726 188.725 68.8439 188.836C68.6169 188.945 68.341 189 68.0162 189H66.2811V185.182H67.1486V188.262H68.0162C68.2117 188.262 68.3725 188.212 68.4984 188.113C68.6243 188.012 68.6873 187.882 68.6873 187.725C68.6873 187.559 68.6243 187.424 68.4984 187.32C68.3725 187.215 68.2117 187.163 68.0162 187.163H66.8901V186.425ZM70.0247 189V185.182H70.9245V189H70.0247Z" fill="#858585"/>
<path d="M73.5427 189.075C73.1599 189.075 72.8293 188.995 72.5509 188.836C72.2741 188.675 72.0612 188.448 71.912 188.155C71.7629 187.86 71.6883 187.513 71.6883 187.113C71.6883 186.721 71.7629 186.376 71.912 186.079C72.0628 185.781 72.2733 185.549 72.5434 185.383C72.8135 185.216 73.1309 185.132 73.4955 185.132C73.7308 185.132 73.9529 185.17 74.1617 185.247C74.3721 185.321 74.5577 185.437 74.7185 185.595C74.8809 185.752 75.0085 185.953 75.1013 186.196C75.1941 186.438 75.2405 186.726 75.2405 187.061V187.337H72.1109V186.731H74.3779C74.3763 186.558 74.339 186.405 74.2661 186.271C74.1931 186.135 74.0912 186.028 73.9603 185.95C73.8311 185.872 73.6802 185.833 73.5079 185.833C73.324 185.833 73.1624 185.878 73.0232 185.967C72.884 186.055 72.7754 186.171 72.6975 186.315C72.6213 186.458 72.5824 186.615 72.5807 186.785V187.315C72.5807 187.537 72.6213 187.727 72.7025 187.886C72.7837 188.044 72.8972 188.165 73.0431 188.249C73.1889 188.332 73.3596 188.374 73.5551 188.374C73.6861 188.374 73.8045 188.355 73.9106 188.319C74.0167 188.281 74.1086 188.225 74.1865 188.152C74.2644 188.08 74.3232 187.989 74.363 187.881L75.2032 187.976C75.1502 188.198 75.0491 188.392 74.8999 188.558C74.7525 188.722 74.5635 188.849 74.3332 188.94C74.1028 189.03 73.8393 189.075 73.5427 189.075Z" fill="#858585"/>
<path d="M76.5561 189.055C76.4053 189.055 76.276 189.002 76.1683 188.896C76.0606 188.79 76.0076 188.66 76.0092 188.508C76.0076 188.359 76.0606 188.231 76.1683 188.125C76.276 188.019 76.4053 187.966 76.5561 187.966C76.7019 187.966 76.8287 188.019 76.9364 188.125C77.0458 188.231 77.1013 188.359 77.103 188.508C77.1013 188.609 77.0748 188.701 77.0234 188.784C76.9737 188.867 76.9074 188.933 76.8246 188.983C76.7434 189.031 76.6539 189.055 76.5561 189.055ZM76.5561 186.33C76.4053 186.33 76.276 186.277 76.1683 186.171C76.0606 186.064 76.0076 185.934 76.0092 185.783C76.0076 185.634 76.0606 185.507 76.1683 185.401C76.276 185.293 76.4053 185.239 76.5561 185.239C76.7019 185.239 76.8287 185.293 76.9364 185.401C77.0458 185.507 77.1013 185.634 77.103 185.783C77.1013 185.883 77.0748 185.974 77.0234 186.057C76.9737 186.14 76.9074 186.206 76.8246 186.256C76.7434 186.305 76.6539 186.33 76.5561 186.33Z" fill="#858585"/>
<path d="M140.502 189V183.909H142.451C142.819 183.909 143.124 183.967 143.368 184.083C143.613 184.197 143.796 184.354 143.917 184.553C144.04 184.751 144.101 184.977 144.101 185.229C144.101 185.436 144.062 185.613 143.982 185.761C143.903 185.906 143.796 186.025 143.661 186.116C143.527 186.207 143.377 186.273 143.211 186.313V186.362C143.392 186.372 143.565 186.428 143.731 186.529C143.898 186.628 144.035 186.769 144.141 186.951C144.247 187.134 144.3 187.354 144.3 187.613C144.3 187.876 144.236 188.113 144.109 188.324C143.981 188.532 143.789 188.697 143.532 188.818C143.275 188.939 142.952 189 142.563 189H140.502ZM141.424 188.229H142.416C142.751 188.229 142.992 188.165 143.139 188.038C143.289 187.908 143.363 187.743 143.363 187.54C143.363 187.39 143.326 187.254 143.251 187.133C143.177 187.01 143.071 186.914 142.933 186.844C142.796 186.773 142.631 186.738 142.441 186.738H141.424V188.229ZM141.424 186.074H142.336C142.496 186.074 142.639 186.045 142.767 185.987C142.894 185.927 142.994 185.844 143.067 185.736C143.142 185.626 143.179 185.497 143.179 185.348C143.179 185.151 143.11 184.988 142.97 184.861C142.833 184.733 142.628 184.669 142.356 184.669H141.424V186.074Z" fill="#858585"/>
<path d="M145.672 186.424H146.798C147.285 186.424 147.662 186.543 147.929 186.78C148.196 187.017 148.33 187.328 148.332 187.712C148.33 187.962 148.269 188.184 148.148 188.378C148.028 188.572 147.854 188.725 147.626 188.836C147.399 188.945 147.123 189 146.798 189H145.063V185.181H145.93V188.261H146.798C146.993 188.261 147.154 188.212 147.28 188.112C147.406 188.011 147.469 187.882 147.469 187.724C147.469 187.559 147.406 187.424 147.28 187.319C147.154 187.215 146.993 187.163 146.798 187.163H145.672V186.424ZM148.806 189V185.181H149.706V189H148.806Z" fill="#858585"/>
<path d="M153.694 183.77L154.007 184.351C153.896 184.447 153.772 184.517 153.634 184.56C153.497 184.603 153.335 184.631 153.15 184.645C152.966 184.656 152.747 184.664 152.493 184.669C152.208 184.676 151.976 184.73 151.795 184.831C151.614 184.932 151.476 185.085 151.38 185.291C151.284 185.495 151.221 185.755 151.191 186.071H151.233C151.352 185.838 151.52 185.66 151.735 185.537C151.951 185.414 152.203 185.353 152.493 185.353C152.81 185.353 153.089 185.424 153.331 185.567C153.575 185.708 153.765 185.912 153.9 186.181C154.038 186.449 154.107 186.774 154.107 187.155C154.107 187.548 154.033 187.888 153.885 188.177C153.738 188.464 153.528 188.685 153.257 188.841C152.986 188.996 152.666 189.074 152.295 189.074C151.925 189.074 151.604 188.994 151.33 188.833C151.058 188.671 150.848 188.431 150.699 188.115C150.551 187.797 150.477 187.405 150.477 186.939V186.596C150.477 185.698 150.645 185.027 150.98 184.585C151.314 184.142 151.811 183.917 152.469 183.909C152.664 183.905 152.839 183.905 152.993 183.906C153.149 183.908 153.285 183.9 153.401 183.884C153.517 183.867 153.615 183.829 153.694 183.77ZM152.3 188.353C152.483 188.353 152.643 188.306 152.777 188.212C152.911 188.116 153.014 187.98 153.085 187.804C153.158 187.628 153.194 187.42 153.194 187.18C153.194 186.943 153.158 186.742 153.085 186.576C153.012 186.409 152.909 186.281 152.774 186.193C152.64 186.105 152.48 186.061 152.295 186.061C152.155 186.061 152.03 186.086 151.919 186.136C151.808 186.186 151.714 186.259 151.636 186.355C151.558 186.451 151.498 186.568 151.457 186.705C151.415 186.843 151.393 187.001 151.39 187.18C151.39 187.54 151.471 187.826 151.633 188.038C151.796 188.248 152.018 188.353 152.3 188.353Z" fill="#858585"/>
<path d="M154.872 190.431V185.181H155.757V185.813H155.809C155.856 185.72 155.921 185.621 156.006 185.517C156.09 185.411 156.205 185.321 156.349 185.246C156.493 185.17 156.677 185.132 156.901 185.132C157.196 185.132 157.462 185.207 157.699 185.358C157.937 185.507 158.126 185.728 158.265 186.022C158.406 186.313 158.477 186.671 158.477 187.096C158.477 187.515 158.408 187.871 158.27 188.164C158.133 188.458 157.946 188.681 157.709 188.836C157.472 188.99 157.203 189.067 156.903 189.067C156.684 189.067 156.503 189.03 156.359 188.957C156.215 188.884 156.099 188.797 156.011 188.694C155.925 188.589 155.858 188.491 155.809 188.398H155.772V190.431H154.872ZM155.755 187.091C155.755 187.337 155.79 187.554 155.859 187.739C155.93 187.925 156.032 188.07 156.165 188.174C156.299 188.277 156.462 188.328 156.652 188.328C156.851 188.328 157.018 188.275 157.152 188.169C157.286 188.062 157.387 187.915 157.455 187.729C157.525 187.542 157.559 187.329 157.559 187.091C157.559 186.854 157.526 186.643 157.458 186.459C157.39 186.275 157.289 186.131 157.154 186.027C157.02 185.922 156.853 185.87 156.652 185.87C156.46 185.87 156.297 185.921 156.162 186.022C156.028 186.123 155.926 186.264 155.857 186.447C155.789 186.629 155.755 186.844 155.755 187.091Z" fill="#858585"/>
<path d="M160.346 189.077C160.104 189.077 159.886 189.034 159.692 188.947C159.5 188.86 159.348 188.73 159.235 188.56C159.124 188.389 159.068 188.179 159.068 187.928C159.068 187.713 159.108 187.535 159.188 187.394C159.267 187.253 159.376 187.14 159.513 187.056C159.651 186.971 159.806 186.907 159.978 186.864C160.152 186.82 160.332 186.787 160.518 186.767C160.741 186.744 160.923 186.723 161.062 186.705C161.201 186.685 161.302 186.656 161.365 186.616C161.43 186.574 161.462 186.511 161.462 186.424V186.409C161.462 186.222 161.407 186.077 161.296 185.974C161.185 185.872 161.025 185.82 160.816 185.82C160.595 185.82 160.421 185.868 160.291 185.964C160.164 186.061 160.078 186.174 160.033 186.305L159.193 186.186C159.259 185.954 159.368 185.76 159.521 185.604C159.673 185.447 159.86 185.329 160.08 185.251C160.3 185.172 160.544 185.132 160.811 185.132C160.995 185.132 161.178 185.153 161.36 185.196C161.543 185.239 161.709 185.311 161.86 185.41C162.011 185.508 162.132 185.641 162.223 185.81C162.316 185.979 162.362 186.191 162.362 186.444V189H161.497V188.475H161.467C161.412 188.581 161.335 188.681 161.236 188.773C161.138 188.865 161.015 188.938 160.866 188.995C160.718 189.049 160.545 189.077 160.346 189.077ZM160.58 188.415C160.76 188.415 160.917 188.38 161.05 188.309C161.182 188.236 161.284 188.14 161.355 188.02C161.428 187.901 161.465 187.771 161.465 187.63V187.18C161.436 187.203 161.388 187.225 161.32 187.245C161.254 187.265 161.18 187.282 161.097 187.297C161.014 187.312 160.932 187.325 160.851 187.337C160.769 187.348 160.699 187.358 160.639 187.366C160.505 187.385 160.385 187.415 160.279 187.456C160.173 187.497 160.089 187.555 160.028 187.63C159.967 187.703 159.936 187.797 159.936 187.913C159.936 188.079 159.996 188.204 160.117 188.289C160.238 188.373 160.392 188.415 160.58 188.415Z" fill="#858585"/>
<path d="M165.889 186.718V187.456H163.856V186.718H165.889ZM164.134 185.181V189H163.267V185.181H164.134ZM166.479 185.181V189H165.613V185.181H166.479Z" fill="#858585"/>
<path d="M170.011 186.718V187.456H167.978V186.718H170.011ZM168.256 185.181V189H167.389V185.181H168.256ZM170.601 185.181V189H169.736V185.181H170.601Z" fill="#858585"/>
<path d="M172.12 186.424H173.246C173.733 186.424 174.11 186.543 174.377 186.78C174.644 187.017 174.778 187.328 174.78 187.712C174.778 187.962 174.717 188.184 174.596 188.378C174.477 188.572 174.303 188.725 174.074 188.836C173.847 188.945 173.571 189 173.246 189H171.511V185.181H172.379V188.261H173.246C173.442 188.261 173.602 188.212 173.728 188.112C173.854 188.011 173.917 187.882 173.917 187.724C173.917 187.559 173.854 187.424 173.728 187.319C173.602 187.215 173.442 187.163 173.246 187.163H172.12V186.424ZM175.255 189V185.181H176.154V189H175.255Z" fill="#858585"/>
<path d="M178.773 189.074C178.39 189.074 178.059 188.995 177.781 188.836C177.504 188.675 177.291 188.448 177.142 188.154C176.993 187.859 176.918 187.512 176.918 187.113C176.918 186.72 176.993 186.375 177.142 186.079C177.293 185.781 177.503 185.549 177.773 185.383C178.043 185.215 178.361 185.132 178.725 185.132C178.961 185.132 179.183 185.17 179.392 185.246C179.602 185.321 179.788 185.437 179.948 185.594C180.111 185.752 180.238 185.952 180.331 186.196C180.424 186.438 180.47 186.726 180.47 187.061V187.337H177.341V186.73H179.608C179.606 186.558 179.569 186.404 179.496 186.27C179.423 186.134 179.321 186.027 179.19 185.95C179.061 185.872 178.91 185.833 178.738 185.833C178.554 185.833 178.392 185.877 178.253 185.967C178.114 186.055 178.005 186.171 177.927 186.315C177.851 186.458 177.812 186.614 177.811 186.785V187.314C177.811 187.536 177.851 187.727 177.932 187.886C178.014 188.043 178.127 188.164 178.273 188.249C178.419 188.332 178.59 188.373 178.785 188.373C178.916 188.373 179.034 188.355 179.141 188.319C179.247 188.28 179.339 188.225 179.416 188.152C179.494 188.079 179.553 187.989 179.593 187.881L180.433 187.975C180.38 188.198 180.279 188.391 180.13 188.557C179.982 188.721 179.793 188.849 179.563 188.94C179.333 189.029 179.069 189.074 178.773 189.074Z" fill="#858585"/>
<path d="M181.786 189.054C181.635 189.054 181.506 189.001 181.398 188.895C181.291 188.789 181.238 188.66 181.239 188.507C181.238 188.358 181.291 188.231 181.398 188.125C181.506 188.019 181.635 187.966 181.786 187.966C181.932 187.966 182.059 188.019 182.166 188.125C182.276 188.231 182.331 188.358 182.333 188.507C182.331 188.609 182.305 188.701 182.253 188.783C182.204 188.866 182.137 188.933 182.055 188.982C181.973 189.03 181.884 189.054 181.786 189.054ZM181.786 186.33C181.635 186.33 181.506 186.277 181.398 186.171C181.291 186.063 181.238 185.934 181.239 185.783C181.238 185.634 181.291 185.506 181.398 185.4C181.506 185.292 181.635 185.239 181.786 185.239C181.932 185.239 182.059 185.292 182.166 185.4C182.276 185.506 182.331 185.634 182.333 185.783C182.331 185.882 182.305 185.974 182.253 186.056C182.204 186.139 182.137 186.206 182.055 186.255C181.973 186.305 181.884 186.33 181.786 186.33Z" fill="#858585"/>
<path fill-rule="evenodd" clip-rule="evenodd" d="M36 197.5C36 196.672 36.6716 196 37.5 196H121.5C122.328 196 123 196.672 123 197.5C123 198.328 122.328 199 121.5 199H37.5C36.6716 199 36 198.328 36 197.5ZM140 197.5C140 196.672 140.672 196 141.5 196H166.5C167.328 196 168 196.672 168 197.5C168 198.328 167.328 199 166.5 199H141.5C140.672 199 140 198.328 140 197.5ZM174.5 196C173.672 196 173 196.672 173 197.5C173 198.328 173.672 199 174.5 199H234.5C235.328 199 236 198.328 236 197.5C236 196.672 235.328 196 234.5 196H174.5Z" fill="#E6E6E6"/>
<defs>
<filter id="filter0_d_1059_7617" x="82" y="2" width="387" height="250" filterUnits="userSpaceOnUse" color-interpolation-filters="sRGB">
<feFlood flood-opacity="0" result="BackgroundImageFix"/>
<feColorMatrix in="SourceAlpha" type="matrix" values="0 0 0 0 0 0 0 0 0 0 0 0 0 0 0 0 0 0 127 0" result="hardAlpha"/>
<feOffset/>
<feGaussianBlur stdDeviation="12.5"/>
<feComposite in2="hardAlpha" operator="out"/>
<feColorMatrix type="matrix" values="0 0 0 0 0 0 0 0 0 0 0 0 0 0 0 0 0 0 0.15 0"/>
<feBlend mode="normal" in2="BackgroundImageFix" result="effect1_dropShadow_1059_7617"/>
<feBlend mode="normal" in="SourceGraphic" in2="effect1_dropShadow_1059_7617" result="shape"/>
</filter>
<filter id="filter1_d_1059_7617" x="0" y="73" width="272" height="94" filterUnits="userSpaceOnUse" color-interpolation-filters="sRGB">
<feFlood flood-opacity="0" result="BackgroundImageFix"/>
<feColorMatrix in="SourceAlpha" type="matrix" values="0 0 0 0 0 0 0 0 0 0 0 0 0 0 0 0 0 0 127 0" result="hardAlpha"/>
<feOffset/>
<feGaussianBlur stdDeviation="12.5"/>
<feComposite in2="hardAlpha" operator="out"/>
<feColorMatrix type="matrix" values="0 0 0 0 0 0 0 0 0 0 0 0 0 0 0 0 0 0 0.15 0"/>
<feBlend mode="normal" in2="BackgroundImageFix" result="effect1_dropShadow_1059_7617"/>
<feBlend mode="normal" in="SourceGraphic" in2="effect1_dropShadow_1059_7617" result="shape"/>
</filter>
<filter id="filter2_d_1059_7617" x="0" y="196" width="272" height="102" filterUnits="userSpaceOnUse" color-interpolation-filters="sRGB">
<feFlood flood-opacity="0" result="BackgroundImageFix"/>
<feColorMatrix in="SourceAlpha" type="matrix" values="0 0 0 0 0 0 0 0 0 0 0 0 0 0 0 0 0 0 127 0" result="hardAlpha"/>
<feOffset/>
<feGaussianBlur stdDeviation="12.5"/>
<feComposite in2="hardAlpha" operator="out"/>
<feColorMatrix type="matrix" values="0 0 0 0 0 0 0 0 0 0 0 0 0 0 0 0 0 0 0.15 0"/>
<feBlend mode="normal" in2="BackgroundImageFix" result="effect1_dropShadow_1059_7617"/>
<feBlend mode="normal" in="SourceGraphic" in2="effect1_dropShadow_1059_7617" result="shape"/>
</filter>
<filter id="filter3_d_1059_7617" x="0" y="126" width="272" height="111" filterUnits="userSpaceOnUse" color-interpolation-filters="sRGB">
<feFlood flood-opacity="0" result="BackgroundImageFix"/>
<feColorMatrix in="SourceAlpha" type="matrix" values="0 0 0 0 0 0 0 0 0 0 0 0 0 0 0 0 0 0 127 0" result="hardAlpha"/>
<feOffset/>
<feGaussianBlur stdDeviation="12.5"/>
<feComposite in2="hardAlpha" operator="out"/>
<feColorMatrix type="matrix" values="0 0 0 0 0 0 0 0 0 0 0 0 0 0 0 0 0 0 0.15 0"/>
<feBlend mode="normal" in2="BackgroundImageFix" result="effect1_dropShadow_1059_7617"/>
<feBlend mode="normal" in="SourceGraphic" in2="effect1_dropShadow_1059_7617" result="shape"/>
</filter>
</defs>
</svg>
