<svg width="629" height="355" viewBox="0 0 629 355" fill="none" xmlns="http://www.w3.org/2000/svg">
<g filter="url(#filter0_d_1059_7271)">
<rect x="36" y="51" width="430" height="254" rx="4" fill="white"/>
</g>
<path d="M36 55C36 52.7909 37.7909 51 40 51H462C464.209 51 466 52.7909 466 55V85H36V55Z" fill="#3C3A3E"/>
<path d="M36 85H142V305H40C37.7909 305 36 303.209 36 301V85Z" fill="#EDEDED"/>
<path fill-rule="evenodd" clip-rule="evenodd" d="M61.2968 70.7082C61.2968 73.1945 59.8548 74.4391 56.9709 74.4418H51C51 72.0479 54.6847 72.0584 56.2746 72.0629C56.3396 72.0631 56.4012 72.0633 56.4588 72.0633C57.6511 72.0633 58.246 71.5239 58.2435 70.4452C58.2435 69.3612 57.6499 68.8272 56.4588 68.8272H53.0912V66.473H56.4316C57.6227 66.473 58.2124 65.9512 58.2124 64.9156C58.2124 63.8801 57.6149 63.3785 56.4316 63.3785C56.2422 63.3785 56.0276 63.3841 55.7957 63.3902L55.7956 63.3902C53.9467 63.4387 51 63.516 51 61H56.4976C58.0805 61 59.1836 61.2036 59.807 61.6108C60.2754 61.9132 60.6574 62.341 60.9133 62.8497C61.1692 63.3584 61.2896 63.9293 61.2619 64.503C61.2859 65.1828 61.1139 65.8545 60.7681 66.4314C60.4223 67.0082 59.9186 67.4637 59.322 67.7391C60.6334 68.3216 61.2877 69.3194 61.2852 70.7324L61.2968 70.7082ZM100.341 64.6609C101.477 64.8694 102.5 65.5033 103.22 66.4434C103.939 67.3836 104.304 68.5652 104.247 69.7664C104.19 70.9675 103.714 72.1055 102.908 72.9665C102.103 73.8275 101.024 74.3523 99.8737 74.4422C98.7235 74.5322 97.5813 74.1811 96.6618 73.455C95.7423 72.7288 95.1088 71.6776 94.8803 70.4988C94.6517 69.32 94.8439 68.0948 95.4207 67.0533C95.9975 66.0118 96.9193 65.2258 98.0127 64.8429C98.762 64.5811 99.5622 64.5185 100.341 64.6609ZM72.1039 71.6952C72.1039 73.5398 70.9089 74.4607 68.519 74.458H62.7305V64.6123H68.1621C69.4502 64.6123 70.3541 64.7701 70.8779 65.0775C71.2605 65.2842 71.5789 65.6001 71.796 65.9883C72.0131 66.3764 72.1199 66.8209 72.1039 67.2699C72.1107 67.7334 71.9901 68.1892 71.7564 68.5835C71.5226 68.9777 71.1855 69.2939 70.7848 69.4947C71.1946 69.6738 71.5419 69.9796 71.7799 70.371C72.0179 70.7623 72.135 71.2202 72.1155 71.6831L72.1039 71.6952ZM69.4346 67.5612C69.4346 66.9423 69.0195 66.6308 68.1854 66.6308H65.2251V68.5199H68.1854C69.0195 68.5199 69.4346 68.2003 69.4346 67.5612ZM69.4346 71.4809C69.4346 70.8377 69.0234 70.5181 68.2009 70.5181H65.2251V72.4436H68.2203C69.0428 72.4436 69.454 72.12 69.454 71.4809H69.4346ZM93.6752 74.458H91.1922V70.5545H87.6073V74.458H85.1165V64.6123H87.6073V68.3864H91.1922V64.6123H93.6752V74.458ZM114.99 74.458H111.638L107.821 69.6808V74.458H105.33V64.6123H107.821V69.341L111.836 64.6123H115.014L110.626 69.43L115.014 74.458H114.99ZM100.209 66.918C99.8684 66.8063 99.5097 66.7687 99.1549 66.8077C98.8001 66.8468 98.4568 66.9615 98.1464 67.1448C97.836 67.3282 97.5651 67.5762 97.3506 67.8734C97.136 68.1706 96.9825 68.5106 96.8995 68.8724C96.8165 69.2342 96.8058 69.6099 96.8681 69.9761C96.9304 70.3424 97.0643 70.6913 97.2615 71.0013C97.4587 71.3112 97.7151 71.5755 98.0145 71.7777C98.3139 71.9799 98.6501 72.1157 99.0021 72.1766C99.3872 72.2573 99.7848 72.2476 100.166 72.1483C100.722 72.002 101.216 71.6683 101.571 71.1992C101.926 70.73 102.122 70.1516 102.129 69.554C102.136 68.9564 101.954 68.3732 101.61 67.895C101.266 67.4168 100.78 67.0705 100.228 66.9099L100.209 66.918ZM79.7547 66.7684C80.3441 67.0675 80.8187 67.5662 81.1012 68.1828C81.3837 68.7995 81.4574 69.4979 81.3101 70.1638C81.1629 70.8298 80.8035 71.424 80.2906 71.8496C79.7777 72.2751 79.1415 72.5068 78.486 72.5068C77.8306 72.5068 77.1944 72.2751 76.6815 71.8496C76.1686 71.424 75.8092 70.8298 75.6619 70.1638C75.5147 69.4979 75.5884 68.7995 75.8709 68.1828C76.1534 67.5662 76.628 67.0675 77.2174 66.7684V64.135C75.9633 64.4581 74.866 65.2487 74.1327 66.3575C73.3993 67.4663 73.0806 68.8167 73.2367 70.1537C73.3928 71.4907 74.0129 72.7219 74.98 73.6148C75.9471 74.5078 77.1942 75.0009 78.486 75.0009C79.7779 75.0009 81.025 74.5078 81.9921 73.6148C82.9592 72.7219 83.5793 71.4907 83.7354 70.1537C83.8915 68.8167 83.5728 67.4663 82.8394 66.3575C82.1061 65.2487 81.0088 64.4581 79.7547 64.135V66.7684ZM77.6042 70.9019C77.9735 71.1544 78.4236 71.2447 78.8564 71.1532C79.1835 71.0895 79.4849 70.9258 79.7224 70.683C79.9599 70.4401 80.1227 70.1291 80.1901 69.7894C80.2575 69.4498 80.2265 69.0969 80.1009 68.7757C79.9753 68.4545 79.7609 68.1796 79.485 67.9859C79.3176 67.8677 79.1309 67.7827 78.934 67.7351V63.9651H78.1581V67.7351C77.727 67.8354 77.3514 68.1091 77.1128 68.4966C76.8742 68.8842 76.792 69.3542 76.884 69.8046C76.976 70.255 77.2348 70.6494 77.6042 70.9019Z" fill="white"/>
<path fill-rule="evenodd" clip-rule="evenodd" d="M142 167.5V245V245.5L142 274H140V245.5L36 245.5V245L140 245L140 167.5L36 167.5V167L140 167V85H142V167V167.5ZM46 107C46 105.895 46.8954 105 48 105H124C125.105 105 126 105.895 126 107C126 108.105 125.105 109 124 109H48C46.8954 109 46 108.105 46 107ZM48 183C46.8954 183 46 183.895 46 185C46 186.105 46.8954 187 48 187H124C125.105 187 126 186.105 126 185C126 183.895 125.105 183 124 183H48ZM46 121C46 119.895 46.8954 119 48 119H104C105.105 119 106 119.895 106 121C106 122.105 105.105 123 104 123H48C46.8954 123 46 122.105 46 121ZM48 197C46.8954 197 46 197.895 46 199C46 200.105 46.8954 201 48 201H104C105.105 201 106 200.105 106 199C106 197.895 105.105 197 104 197H48ZM46 135C46 133.895 46.8954 133 48 133H113C114.105 133 115 133.895 115 135C115 136.105 114.105 137 113 137H48C46.8954 137 46 136.105 46 135ZM48 211C46.8954 211 46 211.895 46 213C46 214.105 46.8954 215 48 215H113C114.105 215 115 214.105 115 213C115 211.895 114.105 211 113 211H48ZM46 149C46 147.895 46.8954 147 48 147H91C92.1046 147 93 147.895 93 149C93 150.105 92.1046 151 91 151H48C46.8954 151 46 150.105 46 149ZM48 225C46.8954 225 46 225.895 46 227C46 228.105 46.8954 229 48 229H91C92.1046 229 93 228.105 93 227C93 225.895 92.1046 225 91 225H48ZM46 263C46 261.895 46.8954 261 48 261H104C105.105 261 106 261.895 106 263C106 264.105 105.105 265 104 265H48C46.8954 265 46 264.105 46 263ZM142 281L36 281V281.5L142 281.5V281Z" fill="#CBCBCB"/>
<path d="M178.09 114H180.037L176.44 109.253L179.888 105.273H177.94L174.838 108.861H174.442V105.273H172.861V114H174.442V110.186H175.217L178.09 114Z" fill="#3C3A3E"/>
<path d="M182.926 114.132C183.953 114.132 184.567 113.65 184.848 113.101H184.899V114H186.382V109.619C186.382 107.889 184.972 107.369 183.723 107.369C182.347 107.369 181.29 107.983 180.949 109.176L182.389 109.381C182.543 108.933 182.977 108.55 183.732 108.55C184.447 108.55 184.84 108.916 184.84 109.56V109.585C184.84 110.028 184.375 110.05 183.22 110.173C181.95 110.31 180.736 110.689 180.736 112.163C180.736 113.45 181.678 114.132 182.926 114.132ZM183.327 112.998C182.683 112.998 182.223 112.704 182.223 112.138C182.223 111.545 182.739 111.298 183.429 111.2C183.834 111.145 184.644 111.043 184.844 110.881V111.652C184.844 112.381 184.256 112.998 183.327 112.998Z" fill="#3C3A3E"/>
<path d="M191.7 112.206L189.808 107.454H187.933V114H189.42V109.589L191.163 114H192.242L194.044 109.543V114H195.519V107.454H193.644L191.7 112.206Z" fill="#3C3A3E"/>
<path d="M197.074 114H198.548V108.72H201.114V114H202.601V107.454H197.074V114Z" fill="#3C3A3E"/>
<path d="M206.071 114.132C207.098 114.132 207.711 113.65 207.993 113.101H208.044V114H209.527V109.619C209.527 107.889 208.116 107.369 206.868 107.369C205.491 107.369 204.434 107.983 204.093 109.176L205.534 109.381C205.687 108.933 206.122 108.55 206.876 108.55C207.592 108.55 207.984 108.916 207.984 109.56V109.585C207.984 110.028 207.52 110.05 206.365 110.173C205.095 110.31 203.88 110.689 203.88 112.163C203.88 113.45 204.822 114.132 206.071 114.132ZM206.471 112.998C205.828 112.998 205.368 112.704 205.368 112.138C205.368 111.545 205.883 111.298 206.574 111.2C206.978 111.145 207.788 111.043 207.988 110.881V111.652C207.988 112.381 207.4 112.998 206.471 112.998Z" fill="#3C3A3E"/>
<path d="M212.565 107.454H211.078V114H212.565V111.354H215.101V114H216.583V107.454H215.101V110.088H212.565V107.454Z" fill="#3C3A3E"/>
<path d="M219.631 111.912V107.454H218.144V114H219.734L222.346 109.538V114H223.837V107.454H222.252L219.631 111.912Z" fill="#3C3A3E"/>
<path d="M229.291 114H230.735V107.454H227.893C226.291 107.454 225.298 108.277 225.302 109.534C225.298 110.361 225.75 110.987 226.53 111.307L225.064 114H226.581L227.923 111.537H229.291V114ZM229.291 110.412H227.842C227.164 110.412 226.789 110.058 226.794 109.568C226.789 109.078 227.186 108.707 227.893 108.707H229.291V110.412Z" fill="#3C3A3E"/>
<path d="M240.916 113.062L239.297 110.446L240.916 107.829H239.527L237.805 110.386V110.506L239.527 113.062H240.916ZM238.316 113.062L236.697 110.446L238.316 107.829H236.927L235.206 110.386V110.506L236.927 113.062H238.316Z" fill="#3C3A3E"/>
<path d="M245.552 114.119C247.419 114.119 248.778 113.05 248.774 111.575C248.778 110.484 248.096 109.7 246.873 109.525V109.457C247.819 109.253 248.454 108.55 248.45 107.57C248.454 106.24 247.321 105.153 245.578 105.153C243.882 105.153 242.569 106.163 242.535 107.625H244.057C244.082 106.892 244.764 106.436 245.569 106.436C246.383 106.436 246.924 106.93 246.92 107.663C246.924 108.426 246.294 108.933 245.39 108.933H244.619V110.152H245.39C246.494 110.152 247.15 110.706 247.146 111.494C247.15 112.266 246.481 112.794 245.548 112.794C244.67 112.794 243.993 112.338 243.954 111.626H242.352C242.395 113.101 243.711 114.119 245.552 114.119Z" fill="#3C3A3E"/>
<path d="M250.254 114H253.424C254.958 114 255.836 113.305 255.836 112.223C255.836 111.307 255.124 110.668 254.097 110.578C254.971 110.416 255.516 109.952 255.516 109.214C255.516 108.111 254.549 107.454 253.002 107.454H250.254V114ZM251.698 112.785V111.162H253.424C253.991 111.162 254.336 111.49 254.336 112.031C254.336 112.5 253.991 112.785 253.424 112.785H251.698ZM251.698 110.165V108.69H253.002C253.646 108.69 254.038 108.963 254.038 109.41C254.038 109.879 253.658 110.165 253.032 110.165H251.698Z" fill="#3C3A3E"/>
<path d="M259.964 114.128C261.882 114.128 263.101 112.777 263.101 110.753C263.101 108.724 261.882 107.369 259.964 107.369C258.047 107.369 256.828 108.724 256.828 110.753C256.828 112.777 258.047 114.128 259.964 114.128ZM259.973 112.892C258.912 112.892 258.392 111.946 258.392 110.748C258.392 109.551 258.912 108.592 259.973 108.592C261.017 108.592 261.537 109.551 261.537 110.748C261.537 111.946 261.017 112.892 259.973 112.892Z" fill="#3C3A3E"/>
<path d="M265.897 107.454H264.41V114H265.897V111.354H268.433V114H269.916V107.454H268.433V110.088H265.897V107.454Z" fill="#3C3A3E"/>
<path d="M271.476 114H273.019V111.533H273.773L275.567 114H277.434L274.983 110.668L277.408 107.454H275.55L273.581 110.097H273.019V107.454H271.476V114Z" fill="#3C3A3E"/>
<path d="M279.796 111.912V107.454H278.308V114H279.898L282.51 109.538V114H284.001V107.454H282.416L279.796 111.912Z" fill="#3C3A3E"/>
<path d="M288.562 114H290.037V108.72H292.602V114H294.089V107.454H288.562V114Z" fill="#3C3A3E"/>
<path d="M298.531 114.128C300.448 114.128 301.667 112.777 301.667 110.753C301.667 108.724 300.448 107.369 298.531 107.369C296.613 107.369 295.394 108.724 295.394 110.753C295.394 112.777 296.613 114.128 298.531 114.128ZM298.539 112.892C297.478 112.892 296.958 111.946 296.958 110.748C296.958 109.551 297.478 108.592 298.539 108.592C299.583 108.592 300.103 109.551 300.103 110.748C300.103 111.946 299.583 112.892 298.539 112.892Z" fill="#3C3A3E"/>
<path d="M307.142 114L307.862 111.848H311.143L311.868 114H313.555L310.478 105.273H308.527L305.454 114H307.142ZM308.288 110.578L309.468 107.062H309.537L310.717 110.578H308.288Z" fill="#3C3A3E"/>
<path d="M314.705 114H316.286V111.051H317.956C319.972 111.051 321.054 109.841 321.054 108.162C321.054 106.496 319.984 105.273 317.977 105.273H314.705V114ZM316.286 109.751V106.594H317.734C318.919 106.594 319.443 107.233 319.443 108.162C319.443 109.091 318.919 109.751 317.743 109.751H316.286Z" fill="#3C3A3E"/>
<path d="M324.008 105.273H322.427V114H324.008V105.273Z" fill="#3C3A3E"/>
<path d="M328.158 113.062H329.547L331.269 110.506V110.386L329.547 107.829H328.158L329.777 110.446L328.158 113.062ZM325.533 113.062H326.922L328.644 110.506V110.386L326.922 107.829H325.533L327.152 110.446L325.533 113.062Z" fill="#3C3A3E"/>
<path fill-rule="evenodd" clip-rule="evenodd" d="M436 124H172V123H436V124ZM172 145C172 143.895 172.895 143 174 143H238C239.105 143 240 143.895 240 145C240 146.105 239.105 147 238 147H174C172.895 147 172 146.105 172 145ZM172 169C172 167.895 172.895 167 174 167H238C239.105 167 240 167.895 240 169C240 170.105 239.105 171 238 171H174C172.895 171 172 170.105 172 169ZM174 191C172.895 191 172 191.895 172 193C172 194.105 172.895 195 174 195H238C239.105 195 240 194.105 240 193C240 191.895 239.105 191 238 191H174ZM172 217C172 215.895 172.895 215 174 215H238C239.105 215 240 215.895 240 217C240 218.105 239.105 219 238 219H174C172.895 219 172 218.105 172 217ZM174 239C172.895 239 172 239.895 172 241C172 242.105 172.895 243 174 243H238C239.105 243 240 242.105 240 241C240 239.895 239.105 239 238 239H174ZM283 145C283 143.895 283.895 143 285 143H314C315.105 143 316 143.895 316 145C316 146.105 315.105 147 314 147H285C283.895 147 283 146.105 283 145ZM285 167C283.895 167 283 167.895 283 169C283 170.105 283.895 171 285 171H314C315.105 171 316 170.105 316 169C316 167.895 315.105 167 314 167H285ZM283 193C283 191.895 283.895 191 285 191H314C315.105 191 316 191.895 316 193C316 194.105 315.105 195 314 195H285C283.895 195 283 194.105 283 193ZM285 215C283.895 215 283 215.895 283 217C283 218.105 283.895 219 285 219H314C315.105 219 316 218.105 316 217C316 215.895 315.105 215 314 215H285ZM283 241C283 239.895 283.895 239 285 239H314C315.105 239 316 239.895 316 241C316 242.105 315.105 243 314 243H285C283.895 243 283 242.105 283 241ZM330 143C328.895 143 328 143.895 328 145C328 146.105 328.895 147 330 147H434C435.105 147 436 146.105 436 145C436 143.895 435.105 143 434 143H330ZM328 169C328 167.895 328.895 167 330 167H434C435.105 167 436 167.895 436 169C436 170.105 435.105 171 434 171H330C328.895 171 328 170.105 328 169ZM330 191C328.895 191 328 191.895 328 193C328 194.105 328.895 195 330 195H434C435.105 195 436 194.105 436 193C436 191.895 435.105 191 434 191H330ZM328 217C328 215.895 328.895 215 330 215H434C435.105 215 436 215.895 436 217C436 218.105 435.105 219 434 219H330C328.895 219 328 218.105 328 217ZM330 239C328.895 239 328 239.895 328 241C328 242.105 328.895 243 330 243H434C435.105 243 436 242.105 436 241C436 239.895 435.105 239 434 239H330ZM172 157H436V156.5H172V157ZM436 181H172V180.5H436V181ZM172 205H436V204.5H172V205ZM436 229H172V228.5H436V229ZM172 253H436V252.5H172V253Z" fill="#E6E6E6"/>
<g filter="url(#filter1_d_1059_7271)">
<rect x="293" y="206" width="289" height="118" rx="9" fill="white"/>
</g>
<path d="M319.908 236.119C321.774 236.119 323.134 235.05 323.129 233.575C323.134 232.484 322.452 231.7 321.229 231.525V231.457C322.175 231.253 322.81 230.55 322.806 229.57C322.81 228.24 321.676 227.153 319.933 227.153C318.237 227.153 316.925 228.163 316.891 229.625H318.412C318.438 228.892 319.119 228.436 319.925 228.436C320.739 228.436 321.28 228.93 321.276 229.663C321.28 230.426 320.649 230.933 319.746 230.933H318.975V232.152H319.746C320.85 232.152 321.506 232.706 321.502 233.494C321.506 234.266 320.837 234.794 319.904 234.794C319.026 234.794 318.348 234.338 318.31 233.626H316.708C316.75 235.101 318.067 236.119 319.908 236.119Z" fill="#3C3A3E"/>
<path d="M324.609 236H327.78C329.314 236 330.192 235.305 330.192 234.223C330.192 233.307 329.48 232.668 328.453 232.578C329.326 232.416 329.872 231.952 329.872 231.214C329.872 230.111 328.905 229.454 327.358 229.454H324.609V236ZM326.054 234.785V233.162H327.78C328.346 233.162 328.692 233.49 328.692 234.031C328.692 234.5 328.346 234.785 327.78 234.785H326.054ZM326.054 232.165V230.69H327.358C328.001 230.69 328.393 230.963 328.393 231.41C328.393 231.879 328.014 232.165 327.388 232.165H326.054Z" fill="#3C3A3E"/>
<path d="M334.32 236.128C336.237 236.128 337.456 234.777 337.456 232.753C337.456 230.724 336.237 229.369 334.32 229.369C332.402 229.369 331.183 230.724 331.183 232.753C331.183 234.777 332.402 236.128 334.32 236.128ZM334.328 234.892C333.267 234.892 332.747 233.946 332.747 232.748C332.747 231.551 333.267 230.592 334.328 230.592C335.372 230.592 335.892 231.551 335.892 232.748C335.892 233.946 335.372 234.892 334.328 234.892Z" fill="#3C3A3E"/>
<path d="M340.253 229.454H338.765V236H340.253V233.354H342.788V236H344.271V229.454H342.788V232.088H340.253V229.454Z" fill="#3C3A3E"/>
<path d="M345.832 236H347.374V233.533H348.129L349.923 236H351.789L349.339 232.668L351.764 229.454H349.906L347.937 232.097H347.374V229.454H345.832V236Z" fill="#3C3A3E"/>
<path d="M354.151 233.912V229.454H352.664V236H354.253L356.866 231.538V236H358.357V229.454H356.772L354.151 233.912Z" fill="#3C3A3E"/>
<path d="M362.918 236H364.392V230.72H366.958V236H368.445V229.454H362.918V236Z" fill="#3C3A3E"/>
<path d="M372.886 236.128C374.804 236.128 376.023 234.777 376.023 232.753C376.023 230.724 374.804 229.369 372.886 229.369C370.969 229.369 369.75 230.724 369.75 232.753C369.75 234.777 370.969 236.128 372.886 236.128ZM372.895 234.892C371.834 234.892 371.314 233.946 371.314 232.748C371.314 231.551 371.834 230.592 372.895 230.592C373.939 230.592 374.459 231.551 374.459 232.748C374.459 233.946 373.939 234.892 372.895 234.892Z" fill="#3C3A3E"/>
<path d="M379.729 237.9H381.246V236H385.529V237.9H387.02V234.73H386.006V229.454H381.276L381.088 231.747C380.965 233.213 380.803 234.3 380.249 234.73H379.729V237.9ZM381.834 234.73C382.247 234.121 382.401 233.132 382.511 231.747L382.614 230.699H384.531V234.73H381.834Z" fill="#3C3A3E"/>
<path d="M389.659 229.454H388.172V236H389.659V233.354H392.194V236H393.677V229.454H392.194V232.088H389.659V229.454Z" fill="#3C3A3E"/>
<path d="M399.107 236H400.552V229.454H397.71C396.107 229.454 395.114 230.277 395.119 231.534C395.114 232.361 395.566 232.987 396.346 233.307L394.88 236H396.397L397.739 233.537H399.107V236ZM399.107 232.412H397.659C396.981 232.412 396.606 232.058 396.61 231.568C396.606 231.078 397.002 230.707 397.71 230.707H399.107V232.412Z" fill="#3C3A3E"/>
<path d="M405.872 234.206L403.98 229.454H402.105V236H403.592V231.589L405.335 236H406.413L408.216 231.543V236H409.69V229.454H407.815L405.872 234.206Z" fill="#3C3A3E"/>
<path d="M415.71 229.454H414.222V236H415.71V233.354H418.245V236H419.728V229.454H418.245V232.088H415.71V229.454Z" fill="#3C3A3E"/>
<path d="M424.187 236.128C425.712 236.128 426.76 235.382 427.033 234.244L425.593 234.082C425.384 234.636 424.873 234.926 424.208 234.926C423.211 234.926 422.55 234.27 422.537 233.149H427.097V232.676C427.097 230.379 425.716 229.369 424.106 229.369C422.231 229.369 421.008 230.746 421.008 232.766C421.008 234.82 422.214 236.128 424.187 236.128ZM422.542 232.109C422.589 231.274 423.206 230.571 424.127 230.571C425.013 230.571 425.61 231.219 425.618 232.109H422.542Z" fill="#3C3A3E"/>
<path d="M427.823 237.9H429.34V236H433.622V237.9H435.114V234.73H434.1V229.454H429.369L429.182 231.747C429.058 233.213 428.896 234.3 428.342 234.73H427.823V237.9ZM429.928 234.73C430.341 234.121 430.494 233.132 430.605 231.747L430.708 230.699H432.625V234.73H429.928Z" fill="#3C3A3E"/>
<path d="M439.163 236.128C440.689 236.128 441.737 235.382 442.01 234.244L440.569 234.082C440.361 234.636 439.849 234.926 439.184 234.926C438.187 234.926 437.527 234.27 437.514 233.149H442.074V232.676C442.074 230.379 440.693 229.369 439.082 229.369C437.207 229.369 435.984 230.746 435.984 232.766C435.984 234.82 437.19 236.128 439.163 236.128ZM437.518 232.109C437.565 231.274 438.183 230.571 439.103 230.571C439.99 230.571 440.586 231.219 440.595 232.109H437.518Z" fill="#3C3A3E"/>
<path d="M442.927 236H443.404C444.811 236 445.445 235.011 445.548 232.829L445.65 230.72H447.529V236H449.021V229.454H444.248L444.133 232.352C444.061 234.189 443.822 234.73 443.144 234.73H442.918L442.927 236Z" fill="#3C3A3E"/>
<path d="M452.061 233.912V229.454H450.574V236H452.163L454.776 231.538V236H456.267V229.454H454.682L452.061 233.912Z" fill="#3C3A3E"/>
<path d="M321.986 297.454H316.77V304H317.946V298.439H320.81V304H321.986V297.454Z" fill="#838383"/>
<path d="M325.494 304.096C326.933 304.096 327.847 303.083 327.847 301.564C327.847 300.043 326.933 299.027 325.494 299.027C324.056 299.027 323.142 300.043 323.142 301.564C323.142 303.083 324.056 304.096 325.494 304.096ZM325.501 303.169C324.705 303.169 324.315 302.459 324.315 301.561C324.315 300.663 324.705 299.944 325.501 299.944C326.284 299.944 326.674 300.663 326.674 301.561C326.674 302.459 326.284 303.169 325.501 303.169Z" fill="#838383"/>
<path d="M330.97 304.096C332.204 304.096 332.99 303.364 333.073 302.322H331.967C331.868 302.849 331.488 303.153 330.98 303.153C330.257 303.153 329.791 302.549 329.791 301.545C329.791 300.555 330.267 299.96 330.98 299.96C331.536 299.96 331.878 300.318 331.967 300.791H333.073C332.993 299.727 332.162 299.027 330.964 299.027C329.525 299.027 328.618 300.066 328.618 301.564C328.618 303.051 329.503 304.096 330.97 304.096Z" fill="#838383"/>
<path d="M333.675 300.04H335.264V304H336.382V300.04H337.971V299.091H333.675V300.04Z" fill="#838383"/>
<path d="M342.826 297.275C342.59 297.454 342.216 297.451 341.708 297.451C341.564 297.451 341.414 297.451 341.251 297.454C339.56 297.477 338.691 298.602 338.691 300.909V301.35C338.691 303.146 339.598 304.096 341.027 304.096C342.456 304.096 343.357 303.143 343.357 301.628C343.357 300.158 342.5 299.311 341.283 299.311C340.535 299.311 339.969 299.634 339.662 300.235H339.608C339.723 299.011 340.183 298.458 341.283 298.432C342.258 298.41 342.804 298.394 343.229 298.023L342.826 297.275ZM341.033 303.169C340.308 303.169 339.864 302.587 339.864 301.66C339.873 300.746 340.311 300.222 341.027 300.222C341.743 300.222 342.184 300.746 342.184 301.66C342.184 302.59 341.746 303.169 341.033 303.169Z" fill="#838383"/>
<path d="M346.515 304.096C347.659 304.096 348.445 303.536 348.65 302.683L347.569 302.562C347.413 302.977 347.029 303.194 346.531 303.194C345.783 303.194 345.287 302.702 345.278 301.862H348.697V301.507C348.697 299.784 347.662 299.027 346.454 299.027C345.048 299.027 344.13 300.059 344.13 301.574C344.13 303.115 345.035 304.096 346.515 304.096ZM345.281 301.082C345.316 300.455 345.78 299.928 346.47 299.928C347.135 299.928 347.582 300.414 347.588 301.082H345.281Z" fill="#838383"/>
<path d="M349.676 304H350.833V302.149H351.399L352.744 304H354.144L352.307 301.501L354.125 299.091H352.732L351.255 301.072H350.833V299.091H349.676V304Z" fill="#838383"/>
<path d="M355.916 302.434V299.091H354.8V304H355.992L357.952 300.654V304H359.07V299.091H357.881L355.916 302.434Z" fill="#838383"/>
<path d="M316.358 279.448H318.381V285H319.557V279.448H321.58V278.454H316.358V279.448Z" fill="#838383"/>
<path d="M323.965 285.096C325.403 285.096 326.318 284.083 326.318 282.565C326.318 281.043 325.403 280.027 323.965 280.027C322.527 280.027 321.613 281.043 321.613 282.565C321.613 284.083 322.527 285.096 323.965 285.096ZM323.972 284.169C323.176 284.169 322.786 283.459 322.786 282.561C322.786 281.663 323.176 280.944 323.972 280.944C324.755 280.944 325.145 281.663 325.145 282.561C325.145 283.459 324.755 284.169 323.972 284.169Z" fill="#838383"/>
<path d="M328.415 280.091H327.299V285H328.415V283.015H330.317V285H331.429V280.091H330.317V282.066H328.415V280.091Z" fill="#838383"/>
<path d="M332.599 285H333.756V283.149H334.322L335.667 285H337.067L335.23 282.501L337.048 280.091H335.655L334.178 282.072H333.756V280.091H332.599V285Z" fill="#838383"/>
<path d="M338.839 283.434V280.091H337.723V285H338.915L340.875 281.654V285H341.993V280.091H340.804L338.839 283.434Z" fill="#838383"/>
<path d="M345.355 285.096C346.499 285.096 347.285 284.536 347.49 283.683L346.409 283.562C346.253 283.977 345.869 284.195 345.371 284.195C344.623 284.195 344.127 283.702 344.118 282.862H347.538V282.507C347.538 280.784 346.502 280.027 345.294 280.027C343.888 280.027 342.97 281.059 342.97 282.574C342.97 284.115 343.875 285.096 345.355 285.096ZM344.121 282.082C344.156 281.456 344.62 280.928 345.31 280.928C345.975 280.928 346.422 281.414 346.428 282.082H344.121Z" fill="#838383"/>
<path d="M351.864 280.091H350.749V285H351.864V283.015H353.766V285H354.878V280.091H353.766V282.066H351.864V280.091Z" fill="#838383"/>
<path d="M357.461 285.099C358.231 285.099 358.692 284.738 358.903 284.326H358.941V285H360.053V281.714C360.053 280.417 358.995 280.027 358.059 280.027C357.027 280.027 356.234 280.487 355.978 281.382L357.058 281.535C357.174 281.2 357.5 280.912 358.065 280.912C358.602 280.912 358.896 281.187 358.896 281.67V281.689C358.896 282.021 358.548 282.037 357.682 282.13C356.729 282.232 355.818 282.517 355.818 283.622C355.818 284.588 356.525 285.099 357.461 285.099ZM357.762 284.249C357.279 284.249 356.934 284.028 356.934 283.603C356.934 283.159 357.321 282.974 357.838 282.9C358.142 282.859 358.749 282.782 358.899 282.66V283.239C358.899 283.785 358.458 284.249 357.762 284.249Z" fill="#838383"/>
<path d="M363.358 285.096C364.591 285.096 365.378 284.364 365.461 283.322H364.355C364.256 283.849 363.876 284.153 363.367 284.153C362.645 284.153 362.178 283.549 362.178 282.545C362.178 281.555 362.655 280.96 363.367 280.96C363.924 280.96 364.265 281.318 364.355 281.791H365.461C365.381 280.727 364.55 280.027 363.351 280.027C361.913 280.027 361.006 281.066 361.006 282.565C361.006 284.051 361.891 285.096 363.358 285.096Z" fill="#838383"/>
<path d="M366.063 281.04H367.652V285H368.77V281.04H370.359V280.091H366.063V281.04Z" fill="#838383"/>
<path d="M371.28 286.841H372.437V284.226H372.485C372.667 284.584 373.047 285.086 373.891 285.086C375.048 285.086 375.914 284.169 375.914 282.552C375.914 280.915 375.023 280.027 373.888 280.027C373.022 280.027 372.661 280.548 372.485 280.903H372.418V280.091H371.28V286.841ZM372.415 282.545C372.415 281.593 372.824 280.976 373.568 280.976C374.339 280.976 374.735 281.631 374.735 282.545C374.735 283.466 374.332 284.137 373.568 284.137C372.83 284.137 372.415 283.498 372.415 282.545Z" fill="#838383"/>
<path d="M379.046 285.096C380.485 285.096 381.399 284.083 381.399 282.565C381.399 281.043 380.485 280.027 379.046 280.027C377.608 280.027 376.694 281.043 376.694 282.565C376.694 284.083 377.608 285.096 379.046 285.096ZM379.053 284.169C378.257 284.169 377.867 283.459 377.867 282.561C377.867 281.663 378.257 280.944 379.053 280.944C379.836 280.944 380.226 281.663 380.226 282.561C380.226 283.459 379.836 284.169 379.053 284.169Z" fill="#838383"/>
<path d="M383.496 283.434V280.091H382.381V285H383.573L385.532 281.654V285H386.65V280.091H385.462L383.496 283.434ZM385.145 278.403C385.142 278.717 384.963 278.995 384.512 278.995C384.055 278.995 383.883 278.71 383.883 278.403H383.023C383.02 279.151 383.598 279.656 384.512 279.656C385.433 279.656 386.011 279.151 386.011 278.403H385.145Z" fill="#838383"/>
<path d="M387.839 285H388.996V283.149H389.561L390.907 285H392.307L390.469 282.501L392.287 280.091H390.894L389.417 282.072H388.996V280.091H387.839V285Z" fill="#838383"/>
<path d="M394.078 283.434V280.091H392.963V285H394.155L396.114 281.654V285H397.232V280.091H396.044L394.078 283.434Z" fill="#838383"/>
<path fill-rule="evenodd" clip-rule="evenodd" d="M411 280C409.895 280 409 280.895 409 282C409 283.105 409.895 284 411 284H509C510.105 284 511 283.105 511 282C511 280.895 510.105 280 509 280H411ZM371 301C371 299.895 371.895 299 373 299H462C463.105 299 464 299.895 464 301C464 302.105 463.105 303 462 303H373C371.895 303 371 302.105 371 301ZM475 301C475 299.895 475.895 299 477 299H557C558.105 299 559 299.895 559 301C559 302.105 558.105 303 557 303H477C475.895 303 475 302.105 475 301Z" fill="#E6E6E6"/>
<path d="M326.594 261H327.7V257.04H329.624V261H330.739V256.091H326.594V261Z" fill="#838383"/>
<path d="M333.045 256.091H331.929V261H333.045V259.015H334.946V261H336.058V256.091H334.946V258.066H333.045V256.091Z" fill="#838383"/>
<path d="M358.594 261H360.972C362.123 261 362.781 260.479 362.781 259.667C362.781 258.98 362.247 258.501 361.477 258.434C362.132 258.312 362.541 257.964 362.541 257.411C362.541 256.583 361.816 256.091 360.656 256.091H358.594V261ZM359.678 260.089V258.871H360.972C361.397 258.871 361.656 259.117 361.656 259.523C361.656 259.875 361.397 260.089 360.972 260.089H359.678ZM359.678 258.123V257.018H360.656C361.138 257.018 361.432 257.222 361.432 257.558C361.432 257.909 361.148 258.123 360.678 258.123H359.678Z" fill="#838383"/>
<path d="M363.467 257.04H365.056V261H366.174V257.04H367.763V256.091H363.467V257.04Z" fill="#838383"/>
<path d="M392.736 261.096C393.969 261.096 394.755 260.364 394.839 259.322H393.733C393.634 259.85 393.253 260.153 392.745 260.153C392.023 260.153 391.556 259.549 391.556 258.546C391.556 257.555 392.032 256.961 392.745 256.961C393.301 256.961 393.643 257.319 393.733 257.792H394.839C394.759 256.727 393.928 256.027 392.729 256.027C391.291 256.027 390.383 257.066 390.383 258.565C390.383 260.051 391.269 261.096 392.736 261.096Z" fill="#838383"/>
<path d="M395.789 262.841H396.946V260.227H396.993C397.176 260.585 397.556 261.087 398.4 261.087C399.557 261.087 400.423 260.169 400.423 258.552C400.423 256.916 399.531 256.027 398.397 256.027C397.53 256.027 397.169 256.548 396.993 256.903H396.926V256.091H395.789V262.841ZM396.923 258.546C396.923 257.593 397.332 256.977 398.077 256.977C398.847 256.977 399.243 257.632 399.243 258.546C399.243 259.466 398.841 260.137 398.077 260.137C397.339 260.137 396.923 259.498 396.923 258.546Z" fill="#838383"/>
<path d="M426.695 256.091H425.583V258.488C425.301 258.559 425.023 258.597 424.72 258.597C424.036 258.597 423.7 258.354 423.7 257.721V256.085H422.594V257.721C422.594 258.974 423.409 259.546 424.72 259.546C425.007 259.546 425.308 259.508 425.583 259.444V261H426.695V256.091Z" fill="#838383"/>
<path d="M427.309 257.041H428.898V261H430.016V257.041H431.605V256.091H427.309V257.041Z" fill="#838383"/>
<path d="M453.594 261H454.7V257.04H456.624V261H457.739V256.091H453.594V261Z" fill="#838383"/>
<path d="M458.379 257.04H459.968V261H461.087V257.04H462.675V256.091H458.379V257.04Z" fill="#838383"/>
<path d="M487.736 261.096C488.969 261.096 489.755 260.364 489.839 259.322H488.733C488.634 259.849 488.253 260.153 487.745 260.153C487.023 260.153 486.556 259.549 486.556 258.545C486.556 257.555 487.032 256.96 487.745 256.96C488.301 256.96 488.643 257.318 488.733 257.791H489.839C489.759 256.727 488.928 256.027 487.729 256.027C486.291 256.027 485.383 257.066 485.383 258.564C485.383 260.051 486.269 261.096 487.736 261.096Z" fill="#838383"/>
<path d="M494.723 254.275C494.486 254.454 494.112 254.451 493.604 254.451C493.46 254.451 493.31 254.451 493.147 254.454C491.457 254.477 490.587 255.602 490.587 257.909V258.35C490.587 260.146 491.495 261.096 492.924 261.096C494.352 261.096 495.253 260.143 495.253 258.628C495.253 257.158 494.397 256.311 493.179 256.311C492.431 256.311 491.866 256.634 491.559 257.235H491.504C491.62 256.011 492.08 255.458 493.179 255.432C494.154 255.41 494.701 255.394 495.126 255.023L494.723 254.275ZM492.93 260.169C492.204 260.169 491.76 259.587 491.76 258.66C491.77 257.746 492.208 257.222 492.924 257.222C493.639 257.222 494.08 257.746 494.08 258.66C494.08 259.59 493.643 260.169 492.93 260.169Z" fill="#838383"/>
<path d="M517.594 261H519.972C521.123 261 521.781 260.479 521.781 259.668C521.781 258.98 521.247 258.501 520.477 258.434C521.132 258.312 521.541 257.964 521.541 257.411C521.541 256.583 520.816 256.091 519.656 256.091H517.594V261ZM518.678 260.089V258.872H519.972C520.397 258.872 520.656 259.118 520.656 259.524C520.656 259.875 520.397 260.089 519.972 260.089H518.678ZM518.678 258.124V257.018H519.656C520.138 257.018 520.432 257.223 520.432 257.558C520.432 257.91 520.148 258.124 519.678 258.124H518.678Z" fill="#838383"/>
<path d="M524.877 261.096C526.111 261.096 526.897 260.364 526.98 259.322H525.874C525.775 259.85 525.395 260.153 524.887 260.153C524.164 260.153 523.698 259.549 523.698 258.546C523.698 257.555 524.174 256.961 524.887 256.961C525.443 256.961 525.785 257.319 525.874 257.792H526.98C526.9 256.727 526.069 256.027 524.871 256.027C523.433 256.027 522.525 257.066 522.525 258.565C522.525 260.051 523.41 261.096 524.877 261.096Z" fill="#838383"/>
<circle cx="478" cy="258" r="2.5" stroke="#838383"/>
<circle cx="510" cy="258" r="2.5" stroke="#838383"/>
<path fill-rule="evenodd" clip-rule="evenodd" d="M321 258C321 259.105 320.105 260 319 260C317.895 260 317 259.105 317 258C317 256.895 317.895 256 319 256C320.105 256 321 256.895 321 258ZM322 258C322 259.657 320.657 261 319 261C317.343 261 316 259.657 316 258C316 256.343 317.343 255 319 255C320.657 255 322 256.343 322 258ZM319 259C319.552 259 320 258.552 320 258C320 257.448 319.552 257 319 257C318.448 257 318 257.448 318 258C318 258.552 318.448 259 319 259Z" fill="#838383"/>
<path fill-rule="evenodd" clip-rule="evenodd" d="M353 258C353 259.105 352.105 260 351 260C349.895 260 349 259.105 349 258C349 256.895 349.895 256 351 256C352.105 256 353 256.895 353 258ZM354 258C354 259.657 352.657 261 351 261C349.343 261 348 259.657 348 258C348 256.343 349.343 255 351 255C352.657 255 354 256.343 354 258ZM351 259C351.552 259 352 258.552 352 258C352 257.448 351.552 257 351 257C350.448 257 350 257.448 350 258C350 258.552 350.448 259 351 259Z" fill="#838383"/>
<path fill-rule="evenodd" clip-rule="evenodd" d="M385 258C385 259.105 384.105 260 383 260C381.895 260 381 259.105 381 258C381 256.895 381.895 256 383 256C384.105 256 385 256.895 385 258ZM386 258C386 259.657 384.657 261 383 261C381.343 261 380 259.657 380 258C380 256.343 381.343 255 383 255C384.657 255 386 256.343 386 258ZM383 259C383.552 259 384 258.552 384 258C384 257.448 383.552 257 383 257C382.448 257 382 257.448 382 258C382 258.552 382.448 259 383 259Z" fill="#838383"/>
<path fill-rule="evenodd" clip-rule="evenodd" d="M417 258C417 259.105 416.105 260 415 260C413.895 260 413 259.105 413 258C413 256.895 413.895 256 415 256C416.105 256 417 256.895 417 258ZM418 258C418 259.657 416.657 261 415 261C413.343 261 412 259.657 412 258C412 256.343 413.343 255 415 255C416.657 255 418 256.343 418 258ZM415 259C415.552 259 416 258.552 416 258C416 257.448 415.552 257 415 257C414.448 257 414 257.448 414 258C414 258.552 414.448 259 415 259Z" fill="#838383"/>
<path fill-rule="evenodd" clip-rule="evenodd" d="M448 258C448 259.105 447.105 260 446 260C444.895 260 444 259.105 444 258C444 256.895 444.895 256 446 256C447.105 256 448 256.895 448 258ZM449 258C449 259.657 447.657 261 446 261C444.343 261 443 259.657 443 258C443 256.343 444.343 255 446 255C447.657 255 449 256.343 449 258ZM446 259C446.552 259 447 258.552 447 258C447 257.448 446.552 257 446 257C445.448 257 445 257.448 445 258C445 258.552 445.448 259 446 259Z" fill="#838383"/>
<g filter="url(#filter2_d_1059_7271)">
<rect x="293" y="31" width="289" height="156" rx="9" fill="white"/>
</g>
<path d="M324.331 53.2174C324.062 51.2785 322.571 50.1535 320.636 50.1535C318.356 50.1535 316.639 51.8154 316.639 54.6365C316.639 57.4532 318.335 59.1194 320.636 59.1194C322.712 59.1194 324.088 57.7771 324.331 56.1109L322.737 56.1024C322.537 57.1251 321.702 57.7004 320.658 57.7004C319.243 57.7004 318.229 56.6393 318.229 54.6365C318.229 52.6677 319.234 51.5725 320.662 51.5725C321.723 51.5725 322.554 52.1734 322.737 53.2174H324.331Z" fill="#3C3A3E"/>
<path d="M325.353 53.7203H327.47V59.0001H328.962V53.7203H331.08V52.4546H325.353V53.7203Z" fill="#3C3A3E"/>
<path d="M333.922 59.1322C334.949 59.1322 335.563 58.6507 335.844 58.1009H335.895V59.0001H337.378V54.6194C337.378 52.8893 335.968 52.3694 334.719 52.3694C333.343 52.3694 332.286 52.983 331.945 54.1762L333.385 54.3808C333.539 53.9333 333.973 53.5498 334.728 53.5498C335.443 53.5498 335.836 53.9163 335.836 54.5597V54.5853C335.836 55.0285 335.371 55.0498 334.216 55.1734C332.946 55.3097 331.732 55.689 331.732 57.1634C331.732 58.4504 332.674 59.1322 333.922 59.1322ZM334.323 57.9987C333.679 57.9987 333.219 57.7046 333.219 57.1379C333.219 56.5455 333.735 56.2984 334.425 56.2004C334.83 56.145 335.64 56.0427 335.84 55.8808V56.6521C335.84 57.3808 335.252 57.9987 334.323 57.9987Z" fill="#3C3A3E"/>
<path d="M338.196 53.7203H340.314V59.0001H341.806V53.7203H343.924V52.4546H338.196V53.7203Z" fill="#3C3A3E"/>
<path d="M346.639 56.912V52.4546H345.152V59.0001H346.741L349.354 54.5384V59.0001H350.845V52.4546H349.26L346.639 56.912Z" fill="#3C3A3E"/>
<path d="M355.284 59.1279C356.929 59.1279 357.978 58.1521 358.088 56.7629H356.614C356.482 57.466 355.975 57.8708 355.297 57.8708C354.334 57.8708 353.712 57.0654 353.712 55.7274C353.712 54.4063 354.347 53.6137 355.297 53.6137C356.039 53.6137 356.495 54.091 356.614 54.7217H358.088C357.982 53.3026 356.874 52.3694 355.276 52.3694C353.358 52.3694 352.148 53.7544 352.148 55.7529C352.148 57.7345 353.328 59.1279 355.284 59.1279Z" fill="#3C3A3E"/>
<path d="M358.892 53.7203H361.01V59.0001H362.501V53.7203H364.619V52.4546H358.892V53.7203Z" fill="#3C3A3E"/>
<path d="M367.334 56.912V52.4546H365.847V59.0001H367.437L370.049 54.5384V59.0001H371.54V52.4546H369.955L367.334 56.912Z" fill="#3C3A3E"/>
<path d="M373.125 59.0001H374.667V56.5328H375.421L377.216 59.0001H379.082L376.632 55.6677L379.056 52.4546H377.198L375.23 55.0967H374.667V52.4546H373.125V59.0001Z" fill="#3C3A3E"/>
<path d="M381.84 59.1322C382.867 59.1322 383.481 58.6507 383.762 58.1009H383.813V59.0001H385.296V54.6194C385.296 52.8893 383.886 52.3694 382.637 52.3694C381.261 52.3694 380.204 52.983 379.863 54.1762L381.303 54.3808C381.457 53.9333 381.891 53.5498 382.646 53.5498C383.361 53.5498 383.754 53.9163 383.754 54.5597V54.5853C383.754 55.0285 383.289 55.0498 382.134 55.1734C380.864 55.3097 379.65 55.689 379.65 57.1634C379.65 58.4504 380.592 59.1322 381.84 59.1322ZM382.241 57.9987C381.597 57.9987 381.137 57.7046 381.137 57.1379C381.137 56.5455 381.653 56.2984 382.343 56.2004C382.748 56.145 383.557 56.0427 383.758 55.8808V56.6521C383.758 57.3808 383.17 57.9987 382.241 57.9987Z" fill="#3C3A3E"/>
<path d="M389.462 57.2061C389.5 58.4205 390.612 59.1279 392.125 59.1279C393.676 59.1279 394.797 58.3907 394.797 57.1847C394.797 56.3026 394.196 55.6975 393.42 55.6507V55.5825C394.17 55.3822 394.648 54.9134 394.648 54.2061C394.648 53.1024 393.693 52.3694 392.159 52.3694C390.727 52.3694 389.649 53.1109 389.628 54.2529H391.149C391.166 53.814 391.618 53.5072 392.231 53.5072C392.845 53.5072 393.216 53.8353 393.216 54.3211C393.216 54.7686 392.875 55.1009 392.236 55.1009H391.234V56.1961H392.236C392.879 56.1961 393.301 56.5583 393.301 57.0867C393.301 57.6833 392.777 57.9731 392.116 57.9731C391.464 57.9731 391.021 57.6919 390.991 57.2061H389.462Z" fill="#3C3A3E"/>
<path d="M397.895 59.1322C398.922 59.1322 399.535 58.6507 399.817 58.1009H399.868V59.0001H401.351V54.6194C401.351 52.8893 399.94 52.3694 398.692 52.3694C397.315 52.3694 396.258 52.983 395.918 54.1762L397.358 54.3808C397.511 53.9333 397.946 53.5498 398.7 53.5498C399.416 53.5498 399.808 53.9163 399.808 54.5597V54.5853C399.808 55.0285 399.344 55.0498 398.189 55.1734C396.919 55.3097 395.704 55.689 395.704 57.1634C395.704 58.4504 396.646 59.1322 397.895 59.1322ZM398.295 57.9987C397.652 57.9987 397.192 57.7046 397.192 57.1379C397.192 56.5455 397.707 56.2984 398.398 56.2004C398.803 56.145 399.612 56.0427 399.812 55.8808V56.6521C399.812 57.3808 399.224 57.9987 398.295 57.9987Z" fill="#3C3A3E"/>
<path d="M408.734 59.1279C410.379 59.1279 411.427 58.1521 411.538 56.7629H410.063C409.931 57.466 409.424 57.8708 408.746 57.8708C407.783 57.8708 407.161 57.0654 407.161 55.7274C407.161 54.4063 407.796 53.6137 408.746 53.6137C409.488 53.6137 409.944 54.091 410.063 54.7217H411.538C411.431 53.3026 410.323 52.3694 408.725 52.3694C406.807 52.3694 405.597 53.7544 405.597 55.7529C405.597 57.7345 406.778 59.1279 408.734 59.1279Z" fill="#3C3A3E"/>
<path d="M415.702 59.1279C417.228 59.1279 418.276 58.3822 418.549 57.2444L417.108 57.0825C416.899 57.6365 416.388 57.9262 415.723 57.9262C414.726 57.9262 414.066 57.27 414.053 56.1492H418.613V55.6762C418.613 53.3794 417.232 52.3694 415.621 52.3694C413.746 52.3694 412.523 53.7458 412.523 55.7657C412.523 57.8197 413.729 59.1279 415.702 59.1279ZM414.057 55.1095C414.104 54.2742 414.722 53.5711 415.642 53.5711C416.529 53.5711 417.125 54.2188 417.134 55.1095H414.057Z" fill="#3C3A3E"/>
<path d="M421.405 52.4546H419.918V59.0001H421.405V56.3538H423.94V59.0001H425.423V52.4546H423.94V55.0882H421.405V52.4546Z" fill="#3C3A3E"/>
<path d="M426.251 53.7203H428.369V59.0001H429.86V53.7203H431.978V52.4546H426.251V53.7203Z" fill="#3C3A3E"/>
<path d="M437.076 59.0001H438.521V52.4546H435.678C434.076 52.4546 433.083 53.2771 433.087 54.5342C433.083 55.3609 433.535 55.9873 434.315 56.3069L432.849 59.0001H434.366L435.708 56.537H437.076V59.0001ZM437.076 55.412H435.627C434.95 55.412 434.575 55.0583 434.579 54.5683C434.575 54.0782 434.971 53.7075 435.678 53.7075H437.076V55.412Z" fill="#3C3A3E"/>
<path d="M445.32 50.0342C445.004 50.2728 444.506 50.2686 443.828 50.2686C443.636 50.2686 443.436 50.2686 443.219 50.2728C440.964 50.3026 439.805 51.8026 439.805 54.8794V55.4674C439.805 57.8623 441.016 59.1279 442.92 59.1279C444.825 59.1279 446.027 57.858 446.027 55.8382C446.027 53.8779 444.885 52.7487 443.261 52.7487C442.264 52.7487 441.51 53.1791 441.101 53.9802H441.028C441.182 52.3481 441.795 51.6109 443.261 51.5768C444.561 51.547 445.29 51.5257 445.856 51.0313L445.32 50.0342ZM442.929 57.8921C441.962 57.8921 441.369 57.1166 441.369 55.8808C441.382 54.662 441.966 53.9632 442.92 53.9632C443.875 53.9632 444.463 54.662 444.463 55.8808C444.463 57.1208 443.879 57.8921 442.929 57.8921Z" fill="#3C3A3E"/>
<path d="M447.339 61.4546H448.882V57.9688H448.946C449.189 58.4461 449.696 59.1151 450.821 59.1151C452.364 59.1151 453.518 57.8921 453.518 55.7359C453.518 53.5541 452.329 52.3694 450.817 52.3694C449.662 52.3694 449.18 53.064 448.946 53.537H448.856V52.4546H447.339V61.4546ZM448.852 55.7274C448.852 54.4575 449.398 53.635 450.391 53.635C451.418 53.635 451.946 54.5086 451.946 55.7274C451.946 56.9546 451.409 57.8495 450.391 57.8495C449.406 57.8495 448.852 56.9972 448.852 55.7274Z" fill="#3C3A3E"/>
<path d="M456.327 54.5853V52.4546H454.839V59.0001H457.814C459.48 59.0001 460.439 58.0796 460.443 56.7927C460.439 55.4717 459.48 54.5853 457.814 54.5853H456.327ZM456.327 55.8509H457.814C458.483 55.8509 458.964 56.2472 458.964 56.814C458.964 57.3552 458.483 57.7345 457.814 57.7345H456.327V55.8509Z" fill="#3C3A3E"/>
<path fill-rule="evenodd" clip-rule="evenodd" d="M441 94C441 92.8954 441.895 92 443 92H515C516.105 92 517 92.8954 517 94C517 95.1046 516.105 96 515 96H443C441.895 96 441 95.1046 441 94ZM441 124C441 122.895 441.895 122 443 122H549C550.105 122 551 122.895 551 124C551 125.105 550.105 126 549 126H443C441.895 126 441 125.105 441 124ZM443 152C441.895 152 441 152.895 441 154C441 155.105 441.895 156 443 156H499C500.105 156 501 155.105 501 154C501 152.895 500.105 152 499 152H443Z" fill="#E6E6E6"/>
<path d="M446.321 78.1816H441.685V83.9998H442.73V79.0566H445.275V83.9998H446.321V78.1816Z" fill="#838383"/>
<path d="M449.44 84.0851C450.718 84.0851 451.53 83.1845 451.53 81.835C451.53 80.4828 450.718 79.5794 449.44 79.5794C448.161 79.5794 447.349 80.4828 447.349 81.835C447.349 83.1845 448.161 84.0851 449.44 84.0851ZM449.445 83.2612C448.738 83.2612 448.391 82.6305 448.391 81.8322C448.391 81.0339 448.738 80.3947 449.445 80.3947C450.141 80.3947 450.488 81.0339 450.488 81.8322C450.488 82.6305 450.141 83.2612 449.445 83.2612Z" fill="#838383"/>
<path d="M451.93 80.4799H453.342V83.9998H454.337V80.4799H455.748V79.6362H451.93V80.4799Z" fill="#838383"/>
<path d="M456.567 85.6362H457.596V83.3123H457.638C457.8 83.6305 458.138 84.0765 458.888 84.0765C459.917 84.0765 460.687 83.2612 460.687 81.8237C460.687 80.3691 459.894 79.5794 458.886 79.5794C458.116 79.5794 457.795 80.0424 457.638 80.3578H457.579V79.6362H456.567V85.6362ZM457.576 81.818C457.576 80.9714 457.94 80.4231 458.601 80.4231C459.286 80.4231 459.638 81.0055 459.638 81.818C459.638 82.6362 459.28 83.2328 458.601 83.2328C457.945 83.2328 457.576 82.6646 457.576 81.818Z" fill="#838383"/>
<path d="M462.823 84.0879C463.508 84.0879 463.917 83.7669 464.104 83.4004H464.138V83.9998H465.127V81.0794C465.127 79.926 464.187 79.5794 463.354 79.5794C462.437 79.5794 461.732 79.9885 461.505 80.7839L462.465 80.9203C462.567 80.622 462.857 80.3663 463.36 80.3663C463.837 80.3663 464.099 80.6106 464.099 81.0396V81.0566C464.099 81.3521 463.789 81.3663 463.019 81.4487C462.172 81.5396 461.363 81.7924 461.363 82.7754C461.363 83.6333 461.991 84.0879 462.823 84.0879ZM463.09 83.3322C462.661 83.3322 462.354 83.1362 462.354 82.7583C462.354 82.3635 462.698 82.1987 463.158 82.1333C463.428 82.0964 463.968 82.0282 464.101 81.9203V82.4345C464.101 82.9203 463.709 83.3322 463.09 83.3322Z" fill="#838383"/>
<path d="M469.806 79.6362H468.817V81.7669C468.567 81.8294 468.32 81.8635 468.05 81.8635C467.442 81.8635 467.144 81.6475 467.144 81.085V79.6305H466.161V81.085C466.161 82.1987 466.886 82.7072 468.05 82.7072C468.306 82.7072 468.573 82.6731 468.817 82.6163V83.9998H469.806V79.6362Z" fill="#838383"/>
<path d="M472.773 84.0851C473.79 84.0851 474.489 83.5879 474.67 82.8294L473.71 82.7214C473.571 83.0907 473.23 83.2839 472.787 83.2839C472.122 83.2839 471.682 82.8464 471.673 82.0993H474.713V81.7839C474.713 80.2527 473.793 79.5794 472.719 79.5794C471.469 79.5794 470.653 80.497 470.653 81.8436C470.653 83.2129 471.457 84.0851 472.773 84.0851ZM471.676 81.4061C471.707 80.8493 472.119 80.3805 472.733 80.3805C473.324 80.3805 473.722 80.8123 473.727 81.4061H471.676Z" fill="#838383"/>
<path d="M476.574 79.6362H475.583V83.9998H476.574V82.2356H478.265V83.9998H479.253V79.6362H478.265V81.3919H476.574V79.6362Z" fill="#838383"/>
<path d="M482.197 84.0851C483.476 84.0851 484.288 83.1845 484.288 81.835C484.288 80.4828 483.476 79.5794 482.197 79.5794C480.919 79.5794 480.106 80.4828 480.106 81.835C480.106 83.1845 480.919 84.0851 482.197 84.0851ZM482.203 83.2612C481.496 83.2612 481.149 82.6305 481.149 81.8322C481.149 81.0339 481.496 80.3947 482.203 80.3947C482.899 80.3947 483.246 81.0339 483.246 81.8322C483.246 82.6305 482.899 83.2612 482.203 83.2612Z" fill="#838383"/>
<path d="M488.137 79.6362H487.146V83.9998H488.137V82.2356H489.827V83.9998H490.816V79.6362H489.827V81.3919H488.137V79.6362Z" fill="#838383"/>
<path d="M493.112 84.0879C493.797 84.0879 494.206 83.7669 494.393 83.4004H494.427V83.9998H495.416V81.0794C495.416 79.926 494.476 79.5794 493.643 79.5794C492.726 79.5794 492.021 79.9885 491.794 80.7839L492.754 80.9203C492.856 80.622 493.146 80.3663 493.649 80.3663C494.126 80.3663 494.388 80.6106 494.388 81.0396V81.0566C494.388 81.3521 494.078 81.3663 493.308 81.4487C492.462 81.5396 491.652 81.7924 491.652 82.7754C491.652 83.6333 492.28 84.0879 493.112 84.0879ZM493.379 83.3322C492.95 83.3322 492.643 83.1362 492.643 82.7583C492.643 82.3635 492.987 82.1987 493.447 82.1333C493.717 82.0964 494.257 82.0282 494.391 81.9203V82.4345C494.391 82.9203 493.998 83.3322 493.379 83.3322Z" fill="#838383"/>
<path d="M498.435 83.9998H499.463V82.3549H499.966L501.162 83.9998H502.406L500.773 81.7782L502.389 79.6362H501.15L499.838 81.3975H499.463V79.6362H498.435V83.9998Z" fill="#838383"/>
<path d="M504.245 84.0879C504.93 84.0879 505.339 83.7669 505.526 83.4004H505.56V83.9998H506.549V81.0794C506.549 79.926 505.609 79.5794 504.776 79.5794C503.859 79.5794 503.154 79.9885 502.927 80.7839L503.887 80.9203C503.989 80.622 504.279 80.3663 504.782 80.3663C505.259 80.3663 505.521 80.6106 505.521 81.0396V81.0566C505.521 81.3521 505.211 81.3663 504.441 81.4487C503.594 81.5396 502.785 81.7924 502.785 82.7754C502.785 83.6333 503.413 84.0879 504.245 84.0879ZM504.512 83.3322C504.083 83.3322 503.776 83.1362 503.776 82.7583C503.776 82.3635 504.12 82.1987 504.58 82.1333C504.85 82.0964 505.39 82.0282 505.523 81.9203V82.4345C505.523 82.9203 505.131 83.3322 504.512 83.3322Z" fill="#838383"/>
<path d="M510.094 82.8038L508.833 79.6362H507.583V83.9998H508.574V81.0595L509.736 83.9998H510.455L511.657 81.0282V83.9998H512.64V79.6362H511.39L510.094 82.8038Z" fill="#838383"/>
<path d="M513.677 83.9998H514.66V80.4799H516.37V83.9998H517.361V79.6362H513.677V83.9998Z" fill="#838383"/>
<path d="M519.675 84.0879C520.359 84.0879 520.768 83.7669 520.956 83.4004H520.99V83.9998H521.979V81.0794C521.979 79.926 521.038 79.5794 520.206 79.5794C519.288 79.5794 518.584 79.9885 518.356 80.7839L519.317 80.9203C519.419 80.622 519.709 80.3663 520.212 80.3663C520.689 80.3663 520.95 80.6106 520.95 81.0396V81.0566C520.95 81.3521 520.641 81.3663 519.871 81.4487C519.024 81.5396 518.214 81.7924 518.214 82.7754C518.214 83.6333 518.842 84.0879 519.675 84.0879ZM519.942 83.3322C519.513 83.3322 519.206 83.1362 519.206 82.7583C519.206 82.3635 519.55 82.1987 520.01 82.1333C520.28 82.0964 520.82 82.0282 520.953 81.9203V82.4345C520.953 82.9203 520.561 83.3322 519.942 83.3322Z" fill="#838383"/>
<path d="M524.004 79.6362H523.013V83.9998H524.004V82.2356H525.695V83.9998H526.683V79.6362H525.695V81.3919H524.004V79.6362Z" fill="#838383"/>
<path d="M528.715 82.6078V79.6362H527.724V83.9998H528.783L530.525 81.0254V83.9998H531.519V79.6362H530.462L528.715 82.6078Z" fill="#838383"/>
<path d="M533.345 79.6362H532.314V83.9998H533.345V82.2697H534.169C534.328 83.3606 535.081 84.0851 536.197 84.0851C537.456 84.0851 538.254 83.1618 538.257 81.8265C538.254 80.4913 537.456 79.5794 536.197 79.5794C535.067 79.5794 534.308 80.3123 534.163 81.4231H533.345V79.6362ZM536.197 83.2328C535.447 83.2328 535.126 82.6191 535.126 81.8265C535.126 81.0339 535.447 80.4231 536.197 80.4231C536.945 80.4231 537.263 81.0396 537.263 81.8265C537.263 82.6163 536.945 83.2328 536.197 83.2328Z" fill="#838383"/>
<path d="M441.196 114H441.48C442.841 114 443.219 113.082 443.301 111.17L443.392 109.048H445.19V114H446.221V108.182H442.409L442.312 110.844C442.25 112.494 442.028 113.079 441.361 113.116L441.196 113.125V114Z" fill="#838383"/>
<path d="M448.317 112.608V109.636H447.325V114H448.385L450.126 111.025V114H451.121V109.636H450.064L448.317 112.608Z" fill="#838383"/>
<path d="M454.688 112.804L453.427 109.636H452.177V114H453.168V111.059L454.33 114H455.049L456.25 111.028V114H457.233V109.636H455.983L454.688 112.804Z" fill="#838383"/>
<path d="M459.262 112.608V109.636H458.27V114H459.33L461.072 111.025V114H462.066V109.636H461.009L459.262 112.608Z" fill="#838383"/>
<path d="M462.633 110.48H464.045V114H465.04V110.48H466.451V109.636H462.633V110.48Z" fill="#838383"/>
<path d="M446.321 138.182H441.685V144H442.73V139.057H445.275V144H446.321V138.182Z" fill="#838383"/>
<path d="M447.536 145.636H448.565V143.312H448.607C448.769 143.631 449.107 144.077 449.857 144.077C450.886 144.077 451.655 143.261 451.655 141.824C451.655 140.369 450.863 139.579 449.854 139.579C449.084 139.579 448.763 140.042 448.607 140.358H448.547V139.636H447.536V145.636ZM448.545 141.818C448.545 140.971 448.908 140.423 449.57 140.423C450.255 140.423 450.607 141.006 450.607 141.818C450.607 142.636 450.249 143.233 449.57 143.233C448.914 143.233 448.545 142.665 448.545 141.818Z" fill="#838383"/>
<path d="M454.468 144.085C455.485 144.085 456.184 143.588 456.366 142.829L455.405 142.721C455.266 143.091 454.925 143.284 454.482 143.284C453.817 143.284 453.377 142.846 453.369 142.099H456.408V141.784C456.408 140.253 455.488 139.579 454.414 139.579C453.164 139.579 452.349 140.497 452.349 141.844C452.349 143.213 453.153 144.085 454.468 144.085ZM453.371 141.406C453.403 140.849 453.815 140.381 454.428 140.381C455.019 140.381 455.417 140.812 455.422 141.406H453.371Z" fill="#838383"/>
<path d="M456.892 145.267H457.903V144H460.758V145.267H461.753V143.153H461.077V139.636H457.923L457.798 141.165C457.716 142.142 457.608 142.866 457.239 143.153H456.892V145.267ZM458.295 143.153C458.571 142.747 458.673 142.088 458.747 141.165L458.815 140.466H460.094V143.153H458.295Z" fill="#838383"/>
<path d="M464.424 144.085C465.521 144.085 466.219 143.434 466.293 142.508H465.31C465.222 142.977 464.884 143.247 464.432 143.247C463.79 143.247 463.376 142.71 463.376 141.818C463.376 140.937 463.799 140.409 464.432 140.409C464.927 140.409 465.231 140.727 465.31 141.148H466.293C466.222 140.202 465.484 139.579 464.418 139.579C463.14 139.579 462.333 140.503 462.333 141.835C462.333 143.156 463.12 144.085 464.424 144.085Z" fill="#838383"/>
<path d="M467.138 144H468.166V142.355H468.669L469.865 144H471.109L469.476 141.778L471.092 139.636H469.854L468.541 141.398H468.166V139.636H467.138V144Z" fill="#838383"/>
<path d="M472.948 144.088C473.633 144.088 474.042 143.767 474.229 143.4H474.263V144H475.252V141.079C475.252 139.926 474.312 139.579 473.479 139.579C472.562 139.579 471.857 139.988 471.63 140.784L472.59 140.92C472.692 140.622 472.982 140.366 473.485 140.366C473.962 140.366 474.224 140.611 474.224 141.04V141.057C474.224 141.352 473.914 141.366 473.144 141.449C472.297 141.54 471.488 141.792 471.488 142.775C471.488 143.633 472.116 144.088 472.948 144.088ZM473.215 143.332C472.786 143.332 472.479 143.136 472.479 142.758C472.479 142.363 472.823 142.199 473.283 142.133C473.553 142.096 474.093 142.028 474.226 141.92V142.434C474.226 142.92 473.834 143.332 473.215 143.332Z" fill="#838383"/>
<path d="M476.045 142.804C476.07 143.613 476.812 144.085 477.82 144.085C478.854 144.085 479.601 143.594 479.601 142.79C479.601 142.202 479.201 141.798 478.684 141.767V141.721C479.184 141.588 479.502 141.275 479.502 140.804C479.502 140.068 478.866 139.579 477.843 139.579C476.888 139.579 476.17 140.074 476.155 140.835H477.17C477.181 140.542 477.482 140.338 477.891 140.338C478.3 140.338 478.547 140.557 478.547 140.881C478.547 141.179 478.32 141.4 477.894 141.4H477.226V142.131H477.894C478.323 142.131 478.604 142.372 478.604 142.724C478.604 143.122 478.255 143.315 477.815 143.315C477.38 143.315 477.084 143.128 477.065 142.804H476.045Z" fill="#838383"/>
<path d="M481.667 144.088C482.351 144.088 482.761 143.767 482.948 143.4H482.982V144H483.971V141.079C483.971 139.926 483.03 139.579 482.198 139.579C481.28 139.579 480.576 139.988 480.349 140.784L481.309 140.92C481.411 140.622 481.701 140.366 482.204 140.366C482.681 140.366 482.942 140.611 482.942 141.04V141.057C482.942 141.352 482.633 141.366 481.863 141.449C481.016 141.54 480.207 141.792 480.207 142.775C480.207 143.633 480.834 144.088 481.667 144.088ZM481.934 143.332C481.505 143.332 481.198 143.136 481.198 142.758C481.198 142.363 481.542 142.199 482.002 142.133C482.272 142.096 482.812 142.028 482.945 141.92V142.434C482.945 142.92 482.553 143.332 481.934 143.332Z" fill="#838383"/>
<path d="M485.996 139.636H485.005V144H485.996V142.236H487.687V144H488.675V139.636H487.687V141.392H485.996V139.636Z" fill="#838383"/>
<path d="M490.707 142.608V139.636H489.716V144H490.775L492.517 141.025V144H493.511V139.636H492.454L490.707 142.608Z" fill="#838383"/>
<path d="M496.499 144.085C497.516 144.085 498.215 143.588 498.397 142.829L497.437 142.721C497.297 143.091 496.957 143.284 496.513 143.284C495.849 143.284 495.408 142.846 495.4 142.099H498.44V141.784C498.44 140.253 497.519 139.579 496.445 139.579C495.195 139.579 494.38 140.497 494.38 141.844C494.38 143.213 495.184 144.085 496.499 144.085ZM495.403 141.406C495.434 140.849 495.846 140.381 496.459 140.381C497.05 140.381 497.448 140.812 497.454 141.406H495.403Z" fill="#838383"/>
<path d="M501.055 140.48H502.467V144H503.462V140.48H504.873V139.636H501.055V140.48Z" fill="#838383"/>
<path d="M505.692 145.636H506.721V143.312H506.763C506.925 143.631 507.263 144.077 508.013 144.077C509.042 144.077 509.812 143.261 509.812 141.824C509.812 140.369 509.019 139.579 508.011 139.579C507.241 139.579 506.92 140.042 506.763 140.358H506.704V139.636H505.692V145.636ZM506.701 141.818C506.701 140.971 507.065 140.423 507.726 140.423C508.411 140.423 508.763 141.006 508.763 141.818C508.763 142.636 508.405 143.233 507.726 143.233C507.07 143.233 506.701 142.665 506.701 141.818Z" fill="#838383"/>
<path d="M511.948 144.088C512.633 144.088 513.042 143.767 513.229 143.4H513.263V144H514.252V141.079C514.252 139.926 513.312 139.579 512.479 139.579C511.562 139.579 510.857 139.988 510.63 140.784L511.59 140.92C511.692 140.622 511.982 140.366 512.485 140.366C512.962 140.366 513.224 140.611 513.224 141.04V141.057C513.224 141.352 512.914 141.366 512.144 141.449C511.298 141.54 510.488 141.792 510.488 142.775C510.488 143.633 511.116 144.088 511.948 144.088ZM512.215 143.332C511.786 143.332 511.479 143.136 511.479 142.758C511.479 142.363 511.823 142.199 512.283 142.133C512.553 142.096 513.093 142.028 513.226 141.92V142.434C513.226 142.92 512.834 143.332 512.215 143.332Z" fill="#838383"/>
<path d="M514.797 140.48H516.209V144H517.204V140.48H518.616V139.636H514.797V140.48Z" fill="#838383"/>
<path d="M334.041 149.119C340.681 155.76 349.335 160.013 358.649 161.214C367.963 162.414 377.413 160.495 385.52 155.756L373.085 134.483C369.68 136.474 365.712 137.28 361.8 136.776C357.888 136.271 354.253 134.485 351.464 131.696L334.041 149.119Z" fill="#AEAEAE" stroke="white"/>
<path d="M385.52 155.756C395.105 150.153 402.115 141.021 405.051 130.314C407.987 119.607 406.614 108.176 401.227 98.4676L379.682 110.423C381.944 114.5 382.521 119.301 381.288 123.798C380.055 128.295 377.11 132.131 373.085 134.484L385.52 155.756Z" fill="#E6E6E6" stroke="white"/>
<path d="M401.227 98.4677C398.278 93.1533 394.223 88.5335 389.336 84.9203C384.45 81.307 378.844 78.7844 372.899 77.5228C366.954 76.2611 360.807 76.2898 354.874 77.6069C348.94 78.924 343.359 81.4988 338.506 85.1576C333.653 88.8163 329.641 93.4737 326.742 98.8153C323.843 104.157 322.124 110.058 321.7 116.121C321.277 122.184 322.16 128.267 324.288 133.96C326.417 139.653 329.743 144.823 334.04 149.12L351.463 131.697C349.658 129.892 348.262 127.721 347.367 125.33C346.473 122.939 346.103 120.384 346.281 117.837C346.458 115.291 347.18 112.812 348.398 110.569C349.616 108.325 351.3 106.369 353.339 104.833C355.377 103.296 357.721 102.215 360.213 101.661C362.705 101.108 365.287 101.096 367.784 101.626C370.281 102.156 372.635 103.215 374.688 104.733C376.74 106.251 378.443 108.191 379.682 110.423L401.227 98.4677Z" fill="#F4774C" stroke="white"/>
<defs>
<filter id="filter0_d_1059_7271" x="11" y="26" width="480" height="304" filterUnits="userSpaceOnUse" color-interpolation-filters="sRGB">
<feFlood flood-opacity="0" result="BackgroundImageFix"/>
<feColorMatrix in="SourceAlpha" type="matrix" values="0 0 0 0 0 0 0 0 0 0 0 0 0 0 0 0 0 0 127 0" result="hardAlpha"/>
<feOffset/>
<feGaussianBlur stdDeviation="12.5"/>
<feComposite in2="hardAlpha" operator="out"/>
<feColorMatrix type="matrix" values="0 0 0 0 0 0 0 0 0 0 0 0 0 0 0 0 0 0 0.15 0"/>
<feBlend mode="normal" in2="BackgroundImageFix" result="effect1_dropShadow_1059_7271"/>
<feBlend mode="normal" in="SourceGraphic" in2="effect1_dropShadow_1059_7271" result="shape"/>
</filter>
<filter id="filter1_d_1059_7271" x="268" y="181" width="339" height="168" filterUnits="userSpaceOnUse" color-interpolation-filters="sRGB">
<feFlood flood-opacity="0" result="BackgroundImageFix"/>
<feColorMatrix in="SourceAlpha" type="matrix" values="0 0 0 0 0 0 0 0 0 0 0 0 0 0 0 0 0 0 127 0" result="hardAlpha"/>
<feOffset/>
<feGaussianBlur stdDeviation="12.5"/>
<feComposite in2="hardAlpha" operator="out"/>
<feColorMatrix type="matrix" values="0 0 0 0 0 0 0 0 0 0 0 0 0 0 0 0 0 0 0.15 0"/>
<feBlend mode="normal" in2="BackgroundImageFix" result="effect1_dropShadow_1059_7271"/>
<feBlend mode="normal" in="SourceGraphic" in2="effect1_dropShadow_1059_7271" result="shape"/>
</filter>
<filter id="filter2_d_1059_7271" x="268" y="6" width="339" height="206" filterUnits="userSpaceOnUse" color-interpolation-filters="sRGB">
<feFlood flood-opacity="0" result="BackgroundImageFix"/>
<feColorMatrix in="SourceAlpha" type="matrix" values="0 0 0 0 0 0 0 0 0 0 0 0 0 0 0 0 0 0 127 0" result="hardAlpha"/>
<feOffset/>
<feGaussianBlur stdDeviation="12.5"/>
<feComposite in2="hardAlpha" operator="out"/>
<feColorMatrix type="matrix" values="0 0 0 0 0 0 0 0 0 0 0 0 0 0 0 0 0 0 0.15 0"/>
<feBlend mode="normal" in2="BackgroundImageFix" result="effect1_dropShadow_1059_7271"/>
<feBlend mode="normal" in="SourceGraphic" in2="effect1_dropShadow_1059_7271" result="shape"/>
</filter>
</defs>
</svg>
