<svg width="134" height="49" viewBox="0 0 134 49" fill="none" xmlns="http://www.w3.org/2000/svg">
<path d="M128.871 7.75549C126.344 11.7491 123.904 15.5712 121.48 19.3996C120.993 20.1608 120.65 20.6984 120.197 21.7531C119.852 22.5329 119.156 24.2021 120.067 24.3938C120.837 24.4734 121.394 24.4315 122.369 23.1899C124.869 19.9711 126.872 16.4064 128.879 12.8805C130.649 9.76577 131.951 7.36373 133.355 4.51572C134.01 3.18557 133.55 2.36842 132.229 2.03378C131.043 1.73388 129.831 1.40507 128.61 1.3345C124.211 1.05597 119.821 0.893566 115.412 0.686088C114.865 0.656908 114.439 0.601212 113.783 0.659782C112.988 0.738499 112.405 0.751481 112.324 1.52328C112.239 2.25636 113.219 2.60584 113.748 2.68354C118.149 3.43003 127.254 4.81803 127.721 5.00258C125.531 6.58668 123.536 8.09866 121.455 9.5014C106.911 19.201 84.808 31.2819 45.5874 40.1275C32.1733 43.9922 18.3586 45.7848 4.4 45.883C3.5757 45.8941 2.74199 45.9763 1.94053 46.0712C0.852542 46.1838 0.306011 46.4354 0.324095 47.0033C0.501689 48.0641 1.2588 48.176 1.85501 48.3179C3.04104 48.6178 4.30669 48.6687 5.53373 48.7231C21.9548 49.2791 67.0059 38.2886 82.4856 33.0149C98.3738 27.6033 112.632 19.627 125.976 9.65983C126.66 9.10732 128.479 7.8997 128.871 7.75549Z" fill="#F4774C"/>
</svg>
