<svg width="629" height="355" viewBox="0 0 629 355" fill="none" xmlns="http://www.w3.org/2000/svg">
<g filter="url(#filter0_d_1059_6508)">
<rect x="36" y="51" width="430" height="254" rx="12" fill="white"/>
</g>
<path d="M36 55C36 52.7909 37.7909 51 40 51H462C464.209 51 466 52.7909 466 55V85H36V55Z" fill="#3C3A3E"/>
<path d="M36 85H142V305H40C37.7909 305 36 303.209 36 301V85Z" fill="#EDEDED"/>
<path fill-rule="evenodd" clip-rule="evenodd" d="M142 167.5V245V245.5V281V281.5L142 287H140V281.5L36 281.5V281L140 281V245.5L36 245.5V245L140 245L140 167.5L36 167.5V167L140 167V85H142V167V167.5ZM46 107C46 105.895 46.8954 105 48 105H124C125.105 105 126 105.895 126 107C126 108.105 125.105 109 124 109H48C46.8954 109 46 108.105 46 107ZM48 183C46.8954 183 46 183.895 46 185C46 186.105 46.8954 187 48 187H124C125.105 187 126 186.105 126 185C126 183.895 125.105 183 124 183H48ZM46 121C46 119.895 46.8954 119 48 119H104C105.105 119 106 119.895 106 121C106 122.105 105.105 123 104 123H48C46.8954 123 46 122.105 46 121ZM48 197C46.8954 197 46 197.895 46 199C46 200.105 46.8954 201 48 201H104C105.105 201 106 200.105 106 199C106 197.895 105.105 197 104 197H48ZM46 135C46 133.895 46.8954 133 48 133H113C114.105 133 115 133.895 115 135C115 136.105 114.105 137 113 137H48C46.8954 137 46 136.105 46 135ZM48 211C46.8954 211 46 211.895 46 213C46 214.105 46.8954 215 48 215H113C114.105 215 115 214.105 115 213C115 211.895 114.105 211 113 211H48ZM46 149C46 147.895 46.8954 147 48 147H91C92.1046 147 93 147.895 93 149C93 150.105 92.1046 151 91 151H48C46.8954 151 46 150.105 46 149ZM48 225C46.8954 225 46 225.895 46 227C46 228.105 46.8954 229 48 229H91C92.1046 229 93 228.105 93 227C93 225.895 92.1046 225 91 225H48ZM46 263C46 261.895 46.8954 261 48 261H104C105.105 261 106 261.895 106 263C106 264.105 105.105 265 104 265H48C46.8954 265 46 264.105 46 263Z" fill="#CBCBCB"/>
<path d="M179.982 105.273H173.027V114H174.596V106.585H178.414V114H179.982V105.273Z" fill="#3C3A3E"/>
<path d="M181.805 116.455H183.347V112.969H183.411C183.654 113.446 184.161 114.115 185.286 114.115C186.829 114.115 187.984 112.892 187.984 110.736C187.984 108.554 186.795 107.369 185.282 107.369C184.127 107.369 183.646 108.064 183.411 108.537H183.322V107.455H181.805V116.455ZM183.317 110.727C183.317 109.457 183.863 108.635 184.856 108.635C185.883 108.635 186.411 109.509 186.411 110.727C186.411 111.955 185.874 112.849 184.856 112.849C183.871 112.849 183.317 111.997 183.317 110.727Z" fill="#3C3A3E"/>
<path d="M192.16 114.128C194.077 114.128 195.296 112.777 195.296 110.753C195.296 108.724 194.077 107.369 192.16 107.369C190.242 107.369 189.023 108.724 189.023 110.753C189.023 112.777 190.242 114.128 192.16 114.128ZM192.168 112.892C191.107 112.892 190.587 111.946 190.587 110.749C190.587 109.551 191.107 108.592 192.168 108.592C193.212 108.592 193.732 109.551 193.732 110.749C193.732 111.946 193.212 112.892 192.168 112.892Z" fill="#3C3A3E"/>
<path d="M199.576 116.224H201.123V114.128C203.049 114.128 204.374 112.764 204.374 110.753C204.374 108.737 203.049 107.369 201.123 107.369V105.273H199.576V107.369C197.65 107.369 196.324 108.737 196.324 110.753C196.324 112.764 197.65 114.128 199.576 114.128V116.224ZM199.576 112.884C198.485 112.884 197.901 111.92 197.901 110.753C197.901 109.585 198.476 108.614 199.576 108.614V112.884ZM201.123 112.884V108.614C202.222 108.614 202.793 109.585 202.793 110.753C202.793 111.92 202.222 112.884 201.123 112.884Z" fill="#3C3A3E"/>
<path d="M207.163 111.912V107.455H205.676V114H207.265L209.877 109.538V114H211.369V107.455H209.784L207.163 111.912Z" fill="#3C3A3E"/>
<path d="M212.501 114H212.979C214.385 114 215.02 113.011 215.122 110.83L215.224 108.72H217.104V114H218.595V107.455H213.822L213.707 110.352C213.635 112.189 213.396 112.73 212.719 112.73H212.493L212.501 114Z" fill="#3C3A3E"/>
<path d="M221.636 109.585V107.455H220.148V114H223.123C224.789 114 225.748 113.08 225.752 111.793C225.748 110.472 224.789 109.585 223.123 109.585H221.636ZM221.636 110.851H223.123C223.792 110.851 224.273 111.247 224.273 111.814C224.273 112.355 223.792 112.734 223.123 112.734H221.636V110.851Z" fill="#3C3A3E"/>
<rect x="172" y="143" width="181" height="73" rx="4" fill="#F3F3F3"/>
<path fill-rule="evenodd" clip-rule="evenodd" d="M184 157C182.895 157 182 157.895 182 159C182 160.105 182.895 161 184 161H207C208.105 161 209 160.105 209 159C209 157.895 208.105 157 207 157H184ZM353 196H172V212C172 214.209 173.791 216 176 216H349C351.209 216 353 214.209 353 212V196ZM219 159C219 157.895 219.895 157 221 157H260C261.105 157 262 157.895 262 159C262 160.105 261.105 161 260 161H221C219.895 161 219 160.105 219 159ZM184 168C182.895 168 182 168.895 182 170C182 171.105 182.895 172 184 172H236C237.105 172 238 171.105 238 170C238 168.895 237.105 168 236 168H184ZM182 181C182 179.895 182.895 179 184 179H285C286.105 179 287 179.895 287 181C287 182.105 286.105 183 285 183H184C182.895 183 182 182.105 182 181ZM250 168C248.895 168 248 168.895 248 170C248 171.105 248.895 172 250 172H305C306.105 172 307 171.105 307 170C307 168.895 306.105 168 305 168H250Z" fill="#CBCBCB"/>
<line x1="172" y1="123.5" x2="436" y2="123.5" stroke="#E6E6E6"/>
<path fill-rule="evenodd" clip-rule="evenodd" d="M61.2968 70.7082C61.2968 73.1945 59.8548 74.4391 56.9709 74.4418H51C51 72.0479 54.6847 72.0584 56.2746 72.0629C56.3396 72.0631 56.4012 72.0633 56.4588 72.0633C57.6511 72.0633 58.246 71.5239 58.2435 70.4452C58.2435 69.3612 57.6499 68.8272 56.4588 68.8272H53.0912V66.473H56.4316C57.6227 66.473 58.2124 65.9512 58.2124 64.9156C58.2124 63.8801 57.6149 63.3785 56.4316 63.3785C56.2422 63.3785 56.0276 63.3841 55.7957 63.3902L55.7956 63.3902C53.9467 63.4387 51 63.516 51 61H56.4976C58.0805 61 59.1836 61.2036 59.807 61.6108C60.2754 61.9132 60.6574 62.341 60.9133 62.8497C61.1692 63.3584 61.2896 63.9293 61.2619 64.503C61.2859 65.1828 61.1139 65.8545 60.7681 66.4314C60.4223 67.0082 59.9186 67.4637 59.322 67.7391C60.6334 68.3216 61.2877 69.3194 61.2852 70.7324L61.2968 70.7082ZM100.342 64.6608C101.478 64.8693 102.502 65.5032 103.222 66.4433C103.941 67.3835 104.306 68.5651 104.249 69.7662C104.192 70.9674 103.716 72.1054 102.91 72.9664C102.105 73.8274 101.026 74.3522 99.8756 74.4421C98.7253 74.5321 97.5832 74.181 96.6637 73.4549C95.7442 72.7287 95.1107 71.6775 94.8821 70.4987C94.6536 69.3199 94.8458 68.0947 95.4226 67.0532C95.9994 66.0117 96.9211 65.2257 98.0146 64.8428C98.7639 64.5809 99.5641 64.5184 100.342 64.6608ZM72.1058 71.6951C72.1058 73.5397 70.9108 74.4606 68.5209 74.4579H62.7323V64.6122H68.164C69.452 64.6122 70.356 64.77 70.8798 65.0774C71.2624 65.2841 71.5808 65.6 71.7979 65.9881C72.0149 66.3763 72.1217 66.8208 72.1058 67.2698C72.1126 67.7333 71.992 68.1891 71.7583 68.5833C71.5245 68.9776 71.1873 69.2938 70.7867 69.4946C71.1965 69.6737 71.5438 69.9795 71.7818 70.3708C72.0197 70.7621 72.1369 71.2201 72.1174 71.683L72.1058 71.6951ZM69.4365 67.5611C69.4365 66.9422 69.0214 66.6307 68.1872 66.6307H65.227V68.5198H68.1872C69.0214 68.5198 69.4365 68.2002 69.4365 67.5611ZM69.4365 71.4808C69.4365 70.8376 69.0253 70.518 68.2028 70.518H65.227V72.4435H68.2222C69.0447 72.4435 69.4559 72.1199 69.4559 71.4808H69.4365ZM93.6771 74.4579H91.194V70.5544H87.6092V74.4579H85.1184V64.6122H87.6092V68.3863H91.194V64.6122H93.6771V74.4579ZM114.992 74.4579H111.64L107.823 69.6807V74.4579H105.332V64.6122H107.823V69.3409L111.838 64.6122H115.016L110.628 69.4299L115.016 74.4579H114.992ZM100.211 66.9179C99.8702 66.8061 99.5115 66.7686 99.1568 66.8076C98.802 66.8466 98.4587 66.9614 98.1483 67.1447C97.8378 67.3281 97.5669 67.576 97.3524 67.8733C97.1379 68.1705 96.9844 68.5105 96.9014 68.8723C96.8184 69.2341 96.8077 69.6098 96.8699 69.976C96.9322 70.3423 97.0662 70.6912 97.2634 71.0012C97.4606 71.3111 97.7169 71.5754 98.0164 71.7776C98.3158 71.9798 98.652 72.1156 99.0039 72.1765C99.3891 72.2571 99.7867 72.2475 100.168 72.1482C100.724 72.0019 101.217 71.6682 101.572 71.199C101.927 70.7299 102.124 70.1515 102.131 69.5539C102.138 68.9563 101.955 68.373 101.612 67.8949C101.268 67.4167 100.782 67.0704 100.23 66.9098L100.211 66.9179ZM79.7566 66.7682C80.3459 67.0674 80.8206 67.566 81.1031 68.1827C81.3856 68.7994 81.4593 69.4978 81.312 70.1637C81.1648 70.8297 80.8054 71.4239 80.2925 71.8495C79.7795 72.275 79.1434 72.5067 78.4879 72.5067C77.8324 72.5067 77.1963 72.275 76.6834 71.8495C76.1705 71.4239 75.8111 70.8297 75.6638 70.1637C75.5166 69.4978 75.5902 68.7994 75.8727 68.1827C76.1552 67.566 76.6299 67.0674 77.2192 66.7682V64.1349C75.9652 64.458 74.8679 65.2486 74.1345 66.3574C73.4012 67.4662 73.0825 68.8166 73.2386 70.1536C73.3947 71.4906 74.0148 72.7217 74.9819 73.6147C75.949 74.5077 77.1961 75.0007 78.4879 75.0007C79.7797 75.0007 81.0269 74.5077 81.994 73.6147C82.961 72.7217 83.5811 71.4906 83.7372 70.1536C83.8933 68.8166 83.5746 67.4662 82.8413 66.3574C82.108 65.2486 81.0107 64.458 79.7566 64.1349V66.7682ZM77.6042 70.9019C77.9735 71.1544 78.4236 71.2447 78.8564 71.1532C79.1835 71.0895 79.4849 70.9258 79.7224 70.683C79.9599 70.4401 80.1227 70.1291 80.1901 69.7894C80.2575 69.4498 80.2265 69.0969 80.1009 68.7757C79.9753 68.4545 79.7609 68.1796 79.485 67.9859C79.3176 67.8677 79.1309 67.7827 78.934 67.7351V63.9651H78.1581V67.7351C77.727 67.8354 77.3514 68.1091 77.1128 68.4966C76.8742 68.8842 76.792 69.3542 76.884 69.8046C76.976 70.255 77.2348 70.6494 77.6042 70.9019Z" fill="white"/>
<g filter="url(#filter1_d_1059_6508)">
<rect x="310" y="203" width="273" height="108" rx="9" fill="white"/>
</g>
<path d="M333.856 222.273V231H335.263L339.375 225.055H339.447V231H341.028V222.273H339.614L335.506 228.222H335.429V222.273H333.856Z" fill="#3C3A3E"/>
<path d="M345.542 231.128C347.187 231.128 348.235 230.152 348.346 228.763H346.872C346.74 229.466 346.233 229.871 345.555 229.871C344.592 229.871 343.97 229.065 343.97 227.727C343.97 226.406 344.605 225.614 345.555 225.614C346.296 225.614 346.752 226.091 346.872 226.722H348.346C348.24 225.303 347.132 224.369 345.534 224.369C343.616 224.369 342.406 225.754 342.406 227.753C342.406 229.734 343.586 231.128 345.542 231.128Z" fill="#3C3A3E"/>
<path d="M349.149 225.72H351.267V231H352.759V225.72H354.877V224.455H349.149V225.72Z" fill="#3C3A3E"/>
<path d="M358.691 231.128C360.608 231.128 361.827 229.777 361.827 227.753C361.827 225.724 360.608 224.369 358.691 224.369C356.773 224.369 355.554 225.724 355.554 227.753C355.554 229.777 356.773 231.128 358.691 231.128ZM358.699 229.892C357.638 229.892 357.118 228.946 357.118 227.749C357.118 226.551 357.638 225.592 358.699 225.592C359.743 225.592 360.263 226.551 360.263 227.749C360.263 228.946 359.743 229.892 358.699 229.892Z" fill="#3C3A3E"/>
<path d="M363.136 233.455H364.679V229.969H364.743C364.986 230.446 365.493 231.115 366.618 231.115C368.16 231.115 369.315 229.892 369.315 227.736C369.315 225.554 368.126 224.369 366.614 224.369C365.459 224.369 364.977 225.064 364.743 225.537H364.653V224.455H363.136V233.455ZM364.649 227.727C364.649 226.457 365.195 225.635 366.187 225.635C367.214 225.635 367.743 226.509 367.743 227.727C367.743 228.955 367.206 229.849 366.187 229.849C365.203 229.849 364.649 228.997 364.649 227.727Z" fill="#3C3A3E"/>
<path d="M372.123 228.912V224.455H370.636V231H372.226L374.838 226.538V231H376.329V224.455H374.744L372.123 228.912Z" fill="#3C3A3E"/>
<path d="M381.783 231H383.228V224.455H380.385C378.783 224.455 377.79 225.277 377.794 226.534C377.79 227.361 378.242 227.987 379.022 228.307L377.556 231H379.073L380.415 228.537H381.783V231ZM381.783 227.412H380.334C379.657 227.412 379.282 227.058 379.286 226.568C379.282 226.078 379.678 225.707 380.385 225.707H381.783V227.412Z" fill="#3C3A3E"/>
<path d="M333.517 254H337.506V253.119H334.972V253.08L335.975 252.06C337.106 250.974 337.418 250.446 337.418 249.79C337.418 248.815 336.625 248.102 335.455 248.102C334.302 248.102 333.483 248.818 333.483 249.923H334.486C334.486 249.33 334.861 248.957 335.441 248.957C335.995 248.957 336.407 249.295 336.407 249.844C336.407 250.33 336.111 250.676 335.537 251.259L333.517 253.239V254Z" fill="#858585"/>
<path d="M340.853 248.182H339.85L338.404 249.111V250.077L339.765 249.207H339.799V254H340.853V248.182Z" fill="#858585"/>
<path d="M345.118 254L345.598 252.565H347.786L348.269 254H349.394L347.343 248.182H346.042L343.993 254H345.118ZM345.883 251.719L346.669 249.375H346.715L347.502 251.719H345.883Z" fill="#858585"/>
<path d="M350.115 254H352.228C353.251 254 353.836 253.537 353.836 252.815C353.836 252.205 353.362 251.778 352.677 251.719C353.26 251.611 353.623 251.301 353.623 250.81C353.623 250.074 352.978 249.636 351.947 249.636H350.115V254ZM351.078 253.19V252.108H352.228C352.606 252.108 352.836 252.327 352.836 252.688C352.836 253 352.606 253.19 352.228 253.19H351.078ZM351.078 251.443V250.46H351.947C352.376 250.46 352.638 250.642 352.638 250.94C352.638 251.253 352.385 251.443 351.967 251.443H351.078Z" fill="#858585"/>
<path d="M357.571 249.636H354.685V254H355.691V250.48H357.571V249.636Z" fill="#858585"/>
<path d="M359.035 255.636C359.836 255.636 360.299 255.224 360.547 254.528L362.299 249.642L361.2 249.636L360.191 252.932H360.146L359.14 249.636H358.049L359.632 254.091L359.544 254.327C359.353 254.824 359.052 254.858 358.603 254.727L358.365 255.528C358.504 255.585 358.754 255.636 359.035 255.636Z" fill="#858585"/>
<path d="M364.768 254.085C365.865 254.085 366.564 253.435 366.638 252.509H365.655C365.566 252.977 365.228 253.247 364.777 253.247C364.135 253.247 363.72 252.71 363.72 251.818C363.72 250.938 364.143 250.409 364.777 250.409C365.271 250.409 365.575 250.727 365.655 251.148H366.638C366.566 250.202 365.828 249.58 364.763 249.58C363.484 249.58 362.677 250.503 362.677 251.835C362.677 253.156 363.464 254.085 364.768 254.085Z" fill="#858585"/>
<path d="M367.173 250.48H368.585V254H369.579V250.48H370.991V249.636H367.173V250.48Z" fill="#858585"/>
<path d="M372.886 254.088C373.571 254.088 373.98 253.767 374.167 253.401H374.201V254H375.19V251.08C375.19 249.926 374.25 249.58 373.417 249.58C372.5 249.58 371.795 249.989 371.568 250.784L372.528 250.92C372.63 250.622 372.92 250.366 373.423 250.366C373.9 250.366 374.162 250.611 374.162 251.04V251.057C374.162 251.352 373.852 251.366 373.082 251.449C372.236 251.54 371.426 251.793 371.426 252.776C371.426 253.634 372.054 254.088 372.886 254.088ZM373.153 253.332C372.724 253.332 372.417 253.136 372.417 252.759C372.417 252.364 372.761 252.199 373.221 252.134C373.491 252.097 374.031 252.028 374.165 251.92V252.435C374.165 252.92 373.772 253.332 373.153 253.332Z" fill="#858585"/>
<path d="M378.197 254H382.186V253.119H379.652V253.08L380.655 252.06C381.785 250.974 382.098 250.446 382.098 249.79C382.098 248.815 381.305 248.102 380.135 248.102C378.981 248.102 378.163 248.818 378.163 249.923H379.166C379.166 249.33 379.541 248.957 380.12 248.957C380.674 248.957 381.086 249.295 381.086 249.844C381.086 250.33 380.791 250.676 380.217 251.259L378.197 253.239V254Z" fill="#858585"/>
<path d="M385.316 254.111C386.72 254.114 387.558 253.006 387.558 251.097C387.558 249.199 386.714 248.102 385.316 248.102C383.919 248.102 383.078 249.196 383.075 251.097C383.075 253.003 383.913 254.111 385.316 254.111ZM385.316 253.222C384.592 253.222 384.138 252.494 384.14 251.097C384.143 249.71 384.595 248.98 385.316 248.98C386.041 248.98 386.493 249.71 386.495 251.097C386.495 252.494 386.044 253.222 385.316 253.222Z" fill="#858585"/>
<path d="M388.502 254H392.491V253.119H389.956V253.08L390.959 252.06C392.09 250.974 392.402 250.446 392.402 249.79C392.402 248.815 391.61 248.102 390.439 248.102C389.286 248.102 388.468 248.818 388.468 249.923H389.471C389.471 249.33 389.846 248.957 390.425 248.957C390.979 248.957 391.391 249.295 391.391 249.844C391.391 250.33 391.096 250.676 390.522 251.259L388.502 253.239V254Z" fill="#858585"/>
<path d="M395.837 248.182H394.834L393.388 249.111V250.077L394.749 249.207H394.783V254H395.837V248.182Z" fill="#858585"/>
<path d="M398.213 253.205H397.304L397.284 253.523C397.236 254.293 397.034 255.077 396.951 255.42H397.645C397.781 255.063 398.096 254.233 398.176 253.517L398.213 253.205Z" fill="#858585"/>
<path d="M403.525 248.182H402.522L401.076 249.111V250.077L402.437 249.207H402.471V254H403.525V248.182Z" fill="#858585"/>
<path d="M407.09 254.08C408.334 254.08 409.241 253.366 409.238 252.384C409.241 251.656 408.786 251.134 407.971 251.017V250.972C408.601 250.835 409.025 250.366 409.022 249.713C409.025 248.827 408.269 248.102 407.107 248.102C405.976 248.102 405.101 248.776 405.079 249.75H406.093C406.11 249.261 406.564 248.957 407.101 248.957C407.644 248.957 408.005 249.287 408.002 249.776C408.005 250.284 407.584 250.622 406.982 250.622H406.468V251.435H406.982C407.718 251.435 408.155 251.804 408.152 252.33C408.155 252.844 407.709 253.196 407.087 253.196C406.502 253.196 406.05 252.892 406.025 252.418H404.956C404.985 253.401 405.863 254.08 407.09 254.08Z" fill="#858585"/>
<path d="M410.858 253.301C411.193 253.301 411.48 253.023 411.483 252.676C411.48 252.335 411.193 252.057 410.858 252.057C410.511 252.057 410.23 252.335 410.233 252.676C410.23 253.023 410.511 253.301 410.858 253.301ZM410.858 250.415C411.193 250.415 411.48 250.136 411.483 249.79C411.48 249.449 411.193 249.17 410.858 249.17C410.511 249.17 410.23 249.449 410.233 249.79C410.23 250.136 410.511 250.415 410.858 250.415Z" fill="#858585"/>
<path d="M412.428 252.92H415.204V254H416.209V252.92H416.954V252.054H416.209V248.182H414.897L412.428 252.082V252.92ZM415.215 252.054H413.508V252.009L415.169 249.375H415.215V252.054Z" fill="#858585"/>
<path d="M420.012 254.111C421.415 254.114 422.253 253.006 422.253 251.097C422.253 249.199 421.41 248.102 420.012 248.102C418.614 248.102 417.773 249.196 417.77 251.097C417.77 253.003 418.608 254.111 420.012 254.111ZM420.012 253.222C419.287 253.222 418.833 252.494 418.836 251.097C418.839 249.71 419.29 248.98 420.012 248.98C420.736 248.98 421.188 249.71 421.191 251.097C421.191 252.494 420.739 253.222 420.012 253.222Z" fill="#858585"/>
<path d="M335.883 266.182H334.881L333.435 267.111V268.077L334.795 267.207H334.829V272H335.883V266.182Z" fill="#858585"/>
<path d="M337.574 272H338.668L341.139 267.082V266.182H337.176V267.063H340.048V267.102L337.574 272Z" fill="#858585"/>
<path d="M344.844 272L345.324 270.565H347.512L347.995 272H349.12L347.069 266.182H345.768L343.719 272H344.844ZM345.609 269.719L346.396 267.375H346.441L347.228 269.719H345.609Z" fill="#858585"/>
<path d="M349.841 272H351.954C352.977 272 353.562 271.537 353.562 270.815C353.562 270.205 353.088 269.778 352.403 269.719C352.986 269.611 353.349 269.301 353.349 268.81C353.349 268.074 352.704 267.636 351.673 267.636H349.841V272ZM350.804 271.19V270.108H351.954C352.332 270.108 352.562 270.327 352.562 270.688C352.562 271 352.332 271.19 351.954 271.19H350.804ZM350.804 269.443V268.46H351.673C352.102 268.46 352.364 268.642 352.364 268.94C352.364 269.253 352.111 269.443 351.693 269.443H350.804Z" fill="#858585"/>
<path d="M357.297 267.636H354.411V272H355.417V268.48H357.297V267.636Z" fill="#858585"/>
<path d="M358.761 273.636C359.562 273.636 360.025 273.225 360.273 272.528L362.025 267.642L360.926 267.636L359.918 270.932H359.872L358.866 267.636H357.775L359.358 272.091L359.27 272.327C359.079 272.824 358.778 272.858 358.329 272.727L358.091 273.528C358.23 273.585 358.48 273.636 358.761 273.636Z" fill="#858585"/>
<path d="M364.494 272.085C365.591 272.085 366.29 271.435 366.364 270.509H365.381C365.293 270.977 364.954 271.247 364.503 271.247C363.861 271.247 363.446 270.71 363.446 269.818C363.446 268.938 363.869 268.409 364.503 268.409C364.997 268.409 365.301 268.727 365.381 269.148H366.364C366.293 268.202 365.554 267.58 364.489 267.58C363.21 267.58 362.403 268.503 362.403 269.835C362.403 271.156 363.19 272.085 364.494 272.085Z" fill="#858585"/>
<path d="M366.899 268.48H368.311V272H369.305V268.48H370.717V267.636H366.899V268.48Z" fill="#858585"/>
<path d="M372.612 272.088C373.297 272.088 373.706 271.767 373.893 271.401H373.927V272H374.916V269.08C374.916 267.926 373.976 267.58 373.143 267.58C372.226 267.58 371.521 267.989 371.294 268.784L372.254 268.921C372.356 268.622 372.646 268.367 373.149 268.367C373.626 268.367 373.888 268.611 373.888 269.04V269.057C373.888 269.352 373.578 269.367 372.808 269.449C371.962 269.54 371.152 269.793 371.152 270.776C371.152 271.634 371.78 272.088 372.612 272.088ZM372.879 271.332C372.45 271.332 372.143 271.136 372.143 270.759C372.143 270.364 372.487 270.199 372.947 270.134C373.217 270.097 373.757 270.028 373.891 269.921V270.435C373.891 270.921 373.498 271.332 372.879 271.332Z" fill="#858585"/>
<path d="M377.923 272H381.912V271.119H379.378V271.08L380.381 270.06C381.511 268.975 381.824 268.446 381.824 267.79C381.824 266.815 381.031 266.102 379.861 266.102C378.707 266.102 377.889 266.818 377.889 267.923H378.892C378.892 267.33 379.267 266.957 379.847 266.957C380.4 266.957 380.812 267.296 380.812 267.844C380.812 268.33 380.517 268.676 379.943 269.259L377.923 271.239V272Z" fill="#858585"/>
<path d="M385.043 272.111C386.446 272.114 387.284 271.006 387.284 269.097C387.284 267.199 386.44 266.102 385.043 266.102C383.645 266.102 382.804 267.196 382.801 269.097C382.801 271.003 383.639 272.111 385.043 272.111ZM385.043 271.222C384.318 271.222 383.864 270.494 383.866 269.097C383.869 267.71 384.321 266.98 385.043 266.98C385.767 266.98 386.219 267.71 386.222 269.097C386.222 270.494 385.77 271.222 385.043 271.222Z" fill="#858585"/>
<path d="M388.228 272H392.217V271.119H389.682V271.08L390.685 270.06C391.816 268.975 392.128 268.446 392.128 267.79C392.128 266.815 391.336 266.102 390.165 266.102C389.012 266.102 388.194 266.818 388.194 267.923H389.197C389.197 267.33 389.572 266.957 390.151 266.957C390.705 266.957 391.117 267.296 391.117 267.844C391.117 268.33 390.822 268.676 390.248 269.259L388.228 271.239V272Z" fill="#858585"/>
<path d="M395.563 266.182H394.56L393.114 267.111V268.077L394.475 267.207H394.509V272H395.563V266.182Z" fill="#858585"/>
<path d="M397.939 271.205H397.03L397.01 271.523C396.962 272.293 396.76 273.077 396.677 273.421H397.371C397.507 273.063 397.822 272.233 397.902 271.517L397.939 271.205Z" fill="#858585"/>
<path d="M402.904 266.102C401.643 266.094 400.805 266.96 400.805 268.097C400.807 269.193 401.589 269.986 402.609 269.986C403.236 269.986 403.782 269.682 404.063 269.182H404.103C404.1 270.426 403.648 271.168 402.844 271.168C402.342 271.168 402.003 270.878 401.898 270.415H400.861C400.981 271.378 401.742 272.08 402.844 272.08C404.239 272.08 405.128 270.915 405.126 268.912C405.123 266.793 404.021 266.108 402.904 266.102ZM402.907 266.955C403.529 266.955 403.986 267.472 403.986 268.065C403.989 268.668 403.509 269.185 402.896 269.185C402.276 269.185 401.83 268.696 401.827 268.074C401.827 267.449 402.29 266.955 402.907 266.955Z" fill="#858585"/>
<path d="M406.717 271.301C407.052 271.301 407.339 271.023 407.342 270.676C407.339 270.335 407.052 270.057 406.717 270.057C406.37 270.057 406.089 270.335 406.092 270.676C406.089 271.023 406.37 271.301 406.717 271.301ZM406.717 268.415C407.052 268.415 407.339 268.136 407.342 267.79C407.339 267.449 407.052 267.171 406.717 267.171C406.37 267.171 406.089 267.449 406.092 267.79C406.089 268.136 406.37 268.415 406.717 268.415Z" fill="#858585"/>
<path d="M408.392 272H412.381V271.119H409.847V271.08L410.849 270.06C411.98 268.975 412.293 268.446 412.293 267.79C412.293 266.815 411.5 266.102 410.329 266.102C409.176 266.102 408.358 266.818 408.358 267.923H409.361C409.361 267.33 409.736 266.957 410.315 266.957C410.869 266.957 411.281 267.296 411.281 267.844C411.281 268.33 410.986 268.676 410.412 269.259L408.392 271.239V272Z" fill="#858585"/>
<path d="M415.429 272.08C416.687 272.08 417.588 271.386 417.591 270.44C417.588 269.713 417.051 269.105 416.375 268.992V268.952C416.963 268.821 417.372 268.293 417.375 267.662C417.372 266.767 416.548 266.102 415.429 266.102C414.301 266.102 413.477 266.764 413.48 267.662C413.477 268.293 413.881 268.821 414.48 268.952V268.992C413.793 269.105 413.261 269.713 413.264 270.44C413.261 271.386 414.159 272.08 415.429 272.08ZM415.429 271.267C414.77 271.267 414.344 270.903 414.349 270.367C414.344 269.81 414.801 269.415 415.429 269.415C416.048 269.415 416.503 269.813 416.508 270.367C416.503 270.903 416.079 271.267 415.429 271.267ZM415.429 268.617C414.889 268.617 414.503 268.267 414.508 267.761C414.503 267.261 414.878 266.926 415.429 266.926C415.971 266.926 416.344 267.261 416.349 267.761C416.344 268.27 415.96 268.617 415.429 268.617Z" fill="#858585"/>
<path d="M335.883 284.182H334.881L333.435 285.111V286.077L334.795 285.207H334.829V290H335.883V284.182Z" fill="#858585"/>
<path d="M337.256 288.92H340.031V290H341.037V288.92H341.781V288.054H341.037V284.182H339.724L337.256 288.082V288.92ZM340.043 288.054H338.335V288.009L339.997 285.375H340.043V288.054Z" fill="#858585"/>
<path d="M345.477 290L345.957 288.565H348.145L348.628 290H349.753L347.702 284.182H346.4L344.352 290H345.477ZM346.241 287.719L347.028 285.375H347.074L347.861 287.719H346.241Z" fill="#858585"/>
<path d="M350.474 290H352.587C353.61 290 354.195 289.537 354.195 288.815C354.195 288.205 353.721 287.778 353.036 287.719C353.619 287.611 353.982 287.301 353.982 286.81C353.982 286.074 353.337 285.636 352.306 285.636H350.474V290ZM351.437 289.19V288.108H352.587C352.965 288.108 353.195 288.327 353.195 288.688C353.195 289 352.965 289.19 352.587 289.19H351.437ZM351.437 287.443V286.46H352.306C352.735 286.46 352.996 286.642 352.996 286.94C352.996 287.253 352.744 287.443 352.326 287.443H351.437Z" fill="#858585"/>
<path d="M357.93 285.636H355.044V290H356.05V286.48H357.93V285.636Z" fill="#858585"/>
<path d="M359.394 291.636C360.195 291.636 360.658 291.224 360.905 290.528L362.658 285.642L361.559 285.636L360.55 288.932H360.505L359.499 285.636H358.408L359.991 290.091L359.903 290.327C359.712 290.824 359.411 290.858 358.962 290.727L358.724 291.528C358.863 291.585 359.113 291.636 359.394 291.636Z" fill="#858585"/>
<path d="M365.127 290.085C366.224 290.085 366.922 289.435 366.996 288.509H366.013C365.925 288.977 365.587 289.247 365.136 289.247C364.494 289.247 364.079 288.71 364.079 287.818C364.079 286.938 364.502 286.409 365.136 286.409C365.63 286.409 365.934 286.727 366.013 287.148H366.996C366.925 286.202 366.187 285.58 365.121 285.58C363.843 285.58 363.036 286.503 363.036 287.835C363.036 289.156 363.823 290.085 365.127 290.085Z" fill="#858585"/>
<path d="M367.532 286.48H368.944V290H369.938V286.48H371.35V285.636H367.532V286.48Z" fill="#858585"/>
<path d="M373.245 290.088C373.93 290.088 374.339 289.767 374.526 289.401H374.56V290H375.549V287.08C375.549 285.926 374.609 285.58 373.776 285.58C372.859 285.58 372.154 285.989 371.927 286.784L372.887 286.92C372.989 286.622 373.279 286.366 373.782 286.366C374.259 286.366 374.521 286.611 374.521 287.04V287.057C374.521 287.352 374.211 287.366 373.441 287.449C372.594 287.54 371.785 287.793 371.785 288.776C371.785 289.634 372.413 290.088 373.245 290.088ZM373.512 289.332C373.083 289.332 372.776 289.136 372.776 288.759C372.776 288.364 373.12 288.199 373.58 288.134C373.85 288.097 374.39 288.028 374.523 287.92V288.435C374.523 288.92 374.131 289.332 373.512 289.332Z" fill="#858585"/>
<path d="M378.556 290H382.545V289.119H380.011V289.08L381.013 288.06C382.144 286.974 382.457 286.446 382.457 285.79C382.457 284.815 381.664 284.102 380.494 284.102C379.34 284.102 378.522 284.818 378.522 285.923H379.525C379.525 285.33 379.9 284.957 380.479 284.957C381.033 284.957 381.445 285.295 381.445 285.844C381.445 286.33 381.15 286.676 380.576 287.259L378.556 289.239V290Z" fill="#858585"/>
<path d="M385.675 290.111C387.079 290.114 387.917 289.006 387.917 287.097C387.917 285.199 387.073 284.102 385.675 284.102C384.278 284.102 383.437 285.196 383.434 287.097C383.434 289.003 384.272 290.111 385.675 290.111ZM385.675 289.222C384.951 289.222 384.496 288.494 384.499 287.097C384.502 285.71 384.954 284.98 385.675 284.98C386.4 284.98 386.851 285.71 386.854 287.097C386.854 288.494 386.403 289.222 385.675 289.222Z" fill="#858585"/>
<path d="M388.861 290H392.849V289.119H390.315V289.08L391.318 288.06C392.449 286.974 392.761 286.446 392.761 285.79C392.761 284.815 391.969 284.102 390.798 284.102C389.645 284.102 388.827 284.818 388.827 285.923H389.829C389.829 285.33 390.204 284.957 390.784 284.957C391.338 284.957 391.75 285.295 391.75 285.844C391.75 286.33 391.454 286.676 390.881 287.259L388.861 289.239V290Z" fill="#858585"/>
<path d="M396.196 284.182H395.193L393.747 285.111V286.077L395.108 285.207H395.142V290H396.196V284.182Z" fill="#858585"/>
<path d="M398.572 289.205H397.663L397.643 289.523C397.594 290.293 397.393 291.077 397.31 291.42H398.003C398.14 291.063 398.455 290.233 398.535 289.517L398.572 289.205Z" fill="#858585"/>
<path d="M403.883 284.182H402.881L401.435 285.111V286.077L402.795 285.207H402.829V290H403.883V284.182Z" fill="#858585"/>
<path d="M405.574 290H406.668L409.139 285.082V284.182H405.176V285.063H408.048V285.102L405.574 290Z" fill="#858585"/>
<path d="M410.427 289.301C410.763 289.301 411.05 289.023 411.052 288.676C411.05 288.335 410.763 288.057 410.427 288.057C410.081 288.057 409.8 288.335 409.802 288.676C409.8 289.023 410.081 289.301 410.427 289.301ZM410.427 286.415C410.763 286.415 411.05 286.136 411.052 285.79C411.05 285.449 410.763 285.17 410.427 285.17C410.081 285.17 409.8 285.449 409.802 285.79C409.8 286.136 410.081 286.415 410.427 286.415Z" fill="#858585"/>
<path d="M414.253 290.111C415.657 290.114 416.495 289.006 416.495 287.097C416.495 285.199 415.651 284.102 414.253 284.102C412.856 284.102 412.015 285.196 412.012 287.097C412.012 289.003 412.85 290.111 414.253 290.111ZM414.253 289.222C413.529 289.222 413.074 288.494 413.077 287.097C413.08 285.71 413.532 284.98 414.253 284.98C414.978 284.98 415.43 285.71 415.432 287.097C415.432 288.494 414.981 289.222 414.253 289.222Z" fill="#858585"/>
<path d="M417.439 290H421.427V289.119H418.893V289.08L419.896 288.06C421.027 286.974 421.339 286.446 421.339 285.79C421.339 284.815 420.547 284.102 419.376 284.102C418.223 284.102 417.405 284.818 417.405 285.923H418.408C418.408 285.33 418.783 284.957 419.362 284.957C419.916 284.957 420.328 285.295 420.328 285.844C420.328 286.33 420.033 286.676 419.459 287.259L417.439 289.239V290Z" fill="#858585"/>
<path fill-rule="evenodd" clip-rule="evenodd" d="M433 251C433 249.895 433.895 249 435 249H510C511.105 249 512 249.895 512 251C512 252.105 511.105 253 510 253H435C433.895 253 433 252.105 433 251ZM433 269C433 267.895 433.895 267 435 267H466C467.105 267 468 267.895 468 269C468 270.105 467.105 271 466 271H435C433.895 271 433 270.105 433 269ZM478 267C476.895 267 476 267.895 476 269C476 270.105 476.895 271 478 271H538C539.105 271 540 270.105 540 269C540 267.895 539.105 267 538 267H478ZM433 287C433 285.895 433.895 285 435 285H489C490.105 285 491 285.895 491 287C491 288.105 490.105 289 489 289H435C433.895 289 433 288.105 433 287ZM522 249C520.895 249 520 249.895 520 251C520 252.105 520.895 253 522 253H558C559.105 253 560 252.105 560 251C560 249.895 559.105 249 558 249H522ZM548 269C548 267.895 548.895 267 550 267H558C559.105 267 560 267.895 560 269C560 270.105 559.105 271 558 271H550C548.895 271 548 270.105 548 269ZM501 285C499.895 285 499 285.895 499 287C499 288.105 499.895 289 501 289H558C559.105 289 560 288.105 560 287C560 285.895 559.105 285 558 285H501Z" fill="#E6E6E6"/>
<g filter="url(#filter2_d_1059_6508)">
<rect x="309" y="44" width="273" height="62" rx="9" fill="white"/>
</g>
<path d="M332.294 72H332.72C334.761 72 335.328 70.6236 335.452 67.7557L335.588 64.5724H338.285V72H339.832V63.2727H334.114L333.969 67.2656C333.875 69.7415 333.543 70.6193 332.541 70.6747L332.294 70.6875V72Z" fill="#3C3A3E"/>
<path d="M344.343 72.1278C346.261 72.1278 347.479 70.777 347.479 68.7528C347.479 66.7244 346.261 65.3693 344.343 65.3693C342.425 65.3693 341.207 66.7244 341.207 68.7528C341.207 70.777 342.425 72.1278 344.343 72.1278ZM344.351 70.892C343.29 70.892 342.771 69.946 342.771 68.7486C342.771 67.5511 343.29 66.5923 344.351 66.5923C345.396 66.5923 345.915 67.5511 345.915 68.7486C345.915 69.946 345.396 70.892 344.351 70.892Z" fill="#3C3A3E"/>
<path d="M353.118 65.4545H348.789V72H350.297V66.7201H353.118V65.4545Z" fill="#3C3A3E"/>
<path d="M355.842 69.9119V65.4545H354.355V72H355.945L358.557 67.5383V72H360.048V65.4545H358.463L355.842 69.9119Z" fill="#3C3A3E"/>
<path d="M363.12 65.4545H361.632V72H363.12V69.3537H365.655V72H367.138V65.4545H365.655V68.088H363.12V65.4545Z" fill="#3C3A3E"/>
<path d="M469.982 63.2727H463.027V72H464.596V64.5852H468.414V72H469.982V63.2727Z" fill="#3C3A3E"/>
<path d="M473.688 72.1321C474.715 72.1321 475.329 71.6505 475.61 71.1008H475.661V72H477.144V67.6193C477.144 65.8892 475.734 65.3693 474.485 65.3693C473.109 65.3693 472.052 65.9829 471.711 67.1761L473.151 67.3807C473.305 66.9332 473.739 66.5497 474.494 66.5497C475.21 66.5497 475.602 66.9162 475.602 67.5596V67.5852C475.602 68.0284 475.137 68.0497 473.982 68.1733C472.712 68.3096 471.498 68.6889 471.498 70.1633C471.498 71.4503 472.44 72.1321 473.688 72.1321ZM474.089 70.9986C473.445 70.9986 472.985 70.7045 472.985 70.1378C472.985 69.5454 473.501 69.2983 474.191 69.2003C474.596 69.1449 475.406 69.0426 475.606 68.8807V69.652C475.606 70.3807 475.018 70.9986 474.089 70.9986Z" fill="#3C3A3E"/>
<path d="M478.695 74.4545H480.238V70.9687H480.302C480.545 71.446 481.052 72.115 482.177 72.115C483.719 72.115 484.874 70.892 484.874 68.7358C484.874 66.554 483.685 65.3693 482.173 65.3693C481.018 65.3693 480.536 66.0639 480.302 66.5369H480.212V65.4545H478.695V74.4545ZM480.208 68.7273C480.208 67.4574 480.754 66.6349 481.746 66.6349C482.773 66.6349 483.302 67.5085 483.302 68.7273C483.302 69.9545 482.765 70.8494 481.746 70.8494C480.762 70.8494 480.208 69.9971 480.208 68.7273Z" fill="#3C3A3E"/>
<path d="M489.05 72.1278C490.968 72.1278 492.187 70.777 492.187 68.7528C492.187 66.7244 490.968 65.3693 489.05 65.3693C487.133 65.3693 485.914 66.7244 485.914 68.7528C485.914 70.777 487.133 72.1278 489.05 72.1278ZM489.059 70.892C487.998 70.892 487.478 69.946 487.478 68.7486C487.478 67.5511 487.998 66.5923 489.059 66.5923C490.103 66.5923 490.623 67.5511 490.623 68.7486C490.623 69.946 490.103 70.892 489.059 70.892Z" fill="#3C3A3E"/>
<path d="M493.044 72H493.522C494.928 72 495.563 71.0113 495.665 68.8295L495.767 66.7201H497.647V72H499.138V65.4545H494.365L494.25 68.3523C494.178 70.1889 493.939 70.7301 493.262 70.7301H493.036L493.044 72Z" fill="#3C3A3E"/>
<path d="M502.179 67.5852V65.4545H500.691V72H503.666C505.332 72 506.291 71.0795 506.295 69.7926C506.291 68.4716 505.332 67.5852 503.666 67.5852H502.179ZM502.179 68.8508H503.666C504.335 68.8508 504.816 69.2471 504.816 69.8139C504.816 70.3551 504.335 70.7344 503.666 70.7344H502.179V68.8508Z" fill="#3C3A3E"/>
<path fill-rule="evenodd" clip-rule="evenodd" d="M334 80C332.895 80 332 80.8954 332 82C332 83.1046 332.895 84 334 84H434C435.105 84 436 83.1046 436 82C436 80.8954 435.105 80 434 80H334ZM464 80C462.895 80 462 80.8954 462 82C462 83.1046 462.895 84 464 84H532C533.105 84 534 83.1046 534 82C534 80.8954 533.105 80 532 80H464Z" fill="#E6E6E6"/>
<g filter="url(#filter3_d_1059_6508)">
<rect x="310" y="125" width="273" height="59" rx="9" fill="white"/>
</g>
<path d="M333.86 153H337.125C339.127 153 340.329 151.888 340.329 150.281C340.329 148.679 339.127 147.643 337.125 147.643H335.441V145.598H339.473V144.273H333.86V153ZM335.441 151.705V148.93H337.125C338.181 148.93 338.765 149.527 338.765 150.264C338.765 151.031 338.181 151.705 337.125 151.705H335.441Z" fill="#3C3A3E"/>
<path d="M343.527 153.132C344.554 153.132 345.168 152.651 345.449 152.101H345.5V153H346.983V148.619C346.983 146.889 345.573 146.369 344.324 146.369C342.948 146.369 341.891 146.983 341.55 148.176L342.99 148.381C343.144 147.933 343.578 147.55 344.333 147.55C345.049 147.55 345.441 147.916 345.441 148.56V148.585C345.441 149.028 344.976 149.05 343.821 149.173C342.551 149.31 341.337 149.689 341.337 151.163C341.337 152.45 342.279 153.132 343.527 153.132ZM343.928 151.999C343.284 151.999 342.824 151.705 342.824 151.138C342.824 150.545 343.34 150.298 344.03 150.2C344.435 150.145 345.245 150.043 345.445 149.881V150.652C345.445 151.381 344.857 151.999 343.928 151.999Z" fill="#3C3A3E"/>
<path d="M348.083 153H348.56C349.966 153 350.601 152.011 350.703 149.83L350.806 147.72H352.685V153H354.176V146.455H349.404L349.289 149.352C349.216 151.189 348.978 151.73 348.3 151.73H348.074L348.083 153Z" fill="#3C3A3E"/>
<path d="M357.613 153.132C358.64 153.132 359.254 152.651 359.535 152.101H359.586V153H361.069V148.619C361.069 146.889 359.659 146.369 358.41 146.369C357.034 146.369 355.977 146.983 355.636 148.176L357.076 148.381C357.23 147.933 357.664 147.55 358.419 147.55C359.135 147.55 359.527 147.916 359.527 148.56V148.585C359.527 149.028 359.062 149.05 357.907 149.173C356.637 149.31 355.423 149.689 355.423 151.163C355.423 152.45 356.365 153.132 357.613 153.132ZM358.014 151.999C357.37 151.999 356.91 151.705 356.91 151.138C356.91 150.545 357.426 150.298 358.116 150.2C358.521 150.145 359.331 150.043 359.531 149.881V150.652C359.531 151.381 358.943 151.999 358.014 151.999Z" fill="#3C3A3E"/>
<path d="M364.108 146.455H362.62V153H364.108V150.354H366.643V153H368.126V146.455H366.643V149.088H364.108V146.455Z" fill="#3C3A3E"/>
<path d="M372.542 153.128C374.187 153.128 375.235 152.152 375.346 150.763H373.871C373.739 151.466 373.232 151.871 372.555 151.871C371.592 151.871 370.969 151.065 370.969 149.727C370.969 148.406 371.604 147.614 372.555 147.614C373.296 147.614 373.752 148.091 373.871 148.722H375.346C375.239 147.303 374.131 146.369 372.533 146.369C370.616 146.369 369.405 147.754 369.405 149.753C369.405 151.734 370.586 153.128 372.542 153.128Z" fill="#3C3A3E"/>
<rect x="333" y="161" width="107" height="4" rx="2" fill="#E6E6E6"/>
<rect x="461" y="143" width="90" height="23" rx="3" fill="#F4774C"/>
<path d="M478.852 156.778H479.807V154.854H481.732V153.898H479.807V151.977H478.852V153.898H476.931V154.854H478.852V156.778Z" fill="white"/>
<path d="M489.145 150.727H483.534V158H484.628V151.665H488.051V158H489.145V150.727Z" fill="white"/>
<path d="M493.035 158.11C494.573 158.11 495.578 156.984 495.578 155.298C495.578 153.6 494.573 152.474 493.035 152.474C491.497 152.474 490.492 153.6 490.492 155.298C490.492 156.984 491.497 158.11 493.035 158.11ZM493.039 157.219C492.034 157.219 491.565 156.342 491.565 155.294C491.565 154.25 492.034 153.362 493.039 153.362C494.036 153.362 494.505 154.25 494.505 155.294C494.505 156.342 494.036 157.219 493.039 157.219Z" fill="white"/>
<path d="M496.763 158H497.796V153.462H500.172V158H501.212V152.545H496.763V158Z" fill="white"/>
<path d="M504.93 158.11C506.467 158.11 507.472 156.984 507.472 155.298C507.472 153.6 506.467 152.474 504.93 152.474C503.392 152.474 502.387 153.6 502.387 155.298C502.387 156.984 503.392 158.11 504.93 158.11ZM504.933 157.219C503.928 157.219 503.459 156.342 503.459 155.294C503.459 154.25 503.928 153.362 504.933 153.362C505.931 153.362 506.4 154.25 506.4 155.294C506.4 156.342 505.931 157.219 504.933 157.219Z" fill="white"/>
<path d="M508.228 158H508.569C509.758 158 510.195 157.119 510.28 155.315L510.366 153.462H512.148V158H513.189V152.545H509.382L509.286 154.96C509.218 156.643 509.027 157.08 508.419 157.08H508.224L508.228 158Z" fill="white"/>
<path d="M515.645 152.545H514.605V158H515.645V155.734H518.007V158H519.044V152.545H518.007V154.815H515.645V152.545Z" fill="white"/>
<path d="M521.505 156.512V152.545H520.464V158H521.618L524.012 154.03V158H525.052V152.545H523.909L521.505 156.512Z" fill="white"/>
<path d="M525.803 153.462H527.589V158H528.626V153.462H530.405V152.545H525.803V153.462Z" fill="white"/>
<path d="M532.569 154.42V152.545H531.528V158H533.911C535.247 158 535.992 157.226 535.992 156.2C535.992 155.152 535.247 154.42 533.911 154.42H532.569ZM532.569 155.337H533.911C534.522 155.337 534.959 155.706 534.959 156.232C534.959 156.729 534.522 157.084 533.911 157.084H532.569V155.337Z" fill="white"/>
<defs>
<filter id="filter0_d_1059_6508" x="11" y="26" width="480" height="304" filterUnits="userSpaceOnUse" color-interpolation-filters="sRGB">
<feFlood flood-opacity="0" result="BackgroundImageFix"/>
<feColorMatrix in="SourceAlpha" type="matrix" values="0 0 0 0 0 0 0 0 0 0 0 0 0 0 0 0 0 0 127 0" result="hardAlpha"/>
<feOffset/>
<feGaussianBlur stdDeviation="12.5"/>
<feComposite in2="hardAlpha" operator="out"/>
<feColorMatrix type="matrix" values="0 0 0 0 0 0 0 0 0 0 0 0 0 0 0 0 0 0 0.15 0"/>
<feBlend mode="normal" in2="BackgroundImageFix" result="effect1_dropShadow_1059_6508"/>
<feBlend mode="normal" in="SourceGraphic" in2="effect1_dropShadow_1059_6508" result="shape"/>
</filter>
<filter id="filter1_d_1059_6508" x="285" y="178" width="323" height="158" filterUnits="userSpaceOnUse" color-interpolation-filters="sRGB">
<feFlood flood-opacity="0" result="BackgroundImageFix"/>
<feColorMatrix in="SourceAlpha" type="matrix" values="0 0 0 0 0 0 0 0 0 0 0 0 0 0 0 0 0 0 127 0" result="hardAlpha"/>
<feOffset/>
<feGaussianBlur stdDeviation="12.5"/>
<feComposite in2="hardAlpha" operator="out"/>
<feColorMatrix type="matrix" values="0 0 0 0 0 0 0 0 0 0 0 0 0 0 0 0 0 0 0.15 0"/>
<feBlend mode="normal" in2="BackgroundImageFix" result="effect1_dropShadow_1059_6508"/>
<feBlend mode="normal" in="SourceGraphic" in2="effect1_dropShadow_1059_6508" result="shape"/>
</filter>
<filter id="filter2_d_1059_6508" x="284" y="19" width="323" height="112" filterUnits="userSpaceOnUse" color-interpolation-filters="sRGB">
<feFlood flood-opacity="0" result="BackgroundImageFix"/>
<feColorMatrix in="SourceAlpha" type="matrix" values="0 0 0 0 0 0 0 0 0 0 0 0 0 0 0 0 0 0 127 0" result="hardAlpha"/>
<feOffset/>
<feGaussianBlur stdDeviation="12.5"/>
<feComposite in2="hardAlpha" operator="out"/>
<feColorMatrix type="matrix" values="0 0 0 0 0 0 0 0 0 0 0 0 0 0 0 0 0 0 0.15 0"/>
<feBlend mode="normal" in2="BackgroundImageFix" result="effect1_dropShadow_1059_6508"/>
<feBlend mode="normal" in="SourceGraphic" in2="effect1_dropShadow_1059_6508" result="shape"/>
</filter>
<filter id="filter3_d_1059_6508" x="285" y="100" width="323" height="109" filterUnits="userSpaceOnUse" color-interpolation-filters="sRGB">
<feFlood flood-opacity="0" result="BackgroundImageFix"/>
<feColorMatrix in="SourceAlpha" type="matrix" values="0 0 0 0 0 0 0 0 0 0 0 0 0 0 0 0 0 0 127 0" result="hardAlpha"/>
<feOffset/>
<feGaussianBlur stdDeviation="12.5"/>
<feComposite in2="hardAlpha" operator="out"/>
<feColorMatrix type="matrix" values="0 0 0 0 0 0 0 0 0 0 0 0 0 0 0 0 0 0 0.15 0"/>
<feBlend mode="normal" in2="BackgroundImageFix" result="effect1_dropShadow_1059_6508"/>
<feBlend mode="normal" in="SourceGraphic" in2="effect1_dropShadow_1059_6508" result="shape"/>
</filter>
</defs>
</svg>
