<svg width="502" height="294" viewBox="0 0 502 294" fill="none" xmlns="http://www.w3.org/2000/svg">
<g clip-path="url(#clip0_1059_6906)">
<path fill-rule="evenodd" clip-rule="evenodd" d="M243.278 42.058C242.663 42.1355 242.024 42.0591 241.499 41.8453C240.975 41.6316 240.607 41.2978 240.476 40.9166C240.346 40.5353 240.462 40.1374 240.801 39.8094C241.14 39.4814 241.674 39.2497 242.286 39.1648V35.9736H243.388V39.1648C243.668 39.2051 243.933 39.277 244.171 39.3771C244.563 39.541 244.867 39.7738 245.045 40.0456C245.224 40.3175 245.268 40.6162 245.172 40.9037C245.077 41.1912 244.845 41.4545 244.508 41.66C244.171 41.8656 243.742 42.0041 243.278 42.058Z" fill="white"/>
<g filter="url(#filter0_d_1059_6906)">
<rect x="108.977" y="25" width="365" height="214.999" rx="4" fill="white"/>
</g>
<path d="M108.977 29C108.977 26.7909 110.767 25 112.977 25H469.977C472.186 25 473.977 26.7909 473.977 29V53.7794H108.977V29Z" fill="#3C3A3E"/>
<path d="M108.977 53.7803H198.953V240H112.977C110.767 240 108.977 238.209 108.977 236V53.7803Z" fill="#EDEDED"/>
<path fill-rule="evenodd" clip-rule="evenodd" d="M198.957 123.688V189.212V189.712L198.957 213.76H197.259V189.712L108.98 189.712V189.212L197.259 189.212L197.259 123.688L108.98 123.688V123.188L197.259 123.188V53.7803H198.957V123.188V123.688ZM117.465 72.4009C117.465 71.4659 118.223 70.708 119.158 70.708H183.679C184.614 70.708 185.372 71.4659 185.372 72.4009C185.372 73.3359 184.614 74.0938 183.679 74.0938H119.158C118.223 74.0938 117.465 73.3359 117.465 72.4009ZM119.158 136.733C118.223 136.733 117.465 137.491 117.465 138.426C117.465 139.361 118.223 140.119 119.158 140.119H183.679C184.614 140.119 185.372 139.361 185.372 138.426C185.372 137.491 184.614 136.733 183.679 136.733H119.158ZM117.465 84.2515C117.465 83.3165 118.223 82.5586 119.158 82.5586H166.702C167.637 82.5586 168.395 83.3165 168.395 84.2515C168.395 85.1865 167.637 85.9444 166.702 85.9444H119.158C118.223 85.9444 117.465 85.1865 117.465 84.2515ZM119.158 148.583C118.223 148.583 117.465 149.341 117.465 150.276C117.465 151.211 118.223 151.969 119.158 151.969H166.702C167.637 151.969 168.395 151.211 168.395 150.276C168.395 149.341 167.637 148.583 166.702 148.583H119.158ZM117.465 96.1021C117.465 95.1671 118.223 94.4092 119.158 94.4092H174.342C175.277 94.4092 176.035 95.1671 176.035 96.1021C176.035 97.0371 175.277 97.795 174.342 97.795H119.158C118.223 97.795 117.465 97.0371 117.465 96.1021ZM119.158 160.434C118.223 160.434 117.465 161.192 117.465 162.127C117.465 163.061 118.223 163.819 119.158 163.819H174.342C175.277 163.819 176.035 163.061 176.035 162.127C176.035 161.192 175.277 160.434 174.342 160.434H119.158ZM117.465 107.954C117.465 107.019 118.223 106.261 119.158 106.261H155.667C156.602 106.261 157.36 107.019 157.36 107.954C157.36 108.889 156.602 109.647 155.667 109.647H119.158C118.223 109.647 117.465 108.889 117.465 107.954ZM119.158 172.283C118.223 172.283 117.465 173.041 117.465 173.976C117.465 174.911 118.223 175.669 119.158 175.669H155.667C156.602 175.669 157.36 174.911 157.36 173.976C157.36 173.041 156.602 172.283 155.667 172.283H119.158ZM117.465 204.449C117.465 203.514 118.223 202.756 119.158 202.756H166.702C167.637 202.756 168.395 203.514 168.395 204.449C168.395 205.384 167.637 206.142 166.702 206.142H119.158C118.223 206.142 117.465 205.384 117.465 204.449ZM198.957 219.684L108.98 219.684V220.184L198.957 220.184V219.684Z" fill="#CBCBCB"/>
<path d="M224.824 72.0612H227.114V78.3267H228.445V72.0612H230.735V70.9395H224.824V72.0612Z" fill="#3C3A3E"/>
<path d="M233.47 78.4349C234.765 78.4349 235.655 77.8037 235.887 76.8406L234.664 76.7035C234.487 77.1724 234.053 77.4177 233.488 77.4177C232.642 77.4177 232.081 76.8622 232.07 75.9136H235.941V75.5132C235.941 73.569 234.769 72.7141 233.402 72.7141C231.81 72.7141 230.772 73.8792 230.772 75.5889C230.772 77.3275 231.795 78.4349 233.47 78.4349ZM232.074 75.0335C232.114 74.3265 232.638 73.7313 233.42 73.7313C234.172 73.7313 234.678 74.2796 234.686 75.0335H232.074Z" fill="#3C3A3E"/>
<path d="M238.01 72.7863H236.621L238.27 75.5565L236.577 78.3267H237.966L239.131 76.332L240.307 78.3267H241.685L239.981 75.5565L241.656 72.7863H240.271L239.131 74.8315L238.01 72.7863Z" fill="#3C3A3E"/>
<path d="M242.669 78.3267H243.92V73.8576H246.098V78.3267H247.36V72.7863H242.669V78.3267Z" fill="#3C3A3E"/>
<path d="M251.13 78.4349C252.758 78.4349 253.793 77.2915 253.793 75.5781C253.793 73.8612 252.758 72.7141 251.13 72.7141C249.503 72.7141 248.468 73.8612 248.468 75.5781C248.468 77.2915 249.503 78.4349 251.13 78.4349ZM251.138 77.3889C250.237 77.3889 249.796 76.5881 249.796 75.5745C249.796 74.5609 250.237 73.7493 251.138 73.7493C252.024 73.7493 252.465 74.5609 252.465 75.5745C252.465 76.5881 252.024 77.3889 251.138 77.3889Z" fill="#3C3A3E"/>
<path d="M254.412 79.9354H255.7V78.3267H259.335V79.9354H260.601V77.2518H259.74V72.7863H255.725L255.566 74.7269C255.461 75.9677 255.324 76.8875 254.853 77.2518H254.412V79.9354ZM256.199 77.2518C256.55 76.736 256.68 75.8991 256.774 74.7269L256.861 73.8395H258.489V77.2518H256.199Z" fill="#3C3A3E"/>
<path d="M261.087 79.9354H262.374V78.3267H266.01V79.9354H267.276V77.2518H266.415V72.7863H262.4L262.241 74.7269C262.136 75.9677 261.998 76.8875 261.528 77.2518H261.087V79.9354ZM262.874 77.2518C263.224 76.736 263.355 75.8991 263.449 74.7269L263.536 73.8395H265.163V77.2518H262.874Z" fill="#3C3A3E"/>
<path d="M270.713 78.4349C272.008 78.4349 272.898 77.8037 273.129 76.8406L271.907 76.7035C271.729 77.1724 271.295 77.4177 270.731 77.4177C269.885 77.4177 269.324 76.8622 269.313 75.9136H273.184V75.5132C273.184 73.569 272.012 72.7141 270.644 72.7141C269.053 72.7141 268.015 73.8792 268.015 75.5889C268.015 77.3275 269.038 78.4349 270.713 78.4349ZM269.317 75.0335C269.357 74.3265 269.881 73.7313 270.662 73.7313C271.415 73.7313 271.921 74.2796 271.928 75.0335H269.317Z" fill="#3C3A3E"/>
<path d="M274.291 80.4043H275.601V77.4538H275.655C275.861 77.8578 276.292 78.4241 277.247 78.4241C278.556 78.4241 279.536 77.3889 279.536 75.5637C279.536 73.7169 278.527 72.7141 277.243 72.7141C276.263 72.7141 275.854 73.3021 275.655 73.7025H275.579V72.7863H274.291V80.4043ZM275.575 75.5565C275.575 74.4816 276.038 73.7854 276.881 73.7854C277.753 73.7854 278.201 74.5249 278.201 75.5565C278.201 76.5953 277.746 77.3528 276.881 77.3528C276.046 77.3528 275.575 76.6314 275.575 75.5565Z" fill="#3C3A3E"/>
<path d="M280.087 78.3267H281.632L283.219 76.0903H283.509V78.3267H284.818V76.0903H285.108L286.688 78.3267H288.233L286.193 75.4663L288.215 72.7863H286.703L285.122 75.019H284.818V72.7863H283.509V75.019H283.198L281.617 72.7863H280.105L282.138 75.4663L280.087 78.3267Z" fill="#3C3A3E"/>
<path d="M289.212 78.3267H290.522V76.2382H291.162L292.685 78.3267H294.269L292.189 75.506L294.247 72.7863H292.67L290.999 75.0226H290.522V72.7863H289.212V78.3267Z" fill="#3C3A3E"/>
<path d="M296.61 78.4385C297.482 78.4385 298.003 78.0309 298.242 77.5656H298.285V78.3267H299.544V74.6186C299.544 73.1542 298.347 72.7141 297.287 72.7141C296.118 72.7141 295.221 73.2335 294.932 74.2435L296.155 74.4166C296.285 74.0379 296.654 73.7133 297.294 73.7133C297.902 73.7133 298.234 74.0235 298.234 74.5681V74.5898C298.234 74.9649 297.84 74.983 296.86 75.0876C295.782 75.203 294.751 75.524 294.751 76.772C294.751 77.8614 295.55 78.4385 296.61 78.4385ZM296.95 77.479C296.404 77.479 296.014 77.2301 296.014 76.7504C296.014 76.249 296.451 76.0398 297.037 75.9569C297.381 75.91 298.068 75.8234 298.238 75.6863V76.3392C298.238 76.956 297.739 77.479 296.95 77.479Z" fill="#3C3A3E"/>
<path d="M225.228 124.94H225.536C226.229 124.94 226.484 124.541 226.689 124.086L228.178 120.572H227.372L226.442 122.878L225.366 120.572H224.547L226.091 123.741L226.034 123.886C225.946 124.128 225.811 124.284 225.475 124.284H225.228V124.94Z" fill="#3C3A3E"/>
<path d="M228.464 124.881H230.034C230.794 124.881 231.228 124.539 231.228 124.004C231.228 123.552 230.876 123.236 230.367 123.192C230.8 123.112 231.07 122.883 231.07 122.519C231.07 121.974 230.591 121.65 229.825 121.65H228.464V124.881ZM229.179 124.282V123.48H230.034C230.315 123.48 230.486 123.642 230.486 123.909C230.486 124.141 230.315 124.282 230.034 124.282H229.179ZM229.179 122.988V122.26H229.825C230.144 122.26 230.338 122.394 230.338 122.615C230.338 122.847 230.15 122.988 229.84 122.988H229.179Z" fill="#3C3A3E"/>
<path d="M233.294 124.945C234.049 124.945 234.568 124.576 234.703 124.015L233.99 123.935C233.886 124.208 233.633 124.351 233.304 124.351C232.81 124.351 232.483 124.027 232.477 123.474H234.735V123.24C234.735 122.106 234.051 121.607 233.253 121.607C232.325 121.607 231.719 122.287 231.719 123.284C231.719 124.299 232.317 124.945 233.294 124.945ZM232.479 122.96C232.502 122.548 232.808 122.201 233.264 122.201C233.703 122.201 233.998 122.521 234.002 122.96H232.479Z" fill="#3C3A3E"/>
<path d="M235.094 125.82H235.845V124.881H237.966V125.82H238.704V124.254H238.202V121.65H235.86L235.767 122.782C235.706 123.505 235.626 124.042 235.351 124.254H235.094V125.82ZM236.136 124.254C236.341 123.954 236.417 123.465 236.472 122.782L236.522 122.264H237.472V124.254H236.136Z" fill="#3C3A3E"/>
<path d="M240.688 124.945C241.638 124.945 242.241 124.278 242.241 123.278C242.241 122.277 241.638 121.607 240.688 121.607C239.739 121.607 239.135 122.277 239.135 123.278C239.135 124.278 239.739 124.945 240.688 124.945ZM240.692 124.334C240.167 124.334 239.91 123.867 239.91 123.276C239.91 122.685 240.167 122.211 240.692 122.211C241.209 122.211 241.467 122.685 241.467 123.276C241.467 123.867 241.209 124.334 240.692 124.334Z" fill="#3C3A3E"/>
<path d="M244.755 123.996L243.818 121.65H242.889V124.881H243.626V122.704L244.489 124.881H245.023L245.915 122.681V124.881H246.645V121.65H245.717L244.755 123.996Z" fill="#3C3A3E"/>
<path d="M247.192 124.881H247.428C248.124 124.881 248.439 124.393 248.489 123.316L248.54 122.274H249.471V124.881H250.209V121.65H247.846L247.789 123.08C247.753 123.987 247.635 124.254 247.299 124.254H247.188L247.192 124.881Z" fill="#3C3A3E"/>
<path d="M252.413 124.945C253.168 124.945 253.688 124.576 253.823 124.015L253.109 123.935C253.006 124.208 252.753 124.351 252.424 124.351C251.93 124.351 251.603 124.027 251.596 123.474H253.854V123.24C253.854 122.106 253.171 121.607 252.373 121.607C251.445 121.607 250.839 122.287 250.839 123.284C250.839 124.299 251.436 124.945 252.413 124.945ZM251.599 122.96C251.622 122.548 251.928 122.201 252.384 122.201C252.822 122.201 253.118 122.521 253.122 122.96H251.599Z" fill="#3C3A3E"/>
<path d="M255.237 121.65H254.5V124.881H255.237V123.575H256.492V124.881H257.227V121.65H256.492V122.95H255.237V121.65Z" fill="#3C3A3E"/>
<path d="M258.736 123.85V121.65H257.999V124.881H258.786L260.08 122.678V124.881H260.818V121.65H260.033L258.736 123.85Z" fill="#3C3A3E"/>
<path d="M263.519 124.881H264.234V121.65H262.827C262.033 121.65 261.542 122.056 261.544 122.676C261.542 123.085 261.765 123.394 262.151 123.552L261.426 124.881H262.177L262.841 123.665H263.519V124.881ZM263.519 123.11H262.801C262.466 123.11 262.28 122.935 262.282 122.693C262.28 122.451 262.476 122.268 262.827 122.268H263.519V123.11Z" fill="#3C3A3E"/>
<path fill-rule="evenodd" clip-rule="evenodd" d="M224.422 86.792H448.515V85.792H224.422V86.792ZM226.115 101.181C225.18 101.181 224.422 101.939 224.422 102.874C224.422 103.809 225.18 104.566 226.115 104.566H292.334C293.269 104.566 294.027 103.809 294.027 102.874C294.027 101.939 293.269 101.181 292.334 101.181H226.115ZM226.115 141.811C225.18 141.811 224.422 142.568 224.422 143.503C224.422 144.438 225.18 145.196 226.115 145.196H292.334C293.269 145.196 294.027 144.438 294.027 143.503C294.027 142.568 293.269 141.811 292.334 141.811H226.115ZM224.422 163.819C224.422 162.884 225.18 162.126 226.115 162.126H292.334C293.269 162.126 294.027 162.884 294.027 163.819C294.027 164.754 293.269 165.512 292.334 165.512H226.115C225.18 165.512 224.422 164.754 224.422 163.819ZM307.603 121.495C306.668 121.495 305.91 122.253 305.91 123.188C305.91 124.123 306.668 124.881 307.603 124.881H332.229C333.164 124.881 333.922 124.123 333.922 123.188C333.922 122.253 333.164 121.495 332.229 121.495H307.603ZM273.652 123.188C273.652 122.253 274.41 121.495 275.345 121.495H295.727C296.662 121.495 297.42 122.253 297.42 123.188C297.42 124.123 296.662 124.881 295.727 124.881H275.345C274.41 124.881 273.652 124.123 273.652 123.188ZM307.603 141.811C306.668 141.811 305.91 142.568 305.91 143.503C305.91 144.438 306.668 145.196 307.603 145.196H332.229C333.164 145.196 333.922 144.438 333.922 143.503C333.922 142.568 333.164 141.811 332.229 141.811H307.603ZM305.91 163.819C305.91 162.884 306.668 162.126 307.603 162.126H332.229C333.164 162.126 333.922 162.884 333.922 163.819C333.922 164.754 333.164 165.512 332.229 165.512H307.603C306.668 165.512 305.91 164.754 305.91 163.819ZM307.603 101.181C306.668 101.181 305.91 101.939 305.91 102.874C305.91 103.809 306.668 104.566 307.603 104.566H446.822C447.757 104.566 448.515 103.809 448.515 102.874C448.515 101.939 447.757 101.181 446.822 101.181H307.603ZM342.402 123.188C342.402 122.253 343.16 121.495 344.095 121.495H446.814C447.749 121.495 448.507 122.253 448.507 123.188C448.507 124.123 447.749 124.881 446.814 124.881H344.095C343.16 124.881 342.402 124.123 342.402 123.188ZM344.095 141.811C343.16 141.811 342.402 142.568 342.402 143.503C342.402 144.438 343.16 145.196 344.095 145.196H446.814C447.749 145.196 448.507 144.438 448.507 143.503C448.507 142.568 447.749 141.811 446.814 141.811H344.095ZM342.402 163.819C342.402 162.884 343.16 162.126 344.095 162.126H446.814C447.749 162.126 448.507 162.884 448.507 163.819C448.507 164.754 447.749 165.512 446.814 165.512H344.095C343.16 165.512 342.402 164.754 342.402 163.819ZM448.515 113.03H224.422V112.53H448.515V113.03ZM224.422 133.347H448.515V132.847H224.422V133.347ZM448.515 153.661H224.422V153.161H448.515V153.661ZM224.422 173.975H448.515V173.475H224.422V173.975Z" fill="#E6E6E6"/>
<path fill-rule="evenodd" clip-rule="evenodd" d="M130.451 41.6804C130.451 43.785 129.227 44.8385 126.779 44.8407H121.711C121.711 42.8144 124.839 42.8233 126.188 42.8271L126.345 42.8274C127.357 42.8274 127.862 42.3709 127.859 41.4579C127.859 40.5402 127.356 40.0883 126.345 40.0883H123.486V38.0955H126.321C127.333 38.0955 127.833 37.6538 127.833 36.7773C127.833 35.9008 127.326 35.4762 126.321 35.4762C126.161 35.4762 125.979 35.4809 125.782 35.4861C124.212 35.5271 121.711 35.5925 121.711 33.4629H126.377C127.721 33.4629 128.658 33.6352 129.187 33.9799C129.584 34.2359 129.909 34.598 130.126 35.0286C130.343 35.4592 130.445 35.9425 130.422 36.428C130.442 37.0035 130.296 37.572 130.002 38.0603C129.709 38.5486 129.281 38.9341 128.775 39.1672C129.888 39.6603 130.444 40.5049 130.441 41.701L130.451 41.6804ZM163.593 36.5613C164.557 36.7379 165.426 37.2744 166.037 38.0702C166.647 38.866 166.958 39.8662 166.909 40.8829C166.86 41.8996 166.456 42.8629 165.773 43.5917C165.089 44.3205 164.173 44.7647 163.197 44.8408C162.22 44.9169 161.251 44.6198 160.47 44.0051C159.69 43.3905 159.152 42.5007 158.958 41.5029C158.764 40.5051 158.927 39.468 159.417 38.5864C159.906 37.7048 160.689 37.0395 161.617 36.7154C162.253 36.4938 162.932 36.4408 163.593 36.5613ZM139.624 42.5156C139.624 44.0769 138.61 44.8565 136.582 44.8542H131.668V36.5202H136.279C137.372 36.5202 138.139 36.6538 138.584 36.914C138.909 37.089 139.179 37.3563 139.363 37.6849C139.547 38.0135 139.638 38.3897 139.624 38.7698C139.63 39.1621 139.528 39.5479 139.329 39.8816C139.131 40.2153 138.845 40.483 138.505 40.653C138.853 40.8046 139.147 41.0634 139.349 41.3946C139.551 41.7259 139.651 42.1135 139.634 42.5053L139.624 42.5156ZM137.359 39.0163C137.359 38.4924 137.006 38.2288 136.298 38.2288H133.786V39.8278H136.298C137.006 39.8278 137.359 39.5573 137.359 39.0163ZM137.359 42.3341C137.359 41.7897 137.01 41.5192 136.311 41.5192H133.786V43.149H136.328C137.026 43.149 137.375 42.8751 137.375 42.3341H137.359ZM157.935 44.8542H155.827V41.55H152.784V44.8542H150.67V36.5202H152.784V39.7148H155.827V36.5202H157.935V44.8542ZM176.028 44.8542H173.183L169.942 40.8105V44.8542H167.828V36.5202H169.942V40.5229L173.351 36.5202H176.048L172.323 40.5982L176.048 44.8542H176.028ZM163.481 38.4719C163.192 38.3773 162.888 38.3455 162.586 38.3785C162.285 38.4116 161.994 38.5087 161.73 38.6639C161.467 38.8191 161.237 39.029 161.055 39.2806C160.873 39.5321 160.742 39.82 160.672 40.1262C160.601 40.4324 160.592 40.7504 160.645 41.0604C160.698 41.3705 160.812 41.6658 160.979 41.9282C161.147 42.1906 161.364 42.4143 161.618 42.5854C161.873 42.7566 162.158 42.8715 162.457 42.9231C162.784 42.9913 163.121 42.9831 163.445 42.8991C163.916 42.7753 164.336 42.4928 164.637 42.0957C164.938 41.6985 165.105 41.209 165.111 40.7031C165.117 40.1973 164.962 39.7036 164.67 39.2988C164.378 38.8941 163.966 38.6009 163.497 38.4651L163.481 38.4719ZM146.119 38.3452C146.619 38.5984 147.022 39.0205 147.262 39.5425C147.502 40.0645 147.564 40.6556 147.439 41.2193C147.314 41.783 147.009 42.286 146.574 42.6462C146.138 43.0064 145.598 43.2025 145.042 43.2025C144.485 43.2025 143.946 43.0064 143.51 42.6462C143.075 42.286 142.77 41.783 142.645 41.2193C142.52 40.6556 142.582 40.0645 142.822 39.5425C143.062 39.0205 143.465 38.5984 143.965 38.3452V36.1162C142.9 36.3897 141.969 37.0589 141.347 37.9975C140.724 38.936 140.454 40.079 140.586 41.2107C140.719 42.3424 141.245 43.3846 142.066 44.1405C142.887 44.8963 143.945 45.3136 145.042 45.3136C146.138 45.3136 147.197 44.8963 148.018 44.1405C148.839 43.3846 149.365 42.3424 149.498 41.2107C149.63 40.079 149.36 38.936 148.737 37.9975C148.115 37.0589 147.183 36.3897 146.119 36.1162V38.3452ZM144.295 41.8444C144.608 42.0581 144.99 42.1345 145.358 42.057C145.635 42.0032 145.891 41.8646 146.093 41.6591C146.295 41.4535 146.433 41.1902 146.49 40.9027C146.547 40.6152 146.521 40.3165 146.414 40.0447C146.308 39.7728 146.126 39.5401 145.891 39.3761C145.749 39.2761 145.591 39.2041 145.424 39.1638V35.9727H144.765V39.1638C144.399 39.2487 144.08 39.4804 143.878 39.8084C143.675 40.1365 143.605 40.5343 143.684 40.9156C143.762 41.2968 143.981 41.6306 144.295 41.8444Z" fill="white"/>
<g filter="url(#filter1_d_1059_6906)">
<path fill-rule="evenodd" clip-rule="evenodd" d="M51 134C47.134 134 44 137.134 44 141V166C44 169.866 47.134 173 51 173H271C272.994 173 274.793 172.166 276.068 170.828C278.985 171.617 282.372 171.918 286.089 171.244C284.646 170.627 280.198 167.763 278 162.324V141C278 137.134 274.866 134 271 134H51Z" fill="white"/>
</g>
<path fill-rule="evenodd" clip-rule="evenodd" d="M63.5273 147.543C63.5273 146.609 64.2853 145.851 65.2203 145.851H113.614C114.548 145.851 115.306 146.609 115.306 147.543C115.306 148.478 114.548 149.236 113.614 149.236H65.2203C64.2853 149.236 63.5273 148.478 63.5273 147.543ZM63.5273 159.392C63.5273 158.457 64.2853 157.699 65.2203 157.699H219.718C220.653 157.699 221.411 158.457 221.411 159.392C221.411 160.327 220.653 161.085 219.718 161.085H65.2202C64.2853 161.085 63.5273 160.327 63.5273 159.392ZM125.49 145.851C124.555 145.851 123.797 146.609 123.797 147.543C123.797 148.478 124.555 149.236 125.49 149.236H219.72C220.655 149.236 221.413 148.478 221.413 147.543C221.413 146.609 220.655 145.851 219.72 145.851H125.49Z" fill="#E6E6E6"/>
<ellipse cx="246.451" cy="153.045" rx="11.4593" ry="11.4271" fill="#F4774C"/>
<g filter="url(#filter2_d_1059_6906)">
<path fill-rule="evenodd" clip-rule="evenodd" d="M250 182C253.866 182 257 185.134 257 189V214C257 217.866 253.866 221 250 221H30C28.0163 221 26.2253 220.175 24.9516 218.849C22.0523 219.622 18.6931 219.912 15.0087 219.244C16.4308 218.636 20.7705 215.846 23 210.561V189C23 185.134 26.134 182 30 182H250Z" fill="#D6D6D6"/>
</g>
<path fill-rule="evenodd" clip-rule="evenodd" d="M238.254 195.543C238.254 194.608 237.496 193.85 236.561 193.85H188.168C187.233 193.85 186.475 194.608 186.475 195.543C186.475 196.477 187.233 197.235 188.168 197.235H236.561C237.496 197.235 238.254 196.477 238.254 195.543ZM238.254 207.393C238.254 206.458 237.496 205.7 236.561 205.7H82.0631C81.1281 205.7 80.3702 206.458 80.3702 207.393C80.3702 208.328 81.1281 209.086 82.0631 209.086H236.561C237.496 209.086 238.254 208.328 238.254 207.393ZM176.295 193.85C177.23 193.85 177.988 194.608 177.988 195.543C177.988 196.477 177.23 197.235 176.295 197.235H82.0649C81.1299 197.235 80.372 196.477 80.372 195.543C80.372 194.608 81.1299 193.85 82.0649 193.85H176.295Z" fill="white"/>
<ellipse rx="11.4593" ry="11.4271" transform="matrix(-1 0 0 1 55.3259 201.044)" fill="#F4774C"/>
<g filter="url(#filter3_d_1059_6906)">
<path fill-rule="evenodd" clip-rule="evenodd" d="M51 230C47.134 230 44 233.134 44 237V262C44 265.866 47.134 269 51 269H271C272.967 269 274.745 268.189 276.016 266.882C278.929 267.676 282.311 267.981 286.026 267.304C284.595 266.69 280.204 263.85 278 258.463V237C278 233.134 274.866 230 271 230H51Z" fill="white"/>
</g>
<path fill-rule="evenodd" clip-rule="evenodd" d="M65.2203 247.801C64.2853 247.801 63.5273 248.559 63.5273 249.494C63.5273 250.429 64.2853 251.187 65.2203 251.187H86.4507C87.3857 251.187 88.1436 250.429 88.1436 249.494C88.1436 248.559 87.3857 247.801 86.4507 247.801H65.2203ZM104.267 247.801C103.332 247.801 102.574 248.559 102.574 249.494C102.574 250.429 103.332 251.187 104.267 251.187H219.719C220.653 251.187 221.411 250.429 221.411 249.494C221.411 248.559 220.653 247.801 219.719 247.801H104.267Z" fill="#E6E6E6"/>
<ellipse cx="246.451" cy="249.917" rx="11.4593" ry="11.4271" fill="#F4774C"/>
</g>
<defs>
<filter id="filter0_d_1059_6906" x="83.9766" y="0" width="415" height="264.999" filterUnits="userSpaceOnUse" color-interpolation-filters="sRGB">
<feFlood flood-opacity="0" result="BackgroundImageFix"/>
<feColorMatrix in="SourceAlpha" type="matrix" values="0 0 0 0 0 0 0 0 0 0 0 0 0 0 0 0 0 0 127 0" result="hardAlpha"/>
<feOffset/>
<feGaussianBlur stdDeviation="12.5"/>
<feComposite in2="hardAlpha" operator="out"/>
<feColorMatrix type="matrix" values="0 0 0 0 0 0 0 0 0 0 0 0 0 0 0 0 0 0 0.15 0"/>
<feBlend mode="normal" in2="BackgroundImageFix" result="effect1_dropShadow_1059_6906"/>
<feBlend mode="normal" in="SourceGraphic" in2="effect1_dropShadow_1059_6906" result="shape"/>
</filter>
<filter id="filter1_d_1059_6906" x="19" y="109" width="292.089" height="89" filterUnits="userSpaceOnUse" color-interpolation-filters="sRGB">
<feFlood flood-opacity="0" result="BackgroundImageFix"/>
<feColorMatrix in="SourceAlpha" type="matrix" values="0 0 0 0 0 0 0 0 0 0 0 0 0 0 0 0 0 0 127 0" result="hardAlpha"/>
<feOffset/>
<feGaussianBlur stdDeviation="12.5"/>
<feComposite in2="hardAlpha" operator="out"/>
<feColorMatrix type="matrix" values="0 0 0 0 0 0 0 0 0 0 0 0 0 0 0 0 0 0 0.15 0"/>
<feBlend mode="normal" in2="BackgroundImageFix" result="effect1_dropShadow_1059_6906"/>
<feBlend mode="normal" in="SourceGraphic" in2="effect1_dropShadow_1059_6906" result="shape"/>
</filter>
<filter id="filter2_d_1059_6906" x="-9.99135" y="157" width="291.991" height="89" filterUnits="userSpaceOnUse" color-interpolation-filters="sRGB">
<feFlood flood-opacity="0" result="BackgroundImageFix"/>
<feColorMatrix in="SourceAlpha" type="matrix" values="0 0 0 0 0 0 0 0 0 0 0 0 0 0 0 0 0 0 127 0" result="hardAlpha"/>
<feOffset/>
<feGaussianBlur stdDeviation="12.5"/>
<feComposite in2="hardAlpha" operator="out"/>
<feColorMatrix type="matrix" values="0 0 0 0 0 0 0 0 0 0 0 0 0 0 0 0 0 0 0.15 0"/>
<feBlend mode="normal" in2="BackgroundImageFix" result="effect1_dropShadow_1059_6906"/>
<feBlend mode="normal" in="SourceGraphic" in2="effect1_dropShadow_1059_6906" result="shape"/>
</filter>
<filter id="filter3_d_1059_6906" x="19" y="205" width="292.026" height="89" filterUnits="userSpaceOnUse" color-interpolation-filters="sRGB">
<feFlood flood-opacity="0" result="BackgroundImageFix"/>
<feColorMatrix in="SourceAlpha" type="matrix" values="0 0 0 0 0 0 0 0 0 0 0 0 0 0 0 0 0 0 127 0" result="hardAlpha"/>
<feOffset/>
<feGaussianBlur stdDeviation="12.5"/>
<feComposite in2="hardAlpha" operator="out"/>
<feColorMatrix type="matrix" values="0 0 0 0 0 0 0 0 0 0 0 0 0 0 0 0 0 0 0.15 0"/>
<feBlend mode="normal" in2="BackgroundImageFix" result="effect1_dropShadow_1059_6906"/>
<feBlend mode="normal" in="SourceGraphic" in2="effect1_dropShadow_1059_6906" result="shape"/>
</filter>
<clipPath id="clip0_1059_6906">
<rect width="502" height="294" fill="white"/>
</clipPath>
</defs>
</svg>
