<svg width="337" height="75" viewBox="0 0 337 75" fill="none" xmlns="http://www.w3.org/2000/svg">
<path d="M336 74.5C336.276 74.5 336.5 74.2762 336.5 74C336.5 73.7239 336.276 73.5 336 73.5L336 74.5ZM4 74L3.5 74C3.5 74.2761 3.72386 74.5 4 74.5L4 74ZM4.35356 0.646432C4.15829 0.45117 3.84171 0.45117 3.64645 0.646432L0.464469 3.82841C0.269206 4.02367 0.269206 4.34026 0.464469 4.53552C0.659731 4.73078 0.976313 4.73078 1.17158 4.53552L4 1.70709L6.82843 4.53552C7.02369 4.73078 7.34027 4.73078 7.53554 4.53552C7.7308 4.34026 7.7308 4.02367 7.53554 3.82841L4.35356 0.646432ZM3.5 0.999985L3.5 2.01387L4.5 2.01387L4.5 0.999986L3.5 0.999985ZM3.5 4.04165L3.5 6.06943L4.5 6.06943L4.5 4.04165L3.5 4.04165ZM3.5 8.09721L3.5 10.125L4.5 10.125L4.5 8.09721L3.5 8.09721ZM3.5 12.1528L3.5 14.1805L4.5 14.1805L4.5 12.1528L3.5 12.1528ZM3.5 16.2083L3.5 18.2361L4.5 18.2361L4.5 16.2083L3.5 16.2083ZM3.5 20.2639L3.5 22.2917L4.5 22.2917L4.5 20.2639L3.5 20.2639ZM3.5 24.3194L3.5 26.3472L4.5 26.3472L4.5 24.3194L3.5 24.3194ZM3.5 28.375L3.5 30.4028L4.5 30.4028L4.5 28.375L3.5 28.375ZM3.5 32.4306L3.5 34.4583L4.5 34.4583L4.5 32.4306L3.5 32.4306ZM3.5 36.4861L3.5 38.5139L4.5 38.5139L4.5 36.4861L3.5 36.4861ZM3.5 40.5417L3.5 42.5694L4.5 42.5694L4.5 40.5417L3.5 40.5417ZM3.5 44.5972L3.5 46.625L4.5 46.625L4.5 44.5972L3.5 44.5972ZM3.5 48.6528L3.5 50.6806L4.5 50.6806L4.5 48.6528L3.5 48.6528ZM3.5 52.7083L3.5 54.7361L4.5 54.7361L4.5 52.7083L3.5 52.7083ZM3.5 56.7639L3.5 58.7917L4.5 58.7917L4.5 56.7639L3.5 56.7639ZM3.5 60.8195L3.5 62.8472L4.5 62.8472L4.5 60.8195L3.5 60.8195ZM3.5 64.875L3.5 66.9028L4.5 66.9028L4.5 64.875L3.5 64.875ZM3.5 68.9306L3.5 70.9583L4.5 70.9583L4.5 68.9306L3.5 68.9306ZM3.5 72.9861L3.5 74L4.5 74L4.5 72.9861L3.5 72.9861ZM4 74.5L5 74.5L5 73.5L4 73.5L4 74.5ZM7 74.5L9 74.5L9 73.5L7 73.5L7 74.5ZM11 74.5L13 74.5L13 73.5L11 73.5L11 74.5ZM15 74.5L17 74.5L17 73.5L15 73.5L15 74.5ZM19 74.5L21 74.5L21 73.5L19 73.5L19 74.5ZM23 74.5L25 74.5L25 73.5L23 73.5L23 74.5ZM27 74.5L29 74.5L29 73.5L27 73.5L27 74.5ZM31 74.5L33 74.5L33 73.5L31 73.5L31 74.5ZM35 74.5L37 74.5L37 73.5L35 73.5L35 74.5ZM39 74.5L41 74.5L41 73.5L39 73.5L39 74.5ZM43 74.5L45 74.5L45 73.5L43 73.5L43 74.5ZM47 74.5L49 74.5L49 73.5L47 73.5L47 74.5ZM51 74.5L53 74.5L53 73.5L51 73.5L51 74.5ZM55 74.5L57 74.5L57 73.5L55 73.5L55 74.5ZM59 74.5L61 74.5L61 73.5L59 73.5L59 74.5ZM63 74.5L65 74.5L65 73.5L63 73.5L63 74.5ZM67 74.5L69 74.5L69 73.5L67 73.5L67 74.5ZM71 74.5L73 74.5L73 73.5L71 73.5L71 74.5ZM75 74.5L77 74.5L77 73.5L75 73.5L75 74.5ZM79 74.5L81 74.5L81 73.5L79 73.5L79 74.5ZM83 74.5L85 74.5L85 73.5L83 73.5L83 74.5ZM87 74.5L89 74.5L89 73.5L87 73.5L87 74.5ZM91 74.5L93 74.5L93 73.5L91 73.5L91 74.5ZM95 74.5L97 74.5L97 73.5L95 73.5L95 74.5ZM99 74.5L101 74.5L101 73.5L99 73.5L99 74.5ZM103 74.5L105 74.5L105 73.5L103 73.5L103 74.5ZM107 74.5L109 74.5L109 73.5L107 73.5L107 74.5ZM111 74.5L113 74.5L113 73.5L111 73.5L111 74.5ZM115 74.5L117 74.5L117 73.5L115 73.5L115 74.5ZM119 74.5L121 74.5L121 73.5L119 73.5L119 74.5ZM123 74.5L125 74.5L125 73.5L123 73.5L123 74.5ZM127 74.5L129 74.5L129 73.5L127 73.5L127 74.5ZM131 74.5L133 74.5L133 73.5L131 73.5L131 74.5ZM135 74.5L137 74.5L137 73.5L135 73.5L135 74.5ZM139 74.5L141 74.5L141 73.5L139 73.5L139 74.5ZM143 74.5L145 74.5L145 73.5L143 73.5L143 74.5ZM147 74.5L149 74.5L149 73.5L147 73.5L147 74.5ZM151 74.5L153 74.5L153 73.5L151 73.5L151 74.5ZM155 74.5L157 74.5L157 73.5L155 73.5L155 74.5ZM159 74.5L161 74.5L161 73.5L159 73.5L159 74.5ZM163 74.5L165 74.5L165 73.5L163 73.5L163 74.5ZM167 74.5L169 74.5L169 73.5L167 73.5L167 74.5ZM171 74.5L173 74.5L173 73.5L171 73.5L171 74.5ZM175 74.5L177 74.5L177 73.5L175 73.5L175 74.5ZM179 74.5L181 74.5L181 73.5L179 73.5L179 74.5ZM183 74.5L185 74.5L185 73.5L183 73.5L183 74.5ZM187 74.5L189 74.5L189 73.5L187 73.5L187 74.5ZM191 74.5L193 74.5L193 73.5L191 73.5L191 74.5ZM195 74.5L197 74.5L197 73.5L195 73.5L195 74.5ZM199 74.5L201 74.5L201 73.5L199 73.5L199 74.5ZM203 74.5L205 74.5L205 73.5L203 73.5L203 74.5ZM207 74.5L209 74.5L209 73.5L207 73.5L207 74.5ZM211 74.5L213 74.5L213 73.5L211 73.5L211 74.5ZM215 74.5L217 74.5L217 73.5L215 73.5L215 74.5ZM219 74.5L221 74.5L221 73.5L219 73.5L219 74.5ZM223 74.5L225 74.5L225 73.5L223 73.5L223 74.5ZM227 74.5L229 74.5L229 73.5L227 73.5L227 74.5ZM231 74.5L233 74.5L233 73.5L231 73.5L231 74.5ZM235 74.5L237 74.5L237 73.5L235 73.5L235 74.5ZM239 74.5L241 74.5L241 73.5L239 73.5L239 74.5ZM243 74.5L245 74.5L245 73.5L243 73.5L243 74.5ZM247 74.5L249 74.5L249 73.5L247 73.5L247 74.5ZM251 74.5L253 74.5L253 73.5L251 73.5L251 74.5ZM255 74.5L257 74.5L257 73.5L255 73.5L255 74.5ZM259 74.5L261 74.5L261 73.5L259 73.5L259 74.5ZM263 74.5L265 74.5L265 73.5L263 73.5L263 74.5ZM267 74.5L269 74.5L269 73.5L267 73.5L267 74.5ZM271 74.5L273 74.5L273 73.5L271 73.5L271 74.5ZM275 74.5L277 74.5L277 73.5L275 73.5L275 74.5ZM279 74.5L281 74.5L281 73.5L279 73.5L279 74.5ZM283 74.5L285 74.5L285 73.5L283 73.5L283 74.5ZM287 74.5L289 74.5L289 73.5L287 73.5L287 74.5ZM291 74.5L293 74.5L293 73.5L291 73.5L291 74.5ZM295 74.5L297 74.5L297 73.5L295 73.5L295 74.5ZM299 74.5L301 74.5L301 73.5L299 73.5L299 74.5ZM303 74.5L305 74.5L305 73.5L303 73.5L303 74.5ZM307 74.5L309 74.5L309 73.5L307 73.5L307 74.5ZM311 74.5L313 74.5L313 73.5L311 73.5L311 74.5ZM315 74.5L317 74.5L317 73.5L315 73.5L315 74.5ZM319 74.5L321 74.5L321 73.5L319 73.5L319 74.5ZM323 74.5L325 74.5L325 73.5L323 73.5L323 74.5ZM327 74.5L329 74.5L329 73.5L327 73.5L327 74.5ZM331 74.5L333 74.5L333 73.5L331 73.5L331 74.5ZM335 74.5L336 74.5L336 73.5L335 73.5L335 74.5Z" fill="#5A5A5B"/>
</svg>
