<svg width="83" height="122" viewBox="0 0 83 122" fill="none" xmlns="http://www.w3.org/2000/svg">
<path d="M0.499992 121C0.499992 121.276 0.723849 121.5 0.999992 121.5C1.27613 121.5 1.49999 121.276 1.49999 121L0.499992 121ZM1 4L1 3.5C0.723859 3.5 0.500002 3.72386 0.500002 4L1 4ZM82.3536 4.35356C82.5488 4.1583 82.5488 3.84172 82.3536 3.64645L79.1716 0.464474C78.9763 0.269211 78.6597 0.269211 78.4645 0.464474C78.2692 0.659736 78.2692 0.976318 78.4645 1.17158L81.2929 4.00001L78.4645 6.82843C78.2692 7.0237 78.2692 7.34028 78.4645 7.53554C78.6597 7.7308 78.9763 7.7308 79.1716 7.53554L82.3536 4.35356ZM82 3.50001L80.9875 3.50001L80.9875 4.50001L82 4.50001L82 3.50001ZM78.9625 3.50001L76.9375 3.50001L76.9375 4.50001L78.9625 4.50001L78.9625 3.50001ZM74.9125 3.50001L72.8875 3.50001L72.8875 4.50001L74.9125 4.50001L74.9125 3.50001ZM70.8625 3.50001L68.8375 3.50001L68.8375 4.50001L70.8625 4.50001L70.8625 3.50001ZM66.8125 3.50001L64.7875 3.50001L64.7875 4.50001L66.8125 4.50001L66.8125 3.50001ZM62.7625 3.50001L60.7375 3.50001L60.7375 4.50001L62.7625 4.50001L62.7625 3.50001ZM58.7125 3.50001L56.6875 3.50001L56.6875 4.50001L58.7125 4.50001L58.7125 3.50001ZM54.6625 3.50001L52.6375 3.50001L52.6375 4.50001L54.6625 4.50001L54.6625 3.50001ZM50.6125 3.5L48.5875 3.5L48.5875 4.5L50.6125 4.5L50.6125 3.5ZM46.5625 3.5L44.5375 3.5L44.5375 4.5L46.5625 4.5L46.5625 3.5ZM42.5125 3.5L40.4875 3.5L40.4875 4.5L42.5125 4.5L42.5125 3.5ZM38.4625 3.5L36.4375 3.5L36.4375 4.5L38.4625 4.5L38.4625 3.5ZM34.4125 3.5L32.3875 3.5L32.3875 4.5L34.4125 4.5L34.4125 3.5ZM30.3625 3.5L28.3375 3.5L28.3375 4.5L30.3625 4.5L30.3625 3.5ZM26.3125 3.5L24.2875 3.5L24.2875 4.5L26.3125 4.5L26.3125 3.5ZM22.2625 3.5L20.2375 3.5L20.2375 4.5L22.2625 4.5L22.2625 3.5ZM18.2125 3.5L16.1875 3.5L16.1875 4.5L18.2125 4.5L18.2125 3.5ZM14.1625 3.5L12.1375 3.5L12.1375 4.5L14.1625 4.5L14.1625 3.5ZM10.1125 3.5L8.08748 3.5L8.08748 4.5L10.1125 4.5L10.1125 3.5ZM6.06248 3.5L4.03748 3.5L4.03748 4.5L6.06248 4.5L6.06248 3.5ZM2.01248 3.5L1 3.5L1 4.5L2.01248 4.5L2.01248 3.5ZM0.500002 4L0.500002 5.00862L1.5 5.00862L1.5 4L0.500002 4ZM0.500002 7.02586L0.500001 9.0431L1.5 9.0431L1.5 7.02586L0.500002 7.02586ZM0.500001 11.0603L0.500001 13.0776L1.5 13.0776L1.5 11.0603L0.500001 11.0603ZM0.500001 15.0948L0.500001 17.1121L1.5 17.1121L1.5 15.0948L0.500001 15.0948ZM0.500001 19.1293L0.5 21.1466L1.5 21.1466L1.5 19.1293L0.500001 19.1293ZM0.5 23.1638L0.5 25.181L1.5 25.181L1.5 23.1638L0.5 23.1638ZM0.5 27.1983L0.5 29.2155L1.5 29.2155L1.5 27.1983L0.5 27.1983ZM0.5 31.2328L0.499999 33.25L1.5 33.25L1.5 31.2328L0.5 31.2328ZM0.499999 35.2672L0.499999 37.2845L1.5 37.2845L1.5 35.2672L0.499999 35.2672ZM0.499999 39.3017L0.499999 41.319L1.5 41.319L1.5 39.3017L0.499999 39.3017ZM0.499998 43.3362L0.499998 45.3534L1.5 45.3534L1.5 43.3362L0.499998 43.3362ZM0.499998 47.3707L0.499998 49.3879L1.5 49.3879L1.5 47.3707L0.499998 47.3707ZM0.499998 51.4052L0.499998 53.4224L1.5 53.4224L1.5 51.4052L0.499998 51.4052ZM0.499997 55.4397L0.499997 57.4569L1.5 57.4569L1.5 55.4397L0.499997 55.4397ZM0.499997 59.4741L0.499997 61.4914L1.5 61.4914L1.5 59.4741L0.499997 59.4741ZM0.499997 63.5086L0.499997 65.5259L1.5 65.5259L1.5 63.5086L0.499997 63.5086ZM0.499996 67.5431L0.499996 69.5604L1.5 69.5604L1.5 67.5431L0.499996 67.5431ZM0.499996 71.5776L0.499996 73.5948L1.5 73.5948L1.5 71.5776L0.499996 71.5776ZM0.499996 75.6121L0.499996 77.6293L1.5 77.6293L1.5 75.6121L0.499996 75.6121ZM0.499995 79.6466L0.499995 81.6638L1.5 81.6638L1.5 79.6466L0.499995 79.6466ZM0.499995 83.6811L0.499995 85.6983L1.49999 85.6983L1.5 83.6811L0.499995 83.6811ZM0.499995 87.7155L0.499995 89.7328L1.49999 89.7328L1.49999 87.7155L0.499995 87.7155ZM0.499994 91.75L0.499994 93.7673L1.49999 93.7673L1.49999 91.75L0.499994 91.75ZM0.499994 95.7845L0.499994 97.8018L1.49999 97.8018L1.49999 95.7845L0.499994 95.7845ZM0.499994 99.819L0.499994 101.836L1.49999 101.836L1.49999 99.819L0.499994 99.819ZM0.499993 103.853L0.499993 105.871L1.49999 105.871L1.49999 103.853L0.499993 103.853ZM0.499993 107.888L0.499993 109.905L1.49999 109.905L1.49999 107.888L0.499993 107.888ZM0.499993 111.922L0.499992 113.94L1.49999 113.94L1.49999 111.922L0.499993 111.922ZM0.499992 115.957L0.499992 117.974L1.49999 117.974L1.49999 115.957L0.499992 115.957ZM0.499992 119.991L0.499992 121L1.49999 121L1.49999 119.991L0.499992 119.991Z" fill="#5A5A5B"/>
</svg>
