<svg width="285" height="122" viewBox="0 0 285 122" fill="none" xmlns="http://www.w3.org/2000/svg">
<path d="M0.499999 121C0.499999 121.276 0.723857 121.5 0.999999 121.5C1.27614 121.5 1.5 121.276 1.5 121L0.499999 121ZM1.00001 4L1.00001 3.5C0.723867 3.5 0.500009 3.72386 0.500009 4L1.00001 4ZM284.354 4.35358C284.549 4.15832 284.549 3.84173 284.354 3.64647L281.172 0.464492C280.976 0.26923 280.66 0.269229 280.464 0.464492C280.269 0.659754 280.269 0.976336 280.464 1.1716L283.293 4.00003L280.464 6.82845C280.269 7.02371 280.269 7.3403 280.464 7.53556C280.66 7.73082 280.976 7.73082 281.172 7.53556L284.354 4.35358ZM284 3.50003L283.004 3.50003L283.004 4.50003L284 4.50003L284 3.50003ZM281.011 3.50003L279.018 3.50003L279.018 4.50003L281.011 4.50003L281.011 3.50003ZM277.025 3.50003L275.032 3.50003L275.032 4.50003L277.025 4.50003L277.025 3.50003ZM273.039 3.50002L271.046 3.50002L271.046 4.50002L273.039 4.50002L273.039 3.50002ZM269.053 3.50002L267.06 3.50002L267.06 4.50002L269.053 4.50002L269.053 3.50002ZM265.067 3.50002L263.074 3.50002L263.074 4.50002L265.067 4.50002L265.067 3.50002ZM261.081 3.50002L259.088 3.50002L259.088 4.50002L261.081 4.50002L261.081 3.50002ZM257.095 3.50002L255.102 3.50002L255.102 4.50002L257.095 4.50002L257.095 3.50002ZM253.109 3.50002L251.116 3.50002L251.116 4.50002L253.109 4.50002L253.109 3.50002ZM249.123 3.50002L247.13 3.50002L247.13 4.50002L249.123 4.50002L249.123 3.50002ZM245.137 3.50002L243.144 3.50002L243.144 4.50002L245.137 4.50002L245.137 3.50002ZM241.151 3.50002L239.158 3.50002L239.158 4.50002L241.151 4.50002L241.151 3.50002ZM237.166 3.50002L235.173 3.50002L235.173 4.50002L237.166 4.50002L237.166 3.50002ZM233.18 3.50002L231.187 3.50002L231.187 4.50002L233.18 4.50002L233.18 3.50002ZM229.194 3.50002L227.201 3.50002L227.201 4.50002L229.194 4.50002L229.194 3.50002ZM225.208 3.50002L223.215 3.50002L223.215 4.50002L225.208 4.50002L225.208 3.50002ZM221.222 3.50002L219.229 3.50002L219.229 4.50002L221.222 4.50002L221.222 3.50002ZM217.236 3.50002L215.243 3.50002L215.243 4.50002L217.236 4.50002L217.236 3.50002ZM213.25 3.50002L211.257 3.50002L211.257 4.50002L213.25 4.50002L213.25 3.50002ZM209.264 3.50002L207.271 3.50002L207.271 4.50002L209.264 4.50002L209.264 3.50002ZM205.278 3.50002L203.285 3.50002L203.285 4.50002L205.278 4.50002L205.278 3.50002ZM201.292 3.50002L199.299 3.50002L199.299 4.50002L201.292 4.50002L201.292 3.50002ZM197.306 3.50002L195.313 3.50002L195.313 4.50002L197.306 4.50002L197.306 3.50002ZM193.32 3.50002L191.327 3.50002L191.327 4.50002L193.32 4.50002L193.32 3.50002ZM189.335 3.50002L187.342 3.50002L187.342 4.50002L189.335 4.50002L189.335 3.50002ZM185.349 3.50002L183.356 3.50002L183.356 4.50002L185.349 4.50002L185.349 3.50002ZM181.363 3.50002L179.37 3.50002L179.37 4.50002L181.363 4.50002L181.363 3.50002ZM177.377 3.50002L175.384 3.50002L175.384 4.50002L177.377 4.50002L177.377 3.50002ZM173.391 3.50002L171.398 3.50002L171.398 4.50002L173.391 4.50002L173.391 3.50002ZM169.405 3.50002L167.412 3.50002L167.412 4.50002L169.405 4.50002L169.405 3.50002ZM165.419 3.50002L163.426 3.50001L163.426 4.50001L165.419 4.50002L165.419 3.50002ZM161.433 3.50001L159.44 3.50001L159.44 4.50001L161.433 4.50001L161.433 3.50001ZM157.447 3.50001L155.454 3.50001L155.454 4.50001L157.447 4.50001L157.447 3.50001ZM153.461 3.50001L151.468 3.50001L151.468 4.50001L153.461 4.50001L153.461 3.50001ZM149.475 3.50001L147.482 3.50001L147.482 4.50001L149.475 4.50001L149.475 3.50001ZM145.489 3.50001L143.497 3.50001L143.497 4.50001L145.489 4.50001L145.489 3.50001ZM141.504 3.50001L139.511 3.50001L139.511 4.50001L141.504 4.50001L141.504 3.50001ZM137.518 3.50001L135.525 3.50001L135.525 4.50001L137.518 4.50001L137.518 3.50001ZM133.532 3.50001L131.539 3.50001L131.539 4.50001L133.532 4.50001L133.532 3.50001ZM129.546 3.50001L127.553 3.50001L127.553 4.50001L129.546 4.50001L129.546 3.50001ZM125.56 3.50001L123.567 3.50001L123.567 4.50001L125.56 4.50001L125.56 3.50001ZM121.574 3.50001L119.581 3.50001L119.581 4.50001L121.574 4.50001L121.574 3.50001ZM117.588 3.50001L115.595 3.50001L115.595 4.50001L117.588 4.50001L117.588 3.50001ZM113.602 3.50001L111.609 3.50001L111.609 4.50001L113.602 4.50001L113.602 3.50001ZM109.616 3.50001L107.623 3.50001L107.623 4.50001L109.616 4.50001L109.616 3.50001ZM105.63 3.50001L103.638 3.50001L103.638 4.50001L105.63 4.50001L105.63 3.50001ZM101.645 3.50001L99.6516 3.50001L99.6516 4.50001L101.645 4.50001L101.645 3.50001ZM97.6587 3.50001L95.6657 3.50001L95.6657 4.50001L97.6587 4.50001L97.6587 3.50001ZM93.6728 3.50001L91.6798 3.50001L91.6798 4.50001L93.6728 4.50001L93.6728 3.50001ZM89.6869 3.50001L87.6939 3.50001L87.6939 4.50001L89.6869 4.50001L89.6869 3.50001ZM85.701 3.50001L83.708 3.50001L83.708 4.50001L85.701 4.50001L85.701 3.50001ZM81.7151 3.50001L79.7221 3.50001L79.7221 4.50001L81.7151 4.50001L81.7151 3.50001ZM77.7291 3.50001L75.7362 3.50001L75.7362 4.50001L77.7291 4.50001L77.7291 3.50001ZM73.7432 3.50001L71.7503 3.50001L71.7503 4.50001L73.7432 4.50001L73.7432 3.50001ZM69.7573 3.50001L67.7644 3.50001L67.7644 4.50001L69.7573 4.50001L69.7573 3.50001ZM65.7714 3.50001L63.7785 3.50001L63.7785 4.50001L65.7714 4.50001L65.7714 3.50001ZM61.7855 3.50001L59.7926 3.50001L59.7926 4.50001L61.7855 4.50001L61.7855 3.50001ZM57.7996 3.50001L55.8067 3.50001L55.8067 4.50001L57.7996 4.50001L57.7996 3.50001ZM53.8137 3.50001L51.8208 3.5L51.8208 4.5L53.8137 4.50001L53.8137 3.50001ZM49.8278 3.5L47.8349 3.5L47.8349 4.5L49.8278 4.5L49.8278 3.5ZM45.842 3.5L43.849 3.5L43.849 4.5L45.842 4.5L45.842 3.5ZM41.856 3.5L39.8631 3.5L39.8631 4.5L41.856 4.5L41.856 3.5ZM37.8701 3.5L35.8772 3.5L35.8772 4.5L37.8701 4.5L37.8701 3.5ZM33.8842 3.5L31.8913 3.5L31.8913 4.5L33.8842 4.5L33.8842 3.5ZM29.8983 3.5L27.9054 3.5L27.9054 4.5L29.8983 4.5L29.8983 3.5ZM25.9124 3.5L23.9195 3.5L23.9195 4.5L25.9124 4.5L25.9124 3.5ZM21.9265 3.5L19.9336 3.5L19.9336 4.5L21.9265 4.5L21.9265 3.5ZM17.9406 3.5L15.9477 3.5L15.9477 4.5L17.9406 4.5L17.9406 3.5ZM13.9547 3.5L11.9618 3.5L11.9618 4.5L13.9547 4.5L13.9547 3.5ZM9.96882 3.5L7.97587 3.5L7.97587 4.5L9.96882 4.5L9.96882 3.5ZM5.98292 3.5L3.98997 3.5L3.98997 4.5L5.98292 4.5L5.98292 3.5ZM1.99702 3.5L1.00001 3.5L1.00001 4.5L1.99702 4.5L1.99702 3.5ZM0.500009 4L0.500009 5.00862L1.50001 5.00862L1.50001 4L0.500009 4ZM0.500009 7.02586L0.500008 9.0431L1.50001 9.0431L1.50001 7.02586L0.500009 7.02586ZM0.500008 11.0603L0.500008 13.0776L1.50001 13.0776L1.50001 11.0603L0.500008 11.0603ZM0.500008 15.0948L0.500008 17.1121L1.50001 17.1121L1.50001 15.0948L0.500008 15.0948ZM0.500008 19.1293L0.500007 21.1465L1.50001 21.1465L1.50001 19.1293L0.500008 19.1293ZM0.500007 23.1638L0.500007 25.181L1.50001 25.181L1.50001 23.1638L0.500007 23.1638ZM0.500007 27.1983L0.500007 29.2155L1.50001 29.2155L1.50001 27.1983L0.500007 27.1983ZM0.500007 31.2328L0.500006 33.25L1.50001 33.25L1.50001 31.2328L0.500007 31.2328ZM0.500006 35.2672L0.500006 37.2845L1.50001 37.2845L1.50001 35.2672L0.500006 35.2672ZM0.500006 39.3017L0.500006 41.319L1.50001 41.319L1.50001 39.3017L0.500006 39.3017ZM0.500006 43.3362L0.500005 45.3534L1.50001 45.3534L1.50001 43.3362L0.500006 43.3362ZM0.500005 47.3707L0.500005 49.3879L1.50001 49.3879L1.50001 47.3707L0.500005 47.3707ZM0.500005 51.4052L0.500005 53.4224L1.5 53.4224L1.5 51.4052L0.500005 51.4052ZM0.500004 55.4397L0.500004 57.4569L1.5 57.4569L1.5 55.4397L0.500004 55.4397ZM0.500004 59.4741L0.500004 61.4914L1.5 61.4914L1.5 59.4741L0.500004 59.4741ZM0.500004 63.5086L0.500004 65.5259L1.5 65.5259L1.5 63.5086L0.500004 63.5086ZM0.500003 67.5431L0.500003 69.5604L1.5 69.5604L1.5 67.5431L0.500003 67.5431ZM0.500003 71.5776L0.500003 73.5948L1.5 73.5948L1.5 71.5776L0.500003 71.5776ZM0.500003 75.6121L0.500003 77.6293L1.5 77.6293L1.5 75.6121L0.500003 75.6121ZM0.500002 79.6466L0.500002 81.6638L1.5 81.6638L1.5 79.6466L0.500002 79.6466ZM0.500002 83.681L0.500002 85.6983L1.5 85.6983L1.5 83.681L0.500002 83.681ZM0.500002 87.7155L0.500002 89.7328L1.5 89.7328L1.5 87.7155L0.500002 87.7155ZM0.500001 91.75L0.500001 93.7673L1.5 93.7673L1.5 91.75L0.500001 91.75ZM0.500001 95.7845L0.500001 97.8017L1.5 97.8017L1.5 95.7845L0.500001 95.7845ZM0.500001 99.819L0.500001 101.836L1.5 101.836L1.5 99.819L0.500001 99.819ZM0.5 103.853L0.5 105.871L1.5 105.871L1.5 103.853L0.5 103.853ZM0.5 107.888L0.5 109.905L1.5 109.905L1.5 107.888L0.5 107.888ZM0.5 111.922L0.5 113.94L1.5 113.94L1.5 111.922L0.5 111.922ZM0.499999 115.957L0.499999 117.974L1.5 117.974L1.5 115.957L0.499999 115.957ZM0.499999 119.991L0.499999 121L1.5 121L1.5 119.991L0.499999 119.991Z" fill="#5A5A5B"/>
</svg>
