<svg width="194" height="53" viewBox="0 0 194 53" fill="none" xmlns="http://www.w3.org/2000/svg">
<path fill-rule="evenodd" clip-rule="evenodd" d="M142.38 7.20223C151.704 8.00094 159.015 10.1045 166.313 12.4044C190.246 19.9547 196.476 28.612 179.188 36.4549C152.307 48.6126 92.6941 54.3099 46.1462 46.9082C35.8371 45.2736 23.0837 43.6207 13.1001 38.3913C3.81281 33.5286 5.27693 28.8999 9.98127 24.5664C14.7734 20.121 23.1836 16.4119 30.237 14.0698C61.0734 3.85537 120.339 -3.40108 174.273 6.18055C175.382 6.36995 176.513 6.2515 176.856 5.91998C177.199 5.58845 176.666 5.17148 175.636 4.98753C120.118 -4.87424 57.3473 2.27935 25.6089 12.7912C16.8327 15.713 5.26404 20.8006 1.65967 26.6351C-0.776775 30.6247 0.450387 34.9567 8.49728 39.2012C19.0991 44.7694 33.955 46.7318 44.8982 48.4703C92.9526 56.1135 156.065 50.9943 183.775 38.4342C202.386 30.0065 194.44 19.5865 168.702 11.4701C160.856 8.97968 152.832 6.74266 142.711 5.87608C141.595 5.78078 140.619 6.00076 140.593 6.37126C140.488 6.73633 141.344 7.11238 142.38 7.20223Z" fill="#F4774C"/>
</svg>
