<svg width="152" height="30" viewBox="0 0 152 30" fill="none" xmlns="http://www.w3.org/2000/svg">
<path fill-rule="evenodd" clip-rule="evenodd" d="M110.636 4.88869C117.9 5.47628 123.618 6.77423 129.328 8.18323C148.055 12.8085 153.026 17.805 139.691 21.9995C118.957 28.5005 72.6679 30.8665 36.3521 25.9982C28.3092 24.9226 18.3647 23.8013 10.5229 20.6931C3.22815 17.803 4.30006 15.201 7.89676 12.8131C11.5601 10.3632 18.0486 8.38291 23.5014 7.15766C47.3405 1.81521 93.3368 -1.43944 135.43 4.77126C136.295 4.89465 137.173 4.84388 137.435 4.66097C137.697 4.47805 137.277 4.23403 136.473 4.11488C93.144 -2.2775 44.4193 0.868115 19.8828 6.36608C13.0982 7.8949 4.17282 10.6107 1.45349 13.8651C-0.38403 16.0908 0.63325 18.5636 6.9542 21.0855C15.2817 24.3946 26.8662 25.7217 35.4039 26.8653C72.8951 31.8924 121.915 29.9047 143.288 23.1876C157.643 18.6808 151.311 12.6606 131.173 7.68832C125.033 6.1634 118.759 4.77951 110.874 4.14191C110.005 4.07176 109.248 4.18229 109.234 4.3919C109.157 4.59727 109.829 4.82277 110.636 4.88869Z" fill="#F4774C"/>
</svg>
