<svg width="122" height="159" viewBox="0 0 122 159" fill="none" xmlns="http://www.w3.org/2000/svg">
<path d="M79.8651 127.675L79.5688 125.015L83.0276 127.053L81.6685 129.359L79.8651 127.675Z" fill="white"/>
<path d="M12.1164 110.578L14.0069 105.789L15.9294 110.961L17.8809 113.975L16.6104 115.867L14.0679 113.592L12.1164 110.578Z" fill="white"/>
<path d="M22.3692 101.087L17.2857 102.596L17.9057 99.699L20.4772 99.8166L25.6203 100.052L27.2466 102.564L22.3692 101.087Z" fill="white"/>
<path d="M30.381 110.159L29.5228 106.08L27.5437 111.283L24.4408 113.648L23.7612 114.801L25.1508 116.397L28.8447 113.293L30.381 110.159Z" fill="white"/>
<path d="M83.4988 116.767L79.6277 120.699L79.0948 117.123L83.0544 112.777L91.1828 113.218L95.0264 117.503L93.904 120.725L91.9524 117.711L88.9961 115.347L83.4988 116.767Z" fill="white"/>
<path d="M90.1225 130.303L95.264 124.479L91.0967 125.751L89.501 127.14L88.7329 128.707L90.1225 130.303Z" fill="white"/>
<path d="M96.0336 90.9969L89.8262 89.6684L85.2786 106.872L85.2205 111.187L93.0833 112.87L96.0336 90.9969Z" fill="white"/>
<path d="M45.8847 135.227L26.9968 132.483L25.2239 134.701L24.781 136.77L26.4073 139.282L29.5408 140.818L31.3732 140.344L32.6147 140.61L41.2165 142.884L46.7138 141.464L47.4224 138.153L45.8847 135.227Z" fill="white"/>
<path d="M71.3046 139.803L52.4167 137.058L50.6438 139.276L50.2009 141.345L51.8272 143.857L54.9607 145.393L56.7931 144.92L58.0346 145.185L66.6364 147.459L72.1338 146.039L72.8423 142.728L71.3046 139.803Z" fill="white"/>
<path d="M30.6483 77.0029L24.4409 75.6743L20.721 93.055L19.9238 96.7795L26.7222 97.369L30.6483 77.0029Z" fill="white"/>
<path d="M52.528 104.19L41.6204 100.557L38.1066 114.953L37.398 118.263L49.7243 121.334L52.528 104.19Z" fill="white"/>
<path d="M48.2764 124.054L37.0145 122.076L35.2431 130.353L36.2188 131.86L46.2392 133.572L48.2764 124.054Z" fill="white"/>
<path d="M56.2273 125.323L68.5535 128.394L66.7821 136.67L65.137 137.617L54.1902 134.841L56.2273 125.323Z" fill="white"/>
<path d="M72.5095 105.871L61.0705 104.721L57.5567 119.116L56.8481 122.427L69.1744 125.498L72.5095 105.871Z" fill="white"/>
<path d="M89.7556 87.6271L93.9233 64.3975L102.381 66.2075L98.7065 87.1306L97.444 89.2726L89.7556 87.6271Z" fill="white"/>
<path d="M24.5691 72.8716L28.4077 51.1797L36.8649 52.9898L32.422 73.7483L30.7198 74.188L24.5691 72.8716Z" fill="white"/>
<path d="M31.6592 96.0986L38.8428 55.0213L91.2881 65.4419L83.0066 107.892L31.6592 96.0986Z" fill="white"/>
<path d="M84.354 16.2017L83.9245 22.421L87.373 23.1591L86.9404 16.7552L84.354 16.2017Z" fill="white"/>
<path d="M67.1118 12.5117L64.9581 18.362L61.5096 17.6239L64.5255 11.9582L67.1118 12.5117Z" fill="white"/>
<path d="M50.6106 17.9966L52.7038 16.6414L89.7748 24.5756L98.2114 27.2828L92.6155 57.6414L83.6253 57.5205L55.8531 52.4781L42.4283 47.8016L50.6106 17.9966Z" fill="white"/>
<path d="M44.6139 45.9867C44.7512 45.8824 44.7512 45.8824 44.7677 45.7615C45.0147 43.9492 45.3826 42.1535 45.7339 40.4785C46.3873 37.4909 47.0242 34.6242 47.7983 31.6531L48.5066 29.1654C48.5066 29.1654 48.9403 26.8862 49.4784 24.7444C49.8956 22.5862 51.297 19.9204 51.1432 20.1456C51.7581 16.5375 51.8623 13.9674 49.3803 19.5361C48.6665 21.1617 47.0565 23.5529 46.4635 25.195C45.8705 26.837 45.4641 28.0122 45.4641 28.0122L44.69 30.9833C43.9158 33.9544 43.2625 36.9419 42.6091 39.9294C42.2413 41.7253 41.8734 43.5211 41.6264 45.3334C41.6099 45.4542 41.7143 45.5915 41.7143 45.5915C42.6919 47.4476 44.0319 46.6458 44.6139 45.9867Z" fill="#F4774C"/>
<path d="M94.7601 24.7642C92.426 23.8307 89.2298 22.9029 87.5712 22.4307C87.725 22.2055 87.7579 21.9638 87.9117 21.7386C88.2521 21.0467 88.4882 20.2174 88.587 19.4925C88.8067 18.7841 88.8726 18.3008 88.8726 18.3008L88.9384 17.8175L89.0537 16.9718L89.1963 15.0222L87.2798 14.6379L85.8464 14.3194C85.2587 14.1163 84.6547 14.0339 84.0341 14.0724L82.3261 13.9627L82.0023 17.2413L81.8926 18.9492C81.7938 19.6741 81.8323 20.2947 81.7335 21.0196L65.7084 17.6047C65.7249 17.4839 65.8457 17.5003 65.8621 17.3795C66.1861 16.8083 66.5266 16.1163 66.8506 15.5452C67.0537 14.9575 67.2404 14.4908 67.2404 14.4908C67.3392 13.7659 67.4381 13.041 67.5369 12.3161L67.6851 11.2287L66.7679 10.7345C66.1967 10.4105 65.8343 10.3611 65.4718 10.3117C65.1094 10.2623 64.8678 10.2293 64.4888 10.3007C64.368 10.2842 64.1099 10.3722 63.8683 10.3392L63.1268 10.3612L61.7485 10.5425L61.1445 13.1676C61.0786 13.6509 60.8755 14.2385 60.8096 14.7218C60.7438 15.205 60.6614 15.8092 60.5791 16.4133C60.5791 16.4133 60.5791 16.4132 60.5626 16.534L57.8167 15.9137L52.4293 14.8101C52.3085 14.7936 52.1711 14.898 52.1711 14.898C50.1777 15.98 50.9795 17.32 51.6386 17.902C51.7429 18.0393 51.7429 18.0393 51.8638 18.0558L57.2512 19.1593L83.0682 24.7704L85.5724 25.3578C85.5724 25.3578 94.7382 26.7302 94.2714 26.5435C98.0333 26.9332 100.395 26.7629 94.7601 24.7642ZM63.9126 17.2368C63.9291 17.116 63.962 16.8744 63.9785 16.7536C64.0279 16.3911 64.0773 16.0286 64.1267 15.6662C64.1487 16.4076 64.1872 17.0281 64.1872 17.0281C64.1707 17.1489 64.1707 17.1489 64.275 17.2862L63.9126 17.2368ZM84.9461 21.8267C84.9406 20.9645 85.0559 20.1187 85.1712 19.273L85.2974 17.4442L85.6599 17.4937L85.6104 17.8562C85.6104 17.8562 85.7203 18.8556 85.8466 19.7343C85.973 20.613 86.0994 21.4916 86.0994 21.4916C86.0829 21.6124 86.1708 21.8706 86.2752 22.0079L84.9461 21.8267Z" fill="#F4774C"/>
<path d="M95.3075 49.6984C95.6589 48.0234 95.9444 46.8316 95.9444 46.8316L96.3561 43.8112C96.9545 40.3239 97.5364 36.9574 98.36 33.6239C98.8322 31.9654 99.3209 30.186 99.9139 28.544C99.9303 28.4232 99.9468 28.3023 99.826 28.2859C99.1229 26.221 97.5908 26.6275 96.8879 27.2701C96.7506 27.3744 96.7505 27.3744 96.7341 27.4952C96.1246 29.2581 95.5151 31.021 95.01 32.9211C94.17 36.3755 93.4508 39.8463 92.9732 43.3501L92.6109 46.0081C92.6109 46.0081 92.4188 48.3201 92.2432 50.5113C92.0676 52.7025 91.892 54.8938 91.9085 54.7729C91.8975 55.756 91.7822 56.6017 91.8207 57.2222C91.3374 57.1564 90.7498 56.9532 90.0249 56.8544C86.5541 56.1351 81.6334 55.2184 81.6334 55.2184L78.5965 54.9274C68.9145 53.7308 58.8426 51.6821 49.3253 49.2773C47.5459 48.7886 44.6455 46.8013 42.8661 46.3126C42.7453 46.2962 42.6081 46.4005 42.6081 46.4005C40.6311 47.3617 41.2956 48.8059 41.8339 49.3716C41.9382 49.5088 41.9382 49.5089 42.059 49.5254C43.8384 50.014 47.838 51.6803 49.6339 52.0482C59.272 54.4694 68.3491 56.9765 78.2727 58.206L80.9307 58.5683C80.9307 58.5683 81.5348 58.6507 82.397 58.6452C83.2592 58.6396 84.363 58.667 85.5877 58.7108C87.9162 58.7821 90.1403 58.7161 89.8987 58.6831C90.7609 58.6776 91.5187 58.5348 92.1393 58.4963C92.2437 58.6336 92.3645 58.65 92.3974 58.4084C93.655 58.2106 94.1877 57.914 92.8916 57.4913C93.0948 56.9036 93.4353 56.2117 93.7043 55.1408C94.4346 53.3943 94.9561 51.3734 95.3075 49.6984Z" fill="#F4774C"/>
<path d="M59.6581 25.8868C60.2951 25.7275 60.7784 25.7934 61.2287 26.1009C61.2287 26.1009 61.366 25.9966 61.4869 26.0131C62.2612 25.7494 63.0355 25.4857 63.2386 24.8981C63.4253 24.4313 63.2825 23.6735 62.9695 23.2616C62.8651 23.1243 62.8651 23.1243 62.7443 23.1079C61.5855 22.5807 60.2565 22.3996 58.9989 22.5973C57.7413 22.7951 56.676 23.3883 55.8358 24.1352C54.721 25.0908 53.782 26.5627 53.5514 28.2541C53.502 28.6166 53.557 29.1164 53.5076 29.4788C53.579 29.8577 53.6504 30.2366 53.7218 30.6155C53.8811 31.2526 54.2656 32.0434 54.6665 32.7134C55.397 33.6744 56.402 34.4266 57.5772 34.833C57.5772 34.833 58.4066 35.0691 59.5104 35.0965C60.6142 35.1239 62.0255 34.7009 63.2282 34.0034C63.7773 33.586 64.3265 33.1686 64.7713 32.6139C65.2161 32.0592 65.5401 31.488 65.606 31.0048C65.875 29.9339 65.7321 29.1761 65.7157 29.2969C65.5179 28.0393 64.771 27.1991 64.2163 26.7543C63.6616 26.3095 63.1948 26.1227 62.9532 26.0898C62.7115 26.0569 62.7994 26.315 62.9751 26.8312C63.0795 26.9685 63.1839 27.1058 63.1674 27.2266C63.2717 27.3639 63.3596 27.622 63.464 27.7593C63.6562 28.1547 63.832 28.6709 63.7497 29.275C63.6893 30.6204 62.0748 31.631 60.8172 31.8288C60.1801 31.9881 59.5761 31.9058 59.2136 31.8564C58.8511 31.807 58.6095 31.774 58.6095 31.774C58.0054 31.6917 57.4507 31.2469 57.1377 30.835C56.929 30.5604 56.7368 30.1651 56.6818 29.6653C56.5939 29.4072 56.6104 29.2864 56.506 29.1491C56.5225 29.0283 56.4346 28.7702 56.5719 28.6659C56.6707 27.9409 57.0112 27.2489 57.7141 26.6063C58.5049 26.2219 59.1584 25.9418 59.6581 25.8868Z" fill="#F4774C"/>
<path d="M89.5795 33.9038C89.4916 33.6457 89.508 33.5249 89.508 33.5249C89.0521 32.3552 88.4096 31.6523 87.7177 31.3118C87.163 30.867 86.6961 30.6803 86.438 30.7682C86.1964 30.7353 86.2843 30.9935 86.4601 31.5097C86.6688 31.7842 86.8774 32.0587 87.0697 32.4541C87.2619 32.8495 87.5585 33.3822 87.5969 34.0028C87.6683 34.3817 87.6354 34.6233 87.4652 34.9693C87.3114 35.1945 87.1413 35.5405 86.8667 35.7492C86.4383 36.1831 85.664 36.4468 85.027 36.606C84.3899 36.7653 83.7859 36.683 83.4069 36.7544C83.0445 36.705 82.8028 36.6721 82.8028 36.6721C82.0779 36.5733 81.5068 36.2492 81.0564 35.9417C80.5182 35.3761 80.271 34.481 80.4028 33.5145C80.4687 33.0312 80.5181 32.6687 80.8091 32.3392C80.9793 31.9932 81.2539 31.7845 81.6657 31.4715C82.6103 30.8619 84.2139 30.8343 85.6143 31.3944C85.7351 31.4109 85.8724 31.3065 85.8724 31.3065C86.784 30.9385 87.3496 30.4002 87.4155 29.917C87.4814 29.4337 87.2013 28.7802 86.8882 28.3683C86.7839 28.231 86.7839 28.2311 86.663 28.2146C85.6086 27.8247 84.5212 27.6765 83.4009 27.77C82.2971 27.7426 81.1438 28.0776 79.9576 28.6543C79.1504 29.1596 78.4475 29.8021 77.9698 30.5985C77.4921 31.3948 77.2395 32.3449 77.1242 33.1906C77.1297 34.0528 77.0145 34.8986 77.2617 35.7937C77.5088 36.6889 77.8768 37.6004 78.6402 38.3198C79.5079 39.1765 80.6667 39.7036 81.7376 39.9726C81.7376 39.9726 82.4625 40.0715 83.5664 40.0989C84.5659 39.989 85.9607 39.6868 87.1799 38.8685C88.3825 38.171 89.4258 36.8365 89.4697 35.6118C89.7223 34.6617 89.6509 34.2828 89.5795 33.9038Z" fill="#F4774C"/>
<path d="M86.5849 52.9414L86.4705 52.8994C86.093 52.866 85.7496 52.7397 85.4063 52.6135C84.8802 52.6309 82.2339 49.8365 80.5292 49.526C77.1198 48.905 72.6651 47.4955 72.6651 47.4955L69.7357 46.6292L60.2608 43.7777L53.6377 43.5865C53.5233 43.5444 53.443 43.4095 53.443 43.4095C53.0074 42.8275 52.9284 43.5796 53.0651 43.208C49.0596 41.7351 52.6073 43.0397 51.3484 42.5768C51.3826 42.4839 51.3826 42.4839 51.4168 42.391C51.4851 42.2052 51.5534 42.0194 51.6559 41.7407C51.8267 41.2762 51.8831 40.7697 51.8831 40.7697C51.8831 40.7697 52.5458 40.3806 52.6602 40.4227C52.8088 40.3719 53.0719 40.3631 53.335 40.3544C53.4255 39.755 54.1684 39.5009 54.6142 39.3485C54.7628 39.2977 54.7629 39.2977 54.8773 39.3397L61.5005 39.5309L71.5476 42.5928L73.985 43.3837C73.985 43.3837 82.7169 46.4892 82.225 46.4138C82.9116 46.6663 84.6222 48.7396 85.08 48.908C85.2627 48.7643 83.2675 48.3866 83.2675 48.3866C83.7133 48.2342 86.6122 48.6278 87.128 49.3447C87.4833 49.7918 87.6558 50.3825 87.6558 50.3825C87.6558 50.3825 87.4167 51.0327 87.2118 51.5901C87.1093 51.8688 86.5849 52.9414 86.9043 52.4262C86.6191 52.8486 86.5849 52.9414 86.5849 52.9414ZM84.6188 49.5728C84.2413 49.5394 82.2848 48.0177 81.7928 47.9422C77.862 46.2277 73.3734 44.8826 73.3734 44.8826L62.0836 42.3914L58.0379 42.034L54.8591 41.115C55.7746 41.4517 72.2887 42.2847 81.3868 47.3427C82.8347 48.1476 84.5365 49.3503 84.8457 49.5695C84.914 49.3837 84.3229 50.1522 84.3912 49.9664C84.4937 49.6878 84.5505 49.7585 84.6188 49.5728Z" fill="#F4774C"/>
<path d="M70.5514 83.6862C70.1548 84.1808 69.5279 84.7539 68.9011 85.3269C68.2742 85.9 67.5543 86.3506 66.8344 86.8012L64.8902 88.1825C64.5229 88.4616 64.1702 88.6331 63.8029 88.9122C63.5434 89.2061 63.1908 89.3775 62.9312 89.6714L61.4326 91.0036L61.0507 91.3905L60.9136 91.5913L60.7911 91.6844L62.2065 91.7676C64.0529 91.9095 65.8993 92.0514 67.7309 92.3011L68.4852 92.4039L69.1316 92.492L70.4099 92.776C71.2719 92.8935 72.1192 93.1187 72.8587 93.3292L73.1819 93.3733L73.5052 93.4174L73.8138 93.5692L75.0627 94.0687L75.6944 94.2645L76.003 94.4164L76.2185 94.4457L76.3262 94.4604C76.3262 94.4604 76.3262 94.4604 76.3409 94.3526L76.6249 93.0744L76.9089 91.7961L77.1341 90.9489L77.5258 89.6853C77.9763 87.9907 78.5346 86.3108 79.0928 84.6309C79.651 82.9511 80.1162 81.1487 80.3805 79.2093C80.5127 78.2396 80.6301 77.3776 80.6693 76.2854C80.728 75.8544 80.679 75.4088 80.63 74.9631L80.6104 74.3019L80.5467 73.964L80.5614 73.8563C80.5614 73.8563 80.5614 73.8563 80.4536 73.8416L80.2381 73.8122L78.0048 73.2883L67.5779 70.8793L62.357 69.7287C60.5547 69.2636 58.9532 68.9355 57.2587 68.4851C55.5641 68.0346 53.7618 67.5694 51.8224 67.3051C51.3914 67.2463 50.8526 67.1728 50.4069 67.2218C50.0837 67.1778 49.6527 67.119 49.2218 67.0603C48.7908 67.0016 48.1443 66.9134 47.3607 67.0261C46.5771 67.1388 45.8425 67.6972 45.4458 68.1918C44.5448 69.1665 44.2901 70.2293 43.9425 71.1697C43.7025 72.1247 43.5704 73.0944 43.3451 73.9417L43.1689 75.2346C43.1248 75.5579 42.9584 75.9742 42.8996 76.4052L42.3169 79.0695C41.9889 80.671 41.6462 82.3802 41.4259 83.9964C41.4112 84.1042 41.5042 84.2266 41.5042 84.2266C41.9548 84.9465 42.3712 85.113 42.8022 85.1718C42.2341 85.3138 42.9295 85.8476 45.6575 86.7682C47.1219 87.297 48.9095 87.8699 50.3739 88.3988C50.6825 88.5506 51.1134 88.6093 51.3142 88.7464C51.6228 88.8982 51.8383 88.9276 52.0538 88.957C52.4701 89.1235 52.7933 89.1675 52.7933 89.1675C53.3174 89.3487 53.9492 89.5446 54.5956 89.6327C54.9189 89.6768 55.2274 89.8285 55.5506 89.8726C55.9816 89.9313 56.4127 89.9901 56.9514 90.0635C57.1669 90.0929 57.5048 90.0292 57.7203 90.0586C57.9357 90.088 58.3962 89.9312 58.6263 89.8529C59.6695 89.4463 60.4041 88.8879 61.0162 88.4226L61.7508 87.8643C61.9957 87.6782 62.1181 87.5851 62.4854 87.3059L63.9546 86.1892C64.934 85.4447 65.8989 84.808 66.8636 84.1713C67.8284 83.5345 68.8862 83.0202 69.807 82.7067C70.2673 82.55 70.713 82.501 71.0362 82.545C71.1439 82.5597 71.2517 82.5744 71.2517 82.5744C71.2517 82.5744 71.2517 82.5744 71.3594 82.5891L71.4525 82.7115C71.4525 82.7115 71.4525 82.7115 71.4378 82.8193C70.9481 83.1915 70.811 83.3923 70.5514 83.6862ZM73.9747 82.7261C73.9257 82.2804 73.8767 81.8347 73.5975 81.4674C73.3331 80.9924 72.9461 80.6104 72.4368 80.3215C71.9274 80.0325 71.4034 79.8514 70.9724 79.7926C70.0027 79.6605 69.2044 79.8809 68.5139 80.116C67.1328 80.5862 66.0602 81.2083 64.8653 81.9234C63.7781 82.6532 62.7986 83.3976 61.8191 84.1421L60.35 85.2589C60.2276 85.3519 59.8602 85.6311 59.6154 85.8173L58.8808 86.3756C58.3911 86.7478 57.7936 87.1054 57.441 87.2768C57.2108 87.3552 57.2108 87.3552 56.8729 87.4189C56.6574 87.3895 56.3194 87.4532 56.1039 87.4238C55.9962 87.4091 55.7807 87.3798 55.673 87.3651L55.5652 87.3504L55.3497 87.321L55.0265 87.2769C54.4877 87.2035 54.0715 87.037 53.5474 86.8558C53.5474 86.8558 53.0087 86.7824 52.2691 86.5719C51.4072 86.4544 50.4374 86.3222 49.4824 86.0823C47.543 85.818 45.4958 85.5389 45.7113 85.5683C44.6338 85.4214 43.7572 85.4116 43.096 85.4313C43.4486 85.2598 43.6935 85.0738 43.9531 84.7799C44.0755 84.6868 44.0755 84.6868 44.0902 84.5791C44.2958 83.0706 44.6238 81.4691 44.9372 79.9754L45.5052 77.4188C45.5639 76.9878 45.7304 76.5715 45.8038 76.0328L45.9947 74.6321C46.1122 73.7701 46.2297 72.9081 46.4402 72.1686C46.6508 71.429 46.9691 70.7042 47.2286 70.4104C47.3657 70.2096 47.4735 70.2242 47.596 70.1311C47.7037 70.1458 48.0416 70.0822 48.3648 70.1262C48.7958 70.185 49.2269 70.2437 49.7656 70.3172C50.1966 70.3759 50.6422 70.3269 50.9655 70.371C52.5817 70.5913 54.2762 71.0417 55.9708 71.4922C57.6654 71.9427 59.5901 72.3148 61.1769 72.7505L66.3978 73.9012L76.717 76.2954L77.0402 76.3395C77.0452 77.1084 76.9276 77.9704 76.8101 78.8324C76.5898 80.4486 76.1394 82.1431 75.5812 83.823C75.1307 85.5176 74.5725 87.1975 73.9996 88.9851L73.5931 90.3564L73.5344 90.7874L73.1181 90.6209C72.1631 90.381 71.3158 90.1557 70.3608 89.9158C69.9298 89.8571 69.4988 89.7984 68.9747 89.6172L67.6818 89.4409L67.9267 89.2548C68.6613 88.6965 69.3811 88.2459 70.1304 87.5797C70.865 87.0214 71.6143 86.3553 72.2852 85.459C72.6672 85.0721 72.9562 84.5627 73.1667 83.8232C73.8573 83.5881 73.916 83.157 73.9747 82.7261Z" fill="#F4774C"/>
<path d="M96.2801 117.154C95.8589 116.218 95.423 115.39 94.8646 114.656C94.5854 114.289 94.3063 113.921 93.9047 113.647C93.934 113.432 93.7479 113.187 93.361 112.805C92.6802 112.163 91.6615 111.585 91.6615 111.585C91.6615 111.585 89.9669 111.135 88.2576 110.792C87.4104 110.567 86.5484 110.449 85.9166 110.254C85.8088 110.239 85.5934 110.21 85.4856 110.195C85.515 109.979 85.6374 109.886 85.6668 109.671C86.7245 106.742 87.9731 102.412 87.9731 102.412L88.5558 99.7482L89.5399 94.9437C89.8386 93.5577 90.0295 92.157 90.3135 90.8787C92.2382 91.2508 95.118 91.8628 95.118 91.8628C95.118 91.8628 95.2257 91.8775 95.4412 91.9069L94.4718 96.6037L94.0997 98.5284L93.6835 100.776C93.6835 100.776 92.4596 108.95 92.6114 108.642C92.2786 111.889 92.3694 114.653 94.044 109.613C95.1017 106.685 96.5046 101.819 96.5046 101.819L97.0872 99.1551L97.4593 97.2303L98.4434 92.4258C98.4581 92.3181 98.3651 92.1957 98.3651 92.1957C98.179 91.9508 98.1006 91.7206 97.9145 91.4757C98.2818 91.1966 98.3405 90.7656 97.5373 90.2171C97.645 90.2318 97.645 90.2318 97.6597 90.124C98.458 89.9036 99.0701 89.4383 97.9877 88.5225C97.3069 87.881 96.3813 87.4256 96.3813 87.4256C96.3813 87.4256 91.2535 86.3974 90.1908 86.1428C90.3572 85.7265 90.6608 85.1094 90.8714 84.3699C91.9438 81.3333 93.0847 76.9892 93.0847 76.9892L93.5595 74.3102L94.4506 69.3832C94.7493 67.9972 94.9255 66.7042 95.2242 65.3182C97.0412 65.6756 100.352 66.3464 100.352 66.3464C100.352 66.3464 100.798 66.2975 101.243 66.2485L100.289 70.8375L99.5443 74.6869L99.1282 76.935C99.1282 76.935 97.9043 85.109 98.0561 84.8004C97.7233 88.0475 97.9683 90.2759 99.6429 85.2362C100.701 82.3075 101.949 77.978 101.949 77.978L102.532 75.3137L103.384 71.4789L104.368 66.6744C104.383 66.5666 104.29 66.4442 104.29 66.4442C104.025 65.9691 103.746 65.6018 103.437 65.45C103.467 65.2345 103.295 64.8819 102.894 64.6077C102.213 63.9661 101.287 63.5107 101.287 63.5107C101.287 63.5107 94.9889 62.2132 94.8812 62.1985C94.8812 62.1985 94.8665 62.3063 94.7588 62.2916C94.607 62.6001 94.4552 62.9087 94.4111 63.2319C93.7793 63.0361 93.1818 63.3936 92.7998 63.7806C92.6774 63.8736 92.6774 63.8737 92.6627 63.9814C92.5893 64.5201 92.4228 64.9364 92.3493 65.4751C91.5755 64.7111 90.6254 65.2401 90.2288 65.7348C90.1063 65.8279 90.1063 65.8279 90.0916 65.9356L89.1075 70.7402L83.9617 95.6101L83.5455 97.8581C83.5455 97.8581 82.3215 106.032 82.4734 105.724C82.3705 106.478 82.3902 107.139 82.3168 107.678C81.8074 107.389 81.1756 107.193 80.2353 106.845C77.3212 105.68 73.0064 104.323 73.0064 104.323L56.0657 100.588C52.9851 99.8384 49.782 99.1824 46.7161 98.3255L44.3898 97.6791C43.5425 97.4538 42.7882 97.3511 41.941 97.1258C40.3395 96.7978 38.738 96.4697 37.2442 96.1564C35.6427 95.8283 34.1637 95.4072 32.6993 94.8784C32.5915 94.8637 32.4691 94.9567 32.4691 94.9567C31.7785 95.1919 31.4112 95.471 31.2447 95.8873C31.5337 95.378 31.7442 94.6385 32.1066 93.5904C33.1643 90.6616 34.4129 86.3321 34.4129 86.3321L34.9955 83.6678L39.7986 60.5072L40.68 56.4569L44.0985 57.1423C47.1937 57.7837 50.3037 58.3174 53.399 58.9588C54.8927 59.2721 56.4942 59.6001 57.9733 60.0212C59.4524 60.4423 61.0392 60.8781 62.6408 61.2062C65.7213 61.9553 68.9243 62.6114 72.0343 63.1451L76.7458 64.0068L79.8557 64.5404C79.8557 64.5404 88.0885 65.3334 87.6575 65.2746C90.9193 65.4997 93.1624 65.147 87.9856 63.6731C84.9344 62.7085 80.5755 61.6753 80.5755 61.6753L77.681 61.1711L72.9696 60.3094C69.7519 59.761 66.6566 59.1197 63.576 58.3705C61.9745 58.0425 60.4954 57.6214 58.9086 57.1856C57.3218 56.7498 55.7202 56.4217 54.1187 56.0937C50.9157 55.4376 47.7127 54.7815 44.6028 54.2479L39.906 53.2784C39.7982 53.2638 39.6758 53.3568 39.6758 53.3568C38.9706 53.6997 38.6963 54.1013 38.6376 54.5323L38.8629 53.685C38.8776 53.5773 38.7845 53.4548 38.7845 53.4548C38.7845 53.4548 38.7992 53.3471 38.6914 53.3324C38.8139 53.2393 38.9363 53.1462 39.0587 53.0532C39.2105 52.7446 39.0391 52.392 38.4366 51.9807C37.7559 51.3391 36.6294 50.7466 36.6294 50.7466C35.4589 50.4773 34.1806 50.1933 33.0101 49.924C32.3636 49.8359 31.8396 49.6548 31.1931 49.5666C30.8699 49.5226 30.5466 49.4785 30.2234 49.4345C30.0079 49.4051 29.9001 49.3904 29.6846 49.361C29.5769 49.3463 29.4692 49.3317 29.3614 49.317C29.2537 49.3023 29.2537 49.3023 29.0235 49.3806C28.9158 49.3659 28.7933 49.459 28.7933 49.459C28.4554 49.5227 28.0881 49.8019 27.9363 50.1104L27.7992 50.3112L27.7698 50.5267C27.7551 50.6345 27.7404 50.7422 27.7257 50.85C27.7111 50.9577 27.7111 50.9577 27.6964 51.0655C27.6817 51.1732 27.7747 51.2956 27.76 51.4034C27.8531 51.5258 27.8384 51.6336 27.9462 51.6483L26.9914 56.2373L26.0954 60.3953L25.6792 62.6433C25.6792 62.6433 24.4553 70.8173 24.6071 70.5088C24.5093 72.0319 24.4555 73.2318 24.6122 73.6922C24.5829 73.9077 24.5682 74.0154 24.5388 74.2309C24.5388 74.2309 24.5241 74.3386 24.4163 74.324C24.2498 74.7403 24.0686 75.2643 24.0246 75.5875C23.4712 75.6219 23.1039 75.9011 22.8443 76.1949C22.7219 76.288 22.7219 76.288 22.7072 76.3957L21.7231 81.2003L21.3216 83.3405L20.9055 85.5885C20.9055 85.5885 19.6816 93.7625 19.8334 93.4539C19.7012 94.4237 19.6915 95.3003 19.7111 95.9615L19.6964 96.0693C19.2704 96.7794 19.1822 97.4259 19.1088 97.9646C18.8786 98.043 18.7709 98.0283 18.5407 98.1067C17.7277 98.4349 17.0078 98.8854 16.2879 99.3361C15.6611 99.9091 15.0489 100.374 14.5151 101.07C13.4622 102.353 12.6101 103.773 12.0813 105.238L11.763 105.963C11.7336 106.178 11.5965 106.379 11.5671 106.594L11.3712 107.226L11.2831 107.873C11.2831 107.873 11.2684 107.981 11.2244 108.304C11.195 108.519 11.1362 108.95 11.1852 109.396C11.1755 110.273 11.445 111.517 11.9593 112.574C12.4736 113.632 13.2327 114.504 13.8205 115.023C14.4082 115.542 14.8098 115.816 14.8245 115.709C16.3379 116.683 17.7239 116.982 18.0618 116.918C18.1695 116.933 18.1843 116.825 18.199 116.717C18.6446 116.668 19.105 116.512 19.3645 116.218C19.487 116.125 19.4869 116.125 19.5016 116.017L19.8787 114.861L20.0598 114.337L20.2411 113.813L20.618 112.657L19.4916 112.065C19.2908 111.927 19.0753 111.898 18.9823 111.776L18.7814 111.639C18.5953 111.394 18.3945 111.257 18.2084 111.012C17.8509 110.414 17.5227 109.601 17.41 108.818C17.3463 108.48 17.405 108.049 17.4491 107.725L17.5372 107.079L17.7184 106.555C18.2473 105.091 19.4716 104.16 21.0535 103.827C21.8371 103.714 22.7137 103.724 23.4679 103.827C24.3299 103.944 24.947 104.248 25.5494 104.659C26.1518 105.07 26.5094 105.668 26.7445 106.359C26.9797 107.049 27.0923 107.833 26.8818 108.572C26.6761 110.081 25.7017 111.594 24.3059 112.172L24.1834 112.265L24.0757 112.25L23.9532 112.343L23.2627 112.579L22.5722 112.814L22.4497 112.907L22.342 112.892L22.3273 113L22.391 113.338C22.44 113.783 22.4743 114.337 22.5233 114.783L22.6066 115.782C22.69 116.781 22.7733 117.78 22.8566 118.779L22.9693 119.562L23.077 119.577L23.1995 119.484L23.552 119.313C24.0124 119.156 24.4728 118.999 24.9478 118.735L26.3436 118.157C26.466 118.064 26.5738 118.078 26.6962 117.985L26.9411 117.799L27.2937 117.628C27.7687 117.363 28.2438 117.099 28.7335 116.727C29.5905 116.075 30.477 115.208 31.1479 114.312C32.5044 112.412 33.1654 109.977 32.9351 107.641C32.8076 104.551 31.3577 101.5 28.8843 99.5166C29.3594 99.2521 29.4181 98.8211 28.6296 98.1649C28.3357 97.9053 27.9341 97.6311 27.6255 97.4793C27.841 97.5086 28.2965 96.583 29.0212 94.4868C30.0789 91.558 31.3275 87.2286 31.3275 87.2286L31.9102 84.5643L32.2235 83.0705L33.2076 78.266C33.2223 78.1582 33.1293 78.0358 33.1293 78.0358C32.9578 77.6832 32.7717 77.4383 32.5709 77.3012C32.6002 77.0857 32.5366 76.7478 32.0419 76.3511C32.5953 76.3168 33.903 76.3853 33.903 76.3853C34.0107 76.4 34.0107 76.4 34.1332 76.3069L32.7916 82.9284L32.3755 85.1764C32.3755 85.1764 31.1516 93.3505 31.3034 93.0419C31.0733 95.5348 31.1469 97.4105 31.9059 95.8677C31.8912 95.9755 31.8765 96.0832 31.8618 96.191C31.7884 96.7297 32.0529 97.2048 32.3468 97.4643C32.4398 97.5868 32.4398 97.5867 32.5475 97.6014C34.1197 98.145 35.8143 98.5954 37.4158 98.9235C38.5863 99.1927 39.7715 99.3543 40.942 99.6236C40.6678 100.025 40.4866 100.549 40.4426 100.873C40.0116 100.814 39.659 100.985 39.4288 101.064C39.321 101.049 39.3211 101.049 39.3064 101.157C39.277 101.372 37.0934 113.366 37.0934 113.366C37.0934 113.366 36.9026 117.181 37.0397 116.981C37.1034 117.319 37.0446 117.75 37.123 117.98C36.5452 118.998 36.6432 119.89 36.7999 120.35L36.7852 120.458C36.6334 120.766 36.6041 120.982 36.5747 121.197C36.1731 120.923 35.8498 120.879 35.6196 120.958C35.5119 120.943 35.5119 120.943 35.4972 121.051C35.3454 121.359 34.7872 123.039 34.4298 124.856C33.9646 126.658 33.6219 128.368 33.6219 128.368C33.6219 128.368 33.6514 130.567 33.7738 130.474C33.7738 130.474 33.7738 130.474 33.7591 130.581C32.8041 130.341 31.7267 130.195 30.6345 130.155C29.6501 130.131 28.558 130.092 27.4218 130.376C27.1916 130.454 26.8536 130.518 26.6088 130.704L26.1485 130.861L25.7811 131.14C25.2914 131.512 24.787 131.992 24.498 132.502C23.8124 133.506 23.5432 134.676 23.3816 135.861C23.3278 137.061 23.4895 138.291 24.2193 139.378C24.4838 139.853 24.9638 140.357 25.4731 140.646C26.0756 141.057 26.6143 141.131 27.0306 141.297C27.9856 141.537 28.8623 141.547 29.6165 141.65C29.7243 141.665 29.8466 141.572 29.8466 141.572C30.4441 141.214 30.7184 140.812 30.7771 140.381C30.8702 140.504 30.978 140.519 31.1788 140.656C31.7028 140.837 32.4423 141.047 33.6912 141.547C35.1556 142.076 36.9285 142.756 38.4076 143.177C39.872 143.706 41.0572 143.868 41.0572 143.868C41.5959 143.941 42.027 144 42.5804 143.966L43.3493 143.961L43.7802 144.02L43.9957 144.049L44.3337 143.985C45.3327 143.902 46.5473 143.848 47.7276 143.241C48.0802 143.069 48.4622 142.682 48.7218 142.388L48.7071 142.496C48.8785 142.849 48.9569 143.079 49.1284 143.431C49.3145 143.676 49.5006 143.921 49.6867 144.166C50.4605 144.93 51.3862 145.385 52.1111 145.704C52.9437 146.037 53.7763 146.37 54.5158 146.58C54.6235 146.595 54.746 146.502 54.746 146.502C55.559 146.174 55.9409 145.787 55.9997 145.356C56.1074 145.37 56.2005 145.493 56.4159 145.522C56.94 145.703 57.6796 145.914 58.9578 146.198C60.4222 146.727 62.1952 147.408 63.6742 147.829C65.1533 148.25 66.3385 148.411 66.3385 148.411C66.8773 148.485 67.4306 148.45 67.8616 148.509C68.0771 148.538 68.415 148.475 68.6305 148.504L69.0762 148.455C69.184 148.47 69.184 148.47 69.2917 148.485L69.6297 148.421C70.521 148.323 71.765 148.053 72.7444 147.309C73.7239 146.564 74.4242 145.453 74.6004 144.16C74.6885 143.513 74.6542 142.96 74.6199 142.406C74.4778 141.838 74.4435 141.285 74.179 140.81C73.7725 139.767 72.8125 138.758 71.7791 138.288C70.7457 137.818 69.7906 137.578 68.9287 137.46C68.4977 137.402 68.0814 137.235 67.6504 137.176C67.8806 137.098 68.0177 136.897 68.2772 136.603C68.811 135.908 69.0656 134.845 69.0656 134.845C69.0656 134.845 69.1244 134.414 69.0901 133.861C69.0558 133.307 69.1733 132.445 69.1683 131.676C69.2711 130.922 69.2662 130.153 69.4474 129.629C69.5208 129.09 69.6726 128.782 69.6873 128.674C69.6873 128.674 69.5795 128.659 69.5942 128.552C68.8841 128.126 68.1445 127.915 67.5911 127.949C67.5127 127.719 67.2189 127.46 66.8172 127.185C66.0287 126.529 64.7945 125.922 64.7945 125.922C64.7945 125.922 64.2704 125.741 63.5162 125.638C62.7767 125.427 61.7139 125.173 60.6511 124.918C59.5883 124.664 58.4032 124.502 57.5412 124.385C57.4334 124.37 57.3257 124.355 57.218 124.34C57.2326 124.233 57.2473 124.125 57.1395 124.11L57.1542 124.003C59.4022 124.419 65.9013 125.853 65.9013 125.853C65.9013 125.853 68.8545 125.927 68.7468 125.912C69.9613 125.858 70.8037 125.314 69.0748 124.31C68.0708 123.625 66.6211 122.988 66.6211 122.988C66.6211 122.988 61.077 121.794 58.398 121.319C58.9954 118.547 60.949 109.045 60.949 109.045C60.949 109.045 61.1937 106.445 61.2034 105.568C63.4514 105.984 69.5342 107.252 69.5342 107.252C69.5342 107.252 70.5186 107.277 71.2875 107.272C71.2434 107.595 71.17 108.134 71.0819 108.78C70.9203 109.965 70.607 111.459 70.2937 112.953C69.9803 114.447 69.6522 116.048 69.3829 117.219C69.1136 118.389 69.0109 119.143 69.0109 119.143C69.0109 119.143 68.9815 119.359 69.0305 119.805C68.9864 120.128 69.0207 120.681 69.0697 121.127C69.0453 122.111 69.0879 124.318 69.0879 124.318C69.2006 125.102 69.5498 124.729 69.7653 124.758C70.0739 124.91 70.5049 124.286 70.882 123.13C71.0925 122.39 71.4255 121.558 71.6213 120.926C71.8172 120.294 71.9984 119.77 71.9984 119.77C71.9984 119.77 72.1012 119.016 72.3705 117.845C72.6398 116.675 72.9532 115.181 73.2812 113.58C73.6092 111.978 73.9373 110.377 74.1135 109.084C74.2898 107.791 74.2995 106.914 74.2995 106.914C74.9459 107.002 75.7002 107.105 76.4397 107.316C78.3645 107.688 80.3039 107.952 80.1962 107.937C81.2736 108.084 82.1356 108.202 82.7968 108.182C82.9241 108.858 83.125 108.995 83.5804 108.069L83.5951 107.962C83.7762 107.438 84.0799 106.82 84.4422 105.772C84.8193 104.617 85.211 103.353 85.588 102.197C85.2943 104.352 84.5256 109.186 84.6628 108.985C84.56 109.739 84.5796 110.401 84.5061 110.939C83.7078 111.16 82.8949 111.488 82.1897 111.831C80.4119 112.796 78.9917 114.358 78.2033 116.116C77.9291 116.518 77.7479 117.042 77.6892 117.473L77.508 117.997C77.4933 118.105 77.4933 118.105 77.4786 118.213L77.2681 118.952L77.1653 119.706L77.0625 120.46C77.0625 120.46 77.0478 120.568 77.1114 120.906C77.0821 121.122 77.1311 121.567 77.1948 121.905C77.2928 122.797 77.4692 123.918 77.9835 124.976C78.7819 127.17 80.3296 128.698 80.2512 128.468C81.5051 129.736 82.9695 130.265 83.3074 130.201C83.4151 130.216 83.4298 130.108 83.3515 129.878C83.9833 130.074 84.5807 129.716 84.9627 129.329C85.0851 129.236 85.0851 129.236 85.0998 129.129L85.7705 125.818L85.8146 125.495L85.8293 125.387L85.7216 125.372L85.2122 125.083C84.9037 124.931 84.4874 124.765 84.0711 124.599L83.7625 124.447C83.6547 124.432 83.6695 124.324 83.5617 124.31C83.4687 124.187 83.3609 124.172 83.2678 124.05C82.8809 123.668 82.6017 123.301 82.5674 122.747C82.5331 122.194 82.6065 121.655 82.8024 121.023C83.3019 119.774 84.3254 118.707 85.4126 117.977C86.6075 117.262 87.9592 117.007 89.1298 117.276C89.2375 117.291 89.453 117.32 89.5461 117.443C89.6538 117.458 89.8547 117.595 89.9624 117.609C90.1632 117.746 90.4717 117.898 90.6578 118.143C91.1525 118.54 91.5101 119.137 91.7599 119.72C92.2595 120.886 92.2841 122.316 91.7209 123.227C91.5691 123.535 91.4614 123.521 91.3243 123.721C91.2018 123.814 90.9716 123.893 90.5113 124.05C90.1587 124.221 89.4828 124.348 88.8706 124.814C88.6111 125.108 88.3663 125.294 88.1067 125.588C87.8471 125.881 87.6953 126.19 87.6513 126.513C87.4554 127.145 87.382 127.684 87.4163 128.237C87.3722 128.56 87.4409 129.667 87.676 130.358L87.9601 131.494L88.1022 132.062L88.0875 132.17L88.2099 132.077L88.5479 132.013L89.6841 131.729C90.022 131.665 90.4823 131.509 90.835 131.337C91.7557 131.024 92.0005 130.837 92.4609 130.681C92.8282 130.402 93.3032 130.137 93.6705 129.858C94.5128 129.314 95.1691 128.526 95.7176 127.722C96.2661 126.919 96.7214 125.994 97.0544 125.161C97.4021 124.221 97.642 123.266 97.6518 122.389C97.304 120.915 97.0295 118.902 96.2801 117.154ZM29.2669 108.788C29.3403 108.249 29.4285 107.602 29.3941 107.049C29.4578 107.387 29.4284 107.602 29.4921 107.94C29.5803 109.708 29.1446 111.295 28.1848 112.701C27.651 113.396 27.1318 113.984 26.4119 114.435C26.0446 114.714 25.692 114.885 25.3247 115.164L24.9722 115.336L24.9378 114.782L25.168 114.704C27.4208 113.475 28.836 111.143 29.2669 108.788ZM16.2104 113.593L16.5042 113.852L16.4895 113.96L16.2203 115.131C16.0341 114.886 15.7256 114.734 15.5395 114.489C15.0595 113.985 14.5941 113.372 14.2513 112.667C13.9084 111.962 13.6733 111.271 13.639 110.718C13.4969 110.15 13.5703 109.611 13.6291 109.18C13.6878 108.749 13.7172 108.534 13.7172 108.534C13.7906 107.995 13.8641 107.456 14.0453 106.932L14.0159 107.148C13.9278 107.794 13.9474 108.455 13.9817 109.009C14.1434 110.238 14.5353 111.389 15.1573 112.462C15.4512 112.721 15.8234 113.211 16.2104 113.593ZM25.9753 101.535C25.6667 101.383 25.466 101.246 25.1574 101.094L24.3248 100.761C24.0016 100.717 23.7861 100.687 23.4775 100.536C22.2923 100.374 21.2002 100.335 19.9562 100.604C19.1726 100.717 18.3596 101.045 17.6544 101.388C18.0217 101.109 18.3744 100.937 18.727 100.766C19.7848 100.252 21.0287 99.9823 22.3217 100.158C23.6146 100.335 24.8782 100.726 25.8823 101.412C25.8676 101.52 25.9753 101.535 25.9753 101.535ZM26.8663 94.193C26.7537 95.8239 26.6706 97.2393 26.8567 97.4842C26.4551 97.21 26.2395 97.1806 26.2395 97.1806C26.2395 97.1806 21.9737 96.2699 20.1567 95.9125C20.3379 95.3884 20.6562 94.6636 21.0039 93.7233C22.0616 90.7945 23.3102 86.465 23.3102 86.465L23.8929 83.8007L24.2943 81.6605L25.2197 77.287C26.929 77.6297 29.3777 78.1829 29.3777 78.1829C29.3777 78.1829 29.4855 78.1976 29.7157 78.1192L28.7903 82.4928L28.477 83.9865L28.0608 86.2345C27.9383 86.3276 26.7144 94.5016 26.8663 94.193ZM34.6904 57.7257L33.8384 61.5605L33.3145 63.7938C33.3145 63.7938 33.0355 65.841 32.6487 67.8735C32.3697 69.9207 32.1053 71.8601 32.1347 71.6446C32.0319 72.3988 32.0515 73.06 31.978 73.5987C31.8703 73.584 31.7773 73.4616 31.7773 73.4616C31.7773 73.4616 30.0827 73.0111 28.2804 72.546C27.4331 72.3207 26.4781 72.0808 25.8316 71.9927C25.6161 71.9633 25.4006 71.9339 25.1851 71.9046C25.3369 71.596 25.381 71.2728 25.5475 70.8565C26.6052 67.9277 27.8538 63.5982 27.8538 63.5982L28.4364 60.9339L29.3324 56.7759L30.2579 52.4023C30.7966 52.4757 31.3206 52.657 31.8594 52.7304C33.0299 52.9997 34.2004 53.269 35.3709 53.5383C35.3709 53.5383 35.3709 53.5383 35.4786 53.5529L34.6904 57.7257ZM33.6776 74.8181C33.3837 74.5585 33.1829 74.4214 32.9821 74.2843C33.1633 73.7603 33.4669 73.1432 33.7068 72.1881C34.0985 70.9245 34.6127 69.5679 35.0191 68.1966L33.6776 74.8181ZM37.7499 117.407C38.4795 116.079 39.0671 114.184 39.0671 114.184C39.0671 114.184 40.5506 105.716 41.0696 102.714C43.8416 103.311 49.1848 104.369 49.1848 104.369C49.1848 104.369 50.6002 104.452 51.4769 104.462C51.3251 104.77 51.2517 105.309 51.0705 105.833C50.7865 107.111 50.3507 108.698 50.1304 110.314C49.8024 111.916 49.582 113.532 49.4205 114.717C49.2589 115.902 49.1561 116.657 49.1561 116.657C49.1561 116.657 49.1317 117.641 49.1073 118.626C49.0829 119.61 49.0731 120.487 49.0878 120.379C49.1515 120.717 49.1075 121.04 49.1858 121.27C49.0928 121.148 48.8919 121.011 48.5834 120.859C47.5793 120.173 46.1297 119.537 46.1297 119.537C46.1297 119.537 39.8314 118.239 37.3826 117.686C37.5981 117.715 37.7205 117.622 37.7499 117.407ZM35.7181 129.092C35.7181 129.092 36.0608 127.383 36.526 125.581C36.7512 124.733 36.9764 123.886 37.1723 123.254C37.2017 123.039 37.2163 122.931 37.3388 122.838L37.4466 122.853C38.2938 123.078 39.3566 123.333 40.5418 123.494C42.7751 124.018 45.0084 124.542 45.0084 124.542C45.0084 124.542 46.8548 124.684 47.5159 124.664C47.3788 124.865 47.3495 125.081 47.3495 125.081C47.3495 125.081 46.3653 129.885 45.9785 131.918C45.3614 131.614 44.7297 131.418 44.7297 131.418C44.7297 131.418 38.5391 130.135 35.6594 129.523C35.6887 129.308 35.7181 129.092 35.7181 129.092ZM45.7734 140.669C45.4061 140.949 44.8233 141.198 44.0544 141.203C43.7164 141.267 43.163 141.301 43.0552 141.287C42.8398 141.257 42.6243 141.228 42.3941 141.306C41.9631 141.248 41.5174 141.297 41.0865 141.238C41.0865 141.238 40.6555 141.179 39.8866 141.184C39.1324 141.081 38.1626 140.949 37.1929 140.817C35.2682 140.445 33.221 140.166 33.4365 140.195C31.8203 139.975 30.4833 140.122 30.116 140.401L30.1307 140.293C30.0817 139.848 29.7094 139.358 29.4156 139.098C29.3225 138.976 29.3225 138.976 29.2148 138.961C28.3528 138.844 27.5985 138.741 26.952 138.653C26.6288 138.609 26.3203 138.457 26.3203 138.457C26.2272 138.334 26.0264 138.197 25.948 137.967C25.4043 137.125 25.4238 135.372 26.1094 134.367C26.2612 134.059 26.5061 133.873 26.6433 133.672C26.7657 133.579 27.0105 133.393 27.3484 133.329C27.9312 133.079 28.7002 133.074 29.4544 133.177C31.0853 133.29 32.7798 133.74 34.7192 134.005C36.5509 134.254 38.2602 134.597 40.0919 134.847C40.9538 134.964 41.8012 135.189 42.6484 135.415C43.4957 135.64 44.343 135.865 44.9601 136.169C45.5772 136.472 45.8711 136.732 46.1209 137.315C46.1993 137.545 46.263 137.883 46.3267 138.221C46.3903 138.559 46.3316 138.99 46.3953 139.328C46.3072 139.974 46.1407 140.39 45.7734 140.669ZM48.3827 123.136L48.2603 123.229C48.1525 123.215 48.0595 123.092 48.0595 123.092C47.751 122.94 47.457 122.681 47.2562 122.544C47.9174 122.524 48.5786 122.504 48.5786 122.504C48.7941 122.534 48.9165 122.441 49.132 122.47C48.7941 122.534 48.657 122.735 48.3827 123.136ZM67.4253 140.438C68.2726 140.663 69.0268 140.766 69.6586 140.962C70.2904 141.158 70.5696 141.525 70.8341 142C71.0986 142.475 71.2259 143.151 71.2602 143.704C71.2211 144.797 70.5649 145.585 69.2279 145.732C68.89 145.796 68.4443 145.845 68.2288 145.815L67.5676 145.835C67.122 145.884 66.691 145.825 66.26 145.767C66.26 145.767 65.8143 145.816 65.0601 145.713C64.3059 145.61 63.3362 145.478 62.3665 145.346C60.4417 144.974 58.3945 144.694 58.5953 144.832C56.9645 144.719 55.6274 144.866 55.2601 145.145C55.3189 144.714 55.0544 144.239 54.7605 143.98C54.6674 143.857 54.6675 143.857 54.5597 143.843C53.8202 143.632 53.0953 143.314 52.3704 142.995C51.7533 142.692 51.1363 142.388 50.7493 142.006C50.3624 141.624 50.284 141.394 50.3428 140.963C50.4015 140.532 50.8276 139.822 51.1165 139.313C51.376 139.019 51.8511 138.754 52.5416 138.519C53.2175 138.392 54.0011 138.279 54.77 138.274C56.3078 138.264 57.9387 138.377 59.648 138.719C61.2642 138.94 62.9587 139.39 64.5602 139.718C65.716 140.095 66.5633 140.321 67.4253 140.438ZM56.1016 130.115C56.2338 129.145 56.4591 128.298 56.5472 127.651C56.6549 127.666 56.6549 127.666 56.7627 127.681C57.5169 127.783 58.4866 127.916 59.4417 128.156C60.3967 128.395 61.4594 128.65 62.199 128.861C62.9385 129.071 63.4773 129.145 63.4773 129.145C63.4773 129.145 64.1384 129.125 64.7849 129.213C65.4461 129.193 66.0925 129.282 65.9995 129.159L66.1072 129.174C66.0925 129.282 66.0778 129.389 66.0631 129.497C65.975 130.144 65.8576 131.006 65.8625 131.774C65.8528 132.651 65.75 133.405 65.7843 133.959C65.8186 134.512 65.7598 134.943 65.7598 134.943C65.7598 134.943 65.9166 135.403 65.9656 135.849C66.1223 136.31 66.1713 136.755 66.1713 136.755C66.1713 136.755 66.1567 136.863 66.2644 136.878C65.2604 136.192 63.8106 135.555 63.8106 135.555C63.8106 135.555 57.8356 134.302 55.3721 133.856C55.4015 133.641 55.5533 133.332 55.612 132.901C55.6218 132.025 55.8617 131.07 56.1016 130.115ZM59.0779 105.059C58.3336 106.494 57.6235 108.482 57.6235 108.482C57.6235 108.482 54.9698 121.51 54.9404 121.725L55.0335 121.848C55.3273 122.107 55.6359 122.259 55.9445 122.411C55.9004 122.734 55.8563 123.057 55.827 123.273C55.5968 123.351 55.4597 123.552 55.2001 123.846C54.5586 124.527 53.9513 125.761 53.9513 125.761C53.9513 125.761 53.8926 126.192 53.6821 126.931C53.594 127.578 53.3541 128.533 53.2219 129.503C53.1044 130.365 52.8645 131.32 52.6686 131.951C52.4727 132.583 52.3062 133 52.3062 133L52.3992 133.122C52.8939 133.519 53.3103 133.685 53.7266 133.852C53.3005 134.562 53.2124 135.208 53.2614 135.654C52.9235 135.718 52.5855 135.781 52.2476 135.845C51.2191 136.144 50.0682 136.536 49.2749 137.525C49.2749 137.525 49.2602 137.633 49.1525 137.618C49.0888 137.28 49.1329 136.957 48.9468 136.712C48.8047 136.144 48.5696 135.453 48.0896 134.949C47.9035 134.704 47.6242 134.337 47.3157 134.185C47.9915 134.058 48.3589 133.779 48.0797 133.411L48.1874 133.426C48.2952 133.441 48.2952 133.441 48.2952 133.441C48.3099 133.333 49.8767 125.864 49.8767 125.864C49.8767 125.864 49.8765 123.45 49.7541 123.543C49.612 122.975 49.4552 122.514 49.132 122.47C49.3622 122.392 49.5924 122.313 49.6218 122.098C49.8226 122.235 50.2045 121.848 50.6893 120.707C51.3259 119.257 51.9282 117.254 51.9282 117.254C51.9282 117.254 52.031 116.5 52.2073 115.207C52.3688 114.022 52.5891 112.405 52.9024 110.912C53.2305 109.31 53.5438 107.816 53.8131 106.646C54.0824 105.475 54.4008 104.751 54.4008 104.751L54.3077 104.628C54.0285 104.261 53.6269 103.987 53.3036 103.943C53.333 103.727 53.0538 103.36 52.329 103.041C52.1282 102.904 51.9273 102.767 51.6188 102.615C52.6816 102.87 53.6366 103.11 54.6994 103.365L59.3815 104.442C59.4893 104.456 59.2444 104.643 59.0779 105.059ZM89.5048 82.3179C89.3727 83.2876 89.2699 84.0418 89.2846 83.9341C89.0643 85.5503 88.9811 86.9657 89.275 87.2252C89.368 87.3476 89.368 87.3476 89.4905 87.2546C89.4758 87.3623 89.4611 87.4701 89.4464 87.5778C89.4464 87.5778 89.4464 87.5778 89.3386 87.5631L89.2162 87.6562C89.0644 87.9648 88.9126 88.2733 88.8685 88.5965C88.5306 88.6602 88.3004 88.7386 88.0556 88.9247L89.5048 82.3179ZM81.5196 127.214L81.8282 127.366L81.7841 127.689L81.5295 128.752C81.3433 128.507 81.0642 128.14 80.8928 127.787C80.5352 127.189 80.1923 126.484 79.8642 125.671C79.8642 125.671 79.8642 125.671 79.8789 125.564C80.0503 125.916 80.3441 126.176 80.638 126.435C80.8241 126.68 81.0249 126.817 81.2257 126.954C81.3188 127.077 81.4119 127.199 81.5196 127.214ZM91.0103 115.557C90.8095 115.42 90.501 115.268 90.3002 115.131C90.0994 114.994 89.7761 114.95 89.5753 114.813C88.5272 114.451 87.4351 114.411 86.4213 114.603C85.4075 114.794 84.379 115.092 83.5367 115.636C81.759 116.601 80.3388 118.163 79.5357 120.029C79.5357 120.029 79.5357 120.029 79.5504 119.922C79.5798 119.706 79.6091 119.491 79.6385 119.275L79.6826 118.952L79.6973 118.844L79.8637 118.428C80.3779 117.071 81.2006 115.866 82.3025 115.029C82.9 114.671 83.4975 114.314 84.188 114.079C84.8786 113.843 85.5544 113.716 86.3233 113.711C87.7533 113.687 89.2618 113.892 90.4814 114.607C91.7156 115.214 92.7686 116.346 93.3613 117.634C93.7188 118.231 93.9393 119.029 94.0666 119.705C94.0813 119.598 93.9882 119.475 94.0029 119.367C93.7041 118.339 93.0527 117.482 92.3866 116.733C91.9066 116.228 91.5197 115.846 91.0103 115.557ZM93.1071 125.94C92.3921 127.159 91.2755 128.105 89.9875 128.697C89.7573 128.776 89.8651 128.79 89.7573 128.776L89.7867 128.56L89.816 128.345C89.8307 128.237 89.8601 128.022 89.8748 127.914C89.9042 127.698 90.0413 127.497 90.056 127.39C90.1931 127.189 90.1784 127.297 90.4233 127.111C90.6535 127.032 91.2216 126.89 91.8044 126.64C92.3872 126.39 92.9993 125.925 93.396 125.431C93.5331 125.23 93.6702 125.029 93.6849 124.921C93.4107 125.323 93.2589 125.631 93.1071 125.94Z" fill="#F4774C"/>
</svg>
