<svg width="73" height="84" viewBox="0 0 73 84" fill="none" xmlns="http://www.w3.org/2000/svg">
<path d="M28.5966 62.9652L28.4226 62.8047C28.2546 62.6464 28.0947 62.4296 28.1819 62.1956C28.8529 60.3955 29.7386 58.573 31.7065 57.9807C33.3431 57.4836 35.2671 57.7839 36.9612 57.8892C42.1769 58.1795 46.3533 57.9731 50.9721 55.362C60.1471 50.1234 66.6936 39.1485 64.3757 28.464C63.2655 23.3416 60.7296 17.9474 56.3321 14.7979C51.0735 11.0647 44.7525 9.11354 38.3075 9.23413C33.5341 9.43668 28.2057 10.3345 24.2586 13.1549C19.7291 16.3939 17.379 22.1264 16.3341 27.4022C15.7793 30.2524 15.5322 33.1545 15.5971 36.0595C15.6698 39.0936 16.4814 41.788 17.3336 44.6684C18.0215 46.975 19.1631 49.1159 19.3669 51.5769C19.5956 53.9411 19.0564 56.3127 17.8284 58.3431C17.5739 58.7676 16.3358 57.9371 16.6098 57.4789C19.7743 52.2003 16.8727 46.5878 15.2116 41.301C13.5505 36.0142 14.1344 29.7054 15.6127 24.4475C16.9708 19.6232 19.2336 14.8629 23.524 11.9517C27.6845 9.14928 33.4206 8.2463 38.3589 8.17353C48.0373 8.04297 58.8808 13.2194 63.252 22.0859C68.0162 31.7619 66.3989 42.4488 59.2804 50.511C55.8164 54.4342 50.7024 58.1523 45.4099 58.9541C42.8005 59.3483 40.1357 59.0793 37.5113 58.9417C36.0608 58.8657 33.8184 58.5151 32.4196 59.0939C30.7483 59.7762 29.9972 61.5328 29.3893 63.0899L29.1547 62.483L29.3287 62.6436C30.0664 63.3217 29.1075 63.4769 28.5854 62.9952L28.5966 62.9652Z" fill="#F4774C"/>
<path d="M29.1095 61.9398L29.2426 62.0441C29.437 62.2054 29.9805 62.7771 29.4435 62.8708C27.1199 63.31 25.3549 61.3467 23.4154 60.4051C21.5567 59.478 19.5009 59.0143 17.4259 59.0541C15.1386 59.1377 14.2365 60.838 14.5763 63.0081C14.8832 65.0633 17.2694 66.8548 19.0515 67.8129C20.4248 68.5572 23.4796 69.9761 24.9822 69.3402C27.2442 68.4202 28.0115 64.0181 28.7764 61.966C28.9308 61.552 30.1896 62.3083 29.9951 62.8303C28.9931 65.5184 28.2432 70.8701 24.4201 70.4975C20.8044 70.1407 17.033 67.8397 14.6636 65.1728C12.9659 63.2688 12.2726 58.91 15.4407 58.0134C16.9035 57.5951 19.1372 58.0244 20.5673 58.4687C21.5882 58.7434 22.581 59.1135 23.5326 59.574C25.0885 60.3453 26.7692 62.1473 28.6371 61.8048C28.7053 62.0831 28.7675 62.3591 28.838 62.6314L28.7049 62.5271C28.0182 61.9704 28.4543 61.3539 29.1365 61.9226L29.1095 61.9398Z" fill="#F4774C"/>
<path d="M28.6092 65.4778C24.1624 64.2507 19.9226 62.6157 16.3742 59.5503C15.6094 58.8894 16.5804 58.7388 17.1114 59.1964C20.3375 61.964 24.3254 63.3889 28.3603 64.5034C28.8975 64.649 29.5449 65.7172 28.6077 65.4636L28.6092 65.4778Z" fill="#F4774C"/>
<path d="M26.9702 68.3252C21.9957 68.7535 17.5112 63.8631 13.7688 61.2996C13.0273 60.7976 13.4613 60.1872 14.2005 60.6951C17.568 63.0096 21.6452 67.6456 26.1126 67.2675C26.5828 67.2241 27.6061 68.2616 26.946 68.3162L26.9702 68.3252Z" fill="#F4774C"/>
<path d="M25.9893 70.4401C24.7838 71.8291 23.8822 73.2699 21.8053 73.2133C19.9931 73.1665 18.2456 72.1529 16.7561 71.2218C14.0024 69.512 11.8665 66.2556 13.1561 63.1279C13.3149 62.7019 14.5912 63.4852 14.3808 63.9945C13.1403 66.9901 15.363 69.3494 17.7973 70.9197C19.1244 71.7698 20.8706 72.6394 22.4768 71.8918C23.4826 71.4261 24.064 70.3648 24.7647 69.5736C25.1264 69.1754 26.3134 70.0689 25.9893 70.4401Z" fill="#F4774C"/>
<path d="M21.9129 72.1877C21.4645 72.4496 20.9366 72.544 20.4233 72.454C19.91 72.3641 19.4448 72.0957 19.1106 71.6967C19.0183 71.594 18.6973 71.2556 18.87 71.0876C19.6906 70.3069 21.7918 70.9808 22.7496 71.29C22.9428 71.362 23.9053 72.083 23.4041 72.2652C22.09 72.7458 20.1579 72.504 19.352 71.1785C18.0792 69.0571 21.72 70.011 22.5867 69.9923L23.2837 71.0381C21.6919 70.8772 20.123 70.5354 18.6078 70.0195L18.6988 69.2402C20.0862 70.0497 21.6543 70.5003 23.2591 70.5505L23.6559 71.5527C21.5334 70.8435 19.4267 70.0924 17.363 69.207C17.34 68.9182 17.3131 68.6211 17.2923 68.3264C17.8338 68.5897 18.6015 69.0399 18.6299 69.7202C18.6583 70.4005 18.1356 70.6772 17.4505 70.5039C16.7654 70.3305 15.3097 68.4416 16.1869 67.8596C17.2205 67.172 19.1842 69.0452 19.1182 70.0526C19.0299 71.858 16.7547 70.2855 16.206 69.5616C14.9373 67.8722 16.3289 67.3864 17.8186 68.1877C18.6534 68.6424 21.4529 71.0595 20.0241 72.2354C18.0357 73.8793 14.7923 65.973 19.8653 68.9711C21.4883 69.9314 21.3543 72.1914 19.1686 71.486C16.9828 70.7806 15.1242 67.7027 14.9918 65.5485C14.9746 65.2072 15.5747 65.424 15.7031 65.4856C17.0534 66.1256 17.924 68.514 17.6462 69.8866C17.6377 69.9403 17.6098 69.989 17.5678 70.0236C17.5258 70.0582 17.4725 70.0764 17.4178 70.0748C15.3153 70.1795 14.3685 67.5713 14.1611 65.8949L15.4029 66.5492L15.1614 67.1972C14.969 67.7132 13.9958 66.7627 13.9113 66.5467C13.4708 65.3847 14.0405 64.244 15.3025 64.8442C15.8828 65.215 16.3837 65.6967 16.7758 66.2613C17.3634 66.9177 18.9786 68.9139 19.9715 68.9628C19.9179 69.1068 19.8642 69.2509 19.8105 69.3949C19.2296 68.1669 17.0452 67.421 16.0796 66.487C15.7534 66.1809 15.7328 65.5719 16.3233 65.833C18.0241 66.6972 19.5583 67.8545 20.8546 69.251C21.4646 69.8474 20.8401 70.1203 20.2686 69.7159C19.5074 69.193 18.8858 68.5171 18.1459 68.0295C17.4059 67.5418 17.8707 66.9223 18.5775 67.425C19.2844 67.9276 19.9785 68.6305 20.7305 69.1227C20.5397 69.284 20.3428 69.4429 20.1505 69.5899C19.29 68.743 17.7169 67.2613 16.6038 66.7781L16.8499 66.1181C18.14 67.3439 20.2415 67.888 21.0595 69.5871C21.1317 69.7438 21.1548 70.0326 20.8984 70.0191C19.9538 69.9174 19.074 69.4878 18.4136 68.8058C17.7594 68.2544 17.1103 67.6708 16.513 67.0586C16.3301 66.8425 16.1363 66.6356 15.9323 66.439C15.4067 66.0038 14.8207 65.7307 15.2781 66.9947L14.0363 66.3404L14.2801 65.6864C14.4478 65.2364 15.489 66.0414 15.5219 66.3407C15.5437 66.7595 15.6001 67.1759 15.6906 67.5858C15.8091 68.0059 16.4511 69.2361 16.3999 68.1372C16.3874 67.8387 15.9051 66.4015 15.7065 66.3069L16.4177 66.244C16.5173 66.9672 16.7602 67.664 17.1324 68.2941L17.4715 68.8237C17.6404 69.5701 18.0327 69.8461 18.674 69.6205C19.4434 69.4016 19.5233 69.5748 18.9921 70.1696C18.4609 70.7643 18.5112 70.906 18.8885 70.6503C19.3506 70.4809 19.1795 70.2941 18.3714 70.0817C18.1374 70.0235 17.921 69.9095 17.741 69.7494C17.5609 69.5894 17.4226 69.3883 17.338 69.1635C16.8969 68.9444 16.4254 67.9212 17.2635 68.2746C19.3271 69.16 21.4641 69.9224 23.5564 70.6203C23.8946 70.7464 24.8007 71.6923 23.9554 71.6165C21.9913 71.5145 20.084 70.9141 18.415 69.8724C18.0242 69.6106 17.7676 68.8042 18.5143 69.0894C19.9251 69.569 21.3864 69.8844 22.8688 70.0291C23.1953 70.0757 24.2449 71.0614 23.5658 71.0748C23.0142 71.0953 22.4616 71.0722 21.9133 71.0056L21.6115 70.9478C20.7591 70.7804 21.0528 70.8967 22.4881 71.3087L23.1426 72.2839C22.6595 72.1038 20.6508 71.5875 20.2342 71.9857L19.9995 71.3788L20.9931 71.223C21.4133 70.9627 22.5434 71.917 22.0585 72.2215L21.9129 72.1877Z" fill="#F4774C"/>
<path d="M24.7693 60.5206C25.6925 56.8258 26.2816 53.068 27.915 49.5902C29.6577 45.7689 32.139 42.3286 35.218 39.4645C36.7161 38.1025 39.8726 35.6503 42.1129 36.6152C43.6941 37.3003 43.4955 39.2354 42.8874 40.5532C41.6755 43.1768 38.7568 42.7586 36.6057 41.4989C34.1229 40.0403 32.9852 37.2244 32.7087 34.497C32.5521 32.8874 32.7576 29.5128 35.2407 30.657C36.6641 31.3038 36.8256 33.011 36.5139 34.3641C35.9673 36.7163 33.5979 37.5552 31.4604 36.6833C29.856 36.0238 27.2173 33.8579 27.2915 31.9242C27.2953 31.748 27.5244 31.724 27.6541 31.745L27.799 31.7991C28.2569 31.8809 29.1637 32.9911 28.3536 32.8395C28.8255 33.4186 29.2952 34.0038 29.7348 34.5776C30.5044 35.3804 31.5322 35.8892 32.6381 36.0152C33.1344 35.9777 33.6116 35.8114 34.022 35.5327C34.4325 35.254 34.7618 34.8727 34.9772 34.4269C35.0846 34.1389 35.6592 32.173 35.2776 31.942C34.0451 31.1887 33.9568 33.3631 33.9309 33.8387C33.8758 35.18 34.0762 36.5208 34.5214 37.7902C35.3849 40.087 39.2225 43.2807 41.2834 40.3722C41.4265 40.1727 42.2746 38.3772 42.0089 37.9091C41.4971 36.9939 39.7207 38.1427 39.0942 38.4764C35.3126 40.4838 32.2938 44.5045 30.279 48.1751C27.9905 52.3587 27.1453 56.7113 26.0183 61.2663C25.8796 61.8229 24.6065 61.0681 24.7221 60.5918L24.7693 60.5206Z" fill="#F4774C"/>
</svg>
