<svg width="10" height="12" viewBox="0 0 10 12" fill="none" xmlns="http://www.w3.org/2000/svg">
<path d="M9.81458 11.0157C9.6946 10.7381 9.58551 10.4498 9.4219 10.1936C9.1165 9.69175 8.75656 9.21128 8.39662 8.74149C7.69855 7.82326 6.93503 6.96909 6.12788 6.14696C6.7496 5.35685 7.3277 4.53472 7.85125 3.68055C8.15666 3.17873 8.47297 2.66623 8.72384 2.13238C8.85473 1.85477 8.93107 1.56649 9.02924 1.27821C9.10559 1.03264 9.14923 0.712324 9.1165 0.456074C9.09469 0.327949 8.95289 0.263886 8.84382 0.338626C8.82201 0.349303 8.8111 0.370657 8.78928 0.381334C8.76747 0.349302 8.73474 0.327948 8.69111 0.327948C8.61476 0.327948 8.52751 0.338626 8.45116 0.338626C8.42934 0.327949 8.40753 0.317273 8.39662 0.306596C8.25482 0.221179 8.12393 0.125086 7.97123 0.039669C7.7858 -0.0564247 7.56765 0.02899 7.51311 0.221177C6.92411 1.97222 6.11697 3.62717 5.15712 5.20738C4.52449 4.64149 3.87005 4.11831 3.18289 3.62717C2.67024 3.26415 2.14669 2.90113 1.61222 2.55946C1.11048 2.22847 0.619652 1.87613 0.0851906 1.58785C0.0415611 1.56649 -0.0238779 1.6092 0.00884426 1.65191C0.346973 2.10035 0.761445 2.47404 1.18683 2.83706C1.66676 3.25347 2.15759 3.63785 2.64842 4.04357C3.36831 4.63081 4.05548 5.26076 4.70992 5.91206C3.81552 7.27873 2.81204 8.58133 1.74312 9.83055C1.59042 9.98003 1.4377 10.1402 1.29591 10.3003C1.02322 10.5886 0.739639 10.8876 0.499676 11.2186C0.379695 11.3467 0.259706 11.4748 0.150632 11.5923C0.0851879 11.6563 0.183357 11.7417 0.248801 11.6884C0.259709 11.6777 0.270621 11.667 0.281529 11.6563C0.292436 11.6563 0.303346 11.6563 0.325161 11.6457C0.815993 11.304 1.2741 10.8983 1.74312 10.5246C2.23395 10.1295 2.72478 9.72378 3.19379 9.30737C4.06638 8.53862 4.86262 7.71649 5.60432 6.83029C6.3133 7.58837 6.97866 8.37847 7.57857 9.22196C7.9167 9.68107 8.21119 10.1615 8.5275 10.6313C8.70202 10.8876 8.90926 11.1118 9.08378 11.3574C9.24739 11.5816 9.49826 11.8378 9.73822 11.9766C9.8582 12.0407 9.98909 11.966 10 11.8378C10 11.5709 9.92365 11.2506 9.81458 11.0157Z" fill="#F4774C"/>
</svg>
