<svg width="24" height="28" viewBox="0 0 24 28" fill="none" xmlns="http://www.w3.org/2000/svg">
<path d="M4.36328 0H16.3633L23.9996 7.51852V28H4.36328V0Z" fill="white"/>
<path d="M16.1451 0H4.36328V28H23.9996V7.46667L16.1451 0ZM23.0178 27.0667H5.3451V0.933333H15.1633V8.4H23.0178V27.0667Z" fill="#CBCBCB"/>
<path d="M15.3636 15.5557H1C0.447715 15.5557 0 16.0034 0 16.5557V22.852C0 23.4042 0.447716 23.852 1 23.852H15.3636C15.9159 23.852 16.3636 23.4042 16.3636 22.852V16.5557C16.3636 16.0034 15.9159 15.5557 15.3636 15.5557Z" fill="#F4774C"/>
<path d="M3.24219 21.7779V18.0068H4.72979C5.03454 18.0068 5.29022 18.0608 5.49683 18.1689C5.70473 18.2769 5.86163 18.4254 5.96752 18.6145C6.0747 18.8023 6.12829 19.0159 6.12829 19.2553C6.12829 19.4971 6.0747 19.7119 5.96752 19.8997C5.86034 20.0875 5.70215 20.2355 5.49296 20.3435C5.28376 20.4503 5.02615 20.5037 4.7201 20.5037H3.73418V19.9421H4.62325C4.80146 19.9421 4.94738 19.9126 5.06101 19.8537C5.17465 19.7948 5.25858 19.7137 5.31282 19.6106C5.36835 19.5075 5.39611 19.3891 5.39611 19.2553C5.39611 19.1215 5.36835 19.0036 5.31282 18.9017C5.25858 18.7998 5.174 18.7207 5.05907 18.6642C4.94544 18.6065 4.79887 18.5776 4.61938 18.5776H3.96081V21.7779H3.24219Z" fill="white"/>
<path d="M8.09674 21.7779H6.75248V18.0068H8.12386C8.51771 18.0068 8.85604 18.0823 9.13884 18.2333C9.42293 18.3831 9.64116 18.5985 9.79354 18.8796C9.94591 19.1607 10.0221 19.4971 10.0221 19.8887C10.0221 20.2815 9.94527 20.6191 9.7916 20.9014C9.63922 21.1837 9.41905 21.4004 9.13109 21.5514C8.84442 21.7024 8.49963 21.7779 8.09674 21.7779ZM7.4711 21.1868H8.06188C8.33822 21.1868 8.56872 21.1389 8.75338 21.0432C8.93804 20.9462 9.07685 20.802 9.16983 20.6105C9.2628 20.4178 9.30929 20.1772 9.30929 19.8887C9.30929 19.6002 9.2628 19.3608 9.16983 19.1706C9.07685 18.9791 8.93933 18.836 8.75725 18.7415C8.57647 18.6458 8.35178 18.5979 8.08318 18.5979H7.4711V21.1868Z" fill="white"/>
<path d="M10.7049 21.7779V18.0068H13.2462V18.5795H11.4235V19.6033H13.0719V20.1759H11.4235V21.7779H10.7049Z" fill="white"/>
</svg>
