<svg width="89" height="92" viewBox="0 0 89 92" fill="none" xmlns="http://www.w3.org/2000/svg">
<path fill-rule="evenodd" clip-rule="evenodd" d="M85.7092 49.5165C85.282 47.3782 85.0065 45.3172 85.1918 43.1069C85.2591 42.1619 85.3686 41.2096 85.4781 40.2573L85.4782 40.2568C85.5877 39.3043 85.6973 38.3518 85.7646 37.4066C86.1128 33.474 85.663 29.7493 84.2185 26.0938C83.5753 24.4448 82.7501 22.8879 81.9301 21.3407C81.5104 20.5488 81.092 19.7594 80.7 18.9615C79.4522 16.4818 78.1427 14.0475 76.7094 11.7038C73.7812 7.06172 69.9426 2.99283 64.761 0.851524C64.3058 0.619535 64.5305 -0.110991 65.0026 0.0143516C70.5213 1.05986 74.6241 4.84082 77.7995 9.30159C79.4631 11.5706 80.8176 14.0662 82.1721 16.5618L82.1722 16.562C82.5207 17.204 82.8763 17.8471 83.2324 18.4913C84.2605 20.3508 85.2932 22.2189 86.174 24.0943C89.7611 31.6094 88.5054 39.6452 87.2668 47.5714L87.2667 47.5723L87.2665 47.5733L87.2663 47.5746L87.2661 47.5763C87.158 48.2676 87.0501 48.9581 86.9456 49.6473C86.7546 50.1645 85.8385 50.0818 85.7092 49.5165ZM69.5316 12.155C67.424 9.92862 64.8893 7.63818 61.7927 7.17405C61.5792 7.14205 61.4218 7.44599 61.7422 7.494C67.6039 11.2111 71.8641 16.7624 74.7531 23.0362C76.2931 26.433 77.541 29.9498 78.0526 33.6292C78.2438 35.1863 78.435 36.7434 78.244 38.2978C78.2047 38.5466 78.1535 38.7937 78.1023 39.0407C77.9999 39.5349 77.8975 40.029 77.8901 40.5374C77.8704 40.8346 77.8775 41.1359 77.8845 41.4372C77.8916 41.7385 77.8986 42.0398 77.879 42.3371C77.8565 42.825 78.3117 43.057 78.6377 42.7237C79.711 41.4653 80.1998 40.4469 80.3177 38.6632C80.4806 36.9408 80.3849 35.1251 80.1038 33.4454C79.4742 29.4754 78.1083 25.6679 76.3266 22.0711C74.5449 18.4743 72.3473 15.0881 69.5316 12.155ZM69.8109 25.6252C68.1023 22.2577 66.0846 19.1167 63.5892 16.2317C63.3025 15.9704 62.8698 16.2877 63.0497 16.533C65.0224 19.6126 66.9783 22.7988 68.4734 26.1343C69.2884 27.8941 69.9348 29.6832 70.4576 31.5629C70.6486 32.2897 70.7704 33.0672 70.8931 33.8501C71.0774 35.0259 71.2636 36.2139 71.6887 37.2606C71.9248 37.8419 72.7677 37.6953 72.9138 37.1168C73.2682 35.4976 72.6963 33.5624 72.2178 31.943L72.2172 31.9408C72.1648 31.7637 72.1136 31.5904 72.0648 31.4217C71.4522 29.4193 70.7158 27.5076 69.8109 25.6252ZM0.860068 74.3992C0.89127 74.3543 0.919234 74.3141 0.942955 74.2773C1.06369 74.0898 1.11867 74.0456 1.36112 74.1222C1.46286 74.2488 1.39622 74.564 1.30558 74.9928C1.27816 75.1225 1.24855 75.2626 1.22073 75.411C1.24028 75.3953 1.23077 75.4716 1.21345 75.6106C1.18207 75.8624 1.12503 76.3202 1.16867 76.8098C1.23638 77.5695 1.56815 78.2075 1.56815 78.2075C1.56815 78.2075 1.65648 78.3175 1.7782 78.5815C1.7674 78.6807 1.81157 78.7356 1.85574 78.7906L1.94407 78.9006L1.98825 78.9555L2.12075 79.1204L2.3416 79.3953C2.40305 79.4717 2.48581 79.5505 2.57453 79.635L2.57459 79.635L2.57466 79.6351L2.57476 79.6352C2.6773 79.7328 2.78777 79.8379 2.88245 79.9558C3.65495 80.692 4.59235 81.2957 5.68386 81.866C6.77537 82.4363 7.87769 82.9075 9.13411 83.3453C10.2912 83.7723 11.6023 84.1658 12.9135 84.5594L12.9142 84.5596C14.2805 84.9091 15.5703 85.501 16.9043 86.1479C17.4577 86.4243 18.0127 86.7079 18.5713 86.9933L18.5733 86.9944C20.6069 88.0334 22.6886 89.0971 24.9189 89.9302C26.3736 90.3896 27.7519 90.6282 29.2606 90.5919L29.5709 90.4819C29.697 90.4956 29.9025 90.4027 30.075 90.3246C30.1735 90.2801 30.2613 90.2404 30.3173 90.2282C30.3767 90.2154 30.4298 90.2049 30.479 90.1952C30.6854 90.1544 30.8248 90.1268 31.0824 89.9929C31.2906 89.8846 31.5287 89.7964 31.7728 89.7058L31.7729 89.7058L31.773 89.7058L31.773 89.7058L31.7731 89.7057L31.7732 89.7057L31.7733 89.7056L31.7734 89.7056L31.7735 89.7056C32.2772 89.5188 32.8068 89.3224 33.1544 88.9213C34.2312 87.7846 35.0872 86.3731 35.7999 84.8958C36.5675 83.3744 37.1918 81.7872 37.8162 80.2C37.986 79.7921 38.131 79.3816 38.276 78.9711C38.4211 78.5605 38.5661 78.1499 38.736 77.7421C39.0314 76.8714 39.3711 76.0557 39.7107 75.24C40.0504 74.4243 40.4038 73.5975 40.7572 72.7707C41.1106 71.944 41.4639 71.1174 41.8036 70.3017C42.6408 68.2954 43.489 66.2721 44.3439 64.2328C46.3306 59.4935 48.3537 54.6675 50.3605 49.7661C50.7331 48.8787 51.0919 48.0023 51.4507 47.126L51.4509 47.1255C51.7284 46.4477 52.0059 45.7699 52.2898 45.0869C51.5016 45.208 50.6998 45.3957 49.9347 45.5749L49.9342 45.575L49.4553 45.6871C49.4553 45.6871 49.005 45.7565 48.606 45.85C48.4819 45.8681 48.3541 45.8872 48.2374 45.9046C48.0511 46.3107 47.867 46.7147 47.6876 47.1169C47.0958 48.4065 46.5923 49.806 46.0888 51.2055L46.0888 51.2055L46.0887 51.2056L46.0887 51.2056L46.0887 51.2056L46.0887 51.2057L46.0887 51.2057L46.0887 51.2057L46.0887 51.2058L46.0887 51.2058L46.0886 51.2058L46.0886 51.2059L46.0886 51.2059L46.0886 51.2059L46.0886 51.206L46.0886 51.206L46.0886 51.206L46.0886 51.2061L46.0885 51.2061C45.7923 51.9333 45.5941 52.717 45.3949 53.5048L45.3949 53.5048L45.3949 53.5048L45.3949 53.5049L45.3949 53.5049L45.3949 53.5049L45.3948 53.505L45.3948 53.505L45.3948 53.5051L45.3948 53.5051L45.3948 53.5051L45.3948 53.5052L45.3948 53.5052L45.3948 53.5052L45.3948 53.5053L45.3947 53.5053L45.3947 53.5053L45.3947 53.5054C45.2256 54.1741 45.0557 54.8458 44.8245 55.4884C44.1681 57.2674 43.4046 59.0103 42.6499 60.7333C42.259 61.6256 41.8704 62.5126 41.5003 63.3964C40.848 64.9287 40.2098 66.4495 39.5789 67.9532L39.5783 67.9548L39.5781 67.9551C38.0579 71.5781 36.5797 75.1012 35.0461 78.443C34.8755 78.774 34.7898 79.155 34.7063 79.5256C34.6341 79.8462 34.5637 80.159 34.4417 80.4249C34.3759 80.5683 34.3076 80.7142 34.2393 80.8601C34.1709 81.006 34.1026 81.1519 34.0368 81.2952C34.0241 81.3229 34.0112 81.3519 33.998 81.3818C33.8743 81.6605 33.7212 82.0055 33.4126 81.9266C33.2418 81.8829 33.0958 81.842 32.9498 81.801L32.9491 81.8007C32.8033 81.7598 32.6575 81.7189 32.487 81.6753C32.1584 81.5875 31.8134 81.5112 31.463 81.4336L31.4626 81.4336C30.4617 81.2122 29.4166 80.981 28.5836 80.4444C27.1751 79.9247 25.9791 79.2436 24.7965 78.5701C24.0358 78.1368 23.2805 77.7067 22.4778 77.3247C20.4273 76.349 18.4543 75.5823 16.5255 74.8706C16.1068 74.7383 15.6928 74.641 15.2839 74.5448C14.746 74.4182 14.2168 74.2937 13.697 74.0946C13.5488 74.0363 13.4009 73.9762 13.2541 73.9166L13.2534 73.9163L13.253 73.9162L13.2529 73.9161L13.2528 73.9161L13.2527 73.916L13.2515 73.9156L13.2509 73.9153C12.8747 73.7625 12.5058 73.6127 12.1577 73.5028C12.086 73.4699 12.0006 73.448 11.9152 73.4262C11.8298 73.4044 11.7444 73.3825 11.6728 73.3496C11.3312 73.2623 11.1879 73.1965 11.1879 73.1965C11.1879 73.1965 9.52689 72.3527 8.3912 71.7274C6.4948 70.7183 7.38706 70.8155 8.65428 71.1541C8.60921 71.1904 9.09012 71.3513 9.69604 71.5104L9.74917 71.5019L10.0711 71.4862C10.2877 71.4874 10.4986 71.4537 10.7096 71.42C11.7751 71.3213 12.8821 71.1446 13.9366 70.9763L13.9368 70.9762L13.9376 70.9761L14.5705 70.875C14.5705 70.875 15.1561 70.8173 15.6835 70.7331C15.8871 70.7142 16.0983 70.6941 16.2787 70.677C16.5707 70.6492 16.7819 70.6291 16.7494 70.6343C17.1768 70.6018 17.5571 70.6125 17.6737 70.6653C17.7375 70.7265 17.5321 70.795 16.7994 70.9477C15.8612 71.1689 14.7593 71.3805 14.7593 71.3805L14.021 71.4983L14.0204 71.4985C13.0347 71.6558 12.0491 71.8131 11.0557 71.9214C11.4126 72.0244 11.6628 72.0838 11.6628 72.0838L12.0928 72.2811C12.4329 72.4372 12.8074 72.5656 13.26 72.7208L13.2602 72.7209C13.3797 72.7619 13.5046 72.8047 13.6358 72.8504C14.4173 73.1156 15.2713 73.2695 16.1447 73.4268C17.2175 73.62 18.3195 73.8186 19.3524 74.2352C20.3748 74.6476 21.4411 75.246 22.525 75.8541C23.4277 76.3607 24.3426 76.874 25.2543 77.2924C27.3048 78.2682 29.0259 79.0069 31.2522 79.751C31.3796 79.7912 31.5368 79.9134 31.6989 80.0394L31.6989 80.0394C31.8453 80.1532 31.9957 80.2701 32.1317 80.3325C32.2478 80.3451 32.3943 80.3955 32.5156 80.4372C32.6014 80.4668 32.6747 80.492 32.7157 80.4964C32.809 80.331 32.8912 80.1519 32.9734 79.9728C33.0556 79.7936 33.1378 79.6145 33.2311 79.4491C33.4942 78.8758 33.6728 78.2983 33.8513 77.7208C34.0299 77.1433 34.2085 76.5658 34.4716 75.9925C35.1969 74.359 35.9693 72.6784 36.7582 70.9623C38.2104 67.803 39.7179 64.5233 41.0881 61.1947C41.5894 59.8716 41.9638 58.5382 42.3417 57.1919L42.3418 57.1918L42.3418 57.1917L42.3418 57.1916L42.342 57.1911C42.707 55.8907 43.0755 54.5784 43.565 53.2518C43.8168 52.552 44.0591 51.9025 44.3014 51.253C44.5437 50.6035 44.786 49.954 45.0378 49.2542C45.1549 48.918 45.3505 48.5615 45.549 48.1996C45.7215 47.8851 45.8962 47.5665 46.0235 47.2539C46.2491 46.816 46.3881 46.4575 46.5475 46.0462L46.5476 46.046L46.548 46.0449L46.548 46.0448L46.5487 46.0429C46.6138 45.8752 46.6822 45.6987 46.7614 45.5044C47.0177 44.9457 47.3685 44.2952 47.7283 43.6278C48.1993 42.7544 48.6857 41.8523 48.9962 41.09C49.1492 40.7144 49.2067 40.413 49.2678 40.0933C49.316 39.8408 49.3664 39.5768 49.4678 39.2557C49.4893 39.1974 49.5079 39.1474 49.5243 39.1034C49.6164 38.856 49.6386 38.7963 49.7128 38.5063C49.8001 38.1648 49.7099 38.0077 49.7099 38.0077C48.9382 37.6032 48.1811 37.2003 47.4297 36.8004L47.4297 36.8004L47.4296 36.8004C45.5938 35.8234 43.7926 34.8649 41.8995 33.9468C39.2316 32.653 36.5087 31.4034 33.775 30.2529C33.1036 29.9795 32.4213 29.6923 31.7389 29.4051L31.7387 29.405L31.7385 29.4049L31.7383 29.4049L31.7381 29.4048L31.738 29.4047L31.7378 29.4046L31.7376 29.4046L31.7374 29.4045L31.7372 29.4044L31.737 29.4043L31.7369 29.4043L31.7367 29.4042L31.7365 29.4041L31.7363 29.404L31.7361 29.404L31.7359 29.4039L31.7358 29.4038L31.7353 29.4036C31.052 29.1161 30.3688 28.8285 29.6965 28.5547C29.3604 28.4178 29.0105 28.2919 28.6606 28.166L28.6605 28.166C28.3105 28.0401 27.9606 27.9142 27.6244 27.7772C27.0953 27.5691 26.214 27.6721 26.214 27.6721C26.214 27.6721 25.621 28.2111 25.4128 28.7401C25.084 29.4566 24.8102 30.1289 24.5363 30.8012L24.5363 30.8014C23.9885 32.1462 23.3858 33.5351 22.7939 34.8249C21.5551 37.4485 20.3713 40.028 19.1875 42.6074L19.1873 42.6079C16.8304 47.6679 14.5835 52.6396 12.6555 57.4454L12.6547 57.4476C12.3978 58.0878 12.141 58.728 11.8925 59.3615L11.938 59.3542L12.131 59.3591L12.3185 59.3292L12.8866 59.2742C13.2672 59.2491 13.6422 59.1893 14.0172 59.1294C15.9027 58.8998 17.8706 58.5856 19.745 58.2864L19.7453 58.2864L19.7454 58.2864L19.7457 58.2863L19.7458 58.2863L19.7474 58.286L20.8724 58.1064C20.8724 58.1064 21.9093 57.9766 22.8468 57.8269C23.2069 57.7831 23.5806 57.7371 23.8999 57.6977L23.9008 57.6976C24.4173 57.634 24.791 57.588 24.733 57.5972C25.4886 57.5123 26.1561 57.4772 26.3547 57.5169C26.4595 57.5715 26.0901 57.6662 24.7831 57.9106C23.1066 58.2496 21.1433 58.5988 21.1433 58.5988L19.8308 58.8083L19.8294 58.8085L19.8293 58.8085L19.8293 58.8085L19.8292 58.8085L19.8291 58.8086L19.8291 58.8086L19.829 58.8086L19.8289 58.8086L19.8289 58.8086L19.8288 58.8086L19.8288 58.8086L19.8287 58.8086C17.8605 59.1228 15.8924 59.437 13.9131 59.6816C13.5381 59.7415 13.0638 59.7815 12.6832 59.8066L12.1151 59.8615L11.9276 59.8915L11.7401 59.9214L11.6728 59.9258C11.5326 60.2891 11.396 60.6494 11.2645 61.0056C11.2021 61.1613 11.1471 61.3212 11.0979 61.4842L11.1759 61.4717L11.5331 61.4504C11.773 61.4478 12.0074 61.4104 12.2418 61.373C13.4245 61.2556 14.6548 61.0592 15.8264 60.8721L15.8273 60.872L16.5304 60.7597C16.5304 60.7597 17.1806 60.6917 17.7665 60.5981C17.9899 60.5759 18.2216 60.5524 18.4204 60.5323L18.4248 60.5318L18.4269 60.5316L18.4282 60.5315C18.7518 60.4986 18.9858 60.4749 18.9496 60.4807C19.4239 60.4406 19.8452 60.4448 19.9735 60.4957C20.0432 60.556 19.8144 60.6282 18.9996 60.794C17.956 61.032 16.731 61.2633 16.731 61.2633L15.9107 61.3942L15.91 61.3944C14.6797 61.5908 13.4494 61.7872 12.208 61.914C11.9736 61.9514 11.675 61.9633 11.4351 61.9659L11.078 61.9872L10.9608 62.006L10.9595 62.0062C10.8809 62.342 10.8174 62.685 10.7543 63.0256C10.6387 63.6501 10.5245 64.2666 10.3216 64.8165C10.1356 65.373 9.95908 65.8683 9.78257 66.3636L9.78246 66.3639C9.63536 66.7767 9.48825 67.1895 9.33565 67.6377L9.38786 67.6404L9.55192 67.6142L10.0497 67.5704C10.3834 67.5528 10.7115 67.5005 11.0397 67.4481C12.6906 67.2559 14.4123 66.9811 16.0521 66.7193L16.0532 66.7191L16.0549 66.7188L17.0394 66.5617C17.0394 66.5617 17.9473 66.4524 18.7677 66.3215C19.0798 66.2851 19.4036 66.2469 19.6813 66.2142L19.6894 66.2132C20.1423 66.1598 20.4702 66.1211 20.4195 66.1292C21.0813 66.0592 21.6667 66.0372 21.8419 66.0806C21.935 66.1372 21.6124 66.2244 20.4695 66.4425C19.004 66.7479 17.2868 67.0577 17.2868 67.0577L16.1383 67.2411L16.1368 67.2413L16.1364 67.2414C14.4143 67.5163 12.6922 67.7912 10.959 67.9965C10.6308 68.0489 10.2151 68.0796 9.88141 68.0972L9.38364 68.1409L9.21956 68.1671L9.13462 68.1807C9.0731 68.3478 9.01145 68.5415 8.99852 68.6602C8.88136 69.1183 8.74034 69.4782 8.6202 69.7363L8.81138 69.7269C9.02789 69.7281 9.23884 69.6944 9.44979 69.6607C10.5153 69.562 11.6224 69.3853 12.6768 69.217L12.677 69.2169L12.6779 69.2168L13.3107 69.1158C13.3107 69.1158 13.8964 69.058 14.4237 68.9738C14.6273 68.9549 14.8385 68.9349 15.019 68.9177L15.0206 68.9175L15.0218 68.9174C15.3123 68.8898 15.5221 68.8699 15.4896 68.8751C15.917 68.8425 16.2973 68.8532 16.4139 68.906C16.4778 68.9672 16.2724 69.0357 15.5396 69.1884C14.6015 69.4096 13.4996 69.6212 13.4996 69.6212L12.7612 69.7391L12.7606 69.7392C11.6533 69.9159 10.5461 70.0927 9.42769 70.1999C9.21674 70.2335 8.9475 70.2408 8.731 70.2397L8.40901 70.2553L8.30353 70.2722L8.29019 70.2743C8.05467 70.5452 7.53672 70.7719 7.2202 70.0449L7.23102 69.9458C7.28598 69.9016 7.46073 69.2184 7.72283 68.1937C7.76652 68.0229 7.82394 67.841 7.88136 67.6592C7.93878 67.4774 7.99621 67.2955 8.03989 67.1247L8.03991 67.1246C8.36778 65.9566 8.69564 64.7885 9.12265 63.6313C9.3115 63.2198 9.44926 62.8027 9.59294 62.3678C9.64942 62.1968 9.70682 62.023 9.76859 61.8458C9.8689 61.4884 10.0063 61.1351 10.148 60.7708L10.1481 60.7707L10.1481 60.7707C10.2379 60.5396 10.3296 60.3041 10.4145 60.0603C10.8523 58.8039 11.3343 57.6024 11.8163 56.401L11.8163 56.4009C13.755 51.496 16.057 46.4801 18.4796 41.2768C18.8715 40.4228 19.2695 39.564 19.6698 38.7L19.6706 38.6984L19.6708 38.698L19.6708 38.6979L19.6708 38.6979C20.4795 36.9526 21.2981 35.186 22.097 33.3947C22.5769 32.4051 23.0022 31.4096 23.4359 30.3945L23.436 30.3943L23.4362 30.3938C23.587 30.0408 23.7388 29.6854 23.8943 29.3271C24.2231 28.6108 24.4968 27.9387 24.7706 27.2666L24.7706 27.2665L24.7706 27.2665L24.7706 27.2665L24.7706 27.2665L24.7706 27.2664L24.7706 27.2664L24.7707 27.2664L24.7707 27.2664L24.7707 27.2663L24.7707 27.2663L24.7707 27.2663L24.7707 27.2663L24.7707 27.2663L24.7707 27.2662L24.7708 27.2662L24.7708 27.2662L24.7708 27.2661L24.7709 27.2658C24.7709 27.2658 25.2172 26.1691 25.228 26.07C25.2388 25.9708 25.3748 25.7102 25.4502 25.6344C25.5256 25.5586 25.5641 25.5191 25.5641 25.5191C25.5641 25.5191 25.7058 25.4909 25.7973 25.494C26.0162 25.5013 26.3189 25.6998 26.3189 25.6998L26.9516 25.9223C27.843 26.2492 28.7338 26.5721 29.6235 26.8947L29.6237 26.8948L29.6239 26.8948L29.6241 26.8949L29.6242 26.8949L29.6244 26.895L29.6246 26.8951L29.6247 26.8951L29.6249 26.8952L29.6251 26.8953L29.6253 26.8953L29.6254 26.8954L29.6256 26.8955L29.6258 26.8955L29.6259 26.8956L29.6261 26.8956L29.6263 26.8957L29.6265 26.8958C34.3688 28.615 39.0818 30.3236 43.6946 32.5574C43.8236 32.6199 43.9553 32.6896 44.089 32.7648C44.1279 32.753 44.1691 32.7406 44.2126 32.7277C44.9483 32.4834 45.8217 32.2428 45.8217 32.2428L46.4116 32.1047L46.4123 32.1045C47.2938 31.8981 48.1753 31.6917 49.0793 31.5513C49.0491 31.5373 49.0188 31.5234 48.9886 31.5095C47.4492 30.7877 45.8861 30.133 44.3212 29.4775C42.345 28.6498 40.366 27.8208 38.4279 26.8539C38.0033 26.607 37.6036 26.3238 37.2038 26.0405C36.8041 25.7572 36.4043 25.474 35.9798 25.2271L34.7008 24.536C34.4859 24.4374 34.2847 24.3277 34.0835 24.2181L34.0834 24.218L34.0833 24.2179C33.8821 24.1083 33.6809 23.9986 33.466 23.9C31.8012 23.0666 30.0158 22.4206 28.2754 22.2812C27.3831 22.184 26.4693 22.2851 25.6879 22.5511C25.2256 22.6512 24.8516 22.8613 24.4776 23.0713C24.3677 23.1596 24.2529 23.2419 24.138 23.3241L24.138 23.3241C23.9083 23.4886 23.6786 23.653 23.4882 23.8664C23.2683 24.0431 23.0877 24.2686 22.907 24.4941C22.8167 24.6069 22.7264 24.7197 22.6312 24.8263L21.9068 25.9512L21.2707 27.186L20.6346 28.4209C18.9678 31.7504 17.6426 35.1673 16.3723 38.54C15.9813 39.5781 15.5997 40.6173 15.2192 41.6536L15.2191 41.6539C14.3633 43.9844 13.5127 46.3006 12.5724 48.5589C11.2146 51.8197 9.92259 54.9372 8.63058 58.0548L8.6301 58.0559L8.62816 58.0606C7.38119 61.003 6.19659 63.8631 5.05569 66.6178L5.05527 66.6188C4.28149 68.487 3.52781 70.3068 2.78839 72.0707C2.38298 73.0297 2.1091 73.7021 2.1091 73.7021L2.05413 73.7462C1.77928 73.9671 1.26199 74.1114 1.04017 73.385L1.05095 73.2859C1.05095 73.2859 1.32484 72.6135 1.73026 71.6545C2.26382 70.3649 2.80852 69.0451 3.3639 67.6994L3.36591 67.6946C4.79424 64.2338 6.29319 60.6019 7.85468 56.8729C8.43266 55.4783 9.01278 54.0639 9.59902 52.6346L9.59968 52.633L9.59999 52.6322L9.6007 52.6305L9.60088 52.63L9.60105 52.6296C10.3255 50.8634 11.0592 49.0745 11.8097 47.2721C12.9411 44.5549 13.9806 41.7233 15.0365 38.8471L15.0366 38.847L15.0372 38.8453L15.0392 38.8399C15.2503 38.2648 15.4621 37.6879 15.6754 37.1098C17.0556 33.6487 18.4358 30.1877 20.2125 26.7698L20.9036 25.4908C21.1009 25.0609 21.3974 24.6418 21.6938 24.2226C22.2867 23.3844 22.9679 22.6561 23.8808 22.1034C24.7937 21.5508 25.7842 21.2073 26.8521 21.0728C27.8651 20.9826 28.9115 21.0464 29.8921 21.2535C31.8533 21.6678 33.7163 22.5228 35.4144 23.5103C37.0684 24.4428 38.7773 25.3312 40.5412 26.1754C42.3983 27.1019 44.2274 27.8688 46.0669 28.6401L46.067 28.6401C47.6672 29.3111 49.2753 29.9854 50.9165 30.7708C51.1438 30.8752 51.4323 31.0831 51.7239 31.2932C51.9837 31.4805 52.2459 31.6695 52.4694 31.7884C52.5453 31.8373 52.6303 31.879 52.7199 31.9229C52.8515 31.9875 52.9931 32.0569 53.1309 32.1614L53.7817 32.6336C54.565 33.2706 55.2717 34.1501 55.6594 35.1955C55.7059 35.3294 55.7525 35.4589 55.798 35.5852L55.7983 35.5862L55.7984 35.5865C56.0894 36.3944 56.3347 37.0755 56.1939 37.9706C56.1127 38.7162 55.7949 39.5494 55.5041 40.3118L55.5041 40.3119C55.3696 40.6646 55.2408 41.0021 55.144 41.3089C54.4872 43.1935 53.7422 44.9682 52.9971 46.7429C52.6246 47.6302 52.3837 48.4911 52.1427 49.3519L52.1427 49.352C51.9018 50.2128 51.6609 51.0736 51.2884 51.9609C49.8537 55.3782 48.3123 58.7868 46.7877 62.1583C45.1452 65.7903 43.5223 69.3792 42.0735 72.8892C41.778 73.7598 41.5403 74.3904 41.2006 75.2061C41.102 75.421 41.0288 75.6882 40.9556 75.9555C40.8824 76.2227 40.8093 76.4899 40.7106 76.7048C40.6395 76.8977 40.5518 77.0513 40.4642 77.2049C40.3766 77.3585 40.2889 77.5121 40.2178 77.705C39.9572 78.3968 39.7356 79.0455 39.518 79.6825C39.2052 80.5982 38.9006 81.4899 38.5 82.452C37.8207 84.0834 36.6175 86.1385 35.6516 87.6384C34.7406 89.0941 33.5764 90.5723 31.8822 91.3909C31.4533 91.6451 30.9909 91.7452 30.5286 91.8454C30.479 91.84 30.4157 91.8456 30.3524 91.8512C30.2891 91.8569 30.2258 91.8625 30.1762 91.8571L29.8238 91.8689L29.119 91.8924C28.6675 91.8934 28.1718 91.8394 27.7753 91.7962C27.5549 91.7471 27.3455 91.7118 27.1362 91.6764C26.9269 91.6411 26.7176 91.6058 26.4972 91.5567C24.8776 91.2298 23.3454 90.5613 21.9123 89.9036C21.5584 89.737 21.2112 89.5728 20.8693 89.4112L20.8691 89.4111L20.8687 89.4109L20.8686 89.4109C18.3993 88.2436 16.2114 87.2095 13.8397 86.3344C13.6605 86.2682 13.5056 86.176 13.3569 86.0875C13.1856 85.9855 13.0224 85.8883 12.8396 85.8415C12.6087 85.7563 12.3296 85.7177 12.0695 85.6817C11.8948 85.6575 11.7288 85.6345 11.5916 85.5994C11.3253 85.5313 11.0567 85.4776 10.7907 85.4244L10.7906 85.4243L10.7903 85.4243C10.374 85.341 9.9644 85.2591 9.58113 85.1255C8.7863 84.8625 8.01292 84.4376 7.258 84.0228L7.25791 84.0228L7.25783 84.0227C6.72532 83.7302 6.20198 83.4427 5.68679 83.2206C5.42355 83.085 5.1573 82.9533 4.89103 82.8216L4.89055 82.8214L4.88986 82.821L4.88971 82.8209C3.90735 82.3351 2.92471 81.849 2.09174 81.1666C1.66526 80.825 1.39443 80.3993 1.0893 79.9195L1.08925 79.9195L1.08915 79.9193L1.08895 79.919L1.0886 79.9184C1.03088 79.8277 0.971922 79.735 0.910451 79.6406L0.733773 79.4208C0.660833 79.33 0.604552 79.2258 0.553956 79.1322L0.553937 79.1322L0.553916 79.1321C0.512609 79.0557 0.475091 78.9862 0.435389 78.9368C0.383641 78.8724 0.350756 78.7929 0.323513 78.727C0.30425 78.6804 0.287807 78.6406 0.269511 78.6178C0.280311 78.5187 0.236122 78.4637 0.236122 78.4637L0.191949 78.4087C0.147779 78.3538 0.103617 78.2988 0.114417 78.1997C0.036876 77.9906 0.0143083 77.7373 0.00253683 77.3849C-0.0210061 76.6802 0.120354 75.8429 0.383431 75.2696C0.550654 74.8445 0.732449 74.5829 0.860068 74.3992ZM49.9413 31.9606L49.693 31.9849C49.513 31.991 49.3445 32.0305 49.1759 32.0699C48.3105 32.2005 47.4259 32.4077 46.5833 32.605L46.5828 32.6051L46.0772 32.7235C46.0772 32.7235 45.6022 32.7987 45.1809 32.8974C45.0156 32.9223 44.8442 32.9487 44.6977 32.9712C44.6201 32.9832 44.5495 32.994 44.4906 33.003C44.9277 33.2739 45.3811 33.5887 45.8344 33.9035C46.0285 34.0382 46.2225 34.173 46.4154 34.3043C46.5002 34.2767 46.601 34.2458 46.7195 34.2106C47.4551 33.9663 48.3286 33.7257 48.3286 33.7257L48.9185 33.5876L48.9191 33.5874C49.8038 33.3803 50.6884 33.1731 51.5959 33.0327C51.688 33.0111 51.796 32.9966 51.9044 32.9868C51.7901 32.921 51.6744 32.8563 51.5574 32.7925C51.0465 32.514 50.4955 32.2311 49.9413 31.9606ZM52.6191 33.4323L52.5483 33.4222L52.4641 33.442L52.1998 33.4678C52.0199 33.4739 51.8513 33.5134 51.6828 33.5529C50.8175 33.6834 49.9329 33.8906 49.0904 34.0878L49.0901 34.0879L49.0896 34.088L48.584 34.2064C48.584 34.2064 48.1091 34.2816 47.6877 34.3803C47.5224 34.4052 47.351 34.4316 47.2046 34.4541C46.9676 34.4906 46.7961 34.517 46.8222 34.5109C46.7939 34.5146 46.7657 34.518 46.7379 34.5211C47.1646 34.8035 47.5815 35.0591 47.9742 35.2496C47.9742 35.2496 48.787 35.565 49.4729 35.9506C50.0332 35.7743 50.5503 35.6306 50.5503 35.6306L51.1089 35.4998L51.1094 35.4997L51.1094 35.4997L51.1095 35.4997L51.1096 35.4997L51.1096 35.4997L51.1097 35.4997L51.1098 35.4997L51.1098 35.4997L51.1099 35.4996C51.9475 35.3035 52.785 35.1074 53.6454 34.9779C53.7965 34.9426 53.9935 34.9287 54.1592 34.9239C54.0263 34.7121 53.8715 34.5131 53.6973 34.3298C53.3804 33.9964 53.0152 33.702 52.6191 33.4323ZM54.412 35.4015L54.227 35.4183C54.056 35.4223 53.8963 35.4597 53.7367 35.497C52.9162 35.6171 52.0787 35.8133 51.2809 36L51.2808 36.0001L51.2808 36.0001L51.2805 36.0002L51.28 36.0003L50.8012 36.1124C50.8012 36.1124 50.3697 36.1789 49.9772 36.2693C50.4521 36.6082 51.1998 37.0016 51.1998 37.0016C51.1998 37.0016 51.3905 37.1701 51.4879 37.3428C51.6757 37.2847 51.8022 37.248 51.8022 37.248L52.2401 37.1455L52.2406 37.1454L52.2406 37.1454C52.8972 36.9916 53.5538 36.8379 54.2332 36.7508C54.3583 36.7215 54.5261 36.7183 54.6626 36.7224L54.7192 36.7194C54.7149 36.678 54.7099 36.637 54.7043 36.5962C54.6766 36.1779 54.5758 35.7755 54.412 35.4015ZM54.7423 37.2107L54.7286 37.2114C54.5921 37.2073 54.4669 37.2366 54.3418 37.2659C53.6937 37.3456 53.0371 37.4994 52.4118 37.6458L52.4112 37.6459L52.0359 37.7338C52.0359 37.7338 51.7316 37.7742 51.4383 37.8383L51.3904 37.9902L51.2372 38.4751L51.1607 38.7175C51.0906 38.955 51.0171 39.1912 50.9406 39.426C51.0627 39.3882 51.1399 39.3655 51.1399 39.3655L51.5462 39.2703L51.5466 39.2702C52.1559 39.1275 52.7653 38.9848 53.3975 38.9088C53.5136 38.8817 53.6701 38.881 53.7976 38.8872L53.9832 38.8798L54.0412 38.8662L54.0993 38.8526L54.2267 38.8588L54.2672 38.8854C54.2874 38.8986 54.3004 38.9136 54.3133 38.9286C54.3263 38.9436 54.3393 38.9586 54.3595 38.9719L54.3647 39.0787L54.3471 39.1189L54.3813 39.219L54.3927 39.2523L54.3637 39.2591C54.3347 39.2659 54.3347 39.2659 54.2943 39.2394L54.3056 39.2727C54.3056 39.2727 54.3056 39.2727 54.288 39.3129C54.2704 39.353 54.2414 39.3598 54.2124 39.3666L54.1833 39.3734L54.1139 39.3537L54.0558 39.3673L53.8703 39.3747C53.7428 39.3685 53.6267 39.3957 53.5106 39.4229C52.9075 39.492 52.2983 39.6347 51.718 39.7706L51.7178 39.7706L51.7173 39.7707L51.3691 39.8523C51.3691 39.8523 51.0484 39.8924 50.7615 39.9585C50.5786 40.4858 50.3816 41.0068 50.1751 41.5224C50.5072 41.421 50.7558 41.351 50.7558 41.351L51.2683 41.2309L51.269 41.2308L51.2691 41.2308C52.0376 41.0508 52.8062 40.8708 53.5976 40.7576C53.7229 40.7282 53.8834 40.717 54.026 40.7138C54.1932 40.2242 54.3436 39.7299 54.4677 39.2289C54.6162 38.5621 54.7395 37.8639 54.7423 37.2107ZM53.8386 41.2429C53.7906 41.2528 53.7431 41.264 53.6955 41.2751C52.9407 41.3798 52.1722 41.5598 51.4402 41.7312L51.4395 41.7314L51.0002 41.8342C51.0002 41.8342 50.586 41.8952 50.2199 41.9809C50.1381 41.9922 50.0546 42.004 49.9743 42.0154C49.7737 42.4996 49.5658 42.9791 49.3543 43.4547C49.8302 43.3081 50.2299 43.1969 50.2299 43.1969L50.7835 43.0673L50.7842 43.0671C51.6144 42.8727 52.4446 42.6783 53.2976 42.5506C53.3095 42.5479 53.3217 42.5452 53.3341 42.5427C53.5085 42.1115 53.679 41.6787 53.8386 41.2429ZM53.1005 43.1146C52.3805 43.2339 51.6526 43.4043 50.9555 43.5675L50.9553 43.5676L50.9547 43.5677L50.4801 43.6788C50.4801 43.6788 50.0337 43.7473 49.6383 43.8399C49.4851 43.8622 49.3264 43.8858 49.1901 43.9061L49.1847 43.9069L49.1845 43.907L49.1494 43.9122C48.9302 44.3981 48.7085 44.8801 48.4883 45.3587L48.4587 45.423C48.8758 45.2967 49.2044 45.2054 49.2044 45.2054L49.763 45.0746L49.7638 45.0744L49.7639 45.0744L49.7639 45.0744L49.764 45.0744L49.7641 45.0744L49.7641 45.0743L49.7642 45.0743L49.7643 45.0743L49.7644 45.0743L49.7644 45.0743L49.7645 45.0743L49.7646 45.0743L49.7646 45.0743L49.7647 45.0743L49.7648 45.0742C50.6021 44.8781 51.4395 44.682 52.2996 44.5527C52.3686 44.5365 52.4472 44.5248 52.528 44.5165L52.5407 44.4862C52.6893 44.1137 52.8424 43.7418 52.9957 43.3693L52.9959 43.3689L53.1005 43.1146ZM20.001 83.4748L20.1001 83.4856L20.1551 83.4414L20.2101 83.3973L20.2209 83.2981C20.2209 83.2981 20.2316 83.199 20.2866 83.1548C20.3632 82.9124 20.429 82.7691 20.429 82.7691C20.5047 82.6514 20.5415 82.5294 20.5746 82.4195C20.5942 82.3543 20.6126 82.2933 20.6371 82.24C20.6836 82.1386 20.7026 82.0594 20.7407 81.9009C20.7564 81.8352 20.7754 81.756 20.801 81.6559C20.9542 81.171 21.0081 80.6753 20.7981 80.3014L20.7097 80.1914L20.6656 80.1364C20.6099 80.1304 20.5576 80.093 20.4971 80.0498C20.4499 80.0161 20.3976 79.9788 20.3348 79.9499C20.1935 79.9053 20.056 79.8271 19.909 79.7435L19.9089 79.7434L19.9088 79.7433C19.8036 79.6835 19.6936 79.621 19.5741 79.5661C19.1 79.3138 18.5267 79.0508 17.9977 78.8427C17.8764 78.8044 17.7442 78.7523 17.6119 78.7003C17.4796 78.6483 17.3474 78.5963 17.2261 78.558C17.0443 78.5005 16.9679 78.511 16.8343 78.5294L16.8341 78.5294L16.8339 78.5294C16.7894 78.5355 16.7386 78.5425 16.6755 78.5481C16.2131 78.6483 15.7734 79.0016 15.4327 79.3658C15.0372 79.7741 14.8399 80.204 14.7417 80.6448L14.7417 80.6449C14.7201 80.8431 14.6985 81.0414 14.776 81.2504C14.8094 81.4045 14.8977 81.5145 15.0852 81.6352C15.2961 81.7844 15.5767 81.8776 15.8877 81.981L15.8877 81.981C16.1947 82.0831 16.5313 82.195 16.8599 82.3803L16.9041 82.4352C16.9924 82.5452 17.0592 82.8534 16.9934 82.9967C16.9276 83.14 16.7627 83.2725 16.3995 83.3834L16.3004 83.3726C16.1054 83.2689 15.89 83.1968 15.6549 83.1182L15.6548 83.1182L15.6548 83.1182C15.3182 83.0056 14.9412 82.8795 14.5257 82.6276C14.1949 82.4411 13.7866 82.0455 13.6865 81.5831C13.5863 81.1208 13.5746 80.7684 13.6178 80.3719C13.7483 79.6337 14.1214 78.9721 14.6269 78.4755C15.1324 77.9788 15.6821 77.5371 16.4527 77.3702C16.6618 77.2927 16.915 77.2701 17.1133 77.2917C17.3116 77.3133 17.5098 77.3349 17.6532 77.4007C17.7965 77.4665 17.9535 77.5212 18.1106 77.5759C18.2676 77.6306 18.4247 77.6854 18.568 77.7511L20.2877 78.5404C20.4613 78.62 20.6147 78.7159 20.7822 78.8205L20.7823 78.8206C20.8913 78.8887 21.0063 78.9606 21.1368 79.0341C21.1588 79.0616 21.2057 79.0918 21.2526 79.122C21.2995 79.1522 21.3463 79.1823 21.3684 79.2098C21.4676 79.2206 21.4676 79.2206 21.5117 79.2756L21.6442 79.4405C21.696 79.5049 21.7289 79.5845 21.7561 79.6504C21.7754 79.697 21.7918 79.7368 21.8101 79.7595C21.8322 79.787 21.8516 79.8393 21.871 79.8916C21.8904 79.9438 21.9097 79.9961 21.9318 80.0236C22.0869 80.4417 22.0987 80.7941 22.0555 81.1907C22.0672 81.5431 21.9799 81.8847 21.8925 82.2263L21.8051 82.5679L21.6736 82.8545C21.6407 82.9261 21.6052 83.0225 21.5696 83.1189L21.5695 83.119L21.5695 83.1191C21.5339 83.2155 21.4984 83.3119 21.4655 83.3836C21.4655 83.3836 21.3997 83.5269 21.279 83.7143C21.279 83.7143 21.2682 83.8135 21.2132 83.8576C21.2574 83.9126 21.2024 83.9568 21.2024 83.9568C21.2024 83.9568 21.1916 84.0559 21.1367 84.1001C21.0159 84.2876 20.8844 84.5742 20.7529 84.8607L20.7528 84.8608C20.6095 84.7951 20.491 84.732 20.3725 84.6689L20.3722 84.6688C20.2538 84.6058 20.1353 84.5427 19.9921 84.477L19.8046 84.3562L19.6613 84.2905L19.4738 84.1697L19.4738 84.1697C19.1872 84.0382 18.9006 83.9067 18.669 83.731C16.7725 82.7219 17.6648 82.8191 18.932 83.1577C18.8329 83.1469 19.0753 83.2235 19.4169 83.3109C19.5621 83.3267 19.6778 83.3661 19.8245 83.4162L19.8247 83.4163L19.8249 83.4164C19.8785 83.4347 19.9362 83.4543 20.001 83.4748ZM12.7376 57.5159L12.8258 57.4661L12.8091 57.3616L12.8035 57.3268L12.8973 57.3118C12.991 57.2969 12.991 57.2969 13.0902 57.3167L13.0904 57.3167L13.0848 57.2819L13.173 57.2321C13.2612 57.1824 13.3549 57.1674 13.4487 57.1524L13.5424 57.1374L13.7355 57.1423L13.923 57.1124L14.4911 57.0574C14.8717 57.0324 15.2467 56.9725 15.6217 56.9126C17.507 56.683 19.4748 56.3689 21.3491 56.0697L21.3494 56.0696L21.3498 56.0696L21.3499 56.0696L21.3502 56.0695L21.3503 56.0695L21.3519 56.0692L22.4769 55.8896C22.4769 55.8896 23.5138 55.7598 24.4513 55.6101C24.8114 55.5663 25.1851 55.5203 25.5044 55.4809L25.5053 55.4808C26.0218 55.4172 26.3955 55.3712 26.3375 55.3804C27.0931 55.2955 27.7605 55.2604 27.9592 55.3001C28.064 55.3547 27.6946 55.4494 26.3876 55.6938C24.7111 56.0328 22.7478 56.382 22.7478 56.382L21.4353 56.5915L21.4339 56.5917L21.4338 56.5917L21.4338 56.5917L21.4337 56.5918L21.4336 56.5918L21.4336 56.5918L21.4335 56.5918L21.4334 56.5918L21.4334 56.5918L21.4333 56.5918L21.4333 56.5918L21.4332 56.5918L21.4331 56.5919L21.4331 56.5919L21.433 56.5919L21.4329 56.5919C19.4649 56.9061 17.4968 57.2203 15.5176 57.4648C15.1426 57.5247 14.6683 57.5647 14.2877 57.5898L13.7196 57.6447L13.5321 57.6747L13.3446 57.7046L12.964 57.7297L12.8647 57.7098C12.815 57.6999 12.7888 57.6862 12.7626 57.6726C12.7364 57.6589 12.7101 57.6452 12.6605 57.6353L12.7376 57.5159ZM10.1233 65.7746L10.1998 65.7267L10.1831 65.6222L10.1776 65.5874L10.2596 65.5743C10.3416 65.5612 10.3416 65.5612 10.4291 65.5829L10.4292 65.5829L10.4237 65.5481L10.5001 65.5002C10.5766 65.4523 10.6586 65.4392 10.7407 65.4261L10.8227 65.413L10.9924 65.4216L11.1564 65.3954L11.6542 65.3517C11.9879 65.3341 12.316 65.2817 12.6442 65.2293C14.295 65.0371 16.0167 64.7623 17.6566 64.5005L17.6576 64.5004L17.6594 64.5001L18.6438 64.3429C18.6438 64.3429 19.5518 64.2337 20.3722 64.1027C20.6875 64.066 21.0147 64.0274 21.2943 63.9944C21.747 63.941 22.0747 63.9023 22.024 63.9104C22.6858 63.8405 23.2712 63.8184 23.4464 63.8619C23.5395 63.9184 23.2169 64.0056 22.074 64.2238C20.6085 64.5291 18.8913 64.839 18.8913 64.839L17.7428 65.0223L17.7413 65.0226L17.741 65.0226L17.7406 65.0227L17.7403 65.0227L17.7399 65.0227L17.7395 65.0228L17.7392 65.0228L17.7388 65.0229L17.7385 65.0229L17.7381 65.023L17.7378 65.023L17.7374 65.0231L17.7371 65.0231L17.7367 65.0232C16.016 65.2979 14.2953 65.5727 12.5635 65.7778C12.2353 65.8302 11.8196 65.8608 11.4859 65.8784L10.9881 65.9221L10.824 65.9483L10.66 65.9745L10.3263 65.9921L10.2387 65.9704C10.1949 65.9595 10.1716 65.9454 10.1483 65.9313C10.125 65.9171 10.1017 65.903 10.0579 65.8921L10.1233 65.7746ZM11.7102 63.5605L11.7633 63.5164L11.7466 63.4119L11.741 63.3771L11.7996 63.3677C11.8582 63.3584 11.8582 63.3584 11.9223 63.3838L11.9224 63.3839L11.9168 63.349C11.9168 63.349 11.9168 63.349 11.9699 63.3049C12.0229 63.2607 12.0815 63.2513 12.1401 63.242L12.1987 63.2326L12.3214 63.2487L12.4386 63.23L12.7958 63.2087C13.0357 63.2061 13.2701 63.1687 13.5045 63.1313C14.6872 63.0139 15.9174 62.8175 17.0891 62.6304L17.09 62.6303L17.7931 62.518C17.7931 62.518 18.4433 62.45 19.0292 62.3564C19.2526 62.3342 19.4843 62.3107 19.6831 62.2906L19.6875 62.2901L19.6896 62.2899L19.6909 62.2898C20.0145 62.2569 20.2485 62.2332 20.2123 62.239C20.6866 62.1989 21.1079 62.2031 21.2362 62.254C21.3059 62.3143 21.0771 62.3865 20.2623 62.5523C19.2187 62.7903 17.9937 63.0216 17.9937 63.0216L17.1734 63.1525L17.1726 63.1527L17.1725 63.1527C15.9423 63.3491 14.712 63.5455 13.4707 63.6723C13.2363 63.7097 12.9377 63.7216 12.6978 63.7242L12.3407 63.7455L12.2235 63.7643L12.1063 63.783L11.8663 63.7856L11.8022 63.7601C11.7701 63.7474 11.7527 63.7323 11.7352 63.7172C11.7178 63.7022 11.7004 63.6871 11.6683 63.6744L11.7102 63.5605Z" fill="#F4774C"/>
</svg>
