<svg width="359" height="327" viewBox="0 0 359 327" fill="none" xmlns="http://www.w3.org/2000/svg">
<path d="M270.554 294.108H256.514L254.642 333.42L256.514 342.781H274.298L270.554 294.108Z" fill="white"/>
<path d="M122.665 294.108H108.625V333.42V341.844L123.601 339.972L122.665 294.108Z" fill="white"/>
<path d="M255.419 289.725L253.68 237.555H272.809L274.547 284.508L272.809 289.725H255.419Z" fill="white"/>
<path d="M107.604 287.986L105.865 239.295H124.994V286.247L121.516 287.986H107.604Z" fill="white"/>
<path d="M133.691 334.939L130.213 242.773L248.464 241.034L250.203 336.678L133.691 334.939Z" fill="white"/>
<path d="M210.672 137.75L212.622 151.399H220.422L216.522 137.75H210.672Z" fill="white"/>
<path d="M171.674 137.75L169.724 151.399H161.924L165.824 137.75H171.674Z" fill="white"/>
<path d="M138.524 157.25L142.424 153.35H226.273L245.773 155.3L247.723 223.549L228.223 227.449L165.824 229.399L134.624 225.499L138.524 157.25Z" fill="white"/>
<path d="M138.51 220.562C138.759 220.273 138.758 220.273 138.738 220.004C138.434 215.97 138.398 211.916 138.382 208.131C138.413 201.367 138.463 194.872 138.762 188.088L139.142 182.38C139.142 182.38 139.025 177.25 139.198 172.369C139.101 167.508 140.898 161.093 140.67 161.652C140.329 153.564 139.365 147.957 136.575 161.15C135.783 164.996 133.408 170.913 132.886 174.738C132.363 178.564 132.028 181.294 132.028 181.294L131.729 188.078C131.43 194.862 131.4 201.626 131.37 208.39C131.406 212.444 131.442 216.498 131.746 220.532C131.766 220.801 132.056 221.05 132.056 221.05C135.029 224.612 137.556 222.257 138.51 220.562Z" fill="#F4774C"/>
<path d="M237.142 151.45C231.662 150.512 224.32 149.985 220.514 149.731C220.742 149.173 220.702 148.635 220.93 148.077C221.346 146.423 221.473 144.52 221.351 142.906C221.498 141.272 221.417 140.197 221.417 140.197L221.336 139.121L221.194 137.238L220.6 132.956L216.277 133.012L213.029 132.987C211.664 132.819 210.32 132.921 208.995 133.291L205.25 133.845L206.068 141.085L206.621 144.83C206.743 146.444 207.113 147.768 207.235 149.382L170.996 149.414C170.976 149.145 171.245 149.124 171.224 148.855C171.661 147.47 172.077 145.816 172.513 144.431C172.68 143.066 172.868 141.97 172.868 141.97C172.746 140.356 172.624 138.743 172.502 137.129L172.32 134.709L170.107 134.064C168.722 133.628 167.915 133.689 167.108 133.75C166.302 133.811 165.764 133.851 164.977 134.181C164.708 134.202 164.191 134.511 163.653 134.552L162.06 134.943L159.163 135.973L159.071 141.93C159.153 143.006 158.985 144.37 159.067 145.446C159.148 146.522 159.249 147.867 159.351 149.211C159.351 149.211 159.351 149.211 159.371 149.48L153.145 149.409L140.983 149.516C140.714 149.537 140.465 149.826 140.465 149.826C136.655 153.089 139.009 155.616 140.704 156.57C140.993 156.818 140.993 156.818 141.262 156.798L153.425 156.691L211.858 156.876L217.546 156.987C217.546 156.987 238.005 155.712 236.909 155.525C245.225 154.626 250.254 153.165 237.142 151.45ZM166.942 149.449C166.921 149.18 166.881 148.643 166.861 148.374C166.8 147.567 166.739 146.76 166.678 145.953C167.069 147.547 167.439 148.871 167.439 148.871C167.459 149.14 167.459 149.14 167.749 149.388L166.942 149.449ZM214.557 149.64C214.146 147.778 214.004 145.895 213.862 144.013L213.288 139.999L214.095 139.938L214.156 140.745C214.156 140.745 214.856 142.856 215.536 144.698C216.216 146.54 216.896 148.381 216.896 148.381C216.917 148.65 217.226 149.168 217.515 149.417L214.557 149.64Z" fill="#F4774C"/>
<path d="M249.867 205.124C249.851 201.339 249.917 198.629 249.917 198.629L249.409 191.906C249.089 184.087 248.79 176.537 249.028 168.946C249.281 165.14 249.515 161.066 250.037 157.24C250.017 156.971 249.997 156.702 249.728 156.722C247.251 152.582 244.126 154.17 242.903 155.885C242.654 156.175 242.654 156.175 242.674 156.444C242.172 160.538 241.67 164.633 241.457 168.977C241.239 176.836 241.291 184.676 241.88 192.475L242.326 198.391C242.326 198.391 242.981 203.481 243.616 208.301C244.25 213.121 244.885 217.942 244.864 217.673C245.296 219.804 245.438 221.686 245.808 223.011C244.733 223.092 243.368 222.925 241.754 223.046C233.915 223.097 222.848 223.392 222.848 223.392L216.145 224.169C194.651 226.063 171.92 226.294 150.223 225.498C146.148 225.265 138.955 222.31 134.881 222.076C134.612 222.097 134.363 222.386 134.363 222.386C130.533 225.38 132.638 228.196 134.064 229.17C134.353 229.419 134.353 229.419 134.622 229.398C138.697 229.632 148.119 231.384 152.173 231.348C174.139 232.124 194.931 233.344 216.962 231.41L222.879 230.963C222.879 230.963 224.223 230.861 226.086 230.45C227.948 230.039 230.348 229.587 233.017 229.115C238.086 228.192 242.866 227.019 242.328 227.06C244.19 226.649 245.763 225.989 247.087 225.619C247.376 225.867 247.645 225.847 247.605 225.309C250.233 224.299 251.248 223.411 248.249 223.097C248.416 221.732 248.832 220.078 248.919 217.637C249.69 213.522 249.882 208.91 249.867 205.124Z" fill="#F4774C"/>
<path d="M161.743 170.127C163.047 169.488 164.123 169.407 165.239 169.863C165.239 169.863 165.488 169.574 165.756 169.554C167.309 168.625 168.862 167.697 169.029 166.332C169.217 165.236 168.557 163.663 167.689 162.917C167.4 162.668 167.4 162.668 167.131 162.689C164.381 162.085 161.423 162.308 158.794 163.318C156.166 164.328 154.137 166.104 152.665 168.108C150.697 170.691 149.347 174.309 149.631 178.074C149.692 178.881 150.042 179.936 150.103 180.743C150.433 181.53 150.763 182.316 151.093 183.102C151.732 184.406 152.93 185.939 154.107 187.202C156.132 188.943 158.654 190.104 161.384 190.439C161.384 190.439 163.286 190.566 165.686 190.114C168.086 189.662 170.943 188.094 173.221 186.029C174.216 184.872 175.21 183.715 175.915 182.31C176.621 180.904 177.057 179.519 176.976 178.443C177.062 176.003 176.402 174.43 176.422 174.699C175.413 172.07 173.408 170.599 172.003 169.894C170.597 169.188 169.501 169.001 168.963 169.041C168.425 169.082 168.735 169.599 169.354 170.635C169.643 170.883 169.933 171.132 169.953 171.401C170.242 171.649 170.552 172.167 170.841 172.416C171.44 173.182 172.059 174.217 172.16 175.561C172.653 178.499 169.628 181.432 167 182.442C165.696 183.082 164.352 183.183 163.545 183.244C162.738 183.305 162.2 183.346 162.2 183.346C160.855 183.447 159.45 182.742 158.582 181.996C158.004 181.499 157.405 180.733 157.055 179.677C156.745 179.16 156.725 178.891 156.436 178.642C156.415 178.373 156.106 177.856 156.354 177.566C156.233 175.953 156.649 174.299 157.871 172.583C159.404 171.386 160.687 170.478 161.743 170.127Z" fill="#F4774C"/>
<path d="M230.168 173.616C229.859 173.098 229.838 172.829 229.838 172.829C228.311 170.511 226.596 169.288 224.942 168.872C223.536 168.167 222.44 167.979 221.923 168.288C221.385 168.329 221.694 168.847 222.313 169.882C222.892 170.379 223.47 170.876 224.069 171.642C224.668 172.408 225.556 173.423 225.926 174.748C226.256 175.534 226.297 176.072 226.089 176.899C225.86 177.457 225.653 178.284 225.155 178.863C224.43 179.999 222.877 180.928 221.573 181.567C220.269 182.207 218.924 182.308 218.138 182.638C217.331 182.699 216.793 182.74 216.793 182.74C215.18 182.862 213.795 182.425 212.678 181.969C211.252 180.994 210.303 179.173 210.141 177.022C210.06 175.946 209.999 175.139 210.476 174.292C210.684 173.465 211.181 172.886 211.927 172.018C213.687 170.263 217.143 169.461 220.431 170.024C220.7 170.004 220.948 169.714 220.948 169.714C222.75 168.496 223.724 167.071 223.643 165.995C223.561 164.919 222.653 163.635 221.785 162.89C221.496 162.641 221.496 162.641 221.227 162.661C218.766 162.306 216.346 162.489 213.966 163.21C211.566 163.661 209.227 164.92 206.928 166.716C205.416 168.183 204.194 169.898 203.529 171.841C202.865 173.785 202.758 175.956 202.9 177.839C203.311 179.701 203.454 181.584 204.402 183.405C205.351 185.227 206.569 187.028 208.553 188.23C210.826 189.681 213.577 190.285 216.017 190.371C216.017 190.371 217.631 190.249 220.031 189.798C222.142 189.097 225.019 187.798 227.277 185.464C229.555 183.399 231.194 180.03 230.721 177.361C230.828 175.189 230.498 174.402 230.168 173.616Z" fill="#F4774C"/>
<path d="M232.289 202.587L232.02 202.607C231.193 202.399 230.386 202.46 229.579 202.521C228.463 202.064 222.214 204.392 218.388 203.87C210.736 202.825 200.398 203.019 200.398 203.019L193.634 202.989L171.729 203.021L157.442 198.344C157.173 198.364 156.924 198.653 156.924 198.653C155.661 199.83 154.915 200.698 154.996 201.774C145.584 202.485 153.921 201.855 150.963 202.078C150.983 202.347 150.983 202.347 151.003 202.616C151.044 203.154 151.084 203.692 151.145 204.499C151.247 205.843 151.08 207.208 151.08 207.208C151.08 207.208 152.277 208.741 152.546 208.72C152.835 208.969 153.393 209.197 153.952 209.426C153.805 211.06 155.251 212.303 156.118 213.048C156.407 213.297 156.408 213.297 156.676 213.277L170.964 217.954L194.213 217.821L199.881 217.663C199.881 217.663 220.34 216.389 219.244 216.201C220.857 216.079 225.698 212.01 226.774 211.928C227.084 212.446 227.373 212.695 227.373 212.695C228.24 213.44 229.895 213.856 231.407 212.39C232.421 211.502 233.127 210.096 233.127 210.096C233.127 210.096 232.985 208.214 232.863 206.6C232.802 205.794 232.289 202.587 232.68 204.18C232.309 202.856 232.289 202.587 232.289 202.587ZM226.165 209.835C225.338 209.627 220.284 212.066 219.188 211.878C209.798 213.277 199.424 213.277 199.424 213.277L173.531 212.695L164.789 211.88L158.651 205.743C160.803 205.58 218.808 208.722 217.981 208.514C219.057 208.432 225.074 206.131 225.86 205.801C225.901 206.339 225.962 207.145 226.002 207.683C226.063 208.49 226.124 209.297 226.165 209.835Z" fill="#F4774C"/>
<path d="M212.06 290.091C211.431 291.345 210.341 292.874 209.25 294.404C208.16 295.933 206.811 297.241 205.463 298.549L201.897 302.436C201.232 303.21 200.549 303.744 199.884 304.518C199.458 305.274 198.775 305.807 198.35 306.563L195.725 310.138L195.078 311.152L194.875 311.65L194.653 311.907L197.753 311.432C201.812 310.885 205.871 310.337 209.948 310.029L211.627 309.902L213.066 309.793L215.962 309.816C217.88 309.671 219.817 309.766 221.514 309.879L222.233 309.825L222.953 309.77L223.691 309.956L226.623 310.458L228.08 310.589L228.817 310.775L229.297 310.738L229.537 310.72C229.537 310.72 229.537 310.72 229.519 310.48L229.541 307.584L229.564 304.688L229.659 302.752L229.921 299.837C230.111 295.964 230.541 292.072 230.97 288.181C231.4 284.289 231.572 280.176 231.246 275.859C231.083 273.7 230.938 271.782 230.517 269.402C230.445 268.442 230.132 267.501 229.82 266.56L229.472 265.139L229.177 264.438L229.159 264.198C229.159 264.198 229.159 264.198 228.919 264.216L228.44 264.252L223.367 264.153L199.701 263.769L187.877 263.698C183.763 263.526 180.148 263.558 176.274 263.368C172.401 263.178 168.288 263.006 163.971 263.332C163.011 263.405 161.812 263.495 160.871 263.807C160.152 263.862 159.192 263.934 158.233 264.007C157.274 264.079 155.835 264.188 154.192 264.794C152.549 265.401 151.219 266.948 150.59 268.202C149.093 270.727 149.034 273.143 148.717 275.338C148.64 277.514 148.803 279.673 148.708 281.61L148.926 284.488C148.98 285.207 148.813 286.185 148.885 287.144L148.858 293.176C148.89 296.791 148.94 300.647 149.212 304.244C149.23 304.484 149.488 304.706 149.488 304.706C150.796 306.054 151.773 306.222 152.732 306.149C151.57 306.719 153.321 307.552 159.647 308.28C163.059 308.746 167.19 309.158 170.602 309.624C171.34 309.809 172.299 309.736 172.797 309.94C173.534 310.126 174.014 310.089 174.494 310.053C175.471 310.221 176.191 310.166 176.191 310.166C177.408 310.315 178.865 310.447 180.304 310.338C181.024 310.284 181.761 310.469 182.48 310.415C183.44 310.342 184.399 310.27 185.598 310.179C186.078 310.143 186.779 309.849 187.259 309.813C187.739 309.777 188.662 309.224 189.123 308.948C191.191 307.586 192.522 306.039 193.63 304.749L194.96 303.201C195.404 302.685 195.626 302.427 196.291 301.654L198.951 298.558C200.725 296.495 202.517 294.671 204.309 292.847C206.101 291.024 208.15 289.422 209.997 288.317C210.92 287.765 211.861 287.453 212.58 287.399C212.82 287.381 213.06 287.363 213.06 287.363C213.06 287.363 213.06 287.363 213.3 287.344L213.558 287.566C213.558 287.566 213.558 287.566 213.576 287.806C212.689 288.838 212.485 289.335 212.06 290.091ZM219.02 286.43C218.707 285.489 218.395 284.548 217.621 283.883C216.829 282.978 215.816 282.331 214.58 281.941C213.345 281.552 212.128 281.403 211.168 281.476C209.01 281.639 207.385 282.485 206.001 283.313C203.231 284.969 201.2 286.811 198.946 288.911C196.933 290.992 195.159 293.056 193.385 295.119L190.725 298.215C190.503 298.473 189.838 299.247 189.394 299.762L188.064 301.31C187.177 302.342 186.051 303.392 185.367 303.926C184.906 304.202 184.906 304.202 184.204 304.496C183.725 304.532 183.023 304.826 182.544 304.862C182.304 304.881 181.824 304.917 181.584 304.935L181.344 304.953L180.865 304.989L180.145 305.044C178.946 305.134 177.969 304.967 176.752 304.817C176.752 304.817 175.552 304.908 173.856 304.795C171.937 304.94 169.778 305.103 167.602 305.026C163.285 305.352 158.728 305.696 159.208 305.66C156.809 305.841 154.909 306.226 153.488 306.574C154.171 306.04 154.615 305.525 155.04 304.769C155.262 304.511 155.262 304.511 155.244 304.271C154.99 300.913 154.958 297.298 154.945 293.922L154.99 288.13C154.917 287.171 155.085 286.193 154.994 284.994L154.759 281.876C154.614 279.958 154.469 278.039 154.582 276.342C154.695 274.645 155.048 272.93 155.473 272.175C155.677 271.677 155.917 271.659 156.138 271.401C156.378 271.383 157.079 271.088 157.799 271.034C158.758 270.962 159.718 270.889 160.917 270.799C161.876 270.726 162.817 270.414 163.537 270.36C167.134 270.088 171.008 270.278 174.881 270.468C178.755 270.658 183.09 270.571 186.723 270.779L198.547 270.851L221.974 271.253L222.693 271.198C223.06 272.859 223.205 274.778 223.35 276.697C223.621 280.294 223.431 284.167 223.002 288.059C222.812 291.932 222.382 295.824 221.971 299.955L221.726 303.109L221.799 304.069L220.821 303.901C218.645 303.825 216.708 303.73 214.531 303.653C213.572 303.725 212.613 303.798 211.396 303.648L208.518 303.866L208.961 303.35C210.291 301.802 211.64 300.494 212.952 298.707C214.282 297.159 215.594 295.372 216.631 293.123C217.278 292.109 217.667 290.874 217.78 289.177C219.164 288.349 219.092 287.389 219.02 286.43Z" fill="#F4774C"/>
<path d="M283.195 350.565C281.851 348.737 280.525 347.149 278.978 345.818C278.204 345.153 277.43 344.488 276.434 344.081C276.398 343.601 275.882 343.158 274.869 342.511C273.099 341.438 270.629 340.66 270.629 340.66C270.629 340.66 266.755 340.47 262.9 340.52C260.963 340.425 259.044 340.57 257.587 340.439C257.347 340.457 256.868 340.493 256.628 340.511C256.592 340.032 256.813 339.774 256.777 339.294C257.709 332.47 258.406 322.529 258.406 322.529L258.432 316.497L258.337 305.65C258.341 302.514 258.106 299.396 258.128 296.5C262.463 296.414 268.975 296.405 268.975 296.405C268.975 296.405 269.215 296.387 269.694 296.35L269.772 306.957L269.858 311.292L269.999 316.347C269.999 316.347 271.135 334.592 271.321 333.854C272.104 341.031 273.58 346.967 274.869 335.292C275.801 328.468 276.583 317.297 276.583 317.297L276.609 311.265L276.523 306.93L276.428 296.083C276.41 295.843 276.152 295.622 276.152 295.622C275.636 295.178 275.36 294.717 274.844 294.273C275.509 293.499 275.437 292.54 273.446 291.726C273.685 291.708 273.685 291.707 273.667 291.468C275.292 290.621 276.4 289.332 273.635 287.852C271.866 286.78 269.653 286.223 269.653 286.223C269.653 286.223 258.087 286.373 255.671 286.314C255.838 285.337 256.209 283.862 256.322 282.165C257.236 275.101 257.692 265.178 257.692 265.178L257.479 259.164L257.126 248.095C257.13 244.959 256.913 242.082 256.917 238.946C261.013 238.878 268.483 238.796 268.483 238.796C268.483 238.796 269.425 238.484 270.366 238.171L270.425 248.538L270.598 257.208L270.738 262.263C270.738 262.263 271.875 280.508 272.06 279.77C272.843 286.947 274.405 291.653 275.694 279.978C276.626 273.155 277.322 263.213 277.322 263.213L277.349 257.181L277.417 248.493L277.321 237.646C277.303 237.406 277.045 237.185 277.045 237.185C276.253 236.28 275.479 235.614 274.742 235.429C274.705 234.949 274.171 234.266 273.176 233.859C271.406 232.786 269.194 232.23 269.194 232.23C269.194 232.23 254.971 232.339 254.731 232.357C254.731 232.357 254.75 232.597 254.51 232.615C254.324 233.353 254.139 234.09 254.193 234.81C252.736 234.679 251.609 235.729 250.962 236.742C250.74 237 250.741 237 250.759 237.24C250.849 238.439 250.682 239.417 250.772 240.616C248.745 239.322 246.935 240.906 246.306 242.159C246.084 242.417 246.084 242.417 246.103 242.657L246.198 253.503L246.581 309.673L246.721 314.728C246.721 314.728 247.858 332.973 248.043 332.235C248.17 333.914 248.519 335.335 248.609 336.534C247.374 336.145 245.917 336.014 243.722 335.697C236.88 334.526 226.92 333.589 226.92 333.589L188.552 333.351C181.543 333.157 174.312 333.221 167.284 332.787L161.954 332.466C160.017 332.371 158.338 332.498 156.401 332.403C152.786 332.435 149.17 332.466 145.795 332.48C142.179 332.512 138.785 332.286 135.373 331.82C135.133 331.838 134.912 332.096 134.912 332.096C133.527 332.924 132.862 333.698 132.695 334.675C133.084 333.44 133.197 331.743 133.495 329.309C134.427 322.485 135.124 312.543 135.124 312.543L135.15 306.511L134.817 254.196L134.849 245.029L142.559 244.929C149.551 244.883 156.524 244.598 163.515 244.552C166.891 244.538 170.506 244.507 173.9 244.733C177.294 244.959 180.928 245.167 184.543 245.135C191.553 245.329 198.784 245.266 205.757 244.98L216.346 244.663L223.319 244.377C223.319 244.377 241.491 242.281 240.532 242.354C247.691 241.331 252.379 239.53 240.5 238.738C233.455 238.064 223.549 237.848 223.549 237.848L217.056 238.097L206.467 238.414C199.254 238.718 192.263 238.763 185.253 238.569C181.638 238.601 178.244 238.375 174.61 238.167C170.977 237.959 167.361 237.991 163.746 238.022C156.515 238.086 149.284 238.15 142.31 238.435L131.704 238.513C131.464 238.531 131.242 238.789 131.242 238.789C129.875 239.857 129.468 240.852 129.541 241.812L129.636 239.875C129.618 239.635 129.36 239.413 129.36 239.413C129.36 239.413 129.342 239.173 129.102 239.192C129.323 238.934 129.545 238.676 129.767 238.418C129.952 237.68 129.418 236.997 127.925 236.386C126.156 235.314 123.445 234.554 123.445 234.554C120.789 234.513 117.893 234.491 115.236 234.45C113.798 234.559 112.58 234.409 111.141 234.518C110.422 234.572 109.702 234.627 108.983 234.681C108.503 234.717 108.263 234.735 107.784 234.772C107.544 234.79 107.304 234.808 107.064 234.826C106.824 234.844 106.824 234.844 106.363 235.12C106.123 235.138 105.901 235.396 105.901 235.396C105.2 235.69 104.535 236.464 104.349 237.202L104.146 237.699L104.182 238.179C104.2 238.419 104.218 238.659 104.236 238.899C104.254 239.138 104.254 239.138 104.273 239.378C104.291 239.618 104.549 239.84 104.567 240.08C104.825 240.301 104.843 240.541 105.083 240.523L105.142 250.89L105.129 260.298L105.269 265.352C105.269 265.352 106.406 283.597 106.591 282.86C107.085 286.199 107.524 288.819 108.076 289.742C108.112 290.222 108.13 290.462 108.167 290.941C108.167 290.941 108.185 291.181 107.945 291.199C107.777 292.177 107.628 293.394 107.682 294.114C106.501 294.444 105.836 295.218 105.411 295.974C105.189 296.231 105.189 296.231 105.207 296.471L105.303 307.318L105.425 312.133L105.566 317.187C105.566 317.187 106.702 335.432 106.888 334.695C107.051 336.853 107.436 338.754 107.784 340.174L107.802 340.414C107.21 342.147 107.318 343.586 107.409 344.786C106.947 345.062 106.707 345.08 106.246 345.356C104.64 346.442 103.291 347.75 101.943 349.057C100.852 350.587 99.7436 351.877 98.911 353.628C97.2279 356.891 96.0426 360.357 95.5766 363.769L95.2237 365.484C95.26 365.964 95.0563 366.461 95.0925 366.941L94.9614 368.398L95.07 369.837C95.07 369.837 95.0882 370.077 95.1425 370.796C95.1787 371.276 95.2511 372.235 95.5634 373.177C95.9481 375.077 97.1067 377.643 98.7087 379.693C100.311 381.742 102.356 383.276 103.868 384.127C105.379 384.978 106.374 385.385 106.356 385.145C110.081 386.552 113.216 386.556 113.918 386.262C114.158 386.244 114.14 386.004 114.121 385.764C115.063 385.452 115.986 384.9 116.411 384.144C116.633 383.886 116.633 383.886 116.615 383.647L116.895 380.972L117.044 379.755L117.194 378.538L117.474 375.863L114.763 375.103C114.266 374.9 113.786 374.936 113.528 374.714L113.03 374.511C112.514 374.067 112.017 373.864 111.501 373.42C110.451 372.293 109.365 370.687 108.758 369.044C108.464 368.343 108.392 367.384 108.337 366.664L108.229 365.225L108.378 364.008C108.844 360.596 111.061 358.017 114.328 356.564C115.971 355.958 117.871 355.573 119.55 355.446C121.469 355.301 122.944 355.672 124.437 356.283C125.93 356.894 126.98 358.021 127.809 359.405C128.637 360.79 129.243 362.432 129.13 364.129C129.384 367.487 127.977 371.211 125.225 373.107L125.004 373.365L124.764 373.383L124.542 373.641L123.158 374.469L121.773 375.297L121.551 375.556L121.311 375.574L121.329 375.813L121.624 376.515C121.936 377.456 122.266 378.637 122.578 379.578L123.221 381.7C123.864 383.823 124.507 385.945 125.149 388.067L125.756 389.71L125.995 389.692L126.217 389.434L126.9 388.9C127.823 388.348 128.747 387.796 129.652 387.004L132.403 385.107C132.624 384.85 132.864 384.831 133.086 384.573L133.529 384.058L134.213 383.524C135.118 382.732 136.023 381.94 136.91 380.908C138.462 379.102 139.977 376.817 141.014 374.568C143.068 369.83 143.371 364.26 141.791 359.314C140.085 352.689 135.537 346.762 129.269 343.617C130.174 342.825 130.102 341.866 128.093 340.812C127.337 340.386 126.341 339.979 125.604 339.794C126.084 339.757 126.64 337.544 127.237 332.675C128.169 325.852 128.865 315.91 128.865 315.91L128.892 309.878L128.879 306.502L128.783 295.656C128.765 295.416 128.507 295.194 128.507 295.194C127.973 294.511 127.457 294.067 126.959 293.864C126.923 293.384 126.629 292.683 125.375 292.054C126.556 291.723 129.416 291.266 129.416 291.266C129.656 291.248 129.656 291.248 129.878 290.99L130.041 305.932L130.182 310.987C130.182 310.987 131.319 329.232 131.504 328.494C132.161 333.992 133.188 338.015 134.115 334.327C134.133 334.567 134.152 334.806 134.17 335.046C134.26 336.245 135.052 337.15 135.808 337.576C136.066 337.798 136.066 337.797 136.306 337.779C139.957 338.227 143.831 338.417 147.447 338.385C150.103 338.426 152.741 338.227 155.397 338.267C154.99 339.263 154.841 340.48 154.895 341.199C153.936 341.272 153.252 341.806 152.791 342.082C152.551 342.1 152.551 342.1 152.569 342.34C152.605 342.82 153.435 369.771 153.435 369.771C153.435 369.771 154.788 378.111 154.992 377.613C155.286 378.314 155.358 379.274 155.634 379.735C154.856 382.206 155.481 384.088 156.033 385.011L156.051 385.251C155.865 385.989 155.902 386.468 155.938 386.948C154.942 386.541 154.223 386.595 153.761 386.871C153.521 386.889 153.521 386.889 153.54 387.129C153.354 387.867 152.924 391.758 152.992 395.854C152.821 399.967 152.871 403.822 152.871 403.822C152.871 403.822 153.952 408.564 154.174 408.307C154.174 408.307 154.174 408.307 154.192 408.546C152.016 408.47 149.617 408.651 147.237 409.072C145.097 409.475 142.717 409.895 140.391 411.036C139.929 411.312 139.228 411.606 138.784 412.122L137.861 412.674L137.196 413.448C136.309 414.48 135.44 415.751 135.051 416.987C134.033 419.475 133.993 422.132 134.192 424.77C134.631 427.39 135.55 429.974 137.631 431.987C138.423 432.892 139.695 433.761 140.93 434.15C142.424 434.761 143.623 434.67 144.6 434.838C146.777 434.914 148.677 434.53 150.356 434.403C150.596 434.385 150.818 434.127 150.818 434.127C151.944 433.077 152.352 432.082 152.279 431.122C152.537 431.344 152.777 431.326 153.275 431.529C154.492 431.679 156.189 431.792 159.121 432.294C162.533 432.76 166.683 433.411 170.076 433.637C173.488 434.103 176.126 433.904 176.126 433.904C177.326 433.813 178.285 433.741 179.466 433.411L181.127 433.044L182.086 432.972L182.566 432.935L183.267 432.641C185.389 431.998 187.991 431.32 190.263 429.46C190.946 428.926 191.593 427.912 192.018 427.156L192.036 427.396C192.57 428.079 192.846 428.541 193.38 429.224C193.896 429.668 194.412 430.111 194.928 430.555C196.955 431.849 199.168 432.405 200.883 432.758C202.838 433.093 204.793 433.428 206.49 433.541C206.73 433.522 206.951 433.264 206.951 433.264C208.558 432.178 209.205 431.165 209.132 430.205C209.372 430.187 209.63 430.409 210.11 430.373C211.327 430.522 213.024 430.635 215.92 430.658C219.332 431.124 223.481 431.775 226.875 432.001C230.269 432.227 232.907 432.028 232.907 432.028C234.106 431.937 235.287 431.607 236.247 431.535C236.726 431.498 237.428 431.204 237.907 431.168L238.849 430.856C239.088 430.838 239.088 430.838 239.328 430.819L240.03 430.525C241.912 429.901 244.478 428.742 246.252 426.679C248.025 424.615 249.025 421.886 248.808 419.009C248.699 417.57 248.369 416.388 248.038 415.207C247.468 414.044 247.138 412.864 246.346 411.959C244.984 409.891 242.441 408.153 239.988 407.615C237.535 407.076 235.359 407 233.44 407.144C232.481 407.217 231.503 407.05 230.544 407.122C231.006 406.846 231.209 406.348 231.634 405.592C232.467 403.841 232.526 401.425 232.526 401.425C232.526 401.425 232.453 400.465 232.123 399.284C231.793 398.103 231.648 396.185 231.281 394.524C231.154 392.845 230.788 391.185 230.937 389.967C230.846 388.768 231.032 388.031 231.014 387.791C231.014 387.791 230.774 387.809 230.756 387.569C229.023 386.976 227.326 386.863 226.145 387.194C225.869 386.732 225.113 386.307 224.117 385.9C222.108 384.845 219.158 384.103 219.158 384.103C219.158 384.103 217.94 383.954 216.262 384.081C214.565 383.968 212.148 383.909 209.732 383.85C207.316 383.792 204.677 383.991 202.759 384.136C202.519 384.154 202.279 384.172 202.039 384.19C202.021 383.95 202.003 383.71 201.763 383.729L201.745 383.489C206.8 383.348 221.52 383.443 221.52 383.443C221.52 383.443 227.941 382.234 227.701 382.252C230.303 381.573 231.873 380.007 227.669 378.637C225.18 377.619 221.75 376.913 221.75 376.913C221.75 376.913 209.207 376.895 203.193 377.108C203.202 370.837 203.029 349.383 203.029 349.383C203.029 349.383 202.354 343.645 201.97 341.745C207.024 341.604 220.767 341.531 220.767 341.531C220.767 341.531 222.907 341.128 224.568 340.762C224.622 341.481 224.713 342.68 224.821 344.119C225.02 346.758 225.034 350.133 225.048 353.509C225.062 356.885 225.094 360.5 225.053 363.156C225.012 365.813 225.139 367.491 225.139 367.491C225.139 367.491 225.175 367.971 225.488 368.912C225.542 369.632 225.872 370.813 226.185 371.754C226.587 373.894 227.701 378.647 227.701 378.647C228.307 380.29 228.89 379.321 229.37 379.285C230.107 379.47 230.751 377.922 231.031 375.247C231.144 373.55 231.479 371.595 231.61 370.138C231.741 368.681 231.891 367.464 231.891 367.464C231.891 367.464 231.764 365.785 231.804 363.129C231.845 360.473 231.831 357.097 231.799 353.481C231.768 349.866 231.736 346.25 231.518 343.372C231.301 340.494 230.916 338.594 230.916 338.594C232.355 338.485 234.034 338.359 235.731 338.472C240.066 338.385 244.383 338.059 244.143 338.077C246.541 337.896 248.46 337.752 249.881 337.403C250.469 338.806 250.967 339.009 251.524 336.797L251.505 336.557C251.655 335.339 252.026 333.864 252.324 331.43C252.605 328.755 252.867 325.841 253.147 323.167C253.51 327.963 254.085 338.774 254.288 338.276C254.415 339.955 254.764 341.376 254.854 342.575C253.23 343.421 251.623 344.507 250.257 345.575C246.859 348.485 244.51 352.522 243.619 356.689C243.212 357.685 243.063 358.902 243.135 359.861L242.986 361.079C243.004 361.318 243.004 361.318 243.022 361.558L242.909 363.255L243.036 364.934L243.163 366.613C243.163 366.613 243.181 366.853 243.475 367.554C243.511 368.034 243.823 368.975 244.117 369.676C244.742 371.559 245.643 373.903 247.245 375.952C249.987 380.328 254.042 382.916 253.766 382.455C257.065 384.617 260.476 385.083 261.178 384.789C261.418 384.771 261.4 384.531 261.124 384.07C262.581 384.201 263.707 383.151 264.354 382.137C264.576 381.879 264.576 381.879 264.558 381.64L264.476 374.169L264.422 373.449L264.404 373.209L264.164 373.227L262.928 372.838C262.191 372.653 261.213 372.485 260.236 372.318L259.498 372.133C259.258 372.151 259.241 371.911 259.001 371.929C258.743 371.707 258.503 371.725 258.245 371.504C257.231 370.857 256.457 370.192 256.127 369.01C255.797 367.829 255.706 366.63 255.837 365.173C256.339 362.241 258.059 359.458 260.072 357.376C262.326 355.276 265.131 354.1 267.787 354.141C268.027 354.122 268.507 354.086 268.765 354.308C269.005 354.29 269.503 354.493 269.742 354.475C270.24 354.679 270.978 354.864 271.494 355.308C272.747 355.937 273.797 357.063 274.607 358.208C276.227 360.498 276.942 363.579 276.146 365.81C275.96 366.548 275.721 366.566 275.517 367.064C275.295 367.322 274.834 367.598 273.911 368.15C273.227 368.684 271.825 369.272 270.716 370.562C270.291 371.318 269.847 371.833 269.422 372.589C268.997 373.345 268.811 374.082 268.865 374.802C268.734 376.259 268.825 377.458 269.155 378.639C269.21 379.359 269.87 381.721 270.699 383.105L271.839 385.431L272.409 386.594L272.427 386.834L272.649 386.576L273.35 386.282L275.676 385.141C276.378 384.847 277.301 384.295 277.984 383.761C279.83 382.657 280.274 382.141 281.197 381.589C281.862 380.815 282.767 380.023 283.432 379.249C285.002 377.684 286.056 375.674 286.871 373.683C287.685 371.692 288.242 369.479 288.576 367.525C288.893 365.33 288.97 363.153 288.585 361.253C287.151 358.226 285.625 353.999 283.195 350.565ZM134.388 363.491C134.298 362.292 134.189 360.853 133.859 359.672C134.153 360.373 134.189 360.853 134.483 361.554C135.492 365.337 135.284 368.971 133.859 372.455C133.027 374.206 132.176 375.718 130.828 377.026C130.162 377.799 129.479 378.334 128.814 379.107L128.131 379.641L127.8 378.46L128.262 378.184C132.565 374.483 134.547 368.785 134.388 363.491ZM108.374 379.927L109.13 380.353L109.148 380.593L109.108 383.249C108.592 382.805 107.854 382.62 107.338 382.176C106.067 381.308 104.777 380.199 103.709 378.832C102.641 377.466 101.813 376.081 101.482 374.9C100.912 373.737 100.822 372.538 100.749 371.579C100.677 370.62 100.64 370.14 100.64 370.14C100.55 368.941 100.459 367.742 100.609 366.524L100.645 367.004C100.754 368.443 101.102 369.864 101.432 371.045C102.351 373.629 103.731 375.936 105.573 377.968C106.329 378.393 107.361 379.28 108.374 379.927ZM123.912 349.328C123.174 349.143 122.677 348.939 121.939 348.753L119.984 348.419C119.265 348.473 118.785 348.509 118.047 348.324C115.409 348.523 113.029 348.944 110.463 350.102C108.821 350.709 107.215 351.795 105.848 352.863C106.513 352.089 107.196 351.555 107.88 351.021C109.93 349.419 112.495 348.261 115.373 348.043C118.251 347.826 121.165 348.088 123.654 349.106C123.672 349.346 123.912 349.328 123.912 349.328ZM122.441 333.038C122.952 336.617 123.427 339.717 123.943 340.16C122.948 339.753 122.468 339.789 122.468 339.789C122.468 339.789 112.821 339.794 108.725 339.862C108.875 338.645 109.227 336.93 109.544 334.735C110.476 327.911 111.172 317.97 111.172 317.97L111.199 311.938L111.077 307.123L111.054 297.236C114.909 297.186 120.461 297.249 120.461 297.249C120.461 297.249 120.701 297.231 121.163 296.955L121.186 306.842L121.2 310.218L121.34 315.272C121.118 315.53 122.255 333.775 122.441 333.038ZM122.482 250.545L122.414 259.233L122.315 264.306C122.315 264.306 122.659 268.863 122.764 273.438C123.108 277.995 123.434 282.311 123.398 281.832C123.524 283.511 123.873 284.931 123.963 286.131C123.723 286.149 123.466 285.927 123.466 285.927C123.466 285.927 119.592 285.737 115.479 285.565C113.542 285.47 111.365 285.394 109.926 285.502C109.447 285.538 108.967 285.575 108.488 285.611C108.673 284.873 108.619 284.154 108.786 283.176C109.718 276.352 110.414 266.411 110.414 266.411L110.441 260.379L110.454 250.971L110.431 241.084C111.63 240.993 112.848 241.143 114.047 241.052C116.703 241.093 119.359 241.133 122.015 241.174C122.015 241.174 122.015 241.174 122.255 241.156L122.482 250.545ZM128.203 287.981C127.448 287.556 126.95 287.352 126.452 287.149C126.601 285.931 126.972 284.456 127.049 282.28C127.312 279.365 127.796 276.193 128.04 273.039L128.203 287.981ZM156.725 378.206C157.688 374.997 158.082 370.626 158.082 370.626C158.082 370.626 157.371 351.625 157.103 344.892C163.375 344.901 175.421 344.714 175.421 344.714C175.421 344.714 178.521 344.239 180.421 343.855C180.236 344.592 180.326 345.791 180.177 347.009C180.154 349.905 179.946 353.538 180.218 357.136C180.25 360.751 180.522 364.349 180.721 366.987C180.92 369.625 181.047 371.304 181.047 371.304C181.047 371.304 181.45 373.444 181.852 375.584C182.255 377.725 182.64 379.625 182.622 379.385C182.916 380.087 182.97 380.806 183.247 381.268C182.989 381.046 182.491 380.842 181.753 380.657C179.264 379.639 175.834 378.933 175.834 378.933C175.834 378.933 161.612 379.042 156.06 378.979C156.539 378.943 156.761 378.685 156.725 378.206ZM157.74 404.419C157.74 404.419 157.69 400.564 157.861 396.451C157.956 394.514 158.051 392.577 158.182 391.12C158.146 390.64 158.128 390.401 158.35 390.143L158.59 390.125C160.526 390.22 162.943 390.278 165.581 390.079C170.654 390.178 175.726 390.278 175.726 390.278C175.726 390.278 179.785 389.73 181.206 389.381C181.002 389.879 181.039 390.359 181.039 390.359C181.039 390.359 181.134 401.205 181.238 405.78C179.763 405.409 178.306 405.278 178.306 405.278C178.306 405.278 164.324 405.369 157.812 405.379C157.776 404.899 157.74 404.419 157.74 404.419ZM184.846 424.804C184.181 425.577 183.036 426.387 181.375 426.754C180.674 427.048 179.493 427.379 179.253 427.397C178.773 427.433 178.294 427.469 177.832 427.745C176.873 427.818 175.932 428.13 174.972 428.202C174.972 428.202 174.013 428.275 172.352 428.641C170.674 428.768 168.515 428.931 166.357 429.094C162.022 429.18 157.465 429.525 157.944 429.488C154.347 429.76 151.523 430.697 150.858 431.471L150.84 431.231C150.528 430.29 149.496 429.403 148.74 428.977C148.483 428.756 148.482 428.756 148.243 428.774C146.324 428.919 144.645 429.045 143.206 429.154C142.487 429.208 141.749 429.023 141.749 429.023C141.491 428.801 140.993 428.598 140.717 428.136C139.152 426.566 138.382 422.765 139.4 420.276C139.586 419.538 140.029 419.023 140.233 418.525C140.454 418.267 140.898 417.751 141.599 417.457C142.744 416.647 144.405 416.28 146.084 416.153C149.663 415.642 153.536 415.832 157.853 415.506C161.93 415.198 165.786 415.148 169.863 414.84C171.781 414.695 173.718 414.79 175.655 414.885C177.592 414.98 179.528 415.075 181.004 415.446C182.479 415.817 183.235 416.242 184.045 417.387C184.321 417.849 184.615 418.55 184.909 419.251C185.203 419.953 185.276 420.912 185.57 421.613C185.678 423.052 185.511 424.03 184.846 424.804ZM182.373 385.675L182.152 385.933C181.912 385.951 181.654 385.73 181.654 385.73C180.916 385.544 180.161 385.119 179.663 384.915C181.084 384.567 182.504 384.218 182.504 384.218C182.984 384.182 183.206 383.924 183.686 383.888C182.984 384.182 182.781 384.68 182.373 385.675ZM231.567 414.281C233.504 414.376 235.182 414.249 236.64 414.38C238.097 414.511 238.871 415.176 239.662 416.081C240.454 416.986 241.043 418.389 241.373 419.57C241.794 421.95 240.74 423.959 237.916 424.896C237.215 425.19 236.274 425.503 235.794 425.539L234.373 425.887C233.432 426.2 232.473 426.272 231.513 426.345C231.513 426.345 230.572 426.657 228.893 426.784C227.214 426.91 225.056 427.073 222.898 427.236C218.562 427.322 214.006 427.667 214.504 427.87C210.924 428.382 208.101 429.319 207.435 430.092C207.363 429.133 206.571 428.228 205.815 427.803C205.557 427.581 205.557 427.581 205.318 427.599C203.621 427.486 201.906 427.133 200.191 426.78C198.715 426.409 197.24 426.038 196.227 425.391C195.213 424.744 194.937 424.283 194.864 423.323C194.792 422.364 195.385 420.631 195.774 419.396C196.199 418.64 197.104 417.848 198.489 417.02C199.891 416.431 201.534 415.825 203.195 415.458C206.516 414.725 210.095 414.214 213.951 414.164C217.548 413.892 221.422 414.082 225.037 414.05C227.712 414.331 229.648 414.425 231.567 414.281ZM202.298 397.195C202.135 395.037 202.23 393.1 202.121 391.661C202.361 391.643 202.361 391.643 202.601 391.625C204.28 391.498 206.438 391.335 208.615 391.412C210.791 391.489 213.208 391.547 214.905 391.66C216.601 391.773 217.801 391.683 217.801 391.683C217.801 391.683 219.222 391.334 220.66 391.226C222.081 390.877 223.52 390.769 223.262 390.547L223.502 390.529C223.52 390.769 223.538 391.008 223.556 391.248C223.665 392.687 223.81 394.606 224.177 396.267C224.561 398.167 224.688 399.846 225.019 401.027C225.349 402.208 225.421 403.167 225.421 403.167C225.421 403.167 225.973 404.09 226.286 405.032C226.838 405.955 227.15 406.896 227.15 406.896C227.15 406.896 227.168 407.136 227.408 407.118C224.919 406.099 221.489 405.394 221.489 405.394C221.489 405.394 207.986 405.449 202.452 405.625C202.416 405.146 202.601 404.408 202.529 403.449C202.144 401.548 202.221 399.372 202.298 397.195ZM197.137 341.627C196.191 345.076 195.576 349.705 195.576 349.705C195.576 349.705 195.867 379.109 195.903 379.588L196.161 379.81C196.917 380.235 197.654 380.421 198.392 380.606C198.446 381.326 198.501 382.045 198.537 382.525C198.075 382.801 197.872 383.299 197.446 384.055C196.374 385.824 195.632 388.774 195.632 388.774C195.632 388.774 195.704 389.734 195.591 391.431C195.7 392.869 195.623 395.046 195.786 397.205C195.931 399.123 195.854 401.3 195.723 402.757C195.592 404.214 195.425 405.191 195.425 405.191L195.683 405.413C196.936 406.042 197.914 406.209 198.891 406.377C198.298 408.11 198.407 409.549 198.719 410.49C198.018 410.784 197.316 411.079 196.615 411.373C194.529 412.495 192.221 413.875 190.963 416.382C190.963 416.382 190.982 416.622 190.742 416.64C190.448 415.939 190.393 415.219 189.877 414.776C189.307 413.613 188.479 412.228 187.207 411.359C186.692 410.916 185.918 410.251 185.18 410.065C186.583 409.477 187.248 408.703 186.474 408.038L186.714 408.02C186.954 408.002 186.954 408.002 186.954 408.002C186.936 407.762 186.867 390.883 186.867 390.883C186.867 390.883 185.749 385.662 185.527 385.919C184.957 384.757 184.405 383.833 183.686 383.888C184.147 383.612 184.609 383.336 184.572 382.856C185.07 383.06 185.717 382.046 186.237 379.354C186.943 375.923 187.319 371.312 187.319 371.312C187.319 371.312 187.192 369.634 186.975 366.756C186.775 364.117 186.504 360.52 186.49 357.144C186.458 353.529 186.444 350.153 186.485 347.497C186.525 344.841 186.878 343.126 186.878 343.126L186.62 342.904C185.847 342.239 184.851 341.832 184.132 341.886C184.095 341.406 183.322 340.741 181.606 340.388C181.109 340.185 180.611 339.981 179.873 339.796C182.29 339.854 184.466 339.931 186.883 339.99L197.508 340.152C197.748 340.134 197.304 340.65 197.137 341.627ZM252.417 278.359C252.58 280.518 252.706 282.197 252.688 281.957C252.96 285.554 253.435 288.654 254.191 289.079C254.449 289.301 254.449 289.301 254.671 289.043C254.689 289.283 254.707 289.523 254.725 289.763C254.725 289.763 254.725 289.763 254.485 289.781L254.264 290.039C254.078 290.776 253.893 291.514 253.947 292.233C253.245 292.527 252.784 292.804 252.34 293.319L252.417 278.359ZM255.928 379.156L256.666 379.341L256.72 380.061L256.662 382.477C256.146 382.034 255.372 381.368 254.838 380.685C253.788 379.559 252.72 378.192 251.634 376.586C251.634 376.586 251.634 376.586 251.616 376.346C252.15 377.029 252.906 377.454 253.661 377.88C254.177 378.323 254.675 378.527 255.173 378.73C255.431 378.952 255.689 379.174 255.928 379.156ZM271.059 349.552C270.561 349.348 269.824 349.163 269.326 348.959C268.828 348.755 268.109 348.81 267.611 348.606C265.176 348.308 262.796 348.729 260.692 349.611C258.588 350.494 256.502 351.616 254.932 353.182C251.533 356.091 249.185 360.128 248.312 364.535C248.312 364.535 248.312 364.535 248.294 364.296C248.258 363.816 248.221 363.336 248.185 362.857L248.131 362.137L248.113 361.897L248.28 360.92C248.764 357.748 249.986 354.761 251.981 352.44C253.108 351.39 254.235 350.34 255.619 349.512C257.004 348.684 258.407 348.095 260.067 347.729C263.149 347.014 266.507 346.76 269.475 347.742C272.425 348.484 275.227 350.443 277.105 352.954C278.154 354.081 279.001 355.706 279.589 357.108C279.571 356.869 279.313 356.647 279.295 356.407C278.173 354.321 276.367 352.769 274.58 351.457C273.308 350.588 272.294 349.941 271.059 349.552ZM280.4 371.036C279.418 374.005 277.441 376.566 274.929 378.444C274.468 378.72 274.707 378.702 274.468 378.72L274.431 378.241L274.395 377.761C274.377 377.521 274.341 377.042 274.323 376.802C274.287 376.322 274.49 375.824 274.472 375.585C274.676 375.087 274.694 375.327 275.137 374.811C275.599 374.535 276.762 373.964 277.907 373.154C279.051 372.344 280.16 371.055 280.789 369.801C280.992 369.303 281.196 368.806 281.178 368.566C280.771 369.561 280.585 370.299 280.4 371.036Z" fill="#F4774C"/>
<path d="M61.6713 214.491C62.5434 213.525 62.7841 212.287 62.4269 211.388C62.4103 211.083 62.4103 211.083 62.4103 211.083L56.5794 205.889L56.2554 205.601L56.8201 204.652C57.9662 203.059 59.1122 201.465 59.951 199.889C62.2431 196.702 63.8708 192.633 64.5765 188.615C65.2822 184.596 64.7254 180.034 62.682 176.472C60.9292 172.587 57.6898 169.702 54.1764 167.444C50.663 165.186 46.5848 163.877 42.8472 163.163C38.8023 162.464 34.7907 162.377 30.8124 162.9C26.834 163.423 22.8889 164.556 19.301 166.589C15.7131 168.621 12.4492 170.942 9.84977 174.145C7.2337 177.043 5.28213 180.824 3.94518 184.571C3.12305 186.452 2.91551 188.301 2.41733 190.471C2.20981 192.319 2.01897 194.473 1.81146 196.321C1.72037 200.306 2.56778 204.546 4.62784 208.414C6.6879 212.282 9.92735 215.167 13.7315 217.103C21.3397 220.975 29.9442 220.506 37.5271 218.256C42.3608 216.461 41.4556 216.817 42.3608 216.461C42.9755 216.428 43.5735 216.089 44.4954 216.039C44.4954 216.039 45.0934 215.7 46.3226 215.633C47.5352 215.261 48.7644 215.194 50.3009 215.11C53.374 214.943 56.4637 215.081 56.1398 214.792C58.9055 214.642 61.0734 214.83 61.6713 214.491ZM50.1472 212.289C47.6721 212.118 44.8875 211.687 44.8875 211.687C43.9656 211.737 43.7359 212.347 43.1439 212.379C42.5519 212.412 42.7456 212.692 42.4382 212.709C42.4382 212.709 41.7491 212.82 41.4004 213.072C41.1343 213.263 41.0916 213.488 40.8408 213.699C40.28 214.172 39.0973 214.391 39.0973 214.391C35.4761 215.813 32.8231 217.358 29.4427 217.542C26.0623 217.726 21.742 218.399 18.5858 217.041C15.4295 215.682 10.2613 212.348 8.26779 209.701C6.27426 207.054 4.73566 201.14 4.53607 197.477C4.35312 194.119 4.20529 191.45 5.25156 188.025C6.29783 184.6 8.57054 179.586 10.572 176.721C14.8822 170.975 22.9408 166.586 29.9589 165.286C33.63 164.779 37.4783 164.867 41.2159 165.582C44.9368 165.992 48.2915 167.269 51.4643 168.933C53.0507 169.765 55.1316 171.688 56.4274 172.842C57.7231 173.996 58.7001 174.328 59.6001 175.861C60.2978 177.353 62.2636 180.046 62.6707 181.861C62.7538 183.387 63.2585 186.33 62.727 187.889C62.2954 191.281 60.3342 194.05 58.3494 197.22C57.5106 198.796 56.1872 200.293 55.0245 201.581L54.2714 202.647L52.5439 204.885L52.2699 205.512L51.9793 205.834L52.3031 206.122L53.275 206.988L55.2187 208.719L59.1604 212.104C56.6853 211.933 52.6057 212.155 50.1472 212.289Z" fill="#F4774C"/>
<path d="M15.7858 192.326L16.0737 192.381C16.1555 192.541 16.2374 192.701 16.3193 192.861L16.4012 193.021C16.4012 193.021 16.4012 193.021 16.6072 192.915C16.8132 192.81 16.8131 192.81 16.9372 192.545C16.9372 192.545 16.9372 192.545 17.0191 192.705C17.0191 192.705 17.0191 192.705 17.3069 192.759C17.5948 192.814 17.8007 192.709 18.0067 192.603C18.2127 192.498 18.2127 192.498 18.2127 192.498L18.5427 192.127L18.9546 191.916L20.1085 191.124C20.8505 190.542 21.6743 190.12 22.4982 189.699C26.4536 187.271 30.7789 185.057 34.8981 182.95L37.3696 181.685C37.3696 181.685 39.5533 180.365 41.6129 179.311C43.5907 178.097 45.7744 176.778 45.5684 176.883C47.1342 175.88 48.4122 174.822 48.6604 174.291C48.7026 173.866 47.7968 174.128 44.8315 175.443C40.9604 177.02 36.5533 179.074 36.5533 179.074L33.6699 180.549C29.3447 182.763 25.0194 184.976 20.858 187.51C20.0341 187.931 19.0862 188.618 18.3443 189.2L17.1904 189.992L16.7784 190.203C16.5725 190.308 16.5725 190.308 16.3666 190.414L15.6246 190.995L15.5005 191.261C15.3764 191.526 15.4583 191.686 15.3342 191.952L15.7858 192.326Z" fill="#F4774C"/>
<path d="M18.2887 218.356L18.3876 218.356C18.4081 218.396 18.4285 218.436 18.449 218.476L18.4695 218.516C18.4695 218.516 18.4695 218.516 18.548 218.476C18.6264 218.436 18.6264 218.436 18.6844 218.356C18.6844 218.356 18.6844 218.356 18.7049 218.396C18.7049 218.396 18.7049 218.396 18.8038 218.396C18.9027 218.395 18.9812 218.355 19.0597 218.315C19.1381 218.275 19.1381 218.275 19.1381 218.275L19.2746 218.155L19.4315 218.074L19.8818 217.793C20.1752 217.593 20.489 217.432 20.8029 217.272C22.3312 216.389 23.9789 215.545 25.5481 214.742L26.4896 214.261C26.4896 214.261 27.3322 213.779 28.1169 213.377C28.881 212.936 29.7236 212.454 29.6451 212.494C30.2524 212.133 30.7607 211.772 30.8767 211.612C30.9142 211.491 30.5799 211.612 29.4609 212.134C28.0077 212.777 26.3395 213.58 26.3395 213.58L25.241 214.142C23.5934 214.985 21.9456 215.829 20.3389 216.752C20.025 216.912 19.6532 217.153 19.3598 217.354L18.9095 217.635L18.7526 217.715C18.6741 217.755 18.6741 217.755 18.5957 217.795L18.3023 217.996L18.2443 218.076C18.1863 218.156 18.2068 218.196 18.1488 218.276L18.2887 218.356Z" fill="#F4774C"/>
<path d="M11.8035 213.598L11.8927 213.603C11.9131 213.643 11.9336 213.683 11.9541 213.723L11.9745 213.763C11.9745 213.763 11.9745 213.763 12.0432 213.727C12.1119 213.692 12.1118 213.692 12.16 213.617C12.16 213.617 12.16 213.617 12.1805 213.657C12.1805 213.657 12.1805 213.657 12.2696 213.662C12.3587 213.667 12.4274 213.632 12.496 213.597C12.5647 213.562 12.5647 213.562 12.5647 213.562L12.6815 213.451L12.8188 213.381L13.2103 213.13C13.4644 212.95 13.7391 212.809 14.0137 212.669C15.3458 211.886 16.7876 211.148 18.1606 210.445L18.9845 210.024C18.9845 210.024 19.7192 209.597 20.4057 209.246C21.0718 208.855 21.8065 208.428 21.7379 208.463C22.2666 208.142 22.7063 207.816 22.8027 207.666C22.8304 207.551 22.5353 207.651 21.5536 208.103C20.2769 208.656 18.8147 209.354 18.8147 209.354L17.8536 209.845C16.4119 210.583 14.9701 211.321 13.5693 212.139C13.2947 212.279 12.9719 212.495 12.7178 212.676L12.3263 212.926L12.189 212.997C12.1203 213.032 12.1203 213.032 12.0517 213.067L11.7975 213.247L11.7494 213.323C11.7012 213.398 11.7216 213.438 11.6735 213.513L11.8035 213.598Z" fill="#F4774C"/>
<path d="M15.8724 217.572L15.9713 217.572C15.9918 217.612 16.0123 217.652 16.0328 217.692L16.0532 217.732C16.0532 217.732 16.0532 217.732 16.1317 217.692C16.2102 217.652 16.2101 217.652 16.2681 217.572C16.2681 217.572 16.2681 217.572 16.2886 217.612C16.2886 217.612 16.2886 217.612 16.3875 217.611C16.4865 217.611 16.5649 217.571 16.6434 217.531C16.7219 217.491 16.7219 217.491 16.7219 217.491L16.8583 217.37L17.0152 217.29L17.4655 217.009C17.7589 216.809 18.0728 216.648 18.3866 216.487C19.9149 215.604 21.5626 214.761 23.1318 213.958L24.0734 213.476C24.0734 213.476 24.916 212.995 25.7006 212.593C26.4647 212.152 27.3073 211.67 27.2289 211.71C27.8361 211.349 28.3444 210.988 28.4604 210.827C28.4979 210.707 28.1636 210.828 27.0447 211.35C25.5914 211.993 23.9232 212.796 23.9232 212.796L22.8248 213.358C21.1771 214.201 19.5294 215.045 17.9226 215.968C17.6088 216.128 17.2369 216.369 16.9436 216.57L16.4933 216.851L16.3363 216.931C16.2579 216.971 16.2579 216.971 16.1794 217.011L15.8861 217.212L15.8281 217.292C15.7701 217.372 15.7905 217.412 15.7325 217.492L15.8724 217.572Z" fill="#F4774C"/>
<path d="M9.38556 212.817L9.47468 212.822C9.49515 212.862 9.51562 212.902 9.53609 212.942L9.55657 212.982C9.55657 212.982 9.55657 212.982 9.62523 212.947C9.69388 212.912 9.69386 212.912 9.74204 212.837C9.74204 212.837 9.74205 212.837 9.76252 212.877C9.76252 212.877 9.76252 212.877 9.85165 212.882C9.94077 212.887 10.0094 212.851 10.0781 212.816C10.1467 212.781 10.1467 212.781 10.1467 212.781L10.2636 212.671L10.4009 212.601L10.7923 212.35C11.0465 212.169 11.3211 212.029 11.5957 211.888C12.9279 211.106 14.3696 210.368 15.7427 209.665L16.5665 209.244C16.5665 209.244 17.3012 208.817 17.9878 208.466C18.6538 208.074 19.3886 207.648 19.3199 207.683C19.8487 207.362 20.2883 207.036 20.3847 206.886C20.4124 206.771 20.1173 206.871 19.1357 207.323C17.859 207.875 16.3968 208.573 16.3968 208.573L15.4356 209.065C13.9939 209.803 12.5521 210.541 11.1513 211.359C10.8767 211.499 10.5539 211.715 10.2998 211.895L9.90833 212.146L9.77102 212.216C9.70236 212.251 9.70238 212.251 9.63372 212.287L9.37958 212.467L9.33138 212.542C9.2832 212.617 9.30367 212.657 9.25549 212.733L9.38556 212.817Z" fill="#F4774C"/>
<path d="M14.2229 216.398L14.2924 216.413C14.3129 216.453 14.3333 216.493 14.3538 216.533L14.3743 216.573C14.3743 216.573 14.3743 216.573 14.4233 216.548C14.4724 216.522 14.4723 216.522 14.5009 216.457C14.5009 216.457 14.5009 216.457 14.5214 216.497C14.5214 216.497 14.5214 216.497 14.5909 216.512C14.6604 216.527 14.7094 216.502 14.7585 216.477C14.8075 216.452 14.8075 216.452 14.8075 216.452L14.8851 216.362L14.9832 216.312L15.257 216.121C15.4326 215.981 15.6288 215.88 15.8249 215.78C16.7648 215.198 17.7946 214.671 18.7754 214.169L19.3638 213.868C19.3638 213.868 19.8828 213.552 20.3732 213.301C20.8431 213.01 21.362 212.694 21.313 212.719C21.6848 212.478 21.9872 212.223 22.0443 212.092C22.0524 211.987 21.8358 212.048 21.1288 212.359C20.2051 212.731 19.1548 213.218 19.1548 213.218L18.4683 213.569C17.4385 214.096 16.4087 214.623 15.4198 215.23C15.2236 215.33 14.9989 215.496 14.8233 215.636L14.5495 215.827L14.4514 215.877C14.4024 215.902 14.4024 215.902 14.3533 215.927L14.1777 216.068L14.1491 216.133C14.1205 216.198 14.141 216.238 14.1124 216.303L14.2229 216.398Z" fill="#F4774C"/>
<path d="M7.74263 211.637L7.80723 211.654C7.8277 211.694 7.84817 211.734 7.86864 211.774L7.88912 211.814C7.88912 211.814 7.88912 211.814 7.93326 211.791C7.97739 211.769 7.97738 211.769 8.00104 211.706C8.00104 211.706 8.00105 211.706 8.02152 211.746C8.02152 211.746 8.02152 211.746 8.08612 211.764C8.15073 211.781 8.19486 211.759 8.239 211.736C8.28313 211.713 8.28314 211.713 8.28314 211.713L8.35093 211.628L8.43919 211.583L8.68354 211.407C8.83961 211.277 9.01614 211.187 9.19268 211.096C10.0344 210.565 10.9613 210.09 11.844 209.639L12.3736 209.368C12.3736 209.368 12.8386 209.079 13.2799 208.853C13.7008 208.588 14.1658 208.299 14.1217 208.322C14.4543 208.101 14.7223 207.863 14.7696 207.738C14.7728 207.635 14.5758 207.685 13.9375 207.962C13.1021 208.288 12.1548 208.722 12.1548 208.722L11.5369 209.039C10.6101 209.513 9.68323 209.987 8.79735 210.542C8.62081 210.632 8.42061 210.785 8.26454 210.915L8.02021 211.091L7.93194 211.136C7.8878 211.158 7.88781 211.158 7.84368 211.181L7.68761 211.311L7.66393 211.374C7.64027 211.437 7.66075 211.477 7.63708 211.539L7.74263 211.637Z" fill="#F4774C"/>
<path d="M14.2019 214.393L14.2714 214.408C14.2919 214.448 14.3123 214.488 14.3328 214.528L14.3533 214.568C14.3533 214.568 14.3533 214.568 14.4023 214.543C14.4514 214.518 14.4513 214.518 14.4799 214.453C14.4799 214.453 14.4799 214.453 14.5004 214.493C14.5004 214.493 14.5004 214.493 14.5699 214.508C14.6394 214.523 14.6884 214.498 14.7375 214.473C14.7865 214.448 14.7865 214.448 14.7865 214.448L14.8641 214.357L14.9622 214.307L15.236 214.117C15.4116 213.976 15.6078 213.876 15.804 213.775C16.7438 213.193 17.7736 212.667 18.7544 212.165L19.3428 211.863C19.3428 211.863 19.8618 211.547 20.3522 211.296C20.8221 211.006 21.341 210.689 21.292 210.715C21.6638 210.474 21.9662 210.218 22.0233 210.088C22.0314 209.983 21.8148 210.043 21.1078 210.355C20.1841 210.726 19.1339 211.213 19.1339 211.213L18.4473 211.565C17.4175 212.092 16.3877 212.619 15.3988 213.226C15.2027 213.326 14.9779 213.491 14.8023 213.632L14.5285 213.822L14.4304 213.873C14.3814 213.898 14.3814 213.898 14.3323 213.923L14.1567 214.063L14.1281 214.128C14.0995 214.193 14.12 214.233 14.0914 214.298L14.2019 214.393Z" fill="#F4774C"/>
<path d="M7.72432 209.628L7.78892 209.645C7.80939 209.685 7.82986 209.725 7.85033 209.765L7.87081 209.805C7.87081 209.805 7.87081 209.805 7.91495 209.783C7.95908 209.76 7.95907 209.76 7.98273 209.697C7.98273 209.697 7.98274 209.697 8.00321 209.737C8.00321 209.737 8.00321 209.737 8.06781 209.755C8.13242 209.772 8.17655 209.75 8.22069 209.727C8.26482 209.705 8.26483 209.705 8.26483 209.705L8.33262 209.619L8.42088 209.574L8.66523 209.399C8.8213 209.268 8.99783 209.178 9.17437 209.088C10.0161 208.556 10.943 208.082 11.8257 207.63L12.3553 207.359C12.3553 207.359 12.8203 207.07 13.2616 206.845C13.6825 206.579 14.1475 206.29 14.1034 206.313C14.436 206.092 14.704 205.854 14.7513 205.729C14.7545 205.626 14.5575 205.677 13.9191 205.953C13.0838 206.279 12.1365 206.714 12.1365 206.714L11.5186 207.03C10.5918 207.504 9.66492 207.978 8.77904 208.533C8.6025 208.623 8.4023 208.776 8.24623 208.906L8.0019 209.082L7.91363 209.127C7.86949 209.15 7.8695 209.15 7.82536 209.172L7.66929 209.303L7.64562 209.365C7.62196 209.428 7.64243 209.468 7.61877 209.53L7.72432 209.628Z" fill="#F4774C"/>
<path d="M47.9314 183.287C44.3095 184.573 39.2807 186.768 39.2807 186.768L36.3131 188.286L20.7039 196.464L15.4046 199.176C15.4046 199.176 15.1927 199.284 15.2695 199.434C14.111 201.352 15.5547 201.559 16.3442 201.534L16.5561 201.426L21.8554 198.714L37.4645 190.536L40.0082 189.235C40.0082 189.235 42.0512 188 44.3828 186.807C46.4258 185.572 48.5455 184.487 48.3335 184.596C51.937 182.752 54.0384 181.108 47.9314 183.287Z" fill="#F4774C"/>
<path d="M38.773 194.597C37.7969 194.844 36.3839 195.314 36.3839 195.314C36.3839 195.314 34.418 196.32 32.5032 197.427C31.6294 197.874 30.5372 198.433 29.8819 198.768C29.2266 199.103 28.7897 199.327 28.5712 199.439C28.5712 199.439 28.5712 199.439 28.6224 199.539C28.5438 200.462 29.0181 200.851 29.3389 200.939C29.3389 200.939 29.7758 200.715 30.6495 200.268C31.3049 199.933 32.3971 199.374 33.2708 198.927C35.2368 197.921 36.9331 196.926 36.9331 196.926L38.964 195.508C39.9538 194.75 40.4556 194.114 38.773 194.597Z" fill="#F4774C"/>
<path d="M321.967 258.633C321.446 258.064 321.3 257.332 321.51 256.8C321.519 256.619 321.519 256.619 321.519 256.619L324.975 253.536L325.167 253.364L324.829 252.804C324.143 251.864 323.458 250.924 322.955 249.993C321.584 248.113 320.606 245.71 320.177 243.335C319.747 240.96 320.067 238.26 321.274 236.149C322.307 233.848 324.227 232.135 326.311 230.792C328.396 229.45 330.818 228.667 333.039 228.237C335.444 227.815 337.829 227.755 340.197 228.056C342.565 228.358 344.914 229.02 347.053 230.214C349.192 231.409 351.139 232.775 352.692 234.664C354.255 236.373 355.425 238.605 356.23 240.818C356.723 241.929 356.851 243.022 357.153 244.305C357.28 245.397 357.399 246.671 357.527 247.763C357.591 250.12 357.097 252.63 355.881 254.922C354.665 257.214 352.745 258.927 350.487 260.079C345.971 262.385 340.852 262.125 336.337 260.81C333.457 259.759 333.997 259.967 333.457 259.759C333.092 259.74 332.735 259.541 332.187 259.514C332.187 259.514 331.83 259.314 331.099 259.277C330.377 259.06 329.646 259.023 328.731 258.976C326.903 258.884 325.066 258.971 325.258 258.8C323.612 258.717 322.323 258.832 321.967 258.633ZM328.816 257.307C330.288 257.201 331.943 256.941 331.943 256.941C332.492 256.968 332.63 257.328 332.982 257.346C333.334 257.364 333.219 257.53 333.402 257.54C333.402 257.54 333.812 257.604 334.02 257.752C334.179 257.865 334.205 257.998 334.355 258.122C334.69 258.401 335.394 258.528 335.394 258.528C337.551 259.361 339.321 259.694 341.332 259.796C343.343 259.898 345.864 259.611 347.738 258.801C349.612 257.991 352.038 256.764 353.217 255.194C354.397 253.625 355.19 251.111 355.3 248.944C355.401 246.958 355.53 244.945 354.899 242.921C354.268 240.898 352.896 238.093 351.699 236.403C349.121 233.014 344.539 230.934 340.362 230.179C338.177 229.887 336.226 229.779 334.005 230.21C331.792 230.46 329.811 230.676 327.928 231.667C326.986 232.162 325.753 233.304 324.986 233.99C324.218 234.675 323.858 235.345 323.326 236.253C322.915 237.137 322.12 238.408 321.882 239.482C321.836 240.385 321.402 241.73 321.722 242.651C321.986 244.656 322.713 246.541 323.901 248.412C324.404 249.342 325.195 250.225 325.889 250.984L326.34 251.613L327.373 252.933L327.537 253.303L327.711 253.493L327.519 253.665L326.943 254.178L325.791 255.206L323.455 257.216C324.926 257.11 327.354 257.233 328.816 257.307Z" fill="#F4774C"/>
<path d="M321.783 240.233L321.793 240.31C321.764 240.33 321.736 240.35 321.707 240.371L321.678 240.391C321.678 240.391 321.678 240.391 321.717 240.448C321.757 240.504 321.757 240.504 321.826 240.541C321.826 240.541 321.826 240.541 321.797 240.561C321.797 240.561 321.797 240.561 321.808 240.638C321.818 240.715 321.858 240.771 321.898 240.828C321.937 240.885 321.937 240.885 321.937 240.885L322.046 240.978L322.125 241.091L322.392 241.411C322.579 241.617 322.738 241.844 322.897 242.071C323.748 243.163 324.581 244.353 325.374 245.487L325.85 246.166C325.85 246.166 326.316 246.77 326.712 247.336C327.138 247.883 327.603 248.486 327.564 248.429C327.91 248.862 328.245 249.218 328.382 249.291C328.48 249.307 328.35 249.06 327.824 248.247C327.167 247.187 326.363 245.976 326.363 245.976L325.808 245.183C324.975 243.993 324.142 242.803 323.251 241.654C323.092 241.427 322.865 241.164 322.677 240.958L322.41 240.638L322.331 240.525C322.291 240.468 322.291 240.468 322.252 240.411L322.064 240.205L321.996 240.168C321.927 240.132 321.898 240.152 321.83 240.116L321.783 240.233Z" fill="#F4774C"/>
<path d="M324.785 234.68L324.791 234.749C324.762 234.77 324.733 234.79 324.704 234.81L324.675 234.83C324.675 234.83 324.675 234.83 324.71 234.88C324.745 234.93 324.745 234.93 324.808 234.959C324.808 234.959 324.808 234.959 324.78 234.979C324.78 234.979 324.78 234.979 324.785 235.049C324.791 235.119 324.826 235.168 324.861 235.218C324.895 235.267 324.895 235.267 324.895 235.267L324.994 235.346L325.063 235.446L325.3 235.723C325.468 235.901 325.607 236.099 325.746 236.298C326.498 237.249 327.227 238.29 327.921 239.281L328.337 239.876C328.337 239.876 328.748 240.402 329.095 240.897C329.471 241.373 329.882 241.898 329.847 241.848C330.154 242.225 330.455 242.532 330.582 242.59C330.674 242.599 330.564 242.381 330.107 241.666C329.54 240.734 328.84 239.672 328.84 239.672L328.354 238.978C327.625 237.937 326.896 236.896 326.11 235.895C325.971 235.697 325.768 235.469 325.601 235.291L325.363 235.014L325.294 234.915C325.259 234.865 325.259 234.865 325.225 234.815L325.057 234.637L324.993 234.608C324.93 234.579 324.901 234.599 324.837 234.569L324.785 234.68Z" fill="#F4774C"/>
<path d="M322.134 238.269L322.145 238.346C322.116 238.366 322.087 238.386 322.058 238.406L322.029 238.427C322.029 238.427 322.029 238.427 322.069 238.483C322.108 238.54 322.108 238.54 322.177 238.576C322.177 238.576 322.177 238.576 322.148 238.597C322.148 238.597 322.148 238.597 322.159 238.673C322.17 238.75 322.209 238.807 322.249 238.864C322.289 238.92 322.289 238.92 322.289 238.92L322.397 239.013L322.476 239.127L322.743 239.447C322.931 239.653 323.089 239.88 323.248 240.106C324.099 241.199 324.932 242.389 325.726 243.522L326.202 244.202C326.202 244.202 326.667 244.805 327.064 245.372C327.489 245.918 327.955 246.521 327.915 246.465C328.261 246.898 328.597 247.254 328.734 247.327C328.831 247.343 328.701 247.096 328.175 246.283C327.519 245.222 326.714 244.012 326.714 244.012L326.159 243.219C325.326 242.029 324.493 240.839 323.602 239.69C323.443 239.463 323.216 239.2 323.029 238.993L322.762 238.674L322.682 238.56C322.643 238.504 322.643 238.504 322.603 238.447L322.415 238.241L322.347 238.204C322.278 238.168 322.249 238.188 322.181 238.151L322.134 238.269Z" fill="#F4774C"/>
<path d="M325.129 232.715L325.135 232.785C325.106 232.805 325.077 232.826 325.048 232.846L325.019 232.866C325.019 232.866 325.019 232.866 325.054 232.916C325.089 232.965 325.089 232.965 325.152 232.995C325.152 232.995 325.152 232.995 325.124 233.015C325.124 233.015 325.124 233.015 325.129 233.085C325.135 233.154 325.17 233.204 325.205 233.254C325.239 233.303 325.239 233.303 325.239 233.303L325.338 233.382L325.407 233.481L325.644 233.758C325.812 233.937 325.951 234.135 326.09 234.333C326.842 235.284 327.571 236.326 328.265 237.317L328.681 237.912C328.681 237.912 329.092 238.437 329.439 238.933C329.815 239.409 330.226 239.934 330.191 239.884C330.498 240.261 330.799 240.567 330.926 240.626C331.018 240.635 330.908 240.416 330.451 239.702C329.884 238.769 329.184 237.708 329.184 237.708L328.698 237.014C327.969 235.973 327.24 234.931 326.454 233.931C326.315 233.732 326.112 233.505 325.945 233.327L325.707 233.049L325.638 232.95C325.603 232.901 325.603 232.901 325.569 232.851L325.401 232.673L325.337 232.644C325.274 232.614 325.245 232.634 325.181 232.605L325.129 232.715Z" fill="#F4774C"/>
<path d="M322.865 236.861L322.861 236.916C322.832 236.937 322.803 236.957 322.774 236.977L322.745 236.997C322.745 236.997 322.745 236.997 322.77 237.033C322.795 237.068 322.795 237.068 322.848 237.083C322.848 237.083 322.848 237.083 322.819 237.104C322.819 237.104 322.819 237.104 322.815 237.159C322.811 237.215 322.836 237.25 322.861 237.286C322.886 237.321 322.886 237.321 322.886 237.321L322.964 237.372L323.014 237.443L323.191 237.635C323.319 237.756 323.418 237.898 323.518 238.04C324.071 238.707 324.592 239.451 325.088 240.159L325.385 240.584C325.385 240.584 325.687 240.954 325.935 241.308C326.212 241.642 326.513 242.011 326.489 241.976C326.716 242.239 326.947 242.446 327.055 242.477C327.137 242.472 327.067 242.31 326.749 241.794C326.36 241.116 325.868 240.352 325.868 240.352L325.521 239.856C325.001 239.112 324.48 238.369 323.901 237.665C323.802 237.524 323.649 237.367 323.521 237.245L323.344 237.053L323.294 236.982C323.269 236.947 323.269 236.947 323.244 236.912L323.116 236.79L323.063 236.775C323.009 236.76 322.98 236.78 322.926 236.765L322.865 236.861Z" fill="#F4774C"/>
<path d="M325.866 231.309L325.859 231.361C325.831 231.381 325.802 231.402 325.773 231.422L325.744 231.442C325.744 231.442 325.744 231.442 325.766 231.474C325.789 231.506 325.789 231.506 325.84 231.517C325.84 231.517 325.84 231.517 325.811 231.538C325.811 231.538 325.811 231.538 325.804 231.59C325.798 231.642 325.82 231.674 325.842 231.706C325.865 231.737 325.865 231.737 325.865 231.737L325.938 231.781L325.983 231.845L326.146 232.016C326.264 232.123 326.353 232.25 326.442 232.378C326.946 232.975 327.415 233.644 327.861 234.282L328.129 234.664C328.129 234.664 328.403 234.995 328.626 235.313C328.878 235.612 329.153 235.942 329.131 235.91C329.338 236.145 329.552 236.328 329.654 236.351C329.734 236.342 329.674 236.195 329.391 235.728C329.047 235.114 328.607 234.425 328.607 234.425L328.294 233.978C327.826 233.309 327.357 232.64 326.831 232.011C326.742 231.883 326.601 231.744 326.483 231.637L326.32 231.466L326.276 231.402C326.253 231.37 326.253 231.37 326.231 231.338L326.113 231.231L326.062 231.219C326.01 231.208 325.982 231.228 325.93 231.216L325.866 231.309Z" fill="#F4774C"/>
<path d="M324.428 236.63L324.423 236.686C324.395 236.706 324.366 236.726 324.337 236.746L324.308 236.766C324.308 236.766 324.308 236.766 324.333 236.802C324.358 236.837 324.358 236.837 324.411 236.852C324.411 236.852 324.411 236.852 324.382 236.873C324.382 236.873 324.382 236.873 324.378 236.928C324.374 236.984 324.399 237.019 324.424 237.055C324.448 237.09 324.448 237.09 324.448 237.09L324.527 237.141L324.577 237.212L324.754 237.404C324.882 237.525 324.981 237.667 325.081 237.809C325.634 238.476 326.155 239.22 326.651 239.928L326.948 240.353C326.948 240.353 327.25 240.723 327.498 241.077C327.775 241.411 328.076 241.78 328.052 241.745C328.279 242.008 328.51 242.215 328.618 242.246C328.7 242.241 328.63 242.079 328.312 241.563C327.923 240.885 327.431 240.121 327.431 240.121L327.084 239.625C326.563 238.881 326.043 238.138 325.464 237.434C325.365 237.293 325.212 237.136 325.084 237.014L324.907 236.822L324.857 236.751C324.832 236.716 324.832 236.716 324.807 236.681L324.679 236.559L324.626 236.544C324.572 236.529 324.543 236.549 324.489 236.534L324.428 236.63Z" fill="#F4774C"/>
<path d="M327.425 231.078L327.419 231.13C327.39 231.15 327.361 231.171 327.332 231.191L327.303 231.211C327.303 231.211 327.303 231.211 327.326 231.243C327.348 231.275 327.348 231.275 327.399 231.286C327.399 231.286 327.399 231.286 327.37 231.307C327.37 231.307 327.37 231.307 327.364 231.359C327.357 231.411 327.379 231.443 327.402 231.475C327.424 231.506 327.424 231.506 327.424 231.506L327.497 231.55L327.542 231.614L327.705 231.785C327.823 231.892 327.912 232.019 328.002 232.147C328.506 232.744 328.974 233.413 329.421 234.051L329.688 234.433C329.688 234.433 329.963 234.764 330.186 235.082C330.438 235.381 330.712 235.711 330.69 235.679C330.897 235.914 331.111 236.097 331.214 236.12C331.294 236.111 331.233 235.964 330.95 235.497C330.606 234.883 330.166 234.194 330.166 234.194L329.854 233.747C329.385 233.078 328.917 232.409 328.39 231.78C328.301 231.652 328.161 231.513 328.042 231.406L327.88 231.235L327.835 231.171C327.813 231.139 327.813 231.139 327.79 231.107L327.672 231L327.621 230.989C327.57 230.977 327.541 230.997 327.49 230.985L327.425 231.078Z" fill="#F4774C"/>
<path d="M347.548 246.991C345.935 244.812 343.579 241.922 343.579 241.922L342.101 240.296L341.733 239.838C340.849 238.78 339.958 237.927 339.144 237.043L339.066 237.075C338.219 237.218 338.637 238.466 338.998 239.129C339.069 239.303 339.069 239.303 339.069 239.303C339.882 240.187 340.773 241.039 341.658 242.097L342.026 242.555L343.207 243.898C343.207 243.898 344.317 245.066 345.428 246.234C346.538 247.403 347.578 248.397 347.43 248.255C349.141 249.787 350.336 250.718 347.548 246.991Z" fill="#F4774C"/>
<path d="M342.182 248.183C341.802 247.282 341.203 246.261 341.203 246.261C341.203 246.261 340.239 244.969 339.199 243.498C338.681 242.867 338.164 242.236 337.793 241.756C337.352 241.305 337.129 240.975 337.058 241.005L336.986 241.035C336.787 241.756 336.954 242.747 337.035 243.137C337.035 243.137 337.329 243.437 337.624 243.738C337.994 244.218 338.436 244.669 338.882 245.329C339.846 246.621 340.81 247.912 340.81 247.912C340.81 247.912 342.064 249.294 341.988 249.114C342.5 249.534 342.861 249.594 342.182 248.183Z" fill="#F4774C"/>
<circle cx="319" cy="113" r="37" fill="white"/>
<path d="M318.012 128.914C317.704 129.161 317.156 128.878 316.369 128.067C316.163 127.89 316.06 127.678 316.06 127.431C316.06 127.255 316.197 126.514 316.471 125.208C316.54 124.714 316.608 124.361 316.677 124.149C316.848 123.302 317.053 122.402 317.293 121.449C317.567 120.461 317.738 119.826 317.807 119.544C318.081 119.402 318.697 117.673 319.656 114.356C320.169 112.45 320.751 110.491 321.402 108.48C321.71 107.492 321.95 106.627 322.121 105.886C322.292 105.145 322.412 104.668 322.48 104.456C322.172 104.633 321.505 105.039 320.477 105.674C319.484 106.274 318.543 106.927 317.653 107.633C317.584 107.668 316.934 108.144 315.701 109.062C315.427 109.238 315.05 109.503 314.571 109.856C314.126 110.209 313.749 110.474 313.441 110.65C312.927 111.074 312.499 111.409 312.157 111.656C311.849 111.868 311.626 111.974 311.489 111.974C311.421 111.974 311.25 111.903 310.976 111.762C310.325 111.162 310 110.58 310 110.015C310 109.803 310.051 109.591 310.154 109.38C310.291 109.344 310.907 108.921 312.003 108.109C313.236 107.192 313.938 106.697 314.109 106.627C314.177 106.627 314.366 106.503 314.674 106.256C314.982 105.974 315.273 105.745 315.547 105.568C315.65 105.427 316.454 104.809 317.961 103.715L320.683 101.651C323.559 99.8156 325.134 98.9333 325.408 99.0039C325.579 99.0392 325.853 99.2157 326.23 99.5333C326.64 99.8156 326.863 100.098 326.897 100.38C326.966 100.521 327 100.645 327 100.751C327 100.998 326.863 101.439 326.589 102.074C326.281 102.745 325.716 104.298 324.894 106.733C324.107 109.168 323.508 111.091 323.097 112.503C322.857 113.421 322.497 114.55 322.018 115.891C321.915 116.209 321.761 116.667 321.556 117.267C321.385 117.832 321.231 118.414 321.094 119.014C320.785 119.791 320.443 120.867 320.066 122.243C319.69 123.62 319.399 124.784 319.193 125.737L318.68 127.325C318.372 128.278 318.149 128.808 318.012 128.914Z" fill="#F4774C"/>
<circle cx="76" cy="86" r="37" fill="white"/>
<rect width="30" height="30" transform="translate(63 72)" fill="white"/>
<path d="M72.7643 102C71.2136 102 69.8373 101.77 68.6355 101.31C67.4725 100.812 66.9297 100.237 67.0073 99.5853C67.046 99.1637 67.1042 98.8954 67.1817 98.7804C67.298 98.6271 67.5112 98.5504 67.8214 98.5504L69.0426 98.6654C69.8955 98.8187 70.5933 98.8954 71.136 98.8954C72.8806 98.8954 74.6639 98.5696 76.486 97.918C78.3081 97.2664 79.6843 96.4806 80.6147 95.5608C81.5452 94.6792 82.0104 93.7593 82.0104 92.8011C82.0104 91.7279 81.4095 90.7888 80.2077 89.9839C79.4711 89.4856 78.3468 89.0257 76.8349 88.6041C75.323 88.1824 74.1599 88.01 73.3458 88.0866C73.2295 88.125 73.0744 88.1441 72.8806 88.1441C72.4929 88.1441 72.0083 87.9716 71.4268 87.6267C71.0779 87.2434 70.729 86.7068 70.3801 86.0169C70.3413 85.8252 70.4382 85.6336 70.6708 85.4419C70.9422 85.2503 71.5625 84.8862 72.5317 84.3496C73.5009 83.7746 74.7608 83.0847 76.3115 82.2798C78.6764 80.9766 80.3628 80.0184 81.3707 79.4051C82.4174 78.7535 83.2316 78.1978 83.8131 77.7378C84.1232 77.3545 84.3752 77.0096 84.5691 76.703C84.7629 76.3963 84.8598 76.1663 84.8598 76.013C84.8598 75.8597 84.7435 75.7256 84.5109 75.6106C84.2783 75.4956 83.8906 75.3806 83.3479 75.2656C82.2236 75.1506 81.1963 75.0931 80.2658 75.0931C79.568 75.0931 79.2191 75.1506 79.2191 75.2656H78.9865C78.7151 75.1506 77.9592 75.2273 76.7186 75.4956C75.5168 75.7639 74.8965 75.9747 74.8577 76.128C74.819 76.243 74.4119 76.4346 73.6366 76.703C72.8612 76.9713 72.3766 77.1054 72.1828 77.1054C71.8726 77.0287 71.5237 76.6646 71.136 76.013C70.7871 75.3614 70.6708 74.9015 70.7871 74.6332C70.9034 74.2882 72.1052 73.5791 74.3925 72.5059C75.1291 72.3143 76.3503 72.1801 78.0561 72.1035C79.8006 71.9885 81.08 71.9693 81.8941 72.046C85.3832 72.4293 87.3603 73.8666 87.8255 76.358C87.9418 76.7413 88 77.0862 88 77.3929C88 77.8145 87.8449 78.2169 87.5348 78.6002C87.2634 78.9452 86.6819 79.5201 85.7902 80.325L84.3946 81.2449C83.1153 82.0498 81.8553 82.7972 80.6147 83.4872C80.5372 83.5638 80.0526 83.8896 79.161 84.4645C78.153 85.0778 77.649 85.4419 77.649 85.5569C77.7265 85.6336 77.901 85.7677 78.1724 85.9594C78.4825 86.1127 78.7927 86.3235 79.1028 86.5918C80.1108 86.9368 81.08 87.5117 82.0104 88.3166C82.9408 89.0832 83.658 89.8114 84.162 90.5013C84.6272 91.5362 84.8598 92.5328 84.8598 93.491C84.8598 94.7175 84.4915 95.8674 83.7549 96.9406C83.0571 97.9755 81.991 98.9145 80.5566 99.7578C79.5099 100.333 78.2693 100.831 76.8349 101.253C75.4005 101.674 74.0436 101.923 72.7643 102Z" fill="#F4774C"/>
<circle cx="206" cy="37" r="37" fill="white"/>
<path d="M214.814 23.541C214.77 23.1367 214.688 22.7376 214.567 22.3493C214.504 22.166 214.306 22.2436 214.158 22.3916C213.673 21.3753 212.973 20.4768 212.106 19.7583C211.239 19.0399 210.226 18.5188 209.137 18.2313C207.474 17.8268 205.725 17.9551 204.138 18.598C203.541 18.6133 202.951 18.7252 202.389 18.9294C201.88 19.118 201.415 19.4083 201.021 19.7826C200.701 20.0035 200.403 20.2563 200.133 20.5371C199.435 21.1592 198.89 21.9337 198.539 22.8006C198.185 23.5238 198 24.3185 198 25.124C198 25.9295 198.185 26.7243 198.539 27.4475C198.709 27.7507 199.167 27.3064 199.103 27.0526C198.845 26.0753 198.802 25.0538 198.976 24.0581C199.15 23.0624 199.537 22.1162 200.112 21.2846C199.155 23.025 198.821 25.0403 199.167 26.9962V27.0596C199.163 27.0806 199.163 27.1021 199.167 27.1231C199.223 27.4122 199.773 27.0244 199.745 26.7917C199.717 26.559 199.71 26.4462 199.703 26.2769C199.844 26.5237 200.239 26.0795 200.253 25.9103C200.267 25.741 200.253 25.7128 200.253 25.6141C200.253 25.7481 200.253 25.882 200.309 26.0231C200.306 26.0441 200.306 26.0655 200.309 26.0865C200.38 26.3968 200.894 25.9596 200.887 25.7481C200.845 24.8159 201.012 23.8861 201.374 23.0262C201.489 22.8616 201.616 22.706 201.755 22.5609C202.178 22.2154 202.608 21.8557 203.059 21.5525C204.091 20.9758 205.232 20.6204 206.409 20.5089C207.664 20.3863 208.929 20.5903 210.082 21.1012C210.757 21.7527 211.244 22.5734 211.493 23.4775C211.739 24.4161 211.709 25.4059 211.407 26.3279C211.104 27.2499 210.541 28.0647 209.786 28.6744C208.907 29.2485 207.959 29.7104 206.966 30.0494C206.132 30.3992 205.357 30.8748 204.667 31.4597C203.394 32.5582 202.424 33.9635 201.846 35.5424C201.301 36.9719 201.023 38.4898 201.028 40.02C200.819 41.5856 200.737 43.1655 200.782 44.7444C200.65 44.7883 200.541 44.882 200.478 45.0053C200.429 45.1252 200.436 45.3085 200.605 45.3085H206.352C206.439 45.3 206.521 45.2688 206.592 45.218C206.663 45.1672 206.719 45.0987 206.754 45.0194C206.804 44.9066 206.796 44.7232 206.627 44.7232H206.557L206.246 39.9213C206.068 38.457 206.128 36.9736 206.423 35.5283C206.593 34.822 206.945 34.1727 207.445 33.6456C208.029 33.1108 208.693 32.6706 209.412 32.3411C210.823 31.6205 212.118 30.6936 213.255 29.591C213.559 29.2808 213.255 28.9705 212.945 29.2808L212.868 29.3513L212.973 29.2103C213.866 28.6806 214.517 27.8227 214.786 26.8199C215.062 25.7455 215.071 24.62 214.814 23.541ZM201.226 22.3282C201.094 22.4757 200.972 22.6311 200.859 22.7936C200.76 22.9557 200.775 23.0545 200.859 23.1109C200.944 23.1673 200.859 23.1673 200.824 23.2025C200.739 23.3506 200.662 23.4987 200.591 23.6538C200.684 23.0681 200.896 22.5077 201.214 22.0068C201.532 21.506 201.949 21.0755 202.439 20.7416C201.962 21.2094 201.556 21.7438 201.233 22.3282H201.226ZM203.948 33.3706C204.168 33.2187 204.405 33.091 204.653 32.9898C204.286 33.2992 203.951 33.644 203.652 34.0193C203.489 34.2309 203.574 34.3437 203.722 34.3507C203.563 34.5759 203.419 34.8115 203.292 35.0558H203.214C203.18 35.0677 203.149 35.0869 203.123 35.1123C203.177 34.4492 203.473 33.8292 203.955 33.3706H203.948ZM204.484 35.218C204.526 35.1193 204.561 35.0135 204.603 34.9148C204.646 34.8161 204.603 34.9148 204.603 34.8725L204.921 34.5975C204.808 35.1687 204.695 35.7328 204.589 36.3039L204.646 35.3591C204.681 35.211 204.596 35.1828 204.491 35.218H204.484ZM204.237 40.6687C204.237 40.8309 204.237 40.9931 204.237 41.1482C204.132 41.194 204.042 41.2671 203.976 41.3597C203.976 41.1976 203.976 41.0354 203.927 40.8803C204.047 40.8391 204.154 40.766 204.237 40.6687ZM203.828 35.5635C203.63 36.0642 203.447 36.5719 203.285 37.0937L203.369 36.2405C203.419 36.0924 203.482 35.9443 203.546 35.7962L203.828 35.5635ZM203.01 39.5264V39.4629H203.059C203.059 39.8437 203.01 40.2245 202.989 40.6053C202.989 40.7251 203.045 40.7604 203.137 40.7533C203.094 41.2892 203.059 41.8322 203.003 42.3681V42.2764C203.003 41.4796 203.003 40.6828 202.968 39.8931C202.968 39.8014 202.968 39.752 202.89 39.7379C202.945 39.676 202.988 39.6042 203.017 39.5264H203.01ZM202.425 38.9411L202.573 38.3418L202.432 39.752C202.432 39.8437 202.481 39.879 202.552 39.8931C202.489 39.9431 202.44 40.0087 202.411 40.0834C202.375 40.2527 202.347 40.429 202.312 40.5982C202.312 40.0694 202.368 39.5405 202.432 39.0117C202.439 38.9693 202.432 38.9552 202.432 38.9411H202.425ZM201.459 44.695C201.536 44.1239 201.628 43.5527 201.719 42.9816C201.719 43.4822 201.776 43.9829 201.832 44.4835H201.769C201.666 44.5214 201.577 44.5904 201.515 44.6809L201.459 44.695ZM205.464 40.852C205.499 40.2033 205.541 39.5616 205.605 38.9129C205.605 39.4559 205.661 39.9918 205.696 40.5065V40.6687C205.606 40.7079 205.528 40.7713 205.471 40.852H205.464ZM206.775 33.7302C206.698 33.8289 206.634 33.9276 206.564 34.0263C206.641 33.8007 206.712 33.568 206.796 33.3212C206.803 33.2934 206.803 33.2644 206.796 33.2366C206.973 33.1449 207.142 33.0462 207.311 32.9475C207.322 32.9706 207.339 32.9902 207.361 33.0039V33.0603C207.148 33.2656 206.954 33.4898 206.782 33.7302H206.775ZM208.101 30.9943C207.502 31.2622 206.895 31.5443 206.317 31.8616L205.837 32.0238C205.163 32.2335 204.515 32.5198 203.905 32.877C204.38 32.2889 204.939 31.7734 205.562 31.3468C207.248 30.2116 209.377 29.9366 210.788 28.3923C211.392 27.7244 211.835 26.9254 212.079 26.0581C212.324 25.1908 212.364 24.2786 212.198 23.3929C212.128 23.0857 212.029 22.7858 211.902 22.4974C212.187 22.8316 212.425 23.2043 212.607 23.6045C212.902 24.3311 213.08 25.0997 213.136 25.8821C212.768 26.8566 212.322 27.7999 211.803 28.7026C211.662 28.8718 211.507 29.034 211.352 29.1962C210.345 29.9214 209.256 30.525 208.108 30.9943H208.101ZM213.178 27.7224C213.078 27.9909 212.96 28.2523 212.825 28.5052C212.697 28.665 212.556 28.8137 212.402 28.9494C212.354 28.9897 212.318 29.0427 212.298 29.1025C212.278 29.1623 212.275 29.2265 212.289 29.2878C212.247 29.3381 212.22 29.3992 212.212 29.4641C212.184 29.5104 212.153 29.5551 212.12 29.5981H212.085L211.761 29.6545C211.845 29.5276 211.923 29.4007 212 29.2667C212.078 29.1327 212.275 28.9776 212.409 28.8225C212.634 28.5827 212.837 28.3231 213.016 28.0468C213.122 27.8846 213.1 27.7789 213.016 27.7295C213.072 27.6237 213.114 27.5039 213.171 27.391C213.192 27.5039 213.185 27.6167 213.185 27.7224H213.178Z" fill="#F4774C"/>
<path d="M206.634 48.8202C206.634 48.7285 206.578 48.665 206.479 48.665C204.599 48.73 202.727 48.9446 200.88 49.3067C200.74 49.3986 200.61 49.5049 200.492 49.624C200.401 49.7157 200.281 49.9131 200.394 50.033C200.428 50.0557 200.469 50.0679 200.51 50.0679C200.551 50.0679 200.592 50.0557 200.626 50.033C200.591 51.1683 200.626 52.2965 200.69 53.4247C200.69 53.8407 200.69 54.4612 201 54.7785C201.174 54.887 201.368 54.9587 201.571 54.989C201.773 55.0193 201.98 55.0077 202.178 54.9548L205.703 54.6516C206.141 54.6164 206.698 54.6516 206.973 54.2497C207.076 54.0551 207.117 53.8339 207.092 53.6151C207.092 53.3119 207.092 53.0157 207.092 52.7196C207.035 51.4104 206.881 50.1071 206.634 48.8202ZM204.751 50.724C204.863 51.4375 204.908 52.1599 204.885 52.8818L204.512 53.0016C204.521 52.2366 204.601 51.4741 204.751 50.724ZM203.694 51.7535L203.821 50.851C203.882 51.636 203.91 52.4187 203.905 53.199C203.764 53.2414 203.616 53.2625 203.468 53.2978C203.532 52.783 203.616 52.2683 203.694 51.7535ZM202.812 51.7535C202.812 52.3176 202.812 52.8747 202.812 53.4388H202.692C202.7 52.8794 202.745 52.3211 202.826 51.7676L202.812 51.7535ZM204.145 54.2215L202.819 54.3414C202.463 54.4038 202.101 54.4204 201.741 54.3907C201.666 54.3766 201.596 54.3441 201.536 54.2961C201.477 54.2481 201.431 54.1861 201.402 54.1157C201.493 54.0936 201.578 54.0501 201.649 53.9888C201.72 53.9275 201.776 53.8501 201.811 53.7632C201.882 53.3048 201.966 52.8535 202.044 52.4022C202.044 52.8888 202.079 53.3824 202.086 53.8689C202.086 53.889 202.09 53.9088 202.098 53.9273C202.106 53.9457 202.117 53.9624 202.132 53.9762C202.146 53.9901 202.164 54.0008 202.182 54.0078C202.201 54.0148 202.221 54.018 202.241 54.017C202.257 54.0339 202.277 54.0471 202.299 54.0557C202.321 54.0642 202.345 54.0678 202.368 54.0664H202.791V54.151C202.791 54.433 203.144 54.2638 203.299 54.0734L204.561 54.1087H205.217L204.145 54.2215ZM205.386 53.5164H204.491C204.617 53.4741 204.744 53.4458 204.871 53.3965C204.907 53.5023 205.055 53.5093 205.153 53.467C205.272 53.4113 205.365 53.3131 205.414 53.192C205.513 53.1426 205.619 53.0933 205.71 53.0369C205.71 53.2061 205.76 53.3753 205.781 53.5446L205.386 53.5164ZM206.493 54.0099C206.333 54.0196 206.173 54.0196 206.014 54.0099C206.14 53.9579 206.247 53.8664 206.317 53.7491C206.416 53.4878 206.416 53.1994 206.317 52.9382C206.317 52.7548 206.267 52.5644 206.246 52.3741C206.282 52.2553 206.299 52.1314 206.296 52.0074C206.246 51.1894 206.112 50.3503 206.014 49.5324C206 49.4153 205.977 49.2997 205.943 49.1868H206.042C206.183 49.9766 206.289 50.7734 206.352 51.5702C206.352 51.9862 206.416 52.4022 206.43 52.8253V53.4176C206.464 53.6276 206.486 53.8396 206.493 54.0523V54.0099Z" fill="#F4774C"/>
</svg>
