<svg width="20" height="20" viewBox="0 0 20 20" fill="none" xmlns="http://www.w3.org/2000/svg">
<rect width="20" height="20" fill="#E4E4E4"/>
<path d="M7.56836 20C6.6084 20 5.75643 19.8544 5.01246 19.5631C4.29249 19.2475 3.9565 18.8834 4.0045 18.4707C4.0285 18.2037 4.0645 18.0337 4.1125 17.9609C4.18449 17.8638 4.31649 17.8153 4.50848 17.8153L5.26445 17.8881C5.79243 17.9852 6.22441 18.0337 6.5604 18.0337C7.64036 18.0337 8.74432 17.8274 9.87227 17.4147C11.0002 17.002 11.8522 16.5044 12.4282 15.9218C13.0042 15.3635 13.2921 14.7809 13.2921 14.174C13.2921 13.4943 12.9202 12.8996 12.1762 12.3898C11.7202 12.0742 11.0242 11.7829 10.0883 11.5159C9.1523 11.2489 8.43233 11.1396 7.92835 11.1882C7.85635 11.2125 7.76036 11.2246 7.64036 11.2246C7.40037 11.2246 7.10038 11.1154 6.7404 10.8969C6.5244 10.6541 6.30841 10.3143 6.09242 9.87735C6.06842 9.75597 6.12842 9.6346 6.27241 9.51322C6.44041 9.39185 6.82439 9.16124 7.42437 8.82139C8.02435 8.45726 8.80432 8.02031 9.76428 7.51054C11.2282 6.68519 12.2722 6.07832 12.8962 5.68992C13.5441 5.27725 14.0481 4.92526 14.4081 4.63396C14.6001 4.39121 14.7561 4.17274 14.8761 3.97854C14.9961 3.78434 15.0561 3.63869 15.0561 3.54159C15.0561 3.44449 14.9841 3.35952 14.8401 3.2867C14.6961 3.21387 14.4561 3.14105 14.1201 3.06822C13.4241 2.9954 12.7882 2.95899 12.2122 2.95899C11.7802 2.95899 11.5642 2.9954 11.5642 3.06822H11.4202C11.2522 2.9954 10.7842 3.04395 10.0163 3.21387C9.2723 3.3838 8.88831 3.51731 8.86431 3.61441C8.84031 3.68724 8.58832 3.80861 8.10834 3.97854C7.62836 4.14846 7.32837 4.23342 7.20838 4.23342C7.01638 4.18487 6.80039 3.95426 6.5604 3.54159C6.34441 3.12891 6.27241 2.83761 6.34441 2.66769C6.41641 2.44921 7.16038 2.00013 8.57633 1.32043C9.03231 1.19905 9.78828 1.11409 10.8442 1.06554C11.9242 0.992718 12.7162 0.98058 13.2201 1.02913C15.3801 1.27188 16.604 2.18219 16.892 3.76006C16.964 4.00281 17 4.22128 17 4.41548C17 4.68251 16.904 4.9374 16.712 5.18015C16.544 5.39862 16.184 5.76274 15.6321 6.27252L14.7681 6.85512C13.9761 7.36489 13.1961 7.83825 12.4282 8.2752C12.3802 8.32375 12.0802 8.53009 11.5282 8.89421C10.9042 9.28261 10.5922 9.51322 10.5922 9.58605C10.6402 9.6346 10.7482 9.71956 10.9162 9.84093C11.1082 9.93804 11.3002 10.0715 11.4922 10.2415C12.1162 10.4599 12.7162 10.8241 13.2921 11.3338C13.8681 11.8193 14.3121 12.2806 14.6241 12.7175C14.9121 13.3729 15.0561 14.0041 15.0561 14.611C15.0561 15.3878 14.8281 16.116 14.3721 16.7957C13.9401 17.4511 13.2801 18.0459 12.3922 18.5799C11.7442 18.944 10.9762 19.2596 10.0883 19.5266C9.2003 19.7937 8.36033 19.9515 7.56836 20Z" fill="#5A5A5B"/>
</svg>
