<svg width="15" height="15" viewBox="0 0 15 15" fill="none" xmlns="http://www.w3.org/2000/svg">
<rect width="15" height="15" fill="#F5F5F5"/>
<path d="M15 7.5C15 11.6421 11.6421 15 7.5 15C3.35786 15 0 11.6421 0 7.5C0 3.35786 3.35786 0 7.5 0C11.6421 0 15 3.35786 15 7.5ZM2.64258 7.5C2.64258 10.1827 4.81732 12.3574 7.5 12.3574C10.1827 12.3574 12.3574 10.1827 12.3574 7.5C12.3574 4.81732 10.1827 2.64258 7.5 2.64258C4.81732 2.64258 2.64258 4.81732 2.64258 7.5Z" fill="#FFB69D"/>
<path d="M13.6298 6.72373C14.3537 6.63205 15.0272 7.1476 14.9906 7.87641C14.9141 9.39896 14.3743 10.8736 13.4276 12.095C12.2089 13.6671 10.4156 14.6907 8.44227 14.9406C6.46891 15.1905 4.47709 14.6462 2.90501 13.4276C1.68366 12.4808 0.793366 11.1872 0.339721 9.73179C0.122572 9.03512 0.646302 8.36795 1.37025 8.27627C2.0942 8.18459 2.73938 8.70989 3.02222 9.38258C3.34337 10.1464 3.85761 10.8224 4.52403 11.339C5.5422 12.1283 6.83221 12.4808 8.11027 12.3189C9.38833 12.1571 10.5497 11.4941 11.339 10.476C11.8556 9.80956 12.1851 9.02668 12.3057 8.20692C12.4119 7.48497 12.9058 6.81541 13.6298 6.72373Z" fill="url(#paint0_linear_328_24098)"/>
<defs>
<linearGradient id="paint0_linear_328_24098" x1="13.5" y1="7" x2="2.5" y2="9.5" gradientUnits="userSpaceOnUse">
<stop stop-color="#F4774C"/>
<stop offset="1" stop-color="#F4774C" stop-opacity="0"/>
</linearGradient>
</defs>
</svg>
