<svg width="103" height="110" viewBox="0 0 103 110" fill="none" xmlns="http://www.w3.org/2000/svg">
<path d="M68.5395 25.0266C69.5814 24.3715 70.726 23.7925 71.8347 23.262C72.5738 22.9084 73.2565 22.7384 73.9905 22.6065C73.8672 21.9137 74.4934 21.1755 75.2839 21.6117C80.1144 24.2183 84.447 28.0341 87.7737 32.4566C90.7975 36.4288 93.611 41.9738 92.5388 46.9661C91.5025 51.9099 88.3718 56.3522 85.2719 60.216C81.8846 64.4679 78.1071 68.28 74.191 72.0645C70.701 75.4885 67.3649 79.0267 63.8235 82.4126C60.1384 85.9926 56.0734 89.4411 51.187 91.5284C47.6351 93.1026 43.9394 93.3673 40.1768 92.7557C38.3495 92.7529 36.5786 92.5666 34.7255 92.1689C31.2606 91.4775 28.0524 90.2247 25.0339 88.286C23.6787 87.4309 22.4672 86.3817 21.3994 85.1385C20.9425 84.574 20.6242 84.0372 20.3418 83.4518C20.0903 83.7914 19.3614 83.7017 19.1971 83.2791C19.0482 82.9431 18.9712 82.5101 18.9096 82.1637C18.6119 82.2435 18.309 81.7933 18.5913 81.6269C18.7144 81.568 18.7504 81.5195 18.8736 81.4605C18.9658 79.7249 19.9306 77.8851 20.7979 76.499C21.9937 74.4547 23.7746 72.6942 25.6018 71.1935C25.7968 71.0375 26.0278 70.833 26.2228 70.6771C26.7566 70.1711 27.275 69.5785 27.8601 69.1106C29.3896 67.6897 31.109 66.3345 33.044 65.44C34.2861 64.4072 35.4255 63.2982 36.4982 62.0645C36.9806 61.5204 37.8686 61.5028 38.3769 62.1053C39.8862 63.8264 41.0413 65.8109 42.0219 67.8163C42.4224 68.5644 42.7869 69.361 43.1155 70.2062C43.2336 70.3689 43.3363 70.4451 43.4544 70.6079C43.6238 70.8087 43.5673 70.9923 43.5109 71.176C44.404 70.9366 45.3793 70.9085 46.2878 70.7557C47.7404 70.4052 49.1109 69.8435 50.4146 69.1571C53.4788 67.597 56.158 65.3754 58.6319 63.0014C62.9739 58.8565 67.0592 53.7695 68.9167 47.9316C67.341 48.341 65.6573 48.1442 64.0301 47.7638C61.4327 47.1898 58.9174 46.0753 56.7255 44.5243C56.5201 44.3719 56.3866 44.1225 56.4277 43.8523C57.3459 38.7457 59.5628 33.9262 62.8732 29.993C64.5207 27.9832 66.4556 26.3369 68.5395 25.0266ZM58.7064 40.8826C58.614 41.1147 58.5371 41.4335 58.4447 41.6656C58.532 41.6552 58.532 41.6552 58.6192 41.6448C58.6243 41.4231 58.6654 41.1528 58.7064 40.8826ZM70.8878 47.7403C70.9545 47.865 70.9135 48.1352 70.7903 48.1942C70.508 48.3605 70.2308 48.3052 70.0101 48.0663C70.0101 48.0663 70.0101 48.0663 69.9588 48.0282C69.5125 50.7789 68.132 53.2876 66.7207 55.623C64.8218 58.7242 62.4763 61.5692 59.8588 64.1372C57.3131 66.6082 54.5107 68.8887 51.3387 70.5943C49.999 71.3293 48.5054 71.95 46.9655 72.3108C46.0724 72.5502 45.0407 72.762 44.086 72.6549C44.163 73.0879 44.276 73.4724 44.353 73.9054C44.4146 74.2518 43.9578 74.439 43.7371 74.2001C42.7257 72.7733 41.9967 71.18 41.1957 69.6838C40.9904 69.5315 40.7851 69.3791 40.667 69.2164C40.3693 69.2962 40.0921 69.2409 39.7482 69.0609C39.3016 68.8047 38.9268 68.4515 38.588 68.0498C38.4699 67.887 38.3518 67.7242 38.1465 67.5719C38.3159 67.7727 37.9566 67.5061 38.0438 67.4957C37.9412 67.4195 37.7153 67.4023 37.664 67.3642C37.5254 67.3366 37.3868 67.3089 37.2123 67.3298C37.0737 67.3021 36.9505 67.361 36.8632 67.3715C36.6014 67.4028 36.3037 67.4826 36.042 67.5138C35.272 67.6943 34.4816 68.0098 33.7219 68.4986C32.0384 69.8053 30.2523 71.0357 28.6047 72.2939C26.757 73.9297 24.9915 75.7768 23.5699 77.8039C23.1388 78.3861 22.7231 79.0548 22.3433 79.6751C24.268 78.4723 26.2441 77.3075 28.1021 75.98L28.1534 76.0181C26.1826 77.7128 24.0423 79.2067 21.8506 80.6626C21.8147 80.7111 21.8147 80.7111 21.7788 80.7596C21.7069 80.8566 21.7223 80.9432 21.6505 81.0403C21.63 81.1754 21.5735 81.359 21.5017 81.456C22.0304 81.9235 22.5951 82.3424 23.1598 82.7613C23.3702 82.692 23.5961 82.7092 23.8065 82.6398C24.5251 82.4213 25.2437 82.2028 25.9982 81.9357C27.5073 81.4017 28.9701 80.6078 29.8528 79.3084C29.9247 79.2113 30.166 79.3152 30.0582 79.4607C29.4013 80.7774 28.1797 81.6751 26.876 82.3615C26.101 82.7636 25.2592 83.0411 24.4174 83.3186C24.2942 83.3775 24.1197 83.3984 23.9606 83.5058C24.9873 84.2675 26.1012 85.0188 27.1844 85.5969C29.9613 85.1766 32.4711 83.5059 34.8527 82.1158C35.0118 82.0084 35.2326 82.2473 35.0735 82.3548C32.9691 83.8002 30.7723 85.4777 28.3548 86.1646C29.5251 86.7322 30.7674 87.2029 31.9942 87.5869C33.0619 87.3267 34.0628 86.9417 35.0637 86.5568C37.5069 85.5131 39.7652 84.182 42.3111 83.2145L42.3624 83.2526C39.8064 84.6635 37.4043 86.1887 34.7301 87.4369C34.2733 87.6241 33.7805 87.8599 33.2724 88.009C34.068 88.2235 34.8637 88.438 35.6952 88.6039C36.0238 88.6973 36.3882 88.7422 36.7527 88.7871C40.2379 87.84 43.5176 85.2371 46.4586 83.7359C46.5818 83.677 46.6999 83.8397 46.5767 83.8987C43.9642 85.4932 41.3004 87.8014 38.3645 89.0809C39.8736 89.2985 41.3314 89.4781 42.7738 89.5711C43.3692 89.4115 43.9492 89.1653 44.4779 88.881C46.1152 88.0663 47.6704 87.0403 49.3591 86.2636C49.4823 86.2047 49.5644 86.416 49.4412 86.4749C47.6088 87.4456 46.064 88.7799 44.1802 89.7125C44.4061 89.7298 44.632 89.747 44.9451 89.7538C46.3361 89.8087 47.835 89.718 49.2311 89.5512C50.6273 89.3843 51.9772 88.9577 53.4093 88.7424C53.5838 88.7215 53.7378 88.8358 53.7173 88.9709C55.6061 87.8165 57.3769 86.4995 59.009 85.1547C63.0021 81.8033 66.4665 77.9844 70.1875 74.3559C73.7854 70.7863 77.4346 67.2549 80.863 63.4845C84.2708 59.0975 87.8173 54.7381 89.988 49.6588C90.9989 47.327 91.3477 45.0301 90.9009 42.5188C90.4232 39.8342 89.0216 37.2159 87.4558 34.9266C84.627 30.7985 80.7614 27.1037 76.4186 24.4831C76.3827 24.5316 76.2954 24.542 76.2595 24.5905C74.3655 25.2148 72.451 25.9742 70.7726 27.0592C68.7401 28.4076 67.0464 30.1577 65.5426 31.9735C64.3416 33.4878 63.115 35.359 62.217 37.3235C62.4788 37.2922 62.7046 37.3095 62.9818 37.3648C63.0691 37.3543 63.0485 37.4895 62.9613 37.4999C62.6841 37.4446 62.4223 37.4758 62.1605 37.5071C61.6268 38.7648 61.1804 40.0121 60.9752 41.3632C62.3765 40.9747 63.7983 40.451 64.8762 39.7474L64.9275 39.7855C63.9164 40.6138 62.7358 41.2413 61.5245 41.6956C61.3141 41.7649 61.1036 41.8343 60.8932 41.9037C60.8111 42.4441 60.7804 43.0226 60.801 43.6393C61.1449 43.8193 61.5402 44.0373 61.8841 44.2174C63.8243 43.8528 65.7901 42.3798 66.8628 41.1461L66.9141 41.1842C66.1238 42.2515 64.4455 44.0882 62.6746 44.6535C63.3112 44.9754 63.8604 45.3078 64.497 45.6297C64.5996 45.7059 64.7382 45.7335 64.8409 45.8097C65.6622 45.6673 66.5245 45.2548 67.2122 44.863C68.4646 44.1385 69.6657 43.3759 70.9694 42.6895C71.0926 42.6306 71.262 42.8314 71.1029 42.9389C69.7068 43.8574 68.4288 44.9388 66.966 45.7326C66.6837 45.899 66.3141 46.0759 65.9805 46.2042C66.6888 46.4291 67.4691 46.5569 68.2698 46.5497C68.2903 46.4146 68.3109 46.2794 68.4854 46.2586C70.1638 45.9254 71.5291 44.8336 72.7866 43.8874C73.0176 43.6829 73.3564 44.0846 73.1254 44.2891C72.027 45.1279 70.8927 46.0151 69.6095 46.5665C69.7481 46.5941 69.7944 46.8539 69.6712 46.9129C69.4248 47.0307 69.2144 47.1001 69.0039 47.1695C69.5634 47.0584 70.0716 46.9092 70.5643 46.6735C70.7747 46.6041 70.9596 46.8916 70.7645 47.0475C70.5695 47.2035 70.3231 47.3214 70.164 47.4288C70.4617 47.349 70.7543 47.4909 70.8878 47.7403ZM58.7221 43.9761C58.6502 43.3214 58.6296 42.7048 58.6603 42.1263C58.5731 42.1367 58.5217 42.0986 58.4345 42.109C58.3011 42.6114 58.2036 43.0652 58.0702 43.5676C58.2242 43.6819 58.4295 43.8342 58.7221 43.9761Z" fill="#F4774C"/>
<path d="M74.1801 45.2349C73.7799 46.7411 72.9847 48.0294 72.2048 49.4042C71.3172 50.9246 70.4296 52.4449 69.4906 53.9271C67.4691 57.0856 65.2065 60.1403 62.7745 62.9943C58.2852 68.304 52.8467 73.2852 45.9255 75.4387C45.8023 75.4976 45.6689 75.2484 45.8434 75.2276C52.5286 72.7488 57.9209 67.5079 62.3744 62.2467C64.7345 59.4897 66.874 56.4939 68.8237 53.4324C69.6908 52.0471 70.5938 50.6133 71.3582 49.1519C72.1381 47.7771 72.7641 46.2881 73.7851 45.0169C73.9647 44.7745 74.2212 44.9648 74.1801 45.2349Z" fill="#F4774C"/>
<path d="M81.1192 57.5877C82.2941 55.6797 83.4331 53.8202 84.7106 51.9883C85.6649 50.5927 86.8039 48.7332 88.3687 48.0158C88.4918 47.9569 88.6457 48.071 88.5893 48.2545C88.2404 49.0474 87.6709 49.6016 87.1527 50.1938C86.5268 50.9315 85.9522 51.7072 85.3775 52.4829C84.1 54.3148 82.961 56.1744 81.7861 58.0824C79.5081 61.8014 77.3327 65.5966 74.5263 68.8486C71.5557 72.4296 67.713 75.3636 64.0807 78.2284C60.2893 81.2005 56.6005 84.2488 53.3888 87.726C53.3529 87.7745 53.3016 87.7364 53.3375 87.6879C58.8888 80.0866 67.7284 75.4502 73.9107 68.392C76.7171 65.14 78.8771 61.2583 81.1192 57.5877Z" fill="#F4774C"/>
<path d="M65.6316 24.4122C65.1751 25.3508 63.9486 25.7182 63.0505 26.179C61.747 26.865 60.5566 27.9353 59.592 29.0229C57.6115 31.1601 56.6318 33.6641 55.9757 36.4832C55.8988 36.8018 55.4676 36.6322 55.3854 36.421C54.7379 33.5364 56.323 30.4297 57.9905 28.2857C59.0115 27.0145 60.2019 25.9442 61.5104 25.0365C62.4649 24.3922 64.0916 23.2698 65.3133 23.8755C65.5545 23.9794 65.7753 24.2183 65.6316 24.4122Z" fill="#F4774C"/>
<path d="M60.1654 20.5099C61.0684 19.8275 62.0742 19.2212 62.9927 18.6253C63.8034 18.1749 64.8451 17.5201 65.8355 17.5786C66.2871 17.6131 66.4309 18.1705 66.2668 18.4996C65.7999 19.1299 64.9019 19.5908 64.2143 19.9823C63.2804 20.4916 62.3978 21.039 61.5306 21.673C59.5859 23.0102 57.7951 24.4617 56.1224 26.0759C52.8643 29.2938 50.5505 33.0621 49.5249 37.5605C49.4326 37.7925 49.0836 37.8342 49.0733 37.526C48.431 32.9173 51.612 28.5151 54.5366 25.4254C56.1785 23.6381 58.1129 21.9927 60.1654 20.5099Z" fill="#F4774C"/>
<path d="M68.8986 11.5952C68.1649 12.4786 66.9385 12.8463 65.9534 13.3177C64.7578 13.8586 63.5777 14.486 62.3975 15.1134C59.8423 16.5241 57.5231 18.2602 55.322 20.159C53.1568 22.0094 51.2278 24.1851 49.5399 26.4646C48.047 28.5881 46.9493 30.9297 45.6463 33.119C45.518 33.3995 45.0356 33.192 45.0253 32.8838C45.2763 30.2899 46.6357 27.917 48.0413 25.8039C49.6266 23.4483 51.5556 21.2725 53.6541 19.2976C55.8244 17.2256 58.2307 15.4791 60.7552 13.8952C61.9558 13.1327 63.2232 12.4949 64.4547 11.9056C65.6502 11.3648 67.0767 10.6195 68.4469 10.8093C68.8984 10.8437 69.1141 11.3042 68.8986 11.5952Z" fill="#F4774C"/>
<path d="M16.2822 73.0692C17.8728 70.492 19.7867 68.2299 21.9572 66.1581C23.1836 65.039 24.4767 64.0446 25.8724 63.1263C27.0732 62.3639 28.5767 61.3001 30.0751 61.2094C30.5627 61.1954 30.8963 61.8186 30.5063 62.1304C29.3364 63.066 27.6891 63.5722 26.4011 64.345C25.0772 65.1663 23.856 66.0638 22.7014 67.0858C20.5001 68.9845 18.5349 71.2086 16.6569 73.4223C16.5132 73.6163 16.1539 73.3498 16.2822 73.0692Z" fill="#F4774C"/>
<path d="M9.71206 76.4605C9.26527 73.9498 10.3837 71.4732 11.5638 69.3428C13.1082 66.5057 15.1659 64.0494 17.4955 61.8701C19.8252 59.6907 22.4269 57.7883 25.3468 56.4226C26.5784 55.8334 27.964 55.3583 29.3445 55.105C30.7609 54.8031 31.6795 54.9586 32.937 55.5156C33.2808 55.6956 33.2193 56.1008 32.8344 56.191C32.3623 56.2916 31.9055 56.4788 31.4334 56.5795C30.8381 56.739 30.212 56.7254 29.6013 56.7984C28.344 56.9929 27.1842 57.4851 26.0244 57.9774C23.2995 59.1872 20.8928 60.9336 18.6555 62.8809C14.5349 66.5121 11.3331 71.0503 9.97379 76.4293C10.02 76.689 9.74287 76.6337 9.71206 76.4605Z" fill="#F4774C"/>
<path d="M36.3601 48.5183C34.8103 49.3224 33.281 49.9915 31.5155 50.3351C30.0118 50.6474 28.4414 50.835 26.9377 51.1474C23.7917 51.7443 21.0154 52.9161 18.5522 54.8462C16.869 56.1526 15.4578 57.7359 13.9286 59.1566C12.3276 60.6742 10.7779 62.2299 9.3308 63.8618C6.488 67.1636 4.32786 71.0469 4.01539 75.5496C3.95386 75.9548 3.32773 75.9412 3.30202 75.5464C2.67528 71.0234 4.54287 66.9981 7.18036 63.544C8.50936 61.7494 10.095 60.1452 11.6806 58.541C13.2663 56.9368 14.8365 55.246 16.4889 53.7664C21.8206 48.9293 29.1237 48.4104 36.1393 47.5279C36.5909 47.5623 36.7655 48.293 36.3601 48.5183Z" fill="#F4774C"/>
</svg>
