<svg width="20" height="20" viewBox="0 0 20 20" fill="none" xmlns="http://www.w3.org/2000/svg">
<circle cx="10" cy="10" r="10" fill="#F4774C"/>
<path fill-rule="evenodd" clip-rule="evenodd" d="M3.82494 9.33632C7.04616 7.93289 9.19414 7.00766 10.2689 6.56064C13.3375 5.28429 13.9751 5.06258 14.3907 5.05525C14.4822 5.05364 14.6865 5.0763 14.8189 5.18372C14.9307 5.27443 14.9615 5.39696 14.9762 5.48296C14.9909 5.56896 15.0092 5.76487 14.9947 5.91795C14.8284 7.66517 14.1088 11.9052 13.7428 13.8621C13.5879 14.6902 13.2829 14.9678 12.9876 14.995C12.346 15.054 11.8587 14.5709 11.2372 14.1635C10.2647 13.526 9.71527 13.1292 8.77127 12.5071C7.68032 11.7882 8.38754 11.3931 9.00927 10.7473C9.17198 10.5783 11.9992 8.0067 12.054 7.77341C12.0608 7.74424 12.0671 7.63548 12.0025 7.57806C11.9379 7.52063 11.8426 7.54027 11.7738 7.55589C11.6762 7.57802 10.1226 8.6049 7.11292 10.6365C6.67193 10.9393 6.2725 11.0869 5.91462 11.0792C5.52009 11.0706 4.76117 10.8561 4.19699 10.6727C3.505 10.4477 2.95502 10.3288 3.00291 9.9468C3.02785 9.74783 3.30186 9.54433 3.82494 9.33632Z" fill="white"/>
</svg>
