<svg width="63" height="45" viewBox="0 0 63 45" fill="none" xmlns="http://www.w3.org/2000/svg">
<path d="M59.5 1C59.5 0.723858 59.2761 0.5 59 0.5C58.7239 0.5 58.5 0.723858 58.5 1L59.5 1ZM58.6464 44.3536C58.8417 44.5488 59.1583 44.5488 59.3535 44.3536L62.5355 41.1716C62.7308 40.9763 62.7308 40.6597 62.5355 40.4645C62.3403 40.2692 62.0237 40.2692 61.8284 40.4645L59 43.2929L56.1716 40.4645C55.9763 40.2692 55.6597 40.2692 55.4645 40.4645C55.2692 40.6597 55.2692 40.9763 55.4645 41.1716L58.6464 44.3536ZM58.5 1L58.5 44L59.5 44L59.5 1L58.5 1Z" fill="#5A5A5B"/>
<path d="M3.5 44C3.5 44.2761 3.72386 44.5 4 44.5C4.27614 44.5 4.5 44.2761 4.5 44L3.5 44ZM4.35355 0.646446C4.15829 0.451183 3.84171 0.451183 3.64645 0.646446L0.464465 3.82843C0.269203 4.02369 0.269203 4.34027 0.464465 4.53553C0.659727 4.7308 0.97631 4.7308 1.17157 4.53553L4 1.70711L6.82843 4.53553C7.02369 4.7308 7.34027 4.7308 7.53553 4.53553C7.73079 4.34027 7.73079 4.02369 7.53553 3.82843L4.35355 0.646446ZM4.5 44L4.5 43.0227L3.5 43.0227L3.5 44L4.5 44ZM4.5 41.0682L4.5 39.1136L3.5 39.1136L3.5 41.0682L4.5 41.0682ZM4.5 37.1591L4.5 35.2045L3.5 35.2045L3.5 37.1591L4.5 37.1591ZM4.5 33.25L4.5 31.2955L3.5 31.2955L3.5 33.25L4.5 33.25ZM4.5 29.3409L4.5 27.3864L3.5 27.3864L3.5 29.3409L4.5 29.3409ZM4.5 25.4318L4.5 23.4773L3.5 23.4773L3.5 25.4318L4.5 25.4318ZM4.5 21.5227L4.5 19.5682L3.5 19.5682L3.5 21.5227L4.5 21.5227ZM4.5 17.6136L4.5 15.6591L3.5 15.6591L3.5 17.6136L4.5 17.6136ZM4.5 13.7045L4.5 11.75L3.5 11.75L3.5 13.7045L4.5 13.7045ZM4.5 9.79545L4.5 7.84091L3.5 7.84091L3.5 9.79545L4.5 9.79545ZM4.5 5.88636L4.5 3.93182L3.5 3.93182L3.5 5.88636L4.5 5.88636ZM4.5 1.97728L4.5 1L3.5 1L3.5 1.97728L4.5 1.97728Z" fill="#5A5A5B"/>
<path d="M32.15 19.8996C32.6672 19.8996 33.1632 20.1051 33.5289 20.4708C33.8946 20.8364 34.1 21.3324 34.1 21.8496C34.1 22.022 34.1685 22.1873 34.2904 22.3092C34.4123 22.4311 34.5776 22.4996 34.75 22.4996C34.9224 22.4996 35.0877 22.4311 35.2096 22.3092C35.3315 22.1873 35.4 22.022 35.4 21.8496C35.4 20.9877 35.0576 20.161 34.4481 19.5515C33.8386 18.942 33.012 18.5996 32.15 18.5996C31.9776 18.5996 31.8123 18.6681 31.6904 18.79C31.5685 18.9119 31.5 19.0772 31.5 19.2496C31.5 19.422 31.5685 19.5873 31.6904 19.7092C31.8123 19.8311 31.9776 19.8996 32.15 19.8996Z" fill="#5A5A5B"/>
<path d="M32.15 17.3C33.3567 17.3 34.514 17.7794 35.3673 18.6327C36.2206 19.486 36.7 20.6433 36.7 21.85C36.7 22.0224 36.7685 22.1877 36.8904 22.3096C37.0123 22.4315 37.1776 22.5 37.35 22.5C37.5224 22.5 37.6877 22.4315 37.8096 22.3096C37.9315 22.1877 38 22.0224 38 21.85C38 20.2985 37.3837 18.8105 36.2866 17.7134C35.1895 16.6163 33.7015 16 32.15 16C31.9776 16 31.8123 16.0685 31.6904 16.1904C31.5685 16.3123 31.5 16.4776 31.5 16.65C31.5 16.8224 31.5685 16.9877 31.6904 17.1096C31.8123 17.2315 31.9776 17.3 32.15 17.3ZM37.8375 25.0415C37.8017 24.9372 37.74 24.8436 37.6582 24.7697C37.5763 24.6958 37.4769 24.6439 37.3695 24.619L33.4695 23.7285C33.3636 23.7045 33.2535 23.7074 33.149 23.7369C33.0445 23.7664 32.9491 23.8216 32.8715 23.8975C32.7805 23.982 32.5725 24.3996 32.15 25.2056C30.7481 24.5596 29.3992 23.2546 28.7589 21.85C29.5844 21.434 30.018 21.2 30.1025 21.1025C30.1784 21.0249 30.2336 20.9295 30.2631 20.825C30.2926 20.7205 30.2955 20.6104 30.2715 20.5045L29.381 16.65C29.3561 16.5426 29.3042 16.4432 29.2303 16.3613C29.1564 16.2795 29.0628 16.2178 28.9585 16.182C28.8067 16.1278 28.65 16.0886 28.4905 16.065C28.3262 16.0269 28.1586 16.0051 27.99 16C27.197 16 26.4365 16.315 25.8758 16.8758C25.315 17.4365 25 18.197 25 18.99C25.0034 21.6438 26.0592 24.1878 27.9357 26.0643C29.8122 27.9408 32.3562 28.9966 35.01 29C35.4027 29 35.7915 28.9227 36.1542 28.7724C36.517 28.6221 36.8466 28.4019 37.1242 28.1242C37.4019 27.8466 37.6221 27.517 37.7724 27.1542C37.9227 26.7915 38 26.4027 38 26.01C38.0002 25.8446 37.9872 25.6794 37.961 25.516C37.9337 25.3545 37.8924 25.1958 37.8375 25.0415Z" fill="#5A5A5B"/>
</svg>
