<svg width="45" height="45" viewBox="0 0 45 45" fill="none" xmlns="http://www.w3.org/2000/svg">
<rect width="45" height="45" fill="white"/>
<path fill-rule="evenodd" clip-rule="evenodd" d="M21.0261 6.07589C21.4625 6.26119 21.8354 6.57485 22.0978 6.97721C22.3601 7.37957 22.5001 7.85255 22.5 8.33637V37.6932C22.4999 38.177 22.3597 38.6498 22.0972 39.052C21.8347 39.4543 21.4617 39.7677 21.0252 39.9529C20.5888 40.138 20.1085 40.1864 19.6452 40.0921C19.1819 39.9977 18.7563 39.7648 18.4222 39.4228L9.56655 30.354H3.38889C2.75532 30.354 2.14769 30.0962 1.69969 29.6374C1.25169 29.1786 1 28.5564 1 27.9076V18.122C1 17.4731 1.25169 16.8509 1.69969 16.3921C2.14769 15.9333 2.75532 15.6756 3.38889 15.6756H9.56655L18.4222 6.60676C18.7562 6.26443 19.182 6.03127 19.6455 5.93677C20.109 5.84227 20.5894 5.89069 21.0261 6.07589ZM33.625 5.71627C34.073 5.25764 34.6805 5 35.314 5C35.9474 5 36.552 5.54137 37 6C39.2212 8.26941 40.7992 11.0314 42 14C43.2007 16.9686 44.0036 19.7868 44 23C44.0036 26.2132 43.2008 29.5314 42 32.5C40.7992 35.4686 39.2242 38.0439 37.0029 40.3133C36.5524 40.7589 35.9489 41.0055 35.3226 40.9999C34.6962 40.9943 34.0971 40.7371 33.6541 40.2835C33.2112 39.8299 33.0054 39.6414 33 39C32.9945 38.3586 33.5648 37.9614 34 37.5C35.7777 35.6849 37.0394 33.3751 38 31C38.9606 28.6249 40.0039 25.5855 40 23.0148C40 17.6082 37.4615 12.5448 34 9C33.5521 8.54123 33 8.1487 33 7.5C33 6.8513 33.1772 6.17504 33.625 5.71627ZM26.8669 12.6347C27.0887 12.4072 27.3522 12.2268 27.6422 12.1037C27.9322 11.9806 28.186 12 28.5 12C28.8139 12 29.5 12.5 29.5 12.5C29.5 12.5 29.7781 12.7725 30 13C31.3327 14.3618 32.2797 15.7187 33 17.5C33.7203 19.2813 34.0024 21.0868 34 23.0148C34.0023 24.9428 33.7203 26.7187 33 28.5C32.2797 30.2813 31.5798 32.0329 30.2472 33.3948C29.7989 33.8539 29.1909 34.1118 28.557 34.1118C27.9231 34.1118 27.3151 33.8539 26.8669 33.3948C26.4186 32.9358 26.5 32 26.5 32C26.5 31.3508 27.0517 30.9658 27.5 30.5067C28.3891 29.5996 29.0195 28.1874 29.5 27C29.9805 25.8126 30.249 24.3001 30.2472 23.0148C30.2491 21.7295 29.9523 20.1874 29.4718 19C28.9913 17.8126 27.8892 16.9071 27 16C26.7779 15.7728 26.558 15.6433 26.5 15.5C26.3798 15.203 26.1663 14.687 26.1663 14.3655C26.1663 14.044 26.2281 13.7257 26.3483 13.4287C26.4686 13.1317 26.6448 12.8619 26.8669 12.6347Z" fill="#F4774C"/>
</svg>
