<svg width="45" height="45" viewBox="0 0 45 45" fill="none" xmlns="http://www.w3.org/2000/svg">
<rect width="45" height="45" fill="white"/>
<path fill-rule="evenodd" clip-rule="evenodd" d="M7 8.12503C7 7.56144 7.24082 7.02093 7.66947 6.62241C8.09812 6.22389 8.67951 6 9.28571 6H36.7143C37.3205 6 37.9019 6.22389 38.3305 6.62241C38.7592 7.02093 39 7.56144 39 8.12503V14.5001C38.9999 15.0637 38.759 15.6041 38.3303 16.0025L27.5714 26.005V33.6254C27.5713 34.1889 27.3304 34.7293 26.9017 35.1278L22.3303 39.3778C22.0106 39.6749 21.6034 39.8772 21.1601 39.9592C20.7168 40.0411 20.2572 39.9991 19.8396 39.8383C19.422 39.6775 19.0651 39.4052 18.8139 39.0558C18.5628 38.7064 18.4287 38.2957 18.4286 37.8754V26.005L7.66971 16.0025C7.24103 15.6041 7.00013 15.0637 7 14.5001V8.12503Z" fill="#F4774C"/>
</svg>
