<svg width="45" height="45" viewBox="0 0 45 45" fill="none" xmlns="http://www.w3.org/2000/svg">
<g clip-path="url(#clip0_328_6333)">
<rect width="45" height="45" fill="white"/>
<path d="M11.758 0.857191C12.1403 0.474968 12.6587 0.260237 13.1992 0.260237C13.7398 0.260237 14.2582 0.474968 14.6404 0.857191L17.7432 3.96004C18.0842 4.30133 18.2931 4.75252 18.3327 5.23333C18.3722 5.71414 18.24 6.1934 17.9594 6.58586L12.6343 14.0439C12.3808 14.3993 12.02 14.6639 11.6049 14.7988C11.1898 14.9337 10.7423 14.9318 10.3284 14.7934L6.98343 13.6764C5.80088 16.459 5.1914 19.4514 5.1914 22.4748C5.1914 25.4982 5.80088 28.4906 6.98343 31.2732L10.3298 30.1577C10.7434 30.0195 11.1905 30.0175 11.6053 30.1521C12.0201 30.2868 12.3807 30.5509 12.6343 30.9057L17.9594 38.3638C18.24 38.7562 18.3723 39.2355 18.3327 39.7163C18.2931 40.1971 18.0842 40.6483 17.7432 40.9896L14.6404 44.0925C14.2582 44.4747 13.7398 44.6894 13.1992 44.6894C12.6587 44.6894 12.1403 44.4747 11.758 44.0925L8.87569 41.2101C-1.47195 30.8625 -1.47195 14.0872 8.87569 3.73954L11.758 0.857191Z" fill="#F4774C"/>
<path d="M17.5 17.5H28.9854C29.3083 17.5 29.6114 17.344 29.7991 17.0812L31.7009 14.4188C31.8886 14.156 32.1917 14 32.5146 14H38.5" stroke="#F4774C" stroke-linecap="round"/>
<path d="M17.5 28H28.4854C28.8083 28 29.1114 28.156 29.2991 28.4188L31.2009 31.0812C31.3886 31.344 31.6917 31.5 32.0146 31.5H38" stroke="#F4774C" stroke-linecap="round"/>
<circle cx="38.5" cy="13.5" r="2.5" fill="#F4774C"/>
<circle cx="38.5" cy="22.5" r="2.5" fill="#F4774C"/>
<circle cx="38" cy="31.5" r="2.5" fill="#F4774C"/>
<line x1="17.5" y1="22.5" x2="38.5" y2="22.5" stroke="#F4774C" stroke-linecap="round"/>
</g>
<defs>
<clipPath id="clip0_328_6333">
<rect width="45" height="45" fill="white"/>
</clipPath>
</defs>
</svg>
