<svg width="45" height="45" viewBox="0 0 45 45" fill="none" xmlns="http://www.w3.org/2000/svg">
<rect width="45" height="45" fill="white"/>
<path d="M4 9.72727C4 8.47352 4.49805 7.27112 5.38459 6.38459C6.27112 5.49805 7.47352 5 8.72727 5H25.2727C26.5265 5 27.7289 5.49805 28.6154 6.38459C29.5019 7.27112 30 8.47352 30 9.72727V19.1818C30 20.4356 29.5019 21.638 28.6154 22.5245C27.7289 23.411 26.5265 23.9091 25.2727 23.9091H20.5455L13.4545 31V23.9091H8.72727C7.47352 23.9091 6.27112 23.411 5.38459 22.5245C4.49805 21.638 4 20.4356 4 19.1818V9.72727Z" fill="#F4774C"/>
<path d="M31.4265 15V19.5455C31.4265 21.9565 30.3746 23.2812 29.5965 24.0517C28.4357 25.2013 26.7679 25.3448 24.3333 25.3448H21.7018L16 30.9483C16.6426 31.2869 17.7652 32.2286 19.0702 32.6724C20.3791 33.1176 22.5789 33.1818 22.5789 33.1818H24.9355L31.8203 40V33.1818H36.4101C37.6274 33.1818 38.7949 32.7029 39.6557 31.8505C40.5164 30.998 41 29.8419 41 28.6364V19.5455C41 18.3399 40.5164 17.1838 39.6557 16.3313C38.7949 15.4789 37.6274 15 36.4101 15H31.4265Z" fill="#F4774C"/>
</svg>
