<svg width="189" height="82" viewBox="0 0 189 82" fill="none" xmlns="http://www.w3.org/2000/svg">
<path d="M174.035 36.6124C177.093 37.0246 179.93 37.5295 183.088 38.0339C185.475 38.219 188.705 36.4566 186.453 36.1334C185.693 36.0244 183.389 35.6064 182.435 35.411C163.368 32.1306 142.36 29.8196 116.118 30.1368C90.5517 30.4451 63.1984 32.2103 32.7031 36.5606L32.5657 36.5807C30.3231 36.9078 28.0155 37.2444 25.7174 37.7188C24.5435 37.9564 23.0901 38.2134 22.1817 38.9505C21.8369 39.3263 22.7037 39.3582 24.6422 39.1678C26.0636 39.0353 27.5514 38.8866 29.0607 38.6938C54.67 35.3692 78.5287 33.5025 101.071 32.774C129.549 31.8533 152.618 33.798 174.035 36.6124Z" fill="#F4774C"/>
<path d="M146.698 40.3736C149.185 40.7742 151.486 41.2438 154.051 41.7205C155.998 41.924 158.733 40.5908 156.903 40.2801C156.285 40.1753 154.417 39.7875 153.644 39.6092C138.173 36.5435 121.062 34.2073 99.5313 33.8495C78.5544 33.5003 56.0413 34.2738 30.8251 37.04L30.7114 37.0529C28.8566 37.262 26.9482 37.4773 25.0407 37.8029C24.0666 37.9654 22.8624 38.1369 22.0814 38.7048C21.7802 38.9972 22.4894 39.0428 24.088 38.9358C25.26 38.863 26.487 38.7789 27.734 38.6599C48.8939 36.5996 68.5469 35.6636 87.0645 35.6065C110.458 35.5341 129.277 37.6256 146.698 40.3736Z" fill="#F4774C"/>
<path d="M146.722 41.1567C149.643 41.3844 152.353 41.703 155.37 42.0071C157.651 42.0652 160.754 40.3801 158.603 40.1952C157.877 40.1329 155.677 39.8672 154.765 39.7376C136.555 37.6955 116.481 36.5873 91.3789 38.0102C66.9234 39.3958 40.7476 42.1358 11.5463 47.2778L11.4147 47.3014C9.2671 47.6859 7.05746 48.0814 4.85575 48.5974C3.73105 48.8567 2.33899 49.1453 1.46433 49.8307C1.13162 50.1751 1.9604 50.1652 3.81596 49.9138C5.17653 49.7356 6.60062 49.5405 8.04579 49.3057C32.5658 45.2755 55.4 42.5991 76.966 40.9773C104.211 38.9281 126.26 39.6254 146.722 41.1567Z" fill="#F4774C"/>
</svg>
