<svg width="200" height="13" viewBox="0 0 200 13" fill="none" xmlns="http://www.w3.org/2000/svg">
<path d="M73.6968 9.70993C62.6077 10.8528 51.5163 11.9916 40.4511 12.3658L40.4568 12.3175C39.3595 12.336 39.6152 10.3313 40.6948 10.2863C48.0452 10.0616 55.3943 9.67322 62.7463 9.22806C42.2113 8.13224 21.7034 6.20195 1.09796 7.583C1.09693 7.57501 1.0959 7.56702 1.09488 7.55903C-0.000125834 7.59435 -0.239325 5.61192 0.861582 5.5452C2.60811 5.43068 4.35366 5.33973 6.09834 5.26982C14.8004 4.77888 23.5026 4.32084 32.2047 3.89852C32.2301 3.36796 32.5813 2.7965 33.1687 2.7866C48.448 2.32866 63.7203 2.10571 78.9894 1.98839C119.006 0.676726 159.008 0.2279 198.968 0.916623C200.08 0.94889 199.81 2.90279 198.73 2.94785C158.733 4.12916 118.784 3.71278 78.8134 4.01C64.7374 4.47059 50.6601 5.03777 36.5824 5.69925C52.409 6.52315 68.2122 7.87945 84.0681 7.87492C91.639 7.40669 99.2169 6.98753 106.806 6.73367C106.913 6.72196 107.021 6.71016 107.128 6.69825C107.128 6.70676 107.129 6.715 107.129 6.72297C107.238 6.71938 107.348 6.71581 107.457 6.71229C108.432 6.67947 108.412 8.61368 107.449 8.72143C96.17 9.97119 84.926 10.0752 73.6968 9.70993Z" fill="#F4774C"/>
</svg>
