<svg width="268" height="19" viewBox="0 0 268 19" fill="none" xmlns="http://www.w3.org/2000/svg">
<path fill-rule="evenodd" clip-rule="evenodd" d="M212.711 1.87032C183.781 0.815472 163.259 0.562539 134.681 0.908393C111.174 1.19291 95.5851 1.58799 68.9541 2.57423C53.2944 3.15411 47.1568 3.4738 34.6803 4.35918C24.8539 5.05654 18.7153 5.44709 12.905 5.74456C4.25751 6.18735 1.20502 6.43752 1.19256 6.70454C1.18707 6.82215 1.47251 6.86417 1.7234 6.78268C1.941 6.71202 3.11754 6.64489 10.3408 6.29115C16.3878 5.99498 20.8542 5.73832 29.8424 5.17034C50.007 3.89627 51.8726 3.8154 83.0948 2.86311C127.363 1.51281 163.269 1.37496 197.674 2.42323C230.346 3.41864 257.219 4.88955 264.076 6.05766C265.21 6.25064 265.215 6.23888 263.907 6.40441C260.862 6.78975 254.064 7.08105 240.642 7.40123C225.314 7.76689 217.002 7.88069 192.094 8.06609C173.128 8.20726 172.672 8.21392 147.608 8.7193C121.355 9.24867 109.791 9.55141 94.0787 10.1207C88.5301 10.3216 88.0633 10.3344 81.2393 10.4705C67.6609 10.7413 55.991 11.1807 44.5212 11.8529C40.7869 12.0718 40.1085 12.2173 41.0644 12.5942C41.8341 12.8977 48.3466 12.7421 64.5249 12.0338C84.492 11.1597 87.3016 11.0712 98.7658 10.9549C115.201 10.7882 128.894 10.8218 140.336 11.0571C151.801 11.2929 170.967 11.8062 181.343 12.1554C187.138 12.3504 209.572 13.3382 210.688 13.4475L211.556 13.5325L210.742 13.5685C209.324 13.6313 184.219 14.2941 173.182 14.5601C169.726 14.6434 164.736 14.7512 162.094 14.7995C153.48 14.9572 134.995 15.4056 131.734 15.5361C129.696 15.6176 128.968 15.9427 129.911 16.3497C130.554 16.6269 134.943 16.8531 144.485 17.101C146.757 17.16 150.938 17.2777 153.777 17.3626C156.616 17.4475 160.861 17.5447 163.21 17.5786C165.559 17.6125 169.078 17.6878 171.03 17.746C172.982 17.8043 175.442 17.8726 176.497 17.8979L178.414 17.9438L176.72 17.8561C174.502 17.7411 169.286 17.4081 164.866 17.0992C159.683 16.737 148.318 16.2337 143.054 16.1332C142.459 16.1218 142.25 16.103 142.417 16.0759C142.742 16.023 156.178 15.7031 162.499 15.5978C181.603 15.2796 214.277 14.399 215.924 14.1579C217.385 13.9441 217.299 13.4466 215.746 13.127C212.963 12.5543 187.095 11.4293 163.902 10.8723C161.914 10.8245 157.267 10.708 153.575 10.6134C139.692 10.2577 126.042 10.0418 120.886 10.0965C120.561 10.1 120.333 10.0894 120.381 10.0731C120.572 10.0074 156.572 9.28263 170.534 9.06346C173.691 9.01385 182.834 8.92722 190.851 8.87083C218.715 8.67495 225.15 8.58914 242.008 8.1886C262.823 7.694 268.494 7.22525 267.362 6.09284C266.418 5.14999 260.793 4.47796 245.11 3.43441C241.358 3.18476 218.51 2.08172 212.711 1.87032Z" fill="#F4774C" stroke="#F4774C"/>
</svg>
