<svg width="175" height="68" viewBox="0 0 175 68" fill="none" xmlns="http://www.w3.org/2000/svg">
<path d="M158.134 29.2628C161.204 29.4071 164.036 29.6368 167.196 29.8475C174.732 29.0813 173.009 28.3 171.205 28.0051C170.547 28.0434 167.854 27.927 166.905 27.8297C147.862 26.3739 126.692 25.7915 99.7854 27.5754C73.571 29.3129 45.3177 32.2969 13.4751 37.4911L13.3316 37.5148C10.9888 37.9025 8.57827 38.3013 6.15748 38.8077C4.92155 39.0626 3.39681 39.3491 2.3606 39.9799C1.95344 40.2948 2.83609 40.269 4.8478 40.0063C6.32191 39.8193 7.86616 39.6158 9.43899 39.3763C36.1322 35.272 60.8232 32.4129 84.0023 30.5229C113.285 28.1352 136.617 28.3099 158.134 29.2628Z" fill="#F4774C"/>
<path d="M164.003 29.1862C165.804 29.294 167.473 29.4629 169.331 29.6185C173.668 29.0786 172.604 28.5152 171.529 28.3009C171.149 28.3275 169.569 28.2402 169.009 28.169C157.793 27.0974 145.404 26.65 129.848 27.8942C114.693 29.106 98.4438 31.2101 80.2692 34.8966L80.1874 34.9134C78.8506 35.1886 77.4752 35.4717 76.102 35.832C75.4006 36.0134 74.5332 36.217 73.9769 36.6687C73.7633 36.8942 74.2761 36.8769 75.4293 36.691C76.2747 36.5588 77.1598 36.4147 78.0588 36.2449C93.3133 33.334 107.495 31.3147 120.868 29.9893C137.763 28.3147 151.383 28.4723 164.003 29.1862Z" fill="#F4774C"/>
</svg>
