<svg width="502" height="249" viewBox="0 0 502 249" fill="none" xmlns="http://www.w3.org/2000/svg">
<g clip-path="url(#clip0_1059_7421)">
<g filter="url(#filter0_d_1059_7421)">
<rect x="100" y="18" width="380" height="204" rx="4" fill="white"/>
</g>
<path d="M100 22C100 19.7909 101.791 18 104 18H476C478.209 18 480 19.7909 480 22V43H100V22Z" fill="#3C3A3E"/>
<path d="M100 43H190V222H104C101.791 222 100 220.209 100 218V43Z" fill="#EDEDED"/>
<path fill-rule="evenodd" clip-rule="evenodd" d="M191 193V119.5V119V43H189V119L100 119V119.5L189 119.5L189 193L100 193V193.5L189 193.5V222H191L191 193.5V193ZM109.5 61C108.672 61 108 61.6716 108 62.5C108 63.3284 108.672 64 109.5 64H178.5C179.328 64 180 63.3284 180 62.5C180 61.6716 179.328 61 178.5 61H109.5ZM108 136.5C108 135.672 108.672 135 109.5 135H178.5C179.328 135 180 135.672 180 136.5C180 137.328 179.328 138 178.5 138H109.5C108.672 138 108 137.328 108 136.5ZM109.5 74C108.672 74 108 74.6716 108 75.5C108 76.3284 108.672 77 109.5 77H160.5C161.328 77 162 76.3284 162 75.5C162 74.6716 161.328 74 160.5 74H109.5ZM108 149.5C108 148.672 108.672 148 109.5 148H160.5C161.328 148 162 148.672 162 149.5C162 150.328 161.328 151 160.5 151H109.5C108.672 151 108 150.328 108 149.5ZM109.5 87C108.672 87 108 87.6716 108 88.5C108 89.3284 108.672 90 109.5 90H168.5C169.328 90 170 89.3284 170 88.5C170 87.6716 169.328 87 168.5 87H109.5ZM108 162.5C108 161.672 108.672 161 109.5 161H168.5C169.328 161 170 161.672 170 162.5C170 163.328 169.328 164 168.5 164H109.5C108.672 164 108 163.328 108 162.5ZM109.5 209C108.672 209 108 209.672 108 210.5C108 211.328 108.672 212 109.5 212H168.5C169.328 212 170 211.328 170 210.5C170 209.672 169.328 209 168.5 209H109.5ZM108 101.5C108 100.672 108.672 100 109.5 100H148.5C149.328 100 150 100.672 150 101.5C150 102.328 149.328 103 148.5 103H109.5C108.672 103 108 102.328 108 101.5ZM109.5 174C108.672 174 108 174.672 108 175.5C108 176.328 108.672 177 109.5 177H148.5C149.328 177 150 176.328 150 175.5C150 174.672 149.328 174 148.5 174H109.5Z" fill="#CBCBCB"/>
<path d="M208.257 67.0995C209.812 67.0995 210.945 66.2082 210.941 64.9795C210.945 64.0704 210.377 63.417 209.358 63.2714V63.2146C210.146 63.0441 210.675 62.4582 210.672 61.6414C210.675 60.5335 209.73 59.6279 208.278 59.6279C206.865 59.6279 205.771 60.4695 205.743 61.6876H207.01C207.032 61.0768 207.6 60.6968 208.271 60.6968C208.949 60.6968 209.4 61.1088 209.397 61.7195C209.4 62.3552 208.875 62.7778 208.122 62.7778H207.479V63.7934H208.122C209.042 63.7934 209.588 64.2551 209.585 64.912C209.588 65.5548 209.031 65.9951 208.253 65.9951C207.522 65.9951 206.957 65.6151 206.925 65.0221H205.59C205.625 66.2508 206.723 67.0995 208.257 67.0995Z" fill="#3C3A3E"/>
<path d="M212.175 67.0001H214.817C216.095 67.0001 216.827 66.4213 216.827 65.5193C216.827 64.7558 216.233 64.2231 215.378 64.1485C216.106 64.0136 216.56 63.6265 216.56 63.0122C216.56 62.0924 215.754 61.5455 214.465 61.5455H212.175V67.0001ZM213.378 65.988V64.635H214.817C215.289 64.635 215.577 64.9085 215.577 65.3595C215.577 65.7501 215.289 65.988 214.817 65.988H213.378ZM213.378 63.8041V62.5754H214.465C215.001 62.5754 215.328 62.8026 215.328 63.1755C215.328 63.5661 215.012 63.8041 214.49 63.8041H213.378Z" fill="#3C3A3E"/>
<path d="M220.267 67.1066C221.865 67.1066 222.88 65.9809 222.88 64.2941C222.88 62.6038 221.865 61.4745 220.267 61.4745C218.669 61.4745 217.653 62.6038 217.653 64.2941C217.653 65.9809 218.669 67.1066 220.267 67.1066ZM220.274 66.0768C219.39 66.0768 218.956 65.2884 218.956 64.2906C218.956 63.2927 219.39 62.4937 220.274 62.4937C221.144 62.4937 221.577 63.2927 221.577 64.2906C221.577 65.2884 221.144 66.0768 220.274 66.0768Z" fill="#3C3A3E"/>
<path d="M225.211 61.5455H223.971V67.0001H225.211V64.7948H227.324V67.0001H228.559V61.5455H227.324V63.7401H225.211V61.5455Z" fill="#3C3A3E"/>
<path d="M229.86 67.0001H231.146V64.944H231.774L233.269 67.0001H234.825L232.783 64.2231L234.803 61.5455H233.255L231.614 63.7472H231.146V61.5455H229.86V67.0001Z" fill="#3C3A3E"/>
<path d="M236.793 65.26V61.5455H235.553V67.0001H236.878L239.055 63.282V67.0001H240.298V61.5455H238.977L236.793 65.26Z" fill="#3C3A3E"/>
<path d="M244.098 67.0001H245.327V62.6002H247.465V67.0001H248.704V61.5455H244.098V67.0001Z" fill="#3C3A3E"/>
<path d="M252.405 67.1066C254.003 67.1066 255.019 65.9809 255.019 64.2941C255.019 62.6038 254.003 61.4745 252.405 61.4745C250.807 61.4745 249.792 62.6038 249.792 64.2941C249.792 65.9809 250.807 67.1066 252.405 67.1066ZM252.412 66.0768C251.528 66.0768 251.095 65.2884 251.095 64.2906C251.095 63.2927 251.528 62.4937 252.412 62.4937C253.282 62.4937 253.716 63.2927 253.716 64.2906C253.716 65.2884 253.282 66.0768 252.412 66.0768Z" fill="#3C3A3E"/>
<path d="M259.581 67.0001L260.181 65.2068H262.916L263.52 67.0001H264.926L262.362 59.7274H260.735L258.175 67.0001H259.581ZM260.537 64.1485L261.52 61.2188H261.577L262.561 64.1485H260.537Z" fill="#3C3A3E"/>
<path d="M265.884 67.0001H267.201V64.5427H268.593C270.273 64.5427 271.175 63.5342 271.175 62.135C271.175 60.7465 270.284 59.7274 268.611 59.7274H265.884V67.0001ZM267.201 63.4596V60.8282H268.409C269.396 60.8282 269.833 61.3609 269.833 62.135C269.833 62.9092 269.396 63.4596 268.416 63.4596H267.201Z" fill="#3C3A3E"/>
<path d="M273.637 59.7274H272.319V67.0001H273.637V59.7274Z" fill="#3C3A3E"/>
<path fill-rule="evenodd" clip-rule="evenodd" d="M205 77H465V76H205V77ZM205 97.5C205 96.6716 205.672 96 206.5 96H291.5C292.328 96 293 96.6716 293 97.5C293 98.3284 292.328 99 291.5 99H206.5C205.672 99 205 98.3284 205 97.5ZM205 122.5C205 121.672 205.672 121 206.5 121H291.5C292.328 121 293 121.672 293 122.5C293 123.328 292.328 124 291.5 124H206.5C205.672 124 205 123.328 205 122.5ZM206.5 146C205.672 146 205 146.672 205 147.5C205 148.328 205.672 149 206.5 149H291.5C292.328 149 293 148.328 293 147.5C293 146.672 292.328 146 291.5 146H206.5ZM205 172.5C205 171.672 205.672 171 206.5 171H291.5C292.328 171 293 171.672 293 172.5C293 173.328 292.328 174 291.5 174H206.5C205.672 174 205 173.328 205 172.5ZM309.5 96C308.672 96 308 96.6716 308 97.5C308 98.3284 308.672 99 309.5 99H463.5C464.328 99 465 98.3284 465 97.5C465 96.6716 464.328 96 463.5 96H309.5ZM308 122.5C308 121.672 308.672 121 309.5 121H463.5C464.328 121 465 121.672 465 122.5C465 123.328 464.328 124 463.5 124H309.5C308.672 124 308 123.328 308 122.5ZM309.5 146C308.672 146 308 146.672 308 147.5C308 148.328 308.672 149 309.5 149H463.5C464.328 149 465 148.328 465 147.5C465 146.672 464.328 146 463.5 146H309.5ZM308 172.5C308 171.672 308.672 171 309.5 171H463.5C464.328 171 465 171.672 465 172.5C465 173.328 464.328 174 463.5 174H309.5C308.672 174 308 173.328 308 172.5ZM465 110H205V109.5H465V110ZM205 135H465V134.5H205V135ZM465 160H205V159.5H465V160ZM205 185H465V184.5H205V185Z" fill="#E6E6E6"/>
<path fill-rule="evenodd" clip-rule="evenodd" d="M124.01 33.5332C124.01 35.7443 122.748 36.8511 120.225 36.8535H115C115 34.7247 118.224 34.734 119.615 34.738L119.776 34.7383C120.82 34.7383 121.34 34.2587 121.338 33.2994C121.338 32.3354 120.819 31.8605 119.776 31.8605H116.83V29.767H119.753C120.795 29.767 121.311 29.3029 121.311 28.382C121.311 27.4611 120.788 27.0151 119.753 27.0151C119.587 27.0151 119.399 27.0201 119.196 27.0255H119.196C117.578 27.0686 115 27.1373 115 24.8999H119.81C121.195 24.8999 122.161 25.081 122.706 25.4431C123.116 25.712 123.45 26.0925 123.674 26.5448C123.898 26.9972 124.003 27.5049 123.979 28.0151C124 28.6196 123.85 29.217 123.547 29.7299C123.245 30.2429 122.804 30.648 122.282 30.8929C123.429 31.4109 124.002 32.2982 124 33.5548L124.01 33.5332ZM158.174 28.1554C159.168 28.3409 160.064 28.9046 160.694 29.7406C161.323 30.5766 161.643 31.6274 161.593 32.6956C161.543 33.7638 161.126 34.7758 160.421 35.5415C159.717 36.3072 158.772 36.7738 157.766 36.8538C156.759 36.9338 155.76 36.6216 154.956 35.9759C154.151 35.3301 153.597 34.3953 153.397 33.347C153.197 32.2987 153.365 31.2091 153.87 30.2829C154.374 29.3568 155.181 28.6578 156.138 28.3173C156.793 28.0844 157.493 28.0288 158.174 28.1554ZM133.467 34.411C133.467 36.0513 132.422 36.8703 130.331 36.8679H125.266V28.1122H130.018C131.145 28.1122 131.936 28.2525 132.395 28.5259C132.729 28.7097 133.008 28.9906 133.198 29.3358C133.388 29.681 133.481 30.0763 133.467 30.4756C133.473 30.8877 133.368 31.2931 133.163 31.6437C132.959 31.9943 132.664 32.2755 132.313 32.4541C132.672 32.6133 132.976 32.8853 133.184 33.2333C133.392 33.5813 133.495 33.9885 133.478 34.4002L133.467 34.411ZM131.132 30.7346C131.132 30.1842 130.769 29.9072 130.039 29.9072H127.448V31.5871H130.039C130.769 31.5871 131.132 31.303 131.132 30.7346ZM131.132 34.2203C131.132 33.6483 130.772 33.3642 130.052 33.3642H127.448V35.0764H130.069C130.789 35.0764 131.149 34.7887 131.149 34.2203H131.132ZM152.342 36.8679H150.17V33.3965H147.033V36.8679H144.853V28.1122H147.033V31.4684H150.17V28.1122H152.342V36.8679ZM170.993 36.8679H168.06L164.72 32.6195V36.8679H162.54V28.1122H164.72V32.3174L168.233 28.1122H171.013L167.174 32.3965L171.013 36.8679H170.993ZM158.059 30.1626C157.761 30.0632 157.447 30.0299 157.137 30.0646C156.827 30.0993 156.526 30.2013 156.255 30.3643C155.983 30.5274 155.746 30.7479 155.558 31.0122C155.37 31.2765 155.236 31.5789 155.164 31.9006C155.091 32.2223 155.082 32.5564 155.136 32.8822C155.191 33.2079 155.308 33.5182 155.48 33.7938C155.653 34.0695 155.877 34.3045 156.139 34.4843C156.401 34.6641 156.695 34.7849 157.003 34.839C157.34 34.9107 157.688 34.9021 158.022 34.8138C158.508 34.6838 158.94 34.387 159.251 33.9698C159.561 33.5525 159.733 33.0382 159.739 32.5068C159.746 31.9754 159.586 31.4567 159.285 31.0314C158.984 30.6062 158.559 30.2982 158.076 30.1554L158.059 30.1626ZM140.162 30.0295C140.678 30.2956 141.093 30.739 141.34 31.2874C141.587 31.8358 141.652 32.4569 141.523 33.0491C141.394 33.6413 141.08 34.1698 140.631 34.5482C140.182 34.9266 139.625 35.1326 139.052 35.1326C138.478 35.1326 137.922 34.9266 137.473 34.5482C137.024 34.1698 136.709 33.6413 136.581 33.0491C136.452 32.4569 136.516 31.8358 136.763 31.2874C137.011 30.739 137.426 30.2956 137.942 30.0295V27.6877C136.844 27.9751 135.884 28.6781 135.243 29.6642C134.601 30.6502 134.322 31.8511 134.459 33.0401C134.595 34.229 135.138 35.3239 135.984 36.118C136.83 36.9121 137.921 37.3506 139.052 37.3506C140.182 37.3506 141.273 36.9121 142.12 36.118C142.966 35.3239 143.508 34.229 143.645 33.0401C143.782 31.8511 143.503 30.6502 142.861 29.6642C142.219 28.6781 141.259 27.9751 140.162 27.6877V30.0295ZM138.28 33.7055C138.603 33.9301 138.997 34.0104 139.375 33.929C139.661 33.8724 139.925 33.7268 140.133 33.5109C140.341 33.2949 140.483 33.0183 140.542 32.7162C140.601 32.4142 140.574 32.1004 140.464 31.8148C140.354 31.5291 140.167 31.2846 139.925 31.1124C139.779 31.0073 139.615 30.9317 139.443 30.8893V27.5367H138.764V30.8893C138.387 30.9785 138.058 31.2219 137.85 31.5666C137.641 31.9112 137.569 32.3292 137.649 32.7298C137.73 33.1303 137.956 33.481 138.28 33.7055Z" fill="white"/>
<g filter="url(#filter1_d_1059_7421)">
<rect x="16.2656" y="145" width="239" height="53" rx="7" fill="white"/>
</g>
<path d="M28.752 166L29.2921 164.386H31.753L32.2963 166H33.562L31.2544 159.455H29.7907L27.4863 166H28.752ZM29.6117 163.434L30.497 160.797H30.5481L31.4334 163.434H29.6117Z" fill="#3C3A3E"/>
<path d="M34.4768 167.841C35.3781 167.841 35.8991 167.378 36.1771 166.595L38.1491 161.097L36.9122 161.091L35.7776 164.798H35.7265L34.5951 161.091H33.3678L35.148 166.102L35.0489 166.368C34.8348 166.927 34.496 166.965 33.991 166.818L33.7226 167.72C33.8792 167.783 34.1604 167.841 34.4768 167.841Z" fill="#3C3A3E"/>
<path d="M38.1219 167.425H39.2597V166H42.4717V167.425H43.5903V165.048H42.8296V161.091H39.282L39.1414 162.81C39.0487 163.91 38.9273 164.725 38.5118 165.048H38.1219V167.425ZM39.7007 165.048C40.0107 164.591 40.1258 163.849 40.2089 162.81L40.2856 162.024H41.7238V165.048H39.7007Z" fill="#3C3A3E"/>
<path d="M45.5694 164.434V161.091H44.454V166H45.6461L47.6053 162.654V166H48.7239V161.091H47.535L45.5694 164.434Z" fill="#3C3A3E"/>
<path d="M52.0534 166.096C53.4916 166.096 54.4056 165.083 54.4056 163.565C54.4056 162.043 53.4916 161.027 52.0534 161.027C50.6151 161.027 49.7011 162.043 49.7011 163.565C49.7011 165.083 50.6151 166.096 52.0534 166.096ZM52.0597 165.169C51.2639 165.169 50.874 164.46 50.874 163.561C50.874 162.663 51.2639 161.944 52.0597 161.944C52.8428 161.944 53.2327 162.663 53.2327 163.561C53.2327 164.46 52.8428 165.169 52.0597 165.169Z" fill="#3C3A3E"/>
<path d="M55.3876 167.841H56.5446V165.227H56.5925C56.7747 165.585 57.155 166.086 57.9988 166.086C59.1557 166.086 60.0218 165.169 60.0218 163.552C60.0218 161.916 59.1301 161.027 57.9956 161.027C57.1294 161.027 56.7683 161.548 56.5925 161.903H56.5254V161.091H55.3876V167.841ZM56.5222 163.545C56.5222 162.593 56.9313 161.976 57.676 161.976C58.4462 161.976 58.8425 162.631 58.8425 163.545C58.8425 164.466 58.4398 165.137 57.676 165.137C56.9377 165.137 56.5222 164.498 56.5222 163.545Z" fill="#3C3A3E"/>
<path d="M63.1539 166.096C64.5922 166.096 65.5062 165.083 65.5062 163.565C65.5062 162.043 64.5922 161.027 63.1539 161.027C61.7157 161.027 60.8017 162.043 60.8017 163.565C60.8017 165.083 61.7157 166.096 63.1539 166.096ZM63.1603 165.169C62.3645 165.169 61.9746 164.46 61.9746 163.561C61.9746 162.663 62.3645 161.944 63.1603 161.944C63.9434 161.944 64.3333 162.663 64.3333 163.561C64.3333 164.46 63.9434 165.169 63.1603 165.169Z" fill="#3C3A3E"/>
<path d="M66.1494 166H66.5074C67.5621 166 68.0383 165.259 68.115 163.622L68.1917 162.04H69.6011V166H70.7197V161.091H67.1402L67.0539 163.264C66.9996 164.642 66.8206 165.048 66.3124 165.048H66.143L66.1494 166Z" fill="#3C3A3E"/>
<path d="M73.0001 164.434V161.091H71.8847V166H73.0768L75.036 162.654V166H76.1546V161.091H74.9656L73.0001 164.434Z" fill="#3C3A3E"/>
<path d="M77.3427 166H78.4996V164.15H79.0653L80.4109 166H81.8107L79.973 163.501L81.7915 161.091H80.3981L78.9215 163.072H78.4996V161.091H77.3427V166Z" fill="#3C3A3E"/>
<path d="M83.5821 164.434V161.091H82.4667V166H83.6588L85.618 162.654V166H86.7366V161.091H85.5477L83.5821 164.434Z" fill="#3C3A3E"/>
<path d="M134.51 165.068H135.402V163.548H136.922V162.656H135.402V161.136H134.51V162.656H132.99V163.548H134.51V165.068Z" fill="#F4774C"/>
<path d="M145.187 162.145C145.008 160.852 144.014 160.102 142.724 160.102C141.204 160.102 140.059 161.21 140.059 163.091C140.059 164.969 141.19 166.079 142.724 166.079C144.107 166.079 145.025 165.184 145.187 164.074L144.124 164.068C143.991 164.75 143.434 165.133 142.738 165.133C141.795 165.133 141.119 164.426 141.119 163.091C141.119 161.778 141.789 161.048 142.741 161.048C143.448 161.048 144.002 161.449 144.124 162.145H145.187Z" fill="#F4774C"/>
<path d="M148.01 166.085C149.289 166.085 150.101 165.184 150.101 163.835C150.101 162.483 149.289 161.579 148.01 161.579C146.732 161.579 145.919 162.483 145.919 163.835C145.919 165.184 146.732 166.085 148.01 166.085ZM148.016 165.261C147.308 165.261 146.962 164.63 146.962 163.832C146.962 163.034 147.308 162.395 148.016 162.395C148.712 162.395 149.058 163.034 149.058 163.832C149.058 164.63 148.712 165.261 148.016 165.261Z" fill="#F4774C"/>
<path d="M150.732 164.804C150.758 165.613 151.499 166.085 152.508 166.085C153.542 166.085 154.289 165.594 154.289 164.79C154.289 164.201 153.889 163.798 153.372 163.767V163.721C153.872 163.588 154.19 163.275 154.19 162.804C154.19 162.068 153.553 161.579 152.531 161.579C151.576 161.579 150.857 162.074 150.843 162.835H151.857C151.869 162.542 152.17 162.338 152.579 162.338C152.988 162.338 153.235 162.557 153.235 162.88C153.235 163.179 153.008 163.4 152.582 163.4H151.914V164.13H152.582C153.011 164.13 153.292 164.372 153.292 164.724C153.292 165.122 152.943 165.315 152.502 165.315C152.068 165.315 151.772 165.128 151.752 164.804H150.732Z" fill="#F4774C"/>
<path d="M154.713 167.267H155.724V166H158.579V167.267H159.573V165.153H158.897V161.636H155.744L155.619 163.165C155.536 164.142 155.428 164.866 155.059 165.153H154.713V167.267ZM156.116 165.153C156.392 164.747 156.494 164.088 156.568 163.165L156.636 162.466H157.914V165.153H156.116Z" fill="#F4774C"/>
<path d="M161.597 166.088C162.281 166.088 162.691 165.767 162.878 165.4H162.912V166H163.901V163.079C163.901 161.926 162.96 161.579 162.128 161.579C161.21 161.579 160.506 161.988 160.279 162.784L161.239 162.92C161.341 162.622 161.631 162.366 162.134 162.366C162.611 162.366 162.872 162.611 162.872 163.04V163.057C162.872 163.352 162.563 163.366 161.793 163.449C160.946 163.54 160.137 163.792 160.137 164.775C160.137 165.633 160.764 166.088 161.597 166.088ZM161.864 165.332C161.435 165.332 161.128 165.136 161.128 164.758C161.128 164.363 161.472 164.199 161.932 164.133C162.202 164.096 162.742 164.028 162.875 163.92V164.434C162.875 164.92 162.483 165.332 161.864 165.332Z" fill="#F4774C"/>
<path d="M164.446 162.48H165.858V166H166.852V162.48H168.264V161.636H164.446V162.48Z" fill="#F4774C"/>
<path d="M170.075 163.057V161.636H169.083V166H171.066C172.177 166 172.816 165.386 172.819 164.528C172.816 163.648 172.177 163.057 171.066 163.057H170.075ZM170.075 163.9H171.066C171.512 163.9 171.833 164.165 171.833 164.542C171.833 164.903 171.512 165.156 171.066 165.156H170.075V163.9Z" fill="#F4774C"/>
<path d="M176.676 161.636H175.685V166H176.676V164.236H178.367V166H179.355V161.636H178.367V163.392H176.676V161.636Z" fill="#F4774C"/>
<path d="M182.299 166.085C183.578 166.085 184.39 165.184 184.39 163.835C184.39 162.483 183.578 161.579 182.299 161.579C181.021 161.579 180.208 162.483 180.208 163.835C180.208 165.184 181.021 166.085 182.299 166.085ZM182.305 165.261C181.597 165.261 181.251 164.63 181.251 163.832C181.251 163.034 181.597 162.395 182.305 162.395C183.001 162.395 183.347 163.034 183.347 163.832C183.347 164.63 183.001 165.261 182.305 165.261Z" fill="#F4774C"/>
<path d="M185.263 166H187.377C188.399 166 188.985 165.537 188.985 164.815C188.985 164.204 188.51 163.778 187.825 163.719C188.408 163.611 188.771 163.301 188.771 162.809C188.771 162.074 188.127 161.636 187.095 161.636H185.263V166ZM186.226 165.19V164.108H187.377C187.754 164.108 187.985 164.326 187.985 164.687C187.985 165 187.754 165.19 187.377 165.19H186.226ZM186.226 163.443V162.46H187.095C187.524 162.46 187.786 162.642 187.786 162.94C187.786 163.253 187.533 163.443 187.115 163.443H186.226Z" fill="#F4774C"/>
<path d="M190.825 163.057V161.636H189.833V166H191.816C192.927 166 193.566 165.386 193.569 164.528C193.566 163.648 192.927 163.057 191.816 163.057H190.825ZM194.112 166H195.14V161.636H194.112V166ZM190.825 163.9H191.816C192.262 163.9 192.583 164.165 192.583 164.542C192.583 164.903 192.262 165.156 191.816 165.156H190.825V163.9Z" fill="#F4774C"/>
<path d="M197.192 164.608V161.636H196.2V166H197.26L199.002 163.025V166H199.996V161.636H198.939L197.192 164.608ZM198.658 160.136C198.655 160.415 198.496 160.662 198.095 160.662C197.689 160.662 197.536 160.409 197.536 160.136H196.771C196.769 160.801 197.283 161.25 198.095 161.25C198.914 161.25 199.428 160.801 199.428 160.136H198.658Z" fill="#F4774C"/>
<path d="M203.036 167.636H204.065V165.312H204.107C204.269 165.63 204.607 166.076 205.357 166.076C206.386 166.076 207.156 165.261 207.156 163.824C207.156 162.369 206.363 161.579 205.355 161.579C204.585 161.579 204.264 162.042 204.107 162.358H204.048V161.636H203.036V167.636ZM204.045 163.818C204.045 162.971 204.409 162.423 205.07 162.423C205.755 162.423 206.107 163.005 206.107 163.818C206.107 164.636 205.749 165.233 205.07 165.233C204.414 165.233 204.045 164.665 204.045 163.818Z" fill="#F4774C"/>
<path d="M209.94 166.085C211.218 166.085 212.031 165.184 212.031 163.835C212.031 162.483 211.218 161.579 209.94 161.579C208.661 161.579 207.849 162.483 207.849 163.835C207.849 165.184 208.661 166.085 209.94 166.085ZM209.945 165.261C209.238 165.261 208.892 164.63 208.892 163.832C208.892 163.034 209.238 162.395 209.945 162.395C210.642 162.395 210.988 163.034 210.988 163.832C210.988 164.63 210.642 165.261 209.945 165.261Z" fill="#F4774C"/>
<path d="M212.602 166H212.921C213.858 166 214.281 165.341 214.35 163.886L214.418 162.48H215.671V166H216.665V161.636H213.483L213.406 163.568C213.358 164.792 213.199 165.153 212.747 165.153H212.597L212.602 166Z" fill="#F4774C"/>
<path d="M218.692 164.608V161.636H217.7V166H218.76L220.502 163.025V166H221.496V161.636H220.439L218.692 164.608Z" fill="#F4774C"/>
<path d="M222.552 166H223.58V164.355H224.083L225.279 166H226.524L224.89 163.778L226.507 161.636H225.268L223.955 163.398H223.58V161.636H222.552V166Z" fill="#F4774C"/>
<path fill-rule="evenodd" clip-rule="evenodd" d="M28.7656 173C27.9372 173 27.2656 173.672 27.2656 174.5C27.2656 175.328 27.9372 176 28.7656 176H113.766C114.594 176 115.266 175.328 115.266 174.5C115.266 173.672 114.594 173 113.766 173H28.7656ZM28.7656 183C27.9372 183 27.2656 183.672 27.2656 184.5C27.2656 185.328 27.9372 186 28.7656 186H113.766C114.594 186 115.266 185.328 115.266 184.5C115.266 183.672 114.594 183 113.766 183H28.7656ZM132.266 174.5C132.266 173.672 132.937 173 133.766 173H236.766C237.594 173 238.266 173.672 238.266 174.5C238.266 175.328 237.594 176 236.766 176H133.766C132.937 176 132.266 175.328 132.266 174.5ZM133.766 183C132.937 183 132.266 183.672 132.266 184.5C132.266 185.328 132.937 186 133.766 186H236.766C237.594 186 238.266 185.328 238.266 184.5C238.266 183.672 237.594 183 236.766 183H133.766Z" fill="#E6E6E6"/>
<g filter="url(#filter2_d_1059_7421)">
<rect x="16.2656" y="80" width="239" height="53" rx="7" fill="white"/>
</g>
<path d="M31.9221 93.9092H27.8652V99.0001H28.78V94.6748H31.0073V99.0001H31.9221V93.9092Z" fill="#858585"/>
<path d="M32.9854 100.432H33.8852V98.3985H33.9225C34.0642 98.6769 34.36 99.0672 35.0162 99.0672C35.9161 99.0672 36.5898 98.3538 36.5898 97.096C36.5898 95.8232 35.8962 95.1322 35.0138 95.1322C34.3401 95.1322 34.0592 95.5374 33.9225 95.8133H33.8703V95.1819H32.9854V100.432ZM33.8678 97.091C33.8678 96.3502 34.186 95.8705 34.7652 95.8705C35.3643 95.8705 35.6725 96.3801 35.6725 97.091C35.6725 97.8069 35.3593 98.3289 34.7652 98.3289C34.191 98.3289 33.8678 97.8318 33.8678 97.091Z" fill="#858585"/>
<path d="M38.2279 97.782V95.1819H37.3604V99.0001H38.2876L39.8113 96.3975V99.0001H40.6814V95.1819H39.7567L38.2279 97.782Z" fill="#858585"/>
<path d="M41.6055 99.0001H43.4549C44.3498 99.0001 44.8619 98.5949 44.8619 97.9635C44.8619 97.4291 44.4467 97.0562 43.8477 97.004C44.3572 96.9095 44.6754 96.6386 44.6754 96.2085C44.6754 95.5647 44.1112 95.1819 43.2088 95.1819H41.6055V99.0001ZM42.4482 98.2916V97.3445H43.4549C43.7855 97.3445 43.9869 97.536 43.9869 97.8517C43.9869 98.1251 43.7855 98.2916 43.4549 98.2916H42.4482ZM42.4482 96.7629V95.9028H43.2088C43.5842 95.9028 43.8129 96.0619 43.8129 96.3229C43.8129 96.5963 43.5916 96.7629 43.2262 96.7629H42.4482Z" fill="#858585"/>
<path d="M47.2948 99.0747C48.1847 99.0747 48.7963 98.6396 48.9553 97.9759L48.1151 97.8815C47.9933 98.2046 47.695 98.3737 47.3073 98.3737C46.7256 98.3737 46.3403 97.9909 46.3328 97.3371H48.9926V97.0612C48.9926 95.7213 48.1872 95.1322 47.2476 95.1322C46.1539 95.1322 45.4404 95.9351 45.4404 97.1134C45.4404 98.3115 46.1439 99.0747 47.2948 99.0747ZM46.3353 96.7306C46.3627 96.2433 46.7231 95.8332 47.26 95.8332C47.7771 95.8332 48.1251 96.211 48.1301 96.7306H46.3353Z" fill="#858585"/>
<path d="M49.4357 95.9202H50.6712V99.0001H51.5412V95.9202H52.7766V95.1819H49.4357V95.9202Z" fill="#858585"/>
<path d="M55.0014 99.0747C55.9609 99.0747 56.5724 98.5054 56.6371 97.695H55.777C55.6999 98.1052 55.4041 98.3414 55.0089 98.3414C54.4471 98.3414 54.0842 97.8715 54.0842 97.091C54.0842 96.3204 54.4545 95.858 55.0089 95.858C55.4414 95.858 55.7074 96.1365 55.777 96.5044H56.6371C56.5749 95.6766 55.9286 95.1322 54.9964 95.1322C53.8778 95.1322 53.1719 95.9401 53.1719 97.1059C53.1719 98.2618 53.8604 99.0747 55.0014 99.0747Z" fill="#858585"/>
<path d="M57.1056 95.9202H58.3411V99.0001H59.2111V95.9202H60.4466V95.1819H57.1056V95.9202Z" fill="#858585"/>
<path d="M61.1631 99.0001H63.0125C63.9074 99.0001 64.4195 98.5949 64.4195 97.9635C64.4195 97.4291 64.0043 97.0562 63.4053 97.004C63.9149 96.9095 64.233 96.6386 64.233 96.2085C64.233 95.5647 63.6688 95.1819 62.7664 95.1819H61.1631V99.0001ZM62.0058 98.2916V97.3445H63.0125C63.3431 97.3445 63.5445 97.536 63.5445 97.8517C63.5445 98.1251 63.3431 98.2916 63.0125 98.2916H62.0058ZM62.0058 96.7629V95.9028H62.7664C63.1418 95.9028 63.3705 96.0619 63.3705 96.3229C63.3705 96.5963 63.1492 96.7629 62.7838 96.7629H62.0058Z" fill="#858585"/>
<path d="M66.0297 97.782V95.1819H65.1621V99.0001H66.0893L67.6131 96.3975V99.0001H68.4831V95.1819H67.5584L66.0297 97.782Z" fill="#858585"/>
<path d="M71.0976 99.0747C71.9875 99.0747 72.599 98.6396 72.7581 97.9759L71.9179 97.8815C71.7961 98.2046 71.4978 98.3737 71.11 98.3737C70.5283 98.3737 70.143 97.9909 70.1356 97.3371H72.7954V97.0612C72.7954 95.7213 71.99 95.1322 71.0503 95.1322C69.9566 95.1322 69.2432 95.9351 69.2432 97.1134C69.2432 98.3115 69.9466 99.0747 71.0976 99.0747ZM70.1381 96.7306C70.1654 96.2433 70.5258 95.8332 71.0628 95.8332C71.5798 95.8332 71.9278 96.211 71.9328 96.7306H70.1381Z" fill="#858585"/>
<path d="M74.111 99.0548C74.4043 99.0548 74.6554 98.8112 74.6578 98.5079C74.6554 98.2096 74.4043 97.966 74.111 97.966C73.8077 97.966 73.5616 98.2096 73.5641 98.5079C73.5616 98.8112 73.8077 99.0548 74.111 99.0548ZM74.111 96.3279C74.4043 96.3279 74.6554 96.0843 74.6578 95.781C74.6554 95.4827 74.4043 95.2391 74.111 95.2391C73.8077 95.2391 73.5616 95.4827 73.5641 95.781C73.5616 96.0843 73.8077 96.3279 74.111 96.3279Z" fill="#858585"/>
<rect x="82.2656" y="96" width="51" height="3" rx="1.5" fill="#E6E6E6"/>
<circle cx="32.7656" cy="113.5" r="5.5" fill="#F4774C"/>
<path d="M35.332 113.5L31.482 115.723L31.482 111.277L35.332 113.5Z" fill="white"/>
<path d="M48.2658 117.125C49.8446 117.128 50.7875 115.882 50.7875 113.734C50.7875 111.599 49.8382 110.365 48.2658 110.365C46.6934 110.365 45.7473 111.596 45.7441 113.734C45.7441 115.878 46.687 117.125 48.2658 117.125ZM48.2658 116.124C47.4508 116.124 46.9395 115.306 46.9426 113.734C46.9458 112.174 47.454 111.353 48.2658 111.353C49.0808 111.353 49.589 112.174 49.5922 113.734C49.5922 115.306 49.084 116.124 48.2658 116.124Z" fill="#3C3A3E"/>
<path d="M54.2687 117.125C55.8476 117.128 56.7904 115.882 56.7904 113.734C56.7904 111.599 55.8412 110.365 54.2687 110.365C52.6963 110.365 51.7503 111.596 51.7471 113.734C51.7471 115.878 52.6899 117.125 54.2687 117.125ZM54.2687 116.124C53.4537 116.124 52.9424 115.306 52.9456 113.734C52.9488 112.174 53.4569 111.353 54.2687 111.353C55.0837 111.353 55.5919 112.174 55.5951 113.734C55.5951 115.306 55.0869 116.124 54.2687 116.124Z" fill="#3C3A3E"/>
<path d="M58.5778 116.214C58.9549 116.214 59.2777 115.901 59.2809 115.511C59.2777 115.127 58.9549 114.814 58.5778 114.814C58.1879 114.814 57.8714 115.127 57.8746 115.511C57.8714 115.901 58.1879 116.214 58.5778 116.214ZM58.5778 112.967C58.9549 112.967 59.2777 112.654 59.2809 112.264C59.2777 111.88 58.9549 111.567 58.5778 111.567C58.1879 111.567 57.8714 111.88 57.8746 112.264C57.8714 112.654 58.1879 112.967 58.5778 112.967Z" fill="#3C3A3E"/>
<path d="M62.882 117.125C64.4608 117.128 65.4037 115.882 65.4037 113.734C65.4037 111.599 64.4545 110.365 62.882 110.365C61.3096 110.365 60.3635 111.596 60.3604 113.734C60.3604 115.878 61.3032 117.125 62.882 117.125ZM62.882 116.124C62.067 116.124 61.5557 115.306 61.5589 113.734C61.5621 112.174 62.0702 111.353 62.882 111.353C63.697 111.353 64.2052 112.174 64.2084 113.734C64.2084 115.306 63.7002 116.124 62.882 116.124Z" fill="#3C3A3E"/>
<path d="M68.8849 117.125C70.4638 117.128 71.4066 115.882 71.4066 113.734C71.4066 111.599 70.4574 110.365 68.8849 110.365C67.3125 110.365 66.3665 111.596 66.3633 113.734C66.3633 115.878 67.3061 117.125 68.8849 117.125ZM68.8849 116.124C68.07 116.124 67.5586 115.306 67.5618 113.734C67.565 112.174 68.0732 111.353 68.8849 111.353C69.6999 111.353 70.2081 112.174 70.2113 113.734C70.2113 115.306 69.7031 116.124 68.8849 116.124Z" fill="#3C3A3E"/>
<path d="M205.266 117.125C206.845 117.128 207.787 115.882 207.787 113.734C207.787 111.599 206.838 110.365 205.266 110.365C203.693 110.365 202.747 111.596 202.744 113.734C202.744 115.878 203.687 117.125 205.266 117.125ZM205.266 116.124C204.451 116.124 203.939 115.306 203.943 113.734C203.946 112.174 204.454 111.353 205.266 111.353C206.081 111.353 206.589 112.174 206.592 113.734C206.592 115.306 206.084 116.124 205.266 116.124Z" fill="#3C3A3E"/>
<path d="M211.269 117.125C212.848 117.128 213.79 115.882 213.79 113.734C213.79 111.599 212.841 110.365 211.269 110.365C209.696 110.365 208.75 111.596 208.747 113.734C208.747 115.878 209.69 117.125 211.269 117.125ZM211.269 116.124C210.454 116.124 209.942 115.306 209.946 113.734C209.949 112.174 210.457 111.353 211.269 111.353C212.084 111.353 212.592 112.174 212.595 113.734C212.595 115.306 212.087 116.124 211.269 116.124Z" fill="#3C3A3E"/>
<path d="M215.578 116.214C215.955 116.214 216.278 115.901 216.281 115.511C216.278 115.127 215.955 114.814 215.578 114.814C215.188 114.814 214.871 115.127 214.875 115.511C214.871 115.901 215.188 116.214 215.578 116.214ZM215.578 112.967C215.955 112.967 216.278 112.654 216.281 112.264C216.278 111.88 215.955 111.567 215.578 111.567C215.188 111.567 214.871 111.88 214.875 112.264C214.871 112.654 215.188 112.967 215.578 112.967Z" fill="#3C3A3E"/>
<path d="M220.125 110.455H218.997L217.37 111.5V112.586L218.901 111.608H218.939V117H220.125V110.455Z" fill="#3C3A3E"/>
<path d="M222.027 117H223.257L226.038 111.468V110.455H221.579V111.445H224.81V111.49L222.027 117Z" fill="#3C3A3E"/>
<path fill-rule="evenodd" clip-rule="evenodd" d="M80.6303 120L80.6303 106H79.2656V120H80.6303ZM83.3589 117.455L83.3589 108.545H81.9941L81.9941 117.455H83.3589ZM85.4077 113.447V118.727H84.043L84.043 107.273H85.4077V112.553H87.4544V110.766H89.5014V115.234H87.4544V113.447H85.4077ZM94.9624 119.364V113.447H97.6889V112.553H94.9624V106.636L93.5977 106.636L93.5977 119.364H94.9624ZM115.433 109.818V116.182H114.068V113.745L112.019 113.745V114.34H109.972H109.972H107.925V111.66H109.972H109.972H112.019V112.255H114.068V109.818H115.433ZM92.2299 115.83L92.2299 110.17H90.1829V115.83L92.2299 115.83ZM105.197 112.553V110.766H107.244V115.234H105.197V113.447H103.149V112.553H105.197ZM99.7378 112.255V113.745L97.6907 113.745V112.255H99.7378ZM131.808 113.853V112.364H129.761V112.851H127.714V112.255H120.208V112.553H117.479V113.447H120.208V113.745L127.714 113.745V113.149H129.761V113.853L131.808 113.853ZM102.466 111.362V114.638L100.419 114.638V111.362H102.466ZM133.855 120V106H132.49V120H133.855ZM136.583 120V106H135.219V120H136.583ZM138.632 113.447V120H137.268V106H138.632V112.553H140.677V113.447H138.632ZM142.726 113.853V115.234H140.679V110.766H142.726V112.364H143.407V110.17H145.455V112.851H146.808V112.255H150.913H152.96H153.642V111.362H155.689V112.553H157.043V113.447H155.689V114.638L153.642 114.638V113.745L152.96 113.745L150.913 113.745L146.808 113.745V113.149H145.455V115.83L143.407 115.83V113.853H142.726ZM160.466 112.255V110.766H160.454V109.818H159.089V110.766H158.419V115.234H159.089V116.182H160.454V115.234H160.466V113.745H161.148V114.34H162.501V114.34H164.549V114.34H164.55V114.34H166.597V113.745L167.279 113.745V115.234H169.326V113.447H170.702H171.371H172.054V114.638L174.101 114.638V113.745L174.785 113.745L176.832 113.745L179.56 113.745V119.364H180.925V113.745H180.937V112.255H180.925V106.636L179.56 106.636V112.255H176.832H174.785H174.101V111.362H172.054V112.553H171.371H170.702H169.326V110.766H167.279V112.255H166.597V111.66H165.244V111.66H163.197V111.66H163.195V111.66H161.148V112.255H160.466ZM182.29 112.851H180.938V113.149H182.29V115.83L184.338 115.83V110.17H182.29V112.851ZM193.89 106V120H195.255V106H193.89ZM191.162 108.545V117.455H192.526V108.545H191.162ZM189.113 118.727V113.447H187.068V112.553H189.113V107.273H190.477V118.727H189.113ZM185.019 115.234V110.766H187.066V115.234H185.019Z" fill="#CBCBCB"/>
<path d="M234.266 116.646H244.266V118H234.266V116.646ZM241.106 108H237.426V112.139H235.126L239.266 115.994L243.405 112.139H241.106V108Z" fill="#F4774C"/>
<path d="M99.3738 84.6359L99.8167 86.333L100.038 87.1815L100.107 87.3868C100.094 87.4279 100.135 87.4416 100.121 87.4826L100.149 87.5374L100.191 87.8248L100.288 88.3586C100.288 88.3586 100.482 89.1524 100.676 89.9462C100.828 90.7264 100.968 91.5476 100.954 91.4518C101.217 92.7247 101.562 93.6142 101.598 91.4378C101.611 91.1229 101.597 90.7534 101.623 90.3975C101.637 90.2195 101.65 90.0416 101.622 89.8499C101.594 89.6583 101.594 89.5214 101.553 89.3709C101.482 88.7549 101.454 88.2896 101.454 88.2896L101.329 87.701L101.287 87.4136L101.246 87.263L101.218 87.2083C101.218 87.2083 101.204 87.1125 101.177 87.0578L101.108 86.8525L100.637 85.1006C100.554 84.7995 100.512 84.5121 100.388 84.1973L100.084 83.3214L99.5177 81.5833C99.2969 81.0085 99.0624 80.4748 98.8416 79.9C98.5234 78.7914 97.9585 77.7377 97.4208 76.6019C97.1863 76.0681 96.8558 75.5482 96.5801 75.0008L95.6847 73.4271C95.3542 72.9071 95.0237 72.3871 94.7344 71.8808L94.2525 71.1282L94.0183 70.7314L93.7705 70.3756L92.6558 68.9115L92.1191 68.1864L91.5275 67.4886C88.5277 63.7122 85.0349 60.3193 81.159 57.392L80.7879 57.1322L80.4169 56.8723L79.6748 56.3525L78.1906 55.313L76.6243 54.383C76.0885 54.0684 75.5938 53.7676 75.058 53.453C74.0139 52.8786 72.915 52.3317 71.8025 51.8258C70.69 51.3199 69.5365 50.9373 68.3147 50.6231C67.7107 50.5139 67.0244 50.3774 66.4204 50.2682C66.3792 50.2545 66.3244 50.2819 66.3244 50.2819C66.2832 50.2682 66.2557 50.2135 66.2145 50.1998C66.1869 50.1451 66.1181 50.0767 66.1181 50.0767L66.5022 50.0217C67.0783 49.9393 67.6543 49.8569 68.258 49.8292C68.5872 49.8016 68.8616 49.8015 69.1909 49.7739C69.1909 49.7739 70.0002 49.6777 70.837 49.6362C71.6327 49.581 72.442 49.4848 72.4008 49.4711C73.745 49.2788 74.6088 49.0182 72.4404 48.8004C71.8228 48.7322 71.0269 48.6505 70.3956 48.6235C69.7644 48.5964 69.3116 48.583 69.3116 48.583C68.9412 48.5969 68.5708 48.6108 68.1867 48.6657C67.5419 48.6797 66.9246 48.7485 66.3485 48.8309L65.9097 48.9133C65.8137 48.927 65.6764 48.9271 65.5668 48.9819L65.1828 49.0369C64.6891 49.1466 64.1954 49.2564 63.6881 49.4072L63.5372 49.4484C63.5372 49.4484 63.4824 49.4758 63.4412 49.4621L63.51 49.5305L63.8398 49.7767L64.5271 50.3239C64.747 50.4881 65.0081 50.6659 65.1732 50.8574L65.3383 51.049C65.3659 51.1037 65.4482 51.131 65.4758 51.1858C66.1498 51.9109 66.6457 52.7593 67.1691 53.6625C67.486 54.2235 67.844 54.7982 68.2433 55.3866C68.2845 55.4003 68.3257 55.414 68.3257 55.414C69.122 55.6326 69.2304 55.0302 69.2297 54.7564C69.2434 54.7154 69.2434 54.7154 69.2158 54.6606C68.8441 54.127 68.5136 53.607 68.1968 53.046C67.935 52.5944 67.6733 52.1428 67.3704 51.6776C67.59 51.7048 67.7959 51.7732 68.0567 51.8141C69.155 52.0873 70.2536 52.4973 71.2974 52.9348C72.3411 53.3723 73.3988 53.9056 74.4017 54.4663C74.91 54.7261 75.4046 55.027 75.8993 55.3279L77.3832 56.2305C77.8778 56.5314 78.3588 56.8733 78.8398 57.2153C79.3208 57.5573 79.8154 57.8581 80.2964 58.2001C84.0348 60.9905 87.4038 64.2055 90.3208 67.8177L90.8712 68.5018C91.0639 68.7481 91.2289 68.9397 91.4216 69.186L92.4539 70.6227L92.9495 71.3342C93.101 71.5668 93.2524 71.7995 93.4314 72.0868L94.3678 73.5373C94.7119 74.0162 94.9464 74.5499 95.2357 75.0562L96.1035 76.5752L96.8618 78.1489C97.0962 78.6827 97.3855 79.189 97.5788 79.709C97.9929 80.8039 98.4755 81.8302 98.8348 82.9525L99.3738 84.6359Z" fill="#FE7849"/>
<path d="M57.7034 32.7374C57.8813 32.1125 58.007 31.449 58.1136 30.8114C58.1847 30.3863 58.1726 30.0193 58.1344 29.6331C58.4956 29.5807 58.7734 29.1487 58.4453 28.8276C56.47 26.8558 53.9649 25.3296 51.301 24.4025C48.9032 23.552 45.7547 23.0639 43.4292 24.4152C41.1227 25.7406 39.3607 28.024 37.8814 30.1973C36.2501 32.577 34.8921 35.0783 33.5675 37.644C32.3615 39.9389 31.0771 42.1761 29.8972 44.4903C28.6414 46.9077 27.5044 49.4922 27.1588 52.2615C26.8793 54.2838 27.2698 56.1629 28.1046 57.9314C28.364 58.8385 28.7065 59.6875 29.1655 60.5427C29.9978 62.1503 31.0724 63.5383 32.4605 64.7196C33.0762 65.2525 33.7678 65.6822 34.5354 66.0087C34.88 66.143 35.1913 66.2131 35.5216 66.2573C35.3886 66.4379 35.5361 66.7853 35.7689 66.7976C35.9566 66.8164 36.1823 66.7837 36.3629 66.7575C36.3653 66.9184 36.6315 66.9951 36.6742 66.8276C36.686 66.7567 36.705 66.7309 36.7169 66.6601C37.565 66.3297 38.3416 65.5487 38.9068 64.8907C39.7522 63.9615 40.3742 62.7882 40.8608 61.6346C40.9106 61.5121 40.9795 61.3639 41.0293 61.2414C41.205 60.8934 41.4258 60.5387 41.5753 60.1714C42.0644 59.1787 42.4939 58.1025 42.6645 56.9947C43.0016 56.2084 43.3909 55.4606 43.8515 54.7255C44.0533 54.3967 43.9367 53.9527 43.566 53.7991C42.4989 53.3317 41.3512 53.0834 40.2177 52.9252C39.79 52.849 39.3433 52.7985 38.8776 52.7739C38.7802 52.742 38.7279 52.7035 38.6304 52.6715C38.5069 52.6203 38.4237 52.6784 38.3406 52.7366C38.3332 52.2537 38.2095 51.7647 38.157 51.2884C38.1257 50.5095 38.2109 49.7367 38.3674 48.9766C38.7088 47.1988 39.4327 45.5038 40.2612 43.8857C41.7045 41.0494 43.6516 38.1861 46.2858 36.3062C46.3052 37.156 46.6406 37.9599 47.0591 38.7058C47.7106 39.9017 48.6188 40.9682 49.6979 41.8026C49.8024 41.8796 49.945 41.905 50.0733 41.8403C52.4773 40.5468 54.5554 38.6554 56.0394 36.3662C56.804 35.2183 57.3476 33.9873 57.7034 32.7374ZM51.2249 40.2215C51.1228 40.3055 50.9755 40.396 50.8734 40.4799C50.8663 40.4348 50.8663 40.4348 50.8591 40.3898C50.9684 40.3509 51.0967 40.2862 51.2249 40.2215ZM46.1024 35.2958C46.0311 35.2831 45.9028 35.3478 45.891 35.4186C45.8483 35.5861 45.9149 35.7147 46.0646 35.7852C46.0646 35.7852 46.0646 35.7852 46.0907 35.8044C44.789 36.4772 43.7392 37.5742 42.7798 38.6582C41.5093 40.1099 40.4289 41.7414 39.5244 43.4626C38.6579 45.1322 37.9222 46.8981 37.5238 48.7533C37.3483 49.5392 37.2513 50.3828 37.2897 51.2068C37.297 51.6897 37.3377 52.2368 37.5256 52.6935C37.2999 52.7262 37.0932 52.7332 36.8675 52.7659C36.6869 52.7921 36.6585 53.0497 36.8082 53.1202C37.659 53.3885 38.5524 53.4893 39.4078 53.6418C39.5124 53.7188 39.617 53.7958 39.7144 53.8278C39.7169 53.9887 39.7835 54.1173 39.9213 54.2586C40.1115 54.4384 40.8774 54.326 41.1246 54.4284C41.222 54.4604 41.3194 54.4924 41.424 54.5694C41.3004 54.5182 41.4835 54.6529 41.4763 54.6079C41.5286 54.6464 41.569 54.7557 41.5952 54.775C41.6285 54.8393 41.6618 54.9036 41.6761 54.9937C41.7094 55.058 41.6975 55.1288 41.7047 55.1739C41.7261 55.309 41.7286 55.47 41.75 55.6051C41.7692 56.0171 41.556 57.0649 41.4208 57.5224C41.0102 58.5728 40.5368 59.3914 40.1452 60.4161C39.5945 61.602 38.673 62.6893 37.8679 63.7279C37.64 64.0374 37.3669 64.3536 37.1128 64.6439C37.4378 63.4907 37.7366 62.3182 38.1329 61.1777L38.1068 61.1584C37.5442 62.4152 37.1052 63.7233 36.6924 65.0506C36.6734 65.0764 36.6734 65.0764 36.6544 65.1022C36.6164 65.1537 36.5713 65.1603 36.5333 65.2119C36.4691 65.2442 36.386 65.3024 36.348 65.354C36.0414 65.168 35.7538 64.9563 35.4662 64.7445C35.4709 64.6286 35.4305 64.5192 35.4352 64.4033C35.4421 64.0106 35.4491 63.6178 35.475 63.1993C35.5269 62.3622 35.7143 61.5054 36.2343 60.8539C36.2723 60.8023 36.1867 60.6995 36.1297 60.7769C35.5692 61.3191 35.2963 62.073 35.1399 62.8331C35.0498 63.284 35.031 63.7476 35.0122 64.2112C35.0003 64.2821 35.0146 64.3722 34.9838 64.4688C34.4609 64.0838 33.9308 63.6537 33.4911 63.2105C33.3074 61.7624 33.782 60.2418 34.1354 58.831C34.1662 58.7343 34.0165 58.6638 33.9856 58.7605C33.5657 60.0427 33.0435 61.4089 33.0441 62.7223C32.5972 62.2341 32.1883 61.6943 31.8245 61.1479C31.8029 60.5749 31.8525 60.0147 31.9022 59.4544C32.075 58.0698 32.4166 56.7298 32.5371 55.3067L32.5109 55.2874C32.1718 56.7883 31.7543 58.2315 31.5126 59.7644C31.4842 60.022 31.4369 60.3054 31.4346 60.5823C31.2158 60.2223 30.9971 59.8623 30.7973 59.4764C30.7046 59.3286 30.6309 59.1549 30.5571 58.9813C30.5349 57.0949 31.3632 55.0391 31.6927 53.3322C31.7046 53.2613 31.6071 53.2294 31.5953 53.3002C31.173 54.8593 30.404 56.5609 30.1838 58.2289C29.8627 57.515 29.5677 56.8204 29.3179 56.1193C29.313 55.7974 29.3533 55.4689 29.4197 55.1597C29.5927 54.2129 29.8821 53.2722 30.029 52.3061C30.0409 52.2352 29.9244 52.2291 29.9126 52.2999C29.6897 53.3692 29.2459 54.3553 29.0491 55.4439C29.0087 55.3345 28.9682 55.2252 28.9207 55.0708C28.697 54.3889 28.5303 53.6296 28.416 52.9088C28.3016 52.1879 28.3226 51.4475 28.2273 50.7009C28.213 50.6108 28.1345 50.553 28.0704 50.5854C28.3764 49.4579 28.7798 48.3625 29.2166 47.3313C30.3155 44.7984 31.7211 42.4514 32.9959 40.0082C34.2589 37.6359 35.4957 35.2443 36.8823 32.9231C38.5777 30.5111 40.2398 28.0348 42.4534 26.1237C43.4676 25.2392 44.5579 24.6893 45.867 24.4994C47.2664 24.2964 48.7635 24.5632 50.1204 24.9655C52.568 25.6935 54.947 27.0076 56.8605 28.7348C56.8415 28.7606 56.8486 28.8057 56.8296 28.8315C56.7873 29.8746 56.6809 30.95 56.3796 31.9616C55.9976 33.1922 55.3685 34.3204 54.6799 35.3651C54.0981 36.2099 53.343 37.126 52.4951 37.8942C52.4736 37.7591 52.4332 37.6497 52.3666 37.5211C52.3595 37.4761 52.2953 37.5084 52.3025 37.5535C52.3691 37.6821 52.3905 37.8172 52.4119 37.9524C51.8633 38.4237 51.3075 38.85 50.6661 39.1734C50.661 38.4137 50.7201 37.6217 50.917 36.9709L50.8908 36.9517C50.6226 37.5897 50.478 38.279 50.4237 38.9551C50.419 39.071 50.4143 39.1869 50.4096 39.3028C50.153 39.4322 49.8703 39.5423 49.5615 39.6332C49.4236 39.4919 49.2596 39.3314 49.1217 39.1901C49.0286 38.1666 49.4818 36.9487 49.9425 36.2136L49.9163 36.1943C49.4984 36.7619 48.8241 37.8967 48.7937 38.8689C48.5441 38.6056 48.3016 38.3873 48.052 38.1239C47.9997 38.0854 47.9664 38.0211 47.9141 37.9826C47.8688 37.5513 47.9517 37.0554 48.049 36.6495C48.2316 35.9087 48.4403 35.1871 48.5968 34.427C48.6087 34.3562 48.4851 34.305 48.4542 34.4016C48.1956 35.2456 47.8396 36.0577 47.6523 36.9145C47.6096 37.082 47.574 37.2945 47.5575 37.4813C47.3459 37.1663 47.1723 36.7998 47.0628 36.4008C47.1269 36.3685 47.1911 36.3362 47.1768 36.2461C47.1051 35.3577 47.454 34.5006 47.7459 33.7209C47.8147 33.5726 47.5676 33.4702 47.4987 33.6185C47.2377 34.3015 46.9576 35.0104 46.8653 35.7382C46.832 35.6739 46.6966 35.6935 46.6847 35.7644C46.661 35.9061 46.6563 36.022 46.6516 36.1379C46.6277 35.8418 46.63 35.5649 46.6774 35.2815C46.6821 35.1656 46.5134 35.121 46.4635 35.2434C46.4137 35.3659 46.39 35.5076 46.3591 35.6042C46.3567 35.4433 46.2449 35.3212 46.1024 35.2958ZM49.6879 40.721C50.0229 40.6494 50.3317 40.5585 50.6144 40.4483C50.6216 40.4934 50.6477 40.5126 50.6548 40.5577C50.4244 40.7063 50.213 40.8292 49.9826 40.9778C49.9042 40.9201 49.7996 40.843 49.6879 40.721Z" fill="#FE7849"/>
<path d="M39.4809 15.6165C37.3708 16.3234 35.4244 17.3007 33.5658 18.4836C32.552 19.1597 31.6142 19.9007 30.7116 20.7239C29.9545 21.4363 28.9295 22.3118 28.5929 23.3308C28.4943 23.6647 28.874 23.9888 29.1652 23.7671C30.039 23.1022 30.6963 22.0434 31.4765 21.2724C32.2976 20.4841 33.1538 19.778 34.0859 19.1367C35.8278 17.9064 37.7566 16.888 39.6623 15.9281C39.8255 15.8584 39.7025 15.5705 39.4809 15.6165Z" fill="#FE7849"/>
<path d="M43.0723 11.6028C41.3798 10.9156 39.4266 11.3122 37.7068 11.8037C35.4215 12.4394 33.3119 13.4864 31.3485 14.7627C29.3851 16.039 27.5678 17.5447 26.0719 19.3507C25.4316 20.1105 24.844 20.9936 24.4139 21.9067C23.943 22.8373 23.8858 23.4939 24.0507 24.4446C24.1153 24.7088 24.4128 24.7276 24.5465 24.476C24.7035 24.1658 24.9188 23.8793 25.0757 23.5691C25.2967 23.183 25.401 22.7494 25.5636 22.3396C25.9297 21.5024 26.4884 20.7775 27.0471 20.0526C28.3974 18.3574 30.069 16.9626 31.8517 15.7148C35.1665 13.4236 38.9551 11.9026 43.0026 11.7784C43.1777 11.8495 43.1891 11.6502 43.0723 11.6028Z" fill="#FE7849"/>
<path d="M18.4839 25.7534C19.3339 24.8068 20.0847 23.854 20.6485 22.6892C21.1426 21.7001 21.5608 20.6462 22.0549 19.6571C23.0488 17.5793 24.3816 15.843 26.1931 14.437C27.4222 13.4744 28.7974 12.7411 30.0792 11.9018C31.4425 11.0277 32.8234 10.1947 34.2394 9.44398C37.0891 7.98363 40.2255 7.08159 43.4633 7.54641C43.7608 7.56522 43.865 7.13167 43.5908 7.05431C40.5094 5.93915 37.326 6.61815 34.406 7.914C32.8965 8.55879 31.4748 9.4092 30.0531 10.2596C28.6314 11.11 27.1513 11.9367 25.8055 12.852C21.4186 15.7956 19.7237 20.7501 17.8244 25.4516C17.7666 25.7681 18.251 25.9988 18.4839 25.7534Z" fill="#FE7849"/>
<path d="M72.4747 204.552C74.6614 204.528 76.7591 204.498 78.8559 204.474C79.2738 204.468 79.5688 204.464 80.098 204.531C80.4914 204.578 81.3241 204.692 81.1957 205.048C81.054 205.33 80.9112 205.514 80.1887 205.586C78.3214 205.765 76.4265 205.7 74.5465 205.643C72.8864 205.592 71.6204 205.532 70.1509 205.411C69.4646 205.355 69.2379 205.022 69.401 204.495C69.5476 204.022 69.6883 203.534 69.9355 203.098C70.8166 201.52 71.7424 199.971 72.6544 198.405C72.7663 198.21 72.8398 198.052 73.0119 197.837C73.2233 197.58 73.3602 197.381 73.6908 197.517C74.0065 197.644 73.9265 198.057 73.8386 198.255C73.1465 199.933 71.6514 203.37 71.6204 203.57C72.7562 203.151 73.8185 202.784 74.8564 202.363C82.0664 199.404 88.9507 196.013 94.7541 191.202C99.348 187.393 103.321 183.156 106.514 178.36C106.705 178.078 106.926 177.807 107.146 177.551C107.437 177.199 107.662 177.064 107.888 177.191C108.277 177.478 108.277 177.707 108.2 177.943C108.063 178.36 107.264 179.096 107.009 179.531C103.524 185.317 98.745 189.601 93.1143 193.823C87.3355 198.157 80.9466 201.469 73.8991 203.957C73.521 204.076 72.6217 204.447 72.4747 204.552Z" fill="#F4774C"/>
<path d="M48.3328 197.911C47.8437 197.575 47.3061 197.273 46.7853 196.995C46.4381 196.81 46.117 196.714 45.7716 196.634C45.8314 196.306 45.5384 195.94 45.165 196.131C42.8834 197.266 40.8332 198.99 39.2553 201.025C37.8212 202.853 36.4822 205.436 36.9746 207.842C37.4502 210.224 38.9135 212.414 40.3637 214.327C41.9484 216.431 43.7178 218.335 45.5527 220.228C47.1878 221.94 48.7501 223.703 50.4094 225.398C52.136 227.188 54.0418 228.925 56.3379 230.03C58.0067 230.861 59.7467 231.07 61.5203 230.862C62.3809 230.902 63.2154 230.853 64.0892 230.704C65.7227 230.452 67.2369 229.926 68.6634 229.069C69.3038 228.691 69.877 228.217 70.383 227.648C70.5996 227.389 70.7509 227.14 70.8854 226.867C71.003 227.035 71.3465 227.008 71.4249 226.81C71.4959 226.653 71.5333 226.448 71.5632 226.284C71.7032 226.329 71.847 226.121 71.7144 226.035C71.6566 226.005 71.6398 225.981 71.5819 225.95C71.5428 225.12 71.0931 224.22 70.6881 223.539C70.1301 222.537 69.2957 221.657 68.4389 220.9C68.3475 220.821 68.2392 220.719 68.1477 220.64C67.8976 220.387 67.655 220.092 67.3806 219.856C66.6638 219.144 65.8574 218.459 64.9483 217.988C64.366 217.468 63.8321 216.913 63.33 216.301C63.1042 216.03 62.686 216.002 62.4451 216.278C61.73 217.065 61.1809 217.986 60.714 218.921C60.5236 219.269 60.3499 219.641 60.193 220.037C60.137 220.112 60.0884 220.146 60.0324 220.221C59.9521 220.313 59.9782 220.402 60.0043 220.491C59.5843 220.357 59.1251 220.322 58.6975 220.228C58.0143 220.029 57.3703 219.73 56.758 219.373C55.3187 218.56 54.0625 217.44 52.9034 216.252C50.8688 214.177 48.9576 211.658 48.0974 208.831C48.8386 209.062 49.632 209.006 50.3993 208.861C51.6241 208.645 52.8115 208.17 53.8478 207.479C53.9448 207.41 54.0083 207.294 53.9897 207.165C53.5701 204.707 52.5381 202.358 50.9889 200.407C50.2181 199.412 49.3109 198.583 48.3328 197.911ZM52.924 205.697C52.9669 205.809 53.0023 205.963 53.0452 206.076C53.0042 206.069 53.0042 206.069 52.9631 206.062C52.9613 205.956 52.9426 205.826 52.924 205.697ZM47.1696 208.696C47.1379 208.754 47.1565 208.884 47.2144 208.915C47.3469 209 47.4776 208.98 47.5822 208.871C47.5822 208.871 47.5822 208.871 47.6064 208.854C47.8097 210.177 48.4536 211.405 49.1124 212.55C49.9989 214.073 51.0964 215.483 52.3227 216.767C53.5154 218.003 54.8295 219.153 56.3191 220.038C56.9482 220.419 57.6501 220.749 58.3744 220.955C58.7945 221.089 59.2798 221.214 59.7298 221.184C59.6924 221.389 59.6382 221.57 59.6008 221.774C59.5709 221.938 59.7856 222.038 59.8902 221.929C60.3701 221.271 60.7175 220.527 61.0985 219.831C61.1955 219.763 61.2926 219.695 61.3487 219.62C61.4887 219.664 61.6194 219.644 61.7818 219.566C61.9928 219.454 62.1185 218.758 62.2791 218.574C62.3351 218.499 62.3911 218.424 62.4882 218.356C62.4079 218.448 62.5778 218.329 62.5367 218.322C62.5853 218.288 62.6917 218.285 62.716 218.268C62.7813 218.258 62.8467 218.247 62.9288 218.261C62.9942 218.251 63.052 218.282 63.0931 218.289C63.2163 218.31 63.3563 218.355 63.4795 218.375C63.8417 218.479 64.6864 218.968 65.043 219.218C65.8325 219.88 66.4032 220.528 67.176 221.165C68.0421 221.987 68.7148 223.101 69.3793 224.1C69.5809 224.387 69.775 224.716 69.9523 225.02C69.0488 224.403 68.121 223.803 67.2493 223.128L67.225 223.145C68.149 223.998 69.1533 224.759 70.1818 225.502C70.1986 225.526 70.1986 225.526 70.2154 225.55C70.249 225.598 70.2415 225.639 70.2751 225.687C70.2844 225.752 70.3106 225.841 70.3441 225.889C70.0939 226.1 69.8269 226.287 69.5599 226.474C69.461 226.437 69.3546 226.44 69.2556 226.402C68.9178 226.282 68.5799 226.161 68.2252 226.017C67.5158 225.728 66.8289 225.317 66.4164 224.677C66.3828 224.629 66.2689 224.673 66.3193 224.745C66.6254 225.388 67.1984 225.844 67.8107 226.2C68.1747 226.41 68.5705 226.561 68.9662 226.712C69.0241 226.743 69.1062 226.757 69.1809 226.812C68.6954 227.152 68.1689 227.486 67.6573 227.737C66.3506 227.475 65.1727 226.621 64.0545 225.905C63.9799 225.85 63.8753 225.959 63.95 226.014C64.9374 226.751 65.9678 227.6 67.1047 227.982C66.552 228.227 65.9658 228.423 65.387 228.579C64.8849 228.431 64.4144 228.225 63.944 228.019C62.796 227.466 61.7357 226.781 60.5391 226.262L60.5148 226.279C61.7151 227.009 62.8426 227.791 64.0989 228.446C64.3136 228.546 64.545 228.669 64.784 228.752C64.4087 228.836 64.0335 228.921 63.6414 228.982C63.4864 229.019 63.3147 229.032 63.1429 229.045C61.5039 228.515 59.9658 227.2 58.5844 226.418C58.5266 226.387 58.4705 226.462 58.5284 226.493C59.7548 227.312 61.0036 228.473 62.3831 229.149C61.6718 229.219 60.9847 229.273 60.3052 229.285C60.0252 229.195 59.7526 229.065 59.5044 228.917C58.7353 228.492 58.0054 227.967 57.212 227.559C57.1542 227.528 57.1149 227.627 57.1728 227.658C58.0334 228.162 58.7576 228.833 59.6424 229.321C59.536 229.324 59.4296 229.327 59.2821 229.323C58.6268 229.318 57.9212 229.241 57.264 229.131C56.6069 229.02 55.9722 228.786 55.2983 228.651C55.2161 228.637 55.1433 228.688 55.1526 228.753C54.266 228.16 53.4353 227.492 52.67 226.814C50.7978 225.125 49.1758 223.226 47.4324 221.411C45.7469 219.627 44.0372 217.861 42.432 215.985C40.838 213.815 39.1787 211.656 38.1692 209.184C37.6989 208.049 37.5404 206.945 37.7572 205.757C37.9889 204.486 38.6556 203.268 39.3989 202.211C40.7415 200.305 42.5714 198.628 44.6233 197.475C44.6401 197.499 44.6812 197.506 44.698 197.53C45.5884 197.87 46.4882 198.276 47.2759 198.831C48.2298 199.52 49.0231 200.393 49.7267 201.293C50.2885 202.042 50.8615 202.962 51.2795 203.92C51.1563 203.899 51.0499 203.902 50.9192 203.922C50.8782 203.915 50.8875 203.98 50.9285 203.987C51.0592 203.967 51.1824 203.988 51.3057 204.009C51.5538 204.621 51.761 205.226 51.8542 205.875C51.1952 205.658 50.5269 205.377 50.021 205.017L49.9968 205.034C50.4709 205.452 51.0253 205.778 51.5947 206.021C51.6936 206.059 51.7925 206.097 51.8915 206.135C51.9288 206.395 51.9418 206.671 51.9305 206.965C51.7681 207.043 51.5814 207.138 51.419 207.217C50.5061 206.999 49.584 206.252 49.0819 205.64L49.0576 205.657C49.4272 206.184 50.213 207.098 51.0455 207.407C50.7449 207.546 50.4854 207.693 50.1848 207.832C50.1363 207.866 50.0709 207.876 50.0224 207.91C49.636 207.824 49.2309 207.608 48.9079 207.405C48.3199 207.032 47.7562 206.641 47.1439 206.284C47.086 206.253 47.0058 206.345 47.0804 206.4C47.7356 206.87 48.3348 207.414 49.0217 207.826C49.1543 207.912 49.3279 208.004 49.4847 208.073C49.1505 208.164 48.7827 208.208 48.4056 208.187C48.3963 208.122 48.387 208.057 48.3048 208.043C47.5152 207.846 46.8749 207.295 46.285 206.815C46.1768 206.712 46.0162 206.896 46.1245 206.999C46.6396 207.424 47.1716 207.873 47.7746 208.165C47.7092 208.175 47.6868 208.298 47.7447 208.328C47.8604 208.39 47.9594 208.428 48.0583 208.466C47.7951 208.4 47.5561 208.318 47.3247 208.194C47.2257 208.156 47.138 208.289 47.2294 208.368C47.3209 208.447 47.4366 208.509 47.5113 208.564C47.3713 208.519 47.2331 208.58 47.1696 208.696ZM52.9088 207.172C52.9443 206.862 52.9555 206.568 52.9425 206.291C52.9836 206.298 53.0079 206.281 53.0489 206.288C53.1105 206.531 53.1553 206.749 53.2168 206.992C53.144 207.043 53.0469 207.111 52.9088 207.172Z" fill="#FE7849"/>
</g>
<defs>
<filter id="filter0_d_1059_7421" x="70" y="-12" width="440" height="264" filterUnits="userSpaceOnUse" color-interpolation-filters="sRGB">
<feFlood flood-opacity="0" result="BackgroundImageFix"/>
<feColorMatrix in="SourceAlpha" type="matrix" values="0 0 0 0 0 0 0 0 0 0 0 0 0 0 0 0 0 0 127 0" result="hardAlpha"/>
<feOffset/>
<feGaussianBlur stdDeviation="15"/>
<feComposite in2="hardAlpha" operator="out"/>
<feColorMatrix type="matrix" values="0 0 0 0 0.956863 0 0 0 0 0.466667 0 0 0 0 0.298039 0 0 0 0.2 0"/>
<feBlend mode="normal" in2="BackgroundImageFix" result="effect1_dropShadow_1059_7421"/>
<feBlend mode="normal" in="SourceGraphic" in2="effect1_dropShadow_1059_7421" result="shape"/>
</filter>
<filter id="filter1_d_1059_7421" x="-13.7344" y="115" width="299" height="113" filterUnits="userSpaceOnUse" color-interpolation-filters="sRGB">
<feFlood flood-opacity="0" result="BackgroundImageFix"/>
<feColorMatrix in="SourceAlpha" type="matrix" values="0 0 0 0 0 0 0 0 0 0 0 0 0 0 0 0 0 0 127 0" result="hardAlpha"/>
<feOffset/>
<feGaussianBlur stdDeviation="15"/>
<feComposite in2="hardAlpha" operator="out"/>
<feColorMatrix type="matrix" values="0 0 0 0 0.956863 0 0 0 0 0.466667 0 0 0 0 0.298039 0 0 0 0.2 0"/>
<feBlend mode="normal" in2="BackgroundImageFix" result="effect1_dropShadow_1059_7421"/>
<feBlend mode="normal" in="SourceGraphic" in2="effect1_dropShadow_1059_7421" result="shape"/>
</filter>
<filter id="filter2_d_1059_7421" x="-13.7344" y="50" width="299" height="113" filterUnits="userSpaceOnUse" color-interpolation-filters="sRGB">
<feFlood flood-opacity="0" result="BackgroundImageFix"/>
<feColorMatrix in="SourceAlpha" type="matrix" values="0 0 0 0 0 0 0 0 0 0 0 0 0 0 0 0 0 0 127 0" result="hardAlpha"/>
<feOffset/>
<feGaussianBlur stdDeviation="15"/>
<feComposite in2="hardAlpha" operator="out"/>
<feColorMatrix type="matrix" values="0 0 0 0 0.956863 0 0 0 0 0.466667 0 0 0 0 0.298039 0 0 0 0.2 0"/>
<feBlend mode="normal" in2="BackgroundImageFix" result="effect1_dropShadow_1059_7421"/>
<feBlend mode="normal" in="SourceGraphic" in2="effect1_dropShadow_1059_7421" result="shape"/>
</filter>
<clipPath id="clip0_1059_7421">
<rect width="502" height="249" rx="4" fill="white"/>
</clipPath>
</defs>
</svg>
