<svg width="629" height="355" viewBox="0 0 629 355" fill="none" xmlns="http://www.w3.org/2000/svg">
<g clip-path="url(#clip0_1059_6986)">
<g filter="url(#filter0_d_1059_6986)">
<rect x="126" y="27" width="462" height="273" rx="4" fill="white"/>
</g>
<path d="M126 31C126 28.7909 127.791 27 130 27H584C586.209 27 588 28.7909 588 31V64H126V31Z" fill="#3C3A3E"/>
<path d="M126 64H240V300H130C127.791 300 126 298.209 126 296V64Z" fill="#EDEDED"/>
<path fill-rule="evenodd" clip-rule="evenodd" d="M240 152.5V236V236.5L240 267H238V236.5L126 236.5V236L238 236L238 152.5L126 152.5V152L238 152V64H240V152V152.5ZM137 87C137 85.8954 137.895 85 139 85H221C222.105 85 223 85.8954 223 87C223 88.1046 222.105 89 221 89H139C137.895 89 137 88.1046 137 87ZM139 169C137.895 169 137 169.895 137 171C137 172.105 137.895 173 139 173H221C222.105 173 223 172.105 223 171C223 169.895 222.105 169 221 169H139ZM137 102C137 100.895 137.895 100 139 100H199C200.105 100 201 100.895 201 102C201 103.105 200.105 104 199 104H139C137.895 104 137 103.105 137 102ZM139 184C137.895 184 137 184.895 137 186C137 187.105 137.895 188 139 188H199C200.105 188 201 187.105 201 186C201 184.895 200.105 184 199 184H139ZM137 117C137 115.895 137.895 115 139 115H209C210.105 115 211 115.895 211 117C211 118.105 210.105 119 209 119H139C137.895 119 137 118.105 137 117ZM139 199C137.895 199 137 199.895 137 201C137 202.105 137.895 203 139 203H209C210.105 203 211 202.105 211 201C211 199.895 210.105 199 209 199H139ZM137 132C137 130.895 137.895 130 139 130H185C186.105 130 187 130.895 187 132C187 133.105 186.105 134 185 134H139C137.895 134 137 133.105 137 132ZM139 214C137.895 214 137 214.895 137 216C137 217.105 137.895 218 139 218H185C186.105 218 187 217.105 187 216C187 214.895 186.105 214 185 214H139ZM137 255C137 253.895 137.895 253 139 253H199C200.105 253 201 253.895 201 255C201 256.105 200.105 257 199 257H139C137.895 257 137 256.105 137 255ZM240 274L126 274V274.5L240 274.5V274Z" fill="#CBCBCB"/>
<path d="M275.908 94.1192C277.774 94.1192 279.133 93.0496 279.129 91.5752C279.133 90.4843 278.452 89.7002 277.229 89.5255V89.4573C278.175 89.2528 278.81 88.5496 278.805 87.5695C278.81 86.24 277.676 85.1533 275.933 85.1533C274.237 85.1533 272.925 86.1633 272.891 87.6249H274.412C274.437 86.892 275.119 86.436 275.925 86.436C276.739 86.436 277.28 86.9303 277.275 87.6633C277.28 88.426 276.649 88.9332 275.746 88.9332H274.974V90.1519H275.746C276.849 90.1519 277.506 90.7059 277.501 91.4942C277.506 92.2655 276.837 92.7939 275.903 92.7939C275.025 92.7939 274.348 92.338 274.31 91.6263H272.707C272.75 93.1008 274.067 94.1192 275.908 94.1192Z" fill="#3C3A3E"/>
<path d="M280.609 93.9999H283.779C285.313 93.9999 286.191 93.3053 286.191 92.2229C286.191 91.3067 285.48 90.6675 284.453 90.578C285.326 90.4161 285.872 89.9516 285.872 89.2144C285.872 88.1107 284.904 87.4545 283.357 87.4545H280.609V93.9999ZM282.054 92.7854V91.1618H283.779C284.346 91.1618 284.691 91.49 284.691 92.0312C284.691 92.4999 284.346 92.7854 283.779 92.7854H282.054ZM282.054 90.1647V88.6903H283.357C284.001 88.6903 284.393 88.963 284.393 89.4104C284.393 89.8792 284.014 90.1647 283.387 90.1647H282.054Z" fill="#3C3A3E"/>
<path d="M290.319 94.1278C292.237 94.1278 293.456 92.7769 293.456 90.7528C293.456 88.7243 292.237 87.3692 290.319 87.3692C288.402 87.3692 287.183 88.7243 287.183 90.7528C287.183 92.7769 288.402 94.1278 290.319 94.1278ZM290.328 92.892C289.267 92.892 288.747 91.9459 288.747 90.7485C288.747 89.551 289.267 88.5922 290.328 88.5922C291.372 88.5922 291.892 89.551 291.892 90.7485C291.892 91.9459 291.372 92.892 290.328 92.892Z" fill="#3C3A3E"/>
<path d="M296.252 87.4545H294.765V93.9999H296.252V91.3536H298.788V93.9999H300.271V87.4545H298.788V90.088H296.252V87.4545Z" fill="#3C3A3E"/>
<path d="M301.832 93.9999H303.374V91.5326H304.128L305.922 93.9999H307.789L305.339 90.6675L307.763 87.4545H305.905L303.937 90.0965H303.374V87.4545H301.832V93.9999Z" fill="#3C3A3E"/>
<path d="M310.151 91.9118V87.4545H308.664V93.9999H310.253L312.865 89.5383V93.9999H314.357V87.4545H312.772L310.151 91.9118Z" fill="#3C3A3E"/>
<path d="M318.918 93.9999H320.392V88.7201H322.957V93.9999H324.444V87.4545H318.918V93.9999Z" fill="#3C3A3E"/>
<path d="M328.886 94.1278C330.804 94.1278 332.022 92.7769 332.022 90.7528C332.022 88.7243 330.804 87.3692 328.886 87.3692C326.968 87.3692 325.75 88.7243 325.75 90.7528C325.75 92.7769 326.968 94.1278 328.886 94.1278ZM328.894 92.892C327.833 92.892 327.313 91.9459 327.313 90.7485C327.313 89.551 327.833 88.5922 328.894 88.5922C329.938 88.5922 330.458 89.551 330.458 90.7485C330.458 91.9459 329.938 92.892 328.894 92.892Z" fill="#3C3A3E"/>
<path d="M337.497 93.9999L338.217 91.8479H341.498L342.223 93.9999H343.91L340.834 85.2726H338.882L335.81 93.9999H337.497ZM338.643 90.578L339.824 87.0624H339.892L341.072 90.578H338.643Z" fill="#3C3A3E"/>
<path d="M345.06 93.9999H346.641V91.051H348.311C350.327 91.051 351.409 89.8408 351.409 88.1618C351.409 86.4957 350.34 85.2726 348.333 85.2726H345.06V93.9999ZM346.641 89.7513V86.5937H348.09C349.274 86.5937 349.799 87.2329 349.799 88.1618C349.799 89.0908 349.274 89.7513 348.098 89.7513H346.641Z" fill="#3C3A3E"/>
<path d="M354.364 85.2726H352.783V93.9999H354.364V85.2726Z" fill="#3C3A3E"/>
<path fill-rule="evenodd" clip-rule="evenodd" d="M272 105H556V104H272V105ZM272 126C272 124.895 272.895 124 274 124H358C359.105 124 360 124.895 360 126C360 127.105 359.105 128 358 128H274C272.895 128 272 127.105 272 126ZM272 177.5C272 176.119 273.119 175 274.5 175H357.5C358.881 175 360 176.119 360 177.5C360 178.881 358.881 180 357.5 180H274.5C273.119 180 272 178.881 272 177.5ZM274 201C272.895 201 272 201.895 272 203C272 204.105 272.895 205 274 205H358C359.105 205 360 204.105 360 203C360 201.895 359.105 201 358 201H274ZM272 152C272 150.895 272.895 150 274 150H358C359.105 150 360 150.895 360 152C360 153.105 359.105 154 358 154H274C272.895 154 272 153.105 272 152ZM377.5 175C376.119 175 375 176.119 375 177.5C375 178.881 376.119 180 377.5 180H408.5C409.881 180 411 178.881 411 177.5C411 176.119 409.881 175 408.5 175H377.5ZM375 203C375 201.895 375.895 201 377 201H409C410.105 201 411 201.895 411 203C411 204.105 410.105 205 409 205H377C375.895 205 375 204.105 375 203ZM377 124C375.895 124 375 124.895 375 126C375 127.105 375.895 128 377 128H554C555.105 128 556 127.105 556 126C556 124.895 555.105 124 554 124H377ZM375 152C375 150.895 375.895 150 377 150H554C555.105 150 556 150.895 556 152C556 153.105 555.105 154 554 154H377C375.895 154 375 153.105 375 152ZM424.5 175C423.119 175 422 176.119 422 177.5C422 178.881 423.119 180 424.5 180H553.5C554.881 180 556 178.881 556 177.5C556 176.119 554.881 175 553.5 175H424.5ZM422 203C422 201.895 422.895 201 424 201H554C555.105 201 556 201.895 556 203C556 204.105 555.105 205 554 205H424C422.895 205 422 204.105 422 203ZM556 139H272V138.5H556V139ZM272 165H556V164.5H272V165ZM556 190H272V189.5H556V190ZM272 216H556V215.5H272V216Z" fill="#E6E6E6"/>
<path fill-rule="evenodd" clip-rule="evenodd" d="M153.101 48.4016C153.101 51.0656 151.547 52.399 148.437 52.4019H142C142 49.8371 145.973 49.8483 147.687 49.8531C147.757 49.8533 147.823 49.8535 147.885 49.8535C149.171 49.8535 149.812 49.2756 149.809 48.1199C149.809 46.9584 149.169 46.3863 147.885 46.3863H144.255V43.8639H147.856C149.14 43.8639 149.776 43.3048 149.776 42.1953C149.776 41.0858 149.132 40.5484 147.856 40.5484C147.652 40.5484 147.42 40.5544 147.17 40.5609C145.177 40.6129 142 40.6957 142 38H147.927C149.634 38 150.823 38.2181 151.495 38.6544C152 38.9784 152.412 39.4368 152.688 39.9818C152.964 40.5269 153.093 41.1386 153.064 41.7533C153.09 42.4816 152.904 43.2013 152.531 43.8193C152.158 44.4374 151.615 44.9254 150.972 45.2205C152.386 45.8446 153.091 46.9136 153.089 48.4276L153.101 48.4016ZM195.197 41.9222C196.422 42.1457 197.526 42.8249 198.301 43.8321C199.077 44.8394 199.471 46.1055 199.409 47.3924C199.347 48.6794 198.834 49.8986 197.966 50.8211C197.098 51.7437 195.934 52.3059 194.694 52.4023C193.454 52.4987 192.222 52.1225 191.231 51.3445C190.24 50.5665 189.557 49.4402 189.31 48.1772C189.064 46.9142 189.271 45.6014 189.893 44.4856C190.515 43.3697 191.509 42.5275 192.688 42.1173C193.495 41.8367 194.358 41.7697 195.197 41.9222ZM164.755 49.4591C164.755 51.4354 163.466 52.4221 160.89 52.4192H154.649V41.8702H160.505C161.894 41.8702 162.868 42.0393 163.433 42.3686C163.845 42.5901 164.189 42.9285 164.423 43.3444C164.657 43.7603 164.772 44.2366 164.755 44.7177C164.762 45.2142 164.632 45.7026 164.38 46.125C164.128 46.5474 163.764 46.8862 163.332 47.1014C163.774 47.2933 164.149 47.6209 164.405 48.0402C164.662 48.4594 164.788 48.9501 164.767 49.4461L164.755 49.4591ZM161.877 45.0297C161.877 44.3666 161.429 44.0329 160.53 44.0329H157.338V46.0569H160.53C161.429 46.0569 161.877 45.7145 161.877 45.0297ZM161.877 49.2294C161.877 48.5403 161.433 48.1979 160.547 48.1979H157.338V50.2609H160.568C161.454 50.2609 161.898 49.9141 161.898 49.2294H161.877ZM188.011 52.4192H185.334V48.2369H181.469V52.4192H178.784V41.8702H181.469V45.9139H185.334V41.8702H188.011V52.4192ZM210.992 52.4192H207.378L203.262 47.3007V52.4192H200.576V41.8702H203.262V46.9367L207.591 41.8702H211.017L206.286 47.032L211.017 52.4192H210.992ZM195.055 44.3406C194.688 44.2209 194.302 44.1806 193.919 44.2224C193.536 44.2643 193.166 44.3872 192.832 44.5836C192.497 44.7801 192.205 45.0458 191.974 45.3642C191.742 45.6826 191.577 46.047 191.487 46.4346C191.398 46.8222 191.386 47.2247 191.454 47.6171C191.521 48.0096 191.665 48.3834 191.878 48.7155C192.09 49.0476 192.367 49.3308 192.69 49.5475C193.012 49.7641 193.375 49.9096 193.754 49.9748C194.17 50.0612 194.598 50.0509 195.009 49.9445C195.608 49.7878 196.141 49.4303 196.523 48.9275C196.906 48.4248 197.118 47.8051 197.125 47.1649C197.133 46.5246 196.936 45.8997 196.566 45.3873C196.195 44.875 195.671 44.5039 195.076 44.3319L195.055 44.3406ZM173.003 44.1803C173.639 44.5008 174.15 45.035 174.455 45.6958C174.759 46.3565 174.839 47.1047 174.68 47.8183C174.521 48.5318 174.134 49.1685 173.581 49.6244C173.028 50.0804 172.342 50.3286 171.635 50.3286C170.929 50.3286 170.243 50.0804 169.69 49.6244C169.137 49.1685 168.749 48.5318 168.591 47.8183C168.432 47.1047 168.511 46.3565 168.816 45.6958C169.12 45.035 169.632 44.5008 170.268 44.1803V41.3588C168.916 41.705 167.733 42.5521 166.942 43.7401C166.151 44.9281 165.808 46.3749 165.976 47.8074C166.144 49.2399 166.813 50.559 167.855 51.5158C168.898 52.4726 170.243 53.0008 171.635 53.0008C173.028 53.0008 174.373 52.4726 175.415 51.5158C176.458 50.559 177.127 49.2399 177.295 47.8074C177.463 46.3749 177.12 44.9281 176.329 43.7401C175.538 42.5521 174.355 41.705 173.003 41.3588V44.1803ZM170.683 48.6092C171.081 48.8797 171.566 48.9765 172.033 48.8784C172.385 48.8102 172.71 48.6348 172.967 48.3746C173.223 48.1144 173.398 47.7812 173.471 47.4173C173.543 47.0534 173.51 46.6753 173.375 46.3312C173.239 45.987 173.008 45.6924 172.711 45.4849C172.53 45.3583 172.329 45.2672 172.117 45.2162V41.1769H171.28V45.2162C170.815 45.3237 170.41 45.6169 170.153 46.0321C169.896 46.4474 169.807 46.951 169.906 47.4336C170.006 47.9161 170.285 48.3386 170.683 48.6092Z" fill="white"/>
<g filter="url(#filter1_d_1059_6986)">
<rect x="65" y="230.2" width="373.333" height="76.8" rx="9" fill="white"/>
</g>
<path d="M91.5166 259.267L92.2368 257.115H95.518L96.2425 259.267H97.93L94.8532 250.54H92.9015L89.8291 259.267H91.5166ZM92.6629 255.845L93.8433 252.329H93.9115L95.0919 255.845H92.6629Z" fill="#3C3A3E"/>
<path d="M99.1498 261.721C100.351 261.721 101.046 261.103 101.417 260.059L104.046 252.73L102.397 252.721L100.884 257.665H100.816L99.3074 252.721H97.6711L100.045 259.403L99.9126 259.757C99.627 260.503 99.1753 260.554 98.502 260.358L98.1441 261.559C98.3529 261.645 98.7279 261.721 99.1498 261.721Z" fill="#3C3A3E"/>
<path d="M104.01 261.167H105.527V259.267H109.81V261.167H111.301V257.997H110.287V252.721H105.557L105.369 255.014C105.246 256.48 105.084 257.567 104.53 257.997H104.01V261.167ZM106.115 257.997C106.528 257.388 106.682 256.399 106.793 255.014L106.895 253.966H108.812V257.997H106.115Z" fill="#3C3A3E"/>
<path d="M113.94 257.179V252.721H112.453V259.267H114.042L116.654 254.805V259.267H118.146V252.721H116.561L113.94 257.179Z" fill="#3C3A3E"/>
<path d="M122.585 259.395C124.503 259.395 125.722 258.044 125.722 256.02C125.722 253.991 124.503 252.636 122.585 252.636C120.668 252.636 119.449 253.991 119.449 256.02C119.449 258.044 120.668 259.395 122.585 259.395ZM122.594 258.159C121.533 258.159 121.013 257.213 121.013 256.015C121.013 254.818 121.533 253.859 122.594 253.859C123.638 253.859 124.158 254.818 124.158 256.015C124.158 257.213 123.638 258.159 122.594 258.159Z" fill="#3C3A3E"/>
<path d="M127.031 261.721H128.573V258.236H128.637C128.88 258.713 129.387 259.382 130.512 259.382C132.055 259.382 133.21 258.159 133.21 256.003C133.21 253.821 132.021 252.636 130.508 252.636C129.353 252.636 128.872 253.331 128.637 253.804H128.548V252.721H127.031V261.721ZM128.544 255.994C128.544 254.724 129.089 253.902 130.082 253.902C131.109 253.902 131.637 254.775 131.637 255.994C131.637 257.221 131.1 258.116 130.082 258.116C129.098 258.116 128.544 257.264 128.544 255.994Z" fill="#3C3A3E"/>
<path d="M137.386 259.395C139.304 259.395 140.522 258.044 140.522 256.02C140.522 253.991 139.304 252.636 137.386 252.636C135.468 252.636 134.25 253.991 134.25 256.02C134.25 258.044 135.468 259.395 137.386 259.395ZM137.394 258.159C136.333 258.159 135.813 257.213 135.813 256.015C135.813 254.818 136.333 253.859 137.394 253.859C138.438 253.859 138.958 254.818 138.958 256.015C138.958 257.213 138.438 258.159 137.394 258.159Z" fill="#3C3A3E"/>
<path d="M141.38 259.267H141.857C143.263 259.267 143.898 258.278 144.001 256.096L144.103 253.987H145.982V259.267H147.474V252.721H142.701L142.586 255.619C142.513 257.456 142.275 257.997 141.597 257.997H141.371L141.38 259.267Z" fill="#3C3A3E"/>
<path d="M150.514 257.179V252.721H149.027V259.267H150.616L153.229 254.805V259.267H154.72V252.721H153.135L150.514 257.179Z" fill="#3C3A3E"/>
<path d="M156.304 259.267H157.847V256.799H158.601L160.395 259.267H162.262L159.811 255.934L162.236 252.721H160.378L158.409 255.363H157.847V252.721H156.304V259.267Z" fill="#3C3A3E"/>
<path d="M164.623 257.179V252.721H163.136V259.267H164.726L167.338 254.805V259.267H168.829V252.721H167.244L164.623 257.179Z" fill="#3C3A3E"/>
<path d="M263.052 258.178H264.007V256.254H265.932V255.298H264.007V253.377H263.052V255.298H261.131V256.254H263.052V258.178Z" fill="#F4774C"/>
<path d="M273.7 254.492C273.451 252.937 272.233 252.028 270.696 252.028C268.813 252.028 267.425 253.438 267.425 255.764C267.425 258.09 268.806 259.499 270.696 259.499C272.294 259.499 273.462 258.498 273.7 257.06L272.592 257.056C272.404 257.987 271.622 258.498 270.703 258.498C269.456 258.498 268.515 257.543 268.515 255.764C268.515 253.999 269.453 253.029 270.706 253.029C271.633 253.029 272.411 253.551 272.592 254.492H273.7Z" fill="#F4774C"/>
<path d="M277.225 259.51C278.763 259.51 279.768 258.384 279.768 256.698C279.768 255 278.763 253.874 277.225 253.874C275.688 253.874 274.683 255 274.683 256.698C274.683 258.384 275.688 259.51 277.225 259.51ZM277.229 258.619C276.224 258.619 275.755 257.742 275.755 256.694C275.755 255.65 276.224 254.762 277.229 254.762C278.227 254.762 278.695 255.65 278.695 256.694C278.695 257.742 278.227 258.619 277.229 258.619Z" fill="#F4774C"/>
<path d="M280.63 257.958C280.662 258.91 281.553 259.51 282.764 259.51C284.007 259.51 284.905 258.885 284.905 257.884C284.905 257.173 284.454 256.648 283.822 256.605V256.548C284.394 256.385 284.788 256.002 284.788 255.401C284.788 254.507 284.021 253.874 282.807 253.874C281.642 253.874 280.786 254.496 280.765 255.412H281.837C281.859 255.004 282.281 254.72 282.86 254.72C283.432 254.72 283.766 255.018 283.766 255.462C283.766 255.877 283.467 256.183 282.867 256.183H281.979V257.017H282.867C283.471 257.017 283.858 257.351 283.858 257.845C283.858 258.402 283.364 258.654 282.753 258.654C282.153 258.654 281.749 258.406 281.717 257.958H280.63Z" fill="#F4774C"/>
<path d="M285.469 260.973H286.52V259.4H290.324V260.973H291.361V258.48H290.522V253.945H286.815L286.645 255.98C286.531 257.355 286.364 258.072 285.913 258.48H285.469V260.973ZM287.049 258.48C287.412 257.972 287.547 257.127 287.653 255.98L287.767 254.855H289.486V258.48H287.049Z" fill="#F4774C"/>
<path d="M293.986 259.521C294.888 259.521 295.396 259.063 295.598 258.654H295.641V259.4H296.677V255.778C296.677 254.19 295.427 253.874 294.561 253.874C293.574 253.874 292.665 254.272 292.31 255.266L293.307 255.494C293.464 255.107 293.861 254.734 294.575 254.734C295.261 254.734 295.612 255.092 295.612 255.71V255.735C295.612 256.122 295.214 256.115 294.234 256.229C293.201 256.35 292.143 256.619 292.143 257.859C292.143 258.931 292.949 259.521 293.986 259.521ZM294.217 258.668C293.616 258.668 293.183 258.399 293.183 257.873C293.183 257.305 293.687 257.102 294.302 257.021C294.646 256.975 295.463 256.882 295.616 256.73V257.433C295.616 258.079 295.101 258.668 294.217 258.668Z" fill="#F4774C"/>
<path d="M297.415 254.862H299.201V259.4H300.238V254.862H302.018V253.945H297.415V254.862Z" fill="#F4774C"/>
<path d="M304.181 255.82V253.945H303.141V259.4H305.523C306.859 259.4 307.604 258.626 307.604 257.6C307.604 256.552 306.859 255.82 305.523 255.82H304.181ZM304.181 256.737H305.523C306.134 256.737 306.571 257.106 306.571 257.632C306.571 258.129 306.134 258.484 305.523 258.484H304.181V256.737Z" fill="#F4774C"/>
<path d="M312.482 253.945H311.441V259.4H312.482V257.134H314.843V259.4H315.88V253.945H314.843V256.215H312.482V253.945Z" fill="#F4774C"/>
<path d="M319.598 259.51C321.136 259.51 322.141 258.384 322.141 256.698C322.141 255 321.136 253.874 319.598 253.874C318.061 253.874 317.056 255 317.056 256.698C317.056 258.384 318.061 259.51 319.598 259.51ZM319.602 258.619C318.597 258.619 318.128 257.742 318.128 256.694C318.128 255.65 318.597 254.762 319.602 254.762C320.6 254.762 321.068 255.65 321.068 256.694C321.068 257.742 320.6 258.619 319.602 258.619Z" fill="#F4774C"/>
<path d="M323.326 259.4H325.933C327.126 259.4 327.825 258.796 327.825 257.93C327.825 257.12 327.204 256.623 326.476 256.538C327.147 256.41 327.591 256.041 327.591 255.401C327.591 254.507 326.817 253.945 325.588 253.945H323.326V259.4ZM324.324 258.512V256.996H325.933C326.458 256.996 326.774 257.305 326.774 257.813C326.774 258.246 326.458 258.512 325.933 258.512H324.324ZM324.324 256.218V254.844H325.588C326.192 254.844 326.558 255.096 326.558 255.515C326.558 255.952 326.195 256.218 325.599 256.218H324.324Z" fill="#F4774C"/>
<path d="M330.031 255.82V253.945H328.99V259.4H331.373C332.708 259.4 333.454 258.626 333.454 257.6C333.454 256.552 332.708 255.82 331.373 255.82H330.031ZM334.228 259.4H335.29V253.945H334.228V259.4ZM330.031 256.737H331.373C331.984 256.737 332.421 257.106 332.421 257.632C332.421 258.129 331.984 258.484 331.373 258.484H330.031V256.737Z" fill="#F4774C"/>
<path d="M337.755 257.912V253.945H336.715V259.4H337.869L340.262 255.43V259.4H341.303V253.945H340.159L337.755 257.912ZM339.705 252.099C339.705 252.458 339.506 252.774 339.009 252.774C338.505 252.774 338.316 252.454 338.316 252.099H337.446C337.446 252.898 338.054 253.448 339.009 253.448C339.971 253.448 340.578 252.898 340.578 252.099H339.705Z" fill="#F4774C"/>
<path d="M345.377 261.445H346.439V258.551H346.503C346.694 258.899 347.085 259.507 348.079 259.507C349.4 259.507 350.359 258.448 350.359 256.683C350.359 254.915 349.386 253.874 348.069 253.874C347.057 253.874 346.691 254.492 346.503 254.83H346.414V253.945H345.377V261.445ZM346.417 256.673C346.417 255.533 346.915 254.776 347.841 254.776C348.804 254.776 349.287 255.59 349.287 256.673C349.287 257.766 348.79 258.601 347.841 258.601C346.929 258.601 346.417 257.82 346.417 256.673Z" fill="#F4774C"/>
<path d="M353.846 259.51C355.384 259.51 356.389 258.384 356.389 256.698C356.389 255 355.384 253.874 353.846 253.874C352.309 253.874 351.304 255 351.304 256.698C351.304 258.384 352.309 259.51 353.846 259.51ZM353.85 258.619C352.845 258.619 352.376 257.742 352.376 256.694C352.376 255.65 352.845 254.762 353.85 254.762C354.848 254.762 355.317 255.65 355.317 256.694C355.317 257.742 354.848 258.619 353.85 258.619Z" fill="#F4774C"/>
<path d="M357.144 259.4H357.485C358.675 259.4 359.112 258.519 359.197 256.715L359.282 254.862H361.065V259.4H362.105V253.945H358.299L358.203 256.36C358.135 258.043 357.943 258.48 357.336 258.48H357.141L357.144 259.4Z" fill="#F4774C"/>
<path d="M364.562 257.912V253.945H363.521V259.4H364.676L367.069 255.43V259.4H368.109V253.945H366.966L364.562 257.912Z" fill="#F4774C"/>
<path d="M369.537 259.4H370.599V257.22H371.288L372.932 259.4H374.249L372.112 256.598L374.225 253.945H372.911L371.11 256.232H370.599V253.945H369.537V259.4Z" fill="#F4774C"/>
<path fill-rule="evenodd" clip-rule="evenodd" d="M91.6685 268.6C90.4903 268.6 89.5352 269.555 89.5352 270.733C89.5352 271.912 90.4903 272.867 91.6685 272.867H222.868C224.047 272.867 225.002 271.912 225.002 270.733C225.002 269.555 224.047 268.6 222.868 268.6H91.6685ZM91.6685 283.534C90.4903 283.534 89.5352 284.489 89.5352 285.667C89.5352 286.845 90.4903 287.8 91.6685 287.8H222.868C224.047 287.8 225.002 286.845 225.002 285.667C225.002 284.489 224.047 283.534 222.868 283.534H91.6685ZM260.2 270.733C260.2 269.555 261.155 268.6 262.334 268.6H411.667C412.845 268.6 413.8 269.555 413.8 270.733C413.8 271.912 412.845 272.867 411.667 272.867H262.334C261.155 272.867 260.2 271.912 260.2 270.733ZM262.334 283.534C261.155 283.534 260.2 284.489 260.2 285.667C260.2 286.845 261.155 287.8 262.334 287.8H411.667C412.845 287.8 413.8 286.845 413.8 285.667C413.8 284.489 412.845 283.534 411.667 283.534H262.334Z" fill="#E6E6E6"/>
<path d="M122.877 302.434C122.256 301.889 121.563 301.383 120.889 300.912C120.44 300.599 120.012 300.413 119.547 300.246C119.684 299.803 119.34 299.248 118.792 299.449C115.451 300.642 112.332 302.685 109.814 305.238C107.529 307.528 105.251 310.876 105.534 314.284C105.798 317.655 107.458 320.924 109.147 323.808C110.989 326.979 113.12 329.903 115.344 332.824C117.321 335.46 119.189 338.155 121.202 340.773C123.293 343.533 125.64 346.249 128.631 348.156C130.801 349.58 133.171 350.157 135.657 350.163C136.84 350.36 138.002 350.43 139.234 350.37C141.534 350.291 143.714 349.814 145.828 348.865C146.776 348.449 147.646 347.889 148.44 347.186C148.782 346.863 149.032 346.544 149.263 346.189C149.398 346.44 149.877 346.46 150.019 346.2C150.143 345.994 150.228 345.717 150.297 345.496C150.483 345.581 150.716 345.317 150.547 345.177C150.472 345.124 150.453 345.089 150.378 345.036C150.461 343.882 149.988 342.565 149.541 341.557C148.935 340.079 147.927 338.725 146.868 337.537C146.755 337.413 146.622 337.253 146.509 337.129C146.205 336.737 145.918 336.29 145.578 335.918C144.705 334.815 143.704 333.735 142.525 332.935C141.806 332.119 141.159 331.264 140.567 330.334C140.299 329.923 139.726 329.814 139.347 330.156C138.228 331.126 137.317 332.309 136.517 333.524C136.196 333.973 135.895 334.459 135.613 334.98C135.523 335.075 135.45 335.114 135.36 335.208C135.234 335.322 135.255 335.449 135.277 335.576C134.718 335.321 134.089 335.197 133.514 334.997C132.602 334.608 131.761 334.089 130.974 333.494C129.119 332.133 127.568 330.377 126.162 328.543C123.693 325.338 121.467 321.541 120.746 317.491C121.732 317.932 122.838 317.985 123.923 317.912C125.651 317.816 127.371 317.355 128.918 316.571C129.063 316.493 129.17 316.343 129.166 316.161C128.992 312.695 127.954 309.277 126.135 306.324C125.235 304.82 124.118 303.525 122.877 302.434ZM127.936 313.955C127.976 314.118 128 314.337 128.041 314.5C127.985 314.484 127.985 314.484 127.929 314.467C127.944 314.321 127.94 314.138 127.936 313.955ZM119.486 317.15C119.432 317.225 119.436 317.408 119.511 317.46C119.68 317.6 119.864 317.594 120.027 317.46C120.027 317.46 120.027 317.46 120.063 317.441C120.125 319.303 120.812 321.106 121.534 322.799C122.507 325.05 123.791 327.18 125.274 329.158C126.719 331.064 128.345 332.872 130.258 334.341C131.064 334.971 131.98 335.543 132.947 335.949C133.505 336.203 134.156 336.455 134.783 336.489C134.697 336.766 134.592 337.007 134.507 337.284C134.438 337.505 134.719 337.679 134.881 337.545C135.653 336.715 136.257 335.744 136.898 334.845C137.044 334.767 137.189 334.689 137.279 334.594C137.465 334.679 137.649 334.673 137.887 334.592C138.197 334.471 138.486 333.531 138.738 333.303C138.828 333.208 138.918 333.114 139.063 333.036C138.937 333.15 139.192 333.013 139.136 332.997C139.209 332.958 139.356 332.971 139.393 332.951C139.485 332.948 139.577 332.945 139.688 332.978C139.78 332.975 139.855 333.027 139.91 333.043C140.077 333.092 140.263 333.177 140.43 333.227C140.914 333.429 142.001 334.246 142.452 334.65C143.434 335.695 144.116 336.685 145.079 337.694C146.14 338.973 146.886 340.624 147.639 342.115C147.87 342.546 148.084 343.032 148.279 343.482C147.132 342.48 145.949 341.497 144.855 340.42L144.819 340.439C145.955 341.771 147.218 342.988 148.516 344.186C148.536 344.222 148.536 344.222 148.555 344.258C148.593 344.33 148.576 344.385 148.615 344.457C148.617 344.548 148.638 344.676 148.677 344.747C148.296 344.998 147.896 345.213 147.496 345.427C147.366 345.359 147.218 345.345 147.087 345.277C146.64 345.055 146.193 344.832 145.727 344.574C144.794 344.058 143.912 343.376 143.448 342.423C143.409 342.351 143.245 342.393 143.303 342.501C143.619 343.44 144.336 344.165 145.123 344.759C145.592 345.109 146.114 345.383 146.636 345.658C146.711 345.71 146.822 345.743 146.916 345.831C146.189 346.221 145.406 346.595 144.657 346.858C142.894 346.279 141.407 344.905 139.98 343.729C139.886 343.641 139.723 343.775 139.818 343.863C141.061 345.045 142.345 346.389 143.853 347.105C143.049 347.352 142.206 347.527 141.38 347.647C140.71 347.359 140.094 346.996 139.478 346.634C137.982 345.68 136.63 344.557 135.062 343.642L135.025 343.661C136.564 344.87 137.993 346.136 139.621 347.25C139.902 347.423 140.201 347.632 140.518 347.786C139.985 347.841 139.452 347.895 138.9 347.914C138.68 347.94 138.44 347.93 138.201 347.92C136.023 346.916 134.114 344.844 132.334 343.534C132.259 343.482 132.169 343.577 132.244 343.629C133.804 344.964 135.338 346.775 137.133 347.938C136.138 347.917 135.18 347.877 134.239 347.781C133.866 347.612 133.511 347.386 133.192 347.141C132.2 346.426 131.277 345.581 130.248 344.885C130.173 344.833 130.103 344.963 130.178 345.015C131.284 345.854 132.174 346.902 133.317 347.722C133.169 347.708 133.021 347.695 132.818 347.666C131.913 347.55 130.95 347.328 130.06 347.066C129.17 346.804 128.332 346.376 127.422 346.078C127.311 346.045 127.202 346.104 127.204 346.195C126.077 345.229 125.039 344.168 124.093 343.104C121.784 340.46 119.856 337.566 117.746 334.77C115.712 332.025 113.64 329.3 111.731 326.442C109.887 323.18 107.95 319.92 106.964 316.336C106.501 314.689 106.465 313.137 106.961 311.531C107.491 309.813 108.614 308.24 109.816 306.901C111.987 304.488 114.794 302.473 117.821 301.218C117.84 301.254 117.896 301.271 117.915 301.307C119.09 301.924 120.267 302.633 121.264 303.531C122.468 304.641 123.42 305.979 124.244 307.339C124.897 308.468 125.537 309.835 125.956 311.227C125.789 311.178 125.642 311.165 125.458 311.171C125.402 311.155 125.404 311.246 125.46 311.263C125.644 311.256 125.811 311.306 125.978 311.355C126.22 312.242 126.406 313.112 126.427 314.025C125.552 313.617 124.675 313.117 124.035 312.536L123.999 312.555C124.585 313.211 125.298 313.753 126.044 314.185C126.175 314.253 126.305 314.322 126.436 314.39C126.445 314.756 126.417 315.14 126.353 315.544C126.115 315.626 125.841 315.726 125.604 315.808C124.378 315.356 123.227 314.171 122.634 313.242L122.598 313.261C123.021 314.051 123.957 315.444 125.056 316.009C124.618 316.152 124.235 316.311 123.796 316.454C123.724 316.493 123.632 316.496 123.559 316.536C123.039 316.352 122.515 315.987 122.102 315.653C121.351 315.04 120.636 314.406 119.849 313.812C119.774 313.76 119.648 313.874 119.742 313.962C120.57 314.719 121.308 315.571 122.19 316.253C122.359 316.394 122.583 316.551 122.789 316.672C122.312 316.743 121.796 316.742 121.278 316.65C121.276 316.559 121.274 316.468 121.163 316.435C120.104 316.033 119.31 315.164 118.574 314.404C118.441 314.244 118.189 314.472 118.321 314.632C118.963 315.304 119.624 316.012 120.41 316.515C120.318 316.519 120.266 316.685 120.341 316.737C120.491 316.842 120.621 316.91 120.752 316.979C120.399 316.845 120.082 316.691 119.783 316.482C119.652 316.413 119.509 316.583 119.622 316.707C119.736 316.831 119.886 316.935 119.98 317.023C119.794 316.938 119.592 317 119.486 317.15ZM127.671 315.993C127.771 315.569 127.835 315.165 127.863 314.78C127.919 314.797 127.955 314.777 128.011 314.793C128.056 315.139 128.081 315.449 128.126 315.794C128.017 315.853 127.872 315.931 127.671 315.993Z" fill="#FE7849"/>
<path d="M60.6609 50.3121C60.645 49.4329 60.5462 48.5244 60.433 47.6568C60.3576 47.0784 60.1974 46.6081 59.9958 46.1231C60.4427 45.913 60.6321 45.2442 60.0809 44.9577C56.7465 43.1832 52.9019 42.1943 49.0876 42.0437C45.6481 41.8873 41.3795 42.4959 38.9011 45.1617C36.4371 47.7865 35.0556 51.4371 33.9967 54.8337C32.8224 58.5574 32.0498 62.3309 31.3457 66.1746C30.6885 69.621 29.9071 73.0235 29.2914 76.4846C28.618 80.1092 28.1643 83.9033 28.808 87.6249C29.243 90.3532 30.4889 92.6321 32.2665 94.5928C32.9598 95.6651 33.7378 96.6294 34.669 97.5557C36.38 99.309 38.3182 100.683 40.5808 101.665C41.5878 102.112 42.6526 102.396 43.775 102.517C44.2741 102.555 44.7047 102.523 45.1498 102.45C45.0488 102.736 45.3765 103.128 45.6829 103.052C45.9333 103.002 46.2127 102.871 46.4361 102.766C46.5027 102.973 46.8775 102.968 46.8667 102.734C46.8542 102.638 46.8686 102.597 46.856 102.5C47.8239 101.738 48.5216 100.421 48.9941 99.3467C49.7226 97.8106 50.0656 96.0465 50.241 94.3612C50.2573 94.183 50.288 93.9639 50.3043 93.7858C50.3945 93.2659 50.5407 92.7197 50.5895 92.1852C50.8315 90.7073 50.9636 89.1447 50.748 87.6432C50.8745 86.4924 51.084 85.3709 51.3907 84.2377C51.5224 83.7324 51.1965 83.2036 50.656 83.1508C49.0903 82.9661 47.5065 83.0968 45.9767 83.3386C45.3929 83.4084 44.7947 83.5192 44.1821 83.6708C44.0433 83.6678 43.9605 83.6386 43.8217 83.6356C43.6416 83.618 43.5568 83.726 43.4721 83.8341C43.2723 83.2118 42.9194 82.6275 42.6638 82.0315C42.3164 81.0353 42.1222 80.0012 42.0253 78.9554C41.7668 76.5193 42.0362 74.0395 42.4713 71.6182C43.2224 67.3773 44.6151 62.9031 47.2848 59.4312C47.6447 60.5238 48.3957 61.4326 49.2314 62.2333C50.5462 63.5249 52.1422 64.5479 53.868 65.203C54.0338 65.2615 54.2284 65.2382 54.369 65.1039C56.9717 62.482 58.917 59.2143 59.9363 55.6658C60.4739 53.8785 60.6926 52.0705 60.6609 50.3121ZM55.2222 62.5543C55.123 62.7032 54.968 62.8784 54.8688 63.0273C54.8418 62.9718 54.8418 62.9718 54.8148 62.9163C54.941 62.8229 55.0816 62.6886 55.2222 62.5543ZM46.6492 58.1954C46.5519 58.207 46.4113 58.3413 46.4239 58.4377C46.4346 58.6714 46.5715 58.8117 46.7931 58.8439C46.7931 58.8439 46.7931 58.8439 46.8345 58.8585C45.4142 60.2424 44.4874 62.0764 43.6724 63.8578C42.5994 66.2379 41.8436 68.7759 41.3507 71.3607C40.8867 73.8637 40.6299 76.4399 40.8452 78.9987C40.9276 80.0854 41.1344 81.2159 41.5088 82.2676C41.7085 82.8898 41.9767 83.5822 42.4 84.0994C42.1206 84.2307 41.8557 84.3211 41.5764 84.4525C41.353 84.5575 41.4177 84.9022 41.6393 84.9344C42.8465 84.9467 44.0429 84.7252 45.2105 84.5855C45.3763 84.644 45.542 84.7025 45.6807 84.7055C45.7473 84.9129 45.8842 85.0531 46.1184 85.1818C46.4354 85.3396 47.3828 84.8923 47.7431 84.9275C47.8819 84.9305 48.0206 84.9335 48.1863 84.992C48.0062 84.9744 48.2962 85.0767 48.2692 85.0212C48.3521 85.0505 48.4475 85.1761 48.489 85.1907C48.5574 85.2609 48.6259 85.331 48.6799 85.442C48.7483 85.5122 48.7609 85.6086 48.7879 85.6641C48.8689 85.8306 48.9355 86.038 49.0165 86.2045C49.2037 86.7304 49.3405 88.1709 49.3457 88.8165C49.228 90.3382 48.9377 91.5846 48.8344 93.0655C48.5887 94.818 47.824 96.5888 47.1909 98.2505C47.0178 98.7412 46.7888 99.2581 46.5742 99.7341C46.5406 98.113 46.4655 96.4772 46.5292 94.8444L46.4877 94.8298C46.2546 96.6787 46.2017 98.5451 46.1901 100.426C46.1757 100.467 46.1757 100.467 46.1613 100.508C46.1324 100.59 46.0766 100.616 46.0477 100.698C45.9774 100.765 45.8927 100.873 45.8638 100.955C45.3936 100.835 44.9378 100.674 44.482 100.513C44.4425 100.361 44.347 100.236 44.3074 100.084C44.1617 99.5724 44.0159 99.0612 43.8846 98.5091C43.622 97.4048 43.5269 96.2218 43.9435 95.1734C43.9724 95.0916 43.8211 94.9922 43.7778 95.1149C43.2657 96.0377 43.2095 97.1213 43.3064 98.1671C43.3674 98.7863 43.5257 99.3939 43.6841 100.002C43.6966 100.098 43.7506 100.209 43.7488 100.346C42.9201 100.054 42.0644 99.7058 41.3204 99.3054C40.5121 97.5028 40.5273 95.3471 40.429 93.3813C40.4308 93.244 40.2092 93.2118 40.2074 93.3491C40.1688 95.1746 40.0312 97.1491 40.5494 98.8493C39.7784 98.3933 39.0363 97.8556 38.3501 97.2915C38.0963 96.5582 37.9398 95.8133 37.7833 95.0684C37.4615 93.2077 37.3757 91.3382 36.9711 89.4482L36.9296 89.4336C37.082 91.5104 37.1101 93.5434 37.4012 95.6232C37.4659 95.9679 37.5162 96.3535 37.6224 96.7129C37.1973 96.3329 36.7722 95.953 36.3616 95.5322C36.1833 95.3774 36.0194 95.1816 35.8555 94.9858C35.0834 92.5523 35.3458 89.5643 35.0999 87.2245C35.0873 87.1281 34.9485 87.1251 34.9611 87.2215C35.0288 89.4064 34.7035 91.9125 35.0756 94.1588C34.3787 93.3611 33.7231 92.578 33.1234 91.7686C32.9902 91.3538 32.9129 90.9127 32.8771 90.4862C32.728 89.1922 32.7321 87.8603 32.5416 86.5516C32.529 86.4552 32.3759 86.4931 32.3884 86.5895C32.5212 88.0617 32.3351 89.5133 32.5093 91.0002C32.4139 90.8745 32.3184 90.7489 32.196 90.5677C31.6377 89.773 31.1228 88.8556 30.6907 87.9674C30.2586 87.0793 29.9941 86.1123 29.5764 85.1833C29.5224 85.0723 29.3981 85.0284 29.3278 85.0956C29.2798 83.5153 29.3704 81.938 29.5296 80.4309C29.9544 76.7186 30.8494 73.1262 31.5372 69.4607C32.2376 65.8916 32.8966 62.3079 33.7772 58.7564C35.0219 54.9656 36.1981 51.1046 38.311 47.7581C39.2755 46.2134 40.4705 45.0718 42.0906 44.3102C43.8224 43.496 45.8656 43.2515 47.7809 43.2377C51.2367 43.2159 54.8345 43.9798 57.9925 45.4621C57.978 45.503 58.005 45.5585 57.9906 45.5994C58.3469 46.9666 58.6328 48.4009 58.6413 49.8292C58.6316 51.573 58.2616 53.2816 57.7817 54.9054C57.3614 56.2285 56.7447 57.712 55.9496 59.0407C55.8686 58.8742 55.7731 58.7485 55.6362 58.6083C55.6092 58.5528 55.5389 58.6199 55.5659 58.6754C55.7028 58.8157 55.7838 58.9822 55.8649 59.1487C55.3402 59.9751 54.7886 60.746 54.0857 61.4175C53.7797 60.436 53.5441 59.3872 53.5426 58.4671L53.5012 58.4525C53.4054 59.3843 53.4897 60.3336 53.6858 61.2304C53.7253 61.3823 53.7649 61.5342 53.8045 61.6861C53.5233 61.9547 53.2007 62.2087 52.8367 62.4481C52.6025 62.3195 52.3269 62.1762 52.0927 62.0476C51.5689 60.7592 51.6758 59.0038 51.9825 57.8706L51.9411 57.856C51.6237 58.7555 51.1978 60.4903 51.5415 61.7611C51.1145 61.5185 50.7146 61.3314 50.2877 61.0887C50.2048 61.0595 50.1364 60.9894 50.0535 60.9601C49.8249 60.4196 49.7369 59.7449 49.7028 59.1811C49.6474 58.15 49.6333 57.1335 49.5364 56.0877C49.5238 55.9913 49.3437 55.9737 49.3418 56.111C49.3396 57.3057 49.1986 58.4974 49.2936 59.6804C49.3044 59.9141 49.3421 60.2033 49.3943 60.4516C48.9962 60.1272 48.627 59.721 48.3281 59.2477C48.3984 59.1805 48.4686 59.1134 48.4146 59.0024C47.9718 57.8805 48.0858 56.6333 48.1565 55.5088C48.1872 55.2897 47.8269 55.2545 47.7962 55.4736C47.7273 56.4608 47.6441 57.489 47.8112 58.4676C47.7428 58.3974 47.5752 58.4762 47.5878 58.5726C47.6129 58.7654 47.6525 58.9173 47.6921 59.0692C47.5445 58.6953 47.4383 58.336 47.388 57.9504C47.3484 57.7985 47.1124 57.8071 47.0961 57.9853C47.0798 58.1635 47.105 58.3563 47.1031 58.4935C47.0366 58.2861 46.8438 58.1721 46.6492 58.1954ZM53.4289 63.8066C53.8344 63.5818 54.1985 63.3425 54.5211 63.0885C54.5481 63.144 54.5895 63.1586 54.6165 63.2141C54.3768 63.4974 54.1515 63.7397 53.9117 64.0229C53.7874 63.9791 53.6217 63.9206 53.4289 63.8066Z" fill="#FE7849"/>
<g filter="url(#filter2_d_1059_6986)">
<rect x="65" y="131" width="373.333" height="78.9333" rx="9" fill="white"/>
</g>
<path d="M121.267 183.699C123.372 183.704 124.629 182.042 124.629 179.178C124.629 176.331 123.364 174.687 121.267 174.687C119.17 174.687 117.909 176.327 117.905 179.178C117.905 182.037 119.162 183.699 121.267 183.699ZM121.267 182.366C120.18 182.366 119.499 181.275 119.503 179.178C119.507 177.098 120.185 176.003 121.267 176.003C122.354 176.003 123.031 177.098 123.035 179.178C123.035 181.275 122.358 182.366 121.267 182.366Z" fill="#3C3A3E"/>
<path d="M129.271 183.699C131.376 183.704 132.633 182.042 132.633 179.178C132.633 176.331 131.367 174.687 129.271 174.687C127.174 174.687 125.913 176.327 125.909 179.178C125.909 182.037 127.166 183.699 129.271 183.699ZM129.271 182.366C128.184 182.366 127.502 181.275 127.507 179.178C127.511 177.098 128.189 176.003 129.271 176.003C130.358 176.003 131.035 177.098 131.039 179.178C131.039 181.275 130.362 182.366 129.271 182.366Z" fill="#3C3A3E"/>
<path d="M135.016 182.485C135.519 182.485 135.95 182.067 135.954 181.547C135.95 181.036 135.519 180.618 135.016 180.618C134.496 180.618 134.075 181.036 134.079 181.547C134.075 182.067 134.496 182.485 135.016 182.485ZM135.016 178.155C135.519 178.155 135.95 177.738 135.954 177.218C135.95 176.706 135.519 176.289 135.016 176.289C134.496 176.289 134.075 176.706 134.079 177.218C134.075 177.738 134.496 178.155 135.016 178.155Z" fill="#3C3A3E"/>
<path d="M140.755 183.699C142.86 183.704 144.117 182.042 144.117 179.178C144.117 176.331 142.852 174.687 140.755 174.687C138.659 174.687 137.397 176.327 137.393 179.178C137.393 182.037 138.65 183.699 140.755 183.699ZM140.755 182.366C139.669 182.366 138.987 181.275 138.991 179.178C138.995 177.098 139.673 176.003 140.755 176.003C141.842 176.003 142.519 177.098 142.524 179.178C142.524 181.275 141.846 182.366 140.755 182.366Z" fill="#3C3A3E"/>
<path d="M148.759 183.699C150.864 183.704 152.121 182.042 152.121 179.178C152.121 176.331 150.856 174.687 148.759 174.687C146.663 174.687 145.401 176.327 145.397 179.178C145.397 182.037 146.654 183.699 148.759 183.699ZM148.759 182.366C147.673 182.366 146.991 181.275 146.995 179.178C146.999 177.098 147.677 176.003 148.759 176.003C149.846 176.003 150.523 177.098 150.528 179.178C150.528 181.275 149.85 182.366 148.759 182.366Z" fill="#3C3A3E"/>
<path d="M360.202 183.699C362.307 183.704 363.564 182.042 363.564 179.178C363.564 176.331 362.298 174.687 360.202 174.687C358.105 174.687 356.844 176.327 356.839 179.178C356.839 182.037 358.096 183.699 360.202 183.699ZM360.202 182.366C359.115 182.366 358.433 181.275 358.437 179.178C358.442 177.098 359.119 176.003 360.202 176.003C361.288 176.003 361.966 177.098 361.97 179.178C361.97 181.275 361.292 182.366 360.202 182.366Z" fill="#3C3A3E"/>
<path d="M368.205 183.699C370.311 183.704 371.568 182.042 371.568 179.178C371.568 176.331 370.302 174.687 368.205 174.687C366.109 174.687 364.848 176.327 364.843 179.178C364.843 182.037 366.1 183.699 368.205 183.699ZM368.205 182.366C367.119 182.366 366.437 181.275 366.441 179.178C366.446 177.098 367.123 176.003 368.205 176.003C369.292 176.003 369.97 177.098 369.974 179.178C369.974 181.275 369.296 182.366 368.205 182.366Z" fill="#3C3A3E"/>
<path d="M373.951 182.485C374.454 182.485 374.884 182.067 374.888 181.547C374.884 181.036 374.454 180.618 373.951 180.618C373.431 180.618 373.009 181.036 373.013 181.547C373.009 182.067 373.431 182.485 373.951 182.485ZM373.951 178.155C374.454 178.155 374.884 177.738 374.888 177.218C374.884 176.706 374.454 176.289 373.951 176.289C373.431 176.289 373.009 176.706 373.013 177.218C373.009 177.738 373.431 178.155 373.951 178.155Z" fill="#3C3A3E"/>
<path d="M380.014 174.806H378.509L376.34 176.199V177.648L378.382 176.344H378.433V183.533H380.014V174.806Z" fill="#3C3A3E"/>
<path d="M382.549 183.533H384.19L387.897 176.157V174.806H381.953V176.127H386.261V176.187L382.549 183.533Z" fill="#3C3A3E"/>
<rect x="157.8" y="152.333" width="70.4" height="4.26667" rx="2.13333" fill="#E6E6E6"/>
<path fill-rule="evenodd" clip-rule="evenodd" d="M167.4 191.8L167.4 168.333H165.267V191.8H167.4ZM171.665 187.533L171.665 172.6H169.532L169.532 187.533L171.665 187.533ZM174.868 180.816V189.667H172.735L172.735 170.467H174.868V179.318H178.066V180.816H174.868ZM189.802 190.733V180.816H194.066V179.318H189.802V169.4L187.668 169.4V190.733H189.802ZM221.802 174.734V185.4L219.668 185.4V181.315L216.467 181.315V182.314H213.267V177.82H216.467V178.819H219.668V174.734H221.802ZM181.267 176.322L181.267 183.812H178.067V176.322H181.267ZM185.532 184.81V175.324H182.332L182.332 184.81H185.532ZM205.801 179.318V176.322H209.001V183.812H205.801V180.816H202.601V179.318H205.801ZM197.267 178.819V181.315L194.067 181.315L194.067 178.819H197.267ZM247.4 181.497V179H244.2V179.817H241.001V178.819H229.268V181.315L241.001 181.315V180.316H244.2V181.497H247.4ZM201.532 177.321V182.813L198.332 182.813V177.321H201.532ZM213.267 177.82V182.314H210.067V177.82H213.267ZM229.267 180.816V179.318H225V180.816H229.267ZM250.6 191.8V168.334H248.466V191.8H250.6ZM254.865 191.8V168.334H252.731V191.8H254.865ZM258.068 180.816V191.8H255.935V168.334H258.068V179.318H261.266V180.816H258.068ZM264.466 181.497V183.812H261.266V176.322H264.466V179H265.532V175.324H268.732V179.817H270.864V178.819H281.532V177.321H284.732V179.318H286.865V180.816H284.732V182.813L281.532 182.813V181.315L280.466 181.315H277.266L270.864 181.315V180.316H268.732V184.81H265.532V181.497H264.466ZM292.201 178.819V176.322H292.197V174.734H290.063V176.322H289.001V183.812H290.063V185.4L292.197 185.4V183.812H292.201V181.315H293.266V182.314H296.466L296.467 182.314L298.599 182.314H301.799V181.315L302.864 181.315V183.812H306.064V180.816L308.2 180.816H310.332V182.813H313.532V181.315L314.599 181.315H317.799L322.063 181.315V190.734H324.197V181.315H324.201V180.316H326.332V184.81H329.532V175.324H326.332V179.817H324.201V178.819H324.197V169.4L322.063 169.4V178.819H313.532V177.321H310.332V179.318L309.264 179.318H306.064V176.322H302.864V178.819H301.799V177.82L299.667 177.82H298.599H296.467H295.399L293.266 177.82V178.819H292.201ZM344.465 168.334V191.8H346.599V168.334L344.465 168.334ZM340.2 172.6V187.533L342.334 187.533V172.6H340.2ZM336.997 189.667V180.816H333.799V179.318H336.997V170.467H339.13V189.667H336.997ZM330.599 183.812V176.322H333.799V183.812H330.599Z" fill="#CBCBCB"/>
<path d="M94.8561 150.249H90.2197V156.067H91.2652V151.124H93.8106V156.067H94.8561V150.249Z" fill="#858585"/>
<path d="M96.0713 157.703H97.0997V155.379H97.1423C97.3042 155.697 97.6423 156.143 98.3923 156.143C99.4207 156.143 100.191 155.328 100.191 153.891C100.191 152.436 99.398 151.646 98.3895 151.646C97.6196 151.646 97.2986 152.109 97.1423 152.425H97.0827V151.703H96.0713V157.703ZM97.0798 153.885C97.0798 153.038 97.4434 152.49 98.1054 152.49C98.79 152.49 99.1423 153.072 99.1423 153.885C99.1423 154.703 98.7844 155.3 98.1054 155.3C97.4491 155.3 97.0798 154.731 97.0798 153.885Z" fill="#858585"/>
<path d="M102.063 154.675V151.703H101.071V156.067H102.131L103.872 153.092V156.067H104.867V151.703H103.81L102.063 154.675Z" fill="#858585"/>
<path d="M105.923 156.067H108.036C109.059 156.067 109.644 155.604 109.644 154.882C109.644 154.271 109.17 153.845 108.485 153.785C109.068 153.678 109.431 153.368 109.431 152.876C109.431 152.141 108.786 151.703 107.755 151.703H105.923V156.067ZM106.886 155.257V154.175H108.036C108.414 154.175 108.644 154.393 108.644 154.754C108.644 155.067 108.414 155.257 108.036 155.257H106.886ZM106.886 153.51V152.527H107.755C108.184 152.527 108.446 152.709 108.446 153.007C108.446 153.32 108.193 153.51 107.775 153.51H106.886Z" fill="#858585"/>
<path d="M112.425 156.152C113.442 156.152 114.141 155.655 114.323 154.896L113.362 154.788C113.223 155.158 112.882 155.351 112.439 155.351C111.774 155.351 111.334 154.913 111.326 154.166H114.365V153.851C114.365 152.32 113.445 151.646 112.371 151.646C111.121 151.646 110.306 152.564 110.306 153.91C110.306 155.28 111.11 156.152 112.425 156.152ZM111.328 153.473C111.36 152.916 111.772 152.447 112.385 152.447C112.976 152.447 113.374 152.879 113.38 153.473H111.328Z" fill="#858585"/>
<path d="M114.872 152.547H116.284V156.067H117.278V152.547H118.69V151.703H114.872V152.547Z" fill="#858585"/>
<path d="M121.233 156.152C122.329 156.152 123.028 155.501 123.102 154.575H122.119C122.031 155.044 121.693 155.314 121.241 155.314C120.599 155.314 120.184 154.777 120.184 153.885C120.184 153.004 120.608 152.476 121.241 152.476C121.735 152.476 122.039 152.794 122.119 153.214H123.102C123.031 152.268 122.292 151.646 121.227 151.646C119.948 151.646 119.142 152.57 119.142 153.902C119.142 155.223 119.929 156.152 121.233 156.152Z" fill="#858585"/>
<path d="M123.637 152.547H125.049V156.067H126.044V152.547H127.456V151.703H123.637V152.547Z" fill="#858585"/>
<path d="M128.274 156.067H130.388C131.411 156.067 131.996 155.604 131.996 154.882C131.996 154.271 131.522 153.845 130.837 153.785C131.419 153.678 131.783 153.368 131.783 152.876C131.783 152.141 131.138 151.703 130.107 151.703H128.274V156.067ZM129.237 155.257V154.175H130.388C130.766 154.175 130.996 154.393 130.996 154.754C130.996 155.067 130.766 155.257 130.388 155.257H129.237ZM129.237 153.51V152.527H130.107C130.536 152.527 130.797 152.709 130.797 153.007C130.797 153.32 130.544 153.51 130.127 153.51H129.237Z" fill="#858585"/>
<path d="M133.836 154.675V151.703H132.845V156.067H133.904L135.646 153.092V156.067H136.64V151.703H135.583L133.836 154.675Z" fill="#858585"/>
<path d="M139.628 156.152C140.645 156.152 141.344 155.655 141.526 154.896L140.566 154.788C140.426 155.158 140.085 155.351 139.642 155.351C138.978 155.351 138.537 154.913 138.529 154.166H141.568V153.851C141.568 152.32 140.648 151.646 139.574 151.646C138.324 151.646 137.509 152.564 137.509 153.91C137.509 155.28 138.313 156.152 139.628 156.152ZM138.532 153.473C138.563 152.916 138.975 152.447 139.588 152.447C140.179 152.447 140.577 152.879 140.583 153.473H138.532Z" fill="#858585"/>
<path d="M143.072 156.129C143.407 156.129 143.694 155.851 143.697 155.504C143.694 155.163 143.407 154.885 143.072 154.885C142.725 154.885 142.444 155.163 142.447 155.504C142.444 155.851 142.725 156.129 143.072 156.129ZM143.072 153.013C143.407 153.013 143.694 152.734 143.697 152.388C143.694 152.047 143.407 151.768 143.072 151.768C142.725 151.768 142.444 152.047 142.447 152.388C142.444 152.734 142.725 153.013 143.072 153.013Z" fill="#858585"/>
<circle cx="98.6018" cy="180.6" r="9.06667" fill="#F4774C"/>
<path d="M102.832 180.6L96.4854 184.264L96.4854 176.936L102.832 180.6Z" fill="white"/>
<path d="M401 184.733H413.8V186.467H401V184.733ZM409.755 173.667H405.045V178.964H402.101L407.4 183.899L412.699 178.964H409.755V173.667Z" fill="#F4774C"/>
<path d="M153.882 133.888L155.275 136.898L155.971 138.403L156.168 138.762C156.156 138.843 156.238 138.855 156.226 138.936L156.296 139.028L156.47 139.549L156.829 140.51C156.829 140.51 157.456 141.923 158.082 143.335C158.628 144.736 159.161 146.218 159.103 146.044C160.02 148.324 160.96 149.864 160.299 145.802C160.217 145.212 160.067 144.529 159.997 143.858C159.962 143.522 159.928 143.186 159.812 142.839C159.696 142.492 159.649 142.237 159.522 141.971C159.185 140.848 158.976 139.991 158.976 139.991L158.547 138.938L158.373 138.417L158.245 138.151L158.176 138.058C158.176 138.058 158.118 137.884 158.048 137.792L157.851 137.433L156.389 134.33C156.134 133.798 155.96 133.277 155.623 132.732L154.765 131.204L153.128 128.159C152.525 127.163 151.91 126.248 151.307 125.253C150.344 123.296 148.94 121.524 147.559 119.59C146.944 118.676 146.155 117.818 145.459 116.892L143.266 114.263C142.477 113.406 141.687 112.549 140.98 111.703L139.831 110.464L139.262 109.804L138.682 109.225L136.118 106.873L134.876 105.703L133.541 104.603C126.695 98.5787 119.059 93.4334 110.867 89.2829L110.089 88.9235L109.312 88.564L107.757 87.8451L104.647 86.4072L101.42 85.2007C100.318 84.7946 99.2968 84.4002 98.1944 83.9942C96.0591 83.2747 93.831 82.6246 91.5913 82.0555C89.3515 81.4863 87.077 81.1602 84.6979 80.9844C83.5374 80.9833 82.2144 80.959 81.0539 80.9579C80.9727 80.9462 80.8798 81.0156 80.8798 81.0156C80.7986 81.0039 80.729 80.9113 80.6477 80.8996C80.5781 80.807 80.4273 80.7027 80.4273 80.7027L81.1236 80.4719C82.1681 80.1257 83.2126 79.7795 84.3267 79.526C84.9302 79.3645 85.4408 79.2724 86.0443 79.1109C86.0443 79.1109 87.5182 78.661 89.0617 78.3037C90.524 77.9347 91.9979 77.4848 91.9167 77.4731C94.3538 76.6653 95.8742 75.8914 91.7659 76.2116C90.5938 76.2915 89.0851 76.4058 87.9014 76.5667C86.7177 76.7277 85.8705 76.8542 85.8705 76.8542C85.1858 77.004 84.501 77.1538 83.8047 77.3846C82.6094 77.6265 81.4836 77.961 80.4391 78.3072L79.6499 78.6074C79.4759 78.6651 79.2205 78.7111 79.0348 78.8498L78.3385 79.0806C77.4565 79.4501 76.5745 79.8196 75.6808 80.2701L75.4139 80.3972C75.4139 80.3972 75.321 80.4665 75.2398 80.4549L75.3907 80.5592L76.0869 80.907L77.5491 81.6953C78.0133 81.9271 78.5587 82.1707 78.93 82.4719L79.3014 82.7731C79.371 82.8658 79.5335 82.8891 79.6031 82.9817C81.1 84.1056 82.3068 85.5186 83.5832 87.0242C84.3607 87.9622 85.2193 88.912 86.1593 89.8733C86.2405 89.885 86.3217 89.8966 86.3217 89.8966C87.8768 90.037 87.8769 88.8797 87.7841 88.3704C87.7957 88.2895 87.7957 88.2895 87.7261 88.1968C86.8558 87.3281 86.0668 86.471 85.2893 85.5329C84.6511 84.7801 84.0129 84.0273 83.2935 83.2629C83.7113 83.2401 84.1174 83.2983 84.6165 83.2872C86.7518 83.4281 88.9335 83.8236 91.0224 84.2884C93.1113 84.7532 95.2581 85.3917 97.3122 86.0995C98.345 86.4129 99.3662 86.8074 100.387 87.2018L103.451 88.385C104.472 88.7794 105.482 89.2548 106.491 89.7302C107.501 90.2056 108.522 90.6 109.532 91.0754C117.423 95.0173 124.768 99.873 131.406 105.619L132.659 106.708C133.1 107.102 133.472 107.403 133.913 107.797L136.315 110.125L137.475 111.284C137.835 111.666 138.194 112.048 138.624 112.523L140.852 114.909C141.652 115.685 142.267 116.6 142.975 117.445L145.099 119.981L147.036 122.656C147.651 123.571 148.359 124.417 148.893 125.32C150.03 127.219 151.272 128.967 152.316 130.936L153.882 133.888Z" fill="#FE7849"/>
<path d="M46.7968 30.251C43.4112 30.1133 40.112 30.4491 36.8264 31.1252C35.0176 31.5379 33.2817 32.0841 31.5512 32.7663C30.0879 33.3697 28.155 34.06 27.1238 35.3277C26.8026 35.7493 27.1672 36.4162 27.7017 36.2586C29.3054 35.7859 30.8144 34.6355 32.3424 33.9613C33.9379 33.2845 35.5388 32.7437 37.2127 32.3363C40.3579 31.5296 43.6543 31.1257 46.886 30.7926C47.1559 30.7818 47.137 30.3056 46.7968 30.251Z" fill="#FE7849"/>
<path d="M54.0842 26.4864C52.0482 24.5914 49.054 24.0974 46.3406 23.8647C42.7444 23.531 39.1752 23.8776 35.6899 24.6297C32.2045 25.3819 28.8028 26.5395 25.6956 28.2987C24.3728 29.0328 23.0581 29.9711 21.9513 31.0373C20.7771 32.1062 20.3398 33.0095 20.0593 34.4516C20.008 34.8625 20.4211 35.0505 20.7478 34.7649C21.1392 34.4086 21.6008 34.1177 21.9922 33.7613C22.5159 33.3316 22.8992 32.7712 23.3527 32.2762C24.3272 31.2833 25.5151 30.5546 26.7029 29.8259C29.5429 28.1455 32.6772 27.0666 35.8899 26.2572C41.8482 24.7933 48.0632 24.682 53.8898 26.6986C54.1004 26.8946 54.2246 26.6171 54.0842 26.4864Z" fill="#FE7849"/>
<path d="M11.4264 33.2966C13.1487 32.4103 14.7334 31.4613 16.1668 30.1095C17.4058 28.9699 18.572 27.6969 19.811 26.5572C22.3512 24.1392 25.1885 22.3907 28.528 21.3718C30.7985 20.6681 33.1527 20.3699 35.4313 19.8703C37.8449 19.3653 40.2612 18.9283 42.6829 18.6274C47.529 18.0936 52.4806 18.5097 56.8358 20.9256C57.2489 21.1136 57.6322 20.5531 57.2839 20.2945C53.5036 17.0379 48.606 16.279 43.749 16.5407C41.2517 16.6401 38.7679 17.0798 36.2841 17.5195C33.8003 17.9591 31.2463 18.3334 28.8354 18.9065C20.9981 20.7178 15.9017 26.8492 10.6514 32.5098C10.3977 32.9288 10.962 33.5196 11.4264 33.2966Z" fill="#FE7849"/>
<path d="M154.05 315.893C157.552 316.197 160.913 316.475 164.27 316.765C164.94 316.82 165.413 316.859 166.241 317.066C166.858 317.213 168.159 317.553 167.862 318.179C167.562 318.67 167.287 318.981 166.113 318.998C163.082 319.028 160.07 318.607 157.079 318.206C154.439 317.851 152.431 317.539 150.113 317.086C149.031 316.875 148.754 316.235 149.152 315.302C149.509 314.465 149.86 313.6 150.368 312.846C152.185 310.117 154.067 307.446 155.93 304.744C156.16 304.406 156.318 304.13 156.649 303.767C157.054 303.332 157.324 302.993 157.817 303.293C158.289 303.574 158.054 304.311 157.862 304.659C156.321 307.599 153.041 313.612 152.939 313.972C154.863 313.39 156.657 312.891 158.424 312.291C170.716 308.054 182.599 302.98 193.123 295.151C201.453 288.954 208.902 281.88 215.248 273.664C215.626 273.181 216.051 272.725 216.468 272.293C217.025 271.7 217.42 271.49 217.748 271.757C218.295 272.34 218.021 272.838 217.836 273.255C217.479 274.092 216.939 274.864 216.418 275.614C209.35 285.582 200.341 293.516 190.247 300.301C179.887 307.265 168.391 311.631 156.481 315.038C155.846 315.194 154.312 315.725 154.05 315.893Z" fill="#F4774C"/>
</g>
<defs>
<filter id="filter0_d_1059_6986" x="96" y="-3" width="522" height="333" filterUnits="userSpaceOnUse" color-interpolation-filters="sRGB">
<feFlood flood-opacity="0" result="BackgroundImageFix"/>
<feColorMatrix in="SourceAlpha" type="matrix" values="0 0 0 0 0 0 0 0 0 0 0 0 0 0 0 0 0 0 127 0" result="hardAlpha"/>
<feOffset/>
<feGaussianBlur stdDeviation="15"/>
<feComposite in2="hardAlpha" operator="out"/>
<feColorMatrix type="matrix" values="0 0 0 0 0.956863 0 0 0 0 0.466667 0 0 0 0 0.298039 0 0 0 0.2 0"/>
<feBlend mode="normal" in2="BackgroundImageFix" result="effect1_dropShadow_1059_6986"/>
<feBlend mode="normal" in="SourceGraphic" in2="effect1_dropShadow_1059_6986" result="shape"/>
</filter>
<filter id="filter1_d_1059_6986" x="35" y="200.2" width="433.333" height="136.8" filterUnits="userSpaceOnUse" color-interpolation-filters="sRGB">
<feFlood flood-opacity="0" result="BackgroundImageFix"/>
<feColorMatrix in="SourceAlpha" type="matrix" values="0 0 0 0 0 0 0 0 0 0 0 0 0 0 0 0 0 0 127 0" result="hardAlpha"/>
<feOffset/>
<feGaussianBlur stdDeviation="15"/>
<feComposite in2="hardAlpha" operator="out"/>
<feColorMatrix type="matrix" values="0 0 0 0 0.956863 0 0 0 0 0.466667 0 0 0 0 0.298039 0 0 0 0.2 0"/>
<feBlend mode="normal" in2="BackgroundImageFix" result="effect1_dropShadow_1059_6986"/>
<feBlend mode="normal" in="SourceGraphic" in2="effect1_dropShadow_1059_6986" result="shape"/>
</filter>
<filter id="filter2_d_1059_6986" x="35" y="101" width="433.333" height="138.933" filterUnits="userSpaceOnUse" color-interpolation-filters="sRGB">
<feFlood flood-opacity="0" result="BackgroundImageFix"/>
<feColorMatrix in="SourceAlpha" type="matrix" values="0 0 0 0 0 0 0 0 0 0 0 0 0 0 0 0 0 0 127 0" result="hardAlpha"/>
<feOffset/>
<feGaussianBlur stdDeviation="15"/>
<feComposite in2="hardAlpha" operator="out"/>
<feColorMatrix type="matrix" values="0 0 0 0 0.956863 0 0 0 0 0.466667 0 0 0 0 0.298039 0 0 0 0.2 0"/>
<feBlend mode="normal" in2="BackgroundImageFix" result="effect1_dropShadow_1059_6986"/>
<feBlend mode="normal" in="SourceGraphic" in2="effect1_dropShadow_1059_6986" result="shape"/>
</filter>
<clipPath id="clip0_1059_6986">
<rect width="629" height="355" fill="white"/>
</clipPath>
</defs>
</svg>
