<svg width="94" height="67" viewBox="0 0 94 67" fill="none" xmlns="http://www.w3.org/2000/svg">
<path d="M4.07116 1.40845C4.16711 2.32539 4.26307 3.24238 4.37045 4.05998L4.86842 6.73428C6.60671 14.3827 10.4232 21.4647 15.5689 27.4914C18.1418 30.5048 21.0469 33.2544 24.0856 35.7174C27.2237 38.1917 30.4839 40.4788 33.8777 42.4793C37.2716 44.4798 40.8869 46.3045 44.5251 47.9304C48.1633 49.5563 51.9236 50.995 55.8062 52.2464C59.5893 53.4863 63.4947 54.5389 67.4229 55.3929L68.8903 55.7629L69.6736 55.9535L70.457 56.1442L72.0351 56.4261C72.0351 56.4261 72.6198 56.5941 73.4031 56.7847C74.2858 56.9868 75.3672 57.2116 76.548 57.448C78.8101 57.9092 80.9843 58.2597 80.7742 58.3362C81.8556 58.5611 82.7383 58.7633 83.4223 58.9425C83.9533 58.7016 84.4728 58.5599 85.0038 58.3189L86.6961 57.6074L86.8069 57.5195L84.4602 56.042L79.8776 52.999L75.1956 49.9446C75.0963 49.9332 75.0198 49.723 75.0198 49.723C74.3654 47.534 75.9241 47.1092 76.8296 47.1126C76.9289 47.124 77.0283 47.1355 77.0283 47.1355L81.7102 50.1899L93.2221 57.7533L93.7839 58.1199L93.1536 58.3494L91.8816 58.9079L89.4482 59.9368L88.2869 60.4074L87.7559 60.6483L87.435 60.8128L86.163 61.3712C84.3714 62.0713 82.6905 62.6834 80.9103 63.2841L78.389 64.2023C78.389 64.2023 76.1006 64.8453 73.8237 65.389C71.5468 65.9326 69.3806 66.3883 69.4913 66.3004C65.7893 66.9823 63.1721 66.9835 68.7913 64.5087C70.3956 63.6865 72.4967 62.9213 74.0896 62.1984C75.6712 61.5749 76.8325 61.1044 76.8325 61.1044L79.7625 60.1325C79.8619 60.1439 79.8733 60.0446 79.9727 60.056C79.2658 60.0755 78.4596 60.0834 77.7528 60.1029C76.7479 60.088 75.7544 59.974 74.8489 59.9706C73.0493 59.8645 71.7578 59.716 71.7578 59.716C71.1617 59.6475 70.6764 59.4911 70.0803 59.4227L68.0169 58.9842C63.89 58.1074 59.8853 57.0433 55.804 55.7691C51.8221 54.5064 47.8631 53.0449 44.0262 51.3961C40.1893 49.7474 36.3867 47.8005 32.8056 45.6779C29.1252 43.5438 25.6662 41.2338 22.3523 38.5379C19.027 35.9414 15.946 32.9703 13.1859 29.8347C10.4372 26.5998 7.92139 23.0897 5.93661 19.3386C3.95182 15.5875 2.4101 11.4847 1.47585 7.35105L0.901342 4.46663C0.706038 3.53826 0.621498 2.52198 0.52554 1.60503C0.536955 1.50569 0.659143 1.31836 0.659143 1.31836C1.89232 -0.65376 3.27977 0.411606 3.80736 1.07617C4.08257 1.30911 4.07116 1.40845 4.07116 1.40845Z" fill="#F4774C"/>
</svg>
