<svg width="629" height="355" viewBox="0 0 629 355" fill="none" xmlns="http://www.w3.org/2000/svg">
<g clip-path="url(#clip0_1334_6984)">
<rect width="629" height="355" fill="white"/>
<g filter="url(#filter0_d_1334_6984)">
<rect x="126" y="27" width="462" height="273" rx="4" fill="white"/>
</g>
<path d="M126 31C126 28.7909 127.791 27 130 27H584C586.209 27 588 28.7909 588 31V64H126V31Z" fill="#3C3A3E"/>
<path d="M126 64H240V300H130C127.791 300 126 298.209 126 296V64Z" fill="#EDEDED"/>
<rect x="240" y="64" width="203" height="1.99999" transform="rotate(90 240 64)" fill="#CBCBCB"/>
<path fill-rule="evenodd" clip-rule="evenodd" d="M139 85C137.895 85 137 85.8954 137 87C137 88.1046 137.895 89 139 89H221C222.105 89 223 88.1046 223 87C223 85.8954 222.105 85 221 85H139ZM139 169C137.895 169 137 169.895 137 171C137 172.105 137.895 173 139 173H221C222.105 173 223 172.105 223 171C223 169.895 222.105 169 221 169H139ZM137 102C137 100.895 137.895 100 139 100H199C200.105 100 201 100.895 201 102C201 103.105 200.105 104 199 104H139C137.895 104 137 103.105 137 102ZM139 184C137.895 184 137 184.895 137 186C137 187.105 137.895 188 139 188H199C200.105 188 201 187.105 201 186C201 184.895 200.105 184 199 184H139ZM137 117C137 115.895 137.895 115 139 115H209C210.105 115 211 115.895 211 117C211 118.105 210.105 119 209 119H139C137.895 119 137 118.105 137 117ZM139 199C137.895 199 137 199.895 137 201C137 202.105 137.895 203 139 203H209C210.105 203 211 202.105 211 201C211 199.895 210.105 199 209 199H139ZM137 132C137 130.895 137.895 130 139 130H185C186.105 130 187 130.895 187 132C187 133.105 186.105 134 185 134H139C137.895 134 137 133.105 137 132ZM139 214C137.895 214 137 214.895 137 216C137 217.105 137.895 218 139 218H185C186.105 218 187 217.105 187 216C187 214.895 186.105 214 185 214H139ZM137 255C137 253.895 137.895 253 139 253H199C200.105 253 201 253.895 201 255C201 256.105 200.105 257 199 257H139C137.895 257 137 256.105 137 255ZM240 152L126 152V152.5L240 152.5V152ZM126 236L240 236V236.5L126 236.5V236ZM240 274L126 274V274.5L240 274.5V274Z" fill="#CBCBCB"/>
<path fill-rule="evenodd" clip-rule="evenodd" d="M274 124C272.895 124 272 124.895 272 126C272 127.105 272.895 128 274 128H358C359.105 128 360 127.105 360 126C360 124.895 359.105 124 358 124H274ZM274.5 175C273.119 175 272 176.119 272 177.5C272 178.881 273.119 180 274.5 180H357.5C358.881 180 360 178.881 360 177.5C360 176.119 358.881 175 357.5 175H274.5ZM272 203C272 201.895 272.895 201 274 201H358C359.105 201 360 201.895 360 203C360 204.105 359.105 205 358 205H274C272.895 205 272 204.105 272 203ZM274 150C272.895 150 272 150.895 272 152C272 153.105 272.895 154 274 154H358C359.105 154 360 153.105 360 152C360 150.895 359.105 150 358 150H274ZM375 177.5C375 176.119 376.119 175 377.5 175H408.5C409.881 175 411 176.119 411 177.5C411 178.881 409.881 180 408.5 180H377.5C376.119 180 375 178.881 375 177.5ZM377 201C375.895 201 375 201.895 375 203C375 204.105 375.895 205 377 205H409C410.105 205 411 204.105 411 203C411 201.895 410.105 201 409 201H377ZM375 126C375 124.895 375.895 124 377 124H554C555.105 124 556 124.895 556 126C556 127.105 555.105 128 554 128H377C375.895 128 375 127.105 375 126ZM377 150C375.895 150 375 150.895 375 152C375 153.105 375.895 154 377 154H554C555.105 154 556 153.105 556 152C556 150.895 555.105 150 554 150H377ZM422 177.5C422 176.119 423.119 175 424.5 175H553.5C554.881 175 556 176.119 556 177.5C556 178.881 554.881 180 553.5 180H424.5C423.119 180 422 178.881 422 177.5ZM424 201C422.895 201 422 201.895 422 203C422 204.105 422.895 205 424 205H554C555.105 205 556 204.105 556 203C556 201.895 555.105 201 554 201H424Z" fill="#E6E6E6"/>
<path d="M273.981 94H272.294L275.366 85.2727H277.318L280.395 94H278.707L276.376 87.0625H276.308L273.981 94ZM274.037 90.5781H278.639V91.848H274.037V90.5781Z" fill="#3C3A3E"/>
<path d="M281.476 94V87.4545H284.225C285 87.4545 285.612 87.6094 286.061 87.919C286.513 88.2287 286.739 88.6605 286.739 89.2145C286.739 89.5809 286.611 89.8807 286.355 90.1136C286.103 90.3437 285.757 90.4986 285.32 90.5781C285.664 90.6065 285.965 90.6932 286.223 90.838C286.485 90.9829 286.689 91.1733 286.837 91.4091C286.985 91.6449 287.059 91.9162 287.059 92.223C287.059 92.5838 286.963 92.8977 286.773 93.1648C286.585 93.429 286.311 93.6349 285.951 93.7826C285.593 93.9275 285.158 94 284.647 94H281.476ZM282.921 92.7855H284.647C284.931 92.7855 285.154 92.7187 285.316 92.5852C285.478 92.4488 285.559 92.2642 285.559 92.0312C285.559 91.7613 285.478 91.5497 285.316 91.3963C285.154 91.24 284.931 91.1619 284.647 91.1619H282.921V92.7855ZM282.921 90.1648H284.255C284.465 90.1648 284.645 90.1349 284.796 90.0753C284.946 90.0128 285.061 89.9261 285.141 89.8153C285.22 89.7017 285.26 89.5667 285.26 89.4105C285.26 89.1861 285.168 89.0099 284.983 88.8821C284.801 88.7542 284.549 88.6903 284.225 88.6903H282.921V90.1648Z" fill="#3C3A3E"/>
<path d="M287.974 88.7201V87.4545H293.701V88.7201H291.583V94H290.092V88.7201H287.974Z" fill="#3C3A3E"/>
<path d="M297.515 94.1278C296.876 94.1278 296.322 93.9872 295.853 93.7059C295.384 93.4247 295.021 93.0312 294.762 92.5255C294.506 92.0199 294.378 91.429 294.378 90.7528C294.378 90.0767 294.506 89.4844 294.762 88.9758C295.021 88.4673 295.384 88.0724 295.853 87.7912C296.322 87.5099 296.876 87.3693 297.515 87.3693C298.154 87.3693 298.708 87.5099 299.177 87.7912C299.646 88.0724 300.008 88.4673 300.263 88.9758C300.522 89.4844 300.651 90.0767 300.651 90.7528C300.651 91.429 300.522 92.0199 300.263 92.5255C300.008 93.0312 299.646 93.4247 299.177 93.7059C298.708 93.9872 298.154 94.1278 297.515 94.1278ZM297.523 92.892C297.87 92.892 298.16 92.7969 298.393 92.6065C298.626 92.4133 298.799 92.1548 298.913 91.8309C299.029 91.5071 299.087 91.1463 299.087 90.7486C299.087 90.348 299.029 89.9858 298.913 89.6619C298.799 89.3352 298.626 89.0753 298.393 88.8821C298.16 88.6889 297.87 88.5923 297.523 88.5923C297.168 88.5923 296.873 88.6889 296.637 88.8821C296.404 89.0753 296.229 89.3352 296.113 89.6619C295.999 89.9858 295.942 90.348 295.942 90.7486C295.942 91.1463 295.999 91.5071 296.113 91.8309C296.229 92.1548 296.404 92.4133 296.637 92.6065C296.873 92.7969 297.168 92.892 297.523 92.892Z" fill="#3C3A3E"/>
<path d="M301.598 92.2059H303.128C303.142 92.4503 303.252 92.6392 303.456 92.7727C303.661 92.9062 303.926 92.973 304.253 92.973C304.585 92.973 304.865 92.9005 305.093 92.7557C305.323 92.6079 305.438 92.3849 305.438 92.0866C305.438 91.9105 305.394 91.7557 305.306 91.6221C305.218 91.4858 305.094 91.3807 304.935 91.3068C304.776 91.2329 304.588 91.196 304.372 91.196H303.371V90.1008H304.372C304.693 90.1008 304.936 90.027 305.101 89.8792C305.269 89.7315 305.353 89.5454 305.353 89.321C305.353 89.0795 305.264 88.8835 305.088 88.7329C304.915 88.5824 304.675 88.5071 304.368 88.5071C304.061 88.5071 303.806 88.5767 303.601 88.7159C303.399 88.8551 303.294 89.0341 303.286 89.2528H301.764C301.77 88.8721 301.884 88.5412 302.105 88.2599C302.33 87.9787 302.631 87.7599 303.009 87.6037C303.389 87.4474 303.818 87.3693 304.296 87.3693C304.807 87.3693 305.249 87.446 305.621 87.5994C305.993 87.7528 306.28 87.9673 306.482 88.2429C306.684 88.5156 306.784 88.8366 306.784 89.2059C306.784 89.5611 306.674 89.8551 306.452 90.088C306.23 90.3182 305.932 90.4829 305.557 90.5824V90.6505C305.816 90.6648 306.049 90.7386 306.256 90.8721C306.463 91.0028 306.628 91.1804 306.75 91.4048C306.872 91.6292 306.934 91.8892 306.934 92.1846C306.934 92.5852 306.818 92.9318 306.588 93.2244C306.358 93.5142 306.041 93.7372 305.638 93.8934C305.237 94.0497 304.779 94.1278 304.262 94.1278C303.759 94.1278 303.309 94.0525 302.911 93.902C302.516 93.7486 302.202 93.5284 301.969 93.2415C301.736 92.9545 301.612 92.6094 301.598 92.2059Z" fill="#3C3A3E"/>
<path d="M308.148 94V87.4545H310.897C311.672 87.4545 312.284 87.6094 312.733 87.919C313.185 88.2287 313.411 88.6605 313.411 89.2145C313.411 89.5809 313.283 89.8807 313.027 90.1136C312.774 90.3437 312.429 90.4986 311.992 90.5781C312.335 90.6065 312.637 90.6932 312.895 90.838C313.157 90.9829 313.361 91.1733 313.509 91.4091C313.657 91.6449 313.73 91.9162 313.73 92.223C313.73 92.5838 313.635 92.8977 313.445 93.1648C313.257 93.429 312.983 93.6349 312.622 93.7826C312.264 93.9275 311.83 94 311.318 94H308.148ZM309.593 92.7855H311.318C311.603 92.7855 311.826 92.7187 311.987 92.5852C312.149 92.4488 312.23 92.2642 312.23 92.0312C312.23 91.7613 312.149 91.5497 311.987 91.3963C311.826 91.24 311.603 91.1619 311.318 91.1619H309.593V92.7855ZM309.593 90.1648H310.926C311.137 90.1648 311.317 90.1349 311.468 90.0753C311.618 90.0128 311.733 89.9261 311.813 89.8153C311.892 89.7017 311.932 89.5667 311.932 89.4105C311.932 89.1861 311.84 89.0099 311.655 88.8821C311.473 88.7542 311.22 88.6903 310.897 88.6903H309.593V90.1648Z" fill="#3C3A3E"/>
<path d="M317.859 94.1278C317.219 94.1278 316.665 93.9872 316.197 93.7059C315.728 93.4247 315.364 93.0312 315.106 92.5255C314.85 92.0199 314.722 91.429 314.722 90.7528C314.722 90.0767 314.85 89.4844 315.106 88.9758C315.364 88.4673 315.728 88.0724 316.197 87.7912C316.665 87.5099 317.219 87.3693 317.859 87.3693C318.498 87.3693 319.052 87.5099 319.521 87.7912C319.989 88.0724 320.351 88.4673 320.607 88.9758C320.866 89.4844 320.995 90.0767 320.995 90.7528C320.995 91.429 320.866 92.0199 320.607 92.5255C320.351 93.0312 319.989 93.4247 319.521 93.7059C319.052 93.9872 318.498 94.1278 317.859 94.1278ZM317.867 92.892C318.214 92.892 318.503 92.7969 318.736 92.6065C318.969 92.4133 319.143 92.1548 319.256 91.8309C319.373 91.5071 319.431 91.1463 319.431 90.7486C319.431 90.348 319.373 89.9858 319.256 89.6619C319.143 89.3352 318.969 89.0753 318.736 88.8821C318.503 88.6889 318.214 88.5923 317.867 88.5923C317.512 88.5923 317.217 88.6889 316.981 88.8821C316.748 89.0753 316.573 89.3352 316.457 89.6619C316.343 89.9858 316.286 90.348 316.286 90.7486C316.286 91.1463 316.343 91.5071 316.457 91.8309C316.573 92.1548 316.748 92.4133 316.981 92.6065C317.217 92.7969 317.512 92.892 317.867 92.892Z" fill="#3C3A3E"/>
<path d="M326.8 90.088V91.3537H323.314V90.088H326.8ZM323.791 87.4545V94H322.304V87.4545H323.791ZM327.81 87.4545V94H326.327V87.4545H327.81Z" fill="#3C3A3E"/>
<path d="M329.371 94V87.4545H330.913V90.0966H331.476L333.445 87.4545H335.302L332.878 90.6676L335.328 94H333.462L331.668 91.5326H330.913V94H329.371Z" fill="#3C3A3E"/>
<path d="M337.69 91.9119L340.311 87.4545H341.896V94H340.404V89.5383L337.792 94H336.203V87.4545H337.69V91.9119Z" fill="#3C3A3E"/>
<path d="M345.877 95.9005V92.7301H346.397C346.536 92.6221 346.653 92.4758 346.746 92.2912C346.84 92.1037 346.917 91.8835 346.976 91.6307C347.039 91.375 347.09 91.0895 347.13 90.7741C347.17 90.4559 347.205 90.1136 347.236 89.7471L347.424 87.4545H352.154V92.7301H353.168V95.9005H351.677V94H347.394V95.9005H345.877ZM347.982 92.7301H350.68V88.6988H348.762L348.66 89.7471C348.603 90.4403 348.528 91.0341 348.434 91.5284C348.34 92.0227 348.19 92.4233 347.982 92.7301Z" fill="#3C3A3E"/>
<path d="M353.868 94L353.86 92.7301H354.085C354.256 92.7301 354.399 92.6917 354.516 92.615C354.632 92.5383 354.729 92.4105 354.806 92.2315C354.882 92.0497 354.942 91.8054 354.985 91.4986C355.027 91.1917 355.057 90.8096 355.074 90.3523L355.189 87.4545H359.962V94H358.47V88.7201H356.591L356.489 90.8295C356.463 91.375 356.402 91.848 356.306 92.2486C356.212 92.6463 356.078 92.9744 355.905 93.2329C355.735 93.4915 355.52 93.6846 355.262 93.8125C355.003 93.9375 354.698 94 354.345 94H353.868Z" fill="#3C3A3E"/>
<path d="M365.384 94V88.7074H363.987C363.632 88.7074 363.359 88.7898 363.169 88.9545C362.978 89.1193 362.884 89.3238 362.887 89.5682C362.884 89.8125 362.974 90.0142 363.156 90.1733C363.338 90.3324 363.598 90.4119 363.936 90.4119H365.87V91.5369H363.936C363.413 91.5369 362.961 91.4545 362.581 91.2898C362.2 91.125 361.907 90.892 361.703 90.5909C361.498 90.2898 361.396 89.9375 361.396 89.5341C361.396 89.1136 361.5 88.7486 361.707 88.4389C361.917 88.1264 362.215 87.8849 362.602 87.7145C362.991 87.5412 363.453 87.4545 363.987 87.4545H366.829V94H365.384ZM361.157 94L362.985 90.642H364.507L362.674 94H361.157Z" fill="#3C3A3E"/>
<path d="M371.359 94V87.4545H372.902V90.0966H373.464L375.433 87.4545H377.291L374.866 90.6676L377.316 94H375.45L373.656 91.5326H372.902V94H371.359Z" fill="#3C3A3E"/>
<path d="M380.777 94.1278C380.137 94.1278 379.583 93.9872 379.115 93.7059C378.646 93.4247 378.282 93.0312 378.024 92.5255C377.768 92.0199 377.64 91.429 377.64 90.7528C377.64 90.0767 377.768 89.4844 378.024 88.9758C378.282 88.4673 378.646 88.0724 379.115 87.7912C379.583 87.5099 380.137 87.3693 380.777 87.3693C381.416 87.3693 381.97 87.5099 382.438 87.7912C382.907 88.0724 383.269 88.4673 383.525 88.9758C383.784 89.4844 383.913 90.0767 383.913 90.7528C383.913 91.429 383.784 92.0199 383.525 92.5255C383.269 93.0312 382.907 93.4247 382.438 93.7059C381.97 93.9872 381.416 94.1278 380.777 94.1278ZM380.785 92.892C381.132 92.892 381.421 92.7969 381.654 92.6065C381.887 92.4133 382.061 92.1548 382.174 91.8309C382.291 91.5071 382.349 91.1463 382.349 90.7486C382.349 90.348 382.291 89.9858 382.174 89.6619C382.061 89.3352 381.887 89.0753 381.654 88.8821C381.421 88.6889 381.132 88.5923 380.785 88.5923C380.43 88.5923 380.134 88.6889 379.899 88.8821C379.666 89.0753 379.491 89.3352 379.375 89.6619C379.261 89.9858 379.204 90.348 379.204 90.7486C379.204 91.1463 379.261 91.5071 379.375 91.8309C379.491 92.1548 379.666 92.4133 379.899 92.6065C380.134 92.7969 380.43 92.892 380.785 92.892Z" fill="#3C3A3E"/>
<path d="M384.771 94L384.762 92.7301H384.988C385.158 92.7301 385.302 92.6917 385.418 92.615C385.535 92.5383 385.631 92.4105 385.708 92.2315C385.785 92.0497 385.844 91.8054 385.887 91.4986C385.93 91.1917 385.959 90.8096 385.976 90.3523L386.092 87.4545H390.864V94H389.373V88.7201H387.494L387.391 90.8295C387.366 91.375 387.305 91.848 387.208 92.2486C387.114 92.6463 386.981 92.9744 386.807 93.2329C386.637 93.4915 386.422 93.6846 386.164 93.8125C385.905 93.9375 385.6 94 385.248 94H384.771Z" fill="#3C3A3E"/>
<path d="M391.966 94L391.957 92.7301H392.183C392.354 92.7301 392.497 92.6917 392.614 92.615C392.73 92.5383 392.827 92.4105 392.903 92.2315C392.98 92.0497 393.04 91.8054 393.082 91.4986C393.125 91.1917 393.155 90.8096 393.172 90.3523L393.287 87.4545H398.06V94H396.568V88.7201H394.689L394.587 90.8295C394.561 91.375 394.5 91.848 394.403 92.2486C394.31 92.6463 394.176 92.9744 394.003 93.2329C393.832 93.4915 393.618 93.6846 393.359 93.8125C393.101 93.9375 392.795 94 392.443 94H391.966Z" fill="#3C3A3E"/>
<path d="M403.58 89.7301V91H399.651V89.7301H403.58Z" fill="#3C3A3E"/>
<path d="M410.73 87.4545V92.8494H411.731V96.1051H410.223V94H405.203V87.4545H406.69V92.7344H409.255V87.4545H410.73Z" fill="#3C3A3E"/>
<path d="M415.823 94.1278C415.167 94.1278 414.6 93.9915 414.123 93.7187C413.648 93.4432 413.283 93.054 413.028 92.5511C412.772 92.0454 412.644 91.4503 412.644 90.7656C412.644 90.0923 412.772 89.5014 413.028 88.9929C413.286 88.4815 413.647 88.0838 414.11 87.7997C414.573 87.5128 415.117 87.3693 415.742 87.3693C416.146 87.3693 416.526 87.4346 416.884 87.5653C417.245 87.6932 417.563 87.892 417.839 88.1619C418.117 88.4318 418.336 88.7755 418.495 89.1932C418.654 89.6079 418.734 90.1023 418.734 90.6761V91.1491H413.369V90.1094H417.255C417.252 89.8139 417.188 89.5511 417.063 89.321C416.938 89.088 416.763 88.9048 416.539 88.7713C416.317 88.6378 416.059 88.571 415.763 88.571C415.448 88.571 415.171 88.6477 414.932 88.8011C414.694 88.9517 414.508 89.1505 414.374 89.3977C414.244 89.642 414.177 89.9105 414.174 90.2031V91.1108C414.174 91.4915 414.244 91.8182 414.383 92.0909C414.522 92.3608 414.717 92.5682 414.967 92.713C415.217 92.8551 415.509 92.9261 415.844 92.9261C416.069 92.9261 416.272 92.8949 416.454 92.8324C416.636 92.767 416.793 92.6719 416.927 92.5469C417.06 92.4219 417.161 92.267 417.229 92.0824L418.67 92.2443C418.579 92.625 418.405 92.9574 418.15 93.2415C417.897 93.5227 417.573 93.7415 417.178 93.8977C416.783 94.0511 416.332 94.1278 415.823 94.1278Z" fill="#3C3A3E"/>
<path d="M424.534 90.088V91.3537H421.049V90.088H424.534ZM421.526 87.4545V94H420.039V87.4545H421.526ZM425.544 87.4545V94H424.061V87.4545H425.544Z" fill="#3C3A3E"/>
<path d="M426.372 88.7201V87.4545H432.099V88.7201H429.981V94H428.49V88.7201H426.372Z" fill="#3C3A3E"/>
<path d="M433.328 96.4545V87.4545H434.845V88.5369H434.934C435.014 88.3778 435.126 88.2088 435.271 88.0298C435.416 87.848 435.612 87.6932 435.859 87.5653C436.106 87.4346 436.421 87.3693 436.805 87.3693C437.311 87.3693 437.767 87.4986 438.173 87.7571C438.582 88.0128 438.906 88.392 439.144 88.8949C439.386 89.3949 439.507 90.0085 439.507 90.7358C439.507 91.4545 439.389 92.0653 439.153 92.5682C438.917 93.071 438.596 93.4545 438.19 93.7187C437.784 93.9829 437.323 94.115 436.809 94.115C436.434 94.115 436.123 94.0525 435.876 93.9275C435.629 93.8025 435.43 93.652 435.279 93.4758C435.132 93.2969 435.017 93.1278 434.934 92.9687H434.87V96.4545H433.328ZM434.84 90.7273C434.84 91.1505 434.9 91.5213 435.019 91.8395C435.142 92.1576 435.316 92.4062 435.544 92.5852C435.774 92.7613 436.052 92.8494 436.379 92.8494C436.72 92.8494 437.005 92.7585 437.235 92.5767C437.465 92.392 437.639 92.1406 437.755 91.8224C437.875 91.5014 437.934 91.1363 437.934 90.7273C437.934 90.321 437.876 89.9602 437.76 89.6449C437.643 89.3295 437.47 89.0824 437.24 88.9034C437.009 88.7244 436.723 88.6349 436.379 88.6349C436.049 88.6349 435.769 88.7216 435.539 88.8949C435.309 89.0682 435.135 89.3111 435.015 89.6236C434.899 89.9361 434.84 90.304 434.84 90.7273Z" fill="#3C3A3E"/>
<path d="M442.711 94.1321C442.296 94.1321 441.923 94.0582 441.59 93.9105C441.261 93.7599 441 93.5383 440.806 93.2457C440.616 92.9531 440.521 92.5923 440.521 92.1633C440.521 91.794 440.589 91.4886 440.725 91.2471C440.862 91.0057 441.048 90.8125 441.284 90.6676C441.519 90.5227 441.785 90.4133 442.081 90.3395C442.379 90.2628 442.687 90.2074 443.005 90.1733C443.389 90.1335 443.7 90.098 443.938 90.0667C444.177 90.0326 444.35 89.9815 444.458 89.9133C444.569 89.8423 444.625 89.7329 444.625 89.5852V89.5596C444.625 89.2386 444.529 88.99 444.339 88.8139C444.149 88.6378 443.875 88.5497 443.517 88.5497C443.139 88.5497 442.839 88.6321 442.617 88.7969C442.399 88.9616 442.251 89.1562 442.174 89.3807L440.734 89.1761C440.848 88.7784 441.035 88.446 441.296 88.179C441.558 87.9091 441.877 87.7074 442.255 87.5738C442.633 87.4375 443.051 87.3693 443.508 87.3693C443.823 87.3693 444.137 87.4062 444.45 87.4801C444.762 87.554 445.048 87.6761 445.306 87.8466C445.565 88.0142 445.772 88.2429 445.929 88.5326C446.088 88.8224 446.167 89.1846 446.167 89.6193V94H444.684V93.1008H444.633C444.539 93.2826 444.407 93.4531 444.237 93.6122C444.069 93.7684 443.857 93.8949 443.602 93.9915C443.349 94.0852 443.052 94.1321 442.711 94.1321ZM443.112 92.9986C443.421 92.9986 443.69 92.9375 443.917 92.8153C444.144 92.6903 444.319 92.5255 444.441 92.321C444.566 92.1165 444.629 91.8934 444.629 91.652V90.8807C444.581 90.9204 444.498 90.9574 444.382 90.9915C444.268 91.0255 444.14 91.0554 443.998 91.0809C443.856 91.1065 443.715 91.1292 443.576 91.1491C443.437 91.169 443.316 91.1861 443.214 91.2003C442.984 91.2315 442.778 91.2826 442.596 91.3537C442.414 91.4247 442.271 91.5241 442.166 91.652C442.061 91.777 442.008 91.9389 442.008 92.1378C442.008 92.4219 442.112 92.6363 442.319 92.7812C442.527 92.9261 442.791 92.9986 443.112 92.9986Z" fill="#3C3A3E"/>
<path fill-rule="evenodd" clip-rule="evenodd" d="M556 105H272V104H556V105ZM556 139H272V138.5H556V139ZM272 165H556V164.5H272V165ZM556 190H272V189.5H556V190ZM272 216H556V215.5H272V216Z" fill="#E6E6E6"/>
<path fill-rule="evenodd" clip-rule="evenodd" d="M195.197 41.9223C196.422 42.1458 197.525 42.8249 198.301 43.8322C199.077 44.8395 199.47 46.1055 199.409 47.3925C199.347 48.6794 198.834 49.8987 197.965 50.8212C197.097 51.7437 195.934 52.306 194.693 52.4024C193.453 52.4987 192.222 52.1226 191.231 51.3446C190.239 50.5666 189.556 49.4402 189.31 48.1772C189.064 46.9142 189.271 45.6015 189.893 44.4856C190.514 43.3698 191.508 42.5276 192.687 42.1173C193.495 41.8368 194.358 41.7698 195.197 41.9223ZM164.754 49.4591C164.754 51.4355 163.466 52.4222 160.889 52.4193H154.648V41.8703H160.504C161.893 41.8703 162.868 42.0393 163.432 42.3687C163.845 42.5902 164.188 42.9286 164.422 43.3445C164.656 43.7604 164.771 44.2367 164.754 44.7177C164.762 45.2143 164.632 45.7027 164.379 46.1251C164.127 46.5475 163.764 46.8863 163.332 47.1014C163.774 47.2933 164.148 47.621 164.405 48.0403C164.661 48.4595 164.788 48.9502 164.767 49.4461L164.754 49.4591ZM161.876 45.0298C161.876 44.3667 161.429 44.033 160.529 44.033H157.338V46.0569H160.529C161.429 46.0569 161.876 45.7146 161.876 45.0298ZM161.876 49.2294C161.876 48.5403 161.433 48.1979 160.546 48.1979H157.338V50.2609H160.567C161.454 50.2609 161.897 49.9142 161.897 49.2294H161.876ZM188.011 52.4193H185.334V48.237H181.469V52.4193H178.783V41.8703H181.469V45.9139H185.334V41.8703H188.011V52.4193ZM210.991 52.4193H207.377L203.261 47.3008V52.4193H200.576V41.8703H203.261V46.9368L207.591 41.8703H211.016L206.286 47.0321L211.016 52.4193H210.991ZM195.055 44.3407C194.688 44.2209 194.301 44.1807 193.919 44.2225C193.536 44.2643 193.166 44.3873 192.831 44.5837C192.497 44.7801 192.204 45.0458 191.973 45.3643C191.742 45.6827 191.576 46.0471 191.487 46.4347C191.397 46.8223 191.386 47.2248 191.453 47.6172C191.52 48.0096 191.665 48.3835 191.877 48.7156C192.09 49.0477 192.366 49.3309 192.689 49.5475C193.012 49.7642 193.374 49.9097 193.754 49.9749C194.169 50.0613 194.598 50.0509 195.009 49.9446C195.608 49.7878 196.14 49.4303 196.523 48.9276C196.906 48.4249 197.117 47.8052 197.125 47.1649C197.133 46.5247 196.936 45.8998 196.565 45.3874C196.194 44.8751 195.671 44.504 195.076 44.332L195.055 44.3407ZM173.003 44.1803C173.638 44.5009 174.15 45.0351 174.454 45.6959C174.759 46.3566 174.838 47.1048 174.68 47.8183C174.521 48.5319 174.133 49.1686 173.58 49.6245C173.027 50.0804 172.342 50.3287 171.635 50.3287C170.928 50.3287 170.242 50.0804 169.689 49.6245C169.136 49.1686 168.749 48.5319 168.59 47.8183C168.431 47.1048 168.511 46.3566 168.815 45.6959C169.12 45.0351 169.632 44.5009 170.267 44.1803V41.3589C168.915 41.7051 167.732 42.5521 166.941 43.7402C166.151 44.9282 165.807 46.375 165.975 47.8075C166.144 49.24 166.812 50.5591 167.855 51.5159C168.898 52.4726 170.242 53.0009 171.635 53.0009C173.028 53.0009 174.372 52.4726 175.415 51.5159C176.457 50.5591 177.126 49.24 177.294 47.8075C177.463 46.375 177.119 44.9282 176.328 43.7402C175.538 42.5521 174.355 41.7051 173.003 41.3589V44.1803Z" fill="white"/>
<path fill-rule="evenodd" clip-rule="evenodd" d="M153.101 48.4016C153.101 51.0656 151.547 52.399 148.437 52.4019H142C142 49.7322 146.304 49.8535 147.885 49.8535C149.171 49.8535 149.812 49.2756 149.809 48.1199C149.809 46.9584 149.169 46.3863 147.885 46.3863H144.255V43.8639H147.856C149.14 43.8639 149.776 43.3048 149.776 42.1953C149.776 41.0858 149.132 40.5484 147.856 40.5484C146.024 40.5484 142 41.0338 142 38H147.927C149.634 38 150.823 38.2181 151.495 38.6544C152 38.9784 152.412 39.4368 152.688 39.9818C152.964 40.5269 153.093 41.1386 153.064 41.7533C153.09 42.4816 152.904 43.2013 152.531 43.8193C152.158 44.4374 151.615 44.9254 150.972 45.2205C152.386 45.8446 153.091 46.9136 153.089 48.4276L153.101 48.4016Z" fill="white"/>
<path fill-rule="evenodd" clip-rule="evenodd" d="M172.033 48.8783C171.567 48.9764 171.082 48.8796 170.683 48.6091C170.285 48.3385 170.006 47.916 169.907 47.4334C169.808 46.9509 169.896 46.4472 170.154 46.032C170.411 45.6168 170.816 45.3236 171.28 45.2161V41.1768H172.117V45.2161C172.329 45.2671 172.531 45.3582 172.711 45.4848C173.009 45.6923 173.24 45.9869 173.375 46.331C173.51 46.6751 173.544 47.0532 173.471 47.4171C173.399 47.781 173.223 48.1143 172.967 48.3745C172.711 48.6347 172.386 48.8101 172.033 48.8783Z" fill="white"/>
<g filter="url(#filter1_d_1334_6984)">
<rect x="228" y="248" width="373.333" height="76.8" rx="9" fill="white"/>
</g>
<path d="M261.331 271.217H259.737C259.692 270.956 259.608 270.725 259.486 270.523C259.364 270.318 259.212 270.145 259.03 270.003C258.848 269.861 258.641 269.754 258.408 269.683C258.178 269.61 257.929 269.573 257.662 269.573C257.187 269.573 256.767 269.692 256.401 269.931C256.034 270.166 255.747 270.513 255.54 270.97C255.332 271.425 255.229 271.98 255.229 272.637C255.229 273.304 255.332 273.867 255.54 274.324C255.75 274.779 256.037 275.122 256.401 275.355C256.767 275.585 257.186 275.7 257.658 275.7C257.919 275.7 258.163 275.666 258.391 275.598C258.621 275.527 258.827 275.423 259.008 275.287C259.193 275.151 259.348 274.983 259.473 274.784C259.601 274.585 259.689 274.358 259.737 274.102L261.331 274.111C261.271 274.526 261.142 274.915 260.943 275.279C260.747 275.642 260.49 275.963 260.172 276.242C259.854 276.517 259.481 276.733 259.055 276.889C258.629 277.043 258.156 277.119 257.636 277.119C256.869 277.119 256.185 276.942 255.582 276.587C254.98 276.232 254.506 275.719 254.159 275.048C253.812 274.378 253.639 273.574 253.639 272.637C253.639 271.696 253.814 270.892 254.163 270.225C254.513 269.554 254.989 269.041 255.591 268.686C256.193 268.331 256.875 268.154 257.636 268.154C258.122 268.154 258.574 268.222 258.991 268.358C259.409 268.494 259.781 268.695 260.108 268.959C260.435 269.22 260.703 269.541 260.913 269.922C261.126 270.3 261.266 270.732 261.331 271.217Z" fill="#3C3A3E"/>
<path d="M265.566 277.128C264.926 277.128 264.372 276.987 263.904 276.706C263.435 276.425 263.071 276.031 262.813 275.526C262.557 275.02 262.429 274.429 262.429 273.753C262.429 273.077 262.557 272.485 262.813 271.976C263.071 271.467 263.435 271.073 263.904 270.791C264.372 270.51 264.926 270.369 265.566 270.369C266.205 270.369 266.759 270.51 267.228 270.791C267.696 271.073 268.059 271.467 268.314 271.976C268.573 272.485 268.702 273.077 268.702 273.753C268.702 274.429 268.573 275.02 268.314 275.526C268.059 276.031 267.696 276.425 267.228 276.706C266.759 276.987 266.205 277.128 265.566 277.128ZM265.574 275.892C265.921 275.892 266.211 275.797 266.443 275.607C266.676 275.414 266.85 275.155 266.963 274.831C267.08 274.507 267.138 274.146 267.138 273.749C267.138 273.348 267.08 272.986 266.963 272.662C266.85 272.335 266.676 272.075 266.443 271.882C266.211 271.689 265.921 271.592 265.574 271.592C265.219 271.592 264.924 271.689 264.688 271.882C264.455 272.075 264.28 272.335 264.164 272.662C264.05 272.986 263.993 273.348 263.993 273.749C263.993 274.146 264.05 274.507 264.164 274.831C264.28 275.155 264.455 275.414 264.688 275.607C264.924 275.797 265.219 275.892 265.574 275.892Z" fill="#3C3A3E"/>
<path d="M269.29 271.72V270.455H275.017V271.72H272.899V277H271.408V271.72H269.29Z" fill="#3C3A3E"/>
<path d="M276.246 279.455V270.455H277.763V271.537H277.852C277.932 271.378 278.044 271.209 278.189 271.03C278.334 270.848 278.53 270.693 278.777 270.565C279.024 270.435 279.339 270.369 279.723 270.369C280.229 270.369 280.685 270.499 281.091 270.757C281.5 271.013 281.824 271.392 282.062 271.895C282.304 272.395 282.425 273.009 282.425 273.736C282.425 274.455 282.307 275.065 282.071 275.568C281.835 276.071 281.514 276.455 281.108 276.719C280.702 276.983 280.241 277.115 279.727 277.115C279.352 277.115 279.041 277.053 278.794 276.928C278.547 276.803 278.348 276.652 278.197 276.476C278.05 276.297 277.935 276.128 277.852 275.969H277.788V279.455H276.246ZM277.758 273.727C277.758 274.151 277.818 274.521 277.937 274.84C278.06 275.158 278.234 275.406 278.462 275.585C278.692 275.762 278.97 275.85 279.297 275.85C279.638 275.85 279.923 275.759 280.153 275.577C280.383 275.392 280.557 275.141 280.673 274.823C280.793 274.502 280.852 274.137 280.852 273.727C280.852 273.321 280.794 272.96 280.678 272.645C280.561 272.33 280.388 272.083 280.158 271.904C279.928 271.725 279.641 271.635 279.297 271.635C278.967 271.635 278.687 271.722 278.457 271.895C278.227 272.068 278.053 272.311 277.933 272.624C277.817 272.936 277.758 273.304 277.758 273.727Z" fill="#3C3A3E"/>
<path d="M284.482 279.455C284.272 279.455 284.077 279.438 283.898 279.404C283.722 279.372 283.581 279.335 283.476 279.293L283.834 278.091C284.059 278.156 284.259 278.188 284.435 278.185C284.611 278.182 284.766 278.127 284.899 278.019C285.036 277.914 285.151 277.737 285.245 277.49L285.377 277.137L283.003 270.455H284.64L286.148 275.398H286.216L287.729 270.455H289.37L286.749 277.793C286.627 278.139 286.465 278.436 286.263 278.683C286.061 278.933 285.814 279.124 285.522 279.254C285.232 279.388 284.885 279.455 284.482 279.455Z" fill="#3C3A3E"/>
<path d="M289.318 278.901V275.73H289.838C289.978 275.622 290.094 275.476 290.188 275.291C290.282 275.104 290.358 274.884 290.418 274.631C290.48 274.375 290.532 274.09 290.571 273.774C290.611 273.456 290.647 273.114 290.678 272.747L290.865 270.455H295.595V275.73H296.61V278.901H295.118V277H290.836V278.901H289.318ZM291.424 275.73H294.121V271.699H292.203L292.101 272.747C292.044 273.44 291.969 274.034 291.875 274.529C291.782 275.023 291.631 275.423 291.424 275.73Z" fill="#3C3A3E"/>
<path d="M302.257 273.088V274.354H298.771V273.088H302.257ZM299.249 270.455V277H297.761V270.455H299.249ZM303.267 270.455V277H301.784V270.455H303.267Z" fill="#3C3A3E"/>
<path d="M306.315 274.912L308.936 270.455H310.521V277H309.029V272.539L306.417 277H304.828V270.455H306.315V274.912Z" fill="#3C3A3E"/>
<path d="M312.105 277V270.455H313.648V273.097H314.21L316.179 270.455H318.037L315.612 273.668L318.062 277H316.196L314.402 274.533H313.648V277H312.105Z" fill="#3C3A3E"/>
<path d="M327.381 270.455V277H325.898V270.455H327.381ZM326.686 273.412V274.673C326.519 274.747 326.328 274.814 326.115 274.874C325.905 274.931 325.682 274.976 325.446 275.01C325.213 275.044 324.98 275.061 324.747 275.061C323.872 275.061 323.181 274.865 322.672 274.473C322.167 274.078 321.914 273.463 321.914 272.628V270.446H323.388V272.628C323.388 272.909 323.438 273.135 323.537 273.306C323.637 273.476 323.787 273.601 323.989 273.681C324.191 273.757 324.443 273.796 324.747 273.796C325.088 273.796 325.412 273.762 325.719 273.693C326.026 273.625 326.348 273.531 326.686 273.412Z" fill="#3C3A3E"/>
<path d="M331.831 277.128C331.175 277.128 330.608 276.992 330.131 276.719C329.656 276.443 329.291 276.054 329.035 275.551C328.78 275.046 328.652 274.45 328.652 273.766C328.652 273.092 328.78 272.502 329.035 271.993C329.294 271.482 329.655 271.084 330.118 270.8C330.581 270.513 331.125 270.369 331.75 270.369C332.153 270.369 332.534 270.435 332.892 270.565C333.253 270.693 333.571 270.892 333.847 271.162C334.125 271.432 334.344 271.776 334.503 272.193C334.662 272.608 334.741 273.102 334.741 273.676V274.149H329.376V273.11H333.263C333.26 272.814 333.196 272.551 333.071 272.321C332.946 272.088 332.771 271.905 332.547 271.771C332.325 271.638 332.067 271.571 331.771 271.571C331.456 271.571 331.179 271.648 330.94 271.801C330.702 271.952 330.516 272.151 330.382 272.398C330.251 272.642 330.185 272.911 330.182 273.203V274.111C330.182 274.492 330.251 274.818 330.391 275.091C330.53 275.361 330.724 275.568 330.974 275.713C331.224 275.855 331.517 275.926 331.852 275.926C332.077 275.926 332.28 275.895 332.462 275.833C332.643 275.767 332.801 275.672 332.935 275.547C333.068 275.422 333.169 275.267 333.237 275.083L334.678 275.244C334.587 275.625 334.413 275.958 334.158 276.242C333.905 276.523 333.581 276.742 333.186 276.898C332.791 277.051 332.339 277.128 331.831 277.128Z" fill="#3C3A3E"/>
<path d="M336.046 279.455V270.455H337.564V271.537H337.653C337.733 271.378 337.845 271.209 337.99 271.03C338.135 270.848 338.331 270.693 338.578 270.565C338.825 270.435 339.14 270.369 339.524 270.369C340.029 270.369 340.485 270.499 340.892 270.757C341.301 271.013 341.625 271.392 341.863 271.895C342.105 272.395 342.225 273.009 342.225 273.736C342.225 274.455 342.108 275.065 341.872 275.568C341.636 276.071 341.315 276.455 340.909 276.719C340.502 276.983 340.042 277.115 339.528 277.115C339.153 277.115 338.842 277.053 338.595 276.928C338.348 276.803 338.149 276.652 337.998 276.476C337.85 276.297 337.735 276.128 337.653 275.969H337.589V279.455H336.046ZM337.559 273.727C337.559 274.151 337.619 274.521 337.738 274.84C337.86 275.158 338.035 275.406 338.262 275.585C338.492 275.762 338.771 275.85 339.098 275.85C339.439 275.85 339.724 275.759 339.954 275.577C340.184 275.392 340.358 275.141 340.474 274.823C340.593 274.502 340.653 274.137 340.653 273.727C340.653 273.321 340.595 272.96 340.478 272.645C340.362 272.33 340.189 272.083 339.958 271.904C339.728 271.725 339.441 271.635 339.098 271.635C338.768 271.635 338.488 271.722 338.258 271.895C338.028 272.068 337.853 272.311 337.734 272.624C337.618 272.936 337.559 273.304 337.559 273.727Z" fill="#3C3A3E"/>
<path d="M346.444 277.128C345.788 277.128 345.221 276.992 344.744 276.719C344.269 276.443 343.904 276.054 343.649 275.551C343.393 275.046 343.265 274.45 343.265 273.766C343.265 273.092 343.393 272.502 343.649 271.993C343.907 271.482 344.268 271.084 344.731 270.8C345.194 270.513 345.738 270.369 346.363 270.369C346.767 270.369 347.147 270.435 347.505 270.565C347.866 270.693 348.184 270.892 348.46 271.162C348.738 271.432 348.957 271.776 349.116 272.193C349.275 272.608 349.355 273.102 349.355 273.676V274.149H343.99V273.11H347.876C347.873 272.814 347.809 272.551 347.684 272.321C347.559 272.088 347.385 271.905 347.16 271.771C346.939 271.638 346.68 271.571 346.385 271.571C346.069 271.571 345.792 271.648 345.554 271.801C345.315 271.952 345.129 272.151 344.995 272.398C344.865 272.642 344.798 272.911 344.795 273.203V274.111C344.795 274.492 344.865 274.818 345.004 275.091C345.143 275.361 345.338 275.568 345.588 275.713C345.838 275.855 346.13 275.926 346.466 275.926C346.69 275.926 346.893 275.895 347.075 275.833C347.257 275.767 347.414 275.672 347.548 275.547C347.681 275.422 347.782 275.267 347.85 275.083L349.291 275.244C349.2 275.625 349.027 275.958 348.771 276.242C348.518 276.523 348.194 276.742 347.799 276.898C347.404 277.051 346.953 277.128 346.444 277.128Z" fill="#3C3A3E"/>
<path d="M350.298 275.206H351.827C351.842 275.45 351.951 275.639 352.155 275.773C352.36 275.906 352.626 275.973 352.952 275.973C353.285 275.973 353.565 275.901 353.792 275.756C354.022 275.608 354.137 275.385 354.137 275.087C354.137 274.911 354.093 274.756 354.005 274.622C353.917 274.486 353.793 274.381 353.634 274.307C353.475 274.233 353.288 274.196 353.072 274.196H352.07V273.101H353.072C353.393 273.101 353.636 273.027 353.8 272.879C353.968 272.732 354.052 272.546 354.052 272.321C354.052 272.08 353.964 271.884 353.788 271.733C353.614 271.583 353.374 271.507 353.067 271.507C352.761 271.507 352.505 271.577 352.3 271.716C352.099 271.855 351.994 272.034 351.985 272.253H350.464C350.469 271.872 350.583 271.541 350.805 271.26C351.029 270.979 351.33 270.76 351.708 270.604C352.089 270.448 352.518 270.369 352.995 270.369C353.506 270.369 353.948 270.446 354.32 270.6C354.692 270.753 354.979 270.967 355.181 271.243C355.383 271.516 355.484 271.837 355.484 272.206C355.484 272.561 355.373 272.855 355.151 273.088C354.93 273.318 354.631 273.483 354.256 273.583V273.651C354.515 273.665 354.748 273.739 354.955 273.872C355.163 274.003 355.327 274.181 355.45 274.405C355.572 274.629 355.633 274.889 355.633 275.185C355.633 275.585 355.518 275.932 355.288 276.225C355.057 276.514 354.741 276.737 354.337 276.894C353.937 277.05 353.478 277.128 352.961 277.128C352.458 277.128 352.008 277.053 351.61 276.902C351.215 276.749 350.901 276.529 350.668 276.242C350.435 275.955 350.312 275.61 350.298 275.206Z" fill="#3C3A3E"/>
<path d="M361.729 277L359.266 268.273H360.966L362.538 274.686H362.619L364.298 268.273H365.845L367.528 274.69H367.605L369.178 268.273H370.878L368.415 277H366.855L365.108 270.877H365.04L363.288 277H361.729Z" fill="#3C3A3E"/>
<path d="M374.136 277.128C373.479 277.128 372.913 276.992 372.435 276.719C371.961 276.443 371.596 276.054 371.34 275.551C371.084 275.046 370.957 274.45 370.957 273.766C370.957 273.092 371.084 272.502 371.34 271.993C371.599 271.482 371.959 271.084 372.423 270.8C372.886 270.513 373.43 270.369 374.055 270.369C374.458 270.369 374.839 270.435 375.197 270.565C375.557 270.693 375.876 270.892 376.151 271.162C376.43 271.432 376.648 271.776 376.807 272.193C376.967 272.608 377.046 273.102 377.046 273.676V274.149H371.681V273.11H375.567C375.565 272.814 375.501 272.551 375.376 272.321C375.251 272.088 375.076 271.905 374.852 271.771C374.63 271.638 374.371 271.571 374.076 271.571C373.761 271.571 373.484 271.648 373.245 271.801C373.006 271.952 372.82 272.151 372.687 272.398C372.556 272.642 372.489 272.911 372.486 273.203V274.111C372.486 274.492 372.556 274.818 372.695 275.091C372.834 275.361 373.029 275.568 373.279 275.713C373.529 275.855 373.822 275.926 374.157 275.926C374.381 275.926 374.584 275.895 374.766 275.833C374.948 275.767 375.106 275.672 375.239 275.547C375.373 275.422 375.474 275.267 375.542 275.083L376.982 275.244C376.891 275.625 376.718 275.958 376.462 276.242C376.209 276.523 375.886 276.742 375.491 276.898C375.096 277.051 374.644 277.128 374.136 277.128Z" fill="#3C3A3E"/>
<path d="M378.419 277V268.273H379.962V271.537H380.026C380.105 271.378 380.218 271.209 380.363 271.03C380.507 270.848 380.703 270.693 380.951 270.565C381.198 270.435 381.513 270.369 381.897 270.369C382.402 270.369 382.858 270.499 383.265 270.757C383.674 271.013 383.997 271.392 384.236 271.895C384.478 272.395 384.598 273.009 384.598 273.736C384.598 274.455 384.48 275.065 384.245 275.568C384.009 276.071 383.688 276.455 383.282 276.719C382.875 276.983 382.415 277.115 381.901 277.115C381.526 277.115 381.215 277.053 380.968 276.928C380.72 276.803 380.522 276.652 380.371 276.476C380.223 276.297 380.108 276.128 380.026 275.969H379.936V277H378.419ZM379.932 273.727C379.932 274.151 379.992 274.521 380.111 274.84C380.233 275.158 380.408 275.406 380.635 275.585C380.865 275.762 381.144 275.85 381.47 275.85C381.811 275.85 382.097 275.759 382.327 275.577C382.557 275.392 382.73 275.141 382.847 274.823C382.966 274.502 383.026 274.137 383.026 273.727C383.026 273.321 382.968 272.96 382.851 272.645C382.735 272.33 382.561 272.083 382.331 271.904C382.101 271.725 381.814 271.635 381.47 271.635C381.141 271.635 380.861 271.722 380.631 271.895C380.401 272.068 380.226 272.311 380.107 272.624C379.99 272.936 379.932 273.304 379.932 273.727Z" fill="#3C3A3E"/>
<path fill-rule="evenodd" clip-rule="evenodd" d="M254.668 301.333C253.49 301.333 252.535 302.289 252.535 303.467C252.535 304.645 253.49 305.6 254.668 305.6H385.868C387.047 305.6 388.002 304.645 388.002 303.467C388.002 302.289 387.047 301.333 385.868 301.333H254.668ZM425.333 301.333C424.154 301.333 423.199 302.289 423.199 303.467C423.199 304.645 424.154 305.6 425.333 305.6H574.666C575.844 305.6 576.799 304.645 576.799 303.467C576.799 302.289 575.844 301.333 574.666 301.333H425.333Z" fill="#E6E6E6"/>
<rect x="567" y="272" width="10" height="4" rx="2" fill="#FCBDA7"/>
<circle cx="574" cy="274" r="3" fill="#F4774C"/>
<rect x="500" y="272" width="10" height="4" rx="2" fill="#FCBDA7"/>
<circle cx="507" cy="274" r="3" fill="#F4774C"/>
<path d="M459.574 276V270.182H461.801C462.221 270.182 462.571 270.248 462.849 270.381C463.13 270.511 463.339 270.69 463.477 270.918C463.617 271.145 463.687 271.403 463.687 271.69C463.687 271.927 463.642 272.13 463.551 272.298C463.46 272.465 463.338 272.6 463.185 272.705C463.031 272.809 462.86 272.884 462.67 272.929V272.986C462.877 272.997 463.075 273.061 463.264 273.176C463.455 273.29 463.612 273.451 463.733 273.659C463.854 273.867 463.915 274.119 463.915 274.415C463.915 274.716 463.842 274.987 463.696 275.227C463.55 275.466 463.33 275.654 463.037 275.793C462.743 275.931 462.374 276 461.929 276H459.574ZM460.628 275.119H461.761C462.144 275.119 462.419 275.046 462.588 274.901C462.758 274.753 462.844 274.563 462.844 274.332C462.844 274.16 462.801 274.005 462.716 273.867C462.631 273.726 462.509 273.617 462.352 273.537C462.195 273.456 462.007 273.415 461.79 273.415H460.628V275.119ZM460.628 272.656H461.67C461.852 272.656 462.016 272.623 462.162 272.557C462.308 272.489 462.422 272.393 462.506 272.27C462.591 272.145 462.633 271.997 462.633 271.827C462.633 271.601 462.554 271.416 462.395 271.27C462.238 271.124 462.004 271.051 461.693 271.051H460.628V272.656Z" fill="#838383"/>
<path d="M464.786 276V271.636H465.814V273.398H466.189L467.502 271.636H468.741L467.124 273.778L468.758 276H467.513L466.317 274.355H465.814V276H464.786Z" fill="#838383"/>
<path d="M469.04 276L469.034 275.153H469.185C469.298 275.153 469.394 275.128 469.471 275.077C469.549 275.026 469.614 274.94 469.665 274.821C469.716 274.7 469.756 274.537 469.784 274.332C469.812 274.128 469.832 273.873 469.844 273.568L469.92 271.636H473.102V276H472.108V272.48H470.855L470.787 273.886C470.77 274.25 470.729 274.565 470.665 274.832C470.602 275.098 470.513 275.316 470.398 275.489C470.284 275.661 470.141 275.79 469.969 275.875C469.796 275.958 469.593 276 469.358 276H469.04Z" fill="#838383"/>
<path d="M476.442 273.423V274.27H474.092V273.423H476.442ZM474.908 271.636V276H473.876V271.636H474.908ZM477.76 276.085C477.339 276.085 476.975 275.99 476.666 275.798C476.359 275.607 476.122 275.342 475.953 275.003C475.784 274.664 475.7 274.272 475.7 273.827C475.7 273.382 475.784 272.991 475.953 272.653C476.122 272.316 476.359 272.053 476.666 271.864C476.975 271.674 477.339 271.58 477.76 271.58C478.178 271.58 478.541 271.674 478.848 271.864C479.157 272.053 479.395 272.316 479.564 272.653C479.734 272.991 479.819 273.382 479.819 273.827C479.819 274.272 479.734 274.664 479.564 275.003C479.395 275.342 479.157 275.607 478.848 275.798C478.541 275.99 478.178 276.085 477.76 276.085ZM477.76 275.233C478.008 275.233 478.211 275.17 478.368 275.045C478.525 274.92 478.64 274.752 478.714 274.54C478.788 274.328 478.825 274.09 478.825 273.827C478.825 273.563 478.788 273.326 478.714 273.114C478.64 272.902 478.525 272.734 478.368 272.611C478.211 272.486 478.008 272.423 477.76 272.423C477.51 272.423 477.305 272.486 477.146 272.611C476.989 272.734 476.873 272.902 476.8 273.114C476.726 273.326 476.689 273.563 476.689 273.827C476.689 274.092 476.726 274.331 476.8 274.543C476.873 274.755 476.989 274.923 477.146 275.048C477.305 275.171 477.51 275.233 477.76 275.233Z" fill="#838383"/>
<path d="M484.376 271.636V276H483.388V271.636H484.376ZM483.913 273.608V274.449C483.801 274.498 483.675 274.543 483.533 274.582C483.392 274.62 483.244 274.651 483.087 274.673C482.931 274.696 482.776 274.707 482.621 274.707C482.037 274.707 481.576 274.577 481.237 274.315C480.9 274.052 480.731 273.642 480.731 273.085V271.631H481.714V273.085C481.714 273.273 481.747 273.423 481.814 273.537C481.88 273.651 481.98 273.734 482.115 273.787C482.249 273.838 482.418 273.864 482.621 273.864C482.848 273.864 483.064 273.841 483.268 273.795C483.473 273.75 483.688 273.688 483.913 273.608Z" fill="#838383"/>
<path d="M487.343 276.085C486.905 276.085 486.528 275.994 486.209 275.813C485.893 275.629 485.65 275.369 485.479 275.034C485.309 274.697 485.224 274.3 485.224 273.844C485.224 273.395 485.309 273.001 485.479 272.662C485.652 272.321 485.892 272.056 486.201 271.867C486.51 271.675 486.872 271.58 487.289 271.58C487.558 271.58 487.812 271.623 488.05 271.71C488.291 271.795 488.503 271.928 488.687 272.108C488.872 272.288 489.018 272.517 489.124 272.795C489.23 273.072 489.283 273.402 489.283 273.784V274.099H485.707V273.406H488.297C488.296 273.209 488.253 273.034 488.17 272.881C488.086 272.725 487.97 272.603 487.82 272.514C487.672 272.425 487.5 272.381 487.303 272.381C487.093 272.381 486.908 272.432 486.749 272.534C486.59 272.635 486.466 272.767 486.377 272.932C486.29 273.095 486.245 273.274 486.243 273.469V274.074C486.243 274.328 486.29 274.545 486.383 274.727C486.475 274.907 486.605 275.045 486.772 275.142C486.939 275.237 487.134 275.284 487.357 275.284C487.507 275.284 487.642 275.263 487.763 275.222C487.885 275.178 487.99 275.115 488.079 275.031C488.168 274.948 488.235 274.845 488.28 274.722L489.241 274.83C489.18 275.083 489.064 275.305 488.894 275.494C488.725 275.682 488.51 275.828 488.246 275.932C487.983 276.034 487.682 276.085 487.343 276.085ZM486.411 270.994C486.261 270.994 486.132 270.941 486.022 270.835C485.914 270.729 485.86 270.604 485.86 270.46C485.86 270.309 485.914 270.182 486.022 270.08C486.132 269.975 486.261 269.923 486.411 269.923C486.564 269.923 486.693 269.975 486.797 270.08C486.904 270.182 486.957 270.309 486.957 270.46C486.957 270.604 486.904 270.729 486.797 270.835C486.693 270.941 486.564 270.994 486.411 270.994ZM488.116 270.994C487.966 270.994 487.836 270.941 487.726 270.835C487.618 270.729 487.564 270.604 487.564 270.46C487.564 270.309 487.618 270.182 487.726 270.08C487.836 269.975 487.966 269.923 488.116 269.923C488.269 269.923 488.398 269.975 488.502 270.08C488.608 270.182 488.661 270.309 488.661 270.46C488.661 270.604 488.608 270.729 488.502 270.835C488.398 270.941 488.269 270.994 488.116 270.994Z" fill="#838383"/>
<path d="M493.15 273.392V274.236H490.827V273.392H493.15ZM491.145 271.636V276H490.153V271.636H491.145ZM493.824 271.636V276H492.835V271.636H493.824Z" fill="#838383"/>
<path d="M530.574 276V270.182H532.801C533.221 270.182 533.571 270.248 533.849 270.381C534.13 270.511 534.339 270.69 534.477 270.918C534.617 271.145 534.687 271.403 534.687 271.69C534.687 271.927 534.642 272.13 534.551 272.298C534.46 272.465 534.338 272.6 534.185 272.705C534.031 272.809 533.86 272.884 533.67 272.929V272.986C533.877 272.997 534.075 273.061 534.264 273.176C534.455 273.29 534.612 273.451 534.733 273.659C534.854 273.867 534.915 274.119 534.915 274.415C534.915 274.716 534.842 274.987 534.696 275.227C534.55 275.466 534.33 275.654 534.037 275.793C533.743 275.931 533.374 276 532.929 276H530.574ZM531.628 275.119H532.761C533.144 275.119 533.419 275.046 533.588 274.901C533.758 274.753 533.844 274.564 533.844 274.332C533.844 274.16 533.801 274.005 533.716 273.867C533.631 273.726 533.509 273.617 533.352 273.537C533.195 273.456 533.007 273.415 532.79 273.415H531.628V275.119ZM531.628 272.656H532.67C532.852 272.656 533.016 272.623 533.162 272.557C533.308 272.489 533.422 272.393 533.506 272.27C533.591 272.145 533.633 271.997 533.633 271.827C533.633 271.601 533.554 271.416 533.395 271.27C533.238 271.124 533.004 271.051 532.693 271.051H531.628V272.656Z" fill="#838383"/>
<path d="M537.469 276L537.464 275.153H537.614C537.728 275.153 537.823 275.128 537.901 275.077C537.979 275.026 538.043 274.94 538.094 274.821C538.145 274.7 538.185 274.537 538.214 274.332C538.242 274.128 538.262 273.873 538.273 273.568L538.35 271.636H541.532V276H540.538V272.48H539.285L539.216 273.886C539.199 274.25 539.159 274.565 539.094 274.832C539.032 275.098 538.943 275.316 538.827 275.489C538.714 275.661 538.571 275.79 538.398 275.875C538.226 275.958 538.022 276 537.788 276H537.469Z" fill="#838383"/>
<path d="M543.559 274.608L545.306 271.636H546.363V276H545.368V273.026L543.627 276H542.567V271.636H543.559V274.608Z" fill="#838383"/>
<path d="M550.416 273.392V274.236H548.092V273.392H550.416ZM548.41 271.636V276H547.419V271.636H548.41ZM551.089 271.636V276H550.101V271.636H551.089Z" fill="#838383"/>
<path d="M553.121 274.608L554.868 271.636H555.925V276H554.931V273.026L553.189 276H552.13V271.636H553.121V274.608Z" fill="#838383"/>
<path d="M557.973 274.608L559.72 271.636H560.777V276H559.783V273.026L558.041 276H556.981V271.636H557.973V274.608Z" fill="#838383"/>
<path d="M584.877 155.434C584.256 154.889 583.563 154.383 582.889 153.912C582.44 153.599 582.012 153.413 581.547 153.246C581.684 152.803 581.34 152.248 580.792 152.449C577.451 153.642 574.332 155.685 571.814 158.238C569.529 160.528 567.251 163.876 567.534 167.284C567.798 170.655 569.458 173.924 571.147 176.808C572.989 179.979 575.12 182.903 577.344 185.824C579.321 188.46 581.189 191.155 583.202 193.773C585.293 196.533 587.64 199.249 590.631 201.156C592.801 202.58 595.171 203.157 597.657 203.163C598.84 203.36 600.002 203.43 601.234 203.37C603.534 203.291 605.714 202.814 607.828 201.865C608.776 201.449 609.646 200.889 610.44 200.186C610.782 199.863 611.032 199.544 611.263 199.189C611.398 199.44 611.877 199.46 612.019 199.2C612.143 198.994 612.228 198.717 612.297 198.496C612.483 198.581 612.716 198.317 612.547 198.177C612.472 198.124 612.453 198.089 612.378 198.036C612.461 196.882 611.988 195.565 611.541 194.557C610.935 193.079 609.927 191.725 608.868 190.537C608.755 190.413 608.622 190.253 608.509 190.129C608.205 189.737 607.918 189.29 607.578 188.918C606.705 187.815 605.704 186.735 604.525 185.935C603.806 185.119 603.159 184.264 602.567 183.334C602.299 182.923 601.726 182.814 601.347 183.156C600.228 184.126 599.317 185.309 598.517 186.524C598.196 186.973 597.895 187.459 597.613 187.98C597.523 188.075 597.45 188.114 597.36 188.208C597.234 188.322 597.255 188.449 597.277 188.576C596.718 188.321 596.089 188.197 595.514 187.997C594.602 187.608 593.761 187.089 592.974 186.494C591.119 185.133 589.568 183.377 588.162 181.543C585.693 178.338 583.467 174.541 582.746 170.491C583.732 170.932 584.838 170.985 585.923 170.912C587.651 170.816 589.371 170.355 590.918 169.571C591.063 169.493 591.17 169.343 591.166 169.161C590.992 165.695 589.954 162.277 588.135 159.324C587.235 157.82 586.118 156.525 584.877 155.434ZM589.936 166.955C589.976 167.118 590 167.337 590.041 167.5C589.985 167.484 589.985 167.484 589.929 167.467C589.944 167.321 589.94 167.138 589.936 166.955ZM581.486 170.15C581.432 170.225 581.436 170.408 581.511 170.46C581.68 170.6 581.864 170.594 582.027 170.46C582.027 170.46 582.027 170.46 582.063 170.441C582.125 172.303 582.812 174.106 583.534 175.799C584.507 178.05 585.791 180.18 587.274 182.158C588.719 184.064 590.345 185.872 592.258 187.341C593.064 187.971 593.98 188.543 594.947 188.949C595.505 189.203 596.156 189.455 596.783 189.489C596.697 189.766 596.592 190.007 596.507 190.284C596.438 190.505 596.719 190.679 596.881 190.545C597.653 189.715 598.257 188.744 598.898 187.845C599.044 187.767 599.189 187.689 599.279 187.594C599.465 187.679 599.649 187.673 599.887 187.592C600.197 187.471 600.486 186.531 600.738 186.303C600.828 186.208 600.918 186.114 601.063 186.036C600.937 186.15 601.192 186.013 601.136 185.997C601.209 185.958 601.356 185.971 601.393 185.951C601.485 185.948 601.577 185.945 601.688 185.978C601.78 185.975 601.855 186.027 601.91 186.043C602.077 186.092 602.263 186.177 602.43 186.227C602.914 186.429 604.001 187.246 604.452 187.65C605.434 188.695 606.116 189.685 607.079 190.694C608.14 191.973 608.886 193.624 609.639 195.115C609.87 195.546 610.084 196.032 610.279 196.482C609.132 195.48 607.949 194.497 606.855 193.42L606.819 193.439C607.955 194.771 609.218 195.988 610.516 197.186C610.536 197.222 610.536 197.222 610.555 197.258C610.593 197.33 610.576 197.385 610.615 197.457C610.617 197.548 610.638 197.676 610.677 197.747C610.296 197.998 609.896 198.213 609.496 198.427C609.366 198.359 609.218 198.345 609.087 198.277C608.64 198.055 608.193 197.832 607.727 197.574C606.794 197.058 605.912 196.376 605.448 195.423C605.409 195.351 605.245 195.393 605.303 195.501C605.619 196.44 606.336 197.165 607.123 197.759C607.592 198.109 608.114 198.383 608.636 198.658C608.711 198.71 608.822 198.743 608.916 198.831C608.189 199.221 607.406 199.595 606.657 199.858C604.894 199.279 603.407 197.905 601.98 196.729C601.886 196.641 601.723 196.775 601.818 196.863C603.061 198.045 604.345 199.389 605.853 200.105C605.049 200.352 604.206 200.527 603.38 200.647C602.71 200.359 602.094 199.996 601.478 199.634C599.982 198.68 598.63 197.557 597.062 196.642L597.025 196.661C598.564 197.87 599.993 199.136 601.621 200.25C601.902 200.423 602.201 200.632 602.518 200.786C601.985 200.841 601.452 200.895 600.9 200.914C600.68 200.94 600.44 200.93 600.201 200.92C598.023 199.916 596.114 197.844 594.334 196.534C594.259 196.482 594.169 196.577 594.244 196.629C595.804 197.964 597.338 199.775 599.133 200.938C598.138 200.917 597.18 200.877 596.239 200.781C595.866 200.612 595.511 200.386 595.192 200.141C594.2 199.426 593.277 198.581 592.248 197.885C592.173 197.833 592.103 197.963 592.178 198.015C593.284 198.854 594.174 199.902 595.317 200.722C595.169 200.708 595.021 200.695 594.818 200.666C593.913 200.55 592.95 200.328 592.06 200.066C591.17 199.804 590.332 199.376 589.422 199.078C589.311 199.045 589.202 199.104 589.204 199.195C588.077 198.229 587.039 197.168 586.093 196.104C583.784 193.46 581.856 190.566 579.746 187.77C577.712 185.025 575.64 182.3 573.731 179.442C571.887 176.18 569.95 172.92 568.964 169.336C568.501 167.689 568.465 166.137 568.961 164.531C569.491 162.813 570.614 161.24 571.816 159.901C573.987 157.488 576.794 155.473 579.821 154.218C579.84 154.254 579.896 154.271 579.915 154.307C581.09 154.924 582.267 155.633 583.264 156.531C584.468 157.641 585.42 158.979 586.244 160.339C586.897 161.468 587.537 162.835 587.956 164.227C587.789 164.178 587.642 164.165 587.458 164.171C587.402 164.155 587.404 164.246 587.46 164.263C587.644 164.256 587.811 164.306 587.978 164.355C588.22 165.242 588.406 166.112 588.427 167.025C587.552 166.617 586.675 166.117 586.035 165.536L585.999 165.555C586.585 166.211 587.298 166.753 588.044 167.185C588.175 167.253 588.305 167.322 588.436 167.39C588.445 167.756 588.417 168.14 588.353 168.544C588.115 168.626 587.841 168.726 587.604 168.808C586.378 168.356 585.227 167.171 584.634 166.242L584.598 166.261C585.021 167.051 585.957 168.444 587.056 169.009C586.618 169.152 586.235 169.311 585.796 169.454C585.724 169.493 585.632 169.496 585.559 169.536C585.039 169.352 584.515 168.987 584.102 168.653C583.351 168.04 582.636 167.406 581.849 166.812C581.774 166.76 581.648 166.874 581.742 166.962C582.57 167.719 583.308 168.571 584.19 169.253C584.359 169.394 584.583 169.551 584.789 169.672C584.312 169.743 583.796 169.742 583.278 169.65C583.276 169.559 583.274 169.468 583.163 169.435C582.104 169.033 581.31 168.164 580.574 167.404C580.441 167.244 580.189 167.472 580.321 167.632C580.963 168.304 581.624 169.012 582.41 169.515C582.318 169.519 582.266 169.685 582.341 169.737C582.491 169.842 582.621 169.91 582.752 169.979C582.399 169.845 582.082 169.691 581.783 169.482C581.652 169.413 581.509 169.583 581.622 169.707C581.736 169.831 581.886 169.935 581.98 170.023C581.794 169.938 581.592 170 581.486 170.15ZM589.671 168.993C589.771 168.569 589.835 168.165 589.863 167.78C589.919 167.797 589.955 167.777 590.011 167.793C590.056 168.139 590.081 168.449 590.126 168.794C590.017 168.853 589.872 168.931 589.671 168.993Z" fill="#F4774C"/>
<path d="M561.965 191.677C558.464 191.373 555.103 191.095 551.745 190.805C551.075 190.75 550.603 190.71 549.774 190.504C549.158 190.356 547.856 190.016 548.154 189.39C548.453 188.899 548.729 188.588 549.903 188.571C552.934 188.541 555.946 188.962 558.936 189.363C561.577 189.719 563.585 190.03 565.903 190.483C566.985 190.694 567.261 191.335 566.864 192.267C566.507 193.104 566.156 193.97 565.648 194.724C563.83 197.453 561.949 200.123 560.085 202.826C559.856 203.163 559.697 203.44 559.367 203.802C558.962 204.237 558.692 204.576 558.199 204.276C557.727 203.996 557.962 203.258 558.154 202.911C559.695 199.97 562.975 193.957 563.077 193.597C561.152 194.18 559.359 194.679 557.591 195.279C545.299 199.515 533.416 204.589 522.893 212.418C514.563 218.615 507.114 225.69 500.767 233.905C500.389 234.388 499.965 234.844 499.548 235.276C498.991 235.869 498.596 236.079 498.268 235.813C497.72 235.23 497.995 234.731 498.18 234.314C498.537 233.477 499.077 232.706 499.597 231.955C506.666 221.987 515.674 214.053 525.769 207.269C536.129 200.305 547.624 195.938 559.534 192.532C560.169 192.376 561.703 191.844 561.965 191.677Z" fill="#F4774C"/>
<g filter="url(#filter2_d_1334_6984)">
<rect x="77" y="146" width="373.333" height="76.8" rx="9" fill="white"/>
</g>
<path d="M109.866 169.217H108.272C108.227 168.956 108.143 168.724 108.021 168.523C107.899 168.318 107.747 168.145 107.565 168.003C107.383 167.861 107.176 167.754 106.943 167.683C106.713 167.609 106.464 167.572 106.197 167.572C105.723 167.572 105.302 167.692 104.936 167.93C104.569 168.166 104.282 168.513 104.075 168.97C103.867 169.425 103.764 169.98 103.764 170.636C103.764 171.304 103.867 171.866 104.075 172.324C104.285 172.778 104.572 173.122 104.936 173.355C105.302 173.585 105.721 173.7 106.193 173.7C106.454 173.7 106.698 173.666 106.926 173.598C107.156 173.527 107.362 173.423 107.544 173.287C107.728 173.15 107.883 172.983 108.008 172.784C108.136 172.585 108.224 172.358 108.272 172.102L109.866 172.111C109.806 172.525 109.677 172.915 109.478 173.278C109.282 173.642 109.025 173.963 108.707 174.241C108.389 174.517 108.017 174.733 107.591 174.889C107.164 175.043 106.691 175.119 106.171 175.119C105.404 175.119 104.72 174.942 104.117 174.587C103.515 174.231 103.041 173.719 102.694 173.048C102.348 172.378 102.174 171.574 102.174 170.636C102.174 169.696 102.349 168.892 102.698 168.224C103.048 167.554 103.524 167.041 104.126 166.686C104.728 166.331 105.41 166.153 106.171 166.153C106.657 166.153 107.109 166.222 107.527 166.358C107.944 166.494 108.316 166.695 108.643 166.959C108.97 167.22 109.238 167.541 109.448 167.922C109.662 168.3 109.801 168.731 109.866 169.217Z" fill="#3C3A3E"/>
<path d="M114.101 175.128C113.462 175.128 112.908 174.987 112.439 174.706C111.97 174.425 111.606 174.031 111.348 173.525C111.092 173.02 110.964 172.429 110.964 171.753C110.964 171.077 111.092 170.484 111.348 169.976C111.606 169.467 111.97 169.072 112.439 168.791C112.908 168.51 113.462 168.369 114.101 168.369C114.74 168.369 115.294 168.51 115.763 168.791C116.231 169.072 116.594 169.467 116.849 169.976C117.108 170.484 117.237 171.077 117.237 171.753C117.237 172.429 117.108 173.02 116.849 173.525C116.594 174.031 116.231 174.425 115.763 174.706C115.294 174.987 114.74 175.128 114.101 175.128ZM114.109 173.892C114.456 173.892 114.746 173.797 114.979 173.606C115.212 173.413 115.385 173.155 115.499 172.831C115.615 172.507 115.673 172.146 115.673 171.748C115.673 171.348 115.615 170.986 115.499 170.662C115.385 170.335 115.212 170.075 114.979 169.882C114.746 169.689 114.456 169.592 114.109 169.592C113.754 169.592 113.459 169.689 113.223 169.882C112.99 170.075 112.815 170.335 112.699 170.662C112.585 170.986 112.528 171.348 112.528 171.748C112.528 172.146 112.585 172.507 112.699 172.831C112.815 173.155 112.99 173.413 113.223 173.606C113.459 173.797 113.754 173.892 114.109 173.892Z" fill="#3C3A3E"/>
<path d="M117.825 169.72V168.454H123.553V169.72H121.435V175H119.943V169.72H117.825Z" fill="#3C3A3E"/>
<path d="M124.781 177.454V168.454H126.298V169.537H126.387C126.467 169.378 126.579 169.209 126.724 169.03C126.869 168.848 127.065 168.693 127.312 168.565C127.559 168.435 127.875 168.369 128.258 168.369C128.764 168.369 129.22 168.498 129.626 168.757C130.035 169.013 130.359 169.392 130.598 169.895C130.839 170.395 130.96 171.008 130.96 171.736C130.96 172.454 130.842 173.065 130.606 173.568C130.37 174.071 130.049 174.454 129.643 174.719C129.237 174.983 128.777 175.115 128.262 175.115C127.887 175.115 127.576 175.052 127.329 174.927C127.082 174.802 126.883 174.652 126.733 174.476C126.585 174.297 126.47 174.128 126.387 173.969H126.323V177.454H124.781ZM126.294 171.727C126.294 172.15 126.353 172.521 126.473 172.839C126.595 173.158 126.769 173.406 126.997 173.585C127.227 173.761 127.505 173.849 127.832 173.849C128.173 173.849 128.458 173.758 128.689 173.577C128.919 173.392 129.092 173.141 129.208 172.822C129.328 172.501 129.387 172.136 129.387 171.727C129.387 171.321 129.329 170.96 129.213 170.645C129.096 170.329 128.923 170.082 128.693 169.903C128.463 169.724 128.176 169.635 127.832 169.635C127.502 169.635 127.223 169.722 126.992 169.895C126.762 170.068 126.588 170.311 126.468 170.623C126.352 170.936 126.294 171.304 126.294 171.727Z" fill="#3C3A3E"/>
<path d="M133.017 177.454C132.807 177.454 132.612 177.437 132.433 177.403C132.257 177.372 132.116 177.335 132.011 177.293L132.369 176.091C132.594 176.156 132.794 176.187 132.97 176.185C133.146 176.182 133.301 176.126 133.435 176.018C133.571 175.913 133.686 175.737 133.78 175.49L133.912 175.136L131.538 168.454H133.175L134.683 173.398H134.751L136.264 168.454H137.905L135.284 175.793C135.162 176.139 135 176.436 134.798 176.683C134.597 176.933 134.349 177.123 134.057 177.254C133.767 177.388 133.42 177.454 133.017 177.454Z" fill="#3C3A3E"/>
<path d="M137.854 176.9V173.73H138.374C138.513 173.622 138.629 173.476 138.723 173.291C138.817 173.104 138.893 172.883 138.953 172.631C139.016 172.375 139.067 172.089 139.106 171.774C139.146 171.456 139.182 171.114 139.213 170.747L139.401 168.454H144.131V173.73H145.145V176.9H143.653V175H139.371V176.9H137.854ZM139.959 173.73H142.656V169.699H140.739L140.636 170.747C140.579 171.44 140.504 172.034 140.41 172.528C140.317 173.023 140.166 173.423 139.959 173.73Z" fill="#3C3A3E"/>
<path d="M150.792 171.088V172.354H147.306V171.088H150.792ZM147.784 168.454V175H146.296V168.454H147.784ZM151.802 168.454V175H150.319V168.454H151.802Z" fill="#3C3A3E"/>
<path d="M154.85 172.912L157.471 168.454H159.056V175H157.565V170.538L154.952 175H153.363V168.454H154.85V172.912Z" fill="#3C3A3E"/>
<path d="M160.64 175V168.454H162.183V171.097H162.745L164.714 168.454H166.572L164.147 171.668L166.598 175H164.731L162.937 172.533H162.183V175H160.64Z" fill="#3C3A3E"/>
<path d="M170.449 175V168.454H175.976V175H174.489V169.72H171.923V175H170.449Z" fill="#3C3A3E"/>
<path d="M180.417 175.128C179.778 175.128 179.224 174.987 178.755 174.706C178.287 174.425 177.923 174.031 177.664 173.525C177.409 173.02 177.281 172.429 177.281 171.753C177.281 171.077 177.409 170.484 177.664 169.976C177.923 169.467 178.287 169.072 178.755 168.791C179.224 168.51 179.778 168.369 180.417 168.369C181.056 168.369 181.61 168.51 182.079 168.791C182.548 169.072 182.91 169.467 183.166 169.976C183.424 170.484 183.554 171.077 183.554 171.753C183.554 172.429 183.424 173.02 183.166 173.525C182.91 174.031 182.548 174.425 182.079 174.706C181.61 174.987 181.056 175.128 180.417 175.128ZM180.426 173.892C180.772 173.892 181.062 173.797 181.295 173.606C181.528 173.413 181.701 173.155 181.815 172.831C181.931 172.507 181.99 172.146 181.99 171.748C181.99 171.348 181.931 170.986 181.815 170.662C181.701 170.335 181.528 170.075 181.295 169.882C181.062 169.689 180.772 169.592 180.426 169.592C180.071 169.592 179.775 169.689 179.539 169.882C179.306 170.075 179.132 170.335 179.015 170.662C178.902 170.986 178.845 171.348 178.845 171.748C178.845 172.146 178.902 172.507 179.015 172.831C179.132 173.155 179.306 173.413 179.539 173.606C179.775 173.797 180.071 173.892 180.426 173.892Z" fill="#3C3A3E"/>
<path d="M192.651 168.672C192.611 168.3 192.443 168.01 192.148 167.802C191.855 167.595 191.474 167.491 191.006 167.491C190.676 167.491 190.393 167.541 190.158 167.641C189.922 167.74 189.741 167.875 189.616 168.045C189.491 168.216 189.428 168.41 189.425 168.629C189.425 168.811 189.466 168.969 189.548 169.102C189.633 169.236 189.749 169.349 189.893 169.443C190.038 169.534 190.199 169.611 190.375 169.673C190.551 169.736 190.729 169.788 190.908 169.831L191.726 170.035C192.055 170.112 192.372 170.216 192.676 170.347C192.983 170.477 193.257 170.642 193.499 170.841C193.743 171.04 193.936 171.28 194.078 171.561C194.22 171.842 194.291 172.172 194.291 172.55C194.291 173.061 194.16 173.511 193.899 173.9C193.638 174.287 193.26 174.589 192.766 174.808C192.274 175.024 191.679 175.132 190.98 175.132C190.301 175.132 189.712 175.027 189.212 174.817C188.714 174.606 188.325 174.3 188.044 173.896C187.766 173.493 187.615 173.001 187.592 172.422H189.148C189.17 172.726 189.264 172.979 189.429 173.18C189.594 173.382 189.808 173.533 190.072 173.632C190.339 173.731 190.638 173.781 190.967 173.781C191.311 173.781 191.612 173.73 191.871 173.628C192.132 173.523 192.337 173.378 192.484 173.193C192.632 173.006 192.707 172.787 192.71 172.537C192.707 172.31 192.641 172.122 192.51 171.974C192.379 171.824 192.196 171.699 191.96 171.599C191.727 171.497 191.454 171.406 191.142 171.327L190.149 171.071C189.43 170.886 188.862 170.606 188.445 170.231C188.03 169.854 187.822 169.352 187.822 168.727C187.822 168.213 187.962 167.763 188.24 167.376C188.521 166.99 188.903 166.69 189.386 166.477C189.869 166.261 190.416 166.153 191.027 166.153C191.646 166.153 192.189 166.261 192.655 166.477C193.124 166.69 193.491 166.987 193.758 167.368C194.026 167.746 194.163 168.18 194.172 168.672H192.651Z" fill="#3C3A3E"/>
<path d="M197.282 166.273V175H195.701V166.273H197.282Z" fill="#3C3A3E"/>
<path d="M198.994 175V166.273H202.266C202.937 166.273 203.499 166.398 203.954 166.648C204.411 166.898 204.756 167.241 204.989 167.679C205.225 168.114 205.343 168.608 205.343 169.162C205.343 169.722 205.225 170.219 204.989 170.653C204.754 171.088 204.405 171.43 203.945 171.68C203.485 171.927 202.918 172.051 202.245 172.051H200.076V170.751H202.032C202.424 170.751 202.745 170.683 202.995 170.547C203.245 170.41 203.43 170.223 203.549 169.984C203.671 169.746 203.732 169.472 203.732 169.162C203.732 168.852 203.671 168.579 203.549 168.344C203.43 168.108 203.244 167.925 202.991 167.794C202.741 167.66 202.418 167.594 202.023 167.594H200.575V175H198.994Z" fill="#3C3A3E"/>
<path fill-rule="evenodd" clip-rule="evenodd" d="M103.668 199.333C102.49 199.333 101.535 200.289 101.535 201.467C101.535 202.645 102.49 203.6 103.668 203.6H234.868C236.047 203.6 237.002 202.645 237.002 201.467C237.002 200.289 236.047 199.333 234.868 199.333H103.668ZM274.333 199.333C273.154 199.333 272.199 200.289 272.199 201.467C272.199 202.645 273.154 203.6 274.333 203.6H423.666C424.844 203.6 425.799 202.645 425.799 201.467C425.799 200.289 424.844 199.333 423.666 199.333H274.333Z" fill="#E6E6E6"/>
<rect x="416" y="170" width="10" height="4" rx="2" fill="#FCBDA7"/>
<circle cx="423" cy="172" r="3" fill="#F4774C"/>
<rect x="349" y="170" width="10" height="4" rx="2" fill="#FCBDA7"/>
<circle cx="356" cy="172" r="3" fill="#F4774C"/>
<path d="M308.574 174V168.182H310.801C311.221 168.182 311.571 168.248 311.849 168.381C312.13 168.511 312.339 168.69 312.477 168.918C312.617 169.145 312.687 169.403 312.687 169.69C312.687 169.927 312.642 170.13 312.551 170.298C312.46 170.465 312.338 170.6 312.185 170.705C312.031 170.809 311.86 170.884 311.67 170.929V170.986C311.877 170.997 312.075 171.061 312.264 171.176C312.455 171.29 312.612 171.451 312.733 171.659C312.854 171.867 312.915 172.119 312.915 172.415C312.915 172.716 312.842 172.987 312.696 173.227C312.55 173.466 312.33 173.654 312.037 173.793C311.743 173.931 311.374 174 310.929 174H308.574ZM309.628 173.119H310.761C311.144 173.119 311.419 173.046 311.588 172.901C311.758 172.753 311.844 172.563 311.844 172.332C311.844 172.16 311.801 172.005 311.716 171.867C311.631 171.726 311.509 171.617 311.352 171.537C311.195 171.456 311.007 171.415 310.79 171.415H309.628V173.119ZM309.628 170.656H310.67C310.852 170.656 311.016 170.623 311.162 170.557C311.308 170.489 311.422 170.393 311.506 170.27C311.591 170.145 311.633 169.997 311.633 169.827C311.633 169.601 311.554 169.416 311.395 169.27C311.238 169.124 311.004 169.051 310.693 169.051H309.628V170.656Z" fill="#838383"/>
<path d="M313.786 174V169.636H314.814V171.398H315.189L316.502 169.636H317.741L316.124 171.778L317.758 174H316.513L315.317 172.355H314.814V174H313.786Z" fill="#838383"/>
<path d="M318.04 174L318.034 173.153H318.185C318.298 173.153 318.394 173.128 318.471 173.077C318.549 173.026 318.614 172.94 318.665 172.821C318.716 172.7 318.756 172.537 318.784 172.332C318.812 172.128 318.832 171.873 318.844 171.568L318.92 169.636H322.102V174H321.108V170.48H319.855L319.787 171.886C319.77 172.25 319.729 172.565 319.665 172.832C319.602 173.098 319.513 173.316 319.398 173.489C319.284 173.661 319.141 173.79 318.969 173.875C318.796 173.958 318.593 174 318.358 174H318.04Z" fill="#838383"/>
<path d="M325.442 171.423V172.27H323.092V171.423H325.442ZM323.908 169.636V174H322.876V169.636H323.908ZM326.76 174.085C326.339 174.085 325.975 173.99 325.666 173.798C325.359 173.607 325.122 173.342 324.953 173.003C324.784 172.664 324.7 172.272 324.7 171.827C324.7 171.382 324.784 170.991 324.953 170.653C325.122 170.316 325.359 170.053 325.666 169.864C325.975 169.674 326.339 169.58 326.76 169.58C327.178 169.58 327.541 169.674 327.848 169.864C328.157 170.053 328.395 170.316 328.564 170.653C328.734 170.991 328.819 171.382 328.819 171.827C328.819 172.272 328.734 172.664 328.564 173.003C328.395 173.342 328.157 173.607 327.848 173.798C327.541 173.99 327.178 174.085 326.76 174.085ZM326.76 173.233C327.008 173.233 327.211 173.17 327.368 173.045C327.525 172.92 327.64 172.752 327.714 172.54C327.788 172.328 327.825 172.09 327.825 171.827C327.825 171.563 327.788 171.326 327.714 171.114C327.64 170.902 327.525 170.734 327.368 170.611C327.211 170.486 327.008 170.423 326.76 170.423C326.51 170.423 326.305 170.486 326.146 170.611C325.989 170.734 325.873 170.902 325.8 171.114C325.726 171.326 325.689 171.563 325.689 171.827C325.689 172.092 325.726 172.331 325.8 172.543C325.873 172.755 325.989 172.923 326.146 173.048C326.305 173.171 326.51 173.233 326.76 173.233Z" fill="#838383"/>
<path d="M333.376 169.636V174H332.388V169.636H333.376ZM332.913 171.608V172.449C332.801 172.498 332.675 172.543 332.533 172.582C332.392 172.62 332.244 172.651 332.087 172.673C331.931 172.696 331.776 172.707 331.621 172.707C331.037 172.707 330.576 172.577 330.237 172.315C329.9 172.052 329.731 171.642 329.731 171.085V169.631H330.714V171.085C330.714 171.273 330.747 171.423 330.814 171.537C330.88 171.651 330.98 171.734 331.115 171.787C331.249 171.838 331.418 171.864 331.621 171.864C331.848 171.864 332.064 171.841 332.268 171.795C332.473 171.75 332.688 171.688 332.913 171.608Z" fill="#838383"/>
<path d="M336.343 174.085C335.905 174.085 335.528 173.994 335.209 173.813C334.893 173.629 334.65 173.369 334.479 173.034C334.309 172.697 334.224 172.3 334.224 171.844C334.224 171.395 334.309 171.001 334.479 170.662C334.652 170.321 334.892 170.056 335.201 169.867C335.51 169.675 335.872 169.58 336.289 169.58C336.558 169.58 336.812 169.623 337.05 169.71C337.291 169.795 337.503 169.928 337.687 170.108C337.872 170.288 338.018 170.517 338.124 170.795C338.23 171.072 338.283 171.402 338.283 171.784V172.099H334.707V171.406H337.297C337.296 171.209 337.253 171.034 337.17 170.881C337.086 170.725 336.97 170.603 336.82 170.514C336.672 170.425 336.5 170.381 336.303 170.381C336.093 170.381 335.908 170.432 335.749 170.534C335.59 170.635 335.466 170.767 335.377 170.932C335.29 171.095 335.245 171.274 335.243 171.469V172.074C335.243 172.328 335.29 172.545 335.383 172.727C335.475 172.907 335.605 173.045 335.772 173.142C335.939 173.237 336.134 173.284 336.357 173.284C336.507 173.284 336.642 173.263 336.763 173.222C336.885 173.178 336.99 173.115 337.079 173.031C337.168 172.948 337.235 172.845 337.28 172.722L338.241 172.83C338.18 173.083 338.064 173.305 337.894 173.494C337.725 173.682 337.51 173.828 337.246 173.932C336.983 174.034 336.682 174.085 336.343 174.085ZM335.411 168.994C335.261 168.994 335.132 168.941 335.022 168.835C334.914 168.729 334.86 168.604 334.86 168.46C334.86 168.309 334.914 168.182 335.022 168.08C335.132 167.975 335.261 167.923 335.411 167.923C335.564 167.923 335.693 167.975 335.797 168.08C335.904 168.182 335.957 168.309 335.957 168.46C335.957 168.604 335.904 168.729 335.797 168.835C335.693 168.941 335.564 168.994 335.411 168.994ZM337.116 168.994C336.966 168.994 336.836 168.941 336.726 168.835C336.618 168.729 336.564 168.604 336.564 168.46C336.564 168.309 336.618 168.182 336.726 168.08C336.836 167.975 336.966 167.923 337.116 167.923C337.269 167.923 337.398 167.975 337.502 168.08C337.608 168.182 337.661 168.309 337.661 168.46C337.661 168.604 337.608 168.729 337.502 168.835C337.398 168.941 337.269 168.994 337.116 168.994Z" fill="#838383"/>
<path d="M342.15 171.392V172.236H339.827V171.392H342.15ZM340.145 169.636V174H339.153V169.636H340.145ZM342.824 169.636V174H341.835V169.636H342.824Z" fill="#838383"/>
<path d="M379.574 174V168.182H381.801C382.221 168.182 382.571 168.248 382.849 168.381C383.13 168.511 383.339 168.69 383.477 168.918C383.617 169.145 383.687 169.403 383.687 169.69C383.687 169.927 383.642 170.13 383.551 170.298C383.46 170.465 383.338 170.6 383.185 170.705C383.031 170.809 382.86 170.884 382.67 170.929V170.986C382.877 170.997 383.075 171.061 383.264 171.176C383.455 171.29 383.612 171.451 383.733 171.659C383.854 171.867 383.915 172.119 383.915 172.415C383.915 172.716 383.842 172.987 383.696 173.227C383.55 173.466 383.33 173.654 383.037 173.793C382.743 173.931 382.374 174 381.929 174H379.574ZM380.628 173.119H381.761C382.144 173.119 382.419 173.046 382.588 172.901C382.758 172.753 382.844 172.564 382.844 172.332C382.844 172.16 382.801 172.005 382.716 171.867C382.631 171.726 382.509 171.617 382.352 171.537C382.195 171.456 382.007 171.415 381.79 171.415H380.628V173.119ZM380.628 170.656H381.67C381.852 170.656 382.016 170.623 382.162 170.557C382.308 170.489 382.422 170.393 382.506 170.27C382.591 170.145 382.633 169.997 382.633 169.827C382.633 169.601 382.554 169.416 382.395 169.27C382.238 169.124 382.004 169.051 381.693 169.051H380.628V170.656Z" fill="#838383"/>
<path d="M386.469 174L386.464 173.153H386.614C386.728 173.153 386.823 173.128 386.901 173.077C386.979 173.026 387.043 172.94 387.094 172.821C387.145 172.7 387.185 172.537 387.214 172.332C387.242 172.128 387.262 171.873 387.273 171.568L387.35 169.636H390.532V174H389.538V170.48H388.285L388.216 171.886C388.199 172.25 388.159 172.565 388.094 172.832C388.032 173.098 387.943 173.316 387.827 173.489C387.714 173.661 387.571 173.79 387.398 173.875C387.226 173.958 387.022 174 386.788 174H386.469Z" fill="#838383"/>
<path d="M392.559 172.608L394.306 169.636H395.363V174H394.368V171.026L392.627 174H391.567V169.636H392.559V172.608Z" fill="#838383"/>
<path d="M399.416 171.392V172.236H397.092V171.392H399.416ZM397.41 169.636V174H396.419V169.636H397.41ZM400.089 169.636V174H399.101V169.636H400.089Z" fill="#838383"/>
<path d="M402.121 172.608L403.868 169.636H404.925V174H403.931V171.026L402.189 174H401.13V169.636H402.121V172.608Z" fill="#838383"/>
<path d="M406.973 172.608L408.72 169.636H409.777V174H408.783V171.026L407.041 174H405.981V169.636H406.973V172.608Z" fill="#838383"/>
<path d="M60.6599 274.312C60.644 273.433 60.5452 272.524 60.4321 271.657C60.3566 271.078 60.1964 270.608 59.9948 270.123C60.4417 269.913 60.6312 269.244 60.0799 268.958C56.7455 267.183 52.9009 266.194 49.0867 266.044C45.6472 265.887 41.3786 266.496 38.9001 269.162C36.4362 271.787 35.0546 275.437 33.9957 278.834C32.8214 282.557 32.0488 286.331 31.3447 290.175C30.6876 293.621 29.9061 297.024 29.2904 300.485C28.617 304.109 28.1633 307.903 28.807 311.625C29.242 314.353 30.4879 316.632 32.2656 318.593C32.9588 319.665 33.7368 320.629 34.668 321.556C36.379 323.309 38.3172 324.683 40.5798 325.665C41.5868 326.112 42.6516 326.396 43.774 326.517C44.2731 326.555 44.7037 326.523 45.1488 326.45C45.0478 326.736 45.3756 327.128 45.6819 327.052C45.9324 327.002 46.2117 326.871 46.4351 326.766C46.5017 326.973 46.8765 326.968 46.8658 326.734C46.8532 326.638 46.8676 326.597 46.855 326.5C47.8229 325.738 48.5207 324.421 48.9931 323.347C49.7216 321.811 50.0646 320.046 50.24 318.361C50.2563 318.183 50.287 317.964 50.3033 317.786C50.3936 317.266 50.5397 316.72 50.5886 316.185C50.8306 314.707 50.9627 313.145 50.747 311.643C50.8736 310.492 51.083 309.371 51.3897 308.238C51.5214 307.732 51.1955 307.204 50.655 307.151C49.0893 306.966 47.5056 307.097 45.9758 307.339C45.392 307.408 44.7937 307.519 44.1811 307.671C44.0424 307.668 43.9595 307.639 43.8207 307.636C43.6406 307.618 43.5559 307.726 43.4711 307.834C43.2714 307.212 42.9184 306.627 42.6628 306.031C42.3154 305.035 42.1212 304.001 42.0243 302.955C41.7658 300.519 42.0352 298.04 42.4703 295.618C43.2215 291.377 44.6141 286.903 47.2838 283.431C47.6437 284.524 48.3947 285.433 49.2304 286.233C50.5453 287.525 52.1412 288.548 53.8671 289.203C54.0328 289.261 54.2274 289.238 54.368 289.104C56.9707 286.482 58.916 283.214 59.9354 279.666C60.473 277.878 60.6917 276.07 60.6599 274.312ZM55.2212 286.554C55.122 286.703 54.967 286.878 54.8679 287.027C54.8409 286.972 54.8409 286.972 54.8139 286.916C54.94 286.823 55.0806 286.689 55.2212 286.554ZM46.6482 282.195C46.5509 282.207 46.4104 282.341 46.4229 282.438C46.4337 282.671 46.5705 282.812 46.7921 282.844C46.7921 282.844 46.7921 282.844 46.8336 282.859C45.4133 284.242 44.4865 286.076 43.6714 287.858C42.5985 290.238 41.8426 292.776 41.3497 295.361C40.8857 297.864 40.6289 300.44 40.8442 302.999C40.9266 304.085 41.1334 305.216 41.5078 306.268C41.7076 306.89 41.9758 307.582 42.399 308.099C42.1197 308.231 41.8548 308.321 41.5754 308.452C41.352 308.558 41.4167 308.902 41.6383 308.934C42.8455 308.947 44.042 308.725 45.2095 308.585C45.3753 308.644 45.541 308.702 45.6798 308.705C45.7463 308.913 45.8832 309.053 46.1174 309.182C46.4345 309.34 47.3818 308.892 47.7422 308.928C47.8809 308.931 48.0196 308.933 48.1854 308.992C48.0052 308.974 48.2952 309.077 48.2682 309.021C48.3511 309.05 48.4466 309.176 48.488 309.191C48.5564 309.261 48.6249 309.331 48.6789 309.442C48.7473 309.512 48.7599 309.609 48.7869 309.664C48.8679 309.831 48.9345 310.038 49.0155 310.205C49.2027 310.73 49.3395 312.171 49.3447 312.816C49.227 314.338 48.9367 315.585 48.8334 317.066C48.5877 318.818 47.823 320.589 47.19 322.251C47.0168 322.741 46.7878 323.258 46.5732 323.734C46.5396 322.113 46.4645 320.477 46.5282 318.844L46.4868 318.83C46.2536 320.679 46.2007 322.545 46.1892 324.426C46.1747 324.467 46.1747 324.467 46.1603 324.508C46.1315 324.59 46.0756 324.616 46.0467 324.698C45.9764 324.765 45.8917 324.873 45.8629 324.955C45.3926 324.835 44.9369 324.674 44.4811 324.513C44.4415 324.361 44.346 324.236 44.3065 324.084C44.1607 323.572 44.015 323.061 43.8836 322.509C43.621 321.405 43.5259 320.222 43.9425 319.173C43.9714 319.092 43.8201 318.992 43.7768 319.115C43.2648 320.038 43.2085 321.121 43.3054 322.167C43.3664 322.786 43.5248 323.394 43.6831 324.002C43.6957 324.098 43.7497 324.209 43.7478 324.346C42.9191 324.054 42.0634 323.706 41.3194 323.305C40.5111 321.503 40.5263 319.347 40.428 317.381C40.4298 317.244 40.2082 317.212 40.2064 317.349C40.1679 319.175 40.0302 321.149 40.5484 322.849C39.7775 322.393 39.0353 321.856 38.3491 321.292C38.0953 320.558 37.9388 319.813 37.7824 319.068C37.4605 317.208 37.3748 315.338 36.9701 313.448L36.9286 313.434C37.081 315.51 37.1091 317.543 37.4002 319.623C37.4649 319.968 37.5152 320.354 37.6214 320.713C37.1963 320.333 36.7712 319.953 36.3606 319.532C36.1823 319.377 36.0184 319.182 35.8545 318.986C35.0825 316.552 35.3448 313.564 35.0989 311.225C35.0863 311.128 34.9476 311.125 34.9601 311.222C35.0278 313.406 34.7025 315.912 35.0747 318.159C34.3777 317.361 33.7221 316.578 33.1224 315.769C32.9893 315.354 32.912 314.913 32.8761 314.486C32.727 313.192 32.7311 311.86 32.5406 310.552C32.5281 310.455 32.3749 310.493 32.3875 310.589C32.5202 312.062 32.3341 313.513 32.5083 315C32.4129 314.875 32.3174 314.749 32.195 314.568C31.6367 313.773 31.1218 312.856 30.6897 311.967C30.2576 311.079 29.9931 310.112 29.5754 309.183C29.5214 309.072 29.3971 309.028 29.3268 309.096C29.2788 307.515 29.3695 305.938 29.5286 304.431C29.9534 300.719 30.8484 297.126 31.5363 293.461C32.2367 289.892 32.8957 286.308 33.7762 282.756C35.0209 278.966 36.1971 275.105 38.31 271.758C39.2745 270.213 40.4695 269.072 42.0896 268.31C43.8214 267.496 45.8647 267.252 47.7799 267.238C51.2357 267.216 54.8336 267.98 57.9915 269.462C57.9771 269.503 58.0041 269.559 57.9896 269.599C58.3459 270.967 58.6318 272.401 58.6403 273.829C58.6306 275.573 58.2606 277.282 57.7808 278.905C57.3604 280.228 56.7437 281.712 55.9486 283.041C55.8676 282.874 55.7721 282.749 55.6353 282.608C55.6083 282.553 55.538 282.62 55.565 282.675C55.7019 282.816 55.7829 282.982 55.8639 283.149C55.3393 283.975 54.7876 284.746 54.0847 285.418C53.7788 284.436 53.5431 283.387 53.5417 282.467L53.5002 282.453C53.4044 283.384 53.4887 284.334 53.6848 285.23C53.7244 285.382 53.7639 285.534 53.8035 285.686C53.5223 285.955 53.1997 286.209 52.8357 286.448C52.6015 286.319 52.3259 286.176 52.0917 286.048C51.5679 284.759 51.6748 283.004 51.9816 281.871L51.9401 281.856C51.6227 282.755 51.1968 284.49 51.5405 285.761C51.1136 285.518 50.7136 285.331 50.2867 285.089C50.2038 285.059 50.1354 284.989 50.0525 284.96C49.8239 284.42 49.7359 283.745 49.7019 283.181C49.6464 282.15 49.6324 281.133 49.5354 280.088C49.5229 279.991 49.3427 279.974 49.3409 280.111C49.3386 281.306 49.1976 282.497 49.2927 283.68C49.3034 283.914 49.3411 284.203 49.3933 284.452C48.9952 284.127 48.626 283.721 48.3271 283.248C48.3974 283.181 48.4677 283.113 48.4137 283.002C47.9708 281.881 48.0848 280.633 48.1555 279.509C48.1862 279.29 47.8259 279.255 47.7952 279.474C47.7263 280.461 47.6431 281.489 47.8103 282.468C47.7418 282.397 47.5742 282.476 47.5868 282.573C47.612 282.765 47.6515 282.917 47.6911 283.069C47.5435 282.695 47.4374 282.336 47.3871 281.95C47.3475 281.798 47.1114 281.807 47.0952 281.985C47.0789 282.163 47.104 282.356 47.1022 282.494C47.0356 282.286 46.8428 282.172 46.6482 282.195ZM53.428 287.807C53.8334 287.582 54.1975 287.342 54.5201 287.089C54.5471 287.144 54.5885 287.159 54.6155 287.214C54.3758 287.497 54.1505 287.74 53.9108 288.023C53.7864 287.979 53.6207 287.921 53.428 287.807Z" fill="#F4774C"/>
<path d="M46.7968 254.25C43.4112 254.113 40.112 254.449 36.8264 255.125C35.0176 255.537 33.2817 256.084 31.5512 256.766C30.0879 257.369 28.155 258.06 27.1238 259.327C26.8026 259.749 27.1672 260.416 27.7017 260.258C29.3054 259.785 30.8144 258.635 32.3424 257.961C33.9379 257.284 35.5388 256.743 37.2127 256.336C40.3579 255.529 43.6543 255.125 46.886 254.792C47.1559 254.781 47.137 254.305 46.7968 254.25Z" fill="#F4774C"/>
<path d="M54.0842 250.486C52.0482 248.591 49.054 248.097 46.3406 247.864C42.7444 247.531 39.1752 247.877 35.6899 248.629C32.2045 249.381 28.8028 250.539 25.6956 252.298C24.3728 253.032 23.0581 253.971 21.9513 255.037C20.7771 256.106 20.3398 257.009 20.0593 258.451C20.008 258.862 20.4211 259.05 20.7478 258.764C21.1392 258.408 21.6008 258.117 21.9922 257.761C22.5159 257.331 22.8992 256.771 23.3527 256.276C24.3272 255.283 25.5151 254.554 26.7029 253.825C29.5429 252.145 32.6772 251.066 35.8899 250.257C41.8482 248.793 48.0632 248.681 53.8898 250.698C54.1004 250.894 54.2246 250.617 54.0842 250.486Z" fill="#F4774C"/>
<path d="M11.4264 257.296C13.1487 256.41 14.7334 255.461 16.1668 254.109C17.4058 252.969 18.572 251.696 19.811 250.557C22.3512 248.139 25.1885 246.39 28.528 245.371C30.7985 244.668 33.1527 244.369 35.4313 243.87C37.8449 243.365 40.2612 242.928 42.6829 242.627C47.529 242.093 52.4806 242.509 56.8358 244.925C57.2489 245.113 57.6322 244.553 57.2839 244.294C53.5036 241.037 48.606 240.279 43.749 240.54C41.2517 240.64 38.7679 241.079 36.2841 241.519C33.8003 241.959 31.2463 242.333 28.8354 242.906C20.9981 244.717 15.9017 250.849 10.6514 256.509C10.3977 256.928 10.962 257.519 11.4264 257.296Z" fill="#F4774C"/>
<path d="M153.882 247.453L155.275 244.443L155.971 242.938L156.168 242.579C156.156 242.498 156.238 242.487 156.226 242.406L156.296 242.313L156.47 241.792L156.829 240.831C156.829 240.831 157.456 239.419 158.082 238.006C158.628 236.606 159.161 235.124 159.103 235.297C160.02 233.017 160.96 231.477 160.299 235.539C160.217 236.13 160.067 236.813 159.997 237.484C159.962 237.819 159.928 238.155 159.812 238.502C159.696 238.85 159.649 239.104 159.522 239.371C159.185 240.493 158.976 241.35 158.976 241.35L158.547 242.403L158.373 242.924L158.245 243.191L158.176 243.283C158.176 243.283 158.118 243.457 158.048 243.55L157.851 243.908L156.389 247.011C156.134 247.544 155.96 248.065 155.623 248.609L154.765 250.137L153.128 253.182C152.525 254.178 151.91 255.093 151.307 256.089C150.344 258.045 148.94 259.817 147.559 261.751C146.944 262.666 146.155 263.523 145.459 264.449L143.266 267.078C142.477 267.935 141.687 268.792 140.98 269.638L139.831 270.877L139.262 271.537L138.682 272.117L136.118 274.468L134.876 275.638L133.541 276.739C126.695 282.763 119.059 287.908 110.867 292.058L110.089 292.418L109.312 292.777L107.757 293.496L104.647 294.934L101.42 296.141C100.318 296.547 99.2968 296.941 98.1944 297.347C96.0591 298.067 93.831 298.717 91.5913 299.286C89.3515 299.855 87.077 300.181 84.6979 300.357C83.5374 300.358 82.2144 300.382 81.0539 300.383C80.9727 300.395 80.8798 300.326 80.8798 300.326C80.7986 300.337 80.729 300.43 80.6477 300.442C80.5781 300.534 80.4273 300.639 80.4273 300.639L81.1236 300.869C82.1681 301.216 83.2126 301.562 84.3267 301.815C84.9302 301.977 85.4408 302.069 86.0443 302.23C86.0443 302.23 87.5182 302.68 89.0617 303.038C90.524 303.407 91.9979 303.857 91.9167 303.868C94.3538 304.676 95.8742 305.45 91.7659 305.13C90.5938 305.05 89.0851 304.935 87.9014 304.775C86.7177 304.614 85.8705 304.487 85.8705 304.487C85.1858 304.337 84.501 304.188 83.8047 303.957C82.6094 303.715 81.4836 303.38 80.4391 303.034L79.6499 302.734C79.4759 302.676 79.2205 302.63 79.0348 302.491L78.3385 302.261C77.4565 301.891 76.5745 301.522 75.6808 301.071L75.4139 300.944C75.4139 300.944 75.321 300.875 75.2398 300.886L75.3907 300.782L76.0869 300.434L77.5491 299.646C78.0133 299.414 78.5587 299.171 78.93 298.869L79.3014 298.568C79.371 298.476 79.5335 298.452 79.6031 298.36C81.1 297.236 82.3068 295.823 83.5832 294.317C84.3607 293.379 85.2193 292.429 86.1593 291.468C86.2405 291.456 86.3217 291.445 86.3217 291.445C87.8768 291.304 87.8769 292.462 87.7841 292.971C87.7957 293.052 87.7957 293.052 87.7261 293.145C86.8558 294.013 86.0668 294.87 85.2893 295.808C84.6511 296.561 84.0129 297.314 83.2935 298.078C83.7113 298.101 84.1174 298.043 84.6165 298.054C86.7518 297.913 88.9335 297.518 91.0224 297.053C93.1113 296.588 95.2581 295.95 97.3122 295.242C98.345 294.928 99.3662 294.534 100.387 294.14L103.451 292.956C104.472 292.562 105.482 292.087 106.491 291.611C107.501 291.136 108.522 290.741 109.532 290.266C117.423 286.324 124.768 281.468 131.406 275.722L132.659 274.633C133.1 274.239 133.472 273.938 133.913 273.544L136.315 271.216L137.475 270.058C137.835 269.676 138.194 269.293 138.624 268.818L140.852 266.432C141.652 265.656 142.267 264.742 142.975 263.896L145.099 261.36L147.036 258.685C147.651 257.77 148.359 256.925 148.893 256.021C150.03 254.123 151.272 252.374 152.316 250.406L153.882 247.453Z" fill="#F4774C"/>
</g>
<defs>
<filter id="filter0_d_1334_6984" x="96" y="-3" width="522" height="333" filterUnits="userSpaceOnUse" color-interpolation-filters="sRGB">
<feFlood flood-opacity="0" result="BackgroundImageFix"/>
<feColorMatrix in="SourceAlpha" type="matrix" values="0 0 0 0 0 0 0 0 0 0 0 0 0 0 0 0 0 0 127 0" result="hardAlpha"/>
<feOffset/>
<feGaussianBlur stdDeviation="15"/>
<feComposite in2="hardAlpha" operator="out"/>
<feColorMatrix type="matrix" values="0 0 0 0 0.956863 0 0 0 0 0.466667 0 0 0 0 0.298039 0 0 0 0.2 0"/>
<feBlend mode="normal" in2="BackgroundImageFix" result="effect1_dropShadow_1334_6984"/>
<feBlend mode="normal" in="SourceGraphic" in2="effect1_dropShadow_1334_6984" result="shape"/>
</filter>
<filter id="filter1_d_1334_6984" x="198" y="218" width="433.333" height="136.8" filterUnits="userSpaceOnUse" color-interpolation-filters="sRGB">
<feFlood flood-opacity="0" result="BackgroundImageFix"/>
<feColorMatrix in="SourceAlpha" type="matrix" values="0 0 0 0 0 0 0 0 0 0 0 0 0 0 0 0 0 0 127 0" result="hardAlpha"/>
<feOffset/>
<feGaussianBlur stdDeviation="15"/>
<feComposite in2="hardAlpha" operator="out"/>
<feColorMatrix type="matrix" values="0 0 0 0 0.956863 0 0 0 0 0.466667 0 0 0 0 0.298039 0 0 0 0.2 0"/>
<feBlend mode="normal" in2="BackgroundImageFix" result="effect1_dropShadow_1334_6984"/>
<feBlend mode="normal" in="SourceGraphic" in2="effect1_dropShadow_1334_6984" result="shape"/>
</filter>
<filter id="filter2_d_1334_6984" x="47" y="116" width="433.333" height="136.8" filterUnits="userSpaceOnUse" color-interpolation-filters="sRGB">
<feFlood flood-opacity="0" result="BackgroundImageFix"/>
<feColorMatrix in="SourceAlpha" type="matrix" values="0 0 0 0 0 0 0 0 0 0 0 0 0 0 0 0 0 0 127 0" result="hardAlpha"/>
<feOffset/>
<feGaussianBlur stdDeviation="15"/>
<feComposite in2="hardAlpha" operator="out"/>
<feColorMatrix type="matrix" values="0 0 0 0 0.956863 0 0 0 0 0.466667 0 0 0 0 0.298039 0 0 0 0.2 0"/>
<feBlend mode="normal" in2="BackgroundImageFix" result="effect1_dropShadow_1334_6984"/>
<feBlend mode="normal" in="SourceGraphic" in2="effect1_dropShadow_1334_6984" result="shape"/>
</filter>
<clipPath id="clip0_1334_6984">
<rect width="629" height="355" fill="white"/>
</clipPath>
</defs>
</svg>
