<svg width="430" height="240" viewBox="0 0 430 240" fill="none" xmlns="http://www.w3.org/2000/svg">
<g filter="url(#filter0_d_1361_815)">
<rect x="80" y="21" width="329.999" height="177.158" rx="4" fill="white"/>
</g>
<path d="M80 25C80 22.7909 81.7909 21 84 21H405.999C408.209 21 409.999 22.7909 409.999 25V47.4285H80V25Z" fill="#3C3A3E"/>
<path d="M80 47.0527H161.631V198.158H84C81.7909 198.158 80 196.367 80 194.158V47.0527Z" fill="#EDEDED"/>
<rect x="161.43" y="47.4287" width="145" height="1.42856" transform="rotate(90 161.43 47.4287)" fill="#CBCBCB"/>
<path fill-rule="evenodd" clip-rule="evenodd" d="M87.8554 63.8573C87.8554 63.0683 88.495 62.4287 89.284 62.4287H147.855C148.644 62.4287 149.284 63.0683 149.284 63.8573C149.284 64.6463 148.644 65.2858 147.855 65.2858H89.284C88.495 65.2858 87.8554 64.6463 87.8554 63.8573ZM87.8554 123.857C87.8554 123.068 88.495 122.429 89.284 122.429H147.855C148.644 122.429 149.284 123.068 149.284 123.857C149.284 124.646 148.644 125.286 147.855 125.286H89.284C88.495 125.286 87.8554 124.646 87.8554 123.857ZM89.284 73.1431C88.495 73.1431 87.8554 73.7827 87.8554 74.5716C87.8554 75.3606 88.495 76.0002 89.284 76.0002H132.141C132.93 76.0002 133.57 75.3606 133.57 74.5716C133.57 73.7827 132.93 73.1431 132.141 73.1431H89.284ZM87.8554 134.572C87.8554 133.783 88.495 133.143 89.284 133.143H132.141C132.93 133.143 133.57 133.783 133.57 134.572C133.57 135.361 132.93 136 132.141 136H89.284C88.495 136 87.8554 135.361 87.8554 134.572ZM89.284 83.8574C88.495 83.8574 87.8554 84.497 87.8554 85.286C87.8554 86.075 88.495 86.7146 89.284 86.7146H139.284C140.073 86.7146 140.713 86.075 140.713 85.286C140.713 84.497 140.073 83.8574 139.284 83.8574H89.284ZM87.8554 145.285C87.8554 144.497 88.495 143.857 89.284 143.857H139.284C140.073 143.857 140.713 144.497 140.713 145.285C140.713 146.074 140.073 146.714 139.284 146.714H89.284C88.495 146.714 87.8554 146.074 87.8554 145.285ZM89.284 94.5718C88.495 94.5718 87.8554 95.2114 87.8554 96.0003C87.8554 96.7893 88.495 97.4289 89.284 97.4289H122.141C122.93 97.4289 123.57 96.7893 123.57 96.0003C123.57 95.2114 122.93 94.5718 122.141 94.5718H89.284ZM87.8554 156C87.8554 155.211 88.495 154.571 89.284 154.571H122.141C122.93 154.571 123.57 155.211 123.57 156C123.57 156.789 122.93 157.428 122.141 157.428H89.284C88.495 157.428 87.8554 156.789 87.8554 156ZM89.284 182.429C88.495 182.429 87.8554 183.068 87.8554 183.857C87.8554 184.646 88.495 185.286 89.284 185.286H132.141C132.93 185.286 133.57 184.646 133.57 183.857C133.57 183.068 132.93 182.429 132.141 182.429H89.284ZM80.0012 110.286L161.43 110.286V110.786L80.0012 110.786V110.286ZM161.43 170.286L80.0012 170.286V170.786L161.43 170.786V170.286Z" fill="#CBCBCB"/>
<path d="M185.701 68.8573H184.496L186.691 62.6235H188.085L190.282 68.8573H189.077L187.412 63.9019H187.363L185.701 68.8573ZM185.741 66.4131H189.028V67.3202H185.741V66.4131Z" fill="#3C3A3E"/>
<path d="M191.055 68.8573V64.182H193.018C193.572 64.182 194.009 64.2926 194.33 64.5138C194.653 64.7349 194.814 65.0434 194.814 65.4391C194.814 65.7008 194.723 65.9149 194.54 66.0813C194.359 66.2457 194.113 66.3563 193.8 66.4131C194.046 66.4334 194.261 66.4953 194.446 66.5988C194.632 66.7023 194.778 66.8382 194.884 67.0066C194.989 67.1751 195.042 67.3689 195.042 67.588C195.042 67.8457 194.974 68.07 194.838 68.2607C194.704 68.4494 194.509 68.5965 194.251 68.7021C193.995 68.8055 193.685 68.8573 193.319 68.8573H191.055ZM192.087 67.9898H193.319C193.522 67.9898 193.682 67.9421 193.797 67.8467C193.913 67.7493 193.971 67.6174 193.971 67.451C193.971 67.2583 193.913 67.1071 193.797 66.9975C193.682 66.8859 193.522 66.8301 193.319 66.8301H192.087V67.9898ZM192.087 66.1178H193.039C193.19 66.1178 193.318 66.0965 193.426 66.0539C193.533 66.0093 193.616 65.9474 193.672 65.8683C193.729 65.7871 193.758 65.6907 193.758 65.5791C193.758 65.4188 193.692 65.293 193.56 65.2017C193.43 65.1103 193.249 65.0647 193.018 65.0647H192.087V66.1178Z" fill="#3C3A3E"/>
<path d="M195.696 65.086V64.182H199.787V65.086H198.274V68.8573H197.209V65.086H195.696Z" fill="#3C3A3E"/>
<path d="M202.511 68.9486C202.054 68.9486 201.659 68.8482 201.324 68.6473C200.989 68.4464 200.729 68.1653 200.545 67.8041C200.362 67.4429 200.271 67.0209 200.271 66.5379C200.271 66.0549 200.362 65.6319 200.545 65.2686C200.729 64.9054 200.989 64.6233 201.324 64.4224C201.659 64.2215 202.054 64.1211 202.511 64.1211C202.968 64.1211 203.363 64.2215 203.698 64.4224C204.033 64.6233 204.292 64.9054 204.474 65.2686C204.659 65.6319 204.751 66.0549 204.751 66.5379C204.751 67.0209 204.659 67.4429 204.474 67.8041C204.292 68.1653 204.033 68.4464 203.698 68.6473C203.363 68.8482 202.968 68.9486 202.511 68.9486ZM202.517 68.0659C202.765 68.0659 202.972 67.9979 203.138 67.862C203.304 67.724 203.428 67.5393 203.509 67.308C203.593 67.0767 203.634 66.8189 203.634 66.5349C203.634 66.2487 203.593 65.99 203.509 65.7587C203.428 65.5253 203.304 65.3396 203.138 65.2017C202.972 65.0637 202.765 64.9947 202.517 64.9947C202.263 64.9947 202.052 65.0637 201.884 65.2017C201.718 65.3396 201.593 65.5253 201.51 65.7587C201.428 65.99 201.388 66.2487 201.388 66.5349C201.388 66.8189 201.428 67.0767 201.51 67.308C201.593 67.5393 201.718 67.724 201.884 67.862C202.052 67.9979 202.263 68.0659 202.517 68.0659Z" fill="#3C3A3E"/>
<path d="M205.428 67.5758H206.52C206.531 67.7504 206.609 67.8853 206.755 67.9807C206.901 68.076 207.091 68.1237 207.324 68.1237C207.561 68.1237 207.761 68.072 207.924 67.9685C208.088 67.863 208.17 67.7037 208.17 67.4906C208.17 67.3648 208.139 67.2542 208.076 67.1588C208.013 67.0614 207.925 66.9864 207.811 66.9336C207.697 66.8808 207.563 66.8545 207.409 66.8545H206.694V66.0722H207.409C207.639 66.0722 207.812 66.0194 207.93 65.9139C208.049 65.8084 208.109 65.6755 208.109 65.5152C208.109 65.3427 208.046 65.2027 207.921 65.0951C207.797 64.9876 207.625 64.9338 207.406 64.9338C207.187 64.9338 207.004 64.9835 206.858 65.0829C206.714 65.1824 206.639 65.3102 206.633 65.4665H205.546C205.55 65.1946 205.632 64.9582 205.79 64.7573C205.95 64.5564 206.165 64.4001 206.435 64.2885C206.707 64.1769 207.014 64.1211 207.354 64.1211C207.72 64.1211 208.035 64.1759 208.301 64.2855C208.567 64.395 208.772 64.5482 208.916 64.7451C209.06 64.9399 209.132 65.1692 209.132 65.433C209.132 65.6866 209.053 65.8967 208.895 66.0631C208.736 66.2274 208.523 66.3451 208.255 66.4161V66.4648C208.44 66.475 208.606 66.5278 208.755 66.6231C208.903 66.7165 209.02 66.8433 209.108 67.0036C209.195 67.1639 209.239 67.3496 209.239 67.5606C209.239 67.8467 209.156 68.0943 208.992 68.3033C208.828 68.5103 208.601 68.6696 208.313 68.7812C208.027 68.8928 207.699 68.9486 207.33 68.9486C206.971 68.9486 206.649 68.8948 206.365 68.7873C206.083 68.6777 205.859 68.5204 205.693 68.3155C205.526 68.1105 205.438 67.864 205.428 67.5758Z" fill="#3C3A3E"/>
<path d="M210.106 68.8573V64.182H212.069C212.623 64.182 213.061 64.2926 213.381 64.5138C213.704 64.7349 213.865 65.0434 213.865 65.4391C213.865 65.7008 213.774 65.9149 213.591 66.0813C213.411 66.2457 213.164 66.3563 212.852 66.4131C213.097 66.4334 213.312 66.4953 213.497 66.5988C213.684 66.7023 213.83 66.8382 213.935 67.0066C214.041 67.1751 214.094 67.3689 214.094 67.588C214.094 67.8457 214.026 68.07 213.89 68.2607C213.756 68.4494 213.56 68.5965 213.302 68.7021C213.046 68.8055 212.736 68.8573 212.371 68.8573H210.106ZM211.138 67.9898H212.371C212.574 67.9898 212.733 67.9421 212.849 67.8467C212.964 67.7493 213.022 67.6174 213.022 67.451C213.022 67.2583 212.964 67.1071 212.849 66.9975C212.733 66.8859 212.574 66.8301 212.371 66.8301H211.138V67.9898ZM211.138 66.1178H212.091C212.241 66.1178 212.37 66.0965 212.477 66.0539C212.585 66.0093 212.667 65.9474 212.724 65.8683C212.781 65.7871 212.809 65.6907 212.809 65.5791C212.809 65.4188 212.743 65.293 212.611 65.2017C212.481 65.1103 212.301 65.0647 212.069 65.0647H211.138V66.1178Z" fill="#3C3A3E"/>
<path d="M217.042 68.9486C216.586 68.9486 216.19 68.8482 215.855 68.6473C215.52 68.4464 215.261 68.1653 215.076 67.8041C214.893 67.4429 214.802 67.0209 214.802 66.5379C214.802 66.0549 214.893 65.6319 215.076 65.2686C215.261 64.9054 215.52 64.6233 215.855 64.4224C216.19 64.2215 216.586 64.1211 217.042 64.1211C217.499 64.1211 217.894 64.2215 218.229 64.4224C218.564 64.6233 218.823 64.9054 219.005 65.2686C219.19 65.6319 219.282 66.0549 219.282 66.5379C219.282 67.0209 219.19 67.4429 219.005 67.8041C218.823 68.1653 218.564 68.4464 218.229 68.6473C217.894 68.8482 217.499 68.9486 217.042 68.9486ZM217.048 68.0659C217.296 68.0659 217.503 67.9979 217.669 67.862C217.836 67.724 217.959 67.5393 218.041 67.308C218.124 67.0767 218.165 66.8189 218.165 66.5349C218.165 66.2487 218.124 65.99 218.041 65.7587C217.959 65.5253 217.836 65.3396 217.669 65.2017C217.503 65.0637 217.296 64.9947 217.048 64.9947C216.795 64.9947 216.584 65.0637 216.415 65.2017C216.249 65.3396 216.124 65.5253 216.041 65.7587C215.96 65.99 215.919 66.2487 215.919 66.5349C215.919 66.8189 215.96 67.0767 216.041 67.308C216.124 67.5393 216.249 67.724 216.415 67.862C216.584 67.9979 216.795 68.0659 217.048 68.0659Z" fill="#3C3A3E"/>
<path d="M223.429 66.0631V66.9671H220.939V66.0631H223.429ZM221.28 64.182V68.8573H220.218V64.182H221.28ZM224.15 64.182V68.8573H223.091V64.182H224.15Z" fill="#3C3A3E"/>
<path d="M225.265 68.8573V64.182H226.367V66.0691H226.769L228.175 64.182H229.502L227.77 66.477L229.52 68.8573H228.187L226.906 67.0949H226.367V68.8573H225.265Z" fill="#3C3A3E"/>
<path d="M231.207 67.3658L233.079 64.182H234.212V68.8573H233.146V65.6704L231.28 68.8573H230.145V64.182H231.207V67.3658Z" fill="#3C3A3E"/>
<path d="M237.055 70.2148V67.9502H237.427C237.526 67.8731 237.609 67.7686 237.676 67.6367C237.743 67.5028 237.798 67.3455 237.841 67.1649C237.885 66.9823 237.922 66.7784 237.95 66.5531C237.979 66.3258 238.004 66.0813 238.026 65.8196L238.16 64.182H241.539V67.9502H242.263V70.2148H241.198V68.8573H238.139V70.2148H237.055ZM238.559 67.9502H240.486V65.0708H239.116L239.043 65.8196C239.002 66.3147 238.949 66.7388 238.882 67.0919C238.815 67.445 238.707 67.7311 238.559 67.9502Z" fill="#3C3A3E"/>
<path d="M242.763 68.8573L242.757 67.9502H242.919C243.04 67.9502 243.143 67.9228 243.226 67.868C243.309 67.8133 243.378 67.7219 243.433 67.5941C243.488 67.4642 243.53 67.2897 243.561 67.0706C243.591 66.8514 243.613 66.5785 243.625 66.2518L243.707 64.182H247.116V68.8573H246.051V65.086H244.708L244.635 66.5927C244.617 66.9823 244.573 67.3202 244.504 67.6063C244.437 67.8904 244.342 68.1247 244.218 68.3094C244.097 68.4941 243.943 68.632 243.759 68.7234C243.574 68.8126 243.356 68.8573 243.104 68.8573H242.763Z" fill="#3C3A3E"/>
<path d="M250.989 68.8573V65.0769H249.991C249.737 65.0769 249.542 65.1357 249.406 65.2534C249.27 65.3711 249.204 65.5172 249.206 65.6917C249.204 65.8662 249.267 66.0103 249.397 66.1239C249.527 66.2376 249.713 66.2944 249.954 66.2944H251.336V67.098H249.954C249.581 67.098 249.258 67.0391 248.986 66.9214C248.714 66.8037 248.505 66.6373 248.359 66.4222C248.213 66.2071 248.14 65.9555 248.14 65.6674C248.14 65.367 248.214 65.1063 248.362 64.8851C248.513 64.6619 248.726 64.4894 249.002 64.3676C249.28 64.2439 249.609 64.182 249.991 64.182H252.021V68.8573H250.989ZM247.97 68.8573L249.276 66.4588H250.362L249.053 68.8573H247.97Z" fill="#3C3A3E"/>
<path d="M255.257 68.8573V64.182H256.359V66.0691H256.76L258.167 64.182H259.494L257.762 66.477L259.512 68.8573H258.179L256.897 67.0949H256.359V68.8573H255.257Z" fill="#3C3A3E"/>
<path d="M261.984 68.9486C261.527 68.9486 261.131 68.8482 260.796 68.6473C260.462 68.4464 260.202 68.1653 260.017 67.8041C259.835 67.4429 259.743 67.0209 259.743 66.5379C259.743 66.0549 259.835 65.6319 260.017 65.2686C260.202 64.9054 260.462 64.6233 260.796 64.4224C261.131 64.2215 261.527 64.1211 261.984 64.1211C262.44 64.1211 262.836 64.2215 263.171 64.4224C263.505 64.6233 263.764 64.9054 263.947 65.2686C264.131 65.6319 264.224 66.0549 264.224 66.5379C264.224 67.0209 264.131 67.4429 263.947 67.8041C263.764 68.1653 263.505 68.4464 263.171 68.6473C262.836 68.8482 262.44 68.9486 261.984 68.9486ZM261.99 68.0659C262.237 68.0659 262.444 67.9979 262.611 67.862C262.777 67.724 262.901 67.5393 262.982 67.308C263.065 67.0767 263.107 66.8189 263.107 66.5349C263.107 66.2487 263.065 65.99 262.982 65.7587C262.901 65.5253 262.777 65.3396 262.611 65.2017C262.444 65.0637 262.237 64.9947 261.99 64.9947C261.736 64.9947 261.525 65.0637 261.357 65.2017C261.19 65.3396 261.065 65.5253 260.982 65.7587C260.901 65.99 260.86 66.2487 260.86 66.5349C260.86 66.8189 260.901 67.0767 260.982 67.308C261.065 67.5393 261.19 67.724 261.357 67.862C261.525 67.9979 261.736 68.0659 261.99 68.0659Z" fill="#3C3A3E"/>
<path d="M264.836 68.8573L264.83 67.9502H264.992C265.113 67.9502 265.216 67.9228 265.299 67.868C265.382 67.8133 265.451 67.7219 265.506 67.5941C265.561 67.4642 265.603 67.2897 265.634 67.0706C265.664 66.8514 265.686 66.5785 265.698 66.2518L265.78 64.182H269.189V68.8573H268.124V65.086H266.781L266.708 66.5927C266.69 66.9823 266.646 67.3202 266.577 67.6063C266.51 67.8904 266.415 68.1247 266.291 68.3094C266.17 68.4941 266.016 68.632 265.832 68.7234C265.647 68.8126 265.429 68.8573 265.177 68.8573H264.836Z" fill="#3C3A3E"/>
<path d="M269.976 68.8573L269.97 67.9502H270.131C270.253 67.9502 270.355 67.9228 270.439 67.868C270.522 67.8133 270.591 67.7219 270.646 67.5941C270.7 67.4642 270.743 67.2897 270.773 67.0706C270.804 66.8514 270.825 66.5785 270.837 66.2518L270.919 64.182H274.329V68.8573H273.263V65.086H271.921L271.848 66.5927C271.83 66.9823 271.786 67.3202 271.717 67.6063C271.65 67.8904 271.555 68.1247 271.431 68.3094C271.309 68.4941 271.156 68.632 270.971 68.7234C270.787 68.8126 270.568 68.8573 270.317 68.8573H269.976Z" fill="#3C3A3E"/>
<path d="M278.272 65.8074V66.7144H275.465V65.8074H278.272Z" fill="#3C3A3E"/>
<path d="M283.379 64.182V68.0355H284.094V70.3609H283.016V68.8573H279.431V64.182H280.493V67.9533H282.325V64.182H283.379Z" fill="#3C3A3E"/>
<path d="M287.017 68.9486C286.548 68.9486 286.143 68.8512 285.802 68.6564C285.463 68.4596 285.203 68.1816 285.02 67.8224C284.837 67.4612 284.746 67.0361 284.746 66.547C284.746 66.0661 284.837 65.644 285.02 65.2808C285.205 64.9155 285.462 64.6314 285.793 64.4285C286.124 64.2236 286.512 64.1211 286.959 64.1211C287.247 64.1211 287.519 64.1678 287.775 64.2611C288.032 64.3524 288.26 64.4945 288.456 64.6872C288.655 64.88 288.812 65.1256 288.925 65.4239C289.039 65.7201 289.096 66.0732 289.096 66.4831V66.821H285.263V66.0783H288.039C288.037 65.8672 287.992 65.6795 287.902 65.5152C287.813 65.3488 287.688 65.2179 287.528 65.1225C287.37 65.0271 287.185 64.9795 286.974 64.9795C286.749 64.9795 286.551 65.0342 286.381 65.1438C286.21 65.2514 286.077 65.3934 285.982 65.57C285.888 65.7445 285.841 65.9362 285.839 66.1452V66.7936C285.839 67.0655 285.888 67.2989 285.988 67.4937C286.087 67.6864 286.226 67.8346 286.405 67.9381C286.584 68.0395 286.793 68.0902 287.032 68.0902C287.192 68.0902 287.337 68.0679 287.467 68.0233C287.597 67.9766 287.71 67.9086 287.805 67.8193C287.9 67.7301 287.972 67.6195 288.021 67.4876L289.05 67.6032C288.985 67.8752 288.861 68.1126 288.679 68.3155C288.498 68.5164 288.267 68.6726 287.985 68.7842C287.703 68.8938 287.38 68.9486 287.017 68.9486Z" fill="#3C3A3E"/>
<path d="M293.239 66.0631V66.9671H290.749V66.0631H293.239ZM291.09 64.182V68.8573H290.028V64.182H291.09ZM293.96 64.182V68.8573H292.901V64.182H293.96Z" fill="#3C3A3E"/>
<path d="M294.552 65.086V64.182H298.643V65.086H297.13V68.8573H296.065V65.086H294.552Z" fill="#3C3A3E"/>
<path d="M299.52 70.6105V64.182H300.604V64.9551H300.668C300.724 64.8415 300.805 64.7207 300.908 64.5929C301.011 64.463 301.152 64.3524 301.328 64.2611C301.505 64.1678 301.73 64.1211 302.004 64.1211C302.365 64.1211 302.691 64.2134 302.981 64.3981C303.273 64.5807 303.504 64.8516 303.675 65.2108C303.847 65.5679 303.934 66.0062 303.934 66.5257C303.934 67.0391 303.849 67.4754 303.681 67.8346C303.512 68.1937 303.283 68.4677 302.993 68.6564C302.703 68.8451 302.374 68.9395 302.007 68.9395C301.739 68.9395 301.517 68.8948 301.34 68.8055C301.164 68.7163 301.022 68.6087 300.914 68.4829C300.809 68.3551 300.726 68.2343 300.668 68.1207H300.622V70.6105H299.52ZM300.601 66.5196C300.601 66.822 300.643 67.0868 300.728 67.3141C300.816 67.5413 300.94 67.7189 301.103 67.8467C301.267 67.9726 301.466 68.0355 301.699 68.0355C301.943 68.0355 302.147 67.9705 302.311 67.8407C302.476 67.7088 302.599 67.5292 302.683 67.3019C302.768 67.0726 302.81 66.8118 302.81 66.5196C302.81 66.2295 302.769 65.9717 302.686 65.7465C302.602 65.5213 302.479 65.3447 302.314 65.2169C302.15 65.089 301.945 65.0251 301.699 65.0251C301.464 65.0251 301.264 65.087 301.1 65.2108C300.935 65.3346 300.811 65.5081 300.725 65.7313C300.642 65.9545 300.601 66.2173 300.601 66.5196Z" fill="#3C3A3E"/>
<path d="M306.223 68.9517C305.926 68.9517 305.659 68.8989 305.422 68.7934C305.187 68.6858 305 68.5275 304.862 68.3185C304.726 68.1095 304.658 67.8518 304.658 67.5454C304.658 67.2816 304.707 67.0635 304.804 66.891C304.901 66.7185 305.034 66.5805 305.203 66.477C305.371 66.3735 305.561 66.2954 305.772 66.2426C305.985 66.1879 306.205 66.1483 306.433 66.1239C306.706 66.0955 306.929 66.0702 307.099 66.0478C307.27 66.0235 307.393 65.987 307.47 65.9383C307.55 65.8875 307.589 65.8094 307.589 65.7039V65.6856C307.589 65.4563 307.521 65.2788 307.385 65.153C307.249 65.0271 307.053 64.9642 306.798 64.9642C306.528 64.9642 306.314 65.0231 306.156 65.1408C305.999 65.2585 305.894 65.3975 305.839 65.5578L304.81 65.4117C304.891 65.1276 305.025 64.8902 305.212 64.6994C305.399 64.5066 305.627 64.3626 305.897 64.2672C306.167 64.1698 306.465 64.1211 306.792 64.1211C307.017 64.1211 307.241 64.1475 307.464 64.2002C307.688 64.253 307.892 64.3403 308.076 64.462C308.261 64.5817 308.409 64.7451 308.521 64.9521C308.634 65.159 308.691 65.4178 308.691 65.7282V68.8573H307.632V68.215H307.595C307.528 68.3449 307.434 68.4667 307.312 68.5803C307.192 68.6919 307.041 68.7822 306.859 68.8512C306.678 68.9182 306.466 68.9517 306.223 68.9517ZM306.509 68.142C306.73 68.142 306.922 68.0984 307.084 68.0111C307.246 67.9218 307.371 67.8041 307.458 67.658C307.548 67.5119 307.592 67.3526 307.592 67.1801V66.6292C307.558 66.6576 307.499 66.684 307.416 66.7084C307.335 66.7327 307.243 66.754 307.142 66.7723C307.04 66.7905 306.94 66.8068 306.84 66.821C306.741 66.8352 306.655 66.8474 306.582 66.8575C306.417 66.8798 306.27 66.9163 306.14 66.9671C306.01 67.0178 305.908 67.0888 305.833 67.1801C305.758 67.2694 305.72 67.3851 305.72 67.5271C305.72 67.7301 305.794 67.8833 305.942 67.9868C306.091 68.0902 306.279 68.142 306.509 68.142Z" fill="#3C3A3E"/>
<path fill-rule="evenodd" clip-rule="evenodd" d="M184.285 76.7144H387.142V75.7144H184.285V76.7144ZM184.285 91.7147C184.285 90.9257 184.925 90.2861 185.714 90.2861H245.714C246.503 90.2861 247.142 90.9257 247.142 91.7147C247.142 92.5037 246.503 93.1433 245.714 93.1433H185.714C184.925 93.1433 184.285 92.5037 184.285 91.7147ZM184.285 128.5C184.285 127.514 185.085 126.714 186.071 126.714H245.356C246.343 126.714 247.142 127.514 247.142 128.5C247.142 129.486 246.343 130.286 245.356 130.286H186.071C185.085 130.286 184.285 129.486 184.285 128.5ZM185.714 145.286C184.925 145.286 184.285 145.925 184.285 146.714C184.285 147.503 184.925 148.143 185.714 148.143H245.714C246.503 148.143 247.142 147.503 247.142 146.714C247.142 145.925 246.503 145.286 245.714 145.286H185.714ZM184.285 110.286C184.285 109.497 184.925 108.857 185.714 108.857H245.714C246.503 108.857 247.142 109.497 247.142 110.286C247.142 111.075 246.503 111.714 245.714 111.714H185.714C184.925 111.714 184.285 111.075 184.285 110.286ZM259.641 126.714C258.655 126.714 257.855 127.514 257.855 128.5C257.855 129.486 258.655 130.286 259.641 130.286H281.784C282.77 130.286 283.57 129.486 283.57 128.5C283.57 127.514 282.77 126.714 281.784 126.714H259.641ZM257.855 146.714C257.855 145.925 258.495 145.286 259.284 145.286H282.141C282.93 145.286 283.57 145.925 283.57 146.714C283.57 147.503 282.93 148.143 282.141 148.143H259.284C258.495 148.143 257.855 147.503 257.855 146.714ZM259.284 90.2861C258.495 90.2861 257.855 90.9257 257.855 91.7147C257.855 92.5037 258.495 93.1433 259.284 93.1433H385.712C386.501 93.1433 387.141 92.5037 387.141 91.7147C387.141 90.9257 386.501 90.2861 385.712 90.2861H259.284ZM257.855 110.286C257.855 109.497 258.495 108.857 259.284 108.857H385.712C386.501 108.857 387.141 109.497 387.141 110.286C387.141 111.075 386.501 111.715 385.712 111.715H259.284C258.495 111.715 257.855 111.075 257.855 110.286ZM293.211 126.714C292.225 126.714 291.426 127.514 291.426 128.5C291.426 129.486 292.225 130.286 293.211 130.286H385.354C386.34 130.286 387.14 129.486 387.14 128.5C387.14 127.514 386.34 126.714 385.354 126.714H293.211ZM291.426 146.714C291.426 145.925 292.065 145.286 292.854 145.286H385.711C386.5 145.286 387.14 145.925 387.14 146.714C387.14 147.503 386.5 148.143 385.711 148.143H292.854C292.065 148.143 291.426 147.503 291.426 146.714ZM387.142 101H184.285V100.5H387.142V101ZM184.285 119.571H387.142V119.071H184.285V119.571ZM387.142 137.429H184.285V136.929H387.142V137.429ZM184.285 156H387.142V155.5H184.285V156Z" fill="#E4E4E4"/>
<path fill-rule="evenodd" clip-rule="evenodd" d="M99.3591 36.2866C99.3591 38.1895 98.2487 39.1419 96.0278 39.144H91.4297C91.4297 37.312 94.2672 37.32 95.4916 37.3234L95.6334 37.3237C96.5517 37.3237 97.0098 36.911 97.0078 36.0854C97.0078 35.2558 96.5507 34.8471 95.6334 34.8471H93.0401V33.0454H95.6125C96.5297 33.0454 96.9839 32.6461 96.9839 31.8536C96.9839 31.0611 96.5238 30.6772 95.6125 30.6772C95.4667 30.6772 95.3013 30.6815 95.1227 30.6862C93.6989 30.7233 91.4297 30.7824 91.4297 28.8569H95.6633C96.8823 28.8569 97.7318 29.0128 98.2118 29.3244C98.5726 29.5558 98.8668 29.8832 99.0638 30.2725C99.2609 30.6618 99.3536 31.0988 99.3322 31.5378C99.3508 32.0581 99.2183 32.5721 98.952 33.0136C98.6857 33.455 98.2978 33.8037 97.8384 34.0144C98.8482 34.4602 99.3522 35.2238 99.3502 36.3052L99.3591 36.2866ZM129.428 31.6588C130.303 31.8184 131.091 32.3035 131.645 33.023C132.199 33.7425 132.48 34.6468 132.436 35.566C132.392 36.4853 132.026 37.3562 131.405 38.0151C130.785 38.6741 129.954 39.0757 129.068 39.1445C128.183 39.2134 127.303 38.9447 126.595 38.389C125.887 37.8332 125.399 37.0287 125.223 36.1266C125.047 35.2245 125.195 34.2868 125.639 33.4897C126.083 32.6927 126.793 32.0911 127.635 31.7981C128.212 31.5977 128.829 31.5498 129.428 31.6588ZM107.683 37.0422C107.683 38.4539 106.763 39.1587 104.923 39.1566H100.465V31.6216H104.648C105.64 31.6216 106.336 31.7424 106.739 31.9776C107.034 32.1359 107.279 32.3776 107.446 32.6746C107.613 32.9717 107.695 33.3119 107.683 33.6555C107.688 34.0102 107.596 34.359 107.416 34.6608C107.236 34.9625 106.976 35.2045 106.667 35.3582C106.983 35.4952 107.25 35.7293 107.434 36.0287C107.617 36.3282 107.707 36.6787 107.692 37.0329L107.683 37.0422ZM105.628 33.8784C105.628 33.4048 105.308 33.1664 104.666 33.1664H102.386V34.6121H104.666C105.308 34.6121 105.628 34.3675 105.628 33.8784ZM105.628 36.8782C105.628 36.3859 105.311 36.1414 104.678 36.1414H102.386V37.6149H104.692C105.326 37.6149 105.643 37.3673 105.643 36.8782H105.628ZM124.295 39.1566H122.383V36.1692H119.622V39.1566H117.704V31.6216H119.622V34.5099H122.383V31.6216H124.295V39.1566ZM140.71 39.1566H138.128L135.188 35.5006V39.1566H133.27V31.6216H135.188V35.2405L138.281 31.6216H140.728L137.348 35.3086L140.728 39.1566H140.71ZM129.326 33.3862C129.064 33.3007 128.788 33.2719 128.515 33.3018C128.242 33.3317 127.977 33.4195 127.738 33.5598C127.499 33.7001 127.291 33.8899 127.125 34.1173C126.96 34.3448 126.842 34.605 126.778 34.8819C126.714 35.1588 126.706 35.4463 126.754 35.7266C126.802 36.0069 126.905 36.2739 127.057 36.5111C127.209 36.7483 127.406 36.9506 127.637 37.1054C127.867 37.2601 128.126 37.364 128.397 37.4106C128.694 37.4723 129 37.4649 129.293 37.389C129.721 37.277 130.102 37.0216 130.375 36.6626C130.649 36.3035 130.8 35.8609 130.805 35.4035C130.811 34.9462 130.67 34.4998 130.405 34.1339C130.141 33.7679 129.766 33.5029 129.341 33.38L129.326 33.3862ZM113.575 33.2717C114.029 33.5006 114.394 33.8822 114.612 34.3542C114.83 34.8261 114.886 35.3606 114.773 35.8702C114.659 36.3799 114.383 36.8347 113.988 37.1603C113.593 37.486 113.103 37.6633 112.598 37.6633C112.093 37.6633 111.603 37.486 111.208 37.1603C110.813 36.8347 110.537 36.3799 110.423 35.8702C110.31 35.3606 110.367 34.8261 110.584 34.3542C110.802 33.8822 111.167 33.5006 111.621 33.2717V31.2563C110.655 31.5036 109.81 32.1087 109.246 32.9572C108.681 33.8058 108.435 34.8392 108.556 35.8625C108.676 36.8857 109.153 37.8279 109.898 38.5113C110.643 39.1947 111.603 39.572 112.598 39.572C113.593 39.572 114.553 39.1947 115.298 38.5113C116.043 37.8279 116.52 36.8857 116.64 35.8625C116.761 34.8392 116.515 33.8058 115.951 32.9572C115.386 32.1087 114.541 31.5036 113.575 31.2563V33.2717ZM111.919 36.4348C112.203 36.628 112.55 36.6971 112.883 36.6271C113.135 36.5783 113.367 36.4531 113.55 36.2672C113.733 36.0814 113.858 35.8433 113.91 35.5834C113.962 35.3234 113.938 35.0534 113.842 34.8076C113.745 34.5618 113.58 34.3514 113.367 34.2031C113.238 34.1127 113.095 34.0476 112.943 34.0112V31.126H112.345V34.0112C112.013 34.088 111.724 34.2974 111.54 34.594C111.357 34.8906 111.293 35.2503 111.364 35.595C111.435 35.9397 111.634 36.2415 111.919 36.4348Z" fill="white"/>
<path d="M42.2532 144.658C42.2431 144.096 42.1803 143.516 42.1082 142.962C42.0602 142.593 41.9582 142.293 41.8298 141.983C42.1143 141.849 42.2349 141.422 41.884 141.239C39.7614 140.106 37.3139 139.475 34.8858 139.378C32.6962 139.279 29.9788 139.667 28.401 141.369C26.8325 143.045 25.953 145.376 25.2789 147.545C24.5313 149.922 24.0395 152.332 23.5913 154.786C23.1729 156.986 22.6755 159.159 22.2835 161.369C21.8548 163.683 21.566 166.106 21.9758 168.482C22.2527 170.224 23.0459 171.679 24.1775 172.931C24.6188 173.615 25.1141 174.231 25.7069 174.823C26.7961 175.942 28.0299 176.819 29.4703 177.446C30.1114 177.732 30.7892 177.913 31.5037 177.99C31.8214 178.014 32.0956 177.994 32.3789 177.948C32.3146 178.13 32.5233 178.38 32.7183 178.332C32.8777 178.3 33.0555 178.216 33.1978 178.149C33.2402 178.282 33.4788 178.278 33.4719 178.129C33.4639 178.067 33.4731 178.041 33.4651 177.98C34.0812 177.493 34.5254 176.652 34.8262 175.966C35.29 174.985 35.5083 173.859 35.62 172.783C35.6303 172.669 35.6499 172.529 35.6602 172.416C35.7177 172.084 35.8108 171.735 35.8419 171.394C35.9959 170.45 36.08 169.452 35.9427 168.494C36.0233 167.759 36.1566 167.043 36.3519 166.319C36.4357 165.997 36.2282 165.659 35.8842 165.625C34.8875 165.507 33.8792 165.591 32.9054 165.745C32.5337 165.79 32.1529 165.86 31.7629 165.957C31.6746 165.955 31.6218 165.937 31.5335 165.935C31.4188 165.923 31.3649 165.992 31.3109 166.061C31.1837 165.664 30.9591 165.291 30.7963 164.91C30.5752 164.274 30.4516 163.614 30.3899 162.946C30.2253 161.391 30.3968 159.808 30.6738 158.262C31.152 155.554 32.0385 152.697 33.738 150.48C33.9672 151.178 34.4453 151.758 34.9773 152.269C35.8143 153.094 36.8303 153.747 37.9289 154.166C38.0345 154.203 38.1583 154.188 38.2478 154.102C39.9047 152.428 41.1431 150.342 41.792 148.076C42.1342 146.935 42.2735 145.78 42.2532 144.658ZM38.791 152.474C38.7278 152.569 38.6292 152.681 38.566 152.776C38.5489 152.741 38.5489 152.741 38.5317 152.705C38.612 152.646 38.7015 152.56 38.791 152.474ZM33.3335 149.691C33.2715 149.699 33.182 149.784 33.19 149.846C33.1968 149.995 33.284 150.085 33.4251 150.105C33.4251 150.105 33.4251 150.105 33.4514 150.115C32.5473 150.998 31.9573 152.169 31.4384 153.307C30.7554 154.826 30.2742 156.447 29.9604 158.097C29.6651 159.695 29.5016 161.34 29.6386 162.974C29.6911 163.668 29.8227 164.39 30.0611 165.061C30.1882 165.459 30.359 165.901 30.6284 166.231C30.4506 166.315 30.2819 166.372 30.1041 166.456C29.9619 166.523 30.0031 166.743 30.1442 166.764C30.9126 166.772 31.6743 166.63 32.4176 166.541C32.5231 166.579 32.6286 166.616 32.7169 166.618C32.7593 166.75 32.8465 166.84 32.9955 166.922C33.1974 167.023 33.8005 166.737 34.0298 166.76C34.1182 166.761 34.2065 166.763 34.312 166.801C34.1973 166.79 34.3819 166.855 34.3647 166.819C34.4175 166.838 34.4783 166.918 34.5046 166.928C34.5482 166.972 34.5918 167.017 34.6262 167.088C34.6697 167.133 34.6777 167.194 34.6949 167.23C34.7465 167.336 34.7889 167.469 34.8405 167.575C34.9596 167.911 35.0467 168.83 35.05 169.243C34.9751 170.214 34.7903 171.01 34.7245 171.956C34.5681 173.075 34.0813 174.205 33.6783 175.266C33.5681 175.58 33.4223 175.91 33.2857 176.214C33.2643 175.178 33.2165 174.134 33.257 173.091L33.2307 173.082C33.0823 174.263 33.0485 175.454 33.0412 176.655C33.032 176.682 33.032 176.682 33.0228 176.708C33.0045 176.76 32.9689 176.777 32.9505 176.829C32.9058 176.872 32.8519 176.941 32.8335 176.993C32.5341 176.916 32.244 176.814 31.9538 176.711C31.9286 176.614 31.8679 176.534 31.8427 176.437C31.7499 176.11 31.6571 175.784 31.5735 175.431C31.4063 174.726 31.3458 173.971 31.611 173.302C31.6294 173.249 31.5331 173.186 31.5055 173.264C31.1795 173.853 31.1437 174.545 31.2054 175.213C31.2443 175.608 31.3451 175.996 31.4458 176.384C31.4538 176.446 31.4882 176.517 31.4871 176.604C30.9595 176.418 30.4148 176.195 29.9412 175.94C29.4266 174.789 29.4363 173.412 29.3737 172.157C29.3748 172.07 29.2338 172.049 29.2326 172.137C29.2081 173.302 29.1204 174.563 29.4503 175.649C28.9595 175.357 28.4871 175.014 28.0502 174.654C27.8887 174.186 27.7891 173.71 27.6895 173.235C27.4846 172.046 27.43 170.853 27.1724 169.646L27.146 169.637C27.243 170.963 27.2608 172.261 27.4462 173.589C27.4874 173.809 27.5194 174.055 27.587 174.284C27.3164 174.042 27.0458 173.799 26.7844 173.531C26.6709 173.432 26.5665 173.307 26.4622 173.182C25.9707 171.628 26.1377 169.72 25.9812 168.226C25.9732 168.165 25.8848 168.163 25.8928 168.224C25.9359 169.619 25.7288 171.219 25.9657 172.654C25.522 172.144 25.1047 171.644 24.723 171.128C24.6382 170.863 24.589 170.581 24.5661 170.309C24.4712 169.483 24.4739 168.632 24.3526 167.797C24.3446 167.735 24.2471 167.759 24.2551 167.821C24.3396 168.761 24.2211 169.688 24.332 170.637C24.2713 170.557 24.2105 170.476 24.1326 170.361C23.7772 169.853 23.4494 169.268 23.1743 168.701C22.8992 168.133 22.7308 167.516 22.465 166.923C22.4306 166.852 22.3514 166.824 22.3067 166.867C22.2761 165.858 22.3338 164.851 22.4351 163.888C22.7056 161.518 23.2753 159.224 23.7132 156.884C24.1591 154.605 24.5786 152.317 25.1392 150.049C25.9315 147.629 26.6803 145.164 28.0253 143.027C28.6394 142.041 29.4001 141.312 30.4314 140.826C31.5339 140.306 32.8346 140.15 34.0539 140.141C36.2538 140.127 38.5442 140.615 40.5545 141.561C40.5454 141.587 40.5625 141.623 40.5534 141.649C40.7801 142.522 40.9622 143.437 40.9676 144.349C40.9614 145.463 40.7259 146.554 40.4204 147.591C40.1528 148.435 39.7602 149.383 39.254 150.231C39.2025 150.125 39.1417 150.044 39.0546 149.955C39.0374 149.919 38.9926 149.962 39.0098 149.998C39.097 150.087 39.1485 150.194 39.2001 150.3C38.8661 150.828 38.515 151.32 38.0675 151.749C37.8727 151.122 37.7227 150.452 37.7218 149.865L37.6954 149.855C37.6344 150.45 37.6881 151.056 37.8129 151.629C37.8381 151.726 37.8633 151.823 37.8885 151.92C37.7095 152.092 37.5041 152.254 37.2724 152.407C37.1233 152.324 36.9478 152.233 36.7988 152.151C36.4653 151.328 36.5334 150.207 36.7286 149.484L36.7023 149.474C36.5002 150.049 36.2291 151.157 36.4478 151.968C36.1761 151.813 35.9215 151.694 35.6497 151.539C35.5969 151.52 35.5534 151.475 35.5006 151.456C35.3551 151.111 35.299 150.681 35.2774 150.321C35.2421 149.662 35.2331 149.013 35.1714 148.345C35.1634 148.284 35.0487 148.273 35.0476 148.36C35.0461 149.123 34.9564 149.884 35.0169 150.639C35.0237 150.789 35.0477 150.973 35.0809 151.132C34.8275 150.925 34.5925 150.665 34.4022 150.363C34.447 150.32 34.4917 150.277 34.4573 150.206C34.1754 149.49 34.248 148.694 34.293 147.976C34.3125 147.836 34.0831 147.813 34.0636 147.953C34.0198 148.584 33.9668 149.24 34.0732 149.865C34.0296 149.82 33.9229 149.871 33.9309 149.932C33.947 150.055 33.9722 150.152 33.9974 150.249C33.9034 150.01 33.8358 149.781 33.8038 149.535C33.7786 149.438 33.6283 149.443 33.618 149.557C33.6076 149.671 33.6236 149.794 33.6224 149.882C33.58 149.749 33.4573 149.676 33.3335 149.691ZM37.6494 153.274C37.9075 153.13 38.1393 152.978 38.3447 152.815C38.3619 152.851 38.3882 152.86 38.4054 152.896C38.2528 153.077 38.1094 153.231 37.9568 153.412C37.8776 153.384 37.7721 153.347 37.6494 153.274Z" fill="#FE7849"/>
<path d="M101.601 127.509L102.487 125.587L102.93 124.626L103.056 124.397C103.048 124.345 103.1 124.337 103.093 124.286L103.137 124.227L103.248 123.894L103.477 123.28C103.477 123.28 103.875 122.379 104.274 121.477C104.621 120.582 104.961 119.636 104.924 119.747C105.508 118.291 106.106 117.308 105.685 119.902C105.634 120.279 105.538 120.715 105.493 121.143C105.471 121.358 105.449 121.572 105.375 121.794C105.301 122.015 105.272 122.178 105.19 122.348C104.976 123.065 104.843 123.612 104.843 123.612L104.57 124.284L104.459 124.617L104.378 124.787L104.334 124.846C104.334 124.846 104.297 124.957 104.253 125.016L104.127 125.245L103.196 127.226C103.034 127.566 102.923 127.899 102.709 128.247L102.162 129.222L101.121 131.167C100.737 131.802 100.345 132.387 99.961 133.022C99.348 134.272 98.4542 135.403 97.5751 136.638C97.1836 137.222 96.6813 137.769 96.2381 138.361L94.842 140.039C94.3397 140.586 93.8374 141.134 93.3868 141.673L92.6555 142.465L92.2935 142.886L91.9242 143.256L90.2916 144.758L89.5012 145.505L88.6517 146.207C84.2933 150.054 79.4324 153.339 74.2169 155.989L73.722 156.218L73.227 156.448L72.2371 156.907L70.2572 157.825L68.2035 158.595C67.5017 158.855 66.8516 159.106 66.1498 159.366C64.7905 159.825 63.3721 160.24 61.9463 160.604C60.5205 160.967 59.0725 161.175 57.558 161.287C56.8192 161.288 55.977 161.304 55.2382 161.304C55.1865 161.312 55.1274 161.268 55.1274 161.268C55.0757 161.275 55.0314 161.334 54.9796 161.342C54.9353 161.401 54.8393 161.467 54.8393 161.467L55.2826 161.615C55.9475 161.836 56.6124 162.057 57.3217 162.219C57.7058 162.322 58.0309 162.381 58.4151 162.484C58.4151 162.484 59.3534 162.771 60.336 162.999C61.2669 163.235 62.2051 163.522 62.1534 163.529C63.7049 164.045 64.6728 164.539 62.0575 164.335C61.3113 164.284 60.3509 164.211 59.5973 164.108C58.8437 164.005 58.3044 163.925 58.3044 163.925C57.8685 163.829 57.4326 163.733 56.9894 163.586C56.2284 163.431 55.5118 163.218 54.8468 162.997L54.3444 162.805C54.2336 162.768 54.0711 162.739 53.9529 162.65L53.5096 162.503C52.9481 162.267 52.3866 162.031 51.8177 161.744L51.6478 161.662C51.6478 161.662 51.5887 161.618 51.537 161.626L51.633 161.559L52.0762 161.337L53.0071 160.834C53.3025 160.686 53.6498 160.53 53.8861 160.338L54.1225 160.145C54.1669 160.086 54.2703 160.071 54.3146 160.012C55.2676 159.295 56.0358 158.392 56.8484 157.431C57.3433 156.832 57.8899 156.226 58.4883 155.612C58.54 155.604 58.5917 155.597 58.5917 155.597C59.5816 155.507 59.5817 156.246 59.5226 156.572C59.53 156.623 59.53 156.623 59.4857 156.682C58.9317 157.237 58.4294 157.784 57.9345 158.383C57.5282 158.864 57.1219 159.345 56.6639 159.833C56.9299 159.847 57.1884 159.81 57.5061 159.817C58.8655 159.727 60.2543 159.475 61.5841 159.178C62.9139 158.881 64.2806 158.473 65.5882 158.021C66.2457 157.821 66.8958 157.57 67.5459 157.318L69.4962 156.562C70.1463 156.31 70.789 156.007 71.4317 155.703C72.0744 155.4 72.7245 155.148 73.3672 154.844C78.3906 152.327 83.0668 149.227 87.2922 145.558L88.0901 144.863C88.3708 144.612 88.6072 144.419 88.8879 144.168L90.417 142.681L91.1557 141.942C91.3847 141.698 91.6137 141.453 91.887 141.15L93.3053 139.627C93.815 139.131 94.2065 138.547 94.6571 138.007L96.0089 136.388L97.2425 134.68C97.634 134.096 98.0846 133.556 98.4244 132.979C99.1482 131.767 99.9386 130.651 100.603 129.394L101.601 127.509Z" fill="#FE7849"/>
<path d="M33.4211 131.85C31.2658 131.762 29.1656 131.976 27.074 132.408C25.9225 132.671 24.8174 133.02 23.7158 133.456C22.7843 133.841 21.5538 134.282 20.8974 135.091C20.6929 135.36 20.925 135.786 21.2652 135.685C22.2861 135.384 23.2468 134.649 24.2195 134.219C25.2352 133.786 26.2543 133.441 27.3199 133.181C29.3221 132.666 31.4206 132.408 33.4779 132.195C33.6498 132.188 33.6377 131.884 33.4211 131.85Z" fill="#FE7849"/>
<path d="M38.0633 129.445C36.7672 128.235 34.8611 127.92 33.1338 127.771C30.8444 127.558 28.5723 127.78 26.3535 128.26C24.1347 128.74 21.9693 129.479 19.9912 130.603C19.1491 131.071 18.3122 131.67 17.6076 132.351C16.8601 133.034 16.5817 133.61 16.4031 134.531C16.3705 134.793 16.6335 134.914 16.8414 134.731C17.0906 134.504 17.3845 134.318 17.6337 134.09C17.967 133.816 18.211 133.458 18.4997 133.142C19.1201 132.508 19.8763 132.043 20.6324 131.578C22.4404 130.505 24.4357 129.816 26.4809 129.299C30.2739 128.364 34.2304 128.293 37.9396 129.581C38.0736 129.706 38.1527 129.529 38.0633 129.445Z" fill="#FE7849"/>
<path d="M10.9121 133.793C12.0086 133.227 13.0174 132.621 13.9299 131.758C14.7187 131.031 15.461 130.218 16.2498 129.49C17.8669 127.946 19.6731 126.83 21.799 126.179C23.2444 125.73 24.7431 125.54 26.1936 125.221C27.7301 124.898 29.2683 124.619 30.81 124.427C33.895 124.086 37.0472 124.352 39.8197 125.894C40.0827 126.014 40.3267 125.657 40.1049 125.491C37.6984 123.412 34.5806 122.928 31.4887 123.095C29.8989 123.158 28.3177 123.439 26.7365 123.72C25.1553 124 23.5295 124.239 21.9947 124.605C17.0055 125.762 13.7611 129.677 10.4188 133.291C10.2573 133.558 10.6165 133.936 10.9121 133.793Z" fill="#FE7849"/>
<g filter="url(#filter1_d_1361_815)">
<rect x="56.0859" y="70" width="207.912" height="43.1446" rx="7" fill="white"/>
</g>
<path fill-rule="evenodd" clip-rule="evenodd" d="M71.2231 99.3633C70.567 99.3633 70.0352 99.8951 70.0352 100.551C70.0352 101.207 70.567 101.739 71.2231 101.739H144.055C144.711 101.739 145.243 101.207 145.243 100.551C145.243 99.8951 144.711 99.3633 144.055 99.3633H71.2231ZM165.973 99.3633C165.317 99.3633 164.785 99.8951 164.785 100.551C164.785 101.207 165.317 101.739 165.973 101.739H248.873C249.529 101.739 250.061 101.207 250.061 100.551C250.061 99.8951 249.529 99.3633 248.873 99.3633H165.973Z" fill="#E4E4E4"/>
<path d="M74.6988 81.9435H73.8126C73.7874 81.8009 73.7408 81.6747 73.6728 81.5647C73.6049 81.4531 73.5204 81.3586 73.4193 81.2811C73.3182 81.2037 73.2029 81.1455 73.0734 81.1068C72.9454 81.0665 72.8072 81.0464 72.6587 81.0464C72.3949 81.0464 72.1611 81.1115 71.9573 81.2416C71.7535 81.3702 71.594 81.5592 71.4787 81.8087C71.3634 82.0566 71.3057 82.3595 71.3057 82.7174C71.3057 83.0815 71.3634 83.3883 71.4787 83.6378C71.5956 83.8857 71.7551 84.0731 71.9573 84.2002C72.1611 84.3257 72.3941 84.3884 72.6563 84.3884C72.8017 84.3884 72.9375 84.3699 73.0639 84.3327C73.1918 84.2939 73.3064 84.2374 73.4075 84.163C73.5101 84.0886 73.5962 83.9972 73.6657 83.8888C73.7368 83.7803 73.7858 83.6564 73.8126 83.5169L74.6988 83.5216C74.6657 83.7478 74.5938 83.96 74.4832 84.1584C74.3742 84.3567 74.2313 84.5318 74.0543 84.6836C73.8774 84.8339 73.6705 84.9517 73.4335 85.0369C73.1966 85.1205 72.9336 85.1624 72.6445 85.1624C72.218 85.1624 71.8373 85.0655 71.5024 84.8719C71.1675 84.6782 70.9037 84.3985 70.711 84.0329C70.5182 83.6672 70.4219 83.2287 70.4219 82.7174C70.4219 82.2046 70.519 81.7661 70.7133 81.402C70.9076 81.0363 71.1722 80.7566 71.5071 80.563C71.842 80.3693 72.2211 80.2725 72.6445 80.2725C72.9146 80.2725 73.1658 80.3096 73.398 80.384C73.6302 80.4584 73.8371 80.5676 74.0188 80.7117C74.2005 80.8543 74.3497 81.0293 74.4666 81.237C74.5851 81.443 74.6625 81.6785 74.6988 81.9435Z" fill="#3C3A3E"/>
<path d="M77.0535 85.167C76.6981 85.167 76.3901 85.0903 76.1294 84.9369C75.8688 84.7835 75.6666 84.569 75.5228 84.2932C75.3807 84.0174 75.3096 83.6951 75.3096 83.3263C75.3096 82.9576 75.3807 82.6345 75.5228 82.3572C75.6666 82.0798 75.8688 81.8645 76.1294 81.7111C76.3901 81.5577 76.6981 81.481 77.0535 81.481C77.409 81.481 77.717 81.5577 77.9777 81.7111C78.2383 81.8645 78.4397 82.0798 78.5819 82.3572C78.7256 82.6345 78.7975 82.9576 78.7975 83.3263C78.7975 83.6951 78.7256 84.0174 78.5819 84.2932C78.4397 84.569 78.2383 84.7835 77.9777 84.9369C77.717 85.0903 77.409 85.167 77.0535 85.167ZM77.0583 84.493C77.251 84.493 77.4121 84.4411 77.5417 84.3373C77.6712 84.232 77.7676 84.091 77.8307 83.9143C77.8955 83.7377 77.9279 83.5409 77.9279 83.324C77.9279 83.1055 77.8955 82.908 77.8307 82.7314C77.7676 82.5532 77.6712 82.4114 77.5417 82.3061C77.4121 82.2007 77.251 82.148 77.0583 82.148C76.8608 82.148 76.6965 82.2007 76.5654 82.3061C76.4359 82.4114 76.3387 82.5532 76.274 82.7314C76.2108 82.908 76.1792 83.1055 76.1792 83.324C76.1792 83.5409 76.2108 83.7377 76.274 83.9143C76.3387 84.091 76.4359 84.232 76.5654 84.3373C76.6965 84.4411 76.8608 84.493 77.0583 84.493Z" fill="#3C3A3E"/>
<path d="M79.1245 82.2177V81.5275H82.3091V82.2177H81.1315V85.0973H80.3022V82.2177H79.1245Z" fill="#3C3A3E"/>
<path d="M82.9921 86.436V81.5275H83.8357V82.1178H83.8854C83.9297 82.031 83.9921 81.9388 84.0726 81.8412C84.1532 81.7421 84.2622 81.6576 84.3996 81.5879C84.5371 81.5166 84.7124 81.481 84.9257 81.481C85.2068 81.481 85.4604 81.5515 85.6863 81.6925C85.9138 81.8319 86.0938 82.0388 86.2265 82.313C86.3608 82.5857 86.4279 82.9204 86.4279 83.317C86.4279 83.709 86.3624 84.0422 86.2313 84.3164C86.1002 84.5906 85.9216 84.7998 85.6958 84.9439C85.4699 85.088 85.214 85.16 84.928 85.16C84.7195 85.16 84.5465 85.126 84.4091 85.0578C84.2717 84.9896 84.1611 84.9075 84.0774 84.8114C83.9952 84.7138 83.9313 84.6216 83.8854 84.5349H83.8499V86.436H82.9921ZM83.8333 83.3124C83.8333 83.5432 83.8665 83.7454 83.9328 83.919C84.0008 84.0925 84.0979 84.2281 84.2243 84.3257C84.3522 84.4218 84.507 84.4698 84.6887 84.4698C84.8783 84.4698 85.037 84.4202 85.165 84.321C85.2929 84.2203 85.3893 84.0832 85.4541 83.9097C85.5204 83.7346 85.5536 83.5355 85.5536 83.3124C85.5536 83.0908 85.5212 82.894 85.4564 82.7221C85.3917 82.5501 85.2953 82.4153 85.1674 82.3177C85.0394 82.2201 84.8799 82.1713 84.6887 82.1713C84.5055 82.1713 84.3499 82.2185 84.2219 82.313C84.094 82.4075 83.9968 82.54 83.9305 82.7104C83.8657 82.8809 83.8333 83.0815 83.8333 83.3124Z" fill="#3C3A3E"/>
<path d="M87.5718 86.436C87.4549 86.436 87.3467 86.4267 87.2472 86.4081C87.1493 86.391 87.0711 86.3709 87.0126 86.3477L87.2117 85.6923C87.3364 85.7279 87.4478 85.7449 87.5458 85.7434C87.6437 85.7418 87.7298 85.7116 87.804 85.6528C87.8799 85.5954 87.9438 85.4994 87.996 85.3646L88.0694 85.1717L86.7496 81.5275H87.6595L88.4983 84.2234H88.5362L89.3774 81.5275H90.2896L88.8324 85.5296C88.7645 85.7186 88.6744 85.8805 88.5623 86.0153C88.4501 86.1517 88.3127 86.2555 88.15 86.3267C87.9889 86.3996 87.7961 86.436 87.5718 86.436Z" fill="#3C3A3E"/>
<path d="M90.2612 86.1338V84.4047H90.5503C90.6277 84.3458 90.6925 84.266 90.7446 84.1653C90.7967 84.0631 90.8394 83.943 90.8725 83.8051C90.9073 83.6657 90.9357 83.5099 90.9579 83.338C90.98 83.1644 90.9997 82.9777 91.0171 82.7778L91.1213 81.5275H93.7515V84.4047H94.3155V86.1338H93.4861V85.0973H91.1048V86.1338H90.2612ZM91.4318 84.4047H92.9317V82.2061H91.8654L91.8085 82.7778C91.7769 83.1559 91.7351 83.4797 91.6829 83.7493C91.6308 84.0189 91.5471 84.2374 91.4318 84.4047Z" fill="#3C3A3E"/>
<path d="M97.1926 82.9638V83.654H95.7828V82.9638H97.1926ZM95.7828 81.5275V85.0973H94.9558V81.5275H95.7828ZM98.0172 81.5275V85.0973H97.1926V81.5275H98.0172Z" fill="#3C3A3E"/>
<path d="M99.712 83.9585L101.169 81.5275H102.051V85.0973H101.221V82.664L99.7689 85.0973H98.8851V81.5275H99.712V83.9585Z" fill="#3C3A3E"/>
<path d="M102.932 85.0973V81.5275H103.789V82.9684H104.102L105.197 81.5275H106.23L104.882 83.2798L106.244 85.0973H105.206L104.209 83.7516H103.789V85.0973H102.932Z" fill="#3C3A3E"/>
<path d="M108.386 85.0973V81.5275H111.459V85.0973H110.632V82.2177H109.205V85.0973H108.386Z" fill="#3C3A3E"/>
<path d="M113.929 85.167C113.573 85.167 113.265 85.0903 113.004 84.9369C112.744 84.7835 112.542 84.569 112.398 84.2932C112.256 84.0174 112.185 83.6951 112.185 83.3263C112.185 82.9576 112.256 82.6345 112.398 82.3572C112.542 82.0798 112.744 81.8645 113.004 81.7111C113.265 81.5577 113.573 81.481 113.929 81.481C114.284 81.481 114.592 81.5577 114.853 81.7111C115.113 81.8645 115.315 82.0798 115.457 82.3572C115.601 82.6345 115.672 82.9576 115.672 83.3263C115.672 83.6951 115.601 84.0174 115.457 84.2932C115.315 84.569 115.113 84.7835 114.853 84.9369C114.592 85.0903 114.284 85.167 113.929 85.167ZM113.933 84.493C114.126 84.493 114.287 84.4411 114.417 84.3373C114.546 84.232 114.643 84.091 114.706 83.9143C114.77 83.7377 114.803 83.5409 114.803 83.324C114.803 83.1055 114.77 82.908 114.706 82.7314C114.643 82.5532 114.546 82.4114 114.417 82.3061C114.287 82.2007 114.126 82.148 113.933 82.148C113.736 82.148 113.571 82.2007 113.44 82.3061C113.311 82.4114 113.214 82.5532 113.149 82.7314C113.086 82.908 113.054 83.1055 113.054 83.324C113.054 83.5409 113.086 83.7377 113.149 83.9143C113.214 84.091 113.311 84.232 113.44 84.3373C113.571 84.4411 113.736 84.493 113.933 84.493Z" fill="#3C3A3E"/>
<path d="M120.731 81.646C120.709 81.443 120.615 81.285 120.451 81.1719C120.288 81.0588 120.077 81.0022 119.816 81.0022C119.633 81.0022 119.476 81.0293 119.345 81.0836C119.214 81.1378 119.113 81.2114 119.044 81.3044C118.974 81.3973 118.939 81.5035 118.937 81.6228C118.937 81.7219 118.96 81.8079 119.006 81.8807C119.053 81.9536 119.117 82.0155 119.198 82.0667C119.278 82.1162 119.368 82.1581 119.465 82.1922C119.563 82.2263 119.662 82.2549 119.762 82.2782L120.217 82.3897C120.4 82.4316 120.576 82.4881 120.745 82.5594C120.916 82.6306 121.068 82.7205 121.202 82.829C121.338 82.9374 121.446 83.0684 121.525 83.2217C121.604 83.3751 121.643 83.5549 121.643 83.7609C121.643 84.0398 121.57 84.2854 121.425 84.4977C121.28 84.7084 121.07 84.8734 120.795 84.9927C120.521 85.1105 120.191 85.1693 119.802 85.1693C119.424 85.1693 119.097 85.112 118.819 84.9974C118.542 84.8827 118.326 84.7154 118.169 84.4954C118.015 84.2753 117.931 84.0073 117.918 83.6912H118.783C118.796 83.857 118.848 83.9949 118.939 84.1049C119.031 84.2149 119.15 84.297 119.297 84.3513C119.446 84.4055 119.612 84.4326 119.795 84.4326C119.986 84.4326 120.153 84.4047 120.297 84.3489C120.442 84.2916 120.556 84.2126 120.638 84.1119C120.721 84.0096 120.762 83.8903 120.764 83.754C120.762 83.63 120.725 83.5278 120.653 83.4472C120.58 83.3651 120.478 83.2969 120.347 83.2427C120.217 83.1869 120.066 83.1373 119.892 83.0939L119.34 82.9545C118.94 82.8538 118.624 82.7011 118.392 82.4966C118.161 82.2906 118.046 82.0171 118.046 81.6762C118.046 81.3958 118.124 81.1502 118.278 80.9395C118.435 80.7288 118.647 80.5653 118.916 80.4491C119.184 80.3313 119.488 80.2725 119.828 80.2725C120.172 80.2725 120.474 80.3313 120.733 80.4491C120.994 80.5653 121.198 80.7272 121.347 80.9348C121.495 81.1409 121.572 81.378 121.577 81.646H120.731Z" fill="#3C3A3E"/>
<path d="M123.306 80.3375V85.0973H122.427V80.3375H123.306Z" fill="#3C3A3E"/>
<path d="M124.258 85.0973V80.3375H126.078C126.45 80.3375 126.763 80.4057 127.016 80.5421C127.27 80.6784 127.462 80.8659 127.592 81.1045C127.723 81.3415 127.788 81.6111 127.788 81.9133C127.788 82.2185 127.723 82.4897 127.592 82.7267C127.461 82.9638 127.267 83.1505 127.011 83.2868C126.755 83.4216 126.44 83.489 126.066 83.489H125.137V82.7802H125.947C126.165 82.7802 126.344 82.743 126.483 82.6686C126.622 82.5942 126.724 82.492 126.791 82.3618C126.859 82.2317 126.893 82.0822 126.893 81.9133C126.893 81.7444 126.859 81.5956 126.791 81.467C126.724 81.3384 126.621 81.2385 126.48 81.1672C126.341 81.0944 126.162 81.058 125.943 81.058H125.137V85.0973H124.258Z" fill="#3C3A3E"/>
<path d="M185.189 84.5519V81.3787H186.428C186.662 81.3787 186.856 81.4149 187.011 81.4872C187.167 81.5585 187.283 81.6561 187.36 81.78C187.438 81.904 187.477 82.0445 187.477 82.2015C187.477 82.3306 187.452 82.4411 187.401 82.533C187.35 82.6239 187.283 82.6978 187.197 82.7546C187.112 82.8114 187.017 82.8522 186.911 82.877V82.908C187.026 82.9142 187.136 82.9488 187.241 83.0118C187.348 83.0738 187.435 83.1616 187.502 83.2752C187.569 83.3888 187.603 83.5262 187.603 83.6873C187.603 83.8516 187.563 83.9993 187.482 84.1305C187.4 84.2606 187.278 84.3634 187.115 84.4388C186.952 84.5142 186.746 84.5519 186.499 84.5519H185.189ZM185.775 84.0716H186.406C186.619 84.0716 186.772 84.0318 186.865 83.9523C186.96 83.8717 187.008 83.7684 187.008 83.6424C187.008 83.5484 186.984 83.4637 186.937 83.3883C186.889 83.3119 186.822 83.252 186.734 83.2086C186.647 83.1642 186.543 83.142 186.422 83.142H185.775V84.0716ZM185.775 82.7283H186.355C186.456 82.7283 186.547 82.7102 186.629 82.674C186.71 82.6368 186.773 82.5847 186.82 82.5175C186.867 82.4494 186.891 82.3688 186.891 82.2758C186.891 82.1529 186.847 82.0517 186.758 81.9722C186.671 81.8926 186.541 81.8529 186.368 81.8529H185.775V82.7283Z" fill="#3C3A3E"/>
<path d="M188.088 84.5519V82.172H188.66V83.1327H188.868L189.598 82.172H190.287L189.388 83.3403L190.296 84.5519H189.604L188.939 83.6548H188.66V84.5519H188.088Z" fill="#3C3A3E"/>
<path d="M190.453 84.5519L190.45 84.0902H190.533C190.597 84.0902 190.65 84.0762 190.693 84.0484C190.736 84.0205 190.772 83.974 190.8 83.9089C190.829 83.8428 190.851 83.754 190.867 83.6424C190.883 83.5309 190.894 83.3919 190.9 83.2256L190.943 82.172H192.712V84.5519H192.159V82.6322H191.462L191.424 83.3992C191.415 83.5975 191.392 83.7695 191.356 83.9151C191.322 84.0597 191.272 84.179 191.208 84.273C191.145 84.367 191.065 84.4373 190.969 84.4837C190.874 84.5292 190.76 84.5519 190.63 84.5519H190.453Z" fill="#3C3A3E"/>
<path d="M194.17 83.1466V83.6083H193.716V83.1466H194.17ZM193.716 82.172V84.5519H193.142V82.172H193.716ZM195.302 84.5984C195.068 84.5984 194.865 84.5462 194.694 84.4419C194.523 84.3376 194.391 84.193 194.297 84.0081C194.203 83.8232 194.156 83.6094 194.156 83.3666C194.156 83.1239 194.203 82.9106 194.297 82.7267C194.391 82.5429 194.523 82.3993 194.694 82.296C194.865 82.1927 195.068 82.141 195.302 82.141C195.534 82.141 195.736 82.1927 195.907 82.296C196.078 82.3993 196.211 82.5429 196.305 82.7267C196.4 82.9106 196.447 83.1239 196.447 83.3666C196.447 83.6094 196.4 83.8232 196.305 84.0081C196.211 84.193 196.078 84.3376 195.907 84.4419C195.736 84.5462 195.534 84.5984 195.302 84.5984ZM195.302 84.1336C195.44 84.1336 195.552 84.0995 195.64 84.0313C195.727 83.9631 195.791 83.8712 195.832 83.7555C195.874 83.6398 195.894 83.5102 195.894 83.3666C195.894 83.223 195.874 83.0934 195.832 82.9777C195.791 82.862 195.727 82.7706 195.64 82.7035C195.552 82.6353 195.44 82.6012 195.302 82.6012C195.163 82.6012 195.049 82.6353 194.961 82.7035C194.873 82.7706 194.809 82.862 194.768 82.9777C194.727 83.0934 194.706 83.223 194.706 83.3666C194.706 83.5112 194.727 83.6414 194.768 83.7571C194.809 83.8728 194.873 83.9647 194.961 84.0329C195.049 84.1 195.163 84.1336 195.302 84.1336Z" fill="#3C3A3E"/>
<path d="M198.981 82.172V84.5519H198.431V82.172H198.981ZM198.431 83.3342V83.7928C198.369 83.8197 198.591 83.7571 198.512 83.7788C198.434 83.7994 198.351 83.8159 198.264 83.8283C198.177 83.8407 198.091 83.8469 198.005 83.8469C197.68 83.8469 197.424 83.7757 197.235 83.6331C197.048 83.4895 196.954 83.2659 196.954 82.9622V82.1689H197.501V82.9622C197.501 83.0645 197.519 83.1466 197.556 83.2086C197.593 83.2706 197.649 83.316 197.723 83.3449C197.798 83.3728 197.892 83.3868 198.005 83.3868C198.131 83.3868 198.251 83.3744 198.365 83.3496C198.478 83.3248 198.306 83.3776 198.431 83.3342Z" fill="#3C3A3E"/>
<path d="M200.63 84.5984C200.387 84.5984 200.177 84.5488 200 84.4496C199.824 84.3495 199.689 84.2079 199.594 84.0251C199.499 83.8412 199.452 83.6248 199.452 83.3759C199.452 83.1311 199.499 82.9163 199.594 82.7314C199.69 82.5454 199.824 82.4008 199.995 82.2975C200.167 82.1932 200.369 82.141 200.6 82.141C200.75 82.141 200.891 82.1648 201.024 82.2123C201.157 82.2588 201.275 82.3311 201.378 82.4292C201.481 82.5274 201.562 82.6523 201.621 82.8042C201.68 82.955 201.709 83.1347 201.709 83.3434V83.5154L200.019 83.5014V83.1234L201.161 83.1373C201.16 83.0299 201.136 82.9343 201.09 82.8507C201.044 82.766 200.979 82.6993 200.896 82.6508C200.814 82.6022 200.718 82.578 200.608 82.578C200.491 82.578 200.389 82.6059 200.3 82.6616C200.212 82.7164 200.143 82.7887 200.093 82.8786C200.045 82.9674 200.02 83.065 200.019 83.1714V83.5014C200.019 83.6398 200.045 83.7586 200.096 83.8578C200.148 83.9559 200.22 84.0313 200.313 84.084C200.406 84.1356 200.514 84.1615 200.638 84.1615C200.721 84.1615 200.797 84.1501 200.864 84.1274C200.932 84.1036 200.99 84.069 201.04 84.0236C201.089 83.9781 201.126 83.9218 201.152 83.8547L201.686 83.9136C201.652 84.052 201.588 84.1728 201.493 84.2761C201.399 84.3784 201.279 84.4579 201.133 84.5147C200.986 84.5705 200.819 84.5984 200.63 84.5984ZM200.112 81.8219C200.029 81.8219 199.957 81.7929 199.896 81.7351C199.836 81.6773 199.806 81.6091 199.806 81.5306C199.806 81.4479 199.836 81.3787 199.896 81.323C199.957 81.2661 200.029 81.2377 200.112 81.2377C200.198 81.2377 200.269 81.2661 200.327 81.323C200.386 81.3787 200.416 81.4479 200.416 81.5306C200.416 81.6091 200.386 81.6773 200.327 81.7351C200.269 81.7929 200.198 81.8219 200.112 81.8219ZM201.06 81.8219C200.977 81.8219 200.905 81.7929 200.844 81.7351C200.784 81.6773 200.754 81.6091 200.754 81.5306C200.754 81.4479 200.784 81.3787 200.844 81.323C200.905 81.2661 200.977 81.2377 201.06 81.2377C201.145 81.2377 201.217 81.2661 201.275 81.323C201.334 81.3787 201.363 81.4479 201.363 81.5306C201.363 81.6091 201.334 81.6773 201.275 81.7351C201.217 81.7929 201.145 81.8219 201.06 81.8219Z" fill="#3C3A3E"/>
<path d="M203.684 83.1296V83.5897H202.744V83.1296H203.684ZM202.744 82.172V84.5519H202.193V82.172H202.744ZM204.234 82.172V84.5519H203.684V82.172H204.234Z" fill="#3C3A3E"/>
<path d="M224.669 84.5519V81.3787H225.907C226.141 81.3787 226.335 81.4149 226.49 81.4872C226.646 81.5585 226.762 81.6561 226.839 81.78C226.917 81.904 226.956 82.0445 226.956 82.2015C226.956 82.3306 226.931 82.4411 226.88 82.533C226.83 82.6239 226.762 82.6978 226.676 82.7546C226.591 82.8114 226.496 82.8522 226.391 82.877V82.908C226.505 82.9142 226.615 82.9488 226.721 83.0118C226.827 83.0738 226.914 83.1616 226.981 83.2752C227.049 83.3888 227.082 83.5262 227.082 83.6873C227.082 83.8516 227.042 83.9993 226.961 84.1305C226.88 84.2606 226.758 84.3634 226.594 84.4388C226.431 84.5142 226.226 84.5519 225.978 84.5519H224.669ZM225.255 84.0716H225.885C226.098 84.0716 226.251 84.0318 226.345 83.9523C226.439 83.8717 226.487 83.7684 226.487 83.6424C226.487 83.5484 226.463 83.4637 226.416 83.3883C226.368 83.3119 226.301 83.252 226.214 83.2086C226.126 83.1642 226.022 83.142 225.901 83.142H225.255V84.0716ZM225.255 82.7283H225.834C225.936 82.7283 226.027 82.7102 226.108 82.674C226.189 82.6368 226.253 82.5847 226.299 82.5175C226.346 82.4494 226.37 82.3688 226.37 82.2758C226.37 82.1529 226.326 82.0517 226.237 81.9722C226.15 81.8926 226.02 81.8529 225.847 81.8529H225.255V82.7283Z" fill="#3C3A3E"/>
<path d="M228.503 84.5519L228.5 84.0902H228.583C228.647 84.0902 228.7 84.0762 228.743 84.0484C228.786 84.0205 228.822 83.974 228.85 83.9089C228.879 83.8428 228.901 83.754 228.917 83.6424C228.933 83.5309 228.944 83.3919 228.95 83.2256L228.993 82.172H230.762V84.5519H230.209V82.6322H229.512L229.474 83.3992C229.465 83.5975 229.442 83.7695 229.407 83.9151C229.372 84.0597 229.322 84.179 229.258 84.273C229.195 84.367 229.115 84.4373 229.02 84.4837C228.924 84.5292 228.81 84.5519 228.68 84.5519H228.503Z" fill="#3C3A3E"/>
<path d="M231.889 83.7927L232.86 82.172H233.448V84.5519H232.895V82.9297L231.927 84.5519H231.338V82.172H231.889V83.7927Z" fill="#3C3A3E"/>
<path d="M235.702 83.1296V83.5897H234.41V83.1296H235.702ZM234.587 82.172V84.5519H234.035V82.172H234.587ZM236.076 82.172V84.5519H235.527V82.172H236.076Z" fill="#3C3A3E"/>
<path d="M237.206 83.7927L238.178 82.172H238.765V84.5519H238.212V82.9297L237.244 84.5519H236.655V82.172H237.206V83.7927Z" fill="#3C3A3E"/>
<path d="M239.904 83.7927L240.875 82.172H241.463V84.5519H240.91V82.9297L239.942 84.5519H239.353V82.172H239.904V83.7927Z" fill="#3C3A3E"/>
<rect x="244.617" y="83.0288" width="5.55178" height="2.22734" rx="1.11367" fill="#FCBDA7"/>
<ellipse cx="248.505" cy="84.1427" rx="1.66553" ry="1.6705" fill="#F4774C"/>
<rect x="207.418" y="82.002" width="5.55178" height="2.22734" rx="1.11367" fill="#FCBDA7"/>
<ellipse cx="211.31" cy="83.1153" rx="1.66553" ry="1.6705" fill="#F4774C"/>
<g filter="url(#filter2_d_1361_815)">
<rect x="91" y="178.194" width="198.061" height="41.8057" rx="7" fill="white"/>
</g>
<path fill-rule="evenodd" clip-rule="evenodd" d="M105.265 207.239C104.644 207.239 104.141 207.743 104.141 208.364C104.141 208.984 104.644 209.488 105.265 209.488H174.661C175.282 209.488 175.785 208.984 175.785 208.364C175.785 207.743 175.282 207.239 174.661 207.239H105.265ZM195.531 207.239C194.91 207.239 194.406 207.743 194.406 208.364C194.406 208.984 194.91 209.488 195.531 209.488H274.517C275.138 209.488 275.641 208.984 275.641 208.364C275.641 207.743 275.138 207.239 274.517 207.239H195.531Z" fill="#E4E4E4"/>
<rect x="270.453" y="191.78" width="5.28874" height="2.10802" rx="1.05401" fill="#FCBDA7"/>
<ellipse cx="274.153" cy="192.834" rx="1.58662" ry="1.58102" fill="#F4774C"/>
<rect x="235.02" y="191.78" width="5.28874" height="2.10802" rx="1.05401" fill="#FCBDA7"/>
<ellipse cx="238.719" cy="192.834" rx="1.58662" ry="1.58102" fill="#F4774C"/>
<path d="M108.741 191.443H107.895C107.871 191.308 107.827 191.188 107.762 191.084C107.697 190.979 107.616 190.889 107.52 190.816C107.423 190.743 107.313 190.688 107.19 190.651C107.068 190.613 106.936 190.594 106.794 190.594C106.543 190.594 106.319 190.655 106.125 190.779C105.931 190.9 105.778 191.079 105.668 191.315C105.558 191.55 105.503 191.837 105.503 192.175C105.503 192.52 105.558 192.81 105.668 193.046C105.78 193.281 105.932 193.458 106.125 193.579C106.319 193.697 106.542 193.757 106.792 193.757C106.931 193.757 107.06 193.739 107.181 193.704C107.303 193.667 107.412 193.614 107.509 193.543C107.607 193.473 107.689 193.387 107.755 193.284C107.823 193.181 107.87 193.064 107.895 192.932L108.741 192.936C108.709 193.15 108.64 193.351 108.535 193.539C108.431 193.727 108.295 193.892 108.126 194.036C107.957 194.178 107.76 194.29 107.533 194.371C107.307 194.45 107.056 194.489 106.781 194.489C106.374 194.489 106.011 194.398 105.691 194.214C105.372 194.031 105.12 193.766 104.936 193.42C104.752 193.074 104.66 192.659 104.66 192.175C104.66 191.69 104.753 191.275 104.938 190.93C105.124 190.584 105.376 190.32 105.696 190.136C106.015 189.953 106.377 189.861 106.781 189.861C107.038 189.861 107.278 189.897 107.5 189.967C107.721 190.037 107.919 190.141 108.092 190.277C108.265 190.412 108.408 190.578 108.519 190.774C108.632 190.969 108.706 191.192 108.741 191.443Z" fill="#3C3A3E"/>
<path d="M110.987 194.494C110.648 194.494 110.354 194.421 110.106 194.276C109.857 194.131 109.664 193.928 109.527 193.667C109.391 193.406 109.323 193.101 109.323 192.752C109.323 192.403 109.391 192.097 109.527 191.834C109.664 191.572 109.857 191.368 110.106 191.223C110.354 191.078 110.648 191.005 110.987 191.005C111.326 191.005 111.62 191.078 111.869 191.223C112.118 191.368 112.31 191.572 112.445 191.834C112.582 192.097 112.651 192.403 112.651 192.752C112.651 193.101 112.582 193.406 112.445 193.667C112.31 193.928 112.118 194.131 111.869 194.276C111.62 194.421 111.326 194.494 110.987 194.494ZM110.992 193.856C111.176 193.856 111.329 193.807 111.453 193.708C111.576 193.609 111.668 193.475 111.729 193.308C111.79 193.141 111.821 192.955 111.821 192.749C111.821 192.543 111.79 192.356 111.729 192.189C111.668 192.02 111.576 191.886 111.453 191.786C111.329 191.686 111.176 191.636 110.992 191.636C110.803 191.636 110.647 191.686 110.521 191.786C110.398 191.886 110.305 192.02 110.243 192.189C110.183 192.356 110.153 192.543 110.153 192.749C110.153 192.955 110.183 193.141 110.243 193.308C110.305 193.475 110.398 193.609 110.521 193.708C110.647 193.807 110.803 193.856 110.992 193.856Z" fill="#3C3A3E"/>
<path d="M112.963 191.702V191.049H116.001V191.702H114.878V194.428H114.087V191.702H112.963Z" fill="#3C3A3E"/>
<path d="M116.653 195.695V191.049H117.458V191.608H117.505C117.547 191.526 117.607 191.438 117.684 191.346C117.761 191.252 117.865 191.172 117.996 191.106C118.127 191.039 118.294 191.005 118.498 191.005C118.766 191.005 119.008 191.072 119.223 191.205C119.44 191.337 119.612 191.533 119.739 191.793C119.867 192.051 119.931 192.367 119.931 192.743C119.931 193.114 119.868 193.429 119.743 193.689C119.618 193.948 119.448 194.146 119.232 194.283C119.017 194.419 118.773 194.487 118.5 194.487C118.301 194.487 118.136 194.455 118.005 194.39C117.874 194.326 117.768 194.248 117.688 194.157C117.61 194.065 117.549 193.978 117.505 193.895H117.471V195.695H116.653ZM117.456 192.738C117.456 192.957 117.487 193.148 117.55 193.313C117.615 193.477 117.708 193.605 117.829 193.697C117.951 193.788 118.098 193.834 118.272 193.834C118.452 193.834 118.604 193.787 118.726 193.693C118.848 193.598 118.94 193.468 119.002 193.304C119.065 193.138 119.097 192.95 119.097 192.738C119.097 192.529 119.066 192.342 119.004 192.18C118.942 192.017 118.85 191.889 118.728 191.797C118.606 191.705 118.454 191.658 118.272 191.658C118.097 191.658 117.948 191.703 117.826 191.793C117.704 191.882 117.611 192.007 117.548 192.169C117.486 192.33 117.456 192.52 117.456 192.738Z" fill="#3C3A3E"/>
<path d="M121.022 195.695C120.911 195.695 120.808 195.686 120.713 195.668C120.619 195.652 120.545 195.633 120.489 195.611L120.679 194.991C120.798 195.025 120.904 195.041 120.997 195.039C121.091 195.038 121.173 195.009 121.244 194.953C121.316 194.899 121.377 194.808 121.427 194.681L121.497 194.498L120.238 191.049H121.106L121.906 193.601H121.942L122.745 191.049H123.615L122.225 194.837C122.16 195.016 122.074 195.169 121.967 195.297C121.86 195.426 121.729 195.524 121.574 195.591C121.42 195.66 121.236 195.695 121.022 195.695Z" fill="#3C3A3E"/>
<path d="M123.588 195.409V193.772H123.864C123.938 193.717 124 193.641 124.049 193.546C124.099 193.449 124.14 193.335 124.171 193.205C124.205 193.073 124.232 192.925 124.253 192.763C124.274 192.598 124.293 192.422 124.309 192.233L124.409 191.049H126.918V193.772H127.456V195.409H126.665V194.428H124.393V195.409H123.588ZM124.705 193.772H126.136V191.691H125.119L125.064 192.233C125.034 192.59 124.994 192.897 124.945 193.152C124.895 193.407 124.815 193.614 124.705 193.772Z" fill="#3C3A3E"/>
<path d="M130.201 192.408V193.062H128.856V192.408H130.201ZM128.856 191.049V194.428H128.067V191.049H128.856ZM130.988 191.049V194.428H130.201V191.049H130.988Z" fill="#3C3A3E"/>
<path d="M132.605 193.35L133.995 191.049H134.836V194.428H134.045V192.125L132.659 194.428H131.816V191.049H132.605V193.35Z" fill="#3C3A3E"/>
<path d="M135.676 194.428V191.049H136.495V192.413H136.793L137.838 191.049H138.823L137.537 192.708L138.837 194.428H137.847L136.895 193.154H136.495V194.428H135.676Z" fill="#3C3A3E"/>
<path d="M143.78 191.049V194.428H142.994V191.049H143.78ZM142.994 192.699V193.35C142.905 193.388 143.222 193.299 143.109 193.33C142.997 193.359 142.879 193.383 142.754 193.4C142.63 193.418 142.507 193.427 142.383 193.427C141.919 193.427 141.552 193.326 141.282 193.123C141.014 192.92 140.88 192.602 140.88 192.171V191.045H141.662V192.171C141.662 192.316 141.688 192.433 141.741 192.521C141.794 192.609 141.874 192.673 141.981 192.714C142.088 192.754 142.222 192.774 142.383 192.774C142.564 192.774 142.736 192.756 142.899 192.721C143.061 192.686 142.814 192.761 142.994 192.699Z" fill="#3C3A3E"/>
<path d="M146.141 194.494C145.793 194.494 145.492 194.423 145.239 194.283C144.987 194.14 144.794 193.939 144.658 193.68C144.522 193.419 144.455 193.112 144.455 192.758C144.455 192.411 144.522 192.106 144.658 191.843C144.795 191.579 144.987 191.374 145.232 191.227C145.478 191.079 145.767 191.005 146.098 191.005C146.312 191.005 146.514 191.039 146.704 191.106C146.895 191.172 147.064 191.275 147.21 191.414C147.358 191.554 147.474 191.731 147.558 191.947C147.643 192.161 147.685 192.416 147.685 192.712V192.956H145.266V192.419H146.901C146.899 192.267 146.865 192.131 146.799 192.013C146.733 191.892 146.64 191.798 146.521 191.729C146.403 191.66 146.266 191.625 146.109 191.625C145.942 191.625 145.795 191.665 145.669 191.744C145.542 191.822 145.443 191.925 145.372 192.052C145.303 192.178 145.268 192.317 145.266 192.468V192.936C145.266 193.133 145.303 193.302 145.377 193.442C145.451 193.582 145.554 193.689 145.687 193.763C145.819 193.837 145.975 193.873 146.152 193.873C146.271 193.873 146.379 193.857 146.476 193.825C146.572 193.791 146.656 193.742 146.727 193.678C146.797 193.613 146.851 193.533 146.887 193.438L147.651 193.521C147.603 193.718 147.511 193.89 147.375 194.036C147.241 194.181 147.069 194.294 146.86 194.375C146.65 194.454 146.411 194.494 146.141 194.494Z" fill="#3C3A3E"/>
<path d="M148.377 195.695V191.049H149.182V191.608H149.23C149.272 191.526 149.331 191.438 149.408 191.346C149.485 191.252 149.589 191.172 149.72 191.106C149.851 191.039 150.019 191.005 150.222 191.005C150.49 191.005 150.732 191.072 150.948 191.205C151.165 191.337 151.337 191.533 151.463 191.793C151.591 192.051 151.655 192.367 151.655 192.743C151.655 193.114 151.593 193.429 151.468 193.689C151.343 193.948 151.172 194.146 150.957 194.283C150.741 194.419 150.497 194.487 150.224 194.487C150.025 194.487 149.86 194.455 149.729 194.39C149.598 194.326 149.493 194.248 149.413 194.157C149.334 194.065 149.273 193.978 149.23 193.895H149.196V195.695H148.377ZM149.18 192.738C149.18 192.957 149.212 193.148 149.275 193.313C149.34 193.477 149.432 193.605 149.553 193.697C149.675 193.788 149.823 193.834 149.996 193.834C150.177 193.834 150.328 193.787 150.45 193.693C150.573 193.598 150.664 193.468 150.726 193.304C150.79 193.138 150.821 192.95 150.821 192.738C150.821 192.529 150.79 192.342 150.729 192.18C150.667 192.017 150.575 191.889 150.453 191.797C150.331 191.705 150.178 191.658 149.996 191.658C149.821 191.658 149.673 191.703 149.551 191.793C149.429 191.882 149.336 192.007 149.273 192.169C149.211 192.33 149.18 192.52 149.18 192.738Z" fill="#3C3A3E"/>
<path d="M153.893 194.494C153.545 194.494 153.245 194.423 152.991 194.283C152.74 194.14 152.546 193.939 152.41 193.68C152.275 193.419 152.207 193.112 152.207 192.758C152.207 192.411 152.275 192.106 152.41 191.843C152.548 191.579 152.739 191.374 152.985 191.227C153.23 191.079 153.519 191.005 153.85 191.005C154.064 191.005 154.266 191.039 154.456 191.106C154.648 191.172 154.817 191.275 154.963 191.414C155.11 191.554 155.226 191.731 155.311 191.947C155.395 192.161 155.437 192.416 155.437 192.712V192.956H153.02V192.419H154.653C154.652 192.267 154.618 192.131 154.551 192.013C154.485 191.892 154.392 191.798 154.273 191.729C154.156 191.66 154.019 191.625 153.862 191.625C153.694 191.625 153.548 191.665 153.421 191.744C153.294 191.822 153.196 191.925 153.125 192.052C153.055 192.178 153.02 192.317 153.019 192.468V192.936C153.019 193.133 153.055 193.302 153.129 193.442C153.203 193.582 153.306 193.689 153.439 193.763C153.572 193.837 153.727 193.873 153.905 193.873C154.024 193.873 154.132 193.857 154.228 193.825C154.324 193.791 154.408 193.742 154.479 193.678C154.55 193.613 154.603 193.533 154.639 193.438L155.404 193.521C155.355 193.718 155.263 193.89 155.128 194.036C154.994 194.181 154.822 194.294 154.612 194.375C154.403 194.454 154.163 194.494 153.893 194.494Z" fill="#3C3A3E"/>
<path d="M155.938 193.502H156.749C156.757 193.628 156.815 193.725 156.923 193.794C157.032 193.863 157.173 193.898 157.346 193.898C157.522 193.898 157.671 193.86 157.791 193.785C157.913 193.709 157.974 193.594 157.974 193.44C157.974 193.349 157.951 193.269 157.904 193.2C157.858 193.13 157.792 193.076 157.708 193.038C157.623 192.999 157.524 192.98 157.409 192.98H156.878V192.415H157.409C157.58 192.415 157.708 192.377 157.796 192.301C157.885 192.224 157.929 192.128 157.929 192.013C157.929 191.888 157.883 191.787 157.789 191.709C157.697 191.631 157.57 191.592 157.407 191.592C157.244 191.592 157.109 191.628 157 191.7C156.893 191.772 156.837 191.864 156.833 191.977H156.026C156.029 191.781 156.089 191.61 156.207 191.465C156.326 191.32 156.485 191.207 156.686 191.126C156.888 191.045 157.115 191.005 157.369 191.005C157.64 191.005 157.874 191.045 158.072 191.124C158.269 191.203 158.421 191.314 158.528 191.456C158.635 191.597 158.689 191.763 158.689 191.953C158.689 192.136 158.63 192.288 158.513 192.408C158.395 192.527 158.237 192.612 158.038 192.664V192.699C158.175 192.706 158.299 192.744 158.409 192.813C158.519 192.881 158.606 192.972 158.671 193.088C158.736 193.204 158.768 193.338 158.768 193.491C158.768 193.697 158.707 193.876 158.585 194.027C158.463 194.177 158.295 194.292 158.081 194.373C157.868 194.453 157.625 194.494 157.351 194.494C157.084 194.494 156.845 194.455 156.634 194.377C156.424 194.298 156.258 194.184 156.134 194.036C156.011 193.888 155.945 193.71 155.938 193.502Z" fill="#3C3A3E"/>
<path d="M162.002 194.428L160.695 189.923H161.597L162.431 193.233H162.474L163.365 189.923H164.186L165.079 193.236H165.119L165.954 189.923H166.856L165.549 194.428H164.721L163.795 191.267H163.758L162.829 194.428H162.002Z" fill="#3C3A3E"/>
<path d="M168.584 194.494C168.236 194.494 167.935 194.423 167.682 194.283C167.43 194.14 167.236 193.939 167.101 193.68C166.965 193.419 166.897 193.112 166.897 192.758C166.897 192.411 166.965 192.106 167.101 191.843C167.238 191.579 167.429 191.374 167.675 191.227C167.921 191.079 168.209 191.005 168.541 191.005C168.755 191.005 168.957 191.039 169.147 191.106C169.338 191.172 169.507 191.275 169.653 191.414C169.801 191.554 169.917 191.731 170.001 191.947C170.086 192.161 170.128 192.416 170.128 192.712V192.956H167.709V192.419H169.343C169.342 192.267 169.308 192.131 169.242 192.013C169.175 191.892 169.083 191.798 168.964 191.729C168.846 191.66 168.709 191.625 168.552 191.625C168.385 191.625 168.238 191.665 168.111 191.744C167.985 191.822 167.886 191.925 167.815 192.052C167.746 192.178 167.71 192.317 167.709 192.468V192.936C167.709 193.133 167.746 193.302 167.82 193.442C167.894 193.582 167.997 193.689 168.129 193.763C168.262 193.837 168.417 193.873 168.595 193.873C168.714 193.873 168.822 193.857 168.918 193.825C169.015 193.791 169.098 193.742 169.169 193.678C169.24 193.613 169.294 193.533 169.33 193.438L170.094 193.521C170.046 193.718 169.954 193.89 169.818 194.036C169.684 194.181 169.512 194.294 169.303 194.375C169.093 194.454 168.854 194.494 168.584 194.494Z" fill="#3C3A3E"/>
<path d="M170.856 194.428V189.923H171.675V191.608H171.709C171.751 191.526 171.81 191.438 171.887 191.346C171.964 191.252 172.068 191.172 172.199 191.106C172.33 191.039 172.498 191.005 172.701 191.005C172.969 191.005 173.211 191.072 173.427 191.205C173.644 191.337 173.816 191.533 173.942 191.793C174.07 192.051 174.134 192.367 174.134 192.743C174.134 193.114 174.072 193.429 173.947 193.689C173.822 193.948 173.651 194.146 173.436 194.283C173.22 194.419 172.976 194.487 172.703 194.487C172.504 194.487 172.339 194.455 172.208 194.39C172.077 194.326 171.972 194.248 171.892 194.157C171.813 194.065 171.752 193.978 171.709 193.895H171.661V194.428H170.856ZM171.659 192.738C171.659 192.957 171.69 193.148 171.754 193.313C171.819 193.477 171.911 193.605 172.032 193.697C172.154 193.788 172.302 193.834 172.475 193.834C172.656 193.834 172.807 193.787 172.929 193.693C173.051 193.598 173.143 193.468 173.205 193.304C173.268 193.138 173.3 192.95 173.3 192.738C173.3 192.529 173.269 192.342 173.207 192.18C173.146 192.017 173.054 191.889 172.932 191.797C172.81 191.705 172.657 191.658 172.475 191.658C172.3 191.658 172.152 191.703 172.03 191.793C171.908 191.882 171.815 192.007 171.752 192.169C171.69 192.33 171.659 192.52 171.659 192.738Z" fill="#3C3A3E"/>
<path d="M213.909 193.912V190.908H215.09C215.314 190.908 215.499 190.943 215.647 191.011C215.795 191.078 215.906 191.171 215.98 191.288C216.054 191.405 216.091 191.538 216.091 191.687C216.091 191.809 216.067 191.914 216.019 192.001C215.971 192.087 215.906 192.157 215.824 192.211C215.743 192.264 215.652 192.303 215.552 192.326V192.356C215.661 192.362 215.766 192.394 215.867 192.454C215.968 192.513 216.051 192.596 216.115 192.703C216.18 192.811 216.212 192.941 216.212 193.093C216.212 193.249 216.173 193.389 216.096 193.513C216.018 193.636 215.902 193.733 215.746 193.804C215.59 193.876 215.394 193.912 215.158 193.912H213.909ZM214.468 193.457H215.069C215.272 193.457 215.419 193.419 215.508 193.344C215.598 193.268 215.644 193.17 215.644 193.051C215.644 192.962 215.621 192.882 215.576 192.81C215.531 192.738 215.466 192.681 215.383 192.64C215.299 192.598 215.2 192.577 215.084 192.577H214.468V193.457ZM214.468 192.186H215.021C215.118 192.186 215.205 192.168 215.282 192.134C215.359 192.099 215.42 192.05 215.464 191.986C215.509 191.922 215.532 191.845 215.532 191.757C215.532 191.641 215.49 191.545 215.405 191.47C215.322 191.395 215.198 191.357 215.033 191.357H214.468V192.186Z" fill="#3C3A3E"/>
<path d="M216.674 193.912V191.659H217.22V192.568H217.419L218.115 191.659H218.772L217.914 192.765L218.781 193.912H218.121L217.486 193.062H217.22V193.912H216.674Z" fill="#3C3A3E"/>
<path d="M218.931 193.912L218.928 193.475H219.007C219.068 193.475 219.119 193.461 219.16 193.435C219.201 193.409 219.235 193.365 219.262 193.303C219.289 193.24 219.31 193.156 219.325 193.051C219.341 192.945 219.351 192.814 219.357 192.656L219.398 191.659H221.086V193.912H220.558V192.095H219.894L219.857 192.821C219.848 193.008 219.827 193.171 219.793 193.309C219.76 193.446 219.712 193.559 219.651 193.648C219.591 193.737 219.515 193.803 219.423 193.847C219.332 193.89 219.224 193.912 219.099 193.912H218.931Z" fill="#3C3A3E"/>
<path d="M222.48 192.582V192.79V193.018H222.044V192.582H222.48ZM222.044 191.659V193.912H221.496V191.659H222.044ZM223.557 193.956C223.334 193.956 223.14 193.906 222.976 193.807C222.814 193.709 222.688 193.572 222.598 193.397C222.509 193.222 222.48 193.019 222.48 192.79C222.48 192.56 222.509 192.358 222.598 192.184C222.688 192.01 222.814 191.874 222.976 191.776C223.14 191.679 223.334 191.63 223.557 191.63C223.779 191.63 223.971 191.679 224.134 191.776C224.298 191.874 224.424 192.01 224.514 192.184C224.604 192.358 224.649 192.56 224.649 192.79C224.649 193.019 224.604 193.222 224.514 193.397C224.424 193.572 224.298 193.709 224.134 193.807C223.971 193.906 223.779 193.956 223.557 193.956ZM223.557 193.516C223.688 193.516 223.796 193.483 223.879 193.419C223.963 193.354 224.024 193.267 224.063 193.158C224.102 193.048 224.122 192.926 224.122 192.79C224.122 192.654 224.102 192.531 224.063 192.422C224.024 192.312 223.963 192.226 223.879 192.162C223.796 192.098 223.688 192.065 223.557 192.065C223.424 192.065 223.316 192.098 223.231 192.162C223.148 192.226 223.086 192.312 223.047 192.422C223.008 192.531 222.989 192.654 222.989 192.79C222.989 192.927 223.008 193.05 223.047 193.159C223.086 193.269 223.148 193.356 223.231 193.42C223.316 193.484 223.424 193.516 223.557 193.516Z" fill="#3C3A3E"/>
<path d="M227.067 191.659V193.912H226.542V191.659H227.067ZM226.542 192.759V193.193C226.483 193.219 226.694 193.159 226.619 193.18C226.545 193.199 226.466 193.215 226.383 193.227C226.3 193.238 226.218 193.244 226.135 193.244C225.826 193.244 225.581 193.177 225.401 193.042C225.223 192.906 225.133 192.694 225.133 192.407V191.656H225.655V192.407C225.655 192.504 225.672 192.582 225.707 192.64C225.742 192.699 225.796 192.742 225.867 192.769C225.938 192.796 226.028 192.809 226.135 192.809C226.256 192.809 226.37 192.797 226.479 192.774C226.587 192.75 226.423 192.8 226.542 192.759Z" fill="#3C3A3E"/>
<path d="M228.641 193.956C228.408 193.956 228.208 193.909 228.039 193.815C227.871 193.72 227.742 193.586 227.652 193.413C227.561 193.239 227.516 193.034 227.516 192.799C227.516 192.567 227.561 192.364 227.652 192.189C227.743 192.013 227.871 191.876 228.035 191.778C228.198 191.679 228.391 191.63 228.612 191.63C228.755 191.63 228.889 191.652 229.016 191.697C229.143 191.741 229.256 191.81 229.353 191.903C229.452 191.995 229.529 192.114 229.586 192.257C229.642 192.4 229.67 192.57 229.67 192.768V192.931L228.057 192.917V192.56L229.147 192.573C229.146 192.471 229.123 192.381 229.079 192.301C229.035 192.221 228.973 192.158 228.894 192.112C228.815 192.066 228.724 192.043 228.619 192.043C228.508 192.043 228.41 192.07 228.326 192.123C228.241 192.174 228.175 192.243 228.128 192.328C228.082 192.412 228.058 192.504 228.057 192.605V192.917C228.057 193.048 228.082 193.161 228.131 193.255C228.18 193.347 228.249 193.419 228.338 193.469C228.426 193.518 228.53 193.542 228.648 193.542C228.727 193.542 228.799 193.531 228.864 193.51C228.928 193.487 228.984 193.455 229.031 193.411C229.078 193.368 229.114 193.315 229.138 193.252L229.647 193.307C229.615 193.438 229.554 193.553 229.463 193.651C229.374 193.747 229.259 193.823 229.12 193.876C228.98 193.929 228.82 193.956 228.641 193.956ZM228.146 191.328C228.067 191.328 227.998 191.3 227.94 191.246C227.882 191.191 227.854 191.126 227.854 191.052C227.854 190.974 227.882 190.908 227.94 190.856C227.998 190.802 228.067 190.775 228.146 190.775C228.228 190.775 228.296 190.802 228.351 190.856C228.407 190.908 228.436 190.974 228.436 191.052C228.436 191.126 228.407 191.191 228.351 191.246C228.296 191.3 228.228 191.328 228.146 191.328ZM229.05 191.328C228.971 191.328 228.902 191.3 228.844 191.246C228.787 191.191 228.758 191.126 228.758 191.052C228.758 190.974 228.787 190.908 228.844 190.856C228.902 190.802 228.971 190.775 229.05 190.775C229.132 190.775 229.2 190.802 229.255 190.856C229.312 190.908 229.34 190.974 229.34 191.052C229.34 191.126 229.312 191.191 229.255 191.246C229.2 191.3 229.132 191.328 229.05 191.328Z" fill="#3C3A3E"/>
<path d="M231.554 192.565V193.001H230.657V192.565H231.554ZM230.657 191.659V193.912H230.131V191.659H230.657ZM232.079 191.659V193.912H231.554V191.659H232.079Z" fill="#3C3A3E"/>
<path d="M251.575 193.912V190.908H252.756C252.979 190.908 253.165 190.943 253.312 191.011C253.461 191.078 253.572 191.171 253.645 191.288C253.72 191.405 253.757 191.538 253.757 191.687C253.757 191.809 253.733 191.914 253.685 192.001C253.636 192.087 253.571 192.157 253.49 192.211C253.409 192.264 253.318 192.303 253.217 192.326V192.356C253.327 192.362 253.432 192.394 253.532 192.454C253.634 192.513 253.717 192.596 253.781 192.703C253.845 192.811 253.877 192.941 253.877 193.093C253.877 193.249 253.839 193.389 253.761 193.513C253.684 193.636 253.567 193.733 253.412 193.804C253.256 193.876 253.06 193.912 252.824 193.912H251.575ZM252.134 193.457H252.735C252.938 193.457 253.084 193.419 253.174 193.344C253.264 193.268 253.309 193.17 253.309 193.051C253.309 192.962 253.287 192.882 253.241 192.81C253.196 192.738 253.132 192.681 253.049 192.64C252.965 192.598 252.866 192.577 252.75 192.577H252.134V193.457ZM252.134 192.186H252.687C252.783 192.186 252.87 192.168 252.948 192.134C253.025 192.099 253.086 192.05 253.13 191.986C253.175 191.922 253.198 191.845 253.198 191.757C253.198 191.641 253.156 191.545 253.071 191.47C252.988 191.395 252.864 191.357 252.699 191.357H252.134V192.186Z" fill="#3C3A3E"/>
<path d="M255.233 193.912L255.23 193.475H255.31C255.37 193.475 255.421 193.461 255.462 193.435C255.503 193.409 255.537 193.365 255.564 193.303C255.591 193.24 255.613 193.156 255.628 193.051C255.643 192.945 255.653 192.814 255.659 192.656L255.7 191.659H257.388V193.912H256.86V192.095H256.196L256.16 192.821C256.151 193.008 256.129 193.171 256.095 193.309C256.062 193.446 256.014 193.559 255.953 193.648C255.893 193.737 255.817 193.803 255.726 193.847C255.634 193.89 255.526 193.912 255.402 193.912H255.233Z" fill="#3C3A3E"/>
<path d="M258.463 193.193L259.39 191.659H259.951V193.912H259.423V192.376L258.499 193.912H257.937V191.659H258.463V193.193Z" fill="#3C3A3E"/>
<path d="M261.934 192.565V193.001H261.037V192.565H261.934ZM261.037 191.659V193.912H260.511V191.659H261.037ZM262.458 191.659V193.912H261.934V191.659H262.458Z" fill="#3C3A3E"/>
<path d="M263.536 193.193L264.463 191.659H265.024V193.912H264.496V192.376L263.572 193.912H263.01V191.659H263.536V193.193Z" fill="#3C3A3E"/>
<path d="M266.11 193.193L267.037 191.659H267.597V193.912H267.07V192.376L266.146 193.912H265.584V191.659H266.11V193.193Z" fill="#3C3A3E"/>
<path d="M283.312 119.263C282.911 118.913 282.463 118.587 282.028 118.284C281.738 118.082 281.461 117.962 281.162 117.855C281.25 117.57 281.027 117.213 280.674 117.343C278.516 118.11 276.502 119.425 274.876 121.068C273.4 122.541 271.929 124.696 272.112 126.889C272.282 129.058 273.354 131.162 274.445 133.018C275.635 135.059 277.011 136.94 278.447 138.82C279.724 140.516 280.93 142.251 282.23 143.935C283.58 145.712 285.096 147.459 287.028 148.687C288.429 149.603 289.96 149.974 291.566 149.978C292.33 150.105 293.08 150.15 293.876 150.111C295.361 150.06 296.769 149.754 298.134 149.143C298.746 148.875 299.308 148.515 299.82 148.062C300.042 147.855 300.203 147.649 300.352 147.421C300.439 147.582 300.749 147.595 300.84 147.428C300.92 147.296 300.975 147.117 301.02 146.975C301.14 147.029 301.29 146.86 301.181 146.769C301.133 146.736 301.12 146.713 301.072 146.679C301.126 145.936 300.82 145.088 300.532 144.44C300.14 143.489 299.49 142.617 298.806 141.853C298.732 141.773 298.647 141.67 298.573 141.59C298.377 141.338 298.192 141.051 297.972 140.811C297.408 140.101 296.762 139.406 296 138.891C295.536 138.366 295.119 137.816 294.736 137.217C294.563 136.953 294.193 136.883 293.948 137.103C293.226 137.728 292.637 138.488 292.121 139.27C291.914 139.56 291.719 139.872 291.537 140.208C291.479 140.268 291.432 140.293 291.374 140.354C291.292 140.428 291.306 140.509 291.32 140.591C290.959 140.427 290.553 140.347 290.181 140.219C289.593 139.968 289.05 139.634 288.541 139.251C287.343 138.375 286.341 137.245 285.433 136.065C283.839 134.003 282.401 131.559 281.935 128.953C282.572 129.237 283.287 129.271 283.987 129.224C285.104 129.162 286.214 128.865 287.213 128.361C287.307 128.311 287.376 128.214 287.373 128.097C287.261 125.866 286.591 123.667 285.416 121.767C284.834 120.799 284.113 119.965 283.312 119.263ZM286.579 126.678C286.605 126.783 286.62 126.923 286.647 127.028C286.611 127.018 286.611 127.018 286.575 127.007C286.584 126.913 286.582 126.795 286.579 126.678ZM281.122 128.733C281.087 128.782 281.09 128.899 281.138 128.933C281.247 129.023 281.366 129.019 281.471 128.933C281.471 128.933 281.471 128.933 281.495 128.921C281.535 130.119 281.979 131.279 282.444 132.369C283.073 133.817 283.902 135.188 284.86 136.461C285.793 137.687 286.843 138.851 288.078 139.796C288.599 140.202 289.191 140.57 289.815 140.831C290.176 140.995 290.596 141.157 291.001 141.178C290.945 141.357 290.878 141.512 290.822 141.69C290.778 141.833 290.959 141.944 291.064 141.858C291.563 141.324 291.952 140.699 292.367 140.12C292.461 140.07 292.555 140.02 292.613 139.959C292.733 140.014 292.852 140.01 293.005 139.958C293.205 139.88 293.392 139.275 293.555 139.128C293.613 139.067 293.671 139.007 293.765 138.956C293.683 139.03 293.848 138.942 293.812 138.931C293.859 138.906 293.954 138.915 293.978 138.902C294.037 138.9 294.097 138.898 294.168 138.919C294.228 138.917 294.276 138.951 294.312 138.961C294.42 138.993 294.54 139.047 294.648 139.079C294.96 139.21 295.662 139.735 295.954 139.995C296.588 140.668 297.028 141.305 297.65 141.954C298.335 142.777 298.817 143.84 299.303 144.799C299.453 145.076 299.591 145.389 299.717 145.679C298.976 145.034 298.212 144.401 297.506 143.708L297.482 143.721C298.216 144.577 299.031 145.361 299.87 146.132C299.882 146.155 299.882 146.155 299.895 146.178C299.92 146.224 299.909 146.26 299.934 146.306C299.935 146.365 299.949 146.447 299.974 146.493C299.728 146.654 299.469 146.792 299.211 146.931C299.127 146.886 299.031 146.878 298.947 146.834C298.658 146.691 298.37 146.548 298.068 146.382C297.466 146.049 296.897 145.61 296.597 144.997C296.572 144.951 296.465 144.978 296.503 145.047C296.707 145.652 297.17 146.118 297.679 146.501C297.981 146.726 298.318 146.902 298.656 147.079C298.704 147.112 298.776 147.133 298.837 147.19C298.367 147.441 297.861 147.682 297.378 147.851C296.239 147.479 295.279 146.594 294.357 145.838C294.296 145.781 294.191 145.867 294.252 145.924C295.055 146.684 295.884 147.55 296.858 148.01C296.339 148.169 295.794 148.282 295.261 148.359C294.829 148.174 294.431 147.94 294.033 147.707C293.067 147.093 292.194 146.37 291.181 145.782L291.157 145.794C292.151 146.572 293.074 147.387 294.125 148.103C294.306 148.215 294.5 148.349 294.704 148.448C294.36 148.484 294.016 148.519 293.66 148.531C293.518 148.548 293.363 148.541 293.208 148.535C291.801 147.889 290.569 146.555 289.419 145.712C289.371 145.679 289.313 145.74 289.361 145.773C290.369 146.632 291.359 147.798 292.519 148.546C291.876 148.533 291.257 148.507 290.649 148.445C290.409 148.336 290.179 148.191 289.974 148.033C289.332 147.573 288.737 147.029 288.072 146.581C288.024 146.548 287.978 146.632 288.027 146.665C288.741 147.205 289.316 147.88 290.054 148.407C289.958 148.399 289.863 148.39 289.732 148.371C289.147 148.297 288.526 148.153 287.951 147.985C287.376 147.816 286.834 147.541 286.247 147.349C286.175 147.328 286.105 147.366 286.106 147.425C285.378 146.803 284.708 146.12 284.097 145.435C282.606 143.734 281.361 141.872 279.999 140.072C278.684 138.306 277.347 136.552 276.114 134.713C274.923 132.614 273.672 130.516 273.035 128.21C272.736 127.15 272.713 126.151 273.033 125.117C273.376 124.012 274.101 122.999 274.877 122.138C276.279 120.585 278.092 119.289 280.047 118.481C280.059 118.504 280.095 118.515 280.107 118.538C280.866 118.935 281.626 119.391 282.27 119.969C283.048 120.683 283.663 121.544 284.195 122.42C284.616 123.146 285.03 124.026 285.301 124.922C285.193 124.891 285.097 124.882 284.979 124.886C284.943 124.876 284.944 124.934 284.98 124.945C285.099 124.941 285.207 124.972 285.314 125.004C285.471 125.575 285.591 126.135 285.605 126.723C285.04 126.46 284.473 126.138 284.06 125.764L284.036 125.777C284.415 126.199 284.875 126.548 285.357 126.825C285.442 126.869 285.526 126.913 285.61 126.958C285.616 127.193 285.598 127.44 285.557 127.7C285.403 127.752 285.226 127.817 285.073 127.87C284.281 127.579 283.538 126.817 283.155 126.218L283.132 126.231C283.405 126.739 284.009 127.635 284.719 127.999C284.436 128.091 284.189 128.194 283.906 128.286C283.859 128.311 283.799 128.313 283.752 128.338C283.416 128.22 283.078 127.985 282.811 127.77C282.326 127.375 281.865 126.968 281.356 126.585C281.308 126.552 281.226 126.625 281.287 126.682C281.822 127.169 282.299 127.717 282.868 128.156C282.977 128.247 283.122 128.348 283.255 128.425C282.947 128.471 282.614 128.471 282.279 128.412C282.278 128.353 282.277 128.294 282.205 128.273C281.521 128.014 281.008 127.456 280.533 126.966C280.447 126.863 280.284 127.01 280.37 127.113C280.784 127.546 281.211 128.001 281.718 128.325C281.659 128.327 281.626 128.434 281.674 128.468C281.771 128.535 281.855 128.579 281.94 128.623C281.712 128.537 281.507 128.438 281.314 128.304C281.229 128.259 281.137 128.368 281.21 128.448C281.283 128.528 281.38 128.595 281.441 128.652C281.321 128.597 281.191 128.637 281.122 128.733ZM286.408 127.989C286.473 127.716 286.514 127.456 286.532 127.208C286.568 127.219 286.591 127.206 286.627 127.217C286.656 127.439 286.673 127.639 286.702 127.861C286.631 127.899 286.538 127.949 286.408 127.989Z" fill="#FE7849"/>
<path d="M268.515 142.587C266.254 142.391 264.083 142.212 261.915 142.026C261.483 141.99 261.177 141.965 260.642 141.832C260.244 141.737 259.404 141.518 259.596 141.116C259.789 140.799 259.967 140.599 260.725 140.588C262.683 140.569 264.628 140.84 266.559 141.098C268.264 141.327 269.561 141.527 271.058 141.819C271.757 141.955 271.935 142.367 271.679 142.967C271.448 143.506 271.221 144.062 270.893 144.548C269.72 146.304 268.505 148.022 267.301 149.762C267.153 149.979 267.051 150.157 266.837 150.39C266.576 150.67 266.401 150.888 266.083 150.695C265.778 150.515 265.93 150.04 266.054 149.816C267.049 147.924 269.167 144.054 269.233 143.823C267.99 144.198 266.832 144.519 265.69 144.905C257.752 147.631 250.078 150.897 243.282 155.934C237.903 159.922 233.092 164.475 228.993 169.762C228.749 170.073 228.475 170.366 228.206 170.644C227.846 171.026 227.591 171.161 227.379 170.989C227.026 170.614 227.203 170.293 227.322 170.025C227.553 169.487 227.901 168.99 228.238 168.507C232.803 162.092 238.62 156.987 245.139 152.621C251.83 148.139 259.254 145.329 266.945 143.137C267.356 143.037 268.346 142.694 268.515 142.587Z" fill="#F4774C"/>
<defs>
<filter id="filter0_d_1361_815" x="60" y="1" width="370" height="217.158" filterUnits="userSpaceOnUse" color-interpolation-filters="sRGB">
<feFlood flood-opacity="0" result="BackgroundImageFix"/>
<feColorMatrix in="SourceAlpha" type="matrix" values="0 0 0 0 0 0 0 0 0 0 0 0 0 0 0 0 0 0 127 0" result="hardAlpha"/>
<feOffset/>
<feGaussianBlur stdDeviation="10"/>
<feComposite in2="hardAlpha" operator="out"/>
<feColorMatrix type="matrix" values="0 0 0 0 0.956863 0 0 0 0 0.466667 0 0 0 0 0.298039 0 0 0 0.16 0"/>
<feBlend mode="normal" in2="BackgroundImageFix" result="effect1_dropShadow_1361_815"/>
<feBlend mode="normal" in="SourceGraphic" in2="effect1_dropShadow_1361_815" result="shape"/>
</filter>
<filter id="filter1_d_1361_815" x="36.0859" y="50" width="247.912" height="83.1445" filterUnits="userSpaceOnUse" color-interpolation-filters="sRGB">
<feFlood flood-opacity="0" result="BackgroundImageFix"/>
<feColorMatrix in="SourceAlpha" type="matrix" values="0 0 0 0 0 0 0 0 0 0 0 0 0 0 0 0 0 0 127 0" result="hardAlpha"/>
<feOffset/>
<feGaussianBlur stdDeviation="10"/>
<feComposite in2="hardAlpha" operator="out"/>
<feColorMatrix type="matrix" values="0 0 0 0 0.956863 0 0 0 0 0.466667 0 0 0 0 0.298039 0 0 0 0.16 0"/>
<feBlend mode="normal" in2="BackgroundImageFix" result="effect1_dropShadow_1361_815"/>
<feBlend mode="normal" in="SourceGraphic" in2="effect1_dropShadow_1361_815" result="shape"/>
</filter>
<filter id="filter2_d_1361_815" x="71" y="158.194" width="238.062" height="81.8057" filterUnits="userSpaceOnUse" color-interpolation-filters="sRGB">
<feFlood flood-opacity="0" result="BackgroundImageFix"/>
<feColorMatrix in="SourceAlpha" type="matrix" values="0 0 0 0 0 0 0 0 0 0 0 0 0 0 0 0 0 0 127 0" result="hardAlpha"/>
<feOffset/>
<feGaussianBlur stdDeviation="10"/>
<feComposite in2="hardAlpha" operator="out"/>
<feColorMatrix type="matrix" values="0 0 0 0 0.956863 0 0 0 0 0.466667 0 0 0 0 0.298039 0 0 0 0.16 0"/>
<feBlend mode="normal" in2="BackgroundImageFix" result="effect1_dropShadow_1361_815"/>
<feBlend mode="normal" in="SourceGraphic" in2="effect1_dropShadow_1361_815" result="shape"/>
</filter>
</defs>
</svg>
