<svg width="226" height="235" viewBox="0 0 226 235" fill="none" xmlns="http://www.w3.org/2000/svg">
<path d="M55.8626 158.099C55.7718 158.303 55.5858 158.611 55.4607 159.166C55.288 159.772 55.2758 160.621 55.4064 161.315C55.4717 161.661 55.5326 161.908 55.6411 162.103C55.6455 162.202 55.6975 162.25 55.7496 162.298C55.8016 162.345 55.8016 162.345 55.8016 162.345C55.8016 162.345 55.8537 162.393 55.8581 162.493C55.9101 162.54 55.9666 162.687 56.0707 162.783C56.1747 162.878 56.2832 163.073 56.4393 163.216C56.4914 163.263 56.5434 163.311 56.6475 163.406C57.1202 163.934 57.4841 164.41 58.0476 164.734C59.2267 165.431 60.5966 165.777 61.9141 166.217C63.2272 166.558 64.6455 167.27 66.0538 167.507C66.7082 167.628 67.4114 167.601 68.1133 167.669C68.4643 167.704 68.9808 167.637 69.3838 167.719C69.7348 167.753 70.0445 167.971 70.4475 168.053C73.2686 168.627 75.8853 169.441 78.9709 170.352C80.4877 170.784 82.1042 171.211 83.7549 171.288C84.2056 171.318 84.6041 171.3 85.0547 171.33C85.4533 171.312 85.9515 171.29 86.3977 171.22L87.0908 171.09L87.4374 171.024C87.537 171.02 87.6843 170.963 87.7839 170.959C88.2257 170.79 88.6674 170.62 89.0527 170.304C90.6028 169.236 91.5284 167.598 92.2072 166.02C92.9335 164.39 93.8098 162.175 94.2328 160.459C94.6558 158.743 94.8368 157.269 95.2078 155.505C95.2897 155.102 95.4607 154.845 95.5426 154.442C95.6722 153.987 95.6691 153.341 95.7987 152.885C96.0102 152.027 96.1491 151.368 96.3086 150.462C98.0393 143.347 100.365 135.842 102.23 128.371C102.696 126.503 102.658 124.821 103.124 122.953C103.59 121.085 104.056 119.217 104.418 117.254C104.573 116.249 104.996 114.891 104.948 113.795C104.951 112.746 104.487 112.06 103.997 111.133C103.454 110.159 102.622 109.397 101.75 108.886L101.035 108.519C100.779 108.38 100.528 108.342 100.324 108.251C99.8174 108.074 99.0895 107.611 98.6345 107.482C94.8901 106.35 91.3753 105.703 87.6785 104.519C85.8064 103.953 83.9818 103.336 82.2048 102.666C80.3758 101.948 78.404 101.387 76.4022 101.276C75.4014 101.221 74.3573 101.317 73.3697 101.561C72.3345 101.856 71.4078 102.347 70.5896 103.032C69.7714 103.717 69.2089 104.541 68.7505 105.46C68.5213 105.919 68.2921 106.379 68.1626 106.834L67.6743 108.203C66.4386 111.852 65.6014 115.484 64.7643 119.115C64.0268 122.742 63.337 126.317 62.491 129.75C61.645 133.182 60.8466 136.562 60.0438 139.842C58.6885 145.294 57.424 150.542 56.2414 155.387C55.9867 156.397 55.8184 157.103 55.8184 157.103L55.8228 157.203C56.1527 157.887 56.6421 157.665 56.8801 157.405C56.9278 157.353 56.9278 157.353 56.9278 157.353C56.9278 157.353 57.0961 156.647 57.3507 155.637C58.4946 151.044 59.6728 146.099 60.9893 140.899C61.7921 137.618 62.5949 134.338 63.4409 130.906C64.2869 127.473 64.9291 123.95 65.671 120.423C66.413 116.896 67.2025 113.316 68.3429 109.771L68.7836 108.454L69.2243 107.136C69.4059 106.729 69.5875 106.321 69.7691 105.914C70.0027 105.554 70.1843 105.147 70.47 104.834C70.7036 104.475 71.0413 104.21 71.3269 103.898C71.6646 103.633 72.0023 103.368 72.4441 103.199C73.1759 102.817 74.0639 102.578 74.9607 102.538C76.7022 102.411 78.5656 102.777 80.3381 103.348C80.7932 103.477 81.2006 103.659 81.6556 103.788L83.0252 104.277C83.9397 104.635 84.7783 105.153 85.6928 105.512C89.3896 106.696 93.1489 107.421 96.8413 108.505C97.7514 108.764 98.7135 109.071 99.576 109.382C100.438 109.693 101.253 110.057 101.925 110.576C102.597 111.095 103.079 111.823 103.266 112.663C103.501 113.451 103.493 114.4 103.433 115.301C103.266 117.156 102.748 118.976 102.329 120.792C101.863 122.659 101.444 124.475 100.978 126.343C99.2087 133.71 97.3828 140.93 95.6477 147.946C95.2247 149.662 94.7541 151.43 94.3311 153.146C94.1196 154.004 93.9081 154.862 93.7486 155.768C93.5371 156.626 93.4253 157.479 93.2138 158.337C92.8384 160.001 92.463 161.666 91.936 163.286C91.4565 164.855 90.8254 166.381 89.9341 167.668C89.5145 168.336 88.6293 168.618 88.0492 169.043C87.7591 169.256 87.6233 169.28 87.3288 169.393C87.1815 169.449 86.8288 169.748 86.6295 169.757L86.3396 169.913C84.8538 170.179 83.4549 170.153 81.947 169.92C78.9743 169.303 76.1832 168.279 73.4485 167.402C72.0313 166.966 70.6662 166.577 69.2623 166.44C67.9061 166.251 66.5498 166.061 65.3408 165.815C64.0322 165.574 62.8707 165.276 61.7049 164.879C60.5391 164.481 59.5205 164.027 58.6448 163.417C58.4366 163.227 58.1809 163.088 58.0248 162.945C57.9207 162.85 57.8166 162.755 57.7646 162.707L57.6085 162.565L57.5565 162.517C57.5044 162.469 57.5044 162.469 57.4524 162.422C57.4004 162.374 57.3483 162.327 57.3439 162.227C57.1834 161.984 57.0793 161.889 57.0793 161.889C57.0793 161.889 56.6542 161.309 56.4715 160.568C56.2888 159.828 56.3575 159.126 56.3099 159.178C56.331 158.528 56.4085 158.025 56.2524 157.882C56.0011 157.844 55.9534 157.896 55.8626 158.099Z" fill="#F4774C"/>
<path d="M88.1703 160.608C88.5213 160.642 88.7726 160.681 89.1236 160.715C89.4746 160.75 89.5581 160.3 89.6444 159.996C89.7308 159.693 89.8257 159.378 89.9121 159.074C90.0848 158.468 89.9873 157.682 90.2076 157.023C91.6327 152.018 92.8928 146.67 94.2957 141.166C94.9734 138.441 95.8036 135.664 96.3772 132.843C96.6617 131.383 96.6377 129.83 96.9744 128.418C97.2589 126.957 97.5435 125.497 97.9322 124.132C98.7051 121.302 99.6728 118.364 100.086 115.3L100.125 115.049L100.202 114.546L100.241 114.295L100.284 114.143C100.284 114.143 100.288 114.082 100.28 114.043C100.237 113.838 99.8632 113.598 99.8632 113.598C99.8632 113.598 99.0399 113.315 98.5197 113.048C97.7472 112.653 96.4078 112.357 96.4078 112.357C94.9907 111.921 93.1845 110.784 91.7674 110.348C85.9471 108.56 80.0997 107.526 74.2064 106.34L73.5471 106.216C73.5471 106.216 73.2176 106.066 73.0001 106.092C72.9092 106.103 72.7734 106.152 72.7734 106.152C72.7734 106.152 72.7414 106.197 72.6784 106.284C72.6154 106.37 72.5206 106.648 72.5251 106.748C72.5295 106.848 72.2554 108 72.2554 108C72.0871 108.706 71.9188 109.412 71.7029 110.171C71.3186 111.636 70.982 113.048 70.5458 114.465C69.7729 117.295 68.9479 120.078 68.1706 122.808C66.5684 128.32 65.057 133.629 63.8876 138.773C63.5942 140.034 63.3008 141.295 63.0594 142.604C62.9387 143.258 62.7659 143.865 62.6928 144.467C62.5721 145.121 62.499 145.724 62.3263 146.33C62.0805 147.539 61.9343 148.744 61.7881 149.949C61.7538 150.3 61.6719 150.703 61.6375 151.054C61.5345 152.106 61.4659 152.808 61.4182 152.86L61.4227 152.96C61.8522 153.64 62.3372 153.319 62.5232 153.011C62.5708 152.959 62.5708 152.959 62.5708 152.959C62.5708 152.959 62.8666 152.373 62.9696 151.32C62.9607 151.121 63.0544 150.694 63.0976 150.542C63.2958 149.385 63.4938 148.476 63.692 147.319C63.9378 146.11 63.7502 144.67 64.0436 143.409C64.2894 142.2 64.5829 140.939 64.8763 139.678C66.0501 134.633 67.5139 129.377 69.0729 124.016C69.8503 121.286 70.6276 118.555 71.4525 115.773C71.8411 114.408 72.2254 112.943 72.562 111.53C72.7303 110.824 72.8986 110.118 73.1145 109.359C73.2396 108.805 73.7437 108.182 73.7437 108.182C73.7437 108.182 74.5993 107.946 75.154 108.071C75.8603 108.239 76.6143 108.355 77.3207 108.524C78.7334 108.86 80.1981 109.244 81.6109 109.581C84.4884 110.302 87.3703 111.122 90.2046 111.995C93.0389 112.867 95.7049 113.847 98.5437 114.819C98.5437 114.819 98.6568 114.961 98.6225 115.312C98.5881 115.663 98.5764 115.687 98.4944 116.09C98.3782 116.844 98.476 117.269 98.3077 117.975C97.9711 119.388 97.1596 121.314 96.771 122.679C96.6026 123.385 96.5284 123.862 96.3081 124.521C96.1398 125.227 95.7591 125.994 95.6384 126.648C95.3538 128.108 95.076 129.364 94.7914 130.824C94.2178 133.645 94.1309 136.331 93.5529 139.053C92.2452 144.452 90.5964 149.787 89.2665 154.688C88.921 155.902 88.9122 157.081 88.5668 158.294C88.4328 158.649 88.3508 159.052 88.2169 159.408C88.1172 159.412 87.8138 159.326 87.6146 159.335C87.3112 159.248 86.9079 158.933 86.6566 158.894C84.3426 158.497 82.5287 158.029 80.3532 157.377C78.2297 156.773 76.021 155.716 74.0535 155.254C72.0861 154.792 70.0031 155.075 68.1918 154.756C67.5375 154.635 67.0348 154.558 66.5798 154.428C66.2764 154.342 66.1247 154.299 66.1247 154.299C66.1247 154.299 65.3231 154.235 64.5171 154.071C63.7156 154.006 62.9616 153.89 63.0092 153.838C61.705 153.696 60.8082 153.736 62.8365 154.445C64.0543 154.89 65.8247 155.471 65.8247 155.471C65.8247 155.471 65.9764 155.514 66.3274 155.549C66.4791 155.592 66.6783 155.583 66.83 155.626C67.3327 155.704 67.8871 155.851 68.4418 155.977C69.3995 156.184 70.3507 156.158 71.356 156.313C73.371 156.723 75.4381 157.18 77.6136 157.832C79.7892 158.484 81.7063 159.494 84.1243 159.986C85.3466 160.531 86.8661 160.466 88.1703 160.608Z" fill="#F4774C"/>
<path d="M76.2026 164.283L76.103 164.288C75.8517 164.249 75.7 164.206 75.5007 164.215C75.1497 164.18 74.8984 164.142 74.998 164.137C73.6938 163.996 72.797 164.035 74.8253 164.744C75.0811 164.882 75.3844 164.969 75.6878 165.055L75.8915 165.146L76.0432 165.189L76.2469 165.28C76.5502 165.366 76.754 165.457 77.0573 165.543C77.1437 165.24 77.2301 164.937 77.3209 164.733C77.3685 164.681 77.364 164.581 77.364 164.581C77.364 164.581 77.4117 164.529 77.3596 164.482C77.4072 164.43 77.4028 164.33 77.4028 164.33C77.4936 164.126 77.5368 163.975 77.5368 163.975C77.58 163.823 77.6187 163.572 77.6619 163.42L77.7483 163.117L77.7826 162.766C77.8169 162.415 77.8513 162.064 77.7859 161.717C77.7682 161.319 77.7029 160.972 77.4859 160.582C77.4339 160.535 77.3775 160.387 77.3254 160.34C77.2734 160.292 77.2169 160.145 77.1129 160.05L76.9568 159.907C76.9047 159.859 76.9047 159.859 76.8051 159.864C76.753 159.816 76.6014 159.773 76.5493 159.725C76.1939 159.591 75.9382 159.453 75.6348 159.367C75.0281 159.194 74.4214 159.021 73.8147 158.848C73.5113 158.762 73.1603 158.728 72.857 158.641C72.7053 158.598 72.506 158.607 72.3067 158.616C72.1074 158.625 71.8605 158.685 71.6657 158.794C70.9294 159.076 70.4533 159.597 70.0292 160.165C69.6052 160.733 69.3372 161.443 69.3206 162.193C69.3383 162.591 69.4036 162.938 69.573 163.38C69.7424 163.822 70.2063 164.15 70.5617 164.284C71.3245 164.6 71.9224 164.573 72.4294 164.751L72.5291 164.746C72.8712 164.581 73.014 164.425 73.0572 164.273C73.1004 164.122 72.9875 163.827 72.8834 163.732C72.8314 163.684 72.8314 163.684 72.8314 163.684C72.1206 163.416 71.4231 163.447 70.9636 163.218C70.7599 163.127 70.6558 163.032 70.5993 162.885C70.4908 162.69 70.482 162.491 70.4731 162.291C70.5031 161.841 70.6326 161.386 70.9614 160.922C71.2427 160.51 71.6235 160.094 72.0653 159.924C72.3122 159.864 72.3598 159.812 72.6111 159.85C72.8625 159.889 73.1658 159.975 73.4172 160.014C73.9718 160.139 74.5786 160.312 75.0856 160.489C75.389 160.576 75.6447 160.714 75.8961 160.753C76.0477 160.796 76.1518 160.891 76.2514 160.887L76.3035 160.934C76.3035 160.934 76.3555 160.982 76.4076 161.03C76.6722 161.367 76.6943 161.865 76.6168 162.368C76.5825 162.719 76.5869 162.819 76.5437 162.97C76.5005 163.122 76.5093 163.321 76.4186 163.525C76.4186 163.525 76.3754 163.677 76.3366 163.928C76.289 163.98 76.2934 164.08 76.2934 164.08L76.2979 164.179L76.2502 164.231C76.2979 164.179 76.2979 164.179 76.2026 164.283C76.2502 164.231 76.2502 164.231 76.2026 164.283Z" fill="#F4774C"/>
<path d="M132.628 80.3852C133.391 80.2679 133.963 79.7895 134.133 79.2428C134.239 79.0963 134.239 79.0963 134.239 79.0963L133.479 74.5277L133.437 74.274L134.051 74.0493C135.175 73.7466 136.298 73.4438 137.273 73.0336C139.52 72.4281 141.788 71.1684 143.611 69.5867C145.435 68.005 146.877 65.7009 147.26 63.2994C147.897 60.8588 147.475 58.3207 146.692 55.9682C145.91 53.6156 144.512 51.4876 143.051 49.7599C141.442 47.9249 139.621 46.3827 137.587 45.1335C135.554 43.8842 133.308 42.9278 130.892 42.5181C128.477 42.1085 126.104 41.9526 123.709 42.4508C121.42 42.8025 119.11 43.8084 117.096 45.029C116.015 45.5856 115.23 46.3568 114.191 47.1672C113.407 47.9385 112.516 48.8563 111.732 49.6276C110.205 51.4241 109.017 53.689 108.528 56.237C108.039 58.785 108.461 61.3231 109.498 63.6366C111.572 68.2635 115.723 71.2696 120.066 73.075C122.969 74.0606 122.418 73.885 122.969 74.0606C123.265 74.2753 123.668 74.3437 124.113 74.6658C124.113 74.6658 124.515 74.734 125.108 75.1634C125.807 75.4464 126.401 75.8759 127.142 76.4127C128.625 77.4864 130.001 78.7064 129.959 78.4526C131.293 79.4189 132.225 80.3169 132.628 80.3852ZM128.122 75.0591C127.042 74.0538 125.915 72.8136 125.915 72.8136C125.47 72.4915 125.137 72.6855 124.852 72.4787C124.566 72.2719 124.551 72.4732 124.403 72.3659C124.403 72.3659 124.043 72.159 123.788 72.1439C123.593 72.1323 123.49 72.2194 123.295 72.2227C122.86 72.23 122.232 71.8878 122.232 71.8878C120.028 71.1852 118.228 70.6281 116.597 69.4471C114.967 68.2661 112.902 66.248 111.949 64.4421C110.997 62.6363 110.215 59.6909 110.28 57.7287C110.344 55.7665 111.455 53.7011 112.727 51.9437C113.894 50.3328 115.055 48.6832 116.814 47.5018C118.574 46.3203 121.401 44.9952 123.393 44.4288C127.526 43.4032 132.578 44.4083 136.306 46.4383C138.191 47.5802 139.808 48.6791 141.27 50.4068C142.837 51.9881 144.038 53.6843 144.884 55.6366C145.307 56.6128 145.553 58.2753 145.721 59.2906C145.89 60.3058 145.751 61.0535 145.596 62.0945C145.362 63.0414 145.185 64.5291 144.697 65.5152C144.167 66.2474 143.663 67.5683 142.836 68.0858C141.373 69.482 139.626 70.4951 137.527 71.208C136.552 71.6181 135.383 71.8101 134.366 71.9664L133.62 72.1744L131.988 72.5553L131.628 72.7408L131.374 72.7799L131.416 73.0338L131.543 73.7952L131.796 75.318L132.357 78.3486C131.276 77.3433 129.308 75.918 128.122 75.0591Z" fill="#F4774C"/>
<path d="M174.102 103.375C173.581 102.806 173.434 102.074 173.645 101.542C173.654 101.361 173.654 101.361 173.654 101.361L177.109 98.2777L177.301 98.1065L176.963 97.5462C176.278 96.6063 175.592 95.6663 175.09 94.7356C173.718 92.8557 172.741 90.4525 172.311 88.0772C171.882 85.7019 172.202 83.0025 173.409 80.8912C174.442 78.59 176.362 76.877 178.446 75.5344C180.53 74.1917 182.953 73.4093 185.174 72.9788C187.578 72.5576 189.964 72.4975 192.332 72.7986C194.699 73.0997 197.048 73.7619 199.187 74.9566C201.326 76.1513 203.273 77.5173 204.827 79.4065C206.39 81.1151 207.56 83.347 208.364 85.5603C208.858 86.6716 208.986 87.7642 209.287 89.0468C209.415 90.1395 209.534 91.4129 209.662 92.5056C209.725 94.8624 209.232 97.3719 208.016 99.6638C206.8 101.956 204.88 103.669 202.622 104.822C198.106 107.127 192.987 106.868 188.471 105.552C185.592 104.501 186.131 104.71 185.592 104.501C185.226 104.483 184.87 104.284 184.321 104.256C184.321 104.256 183.965 104.057 183.233 104.019C182.511 103.802 181.78 103.765 180.866 103.718C179.038 103.626 177.2 103.714 177.392 103.542C175.747 103.459 174.458 103.575 174.102 103.375ZM180.951 102.049C182.422 101.943 184.078 101.683 184.078 101.683C184.626 101.711 184.764 102.071 185.116 102.088C185.468 102.106 185.354 102.273 185.537 102.282C185.537 102.282 185.947 102.346 186.155 102.494C186.314 102.607 186.34 102.74 186.489 102.864C186.824 103.143 187.528 103.27 187.528 103.27C189.685 104.104 191.455 104.436 193.466 104.538C195.477 104.64 197.999 104.353 199.873 103.543C201.747 102.733 204.173 101.506 205.352 99.9366C206.531 98.3671 207.324 95.8534 207.434 93.6865C207.535 91.7001 207.664 89.6869 207.034 87.6635C206.403 85.6401 205.03 82.8356 203.833 81.1455C201.256 77.756 196.674 75.676 192.496 74.9211C190.312 74.6293 188.36 74.5214 186.139 74.9519C183.927 75.2018 181.946 75.4185 180.063 76.4092C179.121 76.9046 177.888 78.0465 177.12 78.7317C176.352 79.4169 175.992 80.0869 175.46 80.9952C175.049 81.8796 174.255 83.1497 174.017 84.2239C173.971 85.1268 173.536 86.4722 173.856 87.3936C174.121 89.3985 174.847 91.2831 176.036 93.1537C176.538 94.0844 177.329 94.9668 178.024 95.7262L178.474 96.3554L179.507 97.6751L179.672 98.0455L179.845 98.2353L179.653 98.4067L179.077 98.9206L177.926 99.9484L175.589 101.959C177.061 101.852 179.488 101.975 180.951 102.049Z" fill="#F4774C"/>
<path d="M137.798 133.936C138.784 134.202 139.735 133.929 140.237 133.359C140.444 133.239 140.444 133.239 140.444 133.239L141.999 127.312L142.085 126.983L142.95 127.039C144.473 127.273 145.995 127.507 147.396 127.532C150.441 128 153.866 127.689 156.927 126.752C159.989 125.814 162.981 123.8 164.744 121.102C166.837 118.493 167.7 115.2 168.028 111.939C168.356 108.677 167.818 105.359 166.987 102.491C166.035 99.414 164.667 96.5775 162.884 93.9817C161.102 91.3859 158.904 89.0307 156.205 87.2456C153.506 85.4605 150.72 84.0047 147.554 83.3278C144.596 82.5305 141.257 82.5123 138.161 82.9118C136.552 83.0071 135.186 83.5202 133.491 83.9448C132.124 84.458 130.55 85.0916 129.184 85.6048C126.365 86.9604 123.701 89.0631 121.73 91.8813C119.759 94.6995 118.896 97.9924 118.897 101.342C118.899 108.041 122.291 113.892 126.566 118.393C129.542 121.134 128.971 120.628 129.542 121.134C129.784 121.552 130.234 121.85 130.598 122.476C130.598 122.476 131.048 122.774 131.532 123.61C132.224 124.325 132.709 125.161 133.315 126.205C134.526 128.295 135.53 130.504 135.617 130.175C136.707 132.056 137.348 133.639 137.798 133.936ZM135.233 125.093C134.471 123.301 133.78 121.201 133.78 121.201C133.417 120.574 132.909 120.63 132.675 120.228C132.442 119.825 132.315 120.061 132.194 119.852C132.194 119.852 131.87 119.409 131.57 119.255C131.342 119.137 131.169 119.187 130.932 119.087C130.402 118.864 129.827 118.115 129.827 118.115C127.543 116.089 125.518 114.784 124.185 112.485C122.853 110.187 120.843 107.406 120.669 104.715C120.495 102.023 120.986 97.222 122.127 94.8852C123.268 92.5484 126.855 89.3661 129.346 87.9218C131.629 86.598 133.443 85.5438 136.211 85.0557C138.978 84.5675 143.294 84.3708 146.01 84.7502C151.564 85.7179 157.503 89.7901 160.912 94.2346C162.574 96.6214 163.883 99.3439 164.714 102.212C165.753 104.96 166.055 107.761 166.021 110.572C166.004 111.978 165.4 114.118 165.055 115.435C164.709 116.752 164.825 117.554 164.074 118.729C163.279 119.749 162.096 122.082 160.972 123.013C159.934 123.615 158.056 125.016 156.776 125.2C154.251 126.106 151.616 125.721 148.692 125.462C147.291 125.437 145.773 125.044 144.458 124.69L143.444 124.543L141.264 124.132L140.728 124.164L140.4 124.075L140.313 124.404L140.054 125.392L139.536 127.368L138.573 131.33C137.811 129.538 136.202 126.764 135.233 125.093Z" fill="#F4774C"/>
<path d="M136.955 93.9545L137.02 94.1752C136.937 94.2895 136.854 94.4037 136.772 94.518L136.689 94.6323C136.689 94.6323 136.689 94.6323 136.836 94.7388C136.983 94.8453 136.983 94.8452 137.213 94.8374C137.213 94.8374 137.213 94.8375 137.13 94.9517C137.13 94.9517 137.13 94.9517 137.194 95.1724C137.259 95.3932 137.406 95.4997 137.553 95.6062C137.7 95.7127 137.7 95.7127 137.7 95.7127L138.077 95.8114L138.371 96.0243L139.336 96.5491C140.007 96.8608 140.595 97.2867 141.183 97.7127C144.29 99.6139 147.378 101.85 150.32 103.98L152.084 105.258C152.084 105.258 153.785 106.315 155.255 107.38C156.809 108.331 158.509 109.388 158.362 109.281C159.621 110.019 160.816 110.536 161.276 110.52C161.588 110.398 161.083 109.858 159.107 108.253C156.625 106.108 153.619 103.757 153.619 103.757L151.561 102.266C148.472 100.03 145.384 97.7937 142.13 95.7859C141.542 95.36 140.724 94.9418 140.053 94.6301L139.088 94.1054L138.794 93.8924C138.647 93.786 138.647 93.786 138.5 93.6795L137.829 93.3678L137.599 93.3755C137.369 93.3832 137.286 93.4975 137.056 93.5053L136.955 93.9545Z" fill="#F4774C"/>
<path d="M119.644 104.976L119.679 105.045C119.658 105.074 119.638 105.102 119.617 105.131L119.596 105.159C119.596 105.159 119.596 105.159 119.652 105.2C119.708 105.24 119.708 105.24 119.785 105.252C119.785 105.252 119.785 105.252 119.764 105.281C119.764 105.281 119.764 105.281 119.8 105.35C119.835 105.419 119.891 105.46 119.947 105.5C120.003 105.541 120.003 105.541 120.003 105.541L120.136 105.593L120.248 105.675L120.605 105.889C120.849 106.023 121.074 106.185 121.298 106.348C122.459 107.102 123.636 107.954 124.756 108.765L125.429 109.252C125.429 109.252 126.066 109.67 126.626 110.075C127.207 110.452 127.844 110.87 127.788 110.83C128.257 111.126 128.69 111.352 128.844 111.376C128.941 111.36 128.737 111.169 127.974 110.572C127.007 109.785 125.851 108.905 125.851 108.905L125.067 108.337C123.89 107.485 122.714 106.633 121.496 105.838C121.272 105.676 120.971 105.502 120.726 105.368L120.369 105.153L120.257 105.072C120.201 105.031 120.201 105.031 120.145 104.991L119.9 104.857L119.824 104.845C119.747 104.833 119.726 104.862 119.65 104.85L119.644 104.976Z" fill="#F4774C"/>
<path d="M144.304 66.1612L144.247 66.2143C144.257 66.2482 144.267 66.2821 144.276 66.3159L144.286 66.3498C144.286 66.3498 144.286 66.3498 144.22 66.3691C144.153 66.3884 144.153 66.3884 144.077 66.3738C144.077 66.3738 144.077 66.3738 144.087 66.4077C144.087 66.4077 144.087 66.4077 144.03 66.4608C143.974 66.514 143.907 66.5333 143.841 66.5526C143.775 66.5719 143.775 66.5719 143.775 66.5719L143.632 66.5766L143.499 66.6151L143.091 66.697C142.815 66.7403 142.549 66.8174 142.284 66.8946C140.936 67.2126 139.541 67.6177 138.212 68.0034L137.415 68.2349C137.415 68.2349 136.675 68.4132 136.01 68.6061C135.336 68.7651 134.596 68.9434 134.662 68.9241C134.121 69.0445 133.636 69.1118 133.484 69.0827C133.398 69.0342 133.653 68.9232 134.574 68.6193C135.75 68.2044 137.135 67.7655 137.135 67.7655L138.065 67.4955C139.46 67.0904 140.854 66.6853 142.269 66.348C142.535 66.2709 142.877 66.2083 143.152 66.165L143.561 66.0832L143.694 66.0446C143.76 66.0253 143.76 66.0253 143.826 66.006L144.102 65.9627L144.178 65.9773C144.254 65.9919 144.264 66.0257 144.341 66.0403L144.304 66.1612Z" fill="#F4774C"/>
<path d="M173.917 84.9758L173.928 85.0527C173.899 85.073 173.87 85.0932 173.841 85.1134L173.812 85.1336C173.812 85.1336 173.812 85.1336 173.852 85.1903C173.892 85.247 173.892 85.2469 173.96 85.2834C173.96 85.2834 173.96 85.2834 173.931 85.3036C173.931 85.3036 173.931 85.3036 173.942 85.3805C173.953 85.4574 173.993 85.514 174.032 85.5707C174.072 85.6274 174.072 85.6274 174.072 85.6274L174.18 85.7205L174.259 85.8338L174.526 86.1535C174.714 86.36 174.873 86.5866 175.031 86.8133C175.882 87.9061 176.716 89.096 177.509 90.2292L177.985 90.9092C177.985 90.9092 178.45 91.5122 178.847 92.0788C179.273 92.6252 179.738 93.2283 179.698 93.1716C180.044 93.6047 180.38 93.9609 180.517 94.0338C180.614 94.05 180.485 93.8031 179.958 92.9896C179.302 91.9292 178.498 90.7191 178.498 90.7191L177.942 89.9258C177.109 88.7359 176.276 87.546 175.385 86.3966C175.227 86.1699 174.999 85.9068 174.812 85.7004L174.545 85.3807L174.466 85.2673C174.426 85.2107 174.426 85.2107 174.386 85.154L174.199 84.9476L174.13 84.9111C174.062 84.8747 174.033 84.8949 173.964 84.8585L173.917 84.9758Z" fill="#F4774C"/>
<path d="M64.9686 139.734L65.0482 139.672C65.0374 139.638 65.0266 139.604 65.0158 139.571L65.005 139.537C65.005 139.537 65.005 139.537 65.0954 139.508C65.1858 139.479 65.1858 139.479 65.287 139.484C65.287 139.484 65.287 139.484 65.2762 139.45C65.2762 139.45 65.2762 139.45 65.3558 139.387C65.4354 139.325 65.5258 139.296 65.6162 139.267C65.7066 139.238 65.7066 139.238 65.7066 139.238L65.8982 139.213L66.0789 139.155L66.6321 139.014C67.0045 138.931 67.3661 138.815 67.7277 138.699C69.5572 138.184 71.4555 137.574 73.2634 136.992L74.3482 136.643C74.3482 136.643 75.3534 136.357 76.2573 136.066C77.1721 135.809 78.1772 135.523 78.0868 135.552C78.8208 135.353 79.4752 135.216 79.6776 135.225C79.7896 135.263 79.4388 135.413 78.184 135.854C76.5785 136.444 74.691 137.089 74.691 137.089L73.4254 137.496C71.5271 138.106 69.6288 138.717 67.7088 139.26C67.3473 139.377 66.8845 139.488 66.5121 139.571L65.9589 139.712L65.7781 139.77C65.6877 139.799 65.6877 139.799 65.5973 139.828L65.225 139.911L65.1238 139.907C65.0226 139.902 65.0118 139.868 64.9106 139.864L64.9686 139.734Z" fill="#F4774C"/>
<path d="M103.384 120.794L103.362 120.841C103.378 120.872 103.395 120.903 103.411 120.935L103.427 120.966C103.427 120.966 103.427 120.966 103.389 120.981C103.351 120.997 103.351 120.997 103.297 120.981C103.297 120.981 103.297 120.981 103.313 121.012C103.313 121.012 103.313 121.012 103.292 121.058C103.27 121.105 103.232 121.12 103.194 121.136C103.156 121.151 103.156 121.151 103.156 121.151L103.064 121.15L102.988 121.181L102.743 121.242C102.575 121.272 102.423 121.333 102.27 121.394C101.477 121.638 100.679 121.96 99.9186 122.266L99.4623 122.45C99.4623 122.45 99.0278 122.587 98.6476 122.74C98.251 122.862 97.8164 122.999 97.8544 122.984C97.5339 123.075 97.2351 123.12 97.1263 123.088C97.0556 123.041 97.1913 122.948 97.7072 122.703C98.3588 122.364 99.1409 122.012 99.1409 122.012L99.6732 121.797C100.472 121.476 101.27 121.154 102.101 120.895C102.253 120.834 102.46 120.788 102.628 120.758L102.873 120.698L102.949 120.667C102.987 120.652 102.987 120.652 103.025 120.636L103.193 120.606L103.247 120.622C103.302 120.638 103.318 120.67 103.373 120.685L103.384 120.794Z" fill="#F4774C"/>
<path d="M120.662 98.7457L120.69 98.8097C120.67 98.8383 120.649 98.8668 120.628 98.8954L120.608 98.924C120.608 98.924 120.608 98.924 120.657 98.9595C120.706 98.995 120.706 98.995 120.775 99.0019C120.775 99.0019 120.775 99.0019 120.755 99.0305C120.755 99.0305 120.755 99.0305 120.783 99.0945C120.811 99.1586 120.86 99.1941 120.909 99.2296C120.958 99.2651 120.958 99.2651 120.958 99.2651L121.077 99.3075L121.175 99.3785L121.49 99.5629C121.707 99.6763 121.903 99.8183 122.099 99.9603C123.121 100.613 124.15 101.359 125.131 102.068L125.719 102.494C125.719 102.494 126.279 102.856 126.769 103.211C127.28 103.538 127.84 103.9 127.791 103.864C128.204 104.12 128.588 104.311 128.727 104.325C128.818 104.303 128.642 104.133 127.977 103.607C127.136 102.911 126.127 102.137 126.127 102.137L125.441 101.64C124.411 100.895 123.382 100.149 122.311 99.4609C122.115 99.3189 121.849 99.17 121.632 99.0566L121.318 98.8721L121.22 98.8011C121.171 98.7656 121.171 98.7657 121.122 98.7302L120.905 98.6167L120.835 98.6098C120.765 98.6029 120.745 98.6314 120.675 98.6245L120.662 98.7457Z" fill="#F4774C"/>
<path d="M145.449 59.9532L145.4 60.004C145.41 60.0378 145.42 60.0717 145.43 60.1055L145.44 60.1394C145.44 60.1394 145.44 60.1394 145.382 60.1563C145.323 60.1732 145.323 60.1732 145.255 60.1562C145.255 60.1562 145.255 60.1562 145.265 60.1901C145.265 60.1901 145.265 60.19 145.217 60.2408C145.169 60.2915 145.111 60.3084 145.052 60.3253C144.994 60.3422 144.994 60.3422 144.994 60.3422L144.868 60.3421L144.752 60.3758L144.393 60.4432C144.151 60.4769 143.919 60.5444 143.686 60.6119C142.504 60.8817 141.283 61.2361 140.121 61.5737L139.424 61.7762C139.424 61.7762 138.774 61.9279 138.193 62.0967C137.602 62.2316 136.953 62.3834 137.011 62.3665C136.536 62.4677 136.11 62.5181 135.974 62.4841C135.896 62.4333 136.119 62.3319 136.923 62.0617C137.949 61.6902 139.16 61.3019 139.16 61.3019L139.974 61.0657C141.194 60.7112 142.415 60.3568 143.655 60.0701C143.887 60.0026 144.188 59.9521 144.43 59.9185L144.789 59.8511L144.905 59.8173C144.963 59.8004 144.963 59.8004 145.021 59.7836L145.264 59.7499L145.331 59.7669C145.399 59.7839 145.409 59.8178 145.477 59.8347L145.449 59.9532Z" fill="#F4774C"/>
<path d="M176.92 79.4224L176.926 79.4922C176.897 79.5124 176.868 79.5326 176.839 79.5528L176.81 79.5731C176.81 79.5731 176.81 79.5731 176.845 79.6227C176.88 79.6722 176.88 79.6722 176.943 79.7016C176.943 79.7016 176.943 79.7016 176.914 79.7218C176.914 79.7218 176.914 79.7218 176.92 79.7916C176.926 79.8614 176.961 79.911 176.995 79.9606C177.03 80.0102 177.03 80.0102 177.03 80.0102L177.128 80.0891L177.198 80.1882L177.435 80.4655C177.603 80.6436 177.742 80.8419 177.88 81.0402C178.632 81.9914 179.361 83.0326 180.056 84.0241L180.472 84.6191C180.472 84.6191 180.883 85.1442 181.23 85.64C181.606 86.1156 182.017 86.6407 181.982 86.5912C182.289 86.9676 182.589 87.2742 182.717 87.3329C182.809 87.342 182.699 87.1235 182.242 86.4091C181.675 85.4763 180.975 84.4149 180.975 84.4149L180.489 83.7208C179.76 82.6796 179.031 81.6384 178.244 80.6377C178.105 80.4394 177.903 80.2117 177.735 80.0336L177.498 79.7564L177.429 79.6572C177.394 79.6076 177.394 79.6076 177.359 79.5581L177.192 79.38L177.128 79.3506C177.064 79.3212 177.035 79.3415 176.972 79.3121L176.92 79.4224Z" fill="#F4774C"/>
<path d="M63.6419 148.295L63.7102 148.236C63.6994 148.203 63.6886 148.169 63.6778 148.136L63.667 148.102C63.667 148.102 63.667 148.102 63.7461 148.077C63.8252 148.051 63.8252 148.051 63.915 148.059C63.915 148.059 63.915 148.059 63.9042 148.026C63.9042 148.026 63.9043 148.026 63.9726 147.967C64.0409 147.908 64.1199 147.882 64.199 147.857C64.2781 147.832 64.2781 147.831 64.2781 147.831L64.4471 147.814L64.6053 147.763L65.0907 147.644C65.4179 147.576 65.7343 147.474 66.0507 147.373C67.6542 146.931 69.3152 146.397 70.8972 145.888L71.8463 145.582C71.8463 145.582 72.7272 145.336 73.5181 145.082C74.3199 144.861 75.2008 144.615 75.1217 144.64C75.7652 144.47 76.3405 144.359 76.5203 144.375C76.621 144.417 76.3154 144.552 75.2188 144.942C73.8167 145.467 72.1665 146.035 72.1665 146.035L71.0591 146.391C69.3981 146.926 67.7371 147.46 66.0544 147.927C65.738 148.029 65.3318 148.122 65.0046 148.191L64.5192 148.31L64.361 148.361C64.2819 148.386 64.2819 148.386 64.2028 148.411L63.8756 148.48L63.7857 148.471C63.6959 148.463 63.685 148.43 63.5951 148.422L63.6419 148.295Z" fill="#F4774C"/>
<path d="M103.869 112.883L103.856 112.927C103.872 112.958 103.889 112.989 103.905 113.02L103.921 113.052C103.921 113.052 103.921 113.052 103.892 113.064C103.862 113.076 103.862 113.076 103.816 113.056C103.816 113.056 103.816 113.056 103.832 113.088C103.832 113.088 103.832 113.088 103.819 113.131C103.805 113.174 103.775 113.186 103.746 113.198C103.716 113.21 103.716 113.21 103.716 113.21L103.64 113.203L103.58 113.227L103.385 113.268C103.249 113.284 103.13 113.332 103.011 113.38C102.382 113.558 101.757 113.81 101.161 114.05L100.803 114.194C100.803 114.194 100.459 114.295 100.161 114.415C99.8464 114.504 99.5022 114.605 99.532 114.593C99.2773 114.657 99.036 114.679 98.9436 114.641C98.8811 114.59 98.984 114.511 99.3848 114.312C99.8885 114.033 100.498 113.75 100.498 113.75L100.915 113.582C101.541 113.33 102.167 113.077 102.825 112.888C102.944 112.84 103.11 112.811 103.245 112.794L103.441 112.754L103.5 112.73C103.53 112.718 103.53 112.718 103.56 112.706L103.695 112.689L103.741 112.708C103.788 112.727 103.804 112.758 103.85 112.778L103.869 112.883Z" fill="#F4774C"/>
<path d="M119.332 103.007L119.367 103.076C119.347 103.104 119.326 103.133 119.305 103.161L119.285 103.19C119.285 103.19 119.285 103.19 119.341 103.231C119.397 103.271 119.397 103.271 119.473 103.283C119.473 103.283 119.473 103.283 119.453 103.312C119.453 103.312 119.453 103.312 119.488 103.381C119.523 103.45 119.579 103.491 119.635 103.531C119.692 103.572 119.692 103.572 119.692 103.572L119.824 103.624L119.936 103.705L120.293 103.92C120.538 104.054 120.762 104.216 120.986 104.378C122.148 105.133 123.324 105.985 124.445 106.796L125.117 107.283C125.117 107.283 125.754 107.7 126.314 108.106C126.895 108.483 127.532 108.901 127.476 108.86C127.945 109.156 128.379 109.383 128.532 109.407C128.629 109.391 128.426 109.2 127.662 108.603C126.695 107.816 125.539 106.935 125.539 106.935L124.755 106.368C123.579 105.516 122.402 104.664 121.184 103.869C120.96 103.707 120.659 103.532 120.415 103.399L120.058 103.184L119.946 103.103C119.89 103.062 119.89 103.062 119.834 103.022L119.589 102.888L119.512 102.876C119.436 102.864 119.415 102.892 119.338 102.88L119.332 103.007Z" fill="#F4774C"/>
<path d="M145.265 64.4132L145.208 64.4663C145.218 64.5002 145.228 64.534 145.237 64.5679L145.247 64.6018C145.247 64.6018 145.247 64.6018 145.181 64.6211C145.114 64.6403 145.114 64.6403 145.038 64.6258C145.038 64.6258 145.038 64.6258 145.048 64.6596C145.048 64.6596 145.048 64.6596 144.991 64.7128C144.935 64.7659 144.868 64.7852 144.802 64.8045C144.736 64.8238 144.736 64.8238 144.736 64.8238L144.593 64.8285L144.46 64.8671L144.052 64.949C143.776 64.9922 143.51 65.0694 143.245 65.1465C141.897 65.4646 140.502 65.8696 139.173 66.2554L138.376 66.4869C138.376 66.4869 137.635 66.6651 136.971 66.858C136.297 67.017 135.557 67.1953 135.623 67.1761C135.082 67.2965 134.597 67.3638 134.445 67.3346C134.359 67.2862 134.614 67.1752 135.535 66.8713C136.711 66.4564 138.096 66.0174 138.096 66.0174L139.026 65.7474C140.42 65.3424 141.815 64.9373 143.23 64.6C143.496 64.5228 143.838 64.4603 144.113 64.417L144.522 64.3351L144.654 64.2965C144.721 64.2772 144.721 64.2772 144.787 64.258L145.063 64.2147L145.139 64.2292C145.215 64.2438 145.225 64.2777 145.301 64.2923L145.265 64.4132Z" fill="#F4774C"/>
<path d="M174.269 83.0115L174.279 83.0884C174.251 83.1086 174.222 83.1288 174.193 83.149L174.164 83.1693C174.164 83.1693 174.164 83.1693 174.204 83.2259C174.243 83.2826 174.243 83.2826 174.312 83.319C174.312 83.319 174.312 83.319 174.283 83.3393C174.283 83.3393 174.283 83.3393 174.294 83.4161C174.304 83.493 174.344 83.5497 174.384 83.6064C174.423 83.663 174.423 83.663 174.423 83.663L174.532 83.7561L174.611 83.8694L174.878 84.1892C175.065 84.3956 175.224 84.6223 175.383 84.8489C176.234 85.9417 177.067 87.1316 177.861 88.2649L178.337 88.9448C178.337 88.9448 178.802 89.5479 179.199 90.1145C179.624 90.6609 180.089 91.2639 180.05 91.2073C180.396 91.6404 180.731 91.9965 180.869 92.0694C180.966 92.0856 180.836 91.8388 180.31 91.0253C179.653 89.9649 178.849 88.7548 178.849 88.7548L178.294 87.9615C177.461 86.7716 176.628 85.5817 175.737 84.4322C175.578 84.2056 175.351 83.9425 175.163 83.7361L174.896 83.4163L174.817 83.303C174.777 83.2463 174.777 83.2463 174.738 83.1897L174.55 82.9832L174.482 82.9468C174.413 82.9104 174.384 82.9306 174.316 82.8941L174.269 83.0115Z" fill="#F4774C"/>
<path d="M63.7215 142.17L63.8011 142.107C63.7903 142.074 63.7795 142.04 63.7687 142.006L63.7579 141.973C63.7579 141.973 63.7579 141.973 63.8483 141.944C63.9387 141.915 63.9387 141.915 64.0399 141.919C64.0399 141.919 64.0399 141.919 64.0291 141.886C64.0291 141.886 64.0291 141.886 64.1087 141.823C64.1883 141.76 64.2787 141.731 64.3691 141.702C64.4595 141.673 64.4595 141.673 64.4595 141.673L64.6511 141.649L64.8319 141.59L65.385 141.449C65.7574 141.367 66.119 141.25 66.4806 141.134C68.3101 140.62 70.2085 140.009 72.0164 139.428L73.1011 139.079C73.1011 139.079 74.1063 138.792 75.0102 138.502C75.925 138.245 76.9302 137.958 76.8398 137.987C77.5737 137.788 78.2281 137.652 78.4305 137.661C78.5425 137.699 78.1917 137.849 76.9369 138.289C75.3314 138.88 73.4439 139.524 73.4439 139.524L72.1783 139.931C70.28 140.542 68.3817 141.152 66.4618 141.696C66.1002 141.812 65.6374 141.924 65.265 142.007L64.7119 142.148L64.5311 142.206C64.4407 142.235 64.4407 142.235 64.3503 142.264L63.9779 142.347L63.8767 142.342C63.7755 142.338 63.7647 142.304 63.6635 142.3L63.7215 142.17Z" fill="#F4774C"/>
<path d="M104.055 118.666L104.034 118.713C104.05 118.744 104.066 118.775 104.083 118.807L104.099 118.838C104.099 118.838 104.099 118.838 104.061 118.853C104.024 118.868 104.024 118.868 103.97 118.852C103.97 118.852 103.97 118.852 103.986 118.883C103.986 118.883 103.986 118.883 103.965 118.93C103.943 118.976 103.906 118.991 103.868 119.006C103.83 119.022 103.83 119.022 103.83 119.022L103.739 119.021L103.663 119.051L103.421 119.111C103.254 119.14 103.103 119.201 102.952 119.262C102.166 119.503 101.375 119.822 100.621 120.125L100.169 120.307C100.169 120.307 99.7381 120.443 99.3613 120.595C98.9681 120.715 98.5373 120.851 98.575 120.836C98.2572 120.926 97.9607 120.97 97.8526 120.938C97.7822 120.89 97.9166 120.798 98.4277 120.555C99.0732 120.219 99.8482 119.869 99.8482 119.869L100.376 119.657C101.167 119.338 101.958 119.019 102.782 118.763C102.933 118.702 103.138 118.658 103.305 118.628L103.547 118.568L103.623 118.538C103.66 118.523 103.66 118.523 103.698 118.508L103.865 118.478L103.919 118.494C103.973 118.51 103.989 118.541 104.043 118.558L104.055 118.666Z" fill="#F4774C"/>
<path d="M120.347 96.7769L120.375 96.841C120.354 96.8695 120.334 96.8981 120.313 96.9267L120.292 96.9552C120.292 96.9552 120.292 96.9552 120.341 96.9907C120.39 97.0262 120.39 97.0262 120.46 97.0331C120.46 97.0331 120.46 97.0332 120.439 97.0617C120.439 97.0617 120.439 97.0617 120.468 97.1258C120.496 97.1898 120.545 97.2253 120.594 97.2608C120.643 97.2963 120.643 97.2963 120.643 97.2963L120.762 97.3388L120.86 97.4097L121.175 97.5942C121.391 97.7076 121.587 97.8496 121.783 97.9916C122.805 98.6444 123.835 99.3898 124.815 100.1L125.403 100.526C125.403 100.526 125.963 100.888 126.453 101.243C126.964 101.569 127.524 101.931 127.475 101.895C127.888 102.151 128.273 102.342 128.412 102.356C128.502 102.334 128.327 102.164 127.661 101.638C126.82 100.942 125.812 100.168 125.812 100.168L125.125 99.6713C124.096 98.9259 123.066 98.1804 121.996 97.4921C121.8 97.3501 121.534 97.2012 121.317 97.0878L121.002 96.9034L120.904 96.8324C120.855 96.7969 120.855 96.7969 120.806 96.7614L120.589 96.648L120.52 96.641C120.45 96.6341 120.429 96.6627 120.36 96.6557L120.347 96.7769Z" fill="#F4774C"/>
<path d="M146.41 58.2066L146.361 58.2574C146.371 58.2912 146.381 58.3251 146.391 58.359L146.401 58.3928C146.401 58.3928 146.401 58.3928 146.342 58.4097C146.284 58.4266 146.284 58.4266 146.216 58.4096C146.216 58.4096 146.216 58.4096 146.226 58.4435C146.226 58.4435 146.226 58.4435 146.178 58.4942C146.13 58.545 146.072 58.5618 146.013 58.5787C145.955 58.5956 145.955 58.5956 145.955 58.5956L145.829 58.5955L145.713 58.6292L145.354 58.6966C145.112 58.7303 144.88 58.7978 144.647 58.8653C143.465 59.1351 142.244 59.4895 141.082 59.8271L140.385 60.0296C140.385 60.0296 139.735 60.1814 139.154 60.3501C138.563 60.485 137.914 60.6368 137.972 60.6199C137.497 60.7211 137.071 60.7715 136.935 60.7375C136.857 60.6867 137.08 60.5853 137.884 60.3152C138.91 59.9436 140.121 59.5554 140.121 59.5554L140.934 59.3191C142.155 58.9647 143.376 58.6102 144.616 58.3235C144.848 58.256 145.149 58.2055 145.391 58.1719L145.75 58.1045L145.866 58.0707C145.924 58.0539 145.924 58.0539 145.982 58.037L146.224 58.0033L146.292 58.0203C146.36 58.0373 146.37 58.0712 146.438 58.0882L146.41 58.2066Z" fill="#F4774C"/>
<path d="M177.264 77.458L177.269 77.5278C177.241 77.548 177.212 77.5683 177.183 77.5885L177.154 77.6087C177.154 77.6087 177.154 77.6087 177.189 77.6583C177.223 77.7079 177.223 77.7079 177.287 77.7372C177.287 77.7372 177.287 77.7372 177.258 77.7575C177.258 77.7575 177.258 77.7575 177.264 77.8273C177.27 77.8971 177.304 77.9466 177.339 77.9962C177.374 78.0458 177.374 78.0458 177.374 78.0458L177.472 78.1247L177.542 78.2239L177.779 78.5011C177.946 78.6792 178.085 78.8776 178.224 79.0759C178.976 80.027 179.705 81.0682 180.399 82.0598L180.816 82.6547C180.816 82.6547 181.227 83.1799 181.574 83.6757C181.95 84.1512 182.36 84.6764 182.326 84.6268C182.632 85.0032 182.933 85.3098 183.06 85.3685C183.153 85.3777 183.043 85.1591 182.586 84.4448C182.019 83.5119 181.319 82.4505 181.319 82.4505L180.833 81.7564C180.104 80.7152 179.375 79.6741 178.588 78.6733C178.449 78.475 178.247 78.2474 178.079 78.0693L177.842 77.792L177.772 77.6928C177.738 77.6433 177.738 77.6433 177.703 77.5937L177.535 77.4156L177.472 77.3862C177.408 77.3569 177.379 77.3771 177.316 77.3478L177.264 77.458Z" fill="#F4774C"/>
<path d="M62.3948 150.733L62.4631 150.674C62.4523 150.641 62.4415 150.607 62.4307 150.574L62.4199 150.54C62.4199 150.54 62.4199 150.54 62.499 150.515C62.5781 150.489 62.5781 150.489 62.668 150.497C62.668 150.497 62.668 150.497 62.6572 150.464C62.6572 150.464 62.6572 150.464 62.7255 150.405C62.7938 150.346 62.8729 150.32 62.952 150.295C63.0311 150.269 63.0311 150.269 63.0311 150.269L63.2001 150.252L63.3582 150.201L63.8436 150.082C64.1708 150.014 64.4872 149.912 64.8036 149.811C66.4071 149.369 68.0682 148.835 69.6501 148.326L70.5992 148.02C70.5992 148.02 71.4801 147.774 72.2711 147.52C73.0728 147.299 73.9537 147.053 73.8746 147.078C74.5182 146.908 75.0935 146.797 75.2732 146.813C75.3739 146.855 75.0683 146.99 73.9718 147.38C72.5696 147.905 70.9194 148.473 70.9194 148.473L69.8121 148.829C68.151 149.364 66.49 149.898 64.8074 150.365C64.491 150.467 64.0847 150.56 63.7575 150.629L63.2721 150.748L63.1139 150.798C63.0348 150.824 63.0348 150.824 62.9558 150.849L62.6286 150.918L62.5387 150.909C62.4488 150.901 62.438 150.868 62.3481 150.86L62.3948 150.733Z" fill="#F4774C"/>
<path d="M103.255 111.124L103.233 111.171C103.249 111.202 103.266 111.233 103.282 111.264L103.299 111.296C103.299 111.296 103.299 111.296 103.261 111.311C103.222 111.326 103.222 111.326 103.168 111.31C103.168 111.31 103.168 111.31 103.184 111.342C103.184 111.342 103.184 111.342 103.163 111.388C103.141 111.435 103.103 111.45 103.065 111.465C103.027 111.481 103.027 111.481 103.027 111.481L102.935 111.48L102.859 111.511L102.614 111.571C102.446 111.601 102.294 111.662 102.142 111.724C101.349 111.968 100.55 112.289 99.7898 112.595L99.3336 112.779C99.3336 112.779 98.899 112.916 98.5189 113.069C98.1223 113.191 97.6878 113.329 97.7258 113.313C97.4053 113.404 97.1064 113.449 96.9977 113.417C96.9269 113.37 97.0626 113.278 97.5785 113.032C98.2301 112.694 99.0121 112.341 99.0121 112.341L99.5444 112.127C100.343 111.805 101.141 111.484 101.972 111.224C102.124 111.163 102.331 111.118 102.499 111.088L102.744 111.027L102.82 110.997C102.858 110.981 102.858 110.981 102.896 110.966L103.064 110.936L103.119 110.952C103.173 110.968 103.189 110.999 103.244 111.015L103.255 111.124Z" fill="#F4774C"/>
<path d="M119.565 101.435L119.579 101.489C119.559 101.517 119.538 101.546 119.517 101.574L119.497 101.603C119.497 101.603 119.497 101.603 119.532 101.628C119.567 101.654 119.567 101.654 119.622 101.65C119.622 101.65 119.622 101.65 119.602 101.679C119.602 101.679 119.602 101.679 119.616 101.733C119.63 101.787 119.665 101.812 119.7 101.838C119.735 101.863 119.735 101.863 119.735 101.863L119.826 101.885L119.896 101.936L120.127 102.059C120.288 102.132 120.428 102.234 120.568 102.335C121.309 102.785 122.045 103.317 122.745 103.825L123.165 104.129C123.165 104.129 123.571 104.379 123.921 104.633C124.292 104.858 124.698 105.108 124.663 105.083C124.964 105.257 125.25 105.377 125.361 105.371C125.438 105.339 125.318 105.209 124.849 104.826C124.26 104.312 123.545 103.751 123.545 103.751L123.055 103.396C122.32 102.864 121.585 102.331 120.808 101.856C120.668 101.754 120.472 101.656 120.311 101.583L120.081 101.46L120.011 101.409C119.976 101.384 119.976 101.384 119.941 101.358L119.78 101.286L119.724 101.289C119.668 101.292 119.648 101.321 119.592 101.324L119.565 101.435Z" fill="#F4774C"/>
<path d="M145.573 62.8551L145.541 62.901C145.551 62.9349 145.561 62.9688 145.57 63.0026L145.58 63.0365C145.58 63.0365 145.58 63.0365 145.539 63.0486C145.497 63.0606 145.497 63.0606 145.446 63.0388C145.446 63.0388 145.446 63.0388 145.456 63.0727C145.456 63.0727 145.456 63.0727 145.424 63.1186C145.392 63.1645 145.351 63.1766 145.309 63.1886C145.268 63.2007 145.268 63.2007 145.268 63.2007L145.175 63.1909L145.092 63.215L144.833 63.2535C144.657 63.2679 144.491 63.3161 144.325 63.3643C143.475 63.5377 142.603 63.7908 141.773 64.0319L141.275 64.1766C141.275 64.1766 140.808 64.2753 140.393 64.3959C139.968 64.4826 139.502 64.5813 139.543 64.5692C139.201 64.6318 138.891 64.6485 138.788 64.6049C138.727 64.5492 138.883 64.4671 139.455 64.2645C140.182 63.9797 141.044 63.6927 141.044 63.6927L141.625 63.524C142.497 63.2708 143.369 63.0176 144.261 62.8322C144.427 62.784 144.644 62.7576 144.82 62.7432L145.079 62.7048L145.162 62.6807C145.203 62.6686 145.203 62.6686 145.245 62.6565L145.421 62.6422L145.472 62.664C145.523 62.6858 145.533 62.7197 145.585 62.7415L145.573 62.8551Z" fill="#F4774C"/>
<path d="M174.999 81.6035L174.995 81.6592C174.966 81.6794 174.937 81.6996 174.908 81.7198L174.879 81.7401C174.879 81.7401 174.879 81.7401 174.904 81.7755C174.929 81.8109 174.929 81.8109 174.982 81.8261C174.982 81.8261 174.982 81.8261 174.954 81.8463C174.954 81.8463 174.954 81.8463 174.95 81.9019C174.945 81.9576 174.97 81.993 174.995 82.0284C175.02 82.0638 175.02 82.0638 175.02 82.0638L175.098 82.1144L175.148 82.1852L175.326 82.3775C175.454 82.4989 175.553 82.6406 175.652 82.7822C176.206 83.4501 176.726 84.1938 177.222 84.9021L177.52 85.327C177.52 85.327 177.821 85.6963 178.069 86.0505C178.346 86.3844 178.648 86.7537 178.623 86.7183C178.85 86.9814 179.081 87.1888 179.189 87.2192C179.271 87.2142 179.201 87.0523 178.883 86.5363C178.494 85.8584 178.003 85.0945 178.003 85.0945L177.655 84.5987C177.135 83.855 176.614 83.1113 176.036 82.408C175.936 82.2664 175.784 82.1095 175.656 81.9881L175.478 81.7959L175.428 81.725C175.404 81.6896 175.404 81.6896 175.379 81.6542L175.251 81.5328L175.197 81.5176C175.143 81.5024 175.114 81.5226 175.061 81.5074L174.999 81.6035Z" fill="#F4774C"/>
<path d="M63.3575 144.32L63.4032 144.269C63.3924 144.235 63.3816 144.201 63.3708 144.168L63.36 144.134C63.36 144.134 63.3601 144.134 63.4165 144.116C63.473 144.098 63.473 144.098 63.5403 144.113C63.5403 144.113 63.5403 144.113 63.5295 144.08C63.5295 144.08 63.5295 144.08 63.5752 144.028C63.6209 143.976 63.6774 143.958 63.7339 143.94C63.7904 143.922 63.7904 143.922 63.7904 143.922L63.9142 143.919L64.0272 143.883L64.377 143.807C64.6138 143.768 64.8398 143.695 65.0658 143.623C66.2173 143.326 67.4038 142.945 68.5337 142.581L69.2117 142.363C69.2117 142.363 69.844 142.197 70.4089 142.015C70.9847 141.867 71.617 141.701 71.5605 141.719C72.0233 141.607 72.4404 141.547 72.5749 141.578C72.653 141.627 72.4378 141.733 71.6577 142.021C70.6623 142.415 69.4867 142.83 69.4867 142.83L68.6957 143.085C67.5092 143.466 66.3228 143.848 65.1147 144.163C64.8888 144.235 64.5955 144.293 64.3587 144.332L64.0089 144.407L63.8959 144.443C63.8394 144.462 63.8394 144.462 63.7829 144.48L63.5461 144.519L63.4788 144.504C63.4115 144.488 63.4007 144.455 63.3334 144.439L63.3575 144.32Z" fill="#F4774C"/>
<path d="M103.996 116.881L103.978 116.926C103.994 116.958 104.01 116.989 104.027 117.02L104.043 117.051C104.043 117.051 104.043 117.051 104.008 117.065C103.973 117.079 103.973 117.079 103.922 117.062C103.922 117.062 103.922 117.062 103.938 117.093C103.938 117.093 103.938 117.093 103.92 117.139C103.901 117.184 103.867 117.198 103.832 117.212C103.797 117.226 103.797 117.226 103.797 117.226L103.711 117.223L103.641 117.251L103.415 117.304C103.259 117.329 103.12 117.385 102.98 117.442C102.25 117.66 101.517 117.955 100.82 118.236L100.401 118.405C100.401 118.405 100.001 118.528 99.6521 118.669C99.2869 118.778 98.8868 118.901 98.9217 118.887C98.6263 118.968 98.3494 119.004 98.2469 118.97C98.1793 118.921 98.3025 118.834 98.7745 118.606C99.3696 118.291 100.086 117.964 100.086 117.964L100.574 117.768C101.307 117.473 102.039 117.178 102.805 116.945C102.944 116.889 103.135 116.85 103.291 116.825L103.516 116.772L103.586 116.744C103.621 116.73 103.621 116.73 103.656 116.715L103.812 116.691L103.863 116.708C103.914 116.725 103.931 116.756 103.982 116.773L103.996 116.881Z" fill="#F4774C"/>
<path d="M120.587 95.2076L120.598 95.259C120.577 95.2875 120.556 95.3161 120.536 95.3447L120.515 95.3732C120.515 95.3732 120.515 95.3732 120.546 95.3961C120.578 95.4189 120.578 95.4189 120.63 95.4131C120.63 95.4131 120.63 95.4131 120.61 95.4417C120.61 95.4417 120.61 95.4417 120.62 95.4931C120.631 95.5445 120.663 95.5673 120.694 95.5901C120.726 95.6129 120.726 95.6129 120.726 95.6129L120.809 95.63L120.872 95.6756L121.082 95.784C121.229 95.8467 121.355 95.938 121.481 96.0292C122.153 96.4285 122.814 96.9077 123.445 97.3641L123.823 97.6379C123.823 97.6379 124.19 97.8604 124.505 98.0886C124.841 98.2882 125.208 98.5106 125.177 98.4878C125.45 98.6418 125.712 98.7444 125.816 98.7329C125.889 98.6986 125.784 98.5788 125.363 98.2308C124.837 97.7629 124.196 97.2551 124.196 97.2551L123.755 96.9357C123.093 96.4565 122.431 95.9772 121.728 95.5552C121.602 95.4639 121.424 95.3784 121.277 95.3156L121.067 95.2073L121.004 95.1617C120.973 95.1388 120.973 95.1388 120.941 95.116L120.795 95.0533L120.742 95.059C120.69 95.0648 120.67 95.0934 120.617 95.0991L120.587 95.2076Z" fill="#F4774C"/>
<path d="M146.714 56.6474L146.686 56.6921C146.696 56.726 146.706 56.7598 146.715 56.7937L146.725 56.8276C146.725 56.8276 146.725 56.8276 146.688 56.8384C146.651 56.8493 146.651 56.8493 146.603 56.8262C146.603 56.8262 146.603 56.8262 146.613 56.8601C146.613 56.8601 146.613 56.8601 146.586 56.9048C146.558 56.9495 146.521 56.9604 146.483 56.9712C146.446 56.9821 146.446 56.9821 146.446 56.9821L146.362 56.9699L146.287 56.9916L146.053 57.0229C145.893 57.0324 145.744 57.0758 145.595 57.1192C144.828 57.2684 144.043 57.4963 143.296 57.7133L142.847 57.8435C142.847 57.8435 142.426 57.9289 142.053 58.0374C141.669 58.1121 141.249 58.1975 141.286 58.1867C140.977 58.2396 140.696 58.2478 140.602 58.2018C140.544 58.1449 140.684 58.0677 141.197 57.8819C141.85 57.6189 142.625 57.3572 142.625 57.3572L143.148 57.2053C143.933 56.9775 144.717 56.7496 145.522 56.5895C145.671 56.5461 145.868 56.5257 146.027 56.5162L146.261 56.485L146.336 56.4633C146.373 56.4524 146.373 56.4524 146.411 56.4416L146.57 56.432L146.617 56.455C146.664 56.478 146.674 56.5119 146.721 56.5349L146.714 56.6474Z" fill="#F4774C"/>
<path d="M178 76.0516L177.994 76.1037C177.965 76.124 177.936 76.1442 177.907 76.1644L177.878 76.1846C177.878 76.1846 177.878 76.1846 177.9 76.2165C177.923 76.2484 177.923 76.2484 177.974 76.26C177.974 76.26 177.974 76.26 177.945 76.2802C177.945 76.2802 177.945 76.2802 177.939 76.3323C177.932 76.3844 177.954 76.4163 177.977 76.4482C177.999 76.4801 177.999 76.4801 177.999 76.4801L178.072 76.5236L178.117 76.5873L178.28 76.7583C178.398 76.8656 178.487 76.9931 178.577 77.1206C179.081 77.7176 179.549 78.3869 179.995 79.0244L180.263 79.4068C180.263 79.4068 180.538 79.7372 180.761 80.0559C181.013 80.3544 181.287 80.6848 181.265 80.6529C181.472 80.8877 181.686 81.0703 181.789 81.0936C181.869 81.0851 181.808 80.9373 181.525 80.4709C181.181 79.8567 180.741 79.1672 180.741 79.1672L180.429 78.721C179.96 78.0517 179.492 77.3823 178.965 76.7535C178.876 76.626 178.735 76.4868 178.617 76.3796L178.455 76.2086L178.41 76.1448C178.388 76.1129 178.388 76.1129 178.365 76.0811L178.247 75.9738L178.196 75.9622C178.145 75.9505 178.116 75.9707 178.065 75.9591L178 76.0516Z" fill="#F4774C"/>
<path d="M62.0365 152.882L62.0765 152.832C62.0657 152.799 62.0549 152.765 62.0441 152.732L62.0333 152.698C62.0333 152.698 62.0333 152.698 62.0842 152.682C62.135 152.665 62.135 152.665 62.1967 152.683C62.1967 152.683 62.1967 152.682 62.1859 152.649C62.1859 152.649 62.1859 152.649 62.2259 152.599C62.266 152.549 62.3168 152.533 62.3676 152.516C62.4185 152.5 62.4185 152.5 62.4185 152.5L62.531 152.501L62.6327 152.468L62.9486 152.404C63.1628 152.372 63.3662 152.306 63.5696 152.241C64.6081 151.981 65.6759 151.637 66.6929 151.31L67.303 151.114C67.303 151.114 67.8732 150.968 68.3816 150.804C68.9009 150.674 69.471 150.528 69.4202 150.544C69.8378 150.447 70.2153 150.4 70.3386 150.434C70.4111 150.485 70.2184 150.584 69.5174 150.846C68.6237 151.208 67.5667 151.585 67.5667 151.585L66.8548 151.814C65.787 152.157 64.7192 152.501 63.6298 152.777C63.4264 152.843 63.1614 152.891 62.9472 152.923L62.6313 152.987L62.5296 153.02C62.4788 153.036 62.4788 153.036 62.4279 153.053L62.2137 153.084L62.1521 153.067C62.0905 153.05 62.0796 153.016 62.018 152.999L62.0365 152.882Z" fill="#F4774C"/>
<path d="M100.995 109.488L100.971 109.536C100.987 109.567 101.004 109.598 101.02 109.629L101.036 109.661C101.036 109.661 101.036 109.661 100.996 109.677C100.956 109.693 100.956 109.693 100.9 109.678C100.9 109.678 100.9 109.678 100.916 109.709C100.916 109.709 100.916 109.709 100.892 109.756C100.868 109.804 100.828 109.82 100.788 109.836C100.748 109.852 100.748 109.852 100.748 109.852L100.651 109.854L100.571 109.886L100.314 109.952C100.137 109.985 99.9762 110.05 99.8156 110.114C98.9799 110.375 98.1368 110.715 97.3338 111.038L96.8521 111.233C96.8521 111.233 96.3941 111.379 95.9926 111.541C95.5747 111.671 95.1167 111.818 95.1569 111.802C94.8193 111.9 94.5055 111.951 94.3925 111.921C94.3197 111.874 94.4639 111.778 95.0096 111.521C95.6996 111.167 96.5263 110.796 96.5263 110.796L97.0884 110.57C97.9315 110.23 98.7747 109.891 99.6505 109.614C99.8111 109.549 100.028 109.499 100.205 109.466L100.462 109.4L100.543 109.368C100.583 109.351 100.583 109.351 100.623 109.335L100.8 109.302L100.856 109.317C100.913 109.332 100.929 109.363 100.986 109.378L100.995 109.488Z" fill="#F4774C"/>
<path d="M120.96 100.706L120.974 100.76C120.953 100.789 120.932 100.817 120.912 100.846L120.891 100.874C120.891 100.874 120.891 100.874 120.926 100.9C120.961 100.925 120.961 100.925 121.017 100.922C121.017 100.922 121.017 100.922 120.996 100.95C120.996 100.95 120.996 100.95 121.01 101.004C121.025 101.058 121.06 101.084 121.095 101.109C121.13 101.134 121.13 101.134 121.13 101.134L121.221 101.157L121.291 101.207L121.521 101.331C121.682 101.404 121.822 101.505 121.962 101.606C122.704 102.056 123.439 102.589 124.139 103.096L124.56 103.4C124.56 103.4 124.966 103.651 125.316 103.904C125.686 104.129 126.092 104.379 126.057 104.354C126.358 104.528 126.645 104.649 126.756 104.642C126.832 104.611 126.713 104.481 126.243 104.097C125.655 103.584 124.94 103.023 124.94 103.023L124.45 102.668C123.714 102.135 122.979 101.603 122.202 101.127C122.062 101.026 121.867 100.928 121.706 100.855L121.475 100.731L121.405 100.681C121.37 100.655 121.37 100.655 121.335 100.63L121.174 100.557L121.119 100.56C121.063 100.563 121.042 100.592 120.987 100.595L120.96 100.706Z" fill="#F4774C"/>
<path d="M144.501 61.6969L144.47 61.7428C144.48 61.7767 144.489 61.8106 144.499 61.8444L144.509 61.8783C144.509 61.8783 144.509 61.8783 144.467 61.8904C144.426 61.9024 144.426 61.9024 144.375 61.8806C144.375 61.8806 144.375 61.8806 144.384 61.9145C144.384 61.9145 144.384 61.9145 144.353 61.9604C144.321 62.0063 144.28 62.0184 144.238 62.0304C144.197 62.0425 144.197 62.0425 144.197 62.0425L144.104 62.0327L144.021 62.0568L143.762 62.0953C143.586 62.1097 143.42 62.1579 143.254 62.2061C142.404 62.3795 141.532 62.6326 140.702 62.8737L140.203 63.0184C140.203 63.0184 139.737 63.1171 139.322 63.2377C138.897 63.3244 138.43 63.4231 138.472 63.411C138.13 63.4736 137.819 63.4903 137.717 63.4467C137.656 63.391 137.812 63.3089 138.383 63.1063C139.111 62.8215 139.973 62.5345 139.973 62.5345L140.554 62.3658C141.426 62.1126 142.298 61.8594 143.189 61.674C143.355 61.6258 143.573 61.5994 143.749 61.585L144.008 61.5466L144.091 61.5225C144.132 61.5104 144.132 61.5104 144.174 61.4983L144.349 61.484L144.401 61.5058C144.452 61.5276 144.462 61.5615 144.513 61.5833L144.501 61.6969Z" fill="#F4774C"/>
<path d="M176.562 81.3726L176.558 81.4282C176.529 81.4484 176.5 81.4686 176.472 81.4889L176.443 81.5091C176.443 81.5091 176.443 81.5091 176.467 81.5445C176.492 81.5799 176.492 81.5799 176.546 81.5951C176.546 81.5951 176.546 81.5951 176.517 81.6153C176.517 81.6153 176.517 81.6153 176.513 81.671C176.509 81.7266 176.534 81.762 176.558 81.7974C176.583 81.8329 176.583 81.8329 176.583 81.8329L176.662 81.8835L176.711 81.9543L176.889 82.1465C177.017 82.268 177.116 82.4096 177.215 82.5513C177.769 83.2191 178.29 83.9628 178.786 84.6711L179.083 85.0961C179.083 85.0961 179.385 85.4654 179.633 85.8195C179.91 86.1534 180.211 86.5228 180.186 86.4873C180.414 86.7504 180.645 86.9579 180.752 86.9883C180.835 86.9832 180.765 86.8213 180.446 86.3053C180.058 85.6274 179.566 84.8635 179.566 84.8635L179.219 84.3677C178.698 83.624 178.178 82.8803 177.599 82.1771C177.5 82.0354 177.347 81.8786 177.219 81.7572L177.041 81.5649L176.992 81.4941C176.967 81.4587 176.967 81.4587 176.942 81.4232L176.814 81.3018L176.76 81.2866C176.707 81.2714 176.678 81.2917 176.624 81.2765L176.562 81.3726Z" fill="#F4774C"/>
<path d="M64.8741 145.866L64.9198 145.814C64.909 145.781 64.8982 145.747 64.8875 145.714L64.8766 145.68C64.8766 145.68 64.8767 145.68 64.9331 145.662C64.9896 145.644 64.9896 145.644 65.0569 145.659C65.0569 145.659 65.0569 145.659 65.0461 145.626C65.0461 145.626 65.0461 145.626 65.0918 145.574C65.1375 145.522 65.194 145.504 65.2505 145.486C65.307 145.468 65.307 145.468 65.307 145.468L65.4308 145.465L65.5438 145.429L65.8936 145.353C66.1304 145.314 66.3564 145.241 66.5824 145.169C67.7339 144.872 68.9204 144.491 70.0503 144.127L70.7283 143.909C70.7283 143.909 71.3606 143.743 71.9255 143.561C72.5013 143.413 73.1336 143.247 73.0771 143.265C73.5399 143.153 73.957 143.093 74.0915 143.124C74.1696 143.173 73.9544 143.279 73.1743 143.567C72.1789 143.961 71.0033 144.376 71.0033 144.376L70.2123 144.631C69.0258 145.012 67.8394 145.394 66.6313 145.709C66.4054 145.781 66.1121 145.838 65.8753 145.878L65.5255 145.953L65.4125 145.989C65.356 146.008 65.356 146.008 65.2995 146.026L65.0627 146.065L64.9954 146.049C64.9281 146.034 64.9173 146 64.85 145.985L64.8741 145.866Z" fill="#F4774C"/>
<path d="M103.308 115.169L103.297 115.211C103.313 115.242 103.329 115.274 103.346 115.305L103.362 115.336C103.362 115.336 103.362 115.336 103.335 115.347C103.307 115.358 103.307 115.358 103.263 115.338C103.263 115.338 103.263 115.338 103.279 115.369C103.279 115.369 103.279 115.369 103.268 115.412C103.257 115.454 103.229 115.465 103.201 115.477C103.174 115.488 103.174 115.488 103.174 115.488L103.102 115.479L103.047 115.501L102.864 115.537C102.737 115.55 102.627 115.594 102.516 115.639C101.93 115.799 101.35 116.033 100.797 116.256L100.465 116.39C100.465 116.39 100.144 116.481 99.8676 116.592C99.5747 116.672 99.2542 116.764 99.2818 116.753C99.0442 116.81 98.8179 116.826 98.7299 116.786C98.6695 116.734 98.7638 116.659 99.1346 116.471C99.5996 116.208 100.164 115.943 100.164 115.943L100.551 115.787C101.132 115.553 101.713 115.32 102.326 115.148C102.437 115.104 102.591 115.079 102.718 115.066L102.901 115.03L102.956 115.008C102.984 114.997 102.984 114.997 103.011 114.986L103.138 114.972L103.182 114.992C103.226 115.013 103.243 115.044 103.287 115.064L103.308 115.169Z" fill="#F4774C"/>
<path d="M121.985 94.4791L121.996 94.5305C121.975 94.559 121.955 94.5876 121.934 94.6161L121.913 94.6447C121.913 94.6447 121.913 94.6447 121.945 94.6675C121.976 94.6904 121.976 94.6903 122.029 94.6846C122.029 94.6846 122.029 94.6846 122.008 94.7132C122.008 94.7132 122.008 94.7132 122.019 94.7646C122.03 94.8159 122.061 94.8388 122.093 94.8616C122.124 94.8844 122.124 94.8844 122.124 94.8844L122.208 94.9015L122.271 94.9471L122.481 95.0555C122.627 95.1182 122.753 95.2094 122.879 95.3007C123.551 95.7 124.213 96.1792 124.843 96.6356L125.221 96.9094C125.221 96.9094 125.589 97.1319 125.904 97.36C126.24 97.5597 126.607 97.7821 126.575 97.7593C126.848 97.9133 127.11 98.0159 127.215 98.0044C127.287 97.9701 127.182 97.8503 126.762 97.5022C126.236 97.0344 125.595 96.5266 125.595 96.5266L125.153 96.2071C124.492 95.7279 123.83 95.2487 123.127 94.8266C123.001 94.7354 122.822 94.6498 122.676 94.5871L122.466 94.4788L122.403 94.4331C122.371 94.4103 122.371 94.4103 122.34 94.3875L122.193 94.3248L122.141 94.3305C122.089 94.3363 122.068 94.3648 122.016 94.3706L121.985 94.4791Z" fill="#F4774C"/>
<path d="M145.645 55.4911L145.618 55.5358C145.627 55.5697 145.637 55.6036 145.647 55.6374L145.657 55.6713C145.657 55.6713 145.657 55.6713 145.62 55.6822C145.582 55.693 145.582 55.693 145.535 55.67C145.535 55.67 145.535 55.67 145.545 55.7039C145.545 55.7039 145.545 55.7039 145.517 55.7486C145.49 55.7933 145.452 55.8041 145.415 55.815C145.378 55.8258 145.378 55.8258 145.378 55.8258L145.293 55.8137L145.218 55.8354L144.984 55.8666C144.825 55.8761 144.676 55.9195 144.526 55.9629C143.759 56.1122 142.975 56.34 142.227 56.557L141.779 56.6872C141.779 56.6872 141.358 56.7727 140.984 56.8812C140.601 56.9558 140.18 57.0413 140.218 57.0304C139.909 57.0834 139.628 57.0916 139.533 57.0456C139.476 56.9887 139.616 56.9114 140.129 56.7257C140.782 56.4626 141.557 56.2009 141.557 56.2009L142.08 56.0491C142.864 55.8212 143.649 55.5934 144.453 55.4332C144.603 55.3898 144.8 55.3695 144.959 55.3599L145.193 55.3287L145.268 55.307C145.305 55.2962 145.305 55.2962 145.342 55.2853L145.502 55.2758L145.549 55.2988C145.596 55.3218 145.606 55.3557 145.653 55.3787L145.645 55.4911Z" fill="#F4774C"/>
<path d="M179.56 75.8207L179.553 75.8728C179.524 75.893 179.496 75.9132 179.467 75.9334L179.438 75.9537C179.438 75.9537 179.438 75.9537 179.46 75.9856C179.482 76.0174 179.482 76.0174 179.534 76.0291C179.534 76.0291 179.534 76.0291 179.505 76.0493C179.505 76.0493 179.505 76.0493 179.498 76.1014C179.492 76.1535 179.514 76.1854 179.536 76.2172C179.558 76.2491 179.558 76.2491 179.558 76.2491L179.632 76.2926L179.677 76.3564L179.839 76.5274C179.958 76.6346 180.047 76.7621 180.136 76.8896C180.64 77.4866 181.109 78.156 181.555 78.7934L181.823 79.1759C181.823 79.1759 182.097 79.5062 182.32 79.825C182.572 80.1235 182.847 80.4538 182.824 80.422C183.032 80.6567 183.246 80.8394 183.348 80.8627C183.428 80.8541 183.368 80.7064 183.084 80.2399C182.74 79.6258 182.301 78.9362 182.301 78.9362L181.988 78.49C181.52 77.8207 181.051 77.1514 180.525 76.5225C180.436 76.395 180.295 76.2559 180.177 76.1486L180.014 75.9776L179.969 75.9139C179.947 75.882 179.947 75.882 179.925 75.8501L179.807 75.7428L179.756 75.7312C179.704 75.7195 179.675 75.7398 179.624 75.7281L179.56 75.8207Z" fill="#F4774C"/>
<path d="M63.5492 154.429L63.5892 154.379C63.5784 154.346 63.5676 154.312 63.5568 154.278L63.546 154.245C63.546 154.245 63.546 154.245 63.5969 154.229C63.6477 154.212 63.6477 154.212 63.7094 154.229C63.7094 154.229 63.7093 154.229 63.6986 154.196C63.6986 154.196 63.6986 154.196 63.7386 154.146C63.7787 154.096 63.8295 154.08 63.8803 154.063C63.9312 154.047 63.9312 154.047 63.9312 154.047L64.0437 154.048L64.1454 154.015L64.4613 153.95C64.6755 153.919 64.8789 153.853 65.0823 153.788C66.1208 153.528 67.1886 153.184 68.2056 152.857L68.8157 152.661C68.8157 152.661 69.3859 152.515 69.8943 152.351C70.4136 152.221 70.9837 152.075 70.9329 152.091C71.3505 151.994 71.728 151.947 71.8513 151.981C71.9237 152.032 71.7311 152.131 71.0301 152.393C70.1364 152.755 69.0794 153.132 69.0794 153.132L68.3675 153.361C67.2997 153.704 66.2319 154.048 65.1425 154.324C64.9391 154.389 64.6741 154.438 64.4599 154.47L64.144 154.534L64.0423 154.567C63.9915 154.583 63.9915 154.583 63.9406 154.599L63.7264 154.631L63.6648 154.614C63.6031 154.597 63.5923 154.563 63.5307 154.546L63.5492 154.429Z" fill="#F4774C"/>
<path d="M98.2917 108.405L98.2679 108.452C98.2842 108.483 98.3006 108.515 98.317 108.546L98.3333 108.577C98.3333 108.577 98.3333 108.577 98.2932 108.593C98.253 108.609 98.253 108.609 98.1965 108.594C98.1965 108.594 98.1965 108.594 98.2129 108.626C98.2129 108.626 98.2129 108.626 98.1891 108.673C98.1653 108.72 98.1252 108.737 98.085 108.753C98.0449 108.769 98.0449 108.769 98.0449 108.769L97.9482 108.77L97.8679 108.802L97.6107 108.868C97.4337 108.902 97.2731 108.966 97.1125 109.031C96.2768 109.292 95.4337 109.632 94.6307 109.955L94.1489 110.149C94.1489 110.149 93.6909 110.296 93.2894 110.457C92.8716 110.588 92.4136 110.734 92.4537 110.718C92.1162 110.816 91.8024 110.867 91.6894 110.837C91.6165 110.791 91.7608 110.695 92.3065 110.437C92.9965 110.084 93.8232 109.713 93.8232 109.713L94.3853 109.486C95.2284 109.147 96.0715 108.807 96.9474 108.53C97.108 108.465 97.3251 108.416 97.502 108.382L97.7593 108.317L97.8396 108.284C97.8798 108.268 97.8797 108.268 97.9199 108.252L98.0968 108.218L98.1534 108.233C98.2099 108.248 98.2262 108.28 98.2827 108.295L98.2917 108.405Z" fill="#F4774C"/>
<path d="M154.725 113.214C152.536 111.139 149.21 108.404 149.21 108.404L147.091 106.87L135.813 98.8671L132.029 96.1272C132.029 96.1272 131.878 96.0176 131.8 96.1247C130.047 95.9977 130.416 97.0812 130.715 97.6242L130.866 97.7338L134.65 100.474L145.928 108.477L147.744 109.792C147.744 109.792 149.335 110.781 151 111.986C152.591 112.975 154.104 114.071 153.953 113.962C156.526 115.825 158.424 116.709 154.725 113.214Z" fill="#F4774C"/>
<path d="M143.554 110.838C143.034 110.243 142.201 109.423 142.201 109.423C142.201 109.423 140.798 108.406 139.342 107.461C138.718 107.01 137.938 106.445 137.47 106.106C137.003 105.767 136.691 105.541 136.535 105.428C136.535 105.428 136.535 105.428 136.483 105.5C135.809 105.774 135.706 106.244 135.759 106.499C135.759 106.499 136.071 106.725 136.695 107.177C137.163 107.516 137.943 108.081 138.567 108.532C139.97 109.549 141.27 110.381 141.27 110.381L142.985 111.296C143.868 111.718 144.491 111.843 143.554 110.838Z" fill="#F4774C"/>
<path d="M132.895 54.0247C131.592 53.9301 129.89 53.9025 128.564 53.8902C127.238 53.8779 126.288 53.8808 126.288 53.8808C125.514 53.9325 124.74 53.9842 124.165 54.0024C122.418 54.1393 120.87 54.2427 119.101 54.4618C117.906 54.6628 116.557 54.7327 115.362 54.9336L115.339 55.0158C114.936 55.7896 116.171 56.1309 116.876 56.3259C117.053 56.3747 117.053 56.3747 117.053 56.3747C118.248 56.1738 119.42 56.0551 120.615 55.8542C122.186 55.6686 123.756 55.4829 125.48 55.4283L127.227 55.2914C127.227 55.2914 128.775 55.188 130.346 55.0023C131.894 54.8989 133.441 54.7955 133.265 54.7467C135.962 54.6069 137.578 54.2567 132.895 54.0247Z" fill="#F4774C"/>
<path d="M129.489 57.6368C126.778 57.6809 123.057 57.9155 123.057 57.9155L120.874 58.1716L120.288 58.2043C118.913 58.308 117.701 58.5367 116.509 58.6838L116.489 58.7654C116.112 59.538 117.371 59.924 118.12 60.0164C118.303 60.0599 118.303 60.0598 118.303 60.0598C119.495 59.9127 120.707 59.684 122.082 59.5804L122.669 59.5476L124.447 59.3678C124.447 59.3678 126.044 59.1444 127.64 58.9211C129.237 58.6977 130.651 58.4309 130.449 58.469C132.69 57.9681 134.143 57.5381 129.489 57.6368Z" fill="#F4774C"/>
<path d="M199.683 91.7337C198.069 89.5544 195.714 86.6646 195.714 86.6646L194.235 85.0383L193.867 84.5804C192.983 83.5224 192.092 82.6698 191.278 81.7856L191.201 81.8173C190.353 81.9602 190.771 83.2082 191.132 83.8716C191.203 84.0454 191.203 84.0453 191.203 84.0453C192.016 84.9295 192.908 85.7821 193.792 86.8401L194.16 87.298L195.341 88.6402C195.341 88.6402 196.452 89.8086 197.562 90.977C198.673 92.1455 199.712 93.1401 199.564 92.998C201.275 94.5294 202.47 95.4606 199.683 91.7337Z" fill="#F4774C"/>
<path d="M127.341 62.693C126.387 62.4779 125.208 62.3706 125.208 62.3706C125.208 62.3706 123.597 62.4032 121.795 62.3928C120.981 62.4468 120.167 62.5008 119.561 62.5225C118.937 62.6195 118.539 62.6088 118.522 62.6842L118.505 62.7596C118.975 63.3407 119.878 63.7819 120.243 63.9433C120.243 63.9433 120.658 63.8786 121.074 63.8139C121.68 63.7922 122.303 63.6952 123.101 63.7166C124.712 63.6839 126.323 63.6513 126.323 63.6513C126.323 63.6513 128.176 63.4356 127.985 63.3926C128.626 63.2202 128.884 62.9618 127.341 62.693Z" fill="#F4774C"/>
<path d="M194.316 92.9254C193.936 92.0244 193.338 91.0033 193.338 91.0033C193.338 91.0033 192.374 89.7119 191.334 88.2403C190.816 87.6096 190.298 86.9789 189.928 86.4984C189.486 86.0478 189.263 85.7175 189.192 85.7475L189.121 85.7776C188.922 86.4983 189.088 87.4893 189.169 87.8798C189.169 87.8798 189.464 88.1801 189.758 88.4804C190.129 88.9609 190.57 89.4114 191.017 90.0722C191.981 91.3636 192.945 92.655 192.945 92.655C192.945 92.655 194.198 94.0365 194.122 93.8563C194.635 94.2768 194.996 94.3369 194.316 92.9254Z" fill="#F4774C"/>
</svg>
