<svg width="665" height="2" viewBox="0 0 665 2" fill="none" xmlns="http://www.w3.org/2000/svg">
<path d="M664 1.5C664.276 1.5 664.5 1.27614 664.5 1C664.5 0.723858 664.276 0.5 664 0.5V1.5ZM664 0.5H663V1.5H664V0.5ZM661 0.5H659V1.5L661 1.5V0.5ZM657 0.5L655 0.5V1.5H657V0.5ZM653 0.5L651 0.5V1.5L653 1.5V0.5ZM649 0.5L647 0.5V1.5H649V0.5ZM645 0.5L643 0.5V1.5L645 1.5V0.5ZM641 0.5L639 0.5V1.5H641V0.5ZM637 0.5L635 0.5V1.5L637 1.5V0.5ZM633 0.5L631 0.5V1.5L633 1.5V0.5ZM629 0.5L627 0.5V1.5H629V0.5ZM625 0.5L623 0.5V1.5L625 1.5V0.5ZM621 0.5L619 0.5V1.5H621V0.5ZM617 0.5L615 0.5V1.5L617 1.5V0.5ZM613 0.5H611V1.5H613V0.5ZM609 0.5H607V1.5L609 1.5V0.5ZM605 0.5H603V1.5H605V0.5ZM601 0.5L599 0.5V1.5L601 1.5V0.5ZM597 0.5L595 0.5V1.5H597V0.5ZM593 0.5L591 0.5V1.5L593 1.5V0.5ZM589 0.5L587 0.5V1.5H589V0.5ZM585 0.5L583 0.5V1.5L585 1.5V0.5ZM581 0.5L579 0.5V1.5H581V0.5ZM577 0.5L575 0.5V1.5H577V0.5ZM573 0.5L571 0.5V1.5L573 1.5V0.5ZM569 0.5L567 0.5V1.5H569V0.5ZM565 0.5L563 0.5V1.5L565 1.5V0.5ZM561 0.5L559 0.5V1.5H561V0.5ZM557 0.5L555 0.5V1.5L557 1.5V0.5ZM553 0.5H551V1.5H553V0.5ZM549 0.5H547V1.5L549 1.5V0.5ZM545 0.5H543V1.5H545V0.5ZM541 0.5L539 0.5V1.5L541 1.5V0.5ZM537 0.5L535 0.5V1.5H537V0.5ZM533 0.5L531 0.5V1.5L533 1.5V0.5ZM529 0.5L527 0.5V1.5H529V0.5ZM525 0.5L523 0.5V1.5L525 1.5V0.5ZM521 0.5L519 0.5V1.5L521 1.5V0.5ZM517 0.5L515 0.5V1.5H517V0.5ZM513 0.5L511 0.5V1.5L513 1.5V0.5ZM509 0.5L507 0.5V1.5H509V0.5ZM505 0.5L503 0.5V1.5L505 1.5V0.5ZM501 0.5L499 0.5V1.5H501V0.5ZM497 0.5H495V1.5L497 1.5V0.5ZM493 0.5H491V1.5H493V0.5ZM489 0.5H487V1.5L489 1.5V0.5ZM485 0.5L483 0.5V1.5H485V0.5ZM481 0.5L479 0.5V1.5L481 1.5V0.5ZM477 0.5L475 0.5V1.5H477V0.5ZM473 0.5L471 0.5V1.5L473 1.5V0.5ZM469 0.5L467 0.5V1.5H469V0.5ZM465 0.5L463 0.5V1.5L465 1.5V0.5ZM461 0.5L459 0.5V1.5L461 1.5V0.5ZM457 0.5L455 0.5V1.5H457V0.5ZM453 0.5L451 0.5V1.5L453 1.5V0.5ZM449 0.5L447 0.5V1.5H449V0.5ZM445 0.5L443 0.5V1.5L445 1.5V0.5ZM441 0.5H439V1.5H441V0.5ZM437 0.5H435V1.5L437 1.5V0.5ZM433 0.5H431V1.5H433V0.5ZM429 0.5L427 0.5V1.5L429 1.5V0.5ZM425 0.5L423 0.5V1.5H425V0.5ZM421 0.5L419 0.5V1.5L421 1.5V0.5ZM417 0.5L415 0.5V1.5H417V0.5ZM413 0.5L411 0.5V1.5L413 1.5V0.5ZM409 0.5L407 0.5V1.5H409V0.5ZM405 0.5L403 0.5V1.5H405V0.5ZM401 0.5L399 0.5V1.5L401 1.5V0.5ZM397 0.5L395 0.5V1.5H397V0.5ZM393 0.5L391 0.5V1.5L393 1.5V0.5ZM389 0.5L387 0.5V1.5H389V0.5ZM385 0.5L383 0.5V1.5L385 1.5V0.5ZM381 0.5H379V1.5H381V0.5ZM377 0.5H375V1.5L377 1.5V0.5ZM373 0.5H371V1.5H373V0.5ZM369 0.5L367 0.5V1.5L369 1.5V0.5ZM365 0.5L363 0.5V1.5H365V0.5ZM361 0.5L359 0.5V1.5L361 1.5V0.5ZM357 0.5L355 0.5V1.5H357V0.5ZM353 0.5L351 0.5V1.5L353 1.5V0.5ZM349 0.5L347 0.5V1.5L349 1.5V0.5ZM345 0.5L343 0.5V1.5H345V0.5ZM341 0.5L339 0.5V1.5L341 1.5V0.5ZM337 0.5L335 0.5V1.5H337V0.5ZM333 0.5L331 0.5V1.5L333 1.5V0.5ZM329 0.5L327 0.5V1.5H329V0.5ZM325 0.5H323V1.5L325 1.5V0.5ZM321 0.5H319V1.5H321V0.5ZM317 0.5H315V1.5L317 1.5V0.5ZM313 0.5L311 0.5V1.5H313V0.5ZM309 0.5L307 0.5V1.5L309 1.5V0.5ZM305 0.5L303 0.5V1.5H305V0.5ZM301 0.5L299 0.5V1.5L301 1.5V0.5ZM297 0.5L295 0.5V1.5H297V0.5ZM293 0.5L291 0.5V1.5L293 1.5V0.5ZM289 0.5L287 0.5V1.5L289 1.5V0.5ZM285 0.5L283 0.5V1.5H285V0.5ZM281 0.5L279 0.5V1.5L281 1.5V0.5ZM277 0.5L275 0.5V1.5H277V0.5ZM273 0.5L271 0.5V1.5L273 1.5V0.5ZM269 0.5H267V1.5H269V0.5ZM265 0.5H263V1.5L265 1.5V0.5ZM261 0.5H259V1.5H261V0.5ZM257 0.5L255 0.5V1.5L257 1.5V0.5ZM253 0.5L251 0.5V1.5H253V0.5ZM249 0.5L247 0.5V1.5L249 1.5V0.5ZM245 0.5L243 0.5V1.5H245V0.5ZM241 0.5L239 0.5V1.5L241 1.5V0.5ZM237 0.5L235 0.5V1.5H237V0.5ZM233 0.5L231 0.5V1.5H233V0.5ZM229 0.5L227 0.5V1.5L229 1.5V0.5ZM225 0.5L223 0.5V1.5H225V0.5ZM221 0.5L219 0.5V1.5L221 1.5V0.5ZM217 0.5L215 0.5V1.5H217V0.5ZM213 0.5L211 0.5V1.5L213 1.5V0.5ZM209 0.5H207V1.5H209V0.5ZM205 0.5H203V1.5L205 1.5V0.5ZM201 0.5H199V1.5H201V0.5ZM197 0.5L195 0.5V1.5L197 1.5V0.5ZM193 0.5L191 0.5V1.5H193V0.5ZM189 0.5L187 0.5V1.5L189 1.5V0.5ZM185 0.5L183 0.5V1.5H185V0.5ZM181 0.5L179 0.5V1.5L181 1.5V0.5ZM177 0.5L175 0.5V1.5L177 1.5V0.5ZM173 0.5L171 0.5V1.5H173V0.5ZM169 0.5L167 0.5V1.5L169 1.5V0.5ZM165 0.5L163 0.5V1.5H165V0.5ZM161 0.5L159 0.5V1.5L161 1.5V0.5ZM157 0.5L155 0.5V1.5H157V0.5ZM153 0.5H151V1.5L153 1.5V0.5ZM149 0.5H147V1.5H149V0.5ZM145 0.5H143V1.5L145 1.5V0.5ZM141 0.5L139 0.5V1.5H141V0.5ZM137 0.5L135 0.5V1.5L137 1.5V0.5ZM133 0.5L131 0.5V1.5H133V0.5ZM129 0.5L127 0.5V1.5L129 1.5V0.5ZM125 0.5L123 0.5V1.5H125V0.5ZM121 0.5L119 0.5V1.5L121 1.5V0.5ZM117 0.5L115 0.5V1.5L117 1.5V0.5ZM113 0.5L111 0.5V1.5H113V0.5ZM109 0.5L107 0.5V1.5L109 1.5V0.5ZM105 0.5L103 0.5V1.5H105V0.5ZM101 0.5L99 0.5V1.5L101 1.5V0.5ZM97 0.5H95V1.5H97V0.5ZM93 0.5H91V1.5L93 1.5V0.5ZM89 0.5H87V1.5H89V0.5ZM85 0.5L83 0.5V1.5L85 1.5V0.5ZM81 0.5L79 0.5V1.5H81V0.5ZM77 0.5L75 0.5V1.5L77 1.5V0.5ZM73 0.5L71 0.5V1.5H73V0.5ZM69 0.5L67 0.5V1.5L69 1.5V0.5ZM65 0.5L63 0.5V1.5H65V0.5ZM61 0.5L59 0.5V1.5H61V0.5ZM57 0.5L55 0.5V1.5L57 1.5V0.5ZM53 0.5L51 0.5V1.5H53V0.5ZM49 0.5L47 0.5V1.5L49 1.5V0.5ZM45 0.5L43 0.5V1.5H45V0.5ZM41 0.5H39V1.5L41 1.5V0.5ZM37 0.5H35V1.5H37V0.5ZM33 0.5H31V1.5L33 1.5V0.5ZM29 0.5H27V1.5H29V0.5ZM25 0.5L23 0.5V1.5L25 1.5V0.5ZM21 0.5L19 0.5V1.5H21V0.5ZM17 0.5L15 0.5V1.5L17 1.5V0.5ZM13 0.5L11 0.5V1.5H13V0.5ZM9 0.5L7 0.5V1.5L9 1.5V0.5ZM5 0.5L3 0.5V1.5L5 1.5V0.5ZM1 0.5L0 0.5V1.5H1V0.5Z" fill="#5A5A5B"/>
</svg>
