<svg width="143" height="89" viewBox="0 0 143 89" fill="none" xmlns="http://www.w3.org/2000/svg">
<path d="M135.396 7.2094C123.533 14.2048 110.872 19.8689 99.0659 26.979C98.2448 27.4664 98.5756 29.7577 98.4907 30.8185C96.622 56.1339 84.8847 74.8331 62.9139 86.559C59.5131 88.0928 56.4306 89.3247 51.6457 88.9233C45.3319 88.4073 41.6044 84.441 42.2556 78.0476C42.8218 72.457 45.0749 68.6066 48.3592 64.3348C55.6639 54.9024 64.2843 46.7989 73.7125 39.7462C79.6865 35.2737 88.5548 30.4484 94.8403 26.0333C93.2831 22.9369 87.7977 18.4675 82.6331 18.4675C74.6515 18.9403 72.7784 20.8311 68.0784 22.7233C53.3274 28.6579 38.968 39.0827 27.6712 50.1779C19.2623 58.4348 13.7033 67.0824 5.63408 75.6833C4.92626 76.4287 3.75605 78.5205 3.28655 78.9933C2.18234 80.0255 1.7873 81.0249 0.739726 80.3081C-0.39279 79.7921 0.031904 77.9285 0.343346 76.9538C0.852978 75.3482 2.26728 74.165 3.28655 72.8462C19.1701 51.8885 37.3096 34.0337 61.0358 22.2504C66.2454 19.6701 71.3648 18.0096 76.9991 16.5761C85.0965 14.5406 91.9051 16.2576 96.7183 24.1418C108.242 17.8918 124.459 10.0877 136.011 3.80899C131.764 3.80899 123.773 2.86328 119.724 2.86328C119.045 2.86328 117.417 2.92062 116.738 2.86328C114.897 2.71993 113.499 2.75589 113.499 1.91482C113.499 -0.446091 115.124 0.0546757 116.738 0.0260059C124.92 -0.174683 131.73 1.24397 139.913 1.44466C143.254 1.53067 143.619 2.18852 142.26 5.22752C138.41 14.0578 136.235 20.2408 131.931 28.8704C131.535 29.6732 130.639 32.8309 129.025 32.0281C127.836 31.2827 128.608 29.7752 128.976 28.8291C131.213 23.1238 134.191 17.4955 136.626 11.8475C137.051 10.8441 137.582 9.06811 138.035 8.06467C139.054 6.5165 136.33 6.66467 135.396 7.2094ZM96.2488 28.8704C96.3338 27.8383 92.6484 31.1186 92.3936 31.2906C79.0583 40.293 64.2536 51.2369 53.4664 63.3643C50.5784 66.604 48.215 71.2184 46.4313 75.2035C42.683 82.7762 49.2414 87.1469 54.9323 86.0862C58.6129 85.3981 63.4706 83.78 66.6699 81.8305C80.2884 73.6022 91.1266 55.8567 93.9013 44.4747C94.9206 40.1169 95.5693 33.859 96.2488 28.8704Z" fill="#F4774C"/>
</svg>
