<svg width="139" height="144" viewBox="0 0 139 144" fill="none" xmlns="http://www.w3.org/2000/svg">
<path d="M7.59897 92.7904C8.26435 110.682 21.105 123.641 37.878 127.994C45.8542 130.039 54.5619 129.878 62.2943 126.888C70.4992 123.735 76.0623 116.524 79.4815 108.682C82.8829 100.923 83.5053 92.224 82.1235 83.886C81.4148 79.8007 80.155 75.4234 78.1356 71.3217C85.7334 66.9035 93.3539 61.9653 99.5115 55.667C99.6308 55.5175 99.7504 55.3681 99.786 55.2008C103.924 56.3426 109.355 54.699 113.63 52.7223C118.683 50.3861 123.44 47.3753 127.832 44.0243C129.273 43.0189 132.793 40.8818 133.86 38.7478C134.219 38.2993 134.66 37.8686 135.133 37.7067C135.522 37.527 135.76 37.228 135.765 36.7919C135.633 33.7035 134.843 30.825 133.025 28.2524C132.28 27.2198 131.201 26.116 129.966 25.329C129.072 24.1771 128.059 23.1748 126.926 22.3219C126.776 22.2026 126.608 22.167 126.441 22.1313C126.273 22.0957 126.004 22.1259 125.818 22.1739C125.125 22.5511 124.413 23.012 123.702 23.4729C122.302 23.8749 120.659 25.012 119.983 25.3055C114.979 27.8268 110.353 31.0407 105.794 34.3559C104.861 35.0322 100.606 38.1498 97.2559 41.5473C97.172 41.5294 97.1722 41.5295 97.1722 41.5295C96.8546 41.3745 96.5802 41.8409 96.7784 42.1453C95.3152 43.6705 94.1213 45.1654 93.3998 46.4985C93.1484 46.4451 92.7776 46.5411 92.5566 46.7565C90.8064 48.3955 88.9417 49.748 86.9273 50.9812C86.8435 50.9634 86.7598 50.9455 86.6582 51.0114C86.4728 51.0594 86.4548 51.1431 86.4193 51.3104C85.2177 52.0168 84.118 52.6574 82.8504 53.2623C82.5989 53.2089 82.3474 53.1554 82.0121 53.0842C81.6768 53.0129 81.4862 53.497 81.8037 53.6519C81.8876 53.6697 81.9714 53.6875 81.9714 53.6875C78.1153 55.7534 74.1755 57.8014 70.8783 60.9478C70.5557 61.229 70.4845 61.5637 70.5988 61.8503C70.5149 61.8325 70.515 61.8325 70.4312 61.8147C68.7572 59.7975 66.7785 57.9779 64.4593 56.5231C56.0335 51.2346 45.2223 50.1608 35.6508 52.3233C17.8363 56.5811 6.9285 75.3351 7.59897 92.7904ZM105.344 36.8835C105.207 37.1167 105.423 37.3373 105.608 37.2893C105.608 37.2893 105.608 37.2894 105.71 37.2235C105.794 37.2413 105.776 37.325 105.86 37.3428C104.963 37.8517 104.066 38.3606 103.086 38.8517C103.002 38.8339 102.9 38.8998 102.882 38.9835L102.781 39.0493C102.679 39.1151 102.679 39.1151 102.578 39.1809C103.444 38.4032 104.394 37.6434 105.344 36.8835ZM109.718 33.6162C110.018 33.8548 110.318 34.0934 110.617 34.3319C110.313 34.5295 110.008 34.727 109.703 34.9246C109.619 34.9067 109.535 34.8889 109.451 34.8711C109.523 34.5365 109.612 34.1182 109.718 33.6162C109.617 33.6821 109.718 33.6162 109.718 33.6162ZM128.34 40.8097C124.863 43.568 121.187 46.022 117.295 48.2551C111.306 51.7036 98.0865 58.2497 95.7242 47.5173C95.676 47.3322 95.6098 47.2306 95.4599 47.1114C95.5666 46.6094 95.6555 46.191 95.9299 45.7247C96.0492 45.5752 96.1688 45.4258 96.1866 45.3421C96.6921 46.6737 97.5506 47.9929 98.6657 48.9294C98.9655 49.168 99.3237 48.7195 99.024 48.4809C98.0587 47.6637 97.2001 46.3445 96.8622 45.0485C96.7962 44.9471 96.73 44.8456 96.5624 44.81C97.0221 44.2956 97.4821 43.7813 97.9241 43.3506C97.9419 43.267 98.0256 43.2848 98.0433 43.2012C99.3084 44.257 100.454 45.4623 101.158 47.0983C101.158 47.0983 101.242 47.1161 101.259 47.0325C100.604 45.5816 99.9358 43.7782 98.7724 42.6566C99.382 42.2615 100.093 41.8006 100.703 41.4056C101.351 42.0679 101.932 42.6287 102.377 43.4227C103.086 44.6226 103.202 46.1339 103.02 47.4066C102.984 47.5739 103.302 47.7289 103.355 47.4779C103.8 45.3865 103.398 42.3283 101.6 40.8967C102.09 40.6512 102.682 40.3398 103.172 40.0942C103.568 40.7031 104.066 41.2461 104.462 41.8549C105.153 43.1385 105.473 44.5181 105.524 45.9279C105.506 46.0115 105.674 46.0472 105.71 45.8799C105.743 44.4879 105.572 43.2275 105.049 41.9796C104.755 41.3049 104.412 40.4452 103.949 39.7349C104.93 39.2438 105.875 38.92 106.67 38.4769C108.009 40.4228 108.839 42.6978 109.975 44.7753C110.041 44.8768 110.226 44.8288 110.178 44.6437C109.599 42.4221 108.786 40.0633 107.465 38.0338C107.668 37.9021 107.854 37.8541 108.057 37.7224C108.834 37.363 109.546 36.9021 110.257 36.4413C111.936 38.0223 112.886 40.1479 113.567 42.3036C113.615 42.4888 113.902 42.375 113.854 42.1898C113.424 40.0875 112.683 37.3941 111.087 35.8309C112.121 35.0888 113.155 34.3468 114.123 33.5032C114.189 33.6047 114.255 33.7062 114.339 33.724C114.489 33.8433 114.59 33.7774 114.692 33.7116C116.114 35.6753 117.179 38.0875 118.23 40.1472C118.279 40.3324 118.566 40.2184 118.518 40.0333C117.674 37.4058 116.932 34.7125 115.21 32.5102C116.28 31.6008 117.349 30.6914 118.436 29.6984C120.763 31.9417 122.48 34.5801 122.912 37.9071C122.894 37.9907 123.062 38.0264 123.097 37.8591C122.917 34.5855 121.492 31.3972 119.183 29.0702C120.031 28.3761 120.898 27.5985 121.746 26.9044C124.563 28.9022 126.072 32.1083 126.57 35.5368C126.618 35.7219 126.804 35.6739 126.839 35.5066C126.694 32.0658 125.562 28.3275 122.678 26.2282C123.001 25.947 123.306 25.7495 123.712 25.4861C123.862 25.6054 124.096 25.7425 124.33 25.8796C125.313 26.6132 126.159 27.58 126.921 28.5289C128.313 30.2238 129.214 32.1642 130.015 34.1704C130.063 34.3556 130.434 34.2596 130.302 34.0566C129.705 31.9187 128.803 29.9782 127.53 28.1338C126.87 27.1191 125.861 25.6806 124.645 24.8099C125.153 24.4807 125.643 24.2352 126.151 23.906C126.385 24.0431 126.6 24.2638 126.75 24.3831C126.565 24.4311 126.38 24.4791 126.194 24.5272C125.907 24.641 125.836 24.9757 126.052 25.1965C127.065 26.1988 128.389 26.5675 129.522 27.4204C129.672 27.5397 129.738 27.6412 129.888 27.7605C131.13 29.3361 132.151 31.127 133.088 32.9002C133.545 34.0466 134.196 35.9336 133.568 36.4123C133.551 36.496 133.467 36.4781 133.449 36.5618C131.577 37.1257 129.732 39.6191 128.34 40.8097ZM117.865 28.2653C117.781 28.2475 117.781 28.2475 117.679 28.3133C117.883 28.1817 118.086 28.05 118.289 27.9183C118.104 27.9664 117.984 28.1158 117.865 28.2653ZM117.494 28.3613C117.392 28.4272 117.374 28.5109 117.357 28.5945C116.287 29.5039 115.2 30.4969 114.131 31.4063C113.963 31.3707 113.694 31.4009 113.574 31.5504C113.491 31.5325 113.407 31.5147 113.437 31.7835C113.419 31.8672 113.402 31.9508 113.402 31.9508C112.815 31.8261 112.355 32.3404 111.733 32.383C111.463 32.4132 111.494 32.6821 111.728 32.8192C111.979 32.8726 112.231 32.9261 112.584 32.9137C112.04 33.4102 111.43 33.8053 110.904 34.2181C110.605 33.9796 110.389 33.7587 110.107 33.4365C112.497 31.6712 114.954 30.0074 117.494 28.3613ZM108.989 34.1608C108.936 34.4118 108.883 34.6627 108.829 34.9136C108.811 34.9973 108.71 35.0632 108.692 35.1468C108.537 35.4637 108.268 35.4938 107.813 35.5721C107.257 35.7161 106.833 36.0632 106.558 36.5295C106.474 36.5117 106.307 36.476 106.223 36.4582C106.139 36.4404 106.157 36.3568 106.091 36.2553C106.82 35.7107 107.447 35.232 108.176 34.6875C108.38 34.5558 108.684 34.3583 108.989 34.1608ZM80.3151 57.3577C81.3108 58.4437 82.3066 59.5298 82.6089 60.993C82.5911 61.0767 82.6928 61.0109 82.6928 61.0109C82.5582 59.5832 81.9028 58.1324 80.907 57.0464C82.1086 56.3399 83.394 55.6513 84.6615 55.0463C84.7454 55.0641 84.7453 55.0641 84.8114 55.1656C85.6268 55.8635 86.0356 56.8249 86.3608 57.7684C86.4751 58.055 86.8639 57.8753 86.7318 57.6723C86.4422 56.5615 85.9494 55.5824 85.1518 54.8007C86.3533 54.0943 87.5371 53.4716 88.6725 52.6637C88.7564 52.6815 88.7385 52.7651 88.8224 52.783C89.5539 53.4631 89.879 54.4065 89.9349 55.3802C89.9654 55.649 90.3184 55.6367 90.3718 55.3857C90.3159 54.412 90.0746 53.4864 89.4447 52.7404C89.3786 52.6389 89.2288 52.5196 89.1628 52.4181C89.7725 52.0231 90.3999 51.5444 91.0274 51.0657C91.477 51.4236 92.0281 51.7156 92.4599 52.1572C93.3236 53.0403 93.9662 54.1386 94.3396 55.2673C94.4056 55.3687 94.5074 55.303 94.5252 55.2193C94.1874 53.9234 93.6284 52.8427 92.8663 51.8938C92.5183 51.47 92.0865 51.0285 91.6369 50.6706C92.1627 50.2578 92.6887 49.8449 93.1485 49.3306C93.311 49.8023 93.6589 50.226 94.294 50.5359C94.294 50.5359 94.294 50.5359 94.3779 50.5537C94.5938 50.7745 94.7259 50.9774 94.9418 51.1982C95.5972 52.6491 96.5089 53.7173 97.5758 54.4687C91.3396 60.3131 84.6233 65.5308 77.757 70.6292C76.2609 67.7754 74.4422 65.2029 72.1636 63.1447C72.4329 63.1145 72.6183 63.0665 72.9232 62.869L73.0247 62.8031C74.4091 63.7095 75.6742 64.7653 76.3117 66.2998C76.36 66.4849 76.7309 66.3889 76.5988 66.186C75.9612 64.6515 74.7317 63.4283 73.3473 62.5219C74.3151 61.6784 75.2652 60.9185 76.2991 60.1765C76.7182 60.2655 77.2034 60.4561 77.6708 60.7304C78.57 61.4461 78.9433 62.5747 78.9814 63.6321C78.9459 63.7994 79.2152 63.7691 79.2508 63.6018C79.2482 62.3772 78.8748 61.2486 78.0112 60.3655C77.7114 60.1269 77.4117 59.8883 77.0103 59.7156C77.9299 58.6869 79.1314 57.9805 80.3151 57.3577ZM25.5686 59.3613C35.3814 52.3535 48.1105 51.824 59.2213 56.0218C67.4871 59.1778 72.1102 66.2812 76.4284 73.582C76.9695 74.7463 77.5107 75.9105 78.034 77.1585C79.8756 82.0967 80.6705 87.4245 80.6933 92.6756C80.7034 103.345 75.9988 114.761 67.5678 121.451C53.0301 132.963 28.2632 126.649 17.1753 113.275C3.65138 96.9353 8.94283 71.2165 25.5686 59.3613Z" fill="#F4774C"/>
<path d="M57.4448 116.326C61.7734 114.099 65.2382 110.988 67.7912 106.809C68.7158 105.344 69.2213 103.79 69.5769 102.117C76.8115 89.9269 72.7575 71.4902 59.1293 65.5331C44.6324 59.129 27.9865 64.0723 20.2464 77.8162C12.7984 91.0102 17.4062 108.078 30.6304 115.523C38.3602 119.964 49.5829 120.339 57.4448 116.326ZM33.9326 114.826C20.246 109.556 15.6815 93.1094 21.425 80.515C27.2041 67.7532 40.9899 63.0764 54.0262 66.4594C72.374 71.2337 73.2653 94.2446 63.9147 107.734C63.7597 108.05 64.1257 108.391 64.4305 108.193C64.5321 108.127 64.5498 108.043 64.6514 107.978C63.5769 109.323 62.3525 110.549 60.9605 111.74C53.6116 117.872 42.5997 118.155 33.9326 114.826Z" fill="#F4774C"/>
<path d="M63.1394 116.312C58.4832 119.257 53.3088 120.518 47.7966 120.483C42.3021 120.365 37.1328 118.304 31.7273 117.767C31.2065 117.744 31.0643 118.413 31.5494 118.604C42.833 122.401 54.523 123.05 64.8515 116.501C74.0624 110.677 77.6644 101.562 76.3258 90.9601C76.3436 90.8765 76.1759 90.8409 76.1404 91.0083C76.8693 102.006 72.3503 110.488 63.1394 116.312Z" fill="#F4774C"/>
<path d="M25.2825 114.299C21.0455 111.562 17.4562 109.487 15.0049 104.944C12.734 100.789 12.3226 95.7178 12.7799 91.0933C13.5217 82.2449 17.7766 73.3561 23.9519 66.9742C41.2711 48.9708 70.0338 62.8666 76.7144 83.7853C76.7804 83.8867 76.882 83.8209 76.8998 83.7372C72.7569 59.9479 41.2407 48.702 23.4337 65.2901C16.0924 72.2112 11.7513 82.7429 11.2152 92.6843C10.6893 101.754 15.3682 112.716 25.0388 115.034C25.5062 115.308 25.6661 114.555 25.2825 114.299Z" fill="#F4774C"/>
</svg>
