<svg width="228" height="191" viewBox="0 0 228 191" fill="none" xmlns="http://www.w3.org/2000/svg">
<path d="M4.93747 57.6918C5.051 58.5245 5.30688 59.1681 5.42041 60.0007C6.18194 63.1198 6.92078 66.0724 7.82466 69.0024C8.72855 71.9325 9.46737 74.885 10.2062 77.8376C10.945 80.7901 11.5188 83.7652 12.2576 86.7177C14.8828 98.573 17.4853 110.262 20.2301 121.761C22.9749 133.261 25.697 144.594 28.5388 155.572C28.8855 156.881 29.2549 158.358 29.6017 159.667C29.9711 161.144 30.5055 162.597 31.5352 163.984C31.7457 164.294 32.1212 164.582 32.3544 165.059C32.7299 165.347 32.9404 165.658 33.3159 165.946C34.067 166.522 34.9377 166.743 35.6434 166.986C37.3848 167.427 38.8703 167.224 40.3559 167.022C45.9225 165.923 50.994 164.893 56.3956 163.817C61.6321 162.764 66.8687 161.711 71.9402 160.68C77.0116 159.649 82.0604 158.452 86.9668 157.444C96.7796 155.427 106.262 153.456 115.438 151.696C147.546 144.265 169.557 139.228 171.845 138.747C172.01 138.724 172.01 138.724 172.01 138.724C172.175 138.702 173.803 138.31 176.421 137.783C177.246 137.671 178.049 137.392 178.874 137.279C183.593 136.127 188.642 134.93 193.503 133.588C195.933 132.918 198.409 132.58 200.982 131.721C202.28 131.374 203.72 130.838 204.927 129.826C206.134 128.813 207.273 127.301 207.376 125.59C207.495 125.235 207.427 124.735 207.547 124.38C207.502 124.047 207.598 123.524 207.553 123.191L207.394 122.026L207.258 121.026C207.076 119.694 206.73 118.384 206.548 117.052C206.02 114.41 205.491 111.768 204.94 108.96C203.718 103.698 202.474 98.2702 201.229 92.8422C199.985 87.4142 199.048 81.7746 197.781 76.1801C196.679 70.563 195.389 64.8019 193.956 59.2299C193.24 56.4439 192.501 53.4913 191.785 50.7053C191.069 47.9193 190.33 44.9667 189.614 42.1807C188.875 39.2282 188.159 36.4421 187.586 33.4671C187.216 31.9908 186.847 30.5145 186.642 29.0158C186.273 27.5395 186.091 26.2072 185.887 24.7085C185.313 21.7334 184.905 18.7358 184.143 15.6167C183.774 14.1405 183.381 12.4977 182.682 11.0664C182.403 10.2562 181.982 9.63513 181.704 8.82498C181.26 8.03733 180.839 7.41622 180.396 6.62857C179.366 5.24231 177.699 4.11262 176.1 3.48251C174.336 2.87491 172.639 2.76689 171.131 2.80291C169.458 2.86143 167.972 3.06398 166.344 3.45556L161.933 4.39627C155.871 5.56203 149.975 6.70528 143.935 8.03757C141.01 8.77573 137.896 9.36986 134.971 10.108C131.88 10.8687 128.977 11.7734 126.051 12.5115C120.695 13.9203 115.151 15.1851 109.772 16.4274L109.584 16.2833L109.419 16.3058C109.419 16.3058 109.254 16.3284 109.067 16.1843L108.902 16.2068C108.902 16.2068 108.736 16.2293 108.571 16.2518C108.406 16.2743 108.406 16.2743 108.241 16.2969L108.076 16.3194C108.076 16.3194 107.746 16.3644 107.604 16.5534C107.461 16.7424 107.319 16.9315 107.177 17.1205C101.303 18.4303 95.5709 19.5511 89.6968 20.8608C83.6577 22.1931 77.4762 23.7145 71.4371 25.0467C61.9543 27.0182 52.614 28.8006 43.1767 31.1051C43.1767 31.1051 43.1767 31.1051 43.0116 31.1276C43.0116 31.1276 43.0116 31.1276 42.8466 31.1501C42.6815 31.1726 42.5392 31.3616 42.3741 31.3841C39.9209 31.8882 37.4904 32.5589 35.0599 33.2295C29.0435 34.7283 23.0497 36.3937 17.0333 37.8925C16.2307 38.1716 15.5705 38.2616 14.7679 38.5406C13.9426 38.6532 13.305 38.9097 12.5024 39.1888C10.8972 39.7469 9.31474 40.4715 7.94272 41.5067C6.59341 42.7085 5.40916 43.8877 4.64586 45.688C3.88255 47.4884 3.96724 49.3427 4.1943 51.0081C4.42136 52.6734 4.79078 54.1496 5.16019 55.6259C4.56807 56.2155 4.65888 56.8817 4.93747 57.6918ZM8.60198 59.9062L8.43692 59.9287C8.13563 58.952 7.9994 57.9528 7.86316 56.9537C7.72693 55.9545 7.42564 54.9778 7.31211 54.1451C7.87541 54.5772 8.4614 55.1758 9.04741 55.7744C12.1425 58.745 14.7651 61.9495 17.5755 65.2982L19.0034 67.139C19.0034 67.139 20.3859 68.6468 21.7684 70.1546C23.1508 71.6623 24.6757 72.9811 24.4879 72.837C24.6757 72.9811 24.8634 73.1251 25.0512 73.2691C25.5342 75.578 25.9944 77.7205 26.4773 80.0294C25.1918 77.9995 23.7866 76.3252 23.7866 76.3252L21.9832 74.1963C18.9623 70.5371 15.6341 67.0895 12.3058 63.6419C11.1338 62.4447 9.96176 61.2475 8.64739 60.2393C8.76704 59.8837 8.60198 59.9062 8.60198 59.9062ZM11.4272 69.529C11.2621 69.5515 11.0743 69.4075 10.9093 69.43C10.5399 67.9537 9.9827 66.3334 9.61329 64.8571C9.82376 65.1677 10.0115 65.3117 10.387 65.5998C13.6926 68.8809 16.8558 72.351 19.8767 76.0102L21.4696 77.8285C21.4696 77.8285 22.8521 79.3363 24.2346 80.8441C25.6171 82.3518 26.9769 83.6931 26.9769 83.6931C27.1646 83.8371 27.3524 83.9811 27.5402 84.1251C28.0458 86.6006 28.5741 89.2426 29.0798 91.7181C27.7943 89.6882 26.4118 88.1804 26.4118 88.1804L24.6084 86.0515C21.0469 82.1268 17.4628 78.0356 14.3738 73.8768C13.3668 72.6571 12.5022 71.2483 11.6376 69.8396C11.6149 69.673 11.4272 69.529 11.4272 69.529ZM13.6148 79.4083L13.4498 79.4308C13.1485 78.4542 13.0122 77.455 12.7109 76.4783C15.7772 80.4705 18.9631 84.1072 22.3368 87.8879L23.9298 89.7062C23.9298 89.7062 25.3122 91.214 26.8598 92.6993C28.2423 94.207 29.602 95.5483 29.4143 95.4043C29.602 95.5483 29.6247 95.7148 29.8125 95.8588C30.2727 98.0012 30.733 100.144 31.1705 102.12C29.464 99.4685 27.0065 96.2414 27.0065 96.2414L25.203 94.1126C22.37 90.5974 19.5369 87.0823 16.7038 83.5671C15.6968 82.3474 14.6672 80.9611 13.8253 79.7189C13.7799 79.3858 13.6148 79.4083 13.6148 79.4083ZM170.453 52.0872C170.476 52.2537 170.476 52.2537 170.641 52.2312C171.101 54.3736 171.704 56.327 172.141 58.3029C173.295 63.0648 174.426 67.6601 175.557 72.2555C177.819 81.4462 179.751 90.6819 181.329 99.7961C181.625 101.961 182.13 104.436 182.778 106.723C183.261 109.032 183.887 111.152 183.994 113.173C184.101 115.194 183.48 116.805 181.943 117.863C180.406 118.92 178.494 119.69 176.371 120.149C167.713 122.008 159.363 123.655 151.036 125.469C146.955 126.365 142.896 127.427 139.003 128.467C135.11 129.507 131.194 130.38 127.278 131.253C119.611 132.977 112.131 134.845 105.102 136.312C78.0196 142.379 60.0899 146.52 60.0899 146.52C60.0899 146.52 58.1546 147.123 56.1966 147.56C54.2386 147.997 52.2805 148.433 52.4456 148.411C52.2805 148.433 52.1155 148.456 51.9504 148.478C51.9504 148.478 51.9504 148.478 51.7854 148.501C51.4552 148.546 51.1251 148.591 50.9828 148.78C50.7723 148.469 50.5845 148.325 50.3968 148.181L50.209 148.037C50.209 148.037 49.7138 148.105 49.1732 147.839C48.4903 147.762 47.5968 147.375 46.6807 146.822L46.4929 146.678L46.3052 146.534C45.9296 146.246 45.7419 146.102 45.3663 145.814C44.7803 145.215 44.3594 144.594 43.9157 143.806C43.4721 143.019 43.1708 142.042 42.8922 141.232C42.1473 139.467 41.7097 137.492 41.1071 135.538C40.067 131.609 39.3797 127.801 38.4592 123.516C37.5615 119.398 36.6637 115.28 35.7432 110.995C33.925 102.592 32.0841 94.0225 30.3628 85.0973C29.4196 80.646 28.4764 76.1947 27.5332 71.7433C27.0503 69.4344 26.425 67.3145 25.9421 65.0056C25.4591 62.6966 24.8111 60.4102 24.3509 58.2678C23.8906 56.1254 23.7605 53.938 24.757 52.6147C25.8959 51.1024 27.7858 50.1663 29.8861 49.5406C31.9865 48.915 34.2747 48.4334 36.5855 48.1183C37.7409 47.9608 39.0387 47.6142 40.1942 47.4567L43.615 46.651C52.7449 44.558 62.273 42.9197 71.733 40.7817C81.2157 38.8103 90.6303 36.3392 100.113 34.3678C104.854 33.3821 109.761 32.3739 114.502 31.3882C119.243 30.4024 124.15 29.3942 128.869 28.242C133.61 27.2563 138.516 26.248 143.258 25.2623C145.711 24.7582 147.999 24.2766 150.452 23.7725C152.905 23.2684 155.194 22.7868 157.504 22.4717C159.98 22.1341 161.984 22.0306 163.013 23.4168C163.599 24.0155 163.923 25.1587 164.39 26.1129C164.714 27.2561 165.038 28.3993 165.362 29.5425C166.515 34.3044 167.504 39.0888 168.493 43.8732C168.976 46.1821 169.624 48.4685 170.129 50.944C170.385 51.5876 170.431 51.9207 170.453 52.0872ZM15.6147 89.1437C15.2907 88.0005 15.1318 86.8347 14.8078 85.6915C17.4531 89.0626 20.1211 92.6003 22.9088 95.7824L24.5017 97.6007C24.5017 97.6007 25.8842 99.1085 27.4318 100.594C28.8142 102.102 30.174 103.443 30.1513 103.276C30.7373 103.875 31.3006 104.307 31.8639 104.739C32.2788 106.548 32.6709 108.191 32.8979 109.856C32.966 110.356 33.0115 110.689 33.2446 111.166C33.0569 111.022 33.0115 110.689 32.8237 110.545C31.1172 107.894 28.4265 104.19 28.4265 104.19L26.623 102.061L18.8006 92.7803L15.6147 89.1437ZM17.6207 97.6908C17.3421 96.8806 17.0635 96.0705 16.95 95.2378L24.1864 103.92L25.7794 105.738C25.7794 105.738 31.4744 111.747 31.2639 111.436C32.0604 112.345 32.9765 112.899 33.5398 113.331C34 115.474 34.4376 117.449 34.8978 119.592C33.3791 117.085 31.6953 114.6 31.6953 114.6L30.0569 112.449C27.2012 108.767 24.1803 105.108 21.1822 101.615L17.9735 97.8123C17.8085 97.8348 17.6207 97.6908 17.6207 97.6908ZM18.7455 103.474C21.7664 107.134 24.7645 110.626 27.6203 114.308L29.0482 116.149C29.0482 116.149 30.4307 117.656 31.8132 119.164C33.1957 120.672 34.4131 122.202 34.3904 122.036C34.7886 122.49 35.3519 122.922 35.7502 123.377C36.2104 125.519 36.6479 127.495 37.1082 129.638C36.2436 128.229 35.4017 126.987 35.4017 126.987L33.7633 124.835C32.1249 122.684 30.5093 120.699 28.7059 118.57C26.9251 116.608 25.2868 114.456 23.6711 112.472C22.6642 111.252 21.7996 109.843 21.1227 108.578L20.935 108.434C20.5821 108.313 20.2293 108.191 20.0642 108.214C19.5071 106.593 19.1149 104.951 18.7455 103.474ZM22.2519 118.093C21.9279 116.95 21.7463 115.618 21.4223 114.474C23.0606 116.626 24.6763 118.611 26.457 120.573C28.0727 122.558 29.8761 124.687 31.5145 126.838L32.9424 128.679C32.9424 128.679 34.3248 130.187 35.7073 131.695C36.902 133.058 37.909 134.278 38.2845 134.566C38.3072 134.733 38.3299 134.899 38.3299 134.899C38.7675 136.875 39.37 138.828 39.9726 140.782L38.3343 138.63C34.4034 133.229 30.5922 127.473 26.3312 122.117C25.3243 120.897 24.2946 119.511 23.1226 118.314L22.9348 118.17C22.417 118.071 22.417 118.071 22.2519 118.093ZM36.0827 164.042C35.0469 163.844 34.2731 163.101 33.6417 162.17C33.0103 161.238 32.4985 159.951 32.1518 158.641C31.8732 157.831 31.7824 157.165 31.5038 156.355C31.7143 156.665 32.1125 157.12 32.323 157.43C33.9614 159.582 35.4574 161.922 35.4574 161.922C35.4574 161.922 37.8241 164.483 37.8014 164.317C37.2835 164.218 36.7656 164.119 36.0827 164.042ZM39.7594 163.88C39.5943 163.903 39.5944 163.903 39.4293 163.925C39.4066 163.759 39.3612 163.426 39.3158 163.092C38.9691 161.783 38.2241 160.018 38.2241 160.018C38.2241 160.018 36.7281 157.678 34.902 155.383C34.0601 154.14 33.0758 153.087 32.4671 152.322C31.6706 151.413 31.2724 150.958 31.2724 150.958L31.1073 150.981C30.9423 151.003 30.6349 151.215 30.4698 151.237C30.1004 149.761 29.7537 148.451 29.3843 146.975C29.407 147.142 29.572 147.119 29.5947 147.286C30.6244 148.672 31.7964 149.869 32.6383 151.111C33.0592 151.732 33.4802 152.353 34.0889 153.119L35.5395 155.126L36.9674 156.967C36.9674 156.967 42.2126 163.376 42.1672 163.043C42.355 163.187 42.3777 163.353 42.5654 163.498C41.41 163.655 40.5847 163.768 39.7594 163.88ZM43.8632 163.151C43.6527 162.84 43.6073 162.507 43.3969 162.197C41.8327 159.357 39.4721 155.608 39.4721 155.608L37.8338 153.456L36.3832 151.449C35.9622 150.828 35.3535 150.063 34.9326 149.441C33.9029 148.055 32.7309 146.858 31.7239 145.638C30.717 144.418 29.71 143.199 29.0105 141.767L28.8227 141.623C28.4699 141.502 28.1171 141.38 27.787 141.425C27.1163 138.972 26.6106 136.497 25.9172 133.878C26.3381 134.499 26.9241 135.097 27.3451 135.718C28.3975 137.271 29.4498 138.824 30.5022 140.377C31.1109 141.142 31.5545 141.93 32.1633 142.695L33.8016 144.846L40.2581 153.974L41.686 155.815C41.686 155.815 43.0912 157.489 44.3087 159.019C45.6911 160.527 46.9086 162.057 46.8859 161.891C47.0736 162.035 47.2841 162.345 47.4719 162.489C46.3164 162.647 45.1837 162.971 43.8632 163.151ZM49.0998 162.098C48.8893 161.787 48.6561 161.31 48.4229 160.833C46.8815 158.159 44.4982 154.244 44.4982 154.244L42.8598 152.092L36.4033 142.965L34.7422 140.647C34.1335 139.882 33.7126 139.26 33.1039 138.495C32.0515 136.943 30.9991 135.39 29.9468 133.837C28.9171 132.451 27.8875 131.064 26.5504 129.89L26.3626 129.746C25.8447 129.647 25.5146 129.692 25.2072 129.903C25.1391 129.404 24.9059 128.927 24.8605 128.594C24.4684 126.951 24.0536 125.141 23.6614 123.499C23.8492 123.643 23.8719 123.809 24.0597 123.953C28.1329 129.165 31.9214 134.755 35.8522 140.156C36.8819 141.542 37.9116 142.929 38.9185 144.148C39.9482 145.535 40.79 146.777 41.8197 148.163L44.7436 152.344L46.6152 154.973C46.6152 154.973 48.0204 156.647 49.4028 158.155C50.7853 159.663 52.3102 160.981 52.3102 160.981C52.4979 161.125 52.6857 161.27 52.8962 161.58C51.3879 161.616 50.2552 161.94 49.0998 162.098ZM54.0062 161.089C53.7957 160.779 53.3975 160.324 52.9992 159.87C52.1573 158.628 50.9399 157.097 50.2631 155.832C49.4212 154.59 48.7898 153.659 48.7898 153.659L47.9479 152.416L47.106 151.174L46.2868 150.098C47.1802 150.486 48.0737 150.873 48.7566 150.949C49.6273 151.17 50.1225 151.102 50.2876 151.08C50.3103 151.246 50.498 151.39 50.498 151.39C50.9417 152.178 51.7382 153.087 52.5573 154.163C53.9852 156.004 55.4131 157.844 55.4131 157.844C55.4131 157.844 55.9764 158.276 56.3747 158.731C56.938 159.163 57.3362 159.618 57.3362 159.618C58.2751 160.338 59.1458 160.558 58.7309 158.749C58.4069 157.606 57.7074 156.175 57.7074 156.175C57.7074 156.175 56.2795 154.334 54.8516 152.493C54.2429 151.728 53.6115 150.796 53.1906 150.175C53.8508 150.085 54.5337 150.161 55.194 150.071C55.2167 150.238 55.6149 150.693 56.2236 151.458C56.8323 152.223 57.6515 153.298 58.6358 154.352C59.455 155.427 60.4165 156.314 61.0252 157.079C61.6339 157.844 62.0322 158.299 62.0322 158.299C62.0322 158.299 62.5955 158.731 63.1815 159.33C60.068 159.924 57.1196 160.495 54.0062 161.089ZM65.4696 158.848C65.1456 157.705 64.4915 156.607 64.4915 156.607C64.4915 156.607 64.0932 156.152 63.4618 155.22C62.8531 154.455 61.8689 153.402 61.0497 152.326C60.2305 151.251 59.434 150.341 58.8253 149.576C59.4856 149.486 60.1458 149.396 60.3109 149.374C60.9196 150.139 62.0916 151.336 63.1212 152.722C64.7142 154.541 66.3299 156.526 66.3299 156.526C66.3299 156.526 66.8932 156.958 67.4792 157.556C67.8547 157.844 68.0652 158.155 68.418 158.276C67.4276 158.411 66.46 158.713 65.4696 158.848ZM70.0459 157.885C70.0232 157.718 70.0005 157.552 69.9778 157.385C69.6538 156.242 68.7665 154.667 68.7665 154.667C68.7665 154.667 67.1508 152.682 65.3701 150.719C64.7614 149.954 64.1527 149.189 63.5667 148.591C63.7317 148.568 63.8968 148.546 64.0619 148.523C64.2496 148.667 64.4601 148.978 64.8583 149.432C65.467 150.197 66.4513 151.251 67.2478 152.16C69.0285 154.122 70.7865 155.918 70.7865 155.918C70.7865 155.918 71.3498 156.35 71.9358 156.949C72.1236 157.093 72.3114 157.237 72.3341 157.403C71.5088 157.516 70.7061 157.795 70.0459 157.885ZM74.2921 156.967C73.9454 155.657 72.893 154.104 72.893 154.104C72.893 154.104 72.4948 153.649 71.721 152.907C71.1123 152.142 70.1508 151.255 69.1665 150.202C68.37 149.293 67.5962 148.55 66.9875 147.785C67.3177 147.74 67.6478 147.695 67.9779 147.65C68.308 147.605 68.6381 147.56 69.1333 147.492C69.3438 147.803 69.5543 148.113 69.9298 148.401C70.5385 149.167 71.3577 150.242 72.3192 151.129C74.0773 152.925 75.6702 154.743 75.6702 154.743C75.6702 154.743 76.2335 155.175 76.7968 155.607C77.0073 155.918 77.3601 156.039 77.5479 156.183C76.5802 156.485 75.4475 156.809 74.2921 156.967ZM79.3635 155.936C79.3408 155.769 79.3181 155.603 79.1304 155.459C78.6413 154.338 77.754 152.763 77.754 152.763C77.754 152.763 75.996 150.967 74.3803 148.982C73.5839 148.073 72.9751 147.308 72.3664 146.543C73.1917 146.43 73.9943 146.151 74.6546 146.061C75.451 146.97 80.7932 152.857 80.7932 152.857C80.7932 152.857 83.0464 154.586 83.0237 154.419C83.3765 154.541 83.7294 154.662 83.9171 154.806C82.477 155.342 81.0141 155.711 79.3635 155.936ZM84.435 154.905C84.5774 154.716 84.697 154.361 84.2534 153.573C83.9294 152.43 83.0875 151.187 83.0875 151.187C83.0875 151.187 79.9243 147.717 78.1208 145.588C78.7811 145.498 79.5837 145.219 80.2439 145.129C80.1016 145.318 80.1243 145.485 80.147 145.651C80.147 145.651 80.147 145.651 80.1697 145.818C80.1697 145.818 80.733 146.25 81.319 146.849C82.0701 147.425 82.8665 148.334 83.663 149.243C85.256 151.061 86.7066 153.069 86.7066 153.069C86.7066 153.069 87.2926 153.667 88.0436 154.243C86.8882 154.401 85.7555 154.725 84.435 154.905ZM90.3318 153.762C90.0078 152.619 89.331 151.354 89.331 151.354C89.331 151.354 88.9327 150.899 88.324 150.134C87.7153 149.369 86.8961 148.293 86.0997 147.384C85.2805 146.309 84.3189 145.422 83.5452 144.679C84.2054 144.589 85.008 144.31 85.6682 144.22C86.2997 145.152 86.9311 146.083 87.7503 147.159C88.5694 148.235 89.3886 149.311 90.1624 150.053C90.7711 150.818 91.1694 151.273 91.1694 151.273C91.1694 151.273 91.7553 151.871 92.3186 152.304C92.9046 152.902 93.468 153.334 93.468 153.334C92.2898 153.325 91.2995 153.46 90.3318 153.762ZM94.743 152.821C94.7203 152.655 94.6749 152.322 94.4871 152.178C94.1404 150.868 93.2531 149.293 93.2531 149.293C93.2531 149.293 92.8549 148.838 92.2235 147.906C91.6148 147.141 90.6305 146.088 89.8113 145.012C89.2253 144.414 88.8044 143.792 88.3835 143.171C89.1861 142.892 90.0114 142.78 90.814 142.501C91.0017 142.645 91.3772 142.933 91.6104 143.41C92.2191 144.175 93.1807 145.062 93.9999 146.137C95.6155 148.122 97.0888 150.296 97.0888 150.296C97.0888 150.296 98.0504 151.183 98.6591 151.948C97.3613 152.295 96.0408 152.475 94.743 152.821ZM100.617 151.511C100.27 150.202 99.5709 148.77 99.5709 148.77C99.5709 148.77 98.0975 146.596 96.2941 144.468C95.4976 143.558 94.7012 142.649 94.0925 141.884C94.8951 141.605 95.5553 141.515 96.3806 141.402C96.2382 141.592 96.261 141.758 96.2837 141.925C96.2837 141.925 96.2837 141.925 96.3064 142.091C96.3064 142.091 96.8697 142.523 97.6207 143.099C98.3718 143.675 99.3561 144.729 100.153 145.638C101.137 146.691 101.933 147.6 102.565 148.532C103.173 149.297 103.594 149.918 103.594 149.918C103.594 149.918 104.158 150.35 104.744 150.949C103.4 150.962 102.103 151.309 100.617 151.511ZM107.174 150.278C106.685 149.157 106.031 148.059 106.031 148.059C106.031 148.059 105.61 147.438 105.001 146.673C104.393 145.908 103.386 144.688 102.401 143.635C101.417 142.582 100.433 141.528 99.4941 140.808L99.3063 140.664C100.132 140.552 101.099 140.25 101.925 140.138C101.947 140.304 101.947 140.304 102.135 140.448C102.601 141.402 103.443 142.645 104.262 143.72C105.082 144.796 106.066 145.849 106.652 146.448C107.261 147.213 107.659 147.668 107.659 147.668C107.659 147.668 108.222 148.1 108.808 148.698C109.371 149.13 109.957 149.729 109.935 149.562C109.935 149.562 109.935 149.562 110.123 149.706C109.132 149.841 108.142 149.977 107.174 150.278ZM111.585 149.337C111.563 149.171 111.517 148.838 111.307 148.527C110.96 147.217 109.908 145.665 109.908 145.665C109.908 145.665 109.509 145.21 108.736 144.467C108.127 143.702 107.165 142.816 106.346 141.74C105.738 140.975 105.106 140.043 104.685 139.422C105.51 139.31 106.313 139.03 106.973 138.94C107.184 139.251 107.372 139.395 107.605 139.872C108.213 140.637 109.198 141.69 110.017 142.766C111.798 144.729 113.601 146.857 113.601 146.857C113.601 146.857 114.938 148.032 115.666 148.442C114.534 148.766 113.048 148.968 111.585 149.337ZM117.955 147.96C117.932 147.794 117.932 147.794 117.744 147.65C117.232 146.362 116.345 144.787 116.345 144.787C116.345 144.787 114.564 142.825 112.761 140.696C111.964 139.787 111.168 138.877 110.559 138.112C111.219 138.022 111.857 137.766 112.682 137.653C112.893 137.964 112.938 138.297 113.314 138.585C113.945 139.517 114.742 140.426 115.538 141.335C117.131 143.153 118.889 144.949 118.889 144.949C118.889 144.949 121.307 146.655 121.12 146.511C121.495 146.799 121.848 146.92 122.178 146.875C120.573 147.433 119.275 147.78 117.955 147.96ZM123.851 146.817C123.356 146.884 122.861 146.952 122.389 147.186C122.531 146.997 122.651 146.641 122.207 145.854C121.718 144.733 120.853 143.324 120.853 143.324C120.853 143.324 119.095 141.528 117.525 139.877C116.728 138.967 115.932 138.058 115.511 137.437C115.511 137.437 115.511 137.437 115.488 137.271C116.149 137.181 116.951 136.902 117.611 136.811C117.469 137.001 117.349 137.356 117.349 137.356C117.349 137.356 117.349 137.356 117.372 137.523C117.372 137.523 117.935 137.955 118.521 138.553C119.107 139.152 120.069 140.039 120.678 140.804C122.271 142.622 123.699 144.463 123.699 144.463C123.699 144.463 125.832 146.547 125.809 146.38L125.997 146.524C125.479 146.425 124.654 146.538 123.851 146.817ZM127.437 145.989C127.415 145.822 127.369 145.489 127.324 145.156C127 144.013 126.3 142.582 126.3 142.582C126.3 142.582 124.85 140.574 123.092 138.778C122.295 137.869 121.334 136.983 120.56 136.24L120.372 136.096C120.702 136.051 120.867 136.028 121.032 136.006C121.528 135.938 121.858 135.893 122.33 135.659C122.353 135.826 122.376 135.992 122.376 135.992C122.376 135.992 122.376 135.992 122.398 136.159C122.398 136.159 122.563 136.136 122.751 136.28C122.939 136.424 123.292 136.546 123.667 136.834C124.396 137.244 125.522 138.108 126.484 138.994C127.445 139.881 128.407 140.768 129.015 141.533C129.624 142.298 130.187 142.73 130.187 142.73C130.187 142.73 130.773 143.329 131.502 143.738C132.088 144.337 132.816 144.746 132.816 144.746L133.004 144.89C131.166 144.971 129.395 145.552 127.437 145.989ZM134.279 144.377C134.256 144.211 134.211 143.878 134 143.567C133.489 142.28 132.601 140.705 132.601 140.705C132.601 140.705 132.18 140.084 131.407 139.341C130.633 138.598 129.814 137.523 128.664 136.492C127.891 135.749 127.14 135.173 126.389 134.597C127.379 134.462 128.181 134.183 129.172 134.048C129.382 134.358 129.593 134.669 129.991 135.124C130.622 136.055 131.607 137.108 132.591 138.162C133.575 139.215 134.537 140.102 135.288 140.678C136.062 141.42 136.625 141.852 136.625 141.852C136.625 141.852 138.457 142.96 139.185 143.369C137.37 143.617 135.907 143.986 134.279 144.377ZM140.626 142.833C140.603 142.667 140.392 142.356 140.182 142.046C139.528 140.948 138.333 139.584 138.333 139.584C138.333 139.584 137.77 139.152 136.996 138.409C136.222 137.667 135.261 136.78 134.299 135.893C133.338 135.007 132.518 133.931 131.91 133.166C132.24 133.121 132.57 133.076 132.877 132.864C133.208 132.819 133.538 132.774 133.845 132.563C134.056 132.873 134.289 133.35 134.687 133.805C135.318 134.736 136.468 135.767 137.452 136.82C138.436 137.874 139.563 138.738 140.337 139.48C141.11 140.223 141.674 140.655 141.674 140.655C141.674 140.655 142.402 141.065 143.13 141.474C143.318 141.618 143.671 141.74 143.859 141.884C142.749 142.374 141.758 142.509 140.626 142.833ZM145.839 141.614C145.817 141.447 145.817 141.447 145.629 141.303C144.952 140.038 143.757 138.675 143.757 138.675C143.757 138.675 143.194 138.243 142.42 137.5C141.647 136.757 140.685 135.871 139.558 135.007C138.597 134.12 137.613 133.067 137.004 132.302C137.004 132.302 136.981 132.135 136.816 132.157C137.476 132.067 138.114 131.811 138.939 131.698C139.127 131.842 139.36 132.32 139.758 132.774C140.344 133.373 141.141 134.282 141.915 135.025C143.485 136.676 145.198 138.139 145.198 138.139C145.198 138.139 145.761 138.571 146.301 138.837C146.865 139.269 147.405 139.534 147.405 139.534C148.321 140.088 149.335 140.119 148.59 138.355C148.101 137.234 147.259 135.992 147.259 135.992C147.259 135.992 145.711 134.507 143.976 132.878C143.202 132.135 142.593 131.37 142.007 130.771C142.645 130.515 143.47 130.402 144.13 130.312C144.13 130.312 144.551 130.933 145.16 131.698C145.769 132.464 146.588 133.539 147.549 134.426C149.33 136.388 151.231 137.995 151.231 137.995C151.231 137.995 151.794 138.427 152.522 138.837C153.251 139.246 153.814 139.678 153.791 139.512C153.791 139.512 153.956 139.489 153.979 139.656C151.714 140.304 148.93 140.853 145.839 141.614ZM155.607 139.264C155.584 139.098 155.374 138.787 155.14 138.31C154.486 137.212 153.622 135.803 153.622 135.803C153.622 135.803 151.721 134.196 150.106 132.211C149.309 131.302 148.513 130.393 147.904 129.628C147.881 129.461 147.716 129.484 147.694 129.317C148.189 129.25 148.661 129.016 149.322 128.926C149.322 128.926 149.908 129.524 150.516 130.29C151.29 131.032 152.274 132.085 153.093 133.161C155.062 135.267 157.008 137.207 157.008 137.207C157.008 137.207 157.759 137.783 158.322 138.216C158.51 138.36 158.51 138.36 158.698 138.504C157.73 138.805 156.762 139.107 155.607 139.264ZM160.821 138.044C160.144 136.78 159.091 135.227 159.091 135.227C159.091 135.227 157.146 133.287 155.177 131.181C154.193 130.128 153.209 129.074 152.435 128.332C153.403 128.03 154.393 127.895 155.548 127.738C155.406 127.927 155.429 128.093 155.286 128.282C155.286 128.282 155.286 128.282 155.309 128.449C155.309 128.449 155.895 129.047 156.504 129.812C157.278 130.555 158.239 131.442 159.223 132.495C161.146 134.268 163.235 136.019 163.235 136.019C163.235 136.019 164.526 136.861 165.255 137.27C164.076 137.261 162.449 137.653 160.821 138.044ZM167.167 136.501C167.145 136.334 166.957 136.19 166.934 136.024C166.28 134.925 165.228 133.373 165.228 133.373C165.228 133.373 163.139 131.622 161.194 129.682C160.232 128.795 159.271 127.909 158.497 127.166C158.309 127.022 158.286 126.855 158.099 126.711C158.429 126.666 158.924 126.599 159.254 126.554C159.277 126.72 159.277 126.72 159.277 126.72L159.299 126.887C159.299 126.887 160.005 127.13 160.756 127.706C161.672 128.26 162.776 128.957 163.76 130.01C164.887 130.875 165.871 131.928 166.645 132.67C167.419 133.413 168.005 134.012 168.005 134.012C168.005 134.012 168.756 134.588 169.484 134.997C169.86 135.285 170.047 135.429 170.4 135.551C169.951 135.951 168.818 136.276 167.167 136.501ZM179.741 133.769C178.278 134.138 176.98 134.484 175.495 134.687C174.504 134.822 173.702 135.101 173.041 135.191C172.876 135.213 172.711 135.236 172.546 135.258C172.523 135.092 172.336 134.948 172.313 134.781C171.636 133.517 170.419 131.986 170.419 131.986C170.419 131.986 169.833 131.388 169.059 130.645C168.285 129.902 167.136 128.872 165.987 127.841C165.213 127.098 164.274 126.378 163.358 125.825C163.853 125.757 164.513 125.667 164.986 125.433C165.196 125.744 165.407 126.054 165.782 126.342C166.391 127.107 167.352 127.994 168.314 128.881C170.237 130.654 171.995 132.45 171.995 132.45L174.578 134.133C175.66 134.664 176.695 134.862 175.763 132.954C175.274 131.833 174.244 130.447 174.244 130.447C174.244 130.447 172.321 128.674 170.563 126.878C169.789 126.135 169.015 125.393 168.429 124.794C169.09 124.704 169.892 124.425 170.552 124.335C170.74 124.479 170.928 124.623 171.138 124.933C171.889 125.51 172.686 126.419 173.647 127.305C174.609 128.192 175.383 128.935 176.157 129.677C176.743 130.276 177.141 130.73 177.141 130.73C177.141 130.73 177.704 131.163 178.267 131.595C178.831 132.027 179.394 132.459 179.394 132.459C180.333 133.179 181.369 133.377 180.601 131.446C180.277 130.303 179.225 128.75 179.225 128.75C179.225 128.75 178.826 128.296 178.053 127.553C177.444 126.788 176.482 125.901 175.543 125.181C174.98 124.749 174.394 124.15 173.996 123.696C174.821 123.583 175.624 123.304 176.449 123.192C176.637 123.336 177.012 123.624 177.388 123.912C178.139 124.488 179.123 125.541 180.085 126.428C181.069 127.481 182.053 128.534 182.662 129.299C183.436 130.042 183.857 130.663 183.857 130.663C183.857 130.663 184.608 131.239 185.171 131.671C185.359 131.815 185.734 132.103 185.922 132.247C183.987 132.85 181.864 133.309 179.741 133.769ZM190.641 131.095C189.838 131.374 188.848 131.509 188.045 131.788C188.023 131.622 188.023 131.622 187.835 131.478C187.158 130.213 186.106 128.66 186.106 128.66C186.106 128.66 185.707 128.205 184.911 127.296C184.137 126.554 183.153 125.5 182.169 124.447C181.395 123.705 180.621 122.962 179.847 122.219C180.65 121.94 181.452 121.661 182.375 121.027C182.563 121.171 182.728 121.148 182.915 121.292C183.831 121.846 184.981 122.876 186.13 123.907C187.279 124.938 188.264 125.991 189.225 126.878C190.022 127.787 190.585 128.219 190.585 128.219C190.585 128.219 191.336 128.795 192.087 129.371C192.463 129.659 192.838 129.947 193.214 130.235C192.434 130.681 191.443 130.816 190.641 131.095ZM195.029 129.988C195.007 129.821 194.819 129.677 194.796 129.511C194.119 128.246 192.879 126.549 192.879 126.549C192.879 126.549 192.293 125.95 191.519 125.208C190.723 124.299 189.574 123.268 188.402 122.071C187.252 121.04 186.126 120.176 185.187 119.456C185.494 119.244 185.614 118.889 185.921 118.677L186.064 118.488C186.251 118.632 186.252 118.632 186.439 118.776L186.792 118.898L186.98 119.042L187.378 119.496L189.278 121.103L190.803 122.422L192.681 123.862C192.681 123.862 194.371 125.158 196.038 126.288C197.705 127.418 199.538 128.525 199.35 128.381C199.725 128.669 200.243 128.768 200.619 129.056C198.45 129.182 196.822 129.574 195.029 129.988ZM203.909 126.063C203.528 126.963 202.771 127.575 201.661 128.066C201.496 128.088 201.496 128.088 201.33 128.111C200.955 127.823 200.534 127.202 199.783 126.626C197.484 124.564 194.201 121.45 194.201 121.45L192.113 119.699L190.589 118.38L188.688 116.773L188.29 116.319L188.102 116.175L187.914 116.031L187.727 115.887C187.539 115.743 187.163 115.455 186.953 115.144L186.788 115.166C186.885 114.644 186.982 114.122 186.891 113.456C187.454 113.888 187.852 114.343 188.416 114.775C190.128 116.238 191.983 117.511 194.003 118.763L196.023 120.014C196.023 120.014 197.833 120.955 199.665 122.062C201.475 123.002 203.119 123.966 202.954 123.988C203.495 124.254 203.87 124.542 204.388 124.641C204.149 125.352 204.029 125.707 203.909 126.063ZM203.639 119.145L203.911 121.144C204.002 121.81 204.093 122.476 204.161 122.975C204.184 123.142 204.184 123.142 204.206 123.308C204.019 123.164 203.996 122.998 203.808 122.854C202.659 121.823 201.134 120.504 199.842 119.663C198.528 118.655 197.777 118.078 197.777 118.078L195.546 116.517C193.691 115.243 192.024 114.113 190.312 112.65C189.162 111.62 188.013 110.589 187.006 109.369L186.818 109.225C186.653 109.248 186.466 109.104 186.3 109.126C186.164 108.127 185.863 107.15 185.562 106.174C185.749 106.318 185.937 106.462 186.125 106.606C188.589 108.645 191.03 110.517 193.613 112.2L195.633 113.452C195.633 113.452 197.465 114.559 199.11 115.522C200.919 116.463 202.586 117.592 202.399 117.448C202.751 117.57 203.127 117.858 203.315 118.002C203.571 118.646 203.593 118.812 203.639 119.145ZM202.929 115.171C202.974 115.504 203.02 115.837 203.065 116.17C201.916 115.139 200.766 114.109 199.64 113.245C198.325 112.236 197.574 111.66 197.574 111.66L195.344 110.098C192.761 108.415 190.342 106.709 188.044 104.648C186.894 103.617 185.745 102.587 184.573 101.389C184.573 101.389 184.573 101.389 184.408 101.412C184.272 100.413 184.158 99.5801 183.857 98.6034L183.834 98.4369L183.977 98.2478L184.426 97.8472C184.569 97.6582 184.569 97.6582 184.734 97.6357L184.899 97.6132L184.067 98.9139L186.298 100.476L192.449 104.896L194.326 106.336C194.326 106.336 195.994 107.465 197.826 108.573C199.493 109.702 201.16 110.832 200.973 110.688C201.325 110.81 201.536 111.12 201.889 111.242C202.355 112.196 202.724 113.672 202.929 115.171ZM201.156 107.101C201.201 107.434 201.269 107.934 201.48 108.244C199.346 106.16 196.507 103.833 196.507 103.833L194.277 102.272L188.126 97.8517L186.083 96.434L185.895 96.2899L185.708 96.1459L185.52 96.0019L184.979 95.7363L184.063 95.1827L183.898 95.2052C183.733 95.2277 183.733 95.2277 183.568 95.2502C183.454 94.4176 183.176 93.6074 183.062 92.7748C183.978 93.3284 184.894 93.882 185.833 94.6021C187.313 95.5878 188.815 96.74 190.129 97.7482L192.007 99.1884C192.007 99.1884 193.674 100.318 195.341 101.448C197.009 102.578 198.841 103.685 198.653 103.541C199.381 103.95 199.922 104.216 200.463 104.481C200.718 105.125 201.02 106.102 201.156 107.101ZM200.145 102.15C199.957 102.006 199.957 102.006 199.769 101.862C197.072 99.3459 194.188 96.6859 194.188 96.6859L191.934 94.9576C190.432 93.8054 188.93 92.6532 187.451 91.6675C186.136 90.6594 184.68 89.8402 183.223 89.0211C183.223 89.0211 183.058 89.0436 182.893 89.0661C182.728 89.0886 182.563 89.1111 182.398 89.1336C182.261 88.1344 181.96 87.1578 181.801 85.992C182.53 86.4016 183.258 86.8112 183.821 87.2432C185.864 88.661 187.884 89.9122 189.949 91.4965L191.827 92.9368C191.827 92.9368 193.659 94.044 195.327 95.1737C196.994 96.3034 198.803 97.244 198.615 97.1C198.781 97.0775 198.803 97.244 198.968 97.2215C199.36 98.8643 199.753 100.507 200.145 102.15ZM198.44 94.5795C196.329 92.6622 193.865 90.6233 193.865 90.6233L191.635 89.0615C189.592 87.6438 187.549 86.226 185.507 84.8083C184.756 84.2322 184.05 83.9891 183.322 83.5796C182.593 83.17 182.03 82.7379 181.632 82.2833L181.467 82.3058C181.302 82.3283 181.137 82.3508 180.972 82.3733C180.67 81.3966 180.534 80.3975 180.233 79.4208C180.608 79.7088 181.006 80.1634 181.382 80.4515C183.117 82.0808 184.995 83.521 187.038 84.9388L188.915 86.379C188.915 86.379 190.748 87.4862 192.392 88.4494C194.224 89.5566 195.869 90.5198 195.681 90.3758C196.409 90.7853 197.115 91.0284 197.656 91.2939C197.815 92.4596 198.139 93.6029 198.44 94.5795ZM196.275 84.8667C196.667 86.5095 196.894 88.1748 197.264 89.6511C197.076 89.5071 196.888 89.3631 196.7 89.219C195.551 88.1883 194.026 86.8696 192.9 86.0054C191.75 84.9748 190.834 84.4212 190.834 84.4212L188.604 82.8594C186.726 81.4191 184.848 79.9789 183.301 78.4936C182.151 77.4629 180.979 76.2657 179.972 75.046L179.785 74.9019C179.597 74.7579 179.267 74.8029 179.102 74.8254C178.755 73.5157 178.596 72.35 178.249 71.0402C178.813 71.4723 179.518 71.7153 180.082 72.1474C180.81 72.557 181.373 72.9891 181.959 73.5877L183.86 75.1945L187.683 78.5746L189.418 80.2039C189.418 80.2039 191.108 81.5001 192.776 82.6298C194.465 83.9261 196.11 84.8892 195.922 84.7452C196.087 84.7227 196.087 84.7227 196.275 84.8667ZM195.724 82.0582C193.59 79.9743 191.622 77.8679 191.622 77.8679L189.534 76.1171C188.197 74.9424 187.047 73.9117 185.71 72.737L183.81 71.1302C183.059 70.5541 182.308 69.978 181.579 69.5684C180.123 68.7493 178.831 67.9076 177.682 66.8769L177.517 66.8995C177.352 66.922 177.352 66.922 177.352 66.922C176.982 65.4457 176.613 63.9694 176.243 62.4931C176.784 62.7587 177.182 63.2133 177.723 63.4788C180.352 65.4952 182.98 67.5115 185.632 69.6944L187.509 71.1347C187.509 71.1347 194.224 75.9866 194.036 75.8425C194.224 75.9866 194.576 76.1081 194.787 76.4186C195.037 78.2505 195.286 80.0823 195.724 82.0582ZM192.872 68.5377C193.264 70.1805 193.679 71.9898 193.906 73.6551C191.937 71.5487 189.428 69.1768 189.428 69.1768L187.34 67.426C184.689 65.2431 182.037 63.0602 179.243 61.0663C177.929 60.0582 176.615 59.05 175.158 58.2308L174.993 58.2533C174.714 57.4432 174.578 56.444 174.299 55.6338L174.487 55.7779L183.102 62.2365L184.979 63.6768C184.979 63.6768 191.836 68.3396 191.625 68.0291C192.143 68.1281 192.496 68.2496 192.872 68.5377ZM191.167 60.9672C191.559 62.6101 191.974 64.4194 192.366 66.0622C190.21 63.8118 187.16 61.1743 187.16 61.1743L184.93 59.6125L176.292 52.9873L174.415 51.5471L174.227 51.403C174.039 51.259 174.227 51.4031 174.039 51.259L173.476 50.8269L173.288 50.6829C173.197 50.0168 172.941 49.3732 172.851 48.7071C172.76 48.0409 172.481 47.2308 172.39 46.5646C172.578 46.7087 172.954 46.9967 173.141 47.1408C176.311 49.4227 179.338 51.8936 182.365 54.3646L184.077 55.8273C184.077 55.8273 185.767 57.1235 187.434 58.2533C189.102 59.383 190.769 60.5127 190.604 60.5352C190.814 60.8457 191.002 60.9897 191.167 60.9672ZM189.064 52.9422C189.411 54.252 189.757 55.5617 190.081 56.7049C190.15 57.2045 190.383 57.6816 190.474 58.3478C188.505 56.2414 186.184 54.0135 186.184 54.0135L184.096 52.2626C181.046 49.6252 178.019 47.1542 174.685 44.8948C173.558 44.0307 172.454 43.333 171.185 42.6579C170.816 41.1816 170.611 39.6829 170.242 38.2066L170.993 38.7827L180.284 46.5061L181.997 47.9689C181.997 47.9689 183.687 49.2651 185.189 50.4173C186.856 51.547 188.381 52.8657 188.193 52.7217C188.689 52.6542 188.876 52.7982 189.064 52.9422ZM188.28 49.6566C186.499 47.6943 184.388 45.7769 184.388 45.7769L182.3 44.0261L173.009 36.3027L169.396 33.2332C169.094 32.2565 168.935 31.0908 168.634 30.1141C169.01 30.4021 169.363 30.5236 169.573 30.8342C171.804 32.396 174.057 34.1243 176.333 36.0191L178.045 37.4819C178.045 37.4819 179.735 38.7781 181.237 39.9303C182.927 41.2266 184.429 42.3788 184.242 42.2348C185.158 42.7884 185.909 43.3645 186.449 43.63C187.217 45.5609 187.677 47.7033 188.28 49.6566ZM175 6.51608C176.246 7.02467 177.185 7.74481 177.839 8.84302C178.493 9.94122 179.193 11.3725 179.705 12.6597C179.983 13.4699 180.285 14.4466 180.563 15.2567L180.541 15.0902C179.864 13.8254 178.458 12.1511 178.458 12.1511C178.458 12.1511 176.16 10.0898 173.696 8.05089C172.757 7.33076 171.984 6.58812 171.21 5.84549C172.553 5.83198 173.919 5.98499 175 6.51608ZM157.743 8.19052C158.403 8.1005 159.041 7.84394 159.866 7.73141C161.368 8.88362 162.967 9.51373 164.259 10.3554C164.612 10.4769 164.799 10.6209 165.175 10.909L165.551 11.197L165.926 11.4851L167.616 12.7813C168.743 13.6455 169.869 14.5096 171.019 15.5403L172.731 17.0031C172.731 17.0031 174.421 18.2993 175.946 19.6181C177.471 20.9368 178.996 22.2555 178.973 22.089C181.602 24.1054 183.434 25.2126 180.18 21.0763C179.173 19.8566 177.955 18.3263 176.948 17.1066C175.941 15.8868 175.168 15.1442 175.168 15.1442L173.08 13.3934C171.93 12.3627 170.804 11.4985 169.677 10.6344C169.114 10.2023 168.55 9.77024 167.799 9.19413L167.424 8.90609L166.883 8.64055C166.53 8.51903 166.155 8.23097 165.802 8.10945C165.262 7.8439 164.721 7.57836 164.18 7.31281C165.171 7.17778 165.973 6.89871 166.964 6.76368L167.129 6.74118C167.316 6.8852 167.88 7.31729 168.631 7.89339C169.57 8.61352 170.719 9.64421 171.868 10.6749C174.167 12.7363 176.466 14.7976 176.466 14.7976C176.466 14.7976 179.447 16.9355 179.424 16.769C180.153 17.1786 180.858 17.4216 181.001 17.2326C181.37 18.7088 181.597 20.3742 181.967 21.8504C182.54 24.8255 182.949 27.8231 183.711 30.9421C183.756 31.2752 183.779 31.4417 183.824 31.7748C183.636 31.6308 183.426 31.3202 183.238 31.1762C181.082 28.9258 177.799 25.8112 177.799 25.8112L175.711 24.0604C172.872 21.7335 170.01 19.24 167.171 16.9131C165.668 15.7609 164.331 14.5862 162.829 13.434C162.078 12.8579 161.327 12.2818 160.576 11.7057L158.18 10.1664C157.64 9.90083 157.077 9.46877 156.536 9.20322C156.94 8.46958 157.27 8.42457 157.743 8.19052ZM152.506 9.24374C153.843 10.4185 155.112 11.0936 156.404 11.9352L158.777 13.308C159.528 13.8841 160.256 14.2936 161.007 14.8698C162.51 16.022 163.847 17.1967 165.349 18.3489C168.188 20.6758 171.05 23.1693 173.889 25.4962L175.602 26.9589C175.602 26.9589 177.292 28.2552 178.959 29.3849C180.626 30.5146 182.293 31.6443 182.105 31.5003C182.856 32.0764 183.585 32.4859 184.291 32.729C184.751 34.8714 185.188 36.8472 185.814 38.9671C185.927 39.7998 186.183 40.4434 186.462 41.2536C186.274 41.1095 186.063 40.799 185.876 40.6549C183.862 38.2155 180.579 35.1009 180.579 35.1009L178.491 33.3501C176.237 31.6218 173.962 29.727 171.566 28.1877C170.274 27.346 169.148 26.4819 167.856 25.6402C167.578 24.8301 167.276 23.8534 166.81 22.8992C166.389 22.2781 165.968 21.657 165.382 21.0584C164.796 20.4598 164.068 20.0502 163.197 19.8297C162.491 19.5866 161.643 19.5326 160.96 19.4561C159.976 18.4029 158.827 17.3722 157.888 16.6521C156.739 15.6214 155.965 14.8788 155.965 14.8788L153.734 13.317L152.42 12.3088C151.481 11.5887 150.52 10.702 149.558 9.81537C150.218 9.72535 151.374 9.56781 152.506 9.24374ZM146.137 10.6211C146.16 10.7876 146.205 11.1206 146.228 11.2872C146.251 11.4537 146.251 11.4537 146.251 11.4537C147.423 12.6509 148.737 13.6591 150.051 14.6673L151.366 15.6755L153.243 17.1157C153.243 17.1157 154.911 18.2454 156.743 19.3526C156.931 19.4967 157.283 19.6182 157.471 19.7622C156.481 19.8972 155.656 20.0098 154.665 20.1448C154.335 20.1898 154.005 20.2348 153.675 20.2798C152.833 19.0376 151.638 17.6738 151.638 17.6738C151.638 17.6738 146.853 13.4071 143.969 10.7471C144.839 10.9676 145.477 10.7111 146.137 10.6211ZM139.603 12.0209C139.933 11.9758 140.263 11.9308 140.57 11.7193C142.471 13.3261 149.742 19.7983 149.742 19.7983C149.742 19.7983 150.493 20.3744 151.409 20.928C150.277 21.252 149.121 21.4096 147.966 21.5671C147.147 20.4914 146.327 19.4157 146.327 19.4157C146.327 19.4157 143.841 17.2103 141.52 14.9824C140.37 13.9517 139.386 12.8985 138.447 12.1784C138.8 12.2999 139.13 12.2549 139.603 12.0209ZM135.049 13.1506C135.26 13.4612 135.635 13.7492 136.199 14.1813C137.16 15.0679 138.309 16.0986 139.481 17.2958C141.968 19.5012 144.266 21.5626 144.266 21.5626C144.266 21.5626 144.642 21.8507 145.205 22.2827C143.885 22.4628 142.587 22.8094 141.289 23.1559C141.266 22.9894 141.198 22.4898 140.965 22.0127C140.453 20.7255 139.259 19.3617 139.259 19.3617C139.259 19.3617 137.336 17.5884 135.225 15.6711C134.451 14.9284 133.7 14.3523 133.114 13.7537C133.751 13.4972 134.412 13.4071 135.049 13.1506ZM130.023 14.5144C130.211 14.6584 130.399 14.8024 130.609 15.113C131.383 15.8556 132.367 16.9088 133.329 17.7955C135.252 19.5688 137.175 21.3421 137.175 21.3421C137.175 21.3421 137.738 21.7742 138.467 22.1838C139.03 22.6159 139.758 23.0254 139.758 23.0254C139.946 23.1694 140.111 23.1469 140.134 23.3135C138.341 23.7276 136.548 24.1417 134.567 24.4117C134.544 24.2452 134.379 24.2677 134.357 24.1012C133.68 22.8364 132.485 21.4727 132.485 21.4727C132.485 21.4727 130.374 19.5553 128.263 17.638C127.49 16.8953 126.881 16.1302 126.295 15.5316C127.593 15.185 128.725 14.861 130.023 14.5144ZM123.227 16.4588C123.25 16.6253 123.415 16.6028 123.437 16.7693C124.234 17.6785 125.218 18.7317 126.202 19.7849C127.187 20.8381 128.313 21.7022 129.087 22.4449C129.861 23.1875 130.424 23.6196 130.424 23.6196C130.424 23.6196 131.716 24.4612 132.632 25.0148C131.972 25.1049 131.169 25.3839 130.509 25.4739C129.832 24.2092 128.637 22.8455 128.637 22.8455C128.637 22.8455 126.504 20.7616 124.228 18.8667C123.454 18.1241 122.515 17.404 121.764 16.8279C122.236 16.5938 122.732 16.5263 123.227 16.4588ZM118.013 17.6785C118.201 17.8226 118.741 18.0881 119.305 18.5202C120.221 19.0738 121.37 20.1045 122.332 20.9912C124.443 22.9085 126.553 24.8258 126.553 24.8258C126.553 24.8258 127.304 25.402 128.221 25.9555C127.395 26.0681 126.593 26.3471 125.767 26.4597C125.113 25.3615 124.271 24.1192 124.271 24.1192C124.271 24.1192 122.138 22.0353 119.839 19.974C119.065 19.2313 118.127 18.5112 117.353 17.7686C117.353 17.7686 117.683 17.7236 118.013 17.6785ZM113.437 18.6418C113.625 18.7858 114 19.0738 114.398 19.5284C115.337 20.2486 116.464 21.1127 117.448 22.1659C119.724 24.0608 121.692 26.1671 121.692 26.1671C121.692 26.1671 122.256 26.5992 122.819 27.0313C121.686 27.3554 120.531 27.5129 119.563 27.8145C118.886 26.5497 117.669 25.0194 117.669 25.0194C115.723 23.0796 113.92 20.9507 111.666 19.2224C112.469 18.9433 112.964 18.8758 113.437 18.6418ZM108.223 19.8615C110.852 21.8779 113.196 24.2723 115.727 26.8108C115.727 26.8108 116.479 27.3869 117.23 27.963C117.417 28.107 117.417 28.107 117.605 28.251C116.142 28.6201 114.822 28.8002 113.359 29.1692C113.336 29.0027 113.126 28.6922 112.728 28.2376C112.073 27.1394 111.066 25.9196 111.066 25.9196C111.066 25.9196 110.503 25.4876 109.917 24.889C109.143 24.1463 108.347 23.2372 107.385 22.3505C106.799 21.7519 106.213 21.1533 105.627 20.5547C106.43 20.2756 107.398 19.974 108.223 19.8615ZM102.019 21.2163C102.206 21.3603 102.394 21.5044 102.605 21.8149C103.356 22.391 104.175 23.4667 105.137 24.3534C106.098 25.2401 107.082 26.2933 107.668 26.8919C108.442 27.6345 108.84 28.0891 108.84 28.0891C108.84 28.0891 109.569 28.4986 110.297 28.9082C110.838 29.1738 111.213 29.4618 111.566 29.5833C110.103 29.9524 108.453 30.1775 106.99 30.5466C106.336 29.4483 105.329 28.2286 105.329 28.2286C105.329 28.2286 103.218 26.3113 100.942 24.4164C99.9803 23.5298 99.0188 22.6431 98.245 21.9005C99.5655 21.7204 100.863 21.3739 102.019 21.2163ZM94.9892 22.6836C95.1997 22.9942 95.5979 23.4488 95.9962 23.9034C96.7699 24.646 97.9192 25.6767 98.9035 26.7299C101.014 28.6472 103.29 30.5421 103.29 30.5421C103.29 30.5421 103.831 30.8076 104.394 31.2397C104.229 31.2622 104.064 31.2847 103.899 31.3072C102.909 31.4422 101.941 31.7438 101.116 31.8563C100.627 30.7356 99.5969 29.3494 99.5969 29.3494C99.5969 29.3494 97.8389 27.5535 96.0809 25.7577C95.2844 24.8485 94.3229 23.9619 93.9019 23.3408C93.9019 23.3408 93.8792 23.1742 93.7141 23.1967C93.9988 22.8187 94.494 22.7512 94.9892 22.6836ZM90.4129 23.6469C90.6234 23.9574 90.8566 24.4345 91.2548 24.8891C91.8635 25.6542 92.8478 26.7074 93.6443 27.6166C95.4023 29.4124 97.1376 31.0417 97.1376 31.0417C97.1376 31.0417 97.7009 31.4738 98.4292 31.8834L98.617 32.0274C97.4616 32.1849 96.4939 32.4865 95.3385 32.644C95.0145 31.5008 94.315 30.0695 94.315 30.0695C94.315 30.0695 92.6766 27.9181 90.8959 25.9558C90.1221 25.2132 89.3483 24.4705 88.7623 23.8719C89.4226 23.7819 89.9177 23.7144 90.4129 23.6469ZM84.3738 24.9791C84.5389 24.9566 84.869 24.9116 85.034 24.8891C85.034 24.8891 85.034 24.8891 85.0567 25.0557C85.0567 25.0557 85.5973 25.3212 86.3484 25.8973C87.0995 26.4734 87.8732 27.216 88.8348 28.1027C90.5928 29.8985 92.0434 31.9059 92.0434 31.9059C92.0434 31.9059 92.6294 32.5045 93.1927 32.9366C93.3805 33.0806 93.4032 33.2471 93.5682 33.2246C92.4355 33.5487 91.115 33.7287 89.9823 34.0528C89.4933 32.9321 88.6968 32.0229 88.6968 32.0229C88.6968 32.0229 86.7283 29.9166 84.7598 27.8102C83.9633 26.901 83.1895 26.1584 82.4158 25.4157L84.3738 24.9791ZM79.16 26.1989C79.3477 26.3429 79.5582 26.6535 79.9337 26.9415C80.7075 27.6842 81.6918 28.7374 82.676 29.7906C84.6445 31.8969 86.5903 33.8368 86.5903 33.8368C86.5903 33.8368 86.9658 34.1248 87.5291 34.5569C86.2313 34.9035 84.7685 35.2726 83.448 35.4526C82.7939 34.3544 81.9293 32.9457 81.9293 32.9457C81.9293 32.9457 81.366 32.5136 80.7573 31.7484C79.9835 31.0058 79.022 30.1192 78.2255 29.21C77.429 28.3008 76.6325 27.3916 76.0465 26.793L79.16 26.1989ZM72.6257 27.5987C72.8361 27.9093 73.0466 28.2198 73.2571 28.5304C73.8885 29.4621 74.8727 30.5153 75.8343 31.4019C76.8185 32.4551 77.78 33.3418 78.5538 34.0844C79.3276 34.827 79.7258 35.2816 79.7258 35.2816C79.7258 35.2816 80.4542 35.6912 81.0175 36.1233C79.7197 36.4698 78.2342 36.6724 76.9364 37.019C76.4473 35.8983 75.7932 34.8 75.7932 34.8C75.7932 34.8 74.0125 32.8377 72.0667 30.8978C71.1051 30.0112 70.3087 29.102 69.5349 28.3594C70.5025 28.0578 71.4929 27.9228 72.6257 27.5987ZM65.9263 29.021L66.0913 28.9985C66.4669 29.2866 68.0598 31.1049 69.7951 32.7342C71.5758 34.6966 73.3566 36.6589 73.3566 36.6589C73.3566 36.6589 73.9199 37.091 74.4832 37.5231C73.1854 37.8696 71.8649 38.0497 70.5671 38.3963C70.0781 37.2755 69.2135 35.8668 69.2135 35.8668C69.2135 35.8668 67.5978 33.8819 65.7944 31.753C65.1857 30.9879 64.4119 30.2453 63.8032 29.4801C64.6285 29.3676 65.266 29.111 65.9263 29.021ZM60.5247 30.0968C60.7124 30.2408 60.9229 30.5513 61.2984 30.8394C61.9072 31.6045 62.8687 32.4912 63.6879 33.5669C65.3035 35.5518 67.107 37.6806 67.107 37.6806C67.107 37.6806 67.693 38.2793 68.2563 38.7113C68.444 38.8554 68.444 38.8554 68.6318 38.9994C67.169 39.3685 65.8485 39.5485 64.3856 39.9176C64.3629 39.7511 64.2948 39.2515 63.9193 38.9634C63.4302 37.8427 62.5656 36.4339 62.5656 36.4339C62.5656 36.4339 62.1674 35.9794 61.5587 35.2142C60.95 34.4491 59.9884 33.5624 59.1692 32.4867C58.771 32.0321 58.185 31.4335 57.7867 30.9789C58.5666 30.5333 59.557 30.3983 60.5247 30.0968ZM53.8253 31.5191C54.0131 31.6631 54.2008 31.8071 54.3886 31.9511C55.1397 32.5272 55.9134 33.2699 56.7099 34.1791C57.5064 35.0882 58.4679 35.9749 59.0766 36.74C59.6853 37.5052 60.0836 37.9597 60.0836 37.9597C60.0836 37.9597 60.6469 38.3918 61.2329 38.9904C61.7962 39.4225 62.5473 39.9986 62.5246 39.8321C62.6896 39.8096 62.7123 39.9761 62.8774 39.9536C61.0844 40.3677 59.4338 40.5927 57.6409 41.0068C57.6181 40.8403 57.5954 40.6738 57.385 40.3632C56.8959 39.2425 56.0086 37.6672 56.0086 37.6672C56.0086 37.6672 54.2279 35.7049 52.4472 33.7425C51.8612 33.1439 51.2751 32.5453 50.8542 31.9242C52.0323 31.9332 52.8576 31.8206 53.8253 31.5191ZM47.291 32.9189C47.456 32.8964 47.456 32.8964 47.6211 32.8739C47.8089 33.0179 47.8316 33.1844 48.0193 33.3285C48.628 34.0936 49.5896 34.9802 50.3861 35.8894C52.1668 37.8518 53.7598 39.6701 53.7598 39.6701C53.7598 39.6701 55.2846 40.9888 56.013 41.3984C54.6925 41.5785 53.3947 41.925 52.0969 42.2716C52.0742 42.1051 52.0288 41.772 51.8183 41.4615C51.3293 40.3407 50.4646 38.932 50.4646 38.932C50.4646 38.932 48.7066 37.1362 47.091 35.1513C46.505 34.5527 46.084 33.9316 45.6631 33.3105C46.1583 33.2429 46.7958 32.9864 47.291 32.9189ZM42.4073 34.0936C42.43 34.2602 42.595 34.2377 42.6177 34.4042C43.2265 35.1693 44.0229 36.0785 44.8421 37.1542C46.4578 39.1391 48.2158 40.9349 48.2158 40.9349C48.2158 40.9349 48.7791 41.367 49.5302 41.9431C50.0935 42.3751 50.6568 42.8072 50.6568 42.8072C49.6664 42.9422 48.8638 43.2213 47.8734 43.3563C47.8507 43.1898 47.8053 42.8567 47.5948 42.5462C47.2708 41.403 46.4289 40.1607 46.4289 40.1607C46.4289 40.1607 44.836 38.3424 43.4081 36.5016C42.8221 35.903 42.2134 35.1378 41.7924 34.5167C41.9121 34.1611 42.0772 34.1386 42.4073 34.0936ZM38.4912 34.9668C38.679 35.1108 38.8668 35.2549 39.0772 35.5654C39.6632 36.164 40.4597 37.0732 41.2562 37.9824C42.6841 39.8232 44.2543 41.475 44.2543 41.475C44.2543 41.475 46.5302 43.3698 46.3425 43.2258C46.3425 43.2258 46.5075 43.2033 46.5302 43.3698L46.3652 43.3924C45.2325 43.7164 43.912 43.8965 42.7792 44.2205C42.4552 43.0773 41.733 41.4795 41.733 41.4795C41.733 41.4795 41.3348 41.0249 40.7261 40.2598C40.1174 39.4947 39.2982 38.419 38.5017 37.5098C37.893 36.7447 37.307 36.146 36.721 35.5474C37.3585 35.2909 37.8537 35.2234 38.4912 34.9668ZM33.3001 36.3531C33.4879 36.4971 33.6756 36.6412 33.8861 36.9517C34.4721 37.5503 35.4336 38.437 36.0651 39.3687C36.8615 40.2778 37.658 41.187 38.1017 41.9746C38.7104 42.7398 39.1086 43.1944 39.1086 43.1944C39.1086 43.1944 40.0702 44.081 40.6562 44.6796C40.161 44.7472 39.6658 44.8147 39.1933 45.0487C38.8632 45.0937 38.6981 45.1162 38.368 45.1612C37.9017 44.2071 37.4126 43.0863 37.4126 43.0863C37.4126 43.0863 35.7969 41.1015 34.0162 39.1391C33.2197 38.23 32.446 37.4873 31.6722 36.7447C32.3324 36.6547 32.8049 36.4206 33.3001 36.3531ZM28.274 37.7169C28.2967 37.8834 28.86 38.3155 29.446 38.9141C30.1971 39.4902 30.9936 40.3994 31.7901 41.3085C33.383 43.1269 34.9987 45.1117 34.9987 45.1117C34.9987 45.1117 35.3742 45.3998 35.7725 45.8544C35.1122 45.9444 34.617 46.0119 33.9568 46.1019C33.3254 45.1703 32.694 44.2386 32.694 44.2386C32.694 44.2386 30.7709 42.4653 28.9902 40.5029C28.1937 39.5938 27.4199 38.8511 26.9763 38.0635C27.4487 37.8294 27.9439 37.7619 28.274 37.7169ZM24.0506 38.8016C24.2383 38.9457 24.2837 39.2787 24.4942 39.5893C25.1256 40.5209 26.1099 41.5741 26.9064 42.4833C28.6871 44.4457 30.7752 46.1965 30.7752 46.1965C30.7752 46.1965 30.963 46.3405 31.3385 46.6286C30.5132 46.7411 29.8757 46.9976 29.0731 47.2767C29.0504 47.1102 29.005 46.7771 28.7945 46.4665C28.4705 45.3233 27.7937 44.0586 27.7937 44.0586C27.7937 44.0586 27.3954 43.604 26.8094 43.0054C26.2007 42.2403 25.4042 41.3311 24.4654 40.611C24.0672 40.1564 23.5039 39.7243 23.1056 39.2697C23.3903 38.8917 23.7204 38.8466 24.0506 38.8016ZM19.1669 39.9764C19.1669 39.9764 19.3319 39.9539 19.5197 40.0979C19.7075 40.2419 20.0603 40.3635 20.248 40.5075C20.8113 40.9396 21.7275 41.4932 22.5013 42.2358C23.275 42.9784 24.0715 43.8876 24.4925 44.5087C25.0785 45.1073 25.4767 45.5619 25.4767 45.5619C25.4767 45.5619 26.04 45.994 26.6033 46.4261C27.1666 46.8581 27.7299 47.2902 27.7299 47.2902C27.895 47.2677 27.9176 47.4342 28.0827 47.4117C27.1151 47.7133 26.1701 48.1814 25.4129 48.7935L24.6557 49.4056C24.7981 49.2166 24.5649 48.7395 24.309 48.0959C23.6549 46.9977 22.6252 45.6114 22.6252 45.6114C22.6252 45.6114 20.7022 43.8381 18.7564 41.8982C18.3581 41.4437 17.7721 40.8451 17.3739 40.3905L19.1669 39.9764ZM13.8107 41.3852C14.4194 42.1503 15.4036 43.2035 16.2001 44.1127C18.1459 46.0525 20.069 47.8259 20.069 47.8259C20.069 47.8259 22.675 49.6757 22.6523 49.5092C23.1929 49.7747 23.5457 49.8962 23.8758 49.8512L23.4261 50.2518C22.9763 50.6524 22.3842 51.242 22.1449 51.9531C22.0025 52.1422 21.8829 52.4977 21.9056 52.6643C21.7178 52.5202 21.6951 52.3537 21.5073 52.2097C20.5004 50.99 19.283 49.4597 18.2987 48.4065C17.2918 47.1868 16.518 46.4441 16.518 46.4441L14.5722 44.5043L14.3617 44.1937C13.588 43.4511 12.7915 42.5419 12.1828 41.7768C12.678 41.7093 13.3382 41.6192 13.8107 41.3852ZM9.34792 43.181C10.3322 44.2342 11.3164 45.2874 12.3007 46.3406L12.5111 46.6512L14.2464 48.2805C14.2464 48.2805 15.7713 49.5992 17.4612 50.8954C18.986 52.2142 20.5108 53.5329 20.4881 53.3664C20.8637 53.6545 21.2392 53.9425 21.6147 54.2306C21.5405 54.9192 21.4663 55.6078 21.5571 56.2739C21.5283 57.2956 21.8068 58.1058 21.9431 59.105C20.282 56.787 18.2454 54.1811 18.2454 54.1811L16.2996 52.2412C14.7294 50.5894 13.1364 48.7711 11.4011 47.1418L8.47108 44.1487C8.59073 43.7932 9.06321 43.5591 9.34792 43.181ZM6.30692 48.006C6.40386 47.4839 6.50081 46.9618 6.62046 46.6062L9.15226 49.1447C10.7225 50.7965 12.4578 52.4258 14.0508 54.2441L15.621 55.8959C15.621 55.8959 17.1686 57.3812 18.5283 58.7224C20.0532 60.0412 21.4357 61.5489 21.2479 61.4049C21.6234 61.693 22.0217 62.1475 22.3972 62.4356C22.4426 62.7687 22.5107 63.2683 22.7212 63.5788C23.1587 65.5547 23.5963 67.5305 24.1989 69.4839C22.7255 67.31 21.2976 65.4692 21.2976 65.4692L19.4942 63.3403C16.6838 59.9917 14.0385 56.6206 10.7784 53.6725C9.60637 52.4753 8.292 51.4671 6.95493 50.2924C6.95493 50.2924 6.78986 50.3149 6.6021 50.1709C6.43704 50.1934 6.27198 50.2159 6.10692 50.2384C6.15845 49.3832 6.23268 48.6946 6.30692 48.006Z" fill="#F4774C"/>
<path d="M223.843 143.403C224.535 142.288 224.827 140.716 224.834 139.525C224.817 138.166 224.492 137.019 224.167 135.872C223.842 134.725 223.539 133.746 223.048 132.622L222.768 131.809L222.723 131.475L222.443 130.662C222.209 130.184 222.141 129.683 221.907 129.204L220.226 129.263C219.894 129.309 219.729 129.331 219.397 129.376L218.9 129.444L218.071 129.557C217.573 129.625 216.91 129.715 216.413 129.783C215.252 129.941 214.281 130.244 213.12 130.402C210.988 130.863 209.021 131.302 206.911 131.929C198.547 133.75 190.349 135.549 182.173 137.514C173.998 139.48 165.965 141.255 158.099 143.009C150.232 144.762 142.388 146.682 134.687 148.413C130.92 149.267 127.152 150.121 123.385 150.975C119.617 151.829 116.015 152.66 112.391 153.324C97.795 156.505 84.0283 159.573 71.3994 162.316C47.3019 167.643 31.2142 171.028 31.2142 171.028C31.2142 171.028 30.7168 171.096 29.9107 171.376C29.1045 171.656 28.1326 171.959 27.1606 172.261C25.2167 172.867 23.4386 173.449 23.6044 173.427C22.6325 173.729 21.6605 174.032 21.1859 174.267L21.0201 174.29C20.5228 174.357 20.2595 174.904 19.9735 175.283C19.9963 175.45 19.9963 175.45 19.9963 175.45C20.019 175.617 20.1038 177.477 20.7998 180.105L20.8453 180.439L20.8681 180.606L20.8909 180.773C20.9592 181.274 21.1705 181.585 21.2389 182.086C21.5185 182.899 21.9868 183.856 22.455 184.813C23.089 185.748 23.7002 186.515 24.6203 187.07C26.3173 188.37 28.4207 188.934 30.2899 189.019C30.81 189.119 31.3074 189.051 31.8047 188.983L32.4679 188.893L33.131 188.802C33.96 188.689 34.9547 188.554 35.7836 188.441C37.6073 188.192 39.4309 187.943 41.2546 187.695C44.9019 187.197 48.5265 186.533 52.294 185.679C59.6861 184.161 67.2212 182.453 74.8994 180.555C82.5775 178.658 90.4442 176.904 98.4767 175.129C114.519 171.41 130.938 167.98 147.786 163.982C156.128 161.994 164.469 160.005 172.999 158.162C177.264 157.24 181.529 156.318 185.771 155.229C187.903 154.769 190.013 154.141 192.145 153.68C194.278 153.219 196.41 152.758 198.543 152.297C202.808 151.375 207.095 150.62 211.338 149.532C213.47 149.071 215.603 148.61 217.832 147.625C218.947 147.133 220.062 146.641 220.989 146.004C222.292 145.656 223.339 144.663 223.843 143.403ZM219.333 132.618L219.996 132.528L220.018 132.695C220.646 134.821 221.605 136.902 221.856 138.739C221.879 138.907 221.901 139.074 221.901 139.074C221.645 138.428 221.222 137.805 221.222 137.805C221.222 137.805 220.822 137.349 220.233 136.749C219.645 136.148 219.034 135.381 218.234 134.469C217.811 133.846 217.223 133.246 216.989 132.767C217.84 132.821 218.504 132.731 219.333 132.618ZM168.839 143.756C168.885 144.09 169.096 144.402 169.165 144.903C169.444 145.715 170.101 146.817 170.569 147.774C170.381 147.629 170.169 147.318 170.124 146.984C169.301 145.905 168.644 144.804 168.199 144.014C168.342 143.824 168.674 143.779 168.839 143.756ZM134.788 151.632C134.811 151.799 134.811 151.799 134.788 151.632C134.645 151.821 134.645 151.821 134.645 151.821C134.645 151.821 135.068 152.444 135.513 153.234C135.702 153.379 135.748 153.713 135.936 153.857C135.77 153.88 135.77 153.88 135.605 153.902C135.273 153.948 134.753 153.848 134.421 153.894L134.399 153.727C134.399 153.727 133.765 152.792 133.13 151.858C133.651 151.957 134.314 151.866 134.788 151.632ZM130.049 152.788C130.26 153.1 130.871 153.867 131.294 154.49L130.465 154.603C130.254 154.292 129.831 153.669 129.408 153.046L129.22 152.901C129.386 152.879 129.717 152.833 130.049 152.788ZM125.95 153.687C126.161 153.999 126.561 154.455 126.961 154.911C126.984 155.078 127.172 155.222 127.172 155.222L125.371 155.638C125.326 155.304 125.28 154.97 125.28 154.97C125.28 154.97 124.88 154.514 124.458 153.891C125.144 153.968 125.618 153.733 125.95 153.687ZM121.685 154.609C121.873 154.754 121.919 155.088 122.107 155.232C122.319 155.544 122.719 156 122.764 156.334L121.792 156.636C121.747 156.302 121.701 155.968 121.701 155.968C121.701 155.968 121.301 155.512 120.879 154.889C121.21 154.844 121.376 154.821 121.685 154.609ZM117.917 155.463C118.106 155.608 118.317 155.919 118.528 156.231C118.74 156.542 118.951 156.854 119.163 157.165L118.997 157.188C118.997 157.188 118.499 157.255 117.693 157.536C117.813 157.179 117.745 156.678 117.745 156.678C117.745 156.678 117.322 156.055 116.923 155.599C117.277 155.721 117.586 155.508 117.917 155.463ZM114.446 158.489C114.566 158.132 114.52 157.798 114.663 157.608C114.875 157.92 115.086 158.231 115.275 158.376L115.109 158.398C114.777 158.444 114.612 158.466 114.446 158.489ZM112.148 158.972C112.148 158.972 112.336 159.117 112.502 159.094L112.336 159.117C112.17 159.139 112.17 159.139 112.17 159.139C112.17 159.139 112.17 159.139 112.148 158.972ZM108.25 157.632C108.484 158.111 108.695 158.422 108.906 158.734C109.352 159.524 109.752 159.979 109.752 159.979C109.752 159.979 109.918 159.957 109.94 160.124C109.632 160.336 109.489 160.526 109.157 160.571C108.991 160.594 109.014 160.761 108.848 160.783C108.946 160.26 108.877 159.758 108.877 159.758C108.877 159.758 108.032 158.513 107.398 157.578C107.918 157.677 108.084 157.655 108.25 157.632ZM31.8355 174.346C31.8355 174.346 31.8355 174.346 32.0013 174.324C32.2126 174.635 32.4467 175.114 32.8466 175.57C33.058 175.881 33.4579 176.337 33.8578 176.793C33.058 175.881 32.2809 175.136 31.5039 174.391C31.6697 174.369 31.8355 174.346 31.8355 174.346ZM23.3057 176.19C23.0943 175.878 23.0715 175.711 23.0715 175.711C23.2829 176.023 23.66 176.312 23.8941 176.79C24.0827 176.935 24.1055 177.102 24.294 177.246C24.0599 176.768 23.6828 176.479 23.3057 176.19ZM27.7766 185.449C26.5022 184.772 25.5138 183.716 24.8343 182.447C24.6002 181.968 24.366 181.49 24.2749 180.822C25.8062 182.144 27.1945 183.657 28.56 185.002C28.56 185.002 29.3142 185.579 29.8799 186.013C29.0282 185.959 28.3195 185.715 27.7766 185.449ZM32.2693 186.197C32.2465 186.03 32.2237 185.863 32.0351 185.719C31.5441 184.595 30.676 183.182 30.676 183.182C30.2761 182.726 29.8762 182.27 29.4763 181.814C29.6649 181.959 29.8534 182.103 29.8762 182.27C30.6532 183.015 31.2189 183.448 31.2189 183.448C31.2189 183.448 34.1676 185.258 33.979 185.114C35.2534 185.791 36.2709 185.822 35.1687 183.93C34.4891 182.662 33.2894 181.294 33.2894 181.294C33.2894 181.294 31.1697 179.371 29.0727 177.615C28.1299 176.893 27.3301 175.981 26.7189 175.214C27.0504 175.169 27.5478 175.101 27.8794 175.056C28.8677 176.112 36.1179 183.461 36.1179 183.461C36.1179 183.461 38.1921 185.05 38.7577 185.483C36.5797 185.61 34.4245 185.904 32.2693 186.197ZM40.3928 185.09C40.3701 184.923 40.1587 184.611 39.9474 184.3C39.6905 183.654 39.0793 182.887 38.6566 182.264C39.245 182.864 39.4564 183.176 39.4564 183.176C39.4564 183.176 40.2106 183.753 40.9421 184.164C41.3192 184.453 41.6736 184.575 41.8849 184.886C41.5534 184.932 41.056 184.999 40.3928 185.09ZM44.0402 184.592C44.0174 184.425 43.8288 184.281 43.806 184.114C43.1265 182.845 42.047 181.121 42.047 181.121C42.047 181.121 41.4586 180.521 40.6815 179.776C39.9045 179.031 38.9161 177.975 37.9278 176.919C36.9394 175.862 35.951 174.806 35.317 173.872C35.317 173.872 35.2942 173.705 35.1285 173.727C35.6258 173.659 36.1232 173.591 36.5978 173.357C36.8091 173.668 37.0432 174.147 37.2773 174.625C37.9114 175.56 38.7339 176.638 39.7223 177.695C40.7107 178.751 41.5105 179.663 42.2875 180.408C42.8987 181.175 43.4644 181.608 43.4644 181.608C43.4644 181.608 44.0301 182.042 44.7843 182.619C45.35 183.053 45.9385 183.653 45.9157 183.486C47.0243 184.186 48.0874 184.551 47.1281 182.47C46.6144 181.179 45.5805 179.788 45.5805 179.788C45.5805 179.788 45.1806 179.333 44.4035 178.588C43.6265 177.843 42.8267 176.931 42.0041 175.852C41.2043 174.94 40.3817 173.862 39.9363 173.072C39.9135 172.905 39.9135 172.905 39.725 172.76C40.0565 172.715 40.5539 172.647 40.8627 172.435C41.074 172.746 41.2854 173.058 41.5195 173.536C42.1535 174.471 43.1646 175.694 44.1758 176.917C46.1753 179.197 48.3178 181.287 48.3178 181.287C48.3178 181.287 51.1462 183.453 51.1235 183.286L51.312 183.431C48.8024 183.603 46.3384 184.109 44.0402 184.592ZM54.0849 182.712C53.5875 182.78 53.0901 182.848 52.6156 183.083C52.57 182.749 52.3814 182.604 52.1473 182.126C51.4678 180.857 50.4111 179.3 50.4111 179.3C50.4111 179.3 48.2686 177.21 46.4576 175.075C45.4692 174.019 44.6239 172.773 44.0127 172.005C44.6758 171.915 45.3162 171.657 45.9793 171.567C45.9793 171.567 46.259 172.38 46.7044 173.17C47.1727 174.127 47.9952 175.206 48.795 176.117C49.6176 177.196 50.4174 178.108 51.0059 178.708C51.6171 179.476 52.017 179.932 52.017 179.932C52.017 179.932 52.5827 180.365 53.1484 180.798C53.7141 181.232 54.2798 181.665 54.2798 181.665C55.2226 182.387 56.2629 182.586 55.4922 180.649C55.167 179.502 54.2989 178.089 54.2989 178.089C54.2989 178.089 53.899 177.633 53.2877 176.866C52.6765 176.099 51.8767 175.187 51.0769 174.275C50.2771 173.363 49.6431 172.429 49.1976 171.639C48.9863 171.327 48.9407 170.993 48.7294 170.682C49.2267 170.614 49.7013 170.379 50.3645 170.289C50.5986 170.767 52.0552 172.78 53.5118 174.794C55.1569 176.951 56.6135 178.965 56.6135 178.965C56.6135 178.965 58.9446 181.199 58.9218 181.032C59.1104 181.177 59.2989 181.321 59.6533 181.443C57.6866 181.881 55.8857 182.297 54.0849 182.712ZM60.4822 181.33C60.4595 181.163 60.3911 180.662 60.3228 180.161C59.9748 178.847 59.0839 177.267 59.0839 177.267C59.0839 177.267 57.4388 175.109 55.7936 172.951C54.971 171.872 54.1485 170.794 53.5372 170.026C53.5144 169.859 53.3259 169.715 53.3031 169.548C53.6347 169.502 53.9663 169.457 54.2751 169.245C54.4864 169.556 54.7205 170.035 54.9546 170.513C55.6114 171.615 56.4568 172.861 57.4679 174.084C58.479 175.307 59.4902 176.531 60.2672 177.276C61.067 178.187 61.4669 178.643 61.4669 178.643C61.4669 178.643 62.2212 179.221 62.8096 179.821C62.9982 179.966 63.2095 180.277 63.5639 180.399C62.7805 180.846 61.62 181.005 60.4822 181.33ZM65.8849 180.083C65.7191 180.105 65.7191 180.105 65.8849 180.083C65.3483 178.625 64.1031 176.923 64.1031 176.923C64.1031 176.923 63.5146 176.322 62.9034 175.555C62.1036 174.643 61.1152 173.587 60.1041 172.364C59.0929 171.14 58.2704 170.061 57.8021 169.104C57.7794 168.937 57.5908 168.793 57.5908 168.793C58.0882 168.725 58.5855 168.657 59.0601 168.422C59.2715 168.734 59.4828 169.045 59.6941 169.357C59.7169 169.524 59.9282 169.835 60.1168 169.98C60.3281 170.291 60.5395 170.603 60.7508 170.914C61.1735 171.537 61.5962 172.16 62.0188 172.783C63.8753 175.252 65.7318 177.722 65.7318 177.722C65.7318 177.722 67.0973 179.067 67.8743 179.811C67.1884 179.735 66.548 179.992 65.8849 180.083ZM69.6524 179.229L69.6297 179.062C69.0931 177.604 68.0137 175.879 68.0137 175.879C68.0137 175.879 66.1799 173.577 64.3234 171.108C63.9008 170.485 63.4781 169.862 63.0554 169.239C62.8441 168.927 62.6327 168.616 62.4214 168.304C62.2101 167.993 62.1873 167.826 61.9987 167.681C62.4961 167.614 62.8277 167.568 63.3023 167.334C63.3478 167.668 63.6047 168.313 64.0274 168.936C64.5184 170.06 65.3637 171.306 66.2091 172.552C67.0544 173.798 68.0428 174.854 68.6768 175.789C69.288 176.556 69.8765 177.156 69.8765 177.156C69.8765 177.156 70.8421 178.046 71.5963 178.623C71.1217 178.858 70.4586 178.949 69.6524 179.229ZM73.8946 178.14C73.3808 176.849 72.4899 175.269 72.4899 175.269C72.4899 175.269 70.679 173.134 69.011 170.809C68.1885 169.73 67.5089 168.461 67.0634 167.671C66.8293 167.193 66.7838 166.859 66.5952 166.714C66.9268 166.669 67.0926 166.647 67.4242 166.601C67.4469 166.768 67.4469 166.768 67.6355 166.913C67.8696 167.391 68.4353 167.825 68.6466 168.136C68.6694 168.303 68.8352 168.281 68.858 168.448L69.0465 168.592C69.2579 168.904 69.4464 169.048 69.6578 169.359C70.0577 169.815 70.4804 170.438 70.903 171.061C72.571 173.386 74.2161 175.544 74.2161 175.544C74.2161 175.544 74.8046 176.144 75.393 176.745C75.7929 177.2 76.1701 177.489 76.3586 177.634C75.3639 177.769 74.5577 178.049 73.8946 178.14ZM77.8279 177.263C77.8052 177.096 77.7824 176.929 77.5938 176.785C77.0801 175.494 76.3549 173.891 76.3549 173.891C76.3549 173.891 74.7098 171.733 73.0418 169.409C72.6192 168.786 72.2193 168.33 71.7966 167.707C71.5852 167.395 71.3967 167.251 71.1854 166.939L70.974 166.628L70.7854 166.483C70.5969 166.339 70.5741 166.172 70.4083 166.195C70.3855 166.027 70.2198 166.05 70.2198 166.05C70.8829 165.96 71.5233 165.702 72.1864 165.612C72.0434 165.801 71.8776 165.824 71.9004 165.991C71.9004 165.991 71.9004 165.991 71.9232 166.158C71.9232 166.158 72.1801 166.804 72.6255 167.594C73.071 168.384 73.7278 169.485 74.5504 170.564C76.0069 172.577 77.6065 174.401 77.6065 174.401C77.6065 174.401 79.8921 176.301 79.8693 176.134C80.8121 176.856 81.8524 177.055 81.0817 175.118C80.7565 173.972 79.8884 172.559 79.8884 172.559C79.8884 172.559 78.2888 170.735 76.8322 168.722C76.1982 167.787 75.5642 166.853 75.1187 166.063C74.8846 165.584 74.6733 165.273 74.6277 164.939C74.9593 164.893 75.2908 164.848 75.7654 164.613C75.7654 164.613 75.7882 164.78 75.954 164.758C76.1653 165.069 76.5652 165.525 76.7766 165.837C76.9651 165.981 76.9879 166.148 77.1992 166.46C77.4106 166.771 77.6219 167.083 77.8105 167.227C78.2104 167.683 78.6331 168.306 79.033 168.762C80.6781 170.92 82.1803 173.267 82.1803 173.267C82.1803 173.267 83.7571 174.924 84.3455 175.524C82.0701 176.174 79.9604 176.802 77.8279 177.263ZM86.0034 175.298C85.9806 175.131 85.9579 174.964 85.9351 174.797C85.5871 173.483 84.862 171.88 84.862 171.88C84.862 171.88 83.1941 169.556 81.6919 167.208C81.2692 166.585 80.8693 166.129 80.4467 165.506C80.2353 165.195 80.0468 165.051 79.8354 164.739L79.8126 164.572L79.6241 164.428C79.6013 164.261 79.4128 164.116 79.39 163.949C79.39 163.949 79.3672 163.782 79.2014 163.805C79.6988 163.737 80.1734 163.502 80.8365 163.412C80.8365 163.412 80.9504 164.247 81.4414 165.371C81.9096 166.328 82.5892 167.596 83.4345 168.842C84.2571 169.921 84.9139 171.023 85.5479 171.957C86.1591 172.724 86.5818 173.347 86.5818 173.347C86.5818 173.347 87.5474 174.237 88.3017 174.814C87.3297 175.117 86.6666 175.207 86.0034 175.298ZM89.9368 174.421C89.5888 173.108 88.7207 171.695 88.7207 171.695C88.7207 171.695 87.0755 169.537 85.6189 167.524C84.9621 166.422 84.3053 165.321 83.8599 164.531C83.6258 164.052 83.5802 163.718 83.5574 163.551C83.5347 163.384 83.5119 163.217 83.5119 163.217C84.0092 163.149 84.6496 162.892 85.147 162.824C85.1925 163.158 85.4266 163.636 85.6608 164.115C86.129 165.072 86.7858 166.173 87.4198 167.108C88.0766 168.209 88.8764 169.121 89.4876 169.889C90.0989 170.656 90.333 171.134 90.333 171.134C90.333 171.134 90.8987 171.568 91.4871 172.168C92.0528 172.601 92.4527 173.057 92.4527 173.057C93.3955 173.78 94.4586 174.145 93.8537 172.186C93.5285 171.039 92.8261 169.604 92.8261 169.604C92.8261 169.604 92.4262 169.148 91.9808 168.358C91.3695 167.59 90.7355 166.656 90.1015 165.721C89.4675 164.787 88.8335 163.852 88.5538 163.04C88.3425 162.728 88.3197 162.561 88.2969 162.394C88.6285 162.349 88.7943 162.327 89.1259 162.281C89.1259 162.281 88.9601 162.304 88.9829 162.471C88.9829 162.471 88.9829 162.471 89.0056 162.638C89.0056 162.638 89.2853 163.451 89.7535 164.408C90.2218 165.365 90.9013 166.633 91.7239 167.712C92.5465 168.791 93.3691 169.87 93.9803 170.637C94.5915 171.405 94.9914 171.861 94.9914 171.861C94.9914 171.861 95.5571 172.294 96.1456 172.894C96.5227 173.183 96.8998 173.472 97.0884 173.616C94.3675 173.477 92.0692 173.96 89.9368 174.421ZM98.3008 172.6C98.278 172.433 98.2553 172.266 98.2325 172.099C97.8845 170.785 97.0164 169.373 97.0164 169.373C97.0164 169.373 96.6165 168.917 96.0052 168.149C95.394 167.382 94.5942 166.47 93.9374 165.369C93.2806 164.267 92.6466 163.333 92.2011 162.543C91.967 162.064 91.9215 161.73 91.7329 161.586C91.7101 161.418 91.7101 161.419 91.7101 161.419C91.8759 161.396 92.2075 161.351 92.3733 161.328L92.2303 161.518C92.2303 161.518 92.2303 161.518 92.2531 161.685C92.2531 161.685 92.6757 162.308 93.1212 163.098C93.7324 163.865 94.3892 164.967 95.2118 166.045C96.6911 168.226 98.3135 170.217 98.3135 170.217C98.3135 170.217 99.8904 171.873 100.267 172.162C99.4385 172.275 98.7754 172.365 98.3008 172.6ZM101.571 171.814C101.548 171.647 101.525 171.48 101.503 171.313C101.155 169.999 100.452 168.564 100.452 168.564C100.452 168.564 98.973 166.383 97.3506 164.393C96.528 163.314 95.8712 162.212 95.26 161.445C95.0487 161.133 94.8373 160.822 94.8146 160.655C94.9804 160.632 95.1461 160.61 95.3119 160.587C95.3347 160.754 101.915 169.385 101.915 169.385C101.915 169.385 103.281 170.73 103.869 171.331C103.206 171.421 102.377 171.534 101.571 171.814ZM105.67 170.915C105.647 170.748 105.647 170.748 105.625 170.581C105.277 169.267 104.386 167.687 104.386 167.687C104.386 167.687 100.25 162.126 98.4163 159.824C99.0795 159.733 99.8856 159.453 100.549 159.363C100.76 159.674 100.828 160.175 101.251 160.798C101.719 161.755 102.399 163.024 103.221 164.103C104.044 165.182 104.724 166.45 105.335 167.217C105.946 167.985 106.369 168.608 106.369 168.608C106.369 168.608 107.546 169.808 108.134 170.409C107.305 170.522 106.476 170.635 105.67 170.915ZM106.355 162.314C106.212 162.504 106.212 162.504 106.069 162.694L106.092 162.861C105.903 162.716 105.88 162.549 105.692 162.405C105.035 161.303 104.378 160.202 103.91 159.245C103.699 158.933 103.676 158.766 103.465 158.455C103.796 158.409 104.128 158.364 104.602 158.129C104.814 158.441 106.527 161.1 106.527 161.1C106.527 161.1 106.904 161.389 107.259 161.51C106.973 161.89 106.664 162.102 106.355 162.314ZM109.935 169.993C109.912 169.826 109.912 169.826 109.935 169.993C109.564 168.512 108.673 166.932 108.673 166.932C108.673 166.932 108.462 166.621 108.062 166.165C108.228 166.142 108.251 166.309 108.416 166.287C108.937 166.386 109.457 166.485 109.977 166.585C109.977 166.585 110 166.752 110.211 167.063C110.4 167.207 110.611 167.519 110.656 167.853C111.079 168.476 111.313 168.955 111.313 168.955C111.313 168.955 111.856 169.221 112.045 169.365C111.57 169.6 110.741 169.713 109.935 169.993ZM113.371 169.184C113.514 168.995 113.68 168.972 113.8 168.615C114.063 168.069 113.995 167.568 113.995 167.568C113.995 167.568 113.572 166.945 113.338 166.467C113.504 166.444 113.67 166.421 113.836 166.399C113.836 166.399 113.836 166.399 113.858 166.566C113.881 166.733 114.092 167.044 114.304 167.356C114.561 168.001 114.795 168.48 114.795 168.48C114.795 168.48 115.172 168.769 115.361 168.913C114.675 168.837 114.011 168.927 113.371 169.184ZM116.973 168.353L117.116 168.163C117.259 167.974 117.379 167.617 117.522 167.427C117.756 167.906 117.945 168.05 117.945 168.05C117.945 168.05 117.945 168.05 118.111 168.028C117.636 168.263 117.304 168.308 116.973 168.353ZM119.593 165.273C119.593 165.273 119.404 165.129 119.593 165.273C119.404 165.129 119.404 165.129 119.404 165.129C119.57 165.106 119.736 165.084 119.901 165.061C119.736 165.084 119.593 165.273 119.593 165.273ZM120.243 167.567C120.363 167.21 120.318 166.876 120.461 166.686C120.672 166.998 120.883 167.309 120.906 167.476C120.575 167.522 120.409 167.544 120.243 167.567ZM123.37 166.97C123.49 166.614 123.422 166.113 123.422 166.113C123.422 166.113 122.999 165.49 122.577 164.867C122.388 164.722 122.365 164.555 122.177 164.411C122.343 164.388 122.508 164.365 122.674 164.343L122.697 164.51C122.908 164.821 123.12 165.133 123.354 165.611C123.588 166.09 123.988 166.546 124.176 166.69C123.845 166.735 123.702 166.925 123.37 166.97ZM126.64 166.184C126.738 165.66 126.692 165.326 126.692 165.326C126.692 165.326 126.27 164.703 125.847 164.08C125.824 163.913 125.636 163.769 125.613 163.602L126.751 163.277C126.962 163.588 127.196 164.067 127.573 164.355C127.973 164.811 128.207 165.29 128.419 165.601C127.944 165.836 127.304 166.094 126.64 166.184ZM131.237 165.217C131.191 164.883 131.146 164.549 131.146 164.549C131.146 164.549 130.512 163.615 129.901 162.847C129.901 162.847 129.901 162.847 129.878 162.68L131.015 162.355C131.227 162.666 131.627 163.122 132.027 163.578C132.427 164.034 132.661 164.513 132.849 164.657C132.375 164.892 131.877 164.96 131.237 165.217ZM135.479 164.128C135.576 163.605 135.531 163.27 135.531 163.27C135.531 163.27 134.92 162.503 134.308 161.736C134.308 161.736 134.308 161.736 134.286 161.569L134.451 161.546C134.617 161.523 134.783 161.501 135.115 161.456L135.303 161.6C135.492 161.745 135.869 162.033 136.08 162.345C136.503 162.968 137.091 163.568 137.114 163.735C136.64 163.97 136.142 164.038 135.479 164.128ZM137.243 157.252C137.1 157.442 136.935 157.464 136.792 157.654C136.174 158.078 135.202 158.381 134.23 158.684C133.258 158.986 132.098 159.145 130.96 159.47L124.42 161.042C122.287 161.503 119.989 161.987 117.879 162.615C115.747 163.076 113.614 163.536 111.602 163.641C110.939 163.731 110.087 163.677 109.733 163.555C109.544 163.411 109.19 163.289 109.19 163.289L108.881 163.501C108.858 163.334 108.835 163.167 108.813 163C108.767 162.666 108.579 162.521 108.39 162.377C108.722 162.332 109.053 162.287 109.196 162.097C109.196 162.097 109.362 162.074 109.528 162.052C110.048 162.151 110.997 161.681 112.158 161.523C112.987 161.41 113.815 161.297 114.667 161.351C115.496 161.238 116.325 161.125 117.154 161.012C118.646 160.809 119.807 160.65 119.807 160.65L129.474 158.481L132.744 157.695C133.242 157.627 133.882 157.37 134.214 157.325C134.711 157.257 135.208 157.189 135.729 157.288C136.226 157.221 136.746 157.32 137.266 157.419C136.889 157.13 137.055 157.108 137.243 157.252ZM139.744 163.207C139.841 162.683 139.773 162.182 139.773 162.182C139.773 162.182 139.139 161.247 138.528 160.48C138.505 160.313 138.339 160.335 138.316 160.168C138.625 159.956 138.934 159.744 139.077 159.554C139.22 159.365 139.386 159.342 139.529 159.152L139.672 158.963C140.117 159.753 140.517 160.209 140.517 160.209C140.517 160.209 140.94 160.832 141.506 161.265C141.928 161.888 142.494 162.321 142.494 162.321L142.683 162.466C141.545 162.791 140.573 163.093 139.744 163.207ZM143.843 162.307C143.82 162.14 143.798 161.973 143.752 161.639C143.593 160.47 142.867 158.867 142.867 158.867C142.867 158.867 142.468 158.411 141.999 157.454C141.388 156.687 140.731 155.585 140.097 154.651C139.44 153.55 138.641 152.638 138.195 151.848C137.984 151.536 137.795 151.392 137.75 151.058C137.916 151.035 138.081 151.012 138.413 150.967L138.27 151.157C138.27 151.157 138.27 151.157 138.293 151.324C138.293 151.324 138.715 151.947 139.161 152.737C139.606 153.527 140.263 154.628 141.063 155.54C142.354 157.576 143.644 159.612 143.644 159.612C143.644 159.612 144.067 160.235 144.633 160.668C145.033 161.124 145.621 161.725 145.621 161.725C145.81 161.869 145.833 162.036 145.998 162.013C145.147 161.959 144.483 162.05 143.843 162.307ZM150.715 160.69C149.412 161.038 148.251 161.196 146.947 161.544C146.925 161.377 146.879 161.043 146.834 160.709C146.674 159.539 145.949 157.937 145.949 157.937C145.949 157.937 144.658 155.901 143.202 153.887C142.545 152.786 141.911 151.852 141.3 151.084C141.088 150.773 141.066 150.606 140.854 150.294C141.02 150.272 141.186 150.249 141.352 150.226C142.597 151.928 146.824 158.158 146.824 158.158C146.824 158.158 148.823 160.437 148.8 160.27C149.766 161.159 150.64 161.381 150.201 159.399C150.042 158.229 149.317 156.627 149.317 156.627C149.317 156.627 146.147 151.955 144.479 149.63C144.81 149.585 144.976 149.562 145.308 149.517C145.353 149.851 145.587 150.329 146.033 151.119C146.501 152.076 147.346 153.322 148.026 154.591C148.848 155.67 149.671 156.749 150.305 157.683C150.916 158.45 151.339 159.073 151.339 159.073C151.339 159.073 151.927 159.674 152.516 160.274C152.704 160.419 152.893 160.563 152.916 160.73C152.184 160.319 151.355 160.432 150.715 160.69ZM154.957 159.601C154.609 158.287 153.741 156.874 153.741 156.874C153.741 156.874 153.318 156.251 152.707 155.484C152.096 154.716 151.273 153.638 150.451 152.559C149.628 151.48 148.971 150.378 148.526 149.588C148.315 149.277 148.269 148.943 148.058 148.631L148.223 148.609C148.435 148.92 148.646 149.232 148.88 149.71C149.514 150.645 150.36 151.891 151.182 152.969C152.993 155.105 154.638 157.262 154.638 157.262C154.638 157.262 155.227 157.863 155.815 158.463C156.192 158.752 156.404 159.063 156.592 159.208C156.261 159.253 155.62 159.511 154.957 159.601ZM158.559 158.77L158.536 158.603C158.188 157.289 157.275 155.542 157.275 155.542C157.275 155.542 155.464 153.407 153.796 151.082C152.973 150.003 152.15 148.924 151.705 148.134C151.682 147.967 151.516 147.99 151.494 147.823C151.825 147.777 151.991 147.755 152.323 147.71C152.534 148.021 152.745 148.333 152.957 148.644C153.779 149.723 154.79 150.946 155.801 152.169C157.824 154.616 159.846 157.063 159.846 157.063C159.846 157.063 160.6 157.641 161.212 158.408C160.194 158.376 159.388 158.657 158.559 158.77ZM163.487 157.757C162.973 156.466 162.128 155.22 162.128 155.22C162.128 155.22 160.106 152.774 158.083 150.327C157.072 149.104 156.061 147.88 155.427 146.946C156.256 146.833 157.062 146.553 157.891 146.44C158.102 146.751 158.171 147.252 158.593 147.875C159.084 149 159.93 150.245 160.752 151.324C161.598 152.57 162.586 153.627 163.197 154.394C163.809 155.161 164.397 155.762 164.397 155.762C164.397 155.762 164.985 156.362 165.74 156.94C165.762 157.107 165.928 157.084 165.951 157.251C164.956 157.387 164.127 157.5 163.487 157.757ZM167.895 156.646C167.381 155.355 166.513 153.942 166.513 153.942C166.513 153.942 166.09 153.319 165.313 152.574C164.702 151.807 163.691 150.583 162.868 149.504C162.046 148.426 161.366 147.157 160.921 146.367C160.709 146.056 160.687 145.889 160.475 145.577C160.807 145.532 161.138 145.487 161.447 145.274C162.481 146.665 167.742 154.285 167.742 154.285C167.742 154.285 168.919 155.485 169.507 156.086C169.221 156.465 168.558 156.555 167.895 156.646ZM171.662 155.792C171.315 154.478 170.401 152.731 170.401 152.731C170.401 152.731 166.431 147.147 164.74 144.655C164.906 144.633 165.072 144.61 165.238 144.587C165.26 144.755 165.472 145.066 165.495 145.233C165.963 146.19 166.808 147.436 167.631 148.515C168.453 149.594 169.276 150.673 169.91 151.607C170.521 152.374 170.944 152.997 170.944 152.997C170.944 152.997 173.441 155.209 173.418 155.042C173.606 155.187 173.772 155.164 173.795 155.331C173.155 155.588 172.491 155.679 171.662 155.792ZM176.259 154.825C175.762 154.893 175.43 154.938 174.955 155.173C174.933 155.006 174.887 154.672 174.653 154.193C174.419 153.715 174.351 153.214 174.116 152.735C174.305 152.879 174.705 153.335 175.105 153.791C175.671 154.225 176.259 154.825 176.259 154.825ZM177.728 154.454C177.706 154.287 177.683 154.12 177.637 153.786C177.289 152.473 176.564 150.87 176.564 150.87C176.564 150.87 176.164 150.414 175.53 149.48C174.919 148.712 174.096 147.633 173.44 146.532C172.783 145.43 172.126 144.329 171.846 143.516C171.801 143.182 171.612 143.038 171.589 142.871C171.921 142.826 172.253 142.78 172.418 142.758L172.275 142.947C172.275 142.947 172.275 142.947 172.298 143.114C172.298 143.114 172.555 143.76 173 144.55C173.446 145.34 174.103 146.441 174.903 147.353C175.537 148.288 176.359 149.367 176.782 149.99C177.393 150.757 177.627 151.235 177.627 151.235C177.627 151.235 178.193 151.669 178.615 152.292C179.181 152.725 179.581 153.181 179.581 153.181C179.792 153.492 180.147 153.614 180.335 153.759C179.695 154.016 178.723 154.319 177.728 154.454ZM181.33 153.623C181.473 153.433 181.428 153.099 181.336 152.431C181.177 151.262 180.475 149.826 180.475 149.826C180.475 149.826 180.075 149.37 179.629 148.58C179.018 147.813 178.384 146.879 177.75 145.944C177.116 145.01 176.482 144.075 176.037 143.285C175.825 142.974 175.614 142.662 175.568 142.328C176.066 142.26 176.706 142.003 177.203 141.935C177.226 142.102 177.649 142.725 178.094 143.515C178.728 144.45 179.385 145.551 180.185 146.463C181.807 148.454 183.264 150.467 183.264 150.467C183.264 150.467 183.852 151.067 184.418 151.501C185.007 152.101 185.406 152.557 185.406 152.557C185.406 152.557 185.406 152.557 185.595 152.701C183.96 153.094 182.656 153.442 181.33 153.623ZM189.008 151.725C188.202 152.005 187.373 152.119 186.567 152.399C186.544 152.232 186.521 152.065 186.476 151.73C186.128 150.417 185.403 148.814 185.403 148.814C185.403 148.814 183.78 146.823 182.135 144.666C181.313 143.587 180.679 142.652 180.067 141.885C179.856 141.573 179.833 141.406 179.645 141.262C180.308 141.172 180.948 140.914 181.446 140.846C181.657 141.158 181.891 141.636 182.125 142.115C182.759 143.049 183.605 144.295 184.616 145.518C185.627 146.742 186.449 147.821 187.226 148.565C187.838 149.333 188.426 149.933 188.426 149.933C188.426 149.933 189.015 150.534 189.769 151.111C189.957 151.256 189.98 151.423 190.169 151.567C189.837 151.612 189.506 151.658 189.008 151.725ZM192.278 150.939C191.765 149.648 190.896 148.235 190.896 148.235C190.896 148.235 190.474 147.612 189.697 146.867C188.92 146.123 188.074 144.877 187.086 143.82C186.263 142.742 185.441 141.663 184.807 140.728C184.784 140.561 184.596 140.417 184.573 140.25C185.07 140.182 185.545 139.947 186.042 139.879C186.51 140.836 187.356 142.082 188.201 143.328C189.046 144.574 189.869 145.653 190.48 146.42C191.091 147.188 191.514 147.811 191.514 147.811C191.514 147.811 192.103 148.411 192.691 149.011C193.279 149.612 193.868 150.212 193.845 150.045C194.034 150.19 194.222 150.334 194.411 150.478C193.913 150.546 193.085 150.659 192.278 150.939ZM195.714 150.13C195.692 149.963 195.623 149.462 195.389 148.984C195.041 147.67 194.128 145.923 194.128 145.923C194.128 145.923 193.705 145.3 193.094 144.533C192.482 143.765 191.637 142.519 190.814 141.441C190.18 140.506 189.569 139.739 189.124 138.949C189.455 138.903 189.787 138.858 190.096 138.646L190.118 138.813C190.609 139.937 191.478 141.35 192.323 142.596C193.168 143.842 194.014 145.088 194.648 146.022C195.282 146.957 195.704 147.58 195.704 147.58C195.704 147.58 196.293 148.18 196.904 148.947C197.115 149.259 197.304 149.403 197.492 149.548C197.041 149.95 196.378 150.04 195.714 150.13ZM202.135 148.915C201.306 149.028 200.665 149.285 199.836 149.398C199.466 147.918 198.552 146.171 198.552 146.171C198.552 146.171 198.129 145.548 197.495 144.613C196.861 143.679 196.016 142.433 195.17 141.187C194.514 140.085 193.857 138.984 193.411 138.194C193.743 138.149 194.24 138.081 194.549 137.869C194.738 138.013 194.783 138.347 194.972 138.492C195.606 139.426 196.263 140.528 197.108 141.773C198.61 144.121 200.255 146.279 200.255 146.279C200.255 146.279 202.609 148.68 202.586 148.513L202.775 148.657C202.278 148.725 202.3 148.892 202.135 148.915ZM203.77 148.522C203.747 148.355 203.701 148.021 203.49 147.709C203.142 146.395 202.417 144.793 202.417 144.793C202.417 144.793 200.772 142.635 199.27 140.288C198.613 139.186 197.79 138.107 197.345 137.317C197.511 137.295 197.676 137.272 197.842 137.25C197.865 137.417 198.076 137.728 198.122 138.062C198.613 139.186 199.481 140.599 200.326 141.845C201.172 143.091 202.183 144.314 202.817 145.249C203.451 146.183 204.039 146.784 204.039 146.784C204.039 146.784 204.628 147.384 205.382 147.962C205.405 148.129 205.571 148.106 205.593 148.273C205.073 148.174 204.433 148.431 203.77 148.522ZM208.532 147.532C208.366 147.555 208.2 147.577 207.869 147.623C207.355 146.331 206.487 144.918 206.487 144.918C206.487 144.918 206.064 144.296 205.264 143.384C204.63 142.449 203.619 141.226 202.797 140.147C201.951 138.901 201.272 137.633 200.638 136.698C200.969 136.653 201.135 136.63 201.467 136.585C201.489 136.752 201.678 136.897 201.724 137.231C202.215 138.355 202.894 139.623 203.717 140.702C204.539 141.781 205.362 142.86 205.973 143.627C206.584 144.395 206.984 144.851 206.984 144.851C206.984 144.851 207.573 145.451 208.138 145.884C208.727 146.485 209.293 146.918 209.293 146.918C209.481 147.062 209.67 147.207 209.858 147.351L208.532 147.532ZM211.802 146.746L211.305 146.814C211.282 146.647 211.214 146.146 210.98 145.667C210.632 144.353 209.741 142.773 209.741 142.773C209.741 142.773 209.341 142.317 208.73 141.55C208.118 140.783 207.296 139.704 206.639 138.602C205.982 137.501 205.325 136.399 204.88 135.609C205.377 135.542 205.709 135.496 206.183 135.262C206.395 135.573 206.606 135.884 207.029 136.507C207.663 137.442 208.651 138.498 209.496 139.744C211.33 142.046 213.164 144.348 213.164 144.348C213.164 144.348 214.129 145.238 214.907 145.982C213.769 146.308 212.774 146.443 211.802 146.746ZM216.662 145.233C216.148 143.942 215.28 142.529 215.28 142.529C215.28 142.529 213.446 140.226 211.613 137.924C210.79 136.845 209.779 135.622 209.145 134.688C209.145 134.688 209.145 134.688 209.122 134.521C209.288 134.498 209.288 134.498 209.454 134.475C209.665 134.787 209.899 135.265 210.133 135.744C210.767 136.678 211.613 137.924 212.624 139.147C213.612 140.204 214.623 141.427 215.4 142.172C216.177 142.917 216.6 143.54 216.6 143.54C216.6 143.54 217.354 144.117 217.92 144.551C217.92 144.551 217.92 144.551 218.108 144.695C217.8 144.907 217.325 145.142 216.662 145.233ZM220.127 143.399C219.493 142.465 218.859 141.53 218.859 141.53C218.859 141.53 218.293 141.097 217.659 140.162C216.882 139.418 215.894 138.361 215.071 137.282C214.083 136.226 213.26 135.147 212.792 134.19C212.769 134.023 212.604 134.046 212.581 133.879C213.078 133.811 213.553 133.576 214.05 133.508C214.073 133.675 214.261 133.82 214.284 133.987C214.73 134.777 215.529 135.689 216.141 136.456C216.94 137.368 217.552 138.135 218.14 138.736C218.729 139.336 218.963 139.815 218.963 139.815C218.963 139.815 219.528 140.248 219.906 140.537C220.471 140.97 220.848 141.259 220.848 141.259C221.037 141.403 221.226 141.548 221.391 141.525C221.317 142.216 220.722 142.807 220.127 143.399Z" fill="#F4774C"/>
<path d="M85.4472 93.537L85.4471 93.537L85.4511 93.5416C85.9169 94.0779 86.4098 94.3781 87.0021 94.6175C87.3422 94.755 87.744 94.8819 88.1949 95.0243C88.4747 95.1127 88.7733 95.207 89.0878 95.3135C90.7795 95.8864 93.3321 96.9303 97.5281 99.7388L97.5289 99.7393C101.508 102.392 103.807 104.524 105.257 106.12C105.983 106.919 106.5 107.588 106.917 108.134C106.947 108.173 106.977 108.212 107.006 108.25C107.372 108.731 107.69 109.148 108.011 109.441L108.011 109.441L108.019 109.448C108.277 109.673 108.675 109.825 109.105 109.784C109.559 109.74 110.002 109.486 110.339 108.983C110.666 108.494 110.892 107.777 110.977 106.775C111.062 105.769 111.009 104.441 110.749 102.701L110.749 102.699C109.953 97.5014 110.311 90.3973 111.156 83.5304C111.999 76.6725 113.323 70.0989 114.434 65.9817C115.394 62.4624 116.43 59.5278 117.173 57.4423C117.197 57.3742 117.221 57.307 117.245 57.2406C117.581 56.2957 117.856 55.5236 118.024 54.9698C118.113 54.6773 118.181 54.4174 118.208 54.2142C118.221 54.1167 118.23 53.9927 118.208 53.8704C118.187 53.7545 118.109 53.511 117.84 53.4073L117.46 53.2607L117.24 53.6031C112.942 60.279 109.778 69.3083 107.661 77.7088C105.7 85.4866 104.626 92.7715 104.388 97.2203C102.814 95.9869 100.812 94.785 98.8257 93.7703C96.4909 92.5775 94.1398 91.6235 92.4794 91.1749C90.761 90.6787 88.8732 90.9027 87.5037 91.3351C86.8197 91.5511 86.2259 91.8312 85.8311 92.1318C85.6394 92.2778 85.4498 92.4621 85.3453 92.6858C85.2902 92.8038 85.2518 92.9481 85.2657 93.1081C85.28 93.2729 85.3471 93.419 85.4472 93.537Z" fill="#F4774C" stroke="#F4774C"/>
</svg>
