<svg width="81" height="86" viewBox="0 0 81 86" fill="none" xmlns="http://www.w3.org/2000/svg">
<path d="M25.3179 20.3468C24.4849 19.8648 23.5786 19.4437 22.7026 19.0592C22.1187 18.8028 21.589 18.6867 21.0227 18.601C21.0733 18.0647 20.5513 17.5097 19.9774 17.8629C16.4671 19.9758 13.4105 23.0093 11.1566 26.4882C9.10488 29.6137 7.31101 33.9462 8.43711 37.7685C9.53286 41.5542 12.1897 44.908 14.7872 47.8169C17.6274 51.0186 20.7368 53.8729 23.9498 56.7029C26.8166 59.2646 29.5733 61.9176 32.4767 64.4488C35.5015 67.1263 38.8068 69.6943 42.652 71.196C45.4505 72.3314 48.2769 72.455 51.0995 71.902C52.4887 71.8602 53.8235 71.6781 55.2077 71.3315C57.799 70.7236 60.1603 69.6889 62.3345 68.1298C63.3116 67.4417 64.1674 66.6072 64.9019 65.6263C65.2141 65.1816 65.4227 64.7611 65.6009 64.3041C65.8133 64.5602 66.3619 64.4752 66.4605 64.1461C66.5528 63.8841 66.5844 63.5489 66.6097 63.2807C66.841 63.3357 67.0433 62.9823 66.8183 62.8603C66.7209 62.8176 66.6906 62.781 66.5933 62.7383C66.4151 61.4033 65.567 60.0071 64.8212 58.9583C63.7848 57.4095 62.3211 56.0921 60.8384 54.9758C60.6804 54.8599 60.4921 54.7074 60.3341 54.5915C59.8967 54.2134 59.4657 53.7682 58.9917 53.4205C57.7404 52.3592 56.3487 51.3526 54.8218 50.7057C53.8131 49.9371 52.8778 49.1076 51.9854 48.1806C51.5847 47.772 50.9084 47.7777 50.5595 48.2529C49.5192 49.6115 48.7645 51.1652 48.1438 52.7313C47.8859 53.3163 47.6583 53.9378 47.4611 54.596C47.3815 54.7239 47.3081 54.7848 47.2285 54.9128C47.1122 55.0712 47.1665 55.2114 47.2209 55.3516C46.5269 55.1866 45.7837 55.1862 45.0834 55.0882C43.9572 54.8499 42.8802 54.4469 41.8463 53.9465C39.4193 52.8114 37.244 51.1583 35.2153 49.3835C31.6559 46.285 28.233 42.4553 26.4573 37.9987C27.6808 38.2798 28.9487 38.0917 30.1622 37.7632C32.1012 37.2646 33.9442 36.3515 35.5142 35.109C35.6609 34.9872 35.7468 34.7922 35.6988 34.585C34.6827 30.6713 32.697 27.007 29.9353 24.0492C28.5575 22.5368 26.9838 21.3108 25.3179 20.3468ZM33.7814 32.3469C33.866 32.5237 33.9444 32.7676 34.0291 32.9444C33.9621 32.9383 33.9621 32.9383 33.8951 32.9321C33.8774 32.7614 33.8294 32.5542 33.7814 32.3469ZM24.9467 37.8942C24.9038 37.9917 24.9518 38.199 25.0491 38.2417C25.2741 38.3637 25.4814 38.3151 25.6344 38.1262C25.6344 38.1262 25.6344 38.1262 25.671 38.0958C26.1816 40.205 27.3874 42.1074 28.6059 43.8757C30.2427 46.2232 32.2031 48.3638 34.3532 50.285C36.4426 52.1331 38.7152 53.8288 41.2331 55.0737C42.2974 55.6107 43.4717 56.0564 44.665 56.3009C45.3589 56.4659 46.1565 56.6066 46.8758 56.5034C46.8441 56.8386 46.7822 57.1372 46.7506 57.4724C46.7253 57.7406 47.0843 57.8749 47.2372 57.686C47.9173 56.5649 48.3724 55.3218 48.8882 54.1519C49.0349 54.0301 49.1815 53.9083 49.2611 53.7803C49.4924 53.8353 49.6997 53.7867 49.95 53.6405C50.2736 53.4335 50.5366 53.1533 50.7692 52.8365C50.8488 52.7085 50.9284 52.5806 51.0751 52.4588C50.9588 52.6172 51.2154 52.404 51.1484 52.3979C51.2217 52.337 51.3924 52.3188 51.429 52.2883C51.5327 52.264 51.6363 52.2397 51.7703 52.252C51.874 52.2277 51.9713 52.2704 52.0383 52.2765C52.2393 52.2949 52.4706 52.3499 52.6716 52.3683C53.2682 52.4906 53.8888 52.7165 54.4968 53.0764C55.8581 54.0464 57.2928 54.9554 58.6238 55.8887C60.1305 57.1086 61.5878 58.4931 62.7949 60.0237C63.159 60.4627 63.5167 60.9688 63.844 61.4384C62.3057 60.5537 60.7308 59.6994 59.2355 58.7172L59.1988 58.7477C60.8028 60.0103 62.5231 61.1145 64.2801 62.1883C64.3104 62.2249 64.3104 62.2249 64.3408 62.2615C64.4014 62.3347 64.3951 62.4017 64.4558 62.4749C64.4798 62.5785 64.5341 62.7187 64.5948 62.7919C64.2219 63.1635 63.8187 63.4985 63.4154 63.8335C63.2511 63.7846 63.0804 63.8028 62.9161 63.7539C62.3562 63.6012 61.7962 63.4485 61.2059 63.2592C60.0253 62.8806 58.8637 62.3009 58.1116 61.3191C58.0509 61.2459 57.874 61.3312 57.965 61.4409C58.5464 62.4409 59.5311 63.1058 60.565 63.6062C61.1793 63.8992 61.8366 64.0946 62.4939 64.29C62.5912 64.3328 62.7252 64.345 62.8529 64.4243C62.1197 65.0334 61.3196 65.6363 60.532 66.1052C58.3946 65.8418 56.3823 64.6094 54.485 63.5904C54.3573 63.5111 54.2044 63.6999 54.332 63.7792C56.022 64.8469 57.7967 66.0914 59.6775 66.5679C58.823 67.0306 57.9078 67.4201 56.999 67.7426C56.171 67.5654 55.3861 67.2906 54.6011 67.0159C52.6785 66.265 50.8786 65.2887 48.8827 64.5988L48.846 64.6293C50.8773 65.6605 52.7986 66.7832 54.9095 67.6865C55.2685 67.8208 55.6578 67.9917 56.0535 68.0956C55.4619 68.2781 54.8703 68.4606 54.2484 68.6065C54.0044 68.6856 53.7301 68.7281 53.4558 68.7706C50.747 68.1168 48.0913 66.183 45.7618 65.0906C45.6644 65.0479 45.5848 65.1759 45.6821 65.2186C47.7677 66.3901 49.9368 68.1102 52.2487 69.0319C51.1148 69.2324 50.0176 69.4024 48.9267 69.5053C48.4641 69.3954 48.0078 69.2183 47.5881 69.0108C46.2925 68.4188 45.0462 67.6623 43.7139 67.1008C43.6166 67.058 43.5673 67.2226 43.6646 67.2653C45.1182 67.9732 46.3759 68.9675 47.8662 69.6449C47.6955 69.6631 47.5249 69.6813 47.2873 69.6933C46.233 69.7658 45.0878 69.7286 44.0159 69.6304C42.944 69.5322 41.8911 69.2329 40.7889 69.0982C40.6549 69.0859 40.5449 69.1773 40.5689 69.2809C39.0609 68.4328 37.6326 67.4567 36.3079 66.4563C33.0633 63.9615 30.1915 61.0951 27.1364 58.381C24.1787 55.7096 21.1843 53.0686 18.3428 50.2388C15.4787 46.9336 12.5109 43.6527 10.5442 39.7872C9.63035 38.013 9.22214 36.2513 9.40551 34.3071C9.60153 32.2288 10.5041 30.1814 11.5521 28.384C13.4458 25.1426 16.1548 22.2125 19.2935 20.0994C19.3238 20.136 19.3908 20.1421 19.4211 20.1787C20.9 20.6184 22.403 21.1618 23.7466 21.961C25.3759 22.9555 26.7726 24.2668 28.029 25.6328C29.0364 26.7732 30.0855 28.1879 30.8906 29.6816C30.6896 29.6632 30.519 29.6814 30.3117 29.7301C30.2447 29.7239 30.2687 29.8276 30.3357 29.8337C30.543 29.7851 30.744 29.8035 30.945 29.8219C31.4291 30.7791 31.8461 31.7302 32.0863 32.7665C30.9967 32.4976 29.8831 32.1252 29.0198 31.6066L28.9831 31.637C29.8034 32.2531 30.7401 32.7108 31.6893 33.0344C31.8537 33.0833 32.018 33.1321 32.1823 33.181C32.2784 33.5955 32.3378 34.0405 32.3605 34.5159C32.1102 34.662 31.8233 34.8386 31.573 34.9848C30.0751 34.7461 28.4888 33.6542 27.5964 32.7272L27.5597 32.7577C28.2271 33.5626 29.6175 34.9409 30.9991 35.3379C30.5352 35.5997 30.1382 35.8677 29.6743 36.1295C29.601 36.1904 29.4974 36.2147 29.424 36.2756C28.7908 36.1838 28.1095 35.8847 27.5621 35.5979C26.5648 35.0671 25.6042 34.5058 24.5702 34.0053C24.4729 33.9626 24.3566 34.121 24.4843 34.2003C25.6029 34.8776 26.6419 35.6827 27.8035 36.2625C28.0285 36.3845 28.3205 36.5127 28.5822 36.6042C28.0576 36.7929 27.4723 36.9083 26.8631 36.9202C26.8391 36.8165 26.815 36.7129 26.6811 36.7006C25.3842 36.4804 24.2782 35.6691 23.2632 34.9676C23.0748 34.8151 22.8422 35.1319 23.0306 35.2844C23.9179 35.9066 24.8356 36.5654 25.8455 36.9622C25.7419 36.9865 25.7229 37.1876 25.8202 37.2304C26.0149 37.3158 26.1792 37.3647 26.3435 37.4135C25.9112 37.3401 25.5156 37.2363 25.1263 37.0654C24.9619 37.0165 24.8393 37.242 24.9973 37.3579C25.1553 37.4738 25.35 37.5592 25.4776 37.6385C25.2463 37.5835 25.0327 37.6992 24.9467 37.8942ZM33.962 34.7302C33.9759 34.2243 33.9532 33.7489 33.8938 33.3039C33.9608 33.31 33.9975 33.2796 34.0645 33.2857C34.1972 33.6698 34.2995 34.0173 34.4323 34.4013C34.3223 34.4927 34.1756 34.6145 33.962 34.7302Z" fill="#F4774C"/>
<path d="M22.2676 36.007C22.6664 37.1606 23.3527 38.1374 24.0326 39.1813C24.8037 40.3351 25.5748 41.4889 26.3826 42.6123C28.1197 45.0055 30.0341 47.3134 32.065 49.4627C35.8166 53.4621 40.2708 57.1874 45.6784 58.6983C45.7759 58.7411 45.862 58.5459 45.7278 58.5336C40.4797 56.7665 36.0445 52.8399 32.3233 48.8771C30.3532 46.801 28.5363 44.5359 26.8599 42.216C26.1129 41.1659 25.3355 40.0792 24.6619 38.9682C23.9819 37.9242 23.4122 36.7888 22.555 35.8302C22.4031 35.6471 22.2195 35.7995 22.2676 36.007Z" fill="#F4774C"/>
<path d="M17.8115 45.6385C16.797 44.1913 15.8129 42.7808 14.725 41.3946C13.9106 40.3381 12.9265 38.9276 11.689 38.408C11.5915 38.3652 11.4813 38.4567 11.5358 38.5971C11.8511 39.2016 12.3198 39.6169 12.7516 40.0627C13.2747 40.6185 13.7611 41.2047 14.2474 41.791C15.3354 43.1772 16.3195 44.5877 17.334 46.0349C19.3022 48.856 21.197 51.7381 23.5388 54.1871C26.0263 56.8864 29.1383 59.0674 32.0856 61.1994C35.1608 63.4108 38.1625 65.6832 40.8274 68.2972C40.8578 68.3339 40.8945 68.3034 40.8641 68.2667C36.1589 62.5203 29.1319 59.1345 23.9796 53.8211C21.6378 51.3721 19.7493 48.4229 17.8115 45.6385Z" fill="#F4774C"/>
<path d="M27.3715 19.8122C27.7777 20.5262 28.7344 20.7829 29.447 21.1189C30.4822 21.6197 31.4554 22.4194 32.2577 23.2373C33.8991 24.8427 34.8013 26.7527 35.4769 28.9127C35.5554 29.1568 35.8731 29.0166 35.9224 28.8519C36.2352 26.6132 34.8344 24.2515 33.431 22.634C32.5742 21.6758 31.601 20.876 30.5481 20.2044C29.7812 19.7281 28.4726 18.8977 27.5803 19.3913C27.4031 19.4766 27.25 19.6657 27.3715 19.8122Z" fill="#F4774C"/>
<path d="M31.2718 16.6963C30.5415 16.1895 29.7378 15.7436 29.0011 15.3038C28.3556 14.974 27.5215 14.4915 26.7709 14.5581C26.4292 14.5945 26.3545 15.0276 26.5 15.2778C26.8949 15.7539 27.6075 16.09 28.1556 16.3771C28.8986 16.7497 29.6048 17.1528 30.3048 17.623C31.8692 18.6124 33.3235 19.6932 34.6981 20.9021C37.3801 23.3137 39.3774 26.1703 40.4394 29.618C40.5242 29.795 40.7925 29.8195 40.7811 29.5816C40.9824 26.0127 38.2851 22.6859 35.8651 20.366C34.5032 19.0229 32.9274 17.7956 31.2718 16.6963Z" fill="#F4774C"/>
<path d="M24.0418 10.0206C24.6554 10.6859 25.6121 10.9427 26.3915 11.2848C27.3355 11.6758 28.2732 12.1339 29.2108 12.592C31.2442 13.6243 33.1182 14.9126 34.9124 16.3289C36.6763 17.7087 38.2807 19.3445 39.7079 21.0656C40.9769 22.6708 41.9586 24.4526 43.0872 26.1126C43.2023 26.3261 43.5566 26.1556 43.5453 25.9176C43.1925 23.9227 42.0096 22.1224 40.8076 20.5234C39.4538 18.7413 37.8495 17.1055 36.1286 15.6282C34.3471 14.0776 32.4061 12.7832 30.3853 11.6168C29.4236 11.055 28.4189 10.5907 27.4446 10.1631C26.5006 9.77208 25.3681 9.22846 24.3367 9.4047C23.995 9.44109 23.8596 9.80091 24.0418 10.0206Z" fill="#F4774C"/>
<path d="M67.9973 56.3403C66.6258 54.3876 65.0278 52.6848 63.2463 51.1345C62.243 50.2982 61.1966 49.5595 60.0769 48.8818C59.1153 48.3201 57.9045 47.5325 56.7581 47.4952C56.3861 47.4949 56.171 47.9828 56.4873 48.2147C57.4363 48.9107 58.7218 49.2652 59.7504 49.8331C60.8094 50.4376 61.7951 51.1031 62.7377 51.8661C64.5318 53.2823 66.1665 54.9546 67.7341 56.6207C67.8556 56.7671 68.1124 56.5538 67.9973 56.3403Z" fill="#F4774C"/>
<path d="M73.1956 58.8242C73.3791 56.8788 72.3735 54.9937 71.3425 53.3769C69.9903 51.2232 68.2711 49.3742 66.3622 47.7447C64.4533 46.1152 62.3546 44.7051 60.0471 43.7157C59.0731 43.2882 57.9889 42.9521 56.9224 42.7868C55.8256 42.5849 55.1362 42.7248 54.2139 43.1817C53.9634 43.3279 54.0355 43.639 54.334 43.7001C54.6996 43.7674 55.0589 43.9018 55.4245 43.9691C55.8875 44.0792 56.3632 44.0551 56.8326 44.098C57.8016 44.2206 58.715 44.5749 59.6283 44.9291C61.7777 45.8026 63.7182 47.0967 65.5424 48.5493C68.9048 51.2591 71.6246 54.6883 72.9944 58.8058C72.9754 59.0071 73.1829 58.9584 73.1956 58.8242Z" fill="#F4774C"/>
<path d="M51.1503 37.8734C52.3798 38.4595 53.5852 38.942 54.9501 39.1684C56.1138 39.3764 57.3205 39.4869 58.4842 39.6949C60.9153 40.0865 63.101 40.9294 65.0957 42.3636C66.4579 43.334 67.6304 44.5238 68.8826 45.5856C70.1955 46.7206 71.4717 47.8861 72.6746 49.1126C75.0436 51.5959 76.9293 54.5424 77.4477 58.0065C77.5198 58.3175 77.9954 58.2934 77.9904 57.9885C78.1854 54.4882 76.5134 51.426 74.2911 48.8208C73.168 47.4663 71.8614 46.2642 70.5549 45.0621C69.2483 43.86 67.9481 42.5908 66.5985 41.4863C62.2398 37.8736 56.6502 37.6326 51.2566 37.1051C50.9151 37.1415 50.8278 37.7086 51.1503 37.8734Z" fill="#F4774C"/>
</svg>
