<svg width="462" height="240" viewBox="0 0 462 240" fill="none" xmlns="http://www.w3.org/2000/svg">
<g clip-path="url(#clip0_1334_9950)">
<rect width="462" height="240" rx="4" fill="white"/>
<g filter="url(#filter0_d_1334_9950)">
<rect x="10" y="18" width="380" height="197" rx="4" fill="white"/>
</g>
<path d="M10 22C10 19.7909 11.7909 18 14 18H386C388.209 18 390 19.7909 390 22V48.0465H10V22Z" fill="#3C3A3E"/>
<path d="M10 48H104V215H14C11.7909 215 10 213.209 10 211V48Z" fill="#EDEDED"/>
<rect x="103.674" y="48.0466" width="167.023" height="1.76743" transform="rotate(90 103.674 48.0466)" fill="#CBCBCB"/>
<path fill-rule="evenodd" clip-rule="evenodd" d="M20.3887 59.8818C19.532 59.8818 18.8375 60.5763 18.8375 61.433C18.8375 62.2897 19.532 62.9842 20.3887 62.9842H87.984C88.8407 62.9842 89.5352 62.2897 89.5352 61.433C89.5352 60.5763 88.8407 59.8818 87.984 59.8818H20.3887ZM20.3887 120.378C19.532 120.378 18.8375 121.072 18.8375 121.929C18.8375 122.786 19.532 123.48 20.3887 123.48H87.984C88.8407 123.48 89.5352 122.786 89.5352 121.929C89.5352 121.072 88.8407 120.378 87.984 120.378H20.3887ZM18.8375 72.2912C18.8375 71.4345 19.532 70.74 20.3887 70.74H70.3096C71.1663 70.74 71.8608 71.4345 71.8608 72.2912C71.8608 73.1479 71.1663 73.8424 70.3096 73.8424H20.3887C19.532 73.8424 18.8375 73.1479 18.8375 72.2912ZM20.3887 131.236C19.532 131.236 18.8375 131.931 18.8375 132.787C18.8375 133.644 19.532 134.338 20.3887 134.338H70.3096C71.1663 134.338 71.8608 133.644 71.8608 132.787C71.8608 131.931 71.1663 131.236 70.3096 131.236H20.3887ZM18.8375 83.1496C18.8375 82.2929 19.532 81.5984 20.3887 81.5984H78.2631C79.1198 81.5984 79.8142 82.2929 79.8142 83.1496C79.8142 84.0063 79.1198 84.7008 78.2631 84.7008H20.3887C19.532 84.7008 18.8375 84.0063 18.8375 83.1496ZM20.3887 142.094C19.532 142.094 18.8375 142.789 18.8375 143.646C18.8375 144.502 19.532 145.197 20.3887 145.197H78.2631C79.1198 145.197 79.8142 144.502 79.8142 143.646C79.8142 142.789 79.1198 142.094 78.2631 142.094H20.3887ZM18.8375 94.0077C18.8375 93.151 19.532 92.4565 20.3887 92.4565H58.8212C59.6779 92.4565 60.3724 93.151 60.3724 94.0077C60.3724 94.8644 59.6779 95.5589 58.8212 95.5589H20.3887C19.532 95.5589 18.8375 94.8644 18.8375 94.0077ZM20.3887 152.953C19.532 152.953 18.8375 153.647 18.8375 154.504C18.8375 155.361 19.532 156.055 20.3887 156.055H58.8212C59.6779 156.055 60.3724 155.361 60.3724 154.504C60.3724 153.647 59.6779 152.953 58.8212 152.953H20.3887ZM18.8375 182.425C18.8375 181.569 19.532 180.874 20.3887 180.874H70.3096C71.1663 180.874 71.8608 181.569 71.8608 182.425C71.8608 183.282 71.1663 183.976 70.3096 183.976H20.3887C19.532 183.976 18.8375 183.282 18.8375 182.425ZM103.674 107.969L10 107.968V108.468L103.674 108.469V107.969ZM10 168.465L103.674 168.465V168.965L10 168.965V168.465ZM103.674 196.386H10V196.886H103.674V196.386Z" fill="#CBCBCB"/>
<path fill-rule="evenodd" clip-rule="evenodd" d="M134.186 80.0471C131.976 80.0471 130.186 81.838 130.186 84.0471V124.134C130.186 126.343 131.976 128.134 134.186 128.134H236.651C238.86 128.134 240.651 126.343 240.651 124.134V84.0471C240.651 81.838 238.86 80.0471 236.651 80.0471H134.186ZM134.186 138.992C131.976 138.992 130.186 140.783 130.186 142.992V183.079C130.186 185.288 131.976 187.079 134.186 187.079H236.651C238.86 187.079 240.651 185.288 240.651 183.079V142.992C240.651 140.783 238.86 138.992 236.651 138.992H134.186ZM253.023 84.0471C253.023 81.838 254.814 80.0471 257.023 80.0471H359.489C361.698 80.0471 363.489 81.838 363.489 84.0471V124.134C363.489 126.343 361.698 128.134 359.489 128.134H257.023C254.814 128.134 253.023 126.343 253.023 124.134V84.0471ZM257.023 138.992C254.814 138.992 253.023 140.783 253.023 142.992V183.079C253.023 185.288 254.814 187.079 257.023 187.079H359.489C361.698 187.079 363.489 185.288 363.489 183.079V142.992C363.489 140.783 361.698 138.992 359.489 138.992H257.023Z" fill="#F3F3F3"/>
<path fill-rule="evenodd" clip-rule="evenodd" d="M140.577 90.9055C139.72 90.9055 139.025 91.6 139.025 92.4567C139.025 93.3134 139.72 94.0079 140.577 94.0079H208.172C209.029 94.0079 209.723 93.3134 209.723 92.4567C209.723 91.6 209.029 90.9055 208.172 90.9055H140.577ZM263.414 90.9055C262.558 90.9055 261.863 91.6 261.863 92.4567C261.863 93.3134 262.558 94.0079 263.414 94.0079H331.01C331.866 94.0079 332.561 93.3134 332.561 92.4567C332.561 91.6 331.866 90.9055 331.01 90.9055H263.414ZM139.025 151.402C139.025 150.545 139.72 149.85 140.577 149.85H194.032C194.889 149.85 195.584 150.545 195.584 151.402C195.584 152.258 194.889 152.953 194.032 152.953H140.577C139.72 152.953 139.025 152.258 139.025 151.402ZM263.414 149.85C262.558 149.85 261.863 150.545 261.863 151.402C261.863 152.258 262.558 152.953 263.414 152.953H316.87C317.727 152.953 318.421 152.258 318.421 151.402C318.421 150.545 317.727 149.85 316.87 149.85H263.414ZM139.025 100.988C139.025 100.132 139.72 99.437 140.577 99.437H170.172C171.029 99.437 171.723 100.132 171.723 100.988C171.723 101.845 171.029 102.539 170.172 102.539H140.577C139.72 102.539 139.025 101.845 139.025 100.988ZM263.414 99.437C262.558 99.437 261.863 100.131 261.863 100.988C261.863 101.845 262.558 102.539 263.414 102.539H293.01C293.866 102.539 294.561 101.845 294.561 100.988C294.561 100.131 293.866 99.437 293.01 99.437H263.414ZM139.025 159.933C139.025 159.076 139.72 158.382 140.577 158.382H176.358C177.215 158.382 177.909 159.076 177.909 159.933C177.909 160.79 177.215 161.484 176.358 161.484H140.577C139.72 161.484 139.025 160.79 139.025 159.933ZM263.414 158.382C262.558 158.382 261.863 159.076 261.863 159.933C261.863 160.79 262.558 161.484 263.414 161.484H299.196C300.053 161.484 300.747 160.79 300.747 159.933C300.747 159.076 300.053 158.382 299.196 158.382H263.414Z" fill="#CBCBCB"/>
<path fill-rule="evenodd" clip-rule="evenodd" d="M66.8608 30.0724C67.8648 30.2567 68.7696 30.8169 69.4053 31.6477C70.041 32.4785 70.3638 33.5227 70.3132 34.5842C70.2625 35.6457 69.8418 36.6513 69.1301 37.4122C68.4185 38.1731 67.4648 38.6369 66.4483 38.7164C65.4318 38.7959 64.4224 38.4856 63.6099 37.8439C62.7973 37.2022 62.2374 36.2732 62.0355 35.2315C61.8335 34.1898 62.0034 33.107 62.5131 32.1866C63.0228 31.2662 63.8374 30.5716 64.8037 30.2332C65.4659 30.0018 66.173 29.9466 66.8608 30.0724ZM41.9075 36.2888C41.9075 37.9189 40.8515 38.7327 38.7395 38.7303H33.624V30.0295H38.4241C39.5624 30.0295 40.3612 30.1689 40.8241 30.4406C41.1622 30.6233 41.4436 30.9024 41.6354 31.2454C41.8273 31.5885 41.9216 31.9813 41.9075 32.3781C41.9136 32.7876 41.807 33.1904 41.6004 33.5388C41.3938 33.8873 41.0959 34.1667 40.7418 34.3442C41.104 34.5024 41.4109 34.7727 41.6212 35.1185C41.8315 35.4643 41.935 35.869 41.9178 36.2781L41.9075 36.2888ZM39.5486 32.6354C39.5486 32.0885 39.1818 31.8133 38.4446 31.8133H35.8286V33.4827H38.4446C39.1818 33.4827 39.5486 33.2003 39.5486 32.6354ZM39.5486 36.0993C39.5486 35.531 39.1852 35.2486 38.4583 35.2486H35.8286V36.9501H38.4755C39.2024 36.9501 39.5658 36.6642 39.5658 36.0993H39.5486ZM60.9705 38.7303H58.7762V35.2807H55.6082V38.7303H53.407V30.0295H55.6082V33.3647H58.7762V30.0295H60.9705V38.7303ZM79.8072 38.7303H76.8449L73.4712 34.5086V38.7303H71.27V30.0295H73.4712V34.2083L77.0198 30.0295H79.8278L75.9501 34.287L79.8278 38.7303H79.8072ZM66.7443 32.0671C66.4436 31.9683 66.1266 31.9351 65.813 31.9696C65.4995 32.0041 65.1961 32.1055 64.9218 32.2675C64.6475 32.4295 64.4081 32.6487 64.2185 32.9113C64.0289 33.174 63.8933 33.4745 63.8199 33.7942C63.7465 34.1139 63.7371 34.4459 63.7921 34.7696C63.8472 35.0932 63.9655 35.4016 64.1398 35.6755C64.3141 35.9494 64.5406 36.183 64.8053 36.3617C65.0699 36.5404 65.367 36.6604 65.678 36.7142C66.0184 36.7855 66.3697 36.7769 66.7066 36.6892C67.1977 36.5599 67.6341 36.265 67.9478 35.8504C68.2616 35.4358 68.4351 34.9246 68.4413 34.3965C68.4476 33.8684 68.2863 33.353 67.9824 32.9304C67.6786 32.5078 67.2493 32.2018 66.7614 32.0599L66.7443 32.0671ZM48.6687 31.9348C49.1895 32.1992 49.609 32.6398 49.8587 33.1848C50.1083 33.7298 50.1734 34.3469 50.0433 34.9355C49.9132 35.524 49.5955 36.0491 49.1423 36.4252C48.689 36.8012 48.1268 37.006 47.5476 37.006C46.9683 37.006 46.4061 36.8012 45.9529 36.4252C45.4996 36.0491 45.182 35.524 45.0518 34.9355C44.9217 34.3469 44.9868 33.7298 45.2365 33.1848C45.4861 32.6398 45.9056 32.1992 46.4264 31.9348V29.6077C45.3181 29.8932 44.3485 30.5919 43.7004 31.5717C43.0523 32.5516 42.7707 33.7449 42.9086 34.9265C43.0466 36.108 43.5946 37.196 44.4492 37.9852C45.3038 38.7743 46.4059 39.21 47.5476 39.21C48.6892 39.21 49.7913 38.7743 50.6459 37.9852C51.5005 37.196 52.0485 36.108 52.1865 34.9265C52.3244 33.7449 52.0428 32.5516 51.3947 31.5717C50.7467 30.5919 49.777 29.8932 48.6687 29.6077V31.9348Z" fill="white"/>
<path fill-rule="evenodd" clip-rule="evenodd" d="M32.3554 35.4165C32.3554 37.6137 31.0811 38.7136 28.5325 38.7159H23.2559C23.2559 36.5139 26.7839 36.614 28.0799 36.614C29.1336 36.614 29.6593 36.1374 29.6571 35.1841C29.6571 34.2261 29.1325 33.7542 28.0799 33.7542H25.1039V31.6737H28.0559C29.1085 31.6737 29.6296 31.2126 29.6296 30.2975C29.6296 29.3824 29.1016 28.9391 28.0559 28.9391C26.5542 28.9391 23.2559 29.3395 23.2559 26.8372H28.1142C29.513 26.8372 30.4879 27.0171 31.0388 27.3769C31.4527 27.6442 31.7903 28.0223 32.0165 28.4718C32.2426 28.9213 32.349 29.4259 32.3245 29.9329C32.3457 30.5336 32.1938 31.1272 31.8882 31.637C31.5826 32.1467 31.1374 32.5493 30.6102 32.7926C31.7691 33.3074 32.3474 34.1892 32.3451 35.4379L32.3554 35.4165Z" fill="white"/>
<path fill-rule="evenodd" clip-rule="evenodd" d="M47.8733 35.8098C47.4907 35.8907 47.093 35.8109 46.7666 35.5877C46.4402 35.3646 46.2115 35.0161 46.1302 34.6181C46.0488 34.22 46.1215 33.8046 46.3323 33.4622C46.5432 33.1197 46.8752 32.8778 47.2561 32.7892V29.4575H47.9418V32.7892C48.1158 32.8312 48.2808 32.9064 48.4287 33.0108C48.6725 33.182 48.862 33.425 48.973 33.7088C49.084 33.9926 49.1114 34.3045 49.0519 34.6046C48.9923 34.9048 48.8484 35.1797 48.6385 35.3943C48.4286 35.6089 48.1622 35.7535 47.8733 35.8098Z" fill="white"/>
<g filter="url(#filter1_d_1334_9950)">
<rect x="141" y="35" width="169" height="84.5" rx="4" fill="white"/>
</g>
<path d="M157.402 56.1991H158.471V54.7167H162.387V56.1931H163.455V53.8075H162.771V48.5713H158.843L158.681 51.1699C158.582 52.8263 158.231 53.4775 157.813 53.8075H157.402V56.1991ZM159.11 53.8075C159.437 53.2704 159.674 52.4272 159.749 51.1699L159.845 49.5045H161.702V53.8075H159.11Z" fill="#3C3A3E"/>
<path d="M166.354 54.8068C167.428 54.8068 168.167 54.2816 168.359 53.4805L167.344 53.3664C167.197 53.7565 166.837 53.9606 166.369 53.9606C165.667 53.9606 165.202 53.4985 165.193 52.7093H168.404V52.3762C168.404 50.7588 167.431 50.0476 166.297 50.0476C164.977 50.0476 164.116 51.0169 164.116 52.4392C164.116 53.8855 164.965 54.8068 166.354 54.8068ZM165.196 51.9771C165.229 51.389 165.664 50.8938 166.312 50.8938C166.936 50.8938 167.356 51.3499 167.362 51.9771H165.196Z" fill="#3C3A3E"/>
<path d="M168.939 50.9989H170.43V54.7167H171.48V50.9989H172.972V50.1077H168.939V50.9989Z" fill="#3C3A3E"/>
<path d="M174.973 54.8098C175.696 54.8098 176.128 54.4707 176.326 54.0836H176.362V54.7167H177.407V51.632C177.407 50.4137 176.413 50.0476 175.534 50.0476C174.565 50.0476 173.821 50.4797 173.581 51.3199L174.595 51.464C174.703 51.1489 175.009 50.8788 175.54 50.8788C176.044 50.8788 176.32 51.1369 176.32 51.59V51.608C176.32 51.9201 175.993 51.9351 175.18 52.0221C174.286 52.1181 173.431 52.3852 173.431 53.4234C173.431 54.3297 174.094 54.8098 174.973 54.8098ZM175.255 54.0116C174.802 54.0116 174.478 53.8045 174.478 53.4054C174.478 52.9883 174.841 52.8143 175.327 52.7453C175.612 52.7063 176.182 52.6343 176.323 52.5202V53.0634C176.323 53.5765 175.909 54.0116 175.255 54.0116Z" fill="#3C3A3E"/>
<path d="M178.181 54.7167H178.517C179.507 54.7167 179.954 54.0206 180.026 52.4842L180.098 50.9989H181.422V54.7167H182.472V50.1077H179.111L179.03 52.1481C178.979 53.4414 178.811 53.8225 178.334 53.8225H178.175L178.181 54.7167Z" fill="#3C3A3E"/>
<path d="M184.613 53.2464V50.1077H183.566V54.7167H184.685L186.524 51.575V54.7167H187.574V50.1077H186.458L184.613 53.2464Z" fill="#3C3A3E"/>
<path d="M188.435 53.4534C188.462 54.3086 189.245 54.8068 190.31 54.8068C191.403 54.8068 192.192 54.2876 192.192 53.4384C192.192 52.8173 191.769 52.3912 191.223 52.3582V52.3102C191.751 52.1691 192.087 51.8391 192.087 51.3409C192.087 50.5638 191.415 50.0476 190.334 50.0476C189.326 50.0476 188.567 50.5698 188.552 51.374H189.623C189.635 51.0649 189.953 50.8488 190.385 50.8488C190.818 50.8488 191.079 51.0799 191.079 51.422C191.079 51.737 190.839 51.9711 190.388 51.9711H189.683V52.7423H190.388C190.842 52.7423 191.139 52.9973 191.139 53.3694C191.139 53.7895 190.769 53.9936 190.304 53.9936C189.845 53.9936 189.533 53.7955 189.512 53.4534H188.435Z" fill="#3C3A3E"/>
<path d="M194.373 54.8098C195.097 54.8098 195.529 54.4707 195.727 54.0836H195.763V54.7167H196.807V51.632C196.807 50.4137 195.814 50.0476 194.934 50.0476C193.965 50.0476 193.221 50.4797 192.981 51.3199L193.995 51.464C194.103 51.1489 194.409 50.8788 194.94 50.8788C195.445 50.8788 195.721 51.1369 195.721 51.59V51.608C195.721 51.9201 195.394 51.9351 194.58 52.0221C193.686 52.1181 192.831 52.3852 192.831 53.4234C192.831 54.3297 193.494 54.8098 194.373 54.8098ZM194.655 54.0116C194.202 54.0116 193.878 53.8045 193.878 53.4054C193.878 52.9883 194.241 52.8143 194.727 52.7453C195.012 52.7063 195.583 52.6343 195.724 52.5202V53.0634C195.724 53.5765 195.31 54.0116 194.655 54.0116Z" fill="#3C3A3E"/>
<path d="M201.791 50.1077H200.753V53.8255H198.946V50.1077H197.899V54.7167H201.434V56.1991H202.496V53.9066H201.791V50.1077Z" fill="#3C3A3E"/>
<path d="M204.434 53.2464V50.1077H203.387V54.7167H204.506L206.345 51.575V54.7167H207.396V50.1077H206.279L204.434 53.2464Z" fill="#3C3A3E"/>
<path d="M211.236 54.7167H212.253V50.1077H210.252C209.123 50.1077 208.424 50.6868 208.427 51.572C208.424 52.1541 208.742 52.5952 209.291 52.8203L208.259 54.7167H209.327L210.273 52.9823H211.236V54.7167ZM211.236 52.1901H210.216C209.738 52.1901 209.474 51.9411 209.477 51.596C209.474 51.2509 209.753 50.9899 210.252 50.9899H211.236V52.1901Z" fill="#3C3A3E"/>
<path d="M163.063 100.641C162.874 99.2753 161.823 98.4832 160.461 98.4832C158.856 98.4832 157.646 99.6534 157.646 101.64C157.646 103.623 158.841 104.797 160.461 104.797C161.922 104.797 162.892 103.851 163.063 102.678L161.941 102.672C161.799 103.392 161.211 103.797 160.476 103.797C159.48 103.797 158.766 103.05 158.766 101.64C158.766 100.254 159.474 99.4824 160.479 99.4824C161.226 99.4824 161.811 99.9055 161.941 100.641H163.063Z" fill="#3C3A3E"/>
<path d="M164.751 106.441C165.597 106.441 166.086 106.006 166.347 105.271L168.198 100.11L167.037 100.104L165.972 103.584H165.924L164.862 100.104H163.709L165.381 104.809L165.288 105.058C165.087 105.583 164.769 105.619 164.295 105.481L164.042 106.327C164.19 106.387 164.454 106.441 164.751 106.441Z" fill="#3C3A3E"/>
<path d="M171.605 103.449L170.273 100.104H168.952V104.713H170V101.607L171.227 104.713H171.986L173.255 101.574V104.713H174.294V100.104H172.973L171.605 103.449Z" fill="#3C3A3E"/>
<path d="M178.042 103.449L176.709 100.104H175.389V104.713H176.436V101.607L177.663 104.713H178.423L179.692 101.574V104.713H180.73V100.104H179.41L178.042 103.449Z" fill="#3C3A3E"/>
<path d="M183.152 104.806C183.875 104.806 184.307 104.467 184.505 104.079H184.541V104.713H185.585V101.628C185.585 100.41 184.592 100.044 183.713 100.044C182.744 100.044 181.999 100.476 181.759 101.316L182.774 101.46C182.882 101.145 183.188 100.875 183.719 100.875C184.223 100.875 184.499 101.133 184.499 101.586V101.604C184.499 101.916 184.172 101.931 183.359 102.018C182.465 102.114 181.609 102.381 181.609 103.419C181.609 104.326 182.273 104.806 183.152 104.806ZM183.434 104.007C182.981 104.007 182.657 103.8 182.657 103.401C182.657 102.984 183.02 102.81 183.506 102.741C183.791 102.702 184.361 102.63 184.502 102.516V103.059C184.502 103.572 184.088 104.007 183.434 104.007Z" fill="#3C3A3E"/>
<path d="M188.774 106.441H189.86V103.986H189.905C190.076 104.323 190.433 104.794 191.225 104.794C192.311 104.794 193.125 103.932 193.125 102.414C193.125 100.878 192.287 100.044 191.222 100.044C190.409 100.044 190.07 100.533 189.905 100.866H189.842V100.104H188.774V106.441ZM189.839 102.408C189.839 101.514 190.223 100.935 190.922 100.935C191.645 100.935 192.017 101.55 192.017 102.408C192.017 103.272 191.639 103.902 190.922 103.902C190.229 103.902 189.839 103.302 189.839 102.408Z" fill="#3C3A3E"/>
<path d="M195.381 104.806C196.104 104.806 196.536 104.467 196.734 104.079H196.77V104.713H197.815V101.628C197.815 100.41 196.822 100.044 195.942 100.044C194.973 100.044 194.229 100.476 193.989 101.316L195.003 101.46C195.111 101.145 195.417 100.875 195.948 100.875C196.452 100.875 196.728 101.133 196.728 101.586V101.604C196.728 101.916 196.401 101.931 195.588 102.018C194.694 102.114 193.839 102.381 193.839 103.419C193.839 104.326 194.502 104.806 195.381 104.806ZM195.663 104.007C195.21 104.007 194.886 103.8 194.886 103.401C194.886 102.984 195.249 102.81 195.735 102.741C196.02 102.702 196.59 102.63 196.731 102.516V103.059C196.731 103.572 196.317 104.007 195.663 104.007Z" fill="#3C3A3E"/>
<path d="M200.917 104.803C202.076 104.803 202.814 104.115 202.892 103.137H201.854C201.761 103.632 201.404 103.917 200.926 103.917C200.248 103.917 199.81 103.35 199.81 102.408C199.81 101.478 200.257 100.92 200.926 100.92C201.449 100.92 201.77 101.256 201.854 101.7H202.892C202.817 100.701 202.037 100.044 200.911 100.044C199.561 100.044 198.709 101.019 198.709 102.426C198.709 103.821 199.54 104.803 200.917 104.803Z" fill="#3C3A3E"/>
<path d="M204.639 100.104H203.487L204.855 102.408L203.451 104.713H204.603L205.569 103.053L206.545 104.713H207.688L206.274 102.408L207.664 100.104H206.515L205.569 101.805L204.639 100.104Z" fill="#3C3A3E"/>
<path d="M210.341 104.803C211.692 104.803 212.55 103.851 212.55 102.426C212.55 100.998 211.692 100.044 210.341 100.044C208.991 100.044 208.133 100.998 208.133 102.426C208.133 103.851 208.991 104.803 210.341 104.803ZM210.347 103.932C209.6 103.932 209.234 103.266 209.234 102.423C209.234 101.58 209.6 100.905 210.347 100.905C211.082 100.905 211.448 101.58 211.448 102.423C211.448 103.266 211.082 103.932 210.347 103.932Z" fill="#3C3A3E"/>
<path d="M213.064 106.051H214.132V104.713H217.148V106.051H218.198V103.818H217.484V100.104H214.153L214.021 101.718C213.934 102.75 213.82 103.515 213.43 103.818H213.064V106.051ZM214.546 103.818C214.837 103.389 214.945 102.693 215.023 101.718L215.095 100.98H216.445V103.818H214.546Z" fill="#3C3A3E"/>
<path d="M221.019 104.803C222.37 104.803 223.228 103.851 223.228 102.426C223.228 100.998 222.37 100.044 221.019 100.044C219.669 100.044 218.811 100.998 218.811 102.426C218.811 103.851 219.669 104.803 221.019 104.803ZM221.025 103.932C220.278 103.932 219.912 103.266 219.912 102.423C219.912 101.58 220.278 100.905 221.025 100.905C221.76 100.905 222.126 101.58 222.126 102.423C222.126 103.266 221.76 103.932 221.025 103.932Z" fill="#3C3A3E"/>
<path d="M224.15 104.713H226.382C227.463 104.713 228.081 104.224 228.081 103.461C228.081 102.816 227.58 102.366 226.856 102.303C227.472 102.189 227.856 101.862 227.856 101.343C227.856 100.566 227.174 100.104 226.085 100.104H224.15V104.713ZM225.167 103.857V102.714H226.382C226.781 102.714 227.024 102.945 227.024 103.326C227.024 103.656 226.781 103.857 226.382 103.857H225.167ZM225.167 102.012V100.974H226.085C226.538 100.974 226.814 101.166 226.814 101.481C226.814 101.811 226.547 102.012 226.106 102.012H225.167Z" fill="#3C3A3E"/>
<path d="M229.646 104.779C230 104.779 230.303 104.485 230.306 104.118C230.303 103.758 230 103.464 229.646 103.464C229.28 103.464 228.983 103.758 228.986 104.118C228.983 104.485 229.28 104.779 229.646 104.779ZM229.646 101.487C230 101.487 230.303 101.193 230.306 100.827C230.303 100.467 230 100.173 229.646 100.173C229.28 100.173 228.983 100.467 228.986 100.827C228.983 101.193 229.28 101.487 229.646 101.487Z" fill="#3C3A3E"/>
<path d="M163.062 69.6573C162.873 68.2919 161.822 67.4998 160.46 67.4998C158.855 67.4998 157.646 68.67 157.646 70.6565C157.646 72.64 158.84 73.8133 160.46 73.8133C161.922 73.8133 162.891 72.868 163.062 71.6947L161.94 71.6887C161.798 72.4089 161.21 72.814 160.475 72.814C159.479 72.814 158.765 72.0668 158.765 70.6565C158.765 69.2702 159.473 68.499 160.478 68.499C161.225 68.499 161.81 68.9221 161.94 69.6573H163.062Z" fill="#3C3A3E"/>
<path d="M164.702 72.9911C165.057 72.9911 165.36 72.697 165.363 72.3309C165.36 71.9708 165.057 71.6767 164.702 71.6767C164.336 71.6767 164.039 71.9708 164.042 72.3309C164.039 72.697 164.336 72.9911 164.702 72.9911ZM164.702 69.9423C165.057 69.9423 165.36 69.6483 165.363 69.2822C165.36 68.9221 165.057 68.628 164.702 68.628C164.336 68.628 164.039 68.9221 164.042 69.2822C164.039 69.6483 164.336 69.9423 164.702 69.9423Z" fill="#3C3A3E"/>
<path d="M231.12 67.5837H226.223V73.7292H227.327V68.508H230.016V73.7292H231.12V67.5837Z" fill="#3C3A3E"/>
<path d="M234.414 73.8192C235.764 73.8192 236.622 72.868 236.622 71.4427C236.622 70.0143 235.764 69.0601 234.414 69.0601C233.064 69.0601 232.205 70.0143 232.205 71.4427C232.205 72.868 233.064 73.8192 234.414 73.8192ZM234.42 72.949C233.673 72.949 233.307 72.2829 233.307 71.4397C233.307 70.5965 233.673 69.9213 234.42 69.9213C235.155 69.9213 235.521 70.5965 235.521 71.4397C235.521 72.2829 235.155 72.949 234.42 72.949Z" fill="#3C3A3E"/>
<path d="M238.213 73.7952C238.568 73.7952 238.871 73.5011 238.874 73.1351C238.871 72.775 238.568 72.4809 238.213 72.4809C237.847 72.4809 237.55 72.775 237.553 73.1351C237.55 73.5011 237.847 73.7952 238.213 73.7952ZM238.213 70.5034C238.568 70.5034 238.871 70.2094 238.874 69.8433C238.871 69.4832 238.568 69.1891 238.213 69.1891C237.847 69.1891 237.55 69.4832 237.553 69.8433C237.55 70.2094 237.847 70.5034 238.213 70.5034Z" fill="#3C3A3E"/>
<path d="M170.235 73.7292H173.044V73.1091H171.259V73.081L171.965 72.3629C172.762 71.5987 172.982 71.2266 172.982 70.7645C172.982 70.0783 172.423 69.5762 171.599 69.5762C170.787 69.5762 170.211 70.0803 170.211 70.8585H170.917C170.917 70.4404 171.181 70.1784 171.589 70.1784C171.979 70.1784 172.269 70.4164 172.269 70.8025C172.269 71.1446 172.061 71.3886 171.657 71.7987L170.235 73.1931V73.7292Z" fill="#858585"/>
<path d="M175.248 73.8072C176.236 73.8092 176.827 73.029 176.827 71.6847C176.827 70.3484 176.232 69.5762 175.248 69.5762C174.264 69.5762 173.672 70.3464 173.67 71.6847C173.67 73.027 174.26 73.8072 175.248 73.8072ZM175.248 73.1811C174.738 73.1811 174.418 72.6689 174.42 71.6847C174.422 70.7085 174.74 70.1944 175.248 70.1944C175.758 70.1944 176.076 70.7085 176.078 71.6847C176.078 72.6689 175.76 73.1811 175.248 73.1811Z" fill="#858585"/>
<path d="M177.491 73.7292H180.3V73.1091H178.515V73.081L179.222 72.3629C180.018 71.5987 180.238 71.2266 180.238 70.7645C180.238 70.0783 179.68 69.5762 178.855 69.5762C178.043 69.5762 177.467 70.0803 177.467 70.8585H178.173C178.173 70.4404 178.437 70.1784 178.845 70.1784C179.236 70.1784 179.526 70.4164 179.526 70.8025C179.526 71.1446 179.318 71.3886 178.913 71.7987L177.491 73.1931V73.7292Z" fill="#858585"/>
<path d="M182.656 69.6322H181.95L180.932 70.2864V70.9665L181.89 70.3544H181.914V73.7292H182.656V69.6322Z" fill="#858585"/>
<path d="M185.567 71.3826H183.723V71.9788H185.567V71.3826Z" fill="#858585"/>
<path d="M187.835 73.8072C188.823 73.8092 189.413 73.029 189.413 71.6847C189.413 70.3484 188.819 69.5762 187.835 69.5762C186.851 69.5762 186.259 70.3464 186.257 71.6847C186.257 73.027 186.847 73.8072 187.835 73.8072ZM187.835 73.1811C187.325 73.1811 187.005 72.6689 187.007 71.6847C187.009 70.7085 187.327 70.1944 187.835 70.1944C188.345 70.1944 188.663 70.7085 188.665 71.6847C188.665 72.6689 188.347 73.1811 187.835 73.1811Z" fill="#858585"/>
<path d="M191.5 69.5762C190.612 69.5702 190.022 70.1804 190.022 70.9805C190.024 71.7527 190.574 72.3109 191.292 72.3109C191.735 72.3109 192.119 72.0968 192.317 71.7447H192.345C192.343 72.6209 192.025 73.1431 191.458 73.1431C191.104 73.1431 190.866 72.939 190.792 72.6129H190.062C190.146 73.2911 190.682 73.7852 191.458 73.7852C192.441 73.7852 193.067 72.965 193.065 71.5547C193.063 70.0623 192.287 69.5802 191.5 69.5762ZM191.502 70.1764C191.941 70.1764 192.263 70.5404 192.263 70.9585C192.265 71.3826 191.927 71.7467 191.494 71.7467C191.058 71.7467 190.744 71.4026 190.742 70.9645C190.742 70.5244 191.068 70.1764 191.502 70.1764Z" fill="#858585"/>
<path d="M195.601 71.3826H193.757V71.9788H195.601V71.3826Z" fill="#858585"/>
<path d="M196.218 73.7292H199.026V73.1091H197.242V73.081L197.948 72.3629C198.744 71.5987 198.964 71.2266 198.964 70.7645C198.964 70.0783 198.406 69.5762 197.582 69.5762C196.77 69.5762 196.194 70.0803 196.194 70.8585H196.9C196.9 70.4404 197.164 70.1784 197.572 70.1784C197.962 70.1784 198.252 70.4164 198.252 70.8025C198.252 71.1446 198.044 71.3886 197.64 71.7987L196.218 73.1931V73.7292Z" fill="#858585"/>
<path d="M201.231 73.8072C202.219 73.8092 202.809 73.029 202.809 71.6847C202.809 70.3484 202.215 69.5762 201.231 69.5762C200.247 69.5762 199.654 70.3464 199.652 71.6847C199.652 73.027 200.243 73.8072 201.231 73.8072ZM201.231 73.1811C200.721 73.1811 200.401 72.6689 200.403 71.6847C200.405 70.7085 200.723 70.1944 201.231 70.1944C201.741 70.1944 202.059 70.7085 202.061 71.6847C202.061 72.6689 201.743 73.1811 201.231 73.1811Z" fill="#858585"/>
<path d="M243.468 73.7292H246.277V73.109H244.493V73.081L245.199 72.3628C245.995 71.5987 246.215 71.2266 246.215 70.7645C246.215 70.0783 245.657 69.5762 244.833 69.5762C244.02 69.5762 243.444 70.0803 243.444 70.8585H244.151C244.151 70.4404 244.415 70.1783 244.823 70.1783C245.213 70.1783 245.503 70.4164 245.503 70.8025C245.503 71.1445 245.295 71.3886 244.891 71.7987L243.468 73.193V73.7292Z" fill="#858585"/>
<path d="M248.482 73.8072C249.47 73.8092 250.06 73.029 250.06 71.6847C250.06 70.3484 249.466 69.5762 248.482 69.5762C247.497 69.5762 246.905 70.3464 246.903 71.6847C246.903 73.027 247.493 73.8072 248.482 73.8072ZM248.482 73.181C247.971 73.181 247.651 72.6689 247.653 71.6847C247.655 70.7084 247.973 70.1943 248.482 70.1943C248.992 70.1943 249.31 70.7084 249.312 71.6847C249.312 72.6689 248.994 73.181 248.482 73.181Z" fill="#858585"/>
<path d="M250.725 73.7292H253.533V73.109H251.749V73.081L252.455 72.3628C253.251 71.5987 253.471 71.2266 253.471 70.7645C253.471 70.0783 252.913 69.5762 252.089 69.5762C251.277 69.5762 250.701 70.0803 250.701 70.8585H251.407C251.407 70.4404 251.671 70.1783 252.079 70.1783C252.469 70.1783 252.759 70.4164 252.759 70.8025C252.759 71.1445 252.551 71.3886 252.147 71.7987L250.725 73.193V73.7292Z" fill="#858585"/>
<path d="M255.89 69.6322H255.184L254.165 70.2863V70.9665L255.124 70.3544H255.148V73.7292H255.89V69.6322Z" fill="#858585"/>
<path d="M258.8 71.3826H256.956V71.9787H258.8V71.3826Z" fill="#858585"/>
<path d="M261.221 69.6322H260.514L259.496 70.2863V70.9665L260.454 70.3544H260.478V73.7292H261.221V69.6322Z" fill="#858585"/>
<path d="M263.775 73.8072C264.763 73.8092 265.354 73.029 265.354 71.6847C265.354 70.3484 264.759 69.5762 263.775 69.5762C262.791 69.5762 262.199 70.3464 262.197 71.6847C262.197 73.027 262.787 73.8072 263.775 73.8072ZM263.775 73.181C263.265 73.181 262.945 72.6689 262.947 71.6847C262.949 70.7084 263.267 70.1943 263.775 70.1943C264.285 70.1943 264.603 70.7084 264.605 71.6847C264.605 72.6689 264.287 73.181 263.775 73.181Z" fill="#858585"/>
<path d="M267.889 71.3826H266.044V71.9787H267.889V71.3826Z" fill="#858585"/>
<path d="M270.309 69.6322H269.603L268.584 70.2863V70.9665L269.543 70.3544H269.567V73.7292H270.309V69.6322Z" fill="#858585"/>
<path d="M271.499 73.7292H272.269L274.01 70.2663V69.6322H271.219V70.2523H273.241V70.2803L271.499 73.7292Z" fill="#858585"/>
<path fill-rule="evenodd" clip-rule="evenodd" d="M221.275 51.1958C220.498 51.1958 219.867 51.8263 219.867 52.6041C219.867 53.3819 220.498 54.0125 221.275 54.0125H292.396C293.174 54.0125 293.805 53.3819 293.805 52.6041C293.805 51.8263 293.174 51.1958 292.396 51.1958H221.275ZM239.584 101.192C238.806 101.192 238.176 101.822 238.176 102.6C238.176 103.378 238.806 104.008 239.584 104.008H292.397C293.174 104.008 293.805 103.378 293.805 102.6C293.805 101.822 293.174 101.192 292.397 101.192H239.584ZM157.196 80.7708C157.196 79.993 157.827 79.3625 158.605 79.3625H211.417C212.195 79.3625 212.825 79.993 212.825 80.7708C212.825 81.5486 212.195 82.1791 211.417 82.1791H158.605C157.827 82.1791 157.196 81.5486 157.196 80.7708ZM226.908 79.3625C226.131 79.3625 225.5 79.993 225.5 80.7708C225.5 81.5487 226.131 82.1792 226.908 82.1792H279.721C280.499 82.1792 281.129 81.5487 281.129 80.7708C281.129 79.993 280.499 79.3625 279.721 79.3625H226.908ZM157.196 86.4041C157.196 85.6263 157.827 84.9958 158.605 84.9958H188.884C189.662 84.9958 190.292 85.6263 190.292 86.4041C190.292 87.1819 189.662 87.8125 188.884 87.8125H158.605C157.827 87.8125 157.196 87.1819 157.196 86.4041ZM226.908 84.9958C226.131 84.9958 225.5 85.6263 225.5 86.4041C225.5 87.1819 226.131 87.8125 226.908 87.8125H257.187C257.965 87.8125 258.596 87.1819 258.596 86.4041C258.596 85.6263 257.965 84.9958 257.187 84.9958H226.908Z" fill="#E6E6E6"/>
<g filter="url(#filter2_d_1334_9950)">
<rect x="30" y="157" width="185" height="39.9817" rx="4" fill="white"/>
</g>
<path d="M46.1699 175.974H48.3819C49.7392 175.974 50.5535 175.221 50.5535 174.132C50.5535 173.046 49.7392 172.345 48.3819 172.345H47.2413V170.958H49.9731V170.06H46.1699V175.974ZM47.2413 175.097V173.217H48.3819C49.0981 173.217 49.4937 173.621 49.4937 174.12C49.4937 174.64 49.0981 175.097 48.3819 175.097H47.2413Z" fill="#3C3A3E"/>
<path d="M52.7208 176.064C53.4167 176.064 53.8325 175.738 54.0231 175.365H54.0578V175.974H55.0627V173.006C55.0627 171.833 54.1069 171.481 53.2608 171.481C52.328 171.481 51.6119 171.897 51.3808 172.705L52.3569 172.844C52.4609 172.541 52.7554 172.281 53.2665 172.281C53.7517 172.281 54.0173 172.529 54.0173 172.965V172.983C54.0173 173.283 53.7026 173.297 52.92 173.381C52.0595 173.474 51.2365 173.731 51.2365 174.73C51.2365 175.602 51.8746 176.064 52.7208 176.064ZM52.9922 175.296C52.5562 175.296 52.2443 175.097 52.2443 174.712C52.2443 174.311 52.5937 174.144 53.0615 174.077C53.3358 174.04 53.8845 173.97 54.0202 173.861V174.383C54.0202 174.877 53.6217 175.296 52.9922 175.296Z" fill="#3C3A3E"/>
<path d="M55.8077 175.974H56.1312C57.0841 175.974 57.5144 175.304 57.5837 173.826L57.653 172.396H58.9265V175.974H59.9372V171.539H56.7029L56.625 173.502C56.5759 174.747 56.4142 175.114 55.955 175.114H55.802L55.8077 175.974Z" fill="#3C3A3E"/>
<path d="M62.2662 176.064C62.9621 176.064 63.3779 175.738 63.5685 175.365H63.6032V175.974H64.6081V173.006C64.6081 171.833 63.6523 171.481 62.8062 171.481C61.8734 171.481 61.1573 171.897 60.9263 172.705L61.9023 172.844C62.0063 172.541 62.3008 172.281 62.812 172.281C63.2971 172.281 63.5628 172.529 63.5628 172.965V172.983C63.5628 173.283 63.248 173.297 62.4654 173.381C61.6049 173.474 60.7819 173.731 60.7819 174.73C60.7819 175.602 61.4201 176.064 62.2662 176.064ZM62.5376 175.296C62.1016 175.296 61.7897 175.097 61.7897 174.712C61.7897 174.311 62.1391 174.144 62.6069 174.077C62.8813 174.04 63.4299 173.97 63.5656 173.861V174.383C63.5656 174.877 63.1671 175.296 62.5376 175.296Z" fill="#3C3A3E"/>
<path d="M66.6671 171.539H65.6593V175.974H66.6671V174.181H68.3853V175.974H69.3902V171.539H68.3853V173.323H66.6671V171.539Z" fill="#3C3A3E"/>
<path d="M72.3826 176.061C73.4973 176.061 74.2077 175.4 74.2828 174.458H73.2836C73.1941 174.935 72.8504 175.209 72.3913 175.209C71.7387 175.209 71.3171 174.663 71.3171 173.757C71.3171 172.861 71.7473 172.324 72.3913 172.324C72.8938 172.324 73.2028 172.648 73.2836 173.075H74.2828C74.2106 172.113 73.4598 171.481 72.3769 171.481C71.0774 171.481 70.2573 172.42 70.2573 173.774C70.2573 175.117 71.0572 176.061 72.3826 176.061Z" fill="#3C3A3E"/>
<rect x="45.5859" y="181.396" width="72.5092" height="2.71062" rx="1.35531" fill="#E6E6E6"/>
<rect x="144" y="169.198" width="60.989" height="15.5861" rx="3" fill="#F4774C"/>
<path d="M156.097 178.535H156.744V177.23H158.048V176.583H156.744V175.281H156.097V176.583H154.795V177.23H156.097V178.535Z" fill="white"/>
<path d="M163.072 174.434H159.27V179.362H160.011V175.069H162.331V179.362H163.072V174.434Z" fill="white"/>
<path d="M165.708 179.437C166.75 179.437 167.431 178.674 167.431 177.531C167.431 176.381 166.75 175.618 165.708 175.618C164.666 175.618 163.985 176.381 163.985 177.531C163.985 178.674 164.666 179.437 165.708 179.437ZM165.711 178.833C165.03 178.833 164.712 178.239 164.712 177.529C164.712 176.821 165.03 176.22 165.711 176.22C166.387 176.22 166.704 176.821 166.704 177.529C166.704 178.239 166.387 178.833 165.711 178.833Z" fill="white"/>
<path d="M168.234 179.362H168.935V176.287H170.545V179.362H171.25V175.666H168.234V179.362Z" fill="white"/>
<path d="M173.769 179.437C174.811 179.437 175.492 178.674 175.492 177.531C175.492 176.381 174.811 175.618 173.769 175.618C172.727 175.618 172.046 176.381 172.046 177.531C172.046 178.674 172.727 179.437 173.769 179.437ZM173.771 178.833C173.09 178.833 172.772 178.239 172.772 177.529C172.772 176.821 173.09 176.22 173.771 176.22C174.447 176.22 174.765 176.821 174.765 177.529C174.765 178.239 174.447 178.833 173.771 178.833Z" fill="white"/>
<path d="M176.004 179.362H176.235C177.041 179.362 177.337 178.766 177.394 177.543L177.452 176.287H178.66V179.362H179.365V175.666H176.786L176.721 177.303C176.675 178.443 176.545 178.739 176.133 178.739H176.001L176.004 179.362Z" fill="white"/>
<path d="M181.03 175.666H180.325V179.362H181.03V177.827H182.63V179.362H183.333V175.666H182.63V177.204H181.03V175.666Z" fill="white"/>
<path d="M185.001 178.354V175.666H184.296V179.362H185.078L186.7 176.672V179.362H187.405V175.666H186.63L185.001 178.354Z" fill="white"/>
<path d="M187.914 176.287H189.124V179.362H189.827V176.287H191.032V175.666H187.914V176.287Z" fill="white"/>
<path d="M192.499 176.937V175.666H191.793V179.362H193.408C194.313 179.362 194.818 178.838 194.818 178.142C194.818 177.433 194.313 176.937 193.408 176.937H192.499ZM192.499 177.558H193.408C193.822 177.558 194.118 177.808 194.118 178.164C194.118 178.501 193.822 178.742 193.408 178.742H192.499V177.558Z" fill="white"/>
</g>
<defs>
<filter id="filter0_d_1334_9950" x="-10" y="-2" width="420" height="237" filterUnits="userSpaceOnUse" color-interpolation-filters="sRGB">
<feFlood flood-opacity="0" result="BackgroundImageFix"/>
<feColorMatrix in="SourceAlpha" type="matrix" values="0 0 0 0 0 0 0 0 0 0 0 0 0 0 0 0 0 0 127 0" result="hardAlpha"/>
<feOffset/>
<feGaussianBlur stdDeviation="10"/>
<feComposite in2="hardAlpha" operator="out"/>
<feColorMatrix type="matrix" values="0 0 0 0 0.956863 0 0 0 0 0.466667 0 0 0 0 0.298039 0 0 0 0.16 0"/>
<feBlend mode="normal" in2="BackgroundImageFix" result="effect1_dropShadow_1334_9950"/>
<feBlend mode="normal" in="SourceGraphic" in2="effect1_dropShadow_1334_9950" result="shape"/>
</filter>
<filter id="filter1_d_1334_9950" x="111" y="5" width="229" height="144.5" filterUnits="userSpaceOnUse" color-interpolation-filters="sRGB">
<feFlood flood-opacity="0" result="BackgroundImageFix"/>
<feColorMatrix in="SourceAlpha" type="matrix" values="0 0 0 0 0 0 0 0 0 0 0 0 0 0 0 0 0 0 127 0" result="hardAlpha"/>
<feOffset/>
<feGaussianBlur stdDeviation="15"/>
<feComposite in2="hardAlpha" operator="out"/>
<feColorMatrix type="matrix" values="0 0 0 0 0.956863 0 0 0 0 0.466667 0 0 0 0 0.298039 0 0 0 0.2 0"/>
<feBlend mode="normal" in2="BackgroundImageFix" result="effect1_dropShadow_1334_9950"/>
<feBlend mode="normal" in="SourceGraphic" in2="effect1_dropShadow_1334_9950" result="shape"/>
</filter>
<filter id="filter2_d_1334_9950" x="0" y="127" width="245" height="99.9817" filterUnits="userSpaceOnUse" color-interpolation-filters="sRGB">
<feFlood flood-opacity="0" result="BackgroundImageFix"/>
<feColorMatrix in="SourceAlpha" type="matrix" values="0 0 0 0 0 0 0 0 0 0 0 0 0 0 0 0 0 0 127 0" result="hardAlpha"/>
<feOffset/>
<feGaussianBlur stdDeviation="15"/>
<feComposite in2="hardAlpha" operator="out"/>
<feColorMatrix type="matrix" values="0 0 0 0 0.956863 0 0 0 0 0.466667 0 0 0 0 0.298039 0 0 0 0.2 0"/>
<feBlend mode="normal" in2="BackgroundImageFix" result="effect1_dropShadow_1334_9950"/>
<feBlend mode="normal" in="SourceGraphic" in2="effect1_dropShadow_1334_9950" result="shape"/>
</filter>
<clipPath id="clip0_1334_9950">
<rect width="462" height="240" rx="4" fill="white"/>
</clipPath>
</defs>
</svg>
