<svg width="629" height="355" viewBox="0 0 629 355" fill="none" xmlns="http://www.w3.org/2000/svg">
<g clip-path="url(#clip0_1334_9553)">
<g filter="url(#filter0_d_1334_9553)">
<rect x="36" y="51" width="430" height="254" rx="12" fill="white"/>
<path d="M36 55C36 52.7909 37.7909 51 40 51H462C464.209 51 466 52.7909 466 55V85H36V55Z" fill="#3C3A3E"/>
<path d="M36 85H142V305H40C37.7909 305 36 303.209 36 301V85Z" fill="#EDEDED"/>
<rect x="142" y="85" width="189" height="1.99999" transform="rotate(90 142 85)" fill="#CBCBCB"/>
<rect x="46" y="105" width="80" height="4" rx="2" fill="#CBCBCB"/>
<rect x="46" y="183" width="80" height="4" rx="2" fill="#CBCBCB"/>
<rect x="46" y="119" width="60" height="4" rx="2" fill="#CBCBCB"/>
<rect x="46" y="197" width="60" height="4" rx="2" fill="#CBCBCB"/>
<rect x="46" y="133" width="69" height="4" rx="2" fill="#CBCBCB"/>
<rect x="46" y="211" width="69" height="4" rx="2" fill="#CBCBCB"/>
<rect x="46" y="147" width="47" height="4" rx="2" fill="#CBCBCB"/>
<rect x="46" y="225" width="47" height="4" rx="2" fill="#CBCBCB"/>
<rect x="46" y="261" width="60" height="4" rx="2" fill="#CBCBCB"/>
<line x1="142" y1="167.25" x2="36" y2="167.25" stroke="#CBCBCB" stroke-width="0.5"/>
<line x1="142" y1="245.25" x2="36" y2="245.25" stroke="#CBCBCB" stroke-width="0.5"/>
<line x1="142" y1="281.25" x2="36" y2="281.25" stroke="#CBCBCB" stroke-width="0.5"/>
<rect x="172" y="131" width="125" height="62" rx="4" fill="#F3F3F3"/>
<rect x="172" y="207" width="125" height="62" rx="4" fill="#F3F3F3"/>
<rect x="311" y="131" width="125" height="62" rx="4" fill="#F3F3F3"/>
<rect x="311" y="207" width="125" height="62" rx="4" fill="#F3F3F3"/>
<rect x="182" y="145" width="80" height="4" rx="2" fill="#CBCBCB"/>
<rect x="321" y="145" width="80" height="4" rx="2" fill="#CBCBCB"/>
<rect x="182" y="221" width="64" height="4" rx="2" fill="#CBCBCB"/>
<rect x="321" y="221" width="64" height="4" rx="2" fill="#CBCBCB"/>
<rect x="182" y="156" width="37" height="4" rx="2" fill="#CBCBCB"/>
<rect x="321" y="156" width="37" height="4" rx="2" fill="#CBCBCB"/>
<rect x="182" y="232" width="44" height="4" rx="2" fill="#CBCBCB"/>
<rect x="321" y="232" width="44" height="4" rx="2" fill="#CBCBCB"/>
<g clip-path="url(#clip1_1334_9553)">
<path fill-rule="evenodd" clip-rule="evenodd" d="M100.343 64.6606C101.479 64.8692 102.502 65.5031 103.222 66.4432C103.941 67.3833 104.306 68.565 104.249 69.7661C104.192 70.9673 103.716 72.1052 102.91 72.9663C102.105 73.8273 101.026 74.3521 99.8757 74.442C98.7254 74.5319 97.5832 74.1809 96.6638 73.4547C95.7443 72.7286 95.1107 71.6774 94.8822 70.4986C94.6537 69.3198 94.8459 68.0945 95.4227 67.0531C95.9995 66.0116 96.9212 65.2256 98.0147 64.8427C98.764 64.5808 99.5641 64.5182 100.343 64.6606ZM72.1058 71.695C72.1058 73.5396 70.9109 74.4605 68.521 74.4578H62.7324V64.6121H68.164C69.4521 64.6121 70.3561 64.7698 70.8799 65.0773C71.2625 65.284 71.5809 65.5998 71.798 65.988C72.015 66.3762 72.1218 66.8207 72.1058 67.2697C72.1127 67.7331 71.9921 68.189 71.7583 68.5832C71.5246 68.9775 71.1874 69.2937 70.7867 69.4945C71.1966 69.6736 71.5439 69.9794 71.7819 70.3707C72.0198 70.762 72.1369 71.22 72.1175 71.6829L72.1058 71.695ZM69.4366 67.5609C69.4366 66.942 69.0215 66.6306 68.1873 66.6306H65.2271V68.5196H68.1873C69.0215 68.5196 69.4366 68.2001 69.4366 67.5609ZM69.4366 71.4806C69.4366 70.8375 69.0253 70.5179 68.2028 70.5179H65.2271V72.4433H68.2222C69.0447 72.4433 69.456 72.1197 69.456 71.4806H69.4366ZM93.6771 74.4578H91.1941V70.5543H87.6092V74.4578H85.1185V64.6121H87.6092V68.3861H91.1941V64.6121H93.6771V74.4578ZM114.992 74.4578H111.64L107.823 69.6806V74.4578H105.332V64.6121H107.823V69.3408L111.838 64.6121H115.016L110.628 69.4298L115.016 74.4578H114.992ZM100.211 66.9178C99.8703 66.806 99.5116 66.7685 99.1568 66.8075C98.802 66.8465 98.4588 66.9613 98.1483 67.1446C97.8379 67.3279 97.567 67.5759 97.3525 67.8731C97.138 68.1703 96.9844 68.5104 96.9014 68.8722C96.8184 69.2339 96.8077 69.6096 96.87 69.9759C96.9323 70.3421 97.0662 70.6911 97.2635 71.001C97.4607 71.311 97.717 71.5753 98.0165 71.7775C98.3159 71.9797 98.6521 72.1155 99.004 72.1764C99.3892 72.257 99.7868 72.2473 100.168 72.1481C100.724 72.0018 101.217 71.6681 101.573 71.1989C101.928 70.7297 102.124 70.1513 102.131 69.5538C102.138 68.9562 101.955 68.3729 101.612 67.8947C101.268 67.4165 100.782 67.0702 100.23 66.9097L100.211 66.9178ZM79.7567 66.7681C80.346 67.0673 80.8207 67.5659 81.1032 68.1826C81.3857 68.7993 81.4593 69.4976 81.3121 70.1636C81.1649 70.8296 80.8055 71.4238 80.2925 71.8493C79.7796 72.2749 79.1435 72.5065 78.488 72.5065C77.8325 72.5065 77.1964 72.2749 76.6835 71.8493C76.1705 71.4238 75.8111 70.8296 75.6639 70.1636C75.5167 69.4976 75.5903 68.7993 75.8728 68.1826C76.1553 67.5659 76.63 67.0673 77.2193 66.7681V64.1348C75.9652 64.4579 74.868 65.2485 74.1346 66.3573C73.4013 67.4661 73.0826 68.8164 73.2387 70.1534C73.3948 71.4904 74.0149 72.7216 74.982 73.6146C75.949 74.5076 77.1962 75.0006 78.488 75.0006C79.7798 75.0006 81.027 74.5076 81.994 73.6146C82.9611 72.7216 83.5812 71.4904 83.7373 70.1534C83.8934 68.8164 83.5747 67.4661 82.8414 66.3573C82.108 65.2485 81.0108 64.4579 79.7567 64.1348V66.7681Z" fill="white"/>
<path fill-rule="evenodd" clip-rule="evenodd" d="M61.2968 70.7082C61.2968 73.1945 59.8548 74.4391 56.9709 74.4418H51C51 71.95 54.9922 72.0633 56.4588 72.0633C57.6511 72.0633 58.246 71.5239 58.2435 70.4452C58.2435 69.3612 57.6499 68.8272 56.4588 68.8272H53.0912V66.473H56.4316C57.6227 66.473 58.2124 65.9512 58.2124 64.9156C58.2124 63.8801 57.6149 63.3785 56.4316 63.3785C54.7323 63.3785 51 63.8316 51 61H56.4976C58.0805 61 59.1836 61.2036 59.807 61.6108C60.2754 61.9132 60.6574 62.341 60.9133 62.8497C61.1692 63.3584 61.2896 63.9293 61.2619 64.503C61.2859 65.1828 61.1139 65.8545 60.7681 66.4314C60.4223 67.0082 59.9186 67.4637 59.322 67.7391C60.6334 68.3216 61.2877 69.3194 61.2852 70.7324L61.2968 70.7082Z" fill="white"/>
<path fill-rule="evenodd" clip-rule="evenodd" d="M78.8569 71.1529C78.424 71.2445 77.974 71.1542 77.6046 70.9017C77.2353 70.6491 76.9765 70.2548 76.8844 69.8044C76.7924 69.354 76.8746 68.884 77.1132 68.4964C77.3518 68.1089 77.7275 67.8352 78.1585 67.7349V63.9648H78.9345V67.7349C79.1313 67.7825 79.3181 67.8675 79.4854 67.9856C79.7613 68.1794 79.9758 68.4543 80.1013 68.7755C80.2269 69.0967 80.258 69.4496 80.1906 69.7892C80.1232 70.1288 79.9604 70.4399 79.7229 70.6828C79.4854 70.9256 79.1839 71.0893 78.8569 71.1529Z" fill="white"/>
</g>
</g>
<g filter="url(#filter1_d_1334_9553)">
<rect x="273" y="31" width="240" height="120" rx="9" fill="white"/>
</g>
<path d="M296.294 61.1051H297.811V59H303.372V61.0966H304.889V57.7088H303.918V50.2727H298.339L298.109 53.9631C297.969 56.3153 297.47 57.2401 296.878 57.7088H296.294V61.1051ZM298.719 57.7088C299.183 56.946 299.52 55.7486 299.626 53.9631L299.763 51.598H302.401V57.7088H298.719ZM309.007 59.1278C310.532 59.1278 311.581 58.3821 311.853 57.2443L310.413 57.0824C310.204 57.6364 309.693 57.9261 309.028 57.9261C308.031 57.9261 307.37 57.2699 307.358 56.1491H311.917V55.6761C311.917 53.3793 310.537 52.3693 308.926 52.3693C307.051 52.3693 305.828 53.7457 305.828 55.7656C305.828 57.8196 307.034 59.1278 309.007 59.1278ZM307.362 55.1094C307.409 54.2741 308.027 53.571 308.947 53.571C309.833 53.571 310.43 54.2188 310.439 55.1094H307.362ZM312.677 53.7202H314.795V59H316.286V53.7202H318.404V52.4545H312.677V53.7202ZM321.246 59.1321C322.273 59.1321 322.887 58.6506 323.168 58.1009H323.219V59H324.702V54.6193C324.702 52.8892 323.292 52.3693 322.043 52.3693C320.667 52.3693 319.61 52.983 319.269 54.1761L320.71 54.3807C320.863 53.9332 321.298 53.5497 322.052 53.5497C322.768 53.5497 323.16 53.9162 323.16 54.5597V54.5852C323.16 55.0284 322.695 55.0497 321.54 55.1733C320.271 55.3097 319.056 55.6889 319.056 57.1634C319.056 58.4503 319.998 59.1321 321.246 59.1321ZM321.647 57.9986C321.004 57.9986 320.543 57.7045 320.543 57.1378C320.543 56.5455 321.059 56.2983 321.749 56.2003C322.154 56.1449 322.964 56.0426 323.164 55.8807V56.652C323.164 57.3807 322.576 57.9986 321.647 57.9986ZM325.802 59H326.279C327.685 59 328.32 58.0114 328.423 55.8295L328.525 53.7202H330.404V59H331.896V52.4545H327.123L327.008 55.3523C326.935 57.1889 326.697 57.7301 326.019 57.7301H325.793L325.802 59ZM334.936 56.9119V52.4545H333.449V59H335.038L337.651 54.5384V59H339.142V52.4545H337.557L334.936 56.9119ZM340.364 57.206C340.402 58.4205 341.515 59.1278 343.027 59.1278C344.578 59.1278 345.699 58.3906 345.699 57.1847C345.699 56.3026 345.098 55.6974 344.323 55.6506V55.5824C345.073 55.3821 345.55 54.9134 345.55 54.206C345.55 53.1023 344.596 52.3693 343.061 52.3693C341.63 52.3693 340.551 53.1108 340.53 54.2528H342.051C342.069 53.8139 342.52 53.5071 343.134 53.5071C343.748 53.5071 344.118 53.8352 344.118 54.321C344.118 54.7685 343.777 55.1009 343.138 55.1009H342.137V56.196H343.138C343.782 56.196 344.203 56.5582 344.203 57.0866C344.203 57.6832 343.679 57.973 343.019 57.973C342.367 57.973 341.924 57.6918 341.894 57.206H340.364ZM348.797 59.1321C349.824 59.1321 350.438 58.6506 350.719 58.1009H350.77V59H352.253V54.6193C352.253 52.8892 350.843 52.3693 349.594 52.3693C348.218 52.3693 347.161 52.983 346.82 54.1761L348.26 54.3807C348.414 53.9332 348.848 53.5497 349.603 53.5497C350.319 53.5497 350.711 53.9162 350.711 54.5597V54.5852C350.711 55.0284 350.246 55.0497 349.091 55.1733C347.821 55.3097 346.607 55.6889 346.607 57.1634C346.607 58.4503 347.549 59.1321 348.797 59.1321ZM349.198 57.9986C348.554 57.9986 348.094 57.7045 348.094 57.1378C348.094 56.5455 348.61 56.2983 349.3 56.2003C349.705 56.1449 350.515 56.0426 350.715 55.8807V56.652C350.715 57.3807 350.127 57.9986 349.198 57.9986ZM359.331 52.4545H357.857V57.7344H355.292V52.4545H353.804V59H358.824V61.1051H360.333V57.8494H359.331V52.4545ZM363.085 56.9119V52.4545H361.597V59H363.187L365.799 54.5384V59H367.29V52.4545H365.705L363.085 56.9119ZM372.744 59H374.189V52.4545H371.346C369.744 52.4545 368.751 53.277 368.755 54.5341C368.751 55.3608 369.203 55.9872 369.983 56.3068L368.517 59H370.034L371.376 56.5369H372.744V59ZM372.744 55.4119H371.295C370.618 55.4119 370.243 55.0582 370.247 54.5682C370.243 54.0781 370.639 53.7074 371.346 53.7074H372.744V55.4119Z" fill="#3C3A3E"/>
<path d="M304.331 124.217C304.062 122.278 302.571 121.153 300.636 121.153C298.357 121.153 296.639 122.815 296.639 125.636C296.639 128.453 298.335 130.119 300.636 130.119C302.712 130.119 304.088 128.777 304.331 127.111L302.737 127.102C302.537 128.125 301.702 128.7 300.658 128.7C299.243 128.7 298.229 127.639 298.229 125.636C298.229 123.668 299.234 122.572 300.662 122.572C301.723 122.572 302.554 123.173 302.737 124.217H304.331ZM306.728 132.455C307.93 132.455 308.624 131.837 308.995 130.793L311.624 123.463L309.975 123.455L308.462 128.398H308.394L306.886 123.455H305.249L307.623 130.136L307.491 130.49C307.205 131.236 306.754 131.287 306.08 131.091L305.722 132.293C305.931 132.378 306.306 132.455 306.728 132.455ZM316.462 128.206L314.57 123.455H312.695V130H314.182V125.589L315.925 130H317.003L318.806 125.543V130H320.28V123.455H318.405L316.462 128.206ZM325.603 128.206L323.711 123.455H321.836V130H323.323V125.589L325.066 130H326.144L327.946 125.543V130H329.421V123.455H327.546L325.603 128.206ZM332.86 130.132C333.887 130.132 334.5 129.651 334.782 129.101H334.833V130H336.316V125.619C336.316 123.889 334.905 123.369 333.657 123.369C332.28 123.369 331.223 123.983 330.882 125.176L332.323 125.381C332.476 124.933 332.911 124.55 333.665 124.55C334.381 124.55 334.773 124.916 334.773 125.56V125.585C334.773 126.028 334.309 126.05 333.154 126.173C331.884 126.31 330.669 126.689 330.669 128.163C330.669 129.45 331.611 130.132 332.86 130.132ZM333.26 128.999C332.617 128.999 332.157 128.705 332.157 128.138C332.157 127.545 332.672 127.298 333.363 127.2C333.767 127.145 334.577 127.043 334.777 126.881V127.652C334.777 128.381 334.189 128.999 333.26 128.999ZM340.843 132.455H342.386V128.969H342.45C342.693 129.446 343.2 130.115 344.325 130.115C345.868 130.115 347.022 128.892 347.022 126.736C347.022 124.554 345.833 123.369 344.321 123.369C343.166 123.369 342.684 124.064 342.45 124.537H342.36V123.455H340.843V132.455ZM342.356 126.727C342.356 125.457 342.902 124.635 343.895 124.635C344.922 124.635 345.45 125.509 345.45 126.727C345.45 127.955 344.913 128.849 343.895 128.849C342.91 128.849 342.356 127.997 342.356 126.727ZM350.227 130.132C351.254 130.132 351.868 129.651 352.149 129.101H352.2V130H353.683V125.619C353.683 123.889 352.272 123.369 351.024 123.369C349.647 123.369 348.591 123.983 348.25 125.176L349.69 125.381C349.843 124.933 350.278 124.55 351.032 124.55C351.748 124.55 352.14 124.916 352.14 125.56V125.585C352.14 126.028 351.676 126.05 350.521 126.173C349.251 126.31 348.037 126.689 348.037 128.163C348.037 129.45 348.978 130.132 350.227 130.132ZM350.627 128.999C349.984 128.999 349.524 128.705 349.524 128.138C349.524 127.545 350.039 127.298 350.73 127.2C351.135 127.145 351.944 127.043 352.145 126.881V127.652C352.145 128.381 351.556 128.999 350.627 128.999ZM358.089 130.128C359.734 130.128 360.782 129.152 360.893 127.763H359.419C359.287 128.466 358.779 128.871 358.102 128.871C357.139 128.871 356.517 128.065 356.517 126.727C356.517 125.406 357.152 124.614 358.102 124.614C358.843 124.614 359.299 125.091 359.419 125.722H360.893C360.787 124.303 359.679 123.369 358.081 123.369C356.163 123.369 354.953 124.754 354.953 126.753C354.953 128.734 356.133 130.128 358.089 130.128ZM363.374 123.455H361.738L363.681 126.727L361.687 130H363.323L364.695 127.643L366.08 130H367.704L365.697 126.727L367.67 123.455H366.038L364.695 125.871L363.374 123.455ZM371.472 130.128C373.39 130.128 374.608 128.777 374.608 126.753C374.608 124.724 373.39 123.369 371.472 123.369C369.554 123.369 368.336 124.724 368.336 126.753C368.336 128.777 369.554 130.128 371.472 130.128ZM371.48 128.892C370.419 128.892 369.9 127.946 369.9 126.749C369.9 125.551 370.419 124.592 371.48 124.592C372.525 124.592 373.044 125.551 373.044 126.749C373.044 127.946 372.525 128.892 371.48 128.892ZM375.338 131.901H376.855V130H381.138V131.901H382.629V128.73H381.615V123.455H376.885L376.697 125.747C376.574 127.213 376.412 128.3 375.858 128.73H375.338V131.901ZM377.443 128.73C377.857 128.121 378.01 127.132 378.121 125.747L378.223 124.699H380.141V128.73H377.443ZM386.636 130.128C388.554 130.128 389.772 128.777 389.772 126.753C389.772 124.724 388.554 123.369 386.636 123.369C384.718 123.369 383.5 124.724 383.5 126.753C383.5 128.777 384.718 130.128 386.636 130.128ZM386.645 128.892C385.583 128.892 385.064 127.946 385.064 126.749C385.064 125.551 385.583 124.592 386.645 124.592C387.689 124.592 388.208 125.551 388.208 126.749C388.208 127.946 387.689 128.892 386.645 128.892ZM391.082 130H394.252C395.786 130 396.664 129.305 396.664 128.223C396.664 127.307 395.952 126.668 394.925 126.578C395.799 126.416 396.344 125.952 396.344 125.214C396.344 124.111 395.377 123.455 393.83 123.455H391.082V130ZM392.526 128.786V127.162H394.252C394.819 127.162 395.164 127.49 395.164 128.031C395.164 128.5 394.819 128.786 394.252 128.786H392.526ZM392.526 126.165V124.69H393.83C394.474 124.69 394.866 124.963 394.866 125.411C394.866 125.879 394.487 126.165 393.86 126.165H392.526ZM398.887 130.094C399.39 130.094 399.821 129.676 399.825 129.156C399.821 128.645 399.39 128.227 398.887 128.227C398.368 128.227 397.946 128.645 397.95 129.156C397.946 129.676 398.368 130.094 398.887 130.094ZM398.887 125.419C399.39 125.419 399.821 125.001 399.825 124.482C399.821 123.97 399.39 123.553 398.887 123.553C398.368 123.553 397.946 123.97 397.95 124.482C397.946 125.001 398.368 125.419 398.887 125.419Z" fill="#3C3A3E"/>
<path d="M304.331 80.2173C304.062 78.2784 302.571 77.1534 300.636 77.1534C298.357 77.1534 296.639 78.8153 296.639 81.6364C296.639 84.4531 298.335 86.1193 300.636 86.1193C302.712 86.1193 304.088 84.777 304.331 83.1108L302.737 83.1023C302.537 84.125 301.702 84.7003 300.658 84.7003C299.243 84.7003 298.229 83.6392 298.229 81.6364C298.229 79.6676 299.234 78.5724 300.662 78.5724C301.723 78.5724 302.554 79.1733 302.737 80.2173H304.331ZM306.661 84.9517C307.164 84.9517 307.594 84.5341 307.598 84.0142C307.594 83.5028 307.164 83.0852 306.661 83.0852C306.141 83.0852 305.719 83.5028 305.723 84.0142C305.719 84.5341 306.141 84.9517 306.661 84.9517ZM306.661 80.6222C307.164 80.6222 307.594 80.2045 307.598 79.6847C307.594 79.1733 307.164 78.7557 306.661 78.7557C306.141 78.7557 305.719 79.1733 305.723 79.6847C305.719 80.2045 306.141 80.6222 306.661 80.6222Z" fill="#3C3A3E"/>
<path d="M400.982 77.2727H394.027V86H395.595V78.5852H399.413V86H400.982V77.2727ZM405.659 86.1278C407.577 86.1278 408.796 84.777 408.796 82.7528C408.796 80.7244 407.577 79.3693 405.659 79.3693C403.742 79.3693 402.523 80.7244 402.523 82.7528C402.523 84.777 403.742 86.1278 405.659 86.1278ZM405.668 84.892C404.607 84.892 404.087 83.946 404.087 82.7486C404.087 81.5511 404.607 80.5923 405.668 80.5923C406.712 80.5923 407.232 81.5511 407.232 82.7486C407.232 83.946 406.712 84.892 405.668 84.892ZM411.055 86.0938C411.558 86.0938 411.989 85.6761 411.993 85.1562C411.989 84.6449 411.558 84.2273 411.055 84.2273C410.536 84.2273 410.114 84.6449 410.118 85.1562C410.114 85.6761 410.536 86.0938 411.055 86.0938ZM411.055 81.419C411.558 81.419 411.989 81.0014 411.993 80.4815C411.989 79.9702 411.558 79.5526 411.055 79.5526C410.536 79.5526 410.114 79.9702 410.118 80.4815C410.114 81.0014 410.536 81.419 411.055 81.419Z" fill="#3C3A3E"/>
<path d="M314.517 86H318.506V85.1193H315.972V85.0795L316.974 84.0597C318.105 82.9744 318.418 82.446 318.418 81.7898C318.418 80.8153 317.625 80.1023 316.455 80.1023C315.301 80.1023 314.483 80.8182 314.483 81.9233H315.486C315.486 81.3295 315.861 80.9574 316.44 80.9574C316.994 80.9574 317.406 81.2955 317.406 81.8438C317.406 82.3295 317.111 82.6761 316.537 83.2585L314.517 85.2386V86ZM321.636 86.1108C323.04 86.1136 323.878 85.0057 323.878 83.0966C323.878 81.1989 323.034 80.1023 321.636 80.1023C320.239 80.1023 319.398 81.196 319.395 83.0966C319.395 85.0028 320.233 86.1108 321.636 86.1108ZM321.636 85.2216C320.912 85.2216 320.457 84.4943 320.46 83.0966C320.463 81.7102 320.915 80.9801 321.636 80.9801C322.361 80.9801 322.812 81.7102 322.815 83.0966C322.815 84.4943 322.364 85.2216 321.636 85.2216ZM324.822 86H328.81V85.1193H326.276V85.0795L327.279 84.0597C328.41 82.9744 328.722 82.446 328.722 81.7898C328.722 80.8153 327.93 80.1023 326.759 80.1023C325.606 80.1023 324.788 80.8182 324.788 81.9233H325.79C325.79 81.3295 326.165 80.9574 326.745 80.9574C327.299 80.9574 327.711 81.2955 327.711 81.8438C327.711 82.3295 327.415 82.6761 326.842 83.2585L324.822 85.2386V86ZM332.157 80.1818H331.154L329.708 81.1108V82.0767L331.069 81.2074H331.103V86H332.157V80.1818ZM336.29 82.6676H333.671V83.5142H336.29V82.6676ZM339.511 86.1108C340.915 86.1136 341.753 85.0057 341.753 83.0966C341.753 81.1989 340.909 80.1023 339.511 80.1023C338.114 80.1023 337.273 81.196 337.27 83.0966C337.27 85.0028 338.108 86.1108 339.511 86.1108ZM339.511 85.2216C338.787 85.2216 338.332 84.4943 338.335 83.0966C338.338 81.7102 338.79 80.9801 339.511 80.9801C340.236 80.9801 340.688 81.7102 340.69 83.0966C340.69 84.4943 340.239 85.2216 339.511 85.2216ZM344.717 80.1023C343.455 80.0938 342.617 80.9602 342.617 82.0966C342.62 83.1932 343.401 83.9858 344.421 83.9858C345.049 83.9858 345.594 83.6818 345.876 83.1818H345.915C345.913 84.4261 345.461 85.1676 344.657 85.1676C344.154 85.1676 343.816 84.8778 343.711 84.4148H342.674C342.793 85.3778 343.555 86.0795 344.657 86.0795C346.052 86.0795 346.941 84.9148 346.938 82.9119C346.935 80.7926 345.833 80.108 344.717 80.1023ZM344.719 80.9545C345.342 80.9545 345.799 81.4716 345.799 82.0653C345.802 82.6676 345.322 83.1847 344.708 83.1847C344.089 83.1847 343.643 82.696 343.64 82.0739C343.64 81.4489 344.103 80.9545 344.719 80.9545ZM350.54 82.6676H347.921V83.5142H350.54V82.6676ZM351.415 86H355.404V85.1193H352.87V85.0795L353.873 84.0597C355.004 82.9744 355.316 82.446 355.316 81.7898C355.316 80.8153 354.523 80.1023 353.353 80.1023C352.2 80.1023 351.381 80.8182 351.381 81.9233H352.384C352.384 81.3295 352.759 80.9574 353.339 80.9574C353.893 80.9574 354.305 81.2955 354.305 81.8438C354.305 82.3295 354.009 82.6761 353.435 83.2585L351.415 85.2386V86ZM358.535 86.1108C359.938 86.1136 360.776 85.0057 360.776 83.0966C360.776 81.1989 359.933 80.1023 358.535 80.1023C357.137 80.1023 356.296 81.196 356.293 83.0966C356.293 85.0028 357.131 86.1108 358.535 86.1108ZM358.535 85.2216C357.81 85.2216 357.356 84.4943 357.359 83.0966C357.362 81.7102 357.813 80.9801 358.535 80.9801C359.259 80.9801 359.711 81.7102 359.714 83.0966C359.714 84.4943 359.262 85.2216 358.535 85.2216Z" fill="#858585"/>
<path d="M418.517 86H422.506V85.1193H419.972V85.0795L420.974 84.0597C422.105 82.9744 422.418 82.446 422.418 81.7898C422.418 80.8153 421.625 80.1023 420.455 80.1023C419.301 80.1023 418.483 80.8182 418.483 81.9233H419.486C419.486 81.3295 419.861 80.9574 420.44 80.9574C420.994 80.9574 421.406 81.2955 421.406 81.8438C421.406 82.3295 421.111 82.6761 420.537 83.2585L418.517 85.2386V86ZM425.636 86.1108C427.04 86.1136 427.878 85.0057 427.878 83.0966C427.878 81.1989 427.034 80.1023 425.636 80.1023C424.239 80.1023 423.398 81.196 423.395 83.0966C423.395 85.0028 424.233 86.1108 425.636 86.1108ZM425.636 85.2216C424.912 85.2216 424.457 84.4943 424.46 83.0966C424.463 81.7102 424.915 80.9801 425.636 80.9801C426.361 80.9801 426.812 81.7102 426.815 83.0966C426.815 84.4943 426.364 85.2216 425.636 85.2216ZM428.822 86H432.81V85.1193H430.276V85.0795L431.279 84.0597C432.41 82.9744 432.722 82.446 432.722 81.7898C432.722 80.8153 431.93 80.1023 430.759 80.1023C429.606 80.1023 428.788 80.8182 428.788 81.9233H429.79C429.79 81.3295 430.165 80.9574 430.745 80.9574C431.299 80.9574 431.711 81.2955 431.711 81.8438C431.711 82.3295 431.415 82.6761 430.842 83.2585L428.822 85.2386V86ZM436.157 80.1818H435.154L433.708 81.1108V82.0767L435.069 81.2074H435.103V86H436.157V80.1818ZM440.29 82.6676H437.671V83.5142H440.29V82.6676ZM443.727 80.1818H442.724L441.278 81.1108V82.0767L442.639 81.2074H442.673V86H443.727V80.1818ZM447.355 86.1108C448.759 86.1136 449.597 85.0057 449.597 83.0966C449.597 81.1989 448.753 80.1023 447.355 80.1023C445.957 80.1023 445.116 81.196 445.114 83.0966C445.114 85.0028 445.952 86.1108 447.355 86.1108ZM447.355 85.2216C446.631 85.2216 446.176 84.4943 446.179 83.0966C446.182 81.7102 446.634 80.9801 447.355 80.9801C448.08 80.9801 448.531 81.7102 448.534 83.0966C448.534 84.4943 448.082 85.2216 447.355 85.2216ZM453.197 82.6676H450.577V83.5142H453.197V82.6676ZM456.634 80.1818H455.631L454.185 81.1108V82.0767L455.545 81.2074H455.58V86H456.634V80.1818ZM458.324 86H459.418L461.889 81.0824V80.1818H457.926V81.0625H460.798V81.1023L458.324 86Z" fill="#858585"/>
<rect x="385" y="54" width="105" height="4" rx="2" fill="#E6E6E6"/>
<rect x="411" y="125" width="79" height="4" rx="2" fill="#E6E6E6"/>
<rect x="296" y="94" width="79" height="4" rx="2" fill="#E6E6E6"/>
<rect x="393" y="94" width="79" height="4" rx="2" fill="#E6E6E6"/>
<rect x="296" y="102" width="47" height="4" rx="2" fill="#E6E6E6"/>
<rect x="393" y="102" width="47" height="4" rx="2" fill="#E6E6E6"/>
<g filter="url(#filter2_d_1334_9553)">
<rect x="16" y="191" width="273" height="59" rx="9" fill="white"/>
</g>
<path d="M39.8608 219H43.125C45.1278 219 46.3295 217.888 46.3295 216.281C46.3295 214.679 45.1278 213.643 43.125 213.643H41.4418V211.598H45.473V210.273H39.8608V219ZM41.4418 217.705V214.93H43.125C44.1818 214.93 44.7656 215.527 44.7656 216.264C44.7656 217.031 44.1818 217.705 43.125 217.705H41.4418ZM49.5277 219.132C50.5547 219.132 51.1683 218.651 51.4496 218.101H51.5007V219H52.9837V214.619C52.9837 212.889 51.5732 212.369 50.3246 212.369C48.9482 212.369 47.8913 212.983 47.5504 214.176L48.9908 214.381C49.1442 213.933 49.5788 213.55 50.3331 213.55C51.049 213.55 51.4411 213.916 51.4411 214.56V214.585C51.4411 215.028 50.9766 215.05 49.8217 215.173C48.5518 215.31 47.3374 215.689 47.3374 217.163C47.3374 218.45 48.2791 219.132 49.5277 219.132ZM49.9283 217.999C49.2848 217.999 48.8246 217.705 48.8246 217.138C48.8246 216.545 49.3402 216.298 50.0305 216.2C50.4354 216.145 51.245 216.043 51.4453 215.881V216.652C51.4453 217.381 50.8572 217.999 49.9283 217.999ZM54.0831 219H54.5604C55.9666 219 56.6016 218.011 56.7038 215.83L56.8061 213.72H58.6854V219H60.1768V212.455H55.4041L55.2891 215.352C55.2166 217.189 54.978 217.73 54.3004 217.73H54.0746L54.0831 219ZM63.6136 219.132C64.6406 219.132 65.2543 218.651 65.5355 218.101H65.5866V219H67.0696V214.619C67.0696 212.889 65.6591 212.369 64.4105 212.369C63.0341 212.369 61.9773 212.983 61.6364 214.176L63.0767 214.381C63.2301 213.933 63.6648 213.55 64.419 213.55C65.1349 213.55 65.527 213.916 65.527 214.56V214.585C65.527 215.028 65.0625 215.05 63.9077 215.173C62.6378 215.31 61.4233 215.689 61.4233 217.163C61.4233 218.45 62.3651 219.132 63.6136 219.132ZM64.0142 217.999C63.3707 217.999 62.9105 217.705 62.9105 217.138C62.9105 216.545 63.4261 216.298 64.1165 216.2C64.5213 216.145 65.331 216.043 65.5312 215.881V216.652C65.5312 217.381 64.9432 217.999 64.0142 217.999ZM70.108 212.455H68.6207V219H70.108V216.354H72.6435V219H74.1264V212.455H72.6435V215.088H70.108V212.455ZM78.5423 219.128C80.1871 219.128 81.2354 218.152 81.3462 216.763H79.8718C79.7397 217.466 79.2326 217.871 78.555 217.871C77.592 217.871 76.9698 217.065 76.9698 215.727C76.9698 214.406 77.6048 213.614 78.555 213.614C79.2965 213.614 79.7525 214.091 79.8718 214.722H81.3462C81.2397 213.303 80.1317 212.369 78.5337 212.369C76.6161 212.369 75.4059 213.754 75.4059 215.753C75.4059 217.734 76.5863 219.128 78.5423 219.128Z" fill="#3C3A3E"/>
<rect x="39" y="227" width="107" height="4" rx="2" fill="#E6E6E6"/>
<rect x="167" y="209" width="90" height="23" rx="3" fill="#F4774C"/>
<path d="M184.852 222.778H185.807V220.854H187.732V219.898H185.807V217.977H184.852V219.898H182.93V220.854H184.852V222.778ZM195.145 216.727H189.534V224H190.627V217.665H194.051V224H195.145V216.727ZM199.035 224.11C200.572 224.11 201.577 222.984 201.577 221.298C201.577 219.6 200.572 218.474 199.035 218.474C197.497 218.474 196.492 219.6 196.492 221.298C196.492 222.984 197.497 224.11 199.035 224.11ZM199.038 223.219C198.033 223.219 197.565 222.342 197.565 221.294C197.565 220.25 198.033 219.362 199.038 219.362C200.036 219.362 200.505 220.25 200.505 221.294C200.505 222.342 200.036 223.219 199.038 223.219ZM202.763 224H203.796V219.462H206.172V224H207.212V218.545H202.763V224ZM210.929 224.11C212.467 224.11 213.472 222.984 213.472 221.298C213.472 219.6 212.467 218.474 210.929 218.474C209.392 218.474 208.387 219.6 208.387 221.298C208.387 222.984 209.392 224.11 210.929 224.11ZM210.933 223.219C209.928 223.219 209.459 222.342 209.459 221.294C209.459 220.25 209.928 219.362 210.933 219.362C211.931 219.362 212.4 220.25 212.4 221.294C212.4 222.342 211.931 223.219 210.933 223.219ZM214.227 224H214.568C215.758 224 216.195 223.119 216.28 221.315L216.365 219.462H218.148V224H219.188V218.545H215.382L215.286 220.96C215.218 222.643 215.026 223.08 214.419 223.08H214.224L214.227 224ZM221.645 218.545H220.604V224H221.645V221.734H224.006V224H225.043V218.545H224.006V220.815H221.645V218.545ZM227.504 222.512V218.545H226.464V224H227.618L230.011 220.03V224H231.052V218.545H229.908L227.504 222.512ZM231.803 219.462H233.589V224H234.626V219.462H236.405V218.545H231.803V219.462ZM238.569 220.42V218.545H237.528V224H239.911C241.246 224 241.992 223.226 241.992 222.2C241.992 221.152 241.246 220.42 239.911 220.42H238.569ZM238.569 221.337H239.911C240.522 221.337 240.959 221.706 240.959 222.232C240.959 222.729 240.522 223.084 239.911 223.084H238.569V221.337Z" fill="white"/>
</g>
<defs>
<filter id="filter0_d_1334_9553" x="6" y="21" width="490" height="314" filterUnits="userSpaceOnUse" color-interpolation-filters="sRGB">
<feFlood flood-opacity="0" result="BackgroundImageFix"/>
<feColorMatrix in="SourceAlpha" type="matrix" values="0 0 0 0 0 0 0 0 0 0 0 0 0 0 0 0 0 0 127 0" result="hardAlpha"/>
<feOffset/>
<feGaussianBlur stdDeviation="15"/>
<feComposite in2="hardAlpha" operator="out"/>
<feColorMatrix type="matrix" values="0 0 0 0 0.956863 0 0 0 0 0.466667 0 0 0 0 0.298039 0 0 0 0.2 0"/>
<feBlend mode="normal" in2="BackgroundImageFix" result="effect1_dropShadow_1334_9553"/>
<feBlend mode="normal" in="SourceGraphic" in2="effect1_dropShadow_1334_9553" result="shape"/>
</filter>
<filter id="filter1_d_1334_9553" x="243" y="1" width="300" height="180" filterUnits="userSpaceOnUse" color-interpolation-filters="sRGB">
<feFlood flood-opacity="0" result="BackgroundImageFix"/>
<feColorMatrix in="SourceAlpha" type="matrix" values="0 0 0 0 0 0 0 0 0 0 0 0 0 0 0 0 0 0 127 0" result="hardAlpha"/>
<feOffset/>
<feGaussianBlur stdDeviation="15"/>
<feComposite in2="hardAlpha" operator="out"/>
<feColorMatrix type="matrix" values="0 0 0 0 0.956863 0 0 0 0 0.466667 0 0 0 0 0.298039 0 0 0 0.2 0"/>
<feBlend mode="normal" in2="BackgroundImageFix" result="effect1_dropShadow_1334_9553"/>
<feBlend mode="normal" in="SourceGraphic" in2="effect1_dropShadow_1334_9553" result="shape"/>
</filter>
<filter id="filter2_d_1334_9553" x="-14" y="161" width="333" height="119" filterUnits="userSpaceOnUse" color-interpolation-filters="sRGB">
<feFlood flood-opacity="0" result="BackgroundImageFix"/>
<feColorMatrix in="SourceAlpha" type="matrix" values="0 0 0 0 0 0 0 0 0 0 0 0 0 0 0 0 0 0 127 0" result="hardAlpha"/>
<feOffset/>
<feGaussianBlur stdDeviation="15"/>
<feComposite in2="hardAlpha" operator="out"/>
<feColorMatrix type="matrix" values="0 0 0 0 0.956863 0 0 0 0 0.466667 0 0 0 0 0.298039 0 0 0 0.2 0"/>
<feBlend mode="normal" in2="BackgroundImageFix" result="effect1_dropShadow_1334_9553"/>
<feBlend mode="normal" in="SourceGraphic" in2="effect1_dropShadow_1334_9553" result="shape"/>
</filter>
<clipPath id="clip0_1334_9553">
<rect width="629" height="355" fill="white"/>
</clipPath>
<clipPath id="clip1_1334_9553">
<rect width="64" height="14" fill="white" transform="translate(51 61)"/>
</clipPath>
</defs>
</svg>
