<svg width="50" height="50" viewBox="0 0 50 50" fill="none" xmlns="http://www.w3.org/2000/svg">
<circle cx="25" cy="25" r="25" fill="#F5F5F5"/>
<mask id="mask0_328_15847" style="mask-type:alpha" maskUnits="userSpaceOnUse" x="0" y="0" width="50" height="50">
<circle cx="25" cy="25" r="25" fill="white"/>
</mask>
<g mask="url(#mask0_328_15847)">
<path d="M40.6496 48.5254L40.2246 35.7754H44.8996L45.3246 47.2504L44.8996 48.5254H40.6496Z" fill="white"/>
<path d="M4.52461 48.1002L4.09961 36.2002H8.77461V47.6752L7.92461 48.1002H4.52461Z" fill="white"/>
<path d="M10.8998 59.575L10.0498 37.05L38.9498 36.625L39.3748 60L10.8998 59.575Z" fill="white"/>
<path d="M29.7139 11.3828L30.1904 14.7188H32.0967L31.1436 11.3828H29.7139Z" fill="white"/>
<path d="M20.1826 11.3828L19.7061 14.7188H17.7998L18.7529 11.3828H20.1826Z" fill="white"/>
<path d="M12.0811 16.1484L13.0342 15.1953H33.5264L38.2921 15.6719L38.7687 32.3516L34.003 33.3048L18.753 33.7813L11.1279 32.8282L12.0811 16.1484Z" fill="white"/>
<path d="M12.0774 31.6224C12.1381 31.5517 12.1381 31.5517 12.1332 31.4859C12.0587 30.5001 12.05 29.5093 12.0462 28.5842C12.0536 26.9311 12.0659 25.3438 12.139 23.6858L12.2319 22.2907C12.2319 22.2907 12.2034 21.037 12.2455 19.844C12.2218 18.656 12.661 17.0884 12.6052 17.2248C12.522 15.2481 12.2863 13.8778 11.6044 17.1021C11.411 18.0421 10.8305 19.4882 10.7028 20.4232C10.5752 21.3582 10.4933 22.0254 10.4933 22.0254L10.4203 23.6834C10.3472 25.3414 10.3398 26.9944 10.3324 28.6475C10.3412 29.6383 10.3499 30.6291 10.4243 31.615C10.4293 31.6807 10.5 31.7415 10.5 31.7415C11.2267 32.612 11.8443 32.0366 12.0774 31.6224Z" fill="#F4774C"/>
<path d="M36.183 14.731C34.8436 14.5017 33.0492 14.3728 32.1191 14.3108C32.1749 14.1744 32.165 14.043 32.2208 13.9065C32.3225 13.5023 32.3535 13.0373 32.3237 12.6429C32.3596 12.2436 32.3398 11.9807 32.3398 11.9807L32.3199 11.7178L32.2852 11.2577L32.14 10.2111L31.0835 10.2248L30.2898 10.2186C29.9562 10.1777 29.6276 10.2025 29.304 10.2931L28.3888 10.4283L28.5885 12.1979L28.7237 13.1131C28.7535 13.5074 28.8441 13.8311 28.8738 14.2254L20.0171 14.2333C20.0121 14.1676 20.0778 14.1626 20.0729 14.0969C20.1795 13.7583 20.2812 13.354 20.3878 13.0155C20.4287 12.6819 20.4746 12.414 20.4746 12.414C20.4448 12.0197 20.4151 11.6254 20.3853 11.231L20.3406 10.6395L19.7999 10.482C19.4613 10.3754 19.2642 10.3903 19.067 10.4052C18.8698 10.42 18.7384 10.43 18.5462 10.5106C18.4805 10.5155 18.354 10.5912 18.2225 10.6011L17.8331 10.6966L17.1251 10.9484L17.1028 12.4043C17.1227 12.6672 17.0818 13.0007 17.1016 13.2636C17.1215 13.5265 17.1463 13.8552 17.1711 14.1838C17.1711 14.1838 17.1711 14.1838 17.1761 14.2495L15.6545 14.2323L12.682 14.2584C12.6163 14.2634 12.5555 14.3341 12.5555 14.3341C11.6242 15.1315 12.1996 15.749 12.6138 15.9822C12.6845 16.0429 12.6845 16.0429 12.7503 16.0379L15.7227 16.0117L30.0037 16.057L31.3938 16.0842C31.3938 16.0842 36.3938 15.7727 36.126 15.7268C38.1584 15.5072 39.3874 15.15 36.183 14.731ZM19.0263 14.242C19.0213 14.1763 19.0114 14.0448 19.0064 13.9791C18.9915 13.7819 18.9766 13.5848 18.9617 13.3876C19.0573 13.777 19.1478 14.1006 19.1478 14.1006C19.1528 14.1663 19.1527 14.1663 19.2234 14.2271L19.0263 14.242ZM30.6633 14.2886C30.5628 13.8335 30.5281 13.3734 30.4933 12.9133L30.3532 11.9324L30.5503 11.9175L30.5652 12.1147C30.5652 12.1147 30.7364 12.6306 30.9025 13.0807C31.0687 13.5309 31.2349 13.981 31.2349 13.981C31.2399 14.0467 31.3156 14.1732 31.3863 14.234L30.6633 14.2886Z" fill="#F4774C"/>
<path d="M39.2925 27.849C39.2887 26.9239 39.3048 26.2617 39.3048 26.2617L39.1807 24.6186C39.1025 22.7076 39.0292 20.8623 39.0874 19.0072C39.1494 18.0771 39.2064 17.0813 39.3341 16.1463C39.3291 16.0805 39.3242 16.0148 39.2585 16.0198C38.6532 15.0079 37.8894 15.3961 37.5905 15.8152C37.5298 15.8859 37.5297 15.8859 37.5347 15.9517C37.412 16.9524 37.2893 17.9532 37.2372 19.0147C37.184 20.9356 37.1965 22.8515 37.3404 24.7575L37.4496 26.2035C37.4496 26.2035 37.6097 27.4473 37.7647 28.6254C37.9198 29.8034 38.0749 30.9815 38.0699 30.9158C38.1753 31.4366 38.2101 31.8967 38.3006 32.2204C38.0377 32.2402 37.7041 32.1993 37.3098 32.2291C35.3938 32.2416 32.6892 32.3136 32.6892 32.3136L31.051 32.5034C25.798 32.9662 20.2425 33.0228 14.9399 32.8283C13.9441 32.7713 12.1862 32.049 11.1904 31.992C11.1247 31.997 11.0639 32.0676 11.0639 32.0676C10.1277 32.7993 10.6423 33.4876 10.9908 33.7256C11.0615 33.7864 11.0615 33.7864 11.1272 33.7815C12.123 33.8385 14.4256 34.2667 15.4165 34.258C20.7848 34.4475 25.8664 34.7458 31.2508 34.273L32.6967 34.1638C32.6967 34.1638 33.0253 34.139 33.4804 34.0386C33.9356 33.9381 34.5221 33.8277 35.1744 33.7123C36.4133 33.4866 37.5814 33.2 37.45 33.21C37.9051 33.1095 38.2895 32.9483 38.6131 32.8578C38.6838 32.9185 38.7496 32.9135 38.7396 32.7821C39.382 32.5353 39.63 32.3183 38.8971 32.2414C38.938 31.9078 39.0397 31.5035 39.0607 30.9071C39.2492 29.9013 39.2962 28.7741 39.2925 27.849Z" fill="#F4774C"/>
<path d="M17.7556 19.2953C18.0743 19.139 18.3372 19.1192 18.6101 19.2308C18.6101 19.2308 18.6708 19.1601 18.7366 19.1551C19.116 18.9282 19.4955 18.7012 19.5364 18.3676C19.5822 18.0998 19.421 17.7153 19.209 17.5331C19.1383 17.4723 19.1383 17.4723 19.0725 17.4773C18.4004 17.3297 17.6774 17.3843 17.0351 17.6311C16.3927 17.878 15.8967 18.312 15.5371 18.8018C15.056 19.4331 14.7261 20.3173 14.7956 21.2374C14.8105 21.4346 14.8961 21.6925 14.911 21.8897C14.9916 22.0819 15.0722 22.2741 15.1529 22.4663C15.3091 22.785 15.6018 23.1595 15.8895 23.4683C16.3843 23.8936 17.0007 24.1776 17.6678 24.2594C17.6678 24.2594 18.1329 24.2904 18.7194 24.18C19.306 24.0696 20.0041 23.6864 20.5609 23.1816C20.8039 22.8989 21.047 22.6161 21.2194 22.2726C21.3917 21.9291 21.4984 21.5905 21.4785 21.3276C21.4996 20.7311 21.3383 20.3467 21.3433 20.4125C21.0965 19.7701 20.6066 19.4105 20.2631 19.2381C19.9196 19.0658 19.6517 19.0199 19.5203 19.0298C19.3888 19.0398 19.4645 19.1663 19.6158 19.4192C19.6865 19.48 19.7572 19.5407 19.7621 19.6065C19.8328 19.6672 19.9085 19.7937 19.9791 19.8545C20.1255 20.0417 20.2768 20.2947 20.3016 20.6233C20.4219 21.3413 19.6829 22.0581 19.0405 22.3049C18.7218 22.4612 18.3932 22.486 18.196 22.5009C17.9988 22.5158 17.8674 22.5257 17.8674 22.5257C17.5388 22.5506 17.1953 22.3782 16.9832 22.1959C16.8418 22.0744 16.6955 21.8871 16.6099 21.6292C16.5343 21.5027 16.5293 21.437 16.4586 21.3762C16.4536 21.3105 16.378 21.184 16.4387 21.1134C16.409 20.719 16.5106 20.3147 16.8095 19.8955C17.184 19.6029 17.4977 19.3809 17.7556 19.2953Z" fill="#F4774C"/>
<path d="M34.4785 20.1489C34.4028 20.0224 34.3979 19.9567 34.3979 19.9567C34.0246 19.39 33.6054 19.0912 33.2012 18.9895C32.8576 18.8171 32.5898 18.7713 32.4633 18.8469C32.3318 18.8569 32.4075 18.9834 32.5588 19.2363C32.7002 19.3579 32.8415 19.4793 32.9879 19.6666C33.1342 19.8538 33.3512 20.1019 33.4418 20.4255C33.5224 20.6177 33.5323 20.7492 33.4815 20.9513C33.4257 21.0877 33.3749 21.2899 33.2533 21.4312C33.076 21.709 32.6966 21.936 32.3779 22.0923C32.0592 22.2485 31.7305 22.2733 31.5383 22.354C31.3412 22.3688 31.2097 22.3788 31.2097 22.3788C30.8154 22.4085 30.4768 22.3019 30.204 22.1903C29.8555 21.9522 29.6236 21.5071 29.5839 20.9813C29.564 20.7184 29.5492 20.5212 29.6657 20.3141C29.7166 20.112 29.8381 19.9706 30.0203 19.7585C30.4506 19.3294 31.2951 19.1335 32.0987 19.2711C32.1644 19.2661 32.2252 19.1954 32.2252 19.1954C32.6654 18.8978 32.9035 18.5493 32.8836 18.2864C32.8638 18.0235 32.6418 17.7098 32.4298 17.5275C32.3591 17.4667 32.3591 17.4667 32.2933 17.4717C31.6919 17.3849 31.1004 17.4296 30.5188 17.6057C29.9322 17.7161 29.3605 18.0236 28.7988 18.4627C28.4293 18.8211 28.1304 19.2402 27.968 19.7152C27.8056 20.1902 27.7795 20.7209 27.8143 21.181C27.9148 21.6361 27.9495 22.0962 28.1814 22.5414C28.4134 22.9866 28.711 23.4268 29.1959 23.7206C29.7514 24.0753 30.4236 24.2228 31.0201 24.2439C31.0201 24.2439 31.4144 24.2141 32.001 24.1037C32.5168 23.9325 33.2199 23.615 33.7718 23.0446C34.3285 22.5398 34.7291 21.7164 34.6137 21.0641C34.6397 20.5334 34.5591 20.3411 34.4785 20.1489Z" fill="#F4774C"/>
<path d="M34.9968 27.2289L34.931 27.2339C34.7289 27.183 34.5317 27.1979 34.3345 27.2128C34.0617 27.1012 32.5343 27.6702 31.5993 27.5425C29.7292 27.2872 27.2027 27.3347 27.2027 27.3347L25.5497 27.3273L20.1962 27.335L16.7044 26.1919C16.6387 26.1969 16.578 26.2676 16.578 26.2676C16.2692 26.5553 16.0869 26.7673 16.1068 27.0302C13.8064 27.204 15.8439 27.0501 15.1209 27.1047C15.1259 27.1704 15.1259 27.1704 15.1308 27.2361C15.1407 27.3676 15.1507 27.4991 15.1656 27.6962C15.1904 28.0248 15.1495 28.3584 15.1495 28.3584C15.1495 28.3584 15.4422 28.7329 15.5079 28.7279C15.5786 28.7887 15.715 28.8445 15.8514 28.9003C15.8155 29.2996 16.1689 29.6034 16.3809 29.7857C16.4516 29.8465 16.4516 29.8465 16.5174 29.8415L20.0091 30.9846L25.6912 30.9521L27.0764 30.9136C27.0764 30.9136 32.0764 30.6021 31.8086 30.5562C32.2029 30.5264 33.386 29.5318 33.6489 29.512C33.7245 29.6385 33.7952 29.6992 33.7952 29.6992C34.0073 29.8815 34.4116 29.9832 34.7811 29.6248C35.0291 29.4077 35.2015 29.0642 35.2015 29.0642C35.2015 29.0642 35.1667 28.6042 35.137 28.2098C35.1221 28.0126 34.9968 27.2289 35.0923 27.6183C35.0017 27.2946 34.9968 27.2289 34.9968 27.2289ZM33.5 29.0002C33.2979 28.9494 32.0627 29.5455 31.7949 29.4996C29.5 29.8415 26.9647 29.8415 26.9647 29.8415L20.6366 29.6992L18.5 29.5002L17 28.0002C17.5258 27.9605 31.7021 28.7282 31.5 28.6774C31.7629 28.6576 33.2333 28.095 33.4255 28.0144C33.4355 28.1458 33.4504 28.343 33.4603 28.4745C33.4752 28.6716 33.4901 28.8688 33.5 29.0002Z" fill="#F4774C"/>
<path d="M30.0531 48.6146C29.8994 48.9209 29.6329 49.2948 29.3664 49.6686C29.0999 50.0424 28.7703 50.362 28.4408 50.6816L27.5694 51.6317C27.4068 51.8208 27.2398 51.9513 27.0773 52.1404C26.9733 52.3251 26.8063 52.4556 26.7024 52.6403L26.061 53.514L25.9028 53.7617L25.8531 53.8834L25.7989 53.9464L26.5565 53.8303C27.5485 53.6964 28.5404 53.5625 29.5369 53.4873L29.9472 53.4563L30.2988 53.4297L31.0066 53.4352C31.4755 53.3998 31.9489 53.423 32.3636 53.4506L32.5394 53.4374L32.7153 53.4241L32.8955 53.4694L33.6122 53.5921L33.9683 53.6242L34.1485 53.6695L34.2658 53.6607L34.3244 53.6563C34.3244 53.6563 34.3244 53.6562 34.3199 53.5976L34.3255 52.8899L34.3309 52.1821L34.3542 51.7088L34.4182 50.9965C34.4646 50.0499 34.5697 49.0988 34.6747 48.1477C34.7797 47.1966 34.8217 46.1913 34.742 45.1363C34.7022 44.6088 34.6668 44.1399 34.5639 43.5581C34.5462 43.3237 34.4698 43.0937 34.3935 42.8637L34.3084 42.5164L34.2365 42.345L34.2321 42.2864C34.2321 42.2864 34.232 42.2864 34.1734 42.2908L34.0562 42.2997L32.8165 42.2754L27.0326 42.1816L24.1428 42.1641C23.1375 42.1221 22.2539 42.1299 21.3072 42.0835C20.3606 42.0371 19.3553 41.9951 18.3003 42.0748C18.0658 42.0925 17.7727 42.1146 17.5427 42.1909C17.3669 42.2042 17.1324 42.2219 16.898 42.2396C16.6635 42.2573 16.3118 42.2839 15.9104 42.4321C15.509 42.5803 15.1839 42.9585 15.0301 43.2649C14.6641 43.882 14.6498 44.4726 14.5724 45.009C14.5536 45.5409 14.5934 46.0684 14.5702 46.5417L14.6233 47.2451C14.6366 47.4209 14.5957 47.6598 14.6134 47.8943L14.6069 49.3685C14.6146 50.2521 14.6269 51.1943 14.6932 52.0735C14.6977 52.1321 14.7607 52.1863 14.7607 52.1863C15.0803 52.5159 15.3192 52.5568 15.5537 52.5391C15.2695 52.6784 15.6975 52.8819 17.2435 53.0599C18.0774 53.1737 19.0871 53.2743 19.921 53.3882C20.1012 53.4335 20.3357 53.4158 20.4573 53.4656C20.6376 53.5109 20.7548 53.5021 20.872 53.4932C21.1109 53.5341 21.2868 53.5208 21.2868 53.5208C21.5843 53.5573 21.9404 53.5894 22.292 53.5628C22.4679 53.5495 22.6481 53.5949 22.824 53.5816C23.0584 53.5639 23.2929 53.5462 23.586 53.524C23.7032 53.5152 23.8746 53.4433 23.9918 53.4345C24.109 53.4256 24.3347 53.2907 24.4475 53.2232C24.9528 52.8903 25.278 52.512 25.5489 52.1969L25.874 51.8186C25.9824 51.6926 26.0366 51.6295 26.1991 51.4404L26.8494 50.6839C27.2829 50.1796 27.7208 49.7339 28.1587 49.2882C28.5966 48.8425 29.0976 48.451 29.5488 48.1811C29.7744 48.0462 30.0044 47.9699 30.1802 47.9566C30.2389 47.9522 30.2975 47.9477 30.2975 47.9477C30.2975 47.9477 30.2975 47.9477 30.3561 47.9433L30.4191 47.9975C30.4191 47.9975 30.4191 47.9975 30.4236 48.0561C30.2068 48.3083 30.157 48.4299 30.0531 48.6146ZM31.754 47.7198C31.6776 47.4898 31.6013 47.2598 31.4122 47.0972C31.2187 46.8761 30.9709 46.7179 30.669 46.6228C30.3671 46.5277 30.0696 46.4913 29.8352 46.509C29.3076 46.5488 28.9106 46.7556 28.5722 46.958C27.8954 47.3628 27.3989 47.813 26.8481 48.3261C26.356 48.8349 25.9225 49.3392 25.489 49.8435L24.8388 50.6C24.7846 50.663 24.6221 50.8521 24.5137 50.9782L24.1886 51.3564C23.9718 51.6086 23.6965 51.8652 23.5295 51.9957C23.4167 52.0632 23.4167 52.0632 23.2453 52.1351C23.128 52.1439 22.9566 52.2158 22.8394 52.2246C22.7808 52.2291 22.6636 52.2379 22.605 52.2423L22.5463 52.2468L22.4291 52.2556L22.2533 52.2689C21.9602 52.291 21.7213 52.2501 21.4238 52.2136C21.4238 52.2136 21.1308 52.2358 20.7161 52.2082C20.2472 52.2436 19.7196 52.2834 19.1877 52.2646C18.1326 52.3443 17.019 52.4284 17.1362 52.4196C16.5501 52.4638 16.0856 52.5578 15.7384 52.643C15.9054 52.5125 16.0137 52.3864 16.1177 52.2017C16.1719 52.1387 16.1719 52.1387 16.1674 52.0801C16.1055 51.2595 16.0977 50.3759 16.0943 49.5509L16.1053 48.1353C16.0876 47.9008 16.1285 47.662 16.1064 47.3689L16.0488 46.6069C16.0134 46.138 15.978 45.6691 16.0056 45.2544C16.0333 44.8397 16.1195 44.4205 16.2234 44.2359C16.2732 44.1142 16.3318 44.1097 16.386 44.0467C16.4446 44.0423 16.616 43.9704 16.7919 43.9571C17.0263 43.9394 17.2608 43.9217 17.5539 43.8996C17.7883 43.8819 18.0183 43.8056 18.1942 43.7923C19.0734 43.7259 20.02 43.7723 20.9667 43.8187C21.9134 43.8651 22.9728 43.844 23.8609 43.8949L26.7506 43.9124L32.4759 44.0106L32.6518 43.9973C32.7414 44.4032 32.7768 44.8721 32.8122 45.341C32.8786 46.2202 32.8322 47.1668 32.7272 48.1179C32.6808 49.0646 32.5757 50.0157 32.4752 51.0254L32.4155 51.7962L32.4332 52.0307L32.1943 51.9897C31.6624 51.971 31.189 51.9478 30.6571 51.929C30.4226 51.9467 30.1882 51.9644 29.8907 51.9279L29.1873 51.9811L29.2957 51.855C29.6208 51.4767 29.9504 51.1571 30.2711 50.7203C30.5962 50.342 30.9169 49.9052 31.1701 49.3555C31.3282 49.1078 31.4234 48.8059 31.451 48.3912C31.7894 48.1888 31.7717 47.9543 31.754 47.7198Z" fill="#F4774C"/>
<path d="M47.438 63.3935C47.1096 62.9468 46.7855 62.5586 46.4073 62.2335C46.2182 62.0709 46.0291 61.9083 45.7857 61.8088C45.7769 61.6916 45.6508 61.5832 45.4031 61.4251C44.9707 61.163 44.3668 60.9728 44.3668 60.9728C44.3668 60.9728 43.4202 60.9264 42.4779 60.9386C42.0046 60.9154 41.5357 60.9509 41.1796 60.9188C41.121 60.9232 41.0038 60.9321 40.9451 60.9365C40.9363 60.8193 40.9905 60.7562 40.9816 60.639C41.2094 58.9713 41.3796 56.5416 41.3796 56.5416L41.3861 55.0674L41.3628 52.4165C41.3638 51.6501 41.3063 50.8882 41.3118 50.1804C42.3713 50.1593 43.9627 50.157 43.9627 50.157C43.9627 50.157 44.0213 50.1526 44.1385 50.1437L44.1574 52.736L44.1785 53.7955L44.2128 55.0308C44.2128 55.0308 44.4906 59.4898 44.536 59.3095C44.7274 61.0635 45.109 62.2136 45.424 59.3603C45.6517 57.6926 45.822 55.2629 45.822 55.2629L45.8285 53.7888L45.8074 52.7293L45.7841 50.0784C45.7797 50.0198 45.7166 49.9656 45.7166 49.9656C45.5906 49.8573 45.5231 49.7444 45.397 49.6361C45.5596 49.4469 45.5419 49.2125 45.0553 49.0135C45.1139 49.009 45.1139 49.009 45.1094 48.9504C45.5064 48.7436 45.7774 48.4284 45.1016 48.0668C44.6692 47.8047 44.1284 47.6687 44.1284 47.6687C44.1284 47.6687 41.3017 47.7053 40.7112 47.691C40.7521 47.4521 40.8427 47.0916 40.8704 46.6769C41.0937 44.9505 41.2053 42.5253 41.2053 42.5253L41.1532 41.0555L41.0668 38.3504C41.0679 37.584 41.0148 36.8807 41.0159 36.1143C42.0167 36.0976 43.8426 36.0776 43.8426 36.0776C43.8426 36.0776 44.0726 36.0013 44.3026 35.925L44.3171 38.4587L44.3592 40.5776L44.3936 41.8129C44.3936 41.8129 44.6714 46.2719 44.7167 46.0917C44.9081 47.8456 45.2897 48.9958 45.6048 46.1425C45.8325 44.4748 46.0027 42.0451 46.0027 42.0451L46.0092 40.5709L46.0258 38.4475L46.0024 35.7967C45.998 35.7381 45.9349 35.6839 45.9349 35.6839C45.7414 35.4627 45.5523 35.3001 45.372 35.2548C45.3632 35.1376 45.2326 34.9706 44.9893 34.8711C44.5569 34.609 44.0161 34.473 44.0161 34.473C44.0161 34.473 40.5402 34.4997 40.4816 34.5041C40.4816 34.5041 40.4861 34.5627 40.4274 34.5671C40.3821 34.7474 40.3368 34.9277 40.3501 35.1035C39.9939 35.0715 39.7186 35.328 39.5604 35.5758C39.5063 35.6388 39.5063 35.6388 39.5107 35.6974C39.5328 35.9905 39.4919 36.2294 39.514 36.5224C39.0186 36.2062 38.5762 36.5932 38.4225 36.8996C38.3683 36.9626 38.3683 36.9626 38.3727 37.0213L38.3961 39.6721L38.4897 53.3998L38.524 54.6351C38.524 54.6351 38.8018 59.0941 38.8471 58.9139C38.8781 59.3242 38.9633 59.6714 38.9854 59.9645C38.6835 59.8694 38.3274 59.8373 37.791 59.7599C36.1189 59.4736 33.6847 59.2448 33.6847 59.2448L24.3077 59.1866C22.5947 59.1391 20.8274 59.1547 19.1099 59.0486L17.8072 58.9701C17.3338 58.9469 16.9235 58.978 16.4502 58.9547C15.5665 58.9625 14.6829 58.9703 13.8579 58.9736C12.9743 58.9814 12.1449 58.9262 11.311 58.8123C11.2524 58.8167 11.1982 58.8798 11.1982 58.8798C10.8598 59.0822 10.6972 59.2713 10.6563 59.5102C10.7514 59.2082 10.7791 58.7935 10.852 58.1986C11.0798 56.5308 11.25 54.1011 11.25 54.1011L11.2565 52.6269L11.1752 39.8415L11.1828 37.6009L13.0673 37.5765C14.7759 37.5654 16.4801 37.4956 18.1888 37.4845C19.0138 37.4811 19.8974 37.4733 20.7268 37.5286C21.5563 37.5838 22.4443 37.6347 23.328 37.6269C25.041 37.6744 26.8083 37.6588 28.5125 37.5891L31.1003 37.5115L32.8045 37.4418C32.8045 37.4418 37.2458 36.9295 37.0114 36.9472C38.7609 36.6972 39.9066 36.257 37.0036 36.0636C35.2817 35.8989 32.8609 35.8459 32.8609 35.8459L31.2739 35.9068L28.686 35.9844C26.9232 36.0585 25.2146 36.0697 23.5015 36.0222C22.6179 36.03 21.7884 35.9747 20.9004 35.9239C20.0123 35.8731 19.1287 35.8809 18.2451 35.8886C16.4778 35.9042 14.7106 35.9198 13.0064 35.9895L10.4141 36.0084C10.3555 36.0129 10.3013 36.0759 10.3013 36.0759C9.96736 36.3369 9.86784 36.5802 9.88555 36.8147L9.90877 36.3414C9.90435 36.2827 9.84129 36.2285 9.84129 36.2285C9.84129 36.2285 9.83687 36.1699 9.77826 36.1744C9.83245 36.1113 9.88662 36.0483 9.94081 35.9852C9.98615 35.805 9.85563 35.638 9.49068 35.4887C9.05825 35.2266 8.39581 35.0409 8.39581 35.0409C7.74664 35.0309 7.03884 35.0254 6.38967 35.0155C6.03799 35.0421 5.74053 35.0056 5.38885 35.0322C5.21301 35.0454 5.03715 35.0587 4.86132 35.072C4.74409 35.0809 4.68548 35.0853 4.56825 35.0941C4.50964 35.0986 4.45103 35.103 4.39242 35.1074C4.3338 35.1118 4.33381 35.1118 4.22101 35.1793C4.1624 35.1837 4.1082 35.2467 4.1082 35.2467C3.93679 35.3186 3.77422 35.5078 3.72889 35.688L3.67914 35.8097L3.688 35.9269C3.69242 35.9855 3.69685 36.0441 3.70127 36.1028C3.7057 36.1614 3.7057 36.1614 3.71013 36.22C3.71455 36.2786 3.77758 36.3328 3.78201 36.3914C3.84505 36.4456 3.84948 36.5042 3.90809 36.4998L3.92259 39.0334L3.91936 41.3326L3.95371 42.5679C3.95371 42.5679 4.2315 47.0269 4.27684 46.8467C4.39742 47.6628 4.50474 48.3032 4.63967 48.5288C4.64852 48.646 4.65295 48.7046 4.6618 48.8218C4.6618 48.8218 4.66621 48.8804 4.60759 48.8848C4.56669 49.1237 4.5302 49.4212 4.54348 49.5971C4.25484 49.6778 4.09228 49.8669 3.98833 50.0516C3.93414 50.1147 3.93416 50.1147 3.93859 50.1733L3.96194 52.8242L3.99183 54.0008L4.02619 55.2361C4.02619 55.2361 4.30398 59.6952 4.34932 59.5149C4.38915 60.0424 4.48318 60.5069 4.56836 60.8541L4.57278 60.9128C4.42793 61.3363 4.45449 61.688 4.47663 61.9811C4.36383 62.0485 4.30521 62.053 4.19241 62.1204C3.79983 62.3859 3.47026 62.7055 3.14072 63.0251C2.87421 63.3989 2.60326 63.7141 2.3998 64.1421C1.98843 64.9395 1.69875 65.7866 1.58488 66.6205L1.49863 67.0397C1.50749 67.1569 1.4577 67.2785 1.46656 67.3958L1.43452 67.7519L1.46108 68.1035C1.46108 68.1035 1.4655 68.1622 1.47878 68.338C1.48763 68.4552 1.50533 68.6897 1.58164 68.9197C1.67567 69.3842 1.95883 70.0112 2.35035 70.5122C2.74187 71.0131 3.24176 71.388 3.61114 71.5959C3.98052 71.8038 4.22383 71.9033 4.2194 71.8447C5.12959 72.1886 5.89597 72.1897 6.06738 72.1178C6.126 72.1134 6.12159 72.0548 6.11716 71.9961C6.34719 71.9198 6.57279 71.7849 6.67674 71.6002C6.73092 71.5371 6.73091 71.5372 6.72648 71.4786L6.79503 70.8249L6.83149 70.5274L6.86799 70.23L6.9365 69.5764L6.27407 69.3906C6.15241 69.3408 6.03519 69.3497 5.97215 69.2955L5.85049 69.2457C5.72441 69.1374 5.60277 69.0876 5.47669 68.9792C5.22011 68.7039 4.95467 68.3113 4.80646 67.9098C4.73457 67.7384 4.71684 67.504 4.70356 67.3281L4.677 66.9765L4.7135 66.679C4.82737 65.8451 5.36925 65.2147 6.1677 64.8597C6.56914 64.7115 7.03359 64.6174 7.44388 64.5865C7.91279 64.551 8.27332 64.6417 8.63828 64.791C9.00323 64.9403 9.25985 65.2156 9.46225 65.554C9.66465 65.8924 9.81283 66.2939 9.78521 66.7086C9.84718 67.5292 9.5033 68.4394 8.83093 68.9028L8.77672 68.9658L8.71812 68.9703L8.66391 69.0333L8.32553 69.2357L7.98714 69.4381L7.93293 69.5011L7.87434 69.5055L7.87876 69.5641L7.95064 69.7355C8.02696 69.9656 8.1077 70.2542 8.18402 70.4843L8.34108 71.0029C8.49815 71.5216 8.65523 72.0403 8.8123 72.5589L8.96048 72.9604L9.01912 72.9559L9.07329 72.8929L9.24027 72.7624C9.46587 72.6275 9.69147 72.4925 9.91265 72.299L10.585 71.8356C10.6392 71.7725 10.6978 71.7681 10.752 71.7051L10.8604 71.579L11.0274 71.4485C11.2485 71.2549 11.4697 71.0614 11.6865 70.8092C12.0658 70.368 12.4362 69.8095 12.6895 69.2598C13.1915 68.1019 13.2655 66.7405 12.8795 65.5317C12.4625 63.9127 11.351 62.464 9.81926 61.6955C10.0404 61.502 10.0227 61.2675 9.53168 61.0098C9.34699 60.9059 9.10368 60.8064 8.92341 60.761C9.04064 60.7522 9.17666 60.2114 9.32258 59.0214C9.55032 57.3537 9.72052 54.924 9.72052 54.924L9.7271 53.4498L9.72373 52.6248L9.70037 49.9739C9.69595 49.9153 9.63292 49.8611 9.63292 49.8611C9.50241 49.6941 9.37631 49.5858 9.25466 49.536C9.24581 49.4188 9.17393 49.2474 8.86759 49.0937C9.15623 49.0129 9.85516 48.9012 9.85516 48.9012C9.91378 48.8968 9.91379 48.8968 9.96797 48.8337L10.0079 52.4854L10.0423 53.7208C10.0423 53.7208 10.3201 58.1798 10.3654 57.9995C10.5258 59.3432 10.7769 60.3263 11.0036 59.425C11.008 59.4836 11.0124 59.5422 11.0169 59.6008C11.039 59.8939 11.2326 60.1151 11.4173 60.219C11.4803 60.2732 11.4803 60.2732 11.5389 60.2688C12.4314 60.3782 13.378 60.4246 14.2617 60.4168C14.9108 60.4268 15.5556 60.3781 16.2047 60.388C16.1052 60.6313 16.0687 60.9288 16.082 61.1046C15.8476 61.1223 15.6806 61.2528 15.5678 61.3203C15.5092 61.3247 15.5092 61.3248 15.5136 61.3834C15.5225 61.5006 15.7251 68.0874 15.7251 68.0874C15.7251 68.0874 16.0559 70.1256 16.1056 70.0039C16.1775 70.1753 16.1952 70.4098 16.2627 70.5226C16.0725 71.1264 16.2252 71.5865 16.3601 71.8121L16.3645 71.8707C16.3192 72.0509 16.3281 72.1682 16.3369 72.2854C16.0936 72.1859 15.9177 72.1992 15.8049 72.2666C15.7463 72.2711 15.7463 72.2711 15.7508 72.3297C15.7054 72.5099 15.6004 73.461 15.6171 74.4619C15.5751 75.4671 15.5873 76.4094 15.5873 76.4094C15.5873 76.4094 15.8516 77.5684 15.9058 77.5053C15.9058 77.5053 15.9058 77.5053 15.9103 77.564C15.3783 77.5452 14.7922 77.5894 14.2105 77.6923C13.6874 77.7908 13.1057 77.8936 12.5373 78.1724C12.4245 78.2398 12.253 78.3117 12.1447 78.4378L11.9191 78.5727L11.7565 78.7619C11.5398 79.014 11.3274 79.3248 11.2323 79.6267C10.9835 80.2349 10.9736 80.8841 11.0223 81.5289C11.1296 82.1692 11.3542 82.8006 11.8629 83.2927C12.0564 83.5139 12.3672 83.7262 12.6691 83.8213C13.0341 83.9706 13.3272 83.9485 13.566 83.9894C14.098 84.0082 14.5625 83.9142 14.9728 83.8832C15.0314 83.8787 15.0855 83.8157 15.0855 83.8157C15.3609 83.5591 15.4604 83.3158 15.4427 83.0814C15.5058 83.1356 15.5644 83.1311 15.686 83.1809C15.9835 83.2174 16.3982 83.245 17.1149 83.3677C17.9487 83.4816 18.9629 83.6408 19.7923 83.696C20.6262 83.8099 21.2709 83.7612 21.2709 83.7612C21.564 83.7391 21.7984 83.7214 22.0871 83.6406L22.4929 83.5511L22.7274 83.5334L22.8446 83.5245L23.016 83.4526C23.5347 83.2955 24.1706 83.1296 24.7257 82.6751C24.8927 82.5446 25.0509 82.2968 25.1548 82.1121L25.1592 82.1708C25.2897 82.3377 25.3572 82.4505 25.4877 82.6175C25.6138 82.7259 25.7399 82.8343 25.8659 82.9426C26.3614 83.2589 26.9022 83.3949 27.3214 83.4812C27.7991 83.563 28.2769 83.6448 28.6916 83.6724C28.7502 83.668 28.8044 83.6049 28.8044 83.6049C29.197 83.3395 29.3551 83.0918 29.3374 82.8573C29.396 82.8529 29.459 82.9071 29.5763 82.8982C29.8738 82.9347 30.2885 82.9623 30.9963 82.9678C31.8301 83.0817 32.8443 83.2409 33.6737 83.2962C34.5031 83.3514 35.1479 83.3027 35.1479 83.3027C35.441 83.2806 35.7296 83.1999 35.964 83.1821C36.0813 83.1733 36.2527 83.1014 36.3699 83.0926L36.5999 83.0162C36.6585 83.0118 36.6586 83.0118 36.7172 83.0074L36.8886 82.9355C37.3486 82.7829 37.9757 82.4997 38.4092 81.9954C38.8427 81.4911 39.087 80.8242 39.0339 80.1208C39.0074 79.7692 38.9266 79.4805 38.8459 79.1919C38.7065 78.9077 38.6258 78.619 38.4322 78.3979C38.0993 77.8925 37.4778 77.4678 36.8784 77.3363C36.279 77.2047 35.747 77.1859 35.2781 77.2213C35.0436 77.239 34.8048 77.1981 34.5703 77.2158C34.6831 77.1484 34.7329 77.0267 34.8368 76.842C35.0403 76.414 35.0546 75.8235 35.0546 75.8235C35.0546 75.8235 35.0369 75.589 34.9562 75.3004C34.8755 75.0117 34.84 74.5428 34.7504 74.1369C34.7194 73.7267 34.6299 73.3208 34.6663 73.0233C34.6442 72.7302 34.6895 72.55 34.6851 72.4914C34.6851 72.4914 34.6265 72.4958 34.6221 72.4371C34.1985 72.2923 33.7838 72.2647 33.4951 72.3454C33.4277 72.2326 33.243 72.1287 32.9997 72.0292C32.5086 71.7715 31.7876 71.5902 31.7876 71.5902C31.7876 71.5902 31.4901 71.5537 31.0798 71.5847C30.6651 71.5571 30.0745 71.5427 29.4839 71.5284C28.8934 71.514 28.2487 71.5627 27.7797 71.5981C27.7211 71.6025 27.6625 71.6069 27.6039 71.6114C27.5995 71.5528 27.595 71.4941 27.5364 71.4986L27.532 71.44C28.7673 71.4056 32.3648 71.4287 32.3648 71.4287C32.3648 71.4287 33.9341 71.1333 33.8755 71.1377C34.5114 70.9718 34.8951 70.5892 33.8677 70.2541C33.2595 70.0053 32.4212 69.8329 32.4212 69.8329C32.4212 69.8329 29.3556 69.8286 27.8858 69.8806C27.888 68.3478 27.8457 63.1047 27.8457 63.1047C27.8457 63.1047 27.6809 61.7024 27.5868 61.2379C28.8221 61.2036 32.1808 61.1857 32.1808 61.1857C32.1808 61.1857 32.7039 61.0873 33.1097 60.9977C33.123 61.1735 33.1451 61.4666 33.1717 61.8183C33.2204 62.463 33.2238 63.288 33.2271 64.113C33.2305 64.938 33.2382 65.8217 33.2283 66.4708C33.2184 67.12 33.2494 67.5303 33.2494 67.5303C33.2494 67.5303 33.2582 67.6475 33.3346 67.8776C33.3478 68.0534 33.4286 68.342 33.5049 68.5721C33.6034 69.0952 33.8146 69.5508 33.8146 69.5508C33.9628 69.9522 34.2238 70.2862 34.3411 70.2773C34.5213 70.3227 34.6209 70.0794 34.6894 69.4258C34.717 69.011 34.7988 68.5333 34.8309 68.1772C34.8629 67.8211 34.8994 67.5236 34.8994 67.5236C34.8994 67.5236 34.8684 67.1133 34.8784 66.4641C34.8883 65.8149 34.8849 64.9899 34.8771 64.1063C34.8694 63.2227 34.8616 62.3391 34.8085 61.6357C34.7554 60.9323 34.6613 60.4679 34.6613 60.4679C35.013 60.4413 35.4233 60.4103 35.838 60.438C36.8975 60.4169 37.9525 60.3372 37.8939 60.3416C38.48 60.2974 38.9489 60.262 39.2962 60.1768C39.44 60.5196 39.5616 60.5694 39.6976 60.0286L39.6932 59.97C39.7297 59.6725 39.8204 59.312 39.8933 58.717C39.9619 58.0634 40.0259 57.3511 40.0945 56.6976C40.183 57.8698 40.3236 60.5119 40.3733 60.3902C40.4043 60.8005 40.4895 61.1477 40.5116 61.4408C40.1146 61.6476 39.722 61.9131 39.388 62.1741C38.5575 62.8852 37.9836 63.8717 37.7658 64.8903C37.6663 65.1336 37.6298 65.4311 37.6475 65.6655L37.611 65.963C37.6155 66.0216 37.6155 66.0216 37.6199 66.0802L37.5923 66.495L37.6232 66.9052L37.6542 67.3155C37.6542 67.3155 37.6586 67.3742 37.7305 67.5456C37.7394 67.6628 37.8157 67.8928 37.8876 68.0642C38.0402 68.5243 38.2604 69.0971 38.6519 69.5981C39.3221 70.6675 40.313 71.3 40.2456 71.1872C41.0518 71.7158 41.8857 71.8297 42.0571 71.7578C42.1157 71.7534 42.1113 71.6947 42.0438 71.5819C42.3999 71.614 42.6753 71.3574 42.8334 71.1097C42.8876 71.0467 42.8876 71.0467 42.8832 70.988L42.8632 69.1622L42.8499 68.9863L42.8454 68.9277L42.7868 68.9322L42.4849 68.837C42.3047 68.7917 42.0658 68.7508 41.8269 68.7099L41.6466 68.6646C41.588 68.669 41.5836 68.6104 41.525 68.6148C41.462 68.5606 41.4033 68.565 41.3403 68.5109C41.0925 68.3527 40.9034 68.1902 40.8227 67.9015C40.742 67.6129 40.7198 67.3198 40.7519 66.9637C40.8746 66.2471 41.2948 65.5669 41.7869 65.0582C42.3376 64.545 43.0233 64.2575 43.6725 64.2674C43.7311 64.263 43.8483 64.2541 43.9113 64.3083C43.97 64.3038 44.0916 64.3536 44.1502 64.3492C44.2719 64.3989 44.4521 64.4443 44.5782 64.5527C44.8846 64.7064 45.1411 64.9817 45.3391 65.2615C45.7351 65.8211 45.9098 66.5742 45.7152 67.1194C45.6699 67.2997 45.6113 67.3041 45.5615 67.4258C45.5073 67.4888 45.3945 67.5563 45.1689 67.6912C45.0019 67.8217 44.6591 67.9655 44.3882 68.2807C44.2842 68.4654 44.1759 68.5914 44.0719 68.7761C43.968 68.9608 43.9226 69.1411 43.9359 69.3169C43.9039 69.6731 43.926 69.9661 44.0067 70.2547C44.02 70.4306 44.1815 71.0079 44.3839 71.3463L44.6626 71.9147L44.802 72.1989L44.8064 72.2575L44.8606 72.1945L45.032 72.1226L45.6004 71.8439C45.7719 71.772 45.9975 71.6371 46.1644 71.5065C46.6156 71.2367 46.724 71.1106 46.9496 70.9757C47.1122 70.7866 47.3333 70.593 47.4959 70.4039C47.8796 70.0212 48.1373 69.5302 48.3363 69.0436C48.5354 68.557 48.6714 68.0162 48.7532 67.5384C48.8306 67.002 48.8493 66.4701 48.7553 66.0056C48.4047 65.2658 48.032 64.2329 47.438 63.3935ZM11.0703 66.5526C11.0481 66.2595 11.0216 65.9079 10.9409 65.6192C11.0127 65.7906 11.0216 65.9079 11.0935 66.0793C11.3401 67.0038 11.2893 67.8918 10.941 68.7434C10.7375 69.1714 10.5296 69.5408 10.2001 69.8604C10.0375 70.0495 9.87054 70.1801 9.70798 70.3692L9.541 70.4997L9.46023 70.211L9.57304 70.1436C10.6247 69.2389 11.109 67.8465 11.0703 66.5526ZM4.71258 70.5696L4.89727 70.6735L4.90169 70.7322L4.89178 71.3813C4.7657 71.2729 4.58543 71.2276 4.45935 71.1192C4.14858 70.9069 3.83337 70.636 3.57236 70.302C3.31135 69.968 3.10896 69.6296 3.02821 69.341C2.88885 69.0568 2.86672 68.7637 2.84901 68.5293C2.8313 68.2948 2.82245 68.1776 2.82245 68.1776C2.80032 67.8845 2.77821 67.5914 2.81469 67.2939L2.82354 67.4112C2.8501 67.7629 2.93524 68.1101 3.01599 68.3988C3.24052 69.0302 3.57785 69.5942 4.02798 70.0908C4.21267 70.1947 4.46485 70.4114 4.71258 70.5696ZM8.50991 63.0912C8.32965 63.0459 8.208 62.9961 8.02773 62.9508L7.54998 62.869C7.37415 62.8823 7.25693 62.8911 7.07666 62.8458C6.43191 62.8945 5.8502 62.9973 5.22316 63.2805C4.82172 63.4287 4.42914 63.6941 4.09516 63.9551C4.25772 63.766 4.42472 63.6355 4.59171 63.505C5.09267 63.1135 5.71968 62.8303 6.42304 62.7772C7.1264 62.7241 7.83862 62.7882 8.44689 63.037C8.45131 63.0956 8.50991 63.0912 8.50991 63.0912ZM8.15032 59.1099C8.27533 59.9847 8.3915 60.7423 8.51758 60.8506C8.27427 60.7511 8.15702 60.76 8.15702 60.76C8.15702 60.76 5.79921 60.7612 4.79836 60.7778C4.83484 60.4803 4.92109 60.0612 4.99847 59.5248C5.22621 57.8571 5.39642 55.4274 5.39642 55.4274L5.40299 53.9532L5.37306 52.7765L5.36745 50.3601C6.30968 50.3479 7.66662 50.3633 7.66662 50.3633C7.66662 50.3633 7.72522 50.3589 7.83802 50.2914L7.84367 52.7078L7.84704 53.5328L7.88136 54.7682C7.82718 54.8312 8.10498 59.2902 8.15032 59.1099ZM8.16042 38.9492L8.14394 41.0725L8.11966 42.3122C8.11966 42.3122 8.20377 43.4259 8.22926 44.544C8.31336 45.6576 8.39304 46.7127 8.38419 46.5955C8.41517 47.0057 8.50033 47.353 8.52246 47.6461C8.46385 47.6505 8.40083 47.5963 8.40083 47.5963C8.40083 47.5963 7.45414 47.5499 6.44887 47.5079C5.97554 47.4847 5.4436 47.4659 5.09192 47.4925C4.97469 47.5013 4.85748 47.5102 4.74025 47.519C4.78559 47.3388 4.77232 47.1629 4.81322 46.9241C5.04096 45.2563 5.21113 42.8266 5.21113 42.8266L5.2177 41.3524L5.22091 39.0533L5.21529 36.6368C5.50836 36.6147 5.80585 36.6512 6.09892 36.6291C6.74809 36.639 7.39725 36.6489 8.04642 36.6588C8.04642 36.6588 8.04641 36.6588 8.10502 36.6544L8.16042 38.9492ZM9.55873 48.0983C9.37403 47.9944 9.25238 47.9446 9.13072 47.8949C9.1672 47.5974 9.25789 47.2368 9.27666 46.7049C9.34077 45.9927 9.45908 45.2174 9.51876 44.4466L9.55873 48.0983ZM16.5292 70.1488C16.7647 69.3647 16.8609 68.2963 16.8609 68.2963C16.8609 68.2963 16.6871 63.6526 16.6217 62.007C18.1545 62.0092 21.0985 61.9637 21.0985 61.9637C21.0985 61.9637 21.856 61.8476 22.3205 61.7535C22.2752 61.9338 22.2973 62.2269 22.2608 62.5244C22.2553 63.2321 22.2045 64.1202 22.2709 64.9994C22.2787 65.883 22.345 66.7622 22.3937 67.4069C22.4424 68.0517 22.4734 68.462 22.4734 68.462C22.4734 68.462 22.5719 68.9851 22.6703 69.5081C22.7688 70.0312 22.8628 70.4957 22.8584 70.4371C22.9303 70.6085 22.9436 70.7844 23.011 70.8972C22.948 70.843 22.8263 70.7932 22.646 70.7479C22.0378 70.4991 21.1995 70.3266 21.1995 70.3266C21.1995 70.3266 17.7236 70.3533 16.3667 70.3379C16.4839 70.329 16.5381 70.266 16.5292 70.1488ZM16.7773 76.5553C16.7773 76.5553 16.7651 75.6131 16.807 74.6078C16.8302 74.1345 16.8534 73.6611 16.8855 73.305C16.8766 73.1878 16.8722 73.1292 16.9264 73.0662L16.985 73.0617C17.4583 73.0849 18.0489 73.0993 18.6936 73.0506C19.9333 73.0748 21.1731 73.0991 21.1731 73.0991C21.1731 73.0991 22.1651 72.9653 22.5123 72.8801C22.4626 73.0017 22.4714 73.119 22.4714 73.119C22.4714 73.119 22.4948 75.7698 22.5203 76.8879C22.1597 76.7972 21.8036 76.7652 21.8036 76.7652C21.8036 76.7652 18.3864 76.7875 16.795 76.7898C16.7861 76.6725 16.7773 76.5553 16.7773 76.5553ZM23.4019 81.5371C23.2393 81.7262 22.9596 81.9242 22.5537 82.0138C22.3823 82.0857 22.0936 82.1665 22.035 82.1709C21.9178 82.1797 21.8006 82.1886 21.6878 82.256C21.4533 82.2738 21.2233 82.3501 20.9888 82.3678C20.9888 82.3678 20.7544 82.3855 20.3485 82.4751C19.9382 82.5061 19.4107 82.5459 18.8832 82.5857C17.8237 82.6068 16.7101 82.6909 16.8273 82.6821C15.9481 82.7485 15.258 82.9774 15.0955 83.1665L15.0911 83.1079C15.0147 82.8779 14.7626 82.6612 14.5779 82.5572C14.5148 82.503 14.5148 82.503 14.4562 82.5074C13.9873 82.5428 13.577 82.5738 13.2253 82.6004C13.0495 82.6137 12.8692 82.5683 12.8692 82.5683C12.8062 82.5142 12.6845 82.4644 12.6171 82.3516C12.2344 81.9678 12.0464 81.0389 12.2952 80.4306C12.3405 80.2504 12.4489 80.1243 12.4986 80.0026C12.5528 79.9396 12.6612 79.8135 12.8326 79.7416C13.1124 79.5437 13.5183 79.4541 13.9286 79.4231C14.8033 79.2981 15.75 79.3445 16.805 79.2648C17.8014 79.1896 18.7437 79.1773 19.7401 79.1021C20.209 79.0667 20.6823 79.0899 21.1557 79.1131C21.629 79.1363 22.1023 79.1595 22.4629 79.2501C22.8234 79.3408 23.0081 79.4448 23.2061 79.7246C23.2736 79.8374 23.3454 80.0088 23.4173 80.1802C23.4892 80.3516 23.5069 80.586 23.5788 80.7575C23.6054 81.1091 23.5645 81.348 23.4019 81.5371ZM22.7976 71.9743L22.7434 72.0374C22.6848 72.0418 22.6218 71.9876 22.6218 71.9876C22.4415 71.9423 22.2568 71.8384 22.1352 71.7886C22.4824 71.7034 22.8297 71.6182 22.8297 71.6182C22.9469 71.6094 23.0011 71.5463 23.1183 71.5375C22.9469 71.6094 22.8972 71.731 22.7976 71.9743ZM34.8203 78.9654C35.2937 78.9886 35.7039 78.9576 36.06 78.9896C36.4162 79.0217 36.6053 79.1843 36.7988 79.4054C36.9924 79.6266 37.1361 79.9694 37.2169 80.2581C37.3198 80.8398 37.0621 81.3308 36.372 81.5597C36.2006 81.6316 35.9706 81.708 35.8534 81.7168L35.5061 81.802C35.2761 81.8783 35.0416 81.896 34.8072 81.9137C34.8072 81.9137 34.5772 81.99 34.1669 82.021C33.7566 82.052 33.2291 82.0918 32.7016 82.1317C31.6421 82.1527 30.5284 82.2368 30.6501 82.2866C29.7753 82.4116 29.0852 82.6406 28.9227 82.8297C28.905 82.5952 28.7114 82.3741 28.5267 82.2701C28.4637 82.2159 28.4637 82.2159 28.4051 82.2204C27.9904 82.1927 27.5712 82.1065 27.1521 82.0203C26.7915 81.9296 26.431 81.8389 26.1833 81.6808C25.9356 81.5226 25.8681 81.4098 25.8504 81.1754C25.8327 80.9409 25.9775 80.5174 26.0726 80.2155C26.1766 80.0308 26.3978 79.8372 26.7362 79.6348C27.079 79.491 27.4804 79.3428 27.8863 79.2532C28.698 79.074 29.5728 78.949 30.515 78.9368C31.3942 78.8704 32.3409 78.9168 33.2245 78.909C33.8781 78.9776 34.3514 79.0008 34.8203 78.9654ZM27.6671 74.7898C27.6272 74.2623 27.6505 73.7889 27.6239 73.4372C27.6825 73.4328 27.6825 73.4328 27.7411 73.4284C28.1514 73.3974 28.6789 73.3576 29.2109 73.3763C29.7428 73.3951 30.3334 73.4095 30.7481 73.4371C31.1628 73.4647 31.4559 73.4426 31.4559 73.4426C31.4559 73.4426 31.8031 73.3574 32.1548 73.3308C32.5021 73.2457 32.8537 73.2191 32.7907 73.1649L32.8493 73.1605C32.8537 73.2191 32.8582 73.2778 32.8626 73.3364C32.8891 73.688 32.9246 74.1569 33.0142 74.5628C33.1082 75.0273 33.1392 75.4376 33.2199 75.7262C33.3007 76.0149 33.3184 76.2493 33.3184 76.2493C33.3184 76.2493 33.4533 76.4749 33.5296 76.7049C33.6645 76.9305 33.7409 77.1606 33.7409 77.1606C33.7409 77.1606 33.7453 77.2192 33.8039 77.2147C33.1957 76.9659 32.3574 76.7935 32.3574 76.7935C32.3574 76.7935 29.0573 76.8069 27.7048 76.8501C27.6959 76.7329 27.7413 76.5526 27.7236 76.3181C27.6295 75.8536 27.6483 75.3217 27.6671 74.7898ZM26.4057 61.2092C26.1746 62.0519 26.0243 63.1833 26.0243 63.1833C26.0243 63.1833 26.0954 70.3695 26.1042 70.4867L26.1673 70.5409C26.352 70.6449 26.5322 70.6902 26.7125 70.7355C26.7258 70.9114 26.7391 71.0872 26.7479 71.2044C26.6351 71.2719 26.5853 71.3935 26.4814 71.5782C26.2193 72.0107 26.038 72.7317 26.038 72.7317C26.038 72.7317 26.0557 72.9662 26.0281 73.3809C26.0546 73.7326 26.0359 74.2645 26.0757 74.7921C26.1111 75.261 26.0923 75.7929 26.0603 76.149C26.0282 76.5051 25.9873 76.744 25.9873 76.744L26.0503 76.7982C26.3567 76.9519 26.5956 76.9928 26.8345 77.0337C26.6896 77.4573 26.7162 77.8089 26.7925 78.039C26.6211 78.1109 26.4496 78.1828 26.2782 78.2547C25.7684 78.529 25.2044 78.8663 24.897 79.479C24.897 79.479 24.9014 79.5376 24.8428 79.542C24.7709 79.3706 24.7577 79.1947 24.6316 79.0864C24.4922 78.8022 24.2898 78.4638 23.979 78.2514C23.853 78.1431 23.6638 77.9805 23.4836 77.9352C23.8264 77.7914 23.989 77.6023 23.7998 77.4397L23.8584 77.4353C23.9171 77.4309 23.9171 77.4309 23.9171 77.4309C23.9127 77.3723 23.8959 73.2472 23.8959 73.2472C23.8959 73.2472 23.6226 71.971 23.5684 72.034C23.4291 71.7498 23.2941 71.5242 23.1183 71.5375C23.2311 71.47 23.3439 71.4026 23.3351 71.2853C23.4567 71.3351 23.6149 71.0874 23.742 70.4293C23.9145 69.591 24.0062 68.4641 24.0062 68.4641C24.0062 68.4641 23.9752 68.0538 23.9221 67.3505C23.8734 66.7057 23.807 65.8265 23.8037 65.0015C23.7959 64.1179 23.7925 63.2929 23.8024 62.6437C23.8124 61.9945 23.8986 61.5754 23.8986 61.5754L23.8356 61.5212C23.6465 61.3587 23.4032 61.2591 23.2273 61.2724C23.2185 61.1552 23.0293 60.9926 22.6102 60.9064C22.4885 60.8566 22.3669 60.8069 22.1866 60.7615C22.7772 60.7759 23.3091 60.7947 23.8997 60.809L26.4964 60.8487C26.555 60.8443 26.4466 60.9703 26.4057 61.2092ZM39.9159 45.7468C39.9557 46.2743 39.9867 46.6846 39.9823 46.626C40.0487 47.5052 40.1649 48.2628 40.3496 48.3667C40.4126 48.4209 40.4126 48.4209 40.4668 48.3579C40.4712 48.4165 40.4756 48.4751 40.4801 48.5337C40.4801 48.5337 40.4801 48.5337 40.4214 48.5381L40.3673 48.6012C40.3219 48.7814 40.2766 48.9617 40.2899 49.1375C40.1185 49.2094 40.0057 49.2769 39.8973 49.403L39.9159 45.7468ZM40.7742 70.381L40.9544 70.4263L40.9677 70.6022L40.9533 71.1927C40.8273 71.0843 40.6382 70.9218 40.5077 70.7548C40.2511 70.4794 39.9901 70.1455 39.7246 69.7529C39.7246 69.7529 39.7246 69.7529 39.7202 69.6942C39.8507 69.8612 40.0354 69.9652 40.2201 70.0691C40.3462 70.1775 40.4678 70.2273 40.5895 70.277C40.6525 70.3312 40.7156 70.3854 40.7742 70.381ZM44.472 63.1459C44.3503 63.0962 44.1701 63.0508 44.0484 63.0011C43.9268 62.9513 43.7509 62.9646 43.6293 62.9148C43.0343 62.8419 42.4526 62.9447 41.9383 63.1604C41.4241 63.3761 40.9143 63.6504 40.5306 64.033C39.7 64.7442 39.1261 65.7307 38.9127 66.8079C38.9127 66.8079 38.9127 66.8079 38.9083 66.7493C38.8995 66.632 38.8906 66.5148 38.8818 66.3976L38.8685 66.2217L38.8641 66.1631L38.9049 65.9242C39.0232 65.149 39.3218 64.4191 39.8095 63.8517C40.0848 63.5951 40.3602 63.3385 40.6986 63.1361C41.037 62.9337 41.3798 62.79 41.7857 62.7004C42.5388 62.5256 43.3594 62.4636 44.0849 62.7036C44.806 62.8849 45.4905 63.3638 45.9495 63.9775C46.2061 64.2529 46.4129 64.6499 46.5567 64.9927C46.5523 64.9341 46.4892 64.8799 46.4848 64.8213C46.2105 64.3115 45.7693 63.9322 45.3324 63.6115C45.0216 63.3992 44.7739 63.241 44.472 63.1459ZM46.7548 68.3967C46.5149 69.1222 46.0316 69.7482 45.4179 70.2071C45.3051 70.2746 45.3637 70.2702 45.3051 70.2746L45.2962 70.1574L45.2874 70.0402C45.2829 69.9816 45.2741 69.8643 45.2697 69.8057C45.2608 69.6885 45.3106 69.5668 45.3062 69.5082C45.3559 69.3866 45.3603 69.4452 45.4687 69.3191C45.5815 69.2516 45.8657 69.1122 46.1455 68.9143C46.4253 68.7163 46.6962 68.4011 46.8499 68.0948C46.8997 67.9731 46.9495 67.8515 46.945 67.7929C46.8455 68.0362 46.8002 68.2164 46.7548 68.3967Z" fill="#F4774C"/>
</g>
</svg>
