<svg width="146" height="186" viewBox="0 0 146 186" fill="none" xmlns="http://www.w3.org/2000/svg">
<path d="M117.021 133.323L115.359 130.717L119.983 131.068L119.749 134.15L117.021 133.323Z" fill="white"/>
<path d="M38.0871 150.114L37.6073 144.187L42.2348 148.569L45.7931 150.699L45.44 153.307L41.6455 152.244L38.0871 150.114Z" fill="white"/>
<path d="M43.8812 135.053L39.3804 139.206L38.5474 135.888L41.2728 134.699L46.7236 132.323L49.689 134.099L43.8812 135.053Z" fill="white"/>
<path d="M56.8071 140.375L53.8398 136.584L54.4387 142.985L52.4273 147.018L52.3102 148.559L54.5634 149.505L56.8109 144.405L56.8071 140.375Z" fill="white"/>
<path d="M115.231 120.167L113.222 126.215L110.847 122.779L112.738 116.257L121.388 112.574L127.555 115.058L128.033 118.969L124.474 116.839L120.206 115.894L115.231 120.167Z" fill="white"/>
<path d="M128.993 130.822L131.355 122.166L127.684 125.608L126.737 127.861L126.739 129.876L128.993 130.822Z" fill="white"/>
<path d="M115.096 87.0693L107.985 88.8543L112.035 109.003L114.173 113.506L123.18 111.245L115.096 87.0693Z" fill="white"/>
<path d="M85.6468 158.462L64.6708 165.239L63.9626 168.44L64.5576 170.811L67.5229 172.586L71.5534 172.582L73.2117 171.158L74.6339 170.801L84.7083 168.776L89.6831 164.504L88.7311 160.711L85.6468 158.462Z" fill="white"/>
<path d="M114.327 150.255L93.3505 157.032L92.6423 160.233L93.2373 162.604L96.2026 164.379L100.233 164.375L101.891 162.951L103.314 162.594L113.388 160.569L118.363 156.297L117.411 152.504L114.327 150.255Z" fill="white"/>
<path d="M40.194 105.871L33.083 107.656L38.0809 127.567L39.1519 131.833L46.499 128.981L40.194 105.871Z" fill="white"/>
<path d="M76.7217 122.907L63.5649 124.697L67.2557 141.409L68.2077 145.201L82.5487 142.105L76.7217 122.907Z" fill="white"/>
<path d="M82.4336 145.662L69.7528 149.349L72.1327 158.83L73.9119 159.896L85.1705 156.566L82.4336 145.662Z" fill="white"/>
<path d="M91.3219 142.927L105.663 139.831L108.043 149.312L106.82 151.131L94.0589 153.83L91.3219 142.927Z" fill="white"/>
<path d="M98.2895 114.469L85.8467 119.104L89.5375 135.816L90.4895 139.608L104.831 136.513L98.2895 114.469Z" fill="white"/>
<path d="M106.874 86.7738L99.3604 60.5723L109.049 58.1404L115.899 81.6996L115.681 84.563L106.874 86.7738Z" fill="white"/>
<path d="M31.7878 104.685L24.7168 80.2451L34.4051 77.8132L40.3743 101.594L38.8338 102.916L31.7878 104.685Z" fill="white"/>
<path d="M50.9694 125.149L37.4906 78.9115L97.1608 62.9972L110.201 111.218L50.9694 125.149Z" fill="white"/>
<path d="M64.8896 15.4907L67.6126 22.1561L71.563 21.1645L67.8525 14.747L64.8896 15.4907Z" fill="white"/>
<path d="M45.1377 20.4487L45.8854 27.6099L41.935 28.6015L42.1749 21.1924L45.1377 20.4487Z" fill="white"/>
<path d="M30.8275 34.5395L32.3069 32.0684L74.7743 21.4086L84.8983 19.9171L94.5626 54.2357L85.1822 58.6899L53.8265 67.6105L37.5289 69.6017L30.8275 34.5395Z" fill="white"/>
<path d="M38.8692 66.6076C38.9584 66.4295 38.9584 66.4295 38.9139 66.2958C38.2467 64.2915 37.7133 62.2427 37.2242 60.3275C36.3796 56.898 35.5794 53.602 34.8684 50.128L34.3353 47.1886C34.3353 47.1886 33.6239 44.6052 33.0906 42.1111C32.4236 39.6614 32.5182 36.1844 32.4736 36.4961C31.2729 32.4429 30.0717 29.7258 30.3358 36.7624C30.424 38.811 29.9732 42.1097 30.195 44.1138C30.4168 46.118 30.5943 47.5431 30.5943 47.5431L31.3053 51.0171C32.0163 54.4911 32.8609 57.9207 33.7056 61.3502C34.2391 63.399 34.7726 65.4478 35.4397 67.4522C35.4842 67.5858 35.6623 67.675 35.6623 67.675C37.6211 69.1009 38.6016 67.5872 38.8692 66.6076Z" fill="#F4774C"/>
<path d="M80.0377 19.0649C77.1429 19.2863 73.3571 19.9527 71.3974 20.3081C71.4421 19.9964 71.3532 19.7291 71.3978 19.4174C71.3982 18.5267 71.2205 17.5469 70.9537 16.7451C70.8204 15.8989 70.6426 15.3644 70.6426 15.3644L70.4647 14.8299L70.1533 13.8945L69.3081 11.8011L67.1256 12.379L65.4777 12.7791C64.7651 12.8679 64.097 13.0903 63.4733 13.4463L61.6471 14.2025L62.9816 17.7659L63.7378 19.5921C64.0047 20.3939 64.3607 21.0175 64.6276 21.8193L46.2773 26.4427C46.2328 26.3091 46.3664 26.2646 46.322 26.131C46.3668 25.3739 46.3672 24.4832 46.4121 23.7261C46.3234 23.0135 46.2791 22.4346 46.2791 22.4346C46.0123 21.6329 45.7454 20.8311 45.4786 20.0294L45.0783 18.8268L43.8758 18.7817C43.1187 18.7369 42.7179 18.8703 42.317 19.0037C41.9162 19.1371 41.6489 19.226 41.2925 19.4931C41.1589 19.5376 40.9361 19.7602 40.6689 19.8491L39.9116 20.2496L38.5752 21.1397L39.2864 24.1683C39.4643 24.7028 39.5531 25.4154 39.731 25.9499C39.9089 26.4844 40.1313 27.1525 40.3536 27.8206C40.3536 27.8206 40.3536 27.8206 40.3981 27.9542L37.2359 28.71L31.0894 30.3104C30.9557 30.3549 30.8666 30.5331 30.8666 30.5331C29.3515 32.6701 30.8652 33.6505 31.8448 33.9181C32.0229 34.0073 32.0229 34.0072 32.1565 33.9628L38.303 32.3622L67.9217 25.0271L70.8167 24.3604C70.8167 24.3604 81.0165 21.1139 80.4376 21.1582C84.5354 19.6458 86.8964 18.2663 80.0377 19.0649ZM44.2285 26.9762C44.184 26.8426 44.0951 26.5754 44.0506 26.4418C43.9172 26.0409 43.7837 25.64 43.6503 25.2391C44.0508 25.9964 44.4068 26.62 44.4068 26.62C44.4513 26.7536 44.4512 26.7536 44.6293 26.8428L44.2285 26.9762ZM68.3688 21.0193C67.9238 20.1284 67.6125 19.193 67.3012 18.2576L66.5005 16.2978L66.9013 16.1643L67.0348 16.5653C67.0348 16.5653 67.6578 17.5453 68.2363 18.3917C68.8149 19.2381 69.3935 20.0845 69.3935 20.0845C69.438 20.2181 69.6606 20.4409 69.8387 20.5301L68.3688 21.0193Z" fill="#F4774C"/>
<path d="M93.3061 44.6316C92.8171 42.7164 92.506 41.3357 92.506 41.3357L91.3941 37.9951C90.2379 34.0755 89.1262 30.2896 88.2818 26.4147C87.9264 24.4551 87.5265 22.3618 87.3047 20.3576C87.2603 20.224 87.2158 20.0904 87.0822 20.1348C85.3016 18.3527 83.9205 19.5545 83.5192 20.5786C83.4301 20.7567 83.43 20.7567 83.4745 20.8904C83.7408 23.0281 84.007 25.1659 84.4514 27.3928C85.3403 31.4013 86.3629 35.3653 87.6527 39.2404L88.6311 42.1801C88.6311 42.1801 89.6098 44.6745 90.544 47.0352C91.4782 49.396 92.4123 51.7567 92.3679 51.6231C92.8573 52.6476 93.1686 53.583 93.5246 54.2066C92.9901 54.3845 92.2775 54.4732 91.4757 54.7401C87.5117 55.7626 81.9442 57.3189 81.9442 57.3189L78.6481 58.5644C68.0028 62.256 56.5192 65.2631 45.4291 67.6185C43.3358 68.0184 39.317 67.4359 37.2237 67.8358C37.0901 67.8803 37.001 68.0583 37.001 68.0583C35.4414 70.0617 36.8659 71.2203 37.7119 71.5324C37.89 71.6215 37.89 71.6216 38.0237 71.5771C40.117 71.1772 45.1116 70.867 47.1604 70.3335C58.3841 67.9336 69.07 65.9083 79.9826 62.1277L82.9224 61.1492C82.9224 61.1492 83.5904 60.9269 84.4813 60.482C85.3722 60.037 86.5303 59.503 87.8221 58.9247C90.272 57.8124 92.5438 56.611 92.2765 56.6999C93.1674 56.255 93.8802 55.7209 94.5038 55.3649C94.6819 55.4541 94.8156 55.4095 94.7266 55.1423C95.9294 54.2967 96.3305 53.7179 94.7717 53.9399C94.6829 53.2273 94.6833 52.3366 94.4167 51.0895C94.284 48.9073 93.7952 46.5468 93.3061 44.6316Z" fill="#F4774C"/>
<path d="M44.2242 38.1098C44.8034 37.6201 45.3379 37.4422 45.9613 37.5316C45.9613 37.5316 46.0505 37.3535 46.1841 37.309C46.8524 36.6413 47.5207 35.9736 47.4319 35.261C47.3877 34.682 46.8536 33.9692 46.3193 33.7018C46.1412 33.6126 46.1412 33.6127 46.0076 33.6571C44.5379 33.701 43.068 34.1903 41.8652 35.0359C40.6624 35.8815 39.8603 37.039 39.3699 38.2412C38.7012 39.7996 38.4776 41.8036 39.1003 43.6744C39.2337 44.0752 39.5453 44.5652 39.6787 44.9661C39.9458 45.3225 40.2128 45.6788 40.4798 46.0352C40.9695 46.6144 41.7708 47.2383 42.5277 47.7285C43.7744 48.3525 45.1993 48.6203 46.6245 48.4428C46.6245 48.4428 47.6044 48.2651 48.7625 47.7312C49.9206 47.1973 51.1681 46.04 52.0594 44.7043C52.4159 43.992 52.7726 43.2796 52.9511 42.478C53.1296 41.6765 53.1744 40.9194 52.9965 40.3849C52.7299 39.1378 52.1957 38.4251 52.2402 38.5587C51.3946 37.3559 50.1924 36.8655 49.3908 36.687C48.5893 36.5085 48.0103 36.5527 47.7431 36.6417C47.4759 36.7306 47.6984 36.9534 48.1436 37.399C48.3217 37.4881 48.4998 37.5773 48.5442 37.7109C48.7223 37.8 48.9449 38.0228 49.123 38.112C49.5237 38.4239 49.9688 38.8694 50.1912 39.5375C50.8141 40.9629 49.6553 42.8328 48.4525 43.6785C47.8733 44.1681 47.2052 44.3905 46.8044 44.5239C46.4035 44.6573 46.1363 44.7463 46.1363 44.7463C45.4681 44.9687 44.6666 44.7901 44.1323 44.5227C43.7761 44.3444 43.3755 44.0325 43.0639 43.5425C42.8414 43.3197 42.7969 43.1861 42.6188 43.0969C42.5743 42.9633 42.3517 42.7406 42.4409 42.5625C42.174 41.7607 42.1744 40.87 42.5757 39.8459C43.1995 39.0445 43.7342 38.4213 44.2242 38.1098Z" fill="#F4774C"/>
<path d="M79.3236 31.1778C79.101 30.955 79.0565 30.8214 79.0565 30.8214C77.9881 29.8412 76.964 29.4399 76.0733 29.4395C75.2718 29.261 74.6928 29.3053 74.47 29.5279C74.2027 29.6168 74.4254 29.8396 74.8705 30.2852C75.2267 30.4634 75.5829 30.6417 75.9835 30.9536C76.3842 31.2655 76.963 31.6666 77.319 32.2903C77.586 32.6467 77.675 32.9139 77.6748 33.3592C77.6301 33.6709 77.6299 34.1163 77.4516 34.4725C77.2287 35.1404 76.5603 35.8082 75.9812 36.2978C75.402 36.7874 74.7339 37.0098 74.3775 37.2768C73.9766 37.4102 73.7094 37.4992 73.7094 37.4992C72.9077 37.766 72.1506 37.7211 71.5271 37.6318C70.6811 37.3197 69.969 36.5178 69.6132 35.4488C69.4353 34.9143 69.3019 34.5134 69.4357 34.0236C69.4359 33.5783 69.6141 33.2221 69.8816 32.6878C70.5501 31.5748 72.1983 30.7293 73.9352 30.5965C74.0688 30.552 74.1579 30.3739 74.1579 30.3739C74.9154 29.528 75.2275 28.682 75.0496 28.1476C74.8717 27.6131 74.2484 27.0783 73.7142 26.8109C73.5361 26.7218 73.5361 26.7218 73.4024 26.7663C72.1109 26.8993 70.9082 27.2996 69.7946 27.9671C68.6365 28.501 67.6117 29.4358 66.676 30.6378C66.0966 31.5727 65.6954 32.5968 65.6059 33.6656C65.5163 34.7344 65.7385 35.8479 66.0498 36.7832C66.4947 37.6741 66.8061 38.6095 67.5183 39.4115C68.2305 40.2134 69.0763 40.9708 70.234 41.3276C71.5698 41.7735 73.0395 41.7297 74.2866 41.463C74.2866 41.463 75.0883 41.1962 76.2465 40.6623C77.2265 40.0392 78.5184 39.0155 79.3652 37.5462C80.2565 36.2106 80.6582 34.2958 80.0798 33.0041C79.8576 31.8906 79.5906 31.5342 79.3236 31.1778Z" fill="#F4774C"/>
<path d="M84.0808 45.5811L83.9472 45.6256C83.5019 45.6254 83.101 45.7589 82.7001 45.8923C82.0767 45.8029 79.2074 47.7766 77.2033 47.9984C73.195 48.4419 67.9837 49.8547 67.9837 49.8547L64.5542 50.6993L53.4639 53.5001L45.6332 52.9476C45.4995 52.9921 45.4104 53.1702 45.4104 53.1702C44.9201 53.9271 44.6527 54.4613 44.8306 54.9958C40.1538 56.5524 44.2961 55.1737 42.8263 55.6629C42.8707 55.7966 42.8707 55.7966 42.9152 55.9302C43.0042 56.1974 43.0931 56.4647 43.2265 56.8656C43.4489 57.5337 43.5377 58.2463 43.5377 58.2463C43.5377 58.2463 44.339 58.8701 44.4727 58.8256C44.6508 58.9147 44.9625 58.9595 45.2742 59.0042C45.4075 59.8504 46.2979 60.2961 46.8322 60.5635C47.0103 60.6527 47.0103 60.6527 47.1439 60.6082L54.9747 61.1607L66.7332 58.1375L69.5837 57.3372C69.5837 57.3372 79.7836 54.0907 79.2046 54.135C80.0063 53.8681 81.9407 51.1915 82.4752 51.0136C82.6978 51.2364 82.8759 51.3255 82.8759 51.3255C83.4102 51.5929 84.3009 51.5933 84.8802 50.6584C85.2813 50.0796 85.4598 49.2781 85.4598 49.2781C85.4598 49.2781 85.1485 48.3427 84.8816 47.541C84.7482 47.1401 84.0808 45.5811 84.4813 46.3383C84.1253 45.7147 84.0808 45.5811 84.0808 45.5811ZM81.9004 50.0306C81.4551 50.0304 79.2055 51.9082 78.6266 51.9525C74.0486 53.8548 68.7946 55.1736 68.7946 55.1736L55.6064 58.1705L51.0751 58.8696L47.1863 56.5414C48.2553 56.1855 78.0331 50.4021 77.5878 50.4019C78.1223 50.224 80.8769 48.2933 81.2333 48.0262C81.3223 48.2935 81.4557 48.6943 81.5446 48.9616C81.6781 49.3625 81.8115 49.7633 81.9004 50.0306Z" fill="#F4774C"/>
<path d="M84.9601 92.4713C84.8009 93.1861 84.4431 94.0994 84.0852 95.0128C83.7274 95.9261 83.2107 96.7599 82.694 97.5937L81.3823 100.016C81.1438 100.492 80.8656 100.85 80.6271 101.326C80.5078 101.763 80.2296 102.12 80.1103 102.557L79.2356 104.701L79.0367 105.297L78.9969 105.575L78.9174 105.734L80.4269 105.099C82.4131 104.306 84.3992 103.512 86.425 102.838L87.2591 102.56L87.9741 102.322L89.4438 101.965C90.3971 101.648 91.39 101.45 92.2639 101.291L92.6213 101.172L92.9789 101.053L93.376 101.054L94.925 100.935L95.6796 100.816L96.0768 100.817L96.3151 100.737L96.4343 100.698C96.4343 100.698 96.4343 100.698 96.3946 100.578L96.0379 99.1088L95.681 97.6392L95.483 96.6462L95.2453 95.1369C94.849 93.1509 94.5719 91.1253 94.2948 89.0997C94.0177 87.074 93.5817 84.9688 92.8678 82.8239C92.5108 81.7514 92.1935 80.7981 91.6777 79.6461C91.519 79.1694 91.2412 78.7325 90.9634 78.2955L90.6063 77.6201L90.3682 77.3023L90.3285 77.1832C90.3285 77.1832 90.3285 77.1832 90.2093 77.2228L89.971 77.3022L87.3892 77.8967L75.3541 80.7112L69.3563 82.1781C67.2512 82.614 65.424 83.0898 63.4381 83.4861C61.4521 83.8824 59.347 84.3183 57.202 85.0322C56.7254 85.1909 56.1295 85.3892 55.6925 85.667C55.335 85.786 54.8584 85.9446 54.3817 86.1033C53.905 86.2619 53.19 86.4999 52.4352 87.0159C51.6804 87.5319 51.2034 88.4848 51.0442 89.1996C50.6067 90.6689 50.8842 91.9003 51.0028 93.0521C51.2406 94.1642 51.5975 95.2367 51.7957 96.2297L52.2716 97.6596C52.3906 98.0171 52.4302 98.5335 52.5888 99.0102L53.3421 102.069C53.8178 103.896 54.3333 105.842 54.9282 107.63C54.9679 107.749 55.1267 107.828 55.1267 107.828C55.9605 108.345 56.4769 108.305 56.9535 108.147C56.437 108.583 57.4298 108.782 60.7264 108.347C62.5137 108.149 64.6585 107.832 66.4458 107.635C66.843 107.635 67.3196 107.476 67.5976 107.516C67.9947 107.516 68.2331 107.437 68.4714 107.358C68.9877 107.318 69.3452 107.199 69.3452 107.199C69.9807 107.12 70.7354 107.001 71.4504 106.763C71.8079 106.644 72.205 106.644 72.5625 106.525C73.0391 106.367 73.5159 106.208 74.1117 106.01C74.35 105.93 74.6678 105.692 74.9061 105.613C75.1445 105.534 75.5419 105.137 75.7405 104.938C76.6147 103.985 77.0917 103.032 77.4892 102.238L77.9662 101.285C78.1252 100.968 78.2047 100.809 78.4432 100.332L79.3972 98.4263C80.0332 97.1557 80.7089 96.0042 81.3846 94.8527C82.0603 93.7013 82.8948 92.6293 83.6895 91.8353C84.0868 91.4383 84.5238 91.1605 84.8813 91.0415C85.0004 91.0019 85.1196 90.9622 85.1196 90.9622C85.1196 90.9622 85.1196 90.9622 85.2387 90.9226L85.3976 91.002C85.3976 91.002 85.3976 91.0021 85.4373 91.1212C85.1193 91.7565 85.0794 92.0345 84.9601 92.4713ZM88.0194 89.7323C87.7416 89.2953 87.4638 88.8583 86.9873 88.6198C86.4711 88.2622 85.8755 88.0633 85.2003 88.0233C84.5252 87.9833 83.8897 88.0624 83.4131 88.2211C82.3406 88.578 81.6254 89.2131 81.0294 89.8086C79.8374 90.9996 79.0425 92.1907 78.1682 93.5407C77.413 94.851 76.777 96.1216 76.1409 97.3922L75.187 99.2981C75.1075 99.4569 74.8689 99.9335 74.7099 100.251L74.2329 101.204C73.9149 101.839 73.4778 102.514 73.1996 102.872C73.0009 103.07 73.0009 103.07 72.6831 103.308C72.4448 103.388 72.1269 103.626 71.8886 103.705C71.7694 103.745 71.5311 103.824 71.412 103.864L71.2927 103.903L71.0544 103.983L70.6969 104.102C70.1011 104.3 69.5848 104.34 68.9493 104.419C68.9493 104.419 68.3535 104.617 67.4797 104.776C66.5264 105.093 65.4538 105.45 64.3417 105.688C62.1967 106.402 59.9326 107.155 60.1709 107.076C58.9793 107.472 58.0656 107.909 57.3903 108.266C57.6685 107.909 57.8275 107.591 57.9469 107.154C58.0264 106.995 58.0263 106.995 57.9867 106.876C57.4314 105.208 56.9556 103.381 56.5195 101.673L55.8059 98.7335C55.6473 98.2569 55.6078 97.7406 55.4094 97.1448L54.8938 95.5956C54.5765 94.6423 54.2592 93.6889 54.1007 92.8151C53.9422 91.9413 53.9029 91.0279 54.0223 90.5911C54.0621 90.3131 54.1813 90.2733 54.2608 90.1145C54.38 90.0748 54.6977 89.8367 55.0552 89.7177C55.5319 89.5591 56.0086 89.4004 56.6044 89.2021C57.0811 89.0434 57.5181 88.7657 57.8756 88.6467C59.6631 88.0517 61.649 87.6554 63.635 87.2591C65.621 86.8628 67.8055 86.2681 69.6723 85.9115L75.6701 84.4447L87.5861 81.6698L87.9436 81.5508C88.3404 82.3453 88.6577 83.2987 88.975 84.252C89.5699 86.0395 89.9662 88.0254 90.2433 90.051C90.6396 92.037 90.9167 94.0626 91.2335 96.2074L91.5108 97.8359L91.6694 98.3126L91.1531 98.352C90.041 98.5898 89.048 98.788 87.9358 99.0258C87.4592 99.1844 86.9825 99.3431 86.347 99.4222L84.917 99.8982L85.0761 99.5805C85.5531 98.6276 86.0697 97.7938 86.5071 96.7216C86.9841 95.7687 87.4215 94.6965 87.6603 93.4257C87.8592 92.8301 87.8992 92.1549 87.7407 91.2811C88.3367 90.6856 88.178 90.209 88.0194 89.7323Z" fill="#F4774C"/>
<path d="M128.676 114.057C127.763 113.302 126.89 112.666 125.937 112.189C125.46 111.95 124.984 111.712 124.428 111.632C124.349 111.394 124.031 111.235 123.435 111.036C122.403 110.718 121.053 110.638 121.053 110.638C121.053 110.638 119.067 111.034 117.12 111.549C116.127 111.747 115.174 112.065 114.419 112.184C114.3 112.223 114.062 112.303 113.943 112.342C113.863 112.104 113.943 111.945 113.863 111.707C113.468 108.132 112.557 103.008 112.557 103.008L111.803 99.95L110.376 94.4686C109.98 92.8797 109.464 91.3306 109.107 89.861C111.292 89.2662 114.589 88.4336 114.589 88.4336C114.589 88.4336 114.708 88.3939 114.946 88.3146L116.334 93.6769L116.929 95.8615L117.642 98.4036C117.642 98.4036 120.538 107.5 120.538 107.103C121.847 110.638 123.349 113.457 122.518 107.38C122.122 103.805 121.098 98.0477 121.098 98.0477L120.345 94.9893L119.75 92.8046L118.322 87.3232C118.283 87.204 118.124 87.1246 118.124 87.1246C117.806 86.9656 117.608 86.7669 117.29 86.6079C117.529 86.1314 117.37 85.6547 116.258 85.4954C116.377 85.4557 116.377 85.4557 116.337 85.3365C117.053 84.7014 117.45 83.9073 115.862 83.5094C114.829 83.1912 113.638 83.1907 113.638 83.1907C113.638 83.1907 107.799 84.7371 106.568 85.0145C106.528 84.4982 106.528 83.7039 106.37 82.8301C105.935 79.1363 104.904 74.0522 104.904 74.0522L104.032 71.0334L102.446 65.4725C102.049 63.8837 101.573 62.4537 101.177 60.8649C103.242 60.3098 107.016 59.3185 107.016 59.3185C107.016 59.3185 107.453 59.0408 107.89 58.763L109.238 64.006L110.427 68.3753L111.141 70.9174C111.141 70.9174 114.036 80.0136 114.037 79.6165C115.346 83.1518 116.735 85.3368 115.903 79.2599C115.508 75.6853 114.597 70.5615 114.597 70.5615L113.843 67.5031L112.773 63.0941L111.346 57.6127C111.306 57.4936 111.147 57.4141 111.147 57.4141C110.631 57.0564 110.154 56.8179 109.757 56.8177C109.678 56.5794 109.321 56.3012 108.765 56.2215C107.732 55.9034 106.541 55.9028 106.541 55.9028C106.541 55.9028 99.3513 57.7663 99.2322 57.8059C99.2322 57.8059 99.2718 57.9251 99.1527 57.9647C99.1525 58.3619 99.1523 58.7591 99.2713 59.1166C98.5167 59.2354 98.0795 59.9104 97.8806 60.506C97.8011 60.6649 97.8011 60.6649 97.8408 60.784C98.0391 61.3798 98.0786 61.8961 98.2769 62.492C97.0856 62.0943 96.3703 63.1266 96.2111 63.8414C96.1316 64.0002 96.1316 64.0002 96.1712 64.1194L97.5986 69.6008L104.933 98.0008L105.647 100.543C105.647 100.543 108.542 109.639 108.543 109.242C108.82 110.076 109.177 110.752 109.376 111.347C108.701 111.307 107.946 111.426 106.794 111.545C103.18 111.821 98.0164 112.613 98.0164 112.613L78.5536 117.37C74.9788 118.163 71.3245 119.115 67.7101 119.788L64.9695 120.303C63.9765 120.502 63.1423 120.779 62.1493 120.977C60.3222 121.453 58.4951 121.929 56.7871 122.365C54.96 122.841 53.2124 123.158 51.4251 123.356C51.3059 123.395 51.2264 123.554 51.2264 123.554C50.6304 124.15 50.3919 124.626 50.4314 125.142C50.4714 124.467 50.3129 123.593 50.1546 122.322C49.759 118.748 48.8478 113.624 48.8478 113.624L48.0945 110.566L41.2751 84.1119L40.1255 79.4646L44.018 78.4338C47.5531 77.5219 51.0486 76.4908 54.5837 75.5789C56.2917 75.1428 58.1188 74.6669 59.8664 74.35C61.6141 74.033 63.4809 73.6764 65.308 73.2006C68.8828 72.4079 72.5371 71.4564 76.0325 70.4253L81.3552 68.9185L84.8505 67.8874C84.8505 67.8874 93.7881 64.5155 93.3114 64.6742C96.8071 63.2459 98.9524 61.7377 92.8357 62.847C89.1816 63.4014 84.1372 64.5509 84.1372 64.5509L80.8801 65.5027L75.5574 67.0095C71.9428 68.0803 68.4077 68.9922 64.833 69.7849C63.0058 70.2607 61.2582 70.5777 59.3914 70.9343C57.5246 71.2909 55.6974 71.7667 53.8703 72.2424C50.216 73.194 46.5618 74.1455 43.0663 75.1766L37.704 76.5643C37.5849 76.604 37.5054 76.7628 37.5054 76.7628C36.949 77.4774 36.8694 78.0334 37.028 78.5101L36.8299 77.5171C36.7903 77.3979 36.6314 77.3184 36.6314 77.3184C36.6314 77.3184 36.5918 77.1993 36.4726 77.2389C36.5521 77.0801 36.6316 76.9212 36.7111 76.7624C36.7112 76.3653 36.3539 76.0871 35.5199 75.9676C34.4875 75.6494 33.018 75.609 33.018 75.609C31.6675 75.9262 30.1979 76.283 28.8474 76.6001C28.1324 76.8381 27.497 76.9172 26.782 77.1552C26.4245 77.2742 26.067 77.3932 25.7095 77.5122C25.4711 77.5915 25.352 77.6312 25.1136 77.7105C24.9945 77.7502 24.8753 77.7898 24.7562 77.8295C24.637 77.8692 24.637 77.8691 24.4383 78.0676C24.3192 78.1073 24.2396 78.2661 24.2396 78.2661C23.9218 78.5042 23.6833 78.9807 23.6831 79.3779L23.6433 79.6559L23.7226 79.8942C23.7623 80.0134 23.802 80.1326 23.8416 80.2517C23.8813 80.3709 23.8813 80.3709 23.921 80.4901C23.9606 80.6092 24.1194 80.6887 24.1591 80.8079C24.3179 80.8874 24.3576 81.0066 24.4768 80.9669L25.8248 86.21L27.0141 90.9765L27.7279 93.5185C27.7279 93.5185 30.6231 102.615 30.6233 102.218C31.2977 103.846 31.8532 105.117 32.2502 105.515C32.3295 105.753 32.3692 105.872 32.4485 106.111C32.4485 106.111 32.4881 106.23 32.369 106.269C32.4085 106.786 32.4876 107.421 32.6066 107.779C32.0504 108.096 31.8119 108.573 31.6926 109.009C31.6131 109.168 31.6131 109.168 31.6528 109.287L33.0801 114.769L33.7542 117.192L34.468 119.734C34.468 119.734 37.3632 128.83 37.3634 128.433C37.7204 129.505 38.1568 130.419 38.514 131.094L38.5537 131.214C38.4738 132.167 38.7118 132.882 38.9101 133.478C38.7114 133.676 38.5923 133.716 38.3936 133.914C37.7181 134.669 37.2014 135.502 36.6847 136.336C36.3269 137.249 35.9293 138.044 35.7303 139.036C35.2926 140.903 35.133 142.809 35.3308 144.596L35.3701 145.51C35.4494 145.748 35.4095 146.026 35.4888 146.265L35.6077 147.019L35.8457 147.734C35.8457 147.734 35.8853 147.853 36.0043 148.211C36.0836 148.449 36.2423 148.926 36.5201 149.363C36.9566 150.277 37.8695 151.429 38.9415 152.263C40.0135 153.098 41.2444 153.615 42.1181 153.853C42.9917 154.092 43.5477 154.172 43.508 154.052C45.5731 154.292 47.1619 153.895 47.4798 153.657C47.5989 153.617 47.5593 153.498 47.5196 153.379C47.9566 153.101 48.354 152.704 48.4733 152.267C48.5528 152.109 48.5528 152.109 48.5131 151.989L48.3152 150.599L48.236 149.964L48.1569 149.328L47.9589 147.938L46.4894 147.898C46.2114 147.858 45.9731 147.937 45.8143 147.858L45.5363 147.818C45.2186 147.659 44.9406 147.619 44.623 147.46C43.948 147.023 43.1937 146.347 42.6777 145.593C42.4396 145.275 42.2809 144.798 42.1619 144.441L41.9239 143.726L41.8448 143.09C41.647 141.303 42.442 139.715 43.912 138.563C44.6669 138.047 45.5805 137.611 46.4146 137.333C47.3679 137.016 48.1623 137.016 48.9962 137.136C49.8302 137.255 50.5053 137.693 51.1007 138.289C51.6962 138.885 52.2121 139.639 52.3706 140.513C52.9259 142.182 52.6867 144.247 51.5344 145.557L51.4549 145.716L51.3357 145.755L51.2562 145.914L50.6602 146.51L50.0642 147.105L49.9847 147.264L49.8655 147.304L49.9052 147.423L50.1433 147.741C50.4211 148.178 50.7386 148.734 51.0164 149.171L51.6117 150.164C52.207 151.157 52.8024 152.15 53.3977 153.143L53.9136 153.898L54.0328 153.859L54.1123 153.7L54.3904 153.342C54.7878 152.945 55.1851 152.548 55.5428 152.032L56.6951 150.722C56.7746 150.563 56.8938 150.524 56.9733 150.365L57.1323 150.047L57.4105 149.69C57.7681 149.174 58.1258 148.658 58.4438 148.022C59.0003 146.91 59.4776 145.56 59.7164 144.29C60.1545 141.629 59.5997 138.769 58.1709 136.465C56.4645 133.326 53.4075 130.902 49.8334 130.107C50.1911 129.59 50.0324 129.114 48.8808 128.835C48.4439 128.716 47.888 128.636 47.4908 128.636C47.7291 128.557 47.7297 127.365 47.4131 124.823C47.0175 121.249 46.1063 116.125 46.1063 116.125L45.3531 113.067L44.9169 111.359L43.4896 105.877C43.4499 105.758 43.2911 105.678 43.2911 105.678C42.9338 105.4 42.6161 105.241 42.3381 105.201C42.2588 104.963 42.0207 104.645 41.3059 104.486C41.862 104.169 43.2523 103.574 43.2523 103.574C43.3715 103.534 43.3715 103.534 43.451 103.375L45.4334 110.922L46.1472 113.464C46.1472 113.464 49.0425 122.56 49.0426 122.163C50.0741 124.864 51.1058 126.771 51.1067 124.785C51.1463 124.904 51.186 125.024 51.2256 125.143C51.424 125.739 51.9402 126.096 52.377 126.216C52.5358 126.295 52.5357 126.295 52.6549 126.255C54.5614 126.018 56.5474 125.622 58.3745 125.146C59.725 124.829 61.0358 124.392 62.3863 124.075C62.3066 124.631 62.3858 125.267 62.5048 125.624C62.0281 125.783 61.7499 126.14 61.5512 126.339C61.4321 126.378 61.4321 126.378 61.4718 126.498C61.5511 126.736 65.3975 140.281 65.3975 140.281C65.3975 140.281 67.1432 144.332 67.183 144.054C67.4212 144.372 67.5799 144.849 67.7783 145.048C67.6983 146.398 68.254 147.272 68.6509 147.669L68.6906 147.788C68.6904 148.186 68.7698 148.424 68.8491 148.662C68.2931 148.583 67.9356 148.702 67.7369 148.9C67.6178 148.94 67.6178 148.94 67.6575 149.059C67.6573 149.456 67.9344 151.482 68.4895 153.547C68.9254 155.652 69.4409 157.599 69.4409 157.599C69.4409 157.599 70.5916 159.863 70.6711 159.704C70.6711 159.704 70.6711 159.704 70.7108 159.823C69.5986 160.061 68.407 160.458 67.255 160.973C66.2222 161.45 65.0702 161.965 64.0372 162.839C63.8385 163.037 63.5207 163.275 63.3617 163.593L62.9644 163.99L62.7258 164.467C62.4078 165.102 62.1295 165.856 62.0895 166.531C61.8903 167.921 62.2074 169.272 62.6437 170.583C63.1992 171.854 63.993 173.046 65.3033 173.801C65.8194 174.158 66.5739 174.437 67.249 174.477C68.083 174.596 68.6788 174.398 69.1952 174.359C70.3073 174.121 71.221 173.684 72.0552 173.407C72.1743 173.367 72.2538 173.208 72.2538 173.208C72.6909 172.533 72.7706 171.977 72.612 171.501C72.7708 171.58 72.89 171.54 73.168 171.58C73.8035 171.501 74.6773 171.343 76.2262 171.224C78.0135 171.026 80.198 170.829 81.9456 170.512C83.7329 170.314 85.0437 169.878 85.0437 169.878C85.6395 169.679 86.1162 169.521 86.6724 169.203L87.4669 168.806L87.9435 168.648L88.1819 168.568L88.4997 168.33C89.4928 167.735 90.7243 167.06 91.6384 165.83C91.9165 165.472 92.1154 164.877 92.2348 164.44L92.2744 164.559C92.6317 164.837 92.8302 165.036 93.1876 165.314C93.5052 165.473 93.8228 165.632 94.1405 165.791C95.3318 166.189 96.5233 166.189 97.4368 166.15C98.4694 166.071 99.5021 165.992 100.376 165.833C100.495 165.794 100.575 165.635 100.575 165.635C101.25 164.881 101.449 164.285 101.29 163.808C101.409 163.769 101.568 163.848 101.807 163.769C102.442 163.69 103.316 163.531 104.786 163.174C106.573 162.977 108.757 162.779 110.505 162.462C112.253 162.145 113.563 161.709 113.563 161.709C114.159 161.51 114.715 161.193 115.192 161.034C115.43 160.955 115.748 160.717 115.986 160.638L116.423 160.36C116.543 160.32 116.543 160.32 116.662 160.28L116.98 160.042C117.854 159.487 119.006 158.574 119.642 157.303C120.278 156.032 120.437 154.523 119.961 153.093C119.723 152.378 119.406 151.822 119.088 151.266C118.652 150.749 118.334 150.193 117.818 149.836C116.865 148.962 115.356 148.405 114.046 148.444C112.735 148.483 111.623 148.721 110.67 149.038C110.193 149.197 109.677 149.236 109.2 149.395C109.399 149.197 109.439 148.918 109.558 148.482C109.757 147.489 109.479 146.258 109.479 146.258C109.479 146.258 109.321 145.781 109.003 145.225C108.686 144.669 108.369 143.715 107.972 142.921C107.694 142.087 107.297 141.292 107.218 140.657C107.02 140.061 107.02 139.664 106.98 139.545C106.98 139.545 106.861 139.584 106.821 139.465C105.868 139.385 104.995 139.544 104.438 139.861C104.24 139.662 103.803 139.543 103.247 139.463C102.095 139.185 100.507 139.184 100.507 139.184C100.507 139.184 99.8713 139.263 99.0371 139.541C98.1633 139.699 96.932 139.977 95.7007 140.254C94.4694 140.532 93.1586 140.968 92.2053 141.285C92.0861 141.325 91.9669 141.365 91.8478 141.404C91.8081 141.285 91.7684 141.166 91.6492 141.206L91.6096 141.087C94.1517 140.373 101.619 138.549 101.619 138.549C101.619 138.549 104.718 137.121 104.598 137.16C105.83 136.486 106.426 135.493 104.123 135.333C102.733 135.134 100.906 135.213 100.906 135.213C100.906 135.213 94.5504 136.799 91.5317 137.671C90.7387 134.493 87.9238 123.65 87.9238 123.65C87.9238 123.65 86.8527 120.829 86.4162 119.916C88.9583 119.202 95.9094 117.418 95.9094 117.418C95.9094 117.418 96.9422 116.942 97.7367 116.545C97.8557 116.902 98.054 117.498 98.292 118.213C98.7282 119.524 99.1644 121.232 99.6005 122.94C100.037 124.648 100.512 126.475 100.83 127.826C101.147 129.176 101.424 130.01 101.424 130.01C101.424 130.01 101.504 130.249 101.781 130.686C101.9 131.043 102.218 131.599 102.496 132.036C102.972 133.069 104.14 135.335 104.14 135.335C104.656 136.089 104.828 135.525 105.066 135.445C105.463 135.446 105.592 134.579 105.394 133.189C105.236 132.315 105.157 131.283 105.038 130.528C104.919 129.774 104.84 129.138 104.84 129.138C104.84 129.138 104.563 128.304 104.246 126.953C103.928 125.603 103.492 123.895 103.016 122.068C102.541 120.241 102.065 118.413 101.589 116.984C101.113 115.554 100.676 114.64 100.676 114.64C101.391 114.402 102.226 114.124 103.099 113.966C105.284 113.371 107.429 112.657 107.31 112.697C108.502 112.3 109.455 111.983 110.13 111.626C110.607 112.261 110.885 112.301 110.885 111.11L110.845 110.99C110.766 110.355 110.767 109.561 110.608 108.29C110.41 106.9 110.173 105.39 109.975 104C110.768 106.383 112.434 111.786 112.473 111.508C112.751 112.342 113.108 113.017 113.307 113.613C112.591 114.248 111.916 115.002 111.36 115.717C110.008 117.623 109.332 119.966 109.411 122.19C109.331 122.746 109.41 123.381 109.569 123.858L109.648 124.493C109.688 124.613 109.688 124.613 109.727 124.732L109.886 125.606L110.163 126.44L110.441 127.274C110.441 127.274 110.481 127.393 110.719 127.711C110.798 127.949 111.076 128.386 111.314 128.704C111.87 129.578 112.624 130.651 113.696 131.485C115.641 133.353 118.024 134.148 117.825 133.949C119.771 134.625 121.558 134.428 121.876 134.189C121.995 134.15 121.956 134.031 121.757 133.832C122.512 133.713 122.949 133.038 123.148 132.443C123.227 132.284 123.227 132.284 123.188 132.165L122.196 128.391L122.077 128.034L122.038 127.914L121.919 127.954L121.243 127.914C120.846 127.914 120.33 127.953 119.814 127.993L119.416 127.993C119.297 128.032 119.258 127.913 119.139 127.953C118.98 127.873 118.86 127.913 118.702 127.834C118.106 127.635 117.63 127.396 117.312 126.84C116.995 126.284 116.796 125.688 116.677 124.933C116.559 123.384 117.076 121.756 117.831 120.446C118.706 119.096 119.977 118.143 121.327 117.826C121.446 117.787 121.685 117.707 121.844 117.787C121.963 117.747 122.241 117.787 122.36 117.747C122.638 117.787 123.035 117.787 123.353 117.946C124.068 118.106 124.743 118.543 125.298 119.02C126.41 119.973 127.164 121.443 127.044 122.674C127.044 123.071 126.925 123.111 126.885 123.389C126.806 123.548 126.607 123.746 126.21 124.143C125.931 124.501 125.296 124.977 124.898 125.771C124.779 126.208 124.62 126.525 124.501 126.962C124.381 127.399 124.381 127.796 124.5 128.154C124.619 128.908 124.817 129.504 125.135 130.06C125.254 130.418 125.889 131.53 126.484 132.126L127.357 133.159L127.794 133.676L127.834 133.795L127.913 133.636L128.231 133.398L129.264 132.525C129.582 132.286 129.979 131.89 130.257 131.532C131.052 130.738 131.211 130.421 131.608 130.024C131.847 129.547 132.204 129.031 132.443 128.554C133.039 127.562 133.318 126.41 133.477 125.298C133.636 124.186 133.637 122.995 133.558 121.962C133.439 120.81 133.202 119.698 132.765 118.785C131.654 117.434 130.344 115.487 128.676 114.057ZM54.9526 139.521C54.7543 138.926 54.5163 138.211 54.1988 137.655C54.437 137.972 54.5163 138.211 54.7544 138.529C55.7465 140.316 56.1032 142.183 55.8243 144.129C55.6253 145.122 55.3866 145.995 54.8699 146.829C54.6314 147.306 54.3533 147.663 54.1148 148.139L53.8366 148.497L53.5191 147.941L53.7178 147.742C55.4266 145.32 55.706 142.183 54.9526 139.521ZM43.8667 151.153L44.3036 151.273L44.3432 151.392L44.6604 152.742C44.3427 152.583 43.9455 152.583 43.6279 152.424C42.8734 152.146 42.0792 151.748 41.3646 151.192C40.65 150.636 40.0545 150.04 39.737 149.483C39.3004 148.967 39.1021 148.371 38.9434 147.894C38.7848 147.418 38.7054 147.179 38.7054 147.179C38.5071 146.584 38.3088 145.988 38.2297 145.352L38.309 145.591C38.547 146.306 38.9041 146.981 39.2216 147.537C40.0153 148.729 41.0078 149.722 42.1989 150.517C42.6357 150.637 43.2711 150.954 43.8667 151.153ZM47.846 133.68C47.4489 133.68 47.1709 133.64 46.7737 133.64L45.7411 133.719C45.3836 133.838 45.1453 133.917 44.7481 133.917C43.4373 134.353 42.2853 134.869 41.1331 135.782C40.3783 136.298 39.7028 137.052 39.1465 137.767C39.385 137.291 39.6632 136.933 39.9413 136.576C40.7758 135.504 41.9279 134.591 43.3579 134.115C44.7879 133.639 46.2972 133.401 47.6872 133.601C47.7269 133.72 47.846 133.68 47.846 133.68ZM45.0298 125.617C45.7439 127.364 46.3787 128.874 46.6964 129.033C46.1404 128.953 45.902 129.033 45.902 129.033C45.902 129.033 41.0164 130.262 38.9509 130.817C38.8718 130.181 38.8325 129.268 38.7138 128.116C38.3183 124.541 37.4071 119.418 37.4071 119.418L36.6538 116.359L35.9797 113.936L34.7111 108.931C36.6574 108.416 39.4775 107.742 39.4775 107.742C39.4775 107.742 39.5966 107.702 39.7953 107.504L41.064 112.509L41.5001 114.217L42.2139 116.759C42.1344 116.918 45.0296 126.014 45.0298 125.617ZM34.5633 83.8309L35.6337 88.2398L36.2282 90.8216C36.2282 90.8216 36.9819 93.0858 37.6163 95.3896C38.3699 97.6537 39.0838 99.7987 39.0045 99.5604C39.2822 100.395 39.6393 101.07 39.8376 101.666C39.7184 101.705 39.5596 101.626 39.5596 101.626C39.5596 101.626 37.5736 102.022 35.4685 102.458C34.4755 102.656 33.3634 102.894 32.6484 103.132C32.4101 103.211 32.1718 103.291 31.9334 103.37C31.9336 102.973 31.8146 102.615 31.7751 102.099C31.3796 98.5243 30.4683 93.4006 30.4683 93.4006L29.7151 90.3421L28.5257 85.5758L27.257 80.5709C27.8529 80.3726 28.4884 80.2935 29.0842 80.0952C30.4347 79.7781 31.7851 79.4609 33.1356 79.1438C33.1356 79.1438 33.1356 79.1438 33.2547 79.1041L34.5633 83.8309ZM42.2204 102.064C41.7835 101.944 41.5055 101.905 41.2276 101.865C41.1484 101.229 41.1488 100.435 40.911 99.3229C40.6733 97.8136 40.5152 96.1455 40.238 94.517L42.2204 102.064ZM68.1362 144.134C68.2164 142.387 67.8599 140.123 67.8599 140.123C67.8599 140.123 65.0841 130.59 64.0927 127.214C67.2703 126.421 73.3475 124.795 73.3475 124.795C73.3475 124.795 74.857 124.16 75.7707 123.724C75.7705 124.121 75.9688 124.717 76.048 125.352C76.4048 126.822 76.7614 128.689 77.3563 130.476C77.8321 132.303 78.427 134.091 78.8633 135.402C79.2996 136.712 79.5772 137.547 79.5772 137.547C79.5772 137.547 80.0534 138.579 80.5295 139.612C81.0056 140.645 81.4421 141.559 81.4025 141.44C81.6406 141.757 81.7596 142.115 81.9581 142.314C81.7993 142.234 81.5213 142.194 81.1241 142.194C79.7341 141.995 77.9072 142.073 77.9072 142.073C77.9072 142.073 70.7178 143.937 67.8977 144.611C68.136 144.532 68.2155 144.373 68.1362 144.134ZM71.9828 157.282C71.9828 157.282 71.4674 155.336 71.0315 153.231C70.8333 152.238 70.6352 151.245 70.5163 150.49C70.437 150.252 70.3973 150.132 70.4768 149.974L70.596 149.934C71.589 149.736 72.8203 149.458 74.1311 149.022C76.7129 148.427 79.2947 147.833 79.2947 147.833C79.2947 147.833 81.2808 147.039 81.9562 146.682C81.9163 146.96 81.9957 147.199 81.9957 147.199C81.9957 147.199 83.423 152.68 84.0574 154.984C83.2631 154.983 82.5085 155.102 82.5085 155.102C82.5085 155.102 75.4383 156.926 72.1415 157.759C72.0622 157.52 71.9828 157.282 71.9828 157.282ZM88.303 164.16C88.0645 164.637 87.5876 165.192 86.7931 165.589C86.4753 165.827 85.9191 166.145 85.8 166.184C85.5616 166.264 85.3233 166.343 85.1247 166.542C84.648 166.7 84.211 166.978 83.7343 167.137C83.7343 167.137 83.2577 167.295 82.4632 167.692C81.6291 167.97 80.5566 168.327 79.4841 168.684C77.2994 169.279 75.0353 170.032 75.2737 169.953C73.4862 170.548 72.1752 171.381 71.9367 171.858L71.897 171.739C71.6192 171.302 70.9839 170.984 70.5471 170.864C70.3883 170.785 70.3882 170.785 70.2691 170.824C69.3157 171.142 68.4815 171.419 67.7666 171.657C67.4091 171.776 67.0119 171.776 67.0119 171.776C66.8531 171.697 66.5751 171.657 66.3766 171.458C65.384 170.862 64.511 169.035 64.7102 167.645C64.7104 167.247 64.8694 166.93 64.9093 166.652C64.9888 166.493 65.1478 166.175 65.4656 165.937C65.9424 165.381 66.7369 164.985 67.5711 164.707C69.3189 163.993 71.3048 163.597 73.4498 162.883C75.4756 162.208 77.4219 161.693 79.4477 161.019C80.401 160.701 81.3941 160.503 82.387 160.305C83.38 160.107 84.373 159.909 85.1673 159.909C85.9616 159.909 86.3985 160.029 86.9543 160.506C87.1528 160.704 87.3909 161.022 87.6291 161.34C87.8672 161.658 88.0259 162.134 88.2641 162.452C88.502 163.167 88.5415 163.684 88.303 164.16ZM82.0762 144.657L81.9967 144.816C81.8775 144.855 81.7188 144.776 81.7188 144.776C81.3216 144.776 80.8847 144.656 80.6067 144.617C81.2821 144.259 81.9574 143.902 81.9574 143.902C82.1957 143.823 82.2752 143.664 82.5135 143.585C82.1957 143.823 82.1559 144.101 82.0762 144.657ZM110.628 152.891C111.621 152.693 112.455 152.415 113.21 152.296C113.965 152.177 114.441 152.416 114.957 152.773C115.473 153.131 115.95 153.767 116.267 154.323C116.783 155.475 116.505 156.626 115.194 157.46C114.876 157.698 114.439 157.976 114.2 158.055L113.525 158.412C113.088 158.69 112.611 158.849 112.135 159.008C112.135 159.008 111.698 159.285 110.864 159.563C110.029 159.841 108.957 160.198 107.884 160.555C105.7 161.149 103.436 161.903 103.714 161.943C101.966 162.657 100.655 163.49 100.416 163.967C100.258 163.49 99.7416 163.133 99.3047 163.013C99.1459 162.934 99.146 162.934 99.0268 162.973C98.153 163.132 97.2395 163.171 96.326 163.21C95.5317 163.21 94.7374 163.21 94.1417 163.011C93.5461 162.812 93.3476 162.613 93.1889 162.137C93.0303 161.66 93.1101 160.707 93.1502 160.032C93.2695 159.595 93.6272 159.079 94.2232 158.483C94.8588 158.007 95.6137 157.491 96.4082 157.094C97.9971 156.301 99.745 155.586 101.691 155.071C103.479 154.476 105.465 154.08 107.292 153.604C108.682 153.406 109.675 153.208 110.628 152.891ZM93.632 147.958C93.2751 146.886 93.077 145.893 92.839 145.178C92.9582 145.138 92.9582 145.138 93.0774 145.099C93.9115 144.821 94.984 144.464 96.0961 144.226C97.2083 143.988 98.4396 143.711 99.3134 143.552C100.187 143.394 100.783 143.196 100.783 143.196C100.783 143.196 101.458 142.838 102.173 142.6C102.849 142.243 103.564 142.005 103.405 141.926L103.524 141.886C103.564 142.005 103.603 142.125 103.643 142.244C103.881 142.959 104.198 143.912 104.595 144.707C105.032 145.62 105.309 146.454 105.627 147.01C105.944 147.567 106.103 148.043 106.103 148.043C106.103 148.043 106.5 148.441 106.778 148.878C107.175 149.275 107.452 149.712 107.452 149.712C107.452 149.712 107.492 149.831 107.611 149.791C106.221 149.592 104.394 149.671 104.394 149.671C104.394 149.671 97.5624 151.415 94.782 152.208C94.7027 151.97 94.7028 151.573 94.5441 151.096C94.1077 150.183 93.8698 149.071 93.632 147.958ZM83.9536 120.471C83.913 122.337 84.1899 124.76 84.1899 124.76C84.1899 124.76 88.0755 139.616 88.1549 139.854L88.3137 139.933C88.7505 140.053 89.1477 140.053 89.5448 140.053C89.6638 140.411 89.7828 140.768 89.8621 141.006C89.6635 141.205 89.6236 141.483 89.5043 141.92C89.1861 142.952 89.1854 144.541 89.1854 144.541C89.1854 144.541 89.3441 145.017 89.5025 145.891C89.7405 146.606 89.9783 147.718 90.3353 148.791C90.6526 149.744 90.8904 150.856 91.0092 151.611C91.128 152.366 91.1675 152.882 91.1675 152.882L91.3263 152.962C92.0411 153.121 92.5575 153.081 93.0738 153.042C92.994 153.995 93.2319 154.71 93.5097 155.147C93.1919 155.385 92.8741 155.623 92.5562 155.861C91.6424 156.695 90.6491 157.687 90.3307 159.117C90.3307 159.117 90.3704 159.236 90.2512 159.276C90.0131 158.958 89.8941 158.601 89.5764 158.441C89.1398 157.925 88.5443 157.329 87.7898 157.051C87.4722 156.892 86.9957 156.653 86.5985 156.653C87.2342 156.177 87.4727 155.7 86.9962 155.462L87.1154 155.422C87.2345 155.382 87.2346 155.382 87.2346 155.382C87.1949 155.263 85.0143 146.723 85.0143 146.723C85.0143 146.723 83.7842 144.221 83.7047 144.38C83.2681 143.863 82.871 143.466 82.5135 143.585C82.7122 143.386 82.9109 143.188 82.8316 142.949C83.1096 142.989 83.3084 142.394 83.2296 140.964C83.151 139.137 82.7549 136.754 82.7549 136.754C82.7549 136.754 82.4773 135.919 82.0013 134.49C81.565 133.179 80.97 131.391 80.5339 129.683C80.0581 127.856 79.622 126.148 79.3049 124.798C78.9877 123.447 78.9485 122.534 78.9485 122.534L78.7896 122.454C78.3131 122.216 77.7572 122.136 77.3997 122.255C77.3203 122.017 76.8438 121.778 75.9304 121.818C75.6524 121.778 75.3744 121.738 74.9772 121.738C76.2085 121.46 77.3207 121.222 78.552 120.945L83.954 119.676C84.0731 119.637 83.9141 119.954 83.9536 120.471ZM103.908 81.3992C104.265 82.4717 104.543 83.3058 104.503 83.1867C105.098 84.9741 105.733 86.4836 106.17 86.603C106.329 86.6825 106.329 86.6825 106.408 86.5236C106.448 86.6428 106.487 86.7619 106.527 86.8811C106.527 86.8811 106.527 86.8811 106.408 86.9208L106.328 87.0797C106.328 87.4768 106.328 87.8739 106.447 88.2314C106.129 88.4696 105.93 88.6681 105.771 88.9858L103.908 81.3992ZM118.501 132.004L118.898 132.004L119.017 132.361L119.295 133.593C118.977 133.434 118.501 133.195 118.143 132.917C117.468 132.48 116.754 131.923 115.999 131.248C115.999 131.248 115.999 131.248 115.96 131.129C116.317 131.407 116.754 131.526 117.191 131.646C117.508 131.805 117.786 131.844 118.064 131.884C118.223 131.964 118.382 132.043 118.501 132.004ZM122.401 115.086C122.123 115.047 121.726 115.046 121.448 115.007C121.17 114.967 120.812 115.086 120.534 115.046C119.263 115.204 118.111 115.72 117.158 116.434C116.204 117.149 115.29 117.982 114.694 118.975C113.343 120.881 112.667 123.224 112.785 125.567C112.785 125.567 112.785 125.567 112.745 125.448C112.666 125.21 112.587 124.971 112.507 124.733L112.388 124.375L112.349 124.256L112.309 123.74C112.151 122.072 112.39 120.404 113.106 118.974C113.543 118.299 113.98 117.624 114.576 117.029C115.172 116.433 115.808 115.957 116.602 115.56C118.072 114.806 119.74 114.251 121.369 114.371C122.957 114.372 124.625 115.008 125.895 116.041C126.57 116.478 127.206 117.193 127.682 117.829C127.642 117.71 127.483 117.63 127.444 117.511C126.61 116.597 125.498 116.041 124.426 115.604C123.672 115.325 123.076 115.126 122.401 115.086ZM129.863 124.78C129.743 126.409 129.067 127.957 128.034 129.228C127.836 129.426 127.955 129.387 127.836 129.426L127.756 129.188L127.677 128.95C127.637 128.83 127.558 128.592 127.518 128.473C127.439 128.235 127.479 127.957 127.439 127.837C127.479 127.559 127.519 127.679 127.678 127.361C127.876 127.162 128.393 126.726 128.87 126.17C129.346 125.614 129.744 124.82 129.903 124.105C129.943 123.827 129.983 123.549 129.943 123.43C129.864 123.986 129.863 124.383 129.863 124.78Z" fill="#F4774C"/>
</svg>
