<svg width="90" height="106" viewBox="0 0 90 106" fill="none" xmlns="http://www.w3.org/2000/svg">
<path d="M85.2533 75.3243C84.7642 74.7741 84.1814 74.1898 83.5942 73.7631C83.4708 73.6649 83.3772 73.6307 83.2538 73.5326C83.3178 73.5028 83.3177 73.5029 83.3817 73.4731C83.8976 73.0777 83.5112 72.2466 82.8763 72.3863C81.3851 72.6909 79.9102 73.5322 78.5334 74.2502C78.5379 74.0926 78.4784 73.9647 78.419 73.8369C78.8576 73.9439 79.4032 73.6125 79.1654 73.101C77.6611 70.5348 76.191 67.8749 74.0771 65.6699C72.0568 63.4991 69.3497 62.192 66.6083 60.9785C66.421 60.9101 66.2039 60.7778 65.9527 60.7392C65.0845 60.2098 64.1524 59.7102 63.25 59.2745C61.0111 58.1384 58.6443 57.0617 56.3073 56.049C55.0005 55.4126 53.6938 54.7762 52.2889 54.2631C50.0158 53.2207 47.8111 51.991 45.6704 50.7315C47.5695 44.9498 50.0306 39.3733 51.5551 33.4549C52.4415 30.0102 53.1153 26.2757 52.8392 22.6719C52.7235 20.082 52.3223 17.5471 51.2908 14.9943C52.5739 14.2421 53.704 13.3279 54.3062 12.1148C54.3404 12.0212 54.3746 11.9275 54.4088 11.8338C54.8221 11.7194 55.1165 11.3492 54.9084 10.9017C53.9022 8.57039 52.8946 4.0626 50.0758 3.35166C50.0551 2.97255 49.8425 2.6826 49.34 2.60524C46.1718 1.97901 42.6854 3.67801 39.8976 5.20756C36.2787 7.12358 32.8977 9.551 29.2446 11.5607C24.4066 14.1991 19.1136 16.1938 13.9738 18.3505C11.3228 19.5054 8.73588 20.6306 6.1444 21.9133C6.01653 21.9728 5.9184 22.0962 5.79054 22.1556C3.82208 22.6044 2.02301 23.752 1.83696 25.8602C1.73882 25.9835 1.70464 26.0773 1.57677 26.1367C2.26499 27.4495 2.82533 28.8218 3.10023 30.2491C3.42276 31.1099 3.8732 31.9113 4.45145 32.6533C4.83344 33.642 5.34324 34.5712 6.01068 35.5049C6.25298 35.8588 6.75552 35.9362 7.10938 35.6939C8.00443 35.2777 8.89945 34.8615 9.79449 34.4453C9.88368 34.6371 9.97284 34.8289 10.0323 34.9567C10.5466 35.7284 11.2186 36.5045 11.9886 37.1572C13.1586 38.1683 14.4564 39.12 15.6308 39.9735C17.4222 41.3177 19.3667 42.824 21.4227 43.734C25.7221 45.6226 30.4319 46.3872 34.9707 47.6202C36.3801 47.9757 37.7553 48.4248 39.0026 48.9333C39.8753 49.3051 40.7776 49.7408 41.6161 50.2062C42.2375 50.5393 42.7951 50.9021 43.3525 51.2649C43.4462 51.2991 43.4759 51.3631 43.5696 51.3973C42.9926 52.8319 42.4156 54.2666 41.8683 55.7651C39.9231 60.9461 37.7862 66.2163 36.1518 71.5639C35.322 74.1269 34.62 76.6304 34.2629 79.2069C34.2584 79.3645 34.19 79.5518 34.1855 79.7094C34.2152 79.7733 34.1811 79.867 34.1811 79.867C34.1766 80.0246 34.1721 80.1822 34.1379 80.2759C33.8431 83.9897 34.3066 87.6619 36.1929 91.2168C36.2226 91.2807 36.2226 91.2808 36.2523 91.3447C36.4946 91.6986 36.7369 92.0525 37.1368 92.4108L37.0729 92.4405L37.1368 92.4108C37.0342 92.6918 37.0892 92.9772 37.2721 93.2032C35.9935 93.7978 34.6806 94.486 34.0234 95.4136C34.181 95.4181 34.4322 95.4568 34.6537 95.4315C34.7429 95.6233 34.8023 95.7512 34.8915 95.943C34.5971 96.3132 34.4514 97.003 35.0431 97.2722C35.2601 97.4045 35.4771 97.5368 35.6942 97.6691C36.7688 99.8131 37.9714 101.898 39.2379 103.952C39.3568 104.208 39.6378 104.311 39.9872 104.226C40.3708 104.048 40.6905 103.899 41.1038 103.785C41.2614 103.789 41.4189 103.794 41.5468 103.734C41.6747 103.675 41.8025 103.615 41.9304 103.556C42.0582 103.496 42.1222 103.467 42.1564 103.373C43.273 102.931 44.3598 102.426 45.5403 101.955C49.3791 101.181 52.9682 99.2007 56.3448 96.9308C66.6126 91.9231 76.7021 86.5318 87.0293 81.652C87.4129 81.4736 87.456 81.0648 87.3073 80.7451C87.7207 80.6307 88.143 80.2011 87.9051 79.6896C87.1872 78.3128 86.3504 76.6803 85.2533 75.3243ZM6.83606 33.0995C6.71715 32.8438 6.62797 32.652 6.50906 32.3963C6.6919 32.6223 6.78113 32.8141 6.96397 33.0401C6.90004 33.0698 6.83606 33.0995 6.83606 33.0995ZM5.29184 28.6079C5.05401 28.0965 4.78648 27.5211 4.48472 27.0394C4.54865 27.0096 4.61256 26.9799 4.61256 26.9799C4.76119 27.2996 4.97375 27.5895 5.12239 27.9092C5.21157 28.101 5.23686 28.3225 5.29184 28.6079ZM8.10578 32.8202C8.07606 32.7562 8.07603 32.7562 8.04631 32.6923C8.30203 32.5733 8.40464 32.2924 8.2218 32.0664C7.97503 31.8701 7.76242 31.5802 7.57958 31.3542L7.64357 31.3244C7.97953 31.7125 8.34523 32.1645 8.68119 32.5526C8.48939 32.6418 8.29758 32.731 8.10578 32.8202ZM8.14317 30.3923C8.11344 30.3284 8.08376 30.2645 7.96037 30.1663C7.99457 30.0727 7.9648 30.0087 7.999 29.9151C8.05846 30.0429 8.05398 30.2005 8.14317 30.3923ZM6.44135 25.8963C6.28376 25.8919 6.09199 25.981 6.02358 26.1683C5.99385 26.1044 5.96405 26.0405 5.87039 26.0063C5.96852 25.8829 6.13066 25.7298 6.22879 25.6064C6.22879 25.6064 6.22879 25.6064 6.25852 25.6703C6.35218 25.7045 6.41162 25.8324 6.44135 25.8963ZM35.4669 95.6754C35.4372 95.6115 35.4372 95.6115 35.4075 95.5476C35.4714 95.5179 35.5993 95.4584 35.6929 95.4926C35.5651 95.5521 35.5309 95.6457 35.4669 95.6754ZM40.078 103.251C39.9888 103.059 39.806 102.833 39.7168 102.641C39.9338 102.773 40.1167 102.999 40.3337 103.132C40.2698 103.162 40.1419 103.221 40.078 103.251ZM37.8129 96.373C37.7832 96.309 37.7192 96.3387 37.6895 96.2748L37.6598 96.2109C37.7237 96.1811 37.8219 96.0578 37.8858 96.028C37.7877 96.1514 37.7534 96.2451 37.8129 96.373ZM80.2145 78.3671C80.2784 78.3374 80.2784 78.3374 80.372 78.3716L80.436 78.3418C80.546 78.9127 80.6262 79.4198 80.7361 79.9907C80.4596 79.7305 80.2471 79.4405 80.0048 79.0867C80.1372 78.8696 80.1758 78.6184 80.2145 78.3671ZM47.8848 13.8566C47.983 13.7332 48.0469 13.7035 48.1109 13.6737C48.0767 13.7674 47.9488 13.8268 47.8848 13.8566ZM49.753 5.83446C49.9745 5.8092 50.1321 5.81368 50.3834 5.85236C50.6375 6.90052 50.9213 8.0126 51.1115 9.09049C50.6061 8.00365 50.1647 6.88709 49.753 5.83446ZM52.3259 11.8693C52.2962 11.8054 52.3304 11.7117 52.3304 11.7117C52.3646 11.618 52.369 11.4604 52.3393 11.3965C52.2932 10.7959 52.277 10.2592 52.167 9.68828C52.4049 10.1997 52.6129 10.6472 52.8508 11.1587C52.9697 11.4144 53.2849 11.4234 53.5406 11.3045C53.5704 11.3684 53.5703 11.3684 53.6001 11.4323C53.4722 11.4918 53.3443 11.5512 53.2461 11.6746C52.5592 12.5383 51.6255 13.2058 50.5981 13.8391C50.5045 13.8048 50.4405 13.8345 50.2829 13.8301C50.8628 13.4049 51.349 12.9455 51.8694 12.3925C52.0909 12.3673 52.3809 12.1548 52.3259 11.8693ZM49.2742 7.14568C49.3039 7.20961 49.3634 7.33749 49.3931 7.40142L49.2993 7.36719C49.2696 7.30325 49.24 7.23934 49.2742 7.14568ZM47.5332 6.24453C47.725 6.15534 48.0105 6.10041 48.232 6.07516C48.2528 6.45427 48.3375 6.80366 48.3583 7.18278C47.8558 7.10542 47.2552 7.15144 46.7185 7.16774C46.6887 7.10381 46.659 7.03984 46.6293 6.97591C46.8895 6.69941 47.1794 6.48683 47.5332 6.24453ZM47.7129 8.80467C47.6237 8.61287 47.4706 8.45082 47.3814 8.25902C47.4453 8.2293 47.539 8.26355 47.603 8.23382C47.9181 8.24277 48.2333 8.25172 48.4846 8.2904C48.5143 8.35433 48.4801 8.44793 48.5098 8.51187C48.2541 8.63078 47.9687 8.68576 47.7129 8.80467ZM48.6063 9.55557C48.6019 9.71316 48.6613 9.84099 48.6569 9.99859C48.6569 9.99859 48.5929 10.0284 48.6226 10.0923C48.5632 9.96447 48.4695 9.93026 48.4101 9.8024C48.4145 9.64481 48.4785 9.61502 48.6063 9.55557ZM47.1314 10.397C47.1314 10.397 47.1954 10.3672 47.1314 10.397C47.2593 10.3375 47.3871 10.2781 47.515 10.2186C47.6042 10.4104 47.7573 10.5724 47.8465 10.7642C47.6845 10.9173 47.5224 11.0704 47.3603 11.2235C47.3053 10.9381 47.1864 10.6824 47.1314 10.397ZM47.6099 12.4293C47.8999 12.2167 48.224 11.9105 48.4842 11.634C48.5139 11.6979 48.5436 11.7619 48.667 11.86C48.8796 12.1499 49.4848 11.9463 49.464 11.5672C49.4729 11.252 49.5458 10.9071 49.525 10.528C49.7213 10.2812 49.9815 10.0047 50.1778 9.75796C50.212 9.6643 50.2759 9.63455 50.3101 9.54089C50.5479 10.0523 50.8155 10.6277 51.0533 11.1392C49.9664 11.6446 48.786 12.1157 47.6694 12.5572C47.6055 12.5869 47.6397 12.4932 47.6099 12.4293ZM45.7029 8.49525C45.7876 8.84464 45.8426 9.13012 45.9273 9.47951C45.7994 9.53897 45.6716 9.59842 45.5437 9.65787C45.4248 9.40215 45.2122 9.11217 45.0933 8.85645C45.0636 8.79251 45.0339 8.72862 44.9402 8.69442C45.196 8.57551 45.4174 8.55023 45.7029 8.49525ZM45.8304 11.7795C45.8899 11.9073 46.043 12.0694 46.1024 12.1972C46.0385 12.227 45.9746 12.2567 46.0043 12.3206C45.9151 12.1288 45.9196 11.9713 45.8304 11.7795ZM46.9943 14.1152C47.024 14.1791 47.0835 14.307 47.1772 14.3412C46.9854 14.4304 46.8233 14.5835 46.6315 14.6727C46.572 14.5448 46.6062 14.4511 46.5468 14.3233C46.6746 14.2638 46.8664 14.1747 46.9943 14.1152ZM43.3879 10.0382C43.4905 9.75724 43.3716 9.50152 43.1545 9.36918C43.4103 9.25027 43.666 9.13136 43.956 8.91879C44.0838 8.85933 44.1478 8.82959 44.3053 8.83407C44.2711 8.92773 44.2369 9.02144 44.2666 9.08537C44.3513 9.43476 44.4064 9.72021 44.4911 10.0696C44.1714 10.2182 43.9157 10.3372 43.596 10.4858C43.5068 10.294 43.4474 10.1661 43.3879 10.0382ZM44.7957 11.5608C44.9399 12.038 45.0543 12.4514 45.1345 12.9583C45.0706 12.9881 44.9724 13.1115 44.9085 13.1412C44.6365 12.7234 44.4284 12.2759 44.1564 11.8581C44.4418 11.8031 44.6039 11.65 44.7957 11.5608ZM45.5104 15.2717C44.3254 15.9005 43.081 16.4014 41.743 16.8681C41.679 16.8978 41.5511 16.9573 41.4872 16.987C42.3867 16.4132 43.1926 15.8052 44.0624 15.1675C44.4118 15.0827 44.7315 14.9342 45.0808 14.8494C45.2042 14.9476 45.2933 15.1394 45.5104 15.2717ZM43.6567 12.7902C43.8054 13.1099 44.018 13.3998 44.2305 13.6897C44.1027 13.7492 44.0045 13.8726 43.8127 13.9618C43.7919 13.5826 43.6775 13.1693 43.6567 12.7902ZM42.0066 10.9138C42.0706 10.8841 42.1984 10.8246 42.2624 10.7949C42.2921 10.8588 42.3218 10.9227 42.2876 11.0164C42.2237 11.0461 42.1597 11.0758 42.0319 11.1353L41.9427 10.9435L42.0066 10.9138ZM42.6917 14.5608C42.1505 14.7347 41.703 14.9428 41.1618 15.1167C41.2005 14.8654 41.2391 14.6142 41.2778 14.3629C41.6019 14.0567 41.8622 13.7802 42.216 13.5379L42.6917 14.5608ZM37.6996 11.5169C38.5307 11.1305 39.4258 10.7143 40.2866 10.3917L40.3164 10.4557C39.4852 10.8422 38.6541 11.2286 37.7591 11.6448C37.7293 11.5809 37.6996 11.5169 37.6996 11.5169ZM38.4827 15.0406L38.5467 15.0108C38.5764 15.0747 38.5764 15.0748 38.6062 15.1387C38.5422 15.1684 38.5422 15.1685 38.4782 15.1982C38.5124 15.1045 38.4827 15.0406 38.4827 15.0406ZM36.357 12.1412C36.4848 12.0818 36.6127 12.0223 36.8045 11.9331L36.8343 11.997C36.7064 12.0565 36.5785 12.1159 36.4507 12.1754L36.421 12.1115L36.357 12.1412ZM34.6606 13.0078L34.0852 13.2754C34.2769 13.1862 34.4688 13.097 34.6606 13.0078ZM36.9781 15.8179L37.1565 16.2016C36.9305 16.3844 36.7044 16.5672 36.4487 16.6862C36.3208 16.7456 36.2569 16.7753 36.193 16.8051C36.1974 16.6475 36.1722 16.426 36.1767 16.2684C36.4027 16.0855 36.6584 15.9665 36.9781 15.8179ZM33.3653 16.4093C33.4293 16.3796 33.5571 16.3202 33.621 16.2904L33.6507 16.3544C33.5229 16.4138 33.4589 16.4435 33.3311 16.503C33.395 16.4733 33.3951 16.4733 33.3653 16.4093ZM33.6447 17.679C33.9004 17.5601 34.1264 17.3773 34.446 17.2286C34.5055 17.3565 34.5992 17.3907 34.7226 17.4888C34.4029 17.6374 34.0833 17.7861 33.7636 17.9347C33.6402 17.8366 33.6105 17.7726 33.6447 17.679ZM36.386 18.8925C35.5549 19.2789 34.6599 19.6951 33.8585 20.1455C33.863 19.9879 33.8036 19.86 33.8378 19.7664C34.7283 19.5078 35.5252 19.215 36.386 18.8925ZM32.5 16.8894C32.5297 16.9534 32.5297 16.9533 32.4955 17.047C32.1759 17.1956 31.8859 17.4082 31.5663 17.5568C31.5365 17.4929 31.5068 17.429 31.4771 17.3651C31.8607 17.1867 32.1803 17.0381 32.5 16.8894ZM32.7154 18.1888C32.7451 18.2527 32.711 18.3464 32.7407 18.4104C32.7407 18.4104 32.7406 18.4104 32.6767 18.4401C32.5488 18.4996 32.421 18.559 32.2931 18.6185C32.2634 18.5545 32.2337 18.4906 32.2337 18.4906C32.3958 18.3375 32.5236 18.278 32.7154 18.1888ZM32.9589 20.7193C32.7672 20.8084 32.5412 20.9913 32.3791 21.1445C31.6759 21.4715 30.9429 21.7345 30.2694 22.1254C30.1757 22.0912 30.0181 22.0867 29.9245 22.0525C30.8537 21.5427 31.7829 21.0328 32.7122 20.523C32.7419 20.5869 32.8356 20.6211 32.9589 20.7193ZM29.7806 18.2317C29.9724 18.1425 30.1642 18.0533 30.356 17.9641C30.4155 18.092 30.3813 18.1856 30.4407 18.3135C30.3129 18.3729 30.121 18.4621 30.0229 18.5855C29.9337 18.3937 29.904 18.3298 29.7806 18.2317ZM30.0514 16.4729C29.6975 16.7152 29.3139 16.8936 28.96 17.1359C28.9303 17.0719 28.9303 17.072 28.9006 17.008C29.2842 16.8297 29.6678 16.6513 30.0514 16.4729ZM28.4381 18.8559C28.5659 18.7965 28.7577 18.7073 28.8856 18.6479C28.945 18.7757 29.0685 18.8738 29.1279 19.0017C28.9361 19.0909 28.7101 19.2737 28.5183 19.3629C28.5228 19.2053 28.5272 19.0477 28.4381 18.8559ZM24.9608 16.8961C25.2165 16.7772 25.4723 16.6583 25.6983 16.4755C25.4723 16.6583 25.2165 16.7772 24.9608 16.8961C24.9905 16.9601 24.9608 16.8961 24.9608 16.8961ZM25.5762 18.5539C26.1516 18.2863 26.663 18.0485 27.2384 17.781C27.2681 17.8449 27.2978 17.9088 27.2636 18.0024C26.7522 18.2402 26.2065 18.5718 25.6951 18.8096C25.6356 18.6817 25.6059 18.6178 25.5762 18.5539ZM27.5727 19.3361C27.598 19.5576 27.6872 19.7494 27.7124 19.9709C27.5207 20.0601 27.3585 20.2132 27.2307 20.2727C27.0776 20.1106 26.9884 19.9188 26.8353 19.7567C27.0613 19.5739 27.317 19.455 27.5727 19.3361ZM28.0615 23.2298C27.8697 23.319 27.6779 23.4082 27.5158 23.5613C27.324 23.6505 27.0386 23.7055 26.8468 23.7947C26.8171 23.7307 26.8512 23.6371 26.8215 23.5731C27.1412 23.4245 27.5247 23.2461 27.8444 23.0975C27.9381 23.1317 28.0318 23.1659 28.0615 23.2298ZM23.2302 17.8563C23.4859 17.7374 23.8055 17.5888 24.0315 17.406L24.0613 17.4699C23.1959 17.95 22.4243 18.4643 21.559 18.9445C21.5293 18.8805 21.4995 18.8166 21.4698 18.7526C22.0452 18.4851 22.6548 18.1239 23.2302 17.8563ZM23.9955 22.0103C23.7829 21.7204 23.5703 21.4305 23.328 21.0766C23.6476 20.928 23.997 20.8433 24.3167 20.6946C24.5085 20.6054 24.7003 20.5163 24.956 20.3973C25.0749 20.6531 25.1596 21.0024 25.2146 21.2879C24.8607 21.5302 24.443 21.8022 23.9955 22.0103ZM25.0465 22.7657C25.0123 22.8593 25.0078 23.0169 24.9736 23.1106C24.9439 23.0467 24.8205 22.9485 24.7907 22.8846C24.8547 22.8549 24.9186 22.8251 25.0465 22.7657ZM24.2886 19.4636C23.7132 19.7312 23.0099 20.0582 22.3067 20.3852C22.2769 20.3213 22.2472 20.2573 22.1238 20.1592C22.891 19.8024 23.7222 19.416 24.4894 19.0592C24.5191 19.1232 24.5785 19.251 24.6083 19.315C24.4804 19.3744 24.3525 19.4339 24.2886 19.4636ZM23.6994 23.5475C23.7291 23.6115 23.8228 23.6457 23.8525 23.7096C23.7886 23.7394 23.7247 23.7691 23.5968 23.8285C23.5032 23.7943 23.4734 23.7304 23.35 23.6323C23.5076 23.6367 23.6355 23.5773 23.6994 23.5475ZM23.5565 25.2469C23.5268 25.1829 23.5268 25.1829 23.561 25.0893L23.6249 25.0595C23.6249 25.0595 23.6249 25.0595 23.6546 25.1234C23.7141 25.2513 23.8672 25.4134 24.0888 25.3882C24.2464 25.3927 24.34 25.4268 24.4976 25.4313C24.0159 25.733 23.5341 26.0348 23.0524 26.3366C22.8606 26.4258 22.7328 26.4852 22.541 26.5744C22.5797 26.3231 22.6822 26.0422 22.7209 25.7909C23.0956 25.9277 23.5773 25.626 23.5565 25.2469ZM20.5703 19.3265C20.6 19.3904 20.6297 19.4543 20.6297 19.4543C20.2461 19.6327 19.9562 19.8452 19.5726 20.0236L19.5429 19.9597C19.8329 19.7471 20.1867 19.5048 20.5703 19.3265ZM21.3979 24.6177C21.5257 24.5583 21.6536 24.4988 21.7814 24.4394C21.8112 24.5033 21.8409 24.5673 21.9345 24.6015C21.7427 24.6907 21.6149 24.7501 21.4231 24.8393C21.3934 24.7753 21.3636 24.7114 21.3979 24.6177ZM19.2172 21.433C19.2811 21.4033 19.2811 21.4033 19.3451 21.3735L19.3748 21.4375C19.3109 21.4672 19.2469 21.497 19.2172 21.433C19.2469 21.497 19.2172 21.433 19.2172 21.433ZM21.5225 26.8924C21.5523 26.9563 21.582 27.0203 21.6117 27.0842C21.5478 27.114 21.5478 27.114 21.4838 27.1437C21.518 27.05 21.4883 26.9861 21.5225 26.8924ZM17.2324 21.3451C17.3603 21.2856 17.4584 21.1623 17.5862 21.1028C17.7141 21.0433 17.8762 20.8902 18.0041 20.8308C18.0591 21.1162 18.1437 21.4656 18.2924 21.7852C18.0708 21.8105 17.879 21.8997 17.5936 21.9547C17.4747 21.6989 17.3855 21.5071 17.2324 21.3451ZM20.2113 26.4136C20.2752 26.3839 20.3391 26.3542 20.4031 26.3245C20.4031 26.3245 20.4031 26.3244 20.4328 26.3884C20.3689 26.4181 20.305 26.4478 20.241 26.4775L20.2113 26.4136ZM18.9195 24.1373L18.8556 24.167C18.643 23.8771 18.4602 23.651 18.3116 23.3314C18.1927 23.0757 18.1035 22.8839 17.9846 22.6282C18.1422 22.6326 18.3637 22.6074 18.4916 22.548C18.6654 23.0892 18.7754 23.66 18.9195 24.1373ZM17.9098 27.4838C17.8801 27.4199 17.9142 27.3262 17.8845 27.2623C17.9484 27.2325 17.9484 27.2326 18.0123 27.2028C18.2591 27.3991 18.5059 27.5954 18.7824 27.8556C18.0747 28.3402 17.4011 28.7311 16.6042 29.0239C16.6384 28.9303 16.6385 28.9303 16.6727 28.8366C16.8005 28.7772 16.8347 28.6835 16.8392 28.5259C16.8734 28.4322 16.8778 28.2746 16.9121 28.181C17.0057 28.2152 17.1633 28.2197 17.2273 28.19C17.6703 28.1394 17.9306 27.8629 17.9098 27.4838ZM14.718 25.469C14.6883 25.4051 14.6288 25.2772 14.5351 25.243C14.8548 25.0943 15.1447 24.8818 15.4644 24.7331C15.5283 24.7034 15.6561 24.644 15.7201 24.6143C15.7453 24.8358 15.8048 24.9636 15.83 25.1851C15.4807 25.2698 15.0674 25.3843 14.718 25.469ZM16.0158 26.4206C16.0455 26.4846 16.0113 26.5782 16.041 26.6421C15.9771 26.6718 15.977 26.6719 15.9131 26.7016C15.8195 26.6674 15.7259 26.6332 15.6322 26.599C15.7303 26.4756 15.8879 26.4801 16.0158 26.4206ZM13.019 21.9825C13.2108 21.8933 13.3386 21.8338 13.5304 21.7447C13.3981 21.9617 13.2657 22.1787 13.1631 22.4597C13.0739 22.2679 13.0785 22.1103 13.019 21.9825ZM14.568 22.9728C14.6959 22.9133 14.8237 22.8539 14.8877 22.8241C15.0066 23.0799 15.1255 23.3356 15.2444 23.5913L15.1805 23.621C14.7032 23.7652 14.226 23.9094 13.8127 24.0238C13.7235 23.832 13.664 23.7041 13.5748 23.5123C13.8945 23.3637 14.2781 23.1853 14.568 22.9728ZM14.8634 28.1228C14.9273 28.0931 15.021 28.1273 15.1489 28.0678C15.0849 28.0975 15.0507 28.1912 14.9228 28.2506C14.8931 28.1867 14.8634 28.1228 14.8634 28.1228ZM15.7226 28.9673C15.6884 29.061 15.6884 29.061 15.6542 29.1546L15.6245 29.0907C15.6245 29.0907 15.6884 29.061 15.7226 28.9673ZM11.4505 22.7896C11.4162 22.8832 11.4117 23.0408 11.4073 23.1984C11.437 23.2624 11.4965 23.3902 11.5262 23.4542C11.3641 23.6073 11.1084 23.7262 10.9463 23.8793C10.8824 23.909 10.7545 23.9685 10.6906 23.9982C10.5717 23.7425 10.4186 23.5804 10.2996 23.3247C10.713 23.2103 11.0669 22.9679 11.4505 22.7896ZM12.6437 28.5329C12.886 28.8867 13.1922 29.2109 13.4687 29.4711C13.4984 29.535 13.4985 29.535 13.5282 29.599C13.1283 29.2406 12.7923 28.8525 12.4906 28.3708C12.5203 28.4347 12.614 28.469 12.6437 28.5329ZM12.8501 30.1475C13.1266 30.4077 13.3392 30.6976 13.586 30.8939L13.5221 30.9236C13.3645 30.9191 13.2366 30.9786 13.1088 31.0381C13.0448 31.0678 12.9809 31.0975 12.9809 31.0975C12.9259 30.812 12.8709 30.5266 12.8501 30.1475ZM8.69687 24.2254C8.88867 24.1363 9.01649 24.0768 9.20828 23.9876C9.23801 24.0516 9.20383 24.1452 9.26329 24.2731C9.35247 24.4649 9.41194 24.5928 9.50112 24.7846C9.37326 24.844 9.18149 24.9332 9.05363 24.9927L8.69687 24.2254ZM11.9299 30.3422C11.9893 30.47 11.9552 30.5637 12.0146 30.6915C11.8912 30.5934 11.7678 30.4953 11.7381 30.4314C11.802 30.4016 11.866 30.3719 11.9299 30.3422ZM9.97963 26.8169C10.0733 26.8511 10.167 26.8853 10.3246 26.8898C10.4138 27.0816 10.439 27.3032 10.4985 27.431C10.3156 27.205 10.1327 26.979 9.97963 26.8169ZM11.7959 31.7263C11.6681 31.7857 11.6041 31.8154 11.4763 31.8749C11.4123 31.9046 11.4123 31.9046 11.3484 31.9344C11.1997 31.6147 11.0511 31.2951 10.9024 30.9754C11.1789 31.2356 11.5194 31.4661 11.7959 31.7263ZM7.67398 24.7011C7.73343 24.8289 7.79291 24.9569 7.8821 25.1487C7.75871 25.0505 7.69918 24.9226 7.54607 24.7606C7.61 24.7308 7.61005 24.7308 7.67398 24.7011ZM9.72933 32.2984C9.66987 32.1706 9.61042 32.0427 9.55097 31.9149C9.61042 32.0427 9.73379 32.1408 9.79324 32.2687C9.79324 32.2687 9.79326 32.2687 9.72933 32.2984ZM9.12009 29.316L9.38765 29.8914C9.23901 29.5718 9.06061 29.1881 8.91197 28.8685C8.97143 28.9963 9.06508 29.0306 9.09481 29.0945C9.0606 29.1882 9.09036 29.2521 9.12009 29.316ZM11.3883 33.8597C11.5801 33.7705 11.8358 33.6516 12.0276 33.5624C12.0276 33.5624 12.0276 33.5624 12.0916 33.5327C11.9295 33.6858 11.7972 33.9028 11.6351 34.0559C11.5712 34.0857 11.6009 34.1496 11.537 34.1793C11.4775 34.0515 11.418 33.9236 11.3883 33.8597ZM42.1337 48.6437C38.6565 46.6839 34.6409 45.9074 30.7235 45.0075C29.659 44.725 28.5648 44.3785 27.5003 44.0959C25.7163 43.6036 23.9665 43.0177 22.3149 42.3083C21.9105 42.1076 21.4764 41.8429 21.0423 41.5782C20.0508 40.9507 13.8203 37.0831 11.9324 34.6953C12.0261 34.7295 12.09 34.6997 12.1539 34.67C13.663 33.735 15.0488 32.7019 16.4984 31.6391C18.5398 30.8454 20.4028 29.6681 22.2955 28.5547C23.0672 28.0404 23.9027 27.4963 24.6744 26.9819C26.4645 26.1495 28.2843 25.3812 30.0743 24.5488C33.3988 23.003 36.6891 21.5507 40.0135 20.0049C41.1004 19.4995 42.2809 19.0283 43.4317 18.4932C44.6122 18.022 45.8566 17.5212 47.0371 17.05C47.6125 16.7825 48.2816 16.5491 48.9209 16.2518C49.3713 17.0532 49.7578 17.8843 50.0164 18.7749C50.2957 20.0446 50.5454 21.2503 50.6374 22.4516C50.6492 23.1459 50.6313 23.7763 50.4855 24.4661C50.4469 24.7173 50.5999 24.8794 50.7873 24.9478C50.8895 28.0104 50.4848 31.1533 49.7947 34.3512C48.2286 39.5114 46.0322 44.6538 44.5004 49.7204C44.4662 49.8141 44.4662 49.814 44.432 49.9077C43.6233 49.5062 42.8785 49.075 42.1337 48.6437ZM40.67 100.176C40.4574 99.8863 40.2746 99.6603 40.062 99.3704C40.3088 99.5666 40.5556 99.7629 40.7726 99.8952C40.8915 100.151 41.0402 100.471 41.1591 100.726C41.0699 100.535 40.8231 100.338 40.67 100.176ZM42.3469 101.107C42.3514 100.95 42.292 100.822 42.2622 100.758C42.4838 100.732 42.6161 100.515 42.6845 100.328C42.7232 100.077 42.7618 99.8256 42.7069 99.5402C43.0428 99.9282 43.3446 100.41 43.6805 100.798C43.2033 100.942 42.7899 101.057 42.3469 101.107ZM43.6227 99.5031C43.5633 99.3752 43.4398 99.277 43.3803 99.1492C43.4443 99.1195 43.4741 99.1834 43.538 99.1537C43.5335 99.3113 43.593 99.4391 43.6227 99.5031ZM42.6551 96.9206C42.719 96.8908 42.8172 96.7674 42.8811 96.7377C42.945 96.708 43.009 96.6782 43.0729 96.6485C43.1279 96.934 43.1531 97.1555 43.2081 97.441C43.1442 97.4707 43.1442 97.4707 43.0803 97.5004C42.8974 97.2744 42.8082 97.0826 42.6551 96.9206ZM44.5711 100.539C44.5459 100.318 44.4567 100.126 44.4314 99.9046C44.6485 100.037 44.8952 100.233 45.1123 100.366C44.9844 100.425 44.7629 100.45 44.5711 100.539ZM44.6712 95.9053C44.5434 95.9648 44.4155 96.0243 44.2237 96.1134C44.1939 96.0495 44.1939 96.0495 44.1642 95.9855C44.2921 95.9261 44.4839 95.8369 44.6118 95.7774C44.6415 95.8413 44.6712 95.9053 44.6712 95.9053ZM46.8429 99.4052C46.779 99.435 46.715 99.4647 46.6511 99.4944C46.6556 99.3369 46.5962 99.209 46.6007 99.0514C46.8222 99.0261 47.1076 98.9711 47.2994 98.8819C47.1373 99.0351 47.005 99.2521 46.8429 99.4052ZM46.4862 98.6381C46.6141 98.5786 46.7419 98.5192 46.9337 98.43L46.9634 98.4939C46.8058 98.4895 46.6141 98.5786 46.4862 98.6381ZM45.6005 95.3954C45.6986 95.272 45.8265 95.2126 45.9543 95.1531C45.8562 95.2765 45.7283 95.336 45.6005 95.3954ZM47.7604 98.2011C47.7306 98.1372 47.7307 98.1372 47.7009 98.0733C47.7649 98.0435 47.8288 98.0138 47.8288 98.0138C47.7946 98.1075 47.7946 98.1074 47.7604 98.2011ZM48.8769 97.7596C48.813 97.7894 48.6851 97.8488 48.6212 97.8786C48.6212 97.8786 48.6212 97.8786 48.5914 97.8146C48.6256 97.721 48.6599 97.6274 48.758 97.504C48.822 97.4743 48.9498 97.4147 48.984 97.3211C48.9156 97.5084 48.9111 97.666 48.8769 97.7596ZM47.1914 93.8003C47.4471 93.6814 47.7028 93.5625 47.9586 93.4436C47.7028 93.5625 47.4471 93.6814 47.1914 93.8003ZM50.0351 98.0765C50.0054 98.0126 50.0053 98.0125 50.0692 97.9828C50.261 97.8936 50.4187 97.8981 50.6105 97.8089C50.4187 97.8981 50.2269 97.9873 50.0351 98.0765ZM50.0575 97.2885C50.0322 97.067 50.0069 96.8455 49.9817 96.624C50.1437 96.4708 50.2716 96.4113 50.4337 96.2582C50.6804 96.4545 50.9272 96.6508 51.174 96.8471C50.7904 97.0254 50.4069 97.2038 50.0575 97.2885ZM48.76 92.9932C48.8879 92.9338 48.9518 92.904 49.0797 92.8446C49.0797 92.8446 49.0796 92.8446 49.1094 92.9085C48.9815 92.968 48.9176 92.9977 48.76 92.9932ZM49.0426 91.9288C48.9147 91.9883 48.8508 92.018 48.7229 92.0774C48.8508 92.018 48.885 91.9243 49.0426 91.9288C49.0129 91.8649 49.0426 91.9288 49.0426 91.9288ZM51.6484 95.6934C51.5547 95.6592 51.525 95.5953 51.4313 95.5611C51.4952 95.5314 51.5592 95.5016 51.6231 95.4719C51.6529 95.5358 51.6187 95.6294 51.6484 95.6934ZM53.987 95.539C53.4756 95.7769 52.9002 96.0444 52.3887 96.2822C52.3932 96.1246 52.4914 96.0013 52.4958 95.8437C52.6534 95.8481 52.8452 95.7589 52.8838 95.5077C52.8883 95.3501 52.8928 95.1925 52.8973 95.0349C53.153 94.916 53.4385 94.861 53.6942 94.7421C53.8131 94.9978 53.932 95.2536 53.987 95.539ZM55.505 94.2888C55.4069 94.4122 55.3088 94.5356 55.2746 94.6293L55.1259 94.3096C55.2538 94.2502 55.3817 94.1907 55.5393 94.1952C55.5393 94.1952 55.4753 94.2249 55.505 94.2888ZM57.487 93.3672C57.1971 93.5798 56.8431 93.8222 56.5532 94.0347C56.6513 93.9114 56.6558 93.7537 56.69 93.6601C56.9458 93.5412 57.2313 93.4862 57.487 93.3672ZM55.1401 87.1496C55.0806 87.0218 54.9573 86.9236 54.8636 86.8894L57.3569 85.73C56.6194 86.1507 55.9117 86.6353 55.1401 87.1496ZM61.399 88.9046C61.3693 88.8406 61.3053 88.8703 61.2117 88.8361C61.3098 88.7127 61.3143 88.5551 61.4124 88.4317C61.4719 88.5596 61.5314 88.6875 61.5908 88.8154C61.5269 88.8451 61.4629 88.8749 61.399 88.9046ZM59.4667 84.749C60.0421 84.4815 60.5535 84.2436 61.1289 83.9761C61.1883 84.104 61.2181 84.1679 61.2775 84.2957C60.7066 84.4057 60.0718 84.5454 59.4667 84.749ZM63.1341 87.7867C63.0702 87.8165 63.0062 87.8462 62.8784 87.9056C62.8828 87.748 62.917 87.6544 62.8576 87.5265C62.9215 87.4968 63.0494 87.4373 63.1133 87.4076C63.143 87.4716 63.1727 87.5355 63.1727 87.5355C63.1683 87.693 63.1341 87.7867 63.1341 87.7867ZM64.2596 87.0301C64.2938 86.9364 64.2938 86.9364 64.328 86.8428C64.392 86.8131 64.4559 86.7833 64.5199 86.7536L64.5496 86.8175C64.4856 86.8472 64.3578 86.9067 64.2596 87.0301ZM64.8622 82.4733C63.933 82.9832 62.9397 83.5228 62.0402 84.0966C61.9807 83.9687 61.8574 83.8706 61.7979 83.7427C62.8208 83.2671 63.8438 82.7914 64.8667 82.3158C64.8667 82.3158 64.8964 82.3797 64.8622 82.4733ZM66.0174 81.7807C65.8896 81.8401 65.7617 81.8996 65.6636 82.023C65.6338 81.959 65.6978 81.9293 65.668 81.8654C65.7959 81.806 65.9238 81.7465 66.0517 81.687C65.9878 81.7167 66.0174 81.7807 66.0174 81.7807ZM59.3184 81.0857C58.3252 81.6253 57.2383 82.1307 56.2749 82.7342C53.0693 84.5358 49.6512 86.0474 46.3268 87.5932C44.5367 88.4256 42.7763 89.3219 40.9862 90.1543C40.1551 90.5407 39.2601 90.957 38.4245 91.501C37.4137 89.3273 36.4371 87.06 35.9036 84.7421C35.3449 82.2027 35.702 79.6263 36.2806 77.0246C37.176 73.2648 38.5441 69.5184 39.7844 65.8314C41.5451 61.5915 43.3698 57.3218 44.564 53.0342C45.6627 53.2232 46.7272 53.5058 47.7916 53.7884C51.1499 55.4925 54.7045 56.9498 58.1952 58.4369C65.7682 61.6802 73.7961 65.5673 77.3977 73.1454C77.304 73.1112 77.1761 73.1707 77.0825 73.1365C70.5944 73.8986 64.9028 77.7114 59.3184 81.0857ZM72.9416 76.7726C73.1973 76.6537 73.4233 76.4709 73.6151 76.3817C73.743 76.3222 73.9006 76.3267 74.0924 76.2375C73.7088 76.4158 73.3252 76.5942 72.9416 76.7726ZM76.6966 81.1692C76.6669 81.1053 76.7011 81.0116 76.6714 80.9476C76.8632 80.8585 77.0892 80.6757 77.2512 80.5225C77.3746 80.6207 77.434 80.7485 77.5574 80.8467C77.208 80.9314 76.9524 81.0503 76.6966 81.1692ZM78.0229 80.0083C78.176 80.1703 78.4228 80.3666 78.5759 80.5287C78.512 80.5584 78.4481 80.5881 78.3841 80.6178C78.231 80.4558 78.0779 80.2937 77.9248 80.1316C77.895 80.0677 77.9589 80.038 78.0229 80.0083ZM79.9003 83.8783C80.4801 83.4532 80.996 83.0578 81.4822 82.5984C81.5461 82.5687 81.5461 82.5687 81.5164 82.5048C82.0234 82.4245 82.5601 82.4083 83.0031 82.3578C81.9802 82.8334 80.9232 83.4027 79.9003 83.8783ZM81.5584 79.9194C81.4781 79.4124 81.3978 78.9054 81.3176 78.3984C81.6194 78.8801 81.9211 79.3619 82.1589 79.8733C81.9374 79.8986 81.7159 79.9239 81.5584 79.9194ZM81.3163 76.2219C81.3713 76.5074 81.4902 76.763 81.6091 77.0188C81.6686 77.1466 81.6344 77.2403 81.6938 77.3682C81.5407 77.2061 81.4813 77.0783 81.3282 76.9162C81.239 76.7244 81.0858 76.5623 81.0264 76.4345C80.9669 76.3066 81.0012 76.2129 80.9417 76.085C81.1038 75.9319 81.3595 75.813 81.5216 75.6599L81.5513 75.7239C81.3595 75.813 81.2613 75.9365 81.2866 76.158L81.3163 76.2219ZM83.1343 79.9641C83.2621 79.9047 83.2963 79.811 83.3007 79.6534C83.4539 79.8155 83.5773 79.9137 83.7304 80.0757C83.5728 80.0712 83.3216 80.0326 83.1343 79.9641ZM84.4458 77.0994C85.0493 78.0628 85.5249 79.0857 85.8727 80.1681C85.397 79.1452 84.9214 78.1223 84.4458 77.0994ZM84.8083 79.8855C84.7146 79.8513 84.6849 79.7874 84.5913 79.7532C84.6552 79.7234 84.6552 79.7235 84.7191 79.6937C84.7488 79.7577 84.7785 79.8215 84.8083 79.8855ZM82.0004 74.3487C82.0643 74.319 82.1283 74.2892 82.1922 74.2595L82.3706 74.6431C82.4003 74.707 82.3364 74.7367 82.3661 74.8006C82.2427 74.7025 82.213 74.6386 82.0896 74.5405C82.0598 74.4765 82.0301 74.4126 82.0004 74.3487ZM82.9978 76.9952C82.968 76.9312 83.0022 76.8375 82.9725 76.7736C83.0022 76.8375 83.032 76.9015 83.0617 76.9654C83.3545 77.7623 83.741 78.5934 84.0977 79.3606C84.004 79.3264 83.9445 79.1985 83.8509 79.1643C83.622 78.3377 83.3248 77.6984 82.9978 76.9952ZM85.049 81.4065C85.0535 81.2489 85.0877 81.1552 85.0282 81.0274C85.1516 81.1255 85.3092 81.13 85.4326 81.2281C85.3047 81.2876 85.1769 81.347 85.049 81.4065ZM86.5194 80.7227C86.3915 80.7822 86.2637 80.8416 86.1358 80.9011C86.1061 80.8372 86.17 80.8074 86.1403 80.7435C86.1105 80.6795 86.0511 80.5517 86.0213 80.4877C86.1745 80.6498 86.3321 80.6542 86.5536 80.629C86.5239 80.5651 86.5536 80.6291 86.5194 80.7227C86.5833 80.693 86.5833 80.693 86.5194 80.7227Z" fill="#F4774C"/>
<path d="M42.8702 46.0459C42.8405 45.982 42.8405 45.982 42.8747 45.8883C43.0323 45.8928 43.1943 45.7397 43.2627 45.5523C44.0539 43.2406 44.9388 40.9631 45.7939 38.6216C46.1359 37.685 46.6103 36.5313 46.8632 35.4029C47.9219 33.6665 49.2155 31.4321 48.3147 29.8293C48.2553 29.7015 48.1616 29.6672 48.068 29.633C48.068 29.633 48.1319 29.6033 48.1616 29.6672C48.9154 29.7833 49.0746 28.6207 48.3208 28.5047C44.2666 27.9795 40.1468 28.651 36.4432 30.2177C35.1051 30.6844 33.7923 31.3725 32.6326 32.2228C30.0961 33.791 27.8019 35.7132 25.8779 37.9297C25.5879 38.1422 25.3916 38.389 25.1017 38.6016C25.0036 38.725 24.9694 38.8187 24.9649 38.9763C24.7047 39.2528 24.4742 39.5932 24.2437 39.9336C23.9493 40.3038 24.4132 40.6324 24.7328 40.4837C29.9122 43.5959 36.8002 43.1923 41.7789 46.7089C42.2725 47.1015 42.9163 46.6465 42.8702 46.0459ZM47.7186 29.7178C47.6547 29.7475 47.5907 29.7772 47.5268 29.807C47.497 29.743 47.4971 29.743 47.4034 29.7088C47.561 29.7133 47.6249 29.6835 47.7186 29.7178ZM47.1224 29.6062C47.0584 29.6359 46.9945 29.6657 46.9945 29.6657C46.8667 29.7251 46.8325 29.8188 46.7685 29.8485L46.7388 29.7846C46.5604 29.401 46.0832 29.5451 45.9806 29.8261C45.8914 29.6343 45.7041 29.5659 45.5167 29.4975C46.0832 29.5452 46.5857 29.6225 47.1224 29.6062ZM46.9184 32.3448C46.85 32.5321 46.7816 32.7194 46.7132 32.9067C46.7816 32.7194 46.85 32.5321 46.9184 32.3448ZM40.7886 32.7068C40.9165 32.6474 41.0742 32.6519 41.266 32.5627C41.1931 32.9076 41.0904 33.1886 41.0815 33.5038C40.9626 33.2481 40.9075 32.9626 40.7886 32.7068ZM40.0215 33.0636C40.0809 33.1914 40.1107 33.2553 40.1062 33.4129C40.0423 33.4427 40.0125 33.3788 39.9486 33.4085C39.953 33.2509 39.9873 33.1572 40.0215 33.0636ZM43.0329 39.2056C43.0627 39.2695 43.0285 39.3631 43.0285 39.3631L43.0582 39.427C42.9556 39.708 42.8232 39.9251 42.7206 40.2061C42.6909 40.1421 42.6909 40.1422 42.6612 40.0782C42.6612 40.0782 42.6612 40.0782 42.6314 40.0142C42.6998 39.8269 42.7043 39.6693 42.8024 39.5459C42.8366 39.4523 42.9348 39.3289 43.0329 39.2056ZM40.2101 35.3085C40.3082 35.1851 40.4361 35.1257 40.4703 35.032C40.4955 35.2536 40.5208 35.4751 40.5758 35.7606C40.5118 35.7903 40.4479 35.82 40.3839 35.8498C40.3587 35.6282 40.2993 35.5003 40.2101 35.3085ZM38.2106 33.5168C38.1764 33.6105 38.1764 33.6105 38.1422 33.7042C38.1125 33.6403 38.1124 33.6402 38.0827 33.5763C38.0827 33.5763 38.1467 33.5465 38.2106 33.5168ZM39.1053 36.4443C39.135 36.5082 39.1648 36.5722 39.1306 36.6659L39.0369 36.6316L39.0072 36.5677C39.0711 36.5379 39.0711 36.538 39.1053 36.4443ZM26.8112 40.6059C26.7473 40.6356 26.777 40.6995 26.713 40.7293C26.6194 40.6951 26.5258 40.6609 26.3682 40.6564C26.4321 40.6267 26.496 40.597 26.56 40.5672C26.5942 40.4736 26.722 40.4141 26.7562 40.3204C26.8499 40.3546 26.8157 40.4483 26.8112 40.6059ZM27.1443 39.9845L27.0804 40.0142L27.1443 39.9845ZM26.8307 38.8084C26.5363 39.1786 26.2419 39.5488 25.9475 39.9189C25.9133 40.0126 25.7855 40.0721 25.7513 40.1657C25.6873 40.1954 25.6531 40.2891 25.6828 40.353C25.4955 40.2846 25.3082 40.2162 25.0272 40.1136C25.3216 39.7434 25.616 39.3733 25.8762 39.0968C26.1959 38.9481 26.5155 38.7995 26.8649 38.7148C26.8946 38.7787 26.8946 38.7787 26.8307 38.8084ZM28.5611 41.1918C28.7187 41.1963 28.9104 41.1071 29.068 41.1116C29.1914 41.2097 29.3148 41.3078 29.4382 41.406C29.1572 41.3034 28.906 41.2647 28.5611 41.1918ZM27.4285 37.7529C27.7184 37.5403 27.9445 37.3575 28.2344 37.1449C28.2002 37.2386 28.102 37.3619 28.0678 37.4556C28.0039 37.4853 27.9058 37.6088 27.8418 37.6385C27.714 37.698 27.5861 37.7574 27.4285 37.7529ZM30.7229 39.4868C30.4374 39.5418 30.152 39.5967 29.9007 39.558C29.7134 39.4896 29.5261 39.4213 29.3091 39.2889C29.1217 39.2205 28.9344 39.1521 28.8066 39.2115C28.8705 39.1818 28.8408 39.1179 28.9047 39.0882C28.9983 39.1224 29.1559 39.1268 29.2496 39.161C29.5648 39.17 29.7863 39.1447 30.0717 39.0897L30.1654 39.1239C30.323 39.1284 30.5103 39.1969 30.6679 39.2013C30.6634 39.3589 30.6932 39.4229 30.7229 39.4868ZM33.4004 40.7299C33.3662 40.8236 33.3319 40.9173 33.2977 41.0109C33.1104 40.9425 32.8592 40.9038 32.6719 40.8354C32.6764 40.6778 32.6808 40.5202 32.6852 40.3626C32.7492 40.3329 32.8132 40.3032 32.8429 40.3671C32.7448 40.4905 32.8339 40.6823 33.0213 40.7507C33.2131 40.6615 33.3067 40.6957 33.4004 40.7299C33.4643 40.7002 33.4643 40.7002 33.4004 40.7299ZM38.7121 43.6251C38.7805 43.4378 38.7255 43.1523 38.5427 42.9263C38.5129 42.8624 38.513 42.8624 38.4193 42.8282C38.4193 42.8282 38.4193 42.8282 38.3896 42.7642C38.7894 43.1226 39.1254 43.5107 39.4614 43.8988C39.2101 43.8601 38.9931 43.7277 38.7121 43.6251ZM40.896 44.4758C40.8618 44.5694 40.8915 44.6333 40.9212 44.6972C40.8276 44.663 40.734 44.6289 40.7042 44.5649C40.7682 44.5352 40.8023 44.4415 40.8365 44.3479C40.8707 44.2542 40.905 44.1606 40.9094 44.003C40.905 44.1606 40.9005 44.3182 40.896 44.4758ZM41.5129 44.9664C41.5129 44.9664 41.449 44.9962 41.5129 44.9664V44.9664Z" fill="#F4774C"/>
<path d="M74.6253 73.0353C75.6096 72.8109 75.3986 71.3539 74.4144 71.5783C74.4144 71.5783 74.4144 71.5783 74.3504 71.6081C74.3178 70.5346 72.7272 68.7861 72.2336 68.3936C70.1063 66.6613 67.753 65.1119 64.8956 64.6522C64.738 64.6477 64.6101 64.7072 64.5462 64.7369C64.3291 64.6046 64.0779 64.5659 63.7582 64.7145C63.6943 64.7442 63.6943 64.7442 63.6304 64.774C63.4728 64.7695 63.3152 64.765 63.217 64.8884C63.0892 64.9479 63.055 65.0415 62.9271 65.101C62.7353 65.1902 62.4796 65.3091 62.2878 65.3983L62.2239 65.428C62.2239 65.428 62.2239 65.428 62.1599 65.4577C54.2963 69.1142 46.1562 72.5106 38.7474 76.8109C38.4277 76.9595 38.5125 77.309 38.6656 77.471C36.621 80.5989 37.5855 85.5156 38.889 88.4862C39.0079 88.7419 39.3186 88.9084 39.604 88.8534C52.1954 85.3311 62.0519 75.9272 74.6253 73.0353ZM68.0589 68.7797C69.0802 69.4711 70.1655 70.1328 71.1868 70.8242C71.6803 71.2168 72.1099 71.6391 72.6035 72.0316C72.4117 72.1208 72.1901 72.146 71.9983 72.2352C71.9731 72.0136 71.9478 71.7922 71.7947 71.6301C71.765 71.5662 71.6416 71.468 71.548 71.4338C71.5569 71.1186 71.2804 70.8584 70.931 70.9431C70.0971 70.3201 69.1947 69.8844 68.2581 69.5424C68.3265 69.355 68.3012 69.1335 68.212 68.9417C68.1823 68.8778 68.1526 68.8139 68.0589 68.7797ZM67.4804 71.3814C67.574 71.4156 67.6676 71.4497 67.7613 71.4839C67.6334 71.5434 67.5353 71.6668 67.4714 71.6966C67.4758 71.539 67.4461 71.475 67.4804 71.3814ZM58.167 76.1008C58.231 76.071 58.231 76.071 58.167 76.1008V76.1008ZM66.0917 71.405C66.1898 71.2816 66.288 71.1582 66.3564 70.9709C66.3474 71.2861 66.3088 71.5374 66.2998 71.8526C66.172 71.912 66.0441 71.9715 65.8523 72.0606C66.0783 71.8778 66.117 71.6265 66.0917 71.405ZM63.0012 66.9327C63.031 66.9966 63.031 66.9966 63.0012 66.9327C63.031 66.9966 63.031 66.9966 63.0012 66.9327C62.967 67.0263 62.967 67.0263 63.0012 66.9327C62.967 67.0263 62.9031 67.056 62.9031 67.056C62.9031 67.056 62.967 67.0263 63.0012 66.9327ZM66.5776 74.2893C64.8514 75.0919 63.1892 75.8649 61.5225 76.7954C63.1595 75.801 64.8559 74.9343 66.5776 74.2893ZM60.0019 73.6924C60.0659 73.6627 60.0659 73.6627 60.0019 73.6924C60.2234 73.6672 60.4449 73.6419 60.6367 73.5528L60.5728 73.5825C60.4449 73.6419 60.2234 73.6672 60.0019 73.6924ZM62.6438 72.8527C62.6736 72.9167 62.6394 73.0103 62.6691 73.0742C62.6052 73.1039 62.4773 73.1634 62.4133 73.1931C62.4476 73.0995 62.5457 72.9761 62.6438 72.8527ZM60.0141 71.0431C59.8817 71.2602 59.7791 71.5412 59.6765 71.8222C59.5828 71.7879 59.4252 71.7834 59.3316 71.7492C59.4297 71.6259 59.4342 71.4682 59.5323 71.3449C59.6304 71.2215 59.8223 71.1323 60.0141 71.0431ZM58.7028 70.5642C58.6686 70.6579 58.6047 70.6877 58.5705 70.7814C58.4084 70.9345 58.3103 71.0578 58.1482 71.2109C57.9609 71.1425 57.7394 71.1678 57.5476 71.257C57.9654 70.985 58.4174 70.6192 58.8352 70.3472C58.801 70.4409 58.7667 70.5345 58.7028 70.5642ZM56.5991 70.2206C56.7909 70.1314 56.9828 70.0422 57.1106 69.9828C56.9486 70.1359 56.7865 70.289 56.6244 70.4421C56.6244 70.4421 56.6244 70.4421 56.5947 70.3782C56.5947 70.3782 56.5649 70.3143 56.5991 70.2206ZM56.4131 72.3288C56.4131 72.3288 56.3834 72.2648 56.4131 72.3288C56.6391 72.1459 56.8011 71.9928 56.9632 71.8397C56.8948 72.027 56.92 72.2485 57.0389 72.5043C56.8769 72.6574 56.7788 72.7808 56.6167 72.9339C56.587 72.87 56.5573 72.806 56.5275 72.7421C56.4978 72.6781 56.4384 72.5502 56.3447 72.516C56.315 72.4521 56.3492 72.3585 56.4131 72.3288ZM55.49 71.5139C55.3279 71.6671 55.1658 71.8201 55.0676 71.9435C55.0037 71.9733 54.9056 72.0967 54.8416 72.1264C54.7777 72.1562 54.7138 72.1859 54.6499 72.2156C54.8462 71.9688 55.2 71.7265 55.49 71.5139ZM55.9339 76.9836C56.0275 77.0178 56.0915 76.9881 56.1852 77.0223L56.151 77.116C56.1168 77.2096 56.1465 77.2736 56.1123 77.3673L56.0483 77.397C55.9889 77.2691 55.9933 77.1115 55.9339 76.9836ZM53.5049 74.7697C53.3428 74.9228 53.2744 75.1101 53.1123 75.2632L53.0186 75.229C53.151 75.0119 53.3428 74.9228 53.5049 74.7697ZM47.0323 82.7557C46.9684 82.7854 46.8406 82.8449 46.7766 82.8746C46.6533 82.7765 46.5298 82.6783 46.4406 82.4865C46.6324 82.3973 46.8242 82.3081 46.9224 82.1847C47.0413 82.4405 47.0368 82.5981 47.0323 82.7557ZM53.4955 78.4285C53.6828 78.4969 53.8062 78.595 53.9935 78.6634C53.8017 78.7526 53.7037 78.876 53.5119 78.9652C53.4866 78.7437 53.491 78.5861 53.4955 78.4285ZM51.5686 79.6355C51.692 79.7336 51.8496 79.7381 51.973 79.8362C51.7173 79.9551 51.5551 80.1083 51.2994 80.2272C51.4318 80.0101 51.5002 79.8228 51.5686 79.6355ZM50.507 80.3624C50.3836 80.2643 50.2603 80.1661 50.1666 80.1319C50.3926 79.9491 50.6186 79.7662 50.8446 79.5834C50.7122 79.8004 50.6096 80.0815 50.507 80.3624ZM47.3498 74.9103C47.5416 74.8211 47.6397 74.6977 47.8315 74.6086C47.6694 74.7617 47.5416 74.8211 47.3795 74.9742C47.3795 74.9742 47.3796 74.9742 47.3498 74.9103ZM48.5137 77.246C48.4497 77.2757 48.4497 77.2757 48.5137 77.246C48.4497 77.2757 48.4497 77.2757 48.5137 77.246C48.4497 77.2757 48.4497 77.2757 48.5137 77.246ZM47.7778 76.4996C47.9057 76.4401 47.9696 76.4104 48.0335 76.3807C47.9696 76.4104 47.8715 76.5338 47.7778 76.4996C47.8075 76.5635 47.8075 76.5635 47.7778 76.4996ZM48.5939 77.7531C48.5299 77.7828 48.5299 77.7828 48.5299 77.7828L48.5641 77.6891C48.5641 77.6891 48.5641 77.6891 48.5939 77.7531ZM47.1935 77.0823C47.2232 77.1463 47.1592 77.1761 47.189 77.24C47.189 77.24 47.1592 77.176 47.0953 77.2057C47.0656 77.1418 47.1296 77.1121 47.1935 77.0823ZM47.7103 82.2071C47.9021 82.1179 48.1281 81.9351 48.1371 81.6199C48.1371 81.6199 48.1371 81.6199 48.1074 81.556C48.5891 81.2542 48.9771 80.9183 49.4588 80.6165C49.6759 80.7489 49.829 80.9109 50.0461 81.0433C49.2447 81.4937 48.473 82.008 47.6716 82.4584C47.74 82.2711 47.7103 82.2071 47.7103 82.2071ZM42.9906 76.2375C43.0248 76.1438 42.9653 76.0159 42.8717 75.9817C43.1913 75.8331 43.5407 75.7484 43.8604 75.5997C43.5705 75.8123 43.2805 76.0249 42.9906 76.2375ZM43.8645 78.7858C43.8348 78.7219 43.8051 78.6579 43.7753 78.594C43.5925 78.368 43.3457 78.1717 43.0603 78.2267C43.2863 78.0438 43.5464 77.7673 43.7724 77.5845C43.8364 77.5548 43.9003 77.525 43.9643 77.4953C43.8572 77.9339 43.8438 78.4067 43.8645 78.7858ZM46.103 83.2655C45.8473 83.3845 45.6213 83.5673 45.3656 83.6862C45.3359 83.6222 45.3359 83.6223 45.3701 83.5286C45.5322 83.3755 45.7581 83.1926 45.9202 83.0395C45.9797 83.1674 46.0733 83.2016 46.103 83.2655ZM42.0108 76.3043C42.0748 76.2746 42.1387 76.2448 42.2026 76.2151C41.938 76.6492 41.8011 77.0238 41.6643 77.3984C41.6004 77.4282 41.5662 77.5219 41.5022 77.5516C41.6391 77.177 41.8101 76.7087 42.0108 76.3043ZM42.1176 79.2094C42.1176 79.2094 42.1815 79.1796 42.1518 79.1157C42.1176 79.2093 42.1176 79.2093 42.0834 79.303L42.1176 79.2094ZM38.7231 82.1096C38.5553 80.2437 38.8261 78.485 39.9056 77.1277C40.0974 77.0386 40.2252 76.9791 40.4467 76.9538C40.3828 76.9836 40.3486 77.0772 40.3486 77.0772L40.2847 77.1069C40.1866 77.2303 40.1182 77.4176 40.02 77.541C39.2899 78.8136 38.875 80.0951 38.8986 81.4837C38.8302 81.671 38.7618 81.8583 38.7231 82.1096ZM40.808 77.5634C40.7351 77.9083 40.6622 78.2532 40.5893 78.5981C40.3291 78.8746 40.0986 79.2151 39.9321 79.5258C40.0779 78.836 40.411 78.2146 40.808 77.5634ZM40.2559 82.5632C40.299 82.1544 40.4998 81.75 40.6664 81.4393C40.7808 81.8526 40.8952 82.2659 41.0096 82.6792C40.9754 82.7729 40.907 82.9602 40.8728 83.0539C40.8133 82.926 40.7197 82.8918 40.69 82.8279C40.5368 82.6658 40.4135 82.5677 40.2559 82.5632ZM41.8449 85.4788L41.8791 85.3851C41.8791 85.3851 41.9133 85.2915 41.8836 85.2276C42.0456 85.0745 42.2077 84.9213 42.2761 84.734C42.3995 84.8321 42.4589 84.96 42.5823 85.0581C42.4202 85.2112 42.1645 85.3301 41.8449 85.4788ZM41.5911 81.087C41.5227 81.2744 41.4885 81.368 41.4201 81.5553C41.3056 81.142 41.2209 80.7926 41.1704 80.3495C41.2685 80.2261 41.3028 80.1325 41.4009 80.0091C41.4856 80.3585 41.5064 80.7377 41.5911 81.087ZM43.3882 84.4502C43.7034 84.4591 44.023 84.3104 44.1256 84.0295C44.1553 84.0934 44.2491 84.1276 44.3427 84.1618C44.0231 84.3105 43.7034 84.4591 43.4774 84.6419C43.4477 84.578 43.4179 84.5141 43.3882 84.4502ZM46.5698 84.6036C46.6634 84.6378 46.7571 84.672 46.885 84.6125C47.0128 84.5531 47.1407 84.4936 47.2046 84.4639C46.3096 84.8801 45.3506 85.326 44.4258 85.6783C45.2227 85.3855 45.8962 84.9946 46.5698 84.6036Z" fill="#F4774C"/>
</svg>
