<svg width="124" height="66" viewBox="0 0 124 66" fill="none" xmlns="http://www.w3.org/2000/svg">
<path fill-rule="evenodd" clip-rule="evenodd" d="M34.0251 58.6273C28.0098 58.4327 23.2285 56.5123 18.4471 54.3559C2.76617 47.2746 -1.60821 37.4233 9.13709 26.6265C25.8463 9.88334 63.8321 -1.80101 94.0115 3.25617C100.695 4.37072 108.947 5.3075 115.58 10.7503C121.749 15.8111 121.013 21.4696 118.185 27.0395C115.306 32.7503 110.074 37.8754 105.652 41.254C86.3212 55.9946 48.6263 69.5165 13.6141 62.4536C12.8943 62.3175 12.1744 62.5515 11.9688 62.9763C11.7631 63.401 12.1233 63.8565 12.7917 63.9925C48.8322 71.2614 88.78 57.5764 108.677 42.4062C114.178 38.1933 121.375 31.1608 123.432 23.8845C124.82 18.9113 123.843 13.8277 118.496 9.40532C111.453 3.60759 101.839 2.47203 94.7436 1.28507C63.5874 -3.93826 23.3313 7.34012 6.10802 24.6325C-5.45989 36.237 0.0925033 48.0575 16.9559 55.669C22.0972 58.0086 27.3416 60.0305 33.871 60.2413C34.5908 60.2642 35.2075 59.9213 35.2075 59.4758C35.2589 59.0304 34.6935 58.6503 34.0251 58.6273Z" fill="#F4774C"/>
</svg>
