<svg width="50" height="50" viewBox="0 0 50 50" fill="none" xmlns="http://www.w3.org/2000/svg">
<circle cx="25" cy="25" r="25" fill="#F5F5F5"/>
<mask id="mask0_328_15867" style="mask-type:alpha" maskUnits="userSpaceOnUse" x="0" y="0" width="50" height="50">
<circle cx="25" cy="25" r="25" fill="#F5F5F5"/>
</mask>
<g mask="url(#mask0_328_15867)">
<path fill-rule="evenodd" clip-rule="evenodd" d="M25.0021 27.375C29.6965 27.375 33.5021 23.5694 33.5021 18.875C33.5021 14.1806 29.6965 10.375 25.0021 10.375C20.3077 10.375 16.5021 14.1806 16.5021 18.875C16.5021 23.5694 20.3077 27.375 25.0021 27.375ZM25.0021 27.375H26.6036C35.4679 27.375 43.0126 33.8285 44.3862 42.5857L45.6378 50.5651C45.8281 51.7784 44.8901 52.875 43.662 52.875H6.33833C5.11018 52.875 4.17217 51.7784 4.3625 50.5651L5.61423 42.5855C6.98792 33.8284 14.5326 27.375 23.3968 27.375H25.0021Z" fill="#AEAEAE"/>
</g>
</svg>
