<svg width="540" height="315" viewBox="0 0 540 315" fill="none" xmlns="http://www.w3.org/2000/svg">
<rect width="540" height="315" rx="5" fill="white"/>
<path fill-rule="evenodd" clip-rule="evenodd" d="M240.596 190.363L283.172 147.788C284.734 146.226 287.266 146.226 288.828 147.788L302 160.959V130.616C302 128.407 300.209 126.616 298 126.616H242C239.791 126.616 238 128.407 238 130.616V186.616C238 188.331 239.08 189.795 240.596 190.363ZM251.658 190.616H298.001C300.21 190.616 302.001 188.825 302.001 186.616V172.273L286.001 156.273L251.658 190.616ZM242 117H298C304.627 117 310 122.373 310 129V185C310 191.627 304.627 197 298 197H242C235.373 197 230 191.627 230 185V129C230 122.373 235.373 117 242 117ZM256 154.616C250.477 154.616 246 150.139 246 144.616C246 139.093 250.477 134.616 256 134.616C261.523 134.616 266 139.093 266 144.616C266 150.139 261.523 154.616 256 154.616ZM256 146.616C257.105 146.616 258 145.72 258 144.616C258 143.511 257.105 142.616 256 142.616C254.896 142.616 254 143.511 254 144.616C254 145.72 254.896 146.616 256 146.616Z" fill="#F0F0F0"/>
</svg>
