<svg width="129" height="26" viewBox="0 0 129 26" fill="none" xmlns="http://www.w3.org/2000/svg">
<g clip-path="url(#clip0_214_16956)">
<path fill-rule="evenodd" clip-rule="evenodd" d="M99.4563 6.79886C101.746 7.18619 103.81 8.36342 105.26 10.1094C106.71 11.8553 107.446 14.0498 107.33 16.2805C107.215 18.5112 106.255 20.6246 104.632 22.2236C103.009 23.8227 100.834 24.7972 98.5153 24.9643C96.1968 25.1313 93.8946 24.4793 92.0413 23.1308C90.1879 21.7822 88.911 19.83 88.4504 17.6408C87.9897 15.4516 88.3771 13.1761 89.5397 11.2419C90.7024 9.30778 92.5602 7.84801 94.7642 7.13691C96.2745 6.65064 97.8873 6.53444 99.4563 6.79886ZM42.5417 19.8627C42.5417 23.2883 40.1332 24.9986 35.316 24.9936H23.6484V6.70871H34.5965C37.1928 6.70871 39.0149 7.00169 40.0706 7.57263C40.8419 7.95653 41.4837 8.54312 41.9212 9.26401C42.3587 9.98489 42.5739 10.8104 42.5417 11.6443C42.5555 12.505 42.3125 13.3515 41.8413 14.0837C41.3701 14.8159 40.6905 15.4031 39.8829 15.776C40.709 16.1086 41.4091 16.6766 41.8887 17.4033C42.3683 18.13 42.6044 18.9805 42.5652 19.8402L42.5417 19.8627ZM37.1615 12.1852C37.1615 11.0358 36.3248 10.4573 34.6435 10.4573H28.6767V13.9656H34.6435C36.3248 13.9656 37.1615 13.3721 37.1615 12.1852ZM37.1615 19.4646C37.1615 18.2701 36.3326 17.6766 34.6747 17.6766H28.6767V21.2525H34.7138C36.3717 21.2525 37.2006 20.6515 37.2006 19.4646H37.1615ZM86.0214 24.9936H81.0165V17.7443H73.7908V24.9936H68.7703V6.70871H73.7908V13.7177H81.0165V6.70871H86.0214V24.9936ZM128.985 24.9936H122.228L114.533 16.1216V24.9936H109.513V6.70871H114.533V15.4906L122.627 6.70871H129.032L120.187 15.6558L129.032 24.9936H128.985ZM99.1904 10.9907C98.5045 10.7831 97.7815 10.7134 97.0664 10.7859C96.3513 10.8584 95.6593 11.0715 95.0336 11.4119C94.408 11.7524 93.8619 12.213 93.4295 12.7649C92.9972 13.3169 92.6877 13.9485 92.5204 14.6203C92.3531 15.2921 92.3315 15.9898 92.457 16.67C92.5826 17.3502 92.8525 17.9983 93.2501 18.5739C93.6476 19.1495 94.1642 19.6404 94.7678 20.0159C95.3714 20.3914 96.0489 20.6436 96.7583 20.7567C97.5347 20.9064 98.3361 20.8885 99.1044 20.7041C100.225 20.4325 101.22 19.8128 101.936 18.9414C102.651 18.07 103.047 16.9959 103.061 15.8861C103.075 14.7763 102.707 13.6931 102.014 12.805C101.321 11.917 100.342 11.2738 99.2295 10.9757L99.1904 10.9907ZM57.9629 10.7128C59.1508 11.2684 60.1076 12.1944 60.677 13.3397C61.2464 14.485 61.3949 15.7819 61.0981 17.0187C60.8013 18.2554 60.0769 19.3591 59.043 20.1493C58.0092 20.9396 56.727 21.3699 55.4058 21.3699C54.0846 21.3699 52.8024 20.9396 51.7685 20.1493C50.7346 19.3591 50.0102 18.2554 49.7134 17.0187C49.4167 15.7819 49.5651 14.485 50.1345 13.3397C50.7039 12.1944 51.6607 11.2684 52.8486 10.7128V5.82227C50.3208 6.42237 48.1091 7.89058 46.631 9.94979C45.1528 12.009 44.5105 14.5168 44.8251 16.9998C45.1398 19.4828 46.3897 21.7693 48.3389 23.4277C50.2882 25.0861 52.8019 26.0017 55.4058 26.0017C58.0096 26.0017 60.5234 25.0861 62.4726 23.4277C64.4219 21.7693 65.6718 19.4828 65.9864 16.9998C66.3011 14.5168 65.6587 12.009 64.1806 9.94979C62.7024 7.89058 60.4907 6.42237 57.9629 5.82227V10.7128Z" fill="#F4774C"/>
<path fill-rule="evenodd" clip-rule="evenodd" d="M20.7545 18.0295C20.7545 22.647 17.848 24.9583 12.0351 24.9633H0C0 20.3357 8.04686 20.5461 11.0028 20.5461C13.4062 20.5461 14.6053 19.5444 14.6001 17.5412C14.6001 15.5279 13.4036 14.5363 11.0028 14.5363H4.21502V10.1641H10.9481C13.3489 10.1641 14.5375 9.19503 14.5375 7.27189C14.5375 5.34874 13.3332 4.41722 10.9481 4.41722C7.52292 4.41722 0 5.2586 0 0H11.0811C14.2716 0 16.4952 0.378118 17.7516 1.13435C18.6957 1.69594 19.4658 2.49049 19.9816 3.4352C20.4973 4.37992 20.74 5.44022 20.6841 6.50563C20.7326 7.7681 20.3859 9.01552 19.6889 10.0868C18.9919 11.1581 17.9766 12.0041 16.7741 12.5155C19.4173 13.5972 20.7362 15.4503 20.731 18.0745L20.7545 18.0295Z" fill="#F4774C"/>
<path fill-rule="evenodd" clip-rule="evenodd" d="M56.1436 18.8557C55.2711 19.0257 54.364 18.858 53.6196 18.389C52.8751 17.92 52.3534 17.1877 52.1679 16.3513C51.9824 15.5148 52.1481 14.6418 52.629 13.9221C53.1099 13.2024 53.8671 12.6941 54.736 12.5078V5.50635H56.3V12.5078C56.6968 12.5962 57.0732 12.7541 57.4105 12.9736C57.9667 13.3333 58.3988 13.8439 58.6519 14.4404C58.9051 15.0369 58.9677 15.6922 58.8318 16.323C58.696 16.9538 58.3678 17.5314 57.8891 17.9825C57.4104 18.4335 56.8028 18.7375 56.1436 18.8557Z" fill="#F4774C"/>
</g>
<defs>
<clipPath id="clip0_214_16956">
<rect width="129" height="26" fill="white"/>
</clipPath>
</defs>
</svg>
